<?xml version="1.0" encoding="UTF-8"?>
<svg id="Layer_2" data-name="Layer 2" xmlns="http://www.w3.org/2000/svg" xmlns:xlink="http://www.w3.org/1999/xlink" viewBox="0 0 143.133 150.235">
  <defs>
    <style>
      .cls-1 {
        clip-path: url(#clippath);
      }

      .cls-2 {
        fill: none;
      }

      .cls-2, .cls-3, .cls-4, .cls-5, .cls-6, .cls-7, .cls-8, .cls-9, .cls-10, .cls-11, .cls-12, .cls-13, .cls-14, .cls-15, .cls-16, .cls-17, .cls-18, .cls-19, .cls-20, .cls-21, .cls-22, .cls-23, .cls-24, .cls-25, .cls-26, .cls-27, .cls-28, .cls-29, .cls-30, .cls-31, .cls-32, .cls-33, .cls-34, .cls-35 {
        stroke-width: 0px;
      }

      .cls-3 {
        fill: #f6606f;
      }

      .cls-4 {
        fill: url(#linear-gradient);
      }

      .cls-5 {
        fill: #5f7737;
      }

      .cls-6 {
        fill: #4f8e3c;
      }

      .cls-7 {
        fill: url(#linear-gradient-11);
      }

      .cls-8 {
        fill: url(#linear-gradient-12);
      }

      .cls-9 {
        fill: url(#linear-gradient-13);
      }

      .cls-10 {
        fill: url(#linear-gradient-10);
      }

      .cls-11 {
        fill: url(#linear-gradient-17);
      }

      .cls-12 {
        fill: url(#linear-gradient-16);
      }

      .cls-13 {
        fill: url(#linear-gradient-19);
      }

      .cls-14 {
        fill: url(#linear-gradient-15);
      }

      .cls-15 {
        fill: url(#linear-gradient-21);
      }

      .cls-16 {
        fill: url(#linear-gradient-18);
      }

      .cls-17 {
        fill: url(#linear-gradient-14);
      }

      .cls-18 {
        fill: url(#linear-gradient-22);
      }

      .cls-19 {
        fill: url(#linear-gradient-20);
      }

      .cls-20 {
        fill: #98aa31;
      }

      .cls-21 {
        fill: #a7bd5a;
      }

      .cls-22 {
        fill: #fea8a4;
      }

      .cls-23 {
        fill: url(#linear-gradient-4);
      }

      .cls-24 {
        fill: url(#linear-gradient-2);
      }

      .cls-25 {
        fill: url(#linear-gradient-3);
      }

      .cls-26 {
        fill: url(#linear-gradient-8);
      }

      .cls-27 {
        fill: url(#linear-gradient-9);
      }

      .cls-28 {
        fill: url(#linear-gradient-7);
      }

      .cls-29 {
        fill: url(#linear-gradient-5);
      }

      .cls-30 {
        fill: url(#linear-gradient-6);
      }

      .cls-31 {
        fill: #fff;
      }

      .cls-32 {
        fill: #356139;
      }

      .cls-33 {
        fill: #6aa04a;
      }

      .cls-34 {
        fill: #52671c;
      }

      .cls-35 {
        fill: #b5c3a8;
      }
    </style>
    <clipPath id="clippath">
      <path class="cls-2" d="M132.692,42.798c-3.578-17.061-27.257-30.246-55.956-30.246s-52.378,13.185-55.956,30.246h-.484v107.437h112.881V42.798h-.484Z"/>
    </clipPath>
    <linearGradient id="linear-gradient" x1="-1006.85" y1="680.881" x2="-994.285" y2="680.881" gradientTransform="translate(1273.874 53.478) rotate(34.247)" gradientUnits="userSpaceOnUse">
      <stop offset=".308" stop-color="#b1e1ec" stop-opacity=".8"/>
      <stop offset=".999" stop-color="#83c6e3"/>
    </linearGradient>
    <linearGradient id="linear-gradient-2" x1="-1013.162" y1="684.182" x2="-1003.483" y2="684.182" xlink:href="#linear-gradient"/>
    <linearGradient id="linear-gradient-3" x1="-1011.314" y1="691.858" x2="-998.749" y2="691.858" xlink:href="#linear-gradient"/>
    <linearGradient id="linear-gradient-4" x1="-1002.116" y1="688.556" x2="-992.437" y2="688.556" xlink:href="#linear-gradient"/>
    <linearGradient id="linear-gradient-5" x1="-365.76" y1="562.916" x2="-365.76" y2="528.88" gradientTransform="translate(586.487 -347.688) rotate(17.756)" gradientUnits="userSpaceOnUse">
      <stop offset="0" stop-color="#fcf4ed"/>
      <stop offset="1" stop-color="#bee7fc"/>
    </linearGradient>
    <linearGradient id="linear-gradient-6" x1="-1021.484" y1="675.311" x2="-988.848" y2="675.311" gradientTransform="translate(1273.874 53.478) rotate(34.247)" gradientUnits="userSpaceOnUse">
      <stop offset=".307" stop-color="#b1e1ec"/>
      <stop offset=".999" stop-color="#83c6e3"/>
    </linearGradient>
    <linearGradient id="linear-gradient-7" x1="9816.398" y1="6130.383" x2="9816.398" y2="6096.347" gradientTransform="translate(7530.115 8868.134) rotate(-162.244)" xlink:href="#linear-gradient-5"/>
    <linearGradient id="linear-gradient-8" x1="107.916" y1="135.593" x2="107.916" y2="108.294" gradientUnits="userSpaceOnUse">
      <stop offset="0" stop-color="#f96576"/>
      <stop offset=".246" stop-color="#f96878"/>
      <stop offset=".457" stop-color="#fa7280"/>
      <stop offset=".655" stop-color="#fb848d"/>
      <stop offset=".843" stop-color="#fd9d9f"/>
      <stop offset="1" stop-color="#ffb8b3"/>
    </linearGradient>
    <linearGradient id="linear-gradient-9" x1="1514.927" y1="7957.981" x2="1514.927" y2="7930.683" gradientTransform="translate(8041.306 -1382.041) rotate(90)" xlink:href="#linear-gradient-8"/>
    <linearGradient id="linear-gradient-10" x1="7930.307" y1="-1271.417" x2="7930.307" y2="-1298.715" gradientTransform="translate(1382.04 8041.308) rotate(-90)" xlink:href="#linear-gradient-8"/>
    <linearGradient id="linear-gradient-11" x1="9337.32" y1="6550.968" x2="9337.32" y2="6523.67" gradientTransform="translate(9423.352 6659.263) rotate(-180)" xlink:href="#linear-gradient-8"/>
    <linearGradient id="linear-gradient-12" x1="112.151" y1="86.953" x2="112.151" y2="65.774" xlink:href="#linear-gradient-8"/>
    <linearGradient id="linear-gradient-13" x1="1466.893" y1="7948.234" x2="1466.893" y2="7927.055" gradientTransform="translate(8041.306 -1382.041) rotate(90)" xlink:href="#linear-gradient-8"/>
    <linearGradient id="linear-gradient-14" x1="7973.434" y1="-1267.789" x2="7973.434" y2="-1288.967" gradientTransform="translate(1382.04 8041.308) rotate(-90)" xlink:href="#linear-gradient-8"/>
    <linearGradient id="linear-gradient-15" x1="9328.18" y1="6593.488" x2="9328.18" y2="6572.31" gradientTransform="translate(9423.352 6659.263) rotate(-180)" xlink:href="#linear-gradient-8"/>
    <linearGradient id="linear-gradient-16" x1="-983.972" y1="729.517" x2="-977.401" y2="729.517" xlink:href="#linear-gradient"/>
    <linearGradient id="linear-gradient-17" x1="-987.273" y1="731.244" x2="-982.211" y2="731.244" xlink:href="#linear-gradient"/>
    <linearGradient id="linear-gradient-18" x1="-986.306" y1="735.258" x2="-979.735" y2="735.258" xlink:href="#linear-gradient"/>
    <linearGradient id="linear-gradient-19" x1="-981.496" y1="733.531" x2="-976.434" y2="733.531" xlink:href="#linear-gradient"/>
    <linearGradient id="linear-gradient-20" x1="-365.247" y1="604.869" x2="-365.247" y2="587.069" xlink:href="#linear-gradient-5"/>
    <linearGradient id="linear-gradient-21" x1="-991.625" y1="726.604" x2="-974.558" y2="726.604" xlink:href="#linear-gradient-6"/>
    <linearGradient id="linear-gradient-22" x1="9802.869" y1="6072.194" x2="9802.869" y2="6054.394" gradientTransform="translate(7530.115 8868.134) rotate(-162.244)" xlink:href="#linear-gradient-5"/>
  </defs>
  <g id="Props">
    <g>
      <g>
        <path class="cls-21" d="M132.692,42.798c-3.578-17.061-27.257-30.246-55.956-30.246s-52.378,13.185-55.956,30.246h-.484v107.437h112.881V42.798h-.484Z"/>
        <g class="cls-1">
          <g>
            <rect class="cls-33" x="-34.954" y="98.018" width="114.69" height="114.69"/>
            <rect class="cls-33" x="-13.546" y="-16.458" width="89.366" height="96.06"/>
            <rect class="cls-33" x="89.043" y="-11.487" width="116.091" height="69.348"/>
            <circle class="cls-32" cx="79.735" cy="-.152" r="31.985"/>
            <circle class="cls-32" cx="122.249" cy="98.018" r="60.169"/>
            <circle class="cls-21" cx="70.47" cy="185.202" r="74.514"/>
          </g>
        </g>
        <path class="cls-6" d="M100.782,58.183c-1.803-.066-3.579-.13-5.355-.196-2.038-.076-4.096-.002-6.111-.26-5.379-.687-9.33-5.256-9.289-10.668.026-3.428.179-6.854.277-10.281.002-.081.018-.161.04-.392,1.137.059,2.274.136,3.412.174,2.219.073,4.439.131,6.658.183,6.21.145,10.901,5.125,10.682,11.326-.112,3.165-.186,6.332-.278,9.498-.005.177-.02.354-.035.618Z"/>
        <path class="cls-5" d="M68.205,100.606c-.466,1.433-.925,2.844-1.386,4.256-.529,1.62-.942,3.289-1.611,4.848-1.786,4.162-6.361,6.287-10.698,5.012-2.747-.807-5.463-1.717-8.193-2.581-.064-.02-.125-.051-.306-.122.308-.9.631-1.795.922-2.7.568-1.765,1.124-3.535,1.674-5.305,1.541-4.954,6.617-7.578,11.546-5.98,2.516.816,5.042,1.602,7.563,2.402.141.045.279.097.488.17Z"/>
        <path class="cls-34" d="M28.869,84.703c.263-1.222.55-2.377.755-3.545.411-2.347,1.082-4.59,2.342-6.64,3.505-5.706,10.163-8.657,16.816-7.428,1.601.296,3.2.597,4.948.923-.174.721-.348,1.363-.483,2.012-.422,2.041-.688,4.119-1.535,6.053-1.489,3.401-3.839,6.024-7.091,7.816-3.607,1.988-7.434,2.469-11.451,1.618-1.386-.293-2.785-.526-4.301-.809Z"/>
        <path class="cls-20" d="M36.678,33.956c16.425-2.231,32.22,9.923,34.066,26.599-15.186,2.404-32.041-8.944-34.066-26.599Z"/>
        <path class="cls-35" d="M68.205,85.276c.91-1.558,1.806-3.093,2.703-4.627,1.03-1.761,1.938-3.609,3.117-5.263,3.147-4.416,9.041-5.739,13.791-3.145,3.009,1.643,5.956,3.397,8.93,5.102.07.04.134.092.327.22-.59.974-1.195,1.94-1.766,2.925-1.113,1.921-2.213,3.85-3.307,5.782-3.062,5.405-9.668,7.185-15.029,4.062-2.737-1.594-5.492-3.156-8.239-4.733-.154-.088-.302-.184-.528-.322Z"/>
        <path class="cls-6" d="M99.802,97.566c.689,1.043,1.313,2.056,2.005,3.02,1.389,1.936,2.522,3.985,3.106,6.319,1.625,6.497-.925,13.318-6.458,17.212-1.331.937-2.665,1.869-4.121,2.889-.393-.629-.73-1.202-1.1-1.753-1.163-1.729-2.461-3.373-3.251-5.331-1.389-3.443-1.618-6.957-.624-10.535,1.103-3.968,3.437-7.039,6.855-9.314,1.179-.785,2.324-1.622,3.587-2.507Z"/>
        <path class="cls-34" d="M91.394,140.313c-14.558,7.926-33.643,2.183-41.299-12.746,13.338-7.647,33.128-3.035,41.299,12.746Z"/>
        <path class="cls-34" d="M137.307,92.345c-1.235-.194-2.404-.416-3.582-.555-2.366-.279-4.643-.824-6.761-1.966-5.894-3.18-9.213-9.662-8.358-16.373.206-1.615.417-3.229.644-4.991.73.134,1.38.271,2.036.369,2.061.307,4.151.456,6.129,1.193,3.479,1.296,6.229,3.496,8.201,6.642,2.187,3.49,2.881,7.284,2.257,11.342-.215,1.4-.369,2.81-.567,4.339Z"/>
        <path class="cls-34" d="M41.299,102.763c-14.558,7.926-33.643,2.183-41.299-12.746,13.338-7.647,33.128-3.035,41.299,12.746Z"/>
        <path class="cls-35" d="M70,21.666c-2.072.693-4.114,1.377-6.156,2.058-2.344.782-4.672,1.748-7.034,2.306-6.305,1.488-11.941-2.225-13.233-8.642-.818-4.064-1.49-8.181-2.227-12.274-.017-.097-.019-.198-.052-.481,1.312-.416,2.627-.811,3.934-1.253,2.549-.862,5.095-1.743,7.639-2.63,7.119-2.484,13.7,1.399,14.983,8.824.655,3.79,1.354,7.565,2.032,11.348.038.211.065.426.113.745Z"/>
        <path class="cls-5" d="M36.678,51.627c-.466,1.433-.925,2.844-1.386,4.256-.529,1.62-.942,3.289-1.611,4.848-1.786,4.162-6.361,6.287-10.698,5.012-2.747-.807-5.463-1.717-8.193-2.581-.064-.02-.125-.051-.306-.122.308-.9.631-1.795.922-2.7.568-1.765,1.124-3.535,1.674-5.305,1.541-4.954,6.617-7.578,11.546-5.98,2.516.816,5.042,1.602,7.563,2.402.141.045.279.097.488.17Z"/>
        <path class="cls-34" d="M37.554,34.388c-1.235-.194-2.404-.416-3.582-.555-2.366-.279-4.643-.824-6.761-1.966-5.894-3.18-9.213-9.662-8.358-16.373.206-1.615.417-3.229.644-4.991.73.134,1.38.271,2.036.369,2.061.307,4.151.456,6.129,1.193,3.479,1.296,6.229,3.496,8.201,6.642,2.187,3.49,2.881,7.284,2.257,11.342-.215,1.4-.369,2.81-.567,4.339Z"/>
        <path class="cls-34" d="M88.574,22.449c.263-1.222.55-2.377.755-3.545.411-2.347,1.082-4.59,2.342-6.64,3.505-5.706,10.163-8.657,16.816-7.428,1.601.296,3.2.597,4.948.923-.174.721-.348,1.363-.483,2.012-.422,2.041-.688,4.119-1.535,6.053-1.489,3.401-3.839,6.024-7.091,7.816-3.607,1.988-7.434,2.469-11.451,1.618-1.386-.293-2.785-.526-4.301-.809Z"/>
        <path class="cls-20" d="M118.39,102.899c15.848,4.857,25.098,22.51,19.787,38.426-14.795-4.18-25.346-21.546-19.787-38.426Z"/>
        <path class="cls-35" d="M9.216,140.978c.91-1.558,1.806-3.093,2.703-4.627,1.03-1.761,1.938-3.609,3.117-5.263,3.147-4.416,9.041-5.739,13.791-3.145,3.009,1.643,5.956,3.397,8.93,5.102.07.04.134.092.327.22-.59.974-1.195,1.94-1.766,2.925-1.113,1.921-2.213,3.85-3.307,5.782-3.062,5.405-9.668,7.185-15.029,4.062-2.737-1.594-5.492-3.156-8.239-4.733-.154-.088-.302-.184-.528-.322Z"/>
        <path class="cls-35" d="M110.383,33.171c.545-1.404,1.082-2.789,1.62-4.172.618-1.588,1.123-3.231,1.877-4.751,2.014-4.057,6.701-5.924,10.96-4.411,2.698.959,5.36,2.017,8.037,3.032.063.024.122.058.299.139-.358.881-.73,1.757-1.071,2.645-.665,1.731-1.318,3.467-1.966,5.204-1.814,4.861-7.027,7.199-11.86,5.33-2.467-.954-4.946-1.879-7.419-2.818-.138-.052-.274-.112-.478-.196Z"/>
        <path class="cls-6" d="M113.433,49.443c1.003-.747,1.979-1.426,2.903-2.171,1.855-1.496,3.837-2.741,6.135-3.455,6.396-1.986,13.349.178,17.546,5.483,1.01,1.277,2.015,2.557,3.116,3.953-.606.428-1.159.796-1.689,1.197-1.661,1.258-3.23,2.646-5.141,3.544-3.36,1.579-6.856,2.005-10.483,1.213-4.024-.879-7.22-3.038-9.683-6.323-.85-1.134-1.75-2.23-2.704-3.441Z"/>
      </g>
      <g>
        <g>
          <circle class="cls-31" cx="58.679" cy="56.501" r="18.948"/>
          <g>
            <polygon class="cls-4" points="66.062 60.785 69.163 51.103 59.549 48.024 66.062 60.785"/>
            <polygon class="cls-24" points="62.894 49.096 53.28 46.017 50.18 55.699 62.894 49.096"/>
            <polygon class="cls-25" points="51.295 52.217 48.195 61.899 57.808 64.978 51.295 52.217"/>
            <polygon class="cls-23" points="54.463 63.907 64.077 66.985 67.177 57.303 54.463 63.907"/>
          </g>
          <path class="cls-29" d="M71.81,42.837l-10.38,32.415c6.925-1.021,13.015-5.855,15.294-12.972s.129-14.589-4.914-19.443Z"/>
          <path class="cls-30" d="M45.014,43.37l32.415,10.38c-1.021-6.925-5.855-13.015-12.972-15.294s-14.589-.129-19.443,4.914Z"/>
          <path class="cls-28" d="M45.548,70.166l10.38-32.415c-6.925,1.021-13.015,5.855-15.294,12.972s-.129,14.589,4.914,19.443Z"/>
        </g>
        <g>
          <circle class="cls-3" cx="96.974" cy="121.944" r="15.197"/>
          <g>
            <polygon class="cls-22" points="103.662 123.41 103.662 115.256 95.566 115.256 103.662 123.41"/>
            <polygon class="cls-22" points="98.383 115.256 90.286 115.256 90.286 123.41 98.383 115.256"/>
            <polygon class="cls-22" points="90.286 120.477 90.286 128.631 98.383 128.631 90.286 120.477"/>
            <polygon class="cls-22" points="95.566 128.631 103.662 128.631 103.662 120.477 95.566 128.631"/>
          </g>
          <path class="cls-26" d="M103.662,108.294v27.298c5.04-2.474,8.509-7.656,8.509-13.649s-3.47-11.175-8.509-13.649Z"/>
          <path class="cls-27" d="M110.623,128.631h-27.298c2.474,5.04,7.656,8.509,13.649,8.509s11.175-3.47,13.649-8.509Z"/>
          <path class="cls-10" d="M83.325,115.256h27.298c-2.474-5.04-7.656-8.509-13.649-8.509-5.993,0-11.175,3.47-13.649,8.509Z"/>
          <path class="cls-7" d="M90.286,135.593v-27.298c-5.04,2.474-8.509,7.656-8.509,13.649s3.47,11.175,8.509,13.649Z"/>
        </g>
        <g>
          <circle class="cls-3" cx="103.662" cy="76.363" r="11.79"/>
          <g>
            <polygon class="cls-22" points="108.85 77.501 108.85 71.175 102.569 71.175 108.85 77.501"/>
            <polygon class="cls-22" points="104.754 71.175 98.473 71.175 98.473 77.501 104.754 71.175"/>
            <polygon class="cls-22" points="98.473 75.226 98.473 81.552 104.754 81.552 98.473 75.226"/>
            <polygon class="cls-22" points="102.569 81.552 108.85 81.552 108.85 75.226 102.569 81.552"/>
          </g>
          <path class="cls-8" d="M108.85,65.774v21.178c3.91-1.919,6.602-5.94,6.602-10.589s-2.692-8.67-6.602-10.589Z"/>
          <path class="cls-9" d="M114.251,81.552h-21.178c1.919,3.91,5.94,6.602,10.589,6.602s8.67-2.692,10.589-6.602Z"/>
          <path class="cls-17" d="M93.073,71.175h21.178c-1.919-3.91-5.94-6.602-10.589-6.602-4.65,0-8.67,2.692-10.589,6.602Z"/>
          <path class="cls-14" d="M98.473,86.953v-21.178c-3.91,1.919-6.602,5.94-6.602,10.589s2.692,8.67,6.602,10.589Z"/>
        </g>
        <g>
          <circle class="cls-31" cx="50.095" cy="106.328" r="9.909"/>
          <g>
            <polygon class="cls-12" points="53.957 108.568 55.578 103.505 50.551 101.895 53.957 108.568"/>
            <polygon class="cls-11" points="52.3 102.455 47.272 100.845 45.651 105.909 52.3 102.455"/>
            <polygon class="cls-16" points="46.234 104.088 44.613 109.151 49.64 110.761 46.234 104.088"/>
            <polygon class="cls-13" points="47.891 110.201 52.918 111.811 54.54 106.747 47.891 110.201"/>
          </g>
          <path class="cls-19" d="M56.962,99.182l-5.428,16.952c3.622-.534,6.807-3.062,7.998-6.784s.068-7.63-2.57-10.168Z"/>
          <path class="cls-15" d="M42.949,99.461l16.952,5.428c-.534-3.622-3.062-6.807-6.784-7.998s-7.63-.068-10.168,2.57Z"/>
          <path class="cls-18" d="M43.228,113.474l5.428-16.952c-3.622.534-6.807,3.062-7.998,6.784-1.192,3.722-.068,7.63,2.57,10.168Z"/>
        </g>
      </g>
    </g>
  </g>
</svg>