<?xml version="1.0" encoding="UTF-8"?>
<svg id="Layer_2" data-name="Layer 2" xmlns="http://www.w3.org/2000/svg" viewBox="0 0 2239.559 287.783">
  <defs>
    <style>
      .cls-1 {
        fill: #e1f1ff;
        stroke-width: 0px;
      }
    </style>
  </defs>
  <g id="Vine_Back" data-name="Vine Back">
    <path class="cls-1" d="M2015.271,59.106c3.929,17.227,9.906,34.17,16.529,50.516,12.876,31.777,29.984,63.22,54.723,87.365,23.528,22.963,60.348,41.668,93.758,30.739,31.457-10.29,46.174-45.506,52.766-75.188,10.218-46.008,7.091-95.115-.327-141.294-.23-1.43-2.636,1.796-2.765,1.991-.908,1.367-2.047,3.434-1.771,5.153,6.526,40.625,9.358,82.987,3.199,123.846-4.471,29.661-14.742,65.794-46.035,77.157-31.969,11.608-68.215-5.598-91.597-27.169-24.702-22.789-41.862-53.047-54.904-83.701-7.747-18.21-14.628-37.225-19.038-56.559-.324-1.419-2.608,1.754-2.765,1.991-.855,1.286-2.146,3.508-1.771,5.153h0Z"/>
    <g>
      <g>
        <path class="cls-1" d="M1788.947,38.546c7.339,17.014,15.598,33.672,24.084,50.136,17.952,34.827,37.699,68.939,60.698,100.699,21.178,29.246,46.462,60.74,79.715,76.763,12.834,6.184,27.308,9.426,41.463,6.549,16.399-3.333,29.956-14.259,40.546-26.755,16.715-19.723,27.91-43.832,37.018-67.823,14.307-37.683,23.501-77.295,30.958-116.832,2.363-12.53,4.513-25.099,6.514-37.691.295-1.855-.355-1.497-1.53-.813-1.355.79-2.667,3.966-2.905,5.463-6.943,43.682-15.467,87.41-28.925,129.605-8.255,25.882-18.227,52.356-34.193,74.588-9.783,13.623-22.536,26.115-38.911,31.176-13.517,4.178-27.704,2.41-40.656-2.849-32.792-13.314-58.085-43.295-78.855-70.808-23.566-31.215-43.602-65.099-61.834-99.655-6.704-12.706-13.149-25.55-19.314-38.526-1.99-4.188-3.951-8.39-5.873-12.61-.944-2.072-1.687-5.07-3.083-6.88-.178-.231-.266-.607-.383-.879-.485-1.124-5.446,5.035-4.536,7.144h0Z"/>
        <path class="cls-1" d="M1690.76,41.077c-1.189,13.376.134,27.282,2.255,40.477,4.541,28.246,15.331,55.726,33.769,77.836,26.397,31.654,65.659,47.263,105.864,51.747,30.488,3.4,61.44,1.201,91.642-3.67,38.596-6.225,76.146-17.679,111.502-34.392,62.621-29.601,117.079-74.303,162.276-126.477,5.054-5.834,9.999-11.762,14.846-17.769,1.343-1.664,3.67-9.186.205-4.893-42.679,52.889-94.304,99.243-154.382,131.516-33.574,18.036-69.559,31.515-106.796,39.679-32.454,7.115-66.148,11.154-99.403,9.537-41.7-2.029-84.151-14.376-114.145-44.739-20.749-21.004-33.436-48.554-39.332-77.256-2.091-10.179-3.371-20.525-3.806-30.908-.146-3.48-.2-6.965-.136-10.448.031-1.689.547-3.931.222-5.587-.042-.216.036-.519.056-.743.173-1.941-1.847.162-2.217.599-1.214,1.434-2.254,3.597-2.422,5.491h0Z"/>
      </g>
      <path class="cls-1" d="M1451.167,48.226c3.929,17.227,9.906,34.17,16.529,50.516,12.876,31.777,29.984,63.22,54.723,87.365,23.528,22.963,60.348,41.668,93.758,30.739,31.457-10.29,46.174-45.506,52.766-75.188,10.218-46.008,7.091-95.115-.327-141.294-.23-1.43-2.636,1.796-2.765,1.991-.908,1.367-2.047,3.434-1.771,5.153,6.526,40.625,9.358,82.987,3.199,123.846-4.471,29.661-14.742,65.794-46.035,77.157-31.969,11.608-68.215-5.598-91.597-27.169-24.702-22.789-41.862-53.047-54.904-83.701-7.747-18.21-14.628-37.225-19.038-56.559-.324-1.419-2.608,1.754-2.765,1.991-.855,1.286-2.146,3.508-1.771,5.153h0Z"/>
    </g>
    <g>
      <g>
        <path class="cls-1" d="M1224.843,52.576c7.339,17.014,15.598,33.672,24.084,50.136,17.952,34.827,37.699,68.939,60.698,100.699,21.178,29.246,46.462,60.74,79.715,76.763,12.834,6.184,27.308,9.426,41.463,6.549,16.399-3.333,29.956-14.259,40.546-26.755,16.715-19.723,27.91-43.832,37.018-67.823,14.307-37.683,23.501-77.295,30.958-116.832,2.363-12.53,4.513-25.099,6.514-37.691.295-1.855-.355-1.497-1.53-.813-1.355.79-2.667,3.966-2.905,5.463-6.943,43.682-15.467,87.41-28.925,129.605-8.255,25.882-18.227,52.356-34.193,74.588-9.783,13.623-22.536,26.115-38.911,31.176-13.517,4.178-27.704,2.41-40.656-2.849-32.792-13.314-58.085-43.295-78.855-70.808-23.566-31.215-43.602-65.099-61.834-99.655-6.704-12.706-13.149-25.55-19.314-38.526-1.99-4.188-3.951-8.39-5.873-12.61-.944-2.072-1.687-5.07-3.083-6.88-.178-.231-.266-.607-.383-.879-.485-1.124-5.446,5.035-4.536,7.144h0Z"/>
        <path class="cls-1" d="M1126.656,55.107c-1.189,13.376.134,27.282,2.255,40.477,4.541,28.246,15.331,55.726,33.769,77.836,26.397,31.654,65.659,47.263,105.864,51.747,30.488,3.4,61.44,1.201,91.642-3.67,38.596-6.225,76.146-17.679,111.502-34.392,62.621-29.601,117.079-74.303,162.276-126.477,5.054-5.834,9.999-11.762,14.846-17.769,1.343-1.664,3.67-9.186.205-4.893-42.679,52.889-94.304,99.243-154.382,131.516-33.574,18.036-69.559,31.515-106.796,39.679-32.454,7.115-66.148,11.154-99.403,9.537-41.7-2.029-84.151-14.376-114.145-44.739-20.749-21.004-33.436-48.554-39.332-77.256-2.091-10.179-3.371-20.525-3.806-30.908-.146-3.48-.2-6.965-.136-10.448.031-1.689.547-3.931.222-5.587-.042-.216.036-.519.056-.743.173-1.941-1.847.162-2.217.599-1.214,1.434-2.254,3.597-2.422,5.491h0Z"/>
      </g>
      <path class="cls-1" d="M887.063,62.256c3.929,17.227,9.906,34.17,16.529,50.516,12.876,31.777,29.984,63.22,54.723,87.365,23.528,22.963,60.348,41.668,93.758,30.739,31.457-10.29,46.174-45.506,52.766-75.188,10.218-46.008,7.091-95.115-.327-141.294-.23-1.43-2.636,1.796-2.765,1.991-.908,1.367-2.047,3.434-1.771,5.153,6.526,40.625,9.358,82.987,3.199,123.846-4.471,29.661-14.742,65.794-46.035,77.157-31.969,11.608-68.215-5.598-91.597-27.169-24.702-22.789-41.862-53.047-54.904-83.701-7.747-18.21-14.628-37.225-19.038-56.559-.324-1.419-2.608,1.754-2.765,1.991-.855,1.286-2.146,3.508-1.771,5.153h0Z"/>
    </g>
    <g>
      <path class="cls-1" d="M98.634,52.576c7.339,17.014,15.598,33.672,24.084,50.136,17.952,34.827,37.699,68.939,60.698,100.699,21.178,29.246,46.462,60.74,79.715,76.763,12.834,6.184,27.308,9.426,41.463,6.549,16.399-3.333,29.956-14.259,40.546-26.755,16.715-19.723,27.91-43.832,37.018-67.823,14.307-37.683,23.501-77.295,30.958-116.832,2.363-12.53,4.513-25.099,6.514-37.691.295-1.855-.355-1.497-1.53-.813-1.355.79-2.667,3.966-2.905,5.463-6.943,43.682-15.467,87.41-28.925,129.605-8.255,25.882-18.227,52.356-34.193,74.588-9.783,13.623-22.536,26.115-38.911,31.176-13.517,4.178-27.704,2.41-40.656-2.849-32.792-13.314-58.085-43.295-78.855-70.808-23.566-31.215-43.602-65.099-61.834-99.655-6.704-12.706-13.149-25.55-19.314-38.526-1.99-4.188-3.951-8.39-5.873-12.61-.944-2.072-1.687-5.07-3.083-6.88-.178-.231-.266-.607-.383-.879-.485-1.124-5.446,5.035-4.536,7.144h0Z"/>
      <path class="cls-1" d="M.448,55.107c-1.189,13.376.134,27.282,2.255,40.477,4.541,28.246,15.331,55.726,33.769,77.836,26.397,31.654,65.659,47.263,105.864,51.747,30.488,3.4,61.44,1.201,91.642-3.67,38.596-6.225,76.146-17.679,111.502-34.392,62.621-29.601,117.079-74.303,162.276-126.477,5.054-5.834,9.999-11.762,14.846-17.769,1.343-1.664,3.67-9.186.205-4.893-42.679,52.889-94.304,99.243-154.382,131.516-33.574,18.036-69.559,31.515-106.796,39.679-32.454,7.115-66.148,11.154-99.403,9.537-41.7-2.029-84.151-14.376-114.145-44.739-20.749-21.004-33.436-48.554-39.332-77.256-2.091-10.179-3.371-20.525-3.806-30.908-.146-3.48-.2-6.965-.136-10.448.031-1.689.547-3.931.222-5.587-.042-.216.036-.519.056-.743.173-1.941-1.847.162-2.217.599-1.214,1.434-2.254,3.597-2.422,5.491H.448Z"/>
    </g>
    <g>
      <path class="cls-1" d="M322.959,62.256c3.929,17.227,9.906,34.17,16.529,50.516,12.876,31.777,29.984,63.22,54.723,87.365,23.528,22.963,60.348,41.668,93.758,30.739,31.457-10.29,46.174-45.506,52.766-75.188,10.218-46.008,7.091-95.115-.327-141.294-.23-1.43-2.636,1.796-2.765,1.991-.908,1.367-2.047,3.434-1.771,5.153,6.526,40.625,9.358,82.987,3.199,123.846-4.471,29.661-14.742,65.794-46.035,77.157-31.969,11.608-68.215-5.598-91.597-27.169-24.702-22.789-41.862-53.047-54.904-83.701-7.747-18.21-14.628-37.225-19.038-56.559-.324-1.419-2.608,1.754-2.765,1.991-.855,1.286-2.146,3.508-1.771,5.153h0Z"/>
      <g>
        <path class="cls-1" d="M660.739,30.596c7.339,17.014,15.598,33.672,24.084,50.136,17.952,34.827,37.699,68.939,60.698,100.699,21.178,29.246,46.462,60.74,79.715,76.763,12.834,6.184,27.308,9.426,41.463,6.549,16.399-3.333,29.956-14.259,40.546-26.755,16.715-19.723,27.91-43.832,37.018-67.823,14.307-37.683,23.501-77.295,30.958-116.832,2.363-12.53,4.513-25.099,6.514-37.691.295-1.855-.355-1.497-1.53-.813-1.355.79-2.667,3.966-2.905,5.463-6.943,43.682-15.467,87.41-28.925,129.605-8.255,25.882-18.227,52.356-34.193,74.588-9.783,13.623-22.536,26.115-38.911,31.176-13.517,4.178-27.704,2.41-40.656-2.849-32.792-13.314-58.085-43.295-78.855-70.808-23.566-31.215-43.602-65.099-61.834-99.655-6.704-12.706-13.149-25.55-19.314-38.526-1.99-4.188-3.951-8.39-5.873-12.61-.944-2.072-1.687-5.07-3.083-6.88-.178-.231-.266-.607-.383-.879-.485-1.124-5.446,5.035-4.536,7.144h0Z"/>
        <path class="cls-1" d="M562.552,33.127c-1.189,13.376.134,27.282,2.255,40.477,4.541,28.246,15.331,55.726,33.769,77.836,26.397,31.654,65.659,47.263,105.864,51.747,30.488,3.4,61.44,1.201,91.642-3.67,38.596-6.225,76.146-17.679,111.502-34.392,62.621-29.601,117.079-74.303,162.276-126.477,5.054-5.834,9.999-11.762,14.846-17.769,1.343-1.664,3.67-9.186.205-4.893-42.679,52.889-94.304,99.243-154.382,131.516-33.574,18.036-69.559,31.515-106.796,39.679-32.454,7.115-66.148,11.154-99.403,9.537-41.7-2.029-84.151-14.376-114.145-44.739-20.749-21.004-33.436-48.554-39.332-77.256-2.091-10.179-3.371-20.525-3.806-30.908-.146-3.48-.2-6.965-.136-10.448.031-1.689.547-3.931.222-5.587-.042-.216.036-.519.056-.743.173-1.941-1.847.162-2.217.599-1.214,1.434-2.254,3.597-2.422,5.491h0Z"/>
      </g>
    </g>
  </g>
</svg>