<?xml version="1.0" encoding="UTF-8"?>
<svg id="Layer_2" data-name="Layer 2" xmlns="http://www.w3.org/2000/svg" viewBox="0 0 2537.676 352.791">
  <defs>
    <style>
      .cls-1 {
        fill: #8fcfda;
      }

      .cls-1, .cls-2, .cls-3, .cls-4, .cls-5, .cls-6 {
        stroke-width: 0px;
      }

      .cls-2 {
        fill: #8dbac0;
      }

      .cls-3 {
        fill: #fba9be;
      }

      .cls-4 {
        fill: #a5d2e3;
      }

      .cls-5 {
        fill: #92baca;
      }

      .cls-6 {
        fill: #eaf8fc;
      }
    </style>
  </defs>
  <g id="Bushes">
    <g>
      <path class="cls-5" d="M2408.145,259.987c0,17.677.08,34.564-8.84,50.55-5.409,9.695-13.446,17.993-22.744,24.02-4.607,2.987-9.603,5.337-14.849,6.97-1.231.383-1.116.352-2.417.661-.072.017-4.24.879-1.762.447-.899.142-1.8.266-2.704.373l1.445-.119c-2.003.113-1.838.135.494.066-.467.009-.933.014-1.4.014-2.787,0-17.034-.436-17.5,3.85-.415,3.812,16.309,3.85,17.5,3.85,28.717,0,58.004-8.836,74.87-33.533,7.176-10.508,11.697-22.585,12.688-35.301.564-7.238.217-14.594.217-21.848,0-5.584-35-5.713-35,0h0Z"/>
      <path class="cls-2" d="M2427.676,0h20C2497.349,0,2537.676,40.328,2537.676,90v169.987h-200V90C2337.676,40.328,2378.004,0,2427.676,0Z"/>
      <path class="cls-5" d="M2208.465,230.536v116.282c0,5.584,35,5.713,35,0v-116.282c0-5.584-35-5.713-35,0h0Z"/>
      <path class="cls-4" d="M2225.476,85.005c3.301-6.238,5.741-12.016,9.167-17.134,21.833-32.615,69.754-31.502,89.746,2.279,15.669,26.476,12.872,53.16-2.972,78.177-7.804,12.322-18.337,23.039-28.364,33.803-17.758,19.061-37.44,36.349-52.815,57.595-4.773,6.595-9.453,13.258-14.44,20.262-5.639-7.823-10.377-15.785-16.446-22.552-17.282-19.271-34.983-38.172-52.762-56.989-11.727-12.411-23.85-24.455-31.237-40.197-9.027-19.238-11.243-38.959-3.616-59.185,8.434-22.365,27.549-36.592,49.246-36.91,23.838-.349,42.732,12.459,52.282,35.444.674,1.623,1.331,3.254,2.21,5.408Z"/>
      <path class="cls-5" d="M2008.785,259.987c0,7.253-.348,14.61.217,21.848.991,12.717,5.512,24.792,12.688,35.301,16.866,24.697,46.154,33.533,74.87,33.533,2.787,0,17.034.436,17.5-3.85.415-3.812-16.309-3.85-17.5-3.85-4.573,0,2.633.075-.216-.033-1.171-.084-.92-.06.756.072-.904-.107-1.805-.231-2.704-.373,2.293.4-1.372-.352-1.762-.447-3.483-.846.986.399-2.417-.661-5.245-1.634-10.242-3.984-14.849-6.97-9.298-6.027-17.335-14.326-22.744-24.02-8.918-15.984-8.84-32.874-8.84-50.55,0-5.584-35-5.713-35,0h0Z"/>
      <path class="cls-5" d="M1984.723,259.987c0,17.677.08,34.564-8.84,50.55-5.409,9.695-13.446,17.993-22.744,24.02-4.607,2.987-9.603,5.337-14.849,6.97-1.231.383-1.116.352-2.417.661-.072.017-4.24.879-1.762.447-.899.142-1.8.266-2.704.373l1.445-.119c-2.003.113-1.838.135.494.066-.467.009-.933.014-1.4.014-2.787,0-17.034-.436-17.5,3.85-.415,3.812,16.309,3.85,17.5,3.85,28.717,0,58.004-8.836,74.87-33.533,7.176-10.508,11.697-22.585,12.688-35.301.564-7.238.217-14.594.217-21.848,0-5.584-35-5.713-35,0h0Z"/>
      <path class="cls-1" d="M2004.254,0h20C2073.927,0,2114.254,40.328,2114.254,90v169.987h-200V90C1914.254,40.328,1954.582,0,2004.254,0Z"/>
      <path class="cls-5" d="M1785.043,230.536v116.282c0,5.584,35,5.713,35,0v-116.282c0-5.584-35-5.713-35,0h0Z"/>
      <path class="cls-2" d="M1802.054,85.005c3.301-6.238,5.741-12.016,9.167-17.134,21.833-32.615,69.754-31.502,89.746,2.279,15.669,26.476,12.872,53.16-2.972,78.177-7.804,12.322-18.337,23.039-28.364,33.803-17.758,19.061-37.44,36.349-52.815,57.595-4.773,6.595-9.453,13.258-14.44,20.262-5.639-7.823-10.377-15.785-16.446-22.552-17.282-19.271-34.983-38.172-52.762-56.989-11.727-12.411-23.85-24.455-31.237-40.197-9.027-19.238-11.243-38.959-3.616-59.185,8.434-22.365,27.549-36.592,49.246-36.91,23.838-.349,42.732,12.459,52.282,35.444.674,1.623,1.331,3.254,2.21,5.408Z"/>
      <path class="cls-5" d="M1585.363,259.987c0,7.253-.348,14.61.217,21.848.991,12.717,5.512,24.792,12.688,35.301,16.866,24.697,46.154,33.533,74.87,33.533,2.787,0,17.034.436,17.5-3.85.415-3.812-16.309-3.85-17.5-3.85-4.573,0,2.633.075-.216-.033-1.171-.084-.92-.06.756.072-.904-.107-1.805-.231-2.704-.373,2.293.4-1.372-.352-1.762-.447-3.483-.846.986.399-2.417-.661-5.245-1.634-10.242-3.984-14.849-6.97-9.298-6.027-17.335-14.326-22.744-24.02-8.918-15.984-8.84-32.874-8.84-50.55,0-5.584-35-5.713-35,0h0Z"/>
      <path class="cls-5" d="M1561.301,259.987c0,17.677.08,34.564-8.84,50.55-5.409,9.695-13.446,17.993-22.744,24.02-4.607,2.987-9.603,5.337-14.849,6.97-1.231.383-1.116.352-2.417.661-.072.017-4.24.879-1.762.447-.899.142-1.8.266-2.704.373l1.445-.119c-2.003.113-1.838.135.494.066-.467.009-.933.014-1.4.014-2.787,0-17.034-.436-17.5,3.85-.415,3.812,16.309,3.85,17.5,3.85,28.717,0,58.004-8.836,74.87-33.533,7.176-10.508,11.697-22.585,12.688-35.301.564-7.238.217-14.594.217-21.848,0-5.584-35-5.713-35,0h0Z"/>
      <path class="cls-4" d="M1580.832,0h20C1650.505,0,1690.832,40.328,1690.832,90v169.987h-200V90C1490.832,40.328,1531.16,0,1580.832,0Z"/>
      <path class="cls-5" d="M1361.621,230.536v116.282c0,5.584,35,5.713,35,0v-116.282c0-5.584-35-5.713-35,0h0Z"/>
      <path class="cls-1" d="M1387.466,247.998c-2.786,3.916-5.596,7.894-8.512,11.989-5.639-7.823-10.377-15.785-16.446-22.552-17.282-19.271-34.983-38.172-52.762-56.989-11.727-12.411-23.85-24.455-31.237-40.197-9.027-19.238-11.243-38.959-3.616-59.185,8.434-22.365,27.549-36.592,49.246-36.91,23.838-.349,42.732,12.459,52.282,35.444.674,1.623,1.331,3.254,2.21,5.408,3.301-6.238,5.741-12.016,9.167-17.134,21.833-32.615,69.754-31.502,89.746,2.279,15.669,26.476,12.872,53.16-2.972,78.177-7.804,12.322-18.337,23.039-28.364,33.803-17.758,19.061-37.44,36.349-52.815,57.595-1.982,2.739-3.949,5.491-5.928,8.273"/>
      <path class="cls-5" d="M1161.941,259.987c0,7.253-.348,14.61.217,21.848.991,12.717,5.512,24.792,12.688,35.301,16.866,24.697,46.154,33.533,74.87,33.533,2.787,0,17.034.436,17.5-3.85.415-3.812-16.309-3.85-17.5-3.85-4.573,0,2.633.075-.216-.033-1.171-.084-.92-.06.756.072-.904-.107-1.805-.231-2.704-.373,2.293.4-1.372-.352-1.762-.447-3.483-.846.986.399-2.417-.661-5.245-1.634-10.242-3.984-14.849-6.97-9.298-6.027-17.335-14.326-22.744-24.02-8.918-15.984-8.84-32.874-8.84-50.55,0-5.584-35-5.713-35,0h0Z"/>
      <path class="cls-5" d="M1137.879,259.987c0,17.677.08,34.564-8.84,50.55-5.409,9.695-13.446,17.993-22.744,24.02-4.607,2.987-9.603,5.337-14.849,6.97-1.231.383-1.116.352-2.417.661-.072.017-4.24.879-1.762.447-.899.142-1.8.266-2.704.373l1.445-.119c-2.003.113-1.838.135.494.066-.467.009-.933.014-1.4.014-2.787,0-17.034-.436-17.5,3.85-.415,3.812,16.309,3.85,17.5,3.85,28.717,0,58.004-8.836,74.87-33.533,7.176-10.508,11.697-22.585,12.688-35.301.564-7.238.217-14.594.217-21.848,0-5.584-35-5.713-35,0h0Z"/>
      <path class="cls-2" d="M1157.41,0h20C1227.082,0,1267.41,40.328,1267.41,90v169.987h-200V90C1067.41,40.328,1107.738,0,1157.41,0Z"/>
      <path class="cls-5" d="M938.199,230.536v116.282c0,5.584,35,5.713,35,0v-116.282c0-5.584-35-5.713-35,0h0Z"/>
      <path class="cls-4" d="M955.21,85.005c3.301-6.238,5.741-12.016,9.167-17.134,21.833-32.615,69.754-31.502,89.746,2.279,15.669,26.476,12.872,53.16-2.972,78.177-7.804,12.322-18.337,23.039-28.364,33.803-17.758,19.061-37.44,36.349-52.815,57.595-4.773,6.595-9.453,13.258-14.44,20.262-5.639-7.823-10.377-15.785-16.446-22.552-17.282-19.271-34.983-38.172-52.762-56.989-11.727-12.411-23.85-24.455-31.237-40.197-9.027-19.238-11.243-38.959-3.616-59.185,8.434-22.365,27.549-36.592,49.246-36.91,23.838-.349,42.732,12.459,52.282,35.444.674,1.623,1.331,3.254,2.21,5.408Z"/>
      <path class="cls-5" d="M738.519,259.987c0,7.253-.348,14.61.217,21.848.991,12.717,5.512,24.792,12.688,35.301,16.866,24.697,46.154,33.533,74.87,33.533,2.787,0,17.034.436,17.5-3.85.415-3.812-16.309-3.85-17.5-3.85-4.573,0,2.633.075-.216-.033-1.171-.084-.92-.06.756.072-.904-.107-1.805-.231-2.704-.373,2.293.4-1.372-.352-1.762-.447-3.483-.846.986.399-2.417-.661-5.245-1.634-10.242-3.984-14.849-6.97-9.298-6.027-17.335-14.326-22.744-24.02-8.918-15.984-8.84-32.874-8.84-50.55,0-5.584-35-5.713-35,0h0Z"/>
      <path class="cls-5" d="M714.457,259.987c0,17.677.08,34.564-8.84,50.55-5.409,9.695-13.446,17.993-22.744,24.02-4.607,2.987-9.603,5.337-14.849,6.97-1.231.383-1.116.352-2.417.661-.072.017-4.24.879-1.762.447-.899.142-1.8.266-2.704.373l1.445-.119c-2.003.113-1.838.135.494.066-.467.009-.933.014-1.4.014-2.787,0-17.034-.436-17.5,3.85-.415,3.812,16.309,3.85,17.5,3.85,28.717,0,58.004-8.836,74.87-33.533,7.176-10.508,11.697-22.585,12.688-35.301.564-7.238.217-14.594.217-21.848,0-5.584-35-5.713-35,0h0Z"/>
      <path class="cls-1" d="M733.988,0h20C803.66,0,843.988,40.328,843.988,90v169.987h-200V90C643.988,40.328,684.316,0,733.988,0Z"/>
      <path class="cls-5" d="M91.355,232.272v116.282c0,5.584,35,5.713,35,0v-116.282c0-5.584-35-5.713-35,0h0Z"/>
      <path class="cls-5" d="M514.777,230.536v116.282c0,5.584,35,5.713,35,0v-116.282c0-5.584-35-5.713-35,0h0Z"/>
      <path class="cls-2" d="M532.788,85.005c3.301-6.238,5.741-12.016,9.167-17.134,21.833-32.615,69.754-31.502,89.746,2.279,15.669,26.476,12.872,53.16-2.972,78.177-7.804,12.322-18.337,23.039-28.364,33.803-17.758,19.061-37.44,36.349-52.815,57.595-4.773,6.595-9.453,13.258-14.44,20.262-5.639-7.823-10.377-15.785-16.446-22.552-17.282-19.271-34.983-38.172-52.762-56.989-11.727-12.411-23.85-24.455-31.237-40.197-9.027-19.238-11.243-38.959-3.616-59.185,8.434-22.365,27.549-36.592,49.246-36.91,23.838-.349,42.732,12.459,52.282,35.444.674,1.623,1.331,3.254,2.21,5.408Z"/>
      <path class="cls-5" d="M315.097,259.987c0,7.253-.348,14.61.217,21.848.991,12.717,5.512,24.792,12.688,35.301,16.866,24.697,46.154,33.533,74.87,33.533,2.787,0,17.034.436,17.5-3.85.415-3.812-16.309-3.85-17.5-3.85-4.573,0,2.633.075-.216-.033-1.171-.084-.92-.06.756.072-.904-.107-1.805-.231-2.704-.373,2.293.4-1.372-.352-1.762-.447-3.483-.846.986.399-2.417-.661-5.245-1.634-10.242-3.984-14.849-6.97-9.298-6.027-17.335-14.326-22.744-24.02-8.918-15.984-8.84-32.874-8.84-50.55,0-5.584-35-5.713-35,0h0Z"/>
      <path class="cls-5" d="M291.035,259.987c0,17.677.08,34.564-8.84,50.55-5.409,9.695-13.446,17.993-22.744,24.02-4.607,2.987-9.603,5.337-14.849,6.97-1.231.383-1.116.352-2.417.661-.072.017-4.24.879-1.762.447-.899.142-1.8.266-2.704.373l1.445-.119c-2.003.113-1.838.135.494.066-.467.009-.933.014-1.4.014-2.787,0-17.034-.436-17.5,3.85-.415,3.812,16.309,3.85,17.5,3.85,28.717,0,58.004-8.836,74.87-33.533,7.176-10.508,11.697-22.585,12.688-35.301.564-7.238.217-14.594.217-21.848,0-5.584-35-5.713-35,0h0Z"/>
      <path class="cls-4" d="M310.566,0h20C380.238,0,420.566,40.328,420.566,90v169.987h-200V90C220.566,40.328,260.893,0,310.566,0Z"/>
      <path class="cls-1" d="M108.365,85.005c3.301-6.238,5.741-12.016,9.167-17.134,21.833-32.615,69.754-31.502,89.746,2.279,15.669,26.476,12.872,53.16-2.972,78.177-7.804,12.322-18.337,23.039-28.364,33.803-17.758,19.061-37.44,36.349-52.815,57.595-4.773,6.595-9.453,13.258-14.44,20.262-5.639-7.823-10.377-15.785-16.446-22.552-17.282-19.271-34.983-38.172-52.762-56.989-11.727-12.411-23.85-24.455-31.237-40.197C-.784,121.01-3,101.289,4.627,81.063c8.434-22.365,27.549-36.592,49.246-36.91,23.838-.349,42.732,12.459,52.282,35.444.674,1.623,1.331,3.254,2.21,5.408Z"/>
      <circle class="cls-6" cx="1978.413" cy="200.027" r="25.936"/>
      <polygon class="cls-6" points="1990.067 199.187 1986.117 185.843 1972.868 189.766 1990.067 199.187"/>
      <polygon class="cls-6" points="1977.478 188.401 1964.229 192.323 1968.179 205.667 1977.478 188.401"/>
      <polygon class="cls-6" points="1966.758 200.868 1970.709 214.211 1983.957 210.289 1966.758 200.868"/>
      <polygon class="cls-6" points="1979.348 211.654 1992.597 207.731 1988.646 194.388 1979.348 211.654"/>
      <path class="cls-6" d="M1982.744,174.451l13.225,44.672c7.049-6.49,10.216-16.651,7.312-26.458-2.903-9.807-11.092-16.607-20.538-18.214Z"/>
      <path class="cls-6" d="M1952.837,195.696l44.672-13.225c-6.49-7.049-16.651-10.216-26.458-7.312-9.807,2.903-16.607,11.092-18.214,20.537Z"/>
      <path class="cls-6" d="M1974.081,225.603l-13.225-44.672c-7.049,6.49-10.216,16.651-7.312,26.458,2.903,9.807,11.092,16.607,20.538,18.214Z"/>
      <circle class="cls-6" cx="2186.417" cy="132.06" r="24.5"/>
      <polygon class="cls-6" points="2197.426 131.266 2193.695 118.661 2181.179 122.366 2197.426 131.266"/>
      <polygon class="cls-6" points="2185.534 121.077 2173.018 124.782 2176.75 137.387 2185.534 121.077"/>
      <polygon class="cls-6" points="2175.408 132.854 2179.139 145.459 2191.655 141.753 2175.408 132.854"/>
      <polygon class="cls-6" points="2187.3 143.043 2199.816 139.337 2196.084 126.733 2187.3 143.043"/>
      <path class="cls-6" d="M2190.509,107.899l12.493,42.2c6.658-6.131,9.65-15.73,6.908-24.994-2.743-9.265-10.478-15.687-19.401-17.205Z"/>
      <path class="cls-6" d="M2162.257,127.968l42.2-12.493c-6.131-6.658-15.73-9.65-24.994-6.908-9.265,2.743-15.687,10.478-17.205,19.401Z"/>
      <path class="cls-6" d="M2182.325,156.22l-12.493-42.2c-6.658,6.131-9.65,15.73-6.908,24.994s10.478,15.687,19.401,17.205Z"/>
      <circle class="cls-6" cx="2284.086" cy="117.769" r="20.54"/>
      <polygon class="cls-6" points="2291.324 123.535 2296.185 113.645 2286.364 108.818 2291.324 123.535"/>
      <polygon class="cls-6" points="2289.781 110.497 2279.961 105.67 2275.099 115.561 2289.781 110.497"/>
      <polygon class="cls-6" points="2276.848 112.004 2271.986 121.894 2281.807 126.721 2276.848 112.004"/>
      <polygon class="cls-6" points="2278.39 125.042 2288.211 129.869 2293.072 119.978 2278.39 125.042"/>
      <path class="cls-6" d="M2300.336,105.2l-16.275,33.113c7.588.004,14.886-4.214,18.46-11.483,3.573-7.27,2.454-15.624-2.184-21.63Z"/>
      <path class="cls-6" d="M2271.516,101.519l33.113,16.275c.004-7.588-4.214-14.886-11.483-18.46-7.27-3.573-15.624-2.454-21.63,2.184Z"/>
      <path class="cls-6" d="M2267.836,130.339l16.275-33.113c-7.588-.004-14.886,4.214-18.46,11.483-3.573,7.27-2.454,15.624,2.184,21.63Z"/>
      <circle class="cls-6" cx="1197.88" cy="85.389" r="25.936"/>
      <polygon class="cls-6" points="1186.226 86.229 1190.176 99.573 1203.425 95.65 1186.226 86.229"/>
      <polygon class="cls-6" points="1198.815 97.015 1212.064 93.093 1208.114 79.75 1198.815 97.015"/>
      <polygon class="cls-6" points="1209.534 84.548 1205.584 71.205 1192.335 75.127 1209.534 84.548"/>
      <polygon class="cls-6" points="1196.945 73.762 1183.696 77.685 1187.647 91.028 1196.945 73.762"/>
      <path class="cls-6" d="M1193.549,110.965l-13.225-44.672c-7.049,6.49-10.216,16.651-7.312,26.458,2.903,9.807,11.092,16.607,20.538,18.214Z"/>
      <path class="cls-6" d="M1223.456,89.72l-44.672,13.225c6.49,7.049,16.651,10.216,26.458,7.312,9.807-2.903,16.607-11.092,18.214-20.537Z"/>
      <path class="cls-6" d="M1202.212,59.813l13.225,44.672c7.049-6.49,10.216-16.651,7.312-26.458-2.903-9.807-11.092-16.607-20.538-18.214Z"/>
      <circle class="cls-6" cx="1751.925" cy="102.044" r="20.54"/>
      <polygon class="cls-6" points="1744.687 107.809 1739.825 97.919 1749.646 93.092 1744.687 107.809"/>
      <polygon class="cls-6" points="1746.229 94.771 1756.05 89.944 1760.911 99.835 1746.229 94.771"/>
      <polygon class="cls-6" points="1759.163 96.278 1764.024 106.169 1754.204 110.996 1759.163 96.278"/>
      <polygon class="cls-6" points="1757.621 109.316 1747.8 114.143 1742.939 104.252 1757.621 109.316"/>
      <path class="cls-6" d="M1735.675,89.474l16.275,33.113c-7.588.004-14.886-4.214-18.46-11.483-3.573-7.27-2.454-15.624,2.184-21.63Z"/>
      <path class="cls-6" d="M1764.494,85.794l-33.113,16.275c-.004-7.588,4.214-14.886,11.483-18.46,7.27-3.573,15.624-2.454,21.63,2.184Z"/>
      <path class="cls-6" d="M1768.175,114.613l-16.275-33.113c7.588-.004,14.886,4.214,18.46,11.483,3.573,7.27,2.454,15.624-2.184,21.63Z"/>
      <circle class="cls-6" cx="1426.398" cy="102.1" r="20.54"/>
      <polygon class="cls-6" points="1433.636 107.866 1438.497 97.976 1428.676 93.149 1433.636 107.866"/>
      <polygon class="cls-6" points="1432.093 94.828 1422.273 90.001 1417.411 99.892 1432.093 94.828"/>
      <polygon class="cls-6" points="1419.159 96.335 1414.298 106.225 1424.119 111.052 1419.159 96.335"/>
      <polygon class="cls-6" points="1420.702 109.373 1430.523 114.2 1435.384 104.309 1420.702 109.373"/>
      <path class="cls-6" d="M1442.648,89.531l-16.275,33.113c7.588.004,14.886-4.214,18.46-11.483,3.573-7.27,2.454-15.624-2.184-21.63Z"/>
      <path class="cls-6" d="M1413.828,85.851l33.113,16.275c.004-7.588-4.214-14.886-11.483-18.46-7.27-3.573-15.624-2.454-21.63,2.184Z"/>
      <path class="cls-6" d="M1410.148,114.67l16.275-33.113c-7.588-.004-14.886,4.214-18.46,11.483-3.573,7.27-2.454,15.624,2.184,21.63Z"/>
      <circle class="cls-6" cx="1387.21" cy="182.981" r="23.021"/>
      <polygon class="cls-6" points="1397.341 185.202 1397.341 172.85 1385.076 172.85 1397.341 185.202"/>
      <polygon class="cls-6" points="1389.343 172.85 1377.079 172.85 1377.079 185.202 1389.343 172.85"/>
      <polygon class="cls-6" points="1377.079 180.76 1377.079 193.111 1389.343 193.111 1377.079 180.76"/>
      <polygon class="cls-6" points="1385.076 193.111 1397.341 193.111 1397.341 180.76 1385.076 193.111"/>
      <path class="cls-6" d="M1397.341,162.305v41.352c7.634-3.748,12.89-11.597,12.89-20.676s-5.256-16.928-12.89-20.676Z"/>
      <path class="cls-6" d="M1407.886,193.111h-41.352c3.748,7.634,11.597,12.89,20.676,12.89,9.078,0,16.928-5.256,20.676-12.89Z"/>
      <path class="cls-6" d="M1366.534,172.85h41.352c-3.748-7.634-11.597-12.89-20.676-12.89-9.078,0-16.928,5.256-20.676,12.89Z"/>
      <path class="cls-6" d="M1377.079,203.657v-41.352c-7.634,3.748-12.89,11.597-12.89,20.676s5.256,16.928,12.89,20.676Z"/>
      <circle class="cls-6" cx="1541.025" cy="144.908" r="21.265"/>
      <polygon class="cls-6" points="1550.383 146.96 1550.383 135.55 1539.055 135.55 1550.383 146.96"/>
      <polygon class="cls-6" points="1542.996 135.55 1531.667 135.55 1531.667 146.96 1542.996 135.55"/>
      <polygon class="cls-6" points="1531.667 142.857 1531.667 154.266 1542.996 154.266 1531.667 142.857"/>
      <polygon class="cls-6" points="1539.055 154.266 1550.383 154.266 1550.383 142.857 1539.055 154.266"/>
      <path class="cls-6" d="M1550.383,125.809v38.198c7.052-3.462,11.907-10.713,11.907-19.099s-4.855-15.637-11.907-19.099Z"/>
      <path class="cls-6" d="M1560.124,154.266h-38.198c3.462,7.052,10.713,11.907,19.099,11.907,8.386,0,15.637-4.855,19.099-11.907Z"/>
      <path class="cls-6" d="M1521.926,135.55h38.198c-3.462-7.052-10.713-11.907-19.099-11.907s-15.637,4.855-19.099,11.907Z"/>
      <path class="cls-6" d="M1531.667,164.007v-38.198c-7.052,3.462-11.907,10.713-11.907,19.099s4.855,15.637,11.907,19.099Z"/>
      <circle class="cls-6" cx="277.277" cy="186.888" r="22.089"/>
      <polygon class="cls-6" points="287.203 186.172 283.838 174.808 272.555 178.148 287.203 186.172"/>
      <polygon class="cls-6" points="276.481 176.986 265.197 180.326 268.561 191.69 276.481 176.986"/>
      <polygon class="cls-6" points="267.351 187.604 270.716 198.968 281.999 195.627 267.351 187.604"/>
      <polygon class="cls-6" points="278.074 196.79 289.357 193.449 285.993 182.085 278.074 196.79"/>
      <path class="cls-6" d="M280.966,165.105l11.263,38.046c6.003-5.527,8.701-14.181,6.228-22.534-2.473-8.353-9.447-14.143-17.491-15.512Z"/>
      <path class="cls-6" d="M255.495,183.199l38.046-11.263c-5.527-6.003-14.181-8.701-22.534-6.228-8.353,2.473-14.143,9.447-15.512,17.491Z"/>
      <path class="cls-6" d="M273.588,208.67l-11.263-38.046c-6.003,5.527-8.701,14.181-6.228,22.534,2.473,8.353,9.447,14.143,17.491,15.512Z"/>
      <circle class="cls-6" cx="147.186" cy="112.848" r="21.744"/>
      <polygon class="cls-6" points="156.957 112.143 153.645 100.957 142.538 104.245 156.957 112.143"/>
      <polygon class="cls-6" points="146.402 103.101 135.295 106.389 138.607 117.576 146.402 103.101"/>
      <polygon class="cls-6" points="137.416 113.553 140.727 124.739 151.835 121.451 137.416 113.553"/>
      <polygon class="cls-6" points="147.97 122.595 159.078 119.307 155.766 108.12 147.97 122.595"/>
      <path class="cls-6" d="M150.818,91.406l11.087,37.452c5.909-5.441,8.565-13.96,6.131-22.182-2.434-8.222-9.299-13.922-17.218-15.27Z"/>
      <path class="cls-6" d="M125.744,109.217l37.452-11.087c-5.441-5.909-13.96-8.565-22.182-6.131-8.222,2.434-13.922,9.299-15.27,17.218Z"/>
      <path class="cls-6" d="M143.555,134.29l-11.087-37.452c-5.909,5.441-8.565,13.96-6.131,22.182,2.434,8.222,9.299,13.922,17.218,15.27Z"/>
      <circle class="cls-6" cx="481.434" cy="122.768" r="24.5"/>
      <polygon class="cls-6" points="492.443 121.974 488.711 109.369 476.196 113.074 492.443 121.974"/>
      <polygon class="cls-6" points="480.55 111.785 468.035 115.49 471.766 128.095 480.55 111.785"/>
      <polygon class="cls-6" points="470.424 123.562 474.156 136.167 486.671 132.462 470.424 123.562"/>
      <polygon class="cls-6" points="482.317 133.751 494.832 130.046 491.101 117.441 482.317 133.751"/>
      <path class="cls-6" d="M485.525,98.608l12.493,42.2c6.658-6.131,9.65-15.73,6.908-24.994-2.743-9.265-10.478-15.687-19.401-17.205Z"/>
      <path class="cls-6" d="M457.273,118.676l42.2-12.493c-6.131-6.658-15.73-9.65-24.994-6.908-9.265,2.743-15.687,10.478-17.205,19.401Z"/>
      <path class="cls-6" d="M477.342,146.928l-12.493-42.2c-6.658,6.131-9.65,15.73-6.908,24.994,2.743,9.265,10.478,15.687,19.401,17.205Z"/>
      <circle class="cls-6" cx="579.102" cy="108.478" r="20.54"/>
      <polygon class="cls-6" points="586.34 114.243 591.202 104.353 581.381 99.526 586.34 114.243"/>
      <polygon class="cls-6" points="584.798 101.205 574.977 96.378 570.116 106.269 584.798 101.205"/>
      <polygon class="cls-6" points="571.864 102.712 567.003 112.603 576.824 117.43 571.864 102.712"/>
      <polygon class="cls-6" points="573.407 115.75 583.227 120.577 588.089 110.687 573.407 115.75"/>
      <path class="cls-6" d="M595.352,95.908l-16.275,33.113c7.588.004,14.886-4.214,18.46-11.483,3.573-7.27,2.454-15.624-2.184-21.63Z"/>
      <path class="cls-6" d="M566.533,92.228l33.113,16.275c.004-7.588-4.214-14.886-11.483-18.46-7.27-3.573-15.624-2.454-21.63,2.184Z"/>
      <path class="cls-6" d="M562.852,121.047l16.275-33.113c-7.588-.004-14.886,4.214-18.46,11.483-3.573,7.27-2.454,15.624,2.184,21.63Z"/>
      <circle class="cls-6" cx="903.971" cy="113.315" r="20.141"/>
      <polygon class="cls-6" points="911.82 117.869 915.116 107.577 904.897 104.305 911.82 117.869"/>
      <polygon class="cls-6" points="908.452 105.444 898.233 102.171 894.938 112.463 908.452 105.444"/>
      <polygon class="cls-6" points="896.123 108.762 892.827 119.054 903.046 122.326 896.123 108.762"/>
      <polygon class="cls-6" points="899.491 121.187 909.71 124.46 913.005 114.168 899.491 121.187"/>
      <path class="cls-6" d="M917.929,98.79l-11.033,34.456c7.361-1.086,13.835-6.224,16.257-13.789s.137-15.508-5.224-20.667Z"/>
      <path class="cls-6" d="M889.446,99.357l34.456,11.033c-1.086-7.361-6.224-13.835-13.789-16.257-7.565-2.422-15.508-.137-20.667,5.224Z"/>
      <path class="cls-6" d="M890.013,127.841l11.033-34.456c-7.361,1.086-13.835,6.224-16.257,13.789-2.422,7.565-.137,15.508,5.224,20.667Z"/>
      <circle class="cls-6" cx="956.548" cy="188.425" r="25.936"/>
      <polygon class="cls-6" points="968.202 187.585 964.252 174.241 951.003 178.164 968.202 187.585"/>
      <polygon class="cls-6" points="955.613 176.799 942.364 180.721 946.315 194.065 955.613 176.799"/>
      <polygon class="cls-6" points="944.894 189.266 948.844 202.609 962.093 198.687 944.894 189.266"/>
      <polygon class="cls-6" points="957.483 200.052 970.732 196.129 966.782 182.786 957.483 200.052"/>
      <path class="cls-6" d="M960.88,162.849l13.225,44.672c7.049-6.49,10.216-16.651,7.312-26.458-2.903-9.807-11.092-16.607-20.538-18.214Z"/>
      <path class="cls-6" d="M930.972,184.094l44.672-13.225c-6.49-7.049-16.651-10.216-26.458-7.312-9.807,2.903-16.607,11.092-18.214,20.537Z"/>
      <path class="cls-6" d="M952.217,214.001l-13.225-44.672c-7.049,6.49-10.216,16.651-7.312,26.458,2.903,9.807,11.092,16.607,20.538,18.214Z"/>
      <circle class="cls-6" cx="762.888" cy="199.97" r="19.204"/>
      <polygon class="cls-6" points="771.517 199.347 768.592 189.468 758.782 192.372 771.517 199.347"/>
      <polygon class="cls-6" points="762.195 191.361 752.385 194.265 755.31 204.145 762.195 191.361"/>
      <polygon class="cls-6" points="754.258 200.592 757.183 210.472 766.993 207.568 754.258 200.592"/>
      <polygon class="cls-6" points="763.58 208.578 773.39 205.674 770.465 195.794 763.58 208.578"/>
      <path class="cls-6" d="M766.095,181.033l9.792,33.076c5.219-4.805,7.564-12.329,5.414-19.59-2.15-7.262-8.213-12.296-15.206-13.486Z"/>
      <path class="cls-6" d="M743.951,196.763l33.076-9.792c-4.805-5.219-12.329-7.564-19.59-5.414-7.262,2.15-12.296,8.213-13.486,15.206Z"/>
      <path class="cls-6" d="M759.68,218.907l-9.792-33.076c-5.219,4.805-7.564,12.329-5.414,19.59,2.15,7.262,8.213,12.296,15.206,13.486Z"/>
      <circle class="cls-3" cx="2036.078" cy="77.281" r="21.265"/>
      <polygon class="cls-3" points="2045.436 79.333 2045.436 67.923 2034.107 67.923 2045.436 79.333"/>
      <polygon class="cls-3" points="2038.049 67.923 2026.72 67.923 2026.72 79.333 2038.049 67.923"/>
      <polygon class="cls-3" points="2026.72 75.229 2026.72 86.639 2038.049 86.639 2026.72 75.229"/>
      <polygon class="cls-3" points="2034.107 86.639 2045.436 86.639 2045.436 75.229 2034.107 86.639"/>
      <path class="cls-3" d="M2045.436,58.182v38.198c7.052-3.462,11.907-10.713,11.907-19.099s-4.855-15.637-11.907-19.099Z"/>
      <path class="cls-3" d="M2055.177,86.639h-38.198c3.462,7.052,10.713,11.907,19.099,11.907s15.637-4.855,19.099-11.907Z"/>
      <path class="cls-3" d="M2016.979,67.923h38.198c-3.462-7.052-10.713-11.907-19.099-11.907s-15.637,4.855-19.099,11.907Z"/>
      <path class="cls-3" d="M2026.72,96.38v-38.198c-7.052,3.462-11.907,10.713-11.907,19.099s4.855,15.637,11.907,19.099Z"/>
      <circle class="cls-3" cx="2056.33" cy="189.374" r="20.252"/>
      <polygon class="cls-3" points="2061.431 196.938 2068.93 189.074 2061.122 181.629 2061.431 196.938"/>
      <polygon class="cls-3" points="2063.839 184.219 2056.031 176.774 2048.532 184.637 2063.839 184.219"/>
      <polygon class="cls-3" points="2051.229 181.809 2043.73 189.673 2051.538 197.119 2051.229 181.809"/>
      <polygon class="cls-3" points="2048.821 194.528 2056.629 201.974 2064.128 194.11 2048.821 194.528"/>
      <path class="cls-3" d="M2075.332,182.36l-25.105,26.327c7.136,2.249,15.247.442,20.759-5.338,5.512-5.78,6.931-13.968,4.346-20.989Z"/>
      <path class="cls-3" d="M2063.343,208.376l-26.327-25.105c-2.249,7.136-.442,15.247,5.338,20.759,5.78,5.512,13.968,6.931,20.989,4.346Z"/>
      <path class="cls-3" d="M2049.317,170.371l26.327,25.105c2.249-7.136.442-15.247-5.338-20.759-5.78-5.512-13.968-6.931-20.989-4.346Z"/>
      <path class="cls-3" d="M2037.328,196.387l25.105-26.327c-7.136-2.249-15.247-.442-20.759,5.338-5.512,5.78-6.931,13.968-4.346,20.989Z"/>
      <circle class="cls-3" cx="2244.898" cy="198.65" r="23.021"/>
      <polygon class="cls-3" points="2255.029 200.871 2255.029 188.519 2242.765 188.519 2255.029 200.871"/>
      <polygon class="cls-3" points="2247.032 188.519 2234.768 188.519 2234.768 200.871 2247.032 188.519"/>
      <polygon class="cls-3" points="2234.768 196.429 2234.768 208.78 2247.032 208.78 2234.768 196.429"/>
      <polygon class="cls-3" points="2242.765 208.78 2255.029 208.78 2255.029 196.429 2242.765 208.78"/>
      <path class="cls-3" d="M2255.029,177.974v41.352c7.634-3.748,12.89-11.597,12.89-20.676s-5.256-16.928-12.89-20.676Z"/>
      <path class="cls-3" d="M2265.574,208.78h-41.352c3.748,7.634,11.597,12.89,20.676,12.89,9.078,0,16.928-5.256,20.676-12.89Z"/>
      <path class="cls-3" d="M2224.222,188.519h41.352c-3.748-7.634-11.597-12.89-20.676-12.89-9.078,0-16.928,5.256-20.676,12.89Z"/>
      <path class="cls-3" d="M2234.768,219.326v-41.352c-7.634,3.748-12.89,11.597-12.89,20.676s5.256,16.928,12.89,20.676Z"/>
      <circle class="cls-3" cx="2390.713" cy="166.298" r="23.021"/>
      <polygon class="cls-3" points="2400.844 168.519 2400.844 156.167 2388.58 156.167 2400.844 168.519"/>
      <polygon class="cls-3" points="2392.847 156.167 2380.583 156.167 2380.583 168.519 2392.847 156.167"/>
      <polygon class="cls-3" points="2380.583 164.077 2380.583 176.428 2392.847 176.428 2380.583 164.077"/>
      <polygon class="cls-3" points="2388.58 176.429 2400.844 176.429 2400.844 164.077 2388.58 176.429"/>
      <path class="cls-3" d="M2400.844,145.622v41.352c7.634-3.748,12.89-11.597,12.89-20.676s-5.256-16.928-12.89-20.676Z"/>
      <path class="cls-3" d="M2411.389,176.429h-41.352c3.748,7.634,11.597,12.89,20.676,12.89s16.928-5.256,20.676-12.89Z"/>
      <path class="cls-3" d="M2370.037,156.167h41.352c-3.748-7.634-11.597-12.89-20.676-12.89-9.078,0-16.928,5.256-20.676,12.89Z"/>
      <path class="cls-3" d="M2380.583,186.974v-41.352c-7.634,3.748-12.89,11.597-12.89,20.676s5.256,16.928,12.89,20.676Z"/>
      <circle class="cls-3" cx="1849.594" cy="116.334" r="24.5"/>
      <polygon class="cls-3" points="1838.584 115.54 1842.316 102.935 1854.831 106.64 1838.584 115.54"/>
      <polygon class="cls-3" points="1850.477 105.351 1862.992 109.056 1859.261 121.661 1850.477 105.351"/>
      <polygon class="cls-3" points="1860.603 117.128 1856.871 129.733 1844.356 126.027 1860.603 117.128"/>
      <polygon class="cls-3" points="1848.71 127.317 1836.195 123.611 1839.926 111.007 1848.71 127.317"/>
      <path class="cls-3" d="M1845.502,92.173l-12.493,42.2c-6.658-6.131-9.65-15.73-6.908-24.994,2.743-9.265,10.478-15.687,19.401-17.205Z"/>
      <path class="cls-3" d="M1873.754,112.242l-42.2-12.493c6.131-6.658,15.73-9.65,24.994-6.908,9.265,2.743,15.687,10.478,17.205,19.401Z"/>
      <path class="cls-3" d="M1853.685,140.494l12.493-42.2c6.658,6.131,9.65,15.73,6.908,24.994-2.743,9.265-10.478,15.687-19.401,17.205Z"/>
      <circle class="cls-3" cx="1791.112" cy="182.924" r="23.021"/>
      <polygon class="cls-3" points="1780.982 185.145 1780.982 172.793 1793.246 172.793 1780.982 185.145"/>
      <polygon class="cls-3" points="1788.979 172.793 1801.243 172.793 1801.243 185.145 1788.979 172.793"/>
      <polygon class="cls-3" points="1801.243 180.703 1801.243 193.054 1788.979 193.054 1801.243 180.703"/>
      <polygon class="cls-3" points="1793.246 193.054 1780.982 193.054 1780.982 180.703 1793.246 193.054"/>
      <path class="cls-3" d="M1780.982,162.248v41.352c-7.634-3.748-12.89-11.597-12.89-20.676s5.256-16.928,12.89-20.676Z"/>
      <path class="cls-3" d="M1770.437,193.054h41.352c-3.748,7.634-11.597,12.89-20.676,12.89-9.078,0-16.928-5.256-20.676-12.89Z"/>
      <path class="cls-3" d="M1811.788,172.793h-41.352c3.748-7.634,11.597-12.89,20.676-12.89,9.078,0,16.928,5.256,20.676,12.89Z"/>
      <path class="cls-3" d="M1801.243,203.6v-41.352c7.634,3.748,12.89,11.597,12.89,20.676s-5.256,16.928-12.89,20.676Z"/>
      <circle class="cls-3" cx="1328.729" cy="116.391" r="24.5"/>
      <polygon class="cls-3" points="1339.738 115.597 1336.006 102.992 1323.491 106.697 1339.738 115.597"/>
      <polygon class="cls-3" points="1327.845 105.408 1315.33 109.113 1319.062 121.718 1327.845 105.408"/>
      <polygon class="cls-3" points="1317.72 117.185 1321.451 129.79 1333.967 126.084 1317.72 117.185"/>
      <polygon class="cls-3" points="1329.612 127.374 1342.128 123.668 1338.396 111.064 1329.612 127.374"/>
      <path class="cls-3" d="M1332.821,92.23l12.493,42.2c6.658-6.131,9.65-15.73,6.908-24.994-2.743-9.265-10.478-15.687-19.401-17.205Z"/>
      <path class="cls-3" d="M1304.568,112.299l42.2-12.493c-6.131-6.658-15.73-9.65-24.994-6.908-9.265,2.743-15.687,10.478-17.205,19.401Z"/>
      <path class="cls-3" d="M1324.637,140.551l-12.493-42.2c-6.658,6.131-9.65,15.73-6.908,24.994,2.743,9.265,10.478,15.687,19.401,17.205Z"/>
      <circle class="cls-3" cx="1197.171" cy="178.827" r="21.265"/>
      <polygon class="cls-3" points="1187.813 176.775 1187.813 188.185 1199.142 188.185 1187.813 176.775"/>
      <polygon class="cls-3" points="1195.201 188.185 1206.529 188.185 1206.529 176.775 1195.201 188.185"/>
      <polygon class="cls-3" points="1206.529 180.878 1206.529 169.469 1195.201 169.469 1206.529 180.878"/>
      <polygon class="cls-3" points="1199.142 169.469 1187.813 169.469 1187.813 180.878 1199.142 169.469"/>
      <path class="cls-3" d="M1187.813,197.926v-38.198c-7.052,3.462-11.907,10.713-11.907,19.099s4.855,15.637,11.907,19.099Z"/>
      <path class="cls-3" d="M1178.072,169.469h38.198c-3.462-7.052-10.713-11.907-19.099-11.907s-15.637,4.855-19.099,11.907Z"/>
      <path class="cls-3" d="M1216.27,188.185h-38.198c3.462,7.052,10.713,11.907,19.099,11.907,8.386,0,15.637-4.855,19.099-11.907Z"/>
      <path class="cls-3" d="M1206.529,159.728v38.198c7.052-3.462,11.907-10.713,11.907-19.099s-4.855-15.637-11.907-19.099Z"/>
      <circle class="cls-3" cx="1119.963" cy="96.043" r="20.252"/>
      <polygon class="cls-3" points="1114.861 88.478 1107.363 96.342 1115.171 103.787 1114.861 88.478"/>
      <polygon class="cls-3" points="1112.454 101.197 1120.262 108.642 1127.761 100.779 1112.454 101.197"/>
      <polygon class="cls-3" points="1125.064 103.607 1132.563 95.743 1124.755 88.298 1125.064 103.607"/>
      <polygon class="cls-3" points="1127.471 90.888 1119.663 83.442 1112.165 91.306 1127.471 90.888"/>
      <path class="cls-3" d="M1100.961,103.056l25.105-26.327c-7.136-2.249-15.247-.442-20.759,5.338-5.512,5.78-6.931,13.968-4.346,20.989Z"/>
      <path class="cls-3" d="M1112.95,77.04l26.327,25.105c2.249-7.136.442-15.247-5.338-20.759-5.78-5.512-13.968-6.931-20.989-4.346Z"/>
      <path class="cls-3" d="M1126.976,115.045l-26.327-25.105c-2.249,7.136-.442,15.247,5.338,20.759,5.78,5.512,13.968,6.931,20.989,4.346Z"/>
      <path class="cls-3" d="M1138.965,89.029l-25.105,26.327c7.136,2.249,15.247.442,20.759-5.338,5.512-5.78,6.931-13.968,4.346-20.989Z"/>
      <circle class="cls-3" cx="1620.685" cy="209.832" r="19.204"/>
      <polygon class="cls-3" points="1629.314 209.209 1626.389 199.33 1616.579 202.234 1629.314 209.209"/>
      <polygon class="cls-3" points="1619.993 201.223 1610.183 204.127 1613.108 214.007 1619.993 201.223"/>
      <polygon class="cls-3" points="1612.056 210.454 1614.981 220.334 1624.79 217.43 1612.056 210.454"/>
      <polygon class="cls-3" points="1621.377 218.44 1631.187 215.536 1628.262 205.656 1621.377 218.44"/>
      <path class="cls-3" d="M1623.892,190.895l9.792,33.076c5.219-4.805,7.564-12.329,5.414-19.59-2.15-7.262-8.213-12.296-15.206-13.486Z"/>
      <path class="cls-3" d="M1601.748,206.625l33.076-9.792c-4.805-5.219-12.329-7.564-19.59-5.414-7.262,2.15-12.296,8.213-13.486,15.206Z"/>
      <path class="cls-3" d="M1617.478,228.769l-9.792-33.076c-5.219,4.805-7.564,12.329-5.414,19.59,2.15,7.262,8.213,12.296,15.206,13.486Z"/>
      <circle class="cls-3" cx="1595.676" cy="75.983" r="23.021"/>
      <polygon class="cls-3" points="1605.806 78.204 1605.806 65.852 1593.542 65.852 1605.806 78.204"/>
      <polygon class="cls-3" points="1597.809 65.852 1585.545 65.852 1585.545 78.204 1597.809 65.852"/>
      <polygon class="cls-3" points="1585.545 73.762 1585.545 86.113 1597.809 86.113 1585.545 73.762"/>
      <polygon class="cls-3" points="1593.542 86.113 1605.806 86.113 1605.806 73.762 1593.542 86.113"/>
      <path class="cls-3" d="M1605.806,55.307v41.352c7.634-3.748,12.89-11.597,12.89-20.676s-5.256-16.928-12.89-20.676Z"/>
      <path class="cls-3" d="M1616.351,86.113h-41.352c3.748,7.634,11.597,12.89,20.676,12.89s16.928-5.256,20.676-12.89Z"/>
      <path class="cls-3" d="M1575,65.852h41.352c-3.748-7.634-11.597-12.89-20.676-12.89-9.078,0-16.928,5.256-20.676,12.89Z"/>
      <path class="cls-3" d="M1585.545,96.659v-41.352c-7.634,3.748-12.89,11.597-12.89,20.676s5.256,16.928,12.89,20.676Z"/>
      <circle class="cls-3" cx="345.255" cy="97.096" r="27.794"/>
      <polygon class="cls-3" points="357.486 99.777 357.486 84.865 342.679 84.865 357.486 99.777"/>
      <polygon class="cls-3" points="347.831 84.865 333.024 84.865 333.024 99.777 347.831 84.865"/>
      <polygon class="cls-3" points="333.024 94.414 333.024 109.327 347.831 109.327 333.024 94.414"/>
      <polygon class="cls-3" points="342.679 109.327 357.486 109.327 357.486 94.414 342.679 109.327"/>
      <path class="cls-3" d="M357.486,72.133v49.926c9.217-4.525,15.563-14.002,15.563-24.963s-6.346-20.438-15.563-24.963Z"/>
      <path class="cls-3" d="M370.218,109.327h-49.926c4.525,9.217,14.002,15.563,24.963,15.563s20.438-6.346,24.963-15.563Z"/>
      <path class="cls-3" d="M320.292,84.865h49.926c-4.525-9.217-14.002-15.563-24.963-15.563-10.961,0-20.438,6.346-24.963,15.563Z"/>
      <path class="cls-3" d="M333.024,122.059v-49.926c-9.217,4.525-15.563,14.002-15.563,24.963s6.346,20.438,15.563,24.963Z"/>
      <circle class="cls-3" cx="351.347" cy="180.082" r="20.252"/>
      <polygon class="cls-3" points="356.448 187.646 363.947 179.782 356.138 172.337 356.448 187.646"/>
      <polygon class="cls-3" points="358.855 174.927 351.047 167.482 343.548 175.346 358.855 174.927"/>
      <polygon class="cls-3" points="346.245 172.518 338.747 180.381 346.555 187.827 346.245 172.518"/>
      <polygon class="cls-3" points="343.838 185.236 351.646 192.682 359.145 184.818 343.838 185.236"/>
      <path class="cls-3" d="M370.349,173.069l-25.105,26.327c7.136,2.249,15.247.442,20.759-5.338,5.512-5.78,6.931-13.968,4.346-20.989Z"/>
      <path class="cls-3" d="M358.36,199.084l-26.327-25.105c-2.249,7.136-.442,15.247,5.338,20.759,5.78,5.512,13.968,6.931,20.989,4.346Z"/>
      <path class="cls-3" d="M344.333,161.08l26.327,25.105c2.249-7.136.442-15.247-5.338-20.759-5.78-5.512-13.968-6.931-20.989-4.346Z"/>
      <path class="cls-3" d="M332.344,187.095l25.105-26.327c-7.136-2.249-15.247-.442-20.759,5.338-5.512,5.78-6.931,13.968-4.346,20.989Z"/>
      <circle class="cls-3" cx="539.915" cy="189.358" r="23.021"/>
      <polygon class="cls-3" points="550.045 191.579 550.045 179.227 537.781 179.227 550.045 191.579"/>
      <polygon class="cls-3" points="542.048 179.227 529.784 179.227 529.784 191.579 542.048 179.227"/>
      <polygon class="cls-3" points="529.784 187.137 529.784 199.489 542.048 199.489 529.784 187.137"/>
      <polygon class="cls-3" points="537.781 199.489 550.045 199.489 550.045 187.137 537.781 199.489"/>
      <path class="cls-3" d="M550.045,168.682v41.352c7.634-3.748,12.89-11.597,12.89-20.676s-5.256-16.928-12.89-20.676Z"/>
      <path class="cls-3" d="M560.591,199.489h-41.352c3.748,7.634,11.597,12.89,20.676,12.89,9.078,0,16.928-5.256,20.676-12.89Z"/>
      <path class="cls-3" d="M519.239,179.227h41.352c-3.748-7.634-11.597-12.89-20.676-12.89-9.078,0-16.928,5.256-20.676,12.89Z"/>
      <path class="cls-3" d="M529.784,210.034v-41.352c-7.634,3.748-12.89,11.597-12.89,20.676s5.256,16.928,12.89,20.676Z"/>
      <circle class="cls-3" cx="697.673" cy="147.342" r="25.208"/>
      <polygon class="cls-3" points="703.798 156.906 713.362 147.342 703.865 137.846 703.798 156.906"/>
      <polygon class="cls-3" points="707.169 141.15 697.673 131.654 688.11 141.218 707.169 141.15"/>
      <polygon class="cls-3" points="691.549 137.778 681.985 147.342 691.481 156.838 691.549 137.778"/>
      <polygon class="cls-3" points="688.177 153.534 697.673 163.03 707.237 153.467 688.177 153.534"/>
      <path class="cls-3" d="M721.527,139.177l-32.019,32.019c8.813,3.009,18.961,1.001,25.99-6.029,7.029-7.029,9.038-17.177,6.029-25.99Z"/>
      <path class="cls-3" d="M705.839,171.196l-32.019-32.019c-3.009,8.813-1.001,18.961,6.029,25.99,7.029,7.029,17.177,9.038,25.99,6.029Z"/>
      <path class="cls-3" d="M689.508,123.489l32.019,32.019c3.009-8.813,1.001-18.961-6.029-25.99-7.029-7.029-17.177-9.038-25.99-6.029Z"/>
      <path class="cls-3" d="M673.82,155.507l32.019-32.019c-8.813-3.009-18.961-1.001-25.99,6.029s-9.038,17.177-6.029,25.99Z"/>
      <circle class="cls-3" cx="748.38" cy="82.36" r="23.021"/>
      <polygon class="cls-3" points="758.511 84.581 758.511 72.23 746.247 72.23 758.511 84.581"/>
      <polygon class="cls-3" points="750.514 72.23 738.25 72.23 738.25 84.581 750.514 72.23"/>
      <polygon class="cls-3" points="738.25 80.139 738.25 92.491 750.514 92.491 738.25 80.139"/>
      <polygon class="cls-3" points="746.247 92.491 758.511 92.491 758.511 80.139 746.247 92.491"/>
      <path class="cls-3" d="M758.511,61.684v41.352c7.634-3.748,12.89-11.597,12.89-20.676s-5.256-16.928-12.89-20.676Z"/>
      <path class="cls-3" d="M769.056,92.491h-41.352c3.748,7.634,11.597,12.89,20.676,12.89s16.928-5.256,20.676-12.89Z"/>
      <path class="cls-3" d="M727.704,72.229h41.352c-3.748-7.634-11.597-12.89-20.676-12.89s-16.928,5.256-20.676,12.89Z"/>
      <path class="cls-3" d="M738.25,103.036v-41.352c-7.634,3.748-12.89,11.597-12.89,20.676s5.256,16.928,12.89,20.676Z"/>
      <circle class="cls-3" cx="1005.763" cy="103.78" r="25.065"/>
      <polygon class="cls-3" points="1016.793 106.198 1016.793 92.75 1003.44 92.75 1016.793 106.198"/>
      <polygon class="cls-3" points="1008.086 92.75 994.733 92.75 994.733 106.198 1008.086 92.75"/>
      <polygon class="cls-3" points="994.733 101.362 994.733 114.81 1008.086 114.81 994.733 101.362"/>
      <polygon class="cls-3" points="1003.44 114.81 1016.793 114.81 1016.793 101.362 1003.44 114.81"/>
      <path class="cls-3" d="M1016.793,81.268v45.024c8.312-4.08,14.035-12.627,14.035-22.512s-5.723-18.432-14.035-22.512Z"/>
      <path class="cls-3" d="M1028.275,114.81h-45.024c4.08,8.312,12.627,14.035,22.512,14.035s18.432-5.723,22.512-14.035Z"/>
      <path class="cls-3" d="M983.251,92.75h45.024c-4.08-8.312-12.627-14.035-22.512-14.035-9.885,0-18.432,5.723-22.512,14.035Z"/>
      <path class="cls-3" d="M994.733,126.292v-45.024c-8.312,4.08-14.035,12.627-14.035,22.512s5.723,18.432,14.035,22.512Z"/>
    </g>
  </g>
</svg>