<?xml version="1.0" encoding="UTF-8"?>
<svg id="Layer_2" data-name="Layer 2" xmlns="http://www.w3.org/2000/svg" viewBox="0 0 156.374 80.451">
  <defs>
    <style>
      .cls-1 {
        fill: #fb7691;
      }

      .cls-1, .cls-2, .cls-3, .cls-4, .cls-5 {
        stroke-width: 0px;
      }

      .cls-2 {
        fill: #fe9eb4;
      }

      .cls-3 {
        fill: #821b1b;
      }

      .cls-4 {
        fill: #d6717d;
      }

      .cls-5 {
        fill: #a2afdf;
      }
    </style>
  </defs>
  <g id="Props">
    <g>
      <g>
        <rect class="cls-3" x="33.254" y="41.553" width="79.627" height="21.508"/>
        <path class="cls-1" d="M109.772,61.908s-7.17-42.267,16.787-56.858c23.957-14.591,11.717,7.075,11.717,7.075l-12.095,3.647,11.172.29s-4.005,9.644-5.115,11.944c-1.11,2.3-7.453.483-7.453.483l5.444,2.361-20.456,31.056Z"/>
        <path class="cls-2" d="M106.495,62.01s24.992-41.399,42.346-43.356c17.354-1.957-.712,11.837-.712,11.837l-6.354-2.36,3.5,5.475s-7.565,6.814-9.42,8.367c-1.855,1.553-2.773-3.043-2.773-3.043l.269,4.666-26.856,18.415Z"/>
        <path class="cls-4" d="M71.085,55.74c-33.394,0-61.651-6.984-71.085-16.604v41.316h142.17v-41.316c-9.434,9.62-37.691,16.604-71.085,16.604Z"/>
        <rect class="cls-3" y="69.545" width="142.17" height="5.949"/>
      </g>
      <circle class="cls-1" cx="19.891" cy="67.237" r="12.6"/>
      <circle class="cls-3" cx="19.891" cy="67.237" r="11.382"/>
      <path class="cls-5" d="M15.474,61.478c1.914.011,3.576,1.173,4.285,3.001.02.05.042.121.082.138.08.034.137.002.172-.097.223-.62.572-1.163,1.028-1.64,1.78-1.862,4.441-1.664,5.914-.589,1.133.827,1.761,1.931,1.844,3.339.076,1.289-.36,2.413-1.092,3.447-.354.5-.791.913-1.255,1.308-1.738,1.478-3.469,2.965-5.203,4.448-.414.355-.832.706-1.242,1.065-.087.076-.136.079-.225.002-1.264-1.087-2.531-2.169-3.797-3.252-1.071-.916-2.154-1.818-3.205-2.757-.33-.295-.595-.673-.849-1.041-.586-.851-.922-1.791-.953-2.837-.07-2.291,1.608-4.238,3.884-4.487.204-.022.409-.032.613-.048Z"/>
    </g>
  </g>
</svg>