<?xml version="1.0" encoding="UTF-8"?>
<svg id="Layer_2" data-name="Layer 2" xmlns="http://www.w3.org/2000/svg" xmlns:xlink="http://www.w3.org/1999/xlink" viewBox="0 0 456.6 329.961">
  <defs>
    <style>
      .cls-1 {
        fill: #618a47;
      }

      .cls-1, .cls-2, .cls-3, .cls-4, .cls-5, .cls-6, .cls-7, .cls-8, .cls-9, .cls-10 {
        stroke-width: 0px;
      }

      .cls-11 {
        clip-path: url(#clippath);
      }

      .cls-2, .cls-12 {
        fill: none;
      }

      .cls-3 {
        fill: #376136;
      }

      .cls-4 {
        fill: #98ae54;
      }

      .cls-5 {
        fill: #7e4c2f;
      }

      .cls-6 {
        fill: #64963d;
      }

      .cls-7 {
        fill: #789e49;
      }

      .cls-12 {
        stroke: #623922;
        stroke-miterlimit: 10;
        stroke-width: 7px;
      }

      .cls-8 {
        fill: #ca9261;
      }

      .cls-9 {
        fill: #623922;
      }

      .cls-10 {
        fill: #a16d46;
      }
    </style>
    <clipPath id="clippath">
      <path class="cls-2" d="M351.904,184.947c3.059,50.019-86.182,44.886-86.192,44.884,2.452-5.268,7.861-17.093,10.327-22.511,12.109-26.605,24.499-28.898,28.186-28.945l-48.118-2.783s-10.383,63.428-45.158,57.951c-22.86-3.6-34.571-68.121-34.571-68.121,0,0-70.008-1.683-66.305,0,55.411,25.187,65.311,70.239,67.164,90.239-48.207-6.346-56.898-68.68-56.898-68.68h-45.656c28.237,68.375,69.605,85.537,102.239,90.337.117,19.426-1.077,52.643-1.077,52.643,0,0,23.593-1.627,72.407,0-1.313-23.04,3.332-65.948,10.543-84.224,9.147,1.528,30.926,3.807,64.227-.993,45.153-6.508,63.458-59.797,63.458-59.797,0,0-34.576-3.458-34.576,0Z"/>
    </clipPath>
  </defs>
  <g id="Props">
    <g>
      <g>
        <g>
          <path class="cls-8" d="M304.225,178.375l1.102.064s-.392-.073-1.102-.064Z"/>
          <path class="cls-8" d="M351.904,184.947c3.059,50.019-86.182,44.886-86.192,44.884,2.452-5.268,7.861-17.093,10.327-22.511,12.109-26.605,24.499-28.898,28.186-28.945l-48.118-2.783s-10.383,63.428-45.158,57.951c-22.86-3.6-34.571-68.121-34.571-68.121,0,0-70.008-1.683-66.305,0,55.411,25.187,65.311,70.239,67.164,90.239-48.207-6.346-56.898-68.68-56.898-68.68h-45.656c28.237,68.375,69.605,85.537,102.239,90.337.117,19.426-1.077,52.643-1.077,52.643,0,0,23.593-1.627,72.407,0-1.313-23.04,3.332-65.948,10.543-84.224,9.147,1.528,30.926,3.807,64.227-.993,45.153-6.508,63.458-59.797,63.458-59.797,0,0-34.576-3.458-34.576,0Z"/>
        </g>
        <path class="cls-8" d="M344.384,208.039l1.102.064s-.392-.073-1.102-.064Z"/>
        <g class="cls-11">
          <g>
            <path class="cls-5" d="M152.531,159.845s54.305,82.993,52.78,127.993.032,58.513.032,58.513l-110.472-10.309-39.051-130.056,96.712-46.141Z"/>
            <ellipse class="cls-9" cx="329.082" cy="236.796" rx="44.5" ry="40.5"/>
            <rect class="cls-9" x="230.582" y="186.296" width="49" height="42"/>
            <ellipse class="cls-9" cx="118.082" cy="233.796" rx="46.5" ry="48.5"/>
            <path class="cls-12" d="M192.187,201.732s34.101,64.868,24.23,115.035"/>
            <circle class="cls-10" cx="234.495" cy="315.559" r="42.5"/>
            <ellipse class="cls-12" cx="235.653" cy="318.194" rx="30.455" ry="31.271"/>
          </g>
        </g>
      </g>
      <g>
        <ellipse class="cls-3" cx="175.846" cy="100.451" rx="104.813" ry="97.824"/>
        <rect class="cls-4" x="222.502" y="19.991" width="126.212" height="188.371"/>
        <circle class="cls-4" cx="84.013" cy="145.644" r="75.913"/>
        <rect class="cls-1" x="300.43" y="104.49" width="156.169" height="115.394"/>
        <circle class="cls-4" cx="352.585" cy="75.913" r="75.913"/>
        <path class="cls-7" d="M329.445,118.448c-1.12,3.44-2.222,6.831-3.328,10.221-1.269,3.889-2.261,7.898-3.868,11.643-4.288,9.996-15.278,15.099-25.693,12.037-6.596-1.939-13.121-4.123-19.676-6.199-.155-.049-.301-.124-.735-.292.741-2.161,1.516-4.31,2.215-6.484,1.364-4.24,2.698-8.488,4.021-12.741,3.701-11.898,15.891-18.2,27.728-14.361,6.043,1.96,12.109,3.847,18.164,5.769.338.107.671.233,1.172.407Z"/>
        <path class="cls-6" d="M429.426,243.173c-2.966-.466-5.773-.999-8.603-1.333-5.683-.67-11.151-1.978-16.237-4.722-14.154-7.637-22.125-23.204-20.073-39.322.494-3.878,1.001-7.754,1.547-11.987,1.752.321,3.314.652,4.89.887,4.95.737,9.968,1.096,14.72,2.866,8.355,3.112,14.96,8.396,19.695,15.951,5.253,8.381,6.919,17.493,5.421,27.239-.517,3.363-.886,6.749-1.361,10.421Z"/>
        <path class="cls-6" d="M0,224.584c9.514-38.654,50.6-63.206,89.475-52.613-8.033,36.039-48.255,63.671-89.475,52.613Z"/>
        <path class="cls-7" d="M91.31,103.289c-3.372-1.311-6.696-2.601-10.018-3.896-3.812-1.485-7.759-2.7-11.408-4.514-9.74-4.841-14.219-16.099-10.58-26.327,2.305-6.477,4.851-12.869,7.291-19.298.058-.152.14-.294.333-.717,2.116.861,4.219,1.755,6.35,2.575,4.156,1.599,8.324,3.169,12.496,4.728,11.672,4.361,17.281,16.885,12.786,28.489-2.295,5.924-4.519,11.875-6.777,17.813-.126.332-.27.657-.472,1.147Z"/>
        <path class="cls-6" d="M200.731,93.572c.631-2.935,1.321-5.708,1.813-8.515.988-5.637,2.599-11.023,5.624-15.947,8.418-13.704,24.407-20.79,40.384-17.839,3.844.71,7.685,1.433,11.882,2.216-.418,1.732-.837,3.272-1.159,4.833-1.013,4.901-1.652,9.891-3.685,14.536-3.575,8.168-9.22,14.466-17.029,18.771-8.662,4.775-17.853,5.929-27.5,3.887-3.329-.705-6.688-1.263-10.328-1.943Z"/>
        <path class="cls-6" d="M184.519,113.705c38.061,11.663,60.273,54.06,47.519,92.281-35.532-10.039-60.869-51.745-47.519-92.281Z"/>
        <circle class="cls-7" cx="113.626" cy="142.009" r="9.817"/>
        <circle class="cls-7" cx="150.96" cy="62.116" r="4.311"/>
        <circle class="cls-7" cx="350.469" cy="49.109" r="8.695"/>
        <circle class="cls-7" cx="355.874" cy="167.964" r="3.29"/>
        <circle class="cls-7" cx="408.136" cy="127.514" r="7.473"/>
        <circle class="cls-7" cx="244.718" cy="136.579" r="9.065"/>
        <circle class="cls-7" cx="258.879" cy="170.951" r="5.096"/>
        <circle class="cls-7" cx="261.427" cy="89.64" r="2.548"/>
        <circle class="cls-7" cx="247.197" cy="29.203" r="2.555"/>
        <circle class="cls-7" cx="50.35" cy="147.621" r="5.612"/>
        <circle class="cls-7" cx="81.545" cy="160.035" r="2.468"/>
        <circle class="cls-7" cx="48.668" cy="107.219" r="3.93"/>
        <circle class="cls-7" cx="110.548" cy="201.353" r="3.078"/>
        <circle class="cls-7" cx="169.091" cy="177.939" r="1.892"/>
      </g>
    </g>
  </g>
</svg>