<?xml version="1.0" encoding="UTF-8"?>
<svg id="Layer_2" data-name="Layer 2" xmlns="http://www.w3.org/2000/svg" xmlns:xlink="http://www.w3.org/1999/xlink" viewBox="0 0 276.905 352.373">
  <defs>
    <style>
      .cls-1 {
        fill: #a75852;
      }

      .cls-1, .cls-2, .cls-3, .cls-4, .cls-5, .cls-6, .cls-7, .cls-8, .cls-9, .cls-10 {
        stroke-width: 0px;
      }

      .cls-2 {
        fill: #9d4857;
      }

      .cls-11 {
        clip-path: url(#clippath);
      }

      .cls-3 {
        fill: none;
      }

      .cls-4 {
        fill: #a04641;
      }

      .cls-12 {
        clip-path: url(#clippath-1);
      }

      .cls-13 {
        clip-path: url(#clippath-2);
      }

      .cls-5 {
        fill: #fb7691;
      }

      .cls-6 {
        fill: #fe9eb4;
      }

      .cls-7 {
        fill: #821b1b;
      }

      .cls-8 {
        fill: #d6717d;
      }

      .cls-9 {
        fill: #a2afdf;
      }

      .cls-10 {
        fill: #eeb3b7;
      }
    </style>
    <clipPath id="clippath">
      <path class="cls-3" d="M138.442,0C82.081,0,36.391,37.699,36.391,84.203v268.169h204.102V84.203C240.493,37.699,194.803,0,138.442,0Z"/>
    </clipPath>
    <clipPath id="clippath-1">
      <rect class="cls-3" x="6.188" y="42.102" width="30.203" height="310.271"/>
    </clipPath>
    <clipPath id="clippath-2">
      <rect class="cls-3" x="240.514" y="42.102" width="30.203" height="310.271"/>
    </clipPath>
  </defs>
  <g id="Export">
    <g>
      <path class="cls-7" d="M138.442,0C82.081,0,36.391,37.699,36.391,84.203v268.169h204.102V84.203C240.493,37.699,194.803,0,138.442,0Z"/>
      <rect class="cls-7" x="6.188" y="42.102" width="30.203" height="310.271"/>
      <path class="cls-9" d="M10.743,4.713c4.57.027,8.538,2.799,10.231,7.165.047.12.101.288.196.329.19.08.327.004.412-.231.532-1.481,1.365-2.776,2.453-3.914,4.25-4.446,10.603-3.973,14.12-1.407,2.705,1.974,4.204,4.611,4.402,7.972.181,3.079-.859,5.76-2.608,8.23-.846,1.194-1.889,2.18-2.997,3.122-4.15,3.529-8.284,7.079-12.424,10.62-.989.846-1.986,1.684-2.966,2.542-.207.181-.324.189-.538.006-3.017-2.595-6.043-5.179-9.067-7.765-2.557-2.187-5.144-4.34-7.652-6.582-.788-.704-1.421-1.607-2.026-2.486C.882,20.28.081,18.036.005,15.54-.162,10.069,3.844,5.422,9.28,4.827c.486-.053.975-.077,1.463-.114Z"/>
      <g class="cls-11">
        <g>
          <rect class="cls-9" x="84.899" y="-4.576" width="9.763" height="88.78"/>
          <rect class="cls-9" x="182.526" y="-4.576" width="9.763" height="88.78"/>
          <path class="cls-5" d="M124.858,25.606c5.953.035,11.121,3.646,13.327,9.332.061.157.132.376.256.428.248.105.426.006.536-.301.693-1.93,1.777-3.615,3.195-5.099,5.536-5.791,13.81-5.175,18.392-1.832,3.523,2.571,5.476,6.005,5.734,10.384.236,4.01-1.119,7.503-3.397,10.719-1.101,1.555-2.461,2.84-3.903,4.066-5.406,4.597-10.789,9.22-16.182,13.833-1.289,1.102-2.587,2.194-3.863,3.311-.269.236-.422.247-.701.007-3.93-3.379-7.871-6.745-11.809-10.114-3.33-2.849-6.7-5.653-9.967-8.573-1.026-.917-1.851-2.093-2.639-3.238-1.822-2.647-2.866-5.57-2.965-8.822-.217-7.126,5.001-13.178,12.08-13.953.633-.069,1.271-.1,1.906-.149Z"/>
          <rect class="cls-9" x="67.392" y="7.975" width="4.881" height="88.78" transform="translate(-16.301 38.239) rotate(-27.551)"/>
          <rect class="cls-9" x="206.267" y="6.039" width="4.881" height="88.78" transform="translate(370.423 191.675) rotate(-152.449)"/>
          <rect class="cls-6" x="184.052" y="129.356" width="27.458" height="28.881"/>
          <rect class="cls-8" x="121.96" y="159.864" width="28.431" height="25.22"/>
          <rect class="cls-2" x="62.323" y="220.983" width="26.542" height="26.542"/>
          <polygon class="cls-6" points="117.137 277.247 92.933 277.247 93.747 251.085 118.56 251.593 117.137 277.247"/>
          <rect class="cls-5" x="183.736" y="219.763" width="26.259" height="27.864"/>
          <rect class="cls-6" x="215.345" y="251.491" width="29.288" height="26.542"/>
          <rect class="cls-2" x="28.646" y="133.525" width="27.864" height="23.186"/>
          <rect class="cls-6" x="64.56" y="130.475" width="22.373" height="24.407"/>
          <rect class="cls-5" x="125.45" y="278.034" width="25.983" height="25.983"/>
          <rect class="cls-4" x="31.815" y="192.317" width="32.847" height="29.06"/>
          <rect class="cls-5" x="93.035" y="108.149" width="25.983" height="17.546"/>
          <rect class="cls-2" x="185.374" y="282.61" width="25.314" height="17.939"/>
          <rect class="cls-1" x="63.137" y="283.424" width="25.729" height="17.126"/>
          <rect class="cls-5" x="215.374" y="108.149" width="29.288" height="20.129"/>
          <g>
            <rect class="cls-8" x="56.432" y="108.149" width="9.763" height="197.546"/>
            <rect class="cls-8" x="86.756" y="104.718" width="9.763" height="197.546"/>
            <rect class="cls-8" x="117.079" y="106.434" width="9.763" height="197.546"/>
            <rect class="cls-8" x="147.402" y="103.003" width="9.763" height="197.546"/>
            <rect class="cls-8" x="177.725" y="108.149" width="9.763" height="197.546"/>
            <rect class="cls-8" x="208.048" y="104.718" width="9.763" height="197.546"/>
            <rect class="cls-10" x="131.515" y="8.747" width="9.763" height="239.061" transform="translate(264.674 -8.118) rotate(90)"/>
            <rect class="cls-10" x="135.666" y="39.071" width="9.763" height="239.061" transform="translate(299.149 18.054) rotate(90)"/>
            <rect class="cls-10" x="133.59" y="69.394" width="9.763" height="239.061" transform="translate(327.396 50.453) rotate(90)"/>
            <rect class="cls-10" x="137.742" y="99.717" width="9.763" height="239.061" transform="translate(361.871 76.624) rotate(90)"/>
            <rect class="cls-10" x="131.515" y="130.04" width="9.763" height="239.061" transform="translate(385.967 113.175) rotate(90)"/>
            <rect class="cls-10" x="135.666" y="160.363" width="9.763" height="239.061" transform="translate(420.441 139.346) rotate(90)"/>
          </g>
          <path class="cls-9" d="M102.652,152.539c15.51.092,28.975,9.5,34.721,24.313.159.409.343.979.667,1.116.645.273,1.11.015,1.397-.784,1.805-5.027,4.631-9.419,8.325-13.284,14.424-15.088,35.982-13.483,47.918-4.773,9.18,6.699,14.268,15.647,14.94,27.054.615,10.448-2.917,19.549-8.851,27.928-2.869,4.051-6.412,7.398-10.17,10.594-14.084,11.977-28.111,24.022-42.161,36.04-3.358,2.872-6.74,5.716-10.064,8.628-.702.615-1.1.643-1.825.019-10.238-8.805-20.507-17.574-30.768-26.352-8.676-7.422-17.455-14.729-25.967-22.336-2.674-2.39-4.822-5.452-6.877-8.436-4.748-6.897-7.467-14.513-7.724-22.984-.565-18.567,13.029-34.335,31.474-36.354,1.65-.181,3.31-.261,4.966-.388Z"/>
          <rect class="cls-9" x="36.391" y="84.203" width="204.102" height="26.784"/>
          <rect class="cls-9" x="36.391" y="297.184" width="204.102" height="26.784"/>
        </g>
      </g>
      <rect class="cls-8" x="10.306" y="34.932" width="21.508" height="8.695" rx="4.347" ry="4.347"/>
      <g class="cls-12">
        <g>
          <rect class="cls-1" x=".849" y="57.28" width="38.288" height="5.186"/>
          <rect class="cls-8" x="1.514" y="79.062" width="37.764" height="6.407" transform="translate(-28.174 12.806) rotate(-21.039)"/>
          <rect class="cls-8" x="0" y="98.085" width="39.137" height="45"/>
          <rect class="cls-1" x="-.677" y="159.102" width="43.932" height="6.407" transform="translate(64.868 4.517) rotate(22.912)"/>
          <rect class="cls-8" x="0" y="204.712" width="39.747" height="4.881"/>
          <rect class="cls-8" x=".62" y="223.703" width="37.525" height="23.797"/>
          <rect class="cls-8" x="-2.906" y="269.244" width="46.592" height="5.797" transform="translate(-133.339 46.655) rotate(-30)"/>
          <rect class="cls-8" x="4.51" y="301.119" width="34.475" height="7.551"/>
          <rect class="cls-1" x="1.65" y="333.331" width="39.278" height="2.715" transform="translate(147.695 24.058) rotate(25.783)"/>
          <rect class="cls-8" x="-2.093" y="173.669" width="43.932" height="6.407" transform="translate(70.428 6.218) rotate(22.912)"/>
        </g>
      </g>
      <rect class="cls-7" x="240.514" y="42.102" width="30.203" height="310.271"/>
      <path class="cls-9" d="M245.069,4.713c4.57.027,8.538,2.799,10.231,7.165.047.12.101.288.196.329.19.08.327.004.412-.231.532-1.481,1.365-2.776,2.453-3.914,4.25-4.446,10.603-3.973,14.12-1.407,2.705,1.974,4.204,4.611,4.402,7.972.181,3.079-.859,5.76-2.608,8.23-.846,1.194-1.889,2.18-2.997,3.122-4.15,3.529-8.284,7.079-12.424,10.62-.989.846-1.986,1.684-2.966,2.542-.207.181-.324.189-.538.006-3.017-2.595-6.043-5.179-9.067-7.765-2.557-2.187-5.144-4.34-7.652-6.582-.788-.704-1.421-1.607-2.026-2.486-1.399-2.032-2.2-4.277-2.276-6.773-.167-5.471,3.839-10.118,9.275-10.713.486-.053.975-.077,1.463-.114Z"/>
      <rect class="cls-8" x="244.633" y="34.932" width="21.508" height="8.695" rx="4.347" ry="4.347"/>
      <g class="cls-13">
        <g>
          <rect class="cls-1" x="235.175" y="57.28" width="38.288" height="5.186"/>
          <rect class="cls-8" x="235.84" y="79.062" width="37.764" height="6.407" transform="translate(-12.553 96.93) rotate(-21.039)"/>
          <rect class="cls-8" x="234.327" y="98.085" width="39.137" height="45"/>
          <rect class="cls-1" x="233.65" y="159.102" width="43.932" height="6.407" transform="translate(83.356 -86.711) rotate(22.912)"/>
          <rect class="cls-8" x="234.327" y="204.712" width="39.747" height="4.881"/>
          <rect class="cls-8" x="234.946" y="223.703" width="37.525" height="23.797"/>
          <rect class="cls-8" x="231.42" y="269.244" width="46.592" height="5.797" transform="translate(-101.946 163.818) rotate(-30)"/>
          <rect class="cls-8" x="238.836" y="301.119" width="34.475" height="7.551"/>
          <rect class="cls-1" x="235.977" y="333.331" width="39.278" height="2.715" transform="translate(171.022 -77.864) rotate(25.783)"/>
          <rect class="cls-8" x="232.234" y="173.669" width="43.932" height="6.407" transform="translate(88.915 -85.01) rotate(22.912)"/>
        </g>
      </g>
    </g>
  </g>
</svg>