<?xml version="1.0" encoding="UTF-8"?>
<svg id="Layer_2" data-name="Layer 2" xmlns="http://www.w3.org/2000/svg" xmlns:xlink="http://www.w3.org/1999/xlink" viewBox="0 0 220.053 210.185">
  <defs>
    <style>
      .cls-1 {
        clip-path: url(#clippath);
      }

      .cls-2 {
        fill: none;
      }

      .cls-2, .cls-3, .cls-4, .cls-5, .cls-6, .cls-7, .cls-8, .cls-9, .cls-10, .cls-11, .cls-12, .cls-13, .cls-14, .cls-15, .cls-16, .cls-17, .cls-18, .cls-19, .cls-20, .cls-21, .cls-22, .cls-23, .cls-24, .cls-25, .cls-26, .cls-27, .cls-28, .cls-29, .cls-30, .cls-31, .cls-32, .cls-33, .cls-34, .cls-35, .cls-36, .cls-37, .cls-38, .cls-39, .cls-40, .cls-41, .cls-42, .cls-43, .cls-44, .cls-45, .cls-46 {
        stroke-width: 0px;
      }

      .cls-3 {
        fill: #f6606f;
      }

      .cls-4 {
        fill: url(#linear-gradient);
      }

      .cls-5 {
        fill: #4a8639;
      }

      .cls-6 {
        fill: url(#linear-gradient-33);
      }

      .cls-7 {
        fill: url(#linear-gradient-29);
      }

      .cls-8 {
        fill: url(#linear-gradient-32);
      }

      .cls-9 {
        fill: url(#linear-gradient-30);
      }

      .cls-10 {
        fill: url(#linear-gradient-31);
      }

      .cls-11 {
        fill: url(#linear-gradient-28);
      }

      .cls-12 {
        fill: url(#linear-gradient-25);
      }

      .cls-13 {
        fill: url(#linear-gradient-11);
      }

      .cls-14 {
        fill: url(#linear-gradient-12);
      }

      .cls-15 {
        fill: url(#linear-gradient-13);
      }

      .cls-16 {
        fill: url(#linear-gradient-10);
      }

      .cls-17 {
        fill: url(#linear-gradient-17);
      }

      .cls-18 {
        fill: url(#linear-gradient-16);
      }

      .cls-19 {
        fill: url(#linear-gradient-19);
      }

      .cls-20 {
        fill: url(#linear-gradient-15);
      }

      .cls-21 {
        fill: url(#linear-gradient-23);
      }

      .cls-22 {
        fill: url(#linear-gradient-21);
      }

      .cls-23 {
        fill: url(#linear-gradient-18);
      }

      .cls-24 {
        fill: url(#linear-gradient-14);
      }

      .cls-25 {
        fill: url(#linear-gradient-22);
      }

      .cls-26 {
        fill: url(#linear-gradient-20);
      }

      .cls-27 {
        fill: url(#linear-gradient-27);
      }

      .cls-28 {
        fill: url(#linear-gradient-24);
      }

      .cls-29 {
        fill: url(#linear-gradient-26);
      }

      .cls-30 {
        fill: #a0b556;
      }

      .cls-31 {
        fill: #90a22e;
      }

      .cls-32 {
        fill: #659847;
      }

      .cls-33 {
        fill: #fea8a4;
      }

      .cls-34 {
        fill: url(#linear-gradient-4);
      }

      .cls-35 {
        fill: url(#linear-gradient-2);
      }

      .cls-36 {
        fill: url(#linear-gradient-3);
      }

      .cls-37 {
        fill: url(#linear-gradient-8);
      }

      .cls-38 {
        fill: url(#linear-gradient-9);
      }

      .cls-39 {
        fill: url(#linear-gradient-7);
      }

      .cls-40 {
        fill: url(#linear-gradient-5);
      }

      .cls-41 {
        fill: url(#linear-gradient-6);
      }

      .cls-42 {
        fill: #adbba1;
      }

      .cls-43 {
        fill: #586f33;
      }

      .cls-44 {
        fill: #4b5f1a;
      }

      .cls-45 {
        fill: #fff;
      }

      .cls-46 {
        fill: #305934;
      }
    </style>
    <clipPath id="clippath">
      <rect class="cls-2" x="14.77" y="14.21" width="187.972" height="195.975"/>
    </clipPath>
    <linearGradient id="linear-gradient" x1="179.791" y1="79.981" x2="179.791" y2="30.749" gradientUnits="userSpaceOnUse">
      <stop offset="0" stop-color="#f96576"/>
      <stop offset=".246" stop-color="#f96878"/>
      <stop offset=".457" stop-color="#fa7280"/>
      <stop offset=".655" stop-color="#fb848d"/>
      <stop offset=".843" stop-color="#fd9d9f"/>
      <stop offset="1" stop-color="#ffb8b3"/>
    </linearGradient>
    <linearGradient id="linear-gradient-2" x1="1029.594" y1="7597.018" x2="1029.594" y2="7547.786" gradientTransform="translate(7732.459 -954.494) rotate(90)" xlink:href="#linear-gradient"/>
    <linearGradient id="linear-gradient-3" x1="7696.829" y1="-769.821" x2="7696.829" y2="-819.053" gradientTransform="translate(954.494 7732.46) rotate(-90)" xlink:href="#linear-gradient"/>
    <linearGradient id="linear-gradient-4" x1="8546.636" y1="6747.212" x2="8546.636" y2="6697.98" gradientTransform="translate(8686.958 6777.961) rotate(-180)" xlink:href="#linear-gradient"/>
    <linearGradient id="linear-gradient-5" x1="-1058.565" y1="556.119" x2="-1043.96" y2="556.119" gradientTransform="translate(1243.435 270.977) rotate(34.247)" gradientUnits="userSpaceOnUse">
      <stop offset=".308" stop-color="#b1e1ec" stop-opacity=".8"/>
      <stop offset=".999" stop-color="#83c6e3"/>
    </linearGradient>
    <linearGradient id="linear-gradient-6" x1="-1065.9" y1="559.956" x2="-1054.65" y2="559.956" xlink:href="#linear-gradient-5"/>
    <linearGradient id="linear-gradient-7" x1="-1063.752" y1="568.877" x2="-1049.148" y2="568.877" xlink:href="#linear-gradient-5"/>
    <linearGradient id="linear-gradient-8" x1="-1053.062" y1="565.04" x2="-1041.812" y2="565.04" xlink:href="#linear-gradient-5"/>
    <linearGradient id="linear-gradient-9" x1="-375.637" y1="539.37" x2="-375.637" y2="499.81" gradientTransform="translate(587.047 -232.574) rotate(17.756)" gradientUnits="userSpaceOnUse">
      <stop offset="0" stop-color="#fcf4ed"/>
      <stop offset="1" stop-color="#bee7fc"/>
    </linearGradient>
    <linearGradient id="linear-gradient-10" x1="-1075.574" y1="549.644" x2="-1037.641" y2="549.644" gradientTransform="translate(1243.435 270.977) rotate(34.247)" gradientUnits="userSpaceOnUse">
      <stop offset=".307" stop-color="#b1e1ec"/>
      <stop offset=".999" stop-color="#83c6e3"/>
    </linearGradient>
    <linearGradient id="linear-gradient-11" x1="9094.311" y1="6278.152" x2="9094.311" y2="6238.591" gradientTransform="translate(6793.162 8871.718) rotate(-162.244)" xlink:href="#linear-gradient-9"/>
    <linearGradient id="linear-gradient-12" x1="-1090.053" y1="500.905" x2="-1082.415" y2="500.905" xlink:href="#linear-gradient-5"/>
    <linearGradient id="linear-gradient-13" x1="-1093.889" y1="502.912" x2="-1088.006" y2="502.912" xlink:href="#linear-gradient-5"/>
    <linearGradient id="linear-gradient-14" x1="-1092.766" y1="507.577" x2="-1085.128" y2="507.577" xlink:href="#linear-gradient-5"/>
    <linearGradient id="linear-gradient-15" x1="-1087.175" y1="505.57" x2="-1081.292" y2="505.57" xlink:href="#linear-gradient-5"/>
    <linearGradient id="linear-gradient-16" x1="-399.011" y1="464.498" x2="-399.011" y2="443.809" xlink:href="#linear-gradient-9"/>
    <linearGradient id="linear-gradient-17" x1="-1098.948" y1="497.519" x2="-1079.11" y2="497.519" xlink:href="#linear-gradient-10"/>
    <linearGradient id="linear-gradient-18" x1="9102.556" y1="6334.152" x2="9102.556" y2="6313.463" gradientTransform="translate(6793.162 8871.718) rotate(-162.244)" xlink:href="#linear-gradient-9"/>
    <linearGradient id="linear-gradient-19" x1="130.825" y1="113.734" x2="130.825" y2="89.118" xlink:href="#linear-gradient"/>
    <linearGradient id="linear-gradient-20" x1="1065.788" y1="7623.809" x2="1065.788" y2="7599.193" gradientTransform="translate(7732.459 -954.494) rotate(90)" xlink:href="#linear-gradient"/>
    <linearGradient id="linear-gradient-21" x1="7640.901" y1="-821.228" x2="7640.901" y2="-845.844" gradientTransform="translate(954.494 7732.46) rotate(-90)" xlink:href="#linear-gradient"/>
    <linearGradient id="linear-gradient-22" x1="8575.868" y1="6688.843" x2="8575.868" y2="6664.227" gradientTransform="translate(8686.958 6777.961) rotate(-180)" xlink:href="#linear-gradient"/>
    <linearGradient id="linear-gradient-23" x1="171.194" y1="181.894" x2="171.194" y2="157.278" xlink:href="#linear-gradient"/>
    <linearGradient id="linear-gradient-24" x1="1133.948" y1="7583.44" x2="1133.948" y2="7558.824" gradientTransform="translate(7732.459 -954.494) rotate(90)" xlink:href="#linear-gradient"/>
    <linearGradient id="linear-gradient-25" x1="7572.742" y1="-780.859" x2="7572.742" y2="-805.475" gradientTransform="translate(954.494 7732.46) rotate(-90)" xlink:href="#linear-gradient"/>
    <linearGradient id="linear-gradient-26" x1="8535.499" y1="6620.683" x2="8535.499" y2="6596.067" gradientTransform="translate(8686.958 6777.961) rotate(-180)" xlink:href="#linear-gradient"/>
    <linearGradient id="linear-gradient-27" x1="-1012.778" y1="527.059" x2="-1005.14" y2="527.059" xlink:href="#linear-gradient-5"/>
    <linearGradient id="linear-gradient-28" x1="-1016.614" y1="529.066" x2="-1010.731" y2="529.066" xlink:href="#linear-gradient-5"/>
    <linearGradient id="linear-gradient-29" x1="-1015.491" y1="533.731" x2="-1007.853" y2="533.731" xlink:href="#linear-gradient-5"/>
    <linearGradient id="linear-gradient-30" x1="-1009.9" y1="531.725" x2="-1004.017" y2="531.725" xlink:href="#linear-gradient-5"/>
    <linearGradient id="linear-gradient-31" x1="-332.34" y1="511.513" x2="-332.34" y2="490.824" xlink:href="#linear-gradient-9"/>
    <linearGradient id="linear-gradient-32" x1="-1021.673" y1="523.673" x2="-1001.836" y2="523.673" xlink:href="#linear-gradient-10"/>
    <linearGradient id="linear-gradient-33" x1="9035.884" y1="6287.138" x2="9035.884" y2="6266.449" gradientTransform="translate(6793.162 8871.718) rotate(-162.244)" xlink:href="#linear-gradient-9"/>
  </defs>
  <g id="Props">
    <g>
      <g>
        <g class="cls-1">
          <path class="cls-46" d="M212.531,202.828c-2.439-1.412-4.825-2.914-7.234-4.376-.057-.035-.108-.078-.264-.188.505-.789,1.022-1.569,1.511-2.367.954-1.556,1.898-3.118,2.837-4.683,1.095-1.824,2.685-3.11,4.478-3.806v-2.673c-.509-.481-.973-1.023-1.369-1.637-1.527-2.368-2.966-4.792-4.444-7.192-.035-.057-.06-.119-.15-.287.808-.472,1.625-.931,2.424-1.418,1.184-.722,2.361-1.453,3.539-2.184v-1.448c-3.092-2.85-5.115-6.806-5.511-11.218-.154-1.724-.303-3.448-.468-5.33.788-.028,1.495-.033,2.199-.081,1.261-.086,2.519-.224,3.78-.271v-8.344c-2.98-3.578-4.898-8.056-5.336-12.946-.209-2.33-.41-4.66-.633-7.205,1.065-.037,2.021-.044,2.972-.109.999-.068,1.998-.161,2.997-.24v-7.101c-1.581-.527-3.189-1.066-4.902-1.637.39-.992.764-1.871,1.084-2.77,1.003-2.822,1.791-5.727,3.378-8.313.14-.228.295-.439.44-.661v-10.285c-1.691-1.821-3.34-3.68-5.008-5.522-.045-.049-.081-.106-.2-.255.709-.612,1.427-1.212,2.124-1.837,1.033-.927,2.058-1.862,3.084-2.797v-5.756c-3.721-3.427-5.957-8.327-5.967-13.64-.004-1.854,0-3.709-.001-5.734.844.044,1.599.105,2.355.12,1.204.023,2.411,0,3.613.042v-16.678c-3.75-1.019-7.498-2.052-11.591-3.173.56-1.691,1.104-3.192,1.555-4.721,1.415-4.8,2.464-9.72,4.874-14.182,1.481-2.742,3.211-5.22,5.162-7.459v-6.243h-7.922c-2.813,2.843-6.596,4.698-10.795,5.075-1.724.154-3.448.303-5.33.468-.028-.788-.033-1.495-.081-2.199-.076-1.115-.195-2.229-.255-3.344h-19.405c-3.483,2.726-7.748,4.484-12.391,4.9-2.33.209-4.66.41-7.205.633-.037-1.065-.044-2.021-.109-2.972-.057-.837-.132-1.673-.201-2.509-.357.203-.726.392-1.117.548-2.618,1.042-5.274,1.987-7.914,2.975-.062.023-.128.036-.311.091-.307-.884-.601-1.774-.925-2.652-.125-.339-.255-.676-.381-1.014h-6.478c-.481,1.442-.972,2.91-1.492,4.466-.992-.39-1.871-.765-2.77-1.084-2.822-1.003-5.727-1.791-8.313-3.378-.002-.001-.004-.003-.007-.005h-11.414c-1.67,1.537-3.365,3.048-5.047,4.572-.049.045-.106.081-.255.2-.612-.709-1.212-1.427-1.837-2.124-.796-.887-1.6-1.766-2.402-2.648h-6.582c-3.401,3.454-8.111,5.521-13.209,5.531-1.855.004-3.709,0-5.734.001.044-.844.105-1.599.12-2.355.02-1.059.007-2.119.031-3.177h-16.786c-.981,3.605-1.977,7.221-3.054,11.155-1.691-.56-3.192-1.104-4.721-1.555-4.8-1.415-9.72-2.464-14.182-4.874-2.532-1.368-4.829-2.957-6.933-4.726H11.587v4.104c2.218,1.302,4.401,2.663,6.6,3.997.057.035.108.078.264.188-.505.788-1.022,1.569-1.511,2.367-.954,1.556-1.898,3.118-2.837,4.683-.674,1.123-1.536,2.042-2.517,2.747v6.317c1.307,2.066,2.569,4.161,3.851,6.244.035.057.06.119.15.288-.808.472-1.625.931-2.424,1.418-.527.322-1.051.65-1.577.974v4.809c1.973,2.559,3.245,5.676,3.549,9.068.155,1.724.303,3.448.468,5.33-.788.027-1.495.033-2.199.081-.607.041-1.213.095-1.819.146v11.211c1.853,3.024,3.042,6.495,3.374,10.206.209,2.33.41,4.66.633,7.205-1.065.037-2.021.044-2.972.109-.345.024-.69.051-1.035.079v7.917c.956.32,1.928.645,2.94.982-.39.992-.764,1.871-1.084,2.77-.621,1.746-1.16,3.525-1.857,5.24v16.157c1.016,1.127,2.028,2.26,3.046,3.385.045.049.081.106.2.255-.709.612-1.427,1.212-2.124,1.837-.376.337-.747.679-1.122,1.018v9.653c2.53,3.197,3.997,7.223,4.006,11.522.004,1.854,0,3.709.001,5.734-.844-.044-1.599-.105-2.355-.12-.55-.01-1.101-.011-1.652-.013v17.184c3.105.848,6.249,1.712,9.63,2.638-.56,1.691-1.104,3.192-1.555,4.721-1.415,4.8-2.464,9.72-4.874,14.182-.963,1.783-2.039,3.447-3.2,5.018v17.943h202.271v-12.362c-.452-.17-.897-.374-1.328-.623Z"/>
          <g>
            <rect class="cls-32" x="-15.108" y="-7.509" width="114.69" height="114.69"/>
            <circle class="cls-30" cx="156.329" cy="42.651" r="74.514"/>
            <circle class="cls-30" cx="34.307" cy="178.831" r="60.169"/>
            <rect class="cls-32" x="99.582" y="167.347" width="89.366" height="96.06"/>
            <rect class="cls-32" x="139.717" y="76.906" width="116.091" height="69.348"/>
            <circle class="cls-30" cx="198.858" cy="190.74" r="31.985"/>
          </g>
          <g>
            <path class="cls-5" d="M164.975,125.747c-1.803-.066-3.579-.13-5.355-.196-2.038-.076-4.096-.002-6.111-.26-5.379-.687-9.33-5.256-9.289-10.668.026-3.428.179-6.854.277-10.281.002-.081.018-.161.04-.392,1.137.059,2.274.136,3.412.174,2.219.073,4.439.131,6.658.183,6.21.145,10.901,5.125,10.682,11.326-.112,3.165-.186,6.332-.278,9.498-.005.177-.02.354-.035.618Z"/>
            <path class="cls-43" d="M127.154,159.219c-.466,1.433-.925,2.844-1.386,4.256-.529,1.62-.942,3.289-1.611,4.848-1.786,4.162-6.361,6.287-10.698,5.012-2.747-.807-5.463-1.717-8.193-2.581-.064-.02-.125-.051-.306-.122.308-.9.631-1.795.922-2.7.568-1.765,1.124-3.535,1.674-5.305,1.541-4.954,6.617-7.578,11.546-5.98,2.516.816,5.042,1.602,7.563,2.402.141.045.279.097.488.17Z"/>
            <path class="cls-44" d="M60.706,47.147c.263-1.222.55-2.377.755-3.545.411-2.347,1.082-4.59,2.342-6.64,3.505-5.706,10.163-8.657,16.816-7.428,1.601.296,3.2.597,4.948.923-.174.721-.348,1.363-.483,2.012-.422,2.041-.688,4.119-1.535,6.053-1.489,3.401-3.839,6.024-7.091,7.816-3.607,1.988-7.434,2.469-11.451,1.618-1.386-.293-2.785-.526-4.301-.809Z"/>
            <path class="cls-31" d="M33.813,89.003c16.425-2.231,32.22,9.923,34.066,26.599-15.186,2.404-32.041-8.944-34.066-26.599Z"/>
            <path class="cls-42" d="M125.888,147.011c.91-1.558,1.806-3.093,2.703-4.627,1.03-1.761,1.938-3.609,3.117-5.263,3.147-4.416,9.041-5.739,13.791-3.145,3.009,1.643,5.956,3.397,8.93,5.102.07.04.134.092.327.22-.59.974-1.195,1.94-1.766,2.925-1.113,1.921-2.213,3.85-3.307,5.782-3.062,5.405-9.668,7.185-15.029,4.062-2.737-1.594-5.492-3.156-8.239-4.733-.154-.088-.302-.184-.528-.322Z"/>
            <path class="cls-42" d="M88.394,91.409c-.697-1.336-1.385-2.651-2.071-3.968-.787-1.511-1.691-2.974-2.337-4.543-1.725-4.188-.041-8.944,3.904-11.151,2.499-1.398,5.049-2.703,7.576-4.048.06-.032.125-.054.301-.133.427.85.841,1.707,1.284,2.548.864,1.641,1.739,3.276,2.619,4.908,2.462,4.567.785,10.03-3.805,12.433-2.343,1.227-4.672,2.482-7.008,3.723-.131.069-.265.132-.463.23Z"/>
            <path class="cls-44" d="M44.493,188.36c1.003-.747,1.979-1.426,2.903-2.171,1.855-1.496,3.837-2.741,6.135-3.455,6.396-1.986,13.349.178,17.546,5.483,1.01,1.277,2.015,2.557,3.116,3.953-.606.428-1.159.796-1.689,1.197-1.661,1.258-3.23,2.646-5.141,3.544-3.36,1.579-6.856,2.005-10.483,1.213-4.024-.879-7.22-3.038-9.683-6.323-.85-1.134-1.75-2.23-2.704-3.441Z"/>
            <path class="cls-5" d="M172.477,151.306c.689,1.043,1.313,2.056,2.005,3.02,1.389,1.936,2.522,3.985,3.106,6.319,1.625,6.497-.925,13.318-6.458,17.212-1.331.937-2.665,1.869-4.121,2.889-.393-.629-.73-1.202-1.1-1.753-1.163-1.729-2.461-3.373-3.251-5.331-1.389-3.443-1.618-6.957-.624-10.535,1.103-3.968,3.437-7.039,6.855-9.314,1.179-.785,2.324-1.622,3.587-2.507Z"/>
            <path class="cls-5" d="M193.174,19.556c.689,1.043,1.313,2.056,2.005,3.02,1.389,1.936,2.522,3.985,3.106,6.319,1.625,6.497-.925,13.318-6.458,17.212-1.331.937-2.665,1.869-4.121,2.889-.393-.629-.73-1.202-1.1-1.753-1.163-1.729-2.461-3.373-3.251-5.331-1.389-3.443-1.618-6.957-.624-10.535,1.103-3.968,3.437-7.039,6.855-9.314,1.179-.785,2.324-1.622,3.587-2.507Z"/>
            <path class="cls-44" d="M165.728,200.324c-14.558,7.926-33.643,2.183-41.299-12.746,13.338-7.647,33.128-3.035,41.299,12.746Z"/>
          </g>
        </g>
        <path class="cls-44" d="M46.915,23.886c-1.235-.194-2.404-.416-3.582-.555-2.366-.279-4.643-.824-6.761-1.966-5.894-3.18-9.213-9.662-8.358-16.373.206-1.615.417-3.229.644-4.991.73.134,1.38.271,2.036.369,2.061.307,4.151.456,6.129,1.193,3.479,1.296,6.229,3.496,8.201,6.642,2.187,3.49,2.881,7.284,2.257,11.342-.215,1.4-.369,2.81-.567,4.339Z"/>
        <path class="cls-44" d="M216.249,140.131c-14.558,7.926-33.643,2.183-41.299-12.746,13.338-7.647,33.128-3.035,41.299,12.746Z"/>
        <path class="cls-42" d="M27.704,44.746c-1.749.44-3.473.874-5.197,1.306-1.979.496-3.934,1.14-5.941,1.455-5.357.841-10.426-2.444-11.896-7.653-.931-3.299-1.74-6.632-2.602-9.95-.02-.078-.028-.16-.071-.388,1.109-.26,2.222-.503,3.325-.785,2.151-.549,4.299-1.112,6.445-1.682,6.004-1.594,11.898,1.881,13.417,7.896.776,3.071,1.588,6.132,2.383,9.198.044.171.08.345.139.603Z"/>
        <path class="cls-43" d="M211.629,88.995c-.466,1.433-.925,2.844-1.386,4.256-.529,1.62-.942,3.289-1.611,4.848-1.786,4.162-6.361,6.287-10.698,5.012-2.747-.807-5.463-1.717-8.193-2.581-.064-.02-.125-.051-.306-.122.308-.9.631-1.795.922-2.7.568-1.765,1.124-3.535,1.674-5.305,1.541-4.954,6.617-7.578,11.546-5.98,2.516.816,5.042,1.602,7.563,2.402.141.045.279.097.488.17Z"/>
        <path class="cls-44" d="M212.505,71.756c-1.235-.194-2.404-.416-3.582-.555-2.366-.279-4.643-.824-6.761-1.966-5.894-3.18-9.213-9.662-8.358-16.373.206-1.615.417-3.229.644-4.991.73.134,1.38.271,2.036.369,2.061.307,4.151.456,6.129,1.193,3.479,1.296,6.229,3.496,8.201,6.642,2.187,3.49,2.881,7.284,2.257,11.342-.215,1.4-.369,2.81-.567,4.339Z"/>
        <path class="cls-44" d="M120.958,22.369c.263-1.222.55-2.377.755-3.545.411-2.347,1.082-4.59,2.342-6.64,3.505-5.706,10.163-8.657,16.816-7.428,1.601.296,3.2.597,4.948.923-.174.721-.348,1.363-.483,2.012-.422,2.041-.688,4.119-1.535,6.053-1.489,3.401-3.839,6.024-7.091,7.816-3.607,1.988-7.434,2.469-11.451,1.618-1.386-.293-2.785-.526-4.301-.809Z"/>
        <path class="cls-31" d="M4.373,68.809c15.848,4.857,25.098,22.51,19.787,38.426-14.795-4.18-25.346-21.546-19.787-38.426Z"/>
        <path class="cls-42" d="M191.184,179.723c.91-1.558,1.806-3.093,2.703-4.627,1.03-1.761,1.938-3.609,3.117-5.263,3.147-4.416,9.041-5.739,13.791-3.145,3.009,1.643,5.956,3.397,8.93,5.102.07.04.134.092.327.22-.59.974-1.195,1.94-1.766,2.925-1.113,1.921-2.213,3.85-3.307,5.782-3.062,5.405-9.668,7.185-15.029,4.062-2.737-1.594-5.492-3.156-8.239-4.733-.154-.088-.302-.184-.528-.322Z"/>
        <path class="cls-42" d="M4.112,190.21c.545-1.404,1.082-2.789,1.62-4.172.618-1.588,1.123-3.231,1.877-4.751,2.014-4.057,6.701-5.924,10.96-4.411,2.698.959,5.36,2.017,8.037,3.032.063.024.122.058.299.139-.358.881-.73,1.757-1.071,2.645-.665,1.731-1.318,3.467-1.966,5.204-1.814,4.861-7.027,7.199-11.86,5.33-2.467-.954-4.946-1.879-7.419-2.818-.138-.052-.274-.112-.478-.196Z"/>
        <path class="cls-5" d="M0,152.697c1.003-.747,1.979-1.426,2.903-2.171,1.855-1.496,3.837-2.741,6.135-3.455,6.396-1.986,13.349.178,17.546,5.483,1.01,1.277,2.015,2.557,3.116,3.953-.606.428-1.159.796-1.689,1.197-1.661,1.258-3.23,2.646-5.141,3.544-3.36,1.579-6.856,2.005-10.483,1.213-4.024-.879-7.22-3.038-9.683-6.323-.85-1.134-1.75-2.23-2.704-3.441Z"/>
      </g>
      <g>
        <circle class="cls-3" cx="160.057" cy="55.365" r="27.407"/>
        <g>
          <polygon class="cls-33" points="172.118 58.009 172.118 43.304 157.517 43.304 172.118 58.009"/>
          <polygon class="cls-33" points="162.597 43.304 147.996 43.304 147.996 58.009 162.597 43.304"/>
          <polygon class="cls-33" points="147.996 52.721 147.996 67.426 162.597 67.426 147.996 52.721"/>
          <polygon class="cls-33" points="157.517 67.426 172.118 67.426 172.118 52.721 157.517 67.426"/>
        </g>
        <path class="cls-4" d="M172.118,30.749v49.232c9.089-4.462,15.346-13.807,15.346-24.616s-6.257-20.154-15.346-24.616Z"/>
        <path class="cls-35" d="M184.673,67.426h-49.232c4.462,9.089,13.807,15.346,24.616,15.346s20.154-6.257,24.616-15.346Z"/>
        <path class="cls-36" d="M135.441,43.304h49.232c-4.462-9.089-13.807-15.346-24.616-15.346-10.808,0-20.154,6.257-24.616,15.346Z"/>
        <path class="cls-34" d="M147.996,79.981V30.749c-9.089,4.462-15.346,13.807-15.346,24.616s6.257,20.154,15.346,24.616Z"/>
      </g>
      <g>
        <g>
          <circle class="cls-45" cx="55.745" cy="142.873" r="22.023"/>
          <g>
            <polygon class="cls-40" points="64.328 147.852 67.931 136.598 56.757 133.02 64.328 147.852"/>
            <polygon class="cls-41" points="60.645 134.265 49.471 130.687 45.867 141.941 60.645 134.265"/>
            <polygon class="cls-39" points="47.163 137.894 43.56 149.147 54.734 152.725 47.163 137.894"/>
            <polygon class="cls-37" points="50.846 151.48 62.02 155.058 65.623 143.805 50.846 151.48"/>
          </g>
          <path class="cls-38" d="M71.008,126.99l-12.065,37.676c8.049-1.187,15.128-6.806,17.777-15.077,2.649-8.271.15-16.957-5.712-22.599Z"/>
          <path class="cls-16" d="M39.863,127.61l37.676,12.065c-1.187-8.049-6.806-15.128-15.077-17.777s-16.957-.15-22.599,5.712Z"/>
          <path class="cls-13" d="M40.483,158.755l12.065-37.676c-8.049,1.187-15.128,6.806-17.777,15.077-2.649,8.271-.15,16.957,5.712,22.599Z"/>
        </g>
        <g>
          <circle class="cls-45" cx="60.645" cy="75.732" r="11.517"/>
          <g>
            <polygon class="cls-14" points="65.133 78.336 67.018 72.451 61.174 70.58 65.133 78.336"/>
            <polygon class="cls-15" points="63.207 71.231 57.364 69.36 55.479 75.245 63.207 71.231"/>
            <polygon class="cls-24" points="56.157 73.128 54.272 79.014 60.116 80.885 56.157 73.128"/>
            <polygon class="cls-20" points="58.083 80.234 63.926 82.105 65.811 76.22 58.083 80.234"/>
          </g>
          <path class="cls-18" d="M68.627,67.426l-6.309,19.703c4.209-.621,7.911-3.559,9.296-7.885s.079-8.868-2.987-11.818Z"/>
          <path class="cls-17" d="M52.339,67.751l19.703,6.309c-.621-4.209-3.559-7.911-7.885-9.297s-8.868-.079-11.818,2.987Z"/>
          <path class="cls-23" d="M52.663,84.038l6.309-19.703c-4.209.621-7.911,3.559-9.296,7.885s-.079,8.868,2.987,11.818Z"/>
        </g>
        <g>
          <circle class="cls-3" cx="120.958" cy="101.426" r="13.704"/>
          <g>
            <polygon class="cls-33" points="126.988 102.748 126.988 95.396 119.688 95.396 126.988 102.748"/>
            <polygon class="cls-33" points="122.228 95.396 114.927 95.396 114.927 102.748 122.228 95.396"/>
            <polygon class="cls-33" points="114.927 100.104 114.927 107.457 122.228 107.457 114.927 100.104"/>
            <polygon class="cls-33" points="119.688 107.457 126.988 107.457 126.988 100.104 119.688 107.457"/>
          </g>
          <path class="cls-19" d="M126.988,89.118v24.616c4.544-2.231,7.673-6.904,7.673-12.308s-3.129-10.077-7.673-12.308Z"/>
          <path class="cls-26" d="M133.266,107.457h-24.616c2.231,4.544,6.904,7.673,12.308,7.673s10.077-3.129,12.308-7.673Z"/>
          <path class="cls-22" d="M108.65,95.396h24.616c-2.231-4.544-6.904-7.673-12.308-7.673-5.404,0-10.077,3.129-12.308,7.673Z"/>
          <path class="cls-25" d="M114.927,113.734v-24.616c-4.544,2.231-7.673,6.904-7.673,12.308s3.129,10.077,7.673,12.308Z"/>
        </g>
        <g>
          <circle class="cls-3" cx="161.327" cy="169.586" r="13.704"/>
          <g>
            <polygon class="cls-33" points="167.357 170.908 167.357 163.556 160.057 163.556 167.357 170.908"/>
            <polygon class="cls-33" points="162.597 163.556 155.296 163.556 155.296 170.908 162.597 163.556"/>
            <polygon class="cls-33" points="155.296 168.264 155.296 175.617 162.597 175.617 155.296 168.264"/>
            <polygon class="cls-33" points="160.057 175.617 167.357 175.617 167.357 168.264 160.057 175.617"/>
          </g>
          <path class="cls-21" d="M167.357,157.278v24.616c4.544-2.231,7.673-6.904,7.673-12.308s-3.129-10.077-7.673-12.308Z"/>
          <path class="cls-28" d="M173.635,175.617h-24.616c2.231,4.544,6.904,7.673,12.308,7.673s10.077-3.129,12.308-7.673Z"/>
          <path class="cls-12" d="M149.019,163.556h24.616c-2.231-4.544-6.904-7.673-12.308-7.673-5.404,0-10.077,3.129-12.308,7.673Z"/>
          <path class="cls-29" d="M155.296,181.894v-24.616c-4.544,2.231-7.673,6.904-7.673,12.308s3.129,10.077,7.673,12.308Z"/>
        </g>
        <g>
          <circle class="cls-45" cx="109.803" cy="140.839" r="11.517"/>
          <g>
            <polygon class="cls-27" points="114.291 143.443 116.176 137.558 110.332 135.687 114.291 143.443"/>
            <polygon class="cls-11" points="112.365 136.338 106.522 134.467 104.637 140.352 112.365 136.338"/>
            <polygon class="cls-7" points="105.315 138.235 103.43 144.121 109.274 145.992 105.315 138.235"/>
            <polygon class="cls-9" points="107.241 145.341 113.084 147.212 114.969 141.327 107.241 145.341"/>
          </g>
          <path class="cls-10" d="M117.785,132.533l-6.309,19.703c4.209-.621,7.911-3.559,9.296-7.885,1.385-4.326.079-8.868-2.987-11.818Z"/>
          <path class="cls-8" d="M101.497,132.858l19.703,6.309c-.621-4.209-3.559-7.911-7.885-9.297-4.326-1.385-8.868-.079-11.818,2.987Z"/>
          <path class="cls-6" d="M101.821,149.145l6.309-19.703c-4.209.621-7.911,3.559-9.296,7.885s-.079,8.868,2.987,11.818Z"/>
        </g>
      </g>
    </g>
  </g>
</svg>