<?xml version="1.0" encoding="UTF-8"?>
<svg id="Layer_2" data-name="Layer 2" xmlns="http://www.w3.org/2000/svg" viewBox="0 0 2096.254 581.031">
  <defs>
    <style>
      .cls-1 {
        fill: #e1f1ff;
        stroke-width: 0px;
      }
    </style>
  </defs>
  <g id="Trunk_Back" data-name="Trunk Back">
    <polygon class="cls-1" points="2046.022 10.27 2096.254 10.27 2096.254 565.8 2024.227 565.8 2046.022 10.27"/>
    <g>
      <polygon class="cls-1" points="1590.85 8.475 1610.286 6.781 1640.005 557.473 1600.663 567.986 1590.85 8.475"/>
      <polygon class="cls-1" points="1663.885 3.237 1701.129 0 1734.207 563.022 1672.452 564.9 1663.885 3.237"/>
    </g>
    <polygon class="cls-1" points="1250.598 20.554 1300.829 20.554 1300.829 576.085 1228.802 576.085 1250.598 20.554"/>
    <g>
      <polygon class="cls-1" points="795.425 18.76 814.861 17.065 844.58 567.758 805.238 578.271 795.425 18.76"/>
      <polygon class="cls-1" points="868.46 13.522 905.704 10.285 938.782 573.307 877.027 575.185 868.46 13.522"/>
    </g>
    <polygon class="cls-1" points="455.173 23.315 505.404 23.315 505.404 578.845 433.377 578.845 455.173 23.315"/>
    <g>
      <polygon class="cls-1" points="0 21.52 19.436 19.826 49.155 570.518 9.813 581.031 0 21.52"/>
      <polygon class="cls-1" points="73.035 16.282 110.279 13.045 143.357 576.067 81.602 577.945 73.035 16.282"/>
    </g>
  </g>
</svg>