<?xml version="1.0" encoding="UTF-8"?>
<svg id="Layer_2" data-name="Layer 2" xmlns="http://www.w3.org/2000/svg" viewBox="0 0 87.456 61.322">
  <defs>
    <style>
      .cls-1 {
        fill: #a75852;
      }

      .cls-1, .cls-2, .cls-3, .cls-4, .cls-5 {
        stroke-width: 0px;
      }

      .cls-2 {
        fill: #9d4857;
      }

      .cls-3 {
        fill: #fb7691;
      }

      .cls-4 {
        fill: #821b1b;
      }

      .cls-5 {
        fill: #a2afdf;
      }
    </style>
  </defs>
  <g id="Props">
    <g>
      <rect class="cls-5" x="2.759" width="79.627" height="61.322"/>
      <rect class="cls-2" x="-.063" y="10.86" width="87.582" height="3.431" transform="translate(-1.545 8.029) rotate(-10.31)"/>
      <rect class="cls-1" x="-.063" y="13.66" width="87.582" height="7.248" transform="translate(3.827 -7.591) rotate(10.373)"/>
      <circle class="cls-4" cx="32.098" cy="14.746" r="8.593"/>
      <path class="cls-3" d="M29.64,11.712c1.065.006,1.99.653,2.385,1.67.011.028.024.067.046.077.044.019.076.001.096-.054.124-.345.318-.647.572-.912.991-1.036,2.471-.926,3.291-.328.631.46.98,1.075,1.026,1.858.042.718-.2,1.343-.608,1.918-.197.278-.44.508-.699.728-.967.823-1.931,1.65-2.896,2.475-.231.197-.463.393-.691.593-.048.042-.076.044-.125.001-.703-.605-1.409-1.207-2.113-1.81-.596-.51-1.199-1.012-1.784-1.534-.184-.164-.331-.374-.472-.579-.326-.474-.513-.997-.531-1.579-.039-1.275.895-2.358,2.162-2.497.113-.012.227-.018.341-.027Z"/>
    </g>
  </g>
</svg>