<?xml version="1.0" encoding="UTF-8"?>
<svg id="Layer_2" data-name="Layer 2" xmlns="http://www.w3.org/2000/svg" viewBox="0 0 2306.126 257.613">
  <defs>
    <style>
      .cls-1 {
        fill: #156346;
      }

      .cls-1, .cls-2, .cls-3, .cls-4, .cls-5, .cls-6 {
        stroke-width: 0px;
      }

      .cls-2 {
        fill: #abbb40;
      }

      .cls-7 {
        stroke-width: 3.5px;
      }

      .cls-7, .cls-8, .cls-9 {
        fill: none;
        stroke-miterlimit: 10;
      }

      .cls-7, .cls-9 {
        stroke: #356b43;
      }

      .cls-3 {
        fill: #72c057;
      }

      .cls-4 {
        fill: #74b37e;
      }

      .cls-5 {
        fill: #83ad4f;
      }

      .cls-8 {
        stroke: #83ad4f;
      }

      .cls-8, .cls-9 {
        stroke-width: 3px;
      }

      .cls-6 {
        fill: #487543;
      }
    </style>
  </defs>
  <g id="Platforms">
    <g>
      <path class="cls-6" d="M1552.951,209.871h168.407v-.571c-47.447-4.633-84.203-37.074-84.203-76.408s36.757-71.775,84.203-76.408v-.571h-168.407v153.96Z"/>
      <ellipse class="cls-5" cx="1699.519" cy="90.137" rx="81.337" ry="75.913"/>
      <path class="cls-4" d="M584.616,217.231h168.407v-.571c-47.447-4.633-84.203-37.074-84.203-76.408s36.757-71.775,84.203-76.408v-.571h-168.407v153.96Z"/>
      <rect class="cls-2" x="710.215" y="115.713" width="156.169" height="115.394"/>
      <polygon class="cls-3" points="866.384 231.107 710.215 89.207 866.883 89.207 866.384 231.107"/>
      <path class="cls-4" d="M789.903,89.207v168.407s.571,0,.571,0c4.633-47.447,37.074-84.203,76.408-84.203,39.335,0,71.775,36.757,76.408,84.203h.571s0-168.407,0-168.407h-153.96Z"/>
      <rect class="cls-1" x=".891" y="89.257" width="156.169" height="115.394"/>
      <circle class="cls-2" cx="170.736" cy="128.097" r="59.653"/>
      <line class="cls-9" x1="111.083" y1="128.097" x2="230.389" y2="128.097"/>
      <path class="cls-4" d="M201.627,52.048v168.407h.899c7.29-47.447,58.331-84.203,120.22-84.203s112.93,36.757,120.22,84.203h.899V52.048h-242.237Z"/>
      <rect class="cls-6" x="427.697" y="41.207" width="156.169" height="115.394"/>
      <circle class="cls-1" cx="373" cy="136.251" r="79.977"/>
      <circle class="cls-3" cx="536.879" cy="122.626" r="75.913"/>
      <ellipse class="cls-4" cx="1970.977" cy="127.325" rx="102.868" ry="94.724"/>
      <ellipse class="cls-1" cx="1008.643" cy="130.685" rx="102.868" ry="94.724"/>
      <rect class="cls-2" x="1060.414" y="53.631" width="126.212" height="188.371"/>
      <path class="cls-5" d="M539.124,46.283v151.807c41.745-.212,75.522-34.109,75.522-75.903s-33.777-75.691-75.522-75.903Z"/>
      <path class="cls-6" d="M866.384,89.207h-76.481v168.407h.571c4.614-47.245,36.801-83.878,75.909-84.189v-84.218Z"/>
      <line class="cls-8" x1="2038.555" y1="198.738" x2="1897.011" y2="61.503"/>
      <ellipse class="cls-1" cx="697.575" cy="102.868" rx="102.868" ry="94.724"/>
      <path class="cls-5" d="M1006.694,136.095v89.291c-53.949-.924-97.739-40.086-100.748-89.291h100.748Z"/>
      <path class="cls-1" d="M1758.238,81.846v168.407s.571,0,.571,0c4.633-47.447,37.074-84.203,76.408-84.203,39.335,0,71.775,36.757,76.408,84.203h.571s0-168.407,0-168.407h-153.96Z"/>
      <line class="cls-7" x1="1060.414" y1="53.631" x2="1186.626" y2="242.002"/>
      <path class="cls-5" d="M372.836,56.048v79.977h-79.977c0-44.17,35.807-79.977,79.977-79.977Z"/>
      <rect class="cls-6" x="1134.509" y="89.257" width="156.169" height="115.394"/>
      <circle class="cls-5" cx="1304.353" cy="128.097" r="59.653"/>
      <line class="cls-9" x1="1244.7" y1="128.097" x2="1354.221" y2="128.097"/>
      <path class="cls-1" d="M1335.244,52.048v168.407h.899c7.29-47.447,58.331-84.203,120.22-84.203s112.93,36.757,120.22,84.203h.899V52.048h-242.237Z"/>
      <path class="cls-5" d="M1969.041,226.53c28.522,0,54.331-10.692,72.964-27.957l-141.485-137.178-.191-.076c-20.966,17.341-34.156,42.494-34.156,70.488,0,52.315,46.055,94.724,102.868,94.724Z"/>
      <circle class="cls-2" cx="1506.617" cy="136.251" r="79.977"/>
      <path class="cls-5" d="M1586.327,136.251h-79.977s0,79.977,0,79.977c44.17,0,79.977-35.807,79.977-79.977Z"/>
      <rect class="cls-1" x="2030.721" y="50.155" width="126.212" height="188.371"/>
      <line class="cls-8" x1="697.575" x2="697.575" y2="197.591"/>
      <line class="cls-8" x1=".891" y1="89.257" x2="157.061" y2="204.651"/>
      <path class="cls-6" d="M1835.218,81.846h-76.98v168.407h.575c4.644-47.245,37.041-83.878,76.405-84.189v-84.218Z"/>
      <path class="cls-3" d="M1699.337,14.223v151.826c45.473-.212,82.267-34.113,82.267-75.913s-36.794-75.701-82.267-75.913Z"/>
      <rect class="cls-5" x="2095.953" y="69.628" width="156.169" height="115.394"/>
      <circle class="cls-2" cx="2246.473" cy="166.05" r="59.653"/>
      <line class="cls-8" x1="2030.721" y1="144.34" x2="2156.933" y2="144.34"/>
      <line class="cls-7" x1="2095.953" y1="185.022" x2="2252.122" y2="69.628"/>
    </g>
  </g>
</svg>