<?xml version="1.0" encoding="UTF-8"?>
<svg id="Layer_2" data-name="Layer 2" xmlns="http://www.w3.org/2000/svg" viewBox="0 0 156.374 100.22">
  <defs>
    <style>
      .cls-1 {
        fill: #a75852;
      }

      .cls-1, .cls-2, .cls-3, .cls-4, .cls-5, .cls-6, .cls-7 {
        stroke-width: 0px;
      }

      .cls-2 {
        fill: #9d4857;
      }

      .cls-3 {
        fill: #fb7691;
      }

      .cls-4 {
        fill: #fe9eb4;
      }

      .cls-5 {
        fill: #821b1b;
      }

      .cls-6 {
        fill: #d6717d;
      }

      .cls-7 {
        fill: #a2afdf;
      }
    </style>
  </defs>
  <g id="Props">
    <g>
      <g>
        <rect class="cls-7" x="33.254" width="79.627" height="61.322"/>
        <rect class="cls-2" x="30.432" y="10.86" width="87.582" height="3.431" transform="translate(-1.052 13.486) rotate(-10.31)"/>
        <rect class="cls-1" x="30.432" y="13.66" width="87.582" height="7.248" transform="translate(4.325 -13.082) rotate(10.373)"/>
        <circle class="cls-5" cx="62.593" cy="14.746" r="8.593"/>
        <path class="cls-3" d="M60.135,11.712c1.065.006,1.99.653,2.385,1.67.011.028.024.067.046.077.044.019.076.001.096-.054.124-.345.318-.647.572-.912.991-1.036,2.471-.926,3.291-.328.631.46.98,1.075,1.026,1.858.042.718-.2,1.343-.608,1.918-.197.278-.44.508-.699.728-.967.823-1.931,1.65-2.896,2.475-.231.197-.463.393-.691.593-.048.042-.076.044-.125.001-.703-.605-1.409-1.207-2.113-1.81-.596-.51-1.199-1.012-1.784-1.534-.184-.164-.331-.374-.472-.579-.326-.474-.513-.997-.531-1.579-.039-1.275.895-2.358,2.162-2.497.113-.012.227-.018.341-.027Z"/>
      </g>
      <g>
        <g>
          <rect class="cls-5" x="33.254" y="61.322" width="79.627" height="21.508"/>
          <path class="cls-3" d="M109.772,81.677s-7.17-42.267,16.787-56.858c23.957-14.591,11.717,7.075,11.717,7.075l-12.095,3.647,11.172.29s-4.005,9.644-5.115,11.944c-1.11,2.3-7.453.483-7.453.483l5.444,2.361-20.456,31.056Z"/>
          <path class="cls-4" d="M106.495,81.779s24.992-41.399,42.346-43.356c17.354-1.957-.712,11.837-.712,11.837l-6.354-2.36,3.5,5.475s-7.565,6.814-9.42,8.367c-1.855,1.553-2.773-3.043-2.773-3.043l.269,4.666-26.856,18.415Z"/>
          <path class="cls-6" d="M71.085,75.508c-33.394,0-61.651-6.984-71.085-16.604v41.316h142.17v-41.316c-9.434,9.62-37.691,16.604-71.085,16.604Z"/>
          <rect class="cls-5" y="89.314" width="142.17" height="5.949"/>
        </g>
        <circle class="cls-3" cx="19.891" cy="87.006" r="12.6"/>
        <circle class="cls-5" cx="19.891" cy="87.006" r="11.382"/>
        <path class="cls-7" d="M15.474,81.247c1.914.011,3.576,1.173,4.285,3.001.02.05.042.121.082.138.08.034.137.002.172-.097.223-.62.572-1.163,1.028-1.64,1.78-1.862,4.441-1.664,5.914-.589,1.133.827,1.761,1.931,1.844,3.339.076,1.289-.36,2.413-1.092,3.447-.354.5-.791.913-1.255,1.308-1.738,1.478-3.469,2.965-5.203,4.448-.414.355-.832.706-1.242,1.065-.087.076-.136.079-.225.002-1.264-1.087-2.531-2.169-3.797-3.252-1.071-.916-2.154-1.818-3.205-2.757-.33-.295-.595-.673-.849-1.041-.586-.851-.922-1.791-.953-2.837-.07-2.291,1.608-4.238,3.884-4.487.204-.022.409-.032.613-.048Z"/>
      </g>
    </g>
  </g>
</svg>