<?xml version="1.0" encoding="UTF-8"?>
<svg id="Layer_2" data-name="Layer 2" xmlns="http://www.w3.org/2000/svg" xmlns:xlink="http://www.w3.org/1999/xlink" viewBox="0 0 276.905 354.031">
  <defs>
    <style>
      .cls-1 {
        fill: #cd6c78;
      }

      .cls-1, .cls-2, .cls-3, .cls-4, .cls-5, .cls-6, .cls-7, .cls-8, .cls-9, .cls-10 {
        stroke-width: 0px;
      }

      .cls-11 {
        clip-path: url(#clippath);
      }

      .cls-2 {
        fill: none;
      }

      .cls-12 {
        clip-path: url(#clippath-1);
      }

      .cls-13 {
        clip-path: url(#clippath-2);
      }

      .cls-3 {
        fill: #f2728c;
      }

      .cls-4 {
        fill: #f599ae;
      }

      .cls-5 {
        fill: #791919;
      }

      .cls-6 {
        fill: #9ca8d6;
      }

      .cls-7 {
        fill: #944452;
      }

      .cls-8 {
        fill: #9e534e;
      }

      .cls-9 {
        fill: #97423d;
      }

      .cls-10 {
        fill: #e5acb0;
      }
    </style>
    <clipPath id="clippath">
      <rect class="cls-2" x="6.188" y="41.882" width="30.203" height="310.271"/>
    </clipPath>
    <clipPath id="clippath-1">
      <rect class="cls-2" x="240.514" y="41.882" width="30.203" height="310.271"/>
    </clipPath>
    <clipPath id="clippath-2">
      <path class="cls-2" d="M98.487,1.658c-13.908,0-25.182,37.699-25.182,84.203v268.169h50.365V85.862c0-46.504-11.274-84.203-25.182-84.203Z"/>
    </clipPath>
  </defs>
  <g id="Ref">
    <g>
      <rect class="cls-5" x="6.188" y="41.882" width="30.203" height="310.271"/>
      <path class="cls-6" d="M10.743,4.494c4.57.027,8.538,2.799,10.231,7.165.047.12.101.288.196.329.19.08.327.004.412-.231.532-1.481,1.365-2.776,2.453-3.914,4.25-4.446,10.603-3.973,14.12-1.407,2.705,1.974,4.204,4.611,4.402,7.972.181,3.079-.859,5.76-2.608,8.23-.846,1.194-1.889,2.18-2.997,3.122-4.15,3.529-8.284,7.079-12.424,10.62-.989.846-1.986,1.684-2.966,2.542-.207.181-.324.189-.538.006-3.017-2.595-6.043-5.179-9.067-7.765-2.557-2.187-5.144-4.34-7.652-6.582-.788-.704-1.421-1.607-2.026-2.486C.882,20.061.081,17.817.005,15.32-.162,9.849,3.844,5.203,9.28,4.608c.486-.053.975-.077,1.463-.114Z"/>
      <rect class="cls-1" x="10.306" y="34.713" width="21.508" height="8.695" rx="4.347" ry="4.347"/>
      <g class="cls-11">
        <g>
          <rect class="cls-8" x=".849" y="57.06" width="38.288" height="5.186"/>
          <rect class="cls-1" x="1.514" y="78.843" width="37.764" height="6.407" transform="translate(-28.095 12.792) rotate(-21.039)"/>
          <rect class="cls-1" x="0" y="97.865" width="39.137" height="45"/>
          <rect class="cls-8" x="-.677" y="158.882" width="43.932" height="6.407" transform="translate(64.783 4.5) rotate(22.912)"/>
          <rect class="cls-1" x="0" y="204.493" width="39.747" height="4.881"/>
          <rect class="cls-1" x=".62" y="223.484" width="37.525" height="23.797"/>
          <rect class="cls-1" x="-2.906" y="269.025" width="46.592" height="5.797" transform="translate(-133.23 46.626) rotate(-30)"/>
          <rect class="cls-1" x="4.51" y="300.899" width="34.475" height="7.551"/>
          <rect class="cls-8" x="1.65" y="333.112" width="39.278" height="2.715" transform="translate(147.6 24.036) rotate(25.783)"/>
          <rect class="cls-1" x="-2.093" y="173.45" width="43.932" height="6.407" transform="translate(70.343 6.2) rotate(22.912)"/>
        </g>
      </g>
      <rect class="cls-5" x="240.514" y="41.882" width="30.203" height="310.271"/>
      <path class="cls-6" d="M245.069,4.494c4.57.027,8.538,2.799,10.231,7.165.047.12.101.288.196.329.19.08.327.004.412-.231.532-1.481,1.365-2.776,2.453-3.914,4.25-4.446,10.603-3.973,14.12-1.407,2.705,1.974,4.204,4.611,4.402,7.972.181,3.079-.859,5.76-2.608,8.23-.846,1.194-1.889,2.18-2.997,3.122-4.15,3.529-8.284,7.079-12.424,10.62-.989.846-1.986,1.684-2.966,2.542-.207.181-.324.189-.538.006-3.017-2.595-6.043-5.179-9.067-7.765-2.557-2.187-5.144-4.34-7.652-6.582-.788-.704-1.421-1.607-2.026-2.486-1.399-2.032-2.2-4.277-2.276-6.773-.167-5.471,3.839-10.118,9.275-10.713.486-.053.975-.077,1.463-.114Z"/>
      <rect class="cls-1" x="244.633" y="34.713" width="21.508" height="8.695" rx="4.347" ry="4.347"/>
      <g class="cls-12">
        <g>
          <rect class="cls-8" x="235.175" y="57.06" width="38.288" height="5.186"/>
          <rect class="cls-1" x="235.84" y="78.843" width="37.764" height="6.407" transform="translate(-12.474 96.915) rotate(-21.039)"/>
          <rect class="cls-1" x="234.327" y="97.865" width="39.137" height="45"/>
          <rect class="cls-8" x="233.65" y="158.882" width="43.932" height="6.407" transform="translate(83.27 -86.728) rotate(22.912)"/>
          <rect class="cls-1" x="234.327" y="204.493" width="39.747" height="4.881"/>
          <rect class="cls-1" x="234.946" y="223.484" width="37.525" height="23.797"/>
          <rect class="cls-1" x="231.42" y="269.025" width="46.592" height="5.797" transform="translate(-101.836 163.789) rotate(-30)"/>
          <rect class="cls-1" x="238.836" y="300.899" width="34.475" height="7.551"/>
          <rect class="cls-8" x="235.977" y="333.112" width="39.278" height="2.715" transform="translate(170.927 -77.886) rotate(25.783)"/>
          <rect class="cls-1" x="232.234" y="173.45" width="43.932" height="6.407" transform="translate(88.83 -85.027) rotate(22.912)"/>
        </g>
      </g>
      <g>
        <g>
          <path class="cls-5" d="M98.487,0c-13.908,0-25.182,37.699-25.182,84.203v268.169h50.365V84.203C123.669,37.699,112.395,0,98.487,0Z"/>
          <g class="cls-13">
            <g>
              <rect class="cls-6" x="85.275" y="-2.918" width="2.409" height="88.78"/>
              <rect class="cls-6" x="109.365" y="-2.918" width="2.409" height="88.78"/>
              <path class="cls-3" d="M95.135,27.264c1.469.035,2.744,3.646,3.288,9.332.015.157.032.376.063.428.061.105.105.006.132-.301.171-1.93.439-3.615.789-5.099,1.366-5.791,3.408-5.175,4.538-1.832.869,2.571,1.351,6.005,1.415,10.384.058,4.01-.276,7.503-.838,10.719-.272,1.555-.607,2.84-.963,4.066-1.334,4.597-2.662,9.22-3.993,13.833-.318,1.102-.638,2.194-.953,3.311-.066.236-.104.247-.173.007-.97-3.379-1.942-6.745-2.914-10.114-.822-2.849-1.653-5.653-2.459-8.573-.253-.917-.457-2.093-.651-3.238-.45-2.647-.707-5.57-.732-8.822-.054-7.126,1.234-13.178,2.981-13.953.156-.069.314-.1.47-.149Z"/>
              <polygon class="cls-6" points="87.157 92.25 86.089 94.508 75.956 15.796 77.024 13.538 87.157 92.25"/>
              <polygon class="cls-6" points="110.226 90.314 111.294 92.572 121.427 13.86 120.359 11.602 110.226 90.314"/>
              <rect class="cls-4" x="109.742" y="131.014" width="6.776" height="28.881"/>
              <rect class="cls-1" x="94.42" y="161.523" width="7.016" height="25.22"/>
              <rect class="cls-7" x="79.704" y="222.641" width="6.55" height="26.542"/>
              <polygon class="cls-4" points="93.23 278.906 87.257 278.906 87.458 252.743 93.581 253.251 93.23 278.906"/>
              <rect class="cls-3" x="109.664" y="221.421" width="6.48" height="27.864"/>
              <rect class="cls-4" x="117.464" y="253.15" width="7.227" height="26.542"/>
              <rect class="cls-7" x="71.394" y="135.184" width="6.876" height="23.186"/>
              <rect class="cls-4" x="80.256" y="132.133" width="5.521" height="24.407"/>
              <rect class="cls-3" x="95.281" y="279.692" width="6.412" height="25.983"/>
              <rect class="cls-9" x="72.175" y="193.976" width="8.106" height="29.06"/>
              <rect class="cls-3" x="87.282" y="109.807" width="6.412" height="17.546"/>
              <rect class="cls-7" x="110.068" y="284.268" width="6.247" height="17.939"/>
              <rect class="cls-8" x="79.905" y="285.082" width="6.349" height="17.126"/>
              <rect class="cls-3" x="117.471" y="109.807" width="7.227" height="20.129"/>
              <g>
                <rect class="cls-1" x="78.25" y="109.807" width="2.409" height="197.546"/>
                <rect class="cls-1" x="85.733" y="106.377" width="2.409" height="197.546"/>
                <rect class="cls-1" x="93.215" y="108.092" width="2.409" height="197.546"/>
                <rect class="cls-1" x="100.698" y="104.661" width="2.409" height="197.546"/>
                <rect class="cls-1" x="108.181" y="109.807" width="2.409" height="197.546"/>
                <rect class="cls-1" x="115.663" y="106.377" width="2.409" height="197.546"/>
                <rect class="cls-10" x="93.101" y="100.441" width="9.763" height="58.991" transform="translate(227.919 31.954) rotate(90)"/>
                <rect class="cls-10" x="94.125" y="130.764" width="9.763" height="58.991" transform="translate(259.266 61.253) rotate(90)"/>
                <rect class="cls-10" x="93.613" y="161.087" width="9.763" height="58.991" transform="translate(289.077 92.088) rotate(90)"/>
                <rect class="cls-10" x="94.637" y="191.41" width="9.763" height="58.991" transform="translate(320.425 121.387) rotate(90)"/>
                <rect class="cls-10" x="93.101" y="221.733" width="9.763" height="58.991" transform="translate(349.211 153.247) rotate(90)"/>
                <rect class="cls-10" x="94.125" y="252.056" width="9.763" height="58.991" transform="translate(380.559 182.545) rotate(90)"/>
              </g>
              <path class="cls-6" d="M89.655,154.197c3.827.092,7.15,9.5,8.568,24.313.039.409.085.979.165,1.116.159.273.274.015.345-.784.445-5.027,1.143-9.419,2.054-13.284,3.559-15.088,8.879-13.483,11.824-4.773,2.265,6.699,3.521,15.647,3.687,27.054.152,10.448-.72,19.549-2.184,27.928-.708,4.051-1.582,7.398-2.509,10.594-3.475,11.977-6.937,24.022-10.404,36.04-.829,2.872-1.663,5.716-2.483,8.628-.173.615-.271.643-.45.019-2.526-8.805-5.06-17.574-7.592-26.352-2.141-7.422-4.307-14.729-6.408-22.336-.66-2.39-1.19-5.452-1.697-8.436-1.172-6.897-1.842-14.513-1.906-22.984-.139-18.567,3.215-34.335,7.767-36.354.407-.181.817-.261,1.225-.388Z"/>
              <rect class="cls-6" x="73.305" y="85.862" width="50.365" height="26.784"/>
              <rect class="cls-6" x="73.305" y="298.842" width="50.365" height="26.784"/>
            </g>
          </g>
        </g>
        <g>
          <path class="cls-5" d="M74.258,352.373h-37.867V72.61c.231-19.375,4.834-38.877,11.898-56.797,1.217-3.088,3.785-6.036,6.407-7.983l9.289-5.294,34.502-.878h0c-4.12,0-11.508,5.624-15.764,20.619l-2.418,7.725c-2.682,11.434-6.048,35.178-6.048,55.266v267.105Z"/>
          <polygon class="cls-6" points="78.734 37.721 41.736 35.589 43.065 30.904 79.545 32.737 78.734 37.721"/>
          <rect class="cls-6" x="36.391" y="85.932" width="36.914" height="26.847"/>
          <rect class="cls-10" x="36.391" y="123.966" width="36.914" height="10.638"/>
          <rect class="cls-10" x="36.391" y="154.647" width="36.914" height="10.638"/>
          <rect class="cls-10" x="36.391" y="185.328" width="36.914" height="10.638"/>
          <rect class="cls-10" x="36.391" y="216.01" width="36.914" height="10.638"/>
          <rect class="cls-10" x="36.391" y="246.691" width="36.914" height="10.638"/>
          <rect class="cls-10" x="36.391" y="277.372" width="36.914" height="10.638"/>
          <rect class="cls-6" x="36.391" y="298.006" width="36.914" height="26.847"/>
          <rect class="cls-9" x="36.391" y="195.966" width="36.914" height="20.044"/>
          <rect class="cls-7" x="36.391" y="134.604" width="36.914" height="20.044"/>
          <polygon class="cls-6" points="85.284 14.72 49.524 13.225 52.585 9.349 87.78 10.285 85.284 14.72"/>
        </g>
      </g>
    </g>
  </g>
</svg>