<?xml version="1.0" encoding="UTF-8"?>
<svg xmlns="http://www.w3.org/2000/svg" viewBox="0 0 260.542 94.576">
  <defs>
    <style>
      .cls-1 {
        fill: #fbd0c7;
      }

      .cls-1, .cls-2 {
        font-size: 38px;
      }

      .cls-3, .cls-4 {
        letter-spacing: 0em;
      }

      .cls-3, .cls-5, .cls-6, .cls-7 {
        font-family: Cheri, Cheri;
      }

      .cls-8 {
        letter-spacing: -.059em;
      }

      .cls-8, .cls-4, .cls-9 {
        font-family: FearNightRegular, 'Fear Night';
      }

      .cls-5 {
        letter-spacing: .015em;
      }

      .cls-10 {
        fill: #f798b3;
      }

      .cls-10, .cls-11, .cls-12, .cls-13 {
        stroke-width: 0px;
      }

      .cls-6 {
        letter-spacing: -.059em;
      }

      .cls-2 {
        fill: #4f1a46;
      }

      .cls-11 {
        fill: #9da8d5;
      }

      .cls-12 {
        fill: #781b1b;
      }

      .cls-14 {
        font-family: Beachday, Beachday;
      }

      .cls-7 {
        letter-spacing: -.024em;
      }

      .cls-13 {
        fill: #aa5d64;
      }
    </style>
  </defs>
  <g id="Layer_1" data-name="Layer 1">
    <g>
      <path class="cls-12" d="m256.437,59.802c.398.776.713,1.489.335,2.265-.44.944-1.342.797-2.118.629-1.237-.273-1.74.231-1.908,1.405-.608,4.194-.231,8.429-.65,12.623-.084.902.755,1.195,1.258,1.677,1.656,1.636,1.74,3.082.398,4.99-1.489,2.118-3.04,4.026-5.787,4.676-2.181.503-3.942.126-5.179-1.74-.755-1.153-1.74-1.342-2.978-1.384-12.35-.377-24.68.063-37.03-.042-7.884-.084-15.768.063-23.652-.084-1.384-.021-2.286.147-2.055,1.866.147,1.258-.671,1.719-1.803,1.531-2.747-.44-5.326-1.447-7.57-3.04-1.615-1.132-1.342-2.957.461-3.837,2.076-1.006,4.236-1.887,6.416-2.621.294-.084.587-.147.86-.147.902,0,1.636.545,1.594,1.761-.021,1.174.608,1.111,1.363,1.132,8.681.105,17.362.503,26.064.021,2.621-.168,5.263.021,7.905.126,4.089.189,8.199.315,12.266-.105,3.04-.294,5.976-1.237,7.276-4.55,1.006.042,2.013.063,3.019.105-.021,1.195-.398,2.265-1.069,3.25-.734,1.048-.252,1.489.818,1.489,2.013,0,4.047-.126,6.081-.147.671-.021,1.09-.294,1.405-.839,1.3-2.16,3.145-3.586,5.62-4.089.902-.189,1.3-.629,1.195-1.489-.105-.713-.482-1.237-1.3-1.174-1.803.168-3.397-.566-4.99-1.195.021-1.258.063-2.516.105-3.774,1.153.587,2.286,1.3,3.502,1.698,1.447.482,2.621.168,2.684-1.719.042-1.321.126-2.642.189-3.942.063-1.363.503-2.705-1.803-2.831-1.51-.084-1.426-1.845-.986-2.852,1.006-2.181,2.432-4.173,4.131-5.85.881-.86,1.992-.86,2.474.44.776,2.16,2.39,3.795,3.46,5.766Z"/>
      <path class="cls-12" d="m250.986,26.651c1.006-.042,1.09.797,1.027,1.573-.105,1.363-1.195,1.719-2.181,1.615-1.384-.168-1.992.105-2.558,1.531-.482,1.153-.356,1.573.461,2.327.923.839,1.761,1.971.587,3.187-1.153,1.195-2.034.294-2.894-.629-.503-.566-1.153-.965-1.845-.21-.65.692-2.034,1.069-1.405,2.369.923,1.887,1.111,3.418-1.006,4.634-.398.21-.461,1.006-.671,1.531-.105-.105-.294-.21-.294-.294.44-4.571-.692-9.079-.524-13.629,2.348-1.363,2.307-3.69,2.327-5.913.042-3.774-1.069-7.213-4.592-9.016-3.502-1.782-7.15-2.013-10.274,1.111-2.411.21-4.802-.021-7.213-.126,1.027-1.237,1.237-2.348-.315-3.355-.818-.524-.86-1.321-.419-2.118.524-.944,1.384-.671,2.139-.44.524.189.986.65,1.51.839,1.531.503,2.076-.021,1.761-1.615-.189-.923-.692-2.013.419-2.558,1.027-.524,1.824.063,2.558.986,1.258,1.552,3.774,1.048,4.592-.776.335-.734.294-1.845,1.573-1.761,1.153.063,1.342.944,1.531,1.824.273,1.153,1.216,1.258,2.139,1.552,1.069.356,1.174-.482,1.573-1.027.461-.629.86-1.51,1.887-1.111.923.377,1.174,1.153,1.153,2.139-.042,2.998,1.006,3.648,3.648,2.265.398-.189.713-.524,1.111-.671.944-.335,1.908-.419,2.39.755.419,1.006.147,1.887-.86,2.39-.797.419-2.286.65-1.719,1.656.671,1.174.734,3.397,3.124,2.957.797-.126,1.677.021,1.824,1.09.126.902-.252,1.656-1.111,1.908-1.51.461-1.594,1.51-1.405,2.747.189,1.132.21,2.369,1.95,2.265Z"/>
      <path class="cls-10" d="m248.973,75.235c.105.86-.294,1.3-1.195,1.489-2.474.503-4.319,1.929-5.62,4.089-.315.545-.734.818-1.405.839-2.034.021-4.068.147-6.081.147-1.069,0-1.552-.44-.818-1.489.671-.986,1.048-2.055,1.069-3.25.315-.734.923-.839,1.636-.776.65.042,1.3.042,1.971.063q3.795.168,4.152-3.481c1.594.629,3.187,1.363,4.99,1.195.818-.063,1.195.461,1.3,1.174Z"/>
      <path class="cls-11" d="m242.787,69.091c-.042,1.258-.084,2.516-.105,3.774q-.356,3.648-4.152,3.481c-.671-.021-1.321-.021-1.971-.063-.713-.063-1.321.042-1.636.776-1.006-.042-2.013-.063-3.019-.105-4.152-.105-8.387-.692-12.476-.231-6.144.713-12.266-.461-18.305.231-8.031.902-16.02-.461-24.009.315-.587.063-1.174.105-1.761.105-4.969.252-9.96-.482-14.867-.042-7.863.734-15.684-.231-23.526.335-2.621.189-5.242.273-7.863.147-8.974-.482-17.928.252-26.902.294-6.332.021-12.728-.461-19.018.189-6.941.713-13.839-.356-20.738.419-.734.063-1.447.231-2.16.335-2.307-.021-4.613-.063-6.92-.084-1.971-.21-3.921-.294-5.871-.126-2.16-.44-4.215.21-6.291.524l-3.271-.126-6.794-.063c-3.732-.776-7.402.503-11.113.315h-.021c-.902-2.097-.692-4.299-.608-6.5.063-1.95.084-3.9.105-5.85,0-.692.273-1.51-.755-1.782,1.153-2.852,0-5.745.252-8.618.587-6.186-.419-12.35-.503-18.515-.042-3.04-.21-6.165-.315-9.268-.084-2.537-.986-4.99-.671-7.549.042-1.174.084-2.327.105-3.481.084-1.195.168-2.369.252-3.544.273-.147.545-.273.818-.419,3.166-.566,6.374.147,9.562-.252,1.174.084,2.348.147,3.544.231,12.644.398,25.309,1.321,37.932,1.069,5.871-.126,11.742.042,17.592.252,8.178.273,16.334.608,24.491.294,12.057-.44,24.051.923,36.045.356,13.902-.65,27.699.755,41.559.524,2.852-.042,5.745-.377,8.639-.398l6.92.189c1.866.042,3.732.084,5.599.147,2.202.084,4.403.147,6.605.231.923.042,1.845.063,2.768.105,2.411.105,4.802.335,7.213.126,3.124.126,6.249.273,9.373.356,1.845.042,2.621.923,2.579,2.705-.063,1.677-.189,3.355-.105,5.032.084,1.908-.566,3.942.692,5.724-.168,4.55.965,9.058.524,13.629,0,.084.189.189.294.294.084.273.294.545.252.818-.398,4.047.461,8.052.818,12.036.315,3.879.294,7.842,1.216,11.658Z"/>
      <path class="cls-10" d="m237.419,15.727c3.523,1.803,4.634,5.242,4.592,9.016-.021,2.223.021,4.55-2.327,5.913-1.258-1.782-.608-3.816-.692-5.724-.084-1.677.042-3.355.105-5.032.042-1.782-.734-2.663-2.579-2.705-3.124-.084-6.249-.231-9.373-.356,3.124-3.124,6.773-2.894,10.274-1.111Z"/>
      <path class="cls-12" d="m216.325,11.428c1.719,1.845,2.16,3.187.839,5.179-2.202-.084-4.403-.147-6.605-.231-.084-1.3-.839-2.013-2.055-2.118-1.573-.105-2.831.482-3.544,1.971l-6.92-.189c1.048-1.426,2.118-2.726,2.034-4.781-.042-1.489,1.3-2.202,2.81-2.076,1.279.105,2.139-.063,2.726-1.468.65-1.531,2.453-1.615,3.921-.461.461.356.902,1.153,1.279,1.111,2.705-.377,3.858,1.321,5.515,3.061Z"/>
      <path class="cls-10" d="m210.559,16.377c-1.866-.063-3.732-.105-5.599-.147.713-1.489,1.971-2.076,3.544-1.971,1.216.105,1.971.818,2.055,2.118Z"/>
      <path class="cls-12" d="m160.969,78.946c1.363.063,1.447.965,1.426,1.971-.042.734-.063,1.468-.084,2.202h-.042c-.042.944-.021,1.887-.126,2.831-.084.881-.818,1.153-1.573,1.216-.776.063-1.153-.398-1.363-1.132-.503-1.803-.335-3.628-.168-5.452.105-1.027.755-1.677,1.929-1.636Z"/>
      <path class="cls-12" d="m157.467,86.033c.252.944-.503,1.656-1.51,1.761-.902.084-1.615-.315-1.636-1.321-.042-1.468-.881-2.789-.629-4.278-.021-.734.021-1.426.545-2.055.461-.566.965-.923,1.677-.713.671.189,1.153.629,1.153,1.405-.042,1.74-.063,3.481.398,5.2Z"/>
      <path class="cls-12" d="m151.365,84.985c.294,1.237-.335,2.055-1.468,2.181-1.111.105-1.636-.755-1.74-1.803-.105-1.006-.168-2.013-.252-3.019-.021-1.426.482-2.495,2.118-2.348,1.761.168,1.803,1.216,1.258,2.642-.273.734-.105,1.552.084,2.348Z"/>
      <path class="cls-12" d="m146.312,9.038c0,.335.021.566-.021.776-.189.965.503,2.495-1.216,2.537-1.573.042-1.887-1.342-2.16-2.579-.042-.147-.021-.294-.021-.44.147-1.531-.294-3.711,2.055-3.648,2.369.084,1.048,2.244,1.363,3.355Z"/>
      <path class="cls-12" d="m138.532,81.903c.042.65-.042,1.3-.063,2.348-.252.902.671,3.208-2.013,2.6-2.39-.545-.713-2.705-1.195-4.068-.377-1.027.168-2.097,1.426-2.265.923-.126,1.761.252,1.845,1.384Z"/>
      <path class="cls-12" d="m131.298,80.645c1.531-.168,2.076.713,2.013,2.139-.021.273-.021.566-.063,1.51,0-.063.042.545-.126,1.09-.273.818-.881,1.342-1.803,1.237-.944-.084-1.111-.797-1.153-1.573-.021-.65-.021-1.3-.126-1.95-.189-1.153-.335-2.286,1.258-2.453Z"/>
      <path class="cls-12" d="m133.206,9.709h-.105c-.021.503-.042,1.027-.042,1.531,0,.797-.587,1.237-1.174,1.426-.692.231-1.321-.356-1.489-.965-.419-1.531-.755-3.082-.986-4.655-.105-.755.461-1.111,1.258-1.195,1.09-.084,1.929.315,2.244,1.279.273.797.21,1.719.294,2.579Z"/>
      <path class="cls-12" d="m127.818,8.765c.042.503-.021,1.006-.063,1.866-.147.692.461,2.265-1.468,2.16-1.677-.105-1.866-1.363-1.866-2.684,0-.377-.042-.734-.084-1.09-.105-1.006-.524-2.202,1.027-2.39,1.489-.168,2.348.608,2.453,2.139Z"/>
      <path class="cls-12" d="m118.088,81.756c1.384.105,1.426,1.237,1.384,2.265-.042,1.069-.063,2.286-1.677,2.223-1.594-.084-1.237-1.279-1.279-2.055.021-1.3-.063-2.537,1.573-2.432Z"/>
      <path class="cls-12" d="m113.853,9.834h-.063c0,.063,0,.147-.021.21-.294,1.132.713,3.019-1.237,3.229-2.055.231-1.719-1.782-1.971-2.998-.21-1.048-.105-2.16-.105-3.25.021-.797-.021-1.656,1.174-1.719,1.09-.042,1.887.44,2.076,1.489.189.986.105,2.013.147,3.04Z"/>
      <path class="cls-12" d="m107.94,7.213c.608.986.503,2.097.482,3.187-.021.566-.021,1.153-.084,1.719-.084.839-.755,1.132-1.384,1.09-1.656-.084-1.95-1.321-1.866-2.642.105-1.594-.776-3.648,1.636-4.361.713-.21.944.503,1.216,1.006Z"/>
      <path class="cls-12" d="m103.075,10.862c.021,1.027.105,2.16-1.342,2.265s-1.782-1.006-2.013-2.076c-.168-.86-.231-1.719-.273-2.6-.042-.734.042-1.531.944-1.698.881-.189,1.698-.084,2.16.923.482,1.048.524,2.097.524,3.187Z"/>
      <path class="cls-12" d="m95.233,7.675c1.51.965,1.195,3.061-.566,3.858-2.034.902-4.152,1.698-6.27,2.411-.335.105-.713.189-1.048.189-.671,0-1.216-.294-1.237-1.3-.042-1.489-.86-1.615-1.971-1.636-10.463-.105-20.905-.734-31.369-.273-4.823.231-9.645-.21-14.489-.21-2.621,0-4.928.944-6.5,3.229-1.195-.084-2.369-.147-3.544-.231-.105-1.342,1.363-1.95,1.594-3.145-2.474-.084-4.886-.168-7.276-.231-.755-.021-1.615.084-1.824.86-.356,1.216-1.447,1.803-2.055,2.768-.273.147-.545.273-.818.419-1.048.21-1.929.923-3.082.902-.776-.021-.986.713-1.006,1.426-.063.902.503,1.069,1.237,1.09.86.021,1.74.084,2.6.126-.021,1.153-.063,2.307-.105,3.481-.797-.063-1.594-.168-2.411-.189-.608-.021-1.237.189-1.195.965.126,2.223-.671,4.299-.923,6.479-.084.776-.126,1.342,1.111,1.216,2.202-.21,2.957.776,2.097,2.726-.944,2.139-2.327,4.047-3.963,5.703-.965.965-2.223.65-2.726-.566-.776-1.908-2.055-3.502-3.04-5.284-.545-.944-1.027-1.929-.294-2.831.692-.923,1.594-.65,2.495,0,.671.482,1.069-.084,1.195-.734.189-1.069.44-2.16.503-3.25.168-3.25.21-6.521.377-9.792.063-1.027-.377-1.594-1.09-2.202-1.824-1.531-1.824-3.145-.503-5.116,1.908-2.81,4.236-4.739,7.8-4.739,1.027,0,1.95.231,2.474,1.111,1.258,2.181,2.998,2.537,5.473,2.453,8.912-.294,17.823-.063,26.756.231,10.82.377,21.639-.356,32.438.252,1.132.063,1.845-.126,1.698-1.51-.231-2.013,1.111-2.202,2.537-1.803,2.453.692,4.781,1.761,6.92,3.145Z"/>
      <path class="cls-12" d="m53.359,78.967c2.307.021,4.613.063,6.92.084-1.195,1.845-2.453,3.586-2.453,6.018.021,1.111-1.615,1.594-2.621,1.447-1.405-.189-1.971.398-2.558,1.447-.86,1.531-2.16,1.845-3.397.566-.986-1.027-2.076-1.195-3.355-1.174-.923.021-1.971.252-2.516-.86-.629-1.321-1.216-2.432-2.684-3.313-1.384-.86-.461-2.621.503-3.816,2.076-.315,4.131-.965,6.291-.524.231,1.342.629,2.516,2.327,2.558,1.761.021,2.957-.755,3.544-2.432Z"/>
      <path class="cls-10" d="m47.488,78.841c1.95-.168,3.9-.084,5.871.126-.587,1.677-1.782,2.453-3.544,2.432-1.698-.042-2.097-1.216-2.327-2.558Z"/>
      <path class="cls-12" d="m38.534,82.427c.965.608.986,1.761.356,2.516-.629.734-1.552.503-2.348-.084-.461-.356-1.069-.461-1.573-.755-.65-.398-1.132-.021-1.573.315-.545.44-.168.965.063,1.384.503.944,1.027,1.992-.126,2.705-1.027.608-1.887-.042-2.642-.881-1.51-1.615-3.963-1.006-4.634,1.132-.231.692-.356,1.426-1.384,1.363-.881-.084-1.216-.524-1.531-1.3-.818-2.16-2.495-2.453-3.942-.713-.587.692-1.153,1.111-2.055.797-.881-.315-.839-1.069-.839-1.824.021-2.978-1.153-3.69-3.774-2.307-.252.147-.503.315-.734.482-.902.629-1.824.713-2.516-.231-.776-1.048-.356-2.076.692-2.537,2.181-.965,1.573-2.097.671-3.628-.587-1.006-1.111-1.216-2.076-.923-.923.294-1.615-.084-1.887-.986-.294-.944,0-1.824.986-2.118,2.118-.587.986-2.286,1.237-3.481.273-1.237-.86-1.027-1.552-1.279-.923-.335-1.866-.839-1.636-1.992.189-.944,1.069-1.468,2.034-1.279,1.447.273,2.202-.294,2.831-1.573.65-1.3.084-2.076-.713-2.894-.86-.923-1.132-2.097-.294-2.957.986-1.027,1.992-.273,2.726.671.524.671,1.153,1.069,1.782.252.566-.734,2.286-.839,1.447-2.432-.273-.524-.503-1.069-.671-1.636-.273-1.027-.063-1.992,1.048-2.286,1.09-.273,2.097,0,2.265,1.384.084.587.147,1.174.818,1.405-.252,2.873.902,5.766-.252,8.618-1.573.587-2.411,1.908-2.663,3.397-.629,3.502.105,6.773,2.181,9.729.461.671.923,1.09,1.74,1.027.105.273.126.587.294.734,2.369,1.845,7.507,1.531,9.708-.524.294-.273.755-.377,1.132-.545l6.794.063c-.671,1.237-.797,2.286.608,3.187Z"/>
      <path class="cls-10" d="m31.133,79.177c-.377.168-.839.273-1.132.545-2.202,2.055-7.339,2.369-9.708.524-.168-.147-.189-.461-.294-.734h.021v-.021c3.711.189,7.381-1.09,11.113-.315Z"/>
      <path class="cls-10" d="m29.832,10.568c-.231,1.195-1.698,1.803-1.594,3.145-3.187.398-6.395-.315-9.562.252.608-.965,1.698-1.552,2.055-2.768.21-.776,1.069-.881,1.824-.86,2.39.063,4.802.147,7.276.231Z"/>
      <rect class="cls-13" x="19.998" y="79.491" width=".021" height=".021"/>
      <path class="cls-10" d="m19.998,79.491v.021c-.818.063-1.279-.356-1.74-1.027-2.076-2.957-2.81-6.228-2.181-9.729.252-1.489,1.09-2.81,2.663-3.397,1.027.273.755,1.09.755,1.782-.021,1.95-.042,3.9-.105,5.85-.084,2.202-.294,4.403.608,6.5Z"/>
      <path class="cls-10" d="m17.86,14.385c-.084,1.174-.168,2.348-.252,3.544-.86-.042-1.74-.105-2.6-.126-.734-.021-1.3-.189-1.237-1.09.021-.713.231-1.447,1.006-1.426,1.153.021,2.034-.692,3.082-.902Z"/>
    </g>
  </g>
  <g id="menu_ui" data-name="menu ui">
    <text class="cls-1" transform="translate(50.976 61.357)"><tspan class="cls-5" x="0" y="0">c</tspan><tspan class="cls-3" x="21.584" y="0">O</tspan><tspan class="cls-8" x="44.041" y="0">n</tspan><tspan class="cls-6" x="62.319" y="0">T</tspan><tspan class="cls-7" x="80.217" y="0">i</tspan><tspan class="cls-9" x="92.339" y="0">n</tspan><tspan class="cls-14" x="112.858" y="0">U</tspan><tspan class="cls-4" x="133.677" y="0">e</tspan></text>
    <text class="cls-2" transform="translate(51.819 60.4)"><tspan class="cls-5" x="0" y="0">c</tspan><tspan class="cls-3" x="21.584" y="0">O</tspan><tspan class="cls-8" x="44.041" y="0">n</tspan><tspan class="cls-6" x="62.319" y="0">T</tspan><tspan class="cls-7" x="80.217" y="0">i</tspan><tspan class="cls-9" x="92.339" y="0">n</tspan><tspan class="cls-14" x="112.858" y="0">U</tspan><tspan class="cls-4" x="133.677" y="0">e</tspan></text>
  </g>
</svg>