<?xml version="1.0" encoding="UTF-8"?>
<svg xmlns="http://www.w3.org/2000/svg" viewBox="0 0 251.657 91.831">
  <defs>
    <style>
      .cls-1 {
        font-family: Cheri, Cheri;
      }

      .cls-2 {
        fill: #cc6c79;
      }

      .cls-2, .cls-3 {
        font-size: 30px;
      }

      .cls-4 {
        fill: #fbd0c7;
      }

      .cls-4, .cls-5, .cls-6, .cls-7, .cls-8 {
        stroke-width: 0px;
      }

      .cls-5 {
        fill: #9da8d5;
      }

      .cls-3, .cls-7 {
        fill: #4f1a46;
      }

      .cls-6 {
        fill: #781b1b;
      }

      .cls-9 {
        font-family: Beachday, Beachday;
      }

      .cls-8 {
        fill: #9f5450;
      }
    </style>
  </defs>
  <g id="Layer_1" data-name="Layer 1">
    <g>
      <path class="cls-5" d="m245.804,65.119c1.342,5.452-4.194,11.029-7.737,12.707-1.237.608-2.705.315-3.942-.482,0-.65.063-1.321-.377-1.908,2.034.063,3.04-.944,2.663-2.957-.419-2.265-.105-4.487-.105-6.731,3.208.566,6.291-.839,9.499-.629Z"/>
      <path class="cls-6" d="m245.573,63.63c.294.273.315.608.21.965-.315-.252-.252-.608-.21-.965Z"/>
      <path class="cls-7" d="m245.783,64.595c.021.189.021.356.021.524-3.208-.21-6.291,1.195-9.499.629.189-2.034-.608-4.047-.273-6.081,1.615-.503,3.229-1.006,4.823-1.531,2.181,1.321,3.984,2.936,4.718,5.494-.042.356-.105.713.21.965Z"/>
      <path class="cls-5" d="m244.169,24.964c.923,5.074-1.279,9.121-4.215,12.917-.545.713-1.594,1.132-1.363,2.307-1.237-1.615-2.453-.797-3.648.063-.692-3.795-.713-7.653-.482-11.512,1.782-.65,3.565-.294,5.368-.105.482.063.923.273,1.468.21,2.684-.377,2.894-.629,2.873-3.879Z"/>
      <path class="cls-7" d="m244.169,24.964c.021,3.25-.189,3.502-2.873,3.879-.545.063-.986-.147-1.468-.21-1.803-.189-3.586-.545-5.368.105-.734-2.894-.063-5.808-.189-8.723.294-.608.965-.986.923-1.761,5.221-.042,7.632,1.782,8.974,6.71Z"/>
      <path class="cls-6" d="m243.686,45.765c.776,3.795.629,7.402-2.118,10.463-.545.587-.839,1.132-.713,1.908-1.594.524-3.208,1.027-4.823,1.531-.315-4.152-.944-8.282-.839-12.476,2.516.126,4.928-.965,7.465-.692.315.021.692-.482,1.027-.734Z"/>
      <path class="cls-7" d="m243.686,45.765c-.335.252-.713.755-1.027.734-2.537-.273-4.949.818-7.465.692-.084-2.307-.168-4.613-.252-6.941,1.195-.86,2.411-1.677,3.648-.063,2.16,1.447,3.942,3.229,5.095,5.578Z"/>
      <path class="cls-8" d="m236.41,72.479c.377,2.013-.629,3.019-2.663,2.957-4.131-.189-8.262-.231-12.35.315-1.552-.881-3.124-.063-4.697-.126-1.51-.042-3.04-.105-4.55-.126l.084-3.061c1.468,0,1.677-1.216,1.74-2.369.105-2.369,1.279-4.319,2.369-6.291,2.957-5.368,7.297-9.415,12.099-13.084,2.118-1.615,1.971-3.061-.294-4.571-1.321-.881-2.726-1.719-3.921-2.768-6.018-5.263-9.729-11.91-11.575-19.626-.231-.944-.65-1.552-1.531-1.573l.021-2.936,7.297.063c4.068.692,8.157.021,12.225-.042,1.363-.021,2.516-.042,3.607.776.126,2.915-.545,5.829.189,8.723-.231,3.858-.21,7.716.482,11.512.084,2.327.168,4.634.252,6.941-.105,4.194.524,8.324.839,12.476-.335,2.034.461,4.047.273,6.081,0,2.244-.315,4.466.105,6.731Z"/>
      <path class="cls-6" d="m235.194,18.254c.042.776-.629,1.153-.923,1.761-1.09-.818-2.244-.797-3.607-.776-4.068.063-8.157.734-12.225.042.105-2.915.524-5.829-.168-8.723,5.326-.545,13.965,1.95,16.921,7.695Z"/>
      <path class="cls-7" d="m233.747,75.435c.44.587.377,1.258.377,1.908-2.684,1.3-4.571,3.69-7.171,5.116-1.761.986-3.46,2.034-5.473,2.453-.105-.335-.377-.713-.294-.986.902-2.705-.021-5.452.21-8.178,4.089-.545,8.22-.503,12.35-.315Z"/>
      <path class="cls-7" d="m228.149,46.121c2.265,1.51,2.411,2.957.294,4.571-4.802,3.669-9.142,7.716-12.099,13.084-1.09,1.971-2.265,3.921-2.369,6.291-.063,1.153-.273,2.369-1.74,2.369h-.189c-1.761-.147-1.405-1.531-1.405-2.852.147-1.51.587-3.145,1.363-4.655,2.936-5.682,6.563-10.862,11.847-14.678,2.097-1.51,1.95-1.405-.105-3.082-4.152-3.376-7.905-7.15-10.212-12.12-1.195-2.579-2.369-5.179-3.565-7.758-.503-1.09-.566-2.244-.461-3.439.063-1.027.587-1.719,1.615-1.698.881.021,1.3.629,1.531,1.573,1.845,7.716,5.557,14.363,11.575,19.626,1.195,1.048,2.6,1.887,3.921,2.768Z"/>
      <path class="cls-4" d="m223.745,47.17c2.055,1.677,2.202,1.573.105,3.082-5.284,3.816-8.912,8.995-11.847,14.678-.776,1.51-1.216,3.145-1.363,4.655,0,1.321-.356,2.705,1.405,2.852h.189l-.084,3.061c-2.181-.084-4.34-.147-6.521-.189-.713,0-1.447-.231-2.118.21-3.544.147-7.087-.398-10.61.189-5.305-.063-10.589-.65-15.894-.063-4.068.419-8.136.021-12.204.105-4.613-.377-9.205-.273-13.797.356-3.46-.231-6.92-.105-10.358.084-1.782-.44-3.607-.231-5.326-.084-2.537.231-5.053.021-7.57.147-3.795.063-7.591.126-11.365.21-5.137.315-10.274-.398-15.391.126-.713.084-1.447-.21-2.118.21-2.369-.021-4.739-.021-7.108-.042-1.216-1.132-2.495,0-3.753-.084-3.607-.294-7.192-.21-10.778.356-.461-.021-.944-.042-1.426-.063-.503-.419-1.027-.461-1.573,0-2.936.252-5.913-.44-8.849.294-.21-.335-.524-.566-.902-.482-4.655,1.258-9.394.084-14.07.503-2.894.356-5.787-.042-8.681.042l-.084-3.984c.21,0,.44-.042.692-.126,1.51-.545.839-1.929.524-3.019-2.558-8.828-7.591-15.726-15.684-20.234-1.216-.671-1.656-1.09-.126-1.971,1.719-.965,3.355-2.076,4.907-3.292,5.557-4.299,9.289-10.065,12.539-16.167.734-1.384,1.573-2.81,1.573-4.487.105-1.824-.21-2.432-1.321-2.537l.063-2.998c.986.042,1.992.063,2.998.063.692-.021,1.489.273,2.013-.503,5.515.273,11.008.902,16.523.168.482.587,1.174.482,1.803.545,5.221.419,10.442-.105,15.663.063.44.021.86-.063,1.132-.482,3.795.503,7.612.377,11.407.461,5.703.294,11.407.545,17.11.273,2.39-.126,4.802.105,7.192.105.923,0,1.887.335,2.768-.21,1.782,0,3.565.021,5.347.021,5.892.273,11.784.629,17.676.126,4.969-.44,9.918.273,14.888-.042h.021c.105.294-.021.839.503.776,5.053-.692,10.107-.797,15.181-.147.965.126,1.887.063,2.684-.545,3.523.042,7.045.084,10.568.105,2.894.126,5.745.461,8.639.021,1.552-.252,3.124.776,4.676,0,.419,0,.839-.021,1.258-.042.692.147,1.405.356,2.076-.063,1.405,0,2.789.021,4.194.021l-.021,2.936c-1.027-.021-1.552.671-1.615,1.698-.105,1.195-.042,2.348.461,3.439,1.195,2.579,2.369,5.179,3.565,7.758,2.307,4.969,6.06,8.744,10.212,12.12Zm-61.395-22.583c.86-.44,1.258-1.321.86-2.244-.44-1.027-1.384-.944-2.265-.629-1.09.398-2.223.797-3.229,1.363-4.089,2.369-8.01,1.845-11.679-.818-1.719-1.258-3.124-1.111-4.739.084-2.516,1.845-5.389,2.915-8.408,1.74-3.313-1.279-6.06-1.803-9.52.335-2.894,1.761-6.563.776-9.478-1.405-1.342-1.006-2.789-1.51-4.278-.629-3.984,2.348-7.884,2.286-11.784-.168-.902-.566-1.95-.986-2.663.21-.755,1.258.105,1.992,1.09,2.663,4.466,3.103,9.121,3.145,13.881.881.86-.398,1.405-.44,2.181.063,4.844,3.103,9.876,3.292,14.992.713.86-.44,1.489-.524,2.411-.126,4.278,1.845,8.534,1.782,12.539-.776,1.09-.692,1.95-.65,2.998,0,2.16,1.363,4.592,1.845,6.228,2.076,4.613.231,7.716-1.677,10.862-3.334Zm.608,48.227c.461-.986-.063-1.824-.986-2.39-4.445-2.747-9.058-3.061-13.755-.713-1.132.566-1.95.482-2.998-.105-4.697-2.705-9.478-2.663-14.217-.189-1.09.587-1.908.692-3.04.231-4.319-1.761-8.492-1.321-12.329,1.258-1.132.776-1.866.671-2.894.021-2.097-1.321-4.508-1.636-6.102-1.908-4.676-.315-7.695,1.992-10.987,3.523-.881.419-1.048,1.426-.629,2.307.44.923,1.279.839,2.097.503.86-.377,1.782-.692,2.579-1.195,4.445-2.789,8.723-2.39,12.896.545,1.153.797,2.327.923,3.439-.021,3.816-3.25,7.905-3.69,12.371-1.363,1.174.608,2.684.797,3.711-.21,3.25-3.166,7.087-2.998,10.484-1.09,2.978,1.656,5.389,2.244,8.157.084.315-.252.818-.252,1.237-.377,3.166-1.048,5.871.147,8.534,1.636.923.524,1.929.545,2.432-.545Z"/>
      <path class="cls-6" d="m221.397,75.75c-.231,2.726.692,5.473-.21,8.178-.084.273.189.65.294.986-3.9,1.132-7.255-.105-10.526-2.202-2.223-1.426-4.068-3.355-6.27-4.823-.168-.902.44-2.181-1.174-2.369.671-.44,1.405-.21,2.118-.21,2.181.042,4.34.105,6.521.189,1.51.021,3.04.084,4.55.126,1.573.063,3.145-.755,4.697.126Z"/>
      <path class="cls-7" d="m218.273,10.559c.692,2.894.273,5.808.168,8.723l-7.297-.063c-1.405,0-2.789-.021-4.194-.021-.692-.126-1.384-.273-2.076.063-.419.021-.839.042-1.258.042l.063-2.265c3.795-4.592,8.576-6.92,14.594-6.479Z"/>
      <path class="cls-6" d="m204.874,19.261c.692-.335,1.384-.189,2.076-.063-.671.419-1.384.21-2.076.063Z"/>
      <path class="cls-7" d="m203.511,75.519c1.615.189,1.006,1.468,1.174,2.369-2.118,3.061-4.529,5.829-7.528,8.031-1.195.881-2.474,1.468-3.921,1.719-.986-.294-.755-1.09-.734-1.782.126-3.376.252-6.773.398-10.149,3.523-.587,7.066-.042,10.61-.189Z"/>
      <path class="cls-5" d="m203.679,17.038l-.063,2.265c-1.552.776-3.124-.252-4.676,0-2.894.44-5.745.105-8.639-.021.084-3.166.168-6.332.273-9.478,6.165-.839,10.421,1.761,13.105,7.234Z"/>
      <path class="cls-5" d="m192.901,75.708c-.147,3.376-.273,6.773-.398,10.149-.021.692-.252,1.489.734,1.782-3.837.776-6.731-1.384-9.771-3.103-2.81-1.594-5.389-3.502-6.563-6.731.063-.713.755-1.405.105-2.16,5.305-.587,10.589,0,15.894.063Z"/>
      <path class="cls-7" d="m190.573,9.804c-.105,3.145-.189,6.311-.273,9.478-3.523-.021-7.045-.063-10.568-.105-1.573-1.3-.335-3.019-.671-4.508,3.208-3.145,6.982-4.886,11.512-4.865Z"/>
      <path class="cls-6" d="m179.062,14.669c.335,1.489-.902,3.208.671,4.508-.797.608-1.719.671-2.684.545-5.074-.65-10.128-.545-15.181.147-.524.063-.398-.482-.503-.776.147-1.426.315-2.873.461-4.319.168-1.426.315-2.873.503-4.299.189-1.531-.126-2.537-1.971-2.223,3.439-.923,6.605.168,9.792,1.216,3.334,1.09,6.395,2.705,8.912,5.2Z"/>
      <path class="cls-7" d="m177.007,75.645c.65.755-.042,1.447-.105,2.16-1.447.105-1.803,1.468-2.621,2.286-2.747,2.684-5.724,4.865-9.813,4.697.105-3.019.231-6.018.335-9.037,4.068-.084,8.136.315,12.204-.105Z"/>
      <path class="cls-6" d="m164.803,75.75c-.105,3.019-.231,6.018-.335,9.037-4.969.294-8.723-2.097-12.078-5.389-.503-.482-.902-1.069-1.363-1.615.398-.566-.021-1.111-.021-1.677,4.592-.629,9.184-.734,13.797-.356Z"/>
      <path class="cls-7" d="m163.21,22.343c.398.923,0,1.803-.86,2.244-3.145,1.656-6.249,3.565-10.862,3.334-1.636-.231-4.068-.713-6.228-2.076-1.048-.65-1.908-.692-2.998,0-4.005,2.558-8.262,2.621-12.539.776-.923-.398-1.552-.315-2.411.126-5.116,2.579-10.149,2.39-14.992-.713-.776-.503-1.321-.461-2.181-.063-4.76,2.265-9.415,2.223-13.881-.881-.986-.671-1.845-1.405-1.09-2.663.713-1.195,1.761-.776,2.663-.21,3.9,2.453,7.8,2.516,11.784.168,1.489-.881,2.936-.377,4.278.629,2.915,2.181,6.584,3.166,9.478,1.405,3.46-2.139,6.207-1.615,9.52-.335,3.019,1.174,5.892.105,8.408-1.74,1.615-1.195,3.019-1.342,4.739-.084,3.669,2.663,7.591,3.187,11.679.818,1.006-.566,2.139-.965,3.229-1.363.881-.315,1.824-.398,2.265.629Z"/>
      <path class="cls-7" d="m161.973,70.424c.923.566,1.447,1.405.986,2.39-.503,1.09-1.51,1.069-2.432.545-2.663-1.489-5.368-2.684-8.534-1.636-.419.126-.923.126-1.237.377-2.768,2.16-5.179,1.573-8.157-.084-3.397-1.908-7.234-2.076-10.484,1.09-1.027,1.006-2.537.818-3.711.21-4.466-2.327-8.555-1.887-12.371,1.363-1.111.944-2.286.818-3.439.021-4.173-2.936-8.45-3.334-12.896-.545-.797.503-1.719.818-2.579,1.195-.818.335-1.656.419-2.097-.503-.419-.881-.252-1.887.629-2.307,3.292-1.531,6.311-3.837,10.987-3.523,1.594.273,4.005.587,6.102,1.908,1.027.65,1.761.755,2.894-.021,3.837-2.579,8.01-3.019,12.329-1.258,1.132.461,1.95.356,3.04-.231,4.739-2.474,9.52-2.516,14.217.189,1.048.587,1.866.671,2.998.105,4.697-2.348,9.31-2.034,13.755.713Z"/>
      <path class="cls-7" d="m160.358,8.253c1.845-.315,2.16.692,1.971,2.223-.189,1.426-.335,2.873-.503,4.299-.147,1.447-.315,2.894-.482,4.319-4.969.315-9.918-.398-14.888.042.042-.734.084-1.489.126-2.244,2.957-3.25,6.207-6.165,10.4-7.758,1.069-.419,2.244-.608,3.376-.881Z"/>
      <path class="cls-7" d="m151.006,76.106c0,.566.419,1.111.021,1.677-2.873,3.061-5.955,5.829-10.295,6.605-.818-2.726-.063-5.452-.084-8.199,3.439-.189,6.899-.315,10.358-.084Z"/>
      <path class="cls-5" d="m146.582,16.892c-.042.755-.084,1.51-.126,2.244-5.892.503-11.784.147-17.676-.126.273-3.46.566-6.941.839-10.421,3.628-.042,7.318-.21,10.673,1.321,3.061,1.363,4.928,4.005,6.291,6.982Z"/>
      <path class="cls-5" d="m140.648,76.19c.021,2.747-.734,5.473.084,8.199-5.997.629-9.939-2.495-13.021-7.15,0-.315.021-.65.042-.986,2.516-.126,5.032.084,7.57-.147,1.719-.147,3.544-.356,5.326.084Z"/>
      <path class="cls-7" d="m129.618,8.588c-.273,3.481-.566,6.961-.839,10.421-1.782,0-3.565-.021-5.347-.021-1.824-.063-3.648-.147-5.473-.21q-3.397-.084-3.502-3.586c4.026-4.592,9.205-6.5,15.16-6.605Z"/>
      <path class="cls-7" d="m127.752,76.253c-.021.335-.042.671-.042.986-2.244,2.684-4.634,5.221-7.695,7.003-1.342.776-2.663,1.531-4.319,1.153.692-2.936.44-5.955.692-8.933,3.774-.084,7.57-.147,11.365-.21Z"/>
      <path class="cls-6" d="m117.96,18.779c1.824.063,3.648.147,5.473.21-.881.545-1.845.21-2.768.21-2.39,0-4.802-.231-7.192-.105-5.703.273-11.407.021-17.11-.273.671-.44.902-1.027.902-1.845.042-2.537.168-5.074.252-7.612,5.158,1.216,10.191,2.768,14.825,5.431.65.356,1.279,1.048,2.118.398q.105,3.502,3.502,3.586Z"/>
      <path class="cls-6" d="m116.387,76.463c-.252,2.978,0,5.997-.692,8.933-6.144.755-10.778-1.761-14.3-6.647.587-1.153.44-1.866-1.069-1.824-.482.021-.965-.084-1.447-.126.671-.419,1.405-.126,2.118-.21,5.116-.524,10.254.189,15.391-.126Z"/>
      <path class="cls-7" d="m100.326,76.924c1.51-.042,1.656.671,1.069,1.824-2.223,2.265-4.005,5.074-7.549,5.515-1.824.231-2.642-.398-2.348-2.39.231-1.677.189-3.397.273-5.116,2.369.021,4.739.021,7.108.042.482.042.965.147,1.447.126Z"/>
      <path class="cls-7" d="m97.516,9.364c-.084,2.537-.21,5.074-.252,7.612,0,.818-.231,1.405-.902,1.845-3.795-.084-7.612.042-11.407-.461v-2.495c2.663-5.431,6.458-7.402,12.56-6.5Z"/>
      <path class="cls-5" d="m91.498,81.872c-.294,1.992.524,2.621,2.348,2.39-3.732.671-7.045-.776-10.337-2.118-1.531-.629-3.082-1.174-4.403-2.202-.524-.398-1.237-.335-1.887-.147.021-.923.021-1.845.021-2.768,3.586-.566,7.171-.65,10.778-.356,1.258.084,2.537-1.048,3.753.084-.084,1.719-.042,3.439-.273,5.116Z"/>
      <path class="cls-5" d="m84.956,15.864v2.495c-.273.419-.692.503-1.132.482-5.221-.168-10.442.356-15.663-.063-.629-.063-1.321.042-1.803-.545.126-3.628.252-7.234.377-10.841,4.319-.356,7.968,1.3,11.491,3.648,2.307,1.51,4.215,3.607,6.731,4.823Z"/>
      <path class="cls-7" d="m77.24,77.029c0,.923,0,1.845-.021,2.768-2.81,5.116-7.234,7.36-12.937,7.297.294-3.271,1.195-6.5,1.111-9.834,2.936-.734,5.913-.042,8.849-.294h1.573c.482.021.965.042,1.426.063Z"/>
      <path class="cls-6" d="m75.814,76.966h-1.573c.545-.461,1.069-.419,1.573,0Z"/>
      <path class="cls-7" d="m66.734,7.393c-.126,3.607-.252,7.213-.377,10.841-5.515.734-11.008.105-16.523-.168-.021-.839-.063-1.656-.084-2.495,4.131-5.892,10.044-8.073,16.984-8.178Z"/>
      <path class="cls-6" d="m65.392,77.259c.084,3.334-.818,6.563-1.111,9.834-5.64.294-10.023-1.615-12.392-7.045-.063-.147-.398-.147-.587-.231-.168-.881.294-1.992-.881-2.537,4.676-.419,9.415.755,14.07-.503.377-.084.692.147.902.482Z"/>
      <path class="cls-7" d="m50.421,77.28c1.174.545.713,1.656.881,2.537-3.732,3.25-7.674,6.102-12.707,7.003-1.027-.231-.776-1.048-.755-1.74.105-2.495.21-5.011.315-7.507,1.132-.084,2.286-.189,3.418-.252h.168c2.894-.084,5.787.315,8.681-.042Z"/>
      <path class="cls-5" d="m49.75,15.571c.021.839.063,1.656.084,2.495-.524.776-1.321.482-2.013.503-1.006,0-2.013-.021-2.998-.063-1.027-.021-2.055-.063-3.04,0-4.11.189-8.178-.063-12.246-.168.356-.587.608-1.195.461-1.866-.629-3.166-.042-6.332-.084-9.499,5.2.021,10.505-.461,14.95,3.187,1.321,1.111,2.621,2.202,3.355,3.837.273.65.587,1.468,1.531,1.573Z"/>
      <path class="cls-7" d="m44.76,21.505c1.111.105,1.426.713,1.321,2.537,0,1.677-.839,3.103-1.573,4.487-3.25,6.102-6.982,11.868-12.539,16.167-1.552,1.216-3.187,2.327-4.907,3.292-1.531.881-1.09,1.3.126,1.971,8.094,4.508,13.126,11.407,15.684,20.234.315,1.09.986,2.474-.524,3.019-.252.084-.482.126-.692.126-1.069,0-1.573-1.09-1.887-2.139-1.677-5.368-4.068-10.316-8.366-14.154-2.453-2.202-5.095-4.152-8.115-5.515-.839-.398-1.824-.587-1.845-1.866-.042-1.363.356-2.348,1.615-3.061,2.411-1.384,4.781-2.831,6.982-4.55,5.599-4.319,8.974-10.295,12.246-16.334.335-.629.482-1.384.587-2.118.168-1.153.315-2.244,1.887-2.097Z"/>
      <path class="cls-8" d="m44.822,18.506l-.063,2.998c-1.573-.147-1.719.944-1.887,2.097-.105.734-.252,1.489-.587,2.118-3.271,6.039-6.647,12.015-12.246,16.334-2.202,1.719-4.571,3.166-6.982,4.55-1.258.713-1.656,1.698-1.615,3.061.021,1.279,1.006,1.468,1.845,1.866,3.019,1.363,5.661,3.313,8.115,5.515,4.299,3.837,6.689,8.786,8.366,14.154.315,1.048.818,2.139,1.887,2.139l.084,3.984h-.168c-1.132.063-2.286.168-3.418.252-5.326,0-10.652-.86-15.957.105-3.858-.315-3.9-.335-3.984-3.397.189-.294.21-.587-.021-.86,0-.335-.021-.65-.021-.965.294-3.984-.273-7.926-.65-11.868-.21-2.223-.398-4.424-.587-6.647.273-4.382-.356-8.702-.881-13.021-.545-2.348-.461-4.76-.692-7.129-.608-5.011-.965-10.044-.86-15.076.44-1.216,1.51-.797,2.244-.65,4.257.839,8.534.021,12.791.273,4.068.105,8.136.356,12.246.168.986-.063,2.013-.021,3.04,0Z"/>
      <path class="cls-5" d="m38.155,77.574c-.105,2.495-.21,5.011-.315,7.507-.021.692-.273,1.51.755,1.74-4.445.923-8.534.21-12.308-2.495-1.489-1.069-2.579-2.789-4.613-2.998.168-1.216.335-2.432.524-3.648,5.305-.965,10.631-.105,15.957-.105Z"/>
      <path class="cls-7" d="m29.998,16.472c.147.671-.105,1.279-.461,1.866-4.257-.252-8.534.566-12.791-.273-.734-.147-1.803-.566-2.244.65-.902.147-1.489-.482-2.118-.944,1.258-5.85,9.037-12.455,17.53-10.799.042,3.166-.545,6.332.084,9.499Z"/>
      <path class="cls-7" d="m22.198,77.679c-.189,1.216-.356,2.432-.524,3.648-5.515.252-8.765-2.118-10.233-7.444,1.866-2.244,4.403-1.384,6.731-1.426,0,.315.021.629.021.965,0,.273.021.566.021.86.084,3.061.126,3.082,3.984,3.397Z"/>
      <path class="cls-6" d="m18.193,73.422c.231.273.21.566.021.86,0-.294-.021-.587-.021-.86Z"/>
      <path class="cls-6" d="m17.522,60.59c.377,3.942.944,7.884.65,11.868-2.327.042-4.865-.818-6.731,1.426-.839-3.103-.273-6.186.335-9.205.231-1.111.524-2.223.692-3.355,1.677-.252,3.355-.503,5.053-.734Z"/>
      <path class="cls-7" d="m16.935,53.943c.189,2.223.377,4.424.587,6.647-1.698.231-3.376.482-5.053.734-1.677-2.076-3.837-3.837-4.299-6.71,2.978.482,5.808-.755,8.765-.671Z"/>
      <path class="cls-5" d="m16.054,40.921c.524,4.319,1.153,8.639.881,13.021-2.957-.084-5.787,1.153-8.765.671-1.447-3.376-.231-6.207,1.782-8.912.335-.44,1.216-.671.902-1.531.503.021,1.027.021,1.531.063q3.544.335,3.669-3.313Z"/>
      <path class="cls-7" d="m15.362,33.792c.231,2.369.147,4.781.692,7.129q-.126,3.648-3.669,3.313c-.503-.042-1.027-.042-1.531-.063-2.474-2.453-3.46-5.62-4.236-8.87,2.998.021,5.85-.839,8.744-1.51Z"/>
      <path class="cls-6" d="m14.502,18.716c-.105,5.032.252,10.065.86,15.076-2.894.671-5.745,1.531-8.744,1.51-1.048-6.249-.545-12.099,4.655-16.565.377-.315.671-.734,1.111-.965.629.461,1.216,1.09,2.118.944Z"/>
    </g>
  </g>
  <g id="menu_ui" data-name="menu ui">
    <text class="cls-3" transform="translate(98.872 58.207)"><tspan class="cls-9" x="0" y="0">e</tspan><tspan class="cls-1" x="11.968" y="0">Xi</tspan><tspan class="cls-9" x="43.377" y="0">T</tspan></text>
    <text class="cls-2" transform="translate(100.658 56.808)"><tspan class="cls-9" x="0" y="0">e</tspan><tspan class="cls-1" x="11.968" y="0">Xi</tspan><tspan class="cls-9" x="43.377" y="0">T</tspan></text>
  </g>
</svg>