<?xml version="1.0" encoding="UTF-8"?>
<svg xmlns="http://www.w3.org/2000/svg" viewBox="0 0 252 98.542">
  <defs>
    <style>
      .cls-1 {
        font-size: 45px;
      }

      .cls-1, .cls-2 {
        font-family: FearNightRegular, 'Fear Night';
      }

      .cls-3, .cls-4 {
        fill: #781b1b;
      }

      .cls-5 {
        fill: #e6adb1;
      }

      .cls-6 {
        fill: #c395b9;
      }

      .cls-6, .cls-7, .cls-8, .cls-9, .cls-4 {
        stroke-width: 0px;
      }

      .cls-7 {
        fill: #fbd0c7;
      }

      .cls-8 {
        fill: #9da8d5;
      }

      .cls-10 {
        font-size: 34px;
      }

      .cls-10, .cls-11 {
        font-family: Cheri, Cheri;
      }

      .cls-9 {
        fill: #964347;
      }

      .cls-11, .cls-2 {
        font-size: 35px;
      }

      .cls-2 {
        letter-spacing: 0em;
      }
    </style>
  </defs>
  <g id="Layer_1" data-name="Layer 1">
    <g>
      <path class="cls-9" d="m243.914,73.915c2.097,2.957,1.615,6.018-1.258,8.157-.65.482-.881,1.09-1.069,1.824-.839,3.376-2.537,4.487-6.06,3.9-.881-.147-1.426,0-2.097.65-2.558,2.411-4.844,2.432-7.486-.126-1.153-1.09-2.097-1.027-3.502-.755-2.223.461-4.215,1.216-6.186,2.327-1.95,1.111-3.795.482-5.347-1.111-1.719-1.782-3.334-1.845-5.305-.294-2.495,1.929-5.892,2.013-8.324,0-1.405-1.174-2.894-.965-3.984-.126-3.124,2.39-6.039,2.6-9.499.608-1.489-.839-3.523-1.573-5.305.671-2.39,2.998-4.969,2.894-7.612.084-.797-.839-1.468-1.069-2.621-.902-1.719.273-3.544.335-5.158-.545-.839-.461-1.342-.063-1.929.377-2.013,1.51-4.257,1.677-6.437.629-1.489-.734-3.082-.692-4.529-1.174-2.873-.944-5.473-2.181-7.989.692-.335.377-1.489.335-2.118.084-2.495-.965-5.452,0-7.716-1.887-.692-.566-1.384.021-2.055.294-1.048.44-2.076.692-3.082.629l.168-3.04c.168,0,.356-.021.524-.063,1.342-.315,2.873-.692,2.453-2.789-.189-.986,0-2.034.021-3.061,3.418.084,6.815.189,10.212.273.776,2.076.105,4.278.252,6.416.776-.021,1.174-.44,1.656-.713,2.265-1.279,1.615-3.69,2.307-5.578,4.299-.273,8.576-.398,12.854.335-.231,1.552.189,3.187-.776,4.676-.377.566-1.237,1.447-.524,2.097.818.734,1.887.335,2.81-.252,1.069-.692,1.656-1.615,1.74-2.852.084-1.174.189-2.327.273-3.502,4.068-.587,8.157.147,12.246-.168.084,2.034.294,4.089-.881,5.934-.294.482-.294,1.006.126,1.405.734.713,1.279,2.097,2.621,1.321,1.09-.65,2.223-1.51,1.531-3.166-.44-1.027-.44-2.118-.398-3.229.063-1.489.566-2.265,2.265-2.097,1.95.168,3.921.084,5.892.126,1.132.042,2.265.084,3.418.126.21,1.719-.335,3.25-.986,4.781-.273.608-1.153,1.3-.356,1.908,1.09.818,2.327.566,3.481-.105.776-.461.902-1.111.482-1.845-.881-1.489-.566-3.082-.503-4.676,3.607.126,7.234.231,10.841.356.105,1.594-.398,2.998-1.279,4.299-.273.419-.734.923-.147,1.321,1.09.797,2.307.776,3.502.189,1.111-.524,1.006-1.363.65-2.39-.377-1.111-1.027-2.348.315-3.355,3.166.105,6.353.21,9.52.315.608,1.489-.377,2.663-.818,3.921-.482,1.489.377,2.055,1.51,2.307,1.174.252,3.292-1.573,3.439-2.768.398-3.187.398-3.166,3.586-3.061.587.021,1.195-.021,1.803-.021h.168c1.384.042,2.81.084,4.215.126.147.881.021,1.719-.335,2.558-.482,1.153.44,1.761,1.132,2.327.65.566,1.489,1.006,2.39.398.86-.587,1.321-1.363.986-2.432-.273-.923-.273-1.845.105-2.768,1.426-.44,3.313,1.09,4.319-1.048.419-2.327.755-2.516,2.957-1.615.398.168.755.419,1.174.566.629.21,1.216-.084,1.552-.524.524-.692.44-1.531.126-2.286-.231-.545-.734-.545-1.3-.503q-3.921.335-4.299-3.502l.063-4.907c1.069-.063,2.16-.147,3.229-.189,1.636-.042,1.761-1.258,1.803-2.432.063-1.447-.797-1.321-1.866-1.069-.965.231-2.013.189-3.019.273-1.363-3.607-.524-7.339-.545-11.008,1.048-.671,2.181-.734,3.376-.65.608.042,1.384.377,1.74-.44.335-.734.126-1.447-.252-2.097-.44-.755-1.111-.629-1.719-.356-1.006.419-2.034.126-3.04.252-.461-.503-.713-1.111-.692-1.782.063-2.726.126-5.452.189-8.178.986-.147,1.992-.44,2.998-.419,1.698.042,2.202-1.048,2.118-2.327-.084-1.216-.252-2.684-2.286-2.202-.86.189-1.845-.147-2.768-.252-.21-2.915-.65-5.808-.398-8.723,1.027-.629,2.139-.797,3.334-.734.734.042,1.636.545,2.097-.524.377-.881.042-1.698-.398-2.474-1.279-2.139-3.124-1.552-4.949-1.006q.063-4.949-4.928-5.095c-.356,0-.734-.042-1.09-.084,0-.944,0-1.866.398-2.768.294-.65.294-1.216-.608-1.489-.545-.168-1.006-.252-1.447-.252l.252-2.81c2.915.252,5.934.231,8.576,1.74,2.055,1.174,3.208,3.229,3.145,5.682-.042,1.258.482,1.908,1.489,2.6,2.789,1.866,3.292,4.655,2.286,7.884-.776,2.474-1.698,5.095-.252,7.758.398.734.713,1.74.545,2.516-.545,2.81-.797,5.536-.398,8.408.168,1.153-.252,2.369.503,3.523.377.566.629,1.405.524,2.076-.755,5.221.629,10.421-.042,15.621-.21,1.636-1.363,3.04-1.069,4.823.147.86.189,1.636.755,2.432Z"/>
      <path class="cls-6" d="m241.859,76.599c.315.755.398,1.594-.126,2.286-.335.44-.923.734-1.552.524-.419-.147-.776-.398-1.174-.566-2.202-.902-2.537-.713-2.957,1.615.063-2.621.147-5.242.21-7.863q.377,3.837,4.299,3.502c.566-.042,1.069-.042,1.3.503Z"/>
      <path class="cls-8" d="m239.489,63.997c1.069-.252,1.929-.377,1.866,1.069-.042,1.174-.168,2.39-1.803,2.432-1.069.042-2.16.126-3.229.189-.021-1.132-.189-2.286.147-3.418,1.006-.084,2.055-.042,3.019-.273Z"/>
      <path class="cls-4" d="m240.789,50.074c.377.65.587,1.363.252,2.097-.356.818-1.132.482-1.74.44-1.195-.084-2.327-.021-3.376.65-.147-1.111-.126-2.202.105-3.292,1.006-.126,2.034.168,3.04-.252.608-.273,1.279-.398,1.719.356Z"/>
      <path class="cls-6" d="m240.223,22.354c.44.776.776,1.594.398,2.474-.461,1.069-1.363.566-2.097.524-1.195-.063-2.307.105-3.334.734.021-1.594.042-3.166.084-4.739,1.824-.545,3.669-1.132,4.949,1.006Z"/>
      <path class="cls-8" d="m240.643,37.262c.084,1.279-.419,2.369-2.118,2.327-1.006-.021-2.013.273-2.998.419.021-1.74.042-3.46.063-5.2.923.105,1.908.44,2.768.252,2.034-.482,2.202.986,2.286,2.202Z"/>
      <path class="cls-7" d="m236.323,67.687l-.063,4.907c-.063,2.621-.147,5.242-.21,7.863-1.006,2.139-2.894.608-4.319,1.048-1.426-.042-2.852-.063-4.278-.084-1.405-.042-2.831-.084-4.215-.126h-.168c-3.166-.126-6.353-.252-9.52-.377-3.166-.105-6.353-.21-9.52-.315-1.027-.021-2.034-.042-3.04-.063-3.607-.126-7.234-.231-10.841-.356-.692-.21-1.405-.21-2.118-.063-1.153-.042-2.286-.084-3.418-.126-3.711-.105-7.444-.189-11.155-.294-4.089.315-8.178-.419-12.246.168-1.132-.965-2.307-1.006-3.523-.168-4.278-.734-8.555-.608-12.854-.335l-4.215-.126c-3.397-.084-6.794-.189-10.212-.273-1.321-.042-2.642-.105-3.984-.168l-11.763-.377c-.944-.021-1.887-.063-2.852-.084-3.565-.105-7.15-.189-10.736-.273-3.711-.126-7.402-.294-11.092-.377-1.111-.021-2.286-.461-3.376.252,0,0,.021.063.021.084v.021c-1.174-.21-2.348-1.363-3.523,0-3.732-.545-7.465-.65-11.197-.294-1.468-.021-2.915-.042-4.361-.063-3.669-.273-7.318-.419-10.987-.335-1.866-.063-3.711-.147-5.578-.21-3.397-.105-6.794-.231-10.191-.335-1.636-.042-3.271-.084-4.928-.126-3.439-.126-6.899-.252-10.358-.356-1.782-.042-3.565-.063-5.347-.105-.944-.063-1.887-.126-2.831-.147-1.195-.042-1.971-.503-2.055-1.782v-.252c.084-2.202.482-4.403.021-6.626-.923-1.74-.168-3.628-.398-5.431-.105-.734.252-1.615-.713-2.055.021-1.3.063-2.6.084-3.9.398-3.124-.273-6.186-.545-9.268-.021-1.615.315-3.229-.126-4.823-.273-2.055-.482-4.11-.419-6.207.021-1.048.084-2.16-.713-3.04.021-.923.042-1.824.042-2.726.294-3.271-.944-6.437-.566-9.729.042-1.111.084-2.244.126-3.376.335-1.195,1.3-.797,1.992-.692,2.537.377,5.074.315,7.612.147,1.615.042,3.229.084,4.865.126,3.69.084,7.381.147,11.071.21l6.479-.44h.168l9.31.252c4.466.063,8.933.147,13.399.21.503-.168,1.006-.356,1.51-.524,1.908.063,3.816.105,5.703.168,3.502.084,6.982.189,10.463.273,1.426.021,2.873.021,4.319.042,3.648.21,7.297.021,10.945-.294l5.032.126c3.439.084,6.878.147,10.295.231,2.663.105,5.326.377,7.989.105h.042c3.376-.377,6.773-.273,10.17-.315,1.153.042,2.307.063,3.46.105,4.571.231,9.121.231,13.671-.335,1.615.042,3.208.084,4.823.147,3.292.063,6.584.126,9.855.189h.021c1.95-.147,3.942.818,5.808-.377,3.418.042,6.836.105,10.274.168,1.006.021,2.034.042,3.061.063,3.921.189,7.863.335,11.805-.084,1.719,1.195,3.355-.21,5.053-.168,3.607.084,7.213.147,10.82.21,1.866.063,3.753.126,5.64.189.168.021.356.021.545.021.944.042,1.887.063,2.831.105.147,0,.273-.084.419-.126-.189-.063-.398-.147-.608-.21,1.426-.587,2.894-.126,4.34-.294,1.342.042,2.684.063,4.005.084.356.042.734.084,1.09.084q4.99.147,4.928,5.095c-.042,1.573-.063,3.145-.084,4.739-.252,2.915.189,5.808.398,8.723-.021,1.74-.042,3.46-.063,5.2-.063,2.726-.126,5.452-.189,8.178-.021.671.231,1.279.692,1.782-.231,1.09-.252,2.181-.105,3.292.021,3.669-.818,7.402.545,11.008-.335,1.132-.168,2.286-.147,3.418Zm-9.604,7.36c2.348.356,4.278-1.866,3.816-4.152-1.006-4.969-1.027-9.981-.881-15.013.021-.881.126-1.782-.063-2.621-.252-1.09-.923-2.097-2.202-2.034s-1.447,1.111-1.552,2.223c-.126,1.74-.377,3.481-.713,5.2-.524,2.705-2.286,4.571-4.466,6.123-.587.419-.86,0-1.321-.168-1.782-.692-2.873,0-2.558,1.824.231,1.426-.545,1.866-1.531,2.118-2.327.608-4.676.986-7.108.692-2.579-.503-5.053.273-7.57.524-1.132.105-1.636.482-1.615,1.531.042,1.006.252,1.866,1.573,1.908,8.744.335,17.509.566,26.189,1.845ZM44.798,24.933c.084-1.426-1.552-1.782-2.768-1.594-3.9.608-7.863.21-11.742.608-2.327.231-4.445.839-6.584-.797-1.552-1.216-3.208-.273-4.257.944-1.09,1.3-1.237,3.313-.147,4.466,1.174,1.216,1.132,2.369,1.069,3.732-.063,2.118-.126,4.236-.21,6.353h.021c-.084,2.558-.189,5.116-.231,7.674-.021.65-.021,1.363.252,1.908.315.671.629,1.615,1.698,1.342.839-.21,1.363-.734,1.489-1.656.461-3.732,1.908-7.087,3.481-10.463,1.027-2.181,2.055-3.061,4.278-1.971.923.461,1.74.315,2.369-.419s.315-1.656-.21-2.223c-1.279-1.321-.377-2.223.608-2.831,2.39-1.468,4.802-2.936,7.863-2.579,1.782.231,2.957-1.069,3.019-2.495Z"/>
      <path class="cls-8" d="m227.453,81.422c1.426.021,2.852.042,4.278.084-.377.923-.377,1.845-.105,2.768.335,1.069-.126,1.845-.986,2.432-.902.608-1.74.168-2.39-.398-.692-.566-1.615-1.174-1.132-2.327.356-.839.482-1.677.335-2.558Z"/>
      <path class="cls-9" d="m230.536,70.896c.461,2.286-1.468,4.508-3.816,4.152-8.681-1.279-17.446-1.51-26.189-1.845-1.321-.042-1.531-.902-1.573-1.908-.021-1.048.482-1.426,1.615-1.531,2.516-.252,4.99-1.027,7.57-.524,2.432.294,4.781-.084,7.108-.692.986-.252,1.761-.692,1.531-2.118-.315-1.824.776-2.516,2.558-1.824.461.168.734.587,1.321.168,2.181-1.552,3.942-3.418,4.466-6.123.335-1.719.587-3.46.713-5.2.105-1.111.273-2.16,1.552-2.223s1.95.944,2.202,2.034c.189.839.084,1.74.063,2.621-.147,5.032-.126,10.044.881,15.013Zm-3.879-4.928c-.021-.461.273-1.153-.398-1.3-.315-.063-.818.315-1.09.608-1.384,1.636-3.292,2.537-4.99,3.753-.671.482-1.929.65-1.615,1.74.252.923,1.405.356,1.971.545,1.636.189,2.978.126,3.481-1.636.126-.461.524-.692.965-.818,1.552-.398,1.761-1.573,1.677-2.894Z"/>
      <path class="cls-8" d="m229.047,11.912c.902.273.902.839.608,1.489-.398.902-.398,1.824-.398,2.768-1.321-.021-2.663-.042-4.005-.084.063-.566.147-1.132.168-1.719.063-1.803.818-2.705,2.181-2.705.44,0,.902.084,1.447.252Z"/>
      <path class="cls-9" d="m227.852,8.85l-.252,2.81c-1.363,0-2.118.902-2.181,2.705-.021.587-.105,1.153-.168,1.719-1.447.168-2.915-.294-4.34.294-.839.042-1.782.231-2.642.231-.189,0-.377,0-.545-.021-.524-.063-1.006-.231-1.405-.587-.965-.902-.252-2.579.147-3.9.147-.482,0-.902-.524-1.006-1.237-.273-2.432-.063-3.544.587-1.027.629-.482,1.51-.419,2.348.084.776.063,1.573.105,2.369-3.607-.063-7.213-.126-10.82-.21-.126-1.132-.608-2.244-.189-3.46.273-.818.419-1.573-.734-2.139-1.698-.818-3.103-.252-4.55.524-1.048.566-.44,1.3-.147,2.055.377,1.006.755,2.055.566,3.187-3.942.419-7.884.273-11.805.084.021-1.363-.294-2.747.713-3.942.294-.356.86-.776.44-1.3s-1.048-.252-1.594-.042c-2.474.944-2.265,3.229-2.621,5.221-3.439-.063-6.857-.126-10.274-.168-.356-.923-.063-1.887-.252-2.789-.461-2.139-2.286-1.845-3.816-1.866-1.698-.021-1.132,1.132-1.09,2.139.021.608.273,1.321.147,1.929-.063.231-.168.461-.377.671-.105.084-.252.189-.419.294h-.021c-3.271-.063-6.563-.126-9.855-.189-.398-1.279-.503-2.6-.294-3.921.147-.902.252-1.761-.797-2.223-.923-.398-1.573,0-2.39.482-2.453,1.426-.944,3.69-1.342,5.515-4.55.566-9.1.566-13.671.335-.084-1.279-.608-2.537,0-3.879.252-.566.923-1.384.042-1.95-.252-.168-.503-.231-.776-.231l.168-2.998c.986.021,1.992.294,2.998.86.776.419,1.489.629,2.307.398,1.573-.44,3.124-.126,4.445.608,1.363.755,2.181.524,3.25-.482,2.768-2.621,3.984-2.705,7.339-.797.398.231.755.545,1.195.294,1.803-1.048,3.481-.776,5.137.335.692.461,1.447.273,2.097-.021,1.594-.734,3.334-.608,4.697.042,1.908.902,3.586.755,5.431.231,1.027-.294,2.202-.335,2.978.315,1.363,1.195,2.223.44,3.334-.356,2.013-1.426,4.11-1.636,6.353-.294,2.013,1.216,4.173,1.279,6.144-.147,2.223-1.615,4.76-1.824,7.108-.902,1.908.755,3.732.671,5.64.902,2.327.294,4.445.398,6.71-.482,1.363-.545,2.957.042,4.487.377,2.411.566,4.865,1.363,7.423.629.545-.168,1.153-.315,1.719-.252.252.021.482.042.734.063Z"/>
      <path class="cls-8" d="m226.258,64.668c.671.147.377.839.398,1.3.084,1.321-.126,2.495-1.677,2.894-.44.126-.839.356-.965.818-.503,1.761-1.845,1.824-3.481,1.636-.566-.189-1.719.377-1.971-.545-.315-1.09.944-1.258,1.615-1.74,1.698-1.216,3.607-2.118,4.99-3.753.273-.294.776-.671,1.09-.608Z"/>
      <path class="cls-4" d="m223.071,81.296c-.608,0-1.216.042-1.803.021-3.187-.105-3.187-.126-3.586,3.061-.147,1.195-2.265,3.019-3.439,2.768-1.132-.252-1.992-.818-1.51-2.307.44-1.258,1.426-2.432.818-3.921,3.166.126,6.353.252,9.52.377Z"/>
      <path class="cls-6" d="m220.911,16.378c.21.063.419.147.608.21-.147.042-.273.126-.419.126-.944-.042-1.887-.063-2.831-.105.86,0,1.803-.189,2.642-.231Z"/>
      <path class="cls-4" d="m217.724,16.588c-1.887-.063-3.774-.126-5.64-.189-.042-.797-.021-1.594-.105-2.369-.063-.839-.608-1.719.419-2.348,1.111-.65,2.307-.86,3.544-.587.524.105.671.524.524,1.006-.398,1.321-1.111,2.998-.147,3.9.398.356.881.524,1.405.587Z"/>
      <path class="cls-8" d="m200.991,80.541c1.006.021,2.013.042,3.04.063-1.342,1.006-.692,2.244-.315,3.355.356,1.027.461,1.866-.65,2.39-1.195.587-2.411.608-3.502-.189-.587-.398-.126-.902.147-1.321.881-1.3,1.384-2.705,1.279-4.299Z"/>
      <path class="cls-8" d="m201.264,16.189c-1.698-.042-3.334,1.363-5.053.168.189-1.132-.189-2.181-.566-3.187-.294-.755-.902-1.489.147-2.055,1.447-.776,2.852-1.342,4.55-.524,1.153.566,1.006,1.321.734,2.139-.419,1.216.063,2.327.189,3.46Z"/>
      <path class="cls-6" d="m190.654,84.86c.419.734.294,1.384-.482,1.845-1.153.671-2.39.923-3.481.105-.797-.608.084-1.3.356-1.908.65-1.531,1.195-3.061.986-4.781.713-.147,1.426-.147,2.118.063-.063,1.594-.377,3.187.503,4.676Z"/>
      <path class="cls-6" d="m185.559,11.199c.419.524-.147.944-.44,1.3-1.006,1.195-.692,2.579-.713,3.942-1.027-.021-2.055-.042-3.061-.063.356-1.992.147-4.278,2.621-5.221.545-.21,1.174-.482,1.594.042Z"/>
      <path class="cls-8" d="m184.615,79.996c-1.971-.042-3.942.042-5.892-.126-1.698-.168-2.202.608-2.265,2.097-.042,1.111-.042,2.202.398,3.229.692,1.656-.44,2.516-1.531,3.166-1.342.776-1.887-.608-2.621-1.321-.419-.398-.419-.923-.126-1.405,1.174-1.845.965-3.9.881-5.934,3.711.105,7.444.189,11.155.294Z"/>
      <path class="cls-8" d="m170.818,13.421c.189.902-.105,1.866.252,2.789-1.866,1.195-3.858.231-5.808.377.168-.105.315-.21.419-.294.21-.21.335-.44.377-.671.126-.608-.126-1.321-.147-1.929-.042-1.006-.608-2.16,1.09-2.139,1.531.021,3.355-.273,3.816,1.866Z"/>
      <path class="cls-6" d="m166.058,15.623c-.042.231-.168.461-.377.671.21-.21.315-.44.377-.671Z"/>
      <path class="cls-4" d="m161.214,79.87c-.084,1.174-.189,2.327-.273,3.502-.084,1.237-.671,2.16-1.74,2.852-.923.587-1.992.986-2.81.252-.713-.65.147-1.531.524-2.097.965-1.489.545-3.124.776-4.676,1.216-.839,2.39-.797,3.523.168Z"/>
      <path class="cls-4" d="m155.385,16.399c-1.615-.063-3.208-.105-4.823-.147.398-1.824-1.111-4.089,1.342-5.515.818-.482,1.468-.881,2.39-.482,1.048.461.944,1.321.797,2.223-.21,1.321-.105,2.642.294,3.921Z"/>
      <path class="cls-6" d="m140.624,79.241l4.215.126c-.692,1.887-.042,4.299-2.307,5.578-.482.273-.881.692-1.656.713-.147-2.139.524-4.34-.252-6.416Z"/>
      <path class="cls-8" d="m136.933,10.758c.881.566.21,1.384-.042,1.95-.608,1.342-.084,2.6,0,3.879-1.153-.042-2.307-.063-3.46-.105-.063-.734.042-1.51-.189-2.16-.545-1.594.189-2.516,1.426-3.271.461-.273.986-.524,1.489-.524.273,0,.524.063.776.231Z"/>
      <path class="cls-9" d="m136.325,7.529l-.168,2.998c-.503,0-1.027.252-1.489.524-1.237.755-1.971,1.677-1.426,3.271.231.65.126,1.426.189,2.16-3.397.042-6.794-.063-10.17.315h-.042c-1.531,0-1.132-1.132-1.153-2.034,0-2.223-2.558-4.34-4.802-3.9-1.027.189-1.698.734-1.74,1.887-.042,1.321-.189,2.621-.294,3.942-3.418-.084-6.857-.147-10.295-.231-.545-1.237-.419-2.537-.461-3.858,0-.755.671-1.866-.629-2.223-1.111-.294-2.034-.021-2.957.86-1.594,1.531-1.132,3.313-.986,5.095-3.648.315-7.297.503-10.945.294-.44-.587-.356-1.258-.252-1.887.377-2.307-1.342-2.998-2.936-3.648-.86-.356-1.656.021-1.321,1.195.419,1.426.189,2.873.189,4.299-3.481-.084-6.961-.189-10.463-.273-.147-.776-.503-1.552-.44-2.307.168-1.74-.566-2.474-1.866-2.621l.44-2.936c.818.126,1.677.335,2.558.566,2.516.65,5.389,1.006,7.926-.524,1.845-1.111,4.487-.818,6.5.902.923.776,1.74,1.51,3.019.902.189-.105.461-.126.65-.084,2.789.839,4.907.294,6.878-2.118,1.258-1.531,3.502-1.195,5.368-.482,2.495.986,5.347.063,7.8,1.594.734.461,1.573-1.174,2.684-1.153.503,0,1.027-.105,1.51-.252,2.348-.671,4.299,2.16,6.626.86,2.39-1.363,4.34-.377,6.353.776.755.44,1.3-.021,1.95-.482,1.342-.965,2.747-1.468,4.194-1.426Z"/>
      <path class="cls-8" d="m130.391,82.03c.419,2.097-1.111,2.474-2.453,2.789-.168.042-.356.063-.524.063-.839,0-1.51-.503-1.237-1.74.335-1.426.252-2.873.252-4.34,1.342.063,2.663.126,3.984.168-.021,1.027-.21,2.076-.021,3.061Z"/>
      <path class="cls-9" d="m127.414,84.881l-.168,3.04c-1.006-.042-1.971-.377-2.915-1.111-.692-.566-1.405-.44-2.244-.44-2.998.042-5.829.461-8.492,1.992-1.363.797-2.957.482-4.131-.524-2.181-1.866-4.215-1.803-6.689-.461-2.936,1.573-5.892.797-8.471-1.006-1.615-1.111-2.894-.986-4.382.084-2.474,1.824-5.137,1.929-7.674.105-1.447-1.048-2.747-1.866-4.529-.923-.105.084-.294.147-.419.105-2.097-.818-4.299-.419-6.521-.356l-.063-2.915c1.426,0,1.573-.839,1.216-2.118-.231-.797-.042-1.719-.021-2.6,3.732-.356,7.465-.252,11.197.294.168,1.237.189,2.453-.168,3.669-.231.797-.168,1.552.713,2.076.986.566,1.971.944,3.082.797.503-.063.65-.524.356-1.006-.986-1.552-.839-3.187-.566-4.865.042-.21.084-.44.126-.671l-.021-.021c0-.021-.021-.084-.021-.084,2.348-.356,4.676-.021,7.003.021,3.753.084,4.152.692,3.124,4.445,0,.063-.042.126-.084.189-.671,1.237.147,1.824,1.111,2.097.881.231,1.887.252,2.81.168s1.531-.629.944-1.656c-.923-1.656-.545-3.397-.44-5.137,3.586.084,7.171.168,10.736.273.335,1.719-.021,3.313-.86,4.823-.398.734-.692,1.573.315,2.076,1.216.587,2.202-.105,3.271-.65,1.09-.545.629-1.321.377-2.034-.44-1.363-.315-2.747-.252-4.131l11.763.377c0,1.468.084,2.915-.252,4.34-.273,1.237.398,1.74,1.237,1.74Z"/>
      <path class="cls-6" d="m122.067,14.763c.021.902-.377,2.034,1.153,2.034-2.663.273-5.326,0-7.989-.105.105-1.321.252-2.621.294-3.942.042-1.153.713-1.698,1.74-1.887,2.244-.44,4.802,1.677,4.802,3.9Z"/>
      <path class="cls-4" d="m114.916,82.554c.252.713.713,1.489-.377,2.034-1.069.545-2.055,1.237-3.271.65-1.006-.503-.713-1.342-.315-2.076.839-1.51,1.195-3.103.86-4.823.965.021,1.908.063,2.852.084-.063,1.384-.189,2.768.252,4.131Z"/>
      <path class="cls-8" d="m104.935,16.462l-5.032-.126c-.147-1.782-.608-3.565.986-5.095.923-.881,1.845-1.153,2.957-.86,1.3.356.629,1.468.629,2.223.042,1.321-.084,2.621.461,3.858Z"/>
      <path class="cls-8" d="m101.518,83.204c.587,1.027-.021,1.573-.944,1.656s-1.929.063-2.81-.168c-.965-.273-1.782-.86-1.111-2.097.042-.063.084-.126.084-.189,1.027-3.753.629-4.361-3.124-4.445-2.327-.042-4.655-.377-7.003-.021,1.09-.713,2.265-.273,3.376-.252,3.69.084,7.381.252,11.092.377-.105,1.74-.482,3.481.44,5.137Z"/>
      <path class="cls-4" d="m88.958,16.629c-1.447-.021-2.894-.021-4.319-.042,0-1.426.231-2.873-.189-4.299-.335-1.174.461-1.552,1.321-1.195,1.594.65,3.313,1.342,2.936,3.648-.105.629-.189,1.3.252,1.887Z"/>
      <path class="cls-6" d="m87.091,83.581c.294.482.147.944-.356,1.006-1.111.147-2.097-.231-3.082-.797-.881-.524-.944-1.279-.713-2.076.356-1.216.335-2.432.168-3.669,1.174-1.363,2.348-.21,3.523,0-.042.231-.084.461-.105.671-.273,1.656-.419,3.313.566,4.865Z"/>
      <path class="cls-8" d="m74.175,16.315c-1.887-.063-3.795-.105-5.703-.168.021-.65.126-1.321.042-1.95-.315-2.013.713-2.768,2.537-2.831.294-.021.566,0,.818.021,1.3.147,2.034.881,1.866,2.621-.063.755.294,1.531.44,2.307Z"/>
      <path class="cls-9" d="m72.309,8.452l-.44,2.936c-.252-.021-.524-.042-.818-.021-1.824.063-2.852.818-2.537,2.831.084.629-.021,1.3-.042,1.95-.503.168-1.006.356-1.51.524-2.034-.063-4.089-.294-6.102-.147-2.202.168-2.894-.713-2.537-2.747.042-.273-.021-.587.042-.86.189-1.111-.084-2.055-1.363-1.866-1.048.168-2.747-.063-2.265,2.034.315,1.342-.356,2.369-1.174,3.355-3.103-.063-6.207-.147-9.31-.231h-.168c.084-.944.105-1.887.231-2.831.273-2.474-1.615-2.348-3.124-2.537-1.552-.21-2.957-.105-2.957,2.076,0,1.258.377,2.642-.629,3.732-3.69-.063-7.381-.126-11.071-.21-.482-1.656-.692-3.418.377-4.823,1.342-1.719.461-2.327-.986-3.082-1.342-.692-2.663-.545-4.047-.335-.86.126-1.3.44-.692,1.447,1.321,2.118,1.51,4.361.482,6.668-2.537.168-5.074.231-7.612-.147-.692-.105-1.656-.503-1.992.692-.524-.084-.923-1.216-1.405-.545-.692.986-1.552,2.16-1.174,3.418s1.636.315,2.453.503c-.377,3.292.86,6.458.566,9.729-1.027.168-1.992-.168-2.936-.503-.377-.147-.818-.503-1.174-.063-.294.356-.105.818-.021,1.237.545,2.327,2.432,1.95,4.089,2.055.797.881.734,1.992.713,3.04-.063,2.097.147,4.152.419,6.207-.818,1.384-2.181.986-3.355.902-1.51-.105-1.761.713-1.656,1.866.105,1.111.273,2.348,1.929,1.803,1.132-.377,2.139.021,3.208.252.273,3.082.944,6.144.545,9.268-1.573.398-3.103.797-4.55-.377-.419-.335-.902-.147-1.048.335-.377,1.132-.398,2.307.126,3.376.44.965,1.384.566,2.139.566,1.069.042,2.16,0,3.25,0,.965.44.608,1.321.713,2.055.231,1.803-.524,3.69.398,5.431-1.111,1.258-2.558,1.489-4.152,1.321-.734-.084-1.426-.147-1.636.902-.398,2.181.965,3.607,2.998,2.957,1.573-.482,2.768-.545,2.768,1.447v.252c.084,1.279.86,1.74,2.055,1.782.944.021,1.887.084,2.831.147.189,1.048-.147,2.034-.587,2.936-.503,1.09-.063,1.677.818,2.076,1.573.734,3.25.839,4.907.524,1.111-.231,1.929-.818.818-2.118-.839-.944-.713-2.16-.608-3.313,3.46.105,6.92.231,10.358.356-.189,1.195-.273,2.432-.608,3.607-.21.755-.084,1.216.461,1.698,1.3,1.132,3.732,1.153,5.053.084.503-.398.86-.818.482-1.447-.734-1.216-.44-2.537-.461-3.816,3.397.105,6.794.231,10.191.335-.042,1.006-.084,2.013-.377,2.998-.294,1.048-.923,2.286.65,2.957,1.468.65,5.536.147,6.039-.734.189-.356.105-.734-.105-1.027-.881-1.216-.587-2.642-.629-3.984,3.669-.084,7.318.063,10.987.335,0,.944-.042,1.887.021,2.831.126,1.992,1.656,1.929,3.04,1.95h.105l.063,2.915c-1.656.084-3.313-.042-4.949-.965-1.636-.902-4.529-.252-6.668.776-3.271,1.573-6.647,2.097-9.897.398-1.573-.818-2.894-1.656-4.76-1.489-.734.063-1.321.084-1.971.503-3.145,2.118-6.605,1.95-9.436-.671-1.531-1.426-3.061-1.258-4.55-.377-3.334,2.013-7.507,2.013-10.652-.252-.734-.524-1.426-.86-2.39-.839-3.313.042-4.403-.692-5.599-3.795-.587-1.51-1.279-2.852-2.223-4.194-1.636-2.244-1.615-4.928-.503-7.318.839-1.824.294-3.355-.419-4.718-1.971-3.837-1.866-6.416.545-9.813.755-1.069.587-2.474-.252-3.648-1.887-2.621-1.908-5.305-.587-8.262.881-1.992.944-4.257.084-6.353-1.279-3.061-2.223-6.018-.168-9.163.524-.818.335-1.971.126-3.019-.776-3.837.482-7.045,3.355-9.624.713-.65,1.363-1.237,1.824-2.139.294-.608.944-1.447,1.489-1.489,3.061-.252,4.949-2.831,7.653-3.669.944-.294,2.013-.273,2.768-.356,2.936.189,5.242,1.048,6.836,3.334.21.294.566.818.671.776,1.929-.734,4.11.189,5.913-.608,2.642-1.153,5.158-1.006,7.612.126,1.342.629,2.537.566,3.942.587,2.705.063,5.242-.21,7.779-1.153.629-.231,1.636-.231,2.139.126,2.097,1.468,4.655.902,6.857,1.761.587.21,1.111.126,1.656-.252,1.719-1.237,3.46-1.405,5.305-1.153Z"/>
      <path class="cls-8" d="m71.931,80.352c.356,1.279.21,2.118-1.216,2.118h-.105c-1.384-.021-2.915.042-3.04-1.95-.063-.944-.021-1.887-.021-2.831,1.447.021,2.894.042,4.361.063-.021.881-.21,1.803.021,2.6Z"/>
      <path class="cls-6" d="m66.962,16.671c-4.466-.063-8.933-.147-13.399-.21v-.021c.818-.986,1.489-2.013,1.174-3.355-.482-2.097,1.216-1.866,2.265-2.034,1.279-.189,1.552.755,1.363,1.866-.063.273,0,.587-.042.86-.356,2.034.335,2.915,2.537,2.747,2.013-.147,4.068.084,6.102.147Z"/>
      <path class="cls-4" d="m57.191,81.338c.21.294.294.671.105,1.027-.503.881-4.571,1.384-6.039.734-1.573-.671-.944-1.908-.65-2.957.294-.986.335-1.992.377-2.998,1.866.063,3.711.147,5.578.21.042,1.342-.252,2.768.629,3.984Z"/>
      <path class="cls-9" d="m42.03,23.339c1.216-.189,2.852.168,2.768,1.594-.063,1.426-1.237,2.726-3.019,2.495-3.061-.356-5.473,1.111-7.863,2.579-.986.608-1.887,1.51-.608,2.831.524.566.839,1.489.21,2.223s-1.447.881-2.369.419c-2.223-1.09-3.25-.21-4.278,1.971-1.573,3.376-3.019,6.731-3.481,10.463-.126.923-.65,1.447-1.489,1.656-1.069.273-1.384-.671-1.698-1.342-.273-.545-.273-1.258-.252-1.908.042-2.558.147-5.116.231-7.674h-.021c.084-2.118.147-4.236.21-6.353.063-1.363.105-2.516-1.069-3.732-1.09-1.153-.944-3.166.147-4.466,1.048-1.216,2.705-2.16,4.257-.944,2.139,1.636,4.257,1.027,6.584.797,3.879-.398,7.842,0,11.742-.608Zm-10.421,4.089c-7.8-.482-8.828,1.321-7.737,8.492,1.258-4.11,6.249-4.529,7.737-8.492Z"/>
      <path class="cls-8" d="m41.192,10.842c1.51.189,3.397.063,3.124,2.537-.126.944-.147,1.887-.231,2.831l-6.479.44c1.006-1.09.629-2.474.629-3.732,0-2.181,1.405-2.286,2.957-2.076Z"/>
      <path class="cls-8" d="m41.255,80.625c.377.629.021,1.048-.482,1.447-1.321,1.069-3.753,1.048-5.053-.084-.545-.482-.671-.944-.461-1.698.335-1.174.419-2.411.608-3.607,1.656.042,3.292.084,4.928.126.021,1.279-.273,2.6.461,3.816Z"/>
      <path class="cls-8" d="m23.872,35.92c-1.09-7.171-.063-8.974,7.737-8.492-1.489,3.963-6.479,4.382-7.737,8.492Z"/>
      <path class="cls-4" d="m25.927,8.536c1.447.755,2.327,1.363.986,3.082-1.069,1.405-.86,3.166-.377,4.823-1.636-.042-3.25-.084-4.865-.126,1.027-2.307.839-4.55-.482-6.668-.608-1.006-.168-1.321.692-1.447,1.384-.21,2.705-.356,4.047.335Z"/>
      <path class="cls-6" d="m26.115,79.639c1.111,1.3.294,1.887-.818,2.118-1.656.315-3.334.21-4.907-.524-.881-.398-1.321-.986-.818-2.076.44-.902.776-1.887.587-2.936,1.782.042,3.565.063,5.347.105-.105,1.153-.231,2.369.608,3.313Z"/>
      <path class="cls-8" d="m15.296,67.415c.461,2.223.063,4.424-.021,6.626,0-1.992-1.195-1.929-2.768-1.447-2.034.65-3.397-.776-2.998-2.957.21-1.048.902-.986,1.636-.902,1.594.168,3.04-.063,4.152-1.321Z"/>
      <path class="cls-4" d="m14.268,56.029c-.021,1.3-.063,2.6-.084,3.9-1.09,0-2.181.042-3.25,0-.755,0-1.698.398-2.139-.566-.524-1.069-.503-2.244-.126-3.376.147-.482.629-.671,1.048-.335,1.447,1.174,2.978.776,4.55.377Z"/>
      <path class="cls-8" d="m13.597,41.938c.44,1.594.105,3.208.126,4.823-1.069-.231-2.076-.629-3.208-.252-1.656.545-1.824-.692-1.929-1.803-.105-1.153.147-1.971,1.656-1.866,1.174.084,2.537.482,3.355-.902Z"/>
      <path class="cls-6" d="m12.507,29.965c0,.902-.021,1.803-.042,2.726-1.656-.105-3.544.273-4.089-2.055-.084-.419-.273-.881.021-1.237.356-.44.797-.084,1.174.063.944.335,1.908.671,2.936.503Z"/>
      <path class="cls-8" d="m12.067,16.86c-.042,1.132-.084,2.265-.126,3.376-.818-.189-2.076.755-2.453-.503s.482-2.432,1.174-3.418c.482-.671.881.461,1.405.545Z"/>
    </g>
  </g>
  <g id="menu_ui" data-name="menu ui">
    <text class="cls-5" transform="translate(79.217 64.164) rotate(-1.383)"><tspan class="cls-10" x="0" y="0">m</tspan><tspan class="cls-1" x="33.014" y="0">e</tspan><tspan class="cls-2" x="54.118" y="0">N</tspan><tspan class="cls-11" x="73.264" y="0">U</tspan></text>
    <text class="cls-3" transform="translate(81.225 62.146) rotate(-1.383)"><tspan class="cls-10" x="0" y="0">m</tspan><tspan class="cls-1" x="33.014" y="0">e</tspan><tspan class="cls-2" x="54.118" y="0">N</tspan><tspan class="cls-11" x="73.264" y="0">U</tspan></text>
  </g>
</svg>