<?xml version="1.0" encoding="UTF-8"?>
<svg xmlns="http://www.w3.org/2000/svg" viewBox="0 0 260.329 104.071">
  <defs>
    <style>
      .cls-1 {
        fill: #781b1b;
      }

      .cls-1, .cls-2 {
        font-size: 34px;
      }

      .cls-3, .cls-4 {
        font-family: FearNightRegular, 'Fear Night';
      }

      .cls-5 {
        letter-spacing: 0em;
      }

      .cls-5, .cls-6 {
        font-family: BakeryHomeFreeTrial, 'Bakery Home Free Trial';
      }

      .cls-4 {
        letter-spacing: .015em;
      }

      .cls-7 {
        fill: #fbd0c7;
      }

      .cls-7, .cls-8, .cls-9, .cls-10, .cls-11 {
        stroke-width: 0px;
      }

      .cls-2, .cls-8 {
        fill: #cd6f7d;
      }

      .cls-9 {
        fill: #964347;
      }

      .cls-12 {
        font-family: Beachday, Beachday;
      }

      .cls-10 {
        fill: #9ca8d6;
      }

      .cls-11 {
        fill: #65285e;
      }
    </style>
  </defs>
  <g id="Layer_1" data-name="Layer 1">
    <g>
      <path class="cls-11" d="m252.074,35.391c.965,2.998.377,5.515-1.887,7.507-1.384,1.195-1.866,2.181-.692,3.816.503.671,1.216,1.51.881,2.579-1.279-1.069-1.656-2.81-3.019-3.858-.398-.294-.461-1.174.042-1.321,1.447-.419,1.908-1.719,2.768-2.663,2.223-2.432,1.677-7.423-1.048-9.31-2.579-1.761-2.579-2.873-.608-5.347,1.845-2.327,2.6-5.011,1.384-7.968-.168-.377-.042-.86-.063-1.3,2.453,2.579,2.307,6.668-.776,9.666-1.656,1.615-1.258,2.369.126,3.69,1.279,1.237,2.307,2.705,2.894,4.508Z"/>
      <path class="cls-9" d="m250.375,49.293c1.153,4.487.315,8.324-3.732,11.029-1.174.776-.545,1.447-.021,2.16,3.103,4.026,2.915,8.282-.671,11.7-.923.881-1.069,1.3-.084,2.39,3.586,3.984,2.097,11.365-2.537,12.686-3.082.881-6.311,1.3-9.394-.231-1.426-.692-2.118-.273-2.936,1.006-2.453,3.9-6.731,6.186-11.344,4.76-3.145-.944-4.676-3.208-5.703-5.997-.273-.755-.482-1.153-.776-1.153l1.237-2.432c.105.063.273.126.524.126,1.992.105,3.774.419,5.473-1.615,6.647-8.052,12.225-16.88,18.767-25.015.294-.356.44-.755.398-1.195-.105-1.719-.231-3.418-.377-5.263-.252.189-.461.273-.566.44-.734,1.09-1.489,2.16-2.244,3.229l-2.6-1.887c.398-.524.776-1.069,1.153-1.594,2.286-3.208,4.865-6.27,4.382-10.841-.587-5.494-.587-11.071-.315-16.628q.231-4.655-4.487-4.424h-.44c-6.416-.168-12.833.042-19.27.168-5.934.105-11.868.168-17.802.126l.021-4.152c.315,0,.713-.356,1.363-1.258,1.782-2.432,7.549-4.361,10.82-1.405,1.069.965,1.677,1.069,2.558-.147,3.858-5.431,10.757-3.9,13.587.65.671,1.069,1.174.503,1.803-.21,1.971-2.244,4.382-3.355,7.402-2.474.273.524.629.944,1.3.881v.021c.294,2.265,2.453,3.439,4.319,2.286.545-.335,1.048-.545,1.74-.65,1.971-.315,3.837-.084,5.703.524l.021.021c.44.986.818,2.055,2.118,2.223.042.126.063.252.063.377.021.44-.105.923.063,1.3,1.216,2.957.461,5.64-1.384,7.968-1.971,2.474-1.971,3.586.608,5.347,2.726,1.887,3.271,6.878,1.048,9.31-.86.944-1.321,2.244-2.768,2.663-.503.147-.44,1.027-.042,1.321,1.363,1.048,1.74,2.789,3.019,3.858Zm-10.212,32.878c.294-5.284-.461-10.505-.398-15.768,0-.587.335-1.468-.545-1.656-.755-.168-1.132.587-1.51,1.09-4.508,6.102-8.576,12.518-13.629,18.221-.315.335-.839.818-.461,1.321.189.252.776.273,1.195.294,3.145.126,6.27.231,9.415.335v-.315c.671.021,1.321.042,1.992.063,3.816.147,3.753.126,3.942-3.586Z"/>
      <path class="cls-11" d="m247.649,14.926c1.363.126,1.929.986,2.118,2.223-1.3-.168-1.677-1.237-2.118-2.223Z"/>
      <path class="cls-11" d="m247.628,14.905c-1.866-.608-3.732-.839-5.703-.524-.692.105-1.195.315-1.74.65-1.866,1.153-4.026-.021-4.319-2.286.294.021.755-.063.839.084,1.656,2.894,3.837,1.174,5.85.629,2.013-.524,3.628.126,5.074,1.447Z"/>
      <path class="cls-8" d="m239.765,66.403c-.063,5.263.692,10.484.398,15.768-.189,3.711-.126,3.732-3.942,3.586-.671-.021-1.321-.042-1.992-.063v.315c-3.145-.105-6.27-.21-9.415-.335-.419-.021-1.006-.042-1.195-.294-.377-.503.147-.986.461-1.321,5.053-5.703,9.121-12.12,13.629-18.221.377-.503.755-1.258,1.51-1.09.881.189.545,1.069.545,1.656Z"/>
      <path class="cls-10" d="m239.577,57.512c.042.44-.105.839-.398,1.195-6.542,8.136-12.12,16.963-18.767,25.015-1.698,2.034-3.481,1.719-5.473,1.615-.252,0-.419-.063-.524-.126-.356-.231-.063-.671.252-1.048,1.656-2.118,3.355-4.215,5.011-6.332,5.682-7.234,11.407-14.405,16.712-21.912.755-1.069,1.51-2.139,2.244-3.229.105-.168.315-.252.566-.44.147,1.845.273,3.544.377,5.263Z"/>
      <path class="cls-7" d="m239.325,41.597c.482,4.571-2.097,7.632-4.382,10.841-.377.524-.755,1.069-1.153,1.594-7.171,9.939-14.846,19.48-22.478,29.062-1.069,1.342-2.16,1.845-3.879,1.761-6.941-.315-13.902-.692-20.843-.671-14.196.042-28.37-1.027-42.566-.986-12.581.021-25.141-.923-37.722-.839-4.089.042-8.157-.063-12.35-.189-4.026-.126-8.157-.231-12.518-.273-5.85-.189-12.644-.671-19.459-.608-13.315.168-26.609-.818-39.903-.923-2.684-.021-3.439-.818-3.208-3.502.231-2.789-.105-5.557-.273-8.324-.147-2.453.608-4.529,1.698-6.647.273-.545.566-1.09.86-1.636,3.229-6.165,6.689-12.246,10.128-18.305,3.648-6.353,7.591-12.602,10.421-19.396.524-1.3,1.279-1.803,2.789-1.824,9.645-.126,19.291.021,28.936.126,9.52.084,19.018.042,28.517.084,9.268.021,18.557.063,27.846.042,12.413,0,24.827.021,37.261-.126,7.947-.105,15.915-.168,23.883-.063,2.013.021,4.047.042,6.081.042,5.934.042,11.868-.021,17.802-.126,6.437-.126,12.854-.335,19.27-.168h.44q4.718-.231,4.487,4.424c-.273,5.557-.273,11.134.315,16.628Z"/>
      <path class="cls-9" d="m233.789,54.032l2.6,1.887c-5.305,7.507-11.029,14.678-16.712,21.912-1.656,2.118-3.355,4.215-5.011,6.332-.315.377-.608.818-.252,1.048l-1.237,2.432c-.231,0-.524.294-.944.86-.944,1.279-2.265,2.223-3.334,3.355-3.963,4.131-11.029,2.411-12.917-2.097-.692-1.636-1.279-1.552-2.516-.231-2.432,2.621-5.179,5.074-9.226,4.026-2.558-.671-5.179-1.279-6.5-4.089-.986-2.076-1.656-2.097-3.166-.503-3.648,3.921-9.918,5.724-14.468.713-1.216-1.342-1.803.126-2.348.755-1.971,2.244-4.194,3.921-7.339,4.089-2.16.126-3.963-.482-5.347-2.181-.986-1.237-1.929-1.363-3.313-.356-4.886,3.565-9.415,2.558-12.644-2.705-.587-.965-.797-1.237-1.803-.231-1.971,2.013-3.795,4.319-7.192,4.215-3.69-.084-5.892-2.286-7.821-4.844-1.09-1.468-1.405-1.111-2.244.084-2.621,3.69-6.668,4.424-10.715,2.244-1.656-.902-3.292-1.782-4.55-3.25-.356-.44-.671-.629-.986-.629l.147-4.697c4.194.126,8.262.231,12.35.189,12.581-.084,25.141.86,37.722.839,14.196-.042,28.37,1.027,42.566.986,6.941-.021,13.902.356,20.843.671,1.719.084,2.81-.419,3.879-1.761,7.632-9.583,15.307-19.123,22.478-29.062Z"/>
      <path class="cls-11" d="m235.865,12.724c-.671.063-1.027-.356-1.3-.881.692-.063,1.258.042,1.3.881Z"/>
      <path class="cls-9" d="m197.032,16.687l-.021,4.152c-2.034,0-4.068-.021-6.081-.042-7.968-.105-15.936-.042-23.883.063-12.434.147-24.847.126-37.261.126-9.289.021-18.578-.021-27.846-.042-9.499-.042-18.997,0-28.517-.084-9.645-.105-19.291-.252-28.936-.126-1.51.021-2.265.524-2.789,1.824-2.831,6.794-6.773,13.042-10.421,19.396-3.439,6.06-6.899,12.141-10.128,18.305l-2.747-1.468c2.621-5.913,5.62-10.883,8.513-15.936,3.879-6.773,7.57-13.65,11.323-20.486.252-.44.65-.944.315-1.426-.377-.545-1.069-.315-1.636-.315-1.006-.021-1.279.797-1.719,1.468-4.76,7.528-9.31,15.181-14.363,22.499l-2.537-1.719c.084-.126.147-.231.231-.356,4.236-6.71,8.429-13.441,12.686-20.151.671-1.09.545-1.51-.797-1.615-4.34-.356-8.744.461-13.084-.335-.629-.126-.986,0-1.195.294l-3.963-.587c.944-.65,1.531-1.468,2.013-2.495,1.845-3.921,4.781-6.437,9.289-6.815,2.684-.21,4.319,1.3,5.829,3.145.692.86,1.006,1.698,1.908-.105,1.719-3.46,5.137-4.928,9.31-4.424,3.376.419,6.584,1.237,8.891,4.026.713.881,1.321.335,1.698-.294,3.9-6.752,12.581-5.892,17.404-.105,1.258,1.51,1.866,1.258,2.915.126,1.719-1.866,3.628-3.544,6.395-2.998,2.034.398,4.005,1.153,5.62,2.6.755.65,1.552,1.258,2.369,1.845.503.335.944.356,1.51-.168,3.984-3.586,8.702-4.34,13.818-3.397,1.153.231,2.139.902,3.061,1.573,1.258.902,2.223.692,3.355-.273,4.005-3.439,9.016-3.544,13.231-.398.986.734,1.95,1.489,2.978,2.307,1.342-1.447,2.348-3.271,4.236-4.089,4.194-1.824,9.52-.273,12.329,3.481.818,1.111,1.216,1.447,2.432-.063,3.669-4.571,11.239-6.081,15.684-.168.692.923,1.153.965,1.887.21.252-.252.503-.524.734-.797,4.466-5.892,11.91-5.599,15.873.629.65,1.027,1.069.923,1.803.168,3.795-3.963,8.303-4.739,13.189-2.432,1.845.881,2.747,2.579,3.795,4.068.608.818.902,1.405,1.3,1.405Z"/>
      <path class="cls-9" d="m93.951,82.171l-.147,4.697c-.356,0-.692.294-1.048.797-2.915,4.278-8.094,4.445-11.784.881-2.244-2.139-2.81-2.076-4.823.335-2.705,3.229-8.555,3.334-11.616.189-.839-.881-1.51-2.202-2.516-2.537-1.405-.482-1.531,1.447-2.411,2.16-2.139,1.761-4.278,3.166-7.15,3.166-2.747,0-4.907-1.153-6.668-3.145-.881-.986-1.405-1.363-2.81-.315-3.984,2.978-8.576,2.516-12.246-.965-.713-.692-1.153-.881-1.992-.252-4.781,3.481-9.541,2.034-14.154-.356-2.265-1.153-3.061-4.278-2.055-7.171.315-.923.377-1.258-.608-1.803-1.761-.965-3.04-2.453-3.019-4.676.273-.503.776-1.006.797-1.51.084-2.013,1.09-3.544,2.369-4.969.923-1.027.503-1.74-.503-2.495-1.426-1.09-2.516-2.684-2.139-4.445.44-1.992.797-4.026,1.803-5.892,1.321-2.474.86-4.152-1.111-6.228-.44-.461-1.09-.713-1.195-1.489-.377-2.684.461-5.179,1.719-7.381.839-1.489,1.216-2.453-.168-3.669-2.286-2.013-4.131-4.278-3.586-7.632.566-3.313,2.705-5.515,5.284-7.339l3.963.587c-.252.335-.273.881-.315,1.447-.335,5.557.482,11.05,1.006,16.565.168,1.677-.335,3.481.566,5.284.335-.44.629-.776.902-1.132l2.537,1.719c-.126.168-.231.356-.356.524-2.936,4.215-3.376,8.408-2.076,13.671l2.747,1.468c-.294.545-.587,1.09-.86,1.636-1.09,2.118-1.845,4.194-1.698,6.647.168,2.768.503,5.536.273,8.324-.231,2.684.524,3.481,3.208,3.502,13.294.105,26.588,1.09,39.903.923,6.815-.063,13.608.419,19.459.608,4.361.042,8.492.147,12.518.273Z"/>
      <path class="cls-10" d="m38.553,20.944c.335.482-.063.986-.315,1.426-3.753,6.836-7.444,13.713-11.323,20.486-2.894,5.053-5.892,10.023-8.513,15.936-1.3-5.263-.86-9.457,2.076-13.671.126-.168.231-.356.356-.524,5.053-7.318,9.604-14.971,14.363-22.499.44-.671.713-1.489,1.719-1.468.566,0,1.258-.231,1.636.315Z"/>
      <path class="cls-8" d="m30.417,20.755c1.342.105,1.468.524.797,1.615-4.257,6.71-8.45,13.441-12.686,20.151-.084.126-.147.231-.231.356-.273.356-.566.692-.902,1.132-.902-1.803-.398-3.607-.566-5.284-.524-5.515-1.342-11.008-1.006-16.565.042-.566.063-1.111.315-1.447.21-.294.566-.419,1.195-.294,4.34.797,8.744-.021,13.084.335Z"/>
      <path class="cls-11" d="m11.567,64.201c1.006.755,1.426,1.468.503,2.495-1.279,1.426-2.286,2.957-2.369,4.969-.021.503-.524,1.006-.797,1.51-.147-2.034-.042-3.984,1.405-5.661.839-.965,1.552-1.656.042-3.208-2.453-2.516-2.16-5.913-.608-8.953,1.153-2.181,1.803-3.921-.294-6.081-2.411-2.495-1.51-5.661-.776-8.639.084-.273.273-.524.398-.776,1.111-2.16,1.258-3.9-.86-5.892-2.621-2.453-2.684-4.34-1.321-6.5-.545,3.355,1.3,5.62,3.586,7.632,1.384,1.216,1.006,2.181.168,3.669-1.258,2.202-2.097,4.697-1.719,7.381.105.776.755,1.027,1.195,1.489,1.971,2.076,2.432,3.753,1.111,6.228-1.006,1.866-1.363,3.9-1.803,5.892-.377,1.761.713,3.355,2.139,4.445Z"/>
    </g>
  </g>
  <g id="menu_ui" data-name="menu ui">
    <text class="cls-1" transform="translate(50.254 65.682)"><tspan class="cls-3" x="0" y="0">R</tspan><tspan class="cls-12" x="16.762" y="0">e</tspan><tspan class="cls-6" x="30.325" y="0">s</tspan><tspan class="cls-12" x="45.558" y="0">e</tspan><tspan class="cls-4" x="59.121" y="0">t </tspan><tspan class="cls-12" x="81.288" y="0">le</tspan><tspan class="cls-5" x="111.553" y="0">v</tspan><tspan class="cls-12" x="128.689" y="0">el</tspan></text>
    <text class="cls-2" transform="translate(51.783 63.75)"><tspan class="cls-3" x="0" y="0">R</tspan><tspan class="cls-12" x="16.762" y="0">e</tspan><tspan class="cls-6" x="30.325" y="0">s</tspan><tspan class="cls-12" x="45.558" y="0">e</tspan><tspan class="cls-4" x="59.121" y="0">t </tspan><tspan class="cls-12" x="81.288" y="0">le</tspan><tspan class="cls-5" x="111.553" y="0">v</tspan><tspan class="cls-12" x="128.689" y="0">el</tspan></text>
  </g>
</svg>