<?xml version="1.0" encoding="UTF-8"?>
<svg xmlns="http://www.w3.org/2000/svg" viewBox="0 0 105.25 105.246">
  <defs>
    <style>
      .cls-1 {
        font-family: Cheri, Cheri;
      }

      .cls-2, .cls-3, .cls-4, .cls-5, .cls-6, .cls-7, .cls-8 {
        stroke-width: 0px;
      }

      .cls-2, .cls-9 {
        fill: #f798b3;
      }

      .cls-3 {
        fill: #93575e;
      }

      .cls-10 {
        font-family: FearNightRegular, 'Fear Night';
        letter-spacing: .015em;
      }

      .cls-4 {
        fill: #7a1a1a;
      }

      .cls-5 {
        fill: #9da8d5;
      }

      .cls-6, .cls-11 {
        fill: #781b1b;
      }

      .cls-11, .cls-9 {
        font-size: 51.008px;
      }

      .cls-7 {
        fill: #9ca8d6;
      }

      .cls-8 {
        fill: #e6adb1;
      }
    </style>
  </defs>
  <g id="Layer_1" data-name="Layer 1">
    <g>
      <path class="cls-8" d="m84.057,17.707c.419-1.363.944-3.04-.147-4.487,1.615-.105,3.229-.126,4.844-.105-.587.231-.86.797-.839,1.95.021,2.894-.147,5.787-.231,8.66-.335.147-.671.398-1.006.398-.881,0-1.74-.021-2.621-.021-.084-.608-.294-1.216-.797-1.761.126-1.573.356-3.082.797-4.634Z"/>
      <path class="cls-4" d="m24.78,67.402c.063-1.908.126-3.795.189-5.703.021-.86.189-1.615,1.237-1.74.986-.126,1.468.419,1.824,1.216.419.902.335,1.866.377,2.81.168,4.005-.482,8.01,0,12.036.168,1.405.692,1.615,1.908,1.636,3.502.021,7.003.21,10.526.315,1.006.021,1.971.105,2.013,1.426.021,1.258-.734,1.908-1.887,1.992-1.09.063-2.202-.021-3.292-.042-3.418-.063-6.836-.587-10.274.063-1.195.21-2.16-.273-2.181-1.761-.042-4.089-.881-8.136-.44-12.246Z"/>
      <path class="cls-2" d="m19.055,87.721c-1.719-.042-3.376.21-5.074.671-1.195.335-2.516-.042-3.732.713-.629.398-1.405.063-1.845-.692.168-5.011.335-10.023.482-15.055.692,0,1.027-.755,1.782-.713,2.789.105,5.578.231,8.282-.713.482,3.439.671,6.941.315,10.379-.189,1.677-.147,3.145.671,4.592-.168.419-.356.839-.881.818Z"/>
      <path class="cls-3" d="m51.451,94.452c.398.398,1.069.21,1.594.231,5.116.21,10.212.356,15.307.545-.587.042-1.153.084-1.74.105h-.126c-4.424-.147-8.849-.273-13.273-.461-.587-.021-1.405.231-1.761-.419Z"/>
      <path class="cls-6" d="m96.89,26.011c.084-1.761-1.237-1.656-2.244-1.363-2.894.818-5.787,1.552-8.849,1.426-.294-.021-.608.105-.902.231s-.587.294-.881.398c0-.86.147-1.761.042-2.6.881,0,1.74.021,2.621.021.335,0,.671-.252,1.006-.398.084-2.873.252-5.766.231-8.66-.021-1.153.252-1.719.839-1.95,2.097,0,4.194.105,6.291.231,1.069.063,1.824.608,1.782,1.761-.063,3.648.545,7.276.063,10.904Z"/>
      <path class="cls-2" d="m39.017,87.826c0-1.803-1.594-.923-2.432-1.3,4.655-.273,9.331-.629,14.028-.231-.461,2.537.189,5.011.545,7.486.042.294.147.503.273.65,0,0,0,.021.021.021.356.65,1.174.398,1.761.419,4.424.189,8.849.315,13.273.461-4.026.147-8.073-.252-12.099-.315-4.718-.063-9.457-.294-14.196-.44-.126-2.307-1.132-4.424-1.174-6.752Z"/>
      <path class="cls-6" d="m18.95,71.932c-2.705.944-5.494.818-8.282.713-.755-.042-1.09.713-1.782.713.105-3.795.21-7.591.315-11.386,3.208-.503,6.416-.986,9.624-1.468.042,3.816.084,7.612.126,11.428Z"/>
      <path class="cls-8" d="m73.195,12.34c-.084,3.334-.168,6.668-.273,10.023-.252.084-.524.273-.797.252-.671-.021-1.321-.042-1.992-.063.063-2.286.147-4.592.21-6.878.084-3.313.063-3.313-2.831-3.418.671-.021,1.342-.042,2.013-.021,1.237.042,2.453.063,3.669.105Z"/>
      <path class="cls-6" d="m85.525,48.887c2.013-.084,4.005.189,6.039-.545,1.489-.545,3.229-.356,4.844-.503-.147,4.886-.294,9.771-.44,14.636-1.237.587-2.537.734-3.9.629-1.803-.126-3.607-.084-5.389-.105-.419-.419-.273-.944-.315-1.447-.315-3.25-.629-6.5-.944-9.75.461-.377.461-.755-.021-1.132.042-.608.084-1.195.126-1.782Z"/>
      <path class="cls-4" d="m78.521,29.135c.587,4.047.881,8.115.839,12.183-.021.797,0,1.845-1.258,1.971-1.174.126-1.719-.524-1.992-1.573-.419-1.719-.273-3.481-.273-5.221v-.881c-.063-4.592-.231-4.76-4.655-4.928-.965-.042-1.908-.063-2.852-.105v.042c-1.468-.042-2.915-.168-4.382-.105-1.258.042-2.286-.21-2.307-1.636,0-1.489,1.09-1.929,2.411-1.887,2.705.084,5.389.168,8.094.273,1.237.042,2.453.147,3.69-.168,1.615-.398,2.453.461,2.684,2.034Z"/>
      <path class="cls-6" d="m92.298,84.932c1.95,1.006,2.915.315,3.229-1.719.545,3.9.21,7.8-.021,11.679-.084,1.195-1.195,1.677-2.453,1.615-2.034-.105-4.068-.168-6.102-.231.189-2.957-.566-5.808-1.216-8.639-.503-2.223-.398-3.229.923-3.523.44-.084.986-.105,1.698-.063,1.363.084,2.621.189,3.942.881Z"/>
      <path class="cls-6" d="m92.067,63.104c1.363.105,2.663-.042,3.9-.629-.084,2.894-.189,5.766-.273,8.639-2.789-.063-5.578-.147-8.366-.21-.461-2.6-.545-5.263-.65-7.905,1.782.021,3.586-.021,5.389.105Z"/>
      <path class="cls-3" d="m85.797,26.074c3.061.126,5.955-.608,8.849-1.426,1.006-.294,2.327-.398,2.244,1.363,0,.503,0,.986-.021,1.447-.126,3.208-.273,6.416-.398,9.624-.021.839-.315,1.174-1.174,1.677-3.271,1.929-7.066.881-10.4,2.16-.461-4.718-1.069-9.415-.881-14.196.294-.126.587-.273.881-.419.294-.126.608-.252.902-.231Z"/>
      <path class="cls-6" d="m53.087,14.541c-.545-1.95.566-2.621,2.558-2.537,2.894.147,5.787.503,8.66.063,1.74.042,3.481.105,5.221.168-.671-.021-1.342,0-2.013.021,2.894.105,2.915.105,2.831,3.418-.063,2.286-.147,4.592-.21,6.878-5.766-.168-11.575-.377-17.341-.587,1.111-2.432,1.006-4.844.294-7.423Z"/>
      <path class="cls-5" d="m84.015,26.703c.294-.105.587-.273.881-.398-.294.147-.587.294-.881.419v-.021Z"/>
      <path class="cls-3" d="m24.234,86.735c4.11-.461,8.241-.168,12.35-.21.839.377,2.432-.503,2.432,1.3.042,2.327,1.048,4.445,1.174,6.752-5.137-.168-10.295-.315-15.454-.482-.231-2.453-1.027-4.865-.503-7.36Z"/>
      <path class="cls-6" d="m20.607,11.417c.084,3.334-.671,6.668.084,9.981-2.915.084-3.019.189-3.271,3.04-2.432.147-4.907-.755-7.297.294-.503-4.089.021-8.178.021-12.266-.021-1.279.944-1.468,1.971-1.426l8.492.377Z"/>
      <path class="cls-8" d="m18.028,45.637c.692,4.928.818,9.897.797,14.867-3.208.482-6.416.965-9.624,1.468.168-4.99.315-9.96.482-14.95,2.537.042,4.928-1.069,7.486-.776.273.042.587-.398.86-.608Z"/>
      <path class="cls-3" d="m67.974,86.106c.147,3.103.986,6.165.713,9.289h-.189l-1.887-.063c.587-.021,1.153-.063,1.74-.105-5.095-.189-10.191-.335-15.307-.545-.524-.021-1.195.168-1.594-.231-.021,0-.021-.021-.021-.021-.042-.126-.105-.273-.126-.461-.356-2.495-1.006-4.949-.545-7.486,5.724-.189,11.47-.482,17.215-.377Z"/>
      <path class="cls-8" d="m84.057,24.103c-4.634-.042-9.31-.063-13.965-.126.021-.482.021-.944.042-1.426.671.021,1.321.042,1.992.063.273.021.545-.168.797-.252.105-3.355.189-6.689.273-10.023-1.216-.042-2.432-.063-3.669-.105,8.157-.168,16.292.461,24.449.608-1.342.566-2.726.189-4.089.126-.461-.021-.839.021-1.132.147-1.615-.021-3.229,0-4.844.105,1.09,1.447.566,3.124.147,4.487-.44,1.552-.671,3.061-.797,4.634.503.545.713,1.153.797,1.761Z"/>
      <path class="cls-2" d="m35.39,14.856c.063-2.957.042-2.957-2.915-3.208-.147-.021-.273-.063-.419-.084,7.779-.377,15.538.084,23.317.231,2.978.042,5.955.189,8.933.273-2.873.44-5.766.084-8.66-.063-1.992-.084-3.103.587-2.558,2.537.713,2.579.818,4.99-.294,7.423-5.62-.168-11.239-.315-16.838-.482.608-2.286-.587-4.403-.566-6.626Z"/>
      <path class="cls-5" d="m85.399,50.67c.482.377.482.755.021,1.132-.126-.377-.629-.755-.021-1.132Z"/>
      <path class="cls-6" d="m19.055,87.721c.524.021.713-.398.881-.818,1.447.335,2.873-.21,4.299-.168-.524,2.495.273,4.907.503,7.36-4.592.147-9.163-.398-13.755-.063-1.698.105-2.957-.671-2.684-2.789.126-.923.084-1.887.105-2.831.44.755,1.216,1.09,1.845.692,1.216-.755,2.537-.377,3.732-.713,1.698-.461,3.355-.713,5.074-.671Z"/>
      <path class="cls-3" d="m17.42,24.438c-.356,4.718.986,9.352.44,14.07-2.642.147-5.221,1.174-7.905.692-.503-3.628-.356-7.255-.126-10.904l.021-.189c.084-1.132.189-2.244.273-3.376,2.39-1.048,4.865-.147,7.297-.294Z"/>
      <path class="cls-5" d="m27.401,81.409c3.439-.65,6.857-.126,10.274-.063,1.09.021,2.202.105,3.292.042,1.153-.084,1.908-.734,1.887-1.992-.042-1.321-1.006-1.405-2.013-1.426-3.523-.105-7.024-.294-10.526-.315-1.216-.021-1.74-.231-1.908-1.636-.482-4.026.168-8.031,0-12.036-.042-.944.042-1.908-.377-2.81-.356-.797-.839-1.342-1.824-1.216-1.048.126-1.216.881-1.237,1.74-.063,1.908-.126,3.795-.189,5.703-.44,4.11.398,8.157.44,12.246.021,1.489.986,1.971,2.181,1.761Zm42.692-57.432c4.655.063,9.331.084,13.965.126.105.839-.042,1.74-.042,2.6v.021c-.189,4.781.419,9.478.881,14.196-.063,2.684.021,5.347.629,7.968-.042.587-.084,1.174-.126,1.782-.608.377-.105.755.021,1.132.315,3.25.629,6.5.944,9.75.042.503-.105,1.027.315,1.447.105,2.642.189,5.305.65,7.905.084,2.537.168,5.053.21,7.57.042,2.453.021,2.998-1.594,2.998-.398,0-.902-.042-1.531-.084-5.41-.377-10.778.692-16.167.315-.335-.021-.692.21-1.027.335.377.503.881.923.797,1.698-.084.797-.084,1.594-.042,2.369-5.745-.105-11.491.189-17.215.377-.461,2.537.189,4.99.545,7.486.021.189.084.335.126.461-.126-.147-.231-.356-.273-.65-.356-2.474-1.006-4.949-.545-7.486-4.697-.398-9.373-.042-14.028.231-4.11.042-8.241-.252-12.35.21-1.426-.042-2.852.503-4.299.168-.818-1.447-.86-2.915-.671-4.592.356-3.439.168-6.941-.315-10.379-.042-3.816-.084-7.612-.126-11.428.021-4.969-.105-9.939-.797-14.867.44-2.39-.44-4.739-.168-7.129.545-4.718-.797-9.352-.44-14.07.252-2.852.356-2.957,3.271-3.04,5.095.021,10.17.063,15.265.084,5.599.168,11.218.315,16.838.482,5.766.21,11.575.419,17.341.587-.021.482-.021.944-.042,1.426Zm8.429,5.158c-.231-1.573-1.069-2.432-2.684-2.034-1.237.315-2.453.21-3.69.168-2.705-.105-5.389-.189-8.094-.273-1.321-.042-2.411.398-2.411,1.887.021,1.426,1.048,1.677,2.307,1.636,1.468-.063,2.915.063,4.382.105v-.042c.944.042,1.887.063,2.852.105,4.424.168,4.592.335,4.655,4.928v.881c0,1.74-.147,3.502.273,5.221.273,1.048.818,1.698,1.992,1.573,1.258-.126,1.237-1.174,1.258-1.971.042-4.068-.252-8.136-.839-12.183Z"/>
      <path class="cls-6" d="m85.525,48.887c-.608-2.621-.692-5.284-.629-7.968,3.334-1.279,7.129-.231,10.4-2.16.86-.503,1.153-.839,1.174-1.677.126-3.208.273-6.416.398-9.624-.147,6.794-.294,13.587-.461,20.381-1.615.147-3.355-.042-4.844.503-2.034.734-4.026.461-6.039.545Z"/>
      <path class="cls-6" d="m18.028,45.637c-.273.21-.587.65-.86.608-2.558-.294-4.949.818-7.486.776.084-2.6.168-5.2.273-7.821,2.684.482,5.263-.545,7.905-.692-.273,2.39.608,4.739.168,7.129Z"/>
      <path class="cls-6" d="m9.85,28.108l-.021.189c-.021-.084-.063-.168-.105-.231.042,0,.084.021.126.042Z"/>
      <path class="cls-3" d="m35.39,14.856c-.021,2.223,1.174,4.34.566,6.626-5.095-.021-10.17-.063-15.265-.084-.755-3.313,0-6.647-.084-9.981,3.816.063,7.632.105,11.449.147.147.021.273.063.419.084,2.957.252,2.978.252,2.915,3.208Z"/>
    </g>
    <path class="cls-7" d="m42.153,81.733c3.481-.084,6.961-.126,10.442-.21,13.567-.335,27.133-.545,40.49-1.845.231-.021.524.126.944.231-1.426,1.677-2.768,3.25-4.11,4.802-.356.419-.818.587-1.447.608-13.483.168-26.63,1.929-40.196,1.908-3.418-.021-4.949-2.097-6.857-4.215-1.006-1.132-.105-1.258.734-1.279Z"/>
    <g>
      <path class="cls-6" d="m95.288,84.865c.042,3.019-.524,6.039.44,9.079.503,1.615-.294,2.6-2.097,2.495-2.286-.126-4.55-.231-6.815-.294.566-3.334,1.153-6.668,1.719-9.981-.315,0-.608-.021-.923-.021,2.076-.881,4.215-.713,6.332-.566.566.042.839-.671,1.342-.713Z"/>
      <path class="cls-2" d="m91.577,69.223c.965-.315,1.992.084,2.957-.692.503-.398,1.111-.042,1.426.734-.21,5.2-.398,10.4-.608,15.579-.021,0-.042,0-.063.021,0-.21,0-.419-.021-.65-2.663-.189-5.326-.126-7.989-.042-.189-2.894-.21-5.808.063-8.702.168-1.74.168-3.25-.44-4.76.126-.44.294-.881.692-.86,1.363.063,2.663-.168,3.984-.629Z"/>
      <path class="cls-6" d="m88.537,86.166c-.566,3.313-1.153,6.647-1.719,9.981-1.803-.063-3.628-.105-5.431-.147-1.195-.021-1.615-.356-1.447-1.74.377-2.789-.671-5.536-.545-8.324,2.663.021,5.347.105,8.031.189v.084c.063-.021.126-.063.189-.063.315,0,.608.021.923.021Z"/>
      <path class="cls-2" d="m86.817,96.188c-6.458.189-12.917.315-19.354-.084.231-3.313.461-6.605.692-9.918,3.753-.252,7.486-.315,11.239-.252-.126,2.789.923,5.536.545,8.324-.168,1.384.252,1.719,1.447,1.74,1.803.042,3.628.084,5.431.147v.042Z"/>
      <path class="cls-6" d="m79.583,84.32c2.558.063,5.137-.063,7.695-.147.042.65.084,1.3.147,1.95-2.684-.084-5.368-.168-8.031-.189,0-.524.063-1.069.189-1.615Z"/>
      <path class="cls-6" d="m51.842,86.27c-.105,2.789-.21,5.557-.315,8.324-4.34-.084-8.681.419-13.021-.042.755-.461.713-1.153.734-1.866.063-2.013.168-4.047.273-6.06,4.089-.294,8.199-.566,12.329-.356Z"/>
      <path class="cls-6" d="m87.425,86.124c-.063-.65-.105-1.3-.147-1.95,2.663-.084,5.326-.147,7.989.042.021.231.021.44.021.65-.503.042-.776.755-1.342.713-2.118-.147-4.257-.315-6.332.566-.063-.021-.126-.021-.189-.021Z"/>
      <path class="cls-6" d="m87.614,86.145c-.063,0-.126.042-.189.063v-.084c.063,0,.126,0,.189.021Z"/>
    </g>
  </g>
  <g id="menu_ui" data-name="menu ui">
    <text class="cls-11" transform="translate(28.759 71.333)"><tspan class="cls-1" x="0" y="0">I</tspan><tspan class="cls-10" x="15.047" y="0"> </tspan></text>
    <polygon class="cls-6" points="51.128 75.54 49.824 31.671 72.423 54.296 51.128 75.54"/>
    <text class="cls-9" transform="translate(31.547 72.358)"><tspan class="cls-1" x="0" y="0">I</tspan><tspan class="cls-10" x="15.047" y="0"> </tspan></text>
    <polygon class="cls-2" points="54.315 76.566 53.011 32.696 75.61 55.322 54.315 76.566"/>
  </g>
</svg>