<?xml version="1.0" encoding="UTF-8"?>
<svg xmlns="http://www.w3.org/2000/svg" viewBox="0 0 278.847 104.949">
  <defs>
    <style>
      .cls-1 {
        font-family: FearNightRegular, 'Fear Night';
        letter-spacing: .015em;
      }

      .cls-2 {
        font-family: Beachday, Beachday;
        letter-spacing: 0em;
      }

      .cls-3, .cls-4 {
        font-family: Cheri, Cheri;
      }

      .cls-4 {
        letter-spacing: .015em;
      }

      .cls-5 {
        fill: #fbd0c7;
      }

      .cls-5, .cls-6, .cls-7, .cls-8, .cls-9 {
        stroke-width: 0px;
      }

      .cls-10, .cls-11 {
        font-size: 35px;
      }

      .cls-10, .cls-6 {
        fill: #9da8d5;
      }

      .cls-11, .cls-7 {
        fill: #781b1b;
      }

      .cls-8 {
        fill: #4f1a46;
      }

      .cls-9 {
        fill: #aa5d64;
      }
    </style>
  </defs>
  <g id="Layer_1" data-name="Layer 1">
    <g>
      <path class="cls-8" d="m270.78,81.468c1.216.818,1.615,1.929.713,3.187-.86,1.174-1.615.335-2.579-.126-2.076-.986-3.837.126-5.305,1.51-4.55,4.319-9.897,7.381-15.684,9.583-2.957,1.132-5.913,1.971-8.891,2.516l-.503-2.998c.21-.042.44-.147.671-.335,1.048-.818.335-1.866-.168-2.726-.273-.482-.776-.839-1.153-1.279-.986-1.237-2.097-2.39-2.286-4.089.294,0,.587,0,.881-.021l.189.063.21-.042c.587.021,1.174.042,1.782.063,2.6-.042,5.242.839,7.8-.21,1.09-2.558.587-5.242.776-7.884,1.636,1.174,2.831,2.705,3.9,4.382.482.755,1.132,1.468,2.139,1.069,1.09-.398.902-1.321.671-2.223-.126-.44-.44-.923-.084-1.489,2.495.587,5.032.524,7.57.608,1.069.042,2.076-.315,2.055-1.698-.021-1.321-1.006-1.405-2.013-1.447-1.384-.021-2.768-.063-4.152-.126-1.237-.063-3.04-.084-3.313-1.048-.335-1.111,1.51-1.342,2.432-1.908.923-.545,1.929-1.069,1.447-2.327-.545-1.384-1.845-1.069-2.81-.671-1.866.776-3.732,1.656-5.431,2.747-.944.608-1.698.608-2.621.252-.168-4.781-.356-9.562-.461-14.363-.021-.629-.482-1.468.44-1.929,4.131,2.411,8.303,4.781,12.099,7.758,3.921,3.061,6.773,6.961,8.891,11.407.692,1.447,1.405,2.852,2.789,3.795Z"/>
      <path class="cls-7" d="m263.483,79.329c.021,1.384-.986,1.74-2.055,1.698-2.537-.084-5.074-.021-7.57-.608-.356.566-.042,1.048.084,1.489.231.902.419,1.824-.671,2.223-1.006.398-1.656-.315-2.139-1.069-1.069-1.677-2.265-3.208-3.9-4.382-.545-1.258-.273-2.579-.21-3.879.923.356,1.677.356,2.621-.252,1.698-1.09,3.565-1.971,5.431-2.747.965-.398,2.265-.713,2.81.671.482,1.258-.524,1.782-1.447,2.327-.923.566-2.768.797-2.432,1.908.273.965,2.076.986,3.313,1.048,1.384.063,2.768.105,4.152.126,1.006.042,1.992.126,2.013,1.447Z"/>
      <path class="cls-7" d="m262.791,28.523c4.131,3.124,1.677,6.458-1.237,8.01-1.321.713-2.789,1.153-4.194,1.74-1.279.503-1.845,1.216-.419,2.181,3.9,2.579,3.544,5.389-1.636,7.129-2.978,1.006-6.039,1.636-9.184,1.761-.084-8.387-.713-16.775-.042-25.141.168-1.992-.776-2.705-2.537-2.495-3.292.356-6.563-.042-9.834-.084,5.242-4.634,10.966-8.031,18.326-7.339,2.16.21,3.04,2.39,1.698,4.403-.671,1.027-1.573,1.887-2.244,2.915-.419.608-.65,1.3.587,1.489,4.131.692,7.486,2.957,10.715,5.431Z"/>
      <path class="cls-5" d="m247.232,78.679c-.189,2.642.315,5.326-.776,7.884-2.579.377-5.221-.503-7.8.21-.608-.021-1.195-.042-1.782-.063-.126-.21-.252-.21-.398-.021-.294.021-.587.021-.881.021-1.489-.021-2.957-.063-4.445-.105-3.921-.147-7.863-.273-11.784-.419-1.342-.042-2.684-.084-4.026-.105-8.031-.273-16.062-.545-24.072-.818-1.761-.063-3.502-.126-5.242-.189-6.542-.231-13.084-.44-19.626-.671-.923-.042-1.74,0-2.286.86-.189-1.195-1.111-.923-1.887-.944-3.795-.126-7.612-.524-11.407-.273-14.384.902-28.727-.776-43.111-.65-1.719.042-3.439-.86-5.2-.21-3.145-.084-6.291-.189-9.436-.294-1.006-.021-2.013-.063-2.998-.084-2.307-.084-4.613-.168-6.941-.231-.986-.482-.86-1.845-2.097-2.286-2.558-.944-3.879.524-5.221,2.181-.545-.231-1.321-.021-1.594-.818.294-.818.587-1.656.86-2.474.839-2.621.147-5.347-1.698-6.752-2.265-1.698-3.921-.294-5.62,1.027-.063.042-.105.105-.147.168-.545.461-1.09.797-1.719.147-.524-.587-1.237-1.09-.587-2.034,1.216-1.782.923-3.837.734-5.745-.189-1.95-1.258-3.648-3.25-4.278-1.845-.566-3.502.168-4.676,1.636-.65.818-1.363,1.803-1.51,2.81-.377,2.286-1.971,1.174-3.061,1.258-1.174.105-2.076-.21-2.265-1.719-.398-3.397-3.732-5.305-7.045-4.194-3.187,1.069-3.942,2.034-3.439,4.571.147.755.461,1.594.944,2.16,1.048,1.216.839,2.118-.482,2.747-1.258.629-1.698,1.74-2.139,2.894-.65,1.698.315,4.34,1.908,5.62,1.719,1.384,3.208.377,4.592-.482,1.887-1.195,2.894-3.019,3.103-5.263.21-1.95,1.51-2.915,3.669-2.81,2.516.105,1.153,1.929,1.195,2.936.105,2.558,1.3,3.69,3.837,3.46.944-.084,1.636-.587,2.369-1.027,1.845-1.111,3.208-.797,4.319,1.048.503.839.629,1.552-.545,1.803-1.866.419-2.495,1.782-2.852,3.439-6.731-.252-13.462-.482-20.213-.713-.881-.692-1.95-.419-2.936-.419-2.265-.021-4.508.084-6.773.084-1.74,0-2.81-.944-2.852-2.642-.168-6.668-.356-13.336-1.09-19.983.482-3.04-.881-5.976-.587-9.016.273-3.774-.587-7.465-.818-11.176.44-.419.377-.944.252-1.426-.692-2.726-.566-5.515-.503-8.282.021-1.594-.147-3.187-.503-4.739,0-.294.021-.566.021-.86.545-2.013,2.202-1.111,3.439-1.342,1.992.273,3.984.252,5.976-.189,3.69.084,7.339.629,11.05.084h.021c1.027-.021,2.055-.021,3.082-.042,2.789.042,5.599.629,8.387,0,3.082.042,6.186.105,9.268.168,1.489.168,2.936.147,4.382-.273.231.419.503.461.839.126,6.207.042,12.392.084,18.599.084.671,0,1.656.566,2.013-.629,1.468,1.09,2.998,1.153,4.571.189.231.923.986.713,1.615.692,1.887-.021,3.795-.273,5.661-.147,5.116.356,10.233-.231,15.328.042.86.042,1.342-.356,1.887-.818.231,1.195,1.195.881,1.929.881,4.152.021,8.324.147,12.476-.084,2.621-.126,5.242-.189,7.863-.042,8.094.419,16.188-.503,24.281-.168,2.642,1.719,5.389,3.355,8.031.084,2.39.419,4.781.273,7.171.315,2.516,1.615,3.544,1.489,5.578-.608,1.761.084,3.523.168,5.263.231.189.315.419.608.566.923,1.363,3.166,3.669,3.607,5.997,1.132.545-.587.965-1.258,1.447-1.887.503.084,1.132-.042,1.489.315.126.126.231.315.273.566-.084.21-.168.398-.252.608-.587,1.405-1.09,2.81-1.09,4.403,0,1.95.356,3.837,2.076,4.739,1.971,1.048,3.942.503,5.494-1.279.461-.545.986-1.489,1.929-.65.776.671,1.174,1.237.587,2.558-1.153,2.621-.965,5.389.65,7.905.923,1.468,2.348,1.971,3.984,1.656,2.244-.398,3.376-2.097,4.215-4.005.356-.839-.084-2.223,1.615-1.992,1.09.147,2.202.126,3.292.231.419.063.419.503.503.86,1.069,4.487,4.718,6.06,8.786,3.795,1.803-1.006,2.684-3.481,1.3-4.99-1.929-2.118-1.803-3.502.608-4.844.105-.063.147-.252.252-.356,1.363-1.761,1.153-5.116-.419-6.605-1.363-1.3-3.942-1.174-5.745.335-1.74,1.489-2.768,3.376-2.642,5.703.042,1.279-.482,1.908-1.656,2.118-1.195.21-2.39.629-3.732.063.126-.356.231-.692.398-1.006.881-1.803.315-3.439-1.132-4.466-1.468-1.069-3.46-.986-4.571.503-1.74,2.307-2.873,1.006-4.299-.189-1.111-.944-1.216-1.698.147-2.474,1.426-.839,2.663-1.845,2.663-3.711,5.85.315,11.7-.273,17.551-.315,3.271.042,6.542.44,9.834.084,1.761-.21,2.705.503,2.537,2.495-.671,8.366-.042,16.754.042,25.141,0,3.082-.419,6.186.881,9.163-.923.461-.461,1.3-.44,1.929.105,4.802.294,9.583.461,14.363-.063,1.3-.335,2.621.21,3.879Z"/>
      <path class="cls-7" d="m238.656,86.773c2.579-.713,5.221.168,7.8-.21-2.558,1.048-5.2.168-7.8.21Z"/>
      <path class="cls-7" d="m239.034,92.078c.503.86,1.216,1.908.168,2.726-.231.189-.461.294-.671.335-.713.126-1.363-.398-1.95-.986-2.244-2.202-3.774-4.928-5.431-7.549,1.489.042,2.957.084,4.445.105.189,1.698,1.3,2.852,2.286,4.089.377.44.881.797,1.153,1.279Z"/>
      <path class="cls-8" d="m238.531,95.139l.503,2.998c-7.591,1.426-15.265,1.006-23.044-1.3-5.179-1.51-10.463-2.684-15.286-5.116-3.397-1.719-6.752-3.648-9.436-6.458,8.01.273,16.041.545,24.072.818.839,2.076,1.132,4.361,2.432,6.249.713,1.027,1.782,1.782,2.957,1.027,1.216-.734.419-1.845-.063-2.684-.818-1.405-1.656-2.768-1.3-4.487,3.921.147,7.863.273,11.784.419,1.656,2.621,3.187,5.347,5.431,7.549.587.587,1.237,1.111,1.95.986Z"/>
      <path class="cls-7" d="m236.727,25.063c1.573,1.489,1.782,4.844.419,6.605-.105.105-.147.294-.252.356-2.411,1.342-2.537,2.726-.608,4.844,1.384,1.51.503,3.984-1.3,4.99-4.068,2.265-7.716.692-8.786-3.795-.084-.356-.084-.797-.503-.86-1.09-.105-2.202-.084-3.292-.231-1.698-.231-1.258,1.153-1.615,1.992-.839,1.908-1.971,3.607-4.215,4.005-1.636.315-3.061-.189-3.984-1.656-1.615-2.516-1.803-5.284-.65-7.905.587-1.321.189-1.887-.587-2.558-.944-.839-1.468.105-1.929.65-1.552,1.782-3.523,2.327-5.494,1.279-1.719-.902-2.076-2.789-2.076-4.739,0-1.594.503-2.998,1.09-4.403.105-.21.189-.398.273-.608v-.021c1.279-.965.356-1.929-.356-2.286-1.321-.671-1.132.755-1.426,1.426-.482.629-.902,1.3-1.447,1.887-2.327,2.474-4.634,2.034-5.997-1.132-.147-.315-.377-.608-.566-.923.021-1.95.063-3.921.063-5.892.021-1.845-1.426-1.006-2.265-1.132-.524-.063-1.866-.566-1.615.608.545,2.39-.881,4.152-1.447,6.186-2.034,2.097-3.061,2.223-5.578.608q-1.782-5.032-5.997-1.573c-.44.356-.776.839-1.174,1.258-2.642,3.271-5.389,1.636-8.031-.084-1.3-2.348-.671-4.739-.021-7.045.482-1.677,1.698-2.873,3.69-2.747,2.097.147,3.523,1.384,3.69,3.355.231,2.348,1.027,1.594,2.244.818,1.384-.86,2.307-1.656,2.873-3.523.923-3.166,3.124-5.829,6.228-7.423,1.824-.944,3.9,0,3.879,2.265-.042,3.229,1.027,4.236,4.236,4.194,1.447,0,2.432.189,3.481-1.006.902-1.027,2.348-1.468,3.711-1.656,1.761-.252,3.607-.231,4.571,1.656,1.027,1.971,1.531,4.152-.294,5.85-1.174,1.09-.356,1.573.189,2.244.608.776,1.195,1.761,2.432.881.231-.168.461-.356.713-.503,3.732-2.097,5.682-1.384,7.15,2.621,0,1.866-1.237,2.873-2.663,3.711-1.363.776-1.258,1.531-.147,2.474,1.426,1.195,2.558,2.495,4.299.189,1.111-1.489,3.103-1.573,4.571-.503,1.447,1.027,2.013,2.663,1.132,4.466-.168.315-.273.65-.398,1.006,1.342.566,2.537.147,3.732-.063,1.174-.21,1.698-.839,1.656-2.118-.126-2.327.902-4.215,2.642-5.703,1.803-1.51,4.382-1.636,5.745-.335Zm-1.426,3.753c.105-1.153.063-1.866-1.132-1.908-1.237-.042-3.124,1.615-3.25,2.978-.105,1.216.629,2.223,1.656,2.118,1.845-.21,2.139-2.055,2.726-3.187Zm-4.173,11.575c.944-.608,2.118-.986,2.139-2.432,0-1.594-.965-2.579-2.327-2.642-1.09-.063-2.013,1.006-1.971,2.181.042,1.279.86,2.265,2.16,2.894Zm-9.624-9.918c-.084-.629-.273-1.489-1.195-1.321-1.09.189-2.453.273-2.6,1.803-.105,1.195.524,1.971,1.761,2.013,1.594.042,1.719-1.258,2.034-2.495Zm-4.047,6.857c.021-.356.042-.713.042-1.09-.042-1.426-.839-2.16-2.223-2.013-1.489.147-1.321,1.279-1.174,2.307.042.356.21.692.252,1.048.168,1.174.545,2.307,1.929,2.16,1.384-.126,1.153-1.426,1.174-2.411Zm-3.9-14.888c.084-1.468-1.069-1.698-2.013-1.803-1.216-.147-1.824.797-1.887,1.929-.063,1.006.566,1.594,1.719,1.803.671-.629,2.118-.377,2.181-1.929Zm-5.431,4.697c.084-.986.21-2.265-1.174-2.265-1.279,0-2.265.923-2.327,2.369-.042,1.258.398,2.516,1.719,2.579,1.636.105,1.803-1.321,1.782-2.684Zm-6.731-11.868c1.489.021,2.831-1.006,2.768-2.181-.042-1.006-.65-1.594-1.636-1.698-1.195-.126-3.628,1.342-3.502,2.16.21,1.237,1.132,1.761,2.369,1.719Zm-1.803,4.34c0-.294.063-.587.021-.881-.273-1.342-.986-2.411-2.474-2.181-1.363.21-1.615,1.279-1.111,2.516.105.273-.021.608.063.881.335,1.006.503,2.327,1.95,2.16,1.363-.168,1.594-1.3,1.552-2.495Zm-11.973-9.708c.105-.65-.147-1.174-.839-1.51-.608-.294-1.132-.189-1.594.252-.881.86-1.761,1.719-2.579,2.642-.545.587-.461,1.384-.189,2.055.21.545.86.461,1.363.44,1.636-.084,3.774-2.202,3.837-3.879Zm-.273,8.387c0-1.342.273-2.642-1.384-2.642-1.384.021-2.16.839-2.097,2.223.042,1.237.713,2.369,1.95,2.453,1.447.126,1.615-1.132,1.531-2.034Zm-14.531-.734c.252-1.321-.315-2.39-1.803-2.39-1.51,0-2.139,1.006-2.097,2.453-.168,1.573.503,2.978,1.992,3.04,1.866.084,1.677-1.845,1.908-3.103Z"/>
      <path class="cls-7" d="m236.874,86.71l-.21.042-.189-.063c.147-.189.273-.189.398.021Z"/>
      <path class="cls-6" d="m234.169,26.908c1.195.042,1.237.755,1.132,1.908-.587,1.132-.881,2.978-2.726,3.187-1.027.105-1.761-.902-1.656-2.118.126-1.363,2.013-3.019,3.25-2.978Z"/>
      <path class="cls-6" d="m233.268,37.958c-.021,1.447-1.195,1.824-2.139,2.432-1.3-.629-2.118-1.615-2.16-2.894-.042-1.174.881-2.244,1.971-2.181,1.363.063,2.327,1.048,2.327,2.642Z"/>
      <path class="cls-7" d="m220.666,90.673c.482.839,1.279,1.95.063,2.684-1.174.755-2.244,0-2.957-1.027-1.3-1.887-1.594-4.173-2.432-6.249,1.342.021,2.684.063,4.026.105-.356,1.719.482,3.082,1.3,4.487Z"/>
      <path class="cls-6" d="m220.309,29.152c.923-.168,1.111.692,1.195,1.321-.315,1.237-.44,2.537-2.034,2.495-1.237-.042-1.866-.818-1.761-2.013.147-1.531,1.51-1.615,2.6-1.803Z"/>
      <path class="cls-6" d="m217.499,36.239c0,.377-.021.734-.042,1.09-.021.986.21,2.286-1.174,2.411-1.384.147-1.761-.986-1.929-2.16-.042-.356-.21-.692-.252-1.048-.147-1.027-.315-2.16,1.174-2.307,1.384-.147,2.181.587,2.223,2.013Z"/>
      <path class="cls-6" d="m211.544,20.639c.944.105,2.097.335,2.013,1.803-.063,1.552-1.51,1.3-2.181,1.929-1.153-.21-1.782-.797-1.719-1.803.063-1.132.671-2.076,1.887-1.929Z"/>
      <path class="cls-6" d="m206.952,24.874c1.384,0,1.258,1.279,1.174,2.265.021,1.363-.147,2.789-1.782,2.684-1.321-.063-1.761-1.321-1.719-2.579.063-1.447,1.048-2.369,2.327-2.369Z"/>
      <path class="cls-6" d="m204.163,13.09c.063,1.174-1.279,2.202-2.768,2.181-1.237.042-2.16-.482-2.369-1.719-.126-.818,2.307-2.286,3.502-2.16.986.105,1.594.692,1.636,1.698Z"/>
      <path class="cls-9" d="m202.863,20.722c.713.356,1.636,1.321.356,2.286-.063-.273-.168-.44-.294-.545-.356-.356-.986-.231-1.489-.315.294-.671.105-2.097,1.426-1.426Z"/>
      <path class="cls-7" d="m203.22,23.029c-.084.21-.168.398-.273.608.084-.21.168-.398.252-.608h.021Z"/>
      <path class="cls-9" d="m203.22,23.008v.021h-.021c-.042-.252-.147-.44-.273-.566.126.105.231.273.294.545Z"/>
      <path class="cls-6" d="m199.613,18.731c.042.294-.021.587-.021.881.042,1.195-.189,2.327-1.552,2.495-1.447.168-1.615-1.153-1.95-2.16-.084-.273.042-.608-.063-.881-.503-1.237-.252-2.307,1.111-2.516,1.489-.231,2.202.839,2.474,2.181Z"/>
      <path class="cls-9" d="m191.226,14.956c.839.126,2.286-.713,2.265,1.132,0,1.971-.042,3.942-.063,5.892-1.74-.063-3.502-.147-5.263-.231.566-2.034,1.992-3.795,1.447-6.186-.252-1.174,1.09-.671,1.615-.608Z"/>
      <path class="cls-6" d="m186.781,8.393c.692.335.944.86.839,1.51-.063,1.677-2.202,3.795-3.837,3.879-.503.021-1.153.105-1.363-.44-.273-.671-.356-1.468.189-2.055.818-.923,1.698-1.782,2.579-2.642.461-.44.986-.545,1.594-.252Z"/>
      <path class="cls-6" d="m185.963,15.648c1.656,0,1.384,1.3,1.384,2.642.084.902-.084,2.16-1.531,2.034-1.237-.084-1.908-1.216-1.95-2.453-.063-1.384.713-2.202,2.097-2.223Z"/>
      <path class="cls-7" d="m166.399,84.403c6.542.231,13.084.44,19.626.671-3.103,3.334-6.416,6.374-10.904,7.842-.776.252-1.552.398-2.327.335-2.076-.168-3.984.189-5.85,1.216-2.139,1.195-3.795.063-3.984-2.432-.21-2.369.315-4.592,1.153-6.773.545-.86,1.363-.902,2.286-.86Z"/>
      <path class="cls-9" d="m182.587,22.358c-2.39-.042-4.781.105-7.171-.315.398-.419.734-.902,1.174-1.258q4.215-3.46,5.997,1.573Z"/>
      <path class="cls-6" d="m171.012,15.166c1.489,0,2.055,1.069,1.803,2.39-.231,1.258-.042,3.187-1.908,3.103-1.489-.063-2.16-1.468-1.992-3.04-.042-1.447.587-2.453,2.097-2.453Z"/>
      <path class="cls-7" d="m122.785,12.23c.923.776.923,1.824.65,2.998-.482,2.223-1.489,4.194-2.6,6.144-.545.461-1.027.86-1.887.818-5.095-.273-10.212.315-15.328-.042-1.866-.126-3.774.126-5.661.147-.629.021-1.384.231-1.615-.692,4.403-5.766,10.484-8.031,17.509-8.199,2.118-.042,4.152-.189,6.06-1.279.902-.545,2.013-.629,2.873.105Z"/>
      <path class="cls-7" d="m107.709,83.397c3.04,2.495,2.537,5.64,1.384,8.723-.629,1.698-1.908,2.852-4.047,2.558-2.118-.294-2.873-1.74-3.439-3.481-.189-.608.21-1.321-.44-1.95-1.845,1.237-3.942,1.782-4.802,4.613-.902,2.978-3.271,5.431-6.311,6.794-2.202.986-3.732.021-3.9-2.39-.294-3.879-.315-3.816-4.236-4.424-1.342-.189-2.286-.063-3.313.923-.986.944-2.369,1.426-3.774,1.489-1.677.105-3.439.147-4.382-1.636-1.069-2.076-1.426-4.278.356-6.06,1.048-1.027.524-1.552-.042-2.327-.671-.902-1.405-1.573-2.516-.776-.923.65-1.908.965-3.04,1.006-2.998.168-4.11-.755-4.487-3.858.356-1.656.986-3.019,2.852-3.439,1.174-.252,1.048-.965.545-1.803-1.111-1.845-2.474-2.16-4.319-1.048-.734.44-1.426.944-2.369,1.027-2.537.231-3.732-.902-3.837-3.46-.042-1.006,1.321-2.831-1.195-2.936-2.16-.105-3.46.86-3.669,2.81-.21,2.244-1.216,4.068-3.103,5.263-1.384.86-2.873,1.866-4.592.482-1.594-1.279-2.558-3.921-1.908-5.62.44-1.153.881-2.265,2.139-2.894,1.321-.629,1.531-1.531.482-2.747-.482-.566-.797-1.405-.944-2.16-.503-2.537.252-3.502,3.439-4.571,3.313-1.111,6.647.797,7.045,4.194.189,1.51,1.09,1.824,2.265,1.719,1.09-.084,2.684,1.027,3.061-1.258.147-1.006.86-1.992,1.51-2.81,1.174-1.468,2.831-2.202,4.676-1.636,1.992.629,3.061,2.327,3.25,4.278.189,1.908.482,3.963-.734,5.745-.65.944.063,1.447.587,2.034.629.65,1.174.315,1.719-.147.042-.063.084-.126.147-.168,1.698-1.321,3.355-2.726,5.62-1.027,1.845,1.405,2.537,4.131,1.698,6.752-.273.818-.566,1.656-.86,2.474-.147.126-.335.231-.482.377-.461.377-1.363.671-.818,1.426.356.524.566,1.447,1.447,1.384.86-.042.734-.923,1.006-1.447.147-.315.294-.629.44-.923,1.342-1.656,2.663-3.124,5.221-2.181,1.237.44,1.111,1.803,2.097,2.286-.021,2.244.042,4.487-.105,6.731-.105,1.803,1.279,1.468,2.202,1.719s1.552-.105,1.531-1.216c-.063-2.873,1.321-5.095,3.313-7.003.986.021,1.992.063,2.998.084,1.069,1.237,1.636,2.705,2.013,4.257.168.671.398,1.426,1.3.902,2.244-1.342,4.76-2.39,6.123-4.865,1.761-.65,3.481.252,5.2.21Zm-.545,5.494c.063-1.174-.315-2.223-1.468-2.369-1.342-.189-1.908.86-1.992,2.055-.084,1.09-.189,2.327,1.342,2.537,1.719.252,1.636-1.3,2.118-2.223Zm-13.755,4.844c.021-.965-.44-1.258-1.321-1.279-1.447-.021-3.145,1.992-3.166,3.795,0,1.174.252,1.426,1.384,1.405,1.195,0,3.061-2.453,3.103-3.921Zm-2.831-3.103c1.384-.042,2.118-.839,2.118-2.244,0-1.195-.692-2.034-1.803-2.034-1.363-.021-1.761,1.069-1.719,2.307-.084,1.048.063,1.992,1.405,1.971Zm-11.092-.944c1.342-.189,1.426-1.426,1.468-2.579-.063-.65-.042-1.321-.21-1.929-.21-.881-.315-2.097-1.636-1.887-1.174.189-2.202.776-2.139,2.265.021.734-.126,1.468.252,2.139.524.944.965,2.181,2.265,1.992Zm-2.453,2.034c.189-1.216-.671-1.573-1.782-1.615-1.363-.063-2.642.21-2.747,1.698-.084,1.195.944,1.845,2.327,1.824,1.489.356,2.013-.713,2.202-1.908Zm-4.089-14.846c-.315-1.132-.881-1.803-2.118-1.845-1.866-.063-2.181,1.384-2.286,2.6-.105,1.174.524,2.663,1.824,2.495,1.552-.21,1.866-1.992,2.579-3.25Zm-9.813-9.079c-.671-.797.252-2.915-1.761-2.978-1.531-.042-2.139,1.552-2.16,2.831,0,1.216.294,2.684,2.139,2.684,1.573,0,1.573-1.174,1.782-2.537Zm-3.942,5.557c.084-1.111-.776-1.468-1.782-1.384-1.069.105-1.866.692-1.887,1.74-.021.923.734,1.51,1.698,1.74.965-.419,1.908-.986,1.971-2.097Zm-10.589-7.171c.021-1.824-1.594-2.139-2.789-2.39-.902-.189-2.097.419-1.95,1.761.168,1.405.503,2.831,2.516,2.495,1.51.315,2.202-.461,2.223-1.866Zm-2.915,8.912c.021-.881.189-1.803-1.153-1.824-1.384-.021-2.202.629-2.348,1.971-.126,1.111.587,1.531,1.698,1.531,1.174.147,1.803-.398,1.803-1.677Z"/>
      <path class="cls-6" d="m105.696,86.521c1.153.147,1.531,1.195,1.468,2.369-.482.923-.398,2.474-2.118,2.223-1.531-.21-1.426-1.447-1.342-2.537.084-1.195.65-2.244,1.992-2.055Z"/>
      <path class="cls-9" d="m93.073,82.894c3.145.105,6.291.21,9.436.294-1.363,2.474-3.879,3.523-6.123,4.865-.902.524-1.132-.231-1.3-.902-.377-1.552-.944-3.019-2.013-4.257Z"/>
      <path class="cls-6" d="m92.088,92.455c.881.021,1.342.315,1.321,1.279-.042,1.468-1.908,3.921-3.103,3.921-1.132.021-1.384-.231-1.384-1.405.021-1.803,1.719-3.816,3.166-3.795Z"/>
      <path class="cls-6" d="m92.696,88.387c0,1.405-.734,2.202-2.118,2.244-1.342.021-1.489-.923-1.405-1.971-.042-1.237.356-2.327,1.719-2.307,1.111,0,1.803.839,1.803,2.034Z"/>
      <path class="cls-8" d="m91.773,21.414c-.356,1.195-1.342.629-2.013.629-6.207,0-12.392-.042-18.599-.084-.273-.042-.524-.084-.818-.126-1.174-3.648-3.942-6.144-6.521-8.744-.524-.503-1.426-.461-2.013.105-.65.65-.671,1.531-.168,2.202.587.818,1.489,1.405,2.055,2.223.965,1.384,3.145,2.181,2.244,4.487-3.082-.063-6.186-.126-9.268-.168-.44-.042-.881-.168-1.3-.126-2.348.294-3.774-.419-4.781-2.852-1.006-2.474-2.432-4.949-4.718-6.668-.965-.734-2.013-1.006-2.894-.021-.902,1.006.084,1.824.713,2.39,2.181,2.034,3.523,4.55,4.592,7.276-1.027.021-2.055.021-3.082.042h-.021c-4.571-1.468-9.121-2.936-13.692-4.403-.524-.168-.923-.398-1.153-.902-.734-1.573-2.034-2.642-3.229-3.816-.692-.671-1.384-1.321-2.181-1.321l-.44-3.04c5.347-.734,10.61-1.824,15.999-2.307,5.871-.524,11.7-.063,17.509.419,6.5.566,12.644,2.81,18.767,4.907,5.829,1.971,10.358,6.081,15.013,9.897Z"/>
      <path class="cls-9" d="m83.134,82.579c2.327.063,4.634.147,6.941.231-1.992,1.908-3.376,4.131-3.313,7.003.021,1.111-.608,1.468-1.531,1.216s-2.307.084-2.202-1.719c.147-2.244.084-4.487.105-6.731Z"/>
      <path class="cls-6" d="m80.953,87.108c-.042,1.153-.126,2.39-1.468,2.579-1.3.189-1.74-1.048-2.265-1.992-.377-.671-.231-1.405-.252-2.139-.063-1.489.965-2.076,2.139-2.265,1.321-.21,1.426,1.006,1.636,1.887.168.608.147,1.279.21,1.929Z"/>
      <path class="cls-6" d="m75.25,90.107c1.111.042,1.971.398,1.782,1.615-.189,1.195-.713,2.265-2.202,1.908-1.384.021-2.411-.629-2.327-1.824.105-1.489,1.384-1.761,2.747-1.698Z"/>
      <path class="cls-9" d="m75.816,82.474c-.147.294-.294.608-.44.923-.273.524-.147,1.405-1.006,1.447-.881.063-1.09-.86-1.447-1.384-.545-.755.356-1.048.818-1.426.147-.147.335-.252.482-.377.273.797,1.048.587,1.594.818Z"/>
      <path class="cls-6" d="m70.826,75.031c1.237.042,1.803.713,2.118,1.845-.713,1.258-1.027,3.04-2.579,3.25-1.3.168-1.929-1.321-1.824-2.495.105-1.216.419-2.663,2.286-2.6Z"/>
      <path class="cls-7" d="m70.343,21.834c.294.042.545.084.818.126-.335.335-.608.294-.839-.126h.021Z"/>
      <path class="cls-7" d="m70.343,21.834h-.021c-1.447.419-2.894.44-4.382.273.902-2.307-1.279-3.103-2.244-4.487-.566-.818-1.468-1.405-2.055-2.223-.503-.671-.482-1.552.168-2.202.587-.566,1.489-.608,2.013-.105,2.579,2.6,5.347,5.095,6.521,8.744Z"/>
      <path class="cls-6" d="m61.369,64.819c2.013.063,1.09,2.181,1.761,2.978-.21,1.363-.21,2.537-1.782,2.537-1.845,0-2.139-1.468-2.139-2.684.021-1.279.629-2.873,2.16-2.831Z"/>
      <path class="cls-6" d="m57.406,71.969c1.006-.084,1.866.273,1.782,1.384-.063,1.111-1.006,1.677-1.971,2.097-.965-.231-1.719-.818-1.698-1.74.021-1.048.818-1.636,1.887-1.74Z"/>
      <path class="cls-7" d="m55.372,21.813c.419-.042.86.084,1.3.126-2.789.629-5.599.042-8.387,0-1.069-2.726-2.411-5.242-4.592-7.276-.629-.566-1.615-1.384-.713-2.39.881-.986,1.929-.713,2.894.021,2.286,1.719,3.711,4.194,4.718,6.668,1.006,2.432,2.432,3.145,4.781,2.852Z"/>
      <path class="cls-6" d="m45.811,63.791c1.195.252,2.81.566,2.789,2.39-.021,1.405-.713,2.181-2.223,1.866-2.013.335-2.348-1.09-2.516-2.495-.147-1.342,1.048-1.95,1.95-1.761Z"/>
      <path class="cls-6" d="m44.531,73.269c1.342.021,1.174.944,1.153,1.824,0,1.279-.629,1.824-1.803,1.677-1.111,0-1.824-.419-1.698-1.531.147-1.342.965-1.992,2.348-1.971Z"/>
      <path class="cls-7" d="m45.181,21.981c-3.711.545-7.36,0-11.05-.084-1.279-.419-2.537-.986-3.858-1.258-1.069-.231-2.076.021-2.118,1.447-1.237.231-2.894-.671-3.439,1.342-1.531-2.013-2.789.105-4.11.377-.755.147-1.216,1.51-2.39.965-.713-.356-.713-1.048-.692-1.719.021-1.3.881-1.95,1.929-2.411,1.384-.608,2.936-.839,4.466-2.076-1.782-.566-3.292-1.09-4.844-1.51-.86-.21-1.845-.168-2.118-1.216-.189-.692-.231-1.531.482-2.013.86-.545,1.95-.545,2.726-.042,1.237.776,2.579.776,3.963,1.258-.147-1.153-1.782-1.971-.419-3.019.44-.335.839-.482,1.216-.482.797,0,1.489.65,2.181,1.321,1.195,1.174,2.495,2.244,3.229,3.816.231.503.629.734,1.153.902,4.571,1.468,9.121,2.936,13.692,4.403Z"/>
      <path class="cls-7" d="m37.57,81.468c.986,0,2.055-.273,2.936.419-3.921,4.194-7.8,8.513-13.399,10.526-4.592,1.636-8.702-.86-8.241-5.808.294-3.25,1.153-6.291,2.244-9.289.545-1.489.021-1.636-1.216-1.489-.734.105-1.384.294-2.034.692-1.069.65-2.348.65-3.334,0-1.069-.734-.671-2.013-.419-3.04.566-2.327,2.181-4.047,3.586-5.871,2.621-3.355,5.326-6.605,9.163-8.681.734,6.647.923,13.315,1.09,19.983.042,1.698,1.111,2.642,2.852,2.642,2.265,0,4.508-.105,6.773-.084Z"/>
      <path class="cls-8" d="m34.131,21.897c-1.992.44-3.984.461-5.976.189.042-1.426,1.048-1.677,2.118-1.447,1.321.273,2.579.839,3.858,1.258Z"/>
      <path class="cls-8" d="m25.45,38.734c.231,3.711,1.09,7.402.818,11.176-4.005-2.348-6.668-5.997-9.247-9.687-3.669-5.221-4.718-11.176-4.445-17.446.147-3.292.21-6.584.315-9.876.063-1.908.063-3.774-.734-5.578-.419-.923-.608-2.097.503-2.726,1.09-.629,2.034-.063,2.663.839,2.244,3.229,5.431,3.565,8.953,3.082.063,0,.147-.021.21-.021l.44,3.04c-.377,0-.776.147-1.216.482-1.363,1.048.273,1.866.419,3.019-1.384-.482-2.726-.482-3.963-1.258-.776-.503-1.866-.503-2.726.042-.713.482-.671,1.321-.482,2.013.273,1.048,1.258,1.006,2.118,1.216,1.552.419,3.061.944,4.844,1.51-1.531,1.237-3.082,1.468-4.466,2.076-1.048.461-1.908,1.111-1.929,2.411-.021.671-.021,1.363.692,1.719,1.174.545,1.636-.818,2.39-.965,1.321-.273,2.579-2.39,4.11-.377,0,.294-.021.566-.021.86-.252,2.244-.335,4.466-.021,6.71.231,1.615.44,3.25-2.223,2.978-1.195-.126-2.621.461-2.558,2.034.063,1.447,1.405,1.384,2.516,1.405.566.021,1.153.042,1.74,0,.986-.084,1.258.482,1.3,1.321Z"/>
      <path class="cls-7" d="m25.702,37.308c.126.482.189,1.006-.252,1.426-.042-.839-.315-1.405-1.3-1.321-.587.042-1.174.021-1.74,0-1.111-.021-2.453.042-2.516-1.405-.063-1.573,1.363-2.16,2.558-2.034,2.663.273,2.453-1.363,2.223-2.978-.315-2.244-.231-4.466.021-6.71.356,1.552.524,3.145.503,4.739-.063,2.768-.189,5.557.503,8.282Z"/>
    </g>
  </g>
  <g id="menu_ui" data-name="menu ui">
    <text class="cls-11" transform="translate(96.108 65.968)"><tspan class="cls-4" x="0" y="0">S</tspan><tspan class="cls-1" x="17.99" y="0">t</tspan><tspan class="cls-2" x="31.71" y="0">a</tspan><tspan class="cls-3" x="50.525" y="0">RT</tspan></text>
    <text class="cls-10" transform="translate(97.197 64.825)"><tspan class="cls-4" x="0" y="0">S</tspan><tspan class="cls-1" x="17.99" y="0">t</tspan><tspan class="cls-2" x="31.71" y="0">a</tspan><tspan class="cls-3" x="50.525" y="0">RT</tspan></text>
  </g>
</svg>