<?xml version="1.0" encoding="UTF-8"?>
<svg id="Layer_1" data-name="Layer 1" xmlns="http://www.w3.org/2000/svg" xmlns:xlink="http://www.w3.org/1999/xlink" version="1.1" viewBox="0 0 517.1 233">
  <defs>
    <style>
      .cls-1 {
        fill: #6cc8c1;
      }

      .cls-1, .cls-2, .cls-3, .cls-4, .cls-5, .cls-6, .cls-7 {
        stroke-width: 0px;
      }

      .cls-8 {
        clip-path: url(#clippath);
      }

      .cls-2 {
        fill: none;
      }

      .cls-3 {
        fill: #62cced;
      }

      .cls-4 {
        fill: #7ea9da;
      }

      .cls-5 {
        fill: #dc6a48;
      }

      .cls-6 {
        fill: #837ebb;
      }

      .cls-7 {
        fill: #e0c3c9;
      }
    </style>
    <clipPath id="clippath">
      <rect class="cls-2" width="517.1" height="233"/>
    </clipPath>
  </defs>
  <g class="cls-8">
    <g>
      <path class="cls-1" d="M510.5,156.4c24.8-12.9,42.4-30.6,55.7-55.4,13.2,24.4,30.1,42.7,55.9,55.3-25,13.5-43.3,30.9-55.8,56.2-13.2-24.9-31.2-42.7-55.9-56.2h0Z"/>
      <path class="cls-6" d="M562.5,281.6c-2.5-3.8-4.8-8.7-8.4-12.3-34.8-35.1-69.7-70.1-104.9-104.9-5.6-5.6-6.6-9-.4-15.1,37.8-37.3,75.3-75,112.8-112.6,1-1,2.3-1.8,3.2-2.5,41.5,41.7,82.2,82.6,122,122.5-40,40.2-80.7,81.1-124.3,124.9h0ZM510.5,156.4c24.7,13.5,42.7,31.3,55.9,56.2,12.5-25.4,30.8-42.7,55.8-56.2-25.8-12.6-42.7-31-55.9-55.3-13.3,24.8-30.9,42.5-55.7,55.4Z"/>
      <path class="cls-1" d="M554.1,269.3c3.6,3.6,5.9,8.5,8.4,12.3,43.6-43.8,84.3-84.7,124.3-124.9-39.7-39.9-80.5-80.8-122-122.5-1,.7-2.2,1.5-3.2,2.5-37.6,37.6-75,75.3-112.8,112.6-6.2,6.1-5.2,9.5.4,15.1,35.2,34.8,70.1,69.8,104.9,104.9h0ZM565.6,288.1c-43.1-43.2-87.5-87.8-130.9-131.4,43.6-43.7,88-88.2,132.1-132.5,43.7,43.7,87.9,87.9,131.3,131.4-44.1,44.1-88.5,88.4-132.5,132.4h0Z"/>
      <path class="cls-1" d="M565.6,7.1c-42.6-42.8-86.7-87.1-131-131.5,43.3-43.3,87.8-87.8,132-132,43.7,43.7,87.9,88,131.5,131.6-44.1,43.9-88.6,88.3-132.5,131.9ZM557.5-7.8c7.2,7.4,11.1,5.9,17.5-.5,35.5-35.9,71.4-71.5,107.1-107.3,2.5-2.5,4.7-5.4,5.9-6.8-41.5-41.6-82.2-82.5-123.4-123.8-.7.6-2.2,1.5-3.5,2.8-37.9,37.8-75.6,75.7-113.6,113.3-6,5.9-3.1,9,1.3,13.4,36.3,36.2,72.8,72.3,108.6,108.9h0Z"/>
      <path class="cls-6" d="M434.8,59.1c2.5,4.3,6,8,10.3,13.5h-37.4c5.9-9.7,11.4-18.6,16.9-27.6l3.5-.2c2.2,4.8,4.1,9.8,6.8,14.3h0Z"/>
      <path class="cls-6" d="M435.6,47.8c-1.4-1.6-2.3-3.7-3.5-5.5-1.3.8-2.7,1.7-4,2.5l-3.5.2c-1.8-1.5-3.5-3-5.3-4.5-2.2,3.7-3.9,7.9-6.8,11-9.7,10.4-22.3,12.2-32.9,5.3-9.7-6.3-14.8-21.1-10.2-32.4,2.5-6,6.3-11.7,10.6-16.6,12.7-14.4,26.2-28,38.9-42.4,5.5-6.2,9-5.4,14,.3,13.7,15.4,27.9,30.4,41.9,45.7,11.9,13,12,31.8.4,42.7-11.3,10.5-26.8,8.2-39.5-6.2Z"/>
      <path class="cls-4" d="M309.6,305c-5.9-5.8-7-9.7-.5-16.1,37.1-36.5,73.8-73.3,110.3-110.3,5.4-5.4,8.8-4.5,13.6.3,36.9,37.2,74,74.3,111.1,111.3,4.6,4.5,5.2,7.8.2,12.7-37.7,37.4-75.1,75.1-112.7,112.6-1.5,1.5-3.3,2.7-5.6,4.6-2.5-2-4.9-3.5-6.9-5.5-36.5-36.5-72.9-73.2-109.6-109.5h0ZM396.9,266.9c-.6,3.2-4.2,7.2-7.3,8.3-12.4,4.3-20.6,13.2-21.7,25.2-1,11.3,4.9,21.9,15.2,27.3,10.7,5.5,23.8,4.1,33.1-3.7,2-1.7,4.1-3.4,6.1-5.1.8.6,1.6,1.1,2.4,1.6,0,0,0,.2-.1.2-4.8,10.9-9.6,21.7-14.5,32.6h31.9c-5.2-11.1-9.8-21.3-14.5-31.3.9-.6,1.9-1.1,2.8-1.7.6.3,1.4.5,1.8,1,10.2,10.4,22.4,12.7,35.5,7.3,11.2-4.7,17-15.9,15.6-29.1-1.4-13.9-9.6-21.6-23-24.7-2.4-.6-5.2-4.9-5.6-7.7-2.5-17.9-12.1-27.7-28.1-28.1-16.7-.3-26.7,9.4-29.8,27.8h0Z"/>
      <path class="cls-4" d="M548.8,16.5c-2.5,3-4.1,5.4-6.1,7.4-36.5,36.6-73.2,73-109.5,109.7-6,6.1-9.9,5.1-15.4-.4-36.1-36.5-72.3-72.8-108.8-108.9-6.1-6-6.3-9.9,0-16.1,36.3-35.8,72.2-71.8,108-108.1,6.1-6.2,10.2-7.4,17-.6,35.2,35.8,70.9,71.1,106.3,106.6,3,3,5.5,6.6,8.5,10.2h0ZM445.1,72.6c-4.3-5.5-7.7-9.2-10.3-13.5-2.7-4.5-4.5-9.5-6.8-14.3,1.3-.8,2.7-1.7,4-2.5,1.2,1.8,2.1,3.9,3.5,5.5,12.8,14.3,28.2,16.7,39.5,6.2,11.7-10.8,11.5-29.7-.4-42.7-13.9-15.2-28.1-30.2-41.9-45.7-5.1-5.7-8.6-6.5-14-.3-12.7,14.4-26.2,28.1-38.9,42.4-4.3,4.9-8.2,10.6-10.6,16.6-4.6,11.3.6,26.1,10.2,32.4,10.6,6.9,23.1,5.1,32.9-5.3,2.9-3.1,4.6-7.3,6.8-11,1.8,1.5,3.6,3,5.3,4.5-5.5,9-10.9,17.9-16.9,27.6h37.4,0Z"/>
      <path class="cls-1" d="M433.2,133.7c36.3-36.8,73-73.2,109.5-109.7,2-2,3.7-4.4,6.1-7.4-3-3.7-5.5-7.2-8.5-10.2-35.4-35.5-71.1-70.9-106.3-106.6-6.8-6.9-10.9-5.6-17,.6-35.8,36.2-71.8,72.3-108,108.1-6.3,6.2-6.1,10.1,0,16.1,36.5,36.1,72.7,72.4,108.8,108.9,5.5,5.6,9.3,6.5,15.4.4h0ZM299,24.3c-4.5-4.5-8.2-7.8-1.7-14.3,41.7-41.3,83-82.9,124.5-124.4,1-1,2.3-1.7,4.2-3.1,2.5,2.1,5.1,3.9,7.4,6.1,39.7,39.6,79.2,79.3,119,118.8,5.5,5.4,8,9.6,1.2,16.3-41.5,41-82.6,82.2-123.9,123.4-.8.8-1.8,1.3-6.2,4.5-7.8-8.8-15.2-18-23.4-26.3-33.5-33.8-67.3-67.4-101-101h0Z"/>
      <path class="cls-1" d="M309.6,305c36.7,36.3,73.1,73,109.6,109.5,2,2,4.4,3.5,6.9,5.5,2.3-1.9,4.1-3.1,5.6-4.6,37.5-37.5,75-75.2,112.7-112.6,5-4.9,4.4-8.2-.2-12.7-37.1-37-74.2-74.1-111.1-111.3-4.8-4.8-8.2-5.7-13.6-.3-36.6,37-73.3,73.8-110.3,110.3-6.5,6.4-5.4,10.3.5,16.1h0ZM298.7,304.2c-4.2-4.2-7.7-7.7-1.7-13.6,41.4-41.1,82.6-82.4,123.9-123.5,1.5-1.5,3.5-2.5,4-2.9,44.9,44.6,89.3,88.7,133.3,132.4-44,43.9-88.3,88-135.5,135.1-10.1-11.1-20.4-23.6-31.8-35.1-30.5-31-61.5-61.7-92.3-92.4h0Z"/>
      <path class="cls-1" d="M338.7,162.2c-9,22.6-27,37.4-47.5,49.1-2.7,1.5-7.7,1.7-10.3.2-23.6-13.5-43.7-30.6-50.9-58.3-3.7-14.2-3.2-28.6,5.5-41.5,11-16.5,28.8-17.3,41.2-1.8,2.9,3.6,5.6,7.5,9.1,12.3,4.9-6.3,8.2-11.7,12.5-16.1,10.3-10.5,25.7-9.8,35,1.7,13.5,16.8,12.9,35.7,5.5,54.4h0Z"/>
      <path class="cls-6" d="M298.3,106.1c-4.3,4.4-7.6,9.8-12.5,16.1-3.5-4.8-6.2-8.6-9.1-12.3-12.5-15.5-30.3-14.7-41.2,1.8-8.6,12.9-9.2,27.3-5.5,41.5,7.2,27.7,27.3,44.8,50.9,58.3,2.6,1.5,7.6,1.4,10.3-.2,20.6-11.7,38.5-26.5,47.5-49.1,7.4-18.7,8-37.6-5.5-54.4-9.3-11.5-24.7-12.2-35-1.7h0ZM167.2,162.2c-3.9-3.7-4.9-6.8-.6-11.1,39-38.7,77.9-77.6,116.8-116.4.5-.5,1.3-.5,3.2-1.2,2.7,2.5,6,5.3,9.1,8.4,35.8,35.7,71.4,71.5,107.3,107.2,4.5,4.4,7.2,7.6,1.3,13.4-38.3,37.9-76.2,76-114.3,114.1-1,1-2.3,1.7-5.1,3.7-30.9-31.2-61.3-61.8-91.7-92.4-8.6-8.6-17.1-17.3-25.9-25.8h0Z"/>
      <path class="cls-1" d="M279.4,27.8c4.7-4.7,7.9-5,12.7-.2,40.6,40.8,81.3,81.6,122.1,122.2,4.4,4.4,5.7,7.6.6,12.7-41.9,41.6-83.6,83.3-125.4,125-1,1-2.3,1.6-5.1,3.5-30.9-31.2-61.3-61.8-91.6-92.4-11.7-11.8-23.4-23.6-35.3-35.1-5-4.8-5.4-8.3,0-13.6,40.9-40.5,81.6-81.3,122.2-122.1h0ZM166.6,151.1c-4.3,4.3-3.2,7.4.6,11.1,8.8,8.4,17.3,17.1,25.9,25.8,30.4,30.6,60.7,61.2,91.7,92.4,2.8-2,4.1-2.7,5.1-3.7,38.1-38.1,76-76.2,114.3-114.1,5.9-5.9,3.2-9-1.3-13.4-35.8-35.6-71.5-71.4-107.3-107.2-3-3.1-6.3-5.9-9.1-8.4-1.9.7-2.7.8-3.2,1.2-39,38.8-77.8,77.6-116.8,116.4h0Z"/>
      <path class="cls-1" d="M151.9-123.1c45.3-45.1,89.6-89.3,133.4-132.9,44,43.9,88.5,88.4,133.5,133.3-1.7,1.9-3.6,4.5-5.9,6.8-39.4,39.4-79,78.7-118.1,118.3-6.6,6.6-10.5,7.8-17.6.5-38.5-39.2-77.6-78-116.5-116.9-2.8-2.8-5.5-5.8-8.8-9.2h0ZM279.3-5.5c5.4,5.5,8.6,4.3,13.4-.6,36.6-37,73.4-73.8,110.3-110.4,5.4-5.3,6-8.6.2-14.2-22.7-22.1-45.1-44.7-67.4-67.2-16.3-16.5-32.3-33.1-49.7-50.9-41.3,41.4-80.6,80.8-119.9,120.2-5.3,5.3-1.6,8.3,2,11.8,37.1,37.1,74.2,74,111,111.3h0Z"/>
      <path class="cls-6" d="M129.9,72.7c4.9-10.8,9.4-21.1,14-31.3l2.9-1.1c4.8,10.5,9.5,21,14.7,32.5h-31.6Z"/>
      <path class="cls-6" d="M203.6,19.5c.8,11.9-3.3,21.7-14.2,27.8-10.7,6-24,4.8-33.2-2.7-2.4-2-4.7-4.2-7-6.2-.9.6-1.7,1.3-2.5,1.9l-2.9,1.1c-.8-.7-1.7-1.3-2.5-2-10.9,9.5-22.5,15.3-36.9,8.7-11-5.1-17-14.5-16.4-27.3.5-12.1,6.8-21.3,18.5-24.6,7.3-2.1,10.8-4.7,11-13.3.4-13.8,13.5-24.3,28-24.4,15.2-.1,27.4,10.2,28.8,26.2.6,7,3.2,9.3,9.3,11,11.4,3.1,19.3,12.7,20,23.8h0Z"/>
      <path class="cls-4" d="M145.7,139.7c-3.1-2.7-5.7-4.7-8-6.9C101.4,96.6,65.2,60.3,28.8,24.3c-5.7-5.7-6-9.7-.2-15.5,36.9-36.6,73.6-73.4,110.2-110.3,4.8-4.8,8.4-5.6,13.7-.2,36.8,37.2,73.8,74.2,111.1,111.1,5.7,5.7,4.9,9.2-.4,14.4-36.7,36.3-73.1,72.9-109.6,109.4-2.2,2.2-4.9,4.1-7.8,6.5h0ZM183.7-4.3c-6.1-1.7-8.7-3.9-9.3-11-1.4-16-13.6-26.3-28.8-26.2-14.5,0-27.7,10.5-28,24.4-.2,8.6-3.7,11.2-11,13.3-11.7,3.3-18,12.5-18.5,24.6-.5,12.8,5.4,22.3,16.4,27.3,14.4,6.6,26,.8,36.9-8.7.8.7,1.7,1.3,2.5,2-4.6,10.3-9.2,20.5-14,31.3h31.6c-5.2-11.5-10-22-14.7-32.5.8-.6,1.7-1.3,2.5-1.9,2.3,2.1,4.6,4.3,7,6.2,9.2,7.6,22.4,8.8,33.2,2.7,10.8-6.1,14.9-15.9,14.2-27.8-.7-11.1-8.6-20.7-20-23.8h0Z"/>
      <path class="cls-4" d="M268.6,296.8c-2,2.5-3.3,4.7-5.1,6.4-37.3,37.3-74.7,74.5-111.9,112-5,5-8,4.3-12.6-.4-36.9-37.2-73.9-74.2-111.1-111.1-5.6-5.5-5.4-9.1,0-14.4,37-36.6,73.8-73.4,110.4-110.4,5.7-5.7,9.3-4.8,14.5.4,36.6,36.9,73.5,73.6,110.2,110.5,2,2,3.5,4.5,5.5,7h0ZM133.1,331.1c2.4-2.5,5-4.8,7.6-7.2,1,.7,2,1.4,3,2-5.4,9.1-10.7,18.2-16.1,27.4h37.6c-4.1-5.2-7.9-9.4-10.8-14.1-2.8-4.5-4.6-9.6-6.8-14.5,1.6-1.2,3.2-2.4,4.8-3.6,1.6,2.9,2.6,6.3,4.8,8.7,11.9,12.8,25.8,14.6,37,5.1,11.5-9.7,12.8-27.1,2.8-39.9-4.5-5.8-9.5-11.3-14.6-16.6-12.2-13-24.5-25.9-37.2-39.3-14.9,16-28.8,30.7-42.4,45.7-4.7,5.1-9.4,10.6-12.5,16.7-6.3,12.3-1.8,28.1,9.1,35.4,10.8,7.3,22.8,5.2,33.6-5.8h0Z"/>
      <path class="cls-1" d="M271.7,7.2c7.4,7.2,7,11.2-.3,18.3-39.8,39-78.9,78.7-118.3,118.1-2,2-4.3,3.9-7.3,6.6-4.8-4.5-9.4-8.5-13.7-12.8C94.4,99.9,56.9,62.3,19.3,24.8c-5.4-5.3-8.4-9.4-1.5-16.2,41.2-40.7,82-81.7,123-122.6,1.2-1.2,2.9-2.1,4.4-3.1.9-.7,1.9-1.4,2.8-2.2,14.3,15.3,28.3,30.8,43,45.8,26.6,27.1,53.4,54.1,80.6,80.6h0ZM263.6,9.4c-37.2-36.8-74.2-73.9-111.1-111.1-5.3-5.4-8.9-4.6-13.7.2C102.2-64.6,65.5-27.8,28.6,8.8c-5.8,5.8-5.6,9.8.2,15.5,36.4,36,72.6,72.3,108.9,108.5,2.3,2.3,4.9,4.3,8,6.9,2.9-2.4,5.6-4.3,7.8-6.5,36.5-36.5,73-73.1,109.6-109.4,5.3-5.2,6.2-8.8.4-14.4h0Z"/>
      <path class="cls-1" d="M139,414.8c4.6,4.7,7.6,5.4,12.6.4,37.1-37.5,74.6-74.6,111.9-112,1.8-1.8,3.1-3.9,5.1-6.4-2-2.5-3.5-5-5.5-7-36.7-36.8-73.6-73.6-110.2-110.5-5.2-5.2-8.8-6.1-14.5-.4-36.6,37-73.4,73.8-110.4,110.4-5.4,5.3-5.6,8.9,0,14.4,37.2,36.8,74.2,73.9,111.1,111.1h0ZM144.6,431.7c-24.4-24.8-47.7-48.5-71.1-72-18.5-18.6-37-37.1-55.7-55.5-5.1-5-6.5-8.6-.6-14.5,41.5-41,82.7-82.3,124-123.5,1-1,2.3-1.8,4.6-3.7,7.6,7.4,15.3,14.6,22.7,22.1,34.5,34.5,68.7,69.1,103.5,103.3,7,6.9,6.7,10.7-.3,17.6-39,38.3-77.3,77.1-116,115.8-3.1,3.1-6.4,6-11.1,10.4h0Z"/>
      <path class="cls-1" d="M5.2,212.5c-12.6-25.3-30.8-42.5-55.2-55.9,24.5-13.3,42.6-30.5,55.1-55.7,13.9,24.3,30.8,42.8,56.2,55.3-24.6,13.7-42.8,31.3-56,56.3h0Z"/>
      <path class="cls-1" d="M8.7-248.2c-43.1,43.2-83.8,84.1-125.1,125.5,0-.1,0-.2-.1-.2,0,0,.2.9.7,1.5C-77-82.4-38.2-43.5.5-4.5c5.1,5.1,8.1,1.9,11.7-1.8,36.7-36.9,73.4-73.8,110.5-110.3,6.1-6,5.3-9.5-.4-15.1-35.2-34.7-70.1-69.7-105-104.8-3.6-3.6-6.1-8.2-8.6-11.7h0ZM137.1-122.8C93.8-79.5,49.6-35.2,6.2,8.3-37.8-35.7-82.2-80-125.9-123.6-82.5-166.8-38-211.1,5.5-254.4c42.6,42.6,87,87,131.6,131.5h0Z"/>
      <path class="cls-6" d="M5.2,212.5c13.1-25,31.3-42.6,56-56.3-25.4-12.5-42.2-31-56.2-55.3-12.4,25.2-30.6,42.4-55.1,55.7,24.5,13.4,42.7,30.6,55.2,55.9h0ZM6.3,279.5c-41.2-41.4-81.7-82.2-121.6-122.4C-75.3,117.4-34.2,76.5,7.6,35c.8.7,3.3,2.8,5.7,5.1,36.3,36.3,72.5,72.6,108.9,108.8,5.5,5.4,7,8.8.7,15.1-37.9,37.3-75.3,75-112.9,112.6-1,1-2.2,1.8-3.7,3h0Z"/>
      <path class="cls-1" d="M5.4,288.8c-43.9-44-88.4-88.4-132.4-132.5C-83.4,112.8-39.2,68.5,4.2,25.1c43.5,43.9,87.8,88.8,131.6,133.1C93.5,200.5,49.1,245,5.4,288.8ZM122.9,163.9c6.3-6.2,4.8-9.7-.7-15.1C85.8,112.7,49.6,76.3,13.3,40.1c-2.3-2.3-4.8-4.3-5.7-5.1-41.8,41.5-82.9,82.4-122.9,122.1,40,40.2,80.4,81,121.6,122.4,1.4-1.2,2.6-2,3.7-3,37.6-37.6,75.1-75.3,112.9-112.6h0Z"/>
      <path class="cls-3" d="M-142.7-123.5c-43.9-43.8-88.2-88-132.6-132.3-43.7,43.7-88.2,88.2-132.2,132.1,44,44,88.5,88.5,132.3,132.4,44.1-44,88.6-88.4,132.4-132.2h0ZM-2.4,296.7c-44.1-43.7-88.5-87.7-132.2-131-43.6,43.4-88.1,87.7-131.2,130.7,43.5,43.9,87.6,88.3,130.9,132.1,44.1-43.8,88.4-87.9,132.5-131.7ZM979.5,718.8c-45.2-45.4-89.4-89.7-132.4-132.9-44.1,44-88.6,88.4-133.5,133.1.4.6,1.4,2.1,2.7,3.4,40.9,40.9,82,81.8,122.8,122.9,6.1,6.1,9.9,4.7,15.3-.7,31.3-31.8,63-63.3,94.5-94.9,10.6-10.6,21.1-21.3,30.7-30.9h0ZM-134.2,725.6c-44.3,44.2-88.6,88.3-131.5,131.1,43.7,44.1,87.9,88.6,131.3,132.4,43.8-43.7,88.2-87.8,132.1-131.6-43.9-43.9-88.2-88.2-131.9-131.9h0ZM135.8,158.2C92.1,113.9,47.7,69.1,4.2,25.1c-43.5,43.4-87.7,87.7-131.2,131.2C-83,200.4-38.5,244.8,5.4,288.8c43.7-43.8,88.1-88.3,130.4-130.7h0ZM-414.6,726.3c-44.1,43.9-88.5,88.2-131.8,131.4,43.5,43.8,87.7,88.2,130.6,131.5,44.2-44.1,88.7-88.5,131.4-131.1-43.4-44-87.4-88.5-130.2-131.8h0ZM977.5,157c-43.7-43.8-88.3-88.5-130.8-131.1-43.7,43.4-88.4,87.6-131.7,130.5,43.5,43.8,87.7,88.3,131.3,132.3,44-44.1,88.4-88.7,131.2-131.8h0ZM975.8,431.4c-40.9-41-82-81.8-122.7-123-6-6-9.5-4.1-14.4.8-25.4,25.7-50.9,51.3-76.6,76.7-16.7,16.5-33.8,32.6-49.6,47.7,46.5,46.3,91.1,90.7,134.7,134.2,43.2-43.1,87.5-87.3,132.2-131.9-.9-1.2-2-3-3.5-4.5h0ZM426,989.5c43.9-44,88.1-88.3,132-132.3-43.8-43.6-88.2-87.8-131.8-131.2-44,43.7-88.4,87.7-131.8,130.8,43.8,44.2,87.9,88.6,131.6,132.7ZM-543.9,570.4c-4.7,4.7-5.1,8-.3,12.7,40.6,40.3,81.1,80.7,121.3,121.3,6.5,6.5,10.5,5.1,16.2-.7,25.3-25.8,51-51.3,76.6-76.9,16.2-16.1,32.5-32.1,49-48.4-1.6-2.7-1.9-3.9-2.7-4.6-41.7-41.8-83.5-83.5-125.1-125.5-5.6-5.6-9.2-3.7-13.7.8-40.4,40.5-80.7,81-121.3,121.2h0ZM-142.5,156.2c-44-43.9-88.5-88.3-132.6-132.3-43.9,43.9-88.3,88.4-131.1,131.2,44,44.2,88.5,89,131.8,132.5,43.5-43.4,87.9-87.5,131.9-131.4h0ZM1117.5,14.9c-42.9-43-86.9-87-130.6-130.7-43.7,44.1-87.7,88.5-131.5,132.7,43,43.3,87.1,87.7,129.8,130.6,44.1-44.2,88.4-88.7,132.2-132.6h0ZM-544.8,1132.7c-1.5,1.5-2.3,3.5-3.3,5.2,44.6,44.4,88.8,88.4,132.8,132.1,44.4-44.4,88.6-88.6,133.3-133.3-1.1-1.4-2.6-3.5-4.3-5.3-40.7-40.8-81.5-81.4-122-122.3-5.4-5.5-8.8-4.3-13.5.4-40.9,41.1-82,82-122.9,123ZM-547.5,296.2c44.1,44,88.4,88.3,132.5,132.4,44-44.1,88.3-88.4,131.4-131.7-43.8-44-88.1-88.6-131.5-132.3-44,43.8-88.5,87.9-132.4,131.6ZM-134.6,1004.2c-44.9,44.9-89,89-132.6,132.6,44.5,44.7,88.7,89.1,133.4,133.9,1.9-1.7,4.5-3.7,6.8-6,39.7-39.7,79.2-79.5,119.2-118.9,7-6.9,5.6-10.7-.6-16.8-39.4-39-78.5-78.2-117.7-117.3-2.8-2.7-5.9-5.1-8.5-7.5h0ZM434.7,156.8c43.4,43.6,87.9,88.2,130.9,131.4,44-44,88.4-88.3,132.5-132.4-43.4-43.5-87.7-87.7-131.3-131.4-44.1,44.2-88.5,88.7-132.1,132.5h0ZM706.2,1271.1c44.7-44.9,88.6-89,131-131.6-44.2-44.5-88.5-89-133-133.8.1,0,.2-.1.2-.2,0,0-.5.2-.8.6-41.9,41.7-83.6,83.4-125.7,124.9-6.3,6.2-3.3,9.6,1.4,14.3,40,39.9,79.9,79.9,119.8,119.8,2.2,2.2,4.9,4.1,7.1,5.9ZM-127.3-111.2c-5.7-5.8-9.3-6-15.2,0-39.7,40.2-79.7,80-119.6,119.9-2.3,2.3-4.2,4.9-5.8,6.8,44.7,44.8,88.8,89.1,133.4,133.8,1-.6,1.8-.8,2.3-1.3C-90.1,106-48,64-5.8,22.2.2,16.3-3.3,12.9-7.5,8.6-47.5-31.3-87.5-71.1-127.3-111.2ZM-544,10.3c-5.2,5.1-3.5,8.5.9,12.7,14.5,14.2,28.8,28.6,43,43.1,27.7,28.1,55.2,56.4,82.9,84.5,46.3-46.2,90.5-90.4,133.6-133.4-43.9-44.1-88.3-88.5-132.9-133.3-.5.3-1.8,1-2.8,2.1-41.6,41.4-83,83-124.7,124.3h0ZM-263.3,570.4c-6.1,6-3.5,9.6,1.3,14.4,30.4,30.1,60.5,60.5,90.8,90.7,11.9,11.9,24,23.5,35.8,35.1,45.3-45.3,89.4-89.6,132.3-132.6-44.3-44.6-88.3-89-132.6-133.7-.6.4-1.9,1-2.9,2-41.5,41.4-83,82.9-124.6,124.1h0ZM-123.3,710.6c-6.2,6.2-3.5,9.6,1.2,14.3,39.8,39.5,79.5,79.1,118.9,119,6.8,7,10.8,6.9,17.6,0,33.6-34.2,67.6-68,101.6-101.6,8-7.9,17-14.8,24.4-21.2-47.1-47.4-91.4-92-136.1-137-1,.8-2.5,1.8-3.7,3.1-41.2,41.2-82.4,82.5-123.8,123.4ZM978.7-123.5c-44-44.1-88.4-88.6-131.9-132.1-44.1,44-88.6,88.4-132.4,132.1,43.7,43.8,88.2,88.3,132.4,132.6,43.7-43.9,87.8-88.2,131.9-132.6ZM-282.7,845.1c5.8,5.9,9.6,5.4,15.3-.3,35.5-36,71.3-71.8,107.2-107.4,6.5-6.4,14.1-11.7,20.3-16.8-47-47.1-91.2-91.4-135-135.3-44.3,44.3-88.7,88.6-133.3,133.3.6.8,1.6,2.3,2.9,3.5,40.9,41,82,81.9,122.7,123h0ZM273.2,849.7c-25.4-25.1-50.8-50.3-75.9-75.8-16.8-17-33.1-34.4-48.5-50.4-46.6,46.2-91.2,90.4-135.5,134.3,43.8,43.8,88.1,88,132.7,132.6,1.6-1.3,3.7-2.7,5.5-4.4,40.7-40.6,81.3-81.4,122.2-121.9,5.9-5.8,4.6-9.3-.5-14.4h0ZM296.9,290.6c-6,5.9-2.5,9.4,1.7,13.6,30.8,30.7,61.8,61.4,92.3,92.4,11.3,11.5,21.7,23.9,31.8,35.1,47.2-47,91.5-91.2,135.5-135.1-44-43.7-88.4-87.8-133.3-132.4-.5.4-2.5,1.4-4,2.9-41.3,41.2-82.5,82.5-123.9,123.5h0ZM274.1,1144.3c7.2-7.1,2.2-10.6-2.3-15.1-39.4-39.4-79-78.7-118-118.3-6.6-6.7-10.2-6.5-16.7,0-38.8,39.4-77.9,78.5-117.3,117.3-7.1,7-7.8,11.3-.2,18.6,27.5,26.8,54.3,54.2,81.4,81.3,14.5,14.5,29.2,28.9,44.1,43.5,2.4-1.8,4-2.7,5.3-3.9,41.3-41.2,82.4-82.5,123.9-123.4h0ZM297.6,1131c-6,6-3.9,9.5,1,14.4,34.8,34.6,69.3,69.4,104.1,104.1,7.5,7.5,15.2,14.7,22.9,22.2,2.6-2,4.5-3.2,6.1-4.7,40.4-40.4,80.7-81,121.2-121.2,6-6,6.5-10.1.2-16.3-25.6-25-50.9-50.3-75.9-75.8-16.5-16.8-32.2-34.3-48.6-51.8-5.1,4.1-6.6,5.1-7.9,6.4-41,40.9-81.9,82-123,122.7h0ZM-275.7,1128.5c44.1-43.6,88.8-87.8,131.6-130.1-43.8-44.1-88.1-88.8-131.4-132.5-43.6,43.6-87.9,87.8-131,130.9,44.4,44.7,88.7,89.2,130.9,131.7h0ZM292.7,588.6c-5.6-5.7-9.1-4.9-14.3.4-40.2,40.6-80.6,81-121.2,121.2-5.1,5-5.3,8.4-.2,13.5,40.8,40.5,81.5,81.2,122.1,122,4.5,4.6,7.8,5.3,12.7.4,40.8-41.1,81.8-81.9,122.8-122.9,1.7-1.8,3.1-3.9,4.9-6.3-1.8-2.3-3.1-4.5-4.9-6.2-40.6-40.7-81.4-81.3-121.9-122.1h0ZM-125.9-123.6C-82.2-80-37.8-35.7,6.2,8.3,49.6-35.2,93.8-79.5,137.1-122.8,92.5-167.4,48.1-211.8,5.5-254.4c-43.5,43.3-88,87.6-131.4,130.7h0ZM284.2,291c2.8-1.9,4.1-2.5,5.1-3.5,41.8-41.6,83.5-83.4,125.4-125,5.1-5.1,3.7-8.3-.6-12.7-40.8-40.6-81.5-81.3-122.1-122.2-4.8-4.9-8-4.5-12.7.2-40.6,40.8-81.3,81.6-122.2,122.1-5.3,5.3-4.9,8.7,0,13.6,11.9,11.5,23.6,23.3,35.3,35.1,30.4,30.6,60.7,61.2,91.6,92.4h0ZM279.9,566.5c4.4,4.5,7.5,4.3,11.8,0,40.8-41,81.8-81.9,122.7-122.9,1.8-1.8,3.2-3.9,5.1-6.3-1.7-2.3-3-4.4-4.7-6.2-5.7-5.8-11.4-11.5-17.2-17.2-34.7-34.7-69.5-69.3-104-104.2-5.3-5.4-9.1-7-15.3-.7-39.9,40.4-80.2,80.5-120.4,120.6-4.2,4.2-7.7,7.4-1.6,13.5,41.4,41,82.5,82.2,123.6,123.6h0ZM557.7,844.5c6.7,6.8,10.5,6.1,16.7-.3,31-31.6,62.4-62.8,93.8-94.1,10.6-10.6,21.5-21,31-30.2-45.7-46-90-90.5-133.7-134.5-43.6,43.4-88,87.5-133.2,132.5,2.1,2.3,3.9,4.5,6,6.6,39.8,39.9,79.9,79.7,119.5,119.9h0ZM279.4,1126.5c6.4,6.5,9.7,2.9,14.2-1.7,39.3-39.5,78.8-78.8,118.2-118.3,2.7-2.7,5.1-5.8,6.9-7.9-45.2-45.3-89.4-89.5-133.3-133.4-43.8,43.8-87.9,88-132.9,133,1.4,1.7,2.6,3.5,4.1,5,40.9,41,82,81.9,122.7,123.2h0ZM559.1,576.9c-2-2.6-3.6-5.1-5.6-7.1-40.1-40.2-80.4-80.2-120.4-120.6-6-6-9.6-5.2-15.2.5-39.4,39.8-79,79.5-118.9,118.9-6.6,6.5-6.5,10.3,0,16.8,40.1,39.6,79.9,79.6,119.6,119.6,4.9,4.9,8.3,5.9,13.6.5,40.2-40.6,80.7-81,121.1-121.4,2-2,3.6-4.5,5.7-7.2h0ZM839.2,15.2c-1-1.2-2.5-3.3-4.3-5-40.7-40.8-81.4-81.4-121.9-122.4-6.1-6.2-9.5-3.7-14.3,1.1-39.8,40-79.7,80.1-119.9,119.8-6,5.9-5.5,9.5.2,15.2,40.2,39.8,80,79.8,120,119.7,2.3,2.3,4.9,4.1,6.7,5.6,44.8-44.9,89-89.2,133.5-134h0ZM558.4,309.1c-21.8,22-43.7,43.9-65.6,65.8-20.3,20.3-40.8,40.3-60.9,60.1,45.6,45.5,90.2,89.8,133.8,133.3,44.2-43.9,88.5-88,133.2-132.5-.4-.6-.9-2-1.9-2.9-41.7-41.8-83.6-83.4-125.1-125.4-6-6.1-9.3-2.5-13.5,1.6h0ZM837.7,296.3c-43.4-43.8-87.4-88.1-130.8-131.8-44.2,44.2-88.6,88.6-132,132.1,43.5,43.7,87.7,88,131.1,131.6,43.9-44,88.4-88.4,131.7-131.8h0ZM566.6-256.5c-44.2,44.2-88.7,88.7-132,132,44.2,44.4,88.4,88.8,131,131.5,43.8-43.7,88.4-88,132.5-131.9-43.5-43.6-87.8-87.9-131.5-131.6ZM837.9,857.2c-43.5-43.6-87.6-87.9-131.1-131.5-44.1,44-88.5,88.3-131.2,130.9,43.6,44,87.7,88.6,131,132.2,43.6-43.7,87.8-88,131.4-131.7ZM1117.3,297.9c-44-44.6-88.1-89.3-130.7-132.4-43.9,43.6-88.2,87.7-131.7,130.9,43.8,43.8,88,88.1,131.9,132,43.6-43.7,87.9-87.9,130.4-130.5ZM297.3,10c-6.5,6.5-2.8,9.8,1.7,14.3,33.7,33.6,67.5,67.2,101,101,8.2,8.3,15.6,17.5,23.4,26.3,4.5-3.2,5.5-3.7,6.2-4.5,41.3-41.1,82.4-82.4,123.9-123.4,6.8-6.7,4.3-10.9-1.2-16.3-39.7-39.5-79.3-79.2-119-118.8-2.2-2.2-4.9-4.1-7.4-6.1-1.9,1.4-3.2,2.1-4.2,3.1-41.5,41.5-82.8,83.1-124.5,124.4h0ZM841.5,578.3c-4.9-5.3-7.7-8.6-10.8-11.7-38.6-38.6-77.4-77.1-115.7-116-6.9-7-10.8-6.9-17.6,0-39.3,39.9-79.1,79.5-118.9,118.9-5.5,5.5-5.9,8.8-.4,14.3,40.4,40,80.6,80.1,120.6,120.5,6.4,6.5,10.2,5.4,16-.5,21.6-22.2,43.6-44.1,65.6-65.8,19.9-19.7,40.1-39.1,61.2-59.7h0ZM987.9,726.4c-44.3,44-88.8,88.3-131.7,130.9,43.2,43.7,87.2,88.2,130.4,131.8,44-43.9,88.3-88,132.2-131.9-43.8-43.8-88.1-88-130.9-130.9h0ZM-142.2,435.7c-.2-.4-.8-1.7-1.8-2.7-41.7-41.8-83.5-83.5-125.1-125.3-4.4-4.5-7.6-4.3-11.9.2-11.8,12.2-24,24-36,36-30.5,30.5-61.1,60.9-90.6,90.4,45.3,45.7,89.6,90.4,132.9,134,43.6-43.6,87.9-87.8,132.5-132.5h0ZM139,435.6c-1.4-1.6-2.8-3.4-4.3-4.9-40.2-40.2-80.6-80.2-120.5-120.7-7-7.1-10.9-6.6-17.6.2-39.1,39.7-78.7,79-118.1,118.5-2.3,2.3-4.4,4.8-5.6,6.2,44.9,45,89.3,89.5,133.3,133.7,43.4-43.5,87.7-87.8,132.9-133ZM138.3,704.4c5.7,5.8,9.2,6,15.1,0,39.6-40.1,79.6-80,119.7-119.7,5.6-5.6,6.5-9.3.5-15.2-40.6-40.2-80.9-80.7-121.4-121.1-1.8-1.8-3.9-3.1-6.4-5-2.6,2-5,3.6-7,5.6-40,39.8-79.8,79.8-119.9,119.6-5.9,5.8-6.9,9.8-.4,16.2,40.2,39.6,80.1,79.5,119.9,119.6h0ZM-574.1-289.5c14.9,22.2,18,22.6,35.4,3.7,1-1,1.5-2.5,2.2-3.7h11.1c-7.7,8.3-15.4,16.6-23.5,25.4,2.2,2.7,3.8,5.1,5.8,7.1,40.4,40.4,80.9,80.7,121,121.3,5.8,5.9,9.2,4.5,14.2-.7,22.2-22.6,44.7-45,67.2-67.2,19.9-19.6,40-39,60.4-58.8-8.8-10.1-16.2-18.6-23.5-27.1h8.9c12.8,14.3,25.9,14.6,39.2.8.3-.2.5-.6.7-.8h8.9c-7.3,8.5-14.7,16.9-20.8,24,44.8,44.9,89,89.2,132.6,132.8C-90.9-176.2-46.7-220.5-2-265.3c-7-7.5-14.8-15.8-22.5-24.2h11.1c4.9,5.3,9.6,11.1,15,15.9,1.6,1.4,6.6,1.6,8.2.2,5.3-4.9,9.8-10.6,14.5-16h11.1c-7.8,8.2-15.5,16.5-22.8,24.2,44.9,44.9,89.2,89,133.9,133.7.2,0,1.7-.5,2.7-1.4,42-42,83.9-84,126-126,4.1-4.1,3.4-7.3-.4-11.1-6.1-6.2-11.8-12.9-17.7-19.3h8.9c24.5,24.9,16,23,39.2.8.3-.2.5-.5.7-.8h8.9c-4.1,4.6-7.9,9.6-12.2,13.9-11.3,11.3-11.5,11.2-.6,22.1,33.6,33.7,67.3,67.3,100.9,100.9,7.5,7.5,15.2,14.8,22,21.5,41.2-41.2,81.7-81.6,122.6-122.5h0c3.9-3.9,7.8-7.8,11.7-11.7-7.2-7.7-15-15.9-22.8-24.2h11.1c15.1,22.1,18.2,22.5,35.5,3.7,1-1,1.5-2.5,2.2-3.7h11.1c-7.7,8.3-15.4,16.6-22.1,23.8,3.3,3.3,6.5,6.6,9.8,9.8,41.4,41.6,82.4,82.8,123.2,123.8,43.6-43.7,87.7-87.9,132.3-132.6-6.8-7.9-14.2-16.4-21.6-24.8h8.9c24.2,24.8,16.4,22.8,39.2.8.2-.3.5-.6.7-.8h8.9c-7.4,8.5-14.7,17-22.3,25.7,2,2.3,3.5,4.4,5.3,6.2,40.6,40.7,81.4,81.2,121.8,122.1,7,7.1,10.5,2.7,15.1-1.9,39.6-39.7,79.2-79.3,118.8-118.9,2.3-2.3,4.2-4.9,6.6-7.8-8.2-8.8-16-17.1-23.7-25.4h11.1c4.9,5.4,9.5,11.1,14.9,15.9,1.6,1.4,6.6,1.5,8.1,0,5.3-4.8,9.8-10.6,14.6-16h11.1c-7.8,8.2-15.6,16.5-26.3,27.8,1,.8,1.9,1.6,2.9,2.3l-3.7,3.8-.5-.5c-45.6,45.3-90.3,89.6-134.1,133.1,43.4,43.5,87.6,87.8,132.3,132.7,1.8-1.6,3.7-3.3,5.7-5.1.7-.6,1.3-1.2,1.9-1.9,16.8-16.7,33.4-33.5,50.2-50,11-10.7,22.4-21.1,33.6-31.7v8.9c-26.7,26.5-53.3,53.1-80.1,79.4-6,5.9-4,9.8.9,14.5,26.5,26.2,52.8,52.6,79.3,78.9v8.9c-2.8-2.2-5.9-4.1-8.5-6.7-24.1-23.9-48-48-72.1-72-3.6-3.6-7.5-6.9-10.3-9.5-45.1,45.1-89.6,89.5-133,132.8,43.8,44,88.2,88.6,135.3,136,.2-.2.3-.3.5-.5l3.5,3.4c-.4.4-.3,1.4-.4,2.1-.8.8-1.6,1.6-2.4,2.4,2.6,2,5.3,3.9,8,5.9l-4.1,4.1-.3-.3c-6.1-6.2-9.8-6.3-16,0-39.7,40.2-79.6,80.1-119.9,119.8-6.6,6.5-5.5,10,.5,15.9.1.1.3.3.4.4h0c39.5,39.1,78.6,78.5,117.9,117.7,2.6,2.6,5.4,4.9,9,8,30.9-30.9,61.3-61.3,91.8-91.7v11.1c-26.4,26.3-52.6,52.8-79.2,78.9-5.9,5.8-5.9,9.4,0,15.2,26.6,26.1,52.9,52.5,79.2,78.9v11.1c-30.4-30.5-60.8-61-89.2-89.6-1.7,1.7-3.4,3.3-5.1,5-43.9,43.6-86.9,86.2-128.9,127.9,43.5,43.4,87.8,87.6,133,132.7,29.5-29.3,59.8-59.4,90.1-89.5v11.1c-2.8,2.3-5.8,4.4-8.4,7-22.4,22.3-44.8,44.6-67.2,67-11.1,11.1-11.3,11.2.2,22.5,25.1,24.8,50.2,49.4,75.4,74.2v11.1c-29-28.6-57.9-57.2-85.1-84-1.6-1.5-3.1-3.1-4.6-4.6-45.6,45.3-90.2,89.7-133.9,133.2,43.3,43.5,87.5,87.8,133.3,133.9,1.8-1.8,3.6-3.7,5.3-5.5l4.4,4.4h0c-4.3,4.3-4.1,7.4-1.6,10.8l-4,3.8c-.9-1.1-1.8-2.2-2.8-3.2-47.2,47.1-91.6,91.5-138.9,138.7,12.3,11.1,24.8,22.4,37.3,33.8h-11.1c-9.9-10.5-19.9-21-29.6-31.3-11.9,11.5-22.2,21.4-32.4,31.3h-8.9c11.3-12.4,22.7-24.7,33.7-36.7-44.8-44.7-89.3-89.2-132.2-132-44.3,44.1-89,88.6-133.8,133.2,10.5,11.3,21.6,23.4,32.8,35.6h-8.9c-10.2-10.5-20.3-21-31.5-32.5-11.1,11.8-20.8,22.1-30.6,32.5h-11.1c11.9-12.3,23.8-24.5,34.8-35.7-45.4-45.7-89.5-90-132.9-133.6-2.1,2.1-4.2,4.2-6.4,6.3-42.1,42-84.6,84.5-130,129.7,12,10.8,24.6,22,37.2,33.3h-11.1c-9.7-10.3-19.4-20.5-28.9-30.4-2.4,1-3.7,1.2-4.4,1.9-9.6,9.5-19.2,19-28.8,28.6h-8.9c11.2-12.4,22.5-24.7,32.7-36-3.9-3.9-7.9-7.9-11.8-11.8-40.8-40.9-81.1-81.3-121.8-122.1-.4.2-1.7.8-2.7,1.8-41.8,41.7-83.5,83.5-125.4,125.1-4.4,4.4-4.4,7.4,0,11.9,10.1,10.1,19.7,20.7,29.6,31.1h-8.9c-8.5-8.6-16.8-17.5-25.8-25.5-2.3-2-8.7-2.9-10.5-1.3-9.1,8.4-17.3,17.7-25.8,26.8h-11.1c11.7-12.2,23.4-24.3,34.6-35.9-45.2-45-89.8-89.4-133.3-132.8-43.8,43.6-88.3,88-135.8,135.3,12.1,10.9,24.7,22.1,37.3,33.4h-11.1c-10-10.5-19.9-21-30-31.6-11.7,11.5-21.9,21.6-32,31.6h-8.9c11.3-12.4,22.6-24.7,33.4-36.4-44.9-44.7-89.4-89.1-133.4-133-43.7,43.6-88.2,88.1-133.1,132.9,10.9,11.8,22.3,24.1,33.7,36.5h-8.9c-10.4-10.3-20.8-20.6-32.1-31.9-10.4,11.1-20.2,21.5-29.9,31.9h-11.1c11.9-12.3,23.8-24.5,34.3-35.3-45.6-45.7-89.8-90-136.8-137.2-1.4,1.8-2.7,3.8-4.2,5.9l-3.9-4h0c5.2-5.1,5.3-8.7.2-13.7-15.1-14.5-29.9-29.3-44.8-44v-8.9c16.8,15.9,33.5,31.9,49.4,47,1.9,1.8,3.8,3.7,5.7,5.5,45.3-45,89.6-89.1,133.3-132.6-44-44-88.4-88.5-135.6-135.8-17.1,18.2-35,37.3-52.9,56.4v-11.1c15.9-17.2,31.8-34.5,48.9-52.9-15-14.4-32-30.6-48.9-46.8v-11.1c18.5,18.3,37.1,36.6,55.7,55.1,2.4-1.8,4.1-2.7,5.3-3.9,41.5-41.4,82.8-83,124.5-124.2,6.8-6.7,2.2-9.9-2.1-14.2-38.1-38.1-76.1-76.1-114.1-114.2-4.1-4.1-8.4-7.9-13.1-12.3-4.3,4.1-7.8,7.4-11.2,10.7-15,14.5-30.1,29-45.1,43.5v-8.9c14.5-14.5,28.9-29.3,43.7-43.4,5.9-5.6,6-9.5,0-15.2-14.9-14.2-29.2-28.9-43.8-43.3v-8.9c18.8,17.9,37.5,35.7,54.8,52.2,3.6-3.6,7.2-7.2,10.8-10.7,41.7-41.4,82.5-82,122.8-122.1-43.8-43.7-88.1-88-133.5-133.2-17.9,17.6-36.4,36-55,54.3v-11.1c15.8-17.4,31.5-34.7,45.5-50.1-13.8-15-29.7-32.3-45.5-49.6v-11.1c17.8,19.2,35.6,38.3,52.6,56.7,47.5-47.6,91.9-92.1,135.3-135.6-43.6-43.7-88-88.2-132.9-133.3-2.6,2.4-5.9,5.3-9,8.4-15.4,14.8-30.7,29.5-46.1,44.3v-8.9c14.6-14.5,29.1-29.1,43.9-43.4,5.7-5.5,6.1-9.7.1-15.4-14.9-14.1-29.4-28.8-44-43.2v-8.9c16.7,15.9,33.4,31.8,49.5,47,2,1.9,4,3.8,6,5.7,45.2-45.1,89.6-89.3,133.1-132.7-44-44.1-88.4-88.6-136-136.1-17,18.3-34.8,37.5-52.6,56.6v-11.1c15.9-17.2,31.8-34.4,48.3-52.3-6.2-6.5-13.9-14.8-21.7-23h11.1ZM695.2,1003.6c6.6-6.5,2.5-10-1.9-14.3-39.4-39.3-78.7-78.7-118.1-118.1-2.7-2.7-5.8-5.2-6.8-6.2-45.4,45.4-89.8,89.8-133.3,133.3,43.1,43.4,87.2,87.9,131.6,132.6.9-.6,2.2-1.3,3.2-2.3,41.8-41.7,83.4-83.5,125.3-125h0ZM855.2,1137.7c43.6,43.9,87.7,88.2,131.3,132.1,43.9-43.7,88.2-87.8,131.8-131.3-44.4-44.5-88.5-88.7-131.6-131.9-43.8,43.6-88.3,88-131.5,131.1h0ZM277.1,2.9c7.1,7.3,11,6.1,17.6-.5,39.1-39.7,78.7-78.9,118.1-118.3,2.3-2.3,4.3-4.9,5.9-6.8-45-45-89.5-89.4-133.5-133.3-43.8,43.6-88.1,87.8-133.4,132.9,3.2,3.3,5.9,6.3,8.8,9.2,38.9,38.9,77.9,77.6,116.5,116.9h0ZM136.6,998.1c-43.8-44.1-88.2-88.6-130.9-131.6-43.9,43.6-88.4,87.8-132.6,131.7,43.6,43.6,87.8,87.8,131.3,131.2,44.6-44.3,89.2-88.6,132.3-131.4h0ZM977.3,998.4c-43.8-44-88.2-88.6-131.8-132.4-43.5,43.5-87.8,87.7-131.6,131.4,44.2,44.1,88.7,88.5,131.8,131.6,44.3-44,89-88.3,131.6-130.6h0ZM132,137.4c4.3,4.3,9,8.4,13.7,12.8,3-2.7,5.3-4.6,7.3-6.6,39.4-39.4,78.6-79.1,118.3-118.1,7.3-7.2,7.6-11.1.3-18.3-27.2-26.5-54-53.5-80.6-80.6-14.7-14.9-28.7-30.5-43-45.8-.9.7-1.9,1.4-2.8,2.2-1.5,1-3.1,1.8-4.4,3.1C99.8-73.1,59-32.1,17.8,8.6c-6.9,6.8-3.9,10.9,1.5,16.2,37.7,37.5,75.2,75.1,112.8,112.6h0ZM73.5,359.7c23.4,23.6,46.6,47.2,71.1,72,4.8-4.5,8.1-7.3,11.1-10.4,38.6-38.6,77-77.5,116-115.8,7-6.9,7.3-10.7.3-17.6-34.8-34.2-69-68.9-103.5-103.3-7.4-7.4-15.1-14.7-22.7-22.1-2.3,1.8-3.6,2.6-4.6,3.7-41.3,41.2-82.5,82.5-124,123.5-5.9,5.8-4.5,9.5.6,14.5,18.7,18.4,37.2,36.9,55.7,55.5h0ZM1115.1,583.5c5.1-5.1,4.6-8.8-.4-13.7-40.3-40-80.4-80.2-120.4-120.5-5.8-5.9-9.7-5.5-15.3.3-17.2,17.8-34.8,35.1-52.3,52.5-24.6,24.4-49.2,48.8-74.1,73.6,1.4,2.5,1.8,3.7,2.5,4.4,41.7,41.8,83.6,83.5,125.1,125.4,5.5,5.5,9.2,3.9,13.7-.6,40.4-40.5,80.7-81,121.2-121.4h0Z"/>
    </g>
  </g>
  <rect class="cls-7" x="38.6" y="61.6" width="429.1" height="171.4"/>
  <path class="cls-5" d="M408.8,233s0,0,0,0c-1.8-1.3-3.1-2.2-4.5-3.1-26.9-16.1-52.8-33.7-77.5-52.8-24.5-19-47.8-39.3-69.9-61-3.7-3.6-3.7-3.5-7.4-.1-15.1,13.8-30,28-45.6,41.3-32.3,27.5-66.9,51.8-103.4,73.4-.9.5-1.7,1.2-3.1,2.2,0,0,0,0,.1,0h311.3,0Z"/>
</svg>