<?xml version="1.0" encoding="UTF-8"?>
<svg id="Layer_1" data-name="Layer 1" xmlns="http://www.w3.org/2000/svg" xmlns:xlink="http://www.w3.org/1999/xlink" version="1.1" viewBox="0 0 172.3 185.3">
  <defs>
    <style>
      .cls-1 {
        fill: #82c674;
      }

      .cls-1, .cls-2, .cls-3, .cls-4, .cls-5, .cls-6, .cls-7, .cls-8, .cls-9, .cls-10, .cls-11 {
        stroke-width: 0px;
      }

      .cls-12 {
        clip-path: url(#clippath);
      }

      .cls-2 {
        fill: none;
      }

      .cls-3 {
        fill: #d9e477;
      }

      .cls-4 {
        fill: #e29b87;
      }

      .cls-5 {
        fill: #9bc2e7;
      }

      .cls-13 {
        clip-path: url(#clippath-1);
      }

      .cls-6 {
        fill: #faee4b;
      }

      .cls-7 {
        fill: #9ed6c7;
      }

      .cls-8 {
        fill: #75c153;
      }

      .cls-9 {
        fill: #9bce7d;
      }

      .cls-10 {
        fill: #dd5f7c;
      }

      .cls-11 {
        fill: #e9d742;
      }
    </style>
    <clipPath id="clippath">
      <rect class="cls-2" x="-852.4" y="-601.7" width="474.4" height="113.1"/>
    </clipPath>
    <clipPath id="clippath-1">
      <rect class="cls-2" x="25.3" y="15.2" width="147.1" height="154.9"/>
    </clipPath>
  </defs>
  <g class="cls-12">
    <g>
      <path class="cls-9" d="M296.9,6.1v54.6h-61.5c10.2-9.9,20.4-19.8,30.9-30-16.9-8.3-29.8-22.6-40.6-41.1-9.8,19.3-23.8,32.4-39.7,41.3,10.5,10.2,20.6,20,30.6,29.8h-58c-9.5-8.9-19-17.8-27.4-25.8C164.2,1.8,195.7-29.9,227.8-62.1c11.3,11.4,23,23.4,34.9,35.1,11.3,11.1,22.8,22.1,34.2,33.1h0Z"/>
      <path class="cls-11" d="M296.9-2.4V6.1c-11.4-11-22.9-22-34.2-33.1-11.9-11.8-23.6-23.7-34.9-35.1C195.7-29.9,164.2,1.8,131.3,35c8.4,7.9,17.9,16.9,27.4,25.8h-8.5c-9.7-8.7-19.3-17.5-28.8-26C157.8-1.7,192.1-35.9,228.4-72.1c.7.8,1.4,1.6,2.1,2.5,5,5.9,10.2,12.2,15.9,18,14.5,14.9,29.3,29.5,44,44.1,1.9,1.9,4.3,3.4,6.5,5.1Z"/>
      <path class="cls-6" d="M296.9-226.1v8.5c-22.3-22-44.6-44-65.6-64.7l-3.6-3.5c-35.1,34.9-69.5,69.1-103.1,102.6,33.4,33.5,67.4,67.6,102.7,103.1,1.4-1.4,2.7-2.8,4.1-4.3l3.4,3.4h0c-3.3,3.3-3.2,5.7-1.2,8.3l-3.1,2.9c-.7-.8-1.4-1.7-2.1-2.5C192.1-35.9,157.8-1.7,121.3,34.7c9.4,8.5,19.1,17.3,28.8,26h-8.5c-7.6-8.1-15.3-16.2-22.8-24.1-9.2,8.8-17.1,16.5-25,24.1h-6.8c8.7-9.5,17.5-19,26-28.3C78.4-2,44.1-36.2,11.1-69.2-23-35.3-57.5-1-92,33.4c8,8.7,16.7,18.1,25.3,27.4h-6.8c-7.8-8.1-15.7-16.2-24.3-25-8.5,9.1-16,17.1-23.5,25h-8.5c9.2-9.4,18.4-18.8,26.8-27.5C-138.1-1.9-172.1-36.1-205.5-69.7c-1.6,1.6-3.3,3.3-4.9,4.9C-242.8-32.4-275.6.3-310.5,35.1c9.3,8.3,19,17,28.7,25.6h-8.5c-7.5-7.9-15-15.8-22.2-23.4-1.9.8-2.8.9-3.4,1.4-7.4,7.3-14.8,14.6-22.2,22h-6.8c8.7-9.5,17.3-19,25.2-27.7-3-3-6.1-6.1-9.1-9.1-31.4-31.5-62.5-62.6-93.9-94-.3.2-1.3.6-2.1,1.4-32.2,32.1-64.3,64.3-96.6,96.4-3.4,3.4-3.4,5.7,0,9.1,7.8,7.8,15.2,15.9,22.8,23.9h-6.8c-6.6-6.6-12.9-13.5-19.9-19.6-1.7-1.5-6.7-2.2-8.1-1-7,6.5-13.3,13.7-19.9,20.6h-8.5c9-9.4,18-18.7,26.7-27.7-34.8-34.7-69.1-68.9-102.7-102.3-33.7,33.6-68,67.8-104.6,104.2,9.3,8.3,19,17.1,28.7,25.7h-8.5c-7.7-8.1-15.4-16.2-23.2-24.4-9,8.9-16.8,16.6-24.7,24.4h-6.8c8.7-9.5,17.4-19,25.7-28-34.6-34.5-68.9-68.7-102.8-102.4-33.7,33.6-67.9,67.8-102.5,102.4,8.4,9.1,17.2,18.6,26,28.1h-6.8c-8-7.9-16-15.9-24.8-24.6-8,8.6-15.5,16.6-23,24.6h-8.5c9.2-9.4,18.4-18.9,26.4-27.2-35.1-35.2-69.2-69.3-105.4-105.7-1.1,1.4-2.1,3-3.2,4.6l-3-3.1h0c4-3.9,4.1-6.7.1-10.5-11.6-11.2-23-22.6-34.5-33.9v-6.8c12.9,12.3,25.8,24.6,38.1,36.2,1.5,1.4,3,2.8,4.4,4.2,34.9-34.7,69-68.7,102.7-102.1-33.9-33.9-68.1-68.2-104.5-104.6-13.2,14.1-26.9,28.8-40.7,43.4v-8.5c12.3-13.3,24.5-26.5,37.7-40.8-11.6-11.1-24.6-23.6-37.7-36v-8.5c14.3,14.1,28.5,28.2,42.9,42.4,1.9-1.4,3.1-2,4.1-3,32-31.9,63.8-63.9,95.9-95.7,5.2-5.2,1.7-7.6-1.6-10.9-29.3-29.3-58.6-58.6-87.9-88-3.1-3.1-6.4-6.1-10-9.5-3.3,3.2-6,5.7-8.6,8.2-11.6,11.2-23.2,22.3-34.8,33.5v-6.8c11.2-11.2,22.2-22.5,33.7-33.4,4.6-4.3,4.7-7.3,0-11.7-11.5-10.9-22.5-22.2-33.8-33.4v-6.8c14.5,13.8,28.9,27.5,42.2,40.2,2.8-2.8,5.5-5.5,8.3-8.2,32.1-31.9,63.5-63.2,94.6-94.1-33.8-33.7-67.9-67.8-102.8-102.6-13.8,13.6-28.1,27.7-42.3,41.8v-8.5c12.1-13.4,24.3-26.7,35.1-38.6-10.6-11.6-22.8-24.9-35.1-38.2v-8.5c13.7,14.8,27.4,29.5,40.5,43.7,36.6-36.7,70.8-71,104.3-104.5-33.6-33.7-67.8-68-102.4-102.7-2,1.9-4.5,4.1-6.9,6.4-11.8,11.4-23.6,22.7-35.5,34.1v-6.8c11.3-11.1,22.4-22.4,33.8-33.4,4.4-4.2,4.7-7.5,0-11.8-11.5-10.9-22.6-22.2-33.9-33.3v-6.8c12.9,12.2,25.7,24.5,38.1,36.2,1.5,1.5,3.1,2.9,4.6,4.4,34.8-34.7,69-68.8,102.6-102.3-33.9-34-68.2-68.2-104.8-104.9-13.1,14.1-26.8,28.9-40.5,43.6v-8.5c12.2-13.2,24.5-26.5,37.2-40.3-4.8-5-10.7-11.4-16.7-17.7h8.5c11.5,17.1,13.9,17.4,27.3,2.8.7-.8,1.1-1.9,1.7-2.8h8.5c-6,6.4-11.9,12.8-18.1,19.5,1.7,2.1,2.9,3.9,4.4,5.5,31.1,31.2,62.3,62.2,93.3,93.5,4.5,4.5,7.1,3.5,11-.5,17.1-17.4,34.4-34.6,51.8-51.8,15.3-15.1,30.8-30.1,46.5-45.3-6.8-7.8-12.4-14.3-18.1-20.9h6.8c9.9,11,19.9,11.2,30.2.7.2-.2.3-.4.5-.7h6.8c-5.7,6.5-11.3,13.1-16,18.5,34.5,34.6,68.6,68.7,102.1,102.4,33.5-33.6,67.6-67.7,102-102.2-5.4-5.8-11.4-12.2-17.3-18.6h8.5c3.8,4.1,7.3,8.5,11.5,12.2,1.3,1.1,5.1,1.2,6.3.1,4.1-3.7,7.5-8.2,11.2-12.3h8.5c-6,6.4-12,12.7-17.6,18.7,34.6,34.5,68.7,68.6,103.2,103,.1,0,1.3-.4,2.1-1.1,32.4-32.3,64.7-64.7,97-97.1,3.2-3.2,2.6-5.6-.3-8.6-4.7-4.8-9.1-9.9-13.7-14.9h6.8c18.8,19.2,12.4,17.8,30.2.6.2-.2.4-.4.6-.6h6.8c-3.1,3.6-6.1,7.4-9.4,10.7-8.7,8.7-8.9,8.6-.5,17,25.9,26,51.8,51.9,77.8,77.8,5.8,5.8,11.7,11.4,17,16.5,31.8-31.7,62.9-62.9,94.4-94.4,3-3,6-6,9-9-5.6-5.9-11.6-12.3-17.6-18.6h8.5c11.6,17.1,14,17.3,27.3,2.8.7-.8,1.2-1.9,1.7-2.8h8.5c-5.9,6.4-11.9,12.8-17,18.4,2.5,2.5,5,5.1,7.5,7.6,31.9,32.1,63.5,63.8,94.9,95.4,33.6-33.7,67.6-67.7,101.9-102.2-5.3-6.1-11-12.6-16.6-19.1h6.8c18.6,19.1,12.6,17.6,30.2.7.2-.2.4-.4.5-.7h6.8c-5.7,6.5-11.3,13.1-17.2,19.8,1.5,1.8,2.7,3.4,4.1,4.8,31.3,31.3,62.7,62.5,93.8,94.1,5.4,5.5,8.1,2.1,11.6-1.5,30.5-30.5,61-61.1,91.5-91.6,1.8-1.8,3.2-3.8,5.1-6-6.3-6.8-12.3-13.2-18.3-19.6h8.5c3.8,4.1,7.3,8.6,11.5,12.3,1.2,1.1,5.1,1.1,6.2,0,4.1-3.7,7.6-8.1,11.3-12.3h8.5c-6,6.4-12,12.7-20.2,21.4.8.6,1.5,1.2,2.2,1.8l-2.9,2.9-.4-.4c-35.2,34.9-69.5,69-103.3,102.5,33.4,33.5,67.4,67.7,101.9,102.3,1.3-1.2,2.9-2.5,4.4-3.9.5-.5,1-.9,1.5-1.4,12.9-12.8,25.7-25.8,38.7-38.5,8.5-8.3,17.2-16.3,25.8-24.4v6.8c-20.6,20.4-41,41-61.8,61.2-4.6,4.5-3.1,7.5.7,11.2,20.4,20.2,40.7,40.5,61.1,60.8v6.8c-2.2-1.7-4.6-3.2-6.5-5.1-18.5-18.4-37-37-55.5-55.5-2.8-2.8-5.8-5.3-7.9-7.3-34.8,34.7-69,69-102.5,102.4,33.8,33.9,67.9,68.3,104.3,104.8.1-.1.3-.3.4-.4l2.7,2.6c-.3.3-.2,1.1-.3,1.6-.6.6-1.2,1.2-1.8,1.8,2,1.6,4.1,3.1,6.1,4.6l-3.2,3.1-.2-.2c-4.7-4.8-7.5-4.8-12.3,0-30.6,31-61.3,61.7-92.3,92.3-5.1,5-4.2,7.7.4,12.3l.3.3c30.4,30.1,60.6,60.5,90.8,90.7,2,2,4.1,3.7,6.9,6.2,23.8-23.8,47.3-47.2,70.8-70.7v8.5c-20.3,20.3-40.5,40.7-61,60.7-4.5,4.5-4.6,7.2,0,11.7,20.5,20.1,40.7,40.5,61.1,60.7v8.5c-23.4-23.5-46.8-47-68.7-69-1.3,1.3-2.6,2.6-3.9,3.9-33.8,33.6-66.9,66.4-99.3,98.5,33.5,33.4,67.7,67.5,102.5,102.2,22.8-22.6,46.1-45.8,69.4-69v8.5c-2.2,1.8-4.5,3.4-6.5,5.4-17.3,17.2-34.5,34.4-51.7,51.6-8.6,8.6-8.7,8.6.1,17.4,19.3,19.1,38.7,38.1,58.1,57.1h0ZM217.1-502.8c4-3.9,3.5-6.8-.3-10.6-31-30.9-62-61.8-92.8-92.9-4.5-4.5-7.5-4.3-11.8.2-13.2,13.7-26.8,27.1-40.3,40.5-18.9,18.8-37.9,37.6-57.1,56.7,1.1,1.9,1.3,2.8,1.9,3.4,32.1,32.2,64.4,64.3,96.4,96.6,4.2,4.3,7.1,3.1,10.6-.5,31.1-31.2,62.2-62.4,93.4-93.5h0ZM118.1-190.3c33.9-33.8,68-67.8,101.9-101.6-33.8-33.7-67.9-67.8-100.8-100.8-34.1,33.9-68.4,68-101.4,100.8,33.3,33.7,67.2,67.9,100.4,101.6ZM218.9-940.8c-33.1-33.1-67-67.1-100.6-100.7-33.7,34-67.6,68.2-101.3,102.2,33.1,33.3,67.1,67.5,100,100.6,34-34,68.2-68.3,101.9-102.1ZM118.3-622.2c33.6-33.6,67.7-67.7,100.5-100.6-33.9-34.4-67.9-68.8-100.7-102-33.8,33.6-68,67.6-101.4,100.9,33.7,33.7,67.8,67.9,101.6,101.7h0ZM117.9,25.9c33.8-33.7,67.9-67.6,101.5-101.1-34.2-34.2-68.2-68.3-101.4-101.6-33.7,33.6-68,67.8-101.3,101C50.4-42.1,84.4-7.9,117.9,25.9ZM112.5-616.4c-.7-.9-1.6-2.3-2.7-3.5-31.5-31.6-63.2-63-94.5-94.8-4.6-4.6-7.4-3.1-11.1.6-19.6,19.8-39.2,39.5-59,59.1-12.9,12.7-26.1,25.1-38.2,36.8,35.8,35.7,70.1,69.9,103.7,103.3,33.3-33.2,67.4-67.2,101.9-101.6h0ZM89-374.8c8.1-8.2,16.3-16.4,23.6-23.8-34.8-35-68.9-69.1-102-102.3-34,33.9-68.3,68.1-102.9,102.5.3.4,1.1,1.6,2,2.6,31.5,31.6,63.2,63,94.6,94.7,4.7,4.7,7.6,3.6,11.7-.6,24.2-24.5,48.5-48.7,72.8-73.1h0ZM111.1-831.3c-33.7-33.8-68.1-68.2-100.8-101-33.7,33.4-68.1,67.5-101.4,100.5,33.5,33.8,67.5,68,101.2,101.9,33.9-34,68.1-68.4,101.1-101.5h0ZM9.5-82.6c34.1-33.9,68.5-68,101.4-100.6-33.7-33.9-67.9-68.2-101.6-102-33.5,33.5-67.7,67.6-101.4,101.3C-58-150-23.7-115.8,9.5-82.6ZM10.4-945.3c33.6-33.8,67.6-68,101.6-102.1-33.9-34-68.1-68.2-101.6-101.8-34,33.9-68.2,68.1-102,101.8,33.7,33.8,67.9,68,102,102.1h0ZM6.3-506.8c-3.8-4.1-5.9-6.7-8.3-9-29.8-29.8-59.7-59.4-89.2-89.3-5.3-5.4-8.3-5.3-13.6,0-30.3,30.8-60.9,61.3-91.6,91.6-4.3,4.2-4.6,6.8-.3,11,31.1,30.8,62.1,61.7,92.9,92.8,5,5,7.9,4.2,12.4-.4,16.7-17.1,33.6-33.9,50.6-50.7,15.3-15.2,30.9-30.1,47.2-46h0ZM4.6-940.6c-.8-.9-2-2.5-3.3-3.9-31.3-31.4-62.8-62.7-93.9-94.3-4.7-4.8-7.3-2.9-11,.8-30.7,30.9-61.4,61.7-92.4,92.3-4.6,4.6-4.3,7.3.1,11.7,30.9,30.6,61.6,61.5,92.4,92.2,1.7,1.7,3.8,3.2,5.2,4.3,34.5-34.6,68.5-68.8,102.9-103.2h0ZM3-74.5c-34.1-34.3-68.2-68.6-102.5-103.1.5-.3-.1,0-.5.3-32.3,32.1-64.4,64.3-96.8,96.2-4.8,4.8-2.5,7.4,1.1,11,30.8,30.7,61.5,61.5,92.3,92.3,1.7,1.7,3.8,3.1,5.5,4.6C-63.5-7.7-29.7-41.7,3-74.5ZM3.3-724.1c-33.4-33.7-67.4-67.9-100.8-101.6-34,34.1-68.3,68.3-101.7,101.8,33.5,33.7,67.6,67.8,101,101.3,33.9-33.9,68.1-68.1,101.5-101.5h0ZM3.5-292c-33.5-33.6-67.5-67.7-101-101.3-33.9,33.9-68.2,68-101.1,100.9,33.6,33.9,67.6,68.3,100.9,101.9,33.6-33.7,67.6-67.8,101.2-101.4h0ZM-103.6-616.6c-.3-.4-.7-1.5-1.5-2.3-32.1-32.2-64.4-64.3-96.4-96.6-4.6-4.7-7.2-2-10.4,1.2-16.8,16.9-33.7,33.8-50.6,50.7-15.7,15.6-31.4,31.1-46.9,46.3,35.2,35,69.4,69.2,103,102.7,34-33.8,68.2-67.8,102.7-102h0ZM-106.4-179.2c5.1-5,1.9-7.7-1.5-11-30.3-30.3-60.7-60.6-91-91-2.1-2.1-4.5-4-5.3-4.7-35,35-69.2,69.2-102.7,102.7,33.2,33.5,67.2,67.7,101.4,102.1.7-.5,1.7-1,2.5-1.7,32.2-32.1,64.2-64.3,96.5-96.3h0ZM-127.2-374.4c8.2-8.2,16.6-16.2,23.9-23.2-35.2-35.4-69.3-69.7-103-103.6-33.6,33.4-67.8,67.4-102.6,102.1,1.6,1.7,3,3.5,4.6,5.1,30.7,30.7,61.6,61.4,92,92.3,5.2,5.2,8.1,4.7,12.9-.2,23.9-24.3,48.1-48.4,72.2-72.5h0ZM-206.3-730.3c33.9-33.9,68.2-68.1,102.1-102-33.5-33.5-67.5-67.6-101.2-101.2-34,34.1-68.2,68.3-101.8,102,33.5,33.6,67.7,67.9,100.9,101.2h0ZM-104.2-1048.5c-33.5-33.6-67.6-67.7-101.3-101.4-34,34-68.3,68.3-101.7,101.7,34.1,34.2,68.1,68.4,100.9,101.3,33.8-33.6,68.1-67.8,102-101.7h0ZM-215.5-934c5.2-5.2,3.3-8.4-.9-12.6-30.6-30.4-61.1-61-91.6-91.5-1.7-1.7-3.8-3.1-5.7-4.7-1.5,1.1-2.5,1.6-3.3,2.4-31.9,32-63.8,64-95.9,95.8-5,5-2.2,7.5,1.3,11,26,25.9,52,51.7,77.8,77.8,6.4,6.4,12,13.5,18,20.3,3.4-2.4,4.2-2.9,4.8-3.4,31.8-31.7,63.5-63.5,95.5-95h0ZM-211.2-507.8c-1.6-2-2.7-3.9-4.3-5.5-30.9-31-62-61.8-92.8-92.9-4.6-4.7-7.4-4-11.7.4-30.3,30.7-60.8,61.3-91.5,91.6-5.1,5-5,8,0,12.9,30.9,30.5,61.6,61.3,92.2,92.2,3.7,3.8,6.4,4.5,10.4.4,31-31.3,62.2-62.4,93.3-93.5,1.6-1.6,2.7-3.5,4.4-5.6h0ZM-216-69.7c4.6-4.6,5-7.8.1-12.5-19.7-19.3-39.2-38.7-58.5-58.4-12.7-12.9-24.8-26.4-37.5-39.9-3.9,3.2-5.1,3.9-6.1,4.9-31.6,31.5-63.1,63.2-94.8,94.6-4.6,4.6-3,7.3.8,11.1,26.8,26.7,53.4,53.5,80.1,80.2,5.8,5.8,11.7,11.3,17.7,17.1,2-1.6,3.5-2.5,4.7-3.6,31.1-31.1,62.2-62.4,93.4-93.4h0ZM-316.3-619.8c36.4-36.2,70.5-70.3,104.4-104.1-33.9-33.7-68.2-67.7-102.7-102-.4.3-1.9,1.1-3.1,2.3-31.8,31.7-63.6,63.5-95.5,95.2-4.6,4.6-1.9,7.2,1.3,10.5,23.7,23.7,47.6,47.3,71.1,71.2,8.7,8.9,16.7,18.4,24.4,27ZM-313.8-190c33.8-33.9,67.9-68.1,101.7-101.9-33.8-33.6-67.9-67.6-101.5-101.1-33.9,33.7-68.1,67.6-101.5,100.8,33.8,34.1,67.7,68.3,101.4,102.3h0ZM-318.8-615.5c-1.3-1.8-2.3-3.4-3.6-4.8-4.4-4.5-8.8-8.9-13.2-13.3-26.7-26.7-53.5-53.4-80.1-80.3-4.1-4.1-7-5.4-11.8-.6-30.8,31.1-61.8,62-92.8,92.9-3.2,3.2-6,5.7-1.3,10.4,31.9,31.6,63.6,63.4,95.2,95.2,3.4,3.4,5.8,3.3,9.1,0,31.4-31.6,63-63.1,94.5-94.7,1.4-1.4,2.5-3,3.9-4.8h0ZM-322.6-395.2c1.3-1.3,2.4-3,3.8-4.8-1.4-1.8-2.4-3.4-3.8-4.8-31.3-31.3-62.7-62.6-93.9-94.1-4.3-4.4-7-3.8-11,.3-31,31.3-62.1,62.4-93.4,93.4-3.9,3.9-4.1,6.5-.1,10.4,31.4,31.2,62.8,62.6,94.1,94,3.5,3.5,6,4.1,9.8.3,31.4-31.6,63-63.1,94.6-94.7h0ZM-322.4-827.1c3.9-3.9,2.9-6.4-.5-9.8-31.4-31.3-62.8-62.7-94.1-94.1-3.7-3.7-6.2-3.5-9.8.1-31.3,31.5-62.6,62.8-94.1,94.1-4.1,4-3.8,6.7,0,10.4,9.2,8.9,18.2,18,27.2,27,23.4,23.6,46.8,47.2,70.6,71.2,2.2-1.5,3.2-1.9,4-2.7,32.2-32.1,64.3-64.3,96.6-96.3h0ZM-323.9-1041.6c1.8-1.8,3.3-3.8,4.6-5.2-34.7-34.6-68.9-68.9-102.8-102.7-33.7,33.6-67.8,67.6-102.7,102.4,2.5,2.6,4.6,4.9,6.7,7.1,29.9,30,60,59.8,89.7,90,5.5,5.6,8.5,4.7,13.6-.4,30.2-30.6,60.6-60.8,91-91.2h0ZM-324.7-176.9c2.1-2.1,4-4.5,5.3-6-34.8-34.9-68.9-69-102.7-102.8-33.7,33.7-67.7,67.8-102.4,102.5,1.1,1.3,2,2.7,3.2,3.9,31.5,31.6,63.2,63.1,94.5,94.9,4.9,5,7.5,2.2,11-1.3,30.3-30.4,60.7-60.7,91-91.1h0ZM-430.8-70.8c5.6-5.5,1.7-8.2-1.8-11.6-30.4-30.4-60.8-60.6-90.9-91.2-5.1-5.1-7.9-5-12.9,0-29.9,30.3-60,60.5-90.4,90.4-5.5,5.4-6,8.7-.2,14.3,21.2,20.6,41.8,41.8,62.7,62.7,11.2,11.2,22.5,22.2,33.9,33.5,1.8-1.4,3.1-2.1,4-3,31.8-31.7,63.5-63.5,95.4-95.1h0ZM-431.1-286.7c4.5-4.5,3.5-7.2-.4-11.1-19.6-19.3-39.1-38.8-58.5-58.4-12.9-13.1-25.5-26.5-37.4-38.8-35.9,35.6-70.3,69.7-104.4,103.5,33.8,33.7,67.8,67.8,102.2,102.1,1.2-1,2.9-2,4.3-3.4,31.4-31.3,62.6-62.7,94.2-93.9h0ZM-431.6-501.8c4.3-4.3,5-7.2.4-11.7-31.3-31-62.4-62.2-93.5-93.3-1.3-1.3-3-2.4-4.9-3.9-2,1.6-3.9,2.8-5.4,4.3-30.8,30.7-61.5,61.5-92.4,92.1-4.5,4.5-5.3,7.5-.3,12.5,31,30.5,61.7,61.3,92.3,92.1,4.4,4.4,7.1,4.6,11.6,0,30.5-30.9,61.3-61.6,92.2-92.2h0ZM-432.7-716.9c5.4-5.3,5.7-8.2.3-13.5-26.8-26.3-53.1-53-79.7-79.6-5.8-5.8-11.7-11.3-17.5-17-1.8,1.4-2.7,2-3.6,2.8-31.8,31.7-63.5,63.5-95.5,95.1-4.5,4.5-3.4,7.3.5,11.1,14.4,14.1,28.7,28.4,42.9,42.8,18,18.1,35.9,36.4,54.8,55.5,3.7-3.4,6.2-5.7,8.6-8,29.7-29.8,59.3-59.7,89.3-89.2h0ZM-432.9-932.6c5.6-5.5,5.9-8.6.2-14.1-21-20.4-41.6-41.2-62.1-62.1-11.3-11.5-22.1-23.5-33.2-35.3-.7.5-1.4,1.1-2.1,1.7-1.1.8-2.4,1.4-3.4,2.4-31.6,31.5-63,63.1-94.8,94.4-5.3,5.3-3,8.4,1.1,12.5,29,28.9,57.9,57.8,86.9,86.7,3.3,3.3,6.9,6.5,10.6,9.9,2.3-2.1,4.1-3.5,5.6-5.1,30.4-30.4,60.5-60.9,91.2-91h0ZM-534.9-616.7c-1.1-1.3-2.2-2.6-3.3-3.8-31-31-62.1-61.8-92.8-92.9-5.4-5.4-8.4-5.1-13.6.2-30.2,30.6-60.6,60.9-91,91.3-1.8,1.8-3.4,3.7-4.3,4.8,34.6,34.7,68.8,69,102.7,103,33.5-33.5,67.6-67.6,102.4-102.5h0ZM-552.6-380.5c6.2-6.1,13.1-11.4,18.8-16.3-36.3-36.5-70.4-70.9-104.9-105.5-.7.6-1.9,1.4-2.9,2.4-31.8,31.7-63.5,63.5-95.4,95.1-4.8,4.8-2.7,7.4,1,11,30.6,30.5,61.3,60.9,91.6,91.7,5.3,5.4,8.3,5.3,13.6,0,25.9-26.3,52-52.4,78.3-78.3h0ZM-637.8-729.8c33.7-33.7,67.9-68,100.5-100.7-33.7-34.1-67.9-68.7-101.4-102.5l-101.1,101.1c33.9,33.9,68.2,68.2,102,102.1h0ZM-637.2-945.9c33.5-33.5,67.5-67.7,100.8-101-34.3-34.3-68.5-68.5-101.4-101.3-33.5,33.4-67.8,67.5-101.2,100.7,33.6,33.6,67.8,67.8,101.7,101.7h0ZM-536.7-183.4c-33.8-33.9-67.9-68.3-100.9-101.4-33.8,33.6-68.1,67.7-102.2,101.5,33.6,33.6,67.6,67.6,101.1,101.1,34.3-34.1,68.7-68.2,101.9-101.2h0ZM-646.5-935.2c4.6-4.6,1.9-7.2-1.3-10.4-30.8-30.7-61.7-61.4-92.3-92.3-4.4-4.5-7.2-4.6-11.7,0-30.6,30.9-61.4,61.6-92.1,92.4-1.8,1.8-3.3,3.8-4.5,5.2,34.4,34.5,68.4,68.7,102.8,103.1.8-.4,1.3-.6,1.7-1,32.4-32.3,64.8-64.7,97.3-96.9ZM-648-69.6c5.4-5.3,4.3-8.3-.4-12.9-30.3-30-60.4-60.3-90.6-90.4-2.1-2.1-4.5-4-6.6-5.8-34.6,34.6-68.6,68.5-102.2,102.2,34.3,34.5,68.3,68.6,102.7,103.2,1.5-1.3,3.5-2.9,5.3-4.6,30.6-30.6,61-61.3,91.8-91.6h0ZM-745.9-622.3c33.9-33.8,68.1-67.7,102-101.5-33.9-33.7-68.2-67.6-101.8-100.9-33.6,33.4-67.8,67.5-101.1,100.7,33.5,33.8,67.5,68.1,100.9,101.7ZM-644.5-507.1c-34.1-34.4-68-68.5-102.1-103-.4.3-1.5.8-2.2,1.6-32,31.9-63.9,63.8-96,95.6-4.7,4.6-2.7,7.4,1,11.1,23.4,23.2,46.6,46.6,69.9,69.9,9.2,9.1,18.5,18.1,27.6,27,34.9-34.9,68.9-69,101.9-102.1h0ZM-643.7-291.8c-33.9-33.8-68-67.9-101.6-101.6-34.1,34.1-68.3,68.1-101.3,101,33.7,34,67.7,68.3,101.1,102,33.8-33.7,67.9-67.6,101.8-101.4h0ZM-751.5-616.6c-.2-.3-.6-1.3-1.4-2.1-32.1-32.2-64.3-64.3-96.4-96.6-3.4-3.4-5.8-3.3-9.2.1-9.1,9.4-18.5,18.5-27.7,27.7-23.5,23.5-47,46.9-69.8,69.6,34.9,35.2,69,69.6,102.4,103.2,33.6-33.6,67.7-67.7,102.1-102.1h0ZM-765.4-384.3c5-4.9,10.8-9,15.6-13-36.2-36.3-70.3-70.4-104-104.2-34.2,34.2-68.3,68.3-102.7,102.7.5.6,1.2,1.7,2.2,2.7,31.5,31.6,63.1,63.1,94.5,94.8,4.5,4.5,7.4,4.2,11.8-.3,27.4-27.7,54.9-55.3,82.6-82.7h0ZM-751.9-1047.4c-33.8-33.7-68-67.8-102.1-101.9-33.7,33.7-68,67.9-101.8,101.8,33.9,33.9,68.2,68.2,101.9,102,33.9-33.9,68.2-68.1,102-101.8h0ZM-853.4-730.8c33.6-33.4,67.7-67.5,101.6-101.2-33.9-33.8-68.2-68.1-102.2-101.9-33.8,33.8-68,68.1-101,101.1,33.9,34.1,68.2,68.5,101.5,102.1h0ZM-854.3-83c34-33.6,68.4-67.6,101.4-100.2-33.7-34-67.8-68.4-101.3-102.1-33.6,33.6-67.7,67.6-101,100.8,34.2,34.4,68.3,68.7,100.8,101.4h0ZM-858.5-506.7c-1.2-2.1-1.5-3-2.1-3.6-32.1-32.2-64.3-64.3-96.3-96.7-4.3-4.4-7.1-2.8-10.6.6-31.1,31.2-62.2,62.4-93.5,93.4-3.6,3.6-3.9,6.2-.2,9.8,31.2,31.1,62.5,62.1,93.5,93.5,5,5,8.1,3.9,12.5-.6,19.5-19.9,39.3-39.5,59-59.2,12.5-12.4,25-24.7,37.7-37.3h0ZM-859.2-76.5c-.9-1.1-2-2.7-3.3-4.1-31.3-31.4-62.8-62.7-94-94.2-4.2-4.2-6.8-3.3-10.4.3-31.5,31.6-63.1,63.2-94.7,94.8-1.1,1.1-1.7,2.7-2.5,4,34.4,34.2,68.4,68.1,102.3,101.8,34.2-34.2,68.3-68.3,102.7-102.7h0ZM-963.4-836.2c35.7-35.6,69.8-69.7,103-102.8-33.9-34-68-68.2-102.4-102.7-.4.2-1.4.8-2.2,1.6-32,31.9-64,63.9-96.1,95.7-4,4-2.7,6.5.7,9.8,11.1,11,22.2,22.1,33.1,33.2,21.3,21.7,42.6,43.4,63.8,65.1h0ZM-861.1-291.3c-33.5-33.9-67.3-68.2-100.3-101.5-34,33.8-68.2,68-101.6,101.2,33.5,33.8,67.5,68,100.6,101.3,34.1-34,68.3-68.2,101.2-101h0ZM-961.7-622.2c33.9-34,68-68.1,101.2-101.4-33.7-33.9-67.8-68.2-101.3-101.9-33.9,33.7-68.2,67.7-102,101.4,34,33.9,68.1,68,102.1,102h0Z"/>
      <path class="cls-3" d="M208.9-80.9c4.1,4,3.8,6.5-.2,10.4-28.5,28.2-56.9,56.5-85,85-4.6,4.7-7.4,4.1-11.7-.2C84.2-13.9,56.3-41.9,28.3-69.6c-4.6-4.5-5.3-7.2-.2-12.2,28.2-27.7,56-55.8,83.9-83.7s3.7-3.4,5.9-5.4c1.8,1.5,3.5,2.5,4.8,3.8,28.8,28.7,57.4,57.5,86.3,86.1h0ZM155.4-46.2c7.6-6,10.4-20.6,3.8-28.6-12.7-15.5-26.7-29.9-41.2-46-14.5,16.3-28.6,30.9-41.3,46.7-6.8,8.5-3.1,22.7,5.5,28.9,8.6,6.1,18.2,4.6,26.6-4.3,1.9-2,4-3.8,6-5.7.8.6,1.5,1.3,2.3,1.9-4.1,6.7-8.2,13.4-12.5,20.5h27.6c-4.7-7.3-8.8-13.8-13-20.3.8-.7,1.6-1.5,2.4-2.2,1.9,1.8,4,3.6,5.8,5.5,8.6,8.9,19.6,10.4,28.1,3.6h0Z"/>
      <path class="cls-11" d="M141.6,60.7h-8.5c-11.4-17.6-13.6-17.9-27.4-3.9-1.2,1.2-2.2,2.6-3.3,3.9h-8.5c7.9-7.6,15.8-15.3,25-24.1,7.5,7.9,15.2,16,22.8,24.1h0Z"/>
      <path class="cls-3" d="M133,60.7h-30.7c1.1-1.3,2.1-2.6,3.3-3.9,13.8-14,16-13.7,27.4,3.9Z"/>
      <path class="cls-11" d="M219.5-75.2C185.9-41.8,151.7-7.8,117.9,25.9,84.4-7.9,50.4-42.1,16.8-75.9c33.3-33.2,67.6-67.4,101.3-101,33.2,33.3,67.2,67.3,101.4,101.6h0ZM208.8-70.5c3.9-3.9,4.2-6.4.2-10.4-28.9-28.6-57.6-57.4-86.3-86.1-1.3-1.3-3-2.4-4.8-3.8-2.2,2-4.1,3.6-5.9,5.4-27.9,27.9-55.7,56-83.9,83.7-5.1,5-4.4,7.6.2,12.2C56.3-41.9,84.2-13.9,112,14.2c4.3,4.4,7.1,4.9,11.7.2,28.2-28.5,56.5-56.8,85-85Z"/>
      <path class="cls-11" d="M100.1,38.1c4.4-4.2,5.1-7,.4-11.7C71.8-1.8,43.3-30.4,15-59c-3.8-3.8-6.1-3.6-9.7,0C-23.3-30.1-52-1.4-80.8,27.1c-4.2,4.1-3.4,6.6.4,10.4,7.7,7.5,14.8,15.5,22.2,23.3h-8.5c-8.6-9.3-17.2-18.7-25.3-27.4C-57.5-1-23-35.3,11.1-69.2,44.1-36.2,78.4-2,112.9,32.5c-8.5,9.2-17.2,18.7-26,28.3h-8.5c7.2-7.6,14.1-15.4,21.7-22.6Z"/>
      <path class="cls-9" d="M100.5,26.5c4.7,4.7,4,7.5-.4,11.7-7.5,7.2-14.5,15.1-21.7,22.6h-44.4c2.9-3.4,6-6.8,8.8-10.4C54.3,35.1,58.9,18.3,50.4.2c-7.5-15.8-24.7-16.7-34.6-2.4-1.7,2.5-3.3,5-5.5,8.5C7.3,2.1,5.3-1.2,2.9-4.2c-8.4-10.5-21.2-10.7-29.8-.4-6.6,7.9-7.9,17.3-7.2,27.2,1.1,15.8,10.4,27.2,20.4,38.2h-44.4c-7.4-7.8-14.6-15.8-22.2-23.3-3.8-3.7-4.6-6.2-.4-10.4C-52-1.4-23.3-30.1,5.3-58.9c3.6-3.6,5.9-3.9,9.7,0C43.3-30.4,71.8-1.8,100.5,26.5Z"/>
      <path class="cls-11" d="M50.4.2c8.5,18.1,3.9,34.8-7.6,50.1-2.7,3.6-5.8,6.9-8.8,10.4H-13.8c-9.9-11.1-19.3-22.4-20.4-38.2-.7-9.9.6-19.3,7.2-27.2,8.6-10.3,21.4-10.1,29.8.4C5.3-1.2,7.3,2.1,10.2,6.3,12.5,2.8,14,.3,15.8-2.2,25.6-16.5,42.9-15.6,50.4.2Z"/>
      <path class="cls-11" d="M-99.5-177.6C-65.2-143-31.1-108.7,3-74.5-29.7-41.7-63.5-7.7-97.9,26.9c-1.7-1.4-3.8-2.8-5.5-4.6-30.8-30.8-61.5-61.6-92.3-92.3-3.6-3.6-5.9-6.3-1.1-11,32.4-32,64.6-64.1,96.8-96.2.4-.4,1-.6.5-.3h0ZM-2.8-75.8c-1.7-2.1-3.1-4.1-4.8-5.8-27.7-27.7-55.6-55.3-83.1-83.2-5.5-5.6-8.7-5.6-14.3,0-27.4,28-55.2,55.7-83.1,83.3-4.6,4.5-4.6,7.2,0,11.7,28.3,27.9,56.5,56,84.5,84.3,4.6,4.6,7.3,4.3,11.7-.2C-63.8-14.2-35.4-42.5-7.1-70.8c1.4-1.4,2.5-3,4.3-5Z"/>
    </g>
  </g>
  <g>
    <rect class="cls-4" width="172.3" height="185.3"/>
    <g class="cls-13">
      <g>
        <path class="cls-8" d="M183.8,27.1c.9,1.1,1.7,2.3,2.8,3.8,1.5-2,2.5-3.6,3.9-5,3.2-3.3,8-3.1,10.9.5,4.2,5.2,4,11.1,1.7,16.9-2.8,7-8.4,11.6-14.8,15.3-.8.5-2.4.5-3.2,0-7.4-4.2-13.6-9.5-15.8-18.1-1.1-4.4-1-8.9,1.7-12.9,3.4-5.1,8.9-5.4,12.8-.6h0Z"/>
        <path class="cls-8" d="M186.6,111.5c4.2,7.5,9.4,13.2,17.5,17.2-7.9,4.2-13.4,9.7-17.5,17.5-4-7.9-9.6-13.2-17.2-17.5,7.6-4,13.1-9.4,17.2-17.2Z"/>
        <path class="cls-8" d="M184.7,165.6c.5.5,1.2,1,1.9,1.6.8-.7,1.5-1.2,2.1-1.9,11.5-11.5,23-23.1,34.6-34.5,1.5-1.5,1.5-2.4,0-3.9-11.6-11.6-23.2-23.2-34.8-34.8-1.5-1.5-2.4-1.5-3.9,0-11.5,11.6-23,23.1-34.6,34.5-1.7,1.7-1.6,2.8,0,4.4,11.6,11.5,23.1,23,34.6,34.5h0ZM184.3,89c1.9-2,3.1-1.4,4.8.2,10.7,10.8,21.5,21.6,32.3,32.4,1.8,1.8,3.6,3.5,5.3,5.4.5.6.9,1.2,1.5,1.9-.6.7-1,1.4-1.6,1.9-12.7,12.7-25.4,25.4-38.1,38.2-1.4,1.4-2.3,1.4-3.7,0-12.8-12.8-25.6-25.7-38.4-38.4-1.9-1.9-.8-2.9.5-4.2,12.5-12.5,25-24.9,37.4-37.5h0Z"/>
        <path class="cls-8" d="M184.6,252.5c.6.6,1.2,1,2,1.7.8-.6,1.5-1.1,2.1-1.7,11.5-11.5,23-23.1,34.6-34.5,1.6-1.6,1.5-2.6,0-4.2-11.6-11.4-23.1-23-34.5-34.5-1.6-1.7-2.6-1.5-4.1,0-11.5,11.6-23,23.1-34.5,34.5-1.7,1.6-1.5,2.6,0,4.2,11.6,11.5,23.1,23,34.6,34.5h0ZM184.3,176.1c1.6-1.6,2.7-1.9,4.4-.1,12.6,12.7,25.3,25.3,37.9,38,.5.5,1,1.2,1.5,1.9-.6.7-1,1.4-1.5,1.9-12.7,12.7-25.5,25.4-38.2,38.2-1.5,1.5-2.5,1.3-4-.1-12.6-12.7-25.3-25.3-37.9-37.9-1.6-1.6-1.5-2.6,0-4.2,12.6-12.5,25.2-25.1,37.7-37.7h0Z"/>
        <path class="cls-8" d="M223.4,43.5c1.8-1.8,1-2.8-.4-4.2-11.1-11.1-22.2-22.2-33.3-33.3-1-1-2-1.8-2.8-2.6-.6.2-.8.2-1,.4-12.1,12.1-24.2,24.1-36.3,36.2-1.3,1.3-1,2.3.2,3.4,2.7,2.6,5.4,5.3,8,8,9.4,9.5,18.9,19,28.5,28.7.9-.6,1.3-.9,1.6-1.2,11.8-11.8,23.6-23.7,35.5-35.5h0ZM184.6,1.6c1.4-1.5,2.5-1.6,3.9,0,12.6,12.7,25.3,25.4,37.9,38,1.4,1.4,1.8,2.4.2,3.9-13,12.9-26,25.9-39,38.8-.3.3-.7.5-1.6,1.1-9.6-9.7-19-19.2-28.5-28.7-3.6-3.7-7.3-7.3-11-10.9-1.6-1.5-1.7-2.6,0-4.2,12.7-12.6,25.4-25.3,38-38h0Z"/>
        <path class="cls-5" d="M169.4,128.7c7.6,4.3,13.2,9.6,17.2,17.5,4.1-7.8,9.6-13.3,17.5-17.5-8.1-4-13.3-9.7-17.5-17.2-4.1,7.8-9.6,13.2-17.2,17.2h0ZM184.7,92.1c1.5-1.5,2.4-1.5,3.9,0,11.6,11.6,23.2,23.2,34.8,34.8,1.5,1.5,1.6,2.4,0,3.9-11.6,11.5-23.1,23-34.6,34.5-.6.6-1.3,1.2-2.1,1.9-.7-.6-1.4-1-1.9-1.6-11.5-11.5-23-23.1-34.6-34.5-1.7-1.7-1.8-2.7,0-4.4,11.6-11.5,23.1-23,34.6-34.5h0Z"/>
        <path class="cls-5" d="M169.5,215.3c2,8.5,8.4,13.7,15.7,17.7.9.5,2.8.2,3.7-.5,3.8-2.9,7.8-5.8,10.9-9.4,4.7-5.6,6.3-12.2,3.5-19.3-1.2-3.1-3.4-5.5-7-5.9-3.5-.4-5.8,1.7-7.6,4.4-.6.9-1.2,1.8-2.2,3.2-.9-1.4-1.4-2.4-2-3.3-1.7-2.6-3.8-4.7-7.2-4.4-3.6.2-6.3,2.5-7.1,5.6-.9,3.8-1.6,8-.7,11.7h0ZM184.5,179.3c1.6-1.6,2.5-1.7,4.1,0,11.4,11.6,23,23.1,34.5,34.5,1.6,1.6,1.7,2.5,0,4.2-11.6,11.5-23.1,23-34.6,34.5-.6.6-1.4,1.1-2.1,1.7-.8-.6-1.4-1.1-2-1.7-11.5-11.5-23-23.1-34.6-34.5-1.6-1.6-1.7-2.5,0-4.2,11.6-11.4,23.1-23,34.5-34.5h0Z"/>
        <path class="cls-5" d="M169.3,40.6c2.2,8.6,8.5,13.9,15.8,18.1.8.5,2.4.4,3.2,0,6.4-3.6,12-8.2,14.8-15.3,2.3-5.8,2.5-11.7-1.7-16.9-2.9-3.6-7.7-3.8-10.9-.5-1.3,1.4-2.4,3-3.9,5-1.1-1.5-1.9-2.7-2.8-3.8-3.9-4.8-9.4-4.6-12.8.6-2.7,4-2.8,8.5-1.7,12.9ZM186.9,3.4c.9.8,1.9,1.7,2.8,2.6,11.1,11.1,22.2,22.2,33.3,33.3,1.4,1.4,2.2,2.3.4,4.2-11.9,11.8-23.7,23.6-35.5,35.5-.3.3-.7.5-1.6,1.2-9.6-9.7-19.1-19.2-28.5-28.7-2.7-2.7-5.3-5.4-8-8-1.2-1.2-1.5-2.1-.2-3.4,12.1-12,24.2-24.1,36.3-36.2.1-.1.4-.2,1-.4h0Z"/>
        <path class="cls-8" d="M182.4,82.5c2.2,2.1,2.1,3.3-.1,5.5-12.1,11.9-24,24-36,36-1,1-2,1.9-3.5,3.2-7.6-7.7-14.8-15.1-22.1-22.4-5.7-5.8-11.5-11.5-17.3-17.2-1.6-1.5-2-2.7-.2-4.5,12.9-12.7,25.7-25.6,38.5-38.4.3-.3.7-.6,1.4-1.1,2.4,2.3,4.7,4.5,7.1,6.9,10.7,10.7,21.4,21.5,32.2,32.1h0ZM141,121.9c1.4,1.4,2.4,1.7,3.9.1,11.6-11.6,23.2-23.2,34.8-34.8.5-.5,1-1.2,1.6-2-.6-.8-1.1-1.6-1.7-2.2-11.4-11.4-22.9-22.9-34.3-34.3-1.6-1.6-2.7-1.9-4.5-.1-11.4,11.5-22.8,22.9-34.3,34.3-1.7,1.7-1.7,2.8,0,4.5,11.6,11.4,23.1,23,34.5,34.5h0Z"/>
        <path class="cls-8" d="M182.2-4.8c2.3,2.2,2.2,3.5,0,5.7-12.4,12.1-24.5,24.5-36.8,36.7-.6.6-1.3,1.2-2.3,2.1-1.5-1.4-2.9-2.6-4.3-4-11.7-11.7-23.3-23.4-35-35-1.7-1.7-2.6-2.9-.4-5,12.8-12.6,25.5-25.4,38.2-38.1.4-.4.9-.6,1.4-1,.3-.2.6-.4.9-.7,4.4,4.8,8.8,9.6,13.4,14.2,8.3,8.4,16.6,16.8,25.1,25.1h0ZM140.6,34.2c.7.7,1.5,1.3,2.5,2.2.9-.8,1.7-1.3,2.4-2,11.4-11.3,22.7-22.7,34.1-34,1.6-1.6,1.9-2.7.1-4.5-11.6-11.4-23.1-23-34.5-34.5-1.7-1.7-2.7-1.4-4.2,0-11.4,11.5-22.8,22.9-34.3,34.3-1.8,1.8-1.7,3.1,0,4.8,11.3,11.2,22.6,22.5,33.8,33.7h0Z"/>
        <path class="cls-5" d="M133.8,165.2c.8-8.6,4.6-11,10.2-10.8,5.1.2,7.8,3.7,8.4,10.8,4.6.6,7.8,2.9,8.7,7.6.7,3.8-.7,6.9-3.9,8.9-4.8,2.9-9.1,1.6-12.9-2.7-.2.3-.5.6-.7.9h-.9c-.2-.1-.5-.4-.7-.6-3.8,3.7-8,5-12.6,2.3-3.5-2-4.6-5.4-3.9-9.2.9-4.6,4.2-6.5,8.5-7.2h0Z"/>
        <path class="cls-5" d="M139.2,95.9c-3.3,3.4-7.1,4.1-10.4,1.8-3.4-2.3-4.8-7.2-2.8-11,1-1.9,2.4-3.6,3.9-5.2,4.2-4.7,8.5-9.2,13.2-14.2,3.9,4.2,7.8,8.2,11.6,12.2,1.6,1.7,3.1,3.4,4.5,5.2,3.1,4,2.7,9.4-.9,12.4-3.5,2.9-7.8,2.4-11.5-1.6-.7-.7-1-1.8-1.5-2.7-.5.4-1,.7-1.5,1.1l-1.2.4c-.3-.2-.6-.4-.9-.6-.8.7-1.6,1.5-2.3,2.3h0Z"/>
        <path class="cls-5" d="M142.5,94.3l1.2-.4c.7,1.5,1.3,3.1,2.1,4.5.9,1.5,2.1,2.8,3.4,4.4h-11.7c1.7-2.9,3.3-5.7,5-8.5h0Z"/>
        <path class="cls-5" d="M138.2,189.9c1.5-3.3,2.9-6.7,4.4-10h.9c1.4,3.2,2.9,6.4,4.5,10h-9.8,0Z"/>
        <path class="cls-5" d="M138.2,15.6c1.5-3.4,2.9-6.6,4.4-9.7l.9-.4c1.5,3.3,3,6.5,4.6,10.1h-9.8Z"/>
        <path class="cls-5" d="M143.4,5.5l-.9.4c-.3-.2-.5-.4-.8-.6-3.4,3-7,4.8-11.5,2.7-3.4-1.6-5.3-4.5-5.1-8.5.2-3.8,2.1-6.6,5.8-7.7,2.3-.6,3.3-1.4,3.4-4.1.1-4.3,4.2-7.5,8.7-7.6,4.7,0,8.5,3.2,9,8.1.2,2.2,1,2.9,2.9,3.4,3.6,1,6,3.9,6.2,7.4.2,3.7-1,6.8-4.4,8.6-3.3,1.9-7.5,1.5-10.3-.8-.8-.6-1.5-1.3-2.2-1.9-.3.2-.5.4-.8.6h0Z"/>
        <path class="cls-8" d="M140.5,208.6c1.9,1.9,3,2,5,0,11.3-11.5,22.8-22.9,34.2-34.3.6-.6,1-1.2,1.7-2-.7-.8-1.3-1.7-2-2.4-11.3-11.3-22.6-22.4-33.7-33.8-2.1-2.1-3.2-1.9-5.2,0-11.1,11.3-22.3,22.4-33.6,33.5-2.2,2.1-1.8,3.4.1,5.3,11.2,11.1,22.4,22.3,33.5,33.5h0ZM140.9,132.6c.6-.6,1.4-1.1,2.2-1.7.8.6,1.4,1,2,1.6,12.6,12.5,25.1,25.1,37.7,37.6,1.9,1.9,1.6,3-.2,4.7-12.5,12.3-24.9,24.7-37.2,37.2-1.8,1.9-2.9,1.8-4.7,0-12.4-12.5-24.8-24.9-37.3-37.2-2-2-1.7-3.2.1-5,12.5-12.4,24.8-24.8,37.3-37.2h0Z"/>
        <path class="cls-7" d="M130.3,7.9c4.5,2.1,8.1.2,11.5-2.7.3.2.5.4.8.6-1.4,3.2-2.8,6.4-4.4,9.7h9.8c-1.6-3.6-3.1-6.8-4.6-10.1.3-.2.5-.4.8-.6.7.6,1.4,1.3,2.2,1.9,2.8,2.3,7,2.7,10.3.8,3.4-1.9,4.6-4.9,4.4-8.6-.2-3.5-2.7-6.4-6.2-7.4-1.9-.5-2.7-1.2-2.9-3.4-.4-5-4.2-8.2-9-8.1-4.5,0-8.6,3.3-8.7,7.6,0,2.7-1.2,3.5-3.4,4.1-3.6,1-5.6,3.9-5.8,7.7-.2,4,1.7,6.9,5.1,8.5h0ZM143.1,36.4c-1-.8-1.8-1.4-2.5-2.2-11.3-11.2-22.5-22.5-33.8-33.7-1.8-1.8-1.9-3,0-4.8,11.5-11.4,22.9-22.8,34.3-34.3,1.5-1.5,2.6-1.7,4.2,0,11.4,11.6,23,23.1,34.5,34.5,1.8,1.8,1.5,2.9-.1,4.5-11.4,11.3-22.7,22.7-34.1,34-.7.7-1.5,1.3-2.4,2h0Z"/>
        <path class="cls-7" d="M140.4,136.2c2-2,3.1-2.2,5.2,0,11.2,11.4,22.5,22.5,33.7,33.8.7.7,1.3,1.5,2,2.4-.7.8-1.1,1.4-1.7,2-11.4,11.4-22.9,22.8-34.2,34.3-1.9,2-3.1,1.9-5,0-11.1-11.3-22.3-22.4-33.5-33.5-1.9-1.9-2.3-3.2-.1-5.3,11.3-11.1,22.5-22.3,33.6-33.5h0ZM142.6,179.9c-1.5,3.3-2.9,6.7-4.4,10h9.8c-1.6-3.6-3-6.8-4.5-10.1.2-.3.5-.6.7-.9,3.7,4.3,8.1,5.6,12.9,2.7,3.2-2,4.6-5.1,3.9-8.9-.9-4.6-4.1-6.9-8.7-7.6-.6-7.1-3.3-10.5-8.4-10.8-5.5-.3-9.4,2.2-10.2,10.8-4.2.7-7.6,2.7-8.5,7.2-.7,3.8.4,7.2,3.9,9.2,4.7,2.6,8.9,1.4,12.6-2.3.2.2.5.4.7.6h0Z"/>
        <path class="cls-7" d="M140.8,48.6c1.8-1.8,2.9-1.5,4.5.1,11.4,11.5,22.9,22.9,34.3,34.3.6.6,1.1,1.4,1.7,2.2-.6.8-1,1.4-1.6,2-11.6,11.6-23.2,23.2-34.8,34.8-1.5,1.6-2.5,1.3-3.9-.1-11.5-11.6-23-23.1-34.5-34.5-1.7-1.7-1.7-2.8,0-4.5,11.5-11.4,22.9-22.8,34.3-34.3h0ZM142.5,94.3c-1.7,2.8-3.3,5.7-5,8.5h11.7c-1.3-1.6-2.5-2.9-3.4-4.4-.9-1.4-1.4-3-2.1-4.5.5-.4,1-.7,1.5-1.1.5.9.8,2,1.5,2.7,3.7,4,8,4.5,11.5,1.6,3.6-3,4-8.4.9-12.4-1.4-1.8-3-3.5-4.5-5.2-3.8-4.1-7.6-8.1-11.6-12.2-4.6,5-9,9.6-13.2,14.2-1.4,1.6-2.9,3.3-3.9,5.2-1.9,3.8-.6,8.7,2.8,11,3.4,2.3,7.1,1.6,10.4-1.8.8-.8,1.6-1.5,2.3-2.3.3.2.6.4.9.6h0Z"/>
        <path class="cls-5" d="M99.4,59c4.1-7.8,9.7-13.2,17.4-17.5-7.9-3.9-13.1-9.7-17.5-17.2-3.9,7.8-9.5,13.2-17.1,17.3,7.6,4.2,13.3,9.5,17.2,17.4ZM135.8,39.2c1.7,1.7,2.2,2.7.2,4.7-11.8,11.6-23.4,23.3-35.1,35-.3.3-.7.6-1.1.9-12.8-12.9-25.4-25.5-37.8-38,12.4-12.3,25.2-25,38.2-38,.3.2,1,.9,1.8,1.6,11.3,11.3,22.5,22.6,33.9,33.8h0Z"/>
        <path class="cls-8" d="M116.8,41.5c-7.6,4.3-13.3,9.7-17.4,17.5-3.9-7.9-9.6-13.2-17.2-17.4,7.6-4.1,13.2-9.5,17.1-17.3,4.3,7.5,9.6,13.3,17.5,17.2Z"/>
        <path class="cls-8" d="M99.1,174.6c13.9,14,27.7,27.8,42.3,42.6-2.3,2-5.1,4.1-7.6,6.6-10.6,10.5-21.2,21-31.6,31.6-2.1,2.2-3.3,2.2-5.5,0-12.2-12.4-24.6-24.7-36.9-37-1.5-1.5-2.3-2.5-.4-4.4,12.9-12.7,25.7-25.6,38.5-38.4.4-.4.9-.7,1.2-1h0ZM137.6,215.6c-.6-.7-1.4-1.5-2.2-2.3-11-11-22.1-22-33-33.1-2.2-2.2-3.4-2.5-5.7-.1-10.9,11.2-22,22.1-33,33.2-.9.9-1.7,1.8-2,2.2,12.9,13,25.5,25.8,37.8,38.1,12.6-12.4,25.3-25.1,38.2-37.8h0Z"/>
        <path class="cls-8" d="M140,42.1c-13.2,13.2-27,27-40.5,40.6-13.7-13.7-27.5-27.5-41.2-41.2,13.5-13.5,27.3-27.3,40.8-40.8,13.5,13.7,27.3,27.6,40.9,41.4h0ZM136,43.9c2-1.9,1.5-3-.2-4.7-11.3-11.2-22.6-22.5-33.9-33.8-.7-.7-1.5-1.3-1.8-1.6-13,12.9-25.8,25.6-38.2,38,12.4,12.5,25,25.2,37.8,38,.4-.4.8-.6,1.1-.9,11.7-11.7,23.3-23.4,35.1-35h0Z"/>
        <path class="cls-5" d="M101.7,165.3c-1.5,1.5-2.5,1.9-4.2.2-11.8-11.9-23.7-23.7-35.5-35.6-.2-.2-.4-.6-.5-.7,12.9-12.9,25.6-25.6,38-37.9,12.4,12.4,25.1,25.1,38.4,38.4-2.1,1.9-4.6,3.9-6.9,6.2-9.8,9.8-19.7,19.6-29.4,29.5ZM99.5,118.2c-1.2-1.7-2.2-3.3-3.3-4.6-3.4-3.9-8.8-3.8-11.8.4-1.2,1.7-2.1,3.9-2.5,5.9-1.6,9.8,3.3,16.8,10.6,22.3,7.5,5.7,6.1,5.5,13.4.3,2.2-1.6,4.3-3.5,6-5.6,4.6-5.7,7.1-12.1,4.5-19.5-1.1-3.1-3-5.7-6.5-6.5-3.8-.8-6.3,1.3-8.3,4.2-.6.9-1.2,1.8-2.1,3.1h0Z"/>
        <path class="cls-5" d="M82.3,216c7.7,4.1,13.1,9.6,17.2,17.3,4.1-7.8,9.6-13.3,17.4-17.4-8-4-13.3-9.8-17.6-17.4-3.9,8-9.7,13.1-17,17.5ZM135.4,213.2c.8.8,1.6,1.6,2.2,2.3-12.9,12.8-25.6,25.4-38.2,37.8-12.2-12.3-24.8-25.1-37.8-38.1.4-.4,1.2-1.3,2-2.2,11-11,22.1-22,33-33.2,2.3-2.4,3.5-2.1,5.7.1,10.9,11.1,22,22.1,33,33.1h0Z"/>
        <path class="cls-8" d="M106,142.6c-7.3,5.2-5.9,5.4-13.4-.3-7.3-5.5-12.3-12.5-10.6-22.3.3-2.1,1.3-4.2,2.5-5.9,3-4.2,8.4-4.3,11.8-.4,1.2,1.3,2.1,2.9,3.3,4.6.8-1.2,1.4-2.2,2.1-3.1,2-2.9,4.5-5,8.3-4.2,3.5.8,5.4,3.3,6.5,6.5,2.6,7.4.1,13.8-4.5,19.5-1.7,2.1-3.8,4-6,5.6h0Z"/>
        <path class="cls-5" d="M67.5,78.7c3.8.7,5.7,3.5,6.4,7.2.6,3.4-1.2,7-4.2,8.8-3,1.8-7.3,1.5-10.1-.6-.8-.7-1.6-1.4-2.5-2.1-.3.2-.6.4-.8.6h-.8c-.3,0-.6-.2-.9-.4-.7.6-1.4,1.3-2.2,1.8-2.9,2.2-7.2,2.4-10.4.5-3.1-1.8-4.5-5-3.9-8.8.6-3.8,2.7-6.3,6.5-7.1,2-.4,2.5-1.4,2.6-3.3.3-4.8,3.6-7.9,8.2-8.1,5.2-.2,8.6,2.5,9.3,7.6.2,2,.3,3.4,2.8,3.8h0Z"/>
        <path class="cls-5" d="M72.6-1.5c2.7,3.2,1.5,9.2-1.6,11.6-3.4,2.7-7.8,2.1-11.3-1.5-.7-.8-1.6-1.4-2.3-2.2-.3.2-.5.4-.8.5h-1c-.4-.2-.7-.4-1.1-.7-.7.7-1.4,1.4-2.1,2.2-3.5,3.8-7.5,4.5-10.9,2-3.5-2.6-5-8.1-2.2-11.6,5.1-6.4,10.8-12.3,16.6-18.9,5.9,6.5,11.6,12.3,16.7,18.6h0Z"/>
        <path class="cls-5" d="M71.5,171.2c2.6,3,3.2,7.8,1.3,11-1.8,2.9-4.5,4.4-7.9,3.6-1.8-.4-3.5-1.6-5-2.6-1-.6-1.7-1.7-2.5-2.6-.4.2-.7.5-1.1.7h-.8c-.3-.1-.6-.4-.9-.6-.8.7-1.6,1.4-2.3,2.1-3.6,3.7-8,4.3-11.3,1.6-3.3-2.7-4.2-8.5-1.3-12.1,3.8-4.7,8.1-9.1,12.2-13.5,1.2-1.4,2.5-2.7,4.4-4.7,1.3,1.6,2.5,3.1,3.7,4.5,3.9,4.2,7.8,8.4,11.6,12.7h0Z"/>
        <path class="cls-5" d="M61.6,189.9h-11.4c1.8-2.9,3.5-5.7,5.2-8.5h.8c1.8,2.7,3.5,5.5,5.4,8.5h0Z"/>
        <path class="cls-8" d="M99.7,169.7c-13.7-13.7-27.5-27.6-41.4-41.5.4-.4,1-1.2,1.8-1.9,12.2-12.3,24.6-24.5,36.7-36.8,2.1-2.1,3.3-2.3,5.5,0,12.4,12.6,25,25,37.4,37.5.5.5.9,1,1.3,1.5-14,14.1-27.8,27.8-41.3,41.3h0ZM62,129.9c11.8,11.9,23.7,23.7,35.5,35.6,1.7,1.7,2.7,1.3,4.2-.2,9.8-9.9,19.6-19.7,29.4-29.5,2.3-2.2,4.7-4.3,6.9-6.2-13.3-13.3-26-26-38.4-38.4-12.4,12.4-25.1,25.1-38,37.9.1.2.3.5.5.7Z"/>
        <path class="cls-5" d="M60.9,102.9h-10c1.5-3.3,3.1-6.7,4.6-10.1h.8c1.5,3.3,3.1,6.7,4.6,10.1Z"/>
        <path class="cls-5" d="M58.7,11.3c.8,1.3,1.9,2.5,3.3,4.2h-11.5c1.8-2.9,3.5-5.7,5.1-8.5h1c.7,1.4,1.3,3,2.2,4.3Z"/>
        <path class="cls-7" d="M92.3,82.8c2,2,1.8,3.1,0,5-11.4,11.3-22.8,22.7-34.1,34-.6.6-1.3,1.1-2.1,1.8-.8-.6-1.5-1.1-2-1.6-11.5-11.5-23-23.1-34.6-34.5-1.8-1.8-1.5-2.9,0-4.5,11.5-11.4,22.9-22.8,34.3-34.3,1.7-1.8,2.8-1.5,4.5.1,11.3,11.4,22.6,22.8,34.1,34h0ZM59.6,94.2c2.7,2.1,7,2.3,10.1.6,3-1.8,4.8-5.4,4.2-8.8-.6-3.7-2.5-6.6-6.4-7.2-2.5-.4-2.6-1.9-2.8-3.8-.6-5.1-4.1-7.8-9.3-7.6-4.6.2-7.8,3.3-8.2,8.1-.1,1.9-.6,2.9-2.6,3.3-3.8.7-5.9,3.3-6.5,7.1-.6,3.8.9,7,3.9,8.8,3.2,1.9,7.4,1.7,10.4-.5.8-.6,1.5-1.2,2.2-1.8.3.2.6.4.9.6-1.5,3.4-3.1,6.7-4.6,10.1h10c-1.5-3.4-3.1-6.8-4.6-10.2.3-.2.6-.4.8-.6.8.7,1.6,1.4,2.5,2.1h0Z"/>
        <path class="cls-7" d="M92.4,170c1.7,1.6,1.8,2.7,0,4.5-11.4,11.3-22.7,22.7-34,34-.7.7-1.5,1.3-2.4,2.1-.9-.7-1.6-1.1-2.3-1.8-11.5-11.5-23-23-34.6-34.5-1.7-1.6-1.4-2.7.1-4.2,11.4-11.3,22.8-22.6,34-34,2.1-2.1,3.4-1.8,5.3.2,11.2,11.3,22.5,22.6,33.8,33.8h0ZM64.9,185.8c3.4.8,6.1-.8,7.9-3.6,1.9-3.1,1.4-8-1.3-11-3.8-4.3-7.8-8.4-11.6-12.7-1.3-1.4-2.4-2.9-3.7-4.5-1.9,2.1-3.1,3.4-4.4,4.7-4.1,4.5-8.4,8.8-12.2,13.5-3,3.7-2.1,9.4,1.3,12.1,3.3,2.7,7.7,2.1,11.3-1.6.7-.7,1.5-1.4,2.3-2.1.3.2.6.5.9.7-1.7,2.8-3.4,5.6-5.2,8.5h11.4c-1.8-2.9-3.6-5.8-5.4-8.6.4-.2.7-.5,1.1-.7.8.9,1.5,1.9,2.5,2.6,1.6,1.1,3.2,2.2,5,2.6Z"/>
        <path class="cls-8" d="M92.5,174.5c1.8-1.7,1.6-2.8,0-4.5-11.3-11.2-22.6-22.4-33.8-33.8-1.9-1.9-3.2-2.3-5.3-.2-11.3,11.4-22.6,22.7-34,34-1.5,1.5-1.8,2.6-.1,4.2,11.6,11.4,23.1,23,34.6,34.5.6.6,1.4,1.1,2.3,1.8.9-.8,1.7-1.4,2.4-2.1,11.3-11.3,22.6-22.7,34-34h0ZM55.6,131.1c13.8,13.9,27.5,27.7,41.2,41.6-13.3,13.4-27.1,27.1-41.1,41.2-3.7-3.6-7.4-7.2-11.1-10.9-9.4-9.4-18.8-18.8-28.2-28.2-1.5-1.5-2.3-2.6-.4-4.5,13-12.8,25.8-25.7,38.7-38.6.3-.3.7-.5.9-.6h0Z"/>
        <path class="cls-8" d="M55.9,36.4c1-.8,1.8-1.4,2.5-2.2C69.7,23,80.9,11.7,92.3.5c2-2,1.6-3.2-.2-5-11.3-11.2-22.6-22.5-33.8-33.8-1.8-1.8-2.9-1.8-4.7,0C42.2-26.8,30.8-15.4,19.3-4.1c-1.5,1.5-1.8,2.5-.1,4.2,11.5,11.4,22.9,22.8,34.3,34.2.7.7,1.5,1.3,2.4,2ZM95.5-4.3c1.3,1.3,2.4,2.4.5,4.2-13.1,13-26.2,26.1-39.3,39.1-.2.2-.4.2-.7.4C42.2,25.5,28.5,11.7,14.6-2.2c.5-.6,1.1-1.4,1.8-2.1,12.4-12.4,24.8-24.8,37.2-37.3,1.8-1.9,2.9-1.8,4.7,0,12.4,12.5,24.8,24.9,37.2,37.3h0Z"/>
        <path class="cls-7" d="M92.1-4.5c1.8,1.8,2.2,3,.2,5-11.4,11.2-22.6,22.5-33.9,33.7-.7.7-1.5,1.3-2.5,2.2-.9-.8-1.7-1.3-2.4-2C42.1,23,30.7,11.5,19.2.1c-1.7-1.7-1.4-2.7.1-4.2,11.5-11.4,22.9-22.8,34.3-34.3,1.8-1.8,2.9-1.8,4.7,0,11.2,11.3,22.5,22.6,33.8,33.8h0ZM59.6,8.5c3.6,3.7,7.9,4.3,11.3,1.5,3-2.4,4.2-8.4,1.6-11.6-5.2-6.2-10.8-12.1-16.7-18.6-5.8,6.5-11.5,12.4-16.6,18.9-2.8,3.5-1.3,9.1,2.2,11.6,3.5,2.5,7.5,1.8,10.9-2,.7-.7,1.4-1.4,2.1-2.2.4.2.7.5,1.1.7-1.7,2.8-3.4,5.6-5.1,8.5h11.5c-1.4-1.7-2.5-2.9-3.3-4.2-.9-1.4-1.4-2.9-2.2-4.4.3-.2.5-.4.8-.5.8.7,1.6,1.4,2.3,2.2h0Z"/>
        <path class="cls-8" d="M58.1,121.8c11.4-11.3,22.7-22.7,34.1-34,1.9-1.8,2.1-3,0-5-11.4-11.3-22.8-22.6-34.1-34-1.6-1.7-2.8-1.9-4.5-.1-11.4,11.5-22.8,22.9-34.3,34.3-1.6,1.6-1.9,2.7,0,4.5,11.6,11.4,23.1,23,34.6,34.5.6.6,1.2,1,2,1.6.8-.6,1.5-1.1,2.1-1.8h0ZM97.1,85.2c-13.7,13.6-27.5,27.3-41.2,40.9-13.5-13.6-27.2-27.4-40.7-41,13.4-13.4,27.3-27.1,40.8-40.6,13.6,13.5,27.4,27.1,41.1,40.7h0Z"/>
        <path class="cls-8" d="M-29.1,216.3c13.9-13.9,27.7-27.7,41.4-41.4,13.6,13.6,27.3,27.4,42,42.1-1.9,1.6-4.3,3.2-6.3,5.2-11.2,11.1-22.3,22.2-33.3,33.4-1.8,1.8-2.9,1.9-4.7.1-12.7-12.8-25.4-25.5-38.1-38.2-.4-.4-.7-.9-.9-1.1h0ZM10.3,179.2c-11.4,11.6-23,23.1-34.5,34.5-1.6,1.6-1.7,2.6,0,4.2,11.6,11.5,23.2,23.2,34.8,34.7.5.5,1.2,1,1.9,1.5.7-.6,1.4-1.1,1.9-1.6,11.5-11.5,23-23.1,34.6-34.5,1.8-1.8,1.6-2.8,0-4.4-11.5-11.4-22.9-22.8-34.3-34.3-1.5-1.5-2.5-1.9-4.2-.1h0Z"/>
        <path class="cls-8" d="M12.4,146c-4.2-7.4-9.5-13-17.2-17.1,7.5-4.3,13.3-9.4,17.1-17.5,4.1,7.9,9.6,13.3,17.2,17.4-7.4,4.3-13.1,9.6-17.1,17.3Z"/>
        <path class="cls-5" d="M10.2,5c1.8-1.8,2.8-1.5,4.4.1,11.3,11.4,22.7,22.7,34,34.1.7.7,1.3,1.5,2,2.4-.7.8-1.1,1.4-1.7,2-11.4,11.4-22.9,22.9-34.2,34.3-1.7,1.7-2.8,2.1-4.7.1C-1.2,66.6-12.5,55.3-24,44c-1.8-1.8-2-2.8-.1-4.7C-12.6,28-1.1,16.5,10.2,5ZM-5.4,38.2c1.4,10,8.3,15.7,16.3,20.4,1,.6,3.1.2,4-.5,3.6-2.8,7.3-5.6,10.3-9,4.4-5,6.1-11,4.4-17.6-1-3.8-2.9-6.9-7-7.7-4.1-.8-6.7,1.4-8.6,4.8-.4.7-.9,1.3-1.8,2.5-1.1-1.6-1.9-2.9-2.8-4-3.5-4.5-8.7-4.6-12.2-.2-2.7,3.3-3.3,7.3-2.7,11.4h0Z"/>
        <path class="cls-5" d="M13.8,91.8c11.9,11.7,23.7,23.6,35.6,35.4.5.5.8,1.1,1.2,1.7-.6.7-1.1,1.4-1.6,1.9-11.5,11.5-23.1,23-34.5,34.6-1.6,1.6-2.6,1.6-4.2,0-11.6-11.6-23.2-23.2-34.8-34.8-1.4-1.4-1.3-2.4,0-3.7,11.8-11.7,23.5-23.5,35.4-35.2.5-.5,2.5-.5,3,0h0ZM-4.8,128.8c7.7,4.2,13,9.7,17.2,17.1,4.1-7.6,9.7-12.9,17.1-17.3-7.6-4.1-13.2-9.5-17.2-17.4-3.8,8.1-9.6,13.2-17.1,17.5Z"/>
        <path class="cls-5" d="M14.5,179.3c11.4,11.5,22.8,22.9,34.3,34.3,1.7,1.6,1.9,2.7,0,4.4-11.6,11.4-23,23-34.6,34.5-.5.5-1.2,1-1.9,1.6-.7-.6-1.4-1-1.9-1.5-11.6-11.6-23.2-23.2-34.8-34.7-1.6-1.6-1.5-2.6,0-4.2,11.6-11.4,23.1-23,34.5-34.5,1.7-1.7,2.7-1.4,4.2.1h0ZM-5.3,212.5c1.1,10.1,8.2,15.9,16.4,20.6.7.4,2.1.2,2.9-.2,5.4-3.1,10.3-6.9,13.4-12.4,3.3-5.9,4.3-12.1.7-18.3-3.1-5.5-9.1-5.8-13-.8-.9,1.1-1.7,2.4-2.8,4.1-1.1-1.6-1.8-2.7-2.7-3.8-4-5.2-10.2-5.1-13.1.7-1.5,3-2.3,6.9-1.9,10.2h0Z"/>
        <path class="cls-8" d="M-2.7,26.9c3.6-4.3,8.8-4.2,12.2.2.9,1.1,1.7,2.4,2.8,4,.8-1.2,1.4-1.8,1.8-2.5,1.9-3.4,4.6-5.6,8.6-4.8,4.1.8,6,3.9,7,7.7,1.7,6.6,0,12.7-4.4,17.6-3,3.4-6.7,6.2-10.3,9-1,.7-3.1,1.1-4,.5-8-4.7-14.9-10.5-16.3-20.4-.6-4.1,0-8,2.7-11.4h0Z"/>
        <path class="cls-8" d="M12.5,82.4C-.9,68.8-14.8,54.9-28.5,41.2-15.2,27.9-1.4,14.1,12.3.4c13.7,13.7,27.5,27.5,41.2,41.1-13.7,13.6-27.5,27.3-41,40.8h0ZM10.2,5C-1.1,16.5-12.6,28-24.1,39.3c-1.9,1.9-1.7,2.9.1,4.7C-12.5,55.3-1.2,66.6,10.1,78.1c1.9,2,3,1.6,4.7-.1,11.4-11.5,22.8-22.9,34.2-34.3.6-.6,1-1.2,1.7-2-.7-.9-1.3-1.7-2-2.4C37.3,27.9,25.9,16.6,14.6,5.2c-1.6-1.6-2.6-1.9-4.4-.1Z"/>
        <path class="cls-8" d="M12.4,169.6c-13.5-13.6-27.2-27.4-41.3-41.7,9.2-9.2,18.7-18.6,28.2-28.1,3.7-3.7,7.5-7.4,11.2-11.2,1.3-1.4,2.3-1.4,3.7,0,12.9,13,25.9,26,38.9,39,.3.3.5.7.6.8-13.9,13.9-27.6,27.6-41.2,41.2h0ZM-24.6,130.7c11.6,11.6,23.3,23.1,34.8,34.8,1.6,1.6,2.6,1.6,4.2,0,11.5-11.6,23-23.1,34.5-34.6.6-.6,1-1.2,1.6-1.9-.4-.6-.7-1.2-1.2-1.7-11.8-11.8-23.6-23.7-35.6-35.4-.5-.5-2.5-.5-3,0-11.8,11.7-23.6,23.4-35.4,35.2-1.3,1.3-1.5,2.3,0,3.7h0Z"/>
        <path class="cls-7" d="M-28.6,136.1c11.2,11.4,22.5,22.6,33.8,33.8,1.8,1.8,1.9,2.9,0,4.7-11.4,11.3-22.7,22.7-34.1,34-.7.7-1.5,1.3-2.4,1.9-.8-.7-1.5-1.1-2-1.7-11.4-11.4-22.8-22.9-34.4-34.2-1.8-1.7-2-2.8,0-4.7,11.4-11.2,22.6-22.4,33.8-33.8,2-2,3.2-2.2,5.3-.1h0ZM-44.7,181.9c3.1,1.7,7.6,1.3,10.4-.9.7-.6,1.3-1.2,2-1.8.3.2.5.4.8.6-1.5,3.4-3,6.7-4.6,10.2h9.9c-1.6-3.6-3.1-6.9-4.6-10.2.3-.2.6-.3.9-.5.5.5,1,.9,1.5,1.4,3,2.7,7,3.3,10.5,1.6,3.1-1.5,5-4.9,4.7-8.5-.3-4.1-2.6-7-6.9-7.9-2-.4-2.2-1.4-2.3-3.1-.4-4.9-3.8-8.2-8.4-8.3-5.1-.1-8.7,3-9.1,8.2-.2,1.9-.7,2.7-2.7,3.1-4,.9-6.3,3.9-6.5,7.9-.2,3.6,1.2,6.5,4.5,8.3h0Z"/>
        <path class="cls-7" d="M-29.2-38.7C-17.7-27.1-6.1-15.5,5.5-3.9c1.3,1.3,1.7,2.2.2,3.7C-6.3,11.7-18.2,23.7-30.3,35.7c-.2.2-.6.3-1.4.8-9.7-9.8-19.3-19.4-28.9-29.1-2.4-2.4-4.8-5-7.3-7.3-1.5-1.4-1.6-2.4-.1-3.9,11.6-11.6,23.2-23.1,34.8-34.8,1.4-1.4,2.5-1.6,4,0h0ZM-48.8,2.6c1.4,4.7,6.6,7.4,11.2,5.7,1.9-.7,3.6-2.1,6.5-3.8-.1.3-.3.6-.4.9-1.7,3.9-3.2,7.1-4.6,10.2h9.9c-1.6-3.5-3.1-6.7-4.6-9.9.3-.2.6-.4,1-.6.5.4,1.1.8,1.5,1.3,2.9,2.8,6.2,3.3,9.8,1.7,3.7-1.6,5.5-4.9,5.2-8.8-.3-4-2.3-6.5-6.6-7.7-1.9-.5-2.4-1.6-2.5-3.4-.5-5-3.7-8-8.6-8.1-4.9,0-8.5,3-8.9,8.1-.2,2.1-.9,2.9-2.9,3.5-5,1.4-7.5,6.1-6,11h0Z"/>
        <path class="cls-8" d="M-31.2,210.6c.9-.7,1.7-1.2,2.4-1.9,11.4-11.3,22.7-22.7,34.1-34,1.9-1.8,1.7-3,0-4.7-11.3-11.2-22.6-22.5-33.8-33.8-2.1-2.1-3.3-1.9-5.3.1-11.2,11.4-22.5,22.6-33.8,33.8-1.9,1.9-1.7,2.9,0,4.7,11.5,11.4,22.9,22.8,34.4,34.2.6.6,1.2,1,2,1.7h0ZM-33.5,132.6c1.4-1.4,2.5-2,4.3-.3,12.9,13,25.9,26,38.9,39,.2.2.3.6.8,1.4-5.1,5.1-10.2,10-15.2,15-8,7.9-15.9,15.9-23.8,23.9-1.8,1.8-3,2.3-5,.2-12.5-12.6-25.1-25.2-37.7-37.7-1.5-1.5-1.4-2.5,0-4,12.6-12.5,25.2-25.1,37.7-37.7h0Z"/>
        <path class="cls-7" d="M-28.9,48.8c11.3,11.4,22.6,22.8,34,34,1.8,1.8,1.8,2.9,0,4.7-11.4,11.3-22.8,22.6-34.1,34-1.3,1.3-2.3,2.4-4.2.5-11.8-11.9-23.6-23.7-35.5-35.6-.3-.3-.5-.7-1.3-1.8,6.3-6.1,12.4-12.1,18.6-18.1,6-5.9,11.9-11.8,17.7-17.8,1.8-1.8,3-1.9,4.8,0h0ZM-31.6,94.2c-1.7,2.8-3.5,5.6-5.3,8.5h11.3c-1.8-2.9-3.5-5.8-5.2-8.6.5-.4,1-.7,1.4-1.1.5.9,1,1.8,1.7,2.6,3.6,3.8,8.2,4.4,11.6,1.5,3.3-2.7,4-9,.9-12.5-5-5.8-10.4-11.3-16.1-17.5-5.7,6.3-11.2,12-16.3,18.2-3,3.6-2,9.3,1.5,12.1,3.4,2.7,7.7,2,11.3-1.7.7-.8,1.7-1.4,2.5-2.1.2.2.5.5.7.7h0Z"/>
        <path class="cls-8" d="M-31.6-43.1C-17.8-29.2-4-15.4,9.7-1.7-3.7,11.7-17.5,25.4-31.9,39.8c-8.6-8.8-17.2-17.5-25.7-26.3-4.4-4.5-8.9-9-13.4-13.4-1.3-1.3-1.9-2.4-.3-4,13-12.8,25.8-25.7,38.8-38.6.3-.3.7-.5.9-.6h0ZM-60.6,7.3c9.6,9.7,19.2,19.4,28.9,29.1.9-.4,1.2-.5,1.4-.8C-18.2,23.7-6.3,11.7,5.8-.2c1.5-1.5,1-2.4-.2-3.7C-6.1-15.5-17.7-27.1-29.2-38.7c-1.5-1.5-2.6-1.4-4,0-11.6,11.6-23.2,23.2-34.8,34.8-1.5,1.5-1.4,2.5.1,3.9,2.5,2.3,4.9,4.8,7.3,7.3Z"/>
        <path class="cls-8" d="M-31.2,126.2c-13.7-13.7-27.5-27.5-41.2-41.1,13.7-13.6,27.5-27.3,41.1-40.9,13.5,13.6,27.3,27.4,40.9,41.1-13.4,13.4-27.2,27.2-40.8,40.9h0ZM-69.9,84.7c.8,1.1,1,1.5,1.3,1.8,11.8,11.8,23.7,23.7,35.5,35.6,1.9,1.9,2.9.8,4.2-.5,11.3-11.4,22.7-22.7,34.1-34,1.8-1.8,1.8-2.9,0-4.7-11.4-11.3-22.7-22.6-34-34-1.8-1.8-3-1.8-4.8,0-5.8,6-11.8,11.9-17.7,17.8-6.1,6-12.3,12-18.6,18.1h0Z"/>
        <path class="cls-1" d="M362.8,171.9c.4.8.6,1.1.8,1.4,13,13,26,25.9,38.9,39,1.7,1.7,2.9,1.2,4.3-.2,12.5-12.6,25.1-25.2,37.7-37.7,1.6-1.6,1.4-2.7-.1-4.3-12.5-12.4-25-24.9-37.4-37.5-1.8-1.8-3-1.7-4.8,0-5.3,5.5-10.8,10.9-16.3,16.3-7.6,7.6-15.3,15.2-23,22.9h0ZM358.6,255.7c1.9,1.9,3.1,1.5,4.7-.2,9.7-9.9,19.6-19.7,29.4-29.5,3.3-3.3,6.6-6.6,9.5-9.6-14.1-14.1-27.8-27.9-41.1-41.3-13.7,13.7-27.6,27.5-41.5,41.4.1.2.4.7.8,1.1,12.7,12.7,25.5,25.4,38.2,38.2h0ZM-33.6,211.9c2,2,3.3,1.6,5-.2,7.9-8,15.9-16,23.8-23.9,5-5,10.1-10,15.2-15-.5-.9-.6-1.2-.8-1.4-13-13-26-26-38.9-39-1.7-1.8-2.9-1.1-4.3.3-12.5,12.6-25.1,25.2-37.7,37.7-1.5,1.5-1.6,2.5,0,4,12.6,12.5,25.2,25.1,37.7,37.7h0ZM313.9,304.9c2.1-2,.8-3.1-.6-4.5-12.2-12.2-24.5-24.5-36.7-36.7-.9-.9-1.8-1.6-2.1-1.9l-41.4,41.4c13.4,13.5,27.1,27.3,40.9,41.2.3-.2.7-.4,1-.7,13-13,25.9-26,39-38.9h0ZM315.1,37.6c.7.7,1.5,1.3,2.1,1.7,13.9-14,27.7-27.7,41.5-41.6-.3-.4-.8-1-1.4-1.6-12.6-12.7-25.3-25.3-37.9-38-1.9-1.9-3-1.2-4.4.3-12.4,12.5-24.8,24.9-37.3,37.2-1.9,1.8-1.7,3,0,4.7,12.5,12.4,24.9,24.8,37.3,37.2ZM315.1,386.2c.7.7,1.5,1.3,2.2,1.8,13.9-14,27.5-27.7,40.7-40.9-13.7-13.8-27.5-27.7-41.3-41.6.2-.1,0,0-.2.1-13,13-26,25.9-39.1,38.8-2,1.9-1,3,.4,4.5,12.4,12.4,24.8,24.8,37.2,37.2h0ZM315,211.9c2,2,3.2,1.7,5-.2,6.7-6.9,13.6-13.7,20.4-20.5,6.2-6.1,12.5-12.2,19-18.5-1.5-1.6-2.4-2.7-3.4-3.6-12-12-24.1-24-36-36-2.1-2.2-3.4-2.1-5.5,0-12.2,12.4-24.6,24.7-37,37-1.7,1.7-1.8,2.7-.1,4.4,12.5,12.4,25.1,24.9,37.5,37.4h0ZM232.2,216.2c.6.7,1.2,1.4,1.9,2,12.4,12.4,24.8,24.8,37.1,37.3,2.1,2.1,3.3,1.9,5.2,0,9.6-9.8,19.4-19.5,29.1-29.2,3.3-3.3,6.7-6.5,9.6-9.4-14.2-14.3-28-28.1-41.6-41.8-13.6,13.5-27.3,27.2-41.4,41.2h0ZM10,255.7c1.8,1.8,3,1.7,4.7-.1,11-11.2,22.2-22.3,33.3-33.4,2-2,4.4-3.6,6.3-5.2-14.6-14.7-28.4-28.4-42-42.1-13.8,13.8-27.6,27.6-41.4,41.4.2.2.5.7.9,1.1,12.7,12.7,25.5,25.4,38.1,38.2h0ZM228,212.1c1.5,1.5,2.6,1.8,4.2.2,12.5-12.6,25.1-25.2,37.6-37.7.6-.6,1.1-1.4,1.8-2.2-.6-.8-1.1-1.6-1.7-2.2-12.5-12.5-25-24.9-37.4-37.5-1.9-1.9-3-1.6-4.7.2-12.2,12.4-24.5,24.7-36.9,37-2.1,2-2,3.2,0,5.2,12.5,12.3,24.8,24.7,37.2,37.2h0ZM141,128.4c-.4-.5-.9-1-1.3-1.5-12.5-12.5-25-24.9-37.4-37.5-2.2-2.2-3.4-2-5.5,0-12.2,12.4-24.5,24.6-36.7,36.8-.7.7-1.4,1.5-1.8,1.9,14,14,27.7,27.8,41.4,41.5,13.5-13.5,27.3-27.3,41.3-41.3h0ZM184.8,169.1c1.4,1.4,2.3,1.3,3.7,0,12.7-12.8,25.4-25.5,38.1-38.2.6-.6,1-1.2,1.6-1.9-.5-.7-.9-1.4-1.5-1.9-1.8-1.8-3.6-3.6-5.3-5.4-10.8-10.8-21.6-21.5-32.3-32.4-1.7-1.7-2.8-2.2-4.8-.2-12.4,12.6-24.9,25-37.4,37.5-1.3,1.3-2.4,2.3-.5,4.2,12.9,12.7,25.6,25.6,38.4,38.4h0ZM183.9-6.1c2.2,2.3,3.4,1.9,5.5-.2,12.2-12.3,24.5-24.5,36.7-36.8.7-.7,1.3-1.5,1.8-2.1-14-14-27.8-27.8-41.5-41.4-13.6,13.6-27.4,27.3-41.5,41.3,1,1,1.8,2,2.7,2.8,12.1,12.1,24.2,24.1,36.2,36.3ZM184.6,255.9c1.4,1.4,2.4,1.7,4,.1,12.7-12.8,25.4-25.5,38.2-38.2.5-.5,1-1.2,1.5-1.9-.6-.7-1-1.4-1.5-1.9-12.6-12.7-25.3-25.3-37.9-38-1.7-1.8-2.8-1.5-4.4.1-12.5,12.6-25.1,25.2-37.7,37.7-1.6,1.6-1.7,2.6,0,4.2,12.7,12.6,25.3,25.3,37.9,37.9h0ZM184.7,343.1c2,2,3,.9,4.4-.5,12.2-12.3,24.5-24.5,36.7-36.8.9-.8,1.6-1.8,2.2-2.4-14-14.1-27.8-27.8-41.4-41.5-13.6,13.6-27.3,27.4-41.3,41.4.4.5.8,1.1,1.3,1.6,12.7,12.8,25.5,25.5,38.1,38.3h0ZM95.4,349.1c2.2-2.1,1.7-3.3-.2-5.2-12.2-12.1-24.4-24.3-36.6-36.5-.9-.9-1.8-1.6-2.7-2.3-14,14-27.7,27.7-41.2,41.2,13.8,13.9,27.6,27.7,41.5,41.6.6-.5,1.4-1.2,2.1-1.9,12.3-12.3,24.6-24.7,37.1-37h0ZM96-.1c1.9-1.8.8-2.9-.5-4.2-12.4-12.4-24.9-24.8-37.2-37.3-1.8-1.8-2.9-1.9-4.7,0C41.2-29.1,28.8-16.8,16.4-4.3c-.7.7-1.3,1.5-1.8,2.1,13.9,13.9,27.6,27.7,41.5,41.6.3-.2.6-.2.7-.4C69.8,25.9,82.9,12.9,96-.1ZM96.8,255.3c2.1,2.2,3.3,2.2,5.5,0,10.4-10.6,21-21.1,31.6-31.6,2.5-2.5,5.3-4.6,7.6-6.6-14.6-14.7-28.4-28.6-42.3-42.6-.3.2-.8.6-1.2,1-12.8,12.8-25.6,25.6-38.5,38.4-1.9,1.9-1.1,3,.4,4.4,12.4,12.3,24.7,24.6,36.9,37h0ZM222.1,31.9c2.6,2.6,4.9,5.4,7.3,8.2,1.4-1,1.7-1.2,1.9-1.4,12.8-12.8,25.6-25.6,38.5-38.3,2.1-2.1,1.3-3.4-.4-5.1-12.4-12.3-24.7-24.6-37-36.9-.7-.7-1.5-1.3-2.3-1.9-.6.4-1,.7-1.3,1-12.9,12.9-25.7,25.8-38.7,38.7-2,2-.9,3,.5,4.4,10.5,10.4,21,20.9,31.4,31.4h0ZM140.8,211.9c1.8,1.8,2.9,1.9,4.7,0,12.3-12.5,24.7-24.9,37.2-37.2,1.8-1.7,2-2.9.2-4.7-12.6-12.5-25.2-25.1-37.7-37.6-.5-.5-1.2-1-2-1.6-.8.6-1.6,1.1-2.2,1.7-12.4,12.4-24.8,24.8-37.3,37.2-1.8,1.8-2.1,3-.1,5,12.5,12.3,24.9,24.7,37.3,37.2h0ZM138.8,35.7c1.4,1.3,2.8,2.6,4.3,4,.9-.9,1.6-1.4,2.3-2.1,12.2-12.3,24.4-24.6,36.8-36.7,2.3-2.2,2.4-3.5,0-5.7-8.5-8.2-16.8-16.6-25.1-25.1-4.6-4.6-8.9-9.5-13.4-14.2-.3.2-.6.4-.9.7-.5.3-1,.6-1.4,1-12.7,12.7-25.4,25.5-38.2,38.1-2.2,2.1-1.2,3.4.4,5,11.7,11.6,23.4,23.3,35,35h0ZM144.1,217.9c-14.5,14.4-28.3,28.1-42.1,41.8,13.6,13.6,27.4,27.4,41.2,41.2.5-.4,1.2-.8,1.7-1.4,12.7-12.6,25.3-25.3,38-37.9,1.8-1.8,1.4-2.9-.2-4.5-7.9-7.8-15.8-15.6-23.6-23.6-5.2-5.3-10.3-10.7-15.1-15.7h0ZM120.7,104.8c7.3,7.3,14.5,14.7,22.1,22.4,1.5-1.4,2.5-2.3,3.5-3.2,12-12,23.9-24.1,36-36,2.2-2.1,2.3-3.3.1-5.5-10.8-10.6-21.4-21.4-32.2-32.1-2.3-2.3-4.7-4.6-7.1-6.9-.7.6-1.1.8-1.4,1.1-12.8,12.8-25.6,25.6-38.5,38.4-1.8,1.8-1.4,3,.2,4.5,5.8,5.7,11.6,11.5,17.3,17.2h0ZM226.5,39.5c-12.7-12.6-25.3-25.3-37.9-38-1.5-1.5-2.5-1.4-3.9,0-12.6,12.7-25.3,25.4-38,38-1.6,1.6-1.5,2.7,0,4.2,3.7,3.6,7.3,7.2,11,10.9,9.4,9.5,18.9,19,28.5,28.7.9-.6,1.3-.8,1.6-1.1,13-13,26-25.9,39-38.8,1.6-1.6,1.2-2.6-.2-3.9h0ZM219.3,116.3c3.5,3.6,6.8,7.4,9.9,10.9,14.7-14.6,28.4-28.4,42.1-42-13.7-13.6-27.5-27.3-41.5-41.2-.2.1-.8.4-1.2.9-12.8,12.8-25.6,25.6-38.5,38.4-1.8,1.8-.8,2.9.5,4.2,9.6,9.6,19.2,19.1,28.7,28.7h0ZM-68.9-97h3.4c-2.4,2.6-4.8,5.2-7.3,7.9.7.8,1.2,1.6,1.8,2.2,12.5,12.6,25.1,25.1,37.6,37.7,1.8,1.8,2.9,1.4,4.4-.2,6.9-7,13.9-14,20.9-20.9,6.2-6.1,12.4-12.1,18.8-18.3-2.7-3.2-5-5.8-7.3-8.4h2.8c4,4.4,8,4.5,12.2.3,0,0,.1-.2.2-.3h2.8c-2.3,2.6-4.6,5.3-6.5,7.5,13.9,14,27.7,27.7,41.2,41.3,13.5-13.6,27.3-27.3,41.2-41.3-2.2-2.3-4.6-4.9-7-7.5h3.4c1.5,1.7,3,3.4,4.7,4.9.5.4,2.1.5,2.5,0,1.6-1.5,3-3.3,4.5-5h3.4c-2.4,2.6-4.8,5.1-7.1,7.5,14,13.9,27.7,27.7,41.6,41.6,0,0,.5-.1.8-.5,13.1-13,26.1-26.1,39.2-39.2,1.3-1.3,1.1-2.3-.1-3.5-1.9-1.9-3.7-4-5.5-6h2.8c7.6,7.8,5,7.2,12.2.2,0,0,.1-.2.2-.2h2.8c-1.3,1.4-2.4,3-3.8,4.3-3.5,3.5-3.6,3.5-.2,6.9,10.5,10.5,20.9,20.9,31.4,31.4,2.3,2.3,4.7,4.6,6.8,6.7,12.8-12.8,25.4-25.4,38.1-38.1,1.2-1.2,2.4-2.4,3.6-3.6-2.2-2.4-4.7-4.9-7.1-7.5h3.4c4.7,6.9,5.7,7,11,1.1.3-.3.5-.8.7-1.1h3.4c-2.4,2.6-4.8,5.2-6.9,7.4,1,1,2,2,3,3.1,12.9,12.9,25.6,25.7,38.3,38.5,13.5-13.6,27.3-27.3,41.1-41.2-2.1-2.5-4.4-5.1-6.7-7.7h2.8c7.5,7.7,5.1,7.1,12.2.3,0,0,.1-.2.2-.3h2.8c-2.3,2.6-4.6,5.3-6.9,8,.6.7,1.1,1.4,1.6,1.9,12.6,12.6,25.3,25.2,37.9,38,2.2,2.2,3.3.8,4.7-.6,12.3-12.3,24.6-24.6,36.9-37,.7-.7,1.3-1.5,2.1-2.4-2.6-2.7-5-5.3-7.4-7.9h3.4c1.5,1.7,3,3.5,4.6,4.9.5.4,2,.5,2.5,0,1.7-1.5,3-3.3,4.5-5h3.4c-2.4,2.6-4.9,5.1-8.2,8.6.3.2.6.5.9.7l-1.2,1.2-.2-.2c-14.2,14.1-28.1,27.8-41.7,41.4,13.5,13.5,27.2,27.3,41.1,41.3.6-.6,1.4-1.2,2.1-1.9.1,0,.2-.2.3-.3,5.2-5.2,10.4-10.4,15.6-15.6,3.4-3.3,6.9-6.6,10.4-9.8v2.8c-8.3,8.2-16.5,16.5-24.9,24.7-1.9,1.8-1.2,3,.3,4.5,8.2,8.1,16.4,16.3,24.6,24.5v2.8c-.9-.7-1.8-1.3-2.6-2.1-7.5-7.4-14.9-14.9-22.4-22.4-1.1-1.1-2.3-2.1-3.2-3-14,14-27.9,27.8-41.3,41.3,13.6,13.7,27.4,27.5,42.1,42.3,0,0,.1-.1.2-.2l1.1,1c-.1.1,0,.4-.1.6-.2.2-.5.5-.8.8.8.6,1.7,1.2,2.5,1.8l-1.3,1.3h0c-1.9-2-3-2-5,0-12.3,12.5-24.8,24.9-37.3,37.2-2.1,2-1.7,3.1.1,4.9h.1c12.3,12.3,24.4,24.5,36.7,36.7.8.8,1.7,1.5,2.8,2.5,9.6-9.6,19.1-19.1,28.5-28.5v3.4c-8.2,8.2-16.3,16.4-24.6,24.5-1.8,1.8-1.8,2.9,0,4.7,8.3,8.1,16.4,16.3,24.6,24.5v3.4c-9.4-9.5-18.9-19-27.7-27.9-.5.5-1,1-1.6,1.6-13.6,13.6-27,26.8-40.1,39.8,13.5,13.5,27.3,27.2,41.3,41.2,9.2-9.1,18.6-18.5,28-27.8v3.4c-.9.7-1.8,1.4-2.6,2.2-7,6.9-13.9,13.9-20.9,20.8-3.5,3.5-3.5,3.5,0,7,7.8,7.7,15.6,15.4,23.4,23.1v3.4c-9-8.9-18-17.8-26.5-26.1-.5-.5-1-1-1.4-1.4-14.2,14.1-28,27.9-41.6,41.4,13.5,13.5,27.2,27.3,41.4,41.6.6-.6,1.1-1.1,1.7-1.7l1.4,1.4h0c-1.3,1.3-1.3,2.3-.5,3.4l-1.3,1.2c-.3-.3-.6-.7-.9-1-14.7,14.6-28.5,28.4-43.2,43.1,3.8,3.4,7.7,7,11.6,10.5h-3.4c-3.1-3.3-6.2-6.5-9.2-9.7-3.7,3.6-6.9,6.6-10.1,9.7h-2.8c3.5-3.8,7.1-7.7,10.5-11.4-13.9-13.9-27.7-27.7-41.1-41-13.8,13.7-27.7,27.5-41.6,41.4,3.2,3.5,6.7,7.3,10.2,11.1h-2.8c-3.2-3.3-6.3-6.5-9.8-10.1-3.4,3.7-6.5,6.9-9.5,10.1h-3.4c3.7-3.8,7.4-7.6,10.8-11.1-14.1-14.2-27.8-28-41.3-41.5-.7.7-1.3,1.3-2,2-13.1,13.1-26.3,26.3-40.4,40.3,3.7,3.3,7.7,6.8,11.6,10.3h-3.4c-3-3.2-6-6.4-9-9.5-.8.3-1.1.4-1.4.6-3,2.9-6,5.9-9,8.9h-2.8c3.5-3.8,7-7.7,10.2-11.2-1.2-1.2-2.5-2.5-3.7-3.7-12.7-12.7-25.2-25.3-37.9-37.9-.1,0-.5.3-.9.6-13,13-25.9,26-39,38.9-1.4,1.4-1.4,2.3,0,3.7,3.1,3.1,6.1,6.4,9.2,9.7h-2.8c-2.6-2.7-5.2-5.4-8-7.9-.7-.6-2.7-.9-3.3-.4-2.8,2.6-5.4,5.5-8,8.3h-3.4c3.6-3.8,7.3-7.6,10.8-11.2-14-14-27.9-27.8-41.4-41.3-13.6,13.6-27.5,27.4-42.2,42.1,3.8,3.4,7.7,6.9,11.6,10.4h-3.4c-3.1-3.3-6.2-6.5-9.3-9.8-3.6,3.6-6.8,6.7-10,9.8h-2.8c3.5-3.8,7-7.7,10.4-11.3-14-13.9-27.8-27.7-41.5-41.3-13.6,13.6-27.4,27.4-41.4,41.3,3.4,3.7,6.9,7.5,10.5,11.3h-2.8c-3.2-3.2-6.5-6.4-10-9.9-3.2,3.5-6.3,6.7-9.3,9.9h-3.4c3.7-3.8,7.4-7.6,10.7-11-14.2-14.2-27.9-28-42.5-42.6-.4.6-.9,1.2-1.3,1.8l-1.2-1.2h0c1.6-1.6,1.6-2.7,0-4.2-4.7-4.5-9.3-9.1-13.9-13.7v-2.8c5.2,5,10.4,9.9,15.4,14.6.6.6,1.2,1.1,1.8,1.7,14.1-14,27.9-27.7,41.4-41.2-13.7-13.7-27.5-27.5-42.2-42.2-5.3,5.7-10.9,11.6-16.4,17.5v-3.4c4.9-5.4,9.9-10.7,15.2-16.5-4.7-4.5-9.9-9.5-15.2-14.5v-3.4c5.8,5.7,11.5,11.4,17.3,17.1.8-.6,1.3-.8,1.7-1.2,12.9-12.9,25.7-25.8,38.7-38.6,2.1-2.1.7-3.1-.6-4.4-11.8-11.8-23.6-23.7-35.5-35.5-1.3-1.3-2.6-2.5-4.1-3.8-1.3,1.3-2.4,2.3-3.5,3.3-4.7,4.5-9.4,9-14,13.5v-2.8c4.5-4.5,9-9.1,13.6-13.5,1.8-1.8,1.9-3,0-4.7-4.6-4.4-9.1-9-13.6-13.5v-2.8c5.8,5.6,11.7,11.1,17,16.2,1.1-1.1,2.2-2.2,3.3-3.3,12.9-12.9,25.6-25.5,38.2-38-13.6-13.6-27.4-27.3-41.5-41.4-5.6,5.5-11.3,11.2-17.1,16.9v-3.4c4.9-5.4,9.8-10.8,14.1-15.6-4.3-4.7-9.2-10.1-14.1-15.4v-3.4c5.5,6,11.1,11.9,16.4,17.6,14.8-14.8,28.6-28.6,42.1-42.2C-47.5,28.1-61.3,14.3-75.2.3c-.8.8-1.8,1.7-2.8,2.6-4.8,4.6-9.5,9.2-14.3,13.8v-2.8c4.5-4.5,9-9.1,13.6-13.5,1.8-1.7,1.9-3,0-4.8-4.6-4.4-9.1-8.9-13.7-13.4v-2.8c5.2,4.9,10.4,9.9,15.4,14.6.6.6,1.2,1.2,1.9,1.8,14.1-14,27.8-27.8,41.4-41.3-13.7-13.7-27.5-27.5-42.3-42.3-5.3,5.7-10.8,11.6-16.4,17.6v-3.4c4.9-5.4,9.9-10.7,15-16.3-1.9-2-4.3-4.6-6.8-7.2h3.4c4.6,6.9,5.6,7,11,1.1.3-.3.5-.8.7-1.1h0ZM404.5,300.4c13.7-13.6,27.4-27.4,41.1-41-13.6-13.6-27.4-27.4-40.7-40.7-13.8,13.7-27.6,27.4-40.9,40.7,13.4,13.6,27.1,27.4,40.5,41h0ZM445.4,346.9c-13.8-13.8-27.5-27.6-40.9-41-13.6,13.6-27.4,27.3-40.9,40.7,13.5,13.6,27.3,27.4,40.8,41,13.6-13.6,27.4-27.3,41-40.8h0ZM404.1,38.8c13.7-13.7,27.5-27.6,41.1-41.2-13.3-13.4-27-27.1-40.6-40.6-13.6,13.7-27.3,27.5-40.9,41.2,13.4,13.4,27.1,27.2,40.3,40.6ZM445.1,85.6c-13.7-13.9-27.4-27.8-40.6-41.2-13.6,13.5-27.4,27.3-40.9,40.7,13.6,13.6,27.4,27.4,41,41,13.6-13.6,27.3-27.3,40.5-40.6h0ZM402.2,128.5c-.3-.4-.6-.9-1.1-1.4-12.7-12.7-25.5-25.4-38.1-38.2-1.9-1.9-3-1.3-4.5.3-7.9,8-15.8,15.9-23.8,23.8-5.2,5.1-10.5,10.1-15.4,14.8,14.5,14.4,28.3,28.2,41.8,41.7,13.4-13.4,27.2-27.1,41.1-41h0ZM402-45.4c-13.7-13.7-27.5-27.5-41-41.1-13.7,13.7-27.5,27.5-41.2,41.1,13.6,13.6,27.4,27.4,41.1,41.2,13.6-13.6,27.3-27.4,41-41.2h0ZM401.7,41.8c-13.6-13.6-27.5-27.5-40.7-40.7-13.6,13.5-27.5,27.2-40.9,40.6,13.5,13.6,27.2,27.4,40.8,41.1,13.7-13.7,27.5-27.6,40.8-41h0ZM401.6,303.3c-13.6-13.7-27.4-27.5-41-41.2-13.5,13.5-27.3,27.3-40.9,40.9,13.7,13.7,27.6,27.5,41,40.9,13.8-13.7,27.7-27.4,40.9-40.6h0ZM358.3,259.4c-13.5-13.5-27.2-27.3-40.7-40.9-13.7,13.7-27.5,27.5-40.8,40.7,13.5,13.7,27.3,27.5,40.7,41.1,13.6-13.6,27.3-27.4,40.8-40.9h0ZM358.2,85.1c-13.5-13.6-27.2-27.4-40.7-41-13.7,13.7-27.5,27.6-41,41.1,13.5,13.6,27.3,27.4,40.7,40.9,13.7-13.7,27.5-27.5,40.9-41h0ZM315.1,128.4c-.1-.2-.3-.6-.6-.9-13-13-26-25.9-38.9-39-1.9-1.9-2.9-.8-4.2.5-6.8,6.8-13.6,13.7-20.4,20.4-6.3,6.3-12.7,12.5-18.9,18.7,14.2,14.1,28,27.9,41.6,41.4,13.7-13.6,27.5-27.4,41.4-41.2h0ZM273.6-4.8c13.6-13.6,27.5-27.4,41.2-41-13.5-13.6-27.3-27.3-40.9-40.9-13.7,13.7-27.6,27.6-41,41,13.8,13.8,27.5,27.6,40.7,40.9ZM273.6,82.5c13.7-13.7,27.5-27.5,41.2-41.2-13.5-13.5-27.3-27.3-40.8-40.8-13.7,13.7-27.5,27.6-41.1,41.2,13.5,13.5,27.3,27.4,40.7,40.8h0ZM230.2,300.6c13.7-13.7,27.4-27.5,41-41.1-13.6-13.6-27.4-27.3-41-40.8-13.7,13.6-27.5,27.3-41,40.7,13.6,13.7,27.3,27.6,40.9,41.3h0ZM269.7,349.1c1.9-1.9,2-3.1,0-5.1-7.9-7.8-15.8-15.6-23.6-23.6-5.1-5.2-10-10.7-15.1-16.1-1.6,1.3-2.1,1.6-2.5,2-12.7,12.7-25.5,25.5-38.2,38.1-1.9,1.9-1.2,3,.3,4.5,10.8,10.8,21.6,21.6,32.3,32.4,2.3,2.3,4.7,4.6,7.1,6.9.8-.6,1.4-1,1.9-1.5,12.6-12.6,25.1-25.2,37.7-37.7h0ZM183,348.7c2.2-2.2.7-3.3-.7-4.7-12.2-12.2-24.5-24.4-36.7-36.8-2-2.1-3.2-2-5.2,0-12.1,12.2-24.2,24.4-36.5,36.5-2.2,2.2-2.4,3.5,0,5.8,8.5,8.3,16.9,16.9,25.3,25.3,4.5,4.5,9.1,9,13.7,13.5.7-.6,1.2-.8,1.6-1.2,12.8-12.8,25.6-25.6,38.5-38.4h0ZM99.7-4.4c13.5-13.5,27.2-27.3,40.7-40.8-13.8-13.8-27.7-27.6-40.9-40.9-13.5,13.5-27.4,27.2-40.8,40.6,13.6,13.6,27.4,27.3,41,41h0ZM140.3,303.2c-13.6-13.7-27.4-27.5-40.7-40.9-13.6,13.5-27.5,27.3-41.2,40.9,13.5,13.5,27.3,27.3,40.8,40.8,13.9-13.8,27.7-27.5,41.1-40.8h0ZM140,42.1c-13.6-13.8-27.4-27.7-40.9-41.4-13.5,13.5-27.2,27.3-40.8,40.8,13.7,13.7,27.5,27.5,41.2,41.2,13.6-13.6,27.4-27.4,40.5-40.6h0ZM56,300.4c13.6-13.6,27.4-27.3,41.1-40.9-13.7-13.6-27.4-27.4-41-41-13.8,13.7-27.5,27.5-40.9,40.7,13.6,13.7,27.3,27.6,40.8,41.2h0ZM55.9,126.1c13.7-13.6,27.5-27.3,41.2-40.9-13.7-13.6-27.5-27.3-41.1-40.7-13.5,13.5-27.4,27.2-40.8,40.6,13.5,13.6,27.2,27.5,40.7,41h0ZM96.8,172.6c-13.8-13.9-27.4-27.7-41.2-41.6-.2.1-.6.3-.9.6-12.9,12.9-25.8,25.8-38.7,38.6-1.9,1.9-1.1,3,.4,4.5,9.4,9.4,18.8,18.8,28.2,28.2,3.7,3.7,7.5,7.3,11.1,10.9,14.1-14.1,27.8-27.9,41.1-41.2h0ZM53.6,128.4c0-.1-.3-.5-.6-.8-13-13-26-25.9-38.9-39-1.4-1.4-2.4-1.3-3.7,0-3.7,3.8-7.5,7.5-11.2,11.2-9.5,9.5-19,18.9-28.2,28.1,14.1,14.2,27.9,28.1,41.3,41.7,13.6-13.5,27.3-27.3,41.2-41.2h0ZM12.5,82.4c13.5-13.5,27.3-27.2,41-40.8C39.8,27.9,26,14.1,12.3.4-1.4,14.1-15.2,27.9-28.5,41.2-14.8,54.9-.9,68.8,12.5,82.4ZM12.3-4.3c13.7-13.7,27.5-27.5,41.2-41.1-13.6-13.6-27.4-27.4-41.2-41.1C-1.3-72.9-15.2-59.1-28.8-45.5-15.2-31.8-1.3-17.9,12.3-4.3ZM53,303.3c-13.6-13.7-27.4-27.6-40.8-41.2-13.6,13.5-27.3,27.3-40.7,40.7,13.8,13.9,27.6,27.7,40.7,40.9,13.7-13.5,27.6-27.3,40.9-40.4ZM10.1,346.3c-.4-.4-.8-1.1-1.4-1.6-12.6-12.7-25.3-25.3-37.9-38-1.7-1.7-2.7-1.3-4.2.1-12.7,12.8-25.5,25.5-38.2,38.2-.4.5-.7,1.1-1,1.6,13.9,13.8,27.6,27.5,41.3,41.1,13.8-13.8,27.6-27.5,41.4-41.4h0ZM9.7-1.7C-4-15.4-17.8-29.2-31.6-43.1c-.1.1-.6.3-.9.6-12.9,12.9-25.8,25.8-38.8,38.6-1.6,1.6-1.1,2.6.3,4,4.5,4.4,8.9,8.9,13.4,13.4,8.6,8.7,17.2,17.5,25.8,26.3C-17.5,25.4-3.7,11.7,9.7-1.7ZM9.6,85.3c-13.6-13.7-27.4-27.5-40.9-41.1-13.7,13.6-27.5,27.3-41.1,40.9,13.7,13.7,27.5,27.4,41.2,41.1,13.7-13.7,27.4-27.5,40.8-40.9h0ZM9.4,259.7c-13.5-13.7-27.2-27.5-40.5-41-13.7,13.7-27.5,27.4-41,40.8,13.5,13.6,27.2,27.4,40.6,40.9,13.8-13.7,27.6-27.5,40.8-40.7h0Z"/>
      </g>
    </g>
    <path class="cls-10" d="M172.3,22.7c-.3,0-.7.4-1.3,1.2-9.2,12.6-19.6,24-31.4,34.2-7.3,6.3-14.5,12.9-20.1,20.8-5.5,7.7-10.2,15.6-11.5,25.3-1.2,9.5.3,18.3,6.1,26.2,10,13.7,27.6,17.1,41.4,7.8,4.5-3,7.5-7.1,9.6-12.1.4-.9.9-1.7,1.3-2.5.2,0,.3.1.5.2,0,.2.2.5.3.7,0,.5.2.9.2,1.4.1,9.5-2,18.4-7.9,26-2.1,2.7-4.7,4.9-7,7.3-.6.6-.7,1.5-1.1,2.3.8.3,1.6.9,2.3.9,5,0,10,0,15,0h3.6V22.7h0Z"/>
  </g>
</svg>