<?xml version="1.0" encoding="UTF-8"?>
<svg id="Layer_1" data-name="Layer 1" xmlns="http://www.w3.org/2000/svg" xmlns:xlink="http://www.w3.org/1999/xlink" version="1.1" viewBox="0 0 996.2 198.6">
  <defs>
    <style>
      .cls-1 {
        clip-path: url(#clippath);
      }

      .cls-2 {
        fill: none;
      }

      .cls-2, .cls-3, .cls-4, .cls-5, .cls-6, .cls-7, .cls-8 {
        stroke-width: 0px;
      }

      .cls-3 {
        fill: #b960a5;
      }

      .cls-4 {
        fill: #e1ddca;
      }

      .cls-5 {
        fill: #e27db2;
      }

      .cls-6 {
        fill: #64b0bb;
      }

      .cls-7 {
        fill: #f58d86;
      }

      .cls-8 {
        fill: #9259a4;
      }
    </style>
    <clipPath id="clippath">
      <rect class="cls-2" x="29.8" width="932.3" height="177.9"/>
    </clipPath>
  </defs>
  <rect class="cls-4" y="0" width="996.2" height="198.6"/>
  <g class="cls-1">
    <g>
      <path class="cls-3" d="M694.7,357s-.3.1-.4.3c-21.7,21.6-43.3,43.2-65.1,64.7-3.3,3.2-1.7,5,.7,7.4,20.7,20.7,41.4,41.4,62.1,62.1,1.2,1.2,2.5,2.1,3.7,3.1,23.1-23.3,45.9-46.1,67.9-68.2-22.9-23-45.8-46.1-68.9-69.3,0,0,0,0,.1,0h0ZM961.2,324.5v5.7c-15-14.8-30-29.6-44.1-43.5-.8-.8-1.6-1.6-2.4-2.4-23.6,23.5-46.7,46.5-69.4,69,22.4,22.5,45.3,45.5,69.1,69.4.9-1,1.8-1.9,2.8-2.9l2.3,2.3h0c-2.2,2.2-2.1,3.8-.8,5.6l-2.1,2c-.5-.6-1-1.1-1.4-1.7-24.4,24.4-47.5,47.4-72,71.9,6.3,5.7,12.9,11.6,19.4,17.5h-5.7c-5.1-5.4-10.3-10.9-15.3-16.2-6.2,5.9-11.5,11.1-16.8,16.2h-4.6c5.9-6.4,11.8-12.8,17.5-19-23.2-23.2-46.2-46.2-68.5-68.4-22.9,22.8-46.1,45.9-69.3,69,5.4,5.9,11.2,12.1,17,18.4h-4.6c-5.3-5.4-10.5-10.9-16.3-16.9-5.7,6.1-10.8,11.5-15.8,16.9h-5.7c6.2-6.3,12.4-12.7,18-18.5-23.5-23.7-46.4-46.6-68.9-69.2-1.1,1.1-2.2,2.2-3.3,3.3-21.8,21.8-43.8,43.8-67.3,67.2,6.2,5.6,12.8,11.4,19.3,17.2h-5.7c-5-5.3-10.1-10.6-15-15.8-1.3.5-1.9.6-2.3,1-5,4.9-10,9.9-14.9,14.8h-4.6c5.8-6.4,11.7-12.8,17-18.6-2-2-4.1-4.1-6.1-6.1-21.2-21.2-42-42.1-63.1-63.2-.2.1-.9.4-1.4.9-21.7,21.6-43.3,43.3-65,64.8-2.3,2.3-2.3,3.9,0,6.1,5.2,5.2,10.2,10.7,15.3,16.1h-4.6c-4.4-4.4-8.7-9.1-13.4-13.2-1.2-1-4.5-1.5-5.4-.7-4.7,4.3-9,9.2-13.4,13.9h-5.7c6.1-6.3,12.1-12.6,17.9-18.6-23.4-23.3-46.5-46.3-69.1-68.8-22.7,22.6-45.7,45.6-70.3,70.1,6.2,5.6,12.8,11.5,19.3,17.3h-5.7c-5.2-5.4-10.3-10.9-15.6-16.4-6,6-11.3,11.2-16.6,16.4h-4.6c5.9-6.4,11.7-12.8,17.3-18.9-23.3-23.2-46.3-46.2-69.1-68.9-22.6,22.6-45.7,45.6-68.9,68.9,5.7,6.1,11.6,12.5,17.5,18.9h-4.6c-5.4-5.3-10.8-10.7-16.6-16.5-5.4,5.8-10.5,11.1-15.5,16.5h-5.7c6.2-6.4,12.4-12.7,17.8-18.3-23.6-23.7-46.5-46.7-70.9-71.1-.7,1-1.4,2-2.2,3.1l-2-2.1h0c2.7-2.6,2.7-4.5,0-7.1-7.8-7.5-15.5-15.2-23.2-22.8v-4.6c8.7,8.3,17.4,16.5,25.6,24.3,1,.9,2,1.9,3,2.8,23.5-23.3,46.4-46.2,69.1-68.7-22.8-22.8-45.8-45.9-70.3-70.4-8.9,9.4-18.1,19.3-27.4,29.2v-5.7c8.2-8.9,16.5-17.9,25.3-27.4-7.8-7.5-16.6-15.9-25.3-24.2v-5.7c9.6,9.5,19.2,19,28.9,28.5,1.3-.9,2.1-1.4,2.8-2,21.5-21.5,42.9-43,64.5-64.4,3.5-3.5,1.1-5.1-1.1-7.3-19.7-19.7-39.4-39.5-59.1-59.2-2.1-2.1-4.3-4.1-6.8-6.4-2.2,2.1-4,3.8-5.8,5.5-7.8,7.5-15.6,15-23.4,22.5v-4.6c7.5-7.5,15-15.2,22.7-22.5,3.1-2.9,3.1-4.9,0-7.9-7.7-7.3-15.2-15-22.7-22.4v-4.6c9.7,9.3,19.5,18.5,28.4,27,1.9-1.9,3.7-3.7,5.6-5.6,21.6-21.5,42.7-42.5,63.6-63.3C87.7,39.5,64.7,16.6,41.2-6.8,32,2.3,22.4,11.8,12.8,21.3v-5.7C20.9,6.6,29.1-2.4,36.3-10.4c-7.1-7.8-15.4-16.8-23.6-25.7v-5.7c9.2,9.9,18.4,19.9,27.3,29.4,24.6-24.7,47.6-47.7,70.1-70.3-22.6-22.7-45.6-45.7-68.8-69-1.4,1.3-3,2.8-4.7,4.3-8,7.6-15.9,15.3-23.9,22.9v-4.6c7.6-7.5,15.1-15.1,22.7-22.5,3-2.8,3.2-5,0-8-7.7-7.3-15.2-14.9-22.8-22.4v-4.6c8.7,8.2,17.3,16.5,25.6,24.4,1,1,2.1,2,3.1,2.9,23.4-23.4,46.4-46.3,69-68.8-22.8-22.9-45.8-45.9-70.5-70.6-8.8,9.5-18,19.4-27.3,29.4v-5.7c8.2-8.9,16.5-17.8,25-27.1-3.2-3.4-7.2-7.7-11.2-11.9h5.7c7.7,11.5,9.3,11.7,18.4,1.9.5-.5.8-1.3,1.2-1.9h5.7c-4,4.3-8,8.6-12.2,13.1,1.1,1.4,2,2.7,3,3.7,20.9,20.9,41.9,41.8,62.7,62.9,3,3,4.8,2.3,7.4-.3,11.5-11.7,23.1-23.3,34.8-34.8,10.3-10.2,20.7-20.2,31.3-30.5-4.6-5.3-8.4-9.6-12.2-14h4.6c6.6,7.4,13.4,7.6,20.3.4.1-.1.2-.3.4-.4h4.6c-3.8,4.4-7.6,8.8-10.8,12.5,23.2,23.3,46.1,46.2,68.7,68.8,22.6-22.6,45.4-45.6,68.6-68.8-3.6-3.9-7.6-8.2-11.7-12.5h5.7c2.5,2.8,4.9,5.7,7.8,8.2.8.7,3.4.8,4.2,0,2.7-2.5,5.1-5.5,7.5-8.3h5.7c-4,4.3-8,8.6-11.8,12.6,23.3,23.2,46.2,46.1,69.4,69.3,0,0,.9-.3,1.4-.8,21.8-21.7,43.5-43.5,65.3-65.3,2.1-2.1,1.8-3.8-.2-5.8-3.2-3.2-6.1-6.7-9.2-10h4.6c12.7,12.9,8.3,11.9,20.3.4.1-.1.3-.3.4-.4h4.6c-2.1,2.4-4.1,4.9-6.3,7.2-5.9,5.8-5.9,5.8-.3,11.5,17.4,17.5,34.9,34.9,52.3,52.3,3.9,3.9,7.9,7.7,11.4,11.1,21.4-21.4,42.3-42.3,63.5-63.5,2-2,4-4,6.1-6.1-3.7-4-7.8-8.3-11.8-12.5h5.7c7.8,11.5,9.5,11.7,18.4,1.9.5-.5.8-1.3,1.1-1.9h5.7c-4,4.3-8,8.6-11.4,12.3,1.7,1.7,3.4,3.4,5.1,5.1,21.5,21.6,42.7,42.9,63.8,64.2,22.6-22.6,45.5-45.6,68.6-68.7-3.6-4.1-7.4-8.5-11.2-12.9h4.6c12.5,12.8,8.5,11.8,20.3.4.1-.1.2-.3.4-.4h4.6c-3.8,4.4-7.6,8.8-11.6,13.3,1,1.2,1.8,2.3,2.7,3.2,21,21.1,42.2,42.1,63.1,63.3,3.6,3.7,5.4,1.4,7.8-1,20.5-20.5,41-41.1,61.5-61.6,1.2-1.2,2.2-2.5,3.4-4-4.3-4.6-8.3-8.9-12.3-13.2h5.7c2.5,2.8,4.9,5.8,7.7,8.3.8.7,3.4.7,4.2,0,2.8-2.5,5.1-5.5,7.6-8.3h5.7c-4,4.3-8.1,8.6-13.6,14.4.5.4,1,.8,1.5,1.2l-1.9,2-.3-.3c-.8.7-1.5,1.5-2.3,2.3-22.9,22.7-45.2,44.9-67.2,66.7,22.5,22.5,45.4,45.5,68.6,68.8.9-.8,1.9-1.7,3-2.6.3-.3.7-.6,1-1,8.7-8.6,17.3-17.4,26-25.9,5.7-5.6,11.6-11,17.4-16.4v4.6c-13.8,13.7-27.6,27.5-41.5,41.2-3.1,3-2.1,5,.5,7.5,13.7,13.6,27.4,27.2,41.1,40.9v4.6c-1.5-1.1-3.1-2.1-4.4-3.4-12.5-12.4-24.9-24.9-37.4-37.3-1.9-1.9-3.9-3.6-5.3-4.9-23.4,23.4-46.4,46.4-68.9,68.8,22.7,22.8,45.7,45.9,70.1,70.5,0,0,.2-.2.3-.3l1.8,1.7c-.2.2-.1.7-.2,1.1-.4.4-.8.8-1.2,1.3,1.3,1,2.8,2,4.1,3.1l-2.1,2.1h-.1c-3.2-3.4-5.1-3.4-8.3-.1-20.6,20.8-41.2,41.5-62.1,62-3.4,3.4-2.8,5.2.3,8.2l.2.2c20.5,20.2,40.7,40.7,61.1,61,1.3,1.3,2.8,2.5,4.6,4.2,16-16,31.8-31.8,47.6-47.5v5.7c-13.7,13.6-27.2,27.4-41.1,40.9-3.1,3-3.1,4.9,0,7.9,13.8,13.5,27.4,27.2,41.1,40.8v5.7c-15.7-15.8-31.5-31.6-46.2-46.4-.9.9-1.7,1.7-2.6,2.6-22.8,22.6-45,44.7-66.8,66.3,22.5,22.5,45.5,45.4,68.9,68.7,15.3-15.2,31-30.8,46.7-46.4v5.7c-1.4,1.2-3,2.3-4.3,3.6-11.6,11.6-23.2,23.1-34.8,34.7-5.8,5.8-5.8,5.8.1,11.7,13,12.8,26,25.6,39,38.4h0ZM907.5,138.4c2.7-2.7,2.4-4.5-.2-7.1-20.9-20.7-41.7-41.6-62.4-62.5-3-3-5-2.9-7.9.2-8.9,9.2-18,18.2-27.1,27.2-12.7,12.7-25.5,25.3-38.4,38.1.7,1.3.9,1.9,1.3,2.3,21.6,21.7,43.3,43.2,64.8,65,2.8,2.9,4.8,2.1,7.1-.3,20.9-21,41.8-42,62.8-62.9h0ZM840.9,348.5c22.8-22.7,45.7-45.6,68.5-68.3-22.7-22.7-45.6-45.6-67.8-67.8-22.9,22.8-46,45.7-68.2,67.8,22.4,22.6,45.2,45.7,67.6,68.3h0ZM908.8-156.3c-22.3-22.3-45.1-45.1-67.7-67.7-22.6,22.9-45.5,45.9-68.1,68.8,22.3,22.4,45.1,45.4,67.3,67.7,22.8-22.9,45.8-45.9,68.5-68.7h0ZM841.1,58c22.6-22.6,45.5-45.6,67.6-67.6-22.8-23.1-45.7-46.3-67.7-68.6-22.7,22.6-45.7,45.4-68.2,67.8,22.7,22.7,45.6,45.6,68.4,68.4h0ZM840.8,493.9c22.7-22.6,45.7-45.5,68.3-68-23-23-45.9-45.9-68.2-68.3-22.7,22.6-45.7,45.6-68.1,67.9,22.6,22.7,45.4,45.7,68,68.4ZM837.2,61.9c-.5-.6-1-1.6-1.8-2.4-21.2-21.2-42.5-42.4-63.6-63.7-3.1-3.1-4.9-2.1-7.5.4-13.2,13.3-26.4,26.6-39.7,39.7-8.7,8.5-17.5,16.9-25.7,24.7,24.1,24,47.2,47,69.8,69.5,22.4-22.3,45.4-45.2,68.5-68.3h0ZM821.4,224.4c5.5-5.5,10.9-11,15.9-16-23.4-23.5-46.3-46.5-68.6-68.8-22.9,22.8-45.9,45.8-69.2,69,.2.3.7,1.1,1.4,1.8,21.2,21.2,42.5,42.4,63.6,63.7,3.2,3.2,5.1,2.4,7.9-.4,16.2-16.5,32.6-32.8,49-49.2h0ZM836.2-82.6c-22.7-22.7-45.8-45.9-67.8-67.9-22.7,22.5-45.8,45.4-68.2,67.6,22.6,22.7,45.4,45.7,68.1,68.6,22.8-22.9,45.8-46,68-68.3h0ZM767.9,421c23-22.8,46.1-45.7,68.2-67.7-22.7-22.8-45.7-45.9-68.3-68.6-22.6,22.5-45.5,45.4-68.2,68.1,22.9,22.8,46,45.9,68.3,68.2h0ZM768.5-159.3c22.6-22.7,45.5-45.7,68.3-68.7-22.8-22.8-45.8-45.9-68.3-68.4-22.8,22.8-45.9,45.8-68.6,68.4,22.7,22.7,45.7,45.7,68.6,68.7ZM765.8,135.7c-2.5-2.8-4-4.5-5.6-6.1-20-20-40.1-39.9-60-60.1-3.6-3.6-5.6-3.5-9.1,0-20.4,20.7-41,41.2-61.6,61.6-2.9,2.8-3.1,4.5-.2,7.4,20.9,20.7,41.8,41.5,62.5,62.4,3.3,3.4,5.3,2.8,8.3-.3,11.2-11.5,22.6-22.8,34-34.1,10.3-10.2,20.8-20.3,31.7-30.9h0ZM764.6-156.1c-.5-.6-1.3-1.7-2.3-2.6-21.1-21.1-42.2-42.2-63.2-63.4-3.2-3.2-4.9-1.9-7.4.6-20.6,20.8-41.3,41.5-62.1,62.1-3.1,3.1-2.9,4.9.1,7.9,20.8,20.6,41.4,41.3,62.2,62,1.2,1.2,2.5,2.1,3.5,2.9,23.2-23.3,46.1-46.2,69.2-69.4h0ZM763.8-10.5c-22.5-22.7-45.3-45.7-67.8-68.3-22.9,22.9-45.9,46-68.4,68.4,22.6,22.6,45.4,45.6,67.9,68.2,22.8-22.8,45.8-45.8,68.3-68.3h0ZM763.9,280.2c-22.5-22.6-45.4-45.5-67.9-68.1-22.8,22.8-45.9,45.8-68,67.8,22.6,22.8,45.5,45.9,67.9,68.5,22.6-22.7,45.5-45.6,68.1-68.2h0ZM691.9,61.8c-.2-.3-.5-1-1-1.5-21.6-21.6-43.3-43.2-64.8-65-3.1-3.2-4.8-1.3-7,.8-11.3,11.4-22.6,22.7-34,34.1-10.5,10.5-21.2,20.9-31.6,31.1,23.6,23.6,46.7,46.6,69.3,69.1,22.9-22.8,45.9-45.6,69-68.6h0ZM690,356c3.4-3.4,1.3-5.2-1-7.4-20.4-20.4-40.8-40.8-61.2-61.2-1.4-1.4-3-2.7-3.5-3.2-23.5,23.5-46.6,46.6-69.1,69.1,22.3,22.5,45.2,45.5,68.2,68.7.4-.3,1.1-.7,1.7-1.2,21.6-21.6,43.2-43.3,64.9-64.8h0ZM676,224.7c5.5-5.5,11.2-10.9,16.1-15.6-23.7-23.8-46.6-46.9-69.3-69.7-22.6,22.5-45.6,45.3-69,68.7,1.1,1.2,2,2.3,3.1,3.4,20.7,20.7,41.4,41.3,61.9,62.1,3.5,3.5,5.4,3.2,8.7-.1,16.1-16.4,32.3-32.6,48.6-48.8h0ZM622.8-14.7c22.8-22.8,45.8-45.8,68.7-68.6-22.5-22.5-45.4-45.5-68-68.1-22.9,22.9-45.9,46-68.5,68.6,22.5,22.6,45.5,45.7,67.8,68.1ZM691.5-228.7c-22.6-22.6-45.5-45.5-68.1-68.2-22.9,22.9-45.9,46-68.4,68.4,22.9,23,45.8,46,67.9,68.2,22.7-22.6,45.8-45.6,68.6-68.4h0ZM616.6-151.7c3.5-3.5,2.2-5.6-.6-8.5-20.6-20.5-41.1-41-61.6-61.6-1.2-1.1-2.5-2.1-3.8-3.2-1,.7-1.7,1.1-2.2,1.6-21.5,21.5-42.9,43.1-64.5,64.5-3.4,3.4-1.5,5.1.9,7.4,17.5,17.4,35,34.8,52.3,52.3,4.3,4.3,8.1,9.1,12.1,13.6,2.3-1.7,2.8-1.9,3.2-2.3,21.4-21.3,42.7-42.7,64.2-63.9h0ZM619.5,134.9c-1-1.4-1.8-2.6-2.9-3.7-20.8-20.8-41.7-41.6-62.4-62.5-3.1-3.1-5-2.7-7.9.3-20.4,20.7-40.9,41.2-61.6,61.6-3.4,3.4-3.4,5.4,0,8.7,20.8,20.5,41.4,41.2,62,62,2.5,2.5,4.3,3,7,.3,20.9-21,41.8-41.9,62.8-62.9,1-1.1,1.8-2.3,3-3.8h0ZM616.2,429.6c3.1-3.1,3.4-5.2.1-8.5-13.2-13-26.4-26-39.3-39.3-8.5-8.7-16.7-17.8-25.2-26.8-2.6,2.1-3.4,2.7-4.1,3.3-21.2,21.2-42.4,42.5-63.7,63.6-3.1,3.1-2,4.9.5,7.5,18,17.9,35.9,36,53.9,53.9,3.9,3.9,7.9,7.6,11.9,11.5,1.4-1.1,2.3-1.7,3.1-2.4,20.9-20.9,41.8-41.9,62.8-62.8h0ZM548.8,59.7c24.4-24.4,47.4-47.3,70.2-70-22.8-22.7-45.8-45.5-69.1-68.6-.3.2-1.3.7-2.1,1.5-21.4,21.3-42.7,42.7-64.2,64-3.1,3.1-1.3,4.9.9,7,16,15.9,32,31.8,47.8,47.9,5.9,5.9,11.2,12.4,16.5,18.2h0ZM550.5,348.7c22.8-22.8,45.6-45.8,68.4-68.6-22.7-22.6-45.7-45.5-68.3-68-22.8,22.6-45.8,45.4-68.3,67.8,22.7,22.9,45.6,45.9,68.2,68.8h0ZM547.1,62.6c-.9-1.2-1.6-2.3-2.4-3.2-2.9-3-5.9-6-8.9-8.9-18-18-36-35.9-53.9-54-2.8-2.8-4.7-3.6-7.9-.4-20.7,20.9-41.6,41.7-62.4,62.5-2.2,2.2-4,3.8-.9,7,21.5,21.2,42.8,42.6,64,64,2.3,2.3,3.9,2.2,6.1,0,21.1-21.3,42.4-42.5,63.6-63.7.9-.9,1.7-2,2.7-3.2h0ZM544.7-79.8c2.6-2.6,1.9-4.3-.3-6.6-21.1-21-42.2-42.1-63.3-63.3-2.5-2.5-4.2-2.3-6.6,0-21,21.2-42.1,42.3-63.3,63.3-2.8,2.7-2.6,4.5,0,7,6.2,6,12.2,12.1,18.3,18.2,15.7,15.8,31.5,31.7,47.5,47.9,1.4-1,2.1-1.3,2.7-1.8,21.7-21.6,43.3-43.2,65-64.8h0ZM544.6,210.7c.9-.9,1.6-2,2.5-3.3-.9-1.2-1.6-2.3-2.5-3.2-21.1-21.1-42.2-42.1-63.2-63.3-2.9-2.9-4.7-2.5-7.4.2-20.8,21-41.8,42-62.8,62.8-2.6,2.6-2.8,4.4,0,7,21.2,21,42.2,42.1,63.3,63.2,2.4,2.4,4.1,2.7,6.6.2,21.2-21.3,42.4-42.5,63.6-63.7h0ZM543.7-224c1.2-1.2,2.2-2.5,3.1-3.5-23.3-23.3-46.4-46.3-69.2-69.1-22.7,22.6-45.6,45.5-69.1,68.9,1.7,1.7,3.1,3.3,4.5,4.7,20.1,20.2,40.4,40.2,60.3,60.6,3.7,3.8,5.7,3.2,9.1-.3,20.3-20.6,40.8-40.9,61.2-61.3h0ZM543.1,357.5c1.4-1.4,2.7-3,3.6-4.1-23.4-23.4-46.3-46.4-69.1-69.1-22.7,22.7-45.6,45.6-68.9,69,.7.9,1.4,1.8,2.1,2.6,21.2,21.3,42.5,42.5,63.6,63.8,3.3,3.4,5,1.5,7.4-.9,20.4-20.5,40.8-40.9,61.2-61.3h0ZM471.8,428.9c3.7-3.7,1.1-5.5-1.2-7.8-20.4-20.4-40.9-40.7-61.2-61.3-3.4-3.5-5.3-3.4-8.6,0-20.1,20.4-40.4,40.7-60.8,60.8-3.7,3.6-4,5.9-.1,9.6,14.2,13.9,28.1,28.1,42.2,42.1,7.5,7.5,15.1,15,22.8,22.5,1.2-.9,2.1-1.4,2.7-2,21.4-21.3,42.7-42.7,64.2-63.9h0ZM471.6,283.7c3-3,2.4-4.8-.3-7.5-13.2-13-26.3-26.1-39.3-39.2-8.7-8.8-17.2-17.8-25.1-26.1-24.2,24-47.3,46.9-70.2,69.6,22.7,22.7,45.6,45.6,68.7,68.7.8-.7,1.9-1.4,2.9-2.3,21.1-21.1,42.1-42.2,63.3-63.2h0ZM471.2,139c2.9-2.9,3.4-4.8.3-7.9-21-20.8-41.9-41.8-62.9-62.7-.9-.9-2-1.6-3.3-2.6-1.3,1.1-2.6,1.9-3.6,2.9-20.7,20.6-41.4,41.4-62.1,62-3,3-3.6,5.1-.2,8.4,20.8,20.5,41.5,41.2,62.1,62,3,3,4.8,3.1,7.8,0,20.5-20.8,41.2-41.4,62-62h0ZM470.5-5.7c3.6-3.6,3.8-5.5.2-9.1-18-17.7-35.7-35.7-53.6-53.5-3.9-3.9-7.8-7.6-11.8-11.4-1.2,1-1.8,1.4-2.4,1.9-21.4,21.3-42.7,42.7-64.2,64-3.1,3-2.3,4.9.3,7.5,9.7,9.5,19.3,19.1,28.8,28.8,12.1,12.2,24.1,24.5,36.8,37.3,2.5-2.3,4.2-3.8,5.8-5.4,20-20,39.9-40.2,60.1-60h0ZM470.4-150.7c3.8-3.7,4-5.8.1-9.5-14.1-13.7-28-27.7-41.8-41.8-7.6-7.8-14.9-15.8-22.3-23.7-.5.4-1,.7-1.4,1.1-.8.5-1.6,1-2.3,1.6-21.2,21.2-42.4,42.4-63.7,63.5-3.6,3.5-2,5.6.7,8.4,19.5,19.4,39,38.9,58.4,58.3,2.3,2.3,4.6,4.3,7.1,6.6,1.6-1.4,2.7-2.4,3.8-3.4,20.4-20.4,40.7-41,61.3-61.2h0ZM401.8,61.7c-.7-.8-1.4-1.7-2.2-2.5-20.8-20.8-41.7-41.5-62.4-62.5-3.6-3.7-5.7-3.4-9.1.1-20.3,20.6-40.8,40.9-61.2,61.4-1.2,1.2-2.3,2.5-2.9,3.2,23.3,23.3,46.3,46.4,69.1,69.3,22.5-22.5,45.4-45.5,68.9-68.9h0ZM389.9,220.6c4.2-4.1,8.8-7.7,12.6-11-24.4-24.6-47.4-47.7-70.5-71-.5.4-1.3.9-1.9,1.6-21.4,21.3-42.7,42.7-64.2,63.9-3.2,3.2-1.8,4.9.6,7.4,20.6,20.5,41.2,41,61.6,61.7,3.5,3.6,5.6,3.6,9.1,0,17.4-17.7,35-35.2,52.7-52.7h0ZM332.6-14.3c22.6-22.7,45.7-45.7,67.6-67.7-22.7-22.9-45.7-46.2-68.2-68.9-22.5,22.5-45.4,45.4-68,68,22.8,22.8,45.8,45.9,68.6,68.6h0ZM333-159.7c22.5-22.6,45.4-45.5,67.8-67.9-23.1-23.1-46.1-46.1-68.2-68.1-22.6,22.4-45.6,45.4-68,67.7,22.6,22.6,45.6,45.6,68.4,68.4ZM400.5,353.1c-22.7-22.8-45.7-45.9-67.8-68.2-22.7,22.6-45.8,45.5-68.7,68.3,22.6,22.6,45.5,45.5,68,68,23.1-22.9,46.2-45.9,68.5-68.1h0ZM326.7-152.5c3.1-3.1,1.3-4.8-.9-7-20.7-20.7-41.5-41.3-62-62.1-3-3-4.8-3.1-7.9,0-20.6,20.8-41.3,41.4-62,62.1-1.2,1.2-2.2,2.5-3,3.5,23.1,23.2,46,46.2,69.1,69.3.5-.3.9-.4,1.2-.7,21.8-21.7,43.6-43.5,65.5-65.2ZM325.7,429.7c3.6-3.6,2.9-5.5-.3-8.7-20.4-20.2-40.6-40.5-61-60.8-1.4-1.4-3-2.7-4.4-3.9-23.3,23.3-46.1,46.1-68.7,68.7,23.1,23.2,46,46.1,69.1,69.4,1-.9,2.3-1.9,3.5-3.1,20.6-20.6,41-41.2,61.8-61.6ZM259.9,58c22.8-22.7,45.8-45.6,68.6-68.2-22.8-22.6-45.9-45.4-68.5-67.9-22.6,22.5-45.6,45.4-68,67.7,22.6,22.7,45.4,45.8,67.9,68.4h0ZM328.1,135.5c-22.9-23.1-45.7-46.1-68.7-69.3-.3.2-1,.5-1.5,1.1-21.5,21.4-43,42.9-64.6,64.3-3.2,3.1-1.8,5,.7,7.5,15.7,15.6,31.3,31.3,47,47,6.2,6.1,12.4,12.2,18.5,18.2,23.5-23.5,46.3-46.4,68.6-68.7h0ZM328.6,280.3c-22.8-22.8-45.7-45.7-68.3-68.3-23,22.9-45.9,45.8-68.1,67.9,22.6,22.8,45.5,45.9,68,68.6,22.7-22.6,45.7-45.5,68.5-68.2h0ZM256.1,61.8c-.1-.2-.4-.9-.9-1.4-21.6-21.7-43.3-43.3-64.8-65-2.3-2.3-3.9-2.2-6.1,0-6.1,6.3-12.4,12.4-18.7,18.6-15.8,15.8-31.6,31.5-47,46.8,23.5,23.7,46.4,46.8,68.9,69.4,22.6-22.6,45.5-45.5,68.7-68.7h0ZM246.8,218.1c3.4-3.3,7.3-6.1,10.5-8.7-24.4-24.4-47.3-47.4-70-70.1-23,23-45.9,45.9-69.1,69.1.3.4.8,1.2,1.5,1.8,21.2,21.2,42.5,42.4,63.6,63.7,3,3,5,2.8,7.9-.2,18.4-18.7,36.9-37.2,55.5-55.6h0ZM186.9,420.7c22.8-22.6,46-45.5,68.2-67.4-22.7-22.9-45.6-46-68.1-68.7-22.6,22.6-45.6,45.5-67.9,67.8,23,23.1,46,46.2,67.8,68.2h0ZM255.8-228c-22.7-22.7-45.7-45.6-68.7-68.5-22.7,22.6-45.7,45.7-68.5,68.4,22.8,22.8,45.8,45.9,68.6,68.6,22.8-22.8,45.9-45.8,68.6-68.5h0ZM187.6-15c22.6-22.5,45.6-45.4,68.3-68.1-22.8-22.8-45.9-45.8-68.7-68.6-22.7,22.7-45.8,45.8-67.9,68,22.8,22.9,45.9,46.1,68.3,68.6h0ZM184.1,135.7c-.8-1.4-1-2-1.4-2.4-21.6-21.7-43.3-43.3-64.8-65-2.9-2.9-4.8-1.9-7.1.4-20.9,21-41.8,41.9-62.9,62.8-2.4,2.4-2.6,4.2-.2,6.6,21,20.9,42,41.8,62.9,62.8,3.4,3.4,5.4,2.6,8.4-.4,13.1-13.4,26.4-26.6,39.7-39.8,8.4-8.4,16.8-16.6,25.4-25.1h0ZM183.6,425c-.6-.7-1.3-1.8-2.3-2.7-21.1-21.1-42.2-42.2-63.2-63.3-2.8-2.8-4.6-2.2-7,.2-21.2,21.3-42.5,42.5-63.7,63.8-.7.7-1.2,1.8-1.7,2.7,23.1,23,46,45.8,68.8,68.5,23-23,45.9-45.9,69.1-69h0ZM113.6-85.9c24-24,46.9-46.8,69.2-69.1-22.8-22.8-45.7-45.9-68.8-69.1-.2.2-.9.5-1.4,1.1-21.5,21.5-43,43-64.6,64.4-2.7,2.7-1.8,4.4.4,6.6,7.5,7.4,14.9,14.8,22.3,22.3,14.3,14.6,28.6,29.2,42.9,43.8h0ZM182.4,280.6c-22.5-22.8-45.3-45.9-67.4-68.3-22.8,22.7-45.9,45.7-68.3,68.1,22.6,22.7,45.4,45.7,67.7,68.1,22.9-22.9,46-45.9,68.1-67.9h0ZM114.7,58c22.8-22.9,45.7-45.8,68.1-68.2-22.7-22.8-45.6-45.9-68.1-68.5-22.8,22.7-45.8,45.6-68.6,68.2,22.8,22.8,45.8,45.7,68.6,68.6h0Z"/>
      <path class="cls-8" d="M961.2,224.6v5.7c-15.7,15.6-31.4,31.2-46.7,46.4-23.4-23.4-46.4-46.3-68.9-68.7,21.8-21.6,44-43.7,66.8-66.3l.9.9c-7.3,7.5-13.8,14.4-20.5,21.2-13.3,13.4-26.7,26.8-40.1,40.2-2,2-4,3.6-1,6.5,20.1,19.9,40.1,39.9,60.1,59.8.4.4,1,.6,2.1,1.2,15.7-15.6,31.4-31.3,47.2-47h0Z"/>
      <path class="cls-7" d="M961.2,190.1v34.4c-15.8,15.7-31.6,31.4-47.2,47-1.2-.7-1.7-.8-2.1-1.2-20-19.9-40-39.9-60.1-59.8-3-2.9-1-4.5,1-6.5,13.4-13.4,26.8-26.7,40.1-40.2,6.7-6.8,13.2-13.7,20.5-21.2,10,10.2,19,19.4,28.2,28.5,6.5,6.4,13.1,12.6,19.7,18.9h0ZM913.6,236.7c6.7-13.1,16-22.2,28.9-29.1-13.4-6.5-21.9-16.3-29.2-28.7-6.5,13.1-16.2,21.6-28.2,28.9,12.6,6.9,21.7,15.8,28.5,28.8Z"/>
      <path class="cls-8" d="M961.2,185.5v4.6c-6.6-6.3-13.3-12.5-19.7-18.9-9.2-9.1-18.2-18.4-28.2-28.5l-.9-.9c.9-.9,1.7-1.7,2.6-2.6,14.8,14.8,30.5,30.6,46.2,46.4h0Z"/>
      <path class="cls-8" d="M961.2,174v5.7c-13.7-13.6-27.2-27.4-41.1-40.8-3.1-3-3.1-4.9,0-7.9,13.8-13.5,27.4-27.2,41.1-40.9v5.7c-12,11.9-24.1,23.9-36.2,35.7-2.4,2.4-2.5,4.2,0,6.7,12.1,11.9,24.1,23.8,36.1,35.7h0Z"/>
      <path class="cls-5" d="M961.2,148.8v25.3c-12-11.9-24-23.9-36.1-35.7-2.5-2.4-2.4-4.3,0-6.7,12.1-11.8,24.1-23.8,36.2-35.7v32.2c-6.8,5.3-6.8,14,0,20.7h0Z"/>
      <path class="cls-7" d="M961.2,128.1v20.7c-6.8-6.7-6.8-15.4,0-20.7Z"/>
      <path class="cls-8" d="M961.2,79.9v4.6c-15.8,15.8-31.6,31.5-47.6,47.5-1.8-1.6-3.3-2.8-4.6-4.2-20.4-20.3-40.6-40.8-61.1-61l1.9-1.9c2.8,2.2,6.5,4.7,9.6,7.8,16.6,16.4,33.1,32.9,49.4,49.6,3.4,3.5,5.4,4,9.1.2,12.6-13.1,25.6-25.8,38.5-38.6,1.5-1.5,3.2-2.7,4.8-4h0Z"/>
      <path class="cls-7" d="M961.2,45.4v34.4c-1.6,1.3-3.3,2.5-4.8,4-12.9,12.8-25.9,25.5-38.5,38.6-3.7,3.8-5.7,3.3-9.1-.2-16.3-16.7-32.8-33.2-49.4-49.6-3.1-3.1-6.9-5.6-9.6-7.8-.2-.1-.4-.3-.5-.4,22.7-22.9,43.8-44.1,65.7-66.1.1.1.2.2.4.4,15.1,15.3,30.5,31,45.9,46.7h0ZM937.1,72c6.7-8.2,8.7-18.2,4.7-28.7-2.1-5.4-5.4-9.8-11.6-10.7-6.1-.9-10.1,2.5-13.2,7.3-.9,1.4-1.8,2.8-3.3,5.1-2-2.9-3.4-5.2-5-7.2-6-7.5-15.9-7.5-20.6.8-2.6,4.7-4.3,10.8-4.1,16.2.9,18.2,13.7,28.1,27.9,36.5,1.1.6,3.6.3,4.6-.6,7.1-6,14.8-11.5,20.6-18.6h0Z"/>
      <path class="cls-8" d="M961.2,39.7v5.7c-15.4-15.7-30.8-31.3-45.9-46.7l2.5-2.4h.1c14.3,14.7,28.8,29,43.2,43.4h0Z"/>
      <path class="cls-3" d="M961.2,33.9v5.7c-14.4-14.4-28.9-28.7-43.2-43.2l2.1-2.1c1.4,1,2.7,2.1,3.9,3.3,12.5,12,24.8,24.2,37.2,36.3h0Z"/>
      <path class="cls-8" d="M961.2,28.2v5.7c-12.4-12.1-24.7-24.3-37.2-36.3-1.2-1.2-2.6-2.3-3.9-3.3-1.4-1-2.8-2-4.1-3.1.4-.4.8-.8,1.2-1.3,0-.4,0-.9.2-1.1,14.6-14.5,29.2-29,43.8-43.4v4.6c-11.9,11.9-23.7,23.9-35.7,35.6-3,2.9-3.1,4.9,0,7.9,10.6,10.2,20.9,20.7,31.3,31.1,1.3,1.3,2.9,2.3,4.4,3.5h0Z"/>
      <path class="cls-5" d="M961.2,9.8v18.4c-1.5-1.1-3.1-2.1-4.4-3.5-10.4-10.4-20.7-20.9-31.3-31.1-3.1-3-3-5,0-7.9,12-11.8,23.8-23.7,35.7-35.6V-13.1c-6.9,8.2-6.9,15.2,0,23h0Z"/>
      <path class="cls-7" d="M961.2-13.1V9.8c-6.9-7.8-6.9-14.8,0-23Z"/>
      <path class="cls-8" d="M941.8,43.4c4,10.4,2,20.5-4.7,28.7-5.8,7.1-13.5,12.6-20.6,18.6-1,.9-3.5,1.2-4.6.6-14.2-8.4-27-18.2-27.9-36.5-.3-5.4,1.4-11.4,4.1-16.2,4.6-8.3,14.6-8.3,20.6-.8,1.6,2,3,4.3,5,7.2,1.5-2.3,2.4-3.7,3.3-5.1,3.1-4.8,7.1-8.2,13.2-7.3,6.2.9,9.5,5.3,11.6,10.7h0Z"/>
      <path class="cls-8" d="M942.5,207.6c-12.9,6.9-22.2,16-28.9,29.1-6.8-13-15.9-22-28.5-28.8,12-7.3,21.8-15.8,28.2-28.9,7.3,12.3,15.8,22.1,29.2,28.7h0Z"/>
      <path class="cls-8" d="M917.9-3.7l-2.5,2.4c-.1-.1-.3-.2-.4-.4-21.9,22-43,43.3-65.7,66.1.2.1.4.3.5.4l-1.9,1.9-.2-.2c-3.1-3-3.7-4.9-.3-8.2,20.9-20.5,41.5-41.2,62.1-62,3.2-3.3,5.1-3.2,8.3,0h0Z"/>
      <path class="cls-8" d="M907.3,131.3c2.6,2.6,2.9,4.5.2,7.1-21,20.9-41.9,41.9-62.8,62.9-2.4,2.4-4.3,3.2-7.1.3-21.5-21.7-43.2-43.3-64.8-65-.4-.4-.6-1-1.3-2.3,12.9-12.8,25.7-25.5,38.4-38.1,9.1-9,18.2-18,27.1-27.2,2.9-3,4.9-3.2,7.9-.2,20.7,20.9,41.5,41.7,62.4,62.5h0ZM902.1,138.3c.9-.9,1.6-2,2.7-3.4-1.2-1.4-2.2-2.7-3.4-3.9-18.9-18.9-37.9-37.8-56.7-56.8-2.7-2.8-4.6-3.1-7.5-.2-19.1,19.3-38.3,38.4-57.6,57.5-2.4,2.4-2.6,4.2-.2,6.7,19.4,19.3,38.7,38.6,58,57.9,2.4,2.4,4.2,2.6,6.7,0,19.3-19.4,38.6-38.7,57.9-58h0Z"/>
      <path class="cls-5" d="M904-11.4c.3.3.3.7,1.1,2.4-11.9,11.7-23.9,23.4-35.9,35.2-8,7.9-16.1,15.8-23.9,24-3,3.1-4.9,3.7-8.3.2-18.8-19.1-37.7-38-56.8-56.8-3.1-3.1-2.9-5.1,0-7.9,19.1-19,38.2-38,57.2-57.1,2-2,3.7-3.1,6.2-.6,20,20.2,40.2,40.4,60.2,60.6h0ZM863.9,5.6c5.4-3.1,7.5-8.1,7.1-14-.4-6.3-4.5-11.5-10.7-12.6-3.7-.7-4.3-2.5-4.7-5.8-1-8.8-6.4-13.5-14.9-13.4-8.1.1-13.3,5.5-14.5,14-.3,1.8-2.3,4.2-4,4.7-6.1,1.9-9.9,5.5-10.8,11.9-1,6.3,1.4,11.7,6.5,14.8,5.3,3.2,12.5,3,17.3-.6,1.3-1,2.5-2.1,3.7-3.1.5.3,1,.6,1.5.9-2.5,5.6-5.1,11.3-7.6,16.8h16.6c-2.6-5.7-5.1-11.4-7.7-17,.4-.3.9-.6,1.3-.9,1.4,1.2,2.8,2.4,4.2,3.5,4.7,3.5,11.6,3.9,16.8.8h0Z"/>
      <path class="cls-5" d="M904.8,134.9c-1.1,1.3-1.8,2.5-2.7,3.4-19.3,19.3-38.6,38.6-57.9,58-2.5,2.5-4.4,2.3-6.7,0-19.3-19.4-38.6-38.7-58-57.9-2.5-2.5-2.2-4.3.2-6.7,19.2-19.1,38.5-38.3,57.6-57.5,2.9-2.9,4.8-2.5,7.5.2,18.8,19,37.8,37.8,56.7,56.8,1.2,1.2,2.2,2.5,3.4,3.9h0ZM866.5,154.5c6.2-5.6,5.9-15.5-.7-22.6-5.6-6.1-11.1-12.2-16.7-18.2-2.7-2.9-5.6-5.5-8.5-8.5-4.4,4.9-8.5,9.4-12.6,13.9-5,5.5-10.4,10.8-14.7,16.8-4.4,6-2.4,15.5,3.2,19.6,5.4,4,12.6,2.9,18-2.6,1.3-1.4,2.8-2.6,4.2-3.9l1.5,1.2c-2.9,4.6-5.7,9.3-8.7,14.1h19.8c-2.2-2.7-4.2-4.8-5.7-7.1-1.5-2.4-2.5-5.1-3.7-7.6,2.1.2,3.1,1,4,1.9,6.9,7.2,14.7,8.4,20.6,3h0Z"/>
      <path class="cls-7" d="M871-8.4c.4,5.9-1.7,10.9-7.1,14-5.2,3-12.1,2.7-16.8-.8-1.4-1.1-2.8-2.3-4.2-3.5-.4.3-.9.6-1.3.9l-1.3.2c-.5-.3-1-.6-1.5-.9-1.2,1-2.4,2.1-3.7,3.1-4.8,3.6-12,3.9-17.3.6-5-3-7.4-8.5-6.5-14.8,1-6.4,4.7-10,10.8-11.9,1.7-.5,3.8-2.9,4-4.7,1.2-8.6,6.4-13.9,14.5-14,8.5-.1,13.9,4.5,14.9,13.4.4,3.2,1,5,4.7,5.8,6.2,1.2,10.3,6.3,10.7,12.6h0Z"/>
      <path class="cls-7" d="M865.8,131.9c6.5,7.1,6.8,17,.7,22.6-6,5.4-13.7,4.2-20.6-3-.9-.9-1.8-1.7-4-1.9l-1.7.6-1.5-1.2c-1.4,1.3-2.9,2.5-4.2,3.9-5.5,5.6-12.7,6.6-18,2.6-5.6-4.1-7.6-13.7-3.2-19.6,4.4-6,9.8-11.2,14.7-16.8,4.1-4.5,8.2-9,12.6-13.9,3,3,5.9,5.7,8.5,8.5,5.6,6,11.1,12.1,16.7,18.2h0Z"/>
      <path class="cls-7" d="M851.2,164.3h-19.8c3-4.9,5.9-9.5,8.7-14.1l1.7-.6c1.2,2.5,2.2,5.2,3.7,7.6,1.5,2.3,3.5,4.4,5.7,7.1h0Z"/>
      <path class="cls-8" d="M908.6-9.6c-22.1,22.1-45,45-67.6,67.6-22.7-22.7-45.7-45.7-68.4-68.4,22.5-22.4,45.5-45.2,68.2-67.8,22,22.3,44.9,45.5,67.7,68.6h0ZM905.1-9c-.8-1.8-.9-2.2-1.1-2.4-20.1-20.2-40.2-40.4-60.2-60.6-2.5-2.5-4.2-1.4-6.2.6-19,19.1-38.1,38.1-57.2,57.1-2.9,2.9-3.1,4.9,0,7.9,19,18.8,38,37.7,56.8,56.8,3.4,3.4,5.3,2.9,8.3-.2,7.8-8.1,15.9-16,23.9-24,12-11.8,24-23.5,35.9-35.2h0Z"/>
      <path class="cls-7" d="M849.3,19.2h-16.6c2.5-5.6,5.1-11.2,7.6-16.8l1.3-.2c2.5,5.7,5.1,11.3,7.7,17Z"/>
      <path class="cls-8" d="M835.4,59.6c.8.8,1.4,1.8,1.8,2.4-23.2,23.1-46.1,46-68.5,68.3-22.6-22.5-45.7-45.5-69.8-69.5,8.2-7.9,17.1-16.2,25.7-24.7,13.3-13.2,26.5-26.4,39.7-39.7,2.5-2.5,4.4-3.6,7.5-.4,21.1,21.3,42.4,42.5,63.6,63.7h0ZM833,63.2c-2.1-2.3-3.3-3.7-4.6-5.1-18.6-18.7-37.4-37.2-55.8-56.1-3.5-3.6-5.4-3-8.6.2-18.5,18.8-37.1,37.5-55.9,55.9-3.6,3.5-3.1,5.4.2,8.7,18.9,18.7,37.7,37.5,56.3,56.4,3.1,3.2,5,2.7,7.9-.3,10.8-11.1,21.8-22,32.8-32.9,9.1-9,18.3-17.8,27.8-26.9h0Z"/>
      <path class="cls-7" d="M832.2,207.4c-1.1,1.4-2,2.6-3,3.7-19.2,19.2-38.4,38.3-57.5,57.6-2.8,2.8-4.4,2.3-6.9-.2-19-19.1-38-38.2-57.2-57.1-3.2-3.1-2.7-4.9.2-7.8,19-18.8,38-37.7,56.7-56.8,3.2-3.2,4.9-2.7,7.8.2,18.7,18.9,37.5,37.6,56.3,56.4,1.2,1.2,2.2,2.5,3.5,4h0ZM788.8,221.6c8.1-8.9,11.7-19.7,8.1-31.8-1.7-6-5.2-10.8-11.8-12-6.4-1.1-10.3,2.8-13.6,7.7-.9,1.4-1.9,2.7-3.2,4.6-1.8-2.5-3.1-4.5-4.6-6.4-6.6-8.5-17.1-8.1-21.8,1.5-2.4,5-3.7,11.5-3.1,17,1.9,16.9,14,26.4,27.5,34.3,1.1.7,3.6.2,4.7-.6,6.1-4.6,12.6-8.8,17.7-14.3h0Z"/>
      <path class="cls-7" d="M828.4,58.2c1.3,1.3,2.5,2.7,4.6,5.1-9.5,9.2-18.7,18-27.8,26.9-11,10.9-22,21.8-32.8,32.9-2.9,2.9-4.7,3.4-7.9.3-18.6-18.9-37.4-37.7-56.3-56.4-3.3-3.2-3.7-5.2-.2-8.7,18.8-18.5,37.4-37.1,55.9-55.9,3.2-3.3,5.1-3.8,8.6-.2,18.4,18.8,37.2,37.4,55.8,56.1h0ZM780.7,74.6c4.5-4.5,9.9-8.1,15.7-12.7-12.2-6.3-21.3-15.5-28-28.3-6.6,12.9-15.8,21.8-28.8,28.9,13.3,6.8,21.9,16.4,28.5,27.7,4.5-5.6,8.1-11.1,12.7-15.6h0Z"/>
      <path class="cls-8" d="M837.3,208.4c-5,5-10.4,10.5-15.9,16-16.3,16.4-32.7,32.7-49,49.2-2.8,2.8-4.8,3.6-7.9.4-21.1-21.3-42.4-42.5-63.6-63.7-.7-.7-1.2-1.5-1.4-1.8,23.3-23.2,46.3-46.2,69.2-69,22.2,22.3,45.1,45.3,68.6,68.8h0ZM829.2,211.1c1-1,1.9-2.3,3-3.7-1.3-1.5-2.3-2.8-3.5-4-18.8-18.8-37.6-37.5-56.3-56.4-2.8-2.9-4.6-3.4-7.8-.2-18.8,19.1-37.7,38-56.7,56.8-3,2.9-3.4,4.7-.2,7.8,19.2,18.9,38.2,38,57.2,57.1,2.5,2.5,4.1,3.1,6.9.2,19.1-19.3,38.3-38.4,57.5-57.6h0Z"/>
      <path class="cls-8" d="M797,189.8c3.5,12.1,0,22.9-8.1,31.8-5.1,5.5-11.6,9.7-17.7,14.3-1.1.9-3.6,1.3-4.7.6-13.5-8-25.6-17.5-27.5-34.3-.6-5.5.6-12,3.1-17,4.7-9.7,15.2-10,21.8-1.5,1.5,1.9,2.8,3.9,4.6,6.4,1.3-1.9,2.3-3.2,3.2-4.6,3.2-4.8,7.2-8.8,13.6-7.7,6.6,1.1,10,6,11.8,12h0Z"/>
      <path class="cls-8" d="M796.3,61.9c-5.7,4.6-11.2,8.2-15.7,12.7-4.5,4.5-8.2,10-12.7,15.6-6.6-11.3-15.3-20.9-28.5-27.7,13-7.1,22.2-16,28.8-28.9,6.8,12.8,15.8,22,28,28.3h0Z"/>
      <path class="cls-8" d="M760.2,129.6c1.6,1.6,3.1,3.3,5.6,6.1-10.9,10.6-21.4,20.7-31.7,30.9-11.4,11.3-22.8,22.6-34,34.1-3,3.1-5,3.6-8.3.3-20.7-20.9-41.6-41.7-62.5-62.4-2.9-2.8-2.7-4.6.2-7.4,20.7-20.4,41.2-40.9,61.6-61.6,3.5-3.6,5.6-3.7,9.1,0,19.9,20.2,40,40.1,60,60.1h0ZM756.9,138.6c2.5-2.5,2.9-4.4.2-7.1-19.3-19.1-38.5-38.2-57.6-57.5-3-3-4.9-2.4-7.5.3-19,19.1-38,38.1-57.2,57.1-2.6,2.6-2.8,4.4-.1,7.1,19.3,19.1,38.4,38.3,57.7,57.4,1,1,2.3,1.8,3.7,2.9,1.4-1.2,2.7-2,3.8-3,19.1-19,38.1-38.1,57.2-57.1h0Z"/>
      <path class="cls-5" d="M757,131.5c2.7,2.7,2.3,4.6-.2,7.1-19.1,19-38.1,38.1-57.2,57.1-1,1-2.3,1.9-3.8,3-1.4-1-2.6-1.8-3.7-2.9-19.2-19.1-38.4-38.4-57.7-57.4-2.7-2.7-2.5-4.5.1-7.1,19.1-19,38.2-38,57.2-57.1,2.6-2.7,4.6-3.3,7.5-.3,19.1,19.3,38.3,38.4,57.6,57.5h0ZM718,151.3c5.2-2.6,8.1-8.1,7.7-14.3-.5-6.5-4.2-11.5-11-13-3.4-.8-4.1-2.4-4.3-5.4-.8-8.5-6.6-13.6-14.7-13.6-7.8,0-13.7,5.3-14.4,13.3-.3,3.2-.9,4.9-4.6,5.7-7.9,1.8-12.2,9.5-10.4,17.2,1.8,7.9,8.6,12.8,16.7,11.1,4-.9,7.7-3.4,12.6-5.7,0,.1,0,.2-.1.3-2.7,6.1-5.2,11.7-7.8,17.4h16.5c-2.7-5.9-5.2-11.4-7.6-16.9.5-.3,1-.5,1.5-.8.8.7,1.6,1.5,2.5,2.2,4.9,4.4,11.9,5.4,17.6,2.5h0Z"/>
      <path class="cls-5" d="M759.5-10.1c-1,1.3-1.8,2.3-2.7,3.2-19.2,19.2-38.4,38.3-57.5,57.6-2.6,2.6-4.3,2.9-7,.1-19.1-19.3-38.3-38.5-57.6-57.6-2.7-2.6-2.7-4.4-.1-7,19.3-19.1,38.5-38.3,57.6-57.5,2.6-2.6,4.5-2.8,7.1-.1,19.1,19.2,38.4,38.4,57.5,57.6,1,1,1.8,2.3,2.8,3.7h0ZM720.5,10c5.4-4,7.5-14,2.8-19.7-8.5-10.5-17.9-20.2-27.5-30.9-9.7,10.7-19.1,20.5-27.7,30.9-4.7,5.8-2.7,15.2,2.9,19.7,5.7,4.5,12.8,3.3,18.8-3,1.2-1.3,2.8-2.3,4.2-3.5.4.4.8.8,1.2,1.2-2.9,4.7-5.9,9.3-8.9,14.3h18.8c-2.9-4.9-5.7-9.6-8.6-14.4.9-.7,1.8-1.4,2.6-2.1.8,1.5,1.4,3.2,2.5,4.5,5.8,6.2,13.2,7.3,19,3h0Z"/>
      <path class="cls-7" d="M725.6,137c.5,6.2-2.5,11.6-7.7,14.3-5.7,2.9-12.7,1.9-17.6-2.5-.8-.7-1.6-1.5-2.5-2.2-.5.3-1,.5-1.5.8l-1.1-.5c0-.1,0-.2.1-.3-4.9,2.3-8.6,4.9-12.6,5.7-8.1,1.7-14.8-3.2-16.7-11.1-1.8-7.7,2.5-15.4,10.4-17.2,3.7-.8,4.3-2.4,4.6-5.7.8-8.1,6.7-13.3,14.4-13.3,8.2,0,13.9,5.1,14.7,13.6.3,3,.9,4.6,4.3,5.4,6.7,1.6,10.5,6.6,11,13h0Z"/>
      <path class="cls-7" d="M723.3-9.7c4.7,5.7,2.6,15.7-2.8,19.7-5.7,4.3-13.2,3.2-19-3-1.1-1.2-1.7-3-2.5-4.5-.9.7-1.7,1.4-2.6,2.1h-1.3c-.4-.3-.8-.7-1.2-1.1-1.4,1.2-2.9,2.2-4.2,3.5-6,6.4-13.1,7.5-18.8,3-5.6-4.5-7.6-13.9-2.9-19.7,8.6-10.4,18-20.2,27.7-30.9,9.6,10.7,19,20.4,27.5,30.9h0Z"/>
      <path class="cls-7" d="M704.9,19h-18.8c3.1-4.9,6-9.6,8.9-14.3h1.3c2.8,4.7,5.7,9.4,8.6,14.3Z"/>
      <path class="cls-8" d="M696-78.8c22.5,22.6,45.3,45.7,67.8,68.3-22.5,22.5-45.5,45.5-68.3,68.3-22.5-22.6-45.3-45.5-67.9-68.2,22.5-22.5,45.5-45.5,68.4-68.4ZM756.7-6.9c.9-.9,1.7-2,2.7-3.2-1-1.3-1.8-2.6-2.8-3.7-19.2-19.2-38.4-38.4-57.5-57.6-2.6-2.6-4.5-2.5-7.1.1-19.1,19.3-38.3,38.4-57.6,57.5-2.6,2.6-2.6,4.4.1,7,19.3,19.1,38.5,38.3,57.6,57.6,2.7,2.7,4.4,2.5,7-.1,19.1-19.3,38.3-38.4,57.5-57.6h0Z"/>
      <path class="cls-7" d="M704,164.3h-16.5c2.5-5.7,5.1-11.4,7.8-17.4l1.1.5c2.5,5.5,5,11,7.6,16.9h0Z"/>
      <path class="cls-8" d="M690.9,60.3c.5.5.8,1.2,1,1.5-23.2,23-46.1,45.9-69,68.6-22.6-22.5-45.7-45.5-69.3-69.1,10.4-10.2,21-20.7,31.6-31.1,11.4-11.3,22.7-22.7,34-34.1,2.1-2.2,3.8-4,7-.8,21.5,21.7,43.2,43.3,64.8,65h0ZM687.2,63.1c-.8-1.4-1.1-2.2-1.6-2.7-19.8-19.9-39.7-39.8-59.6-59.7-2.3-2.4-3.9-2-6.1.3-8,8.2-16.1,16.3-24.3,24.4-12.2,12.1-24.5,24.1-36.7,36,.8,1.7.9,2.2,1.2,2.4,20,20,40.1,40,60,60.1,2.9,2.9,4.4,1.5,6.5-.6,12.4-12.5,24.9-24.9,37.4-37.3,7.7-7.6,15.5-15.2,23.2-22.7h0Z"/>
      <path class="cls-7" d="M685.6,60.4c.5.5.8,1.3,1.6,2.7-7.7,7.6-15.5,15.1-23.2,22.7-12.5,12.4-24.9,24.8-37.4,37.3-2.1,2.1-3.6,3.5-6.5.6-19.9-20.1-40-40.1-60-60.1-.3-.3-.3-.7-1.2-2.4,12.1-11.9,24.4-23.9,36.7-36,8.2-8.1,16.3-16.1,24.3-24.4,2.2-2.3,3.8-2.6,6.1-.3,19.8,19.9,39.7,39.8,59.6,59.7h0ZM644.1,75.5c7.6-7.9,9.9-17.9,8.2-28.7-1.1-7-6.2-13.1-11.8-14.1-7.2-1.2-11.5,2.6-14.8,8.3-.6,1.1-1.5,2.1-2.7,3.8-2-2.8-3.2-4.9-4.8-6.8-6.4-7.8-15.3-7.6-21,.7-4,5.7-5.1,12.3-3.7,19.2,3.3,15.9,14.2,25.7,27.7,33.1,1.3.7,3.9.3,5.1-.7,6.2-4.8,12.6-9.4,17.9-14.9h0Z"/>
      <path class="cls-7" d="M684.6,204.7c2.4,2.4,2,3.9-.2,6.1-19.4,19.3-38.7,38.6-58,58-1.9,1.9-3.4,3.3-6.1.6-19.9-20.1-40-40-60-60.1-.4-.4-.6-1-1.3-2.3,15.5-15.4,30.8-30.6,46.1-45.8,4.9-4.9,9.8-9.6,14.5-14.6,2.3-2.4,3.9-3,6.6-.4,19.4,19.6,38.8,39,58.4,58.4h0ZM623.3,236.6c6.5-13.1,16-21.8,28.4-28.9-12.6-7.1-21.9-15.9-28.7-29-6.6,13.2-16,22.4-29.2,29.2,13.7,6.4,22.3,16.2,29.5,28.7h0Z"/>
      <path class="cls-8" d="M692,209.1c-4.9,4.8-10.5,10.1-16.1,15.6-16.2,16.2-32.5,32.4-48.6,48.8-3.2,3.3-5.2,3.7-8.7.1-20.5-20.8-41.2-41.4-61.9-62.1-1.1-1.1-2-2.2-3.1-3.4,23.4-23.3,46.4-46.2,69-68.7,22.7,22.8,45.6,45.9,69.3,69.7h0ZM684.4,210.8c2.2-2.2,2.6-3.7.2-6.1-19.5-19.4-39-38.9-58.4-58.4-2.6-2.6-4.3-2-6.6.4-4.7,5-9.7,9.8-14.5,14.6-15.3,15.2-30.6,30.4-46.1,45.8.7,1.3.9,1.9,1.3,2.3,20,20,40,40,60,60.1,2.7,2.7,4.2,1.3,6.1-.6,19.3-19.3,38.6-38.7,58-58h0Z"/>
      <path class="cls-8" d="M652.3,46.8c1.7,10.8-.6,20.8-8.2,28.7-5.3,5.6-11.7,10.2-17.9,14.9-1.2.9-3.8,1.3-5.1.7-13.5-7.4-24.4-17.2-27.7-33.1-1.4-6.8-.2-13.4,3.7-19.2,5.7-8.4,14.6-8.6,21-.7,1.5,1.9,2.8,4,4.8,6.8,1.2-1.7,2.1-2.7,2.7-3.8,3.3-5.7,7.7-9.5,14.8-8.3,5.6,1,10.7,7.1,11.8,14.1h0Z"/>
      <path class="cls-8" d="M651.7,207.7c-12.4,7.1-22,15.8-28.4,28.9-7.2-12.6-15.8-22.3-29.5-28.7,13.3-6.8,22.6-16,29.2-29.2,6.8,13.1,16,21.9,28.7,29h0Z"/>
      <path class="cls-8" d="M616.6,131.3c1,1,1.8,2.3,2.9,3.7-1.1,1.4-1.9,2.7-3,3.8-20.9,21-41.9,41.9-62.8,62.9-2.8,2.8-4.5,2.3-7-.3-20.6-20.7-41.2-41.5-62-62-3.4-3.4-3.4-5.3,0-8.7,20.7-20.4,41.2-40.9,61.6-61.6,2.9-2.9,4.8-3.4,7.9-.3,20.7,20.9,41.6,41.6,62.4,62.5h0ZM611,139.1c2.9-2.9,3.3-4.9.2-8-19.2-18.9-38.2-38-57.2-57.1-2.5-2.6-4.3-2.8-7,0-19.1,19.3-38.3,38.4-57.5,57.5-2.5,2.5-3,4.3-.2,7,19.4,19.2,38.7,38.6,58.1,57.8.9.9,2,1.6,3.3,2.5,1.3-1.1,2.5-2,3.6-3,18.9-18.9,37.8-37.8,56.8-56.7h0Z"/>
      <path class="cls-5" d="M611.7-13.7c2.4,2.4,2.7,4,.1,6.6-19.5,19.4-38.9,38.9-58.4,58.3-.8.8-1.7,1.4-2.9,2.4-1.3-1-2.5-1.8-3.5-2.8-18.9-18.9-37.8-37.9-56.8-56.7-3.1-3-3.6-5-.3-8.3,19.2-18.9,38.2-38,57.2-57.2,2.8-2.8,4.6-2.4,7,.1,19.1,19.3,38.3,38.5,57.6,57.6h0ZM572.1,6.3c5.8-2.4,8.8-8.2,8.1-15.1-.7-7.2-4.9-11.2-11.9-12.8-1.3-.3-2.7-2.5-2.9-4-1.3-9.3-6.3-14.4-14.6-14.5-8.6-.2-13.8,4.9-15.4,14.4-.3,1.6-2.2,3.7-3.8,4.3-6.4,2.2-10.7,6.8-11.2,13.1-.5,5.8,2.5,11.3,7.9,14.1,5.6,2.9,12.4,2.1,17.2-1.9,1.1-.9,2.1-1.8,3.2-2.6.4.3.8.6,1.3.8,0,0,0,0,0,.1-2.5,5.6-5,11.3-7.5,16.9h16.5c-2.7-5.8-5.1-11-7.5-16.2.5-.3,1-.6,1.5-.9.3.2.7.3,1,.5,5.3,5.4,11.6,6.6,18.4,3.8h0Z"/>
      <path class="cls-5" d="M611.1,131.1c3.1,3.1,2.7,5.1-.2,8-19,18.8-37.9,37.8-56.8,56.7-1.1,1-2.3,1.9-3.6,3-1.3-1-2.4-1.6-3.3-2.5-19.4-19.3-38.6-38.6-58.1-57.8-2.8-2.7-2.3-4.5.2-7,19.3-19.1,38.5-38.2,57.5-57.5,2.7-2.8,4.5-2.5,7,0,19,19.1,38,38.2,57.2,57.1h0ZM575.4,155.1c5.5-4.4,7-14.5,2.1-20.3-8.5-10-17.6-19.5-27.2-30-9.6,10.7-19.3,20.5-27.8,31.2-5,6.3-2.5,15.1,4,19.8,5.4,4,12.5,2.6,18.1-3.9,1.1-1.2,1.3-3.2,1.9-4.9,1,.8,1.9,1.6,2.9,2.4-1.1,2.5-2,5.1-3.4,7.4-1.4,2.4-3.4,4.5-5.6,7.4h19.2c-2.8-4.9-5.4-9.5-8-14l2-1.3c1,1.2,1.8,2.4,2.9,3.5,5.9,6,13.6,7.1,19,2.8h0Z"/>
      <path class="cls-8" d="M619-10.3c-22.8,22.7-45.8,45.6-70.2,70-5.2-5.8-10.6-12.2-16.5-18.2-15.8-16.1-31.9-32-47.8-47.9-2.2-2.2-4-4-.9-7,21.5-21.3,42.8-42.7,64.2-64,.8-.8,1.8-1.3,2.1-1.5,23.3,23.1,46.3,45.9,69.1,68.6h0ZM611.8-7.1c2.6-2.6,2.3-4.2-.1-6.6-19.2-19.2-38.4-38.4-57.6-57.6-2.5-2.5-4.3-3-7-.1-18.9,19.2-38,38.2-57.2,57.2-3.4,3.3-2.8,5.3.3,8.3,19,18.8,37.8,37.8,56.8,56.7,1,1,2.3,1.8,3.5,2.8,1.2-1,2.1-1.6,2.9-2.4,19.5-19.5,38.9-39,58.4-58.3h0Z"/>
      <path class="cls-7" d="M580.2-8.8c.7,6.8-2.3,12.7-8.1,15.1-6.8,2.8-13.1,1.6-18.4-3.8-.2-.2-.6-.3-1-.5-.5.3-1,.6-1.5.9l-1.5-.7s0,0,0-.1c-.4-.3-.8-.6-1.3-.8-1.1.9-2.1,1.7-3.2,2.6-4.8,4-11.6,4.8-17.2,1.9-5.4-2.8-8.4-8.3-7.9-14.1.6-6.3,4.8-10.9,11.2-13.1,1.6-.6,3.5-2.7,3.8-4.3,1.6-9.6,6.8-14.6,15.4-14.4,8.3.2,13.3,5.3,14.6,14.5.2,1.5,1.7,3.7,2.9,4,7,1.6,11.2,5.6,11.9,12.8h0Z"/>
      <path class="cls-7" d="M577.5,134.8c4.9,5.8,3.4,15.9-2.1,20.3-5.4,4.4-13.1,3.3-19-2.8-1-1.1-1.9-2.3-2.9-3.5l-2,1.3-2.2-.8c-1-.8-1.9-1.6-2.9-2.4-.6,1.6-.8,3.6-1.9,4.9-5.6,6.5-12.7,7.9-18.1,3.9-6.4-4.7-8.9-13.5-4-19.8,8.5-10.7,18.1-20.5,27.8-31.2,9.6,10.5,18.7,20,27.2,30h0Z"/>
      <path class="cls-7" d="M559.6,164.3h-19.2c2.3-2.9,4.2-5,5.6-7.4,1.4-2.3,2.3-4.9,3.4-7.4l2.2.8c2.6,4.6,5.2,9.1,8,14h0Z"/>
      <path class="cls-7" d="M558.9,19.1h-16.5c2.5-5.6,5-11.3,7.5-16.9l1.5.7c2.4,5.2,4.8,10.5,7.5,16.2h0Z"/>
      <path class="cls-8" d="M544.7,59.4c.9.9,1.6,2,2.4,3.2-1,1.2-1.7,2.3-2.7,3.3-21.2,21.2-42.4,42.4-63.6,63.7-2.3,2.3-3.8,2.4-6.1,0-21.3-21.4-42.6-42.8-64-64-3.2-3.1-1.3-4.8.9-7,20.8-20.8,41.7-41.6,62.4-62.5,3.2-3.2,5.2-2.4,7.9.4,17.9,18.1,35.9,36,53.9,54,3,3,6,5.9,8.9,8.9h0ZM539.1,65.7c2.6-2.5,2.4-4.1,0-6.5-19.4-19.3-38.7-38.6-58-58-2.5-2.5-4.1-2.5-6.5,0-19.1,19.3-38.3,38.5-57.6,57.6-2.9,2.8-2.7,4.6.1,7.4,19.3,19.1,38.4,38.4,57.6,57.5.9.9,2,1.6,3.2,2.6,1.3-1.1,2.5-2,3.6-3.1,19.2-19.2,38.3-38.4,57.6-57.5Z"/>
      <path class="cls-8" d="M547.1,207.5c-.9,1.2-1.6,2.4-2.5,3.3-21.2,21.2-42.5,42.4-63.6,63.7-2.5,2.6-4.2,2.2-6.6-.2-21-21.1-42.1-42.2-63.3-63.2-2.7-2.7-2.5-4.4,0-7,21-20.9,42-41.8,62.8-62.8,2.7-2.7,4.5-3.1,7.4-.2,21,21.2,42.1,42.2,63.2,63.3.9.9,1.6,2,2.5,3.2h0ZM538.9,211c2.7-2.7,2.5-4.3-.1-6.9-19.3-19.1-38.5-38.3-57.6-57.6-2.8-2.8-4.3-2.5-6.9,0-19.1,19.3-38.3,38.5-57.6,57.6-2.8,2.7-2.6,4.3,0,6.9,19.3,19.1,38.4,38.4,57.7,57.6.9.9,2,1.7,3.3,2.8,1.3-1,2.5-1.8,3.6-2.9,19.2-19.2,38.4-38.5,57.6-57.6h0Z"/>
      <path class="cls-7" d="M539.1,59.2c2.4,2.4,2.6,3.9,0,6.5-19.3,19.1-38.4,38.4-57.6,57.5-1,1.1-2.3,1.9-3.6,3.1-1.2-1-2.3-1.7-3.2-2.6-19.2-19.2-38.3-38.4-57.6-57.5-2.8-2.8-3-4.6-.1-7.4,19.3-19.1,38.5-38.3,57.6-57.6,2.5-2.5,4.1-2.5,6.5,0,19.3,19.4,38.6,38.8,58,58ZM477.7,91.4c6.8-13,16-22.1,29.1-29.1-13.4-6.7-22.2-16.1-29.2-28.7-6.8,13-15.9,21.9-28.6,28.6,12.6,7.1,22.1,15.9,28.7,29.1h0Z"/>
      <path class="cls-7" d="M538.8,204.1c2.7,2.6,2.9,4.2.1,6.9-19.3,19.1-38.4,38.4-57.6,57.6-1,1-2.3,1.8-3.6,2.9-1.3-1.1-2.3-1.9-3.3-2.8-19.2-19.2-38.4-38.4-57.7-57.6-2.6-2.6-2.8-4.2,0-6.9,19.3-19.1,38.5-38.3,57.6-57.6,2.6-2.6,4.1-2.9,6.9,0,19.1,19.3,38.3,38.5,57.6,57.6h0ZM499.8,219.7c7.8-9.3,10.5-20.3,5.8-32.2-2.1-5.2-5.7-9.2-11.7-9.8-5.8-.6-9.7,2.8-12.6,7.4-1,1.5-2,3-3.6,5.4-1.5-2.4-2.4-3.9-3.4-5.4-2.9-4.3-6.4-7.8-12-7.4-6,.4-10.5,4.1-11.8,9.4-1.5,6.3-2.6,13.4-1.2,19.5,3.3,14.1,14.1,22.8,26.2,29.5,1.5.8,4.7.3,6.2-.8,6.3-4.9,13-9.6,18.1-15.6h0Z"/>
      <path class="cls-8" d="M505.6,187.6c4.7,11.8,2,22.9-5.8,32.2-5.1,6-11.8,10.7-18.1,15.6-1.4,1.1-4.7,1.6-6.2.8-12.1-6.8-22.9-15.4-26.2-29.5-1.4-6.1-.4-13.2,1.2-19.5,1.3-5.3,5.8-9,11.8-9.4,5.6-.4,9.2,3,12,7.4,1,1.5,1.9,3.1,3.4,5.4,1.6-2.4,2.6-3.8,3.6-5.4,3-4.6,6.8-8,12.6-7.4,6,.6,9.6,4.6,11.7,9.8h0Z"/>
      <path class="cls-8" d="M506.9,62.3c-13.2,7-22.3,16.1-29.1,29.1-6.6-13.2-16.1-22-28.7-29.1,12.7-6.7,21.8-15.6,28.6-28.6,6.9,12.5,15.8,22,29.2,28.7h0Z"/>
      <path class="cls-8" d="M471.5,131.1c3.1,3.1,2.7,5-.3,7.9-20.8,20.6-41.5,41.2-62,62-3.1,3.1-4.9,3-7.8,0-20.6-20.8-41.3-41.4-62.1-62-3.4-3.3-2.8-5.4.2-8.4,20.8-20.6,41.4-41.3,62.1-62,1-1,2.3-1.8,3.6-2.9,1.3,1,2.4,1.7,3.3,2.6,21,20.9,41.9,41.9,62.9,62.7h0ZM466.3,138.3c.9-.9,1.7-2,2.8-3.3-1.2-1.4-2.2-2.7-3.4-3.9-18.8-18.8-37.7-37.4-56.3-56.4-3.5-3.6-5.4-3.2-8.7,0-18.5,18.8-37.1,37.4-55.9,55.9-3.6,3.5-3,5.6.2,8.8,18.7,18.5,37.4,37.1,55.9,55.9,3.2,3.2,5.1,3.4,8.3.1,18.9-19.2,38-38.1,57.1-57.2h0Z"/>
      <path class="cls-8" d="M470.7-14.8c3.6,3.6,3.5,5.5-.2,9.1-20.2,19.8-40.1,40-60.1,60-1.6,1.6-3.3,3.1-5.8,5.4-12.7-12.8-24.7-25.1-36.8-37.3-9.6-9.6-19.2-19.2-28.8-28.8-2.6-2.6-3.4-4.5-.3-7.5,21.5-21.2,42.8-42.6,64.2-64,.5-.5,1.2-1,2.4-1.9,3.9,3.8,7.9,7.6,11.8,11.4,17.9,17.9,35.6,35.8,53.6,53.5h0ZM468.9-10.2c-1-1.3-1.8-2.6-2.9-3.7-19-19.1-38.1-38.1-57.1-57.2-2.7-2.7-4.6-3.2-7.5-.2-19,19.2-38,38.2-57.2,57.2-2.8,2.8-2.9,4.6,0,7.5,19.3,19.1,38.5,38.3,57.6,57.6,2.4,2.4,3.9,2.8,6.5.2,19.3-19.4,38.6-38.7,58-58,.9-.9,1.6-2,2.6-3.3h0Z"/>
      <path class="cls-5" d="M466-13.8c1,1,1.8,2.3,2.9,3.7-1,1.3-1.7,2.4-2.6,3.3-19.3,19.3-38.7,38.6-58,58-2.6,2.6-4.1,2.2-6.5-.2-19.1-19.3-38.3-38.5-57.6-57.6-2.9-2.9-2.8-4.7,0-7.5,19.2-19,38.2-38,57.2-57.2,2.9-3,4.8-2.5,7.5.2,19,19.1,38.1,38.2,57.1,57.2h0ZM430.3,9.5c5.9-5,6.6-14,1.5-20.7-2.3-3-4.9-5.8-7.5-8.6-6.3-6.8-12.7-13.4-19.3-20.4-7.7,8.3-14.9,15.9-22,23.7-2.4,2.7-4.9,5.5-6.5,8.6-3.2,6.4-.9,14.6,4.7,18.4,5.6,3.8,11.8,2.7,17.4-3,1.3-1.3,2.6-2.5,3.9-3.8.5.4,1,.7,1.6,1.1-2.8,4.7-5.6,9.4-8.4,14.2h19.5c-2.1-2.7-4.1-4.8-5.6-7.3-1.4-2.4-2.4-5-3.5-7.5.8-.6,1.7-1.2,2.5-1.9.8,1.5,1.3,3.3,2.5,4.5,6.1,6.6,13.4,7.5,19.2,2.6h0Z"/>
      <path class="cls-5" d="M469.1,135c-1.1,1.3-1.8,2.4-2.8,3.3-19,19.1-38.1,38-57.1,57.2-3.2,3.3-5.1,3.1-8.3-.1-18.5-18.8-37.2-37.4-55.9-55.9-3.2-3.1-3.8-5.2-.2-8.8,18.8-18.5,37.4-37.1,55.9-55.9,3.2-3.3,5.2-3.6,8.7,0,18.6,18.9,37.5,37.6,56.3,56.4,1.2,1.2,2.2,2.5,3.4,3.9h0ZM428.6,150.5c5.3-3.3,7.7-8.5,6.5-14.8-1.4-7.7-6.8-11.6-14.5-12.6-1-11.8-5.6-17.6-14-18-9.2-.4-15.7,3.7-16.9,18-7.1,1.2-12.6,4.5-14.1,12.1-1.2,6.4.7,12,6.5,15.3,7.8,4.4,14.8,2.3,21.1-3.9.4.4.8.7,1.2,1.1-2.4,5.6-4.9,11.1-7.3,16.7h16.3c-2.7-5.9-5.1-11.4-7.5-16.8.4-.5.8-1,1.2-1.5,6.2,7.1,13.5,9.4,21.5,4.5h0Z"/>
      <path class="cls-7" d="M435.1,135.7c1.2,6.3-1.2,11.5-6.5,14.8-8,4.9-15.2,2.7-21.5-4.5-.4.5-.8,1-1.2,1.5h-1.5c-.4-.2-.8-.6-1.2-.9-6.3,6.2-13.3,8.3-21.1,3.9-5.8-3.3-7.7-8.9-6.5-15.3,1.4-7.6,7-10.9,14.1-12.1,1.3-14.3,7.8-18.4,16.9-18,8.4.4,13,6.2,14,18,7.7,1,13.1,4.9,14.5,12.6h0Z"/>
      <path class="cls-7" d="M431.8-11.1c5.2,6.6,4.5,15.6-1.5,20.7-5.8,4.9-13,4-19.2-2.6-1.1-1.2-1.7-3-2.5-4.5-.8.6-1.7,1.2-2.5,1.9l-2,.6c-.5-.4-1.1-.7-1.6-1.1-1.3,1.3-2.7,2.5-3.9,3.8-5.6,5.7-11.8,6.8-17.4,3-5.6-3.8-8-12-4.7-18.4,1.6-3.2,4.1-6,6.5-8.6,7-7.8,14.2-15.4,22-23.7,6.6,6.9,13,13.6,19.3,20.4,2.6,2.8,5.2,5.6,7.5,8.6h0Z"/>
      <path class="cls-7" d="M415.3,19.1h-19.5c2.8-4.8,5.6-9.5,8.4-14.2l2-.6c1.2,2.5,2.1,5.2,3.5,7.5,1.5,2.4,3.5,4.6,5.6,7.3h0Z"/>
      <path class="cls-7" d="M413.4,164.2h-16.3c2.4-5.5,4.9-11.1,7.3-16.7h1.5c2.4,5.3,4.8,10.7,7.5,16.7h0Z"/>
      <path class="cls-8" d="M399.6,59.2c.8.8,1.5,1.7,2.2,2.5-23.4,23.4-46.3,46.4-68.9,68.9-22.8-22.9-45.8-45.9-69.1-69.3.6-.7,1.7-2,2.9-3.2,20.4-20.5,40.9-40.8,61.2-61.4,3.5-3.5,5.5-3.8,9.1-.1,20.7,21,41.6,41.7,62.4,62.5ZM385.2,74.1c3.8-3.7,7.9-7.1,11.4-10.3-22.2-22.2-43.3-43.3-64-64.1-20.7,20.7-41.9,41.8-63.4,63.3.2.3.4.8.8,1.2,19.7,19.8,39.5,39.5,59.2,59.3,2.8,2.8,4.5,2.2,7-.3,16.3-16.5,32.6-32.8,49-49.1h0Z"/>
      <path class="cls-7" d="M392.4,203.2c1.3,1.3,2.6,2.7,3.7,3.8-21.5,21.3-42.7,42.3-63.7,63.1-20.4-20.5-41.4-41.8-62.9-63.5.6-.7,2-2.2,3.4-3.7,18.4-18.4,36.9-36.7,55-55.3,3.8-3.9,5.8-3.5,9.4.2,18.2,18.6,36.7,36.8,55.1,55.2h0ZM332.5,236.7c6.8-13,16-22.2,29.1-29-13.3-6.7-22.2-16.3-29.3-29-6.4,13.4-16.2,21.9-28.3,29.1,12.8,6.9,21.8,15.9,28.6,28.8h0Z"/>
      <path class="cls-8" d="M402.5,209.6c-3.8,3.3-8.5,6.9-12.6,11-17.7,17.5-35.3,35-52.7,52.7-3.5,3.6-5.6,3.6-9.1,0-20.4-20.7-41-41.2-61.6-61.7-2.5-2.4-3.9-4.2-.6-7.4,21.5-21.2,42.8-42.6,64.2-63.9.7-.7,1.4-1.2,1.9-1.6,23.2,23.3,46.1,46.4,70.5,71h0ZM396,207c-1.1-1.1-2.3-2.5-3.7-3.8-18.4-18.4-36.9-36.7-55.1-55.2-3.6-3.7-5.6-4.1-9.4-.2-18.2,18.6-36.7,36.9-55,55.3-1.4,1.4-2.8,3-3.4,3.7,21.5,21.7,42.6,42.9,62.9,63.5,20.9-20.7,42.2-41.8,63.7-63.1h0Z"/>
      <path class="cls-7" d="M396.6,63.8c-3.6,3.2-7.7,6.6-11.4,10.3-16.4,16.3-32.8,32.7-49,49.1-2.5,2.5-4.2,3.1-7,.3-19.6-19.8-39.4-39.5-59.2-59.3-.4-.4-.6-.9-.8-1.2,21.5-21.5,42.7-42.6,63.4-63.3,20.7,20.7,41.9,41.9,64,64.1h0ZM353.4,76c7.7-9.5,11.8-20.1,7.5-32.5-1.8-5.2-5-9.6-10.8-10.8-6.4-1.4-10.5,2.1-13.9,6.9-1.1,1.5-2.1,3.1-3.5,5.1-2.1-2.9-3.6-5.5-5.6-7.7-5.6-6.5-14.7-6.3-19.6.7-2,2.9-3.5,6.4-4.1,9.9-2.7,16.4,5.6,28.1,17.8,37.2,12.6,9.4,10.2,9.2,22.3.5,3.7-2.6,7.2-5.8,10-9.3h0Z"/>
      <path class="cls-8" d="M360.9,43.6c4.4,12.3.2,22.9-7.5,32.5-2.8,3.5-6.3,6.7-10,9.3-12.1,8.7-9.7,9-22.3-.5-12.2-9.1-20.5-20.8-17.8-37.2.6-3.4,2.1-7,4.1-9.9,4.9-7,14-7.2,19.6-.7,1.9,2.2,3.5,4.8,5.6,7.7,1.4-2.1,2.4-3.6,3.5-5.1,3.4-4.8,7.5-8.3,13.9-6.9,5.9,1.2,9,5.6,10.8,10.8h0Z"/>
      <path class="cls-8" d="M361.6,207.7c-13.1,6.7-22.3,16-29.1,29-6.8-12.9-15.8-21.9-28.6-28.8,12.2-7.2,21.9-15.7,28.3-29.1,7.1,12.6,16,22.3,29.3,29h0Z"/>
      <path class="cls-5" d="M320.7,131.2c2.8,2.7,3.1,4.6.1,7.5-19,18.8-37.8,37.8-56.8,56.7-1.2,1.2-2.5,2.2-4,3.5-1.5-1.1-2.7-1.9-3.8-3-19.2-19.1-38.4-38.4-57.7-57.4-2.8-2.7-2.3-4.5.2-7,19-18.8,38-37.7,56.7-56.7,3.5-3.5,5.6-3,8.8.2,18.7,18.9,37.5,37.6,56.3,56.3h0ZM288,151.4c3.2-5.3,2.3-13.3-2.1-18.3-6.3-7.1-12.9-14.1-19.3-21.2-2.1-2.4-4-4.9-6.2-7.6-3.2,3.4-5.2,5.7-7.3,7.9-6.8,7.5-14,14.7-20.3,22.6-4.9,6.1-3.4,15.7,2.1,20.2,5.5,4.5,12.9,3.4,18.9-2.7,1.2-1.2,2.6-2.3,3.9-3.5.5.4,1,.8,1.5,1.2-2.9,4.6-5.7,9.3-8.7,14.1h19c-3.1-4.9-6-9.6-8.9-14.3.6-.4,1.2-.8,1.8-1.2,1.4,1.5,2.6,3.2,4.2,4.3,2.6,1.7,5.4,3.7,8.4,4.4,5.6,1.3,10.2-1.3,13.2-6.1h0Z"/>
      <path class="cls-5" d="M320.6-14.3c3.3,3.3,3,5.2-.2,8.3-19,18.8-37.9,37.8-56.9,56.7-1,1-2.2,1.9-3.5,2.9-1.3-1.1-2.4-1.8-3.4-2.7-19.2-19.2-38.3-38.4-57.7-57.5-3.1-3-2.5-4.8.2-7.5,19.1-19,38.2-38,57.2-57.2,2.9-2.9,4.8-2.6,7.5.2,18.8,19,37.7,38,56.8,56.7h0ZM282.8,5.6c5-2.9,8-8.9,7-14.6-1-6.2-4.2-10.9-10.6-12.1-4.2-.7-4.4-3.1-4.8-6.4-1-8.5-6.8-13-15.4-12.7-7.6.3-13.1,5.5-13.7,13.4-.2,3.1-1,4.8-4.4,5.5-6.3,1.2-9.9,5.4-10.8,11.7-1,6.3,1.5,11.6,6.6,14.7,5.3,3.2,12.4,2.9,17.3-.8,1.3-.9,2.4-2,3.6-3,.5.3,1,.6,1.5.9-2.6,5.6-5.2,11.2-7.7,16.8h16.7c-2.6-5.7-5.1-11.4-7.6-17,.5-.3.9-.6,1.4-.9,1.4,1.1,2.7,2.4,4.1,3.4,4.5,3.5,11.7,3.9,16.8.9h0Z"/>
      <path class="cls-7" d="M289.9-9c.9,5.7-2.1,11.7-7,14.6-5,3-12.3,2.6-16.8-.9-1.4-1.1-2.7-2.3-4.1-3.4-.5.3-.9.6-1.4.9l-1.3.2c-.5-.3-1-.6-1.5-.9-1.2,1-2.4,2.1-3.6,3-4.9,3.7-12,4-17.3.8-5.1-3.1-7.5-8.4-6.6-14.7,1-6.3,4.5-10.5,10.8-11.7,3.4-.7,4.1-2.4,4.4-5.5.6-8,6-13.1,13.7-13.4,8.7-.3,14.4,4.2,15.4,12.7.4,3.3.6,5.6,4.8,6.4,6.4,1.1,9.6,5.9,10.6,12.1h0Z"/>
      <path class="cls-7" d="M285.9,133.1c4.4,4.9,5.4,13,2.1,18.3-3,4.8-7.5,7.3-13.2,6.1-3-.7-5.8-2.6-8.4-4.4-1.6-1.1-2.8-2.8-4.2-4.3-.6.4-1.2.8-1.8,1.2l-1.4.2c-.5-.4-1-.8-1.5-1.2-1.3,1.2-2.7,2.3-3.9,3.5-6,6.1-13.4,7.2-18.9,2.7-5.6-4.6-7.1-14.1-2.1-20.2,6.3-7.9,13.5-15.1,20.3-22.6,2-2.3,4.1-4.5,7.3-7.9,2.2,2.7,4.1,5.2,6.2,7.6,6.4,7.1,13,14,19.3,21.2h0Z"/>
      <path class="cls-8" d="M328.5-10.3c-22.8,22.7-45.8,45.5-68.6,68.2-22.5-22.7-45.3-45.7-67.9-68.4,22.4-22.3,45.4-45.2,68-67.7,22.6,22.4,45.6,45.3,68.5,67.9h0ZM320.5-6c3.1-3.1,3.5-5,.2-8.3-19.1-18.8-38-37.7-56.8-56.7-2.7-2.8-4.6-3.1-7.5-.2-19,19.1-38.1,38.2-57.2,57.2-2.7,2.6-3.2,4.4-.2,7.5,19.3,19,38.5,38.3,57.7,57.5.9.9,2,1.7,3.4,2.7,1.3-1.1,2.5-1.9,3.5-2.9,19-18.9,37.8-37.9,56.9-56.7h0Z"/>
      <path class="cls-8" d="M259.4,66.2c23,23.2,45.8,46.1,68.7,69.3-22.2,22.3-45.1,45.2-68.6,68.7-6.1-6-12.4-12-18.5-18.2-15.7-15.7-31.3-31.4-47-47-2.5-2.5-3.8-4.3-.7-7.5,21.6-21.4,43.1-42.9,64.6-64.3.5-.5,1.2-.9,1.5-1.1h0ZM320.9,138.6c2.9-2.9,2.6-4.7-.1-7.5-18.9-18.7-37.7-37.4-56.3-56.3-3.2-3.2-5.4-3.8-8.8-.2-18.8,19-37.7,37.9-56.7,56.7-2.5,2.5-3,4.3-.2,7,19.3,19.1,38.4,38.3,57.7,57.4,1,1,2.3,1.8,3.8,3,1.5-1.3,2.9-2.3,4-3.5,18.9-18.9,37.8-37.9,56.8-56.7h0Z"/>
      <path class="cls-7" d="M269.5,164.3h-19c3-4.9,5.9-9.5,8.7-14.1l1.4-.2c2.9,4.7,5.9,9.4,8.9,14.3h0Z"/>
      <path class="cls-7" d="M268.2,19.2h-16.7c2.6-5.6,5.1-11.2,7.7-16.8l1.3-.2c2.5,5.7,5.1,11.3,7.6,17h0Z"/>
      <path class="cls-8" d="M255.1,60.4c.5.5.8,1.2.9,1.4-23.1,23.1-46.1,46.1-68.7,68.7-22.4-22.6-45.4-45.8-68.9-69.4,15.3-15.3,31.1-31.1,47-46.8,6.2-6.2,12.5-12.3,18.7-18.6,2.2-2.3,3.8-2.4,6.1,0,21.6,21.7,43.2,43.3,64.8,65h0ZM251,62.6c-.7-1-1.2-2-2-2.8-19.7-19.7-39.4-39.5-59.3-59.1-.9-.9-4.1-.8-5,0-19.8,19.4-39.3,39.1-58.9,58.6-2.2,2.2-2.4,3.8,0,6.2,19.4,19.2,38.8,38.6,58,58,2.6,2.7,4.3,2.7,7,0,19.1-19.3,38.3-38.4,57.5-57.7.9-.9,1.7-2,2.7-3.2h0Z"/>
      <path class="cls-7" d="M249,59.8c.8.8,1.3,1.8,2,2.8-1,1.2-1.8,2.3-2.7,3.2-19.2,19.2-38.4,38.4-57.5,57.7-2.7,2.7-4.4,2.6-7,0-19.3-19.4-38.6-38.7-58-58-2.4-2.4-2.1-4,0-6.2,19.6-19.5,39.2-39.2,58.9-58.6.9-.9,4.1-.9,5,0,19.9,19.6,39.6,39.3,59.3,59.1h0ZM187.3,91.1c6.8-12.7,16.2-21.6,28.5-28.8-12.7-6.9-22-15.9-28.7-29-6.4,13.5-16,22.1-28.5,29.2,12.9,6.9,21.7,16.2,28.7,28.6h0Z"/>
      <path class="cls-7" d="M248.1,203.7c2.8,2.7,3.1,4.5.1,7.4-19.3,19.1-38.4,38.3-57.6,57.5-.9.9-2,1.7-3.2,2.7-1.2-.9-2.3-1.6-3.2-2.5-19.3-19.3-38.6-38.7-58-57.9-2.7-2.7-2.5-4.4.1-7,19.3-19.1,38.5-38.3,57.6-57.6,2.8-2.9,4.4-2.3,6.9.2,19,19.1,38,38.2,57.2,57.1h0ZM212.4,215.3c5.5-9.9,7.1-20.2,1.2-30.5-5.2-9.1-15.1-9.6-21.6-1.4-1.5,1.9-2.8,4-4.7,6.8-1.8-2.7-3-4.6-4.4-6.4-6.6-8.7-16.9-8.5-21.8,1.1-2.5,5-3.8,11.4-3.2,17,1.8,16.9,13.7,26.5,27.3,34.4,1.2.7,3.5.4,4.8-.3,9.1-5.1,17.2-11.4,22.4-20.7h0Z"/>
      <path class="cls-8" d="M257.3,209.3c-3.2,2.7-7.2,5.4-10.5,8.7-18.6,18.4-37.1,37-55.5,55.6-2.9,3-4.9,3.2-7.9.2-21.1-21.3-42.4-42.5-63.6-63.7-.7-.7-1.2-1.4-1.5-1.8,23.1-23.1,46.1-46.1,69.1-69.1,22.7,22.7,45.6,45.7,70,70.1h0ZM248.2,211.1c3-2.9,2.6-4.7-.1-7.4-19.2-19-38.2-38-57.2-57.1-2.5-2.5-4.1-3.1-6.9-.2-19.1,19.3-38.3,38.5-57.6,57.6-2.6,2.6-2.9,4.3-.1,7,19.4,19.2,38.7,38.6,58,57.9.9.9,2,1.6,3.2,2.5,1.2-1,2.3-1.8,3.2-2.7,19.2-19.2,38.3-38.4,57.6-57.5h0Z"/>
      <path class="cls-8" d="M213.6,184.8c5.9,10.3,4.3,20.6-1.2,30.5-5.2,9.3-13.3,15.6-22.4,20.7-1.3.7-3.6,1-4.8.3-13.6-7.9-25.5-17.5-27.3-34.4-.6-5.5.7-12,3.2-17,4.8-9.7,15.1-9.8,21.8-1.1,1.4,1.8,2.6,3.7,4.4,6.4,1.9-2.8,3.2-4.9,4.7-6.8,6.5-8.2,16.4-7.8,21.6,1.4h0Z"/>
      <path class="cls-8" d="M215.9,62.3c-12.3,7.2-21.8,16-28.5,28.8-7-12.4-15.8-21.7-28.7-28.6,12.5-7.1,22.1-15.7,28.5-29.2,6.7,13.1,16,22.1,28.7,29h0Z"/>
      <path class="cls-8" d="M182.7,133.3c.4.4.6,1,1.4,2.4-8.5,8.4-17,16.7-25.4,25.1-13.3,13.2-26.6,26.5-39.7,39.8-3,3-5,3.8-8.4.4-20.9-21-41.9-41.9-62.9-62.8-2.5-2.4-2.3-4.2.2-6.6,21-20.9,41.9-41.8,62.9-62.8,2.3-2.3,4.2-3.3,7.1-.4,21.5,21.7,43.2,43.4,64.8,65h0ZM175.5,138.9c3.1-3.1,2.9-5,0-7.9-18.9-18.7-37.7-37.5-56.3-56.4-3.4-3.5-5.5-3.2-8.8.2-18.6,18.9-37.4,37.7-56.4,56.3-3.2,3.1-2.9,4.9,0,7.8,19.2,18.9,38.2,38,57.3,57.1.9.9,2,1.7,3.4,2.8,1.4-1.1,2.8-2.1,4-3.2,18.9-18.9,37.8-37.9,56.8-56.7h0Z"/>
      <path class="cls-5" d="M175.4,131c3,2.9,3.2,4.8,0,7.9-19,18.8-37.9,37.8-56.8,56.7-1.2,1.2-2.6,2.1-4,3.2-1.4-1.2-2.5-1.9-3.4-2.8-19.1-19-38.1-38.1-57.3-57.1-2.9-2.9-3.3-4.7,0-7.8,18.9-18.6,37.7-37.4,56.4-56.3,3.3-3.4,5.3-3.7,8.8-.2,18.6,18.9,37.5,37.7,56.3,56.4h0ZM136.9,151.3c5.2-2.6,8.3-8.2,7.8-14.2-.5-6.8-4.4-11.6-11.5-13.2-3.3-.8-3.6-2.3-3.8-5.1-.6-8.2-6.3-13.6-14-13.8-8.4-.2-14.4,5-15.2,13.7-.3,3.2-1.1,4.5-4.4,5.2-6.6,1.5-10.5,6.5-10.9,13.1-.3,6,2,10.8,7.4,13.8,5.2,2.9,12.7,2.2,17.3-1.6,1.2-1,2.2-2,3.3-3,.4.3.9.7,1.3,1-2.5,5.6-5.1,11.2-7.7,17h16.6c-2.7-6-5.2-11.6-7.7-17.1.5-.3,1-.6,1.5-.8.8.8,1.7,1.5,2.5,2.3,5.1,4.5,11.7,5.5,17.5,2.6h0Z"/>
      <path class="cls-5" d="M175.3-14.2c3,3,3,4.9,0,7.9-19.1,18.8-38,37.7-56.9,56.6-2.2,2.2-3.9,4-7,.9C91.8,31.4,72.1,11.7,52.4-8c-.5-.5-.9-1.2-2.2-3,10.5-10.2,20.7-20.2,30.9-30.2,9.9-9.8,19.9-19.6,29.6-29.6,3-3.1,4.9-3.1,7.9,0,18.8,19,37.7,37.9,56.7,56.7h0ZM139.9,9.6c5.5-4.6,6.6-15,1.5-20.8-8.4-9.6-17.3-18.8-26.8-29.2-9.5,10.4-18.7,20-27.2,30.3-5,6-3.3,15.5,2.5,20.1,5.7,4.5,12.8,3.4,18.8-2.9,1.2-1.3,2.8-2.3,4.2-3.5.4.4.8.8,1.2,1.2-2.9,4.7-5.8,9.3-8.9,14.3h18.8c-2.9-4.9-5.8-9.7-8.6-14.4.8-.6,1.6-1.2,2.4-1.9.9,1.4,1.6,3.1,2.8,4.3,5.9,6.3,13.7,7.3,19.4,2.5h0Z"/>
      <path class="cls-7" d="M144.6,137.1c.5,6-2.6,11.7-7.8,14.2-5.8,2.9-12.5,1.9-17.5-2.6-.8-.7-1.7-1.5-2.5-2.3-.5.3-1,.6-1.5.8h-1.1c-.4-.3-.9-.6-1.3-1-1.1,1-2.2,2-3.3,3-4.6,3.7-12.1,4.4-17.3,1.6-5.4-3-7.8-7.8-7.4-13.8.3-6.6,4.3-11.6,10.9-13.1,3.3-.7,4.1-2,4.4-5.2.8-8.8,6.8-13.9,15.2-13.7,7.6.2,13.4,5.6,14,13.8.2,2.8.5,4.4,3.8,5.1,7.1,1.6,10.9,6.4,11.5,13.2h0Z"/>
      <path class="cls-7" d="M141.4-11.2c5.1,5.8,4,16.3-1.5,20.8-5.7,4.7-13.5,3.8-19.4-2.5-1.1-1.2-1.8-2.8-2.8-4.3-.8.6-1.6,1.2-2.4,1.9h-1.3c-.4-.3-.8-.7-1.2-1.1-1.4,1.2-2.9,2.2-4.2,3.5-6,6.3-13.1,7.5-18.8,2.9-5.8-4.6-7.5-14.1-2.5-20.1,8.5-10.2,17.8-19.8,27.2-30.3,9.5,10.3,18.4,19.5,26.8,29.2h0Z"/>
      <path class="cls-7" d="M123.9,19.1h-18.8c3.1-4.9,6-9.6,8.9-14.3h1.3c2.8,4.6,5.7,9.4,8.6,14.3Z"/>
      <path class="cls-8" d="M182.8-10.2c-22.4,22.4-45.3,45.4-68.1,68.2C91.8,35.2,68.9,12.3,46.1-10.5c22.8-22.6,45.8-45.5,68.6-68.2,22.5,22.6,45.5,45.7,68.1,68.5h0ZM175.3-6.3c3-3,3.1-4.9,0-7.9-19-18.8-37.9-37.7-56.7-56.7-3-3-5-3-7.9,0-9.7,10-19.6,19.8-29.6,29.6-10.2,10-20.5,20-30.9,30.2,1.3,1.8,1.6,2.5,2.2,3,19.7,19.8,39.5,39.4,59.1,59.3,3.1,3.1,4.8,1.3,7-.9,18.9-18.9,37.8-37.9,56.9-56.6h0Z"/>
      <path class="cls-7" d="M123,164.4h-16.6c2.7-5.9,5.2-11.5,7.7-17h1.1c2.5,5.5,5,11,7.7,17Z"/>
      <path class="cls-8" d="M107.8,203.5c2.2,2.2,4.6,3.9,1.1,7.3-21.6,21.4-43,42.9-64.5,64.4-.7.7-1.5,1.1-2.8,2-9.7-9.6-19.3-19-28.9-28.5v-5.7c9.4,9.7,18.8,19.5,27.8,28.9,22.1-22.2,43.2-43.4,64.7-65-.4-.4-1.2-1.6-2.3-2.7-18.9-18.9-37.9-37.8-56.7-56.8-3.4-3.5-5.3-3.3-8.6.1-8.1,8.3-16.6,16.2-25,24.3v-5.7c7.8-7.5,15.6-15,23.4-22.5,1.8-1.7,3.5-3.4,5.8-5.5,2.4,2.3,4.7,4.3,6.8,6.4,19.7,19.7,39.4,39.4,59.1,59.2h0Z"/>
      <path class="cls-8" d="M105.3,63.1s0,0,0,0C83.9,41.8,62.6,20.7,40.2-1.6,31.5,7.5,22.1,17.3,12.8,27.1v-5.7C22.4,11.8,32,2.3,41.2-6.8c23.5,23.4,46.4,46.4,69.1,69-20.9,20.8-42.1,41.8-63.6,63.3l-1.6-1.7c19.9-20.1,39.9-40.1,59.9-60.1.2-.2.3-.5.3-.6h0Z"/>
      <path class="cls-7" d="M105.3,63.1s0,0,0,0c0,0,0,.4-.3.6-20,20-40,40-59.9,60.1-2.7,2.7-4.3,1.7-6.5-.5-8.5-8.4-17.2-16.7-25.8-25v-36.7c4.5,11.6,12.4,20.3,22.6,27.2,4.8,3.2,8.7,3.8,13.2-.1,3.9-3.4,8.2-6.3,11.8-9.8,8.8-8.7,12.9-19.2,10.9-31.7-1.1-7-6.1-13.2-11.6-14.3-6.3-1.2-10.6,1.2-15.2,8.6-.7,1.1-1.6,1.9-2.7,3.3-1.7-2.4-3-4.4-4.5-6.4-6.2-8-15.7-7.7-21.4.7-1.1,1.7-2.2,3.5-3.2,5.3v-17.2C22.1,17.3,31.5,7.5,40.2-1.6c22.4,22.3,43.7,43.4,65.1,64.7h0Z"/>
      <path class="cls-7" d="M103,204.2c1,1,1.9,2.2,2.3,2.7-21.4,21.6-42.6,42.8-64.7,65-9.1-9.4-18.5-19.2-27.8-28.9v-71.2c8.4-8.1,16.9-15.9,25-24.3,3.3-3.4,5.2-3.6,8.6-.1,18.8,19.1,37.8,37.9,56.7,56.8ZM42.3,236.2c6.7-12.7,15.9-21.6,28.4-28.5-12.5-7.1-21.9-16.1-28.6-28.9-7,12.7-15.9,22.1-29.3,28.9,13.7,6.7,22.3,16.4,29.5,28.5Z"/>
      <path class="cls-8" d="M71.3,47c2,12.5-2.1,23-10.9,31.7-3.7,3.6-8,6.5-11.9,9.8-4.5,3.9-8.4,3.3-13.2.1-10.3-6.9-18.2-15.5-22.6-27.2v-17.2c1.1-1.8,2.1-3.6,3.2-5.3,5.7-8.4,15.2-8.8,21.4-.7,1.5,1.9,2.8,4,4.5,6.4,1.1-1.4,2-2.3,2.7-3.3,4.7-7.4,9-9.8,15.2-8.6,5.4,1.1,10.4,7.2,11.6,14.3Z"/>
      <path class="cls-8" d="M70.7,207.8c-12.5,6.8-21.7,15.7-28.4,28.5-7.2-12.1-15.8-21.8-29.5-28.5,13.4-6.7,22.3-16.2,29.3-28.9,6.7,12.8,16.1,21.7,28.6,28.9Z"/>
      <path class="cls-8" d="M46.8,125.5c-1.8,1.8-3.7,3.7-5.6,5.6-9-8.5-18.7-17.8-28.4-27v-5.7c8.6,8.3,17.3,16.6,25.8,25,2.2,2.2,3.8,3.3,6.5.5l1.6,1.7h0Z"/>
      <path class="cls-8" d="M35.5,131c3.1,2.9,3,4.9,0,7.9-7.7,7.3-15.1,15-22.7,22.5v-5.7c6-5.9,12-11.8,18-17.6,2.3-2.2,2.4-3.9,0-6.2-6.1-5.8-12-11.7-18-17.6v-5.7c7.6,7.5,15,15.1,22.7,22.4h0Z"/>
      <path class="cls-8" d="M30.3-6.9c1.1-1.2,2.1-4.4,1.5-5-6.2-6.3-12.7-12.4-19.1-18.5v-5.7c8.2,9,16.4,17.9,23.6,25.7C29.1-2.4,20.9,6.6,12.8,15.6v-4.6C18.7,5,24.6-.8,30.3-6.9Z"/>
      <path class="cls-5" d="M31.9-11.9c.6.6-.4,3.8-1.5,5C24.6-.8,18.7,5,12.8,11V-30.4c6.4,6.1,12.9,12.1,19.1,18.5Z"/>
      <path class="cls-5" d="M30.8,131.9c2.4,2.2,2.3,4,0,6.2-6.1,5.8-12,11.7-18,17.6v-41.3c6,5.9,11.9,11.8,18,17.6h0Z"/>
    </g>
  </g>
  <path class="cls-6" d="M522.7,59.1c-.4-1.6-.6-3.2-.8-4.8,16.8,13.8,35.4,21.1,56.8,19.8,21.6-1.3,39.3-10.5,53.1-27,11.3-13.4,16.9-30.2,16.9-47.1h-305.4c0,11.9,0,23.8,0,35.7,0,2,0,3.9.1,5.9.3,2.8,2.3,3.7,4.7,2.2,1-.6,1.8-1.4,2.6-2.3,3.6-3.8,6.8-8,10.8-11.3,17.6-14.6,38.1-20.8,60.8-20,1.1,0,2.2.8,3.3,1.3-.9.9-1.7,2-2.7,2.6-5.9,3.5-12.8,6-17.8,10.6-35.8,33.4-28.3,82.7,5.4,108.5,20.3,15.6,43.1,18.5,67.3,10.2,33.9-11.7,54-49.7,44.9-84.3h0Z"/>
</svg>