<?xml version="1.0" encoding="UTF-8"?>
<svg id="Layer_1" data-name="Layer 1" xmlns="http://www.w3.org/2000/svg" xmlns:xlink="http://www.w3.org/1999/xlink" version="1.1" viewBox="0 0 572.3 235.4">
  <defs>
    <style>
      .cls-1 {
        fill: #5560ab;
      }

      .cls-1, .cls-2, .cls-3, .cls-4, .cls-5, .cls-6, .cls-7 {
        stroke-width: 0px;
      }

      .cls-8 {
        clip-path: url(#clippath);
      }

      .cls-2 {
        fill: none;
      }

      .cls-3 {
        fill: #e1d9d5;
      }

      .cls-4 {
        fill: #576bb2;
      }

      .cls-5 {
        fill: #9186c0;
      }

      .cls-6 {
        fill: #c497c5;
      }

      .cls-7 {
        fill: #7bc57f;
      }
    </style>
    <clipPath id="clippath">
      <rect class="cls-2" x="0" y="21" width="495.7" height="193.4"/>
    </clipPath>
  </defs>
  <rect class="cls-3" y="0" width="572.3" height="235.3"/>
  <g class="cls-8">
    <g>
      <path class="cls-1" d="M410.8,191.6s-.3.1-.5.3c-23.9,23.8-47.7,47.6-71.7,71.3-3.6,3.5-1.9,5.5.8,8.2,22.8,22.7,45.6,45.6,68.4,68.4,1.3,1.3,2.8,2.3,4.1,3.4,25.5-25.6,50.6-50.8,74.7-75.1-25.2-25.4-50.5-50.8-75.9-76.3,0,0,.1,0,.1-.1h0ZM704.3,155.8v6.3c-16.5-16.3-33-32.6-48.6-47.9-.9-.9-1.8-1.7-2.6-2.6-26,25.9-51.4,51.2-76.4,76,24.7,24.8,49.9,50.1,76.1,76.4,1-1,2-2.1,3-3.2l2.5,2.5h0c-2.5,2.4-2.4,4.2-.9,6.2l-2.3,2.2c-.5-.6-1-1.2-1.6-1.8-26.9,26.9-52.3,52.2-79.3,79.1,7,6.3,14.2,12.8,21.3,19.3h-6.3c-5.7-6-11.3-12-16.9-17.9-6.8,6.5-12.6,12.2-18.5,17.9h-5.1c6.5-7,13-14.1,19.2-20.9-25.5-25.5-50.9-50.9-75.4-75.3-25.3,25.1-50.8,50.5-76.3,76,6,6.5,12.4,13.4,18.7,20.3h-5.1c-5.8-6-11.6-12-18-18.6-6.3,6.7-11.9,12.6-17.4,18.6h-6.3c6.8-7,13.6-14,19.8-20.4-25.9-26.1-51.1-51.4-75.8-76.2-1.2,1.2-2.4,2.4-3.6,3.6-24,24-48.3,48.2-74.2,74,6.9,6.1,14.1,12.5,21.3,19h-6.3c-5.5-5.9-11.1-11.7-16.4-17.3-1.4.6-2.1.7-2.5,1-5.5,5.4-11,10.9-16.4,16.3h-5.1c6.4-7.1,12.8-14.1,18.7-20.5-2.2-2.2-4.5-4.5-6.7-6.7-23.3-23.3-46.3-46.4-69.5-69.6-.2.1-1,.5-1.6,1-23.8,23.8-47.6,47.6-71.5,71.4-2.5,2.5-2.5,4.3,0,6.8,5.8,5.8,11.3,11.8,16.9,17.7h-5.1c-4.9-4.9-9.5-10-14.7-14.5-1.3-1.1-5-1.6-6-.7-5.2,4.8-9.9,10.1-14.7,15.3h-6.3c6.7-6.9,13.4-13.9,19.7-20.5-25.8-25.7-51.2-51-76.1-75.8-25,24.9-50.4,50.2-77.4,77.2,6.9,6.2,14.1,12.6,21.3,19.1h-6.3c-5.7-6-11.4-12-17.1-18.1-6.7,6.6-12.5,12.3-18.3,18.1h-5.1c6.5-7.1,12.9-14.1,19-20.8-25.6-25.5-51-50.9-76.1-75.9-24.9,24.9-50.3,50.2-75.9,75.8,6.2,6.7,12.7,13.8,19.2,20.8h-5.1c-5.9-5.9-11.8-11.8-18.3-18.2-5.9,6.3-11.5,12.3-17.1,18.2h-6.3c6.8-7,13.6-14,19.6-20.1-26-26.1-51.2-51.4-78.1-78.3-.8,1-1.6,2.2-2.4,3.4l-2.2-2.3h0c3-2.9,3-5,0-7.8-8.6-8.3-17-16.8-25.5-25.1v-5.1c9.6,9.1,19.1,18.2,28.2,26.8,1.1,1,2.2,2.1,3.3,3.1,25.8-25.7,51.1-50.9,76.1-75.6-25.1-25.1-50.4-50.5-77.4-77.5-9.7,10.4-20,21.3-30.2,32.2v-6.3c9.1-9.8,18.2-19.7,27.9-30.2-8.6-8.2-18.2-17.5-27.9-26.7v-6.3c10.6,10.4,21.2,20.9,31.8,31.4,1.4-1,2.3-1.5,3-2.2,23.7-23.6,47.2-47.3,71-70.9,3.9-3.8,1.3-5.7-1.2-8.1-21.7-21.7-43.4-43.4-65.1-65.1-2.3-2.3-4.8-4.5-7.4-7-2.5,2.4-4.4,4.2-6.4,6.1-8.6,8.3-17.2,16.5-25.8,24.8v-5.1c8.3-8.3,16.5-16.7,24.9-24.8,3.4-3.2,3.5-5.4,0-8.7-8.5-8.1-16.7-16.5-25-24.7v-5.1c10.7,10.2,21.4,20.4,31.3,29.8,2-2,4.1-4.1,6.1-6.1,23.8-23.6,47.1-46.8,70.1-69.7-25-24.9-50.3-50.2-76.1-76-10.2,10.1-20.8,20.5-31.4,31v-6.3c9-9.9,18-19.8,26-28.6-7.9-8.6-16.9-18.4-26-28.3v-6.3c10.1,10.9,20.3,21.9,30,32.4,27.1-27.2,52.4-52.6,77.2-77.4-24.9-25-50.2-50.3-75.8-76-1.5,1.4-3.4,3-5.1,4.8-8.8,8.4-17.5,16.8-26.3,25.3v-5.1c8.3-8.3,16.6-16.6,25-24.7,3.2-3.1,3.5-5.5,0-8.8-8.5-8.1-16.8-16.4-25.1-24.6v-5.1c9.5,9.1,19.1,18.1,28.2,26.8,1.1,1.1,2.3,2.1,3.4,3.2,25.8-25.7,51.1-50.9,76-75.7-25.1-25.2-50.5-50.5-77.6-77.7-9.7,10.5-19.9,21.4-30,32.3v-6.3c9.1-9.8,18.1-19.6,27.5-29.9-3.5-3.7-7.9-8.4-12.4-13.1h6.3c8.5,12.7,10.3,12.9,20.2,2.1.5-.6.9-1.4,1.3-2.1h6.3c-4.4,4.7-8.8,9.5-13.4,14.5,1.2,1.5,2.1,2.9,3.3,4.1,23,23.1,46.1,46,69.1,69.2,3.3,3.4,5.2,2.6,8.1-.4,12.7-12.9,25.5-25.7,38.3-38.4,11.3-11.2,22.8-22.3,34.4-33.6-5-5.8-9.2-10.6-13.4-15.5h5.1c7.3,8.2,14.8,8.3,22.4.5.2-.2.3-.3.4-.5h5.1c-4.2,4.8-8.4,9.7-11.9,13.7,25.6,25.6,50.8,50.9,75.6,75.8,24.8-24.9,50-50.2,75.5-75.7-4-4.3-8.4-9.1-12.8-13.8H1.3c2.8,3.1,5.4,6.3,8.5,9.1.9.8,3.8.9,4.7,0,3-2.8,5.6-6.1,8.3-9.1h6.3c-4.4,4.7-8.9,9.4-13,13.8,25.6,25.6,50.9,50.8,76.4,76.3,0,0,1-.3,1.5-.8,24-23.9,47.9-47.9,71.9-71.9,2.4-2.4,1.9-4.2-.2-6.4-3.5-3.6-6.8-7.3-10.1-11h5.1c14,14.2,9.2,13.1,22.3.5.2-.2.3-.3.4-.5h5.1c-2.3,2.7-4.5,5.4-7,7.9-6.5,6.4-6.5,6.4-.4,12.6,19.2,19.2,38.4,38.4,57.6,57.6,4.3,4.3,8.6,8.4,12.5,12.2,23.5-23.5,46.6-46.6,69.9-69.9,2.2-2.2,4.5-4.4,6.7-6.7-4.1-4.4-8.6-9.1-13-13.8h6.3c8.6,12.6,10.4,12.8,20.2,2.1.5-.6.8-1.4,1.3-2.1h6.3c-4.4,4.7-8.8,9.5-12.6,13.6,1.9,1.9,3.7,3.7,5.6,5.6,23.6,23.7,47,47.3,70.3,70.6,24.9-24.9,50.1-50.2,75.5-75.7-3.9-4.5-8.1-9.3-12.3-14.2h5.1c13.8,14.1,9.3,13,22.4.5.2-.1.3-.3.4-.5h5.1c-4.2,4.8-8.4,9.7-12.7,14.7,1.1,1.4,2,2.5,3,3.6,23.2,23.2,46.5,46.3,69.5,69.7,4,4,6,1.5,8.6-1.1,22.6-22.6,45.2-45.2,67.8-67.8,1.3-1.3,2.4-2.8,3.8-4.5-4.7-5-9.1-9.8-13.5-14.5h6.3c2.8,3.1,5.4,6.3,8.5,9.1.9.8,3.8.8,4.6,0,3-2.8,5.6-6,8.3-9.1h6.3c-4.5,4.7-8.9,9.4-15,15.9.6.5,1.1.9,1.7,1.3l-2.1,2.2-.3-.3c-.8.8-1.7,1.7-2.5,2.5-25.2,25-49.8,49.4-74,73.4,24.7,24.8,50,50.1,75.5,75.7,1.2-1,2.5-2.2,3.8-3.4.2-.2.4-.4.6-.5,9.6-9.5,19-19.1,28.6-28.5,6.3-6.1,12.7-12.1,19.1-18.1v5.1c-15.2,15.1-30.4,30.3-45.7,45.3-3.4,3.3-2.3,5.5.5,8.3,15.1,15,30.2,30,45.2,45v5.1c-1.6-1.3-3.4-2.4-4.8-3.8-13.7-13.7-27.4-27.4-41.1-41.1-2-2-4.2-3.9-5.9-5.4-25.7,25.7-51.1,51.1-75.9,75.8,25,25.1,50.3,50.5,77.2,77.6,0-.1.2-.2.3-.3l2,1.9c-.2.2-.2.8-.2,1.2-.5.5-.9.9-1.4,1.4,1.5,1.2,3,2.2,4.5,3.4l-2.4,2.3c0,0-.1-.1-.2-.2-3.5-3.6-5.6-3.6-9.1,0-22.6,22.9-45.4,45.7-68.4,68.3-3.8,3.7-3.1,5.7.3,9.1l.2.2c22.5,22.3,44.9,44.8,67.3,67.2,1.5,1.5,3.1,2.8,5.1,4.6,17.6-17.6,35-35,52.4-52.3v6.3c-15,15-30,30.1-45.2,45-3.4,3.3-3.4,5.4,0,8.7,15.2,14.9,30.2,30,45.2,45V2.8c-17.3-17.4-34.7-34.8-50.9-51.1-1,1-1.9,1.9-2.9,2.9-25.1,24.9-49.5,49.2-73.5,73,24.8,24.7,50.1,50,75.9,75.7,16.9-16.7,34.1-33.9,51.4-51.1v6.3c-1.6,1.3-3.3,2.5-4.8,4-12.8,12.7-25.6,25.5-38.3,38.2-6.4,6.3-6.4,6.4.1,12.8,14.3,14.1,28.6,28.2,43,42.3h0ZM645.1-49.1c2.9-2.9,2.6-5-.2-7.8-23-22.8-45.9-45.8-68.7-68.8-3.3-3.3-5.5-3.1-8.7.2-9.8,10.2-19.9,20-29.9,30-14,14-28,27.9-42.3,42,.8,1.5,1,2.1,1.4,2.5,23.8,23.8,47.7,47.6,71.4,71.5,3.1,3.2,5.2,2.3,7.8-.3,23-23.1,46-46.2,69.1-69.2h0ZM571.8,182.3c25.1-25,50.4-50.2,75.4-75.2-25-25-50.3-50.2-74.7-74.6-25.2,25.1-50.7,50.3-75.1,74.7,24.6,24.9,49.7,50.3,74.4,75.2ZM646.5-373.5c-24.5-24.5-49.6-49.7-74.5-74.6-24.9,25.2-50,50.5-75,75.7,24.5,24.7,49.7,50,74,74.5,25.1-25.2,50.5-50.6,75.4-75.6ZM571.9-137.6c24.9-24.9,50.1-50.2,74.4-74.5-25.1-25.4-50.3-51-74.5-75.5-25,24.9-50.3,50-75.1,74.7,25,25,50.2,50.3,75.3,75.3h0ZM571.7,342.4c25-24.9,50.3-50.1,75.2-74.9-25.3-25.4-50.5-50.6-75.1-75.2-25,24.9-50.3,50.2-75,74.8,24.9,25,50,50.3,74.9,75.3h0ZM567.7-133.3c-.5-.7-1.2-1.7-2-2.6-23.4-23.4-46.8-46.7-70-70.2-3.4-3.4-5.4-2.3-8.2.5-14.5,14.6-29,29.3-43.7,43.8-9.5,9.4-19.3,18.6-28.3,27.2,26.5,26.4,52,51.8,76.8,76.5,24.7-24.6,49.9-49.8,75.4-75.2h0ZM550.3,45.7c6-6,12-12.1,17.5-17.6-25.8-25.9-51-51.2-75.5-75.8-25.2,25.1-50.6,50.4-76.2,75.9.2.3.8,1.2,1.5,1.9,23.4,23.4,46.8,46.7,70,70.1,3.5,3.5,5.6,2.7,8.7-.4,17.9-18.1,35.9-36.1,53.9-54.1ZM566.6-292.4c-24.9-25-50.4-50.5-74.6-74.8-25,24.7-50.4,50-75.1,74.4,24.8,25,50,50.4,74.9,75.5,25.1-25.2,50.4-50.6,74.8-75.2h0ZM491.4,262.1c25.3-25.1,50.8-50.4,75.1-74.5-25-25.1-50.3-50.5-75.2-75.6-24.8,24.8-50.1,50-75.1,75,25.2,25.1,50.6,50.5,75.2,75.1h0ZM492.1-376.8c24.9-25,50.1-50.3,75.2-75.6-25.1-25.1-50.4-50.5-75.2-75.4-25.1,25.1-50.5,50.4-75.5,75.4,25,25,50.3,50.4,75.5,75.6h0ZM489-52.1c-2.8-3-4.4-4.9-6.2-6.7-22-22-44.2-44-66-66.2-3.9-4-6.2-3.9-10.1,0-22.5,22.8-45.1,45.4-67.9,67.8-3.1,3.1-3.4,5-.2,8.1,23,22.8,46,45.7,68.8,68.7,3.7,3.7,5.8,3.1,9.1-.3,12.3-12.7,24.9-25.1,37.5-37.5,11.4-11.2,22.9-22.3,34.9-34h0ZM487.7-373.3c-.6-.7-1.5-1.8-2.5-2.9-23.2-23.3-46.5-46.5-69.5-69.8-3.5-3.5-5.4-2.1-8.2.6-22.7,22.9-45.5,45.7-68.4,68.3-3.4,3.4-3.2,5.4.1,8.7,22.9,22.7,45.6,45.5,68.4,68.3,1.3,1.3,2.8,2.3,3.8,3.2,25.6-25.6,50.7-50.9,76.2-76.4h0ZM486.8-213c-24.8-25-49.9-50.3-74.6-75.2-25.2,25.2-50.6,50.6-75.3,75.4,24.9,24.9,50,50.2,74.8,75,25.1-25.1,50.4-50.4,75.1-75.2h0ZM487,107c-24.8-24.9-50-50.1-74.8-75-25.1,25.1-50.5,50.4-74.9,74.7,24.9,25.1,50.1,50.6,74.7,75.4,24.9-24.9,50.1-50.2,74.9-75.1h0ZM407.7-133.4c-.2-.3-.5-1.1-1.1-1.7-23.8-23.8-47.7-47.6-71.4-71.5-3.5-3.5-5.3-1.5-7.7.9-12.5,12.5-24.9,25-37.4,37.5-11.6,11.5-23.3,23-34.7,34.3,26,25.9,51.4,51.3,76.3,76,25.2-25.1,50.5-50.2,76-75.6h0ZM405.6,190.5c3.8-3.7,1.4-5.7-1.1-8.2-22.5-22.5-44.9-44.9-67.4-67.4-1.6-1.6-3.3-3-3.9-3.5l-76,76c24.6,24.8,49.8,50.1,75.1,75.6.5-.3,1.3-.7,1.8-1.3,23.8-23.8,47.6-47.7,71.5-71.3h0ZM390.2,45.9c6.1-6.1,12.3-12,17.7-17.2-26.1-26.2-51.3-51.6-76.3-76.7-24.9,24.8-50.2,49.9-76,75.6,1.2,1.3,2.2,2.6,3.4,3.7,22.7,22.8,45.6,45.5,68.2,68.4,3.8,3.9,6,3.5,9.5-.1,17.7-18,35.6-35.8,53.5-53.7ZM331.6-217.6c25.1-25.1,50.5-50.4,75.6-75.5-24.8-24.8-50-50.1-74.9-75-25.2,25.2-50.5,50.6-75.4,75.6,24.8,24.9,50.1,50.3,74.7,74.9h0ZM407.2-453.2c-24.9-24.9-50.1-50.1-75-75.1-25.2,25.2-50.6,50.6-75.3,75.3,25.2,25.3,50.4,50.6,74.7,75,25-24.9,50.4-50.2,75.6-75.3h0ZM324.8-368.4c3.9-3.8,2.5-6.2-.7-9.3-22.7-22.5-45.2-45.2-67.9-67.8-1.3-1.3-2.8-2.3-4.2-3.5-1.1.8-1.9,1.2-2.4,1.8-23.7,23.7-47.2,47.4-71,71-3.7,3.7-1.6,5.6,1,8.1,19.3,19.2,38.5,38.3,57.6,57.6,4.7,4.8,8.9,10,13.4,15,2.6-1.8,3.1-2.1,3.6-2.6,23.6-23.5,47-47,70.7-70.4h0ZM327.9-52.9c-1.2-1.5-2-2.9-3.2-4-22.9-22.9-45.9-45.8-68.7-68.8-3.4-3.4-5.5-2.9-8.7.3-22.5,22.7-45,45.4-67.8,67.8-3.8,3.7-3.7,5.9,0,9.6,22.9,22.6,45.6,45.4,68.3,68.2,2.8,2.8,4.7,3.3,7.7.3,23-23.1,46.1-46.2,69.1-69.3,1.2-1.2,2-2.6,3.2-4.1h0ZM324.4,271.6c3.4-3.4,3.7-5.8.1-9.3-14.6-14.3-29-28.7-43.3-43.2-9.4-9.6-18.4-19.6-27.7-29.5-2.9,2.3-3.8,2.9-4.5,3.7-23.4,23.3-46.7,46.8-70.2,70-3.4,3.4-2.2,5.4.6,8.2,19.8,19.7,39.6,39.6,59.4,59.4,4.3,4.3,8.7,8.4,13.1,12.6,1.5-1.2,2.6-1.8,3.5-2.7,23.1-23,46-46.2,69.2-69.1h0ZM250.1-135.7c26.9-26.8,52.2-52,77.3-77.1-25.1-24.9-50.5-50.1-76.1-75.5-.3.2-1.4.8-2.3,1.7-23.6,23.5-47.1,47-70.7,70.5-3.4,3.4-1.4,5.3,1,7.8,17.6,17.5,35.2,35,52.7,52.7,6.5,6.6,12.4,13.7,18.1,20h0ZM252,182.5c25.1-25.1,50.3-50.4,75.3-75.5-25-24.9-50.3-50.1-75.2-74.9-25.1,24.9-50.4,50-75.2,74.6,25,25.2,50.2,50.6,75.1,75.7ZM248.3-132.5c-1-1.3-1.7-2.5-2.7-3.5-3.2-3.3-6.5-6.6-9.8-9.8-19.8-19.8-39.6-39.5-59.3-59.4-3-3.1-5.2-4-8.7-.4-22.8,23-45.8,45.9-68.7,68.8-2.4,2.4-4.4,4.2-.9,7.7,23.6,23.4,47.1,46.9,70.5,70.5,2.5,2.6,4.3,2.5,6.8,0,23.3-23.4,46.7-46.8,70-70.1,1-1,1.8-2.2,2.9-3.6h0ZM248.3,27c-1-1.3-1.8-2.6-2.8-3.6C222.3.2,199-22.9,175.9-46.2c-3.2-3.2-5.2-2.8-8.2.2C144.8-22.8,121.8.2,98.6,23.2c-2.9,2.9-3,4.8,0,7.7,23.3,23.1,46.5,46.3,69.7,69.6,2.6,2.6,4.5,3,7.3.2,23.3-23.4,46.7-46.8,70-70.1,1-1,1.7-2.2,2.8-3.6h0ZM245.6-289.3c2.9-2.9,2.1-4.8-.4-7.3-23.3-23.2-46.5-46.4-69.6-69.7-2.8-2.8-4.6-2.6-7.2.1-23.1,23.3-46.4,46.6-69.7,69.7-3,3-2.8,5,0,7.8,6.8,6.6,13.5,13.3,20.1,20,17.3,17.4,34.6,34.9,52.3,52.7,1.6-1.1,2.4-1.4,2.9-2,23.9-23.8,47.7-47.6,71.6-71.3h0ZM244.5-448.1c1.3-1.3,2.4-2.8,3.4-3.9-25.7-25.7-51.1-51-76.2-76.1-25,24.9-50.2,50.1-76.1,75.8,1.8,1.9,3.4,3.6,5,5.2,22.2,22.2,44.5,44.3,66.4,66.7,4.1,4.2,6.3,3.5,10-.3,22.3-22.6,44.9-45,67.4-67.5h0ZM243.9,192.2c1.6-1.6,2.9-3.3,4-4.5-25.8-25.8-51-51.1-76-76.1-25,25-50.2,50.2-75.8,75.9.8,1,1.5,2,2.4,2.9,23.3,23.4,46.8,46.7,70,70.3,3.6,3.7,5.5,1.6,8.1-1,22.4-22.5,44.9-45,67.4-67.5h0ZM165.4,270.8c4.1-4.1,1.2-6.1-1.3-8.6-22.5-22.5-45-44.9-67.3-67.5-3.7-3.8-5.8-3.7-9.5,0-22.2,22.5-44.5,44.8-66.9,66.9-4,4-4.4,6.4-.1,10.6,15.7,15.3,31,30.9,46.4,46.4,8.3,8.3,16.7,16.5,25.1,24.8,1.4-1,2.3-1.5,3-2.2,23.5-23.5,47-47.1,70.7-70.4h0ZM165.1,110.9c3.3-3.3,2.6-5.3-.3-8.2-14.5-14.3-29-28.7-43.3-43.2-9.6-9.7-18.9-19.6-27.7-28.8-26.6,26.4-52,51.6-77.3,76.7,25,25,50.3,50.2,75.7,75.6.9-.7,2.1-1.5,3.2-2.5,23.2-23.2,46.4-46.4,69.7-69.5h0ZM164.7-48.4c3.2-3.2,3.7-5.3.3-8.7-23.2-22.9-46.2-46-69.3-69.1-1-1-2.2-1.8-3.6-2.9-1.5,1.2-2.9,2-4,3.2-22.8,22.7-45.5,45.6-68.4,68.2-3.3,3.3-3.9,5.6-.2,9.2C42.4-25.7,65.2-3,87.9,19.9c3.3,3.3,5.2,3.4,8.6,0,22.6-22.9,45.4-45.6,68.3-68.3h0ZM164-207.7c4-3.9,4.2-6.1.2-10-19.8-19.5-39.4-39.3-59-58.9-4.3-4.2-8.6-8.4-13-12.6-1.3,1-2,1.5-2.6,2.1-23.6,23.5-47.1,47-70.7,70.4-3.4,3.3-2.5,5.4.3,8.2,10.7,10.5,21.2,21.1,31.8,31.7,13.3,13.4,26.6,26.9,40.5,41.1,2.7-2.5,4.6-4.2,6.4-5.9,22-22,43.9-44.2,66.1-66h0ZM163.8-367.4c4.2-4.1,4.4-6.4.2-10.5-15.5-15.1-30.8-30.5-46-46-8.4-8.5-16.4-17.4-24.6-26.1-.5.4-1.1.8-1.6,1.2-.8.6-1.8,1-2.5,1.8-23.4,23.3-46.7,46.7-70.2,69.9-4,3.9-2.2,6.2.8,9.3,21.5,21.4,42.9,42.8,64.3,64.2,2.5,2.5,5.1,4.8,7.8,7.3,1.7-1.6,3-2.6,4.2-3.8,22.5-22.5,44.8-45.1,67.5-67.4h0ZM88.3-133.5c-.8-.9-1.6-1.9-2.5-2.8-22.9-22.9-46-45.7-68.7-68.8-4-4-6.2-3.7-10.1.1-22.3,22.7-44.9,45.1-67.4,67.6-1.3,1.3-2.5,2.8-3.2,3.5C-37.9-108.2-12.6-82.8,12.5-57.6c24.8-24.8,50-50.1,75.8-75.9h0ZM75.2,41.5c4.6-4.5,9.7-8.5,13.9-12.1C62.2,2.3,36.9-23.1,11.4-48.7c-.5.4-1.4,1-2.1,1.7C-14.3-23.5-37.7,0-61.4,23.4c-3.6,3.5-2,5.4.7,8.1C-38,54.1-15.3,76.6,7.1,99.4c3.9,4,6.1,4,10,0,19.2-19.5,38.5-38.8,58-58ZM12.1-217.2c24.9-25,50.3-50.4,74.4-74.5-25-25.3-50.3-50.9-75.1-75.9-24.8,24.8-50,50-74.9,74.9,25.1,25.1,50.5,50.5,75.5,75.6h0ZM12.5-377.2c24.8-24.8,50-50.1,74.6-74.8-25.4-25.4-50.8-50.7-75.1-75-24.8,24.7-50.2,50-74.9,74.6,24.9,24.9,50.2,50.2,75.3,75.3ZM86.9,187.4c-25-25.1-50.3-50.5-74.7-75.1-25,24.9-50.4,50.1-75.6,75.1,24.9,24.9,50.1,50.1,74.9,74.9,25.4-25.2,50.9-50.5,75.5-74.9h0ZM5.6-369.3c3.4-3.4,1.4-5.3-1-7.7-22.8-22.7-45.6-45.5-68.3-68.4-3.3-3.3-5.3-3.4-8.7,0-22.6,22.9-45.5,45.6-68.2,68.4-1.3,1.3-2.4,2.8-3.3,3.9,25.5,25.6,50.7,50.8,76.1,76.3.6-.3,1-.4,1.3-.7,24-23.9,48-47.9,72.1-71.7ZM4.5,271.6c4-3.9,3.2-6.1-.3-9.6-22.5-22.2-44.8-44.6-67.1-66.9-1.6-1.6-3.3-2.9-4.9-4.3-25.6,25.6-50.8,50.7-75.7,75.6,25.4,25.5,50.6,50.8,76.1,76.4,1.1-1,2.6-2.1,3.9-3.4,22.7-22.6,45.2-45.4,68-67.8h0ZM-68-137.6c25.1-25,50.4-50.2,75.6-75.1-25.1-24.9-50.5-50-75.4-74.7-24.9,24.8-50.2,50-74.9,74.5,24.8,25,50,50.4,74.7,75.3h0ZM7.1-52.3c-25.2-25.5-50.3-50.7-75.6-76.2-.3.2-1.1.6-1.7,1.2-23.7,23.6-47.3,47.3-71.1,70.8-3.5,3.4-2,5.5.7,8.2C-123.2-31.2-106-13.9-88.7,3.4c6.8,6.8,13.7,13.4,20.4,20C-42.5-2.5-17.3-27.8,7.1-52.3ZM7.7,107.2c-25.1-25.1-50.3-50.3-75.3-75.2-25.3,25.2-50.6,50.4-75,74.8,24.9,25.1,50.1,50.6,74.9,75.5,25-24.9,50.3-50.1,75.4-75.1ZM-72.1-133.4c-.1-.2-.5-1-1-1.5-23.8-23.8-47.6-47.6-71.4-71.5-2.5-2.6-4.3-2.4-6.8.1-6.7,6.9-13.7,13.7-20.5,20.5-17.4,17.4-34.8,34.7-51.7,51.6,25.9,26.1,51.1,51.5,75.8,76.5,24.9-24.9,50.1-50.1,75.6-75.6h0ZM-82.4,38.7c3.7-3.7,8-6.7,11.6-9.6C-97.7,2.2-122.9-23.1-147.8-48.1c-25.3,25.3-50.6,50.6-76.1,76,.3.4.9,1.3,1.6,2,23.4,23.4,46.8,46.7,70,70.2,3.3,3.3,5.5,3.1,8.7-.2,20.3-20.5,40.7-41,61.1-61.3h0ZM-148.3,261.8c25.1-24.9,50.6-50.1,75.1-74.2-25-25.2-50.2-50.6-75-75.6-24.9,24.9-50.2,50.1-74.8,74.7,25.3,25.5,50.6,50.9,74.7,75.1h0ZM-72.4-452.4c-25-25-50.3-50.2-75.6-75.5-24.9,24.9-50.3,50.3-75.4,75.4,25.1,25.1,50.5,50.5,75.5,75.5,25.1-25.1,50.5-50.4,75.5-75.4h0ZM-147.6-217.9c24.9-24.7,50.2-50,75.3-74.9-25.1-25.1-50.5-50.4-75.7-75.5-25,25-50.4,50.4-74.8,74.9,25.1,25.2,50.5,50.8,75.2,75.6h0ZM-151.4-52c-.9-1.6-1.1-2.2-1.5-2.6-23.8-23.9-47.6-47.7-71.3-71.6-3.2-3.2-5.3-2.1-7.8.5-23,23.1-46.1,46.2-69.2,69.2-2.7,2.7-2.9,4.6-.2,7.3,23.1,23,46.3,46,69.2,69.2,3.7,3.7,6,2.9,9.2-.4,14.5-14.7,29.1-29.3,43.7-43.9,9.2-9.2,18.5-18.3,28-27.6ZM-151.9,266.5c-.7-.8-1.5-2-2.5-3-23.2-23.2-46.5-46.4-69.6-69.7-3.1-3.1-5-2.5-7.7.2-23.3,23.4-46.8,46.8-70.1,70.2-.8.8-1.3,2-1.9,3,25.5,25.3,50.7,50.4,75.7,75.4,25.3-25.3,50.6-50.5,76.1-76h0ZM-229.1-296c26.4-26.4,51.6-51.6,76.2-76.1-25.1-25.1-50.4-50.5-75.8-76-.3.2-1,.6-1.6,1.2-23.7,23.6-47.4,47.3-71.1,70.9-3,2.9-2,4.8.5,7.3,8.3,8.1,16.4,16.3,24.5,24.6,15.8,16.1,31.5,32.2,47.3,48.2h0ZM-153.3,107.5c-24.8-25.1-49.9-50.5-74.3-75.2-25.1,25-50.5,50.3-75.2,74.9,24.8,25,50,50.3,74.5,75,25.2-25.2,50.6-50.5,75-74.8h0ZM-227.8-137.5c25.1-25.2,50.4-50.5,75-75.1-25-25.1-50.2-50.5-75-75.5-25.1,25-50.5,50.2-75.5,75.1,25.1,25.1,50.4,50.4,75.6,75.5h0Z"/>
      <path class="cls-4" d="M644.9-56.9c2.8,2.8,3.1,4.9.2,7.8-23.1,23-46.1,46.1-69.1,69.2-2.6,2.6-4.7,3.5-7.8.3-23.7-23.9-47.6-47.7-71.4-71.5-.4-.4-.6-1-1.4-2.5,14.2-14.1,28.2-28,42.3-42,10-9.9,20.1-19.8,29.9-30,3.2-3.3,5.4-3.5,8.7-.2,22.8,23,45.7,45.9,68.7,68.8h0ZM639.1-49.2c1-1,1.8-2.2,3-3.7-1.3-1.5-2.4-3-3.7-4.3-20.8-20.8-41.7-41.6-62.4-62.5-3-3-5.1-3.5-8.3-.2-21,21.2-42.2,42.3-63.4,63.4-2.6,2.6-2.9,4.7-.2,7.4,21.3,21.2,42.6,42.5,63.8,63.8,2.6,2.6,4.7,2.8,7.4.1,21.2-21.3,42.5-42.6,63.7-63.8h0Z"/>
      <path class="cls-5" d="M641.7,106.6c.4.5.7,1.1,1.1,1.6-11.5,11.1-23,22.1-34.4,33.3-10.9,10.8-21.8,21.6-32.5,32.6-3.2,3.3-5.2,3-8.2,0-20.9-21.1-41.8-42.1-62.9-63-3.2-3.1-2.9-5.2.2-8.2,21.1-20.9,42-41.9,63-62.9,2.4-2.4,4.2-3.8,7.2-.7,22,22.1,44,44.1,66,66.2.3.3.4.7.5,1.1h0ZM596.2,125.1c5.9-3.1,9.1-8.3,8.7-15-.5-10-7.3-14.5-16.1-16.3-2.3-14-7.8-20.2-17.2-19.9-9.6.3-14.6,6.2-16.4,19.8-8.5,2-15.7,5.9-16.3,16.2-.3,6.4,2.2,11.8,7.9,14.8,8.6,4.6,16.2,1.9,22.9-4.8.5.4,1,.7,1.4,1.1-2.7,6.1-5.4,12.1-8.3,18.5h17.9c-3-6.7-5.6-12.7-8.3-18.6.5-.3,1-.6,1.5-1,6.4,6.2,13.5,9.9,22.2,5.3h0Z"/>
      <path class="cls-5" d="M639.1,263.3c3,3,2.8,4.8-.1,7.7-21.1,20.9-42.1,41.8-63,62.9-3.4,3.5-5.5,3-8.7-.2-20.6-20.8-41.2-41.5-62-62.1-3.4-3.4-3.9-5.3-.2-9,20.9-20.5,41.4-41.3,62.1-62,1.3-1.3,2.7-2.5,4.3-4,1.4,1.1,2.6,1.8,3.6,2.8,21.3,21.3,42.5,42.6,63.9,63.8h0ZM599.5,289c5.6-4.5,7.7-15.2,2.8-21.2-9.4-11.4-19.8-22.1-30.5-34.1-10.7,12-21.2,22.9-30.6,34.6-5.1,6.3-2.3,16.9,4,21.4,6.4,4.5,13.5,3.4,19.7-3.1,1.4-1.5,2.9-2.8,4.4-4.2.6.5,1.1.9,1.7,1.4-3,5-6.1,9.9-9.3,15.2h20.4c-3.5-5.4-6.5-10.2-9.6-15,.6-.5,1.2-1.1,1.8-1.6,1.5,1.4,3,2.7,4.3,4.1,6.4,6.6,14.5,7.7,20.8,2.7h0Z"/>
      <path class="cls-5" d="M642.1-52.9c-1.2,1.5-2,2.7-3,3.7-21.3,21.3-42.5,42.5-63.7,63.8-2.7,2.7-4.8,2.5-7.4-.1-21.2-21.3-42.5-42.6-63.8-63.8-2.7-2.7-2.5-4.8.2-7.4,21.2-21,42.3-42.2,63.4-63.4,3.2-3.2,5.2-2.8,8.3.2,20.7,20.9,41.6,41.7,62.4,62.5,1.3,1.3,2.4,2.8,3.7,4.3h0ZM599.9-31.4c6.8-6.1,6.5-17.1-.7-24.9-6.1-6.7-12.2-13.4-18.4-20-2.9-3.1-6.1-6.1-9.4-9.4-4.9,5.4-9.4,10.3-13.9,15.3-5.5,6.1-11.4,11.9-16.2,18.4-4.8,6.6-2.6,17.1,3.5,21.6,5.9,4.4,13.8,3.2,19.9-2.9,1.5-1.5,3.1-2.9,4.6-4.3l1.7,1.3c-3.1,5.1-6.3,10.2-9.6,15.6h21.7c-2.5-3-4.6-5.2-6.2-7.8-1.6-2.6-2.7-5.6-4.1-8.4,2.4.2,3.4,1.1,4.4,2.1,7.6,8,16.1,9.2,22.7,3.3h0Z"/>
      <path class="cls-6" d="M604.9,110.1c.4,6.7-2.9,11.9-8.7,15-8.7,4.6-15.7.9-22.2-5.3-.5.3-1,.6-1.5,1h-1.4c-.5-.3-1-.6-1.4-1-6.7,6.7-14.3,9.4-22.9,4.8-5.7-3-8.2-8.4-7.9-14.8.5-10.3,7.8-14.1,16.3-16.2,1.8-13.6,6.8-19.5,16.4-19.8,9.4-.3,14.8,5.9,17.2,19.9,8.8,1.8,15.6,6.3,16.1,16.3h0Z"/>
      <path class="cls-6" d="M602.3,267.8c4.9,6,2.8,16.8-2.8,21.2-6.3,5-14.5,3.9-20.8-2.7-1.4-1.4-2.9-2.7-4.3-4.1-.6.5-1.2,1.1-1.8,1.6h-1.5c-.6-.6-1.1-1.1-1.7-1.5-1.5,1.4-3,2.7-4.4,4.2-6.2,6.5-13.3,7.7-19.7,3.1-6.3-4.5-9.1-15.1-4-21.4,9.4-11.7,19.8-22.6,30.6-34.6,10.8,11.9,21.1,22.6,30.5,34.1h0Z"/>
      <path class="cls-4" d="M647.2,107.1c-25.1,25-50.4,50.2-75.4,75.2-24.6-24.9-49.7-50.3-74.4-75.2,24.5-24.3,49.9-49.6,75.1-74.7,24.4,24.4,49.7,49.7,74.7,74.6ZM642.8,108.2c-.4-.5-.7-1.1-1.1-1.6-.2-.4-.2-.8-.5-1.1-22-22-44.1-44.1-66-66.2-3-3.1-4.9-1.6-7.2.7-20.9,21-41.9,42-63,62.9-3.1,3-3.3,5.1-.2,8.2,21.1,20.9,42,41.9,62.9,63,3,3,5.1,3.3,8.2,0,10.7-11,21.6-21.9,32.5-32.6,11.4-11.2,22.9-22.2,34.4-33.3h0Z"/>
      <path class="cls-4" d="M646.9,267.5c-24.9,24.8-50.2,50-75.2,74.9-24.9-25-50-50.3-74.9-75.3,24.7-24.6,50-49.9,75-74.8,24.6,24.6,49.8,49.9,75.1,75.2h0ZM639,271c2.9-2.9,3.1-4.7.1-7.7-21.4-21.2-42.6-42.5-63.9-63.8-1-1-2.2-1.8-3.6-2.8-1.6,1.5-3,2.7-4.3,4-20.7,20.7-41.3,41.5-62.1,62-3.8,3.7-3.2,5.6.2,9,20.8,20.6,41.5,41.3,62,62.1,3.2,3.2,5.2,3.7,8.7.2,20.8-21.1,41.9-42.1,63-62.9h0Z"/>
      <path class="cls-6" d="M580.8,139.4h-17.9c2.8-6.4,5.5-12.5,8.3-18.5h1.4c2.6,5.9,5.3,11.8,8.3,18.5h0Z"/>
      <path class="cls-6" d="M559.2,183.4c3.1,3,2.6,4.9-.2,7.7-21.2,21.1-42.3,42.2-63.4,63.3-1,1-2.2,1.9-3.6,3-1.3-1-2.5-1.7-3.5-2.7-21.3-21.3-42.5-42.6-63.9-63.8-2.9-2.9-2.9-4.8,0-7.7,21.2-21,42.4-42.2,63.4-63.4,3-3.1,4.8-2.7,7.6.2,21.1,21.2,42.2,42.3,63.5,63.4h0ZM491.9,219.2c7.3-14.5,17.6-24.5,31.9-32-14.5-7.4-24.4-17.9-32-31.6-7.6,14.1-17.7,24.1-31.7,31.7,14.2,7.5,24.5,17.7,31.8,32h0Z"/>
      <path class="cls-6" d="M562.1,26.9c-1.2,1.5-2.2,2.9-3.3,4-21.1,21.1-42.3,42.2-63.3,63.4-3.1,3.1-4.9,2.5-7.6-.2-20.9-21.1-41.8-42-62.9-62.9-3.5-3.4-3-5.4.2-8.6,21-20.7,41.8-41.5,62.5-62.5,3.5-3.6,5.4-3,8.6.2,20.6,20.8,41.3,41.4,62,62.1,1.3,1.3,2.4,2.8,3.9,4.4h0ZM514.4,42.6c9-9.8,12.9-21.7,9-35-1.9-6.6-5.7-11.9-13-13.2-7-1.2-11.4,3.1-14.9,8.4-1,1.5-2.1,3-3.6,5.1-2-2.8-3.4-5-5-7.1-7.2-9.4-18.8-9-24,1.7-2.7,5.6-4,12.6-3.4,18.7,2.1,18.6,15.4,29.1,30.3,37.8,1.2.7,3.9.3,5.2-.7,6.7-5,13.9-9.7,19.5-15.8h0Z"/>
      <path class="cls-4" d="M567.8,28c-5.5,5.5-11.5,11.6-17.5,17.6-18,18-36,36-53.9,54.1-3.1,3.1-5.2,3.9-8.7.4-23.2-23.5-46.7-46.8-70-70.1-.7-.7-1.3-1.6-1.5-1.9,25.6-25.5,51-50.8,76.2-75.9,24.5,24.6,49.7,49.9,75.5,75.8ZM558.8,31c1.1-1.2,2.1-2.5,3.3-4-1.4-1.7-2.6-3.1-3.9-4.4-20.7-20.7-41.4-41.3-62-62.1-3.1-3.2-5.1-3.8-8.6-.2-20.7,21-41.5,41.8-62.5,62.5-3.2,3.2-3.7,5.2-.2,8.6,21.1,20.8,42,41.8,62.9,62.9,2.8,2.8,4.5,3.4,7.6.2,21-21.2,42.2-42.3,63.3-63.4h0Z"/>
      <path class="cls-4" d="M566.5,187.6c-24.3,24.1-49.8,49.4-75.1,74.5-24.6-24.6-50-49.9-75.2-75.1,25-25,50.3-50.2,75.1-75,24.9,25,50.2,50.5,75.2,75.6h0ZM559,191.1c2.8-2.8,3.2-4.7.2-7.7-21.3-21-42.4-42.1-63.5-63.4-2.8-2.9-4.6-3.3-7.6-.2-21,21.3-42.2,42.4-63.4,63.4-3,2.9-3,4.8,0,7.7,21.4,21.2,42.6,42.5,63.9,63.8,1,1,2.2,1.7,3.5,2.7,1.4-1.2,2.5-2,3.6-3,21.1-21.1,42.2-42.3,63.4-63.3h0Z"/>
      <path class="cls-4" d="M523.4,7.5c3.9,13.3,0,25.2-9,35-5.6,6.1-12.8,10.7-19.5,15.8-1.3.9-4,1.4-5.2.7-14.9-8.8-28.2-19.3-30.3-37.8-.7-6.1.7-13.2,3.4-18.7,5.1-10.6,16.7-11,24-1.7,1.6,2.1,3.1,4.3,5,7.1,1.5-2.1,2.6-3.6,3.6-5.1,3.6-5.3,7.9-9.7,14.9-8.4,7.3,1.3,11.1,6.6,13,13.2h0Z"/>
      <path class="cls-4" d="M523.8,187.1c-14.3,7.6-24.5,17.5-31.9,32-7.3-14.3-17.6-24.5-31.8-32,14-7.5,24.1-17.6,31.7-31.7,7.6,13.7,17.5,24.2,32,31.6Z"/>
      <path class="cls-4" d="M482.9-58.8c1.8,1.8,3.4,3.7,6.2,6.7-12,11.7-23.6,22.8-34.9,34-12.6,12.4-25.1,24.9-37.5,37.5-3.3,3.4-5.5,4-9.1.3-22.8-23-45.8-45.9-68.8-68.7-3.2-3.1-2.9-5,.2-8.1,22.8-22.5,45.4-45.1,67.9-67.8,3.9-3.9,6.1-4,10.1,0,21.9,22.2,44,44.1,66,66.2h0ZM479.2-48.8c2.8-2.8,3.2-4.8.2-7.8-21.3-21-42.4-42.1-63.5-63.3-3.3-3.3-5.4-2.6-8.3.3-20.9,21-41.9,42-62.9,62.9-2.9,2.8-3.1,4.8-.2,7.8,21.2,21,42.3,42.2,63.5,63.3,1.1,1.1,2.5,2,4,3.1,1.6-1.3,3-2.2,4.1-3.4,21-21,41.9-42,63-62.9h0Z"/>
      <path class="cls-5" d="M479.5,103.7c2.5,2.5,2.7,4.3.2,6.8-21.5,21.4-42.9,42.8-64.3,64.3-2.8,2.8-4.7,2.3-7.3-.3-21-21.2-42.1-42.4-63.4-63.4-3.3-3.2-2.8-5.2.2-8.2,21.1-20.9,42-41.9,63-62.9,1.1-1.1,2.5-2,3.9-3.1,1.5,1.2,2.7,2,3.7,3,21.3,21.3,42.6,42.6,63.9,63.8ZM438.9,129.5c6-4.8,8.4-15.3,3.7-21.1-9.6-11.7-20-22.6-30.6-34.5-4.3,4.7-8,8.7-11.6,12.7-6.2,6.9-12.9,13.4-18.5,20.7-5.5,7.3-3.9,16.7,2.7,22.1,6,4.9,14,3.7,20.7-3.2,1.3-1.4,2.8-2.7,4.3-4,.6.4,1.2.9,1.7,1.3-3.2,5.1-6.5,10.2-10,15.7h20.6c-3.3-5.5-6.3-10.5-9.3-15.5,1-.7,2.1-1.5,3.1-2.2,1.3,1.9,2.3,4.1,3.9,5.7,5.6,5.7,14,6.6,19.4,2.3h0Z"/>
      <path class="cls-5" d="M479.4-56.6c3,3,2.6,5-.2,7.8-21,20.9-42,41.9-63,62.9-1.2,1.2-2.5,2.1-4.1,3.4-1.5-1.2-2.9-2-4-3.1-21.2-21.1-42.3-42.2-63.5-63.3-3-3-2.7-5,.2-7.8,21.1-20.9,42-41.8,62.9-62.9,2.9-2.9,5-3.6,8.3-.3,21,21.2,42.2,42.3,63.5,63.3h0ZM436.4-34.8c5.7-2.9,9-9,8.4-15.7-.6-7.1-4.7-12.6-12.1-14.3-3.8-.9-4.5-2.6-4.8-5.9-.9-9.3-7.2-15-16.2-14.9-8.6,0-15,5.8-15.9,14.7-.3,3.6-1,5.3-5.1,6.3-8.7,2-13.4,10.4-11.5,18.9,2,8.7,9.4,14.1,18.4,12.2,4.5-.9,8.5-3.8,13.9-6.3,0,.1-.1.2-.1.3-3,6.7-5.7,12.8-8.5,19.2h18.1c-3-6.5-5.7-12.6-8.4-18.6.6-.3,1.1-.6,1.7-.9.9.8,1.8,1.6,2.7,2.5,5.4,4.9,13.1,6,19.4,2.8h0Z"/>
      <path class="cls-5" d="M478.7,262.8c1.3,1.3,2.3,2.8,3.6,4.3-1.3,1.5-2.1,2.7-3.1,3.7-21,21-42,41.9-62.8,63-3.3,3.3-5.3,3.5-8.7.1-20.7-20.9-41.6-41.7-62.5-62.4-3.4-3.3-3.4-5.3,0-8.6,20.6-20.4,41.2-40.9,61.5-61.7,4.1-4.2,6.5-4.1,10.6,0,20.3,20.7,41,41.1,61.5,61.6h0ZM435.9,285.2c6.3-3.2,9.7-9,9-15.9-.7-7.5-4.6-12.6-12.1-14.1-3.6-.8-4.4-2.8-4.7-6.2-.8-9.3-6.8-14.7-15.6-14.8-8.9-.2-15.6,5.5-16.4,14.9-.3,4-1.8,5.5-5.4,6.3-7.2,1.7-10.8,6.9-11.6,14-.8,6.7,2.7,12.7,9.2,15.8,6.1,3,13.1,2.1,18.2-2.3,1.2-1,2.4-2,3.6-3,.5.3.9.5,1.4.8-2.8,6.3-5.6,12.5-8.3,18.7h18.1c-3-6.5-5.8-12.4-8.6-18.3.6-.3,1.2-.7,1.8-1,.9.8,1.9,1.6,2.8,2.4,5.8,5,12.5,6,18.6,2.9h0Z"/>
      <path class="cls-6" d="M444.8,269.2c.7,7-2.7,12.7-9,15.9-6.1,3.1-12.8,2.1-18.6-2.9-.9-.8-1.9-1.6-2.8-2.4-.6.3-1.2.7-1.8,1l-1.2-.5c-.5-.3-.9-.6-1.4-.8-1.2,1-2.5,2-3.6,3-5.1,4.4-12.1,5.3-18.2,2.3-6.4-3.1-10-9.1-9.2-15.8.9-7.1,4.4-12.2,11.6-14,3.6-.8,5-2.4,5.4-6.3.7-9.3,7.4-15,16.4-14.9,8.9.2,14.8,5.6,15.6,14.8.3,3.4,1.1,5.4,4.7,6.2,7.6,1.6,11.4,6.7,12.1,14.1h0Z"/>
      <path class="cls-6" d="M442.6,108.4c4.8,5.8,2.3,16.3-3.7,21.1-5.3,4.3-13.8,3.4-19.4-2.3-1.6-1.6-2.6-3.8-3.9-5.7-1,.7-2.1,1.5-3.1,2.2l-1.3-.2c-.6-.5-1.2-.9-1.7-1.3-1.4,1.3-2.9,2.6-4.3,4-6.7,6.9-14.7,8.1-20.7,3.2-6.6-5.4-8.3-14.8-2.7-22.1,5.6-7.3,12.3-13.8,18.5-20.7,3.6-4,7.3-8,11.6-12.7,10.6,11.9,21,22.8,30.6,34.5h0Z"/>
      <path class="cls-4" d="M410.7,191.7c25.4,25.6,50.7,51,75.9,76.3-24.2,24.3-49.2,49.5-74.7,75.1-1.3-1.1-2.8-2.1-4.1-3.4-22.8-22.8-45.5-45.6-68.4-68.4-2.7-2.7-4.4-4.6-.8-8.2,24-23.7,47.8-47.5,71.7-71.3.2-.2.5-.3.5-.3,0,0,0,0-.1.1ZM482.3,267.1c-1.3-1.5-2.3-3-3.6-4.3-20.5-20.5-41.2-40.9-61.5-61.6-4.1-4.1-6.5-4.2-10.6,0-20.3,20.7-40.9,41.3-61.5,61.7-3.4,3.3-3.4,5.3,0,8.6,21,20.7,41.8,41.5,62.5,62.4,3.4,3.4,5.4,3.2,8.7-.1,20.8-21.1,41.9-42,62.8-63,1-1,1.9-2.2,3.1-3.7h0Z"/>
      <path class="cls-6" d="M421.9,139.2h-20.6c3.5-5.5,6.8-10.6,10-15.7l1.3.2c3,5,6,10,9.3,15.5Z"/>
      <path class="cls-4" d="M412.2,32c24.8,24.9,50,50.1,74.8,75-24.9,24.9-50,50.2-74.9,75.1-24.6-24.9-49.9-50.3-74.7-75.4,24.4-24.3,49.7-49.6,74.9-74.7h0ZM479.6,110.4c2.5-2.5,2.3-4.3-.2-6.8-21.4-21.2-42.6-42.5-63.9-63.8-1-1-2.2-1.8-3.7-3-1.4,1.1-2.8,2-3.9,3.1-21,21-41.9,42-63,62.9-3,3-3.5,4.9-.2,8.2,21.2,21,42.3,42.2,63.4,63.4,2.6,2.6,4.5,3.1,7.3.3,21.4-21.5,42.8-42.9,64.3-64.3h0Z"/>
      <path class="cls-4" d="M404.5,182.4c2.5,2.5,4.8,4.4,1.1,8.2-23.9,23.7-47.7,47.5-71.5,71.3-.6.6-1.3.9-1.8,1.3-25.3-25.5-50.5-50.9-75.1-75.6l76-76c.6.5,2.3,1.9,3.9,3.5,22.5,22.4,44.9,44.9,67.4,67.4h0ZM401.2,187.1c-23.1-23.1-46.3-46.4-69.8-69.9-.4.3-1.1.6-1.7,1.2-21.7,21.7-43.4,43.5-65.3,65.1-3.3,3.3-2,5.1.6,7.6,21.2,21.1,42.3,42.3,63.5,63.4,1,1,2.2,1.8,2.6,2.1,23.7-23.5,47.1-46.7,70.1-69.5h0Z"/>
      <path class="cls-6" d="M399.7,24c2.7,2.6,2.2,4.3-.2,6.7-21.3,21.2-42.6,42.5-63.9,63.8-2.1,2.1-3.8,3.6-6.7.7-21.9-22.1-44-44.1-66-66.1-.4-.4-.6-1.1-1.5-2.5,17-17,33.9-33.7,50.7-50.5,5.4-5.3,10.8-10.6,16-16.1,2.5-2.6,4.3-3.3,7.2-.4,21.3,21.5,42.8,43,64.3,64.3h0ZM332.1,59c7.1-14.4,17.6-24,31.3-31.8-13.9-7.8-24.1-17.6-31.5-32-7.3,14.6-17.6,24.7-32.2,32.2,15.1,7.1,24.6,17.8,32.5,31.6h0Z"/>
      <path class="cls-4" d="M407.8,28.8c-5.4,5.2-11.6,11.1-17.7,17.2-17.9,17.8-35.8,35.7-53.5,53.7-3.6,3.6-5.7,4-9.5.1-22.6-22.9-45.4-45.6-68.2-68.4-1.2-1.2-2.2-2.4-3.4-3.7,25.8-25.7,51.1-50.8,76-75.6,24.9,25.1,50.2,50.5,76.3,76.7ZM399.5,30.7c2.4-2.4,2.9-4.1.2-6.7-21.5-21.4-42.9-42.8-64.3-64.3-2.9-2.9-4.7-2.2-7.2.4-5.2,5.5-10.7,10.8-16,16.1-16.8,16.8-33.7,33.5-50.7,50.5.8,1.4,1,2.1,1.5,2.5,22,22,44.1,44,66,66.1,2.9,3,4.6,1.5,6.7-.7,21.3-21.3,42.5-42.6,63.9-63.8h0Z"/>
      <path class="cls-4" d="M364.1,169.8c2.1,11.9-.8,22.6-8.7,31.7-3.9,4.4-8.3,8.3-12.9,11.9-10.1,7.9-11.2,7.9-21.3.2-10-7.6-18.5-16.5-21.5-29.4-1.8-7.7-.9-15.1,3.1-21.9,6.2-10.6,17.5-11,24.5-1,1.3,1.9,2.6,3.7,4,5.6.1.1.4.1,1,.3.9-1.2,1.9-2.4,2.8-3.8,3.7-5.4,7.8-10.3,15.2-9.1,6.7,1.1,12.4,7.8,13.8,15.6h0Z"/>
      <path class="cls-6" d="M331.4,117.2c23.5,23.5,46.8,46.8,69.8,69.9-23,22.8-46.4,46-70.1,69.5-.4-.3-1.6-1.1-2.6-2.1-21.2-21.1-42.3-42.3-63.5-63.4-2.6-2.6-4-4.3-.6-7.6,21.9-21.6,43.5-43.4,65.3-65.1.6-.6,1.3-.9,1.7-1.2h0ZM355.4,201.5c8-9,10.8-19.7,8.7-31.7-1.4-7.8-7.1-14.5-13.8-15.6-7.4-1.2-11.6,3.6-15.2,9.1-.9,1.3-1.9,2.6-2.8,3.8-.6-.2-.9-.2-1-.3-1.3-1.8-2.6-3.7-4-5.6-7.1-10-18.3-9.6-24.5,1-4,6.8-4.9,14.2-3.1,21.9,3,12.9,11.5,21.8,21.5,29.4,10.1,7.7,11.1,7.7,21.3-.2,4.6-3.6,9.1-7.5,12.9-11.9h0Z"/>
      <path class="cls-4" d="M363.4,27.2c-13.7,7.8-24.2,17.4-31.3,31.8-7.9-13.8-17.4-24.6-32.5-31.6,14.6-7.5,24.9-17.6,32.2-32.2,7.4,14.4,17.6,24.1,31.5,32h0Z"/>
      <path class="cls-4" d="M324.8-56.9c1.2,1.1,2,2.6,3.2,4-1.2,1.6-2.1,3-3.2,4.1-23,23.1-46.1,46.1-69.1,69.3-3,3-5,2.5-7.7-.3-22.7-22.8-45.4-45.6-68.3-68.2-3.7-3.7-3.8-5.9,0-9.6,22.7-22.4,45.3-45.1,67.8-67.8,3.2-3.2,5.3-3.7,8.7-.3,22.8,23,45.8,45.9,68.7,68.8h0ZM318.6-48.3c3.2-3.1,3.6-5.4.2-8.8-21.1-20.8-42-41.8-62.9-62.9-2.8-2.8-4.7-3.1-7.7,0-21,21.2-42.2,42.3-63.4,63.3-2.8,2.8-3.3,4.7-.3,7.7,21.4,21.2,42.6,42.5,63.9,63.7,1,1,2.2,1.7,3.6,2.8,1.5-1.2,2.8-2.2,4-3.3,20.8-20.8,41.6-41.7,62.5-62.4h0Z"/>
      <path class="cls-4" d="M324.5,262.3c3.6,3.5,3.3,5.9-.1,9.3-23.1,23-46.1,46.1-69.2,69.1-.9.9-1.9,1.5-3.5,2.7-4.4-4.3-8.8-8.4-13.1-12.6-19.8-19.8-39.5-39.6-59.4-59.4-2.8-2.8-4-4.8-.6-8.2,23.5-23.2,46.8-46.7,70.2-70,.7-.7,1.6-1.3,4.5-3.7,9.3,10,18.4,20,27.7,29.5,14.3,14.6,28.7,29,43.3,43.2h0ZM318.1,272c3.7-3.7,3.9-6,.1-9.7-21-20.7-41.7-41.6-62.6-62.5-1-1-2.2-1.8-3.8-3-1.6,1.3-3.1,2.3-4.4,3.6-20.7,20.7-41.4,41.4-62.2,62-3.4,3.4-3.8,5.7-.1,9.3,20.8,20.6,41.5,41.3,62.1,62.1,3.5,3.6,5.7,3.4,9.2,0,20.4-20.7,41-41.3,61.7-61.6h0Z"/>
      <path class="cls-5" d="M319.8,104c.9.9,1.5,1.9,2.4,3.1-.9,1.3-1.6,2.6-2.6,3.6-21.4,21.4-42.9,42.9-64.3,64.3-2.2,2.2-4,2.4-6.4,0-21.5-21.6-43.1-43.2-64.7-64.7-3.5-3.5-.9-5.5,1.3-7.8,16.5-16.5,33-33,49.5-49.5,4.6-4.6,9.3-9.1,13.8-13.8,2.3-2.4,4-2.3,6.3,0,21.5,21.6,43.1,43.2,64.6,64.8h0ZM276.2,125.2c6.1-2.8,9.1-8.5,8.6-16.1-.5-8.1-5.5-12.1-12.7-14.6-1.7-.6-3.4-3.2-3.7-5.1-1.2-9-6.9-14.8-15.6-15.4-7.7-.6-15.8,5.2-16.6,13.4-.6,5.5-3.1,7.2-7.6,8.8-6.5,2.4-10.1,8.7-9.8,15.4.3,6.4,4.6,11.9,10.7,14.2,8.2,3.1,14.6-.4,20.4-6,.4.3.9.7,1.3,1-2.7,6.1-5.3,12.2-8.3,19,5.4,0,10.2,0,14.9,0,1,0,2.1-.2,3.3-.3-2.9-6.4-5.6-12.3-8.3-18.2,2.1-.5,2.8-.4,3.2,0,5.8,5.9,12.5,7.5,20.1,3.9h0Z"/>
      <path class="cls-5" d="M318.8-57.1c3.4,3.4,3,5.6-.2,8.8-20.9,20.7-41.7,41.6-62.5,62.4-1.2,1.2-2.5,2.1-4,3.3-1.4-1.1-2.6-1.8-3.6-2.8-21.3-21.2-42.5-42.5-63.9-63.7-3.1-3-2.5-4.9.3-7.7,21.2-21,42.4-42.1,63.4-63.3,3-3,4.9-2.8,7.7,0,20.9,21.1,41.8,42.1,62.9,62.9h0ZM279.5-30.6c6-4.8,7.7-16,2.3-22.3-9.3-11.1-19.4-21.5-29.9-33.1-10.6,11.8-21.2,22.6-30.6,34.4-5.5,6.9-2.7,16.6,4.3,21.8,6,4.4,13.7,2.8,19.9-4.3,1.2-1.4,1.4-3.5,2.1-5.3,1,.9,2.1,1.8,3.1,2.7-1.2,2.7-2.2,5.6-3.7,8.2-1.6,2.6-3.7,4.9-6.2,8.1h21.2c-3.1-5.4-5.9-10.4-8.8-15.4.7-.5,1.5-1,2.2-1.5,1,1.3,2,2.6,3.2,3.8,6.4,6.6,14.9,7.9,20.9,3h0Z"/>
      <path class="cls-5" d="M318.2,262.3c3.8,3.7,3.6,6-.1,9.7-20.7,20.4-41.3,41-61.7,61.6-3.5,3.5-5.7,3.7-9.2,0-20.6-20.8-41.3-41.5-62.1-62.1-3.7-3.6-3.3-5.9.1-9.3,20.8-20.6,41.5-41.3,62.2-62,1.3-1.3,2.8-2.3,4.4-3.6,1.5,1.2,2.7,2,3.8,3,20.9,20.8,41.6,41.8,62.6,62.5h0ZM279.6,288.9c6.8-6,7.1-17.1.5-24.4-8.1-8.9-16.4-17.5-24.3-26.5-3-3.4-5-3.2-8,.1-7.2,8.2-14.9,16-22.2,24.2-2.2,2.5-4.2,5.3-5.6,8.3-3.2,6.8-.5,15.7,5.6,19.6,6,3.9,13.2,2.8,18.8-3.2,1.6-1.7,2.6-4.1,3.8-6.1,1,.9,2,1.7,3,2.6-3.2,5.1-6.3,10.2-9.6,15.6h20.4c-3.3-5.5-6.2-10.5-9.2-15.5.8-.5,1.7-.9,2.5-1.4.7,1,1.4,2,2.2,3,7,7.9,15.8,9.4,22.1,3.8h0Z"/>
      <path class="cls-6" d="M284.8,109.1c.5,7.6-2.5,13.3-8.6,16.1-7.6,3.6-14.3,2-20.1-3.9-.4-.4-1-.6-3.2,0l-1.7-.6c-.4-.3-.9-.7-1.3-1-5.8,5.6-12.1,9.1-20.4,6-6.2-2.3-10.4-7.8-10.7-14.2-.3-6.8,3.3-13.1,9.8-15.4,4.5-1.6,7.1-3.3,7.6-8.8.8-8.2,8.9-13.9,16.6-13.4,8.8.6,14.4,6.5,15.6,15.4.3,1.9,2,4.6,3.7,5.1,7.2,2.5,12.2,6.5,12.7,14.6h0Z"/>
      <path class="cls-4" d="M327.3,107.1c-25,25.1-50.2,50.3-75.3,75.5-24.9-25.2-50.1-50.5-75.1-75.7,24.8-24.6,50.1-49.7,75.2-74.6,24.9,24.8,50.2,50,75.2,74.9ZM322.2,107.1c-.9-1.2-1.6-2.2-2.4-3.1-21.5-21.6-43.1-43.2-64.6-64.8-2.3-2.3-4-2.4-6.3,0-4.5,4.7-9.2,9.2-13.8,13.8-16.5,16.5-33,33-49.5,49.5-2.2,2.2-4.8,4.2-1.3,7.8,21.6,21.5,43.2,43.1,64.7,64.7,2.4,2.4,4.2,2.2,6.4,0,21.4-21.4,42.9-42.9,64.3-64.3,1-1,1.7-2.3,2.6-3.6h0Z"/>
      <path class="cls-6" d="M261.2,139.4c-1.3.1-2.3.3-3.3.3-4.8,0-9.5,0-14.9,0,3-6.8,5.6-12.9,8.3-19l1.7.6c2.7,5.9,5.3,11.7,8.3,18.2h0Z"/>
      <path class="cls-4" d="M245.5,23.4c1,1,1.8,2.2,2.8,3.6-1,1.3-1.8,2.6-2.8,3.6-23.3,23.4-46.7,46.7-70,70.1-2.8,2.8-4.7,2.4-7.3-.2-23.1-23.3-46.3-46.5-69.7-69.6-3-2.9-2.8-4.9,0-7.7C121.8.2,144.8-22.8,167.8-46c3-3,5-3.5,8.2-.2C199-22.9,222.3.2,245.5,23.4ZM239.3,30.9c3-3,2.8-4.7-.1-7.6-21.3-21-42.4-42.1-63.4-63.4-3-3.1-4.7-2.8-7.6.1-21,21.2-42.1,42.4-63.4,63.4-3,3-2.8,4.8,0,7.6,21.2,21,42.3,42.3,63.5,63.4,1,1,2.2,1.9,3.6,3.1,1.4-1.1,2.8-2,3.9-3.1,21.2-21.1,42.2-42.3,63.5-63.4h0Z"/>
      <path class="cls-4" d="M247.8,187.7c-1,1.2-2.4,2.9-4,4.5-22.5,22.5-45,44.9-67.4,67.5-2.6,2.6-4.5,4.7-8.1,1-23.2-23.5-46.7-46.9-70-70.3-.9-.9-1.6-1.9-2.4-2.9,25.7-25.7,50.9-50.9,75.8-75.9,25,25.1,50.2,50.3,76,76.1h0ZM238.9,191.3c3.1-3.1,3.3-5,0-8.2-13-12.6-25.7-25.5-38.4-38.3-9.3-9.4-18.5-18.8-28.5-29-23.4,23.6-45.8,46.1-68.2,68.6-3.1,3.1-.8,4.8,1.2,6.7,21,21,42,41.9,62.9,63,3,3.1,4.9,3.4,8.1.1,20.8-21.1,41.8-42.1,62.9-62.9h0Z"/>
      <path class="cls-6" d="M239.2,23.2c2.9,2.9,3.1,4.7.1,7.6-21.2,21.1-42.3,42.3-63.5,63.4-1.1,1.1-2.5,2-3.9,3.1-1.4-1.2-2.6-2-3.6-3.1-21.2-21.1-42.3-42.3-63.5-63.4-2.9-2.9-3.1-4.6,0-7.6,21.3-21,42.4-42.2,63.4-63.4,2.9-2.9,4.6-3.2,7.6-.1,21,21.3,42.2,42.4,63.4,63.4h0ZM196.2,40.5c8.6-10.2,11.6-22.4,6.4-35.4-2.3-5.7-6.3-10.2-12.9-10.8-6.4-.6-10.6,3-13.9,8.1-1.1,1.7-2.2,3.3-4,5.9-1.6-2.6-2.6-4.3-3.7-6-3.1-4.8-7.1-8.5-13.3-8.1-6.6.4-11.6,4.5-13,10.4-1.7,6.9-2.9,14.7-1.3,21.5,3.7,15.5,15.5,25.1,28.9,32.5,1.6.9,5.2.4,6.8-.9,6.9-5.4,14.3-10.6,20-17.2h0Z"/>
      <path class="cls-6" d="M239,183.1c3.2,3.2,3,5.1,0,8.2-21.1,20.9-42.1,41.8-62.9,62.9-3.2,3.3-5.1,2.9-8.1-.1-20.9-21.1-41.9-42-62.9-63-2-2-4.2-3.7-1.2-6.7,22.4-22.5,44.8-45,68.2-68.6,10,10.2,19.2,19.6,28.5,29,12.8,12.8,25.5,25.7,38.4,38.3h0ZM172.6,218.1c6.9-13.6,17.2-23.5,31.2-31-14.4-7.3-24.3-17.6-32-31.7-7.5,14.6-17.8,24.4-30.6,31.4,6.2,4.9,12.2,8.9,17.2,13.9,5,5,9,11,14.2,17.5Z"/>
      <path class="cls-4" d="M202.6,5.1c5.2,13,2.2,25.2-6.4,35.4-5.6,6.6-13,11.8-20,17.2-1.6,1.3-5.1,1.8-6.8.9-13.4-7.5-25.2-17-28.9-32.5-1.6-6.7-.4-14.6,1.3-21.5,1.4-5.9,6.4-9.9,13-10.4,6.2-.4,10.1,3.3,13.3,8.1,1.1,1.7,2.1,3.4,3.7,6,1.7-2.6,2.9-4.2,4-5.9,3.2-5.1,7.4-8.8,13.9-8.1,6.6.7,10.6,5.1,12.9,10.8h0Z"/>
      <path class="cls-4" d="M203.9,187.1c-14,7.5-24.3,17.4-31.2,31-5.2-6.5-9.2-12.5-14.2-17.5-5-5-11-9-17.2-13.9,12.8-7,23.1-16.8,30.6-31.4,7.7,14.1,17.6,24.4,32,31.7h0Z"/>
      <path class="cls-4" d="M164.1,262.2c2.6,2.6,5.4,4.6,1.3,8.6-23.7,23.4-47.1,46.9-70.7,70.4-.7.7-1.6,1.2-3,2.2-8.5-8.4-16.9-16.5-25.1-24.8-15.5-15.5-30.7-31.1-46.4-46.4-4.3-4.2-3.9-6.6.1-10.6,22.5-22.1,44.8-44.5,66.9-66.9,3.7-3.7,5.8-3.9,9.5,0,22.3,22.7,44.9,45,67.3,67.5h0ZM159,271.4c3.4-3.3,3.3-5.5,0-8.7-21-20.7-41.8-41.7-62.6-62.5-1.2-1.2-2.5-2.1-4.2-3.5-1.6,1.3-3.1,2.4-4.4,3.7-20.6,20.5-41.1,41.2-61.8,61.5-4,3.9-3.9,6.3,0,10.2,20.4,20.1,40.7,40.3,60.7,60.8,4,4,6.4,4.5,10.6.2,20.4-20.8,40.9-41.3,61.6-61.7h0Z"/>
      <path class="cls-4" d="M164.8,102.7c2.9,2.9,3.6,4.9.3,8.2-23.3,23.1-46.5,46.3-69.7,69.5-1,1-2.2,1.8-3.2,2.5-25.4-25.4-50.7-50.6-75.7-75.6,25.3-25.1,50.7-50.3,77.3-76.7,8.8,9.2,18.1,19.1,27.7,28.8,14.3,14.5,28.8,28.9,43.3,43.2h0ZM158.1,112.2c4-3.9,3.8-6.3,0-10.1-20.8-20.5-41.5-41.2-62-62.1-3.2-3.3-5.1-2.9-8.1.2-12.7,12.9-25.5,25.7-38.4,38.4-9.4,9.3-19,18.3-28.4,27.3,1.2,2.1,1.5,2.9,2,3.5,21.8,21.9,43.7,43.8,65.5,65.7,3,3,4.9,1.5,7.3-.8,20.6-20.7,41.2-41.5,62.1-62h0Z"/>
      <path class="cls-4" d="M165-57.1c3.4,3.4,2.9,5.5-.3,8.7C141.9-25.7,119.1-3,96.5,19.9c-3.4,3.4-5.4,3.3-8.6,0C65.2-3,42.4-25.7,19.5-48.3c-3.7-3.7-3.1-5.9.2-9.2,22.9-22.7,45.6-45.5,68.4-68.2,1.1-1.2,2.5-2,4-3.2,1.4,1.1,2.6,1.9,3.6,2.9,23.1,23,46.1,46.1,69.3,69.1h0ZM159.3-49.1c1-1,1.8-2.2,3-3.7-1.3-1.5-2.4-3-3.7-4.3-20.7-20.7-41.5-41.2-61.9-62.1-3.9-3.9-6-3.5-9.5,0-20.4,20.7-40.9,41.2-61.6,61.5-4,3.9-3.3,6.2.2,9.7C46.5-27.5,67-7,87.4,13.7c3.5,3.6,5.6,3.7,9.1.1,20.8-21.1,41.9-42,62.8-62.9h0Z"/>
      <path class="cls-5" d="M162.4-52.8c-1.2,1.5-2,2.7-3,3.7-20.9,21-42,41.8-62.8,62.9-3.6,3.6-5.6,3.4-9.1-.1C67-7,46.5-27.5,25.8-47.9c-3.5-3.5-4.2-5.8-.2-9.7,20.7-20.3,41.2-40.9,61.6-61.5,3.6-3.6,5.7-4,9.5,0,20.5,20.9,41.3,41.4,61.9,62.1,1.3,1.3,2.4,2.8,3.7,4.3h0ZM117.8-35.8c5.9-3.6,8.5-9.4,7.2-16.3-1.6-8.5-7.5-12.7-16-13.9-1.1-13-6.1-19.4-15.4-19.8-10.1-.5-17.3,4.1-18.6,19.8-7.8,1.3-13.9,4.9-15.5,13.3-1.3,7,.7,13.2,7.2,16.8,8.5,4.8,16.3,2.5,23.2-4.3.4.4.9.8,1.3,1.2-2.7,6.1-5.4,12.3-8.1,18.3h18c-2.9-6.5-5.6-12.5-8.2-18.5.4-.5.9-1.1,1.3-1.6,6.9,7.9,14.8,10.3,23.6,4.9h0Z"/>
      <path class="cls-5" d="M159,262.7c3.3,3.3,3.4,5.4,0,8.7-20.7,20.4-41.3,41-61.6,61.7-4.2,4.3-6.7,3.8-10.6-.2-20.1-20.4-40.3-40.7-60.7-60.8-4-3.9-4-6.3,0-10.2,20.7-20.4,41.2-41,61.8-61.5,1.3-1.3,2.8-2.4,4.4-3.7,1.7,1.4,3,2.3,4.2,3.5,20.9,20.8,41.7,41.8,62.6,62.5h0ZM117.1,284.7c6.2-3.5,8.7-9.1,8-15.9-.8-7.1-4.8-12-12-13.7-3.1-.7-4.2-2.1-4.6-5.5-1-9.8-7.6-15.6-16.6-15.6-8.9,0-15.4,6.2-16,16-.3,4.3-3,4.4-5.7,5.3-7.6,2.5-11.3,8-11,16.3.3,7.1,5.2,13,12.5,14.7,7.2,1.6,12.9-1.4,17.9-6.6.5.4,1,.8,1.6,1.2-2.6,5.9-5.2,11.8-8,18.2h17.8c-2.8-6.2-5.3-12-7.9-17.7.6-.3,1.2-.6,1.8-.9.9.8,1.8,1.6,2.7,2.3,5.7,4.7,13.1,5.5,19.4,1.9h0Z"/>
      <path class="cls-5" d="M158,102.1c3.9,3.9,4.1,6.2,0,10.1-20.9,20.5-41.5,41.3-62.1,62-2.4,2.4-4.3,3.9-7.3.8-21.8-21.9-43.7-43.8-65.5-65.7-.6-.6-.8-1.4-2-3.5,9.4-9,19-18,28.4-27.3,12.9-12.7,25.7-25.4,38.4-38.4,3-3.1,4.9-3.5,8.1-.2,20.5,20.8,41.2,41.5,62,62.1h0ZM116.6,130.8c5.7-2.2,8.5-7.4,8.2-13-.3-4.5-2-9.6-4.8-13.1-7.1-8.8-15.2-16.9-22.9-25.2-1.5-1.6-3.3-3.1-5.3-5-4.5,4.7-8.6,8.9-12.5,13.2-5.6,6-11.2,12-16.5,18.3-5.7,6.8-4.9,17.5,1.2,22.9,6.3,5.6,14.9,4.4,21.7-3,1.1-1.2,1.7-2.9,2.5-4.3.9.7,1.8,1.4,2.7,2-2.9,5.1-5.8,10.2-8.7,15.5h20.1c-3.4-5.5-6.5-10.5-9.6-15.5.7-.4,1.3-.9,2-1.3,1.8,1.9,3.6,4,5.5,5.7,4.9,4.4,10.6,5.2,16.5,2.9h0Z"/>
      <path class="cls-6" d="M125.1,268.8c.7,6.8-1.8,12.4-8,15.9-6.4,3.6-13.7,2.8-19.4-1.9-.9-.8-1.8-1.6-2.7-2.3-.6.3-1.2.6-1.8.9l-2-.5c-.5-.4-1-.8-1.6-1.2-4.9,5.3-10.6,8.3-17.9,6.6-7.3-1.7-12.2-7.5-12.5-14.7-.3-8.4,3.4-13.9,11-16.3,2.7-.9,5.5-1,5.7-5.3.6-9.8,7.1-15.9,16-16,9,0,15.6,5.8,16.6,15.6.4,3.4,1.5,4.8,4.6,5.5,7.2,1.7,11.2,6.6,12,13.7h0Z"/>
      <path class="cls-6" d="M124.8,117.8c.3,5.6-2.5,10.8-8.2,13-5.9,2.3-11.6,1.5-16.5-2.9-2-1.8-3.7-3.8-5.5-5.7-.7.4-1.3.9-2,1.3h-1.8c-.9-.7-1.8-1.4-2.7-2-.8,1.4-1.5,3.1-2.5,4.3-6.7,7.5-15.3,8.6-21.7,3-6.1-5.4-6.9-16.1-1.2-22.9,5.2-6.3,10.9-12.3,16.5-18.3,4-4.3,8.1-8.5,12.5-13.2,2,1.9,3.8,3.4,5.3,5,7.7,8.3,15.8,16.4,22.9,25.2,2.8,3.5,4.6,8.6,4.8,13.1h0Z"/>
      <path class="cls-6" d="M102.2,139.1h-20.1c3-5.3,5.8-10.4,8.7-15.5h1.8c3.1,5,6.2,10,9.6,15.5Z"/>
      <path class="cls-6" d="M79.1,182.9c2.7,2.6,3.8,4.5.5,7.7-21.7,21.5-43.2,43.1-64.8,64.7-.7.7-1.6,1.2-2.2,1.6-23.5-23.6-46.7-46.9-69.6-69.9,23.1-23.2,46.1-46.4,71.2-71.6,1.3,2.2,2.3,5,4.1,6.9,20.1,20.3,40.4,40.6,60.7,60.7h0ZM36.5,200c8.2-9.8,11.3-21.6,6.5-34.2-2.3-6-6.1-10.7-13-11.5-6.7-.7-11,3.1-14.3,8.4-1,1.6-2,3.1-3.5,5.4-1.7-2.5-2.6-3.8-3.5-5.2-3.6-5.2-7.7-9.7-14.8-8.8-6.3.9-12.4,7.4-13.8,14.9-1.9,10.3-1,20.6,6,28.7,6.2,7.2,14,13.1,21.1,19.5,3.1,2.8,6.5,2.8,9.7.2,6.7-5.7,14.1-10.8,19.7-17.5h0Z"/>
      <path class="cls-6" d="M77.9,22.3c1.5,1.5,2.8,3,4,4.2-23.7,23.5-47.1,46.6-70.1,69.5C-10.6,73.4-33.8,50-57.5,26.1c.7-.7,2.2-2.4,3.8-4C-33.5,1.8-13.1-18.3,6.9-38.8c4.2-4.3,6.4-3.8,10.4.2C37.3-18.1,57.7,2,77.9,22.3ZM12,59.1c7.4-14.3,17.6-24.5,32-31.9C29.4,19.9,19.6,9.3,11.8-4.7,4.7,10.1-6,19.5-19.4,27.4c14.1,7.6,24,17.5,31.5,31.7h0Z"/>
      <path class="cls-4" d="M89,29.4c-4.2,3.6-9.3,7.6-13.9,12.1-19.5,19.2-38.8,38.5-58,58-3.9,4-6.1,4-10,0C-15.3,76.6-38,54.1-60.7,31.5c-2.7-2.7-4.3-4.6-.7-8.1C-37.7,0-14.3-23.5,9.3-47c.7-.7,1.6-1.3,2.1-1.7C36.9-23.1,62.2,2.3,89,29.4ZM81.9,26.5c-1.2-1.3-2.6-2.8-4-4.2C57.7,2,37.3-18.1,17.3-38.5c-4-4.1-6.2-4.6-10.4-.2C-13.1-18.3-33.5,1.8-53.7,22.1c-1.6,1.6-3.1,3.3-3.8,4C-33.8,50-10.6,73.4,11.8,96c23.1-22.8,46.4-46,70.1-69.5h0Z"/>
      <path class="cls-4" d="M43,165.7c4.8,12.7,1.7,24.4-6.5,34.2-5.6,6.7-13,11.8-19.7,17.5-3.1,2.7-6.5,2.7-9.7-.2-7.1-6.4-14.9-12.3-21.1-19.5-7-8.1-7.9-18.4-6-28.7,1.4-7.5,7.4-14,13.8-14.9,7.1-1,11.3,3.5,14.8,8.8.9,1.4,1.8,2.7,3.5,5.2,1.5-2.4,2.5-3.9,3.5-5.4,3.3-5.3,7.6-9.2,14.3-8.4,6.9.8,10.7,5.5,13,11.5h0Z"/>
      <path class="cls-4" d="M44,27.2c-14.4,7.4-24.5,17.6-32,31.9-7.4-14.2-17.4-24.2-31.5-31.7C-6,19.5,4.7,10.1,11.8-4.7c7.8,13.9,17.6,24.5,32.3,31.9Z"/>
      <path class="cls-4" d="M12.2,112.3c24.4,24.5,49.7,49.9,74.7,75.1-24.6,24.4-50,49.7-75.5,74.9-24.8-24.8-50-50-74.9-74.9,25.2-25,50.6-50.3,75.6-75.1h0ZM79.6,190.6c3.2-3.2,2.1-5.1-.5-7.7-20.3-20.2-40.6-40.4-60.7-60.7-1.9-1.9-2.9-4.7-4.1-6.9-25,25.2-48.1,48.4-71.2,71.6,22.9,23,46.1,46.3,69.6,69.9.6-.4,1.5-.9,2.2-1.6,21.6-21.6,43.1-43.2,64.8-64.7h0Z"/>
      <path class="cls-4" d="M4.2,262.1c3.5,3.5,4.3,5.7.3,9.6-22.8,22.5-45.3,45.2-68,67.8-1.3,1.3-2.8,2.5-3.9,3.4-25.5-25.6-50.7-50.9-76.1-76.4,24.9-24.9,50-50,75.7-75.6,1.5,1.3,3.3,2.7,4.9,4.3,22.4,22.3,44.7,44.7,67.1,66.9h0ZM-.6,270.9c3.1-3,2.6-4.9-.2-7.7-21.1-20.9-42-41.9-62.9-62.9-1.2-1.2-2.5-2.1-4.1-3.5-1.6,1.3-3.1,2.4-4.4,3.7-21,20.9-41.9,41.9-63,62.8-2.6,2.6-3.2,4.4-.3,7.2,21.4,21.2,42.7,42.4,63.9,63.7,2.9,3,4.8,2.8,7.7,0,21-21.2,42.2-42.3,63.4-63.3h0Z"/>
      <path class="cls-5" d="M2.2,107.1c.5.6.9,1.2,1.4,1.8-5.2,4.5-10.8,8.7-15.7,13.6-16.9,16.7-33.8,33.4-50.4,50.4-4,4.1-6.4,4.5-10.6.2-20.4-20.7-41-41.1-61.6-61.7-1.3-1.3-2.3-2.8-4.4-5.3,10.4-10,20.5-19.7,30.6-29.6,12.3-12.1,24.5-24.3,36.7-36.5,2.3-2.3,4.1-4,7.2-.8C-43,60.9-21.4,82.5.1,104.1c.8.8,1.4,2,2.1,3h0ZM-43.5,125.1c5.9-3.1,9-8.4,8.7-15-.6-10-7.4-14.5-16.1-16.3-2.2-14-7.7-20.2-17.2-19.9-9.7.3-14.6,6.1-16.3,19.4-14.7,5.8-19.8,14.3-14.9,24.6,4.9,10.1,15.4,11.1,30.6,3.2-2.7,6.1-5.4,12.1-8.3,18.5h18.1c-3-6.7-5.7-12.7-8.3-18.6l1.5-1c6.4,6.3,13.5,9.7,22.2,5.2h0Z"/>
      <path class="cls-5" d="M-.8,263.2c2.8,2.8,3.3,4.7.2,7.7-21.2,21-42.4,42.1-63.4,63.3-2.9,2.9-4.7,3-7.7,0-21.2-21.3-42.5-42.6-63.9-63.7-2.9-2.8-2.3-4.7.3-7.2,21.1-20.9,42-41.9,63-62.8,1.3-1.3,2.8-2.4,4.4-3.7,1.6,1.4,2.9,2.3,4.1,3.5,21,21,41.9,42,62.9,62.9h0ZM-40.1,288.9c5.5-4.6,7.4-15.6,2.5-21.4-9.4-11.2-19.6-21.9-30.4-33.7-10.6,11.7-20.6,22.1-29.9,33.3-5.5,6.6-3.7,17.1,2.7,22.1,6.5,5.2,14,4.1,20.6-3.1,1.3-1.4,2.7-2.6,4-3.9.6.5,1.2.9,1.7,1.4-3.1,5.1-6.1,10.2-9.3,15.4h20.4c-3.4-5.5-6.5-10.5-9.5-15.5,1.1-.9,2.2-1.8,3.3-2.7,1,1.9,1.6,4.1,3,5.6,6.2,6.7,14.6,7.6,20.8,2.4h0Z"/>
      <path class="cls-5" d="M-1-57c3,3,3.4,5,.2,8.2C-21.7-28.1-42.5-7.2-63.3,13.6c-1.3,1.3-2.8,2.4-4.4,3.8-1.6-1.2-3-2.1-4.2-3.2-21.2-21.1-42.3-42.2-63.5-63.2-3-3-2.5-5,.3-7.8,20.9-20.7,41.8-41.5,62.5-62.5,3.8-3.9,6.2-3.3,9.7.3C-42.5-98.2-21.7-77.6-1-57ZM-37-34.7c3.6-5.8,2.5-14.7-2.3-20.1-7-7.9-14.2-15.5-21.3-23.3-2.3-2.6-4.4-5.4-6.9-8.4-3.5,3.8-5.8,6.2-8,8.7-7.5,8.2-15.4,16.2-22.3,24.9-5.4,6.8-3.8,17.3,2.4,22.3,6.1,4.9,14.2,3.8,20.8-2.9,1.3-1.4,2.8-2.6,4.3-3.9.6.4,1.1.9,1.7,1.3-3.1,5.1-6.3,10.2-9.6,15.6h20.9c-3.4-5.4-6.6-10.6-9.8-15.7.6-.4,1.3-.9,2-1.3,1.5,1.6,2.8,3.5,4.6,4.7,2.9,1.9,5.9,4.1,9.2,4.8,6.2,1.4,11.2-1.4,14.5-6.7h0Z"/>
      <path class="cls-4" d="M-68.5-128.5C-43.2-103-18.1-77.7,7.1-52.3-17.3-27.8-42.5-2.5-68.3,23.4c-6.7-6.6-13.6-13.2-20.4-20-17.3-17.2-34.5-34.6-51.8-51.7-2.7-2.7-4.2-4.8-.7-8.2,23.8-23.5,47.4-47.2,71.1-70.8.6-.6,1.3-.9,1.7-1.2h0ZM-.8-48.8c3.2-3.2,2.9-5.2-.2-8.2-20.8-20.6-41.5-41.2-62-62-3.6-3.6-5.9-4.1-9.7-.3-20.7,21-41.6,41.7-62.5,62.5-2.8,2.8-3.3,4.7-.3,7.8C-114.2-28-93.1-6.9-71.9,14.2c1.2,1.1,2.6,2,4.2,3.2,1.7-1.4,3.2-2.5,4.5-3.8C-42.5-7.2-21.7-28.1-.8-48.8Z"/>
      <path class="cls-4" d="M-67.6,31.9C-42.6,56.9-17.4,82.1,7.7,107.2c-25.1,25-50.4,50.2-75.4,75.1-24.7-25-50-50.4-74.9-75.5,24.5-24.4,49.7-49.6,75-74.8h0ZM3.7,108.9c-.5-.6-.9-1.2-1.4-1.8-.7-1-1.3-2.1-2.1-3-21.6-21.6-43.2-43.2-64.7-64.8-3.1-3.2-4.9-1.5-7.2.8-12.2,12.2-24.4,24.4-36.7,36.5-10,9.9-20.2,19.5-30.6,29.6,2,2.5,3.1,4,4.4,5.3,20.5,20.5,41.2,41,61.6,61.7,4.2,4.3,6.6,3.8,10.6-.2,16.6-17,33.5-33.8,50.4-50.4,4.9-4.8,10.4-9.1,15.7-13.6h0Z"/>
    </g>
  </g>
  <path class="cls-7" d="M47.8,75.7C30.5,60.9,14.9,44.7,1.6,26.2c-.7-1-1.2-1.5-1.6-1.5v186c8.4,0,16.7,0,25.1,0,.9,0,2.4-.5,2.5-.9.1-1-.4-2-.8-3-.2-.5-.8-.8-1.2-1.2-2.4-2.4-5.1-4.5-7.2-7.1-8.6-10.8-12.2-23.2-11.8-36.9,0-.4,0-.8,0-1,.2-.5.6-.9.9-1.3.4.3.9.5,1.1.9.6,1.2,1.1,2.4,1.7,3.7,5.3,12,15,18.5,27.5,20.8,24.9,4.6,44.6-15.4,47.5-35.6,1.9-12.9-.6-25.1-7-36.6-7.8-14.2-18.3-26.1-30.6-36.5h0Z"/>
</svg>