<?xml version="1.0" encoding="UTF-8"?>
<svg id="Layer_1" data-name="Layer 1" xmlns="http://www.w3.org/2000/svg" viewBox="0 0 377.085 208.678">
  <defs>
    <style>
      .cls-1 {
        fill: #7a1a1a;
      }

      .cls-1, .cls-2, .cls-3, .cls-4, .cls-5 {
        stroke-width: 0px;
      }

      .cls-2 {
        fill: #ec7a96;
      }

      .cls-3 {
        fill: #9da8d5;
      }

      .cls-4 {
        fill: #f798b3;
      }

      .cls-5 {
        fill: #cd6c78;
      }
    </style>
  </defs>
  <g>
    <rect class="cls-1" x="87.497" y="107.675" width="182.849" height="49.39"/>
    <path class="cls-2" d="M263.206,154.417s-16.465-97.058,38.548-130.564c55.013-33.506,26.905,16.247,26.905,16.247l-27.773,8.376,25.654.667s-9.197,22.146-11.746,27.428c-2.549,5.282-17.115,1.11-17.115,1.11l12.501,5.422-46.974,71.315Z"/>
    <path class="cls-4" d="M255.682,154.65s57.389-95.065,97.241-99.56-1.634,27.182-1.634,27.182l-14.591-5.419,8.038,12.571s-17.371,15.647-21.632,19.213c-4.261,3.566-6.369-6.988-6.369-6.988l.618,10.715-61.67,42.286Z"/>
    <path class="cls-5" d="M174.368,140.251c-76.683,0-141.57-16.038-163.233-38.129v94.875h326.467v-94.875c-21.663,22.091-86.551,38.129-163.234,38.129Z"/>
    <rect class="cls-1" x="11.135" y="171.952" width="326.467" height="13.661"/>
  </g>
  <circle class="cls-2" cx="56.811" cy="166.652" r="28.934"/>
  <circle class="cls-1" cx="56.811" cy="166.652" r="26.138"/>
  <path class="cls-3" d="M46.668,153.428c4.396.026,8.212,2.692,9.84,6.891.045.116.097.277.189.316.183.077.315.004.396-.222.512-1.425,1.312-2.67,2.36-3.765,4.088-4.276,10.198-3.821,13.58-1.353,2.602,1.899,4.044,4.434,4.234,7.667.174,2.961-.827,5.54-2.509,7.915-.813,1.148-1.817,2.097-2.882,3.002-3.992,3.394-7.967,6.808-11.949,10.214-.952.814-1.91,1.62-2.852,2.445-.199.174-.312.182-.517.005-2.902-2.495-5.812-4.981-8.72-7.468-2.459-2.104-4.947-4.174-7.359-6.33-.758-.677-1.367-1.545-1.949-2.391-1.346-1.955-2.116-4.113-2.189-6.514-.16-5.262,3.693-9.731,8.92-10.303.468-.051.938-.074,1.407-.11Z"/>
</svg>