<?xml version="1.0" encoding="UTF-8"?>
<svg id="Layer_1" data-name="Layer 1" xmlns="http://www.w3.org/2000/svg" xmlns:xlink="http://www.w3.org/1999/xlink" version="1.1" viewBox="0 0 338.6 191.8">
  <defs>
    <style>
      .cls-1 {
        clip-path: url(#clippath);
      }

      .cls-2 {
        fill: none;
      }

      .cls-2, .cls-3, .cls-4, .cls-5, .cls-6, .cls-7, .cls-8 {
        stroke-width: 0px;
      }

      .cls-3 {
        fill: #d9e477;
      }

      .cls-4 {
        fill: #faee4b;
      }

      .cls-5 {
        fill: #9bce7d;
      }

      .cls-6 {
        fill: #705aa6;
      }

      .cls-7 {
        fill: #c8cae0;
      }

      .cls-8 {
        fill: #e9d742;
      }
    </style>
    <clipPath id="clippath">
      <rect class="cls-2" x="28.8" width="281" height="141"/>
    </clipPath>
  </defs>
  <rect class="cls-7" y="0" width="338.6" height="191.8"/>
  <g class="cls-1">
    <g>
      <path class="cls-8" d="M386.7,52.4c-10.8,6.2-19.1,13.8-24.7,25.2-6.2-10.9-13.7-19.4-25.7-25,11.5-5.9,19.7-13.9,25.5-25.4,5.9,11.4,14,19.1,24.9,25.3h0Z"/>
      <path class="cls-5" d="M336.3,52.5c11.9,5.6,19.4,14.1,25.7,25,5.6-11.4,13.9-19,24.7-25.2-11-6.2-19-13.9-24.9-25.3-5.8,11.5-13.9,19.5-25.5,25.4h0ZM364.5-1.1c16.9,17,33.8,34,50.9,50.9,2.1,2.1,1.8,3.4-.1,5.3-16.9,16.8-33.7,33.6-50.5,50.5-1.7,1.7-3,2.9-5.3.5-17.3-17.5-34.8-34.9-52.2-52.3-.3-.3-.5-.8-1.1-2,13.5-13.4,26.8-26.6,40.1-39.9,4.2-4.2,8.5-8.4,12.7-12.8,2-2.1,3.4-2.6,5.7-.3h0Z"/>
      <path class="cls-5" d="M353.3,199.8c8,6.1,8.8,6.1,16.8-.1,3.6-2.8,7.2-6,10.2-9.4,6.3-7.1,8.6-15.6,6.9-25.1-1.1-6.2-5.6-11.4-10.9-12.3-5.9-.9-9.1,2.9-12,7.2-.7,1.1-1.5,2.1-2.2,3-.5-.1-.7-.1-.8-.2-1.1-1.5-2.1-2.9-3.1-4.4-5.6-7.9-14.5-7.6-19.4.8-3.2,5.4-3.9,11.2-2.5,17.3,2.4,10.2,9.1,17.2,17,23.3h0ZM361.4,123.5c18.6,18.6,37,37,55.2,55.3-18.2,18.1-36.7,36.4-55.4,55-.3-.3-1.3-.9-2.1-1.7-16.7-16.7-33.4-33.4-50.2-50.1-2-2-3.1-3.4-.5-6,17.3-17.1,34.4-34.3,51.6-51.5.4-.4,1-.7,1.4-.9h0Z"/>
      <path class="cls-8" d="M355.9,238.4c2.9,2.8,2.6,4.7,0,7.4-18.3,18.2-36.5,36.5-54.7,54.7-.7.7-1.5,1.2-2.7,2.1-3.5-3.4-7-6.6-10.4-10-15.6-15.6-31.2-31.4-46.9-47-2.2-2.2-3.2-3.8-.5-6.5,18.6-18.4,37-36.9,55.5-55.4.6-.6,1.3-1,3.6-2.9,7.4,7.9,14.5,15.8,21.9,23.4,11.3,11.5,22.7,22.9,34.2,34.2h0ZM350.9,246c3-2.9,3.1-4.7,0-7.7-16.6-16.4-33-32.9-49.5-49.4-.8-.8-1.8-1.4-3-2.4-1.2,1-2.5,1.8-3.5,2.9-16.4,16.3-32.8,32.8-49.2,49-2.7,2.7-3,4.5,0,7.3,16.5,16.3,32.9,32.6,49.1,49.1,2.8,2.8,4.5,2.7,7.3,0,16.1-16.4,32.4-32.6,48.8-48.8h0Z"/>
      <path class="cls-8" d="M359.4,106.2c2.3,2.3,3.6,1.2,5.3-.5,16.8-16.9,33.7-33.7,50.5-50.5,1.9-1.9,2.2-3.2.1-5.3-17-16.9-34-33.9-50.9-50.9-2.3-2.3-3.7-1.8-5.7.3-4.1,4.3-8.4,8.5-12.7,12.8-13.3,13.3-26.6,26.5-40.1,39.9.7,1.2.8,1.7,1.1,2,17.4,17.4,34.9,34.8,52.2,52.3h0ZM361.5-7.1c19.7,19.8,39.7,39.9,60.3,60.7-4.3,4.1-9.2,8.8-14,13.6-14.1,14.1-28.3,28.2-42.3,42.5-2.8,2.9-4.5,3.2-7.5.1-17.9-18.2-35.9-36.1-53.9-54.1-.9-.9-1.8-1.9-2.7-3,20.4-20.3,40.4-40.2,60.1-59.8Z"/>
      <path class="cls-8" d="M376.4,152.9c5.3.9,9.8,6.1,10.9,12.3,1.6,9.4-.6,17.9-6.9,25.1-3,3.4-6.6,6.6-10.2,9.4-8,6.2-8.8,6.2-16.8.1-7.9-6.1-14.6-13.1-17-23.3-1.4-6.1-.7-11.9,2.5-17.3,4.9-8.4,13.8-8.7,19.4-.8,1,1.5,2.1,2.9,3.1,4.4,0,.1.3.1.8.2.7-.9,1.5-1.9,2.2-3,2.9-4.3,6.1-8.1,12-7.2h0Z"/>
      <path class="cls-5" d="M286.1,99.9c.6-6.4,7.1-11,13.1-10.6,6.9.5,11.4,5.1,12.4,12.2.2,1.5,1.6,3.6,2.9,4.1,5.7,2,9.6,5.2,10,11.6.4,6.1-2,10.5-6.8,12.7-6,2.8-11.3,1.6-15.9-3.1-.3-.3-.8-.4-2.5,0l-1.3-.5c-.4-.3-.7-.5-1-.8-4.6,4.5-9.6,7.2-16.1,4.8-4.9-1.8-8.3-6.2-8.5-11.2-.3-5.4,2.6-10.3,7.7-12.2,3.5-1.3,5.6-2.6,6-6.9h0Z"/>
      <path class="cls-5" d="M293.5,3.8c-4.9,5.6-11,6.9-15.8,3.4-5.6-4.1-7.8-11.8-3.4-17.2,7.4-9.3,15.8-17.9,24.2-27.2,8.3,9.1,16.3,17.4,23.6,26.2,4.3,5,3,13.9-1.8,17.7-4.7,3.8-11.4,2.8-16.5-2.4-.9-.9-1.7-2-2.5-3-.6.4-1.2.8-1.8,1.2l-1.9-.7c-.8-.7-1.6-1.4-2.5-2.1-.5,1.4-.7,3.2-1.6,4.2h0Z"/>
      <path class="cls-8" d="M359,232.2c.8.8,1.8,1.4,2.1,1.7,18.7-18.6,37.2-37,55.4-55-18.2-18.3-36.6-36.7-55.2-55.3-.3.2-.9.5-1.4.9-17.2,17.2-34.4,34.4-51.6,51.5-2.6,2.6-1.6,4,.5,6,16.8,16.7,33.5,33.4,50.2,50.1h0ZM419.2,175.1c2,2,3.8,3.5.9,6.5-18.9,18.7-37.7,37.6-56.5,56.4-.5.4-1.1.8-1.5,1-20-20.2-39.9-40.2-59.4-59.8,19.6-19.6,39.7-39.7,60.1-60.1.5.4,1.8,1.5,3.1,2.8,17.8,17.8,35.5,35.5,53.3,53.3h0Z"/>
      <path class="cls-5" d="M291.4,141.3c2.4-5.4,4.5-10.2,6.6-15.1l1.3.5c2.1,4.6,4.2,9.3,6.6,14.4-1,0-1.8.2-2.6.2-3.8,0-7.5,0-11.8,0Z"/>
      <path class="cls-3" d="M351,238.3c3,3,2.9,4.8,0,7.7-16.4,16.1-32.6,32.4-48.8,48.8-2.8,2.8-4.5,2.9-7.3,0-16.3-16.5-32.6-32.9-49.1-49.1-2.9-2.8-2.6-4.7,0-7.3,16.5-16.3,32.8-32.7,49.2-49,1-1,2.2-1.9,3.5-2.9,1.2,1,2.2,1.6,3,2.4,16.5,16.5,32.9,33,49.5,49.4h0ZM292.6,257.9c1.3-1.4,2-3.2,3-4.9.8.7,1.6,1.4,2.4,2-2.5,4-5,8.1-7.6,12.3h16.1c-2.6-4.4-4.9-8.3-7.3-12.3.6-.4,1.3-.8,2-1.1.6.8,1.1,1.6,1.8,2.3,5.5,6.2,12.5,7.4,17.5,3,5.4-4.8,5.6-13.5.4-19.3-6.4-7-13-13.9-19.2-21-2.4-2.7-4-2.6-6.3,0-5.7,6.5-11.8,12.7-17.6,19.1-1.8,2-3.3,4.2-4.4,6.6-2.5,5.4-.4,12.4,4.4,15.5,4.7,3.1,10.5,2.2,14.8-2.5h0Z"/>
      <path class="cls-3" d="M351.4-14.3c2.7,2.7,2.4,4.4-.2,6.9-16.5,16.4-33,32.9-49.5,49.3-.9.9-2,1.7-3.1,2.6-1.1-.8-2.1-1.4-2.9-2.2-16.9-16.8-33.6-33.6-50.6-50.4-2.4-2.4-2-3.9.2-6.1,16.8-16.6,33.5-33.3,50.1-50.1,2.4-2.4,3.9-2.2,6.1,0,16.5,16.7,33.1,33.3,49.8,49.8h0ZM277.7,7.2c4.7,3.5,10.9,2.2,15.8-3.4.9-1.1,1.1-2.8,1.6-4.2.8.7,1.7,1.4,2.5,2.1-1,2.2-1.7,4.4-3,6.5-1.2,2.1-2.9,3.9-4.9,6.4h16.8c-2.4-4.3-4.7-8.2-7-12.2.6-.4,1.2-.8,1.8-1.2.8,1,1.6,2.1,2.5,3,5.1,5.3,11.8,6.2,16.5,2.4,4.8-3.8,6-12.6,1.8-17.7-7.4-8.7-15.3-17-23.6-26.2-8.4,9.3-16.8,17.9-24.2,27.2-4.3,5.5-2.1,13.1,3.4,17.2Z"/>
      <path class="cls-8" d="M298.6,44.7c1.2-1,2.2-1.7,3.1-2.6,16.5-16.5,32.9-33,49.5-49.3,2.5-2.5,2.9-4.3.2-6.9-16.7-16.5-33.2-33.1-49.8-49.8-2.2-2.2-3.7-2.4-6.1,0-16.6,16.8-33.3,33.5-50.1,50.1-2.2,2.2-2.6,3.7-.2,6.1,16.9,16.7,33.7,33.6,50.5,50.4.8.8,1.8,1.4,2.9,2.2ZM356.1-14.1c.9.9,1.6,2,2.5,3.2-1,1.2-1.7,2.4-2.6,3.3-18.2,18.3-36.5,36.5-54.7,54.8-2.4,2.4-3.9,2-6.1-.2-17.9-18.1-35.9-36.1-54-54-2.9-2.9-3-4.6,0-7.6,18-17.8,35.8-35.7,53.6-53.7,2.5-2.6,4.2-3,6.9-.2,18,18.2,36.2,36.3,54.3,54.4Z"/>
      <path class="cls-3" d="M298,126.3c-2.1,4.8-4.2,9.7-6.6,15.1,4.3,0,8,0,11.8,0,.8,0,1.6-.1,2.6-.2-2.3-5.1-4.4-9.7-6.6-14.4,1.7-.4,2.2-.3,2.5,0,4.6,4.7,9.9,5.9,15.9,3.1,4.8-2.2,7.2-6.7,6.8-12.8-.4-6.4-4.4-9.6-10-11.6-1.3-.5-2.7-2.6-2.9-4.1-1-7.1-5.4-11.7-12.4-12.2-6.1-.4-12.5,4.1-13.1,10.6-.4,4.4-2.5,5.7-6,6.9-5.1,1.9-8,6.8-7.7,12.2.2,5.1,3.6,9.4,8.5,11.3,6.5,2.4,11.5-.3,16.1-4.8.4.3.7.5,1,.8h0ZM296.1,61.9c1.8-1.9,3.2-1.8,5,0,17,17.1,34.1,34.1,51.1,51.2.7.7,1.2,1.5,1.9,2.4-.8,1-1.3,2.1-2.1,2.9-16.9,17-33.9,33.9-50.8,50.9-1.7,1.8-3.2,1.9-5,0-17-17.1-34.1-34.2-51.2-51.2-2.8-2.8-.8-4.3,1-6.1,13.1-13.1,26.1-26.1,39.2-39.2,3.6-3.6,7.4-7.2,10.9-10.9h0Z"/>
      <path class="cls-5" d="M306.5,14.6h-16.8c2-2.6,3.6-4.4,4.9-6.4,1.2-2,2-4.3,3-6.5l1.9.7c2.3,4,4.5,8,7,12.2h0Z"/>
      <path class="cls-5" d="M288.3,175.7c2.6,2.5,2.4,4,0,6.5-16.7,16.5-33.3,33.1-49.8,49.8-2.5,2.6-4,2.3-6.4-.1-16.5-16.7-33.1-33.2-49.7-49.9-1.6-1.6-3.4-2.9-.9-5.3,17.8-17.8,35.4-35.6,54-54.2,7.9,8,15.2,15.5,22.5,22.9,10.1,10.1,20.1,20.3,30.4,30.3h0ZM224.6,189.6c3.9,3.9,7.1,8.7,11.2,13.8,5.5-10.8,13.6-18.6,24.7-24.5-11.4-5.8-19.2-13.9-25.3-25.1-5.9,11.6-14.1,19.3-24.2,24.8,4.9,3.9,9.6,7,13.6,11Z"/>
      <path class="cls-8" d="M232.2,32.7c.9,1.3,1.7,2.7,2.9,4.8,1.4-2,2.3-3.3,3.1-4.7,2.6-4,5.9-7,11-6.4,5.2.5,8.4,4,10.2,8.6,4.1,10.3,1.8,19.9-5.1,28-4.4,5.2-10.3,9.3-15.8,13.6-1.3,1-4.1,1.4-5.4.7-10.6-5.9-19.9-13.5-22.8-25.7-1.3-5.3-.3-11.5,1-17,1.1-4.6,5-7.9,10.3-8.2,4.9-.3,8,2.6,10.5,6.4h0Z"/>
      <path class="cls-8" d="M235.2,153.8c6.1,11.2,13.9,19.3,25.3,25.1-11.1,6-19.2,13.8-24.7,24.5-4.1-5.1-7.3-9.9-11.2-13.8-3.9-3.9-8.7-7.1-13.6-11,10.1-5.5,18.3-13.3,24.2-24.8Z"/>
      <path class="cls-8" d="M296.1,61.9c-3.5,3.7-7.3,7.3-10.9,10.9-13.1,13.1-26.1,26.1-39.2,39.2-1.8,1.8-3.8,3.4-1,6.1,17.1,17,34.2,34.1,51.2,51.2,1.9,1.9,3.3,1.7,5,0,16.9-17,33.9-33.9,50.8-50.9.8-.8,1.4-1.8,2.1-2.9-.7-.9-1.2-1.8-1.9-2.4-17-17.1-34.1-34.1-51.1-51.2-1.8-1.8-3.1-1.9-5,0ZM358.1,115.5c-19.8,19.8-39.7,39.8-59.5,59.7-19.7-19.9-39.6-39.9-59.4-59.9,19.6-19.4,39.6-39.3,59.5-59,19.7,19.6,39.7,39.5,59.5,59.2Z"/>
      <path class="cls-8" d="M232-5.5c2.4-2.4,3.9-2.7,6.5-.2,18.3,18.4,36.7,36.7,55,55.1.8.8,1.4,1.8,2.2,2.8-.8,1.1-1.4,2-2.2,2.8-18.5,18.5-37,36.9-55.4,55.5-2.2,2.2-3.7,1.9-5.8-.2-18.3-18.4-36.7-36.8-55.1-55.1-2.3-2.3-2.2-3.8,0-6.1,18.3-18.1,36.5-36.4,54.7-54.7ZM235.2,107.9c1.1-.9,2.2-1.6,3.1-2.5,16.7-16.7,33.4-33.5,50.2-50.1,2.4-2.3,2.2-3.7-.1-6-16.8-16.6-33.5-33.3-50.1-50.2-2.4-2.4-3.8-2.2-6,0-16.6,16.8-33.3,33.5-50.1,50.2-2.4,2.4-2.2,3.8,0,6,16.8,16.7,33.5,33.4,50.2,50.1.8.8,1.7,1.5,2.8,2.4Z"/>
      <path class="cls-5" d="M235.2,107.9c-1.1-.9-2-1.6-2.8-2.4-16.7-16.7-33.4-33.5-50.2-50.1-2.3-2.2-2.4-3.7,0-6,16.8-16.6,33.5-33.3,50.1-50.2,2.3-2.3,3.6-2.5,6,0,16.6,16.8,33.3,33.5,50.1,50.1,2.3,2.3,2.5,3.7.1,6-16.8,16.7-33.5,33.4-50.2,50.1-.9.9-2,1.6-3.1,2.5ZM233.3,77.2c1.3.7,4.1.3,5.4-.7,5.5-4.3,11.3-8.4,15.8-13.6,6.8-8.1,9.2-17.7,5.1-28-1.8-4.5-5-8-10.2-8.5-5.1-.5-8.4,2.4-11,6.4-.9,1.3-1.8,2.6-3.1,4.7-1.3-2-2.1-3.4-2.9-4.8-2.5-3.8-5.6-6.8-10.5-6.4-5.2.3-9.2,3.6-10.3,8.2-1.3,5.5-2.3,11.7-1,17,2.9,12.3,12.3,19.8,22.8,25.7h0Z"/>
      <path class="cls-8" d="M168.2,184.9c2.9-2.9,4.6-3,7.5,0,17.6,17.9,35.5,35.6,53.2,53.4,2,2,4.3,3.6,1,6.8-18.7,18.5-37.3,37.1-55.9,55.7-.6.6-1.3,1-2.4,1.8-6.7-6.6-13.3-13.1-19.9-19.6-12.2-12.2-24.3-24.6-36.7-36.7-3.4-3.3-3.1-5.2.1-8.4,17.8-17.5,35.4-35.2,52.9-52.9ZM167.9,294.2c3.1,3.2,5.1,3.6,8.4.2,16.1-16.4,32.4-32.6,48.7-48.8,2.7-2.6,2.6-4.3,0-6.9-16.6-16.4-33-32.9-49.5-49.4-.9-.9-2-1.7-3.3-2.7-1.2,1.1-2.4,1.9-3.5,2.9-16.3,16.2-32.5,32.6-48.8,48.7-3.1,3.1-3.1,5,0,8.1,16.2,15.9,32.2,31.9,48.1,48.1h0Z"/>
      <path class="cls-8" d="M232,231.9c2.4,2.4,3.9,2.7,6.4.1,16.5-16.7,33.1-33.3,49.8-49.8,2.4-2.4,2.6-3.9,0-6.5-10.2-10-20.3-20.1-30.4-30.3-7.4-7.4-14.6-14.9-22.5-22.9-18.5,18.6-36.2,36.5-54,54.2-2.4,2.4-.6,3.8.9,5.3,16.6,16.6,33.2,33.2,49.7,49.8h0ZM235.2,119.2c19.8,19.8,39.7,39.8,60.1,60.2-.8.9-1.9,2.3-3.1,3.5-17.8,17.8-35.6,35.6-53.3,53.4-2.1,2.1-3.6,3.7-6.4.8-18.4-18.6-36.9-37.1-55.4-55.6-.7-.7-1.2-1.5-1.9-2.3,20.3-20.3,40.2-40.3,60-60h0Z"/>
      <path class="cls-5" d="M170.3-.9c-5.4,5.4-11.6,7.2-18.4,3.4-5.1-2.9-6.7-7.8-5.7-13.3,1.3-6.6,6.1-9.5,12.3-10.5,1.1-12.5,6.8-16,14.8-15.7,7.4.3,11.3,5.4,12.2,15.7,6.7.9,11.4,4.2,12.6,11,1,5.4-1.1,10-5.7,12.9-6.9,4.3-13.2,2.3-18.7-3.9-.3.4-.7.9-1,1.3h-1.4c-.4-.2-.7-.5-1.1-.8Z"/>
      <path class="cls-5" d="M167,130.4c-5.3,5.9-12.1,6.8-17.1,2.4-4.8-4.3-5.4-12.7-.9-18.1,4.1-5,8.6-9.7,13-14.5,3.1-3.4,6.4-6.7,9.9-10.4,1.6,1.5,3,2.7,4.2,4,6.1,6.6,12.5,13,18.1,20,2.2,2.7,3.6,6.8,3.8,10.4.2,4.4-1.9,8.5-6.5,10.3-4.7,1.8-9.2,1.2-13-2.3-1.6-1.4-2.9-3-4.4-4.5-.5.3-1.1.7-1.6,1h-1.4c-.7-.6-1.4-1.1-2.1-1.6-.7,1.2-1.1,2.5-2,3.4h0Z"/>
      <path class="cls-5" d="M180.1,140.9h-15.9c2.3-4.2,4.6-8.2,6.9-12.3h1.4c2.4,4,4.9,7.9,7.6,12.3Z"/>
      <path class="cls-5" d="M165,14.6c2.1-4.8,4.2-9.7,6.4-14.5h1.4c2.1,4.6,4.2,9.3,6.5,14.5h-14.2Z"/>
      <path class="cls-3" d="M176.3,294.4c-3.3,3.4-5.3,3-8.4-.2-15.9-16.2-31.9-32.2-48.1-48.1-3.1-3.1-3.2-5,0-8.1,16.4-16.1,32.6-32.4,48.8-48.7,1-1,2.2-1.9,3.5-2.9,1.3,1.1,2.4,1.8,3.3,2.7,16.5,16.5,33,33,49.5,49.4,2.6,2.6,2.7,4.3,0,6.9-16.4,16.2-32.6,32.4-48.7,48.8h0ZM146.1,245.7c.2,5.6,4.1,10.3,9.9,11.6,5.7,1.3,10.2-1.1,14.1-5.2.4.3.8.6,1.2.9-2,4.7-4.1,9.4-6.3,14.4h14.1c-2.2-4.9-4.2-9.5-6.2-14,.5-.2.9-.5,1.4-.7.7.6,1.4,1.2,2.2,1.9,4.5,3.7,10.3,4.3,15.4,1.5,4.9-2.7,6.9-7.2,6.3-12.6-.6-5.6-3.8-9.5-9.5-10.8-2.5-.6-3.4-1.7-3.6-4.4-.8-7.7-6-12.4-13.1-12.3-7,0-12.2,4.9-12.6,12.6-.2,3.4-2.4,3.5-4.5,4.2-6,2-8.9,6.3-8.7,12.9h0Z"/>
      <path class="cls-8" d="M175.6,46.6c-2.7,2.7-4.2,2.6-6.8,0-17.9-18.1-35.9-36.1-54.1-54-2.9-2.9-2.5-4.7.2-7.3,18.1-17.9,36.1-36,54.1-54,.9-.9,2-1.6,3.2-2.5,1.1.9,2.1,1.5,2.9,2.3,18.3,18.2,36.5,36.5,54.8,54.6,2.7,2.7,2.3,4.4-.2,6.9-18.1,17.9-36.1,35.9-54,54h0ZM168.4,41.7c2.8,2.8,4.4,2.9,7.2,0,16.5-16.7,33.1-33.2,49.7-49.8.8-.8,1.4-1.7,2.4-2.9-1.1-1.2-1.9-2.4-2.9-3.4-16.4-16.4-32.8-32.6-49-49.1-3.1-3.1-4.7-2.8-7.6,0-16.1,16.3-32.3,32.6-48.7,48.7-3.1,3.1-2.6,4.9.2,7.7,16.3,16.1,32.6,32.3,48.7,48.7Z"/>
      <path class="cls-3" d="M175.6,41.8c-2.8,2.8-4.4,2.7-7.2,0-16.1-16.4-32.4-32.6-48.7-48.7-2.8-2.8-3.3-4.6-.2-7.6,16.4-16.1,32.6-32.3,48.7-48.7,2.8-2.9,4.5-3.2,7.6,0,16.2,16.5,32.6,32.7,49,49.1,1,1,1.9,2.2,2.9,3.4-1,1.2-1.6,2.1-2.4,2.9-16.6,16.6-33.2,33.1-49.7,49.8h0ZM151.9,2.5c6.8,3.8,12.9,2,18.4-3.4.4.3.7.6,1.1.9-2.1,4.8-4.3,9.7-6.4,14.5h14.2c-2.3-5.2-4.4-9.9-6.5-14.6.3-.4.7-.9,1-1.3,5.4,6.2,11.7,8.2,18.7,3.9,4.6-2.8,6.7-7.4,5.7-12.9-1.3-6.8-5.9-10.1-12.6-11-.9-10.2-4.8-15.3-12.2-15.7-8-.4-13.6,3.2-14.8,15.7-6.1,1-11,3.9-12.3,10.5-1.1,5.5.6,10.4,5.7,13.3h0Z"/>
      <path class="cls-3" d="M175.2,168.6c-1.9,1.9-3.4,3.1-5.8.7-17.3-17.4-34.6-34.6-51.8-52-.4-.4-.7-1.1-1.6-2.7,7.4-7.1,15-14.3,22.4-21.6,10.2-10,20.3-20.1,30.4-30.3,2.4-2.4,3.9-2.7,6.4-.1,16.2,16.5,32.6,32.8,49.1,49.1,3.1,3.1,3.2,4.9,0,8-16.5,16.2-32.8,32.6-49.1,49h0ZM149.9,132.8c5,4.4,11.8,3.5,17.1-2.4.9-1,1.4-2.3,2-3.4.7.5,1.4,1.1,2.1,1.6-2.3,4.1-4.6,8.1-6.9,12.3h15.9c-2.7-4.4-5.1-8.3-7.6-12.2.5-.4,1.1-.7,1.6-1.1,1.4,1.5,2.8,3.1,4.4,4.5,3.8,3.5,8.3,4.1,13,2.3,4.6-1.8,6.7-5.9,6.5-10.3-.2-3.6-1.6-7.6-3.8-10.4-5.6-7-12-13.4-18.1-19.9-1.2-1.3-2.6-2.4-4.2-4-3.5,3.7-6.8,7-9.9,10.4-4.4,4.8-8.9,9.5-13,14.5-4.5,5.4-3.9,13.9.9,18.1Z"/>
      <path class="cls-5" d="M110.5,122.1c1,1.7,1.8,3.9,3.3,5.4,15.9,16.1,32,32.1,48,48,2.1,2.1,3,3.6.4,6.1-17.2,17-34.2,34.1-51.3,51.1-.6.6-1.3,1-1.7,1.3-18.6-18.6-36.9-37.1-55-55.3,18.2-18.4,36.5-36.7,56.3-56.7h0ZM88.2,187.3c4.9,5.7,11.1,10.4,16.7,15.4,2.5,2.2,5.2,2.2,7.7.1,5.3-4.5,11.2-8.6,15.6-13.8,6.5-7.8,8.9-17.1,5.1-27.1-1.8-4.7-4.9-8.5-10.3-9.1-5.3-.6-8.7,2.5-11.3,6.7-.8,1.2-1.6,2.4-2.8,4.3-1.3-1.9-2-3-2.8-4.1-2.8-4.1-6.1-7.7-11.7-6.9-5,.7-9.8,5.8-10.9,11.8-1.5,8.2-.8,16.3,4.7,22.7h0Z"/>
      <path class="cls-8" d="M94.4,152.8c5.6-.8,8.9,2.8,11.7,6.9.7,1.1,1.5,2.2,2.8,4.1,1.2-1.9,2-3.1,2.8-4.3,2.6-4.2,6-7.3,11.3-6.7,5.4.6,8.5,4.4,10.3,9.1,3.8,10,1.4,19.3-5.1,27.1-4.4,5.3-10.3,9.3-15.6,13.8-2.5,2.1-5.2,2.1-7.7-.1-5.6-5.1-11.8-9.8-16.7-15.4-5.5-6.4-6.2-14.5-4.7-22.7,1.1-5.9,5.9-11.1,10.9-11.8h0Z"/>
      <path class="cls-8" d="M108.8,77.6c-5.9-11.2-13.7-19.1-24.9-25.1,10.6-6.3,19.1-13.7,24.7-25.4,6.2,11,13.9,19.4,25.5,25.2-11.4,5.9-19.4,13.9-25.3,25.2Z"/>
      <path class="cls-8" d="M116,114.6c1,1.6,1.2,2.3,1.6,2.7,17.3,17.3,34.6,34.6,51.8,52,2.4,2.4,3.9,1.2,5.8-.7,16.3-16.4,32.6-32.8,49.1-49,3.2-3.1,3-5,0-8-16.5-16.2-32.8-32.6-49.1-49.1-2.6-2.6-4-2.3-6.4.1-10,10.2-20.2,20.3-30.4,30.3-7.4,7.3-15.1,14.5-22.4,21.6ZM172.2,175.6c-20.1-20.1-40.1-40.1-59.9-59.8,20-19.8,40.1-39.8,61.1-60.6,6.9,7.2,14.3,15.1,21.9,22.7,11.3,11.5,22.8,22.9,34.2,34.2,2.3,2.3,2.9,3.9.2,6.5-18.5,18.3-36.8,36.7-55.2,55-.8.8-1.8,1.4-2.5,2Z"/>
      <path class="cls-8" d="M112.9.4c-3.2-3.2-4.9-3.6-8.2-.2-15.8,16.2-32,32.1-48,48.1-1.2,1.3-2.4,2.6-3,3.2,18.7,18.9,37.1,37.4,54.8,55.3,18.2-18.1,36.7-36.4,55.5-55-.9-1-2-2.2-3.2-3.3-16-16-32.1-31.9-47.9-48.1h0ZM112.8,109.5c-3.1,3.1-4.8,3.1-7.9,0-17.7-18-35.7-35.9-53.6-53.7-2.1-2.1-3.4-3.7-.6-6.5C69.4,30.9,88,12.3,106.6-6.3c.6-.6,1.2-1,1.7-1.4,20.2,20.3,40.2,40.4,61.4,61.8-3.3,2.9-7.4,6-11,9.6-15.4,15.2-30.7,30.4-45.9,45.9Z"/>
      <path class="cls-8" d="M49.1,179.2c19.9-19.8,40-39.8,59.8-59.4,19.3,19.4,39.3,39.5,59.1,59.4-19.4,19.3-39.6,39.3-59.7,59.3-19.6-19.6-39.6-39.5-59.2-59.2ZM110.5,122.1c-19.8,19.9-38.1,38.3-56.3,56.7,18.1,18.2,36.5,36.7,55,55.3.4-.3,1.2-.7,1.7-1.3,17.1-17.1,34.1-34.2,51.3-51.1,2.6-2.5,1.7-4-.4-6.1-16.1-15.9-32.1-31.9-48-48-1.5-1.5-2.3-3.7-3.3-5.4Z"/>
      <path class="cls-5" d="M164.1,51.8c-18.7,18.6-37.2,36.9-55.4,55-17.7-17.9-36.1-36.4-54.8-55.3.5-.6,1.7-1.9,3-3.2C72.8,32.3,88.9,16.4,104.7.2c3.3-3.4,5.1-3,8.2.2,15.8,16.2,31.9,32.1,47.9,48.1,1.2,1.2,2.2,2.4,3.2,3.3h0ZM83.9,52.5c11.2,6,19,13.9,24.9,25.1,5.9-11.3,13.9-19.4,25.3-25.2-11.6-5.8-19.3-14.2-25.5-25.2-5.6,11.7-14.1,19.1-24.7,25.3Z"/>
      <path class="cls-5" d="M68.2-12.5c3.8,4.3,4.7,11.3,1.8,15.9-2.6,4.2-6.6,6.4-11.5,5.3-2.6-.6-5-2.3-7.3-3.8-1.4-.9-2.5-2.5-3.7-3.8-.5.4-1,.7-1.5,1.1h-1.2c-.4-.2-.9-.5-1.3-.9-1.1,1-2.3,2-3.4,3.1-5.2,5.3-11.6,6.2-16.4,2.3-4.9-4-6.2-12.3-1.9-17.6,5.5-6.9,11.7-13.1,17.7-19.7,1.8-2,3.6-3.9,6.3-6.9,1.9,2.3,3.6,4.6,5.4,6.6,5.6,6.2,11.3,12.2,16.9,18.4Z"/>
      <path class="cls-5" d="M45.4,89.3c7.5-.2,11.9,4.7,13.6,15.8,6.9,1.4,12.3,4.9,12.8,12.9.3,5.2-2.2,9.4-6.8,11.9-6.8,3.6-12.5.9-17.5-4.1-.4.2-.8.5-1.2.8h-1.2c-12,6.3-20.4,5.6-24.2-2.4-3.9-8.2.1-14.8,11.8-19.4,1.3-10.5,5.2-15.1,12.9-15.3Z"/>
      <path class="cls-5" d="M53.8,14.6h-16.5c2.6-4.2,5.1-8.3,7.6-12.3h1.2c2.6,3.9,5.1,8,7.8,12.3Z"/>
      <path class="cls-5" d="M46.2,126.4c2.1,4.7,4.2,9.5,6.6,14.7h-14.3c2.2-5,4.4-9.8,6.5-14.6,0,0,1.2-.1,1.2-.1Z"/>
      <path class="cls-3" d="M98.5-14.2c2.4,2.4,2.7,4,.1,6.5-16.5,16.4-33,32.9-49.4,49.4-1,1-2.2,1.9-3.5,3-1.3-1-2.4-1.7-3.3-2.6C25.6,25.4,8.9,8.7-7.9-7.9c-2.4-2.4-2-3.9.2-6.1C8.9-30.4,25.4-46.9,41.7-63.5c3-3.1,4.9-2.6,7.7.2,16.3,16.4,32.6,32.8,49.1,49ZM51.3,4.8c2.3,1.5,4.7,3.2,7.3,3.8,4.9,1.1,8.9-1.1,11.5-5.3,2.8-4.6,2-11.6-1.8-15.9-5.5-6.2-11.3-12.3-16.8-18.4-1.8-2-3.5-4.3-5.4-6.6-2.8,3-4.6,4.9-6.3,6.9-5.9,6.5-12.2,12.8-17.7,19.7-4.3,5.3-3,13.6,1.9,17.6,4.8,3.9,11.2,3,16.4-2.3,1.1-1.1,2.2-2,3.4-3,.4.3.9.7,1.3,1-2.5,4-5,8.1-7.6,12.3h16.5c-2.7-4.3-5.2-8.4-7.8-12.4.5-.4,1-.7,1.5-1.1,1.2,1.3,2.2,2.8,3.6,3.7Z"/>
      <path class="cls-8" d="M104.9-10.5c-19.3,19.4-39.3,39.3-59.7,59.8-5.3-5.2-10.8-10.5-16.1-15.8C15.4,19.9,1.8,6.2-11.9-7.4c-2.2-2.2-3.3-3.8-.6-6.5C6.3-32.5,25-51.2,43.8-69.9c.5-.4,1-.8,1.3-.9,20,20.2,39.9,40.2,59.8,60.3ZM49.2,41.7C65.6,25.2,82.1,8.7,98.6-7.7c2.6-2.5,2.3-4.1-.1-6.5-16.4-16.3-32.8-32.6-49.1-49-2.8-2.8-4.7-3.3-7.7-.2C25.4-46.9,8.9-30.4-7.7-14c-2.2,2.2-2.6,3.8-.2,6.1C8.9,8.7,25.6,25.4,42.4,42.1c.9.9,2,1.6,3.3,2.6,1.3-1.1,2.5-2,3.5-3Z"/>
      <path class="cls-3" d="M99.4,113.2c.7.7,1.1,1.6,1.7,2.4.4.5.8.9,1.1,1.4-4.2,3.6-8.5,6.9-12.4,10.7-13.4,13.2-26.8,26.4-39.9,39.9-3.1,3.2-5.1,3.5-8.4.2-16.1-16.4-32.5-32.5-48.7-48.8-1-1-1.9-2.2-3.4-4.2,8.2-7.9,16.2-15.6,24.2-23.4,9.7-9.6,19.4-19.2,29-28.9,1.8-1.8,3.2-3.1,5.7-.6,17,17.1,34.1,34.2,51.1,51.3ZM47.3,125.7c5.1,5,10.7,7.7,17.5,4.1,4.7-2.4,7.2-6.6,6.8-11.9-.5-7.9-5.8-11.5-12.8-12.9-1.7-11.1-6.1-16-13.6-15.8-7.7.2-11.5,4.8-12.9,15.3-11.6,4.6-15.7,11.3-11.8,19.4,3.8,8,12.2,8.7,24.2,2.5-2.2,4.8-4.3,9.6-6.5,14.6h14.3c-2.4-5.3-4.5-10-6.6-14.7.4-.3.8-.5,1.2-.8Z"/>
      <path class="cls-3" d="M98.6,239c2.2,2.2,2.6,3.7.2,6.1-16.8,16.6-33.5,33.3-50.2,50.1-2.3,2.3-3.8,2.4-6.1,0-16.8-16.9-33.6-33.7-50.5-50.4-2.3-2.3-1.8-3.7.2-5.7,16.6-16.5,33.2-33.1,49.8-49.7,1-1,2.2-1.9,3.5-2.9,1.3,1.1,2.3,1.9,3.2,2.8,16.6,16.6,33.2,33.2,49.8,49.7ZM51.1,257.5c4.9,5.3,11.5,6,16.5,1.9,4.4-3.6,5.8-12.3,2-16.9-7.5-8.9-15.5-17.3-24-26.7-8.4,9.2-16.3,17.5-23.6,26.3-4.3,5.2-2.9,13.5,2.1,17.5,5.2,4.1,11,3.2,16.3-2.5,1-1.1,2.1-2,3.2-3.1.5.4.9.7,1.4,1.1-2.4,4-4.8,8.1-7.3,12.2h16.1c-2.7-4.4-5.1-8.3-7.5-12.2l2.6-2.1c.8,1.5,1.3,3.2,2.4,4.4h0Z"/>
      <path class="cls-8" d="M-42.8,179c10.8-6,19.1-13.7,24.9-25.2,6.2,10.8,13.9,19.2,25.6,25.1-11.6,5.8-19.4,13.9-25.4,25-6.1-11-13.8-19.2-25.1-24.9Z"/>
      <path class="cls-8" d="M49.9,167.6c13.1-13.4,26.5-26.7,39.9-39.9,3.9-3.8,8.3-7.2,12.4-10.7-.4-.5-.8-.9-1.1-1.4-.6-.8-1-1.7-1.7-2.4-17-17.1-34.2-34.1-51.2-51.3-2.5-2.5-3.9-1.2-5.7.6-9.6,9.7-19.3,19.3-29,28.9-7.9,7.8-16,15.5-24.2,23.4,1.6,1.9,2.4,3.2,3.4,4.2,16.2,16.3,32.6,32.4,48.7,48.8,3.3,3.4,5.2,3,8.4-.2h0ZM105.3,115.6c-19.8,19.8-39.8,39.7-59.6,59.4-19.6-19.7-39.5-39.9-59.2-59.8,19.3-19.3,39.3-39.2,59.3-59.1,19.7,19.7,39.7,39.7,59.5,59.5Z"/>
      <path class="cls-8" d="M-7.7,239.1c-2.1,2-2.5,3.5-.2,5.7,16.9,16.7,33.7,33.5,50.5,50.4,2.3,2.4,3.8,2.2,6.1,0,16.6-16.8,33.4-33.5,50.2-50.1,2.4-2.4,2.1-3.9-.2-6.1-16.7-16.5-33.2-33.2-49.8-49.7-.9-.9-2-1.7-3.2-2.8-1.3,1.1-2.5,1.9-3.5,2.9-16.6,16.6-33.2,33.2-49.8,49.7h0ZM102.5,238.2c2.8,2.7,3.4,4.5.2,7.6-18,17.8-35.9,35.8-53.8,53.7-1,1-2.2,2-3.1,2.7-20.1-20.2-40.1-40.2-60.2-60.4,19.7-19.7,39.6-39.6,59.8-59.8,1.2,1.1,2.6,2.1,3.8,3.4,17.7,17.6,35.3,35.4,53.1,52.9h0Z"/>
      <path class="cls-8" d="M-77.9,53C-57.7,32.8-37.7,12.8-17.7-7.2,2.1,12.6,22,32.6,43.2,53.9c-2.8,2.3-6.2,4.7-9.2,7.6C17.9,77.5,1.7,93.7-14.3,109.9c-2.6,2.6-4.3,2.8-6.9.2-18.4-18.6-36.9-37-55.4-55.5-.6-.6-1-1.2-1.3-1.6ZM-70.8,49.2c-2.3,2.3-2.5,3.7-.1,6.1,16.9,16.8,33.7,33.6,50.5,50.4.8.8,1.8,1.4,2.8,2.2,1.1-.9,2-1.6,2.8-2.3C1.9,88.8,18.5,72,35.3,55.4c2.6-2.6,2.3-4-.1-6.4C18.5,32.5,1.9,15.9-14.6-.8c-2.2-2.2-3.6-2.7-6.1-.2-16.6,16.8-33.3,33.5-50.1,50.1Z"/>
      <path class="cls-5" d="M-15.2,232.5c-1.8,1.8-3.1,2-5,.1-17-17.1-34.1-34.2-51.2-51.2-2.1-2.1-1.6-3.5.2-5.4,17-16.9,33.9-33.9,50.8-50.9,2.1-2.1,3.5-1.6,5.3.2,16.8,16.9,33.7,33.7,50.5,50.5.8.8,1.4,1.8,2.2,2.8-.8,1.1-1.4,2-2.2,2.8-16.9,17-33.9,33.9-50.8,50.9ZM-42.8,179c11.3,5.7,19,13.9,25.1,24.9,6-11.1,13.8-19.2,25.4-25-11.8-5.9-19.4-14.3-25.6-25.1-5.8,11.5-14.1,19.1-24.9,25.2h0Z"/>
      <path class="cls-5" d="M-17.6,107.8c-1-.8-2-1.4-2.8-2.2-16.8-16.8-33.6-33.7-50.5-50.4-2.3-2.3-2.2-3.8.1-6.1C-54,32.5-37.3,15.8-20.7-1c2.5-2.5,3.9-2,6.1.2C1.9,15.9,18.5,32.5,35.2,49c2.4,2.4,2.7,3.9.1,6.4C18.5,72,1.9,88.8-14.8,105.5c-.8.8-1.7,1.5-2.8,2.3ZM-43.3,47.4c1.6,14.7,11.9,23.1,23.8,30,1,.6,3,.4,4.1-.3,7.9-4.5,15-9.9,19.5-18,4.8-8.6,6.2-17.6,1.1-26.6-4.6-8-13.2-8.4-18.8-1.2-1.3,1.7-2.4,3.5-4.1,5.9-1.6-2.3-2.6-4-3.9-5.5-5.8-7.5-14.7-7.4-19,1-2.2,4.3-3.3,10-2.8,14.8Z"/>
      <path class="cls-8" d="M-40.5,32.6c4.2-8.4,13.2-8.5,19-1,1.2,1.6,2.3,3.2,3.9,5.5,1.7-2.4,2.8-4.2,4.1-5.9,5.6-7.2,14.3-6.8,18.8,1.2,5.1,9,3.8,18-1.1,26.6-4.5,8.1-11.6,13.6-19.5,18-1.1.6-3.1.9-4.1.3-11.9-6.9-22.2-15.3-23.8-30-.5-4.8.6-10.4,2.8-14.8Z"/>
      <path class="cls-8" d="M-71.1,176.1c-1.9,1.9-2.3,3.3-.2,5.4,17.1,17,34.2,34.1,51.2,51.2,1.9,1.9,3.2,1.7,5-.1,16.9-17,33.8-33.9,50.8-50.9.8-.8,1.4-1.8,2.2-2.8-.8-1.1-1.4-2-2.2-2.8C18.7,159.2,1.9,142.4-14.9,125.5c-1.9-1.9-3.2-2.4-5.3-.2-16.9,17-33.8,34-50.8,50.9h0ZM-18,237.9c-19-19.2-39-39.3-59.1-59.4,19.5-19.4,39.4-39.4,59.1-59.1,19.6,19.7,39.5,39.9,59.3,59.8-19.3,19.1-39.5,39-59.4,58.7Z"/>
      <path class="cls-4" d="M-21.2,110.1c2.6,2.7,4.3,2.4,6.9-.2C1.7,93.7,17.9,77.5,34.1,61.5c2.9-2.9,6.3-5.3,9.2-7.6C22,32.6,2.1,12.6-17.7-7.2c-20,20-40,40-60.2,60.2.3.3.7,1,1.3,1.6,18.5,18.5,37,37,55.4,55.5ZM-84.5,46.6c2.9,2.9,4.7,2.3,7.3-.3,11.4-11.6,23-23.2,34.6-34.7,7.3-7.3,14.7-14.5,22.1-21.8-.7-1.2-.9-1.7-1.2-2.1-18.8-18.9-37.7-37.7-56.4-56.6-2.5-2.6-4.2-1.7-6.2.4-18.2,18.3-36.4,36.5-54.7,54.7-2.1,2.1-2.3,3.6-.1,5.8,18.3,18.2,36.6,36.4,54.8,54.7ZM484.9,110.2c2.8,2.8,4.5,2.1,6.9-.3,14.1-14.3,28.4-28.6,42.7-42.8,4.8-4.8,9.5-9.6,13.8-13.9-20.4-20.5-40.3-40.5-59.7-59.9-19.9,19.8-40,39.9-60.3,60,.2.2.6,1,1.2,1.5,18.5,18.5,37,36.9,55.4,55.5h0ZM173.5,55.2c-21,20.8-41.1,40.8-61.1,60.6,19.8,19.8,39.7,39.7,59.9,59.8.7-.6,1.7-1.2,2.5-2,18.4-18.3,36.7-36.8,55.2-55,2.6-2.6,2.1-4.2-.2-6.5-11.5-11.3-22.9-22.7-34.2-34.2-7.6-7.7-14.9-15.5-21.9-22.7ZM168.7,46.6c2.6,2.6,4.1,2.7,6.8,0,17.9-18.1,35.9-36.1,54-54,2.5-2.5,2.9-4.2.2-6.9-18.3-18.1-36.5-36.4-54.8-54.6-.8-.8-1.8-1.4-2.9-2.3-1.2.9-2.3,1.6-3.2,2.5-18,18-36,36-54.1,54-2.6,2.6-3.1,4.4-.2,7.3,18.1,17.9,36.2,35.9,54.1,54ZM165.9-209.2c1.9,1.9,4,3.8,6.2,5.8,1.4-1.2,2.4-2.1,3.3-3,17.8-17.8,35.4-35.7,53.4-53.3,3.3-3.2,3.4-5,.1-8.3-12.3-12-24.4-24.1-36.4-36.4-6.6-6.7-12.9-13.8-19.4-20.7-.4.3-.8.6-1.2,1-.7.5-1.4.8-2,1.4-18.5,18.4-36.9,37-55.5,55.3-3.1,3.1-1.8,4.9.7,7.3,17,16.9,33.9,33.9,50.9,50.8h0ZM139.5-109c10.6,10.6,21,21.3,32.1,32.5,2.1-2,3.6-3.3,5-4.7,17.4-17.4,34.7-35,52.3-52.2,3.2-3.1,3.3-4.8.2-7.9-15.7-15.4-31.1-31.1-46.7-46.6-3.4-3.4-6.8-6.6-10.2-10-1.1.8-1.6,1.2-2.1,1.7-18.6,18.6-37.2,37.2-55.9,55.7-2.7,2.6-2,4.3.3,6.5,8.4,8.3,16.8,16.7,25.1,25ZM167.1-76.9c-18.1-18.1-36.3-36.2-54.3-54.4-3.2-3.2-4.9-3-8,.1-17.7,17.9-35.5,35.7-53.3,53.5-1,1-2,2.2-2.5,2.8,20.3,20.3,40.3,40.4,60.1,60.3,19.6-19.6,39.6-39.6,60-60-.6-.7-1.3-1.5-1.9-2.2h0ZM102.8,245.7c3.2-3.1,2.5-4.8-.2-7.6-17.8-17.6-35.4-35.3-53.1-52.9-1.2-1.2-2.7-2.3-3.8-3.4-20.3,20.3-40.2,40.2-59.8,59.8,20.1,20.2,40,40.2,60.2,60.4.9-.8,2-1.7,3.1-2.7,17.9-17.9,35.7-35.9,53.8-53.6ZM103.7-261.3c2.7-2.7,1.1-4.2-.8-6.1-18-18-36.1-36-54-54.1-2.6-2.6-4.2-2.7-6.8,0-17.9,18.1-36,36.1-54,54.1-1,1-1.9,2.2-2.6,3,20.1,20.2,40.1,40.2,60.2,60.4.4-.2.8-.4,1-.6,19-18.9,38-37.9,57-56.8h0ZM104.9,109.5c3.1,3.1,4.9,3.1,7.9,0,15.2-15.4,30.5-30.7,45.9-45.9,3.6-3.6,7.7-6.7,11-9.6-21.3-21.4-41.3-41.5-61.4-61.8-.4.3-1.1.8-1.7,1.4-18.6,18.6-37.2,37.2-55.9,55.7-2.8,2.8-1.6,4.3.6,6.5,17.9,17.8,35.9,35.7,53.6,53.7h0ZM293.2-203.7c-18.4-18.3-36.8-36.7-55.1-55.1-2.2-2.2-3.6-2-5.7,0-18.3,18.4-36.7,36.8-55.1,55.1-2.4,2.4-2.2,3.9,0,6.1,5.4,5.2,10.6,10.5,15.9,15.8,13.7,13.8,27.4,27.6,41.4,41.7,1.3-.9,1.9-1.1,2.3-1.6,18.9-18.8,37.7-37.6,56.6-56.4,2.3-2.3,1.7-3.8-.3-5.7h0ZM293.5-76.8c-2.5-2.6-5.2-5.2-7.8-7.8-15.6-15.7-31.3-31.3-46.9-47-2.4-2.4-4.1-3.2-6.9-.3-18,18.2-36.2,36.3-54.3,54.4-1.9,1.9-3.5,3.3-.7,6.1,18.7,18.5,37.2,37.1,55.8,55.8,2,2,3.4,1.9,5.3,0,18.4-18.5,36.9-37,55.4-55.5.8-.8,1.4-1.8,2.3-2.8-.8-1-1.4-2-2.1-2.8ZM282.8-92.3c5.1,5.2,9.8,10.8,14.3,15.8,21.3-21.2,41.3-41.2,61.1-61-19.9-19.7-39.9-39.6-60.2-59.8-.2.2-1.1.6-1.8,1.3-18.6,18.6-37.2,37.2-55.9,55.7-2.7,2.7-1.1,4.2.8,6.1,13.9,13.9,27.9,27.7,41.6,41.7h0ZM358,109.8c3,3.1,4.7,2.8,7.5-.1,14-14.2,28.2-28.3,42.3-42.4,4.8-4.8,9.7-9.5,14-13.6-20.6-20.7-40.6-40.8-60.3-60.7-19.7,19.6-39.7,39.5-60.1,59.8.9,1,1.8,2,2.7,3,18,18,36.1,35.9,53.9,54.1h0ZM358.6-10.9c-.9-1.2-1.6-2.3-2.5-3.2-18.1-18.1-36.3-36.2-54.3-54.4-2.7-2.7-4.3-2.3-6.9.2-17.8,18-35.6,35.9-53.6,53.7-3,2.9-2.9,4.7,0,7.6,18.1,17.9,36.1,35.9,54,54,2.2,2.2,3.7,2.6,6.1.2,18.2-18.3,36.4-36.5,54.7-54.8.9-.9,1.6-2,2.6-3.3ZM548.6,47.1c2.5,2.5,4.2,1.8,6.2-.3,18.2-18.3,36.4-36.5,54.7-54.8,2.3-2.3,2.1-4-.2-6.2-18.2-18.1-36.3-36.2-54.3-54.4-2.6-2.6-4.4-2.5-6.9.1-7.7,8-15.7,15.8-23.6,23.7-11.1,11-22.2,22-33.4,33.2.6,1.1.8,1.6,1.1,2,18.8,18.9,37.7,37.7,56.5,56.6h0ZM353.3-401.9c6.8,10,8.2,10.1,16,1.7.4-.5.7-1.1,1-1.7h5c-3.5,3.8-7,7.5-10,10.8,1.5,1.5,3,3,4.4,4.4,18.7,18.8,37.2,37.4,55.6,55.9,19.7-19.7,39.6-39.7,59.7-59.8-3.1-3.6-6.4-7.4-9.7-11.2h4c10.9,11.2,7.4,10.3,17.7.4.1-.1.2-.3.3-.4h4c-3.3,3.8-6.6,7.7-10.1,11.6.9,1.1,1.6,2,2.4,2.8,18.3,18.4,36.7,36.6,55,55.1,3.2,3.2,4.7,1.2,6.8-.9,17.9-17.9,35.7-35.8,53.6-53.6,1-1,1.9-2.2,3-3.5-3.7-4-7.2-7.7-10.7-11.5h5c2.2,2.4,4.3,5,6.7,7.2.7.6,3,.6,3.7,0,2.4-2.2,4.4-4.8,6.6-7.2h5c-3.5,3.7-7,7.5-11.8,12.5.4.4.9.7,1.3,1l-1.7,1.7-.2-.2c-20.6,20.4-40.7,40.4-60.5,60,19.6,19.6,39.5,39.6,59.7,59.9.8-.7,1.7-1.5,2.6-2.3.3-.3.6-.5.9-.8,7.6-7.5,15-15.1,22.7-22.6,5-4.9,10.1-9.5,15.1-14.3v4c-12,12-24,24-36.2,35.9-2.7,2.6-1.8,4.4.4,6.6,12,11.8,23.8,23.7,35.8,35.6v4c-1.3-1-2.7-1.9-3.8-3-10.9-10.8-21.7-21.7-32.5-32.5-1.6-1.6-3.4-3.1-4.6-4.3-20.4,20.4-40.4,40.4-60,59.9,19.8,19.9,39.8,40,61.1,61.4,0,0,.2-.1.2-.2l1.6,1.5c-.2.2-.1.6-.2.9l-1.1,1.1c1.2.9,2.4,1.8,3.6,2.7l-1.8,1.8h-.1c-2.8-2.9-4.4-3-7.2-.1-17.9,18.1-35.9,36.2-54.1,54-3,2.9-2.5,4.5.2,7.2l.2.2c17.8,17.6,35.5,35.4,53.2,53.1,1.2,1.1,2.4,2.2,4,3.6,14-13.9,27.7-27.7,41.4-41.4v5c-11.9,11.9-23.7,23.8-35.8,35.6-2.7,2.6-2.7,4.2,0,6.8,12,11.8,23.9,23.7,35.8,35.6v5c-13.7-13.8-27.4-27.5-40.3-40.4-.8.8-1.5,1.5-2.3,2.3-19.8,19.7-39.2,38.9-58.2,57.7,19.6,19.6,39.6,39.5,60,59.9,13.3-13.2,27-26.8,40.7-40.4v5c-1.3,1.1-2.6,2-3.8,3.2-10.1,10.1-20.2,20.1-30.3,30.2-5,5-5.1,5.1,0,10.2,11.3,11.2,22.7,22.3,34,33.5v5c-13.1-12.9-26.1-25.8-38.4-37.9l-2.1-2.1c-20.6,20.5-40.7,40.5-60.4,60.1,19.5,19.6,39.5,39.6,60.2,60.4.8-.8,1.6-1.7,2.4-2.5l2,2h0c-2,1.9-1.9,3.4-.7,4.9l-1.8,1.7c-.4-.5-.8-1-1.2-1.4-21.3,21.2-41.4,41.3-62.7,62.6,5.5,5,11.2,10.1,16.9,15.2h-5c-4.5-4.7-9-9.5-13.4-14.1-5.4,5.2-10,9.6-14.6,14.1h-4c5.1-5.6,10.2-11.1,15.2-16.5-20.2-20.2-40.3-40.2-59.6-59.6-20,19.9-40.2,40-60.4,60.1,4.7,5.1,9.8,10.6,14.8,16h-4c-4.6-4.7-9.2-9.5-14.2-14.7-5,5.3-9.4,10-13.8,14.7h-5c5.4-5.5,10.8-11,15.7-16.1-20.5-20.6-40.4-40.6-60-60.3-1,.9-1.9,1.9-2.9,2.9-19,19-38.2,38.1-58.6,58.5,5.4,4.9,11.1,9.9,16.8,15h-5c-4.4-4.6-8.8-9.2-13-13.7-1.1.5-1.7.5-2,.8-4.4,4.3-8.7,8.6-13,12.9h-4c5.1-5.6,10.1-11.1,14.8-16.2-1.8-1.8-3.6-3.6-5.3-5.3-18.4-18.5-36.6-36.7-55-55.1-.2.1-.8.4-1.2.8-18.9,18.8-37.7,37.7-56.6,56.5-2,2-2,3.4,0,5.4,4.6,4.6,8.9,9.3,13.4,14h-4c-3.9-3.9-7.6-7.9-11.6-11.5-1-.9-3.9-1.3-4.7-.6-4.1,3.8-7.8,8-11.6,12.1h-5c5.3-5.5,10.6-11,15.6-16.2-20.4-20.3-40.5-40.4-60.2-59.9-19.8,19.7-39.8,39.7-61.3,61.1,5.5,4.9,11.1,10,16.8,15.1h-5c-4.5-4.7-9-9.5-13.6-14.3-5.2,5.2-9.9,9.7-14.4,14.3h-4c5.1-5.6,10.2-11.1,15-16.4-20.3-20.2-40.3-40.2-60.2-60-19.7,19.7-39.8,39.7-60,60,4.9,5.3,10.1,10.9,15.2,16.5h-4c-4.7-4.6-9.4-9.3-14.5-14.4-4.7,5-9.1,9.7-13.5,14.4h-5c5.4-5.5,10.8-11.1,15.5-15.9-20.6-20.6-40.5-40.6-61.7-61.9-.6.8-1.2,1.7-1.9,2.7l-1.8-1.8h0c2.4-2.3,2.4-3.9,0-6.2-6.8-6.6-13.5-13.2-20.2-19.9v-4c7.6,7.2,15.1,14.4,22.3,21.2.9.8,1.7,1.6,2.6,2.5,20.4-20.3,40.4-40.2,60.2-59.8-19.8-19.9-39.9-39.9-61.2-61.3-7.7,8.2-15.8,16.8-23.9,25.4v-5c7.2-7.8,14.4-15.6,22.1-23.9-6.8-6.5-14.4-13.8-22.1-21.1v-5c8.4,8.3,16.7,16.5,25.1,24.8,1.1-.8,1.8-1.2,2.4-1.8,18.7-18.7,37.4-37.4,56.2-56,3.1-3,1-4.5-.9-6.4C-104.1,31.6-121.2,14.4-138.4-2.8c-1.8-1.8-3.8-3.6-5.9-5.6-1.9,1.9-3.5,3.3-5,4.8-6.8,6.5-13.6,13.1-20.4,19.6v-4c6.6-6.5,13-13.2,19.7-19.6,2.7-2.5,2.7-4.3,0-6.9-6.7-6.4-13.2-13-19.8-19.6v-4c8.5,8.1,16.9,16.1,24.7,23.5,1.6-1.6,3.2-3.2,4.9-4.8,18.8-18.7,37.2-37,55.4-55.1-19.8-19.7-39.8-39.7-60.2-60.1-8.1,8-16.4,16.2-24.8,24.5v-5c7.1-7.8,14.2-15.7,20.5-22.6-6.2-6.8-13.4-14.6-20.5-22.4v-5c8,8.6,16,17.3,23.7,25.6,21.4-21.5,41.5-41.6,61.1-61.2-19.7-19.8-39.7-39.8-60-60.1-1.2,1.1-2.6,2.4-4.1,3.8-6.9,6.6-13.9,13.3-20.8,20v-4c6.6-6.5,13.1-13.1,19.8-19.6,2.6-2.5,2.8-4.4,0-6.9-6.7-6.4-13.2-13-19.9-19.5v-4c7.5,7.2,15.1,14.3,22.3,21.2.9.9,1.8,1.7,2.7,2.5,20.4-20.4,40.4-40.3,60.1-59.9-19.9-19.9-39.9-40-61.4-61.4-7.7,8.3-15.7,16.9-23.7,25.6v-5c7.2-7.8,14.3-15.5,21.8-23.6-2.8-3-6.3-6.7-9.8-10.4h5c6.7,10,8.1,10.2,16,1.7.4-.5.7-1.1,1-1.7h5c-3.5,3.8-7,7.5-10.6,11.5,1,1.2,1.7,2.3,2.6,3.2,18.2,18.2,36.5,36.4,54.6,54.7,2.6,2.7,4.1,2,6.4-.3,10-10.2,20.2-20.3,30.3-30.3,9-8.9,18-17.6,27.2-26.5-4-4.6-7.3-8.4-10.6-12.2h4c5.8,6.4,11.7,6.6,17.7.4.1-.1.2-.3.3-.4h4c-3.3,3.8-6.6,7.6-9.4,10.9,20.2,20.3,40.2,40.3,59.8,60,19.6-19.7,39.6-39.7,59.7-59.9-3.2-3.4-6.7-7.1-10.2-10.9h5c2.2,2.4,4.3,5,6.8,7.2.7.6,3,.7,3.7,0,2.4-2.2,4.4-4.8,6.6-7.2h5c-3.5,3.7-7,7.5-10.3,11,20.3,20.2,40.3,40.2,60.4,60.3,0,0,.8-.2,1.2-.7,18.9-18.9,37.9-37.9,56.8-56.9,1.9-1.9,1.5-3.3-.2-5-2.8-2.8-5.4-5.8-8-8.7h4c11,11.2,7.2,10.4,17.7.4.1-.1.2-.2.3-.4h4c-1.8,2.1-3.6,4.3-5.5,6.3-5.1,5.1-5.2,5.1-.3,10,15.2,15.2,30.4,30.4,45.5,45.6,3.4,3.4,6.8,6.7,9.9,9.7,18.6-18.6,36.9-36.8,55.3-55.3,1.8-1.8,3.5-3.5,5.3-5.3-3.3-3.5-6.8-7.2-10.3-10.9h5,0ZM356.1-260.5c3-3,1.9-4.9-.5-7.4-17.9-17.8-35.8-35.7-53.7-53.6-1-1-2.2-1.8-3.3-2.8-.9.6-1.5,1-1.9,1.4-18.7,18.7-37.4,37.5-56.2,56.1-2.9,2.9-1.3,4.4.8,6.4,15.2,15.1,30.4,30.3,45.6,45.6,3.7,3.8,7,7.9,10.6,11.9,2-1.4,2.5-1.7,2.8-2,18.6-18.6,37.2-37.2,55.9-55.7h0ZM232.4,237c2.9,2.9,4.4,1.3,6.4-.8,17.7-17.8,35.6-35.6,53.3-53.4,1.2-1.2,2.3-2.6,3.1-3.5-20.4-20.4-40.3-40.4-60.1-60.2-19.7,19.8-39.7,39.7-60,60,.6.8,1.2,1.6,1.9,2.3,18.5,18.5,37,37,55.4,55.6h0ZM231.4-269.9c3.2,3.3,5,2.8,7.9-.2,17.7-17.9,35.5-35.6,53.3-53.4,1-1,1.9-2.2,2.7-3.1-20.3-20.3-40.4-40.3-60.2-60.2-19.8,19.7-39.7,39.6-60.2,60,1.4,1.5,2.7,2.9,3.9,4.1,17.5,17.6,35.2,35,52.5,52.7h0ZM232.3,110.4c2.1,2.1,3.5,2.4,5.8.2,18.4-18.5,36.9-37,55.4-55.5.8-.8,1.4-1.8,2.2-2.8-.8-1-1.4-2-2.2-2.8-18.3-18.4-36.7-36.7-55-55.1-2.5-2.6-4.1-2.2-6.5.2-18.1,18.3-36.4,36.5-54.7,54.7-2.3,2.3-2.4,3.8,0,6.1,18.4,18.3,36.8,36.7,55.1,55.1h0ZM421.8,299.6c1,1,2.2,1.8,3.2,2.7,20.2-20.3,40-40.2,59.1-59.4-20-20.1-39.9-40.2-60-60.4.3-.2,0,0-.3.2-18.9,18.8-37.7,37.6-56.7,56.4-2.8,2.8-1.5,4.4.6,6.5,18,18,36,36,54.1,54.1h0ZM421.7-206.5c1,1,2.2,1.9,3,2.5,20.2-20.3,40.1-40.3,60.3-60.5-.5-.5-1.1-1.5-2-2.3-18.4-18.4-36.8-36.7-55-55.2-2.8-2.8-4.3-1.7-6.5.5-18,18.1-36,36.1-54.1,54.1-2.7,2.7-2.5,4.3,0,6.9,18.1,17.9,36.1,36,54.1,54h0ZM421.6,46.5c2.9,2.9,4.6,2.5,7.2-.2,9.8-10,19.7-19.9,29.6-29.7,9-8.9,18.1-17.6,27.6-26.9-2.2-2.4-3.5-3.9-4.9-5.3-17.4-17.4-34.9-34.8-52.2-52.3-3.1-3.2-4.9-3.1-8,0-17.8,18-35.7,35.9-53.7,53.7-2.5,2.5-2.7,4-.2,6.4,18.2,18,36.4,36.1,54.4,54.4h0ZM420,181.6c3-2.9,1.1-4.5-.9-6.5-17.8-17.8-35.5-35.5-53.3-53.3-1.2-1.2-2.6-2.4-3.1-2.8-20.5,20.5-40.5,40.5-60.1,60.1,19.5,19.6,39.4,39.7,59.4,59.8.4-.3,1-.6,1.5-1,18.8-18.8,37.6-37.7,56.5-56.4h0ZM551.5,175.1c19.8-19.8,39.8-39.7,59.7-59.5-19.8-19.8-39.8-39.7-59.1-59-20,19.8-40.1,39.8-59.4,59,19.5,19.7,39.3,39.8,58.8,59.5ZM610.9,242.5c-20-20.1-39.9-40-59.4-59.5-19.8,19.7-39.8,39.7-59.3,59.1,19.7,19.8,39.6,39.8,59.2,59.6,19.8-19.7,39.8-39.6,59.5-59.2h0ZM610.6-264.5c-19.4-19.4-39.2-39.3-58.9-59-19.7,19.9-39.6,40-59.3,59.9,19.4,19.5,39.3,39.5,58.6,58.9,19.9-19.9,39.9-40,59.7-59.8ZM610.5-136.8c-19.9-20.1-39.8-40.3-59-59.7-19.8,19.7-39.8,39.6-59.4,59.1,19.8,19.8,39.7,39.8,59.5,59.6,19.7-19.7,39.6-39.7,58.8-58.9h0ZM548.3-74.5c-.4-.5-.9-1.4-1.6-2.1-18.5-18.5-37-36.9-55.4-55.5-2.7-2.7-4.3-1.8-6.5.4-11.5,11.6-23,23.2-34.6,34.6-7.5,7.4-15.3,14.7-22.4,21.5,21,20.9,41.1,40.9,60.8,60.5,19.5-19.5,39.5-39.4,59.7-59.5h0ZM548-327c-19.9-19.9-39.9-40-59.5-59.6-19.9,19.8-40,39.9-59.7,59.6,19.7,19.8,39.8,39.8,59.7,59.8,19.7-19.8,39.6-39.8,59.5-59.8h0ZM547.4-200.4c-19.7-19.8-39.9-39.9-59-59.1-19.7,19.6-39.9,39.5-59.4,58.9,19.6,19.8,39.5,39.8,59.3,59.7,19.8-19.9,39.9-40,59.2-59.4ZM547.3,179.2c-19.8-19.9-39.8-40-59.5-59.8-19.6,19.6-39.6,39.6-59.4,59.3,19.9,19.9,40,39.9,59.5,59.4,20-19.9,40.1-39.8,59.4-58.9ZM484.4,115.5c-19.6-19.7-39.5-39.7-59.2-59.3-19.9,19.8-39.9,39.8-59.2,59.1,19.7,19.8,39.6,40,59.1,59.7,19.7-19.7,39.6-39.7,59.3-59.4ZM484.3-137.6c-19.6-19.8-39.5-39.8-59-59.5-19.9,19.9-40,40-59.6,59.6,19.6,19.7,39.6,39.7,59.1,59.3,19.8-19.8,39.9-39.9,59.4-59.5h0ZM421.7-74.6c-.2-.3-.4-.9-.9-1.3-18.8-18.9-37.7-37.7-56.5-56.6-2.7-2.8-4.2-1.1-6.1.7-9.9,9.9-19.7,19.8-29.6,29.7-9.2,9.1-18.4,18.2-27.5,27.1,20.6,20.5,40.7,40.5,60.4,60.1,19.9-19.8,40-39.7,60.1-59.8ZM361.6-268.1c19.8-19.7,39.9-39.7,59.8-59.5-19.6-19.7-39.6-39.6-59.3-59.4-19.9,19.9-40,40-59.6,59.6,20,20,39.9,40.1,59.1,59.4h0ZM361.5-141.2c19.9-19.8,39.9-39.9,59.8-59.7-19.6-19.6-39.6-39.6-59.3-59.3-19.9,19.9-39.9,40-59.6,59.8,19.6,19.7,39.6,39.8,59.1,59.3ZM298.6,175.2c19.8-19.9,39.8-39.9,59.5-59.7-19.8-19.7-39.8-39.6-59.5-59.2-19.9,19.7-39.9,39.6-59.5,59,19.8,19.9,39.7,40,59.4,59.9ZM355.8,245.7c2.7-2.7,2.9-4.6,0-7.4-11.5-11.3-23-22.7-34.2-34.2-7.4-7.6-14.5-15.5-21.9-23.4-2.3,1.9-3,2.3-3.6,2.9-18.5,18.5-36.9,37-55.5,55.4-2.7,2.7-1.8,4.3.5,6.5,15.7,15.6,31.3,31.3,46.9,47,3.4,3.4,6.9,6.6,10.4,10,1.2-.9,2-1.4,2.7-2.1,18.2-18.2,36.4-36.5,54.7-54.7h0ZM230,245.1c3.3-3.2,1-4.8-1-6.8-17.8-17.8-35.6-35.5-53.2-53.4-3-3-4.6-2.9-7.5,0-17.5,17.8-35.2,35.4-52.9,52.9-3.2,3.2-3.5,5.1-.1,8.4,12.4,12.1,24.5,24.5,36.7,36.7,6.6,6.5,13.2,13,19.9,19.6,1.1-.8,1.8-1.2,2.4-1.8,18.6-18.6,37.2-37.2,55.9-55.7h0ZM109.1-267.5c19.6-19.6,39.5-39.6,59-59.2-20.1-20.1-40.1-40.1-59.4-59.3-19.6,19.5-39.7,39.5-59.3,59,19.7,19.7,39.7,39.7,59.6,59.5h0ZM168,179.1c-19.8-19.9-39.8-40-59.1-59.4-19.8,19.7-39.9,39.6-59.8,59.4,19.7,19.7,39.6,39.6,59.2,59.2,20.1-20,40.2-40,59.7-59.3ZM167.6-199.9c-19.8-20-39.8-40.2-59.4-60l-59.2,59.2c19.9,19.9,39.9,39.9,59.8,59.8,19.7-19.8,39.8-39.8,58.8-59h0ZM45.7,175c19.8-19.7,39.8-39.6,59.6-59.4-19.8-19.8-39.8-39.8-59.5-59.5C25.8,76.1,5.8,96-13.5,115.3c19.7,19.9,39.7,40,59.2,59.7h0ZM45.5-78c19.9-19.8,39.9-39.7,59.8-59.4-19.9-19.7-39.9-39.6-59.6-59.1-19.7,19.6-39.7,39.6-59.2,59,19.6,19.8,39.5,39.9,59.1,59.6ZM104.9-10.5c-20-20.1-39.8-40.1-59.8-60.3-.2.2-.8.5-1.3.9C25-51.2,6.3-32.5-12.5-13.9c-2.8,2.7-1.6,4.3.6,6.5C1.8,6.2,15.4,19.9,29.1,33.5c5.4,5.3,10.8,10.6,16.1,15.8,20.4-20.5,40.3-40.4,59.7-59.8ZM42.2-74.6c0-.2-.4-.8-.8-1.2C22.5-94.7,3.7-113.5-15.1-132.4c-2-2-3.4-1.9-5.4,0-5.3,5.5-10.8,10.8-16.2,16.2-13.8,13.7-27.6,27.5-40.9,40.8C-57.1-54.7-37.2-34.6-17.6-14.9,2.1-34.5,22-54.5,42.2-74.6ZM-17.5-141.5c19.7-19.6,39.7-39.5,59.5-59.3-19.9-19.8-40-39.9-59.8-59.7-19.8,19.8-39.8,39.9-59.2,59.2,19.8,20,40,40.1,59.5,59.8ZM-17.8-267.3c19.9-19.8,40-39.9,59.8-59.6-19.8-19.8-39.8-39.7-59.8-59.7-19.7,19.7-39.8,39.8-59.7,59.6,19.9,19.9,39.9,39.9,59.7,59.7ZM41.3,179.2c-19.8-19.9-39.7-40.1-59.3-59.8-19.7,19.7-39.7,39.6-59.1,59.1,20,20.1,40,40.3,59.1,59.4,19.9-19.7,40.1-39.6,59.4-58.7ZM-20.9,241.7c-.5-.6-1.2-1.6-2-2.4-18.4-18.4-36.8-36.7-55-55.2-2.4-2.5-4-1.9-6.1.2-18.5,18.5-37,37-55.5,55.5-.6.7-1,1.6-1.5,2.3,20.2,20.1,40.1,39.9,59.9,59.6,20-20,40-40,60.2-60.1h0ZM-21.6-263.5c-19.8-19.9-39.8-40-60-60.1-.2.1-.8.5-1.3.9-18.8,18.7-37.5,37.4-56.3,56.1-2.3,2.3-1.6,3.8.4,5.7,6.5,6.4,13,12.9,19.4,19.4,12.5,12.7,24.9,25.4,37.4,38.2,20.9-20.9,40.9-40.8,60.3-60.2ZM-21.6-137.3c-19.8-19.9-39.7-40-59.3-59.7-19.9,19.8-39.9,39.7-59.7,59.4,19.9,19.9,39.9,39.8,59.8,59.7,19.9-19.9,39.8-39.9,59.3-59.4ZM-22,115.9c-19.6-19.8-39.4-39.9-58.7-59.5-19.9,19.8-39.9,39.8-59.5,59.3,19.7,19.8,39.5,39.8,58.9,59.3,20-19.9,40-39.9,59.3-59.1Z"/>
    </g>
  </g>
  <path class="cls-6" d="M191.8,41.4c-.3-1.1-.4-2.2-.6-3.3,11.7,9.6,24.6,14.7,39.5,13.8,15-.9,27.3-7.3,37-18.8,7.9-9.4,11.8-21,11.7-32.7H67c0,8.3,0,16.6,0,24.9,0,1.4,0,2.7,0,4.1.2,1.9,1.6,2.6,3.3,1.5.7-.4,1.3-1,1.8-1.6,2.5-2.6,4.7-5.5,7.5-7.8,12.2-10.2,26.5-14.5,42.3-13.9.8,0,1.5.6,2.3.9-.6.6-1.1,1.4-1.9,1.8-4.1,2.5-8.9,4.1-12.4,7.3-24.9,23.2-19.7,57.5,3.7,75.5,14.1,10.8,30,12.9,46.8,7.1,23.6-8.1,37.6-34.5,31.2-58.7h0Z"/>
</svg>