<?xml version="1.0" encoding="UTF-8"?>
<svg id="Layer_1" data-name="Layer 1" xmlns="http://www.w3.org/2000/svg" viewBox="0 0 219.661 162.915">
  <defs>
    <style>
      .cls-1 {
        fill: #7a1a1a;
      }

      .cls-1, .cls-2, .cls-3, .cls-4, .cls-5 {
        stroke-width: 0px;
      }

      .cls-2 {
        fill: #ec7a96;
      }

      .cls-3 {
        fill: #93575e;
      }

      .cls-4 {
        fill: #9da8d5;
      }

      .cls-5 {
        fill: #9f5450;
      }
    </style>
  </defs>
  <rect class="cls-4" x="17.938" y="9.266" width="182.849" height="140.815"/>
  <rect class="cls-3" x="11.456" y="34.205" width="201.117" height="7.878" transform="translate(-5.018 20.663) rotate(-10.31)"/>
  <rect class="cls-5" x="11.456" y="40.635" width="201.117" height="16.644" transform="translate(10.646 -19.369) rotate(10.373)"/>
  <circle class="cls-1" cx="85.309" cy="43.127" r="19.733"/>
  <path class="cls-2" d="M79.664,36.16c2.446.014,4.57,1.498,5.476,3.835.025.064.054.154.105.176.102.043.175.002.22-.124.285-.793.73-1.486,1.313-2.095,2.275-2.38,5.675-2.127,7.558-.753,1.448,1.057,2.25,2.468,2.356,4.267.097,1.648-.46,3.083-1.396,4.405-.453.639-1.011,1.167-1.604,1.671-2.221,1.889-4.434,3.789-6.65,5.684-.53.453-1.063.902-1.587,1.361-.111.097-.173.101-.288.003-1.615-1.389-3.234-2.772-4.853-4.156-1.368-1.171-2.753-2.323-4.096-3.523-.422-.377-.761-.86-1.085-1.331-.749-1.088-1.178-2.289-1.218-3.625-.089-2.928,2.055-5.415,4.964-5.734.26-.028.522-.041.783-.061Z"/>
</svg>