<?xml version="1.0" encoding="UTF-8"?>
<svg id="Layer_1" data-name="Layer 1" xmlns="http://www.w3.org/2000/svg" xmlns:xlink="http://www.w3.org/1999/xlink" version="1.1" viewBox="0 0 430.3 148.4">
  <defs>
    <style>
      .cls-1 {
        clip-path: url(#clippath);
      }

      .cls-2 {
        fill: none;
      }

      .cls-2, .cls-3, .cls-4, .cls-5, .cls-6, .cls-7, .cls-8 {
        stroke-width: 0px;
      }

      .cls-3 {
        fill: #f281b1;
      }

      .cls-4 {
        fill: #e1dfd1;
      }

      .cls-5 {
        fill: #f59e8e;
      }

      .cls-6 {
        fill: #b7d659;
      }

      .cls-7 {
        fill: #d260a4;
      }

      .cls-8 {
        fill: #b060a6;
      }
    </style>
    <clipPath id="clippath">
      <rect class="cls-2" width="430.3" height="148.4"/>
    </clipPath>
  </defs>
  <g class="cls-1">
    <g>
      <path class="cls-7" d="M1059.2,499.9v7.2c-18.9-18.6-37.8-37.3-55.6-54.8-1-1-2-2-3-3-29.8,29.6-58.8,58.5-87.4,86.9,28.3,28.4,57.1,57.3,87,87.3,1.2-1.2,2.3-2.4,3.5-3.6l2.9,2.9h0c-2.8,2.8-2.7,4.8-1,7.1l-2.6,2.5c-.6-.7-1.2-1.4-1.8-2.1-30.8,30.7-59.8,59.7-90.7,90.5,8,7.2,16.2,14.7,24.4,22.1h-7.2c-6.5-6.8-13-13.7-19.3-20.4-7.8,7.5-14.5,14-21.2,20.4h-5.8c7.4-8.1,14.8-16.1,22-23.9-29.2-29.2-58.3-58.2-86.3-86.2-28.9,28.8-58.1,57.8-87.3,86.9,6.8,7.4,14.1,15.3,21.4,23.2h-5.8c-6.6-6.8-13.3-13.7-20.6-21.2-7.2,7.7-13.6,14.4-19.9,21.2h-7.2c7.8-8,15.6-16,22.7-23.3-29.6-29.8-58.4-58.7-86.8-87.2-1.4,1.4-2.8,2.8-4.2,4.1-27.5,27.4-55.2,55.1-84.8,84.7,7.9,7,16.1,14.4,24.3,21.7h-7.2c-6.3-6.7-12.7-13.4-18.8-19.8-1.6.7-2.4.8-2.9,1.2-6.3,6.2-12.5,12.4-18.8,18.6h-5.8c7.3-8.1,14.7-16.1,21.4-23.5-2.6-2.6-5.1-5.1-7.7-7.7-26.6-26.7-53-53.1-79.5-79.7-.2.2-1.1.5-1.8,1.2-27.3,27.2-54.5,54.5-81.8,81.7-2.9,2.9-2.9,4.9,0,7.7,6.6,6.6,12.9,13.5,19.3,20.3h-5.8c-5.6-5.6-10.9-11.4-16.8-16.6-1.5-1.3-5.7-1.9-6.8-.8-5.9,5.5-11.3,11.6-16.9,17.4h-7.2c7.6-7.9,15.3-15.9,22.6-23.4-29.5-29.4-58.6-58.4-87-86.7-28.6,28.5-57.6,57.4-88.6,88.3,7.9,7.1,16.1,14.4,24.3,21.8h-7.2c-6.5-6.9-13-13.7-19.6-20.7-7.6,7.5-14.2,14.1-20.9,20.7h-5.8c7.4-8.1,14.8-16.1,21.8-23.7-29.3-29.2-58.4-58.2-87.1-86.8-28.5,28.5-57.5,57.5-86.8,86.7,7.1,7.7,14.6,15.8,22,23.8h-5.8c-6.8-6.7-13.6-13.5-21-20.8-6.8,7.2-13.2,14-19.5,20.8h-7.2c7.8-8,15.6-16,22.4-23-29.8-29.8-58.6-58.7-89.3-89.5-.9,1.2-1.8,2.5-2.7,3.9l-2.5-2.6h0c3.4-3.3,3.4-5.7.1-8.9-9.8-9.5-19.5-19.1-29.2-28.8v-5.8c10.9,10.4,21.9,20.8,32.3,30.7,1.3,1.2,2.5,2.4,3.7,3.6,29.5-29.4,58.5-58.2,87-86.5-28.7-28.7-57.7-57.8-88.5-88.6-11.2,11.9-22.8,24.4-34.5,36.8v-7.2c10.4-11.2,20.8-22.5,31.9-34.6-9.8-9.4-20.9-20-31.9-30.5v-7.2c12.1,12,24.2,23.9,36.4,35.9,1.6-1.2,2.7-1.7,3.5-2.6,27.1-27,54-54.2,81.3-81.1,4.4-4.4,1.4-6.5-1.3-9.3-24.8-24.8-49.7-49.7-74.5-74.5-2.6-2.6-5.4-5.1-8.5-8-2.8,2.7-5.1,4.8-7.3,7-9.8,9.5-19.6,18.9-29.5,28.4v-5.8c9.5-9.5,18.8-19.1,28.5-28.3,3.9-3.7,3.9-6.2,0-9.9-9.7-9.3-19.1-18.8-28.6-28.3v-5.8c12.2,11.7,24.5,23.3,35.8,34.1,2.4-2.3,4.7-4.7,7-7,27.2-27,53.8-53.5,80.1-79.7-28.6-28.5-57.5-57.4-87.1-86.9-11.7,11.5-23.8,23.5-35.9,35.4v-7.2c10.3-11.3,20.6-22.6,29.7-32.7-9-9.8-19.4-21.1-29.7-32.4v-7.2c11.6,12.5,23.2,25,34.3,37C-70.1,44.5-41.1,15.5-12.8-12.9c-28.5-28.6-57.4-57.6-86.7-87-1.7,1.6-3.8,3.5-5.9,5.5-10,9.6-20,19.3-30,28.9v-5.8c9.5-9.4,19-19,28.7-28.3,3.7-3.6,4-6.3,0-10-9.7-9.2-19.2-18.8-28.7-28.2v-5.8c10.9,10.4,21.8,20.7,32.3,30.7,1.3,1.2,2.6,2.5,3.9,3.7,29.5-29.4,58.4-58.3,86.9-86.6-28.8-28.8-57.7-57.8-88.8-88.8-11.1,11.9-22.7,24.5-34.3,37v-7.2c10.4-11.2,20.7-22.5,31.5-34.1-4-4.3-9.1-9.6-14.2-15h7.2c9.7,14.5,11.8,14.7,23.1,2.4.6-.7,1-1.6,1.5-2.4h7.2c-5,5.4-10.1,10.9-15.4,16.6,1.4,1.8,2.4,3.3,3.8,4.6,26.4,26.4,52.8,52.7,79,79.2,3.8,3.8,6,3,9.3-.4,14.5-14.8,29.1-29.3,43.9-43.9,13-12.8,26.1-25.5,39.4-38.4-5.8-6.6-10.5-12.1-15.3-17.7h5.8c8.3,9.3,16.9,9.5,25.6.6.2-.2.3-.4.4-.6h5.8c-4.8,5.5-9.6,11.1-13.6,15.7,29.2,29.3,58.1,58.2,86.5,86.7,28.4-28.5,57.2-57.4,86.4-86.6-4.6-4.9-9.6-10.3-14.7-15.8h7.2c3.2,3.5,6.2,7.2,9.8,10.4,1.1.9,4.3,1,5.3.1,3.5-3.2,6.4-6.9,9.5-10.5h7.2c-5.1,5.4-10.1,10.8-14.9,15.8,29.3,29.3,58.2,58.1,87.4,87.2,0,0,1.1-.3,1.8-1,27.4-27.4,54.8-54.8,82.2-82.2,2.7-2.7,2.2-4.7-.3-7.3-4-4.1-7.7-8.4-11.6-12.6h5.8c16,16.3,10.5,15,25.6.5.2-.2.3-.3.5-.5h5.8c-2.7,3-5.1,6.2-8,9.1-7.4,7.4-7.5,7.3-.4,14.4,21.9,22,43.9,44,65.9,65.9,4.9,4.9,9.9,9.6,14.4,14,26.9-26.9,53.3-53.3,80-80,2.5-2.5,5.1-5.1,7.7-7.6-4.7-5-9.8-10.4-14.9-15.8h7.2c9.8,14.5,11.9,14.7,23.1,2.4.6-.7,1-1.6,1.5-2.4h7.2c-5,5.4-10.1,10.9-14.4,15.5,2.1,2.1,4.3,4.3,6.4,6.4,27,27.2,53.8,54,80.4,80.8,28.4-28.5,57.3-57.4,86.3-86.5-4.5-5.1-9.3-10.7-14.1-16.2h5.8c15.8,16.2,10.7,14.9,25.6.6.2-.2.3-.4.5-.6h5.8c-4.8,5.5-9.6,11.1-14.5,16.8,1.3,1.5,2.3,2.9,3.4,4.1,26.5,26.5,53.1,53,79.5,79.7,4.6,4.6,6.9,1.8,9.9-1.3,25.8-25.9,51.7-51.7,77.5-77.6,1.5-1.5,2.7-3.2,4.3-5.1-5.4-5.8-10.4-11.2-15.5-16.6h7.2c3.2,3.5,6.2,7.3,9.7,10.4,1,.9,4.3.9,5.3,0,3.5-3.2,6.4-6.9,9.5-10.4h7.2c-5.1,5.4-10.2,10.8-17.1,18.1.6.5,1.3,1,1.9,1.5l-2.4,2.5-.3-.3c-29.8,29.6-58.9,58.4-87.5,86.9,28.3,28.4,57.1,57.3,86.4,86.6,1.1-1,2.4-2.1,3.7-3.3.4-.4.9-.8,1.3-1.2,10.9-10.9,21.8-21.9,32.8-32.6,7.2-7,14.6-13.8,21.9-20.7v5.8c-17.4,17.3-34.8,34.7-52.3,51.8-3.9,3.8-2.6,6.3.6,9.5,17.3,17.1,34.5,34.3,51.7,51.5v5.8c-1.9-1.4-3.9-2.7-5.5-4.3-15.7-15.6-31.3-31.3-47-47-2.4-2.3-4.9-4.5-6.7-6.2-29.5,29.4-58.5,58.4-86.8,86.7,28.6,28.7,57.5,57.8,88.3,88.8.1-.1.2-.2.3-.3l2.3,2.2c-.3.3-.2.9-.3,1.4l-1.6,1.6c1.7,1.3,3.5,2.6,5.2,3.9l-2.7,2.7-.2-.2c-4-4.1-6.4-4.1-10.4,0-25.9,26.2-52,52.3-78.2,78.2-4.3,4.2-3.6,6.6.3,10.4l.2.2c25.8,25.5,51.3,51.2,77,76.8,1.7,1.7,3.5,3.2,5.8,5.2,20.2-20.1,40-40,59.9-59.9v7.2c-17.2,17.2-34.3,34.5-51.7,51.5-3.8,3.8-3.9,6.1,0,9.9,17.4,17,34.5,34.3,51.7,51.4v7.2c-19.8-19.9-39.7-39.8-58.2-58.5-1.1,1.1-2.2,2.2-3.3,3.3-28.7,28.5-56.7,56.2-84.1,83.5,28.4,28.3,57.3,57.2,86.8,86.6,19.3-19.1,39.1-38.8,58.8-58.4v7.2c-1.8,1.5-3.8,2.9-5.5,4.6-14.6,14.5-29.2,29.1-43.8,43.7-7.3,7.3-7.3,7.3.1,14.7,16.4,16.2,32.8,32.3,49.2,48.4h0ZM991.5,265.6c3.4-3.3,3-5.7-.3-9-26.3-26.1-52.5-52.3-78.6-78.7-3.8-3.8-6.3-3.6-10,.2-11.2,11.6-22.7,22.9-34.1,34.3-16,16-32.1,31.9-48.3,48,.9,1.6,1.1,2.4,1.6,2.9,27.2,27.3,54.5,54.5,81.7,81.8,3.6,3.6,6,2.6,9-.4,26.3-26.4,52.7-52.9,79.1-79.2h0ZM907.7,530.3c28.7-28.6,57.6-57.5,86.3-86.1-28.6-28.6-57.5-57.5-85.4-85.4-28.9,28.7-58,57.6-85.9,85.4,28.2,28.5,56.9,57.6,85.1,86.1h0ZM993.1-105.6c-28-28.1-56.8-56.8-85.2-85.3-28.5,28.8-57.3,57.8-85.8,86.6,28.1,28.2,56.9,57.2,84.7,85.2,28.8-28.8,57.7-57.9,86.3-86.5h0ZM907.8,164.3c28.5-28.5,57.3-57.4,85.1-85.2-28.7-29.1-57.5-58.3-85.3-86.4-28.6,28.4-57.6,57.2-85.9,85.4,28.6,28.6,57.4,57.5,86.1,86.1h0ZM907.6,713.4c28.6-28.5,57.5-57.3,86-85.7-28.9-29-57.8-57.9-85.9-86.1-28.6,28.5-57.6,57.4-85.8,85.5,28.4,28.6,57.2,57.6,85.7,86.2h0ZM902.9,169.3c-.6-.8-1.3-2-2.3-3-26.7-26.8-53.5-53.4-80.1-80.3-3.9-3.9-6.2-2.7-9.4.6-16.6,16.8-33.2,33.5-50,50.1-10.9,10.8-22.1,21.3-32.4,31.2,30.4,30.2,59.4,59.2,87.9,87.5,28.2-28.1,57.1-57,86.3-86.1h0ZM883,373.9c6.9-6.9,13.8-13.9,20-20.2-29.5-29.6-58.3-58.6-86.4-86.7-28.8,28.7-57.9,57.6-87.2,86.9.3.3.9,1.4,1.7,2.2,26.7,26.7,53.5,53.4,80.1,80.2,4,4,6.4,3.1,10-.5,20.5-20.7,41.1-41.3,61.7-61.9h0ZM901.7-12.8c-28.5-28.6-57.7-57.8-85.4-85.5-28.5,28.3-57.7,57.2-85.9,85.2,28.4,28.6,57.2,57.6,85.7,86.3,28.7-28.8,57.7-57.9,85.6-86h0ZM815.7,621.5c28.9-28.7,58.1-57.6,85.9-85.2-28.6-28.7-57.5-57.8-86-86.4-28.4,28.4-57.3,57.2-85.9,85.8,28.8,28.8,57.9,57.8,86,85.9ZM816.5-109.4c28.5-28.6,57.3-57.6,86.1-86.5-28.7-28.8-57.7-57.8-86.1-86.2-28.8,28.7-57.8,57.7-86.4,86.2,28.5,28.6,57.5,57.6,86.4,86.5h0ZM813,262.1c-3.2-3.5-5-5.6-7-7.7-25.2-25.2-50.5-50.3-75.5-75.7-4.5-4.6-7-4.5-11.5,0-25.7,26.1-51.6,51.9-77.6,77.6-3.6,3.6-3.9,5.7-.2,9.3,26.3,26.1,52.6,52.3,78.7,78.6,4.2,4.3,6.7,3.5,10.5-.3,14.1-14.5,28.4-28.8,42.8-43,13-12.8,26.2-25.5,40-38.9h0ZM811.5-105.3c-.7-.8-1.7-2.1-2.8-3.3-26.5-26.6-53.2-53.1-79.5-79.9-4-4.1-6.2-2.4-9.3.7-26,26.1-52,52.3-78.2,78.2-3.9,3.9-3.6,6.2.1,9.9,26.2,25.9,52.2,52.1,78.3,78.1,1.5,1.5,3.2,2.7,4.4,3.7,29.2-29.3,58.1-58.2,87.2-87.4h0ZM810.2,628.4c-28.9-29-57.8-58.1-86.8-87.3.4-.2,0,0-.4.3-27.3,27.2-54.6,54.5-82,81.5-4.1,4-2.2,6.3.9,9.4,26.1,26,52.1,52.1,78.2,78.2,1.5,1.5,3.2,2.6,4.7,3.9,29.2-29.3,57.8-58.1,85.5-85.9h0ZM810.5,78.1c-28.3-28.6-57.1-57.5-85.4-86.1-28.8,28.9-57.8,57.9-86.1,86.2,28.4,28.5,57.2,57.4,85.5,85.8,28.7-28.7,57.7-57.7,86-86ZM810.6,444.1c-28.4-28.4-57.2-57.3-85.6-85.8-28.8,28.7-57.8,57.6-85.6,85.4,28.4,28.7,57.3,57.8,85.5,86.3,28.5-28.5,57.3-57.4,85.7-85.9h0ZM719.9,169.1c-.2-.4-.6-1.3-1.3-1.9-27.2-27.3-54.5-54.5-81.6-81.8-3.9-4-6.1-1.7-8.8,1.1-14.2,14.3-28.5,28.7-42.8,42.9-13.3,13.2-26.6,26.3-39.7,39.2,29.8,29.7,58.8,58.6,87.3,87,28.8-28.7,57.8-57.4,87-86.4h0ZM717.5,539.7c4.3-4.3,1.6-6.5-1.2-9.3-25.7-25.7-51.4-51.4-77.1-77.1-1.8-1.8-3.8-3.4-4.5-4-29.6,29.6-58.6,58.6-87,87,28.1,28.3,56.9,57.3,85.9,86.5.6-.4,1.4-.8,2.1-1.5,27.2-27.2,54.4-54.5,81.8-81.6h0ZM699.9,374.3c7-6.9,14.1-13.7,20.2-19.7-29.8-30-58.7-59.1-87.3-87.7-28.5,28.3-57.4,57.1-86.9,86.5,1.3,1.5,2.6,2.9,3.9,4.3,26,26,52.2,52,78,78.2,4.4,4.4,6.9,4,10.9-.2,20.2-20.6,40.7-41,61.2-61.4h0ZM632.9,72.8c28.7-28.7,57.7-57.7,86.5-86.4-28.4-28.4-57.2-57.3-85.7-85.8-28.8,28.9-57.8,57.9-86.2,86.4,28.3,28.5,57.3,57.5,85.4,85.7h0ZM719.4-196.8c-28.4-28.4-57.3-57.3-85.8-85.9-28.8,28.8-57.9,57.9-86.1,86.1,28.9,29,57.7,57.9,85.5,85.8,28.6-28.5,57.7-57.4,86.4-86.1h0ZM625.1-99.8c4.4-4.4,2.8-7.1-.8-10.7-25.9-25.8-51.8-51.7-77.6-77.5-1.5-1.5-3.2-2.7-4.8-4-1.3.9-2.1,1.4-2.8,2.1-27.1,27.1-54,54.2-81.3,81.2-4.3,4.2-1.8,6.4,1.1,9.3,22,21.9,44,43.8,65.9,65.9,5.4,5.4,10.2,11.4,15.3,17.2,2.9-2.1,3.6-2.4,4.1-2.9,26.9-26.9,53.8-53.8,80.9-80.5h0ZM628.7,261.2c-1.3-1.7-2.3-3.3-3.6-4.6-26.2-26.2-52.5-52.4-78.6-78.7-3.9-3.9-6.3-3.4-9.9.3-25.7,26-51.5,51.9-77.6,77.6-4.3,4.3-4.3,6.7,0,10.9,26.2,25.9,52.2,52,78.1,78.1,3.2,3.2,5.4,3.8,8.9.3,26.3-26.5,52.7-52.8,79.1-79.2,1.3-1.3,2.3-2.9,3.7-4.7h0ZM624.6,632.4c3.9-3.9,4.2-6.6.1-10.6-16.7-16.3-33.2-32.8-49.5-49.5-10.7-11-21-22.4-31.7-33.8-3.3,2.7-4.3,3.3-5.2,4.2-26.8,26.7-53.4,53.5-80.3,80.1-3.9,3.9-2.5,6.2.7,9.4,22.7,22.6,45.3,45.3,67.9,67.9,4.9,4.9,9.9,9.6,15,14.5,1.7-1.3,3-2.1,4-3.1,26.4-26.4,52.7-52.8,79.1-79.1h0ZM539.7,166.4c30.8-30.7,59.7-59.5,88.4-88.2-28.8-28.5-57.7-57.3-87-86.4-.3.2-1.6.9-2.6,1.9-27,26.9-53.8,53.8-80.9,80.6-3.9,3.9-1.6,6.1,1.1,8.9,20.1,20.1,40.3,40,60.2,60.3,7.4,7.5,14.2,15.6,20.7,22.9h0ZM541.8,530.5c28.7-28.7,57.5-57.6,86.1-86.3-28.6-28.5-57.5-57.3-86-85.7-28.7,28.5-57.7,57.3-86,85.4,28.6,28.9,57.4,57.9,85.9,86.6h0ZM537.6,170.1c-1.1-1.5-2-2.9-3.1-4.1-3.7-3.8-7.5-7.5-11.2-11.3-22.6-22.6-45.3-45.2-67.8-68-3.5-3.5-5.9-4.6-10-.5-26.1,26.4-52.3,52.5-78.6,78.7-2.7,2.7-5,4.8-1.1,8.8,27,26.8,53.9,53.7,80.7,80.6,2.9,2.9,4.9,2.8,7.7,0,26.6-26.8,53.4-53.5,80.1-80.2,1.2-1.2,2.1-2.5,3.3-4.1h0ZM534.4,356.7c1.1-1.1,2-2.6,3.2-4.1-1.2-1.5-2.1-2.9-3.2-4.1-26.5-26.6-53.1-53-79.5-79.7-3.7-3.7-5.9-3.2-9.3.3-26.3,26.5-52.6,52.8-79.1,79.1-3.3,3.3-3.5,5.5-.1,8.8,26.6,26.5,53.2,53,79.7,79.6,3,3,5.1,3.5,8.3.2,26.6-26.8,53.4-53.5,80.1-80.2h0ZM534.5-9.2c3.3-3.3,2.4-5.4-.4-8.3-26.6-26.5-53.2-53.1-79.7-79.7-3.1-3.2-5.2-2.9-8.3.1-26.5,26.7-53,53.2-79.7,79.7-3.5,3.4-3.2,5.7,0,8.9,7.8,7.5,15.4,15.2,23,22.9,19.8,20,39.6,40,59.8,60.3,1.8-1.2,2.7-1.6,3.4-2.3,27.3-27.2,54.5-54.4,81.9-81.6ZM533.2-190.9c1.5-1.5,2.8-3.2,3.9-4.4-29.4-29.3-58.4-58.3-87.1-87-28.6,28.5-57.5,57.3-87,86.7,2.1,2.2,3.9,4.1,5.7,6,25.4,25.4,50.9,50.7,76,76.3,4.7,4.8,7.2,4,11.5-.3,25.5-25.9,51.4-51.5,77.1-77.2h0ZM532.6,541.6c1.8-1.8,3.4-3.8,4.5-5.1-29.5-29.5-58.3-58.4-87-87.1-28.5,28.6-57.4,57.4-86.8,86.8.9,1.1,1.7,2.3,2.7,3.3,26.7,26.8,53.5,53.5,80.1,80.4,4.2,4.2,6.3,1.9,9.3-1.1,25.7-25.8,51.4-51.4,77.1-77.2h0ZM442.7,631.5c4.7-4.6,1.4-6.9-1.5-9.8-25.7-25.7-51.5-51.3-77-77.2-4.3-4.4-6.7-4.2-10.9,0-25.3,25.7-50.9,51.2-76.6,76.6-4.6,4.6-5.1,7.4-.2,12.1,17.9,17.5,35.4,35.4,53.1,53.1,9.5,9.5,19.1,18.8,28.8,28.4,1.6-1.2,2.6-1.8,3.4-2.6,26.9-26.9,53.8-53.8,80.8-80.6h0ZM442.4,448.6c3.8-3.8,3-6.1-.3-9.4-16.6-16.4-33.1-32.8-49.5-49.5-10.9-11.1-21.6-22.4-31.7-32.9-30.4,30.2-59.5,59-88.4,87.7,28.6,28.6,57.5,57.4,86.6,86.5,1-.8,2.4-1.7,3.6-2.9,26.6-26.5,53.1-53.2,79.8-79.6h0ZM442,266.4c3.7-3.6,4.2-6.1.3-10-26.5-26.2-52.8-52.7-79.2-79-1.1-1.1-2.5-2-4.1-3.3-1.7,1.3-3.3,2.3-4.6,3.6-26.1,26-52.1,52.1-78.2,78-3.8,3.8-4.5,6.4-.3,10.6,26.2,25.8,52.3,51.9,78.2,78,3.7,3.8,6,3.9,9.8,0,25.9-26.2,51.9-52.2,78.1-78.1h0ZM441.1,84.1c4.6-4.5,4.8-7,.2-11.5-22.7-22.3-45-44.9-67.5-67.4-4.9-4.9-9.9-9.6-14.8-14.4-1.5,1.2-2.3,1.7-3,2.4-26.9,26.9-53.8,53.8-80.9,80.6-3.8,3.8-2.9,6.2.4,9.4,12.2,12,24.3,24.1,36.3,36.2,15.3,15.4,30.4,30.8,46.4,47,3.1-2.9,5.2-4.8,7.3-6.8,25.2-25.2,50.2-50.6,75.7-75.5h0ZM440.9-98.6c4.8-4.7,5-7.3.2-12-17.8-17.3-35.2-34.9-52.6-52.6-9.6-9.7-18.7-19.9-28.1-29.9-.6.5-1.2.9-1.8,1.4-1,.7-2,1.2-2.8,2-26.8,26.7-53.4,53.4-80.3,80-4.5,4.5-2.5,7.1.9,10.6,24.6,24.4,49.1,49,73.6,73.5,2.8,2.8,5.8,5.5,9,8.4,2-1.8,3.4-3,4.8-4.3,25.7-25.7,51.3-51.6,77.2-77.1h0ZM354.5,169c-.9-1.1-1.8-2.2-2.8-3.2-26.2-26.2-52.6-52.3-78.6-78.7-4.6-4.6-7.1-4.3-11.5.1-25.5,25.9-51.4,51.6-77.1,77.3-1.5,1.5-2.9,3.2-3.7,4,29.3,29.4,58.3,58.4,87,87.2,28.4-28.4,57.2-57.3,86.7-86.8h0ZM339.5,369.1c5.2-5.2,11.1-9.7,15.9-13.8-30.8-30.9-59.7-60-88.8-89.4-.6.5-1.6,1.2-2.4,2-26.9,26.9-53.8,53.8-80.8,80.5-4.1,4-2.3,6.2.8,9.3,25.9,25.8,51.9,51.6,77.6,77.7,4.5,4.5,7,4.5,11.5,0,21.9-22.3,44.1-44.4,66.3-66.3h0ZM267.3,73.2c28.5-28.6,57.5-57.6,85.1-85.3-28.6-28.9-57.5-58.2-85.9-86.8-28.4,28.4-57.2,57.2-85.7,85.7,28.7,28.8,57.7,57.8,86.4,86.5h0ZM267.8-109.8c28.3-28.4,57.2-57.3,85.4-85.6-29.1-29-58.1-58-85.9-85.8-28.4,28.3-57.4,57.2-85.7,85.3,28.5,28.5,57.5,57.4,86.2,86.1h0ZM353,536.1c-28.6-28.8-57.5-57.8-85.4-85.9-28.6,28.4-57.7,57.3-86.5,86,28.4,28.4,57.3,57.3,85.7,85.6,29.1-28.9,58.2-57.8,86.3-85.7h0ZM260-100.8c3.9-3.9,1.6-6.1-1.1-8.8-26.1-26-52.2-52-78.2-78.2-3.8-3.8-6.1-3.9-9.9,0-25.9,26.2-52,52.2-78,78.3-1.5,1.5-2.8,3.2-3.8,4.4,29.1,29.2,58,58.2,87.1,87.3.6-.3,1.1-.5,1.5-.8,27.5-27.4,54.9-54.8,82.5-82.1h0ZM258.7,632.5c4.6-4.5,3.6-7-.4-10.9-25.7-25.4-51.2-51.1-76.8-76.6-1.8-1.8-3.8-3.4-5.6-4.9-29.3,29.3-58.1,58.1-86.6,86.5,29.1,29.2,57.9,58.1,87,87.4,1.3-1.1,2.9-2.4,4.5-3.9,25.9-25.9,51.7-51.9,77.8-77.6h0ZM175.8,164.3c28.8-28.6,57.7-57.4,86.4-86-28.8-28.5-57.8-57.2-86.2-85.5-28.4,28.3-57.5,57.2-85.7,85.3,28.4,28.7,57.2,57.7,85.4,86.2h0ZM261.7,261.9c-28.9-29.1-57.6-58.1-86.5-87.2-.4.2-1.2.7-1.9,1.3-27.1,27-54.2,54.1-81.3,81-4,3.9-2.3,6.2.8,9.4,19.8,19.7,39.5,39.5,59.2,59.2,7.8,7.7,15.7,15.4,23.3,22.9,29.5-29.6,58.4-58.5,86.3-86.5h0ZM262.3,444.3c-28.7-28.7-57.6-57.5-86.1-86.1-28.9,28.9-57.8,57.7-85.8,85.5,28.5,28.8,57.4,57.9,85.7,86.4,28.6-28.5,57.5-57.3,86.2-85.9h0ZM171,169.1c-.1-.2-.6-1.1-1.2-1.8-27.2-27.3-54.5-54.5-81.6-81.8-2.9-2.9-4.9-2.8-7.8.1-7.7,7.9-15.6,15.7-23.5,23.5-19.9,19.9-39.8,39.7-59.1,59,29.6,29.8,58.5,59,86.7,87.5,28.4-28.4,57.3-57.3,86.5-86.5h0ZM159.3,365.9c4.2-4.2,9.2-7.6,13.2-11-30.7-30.8-59.5-59.7-88.1-88.3-28.9,28.9-57.9,57.9-87,87,.4.5,1.1,1.5,1.9,2.3,26.7,26.8,53.5,53.4,80.1,80.3,3.8,3.8,6.3,3.5,10-.2,23.2-23.5,46.5-46.8,69.9-70.1h0ZM170.7-195.9c-28.7-28.6-57.6-57.4-86.5-86.3-28.5,28.5-57.6,57.5-86.3,86.2,28.7,28.7,57.7,57.8,86.4,86.4,28.8-28.7,57.8-57.7,86.4-86.3h0ZM84.7,72.4c28.4-28.3,57.4-57.1,86.1-85.7-28.7-28.7-57.8-57.7-86.6-86.4C55.6-71,26.6-42-1.3-14.1,27.4,14.8,56.5,44,84.7,72.4ZM83.9,621.2c28.8-28.4,57.9-57.3,85.9-84.9-28.6-28.8-57.5-57.9-85.8-86.5-28.5,28.4-57.4,57.3-85.5,85.4,29,29.1,57.9,58.2,85.4,85.9h0ZM80.3,262.2c-1-1.8-1.3-2.5-1.8-3-27.2-27.3-54.5-54.5-81.6-81.9-3.7-3.7-6-2.4-9,.5-26.4,26.4-52.7,52.8-79.2,79.1-3.1,3.1-3.3,5.2-.2,8.3,26.5,26.3,52.9,52.6,79.2,79.2,4.2,4.3,6.8,3.3,10.6-.5,16.5-16.8,33.3-33.5,50-50.2,10.6-10.5,21.2-21,32-31.6h0ZM79.7,626.6c-.8-.9-1.7-2.3-2.8-3.5-26.6-26.6-53.2-53.1-79.6-79.8-3.5-3.6-5.8-2.8-8.9.3-26.7,26.8-53.5,53.5-80.2,80.3-.9,1-1.5,2.3-2.2,3.4,29.1,29,58,57.7,86.7,86.2,29-29,57.8-57.8,87-87h0ZM-8.5-17c30.2-30.2,59.1-59,87.2-87.1-28.7-28.8-57.6-57.8-86.7-87-.3.2-1.2.7-1.8,1.3-27.1,27-54.2,54.1-81.4,81.1-3.4,3.4-2.3,5.5.6,8.3,9.4,9.3,18.8,18.7,28.1,28.1C-44.5-53.8-26.5-35.3-8.5-17ZM78.2,444.7c-28.3-28.7-57-57.8-85-86-28.8,28.7-57.8,57.6-86,85.7,28.4,28.6,57.2,57.6,85.2,85.8,28.9-28.8,57.9-57.7,85.8-85.5h0ZM-7.1,164.4c28.7-28.8,57.6-57.7,85.8-85.9C50.1,49.7,21.2,20.7-7.1-7.9c-28.8,28.6-57.7,57.4-86.4,85.9,28.8,28.7,57.7,57.6,86.5,86.4Z"/>
      <path class="cls-8" d="M534.5,166c1.1,1.2,2,2.6,3.1,4.1-1.3,1.6-2.2,2.9-3.3,4.1-26.7,26.7-53.4,53.4-80.1,80.2-2.8,2.8-4.8,3-7.7,0-26.8-27-53.7-53.9-80.7-80.6-4-3.9-1.7-6.1,1.1-8.8,26.2-26.2,52.5-52.3,78.6-78.7,4.1-4.1,6.5-3,10,.5,22.5,22.8,45.2,45.3,67.8,68,3.7,3.7,7.5,7.4,11.2,11.3h0ZM527.5,174c3.2-3.2,3.1-5.1,0-8.2-24.4-24.3-48.8-48.6-73.1-73.1-3.1-3.1-5.1-3.1-8.2,0-24.1,24.3-48.3,48.5-72.6,72.5-3.6,3.6-3.4,5.8.1,9.3,24.3,24.1,48.4,48.3,72.6,72.4,1.1,1.1,2.5,2.1,4.1,3.3,1.7-1.4,3.2-2.6,4.5-3.9,24.2-24.2,48.3-48.4,72.6-72.5h0Z"/>
      <path class="cls-8" d="M534.1-17.5c2.9,2.8,3.8,5,.4,8.3-27.4,27.1-54.6,54.4-81.9,81.6-.7.7-1.5,1.1-3.4,2.3-20.2-20.4-40-40.4-59.8-60.3-7.6-7.7-15.2-15.4-23-22.9-3.3-3.2-3.5-5.4,0-8.9,26.7-26.5,53.2-53,79.7-79.7,3-3.1,5.1-3.3,8.3-.1,26.5,26.7,53.1,53.2,79.7,79.7ZM527.5-9.3c3.9-3.8,2.1-5.8-.8-8.7-23.4-23.3-46.7-46.6-70-69.9-2-2-4.1-3.8-5.9-5.5-1.2.4-1.8.5-2.1.8-25.4,25.3-50.8,50.7-76.2,76-2.8,2.8-2.1,4.8.4,7.2,5.7,5.5,11.3,11.2,16.9,16.8,19.8,20,39.6,39.9,59.8,60.3,1.8-1.3,2.7-1.8,3.3-2.5,24.8-24.8,49.6-49.7,74.6-74.5h0Z"/>
      <path class="cls-5" d="M526.7-18c2.9,2.9,4.7,4.9.8,8.7-25,24.7-49.8,49.6-74.6,74.5-.7.7-1.5,1.1-3.3,2.5-20.2-20.3-40-40.3-59.8-60.3-5.6-5.6-11.2-11.3-16.9-16.8-2.5-2.4-3.2-4.4-.4-7.2,25.5-25.3,50.8-50.6,76.2-76,.3-.3.9-.3,2.1-.8,1.8,1.6,3.9,3.5,5.9,5.5,23.3,23.3,46.6,46.7,70,69.9h0ZM484.8-9.4c4.8-12.2,5.2-24.5-3.6-35.5-6-7.5-16.1-8-22.8-1.1-2.8,2.9-5,6.4-8.2,10.5-2.3-3.1-4-5.6-5.9-8-8.2-10.1-19.8-9.6-26.9,1.2-5.6,8.4-6,17.8-3.6,27.1,4.7,18.1,17.8,29.2,33.2,38.1,1.7,1,5,.9,6.7-.1,13.4-7.6,25.2-17.3,31-32h0Z"/>
      <path class="cls-5" d="M527.5,165.8c3.1,3,3.3,5,0,8.2-24.3,24.1-48.4,48.3-72.6,72.5-1.3,1.3-2.8,2.4-4.5,3.9-1.5-1.2-2.9-2.1-4.1-3.3-24.2-24.2-48.3-48.4-72.6-72.4-3.5-3.5-3.8-5.8-.1-9.3,24.3-24.1,48.5-48.2,72.6-72.5,3.1-3.1,5.1-3.2,8.2,0,24.3,24.5,48.6,48.8,73.1,73.1h0ZM450.2,206.4c8.6-16.3,20.1-27.8,36.7-36.7-16.9-8.4-28-20.3-36.8-36.1-8.6,16.4-20.1,27.6-36.1,36,15.9,9,27.8,20.1,36.1,36.7h0Z"/>
      <path class="cls-8" d="M481.3-44.9c8.8,11,8.4,23.3,3.6,35.5-5.9,14.8-17.6,24.4-31,32-1.8,1-5,1.1-6.7.1-15.4-8.8-28.5-20-33.2-38.1-2.4-9.3-2.1-18.6,3.6-27.1,7.2-10.7,18.8-11.3,26.9-1.2,1.9,2.4,3.6,4.9,5.9,8,3.2-4.1,5.4-7.6,8.2-10.5,6.7-6.9,16.8-6.4,22.8,1.1h0Z"/>
      <path class="cls-8" d="M486.9,169.8c-16.6,8.8-28.1,20.3-36.7,36.6-8.3-16.6-20.2-27.7-36.1-36.7,16-8.4,27.5-19.6,36.1-36,8.7,15.8,19.8,27.7,36.8,36.1h0Z"/>
      <path class="cls-8" d="M441.3,72.7c4.6,4.5,4.4,7-.2,11.5-25.4,25-50.5,50.3-75.7,75.5-2,2-4.2,3.9-7.3,6.8-16-16.2-31.1-31.6-46.4-47-12-12.1-24.1-24.2-36.3-36.2-3.3-3.2-4.2-5.6-.4-9.4,27.1-26.7,53.9-53.7,80.9-80.6.7-.7,1.5-1.2,3-2.4,4.9,4.8,10,9.5,14.8,14.4,22.5,22.5,44.9,45.1,67.5,67.4h0ZM435.8,82.6c1.2-1.2,2-2.6,3.3-4.2-1.3-1.7-2.3-3.3-3.6-4.6-24-24-48-48-72-72.1-3.4-3.4-5.7-4-9.4-.2-23.9,24.1-47.9,48.1-72,72-3.5,3.5-3.7,5.8,0,9.4,24.3,24,48.5,48.2,72.5,72.5,3,3,5,3.5,8.2.2,24.3-24.4,48.7-48.7,73-73.1h0Z"/>
      <path class="cls-3" d="M439.1,78.4c-1.3,1.6-2.2,3-3.3,4.2-24.3,24.4-48.8,48.6-73,73.1-3.2,3.3-5.2,2.8-8.2-.2-24.1-24.3-48.2-48.5-72.5-72.5-3.6-3.6-3.5-5.9,0-9.4,24.1-23.9,48.1-47.9,72-72,3.7-3.7,6.1-3.2,9.4.2,23.9,24.1,48,48.1,72,72.1,1.3,1.3,2.3,2.9,3.6,4.6h0ZM390.5,103.3c7.5-6.3,8.4-17.7,1.9-26-3-3.8-6.2-7.3-9.5-10.9-8-8.5-16-16.9-24.3-25.6-9.7,10.5-18.8,20.1-27.7,29.9-3,3.4-6.1,6.9-8.1,10.9-4.1,8.1-1.2,18.4,5.9,23.1,7.1,4.8,14.9,3.4,21.9-3.8,1.6-1.6,3.3-3.2,4.9-4.7.7.4,1.3.9,2,1.3-3.5,6-7,11.9-10.5,17.9h24.5c-2.6-3.4-5.1-6.1-7-9.2-1.8-2.9-3-6.3-4.5-9.5,1.1-.8,2.1-1.6,3.2-2.3,1,1.9,1.7,4.1,3.1,5.7,7.7,8.3,16.9,9.5,24.2,3.3h0Z"/>
      <path class="cls-5" d="M392.4,77.2c6.5,8.4,5.6,19.7-1.9,26-7.3,6.2-16.4,5-24.2-3.3-1.4-1.5-2.1-3.8-3.1-5.7-1.1.8-2.1,1.6-3.2,2.3l-2.5.7c-.7-.4-1.3-.9-2-1.3-1.6,1.6-3.4,3.1-4.9,4.7-7,7.2-14.9,8.6-21.9,3.8-7.1-4.8-10.1-15.1-5.9-23.1,2-4,5.1-7.5,8.1-10.9,8.9-9.8,17.9-19.4,27.7-29.9,8.3,8.7,16.3,17.1,24.3,25.6,3.3,3.5,6.6,7.1,9.5,10.9h0Z"/>
      <path class="cls-5" d="M371.6,115.3h-24.5c3.5-6,7-11.9,10.5-17.9l2.5-.7c1.5,3.2,2.6,6.5,4.5,9.5,1.9,3.1,4.4,5.8,7,9.2h0Z"/>
      <path class="cls-8" d="M351.7,165.8c1,1,1.9,2.1,2.8,3.2-29.5,29.5-58.4,58.4-86.7,86.8-28.7-28.8-57.7-57.9-87-87.2.8-.9,2.2-2.5,3.7-4,25.7-25.8,51.5-51.4,77.1-77.3,4.4-4.4,7-4.8,11.5-.1,26,26.4,52.4,52.5,78.6,78.7h0ZM333.7,184.6c4.7-4.7,9.9-9,14.4-13-27.9-27.9-54.5-54.6-80.6-80.7-26.1,26-52.8,52.6-79.9,79.7.2.4.6,1.1,1,1.5,24.8,24.9,49.8,49.7,74.5,74.7,3.5,3.5,5.6,2.8,8.8-.4,20.5-20.7,41.1-41.3,61.8-61.9h0Z"/>
      <path class="cls-5" d="M343.6-18.1c3.6,3.5,4.6,5.8.4,9.8-24.7,24.3-49.2,49-73.7,73.5-.7.7-1.4,1.2-2.4,1.9-26.9-27-53.3-53.6-79.4-79.9,26.1-25.9,53-52.6,80.2-79.7.5.5,2.2,1.8,3.7,3.3,23.7,23.7,47.3,47.4,71.1,71h0ZM267.2,23.4c8.6-16.3,20.5-27.8,36.5-36.7-16.5-8.2-27.6-20.3-36.7-36.1-8.1,16.4-20,27.7-35.9,36.4,16,8.7,27.8,20,36.1,36.5h0Z"/>
      <path class="cls-5" d="M348,171.6c-4.5,4-9.7,8.3-14.4,13-20.7,20.5-41.3,41.1-61.8,61.9-3.2,3.2-5.3,3.9-8.8.4-24.7-25-49.7-49.8-74.5-74.7-.5-.5-.8-1.2-1-1.5,27.1-27,53.8-53.7,79.9-79.7,26.1,26.1,52.7,52.7,80.6,80.7h0ZM293.6,187c9.6-12,14.9-25.4,9.4-40.9-2.3-6.6-6.3-12-13.7-13.6-8-1.7-13.3,2.7-17.5,8.7-1.3,1.9-2.6,3.9-4.4,6.5-2.6-3.6-4.6-6.9-7-9.7-7.1-8.2-18.5-7.9-24.7.9-2.5,3.6-4.5,8.1-5.2,12.4-3.5,20.7,7,35.3,22.4,46.8,15.8,11.9,12.9,11.5,28.1.6,4.6-3.3,9-7.3,12.6-11.8h0Z"/>
      <path class="cls-8" d="M352.4-12.1c-27.6,27.7-56.6,56.7-85.1,85.3-28.7-28.7-57.7-57.7-86.4-86.5l85.7-85.7c28.3,28.7,57.3,57.9,85.9,86.8h0ZM344-8.3c4.1-4.1,3.1-6.3-.4-9.8-23.8-23.6-47.4-47.3-71.1-71-1.5-1.5-3.1-2.8-3.7-3.3-27.3,27.1-54.1,53.7-80.2,79.7,26.1,26.3,52.5,52.8,79.4,79.9.9-.8,1.7-1.3,2.4-1.9,24.5-24.5,49-49.1,73.7-73.5h0Z"/>
      <path class="cls-8" d="M303,146.1c5.5,15.5.3,28.9-9.4,40.9-3.6,4.4-8,8.4-12.6,11.8-15.2,10.9-12.3,11.3-28.1-.6-15.3-11.5-25.8-26.2-22.4-46.8.7-4.3,2.6-8.8,5.2-12.4,6.2-8.8,17.6-9.1,24.7-.9,2.4,2.8,4.4,6.1,7,9.7,1.8-2.6,3-4.6,4.4-6.5,4.3-6.1,9.5-10.4,17.5-8.7,7.4,1.6,11.3,7,13.7,13.6h0Z"/>
      <path class="cls-8" d="M303.7-13.3c-16.1,9-27.9,20.5-36.5,36.7-8.2-16.5-20.1-27.8-36.1-36.5,16-8.7,27.8-19.9,35.9-36.4,9.1,15.9,20.1,27.9,36.7,36.1h0Z"/>
      <path class="cls-3" d="M252.3,73.3c4.2,4.2,3.7,6.6-.2,10.4-24,23.7-47.8,47.6-71.6,71.4-1.3,1.3-2.8,2.4-4.4,3.7-1.7-1.4-3.1-2.3-4.2-3.4-24.2-24.2-48.3-48.4-72.7-72.4-3.8-3.8-3.1-6.1.2-9.4C123.4,49.7,147.4,25.7,171.4,1.6c3.7-3.7,6-3.3,9.4.2,23.7,24,47.5,47.8,71.5,71.5h0ZM204.7,98.4c6.2-3.7,10.1-11.3,8.9-18.4-1.3-7.7-5.3-13.8-13.3-15.2-5.3-.9-5.5-3.9-6-8-1.3-10.7-8.5-16.4-19.5-16-9.6.4-16.5,6.9-17.2,16.9-.3,3.9-1.2,6.1-5.5,6.9-7.9,1.5-12.4,6.8-13.6,14.8-1.2,7.9,1.9,14.7,8.3,18.5,6.7,4,15.6,3.7,21.8-1,1.6-1.2,3.1-2.6,4.6-3.8.6.4,1.3.8,1.9,1.2-3.3,7.1-6.5,14.2-9.7,21.2h21c-3.2-7.2-6.4-14.3-9.6-21.4.6-.4,1.2-.8,1.7-1.2,1.7,1.5,3.4,3,5.2,4.4,5.7,4.4,14.8,4.9,21.1,1.2h0Z"/>
      <path class="cls-5" d="M213.6,80c1.2,7.1-2.6,14.7-8.9,18.4-6.3,3.7-15.4,3.2-21.1-1.2-1.8-1.4-3.4-2.9-5.2-4.4-.6.4-1.2.8-1.7,1.2l-1.6.3c-.6-.4-1.3-.8-1.9-1.2-1.5,1.3-3,2.7-4.6,3.8-6.2,4.6-15.1,5-21.8,1-6.5-3.9-9.5-10.6-8.3-18.5,1.2-8,5.7-13.2,13.6-14.8,4.3-.8,5.2-3,5.5-6.9.7-10.1,7.6-16.5,17.2-16.9,10.9-.4,18.1,5.3,19.5,16,.5,4.1.7,7.1,6,8,8,1.4,12,7.5,13.3,15.2h0Z"/>
      <path class="cls-8" d="M262.2,78.3c-28.7,28.6-57.7,57.4-86.4,86-28.3-28.5-57-57.5-85.4-86.2,28.2-28.1,57.2-57,85.7-85.3,28.5,28.2,57.5,57,86.2,85.5h0ZM252.1,83.7c3.9-3.9,4.4-6.3.2-10.4-24-23.6-47.8-47.5-71.5-71.5-3.5-3.5-5.8-3.9-9.4-.2-23.9,24.1-47.9,48.1-72,72-3.3,3.3-4,5.6-.2,9.4,24.4,24,48.5,48.2,72.7,72.4,1.2,1.1,2.5,2.1,4.2,3.4,1.6-1.3,3.1-2.4,4.4-3.7,23.9-23.8,47.6-47.7,71.7-71.4h0Z"/>
      <path class="cls-5" d="M186.3,115.4h-21c3.2-7,6.5-14.1,9.7-21.2l1.6-.3c3.2,7.1,6.4,14.2,9.6,21.4h0Z"/>
      <path class="cls-8" d="M169.8,167.3c.7.7,1.1,1.5,1.2,1.8-29.1,29.1-58,58-86.5,86.5-28.3-28.5-57.2-57.6-86.7-87.5,19.3-19.2,39.2-39.1,59.1-59,7.8-7.8,15.8-15.5,23.5-23.5,2.8-2.9,4.8-3,7.8-.1,27.2,27.3,54.4,54.5,81.6,81.8h0ZM164.6,170.2c-.9-1.3-1.5-2.6-2.5-3.5-24.8-24.9-49.7-49.8-74.7-74.4-1.1-1.1-5.1-1-6.3,0-24.9,24.5-49.5,49.2-74.2,73.8-2.7,2.7-3.1,4.8,0,7.7,24.4,24.3,48.8,48.6,73.1,73,3.3,3.3,5.5,3.4,8.8,0,24.1-24.3,48.3-48.4,72.5-72.6,1.2-1.2,2.1-2.5,3.4-4.1h0Z"/>
      <path class="cls-5" d="M162.1,166.6c1,1,1.6,2.3,2.5,3.5-1.3,1.5-2.2,2.9-3.4,4.1-24.2,24.2-48.4,48.3-72.5,72.6-3.4,3.4-5.5,3.3-8.8,0-24.3-24.4-48.6-48.8-73.1-73-3-3-2.7-5,0-7.7,24.7-24.6,49.4-49.3,74.2-73.8,1.1-1.1,5.2-1.1,6.3,0,25,24.7,49.9,49.5,74.7,74.4ZM84.4,206c8.5-16,20.4-27.2,36-36.2-16.1-8.7-27.7-20-36.2-36.5-8.1,17-20.2,27.8-35.9,36.8,16.3,8.7,27.3,20.4,36.2,36h0Z"/>
      <path class="cls-5" d="M164.8-13.2c-1.4,1.7-2.3,3-3.5,4.2-24,24-48,48-71.9,72.1-3.6,3.6-5.8,4.4-9.8.2C56,39.3,32.1,15.5,8.1-8.2c-3.7-3.7-4.2-6-.2-9.9,24.2-23.8,48.1-47.8,72-71.9,3.7-3.8,5.9-3.2,9.3.3,23.7,23.9,47.6,47.7,71.4,71.5,1.5,1.5,2.7,3.2,4.3,5h0ZM111.5,2.7c9.3-10.4,12.8-23.1,9.3-37-2-7.9-6.1-14.4-14.7-16.1-8.6-1.7-14.1,3-18.1,10.1-.8,1.4-1.9,2.7-3.7,5.1-2.3-3.4-3.9-6-5.8-8.5-7.3-9.4-18.2-9.6-25.7-.5-5.7,7-7,15.3-5.8,23.8C50,.7,64.5,12.8,81.3,22.6c2,1.2,6.4.4,8.4-1.1,7.6-5.9,15.4-11.7,21.7-18.8Z"/>
      <path class="cls-8" d="M120.8-34.3c3.5,13.9,0,26.6-9.3,37-6.3,7.1-14.1,13-21.7,18.8-2,1.5-6.5,2.3-8.4,1.1C64.5,12.8,50,.7,47-20.2c-1.2-8.6,0-16.9,5.8-23.8,7.5-9.1,18.5-8.9,25.7.5,1.9,2.4,3.5,5,5.8,8.5,1.8-2.4,2.8-3.7,3.7-5.1,4-7.1,9.6-11.8,18.1-10.1,8.5,1.7,12.7,8.2,14.7,16.1Z"/>
      <path class="cls-8" d="M120.4,169.7c-15.5,9.1-27.4,20.2-36,36.2-8.8-15.6-19.9-27.3-36.2-36,15.7-9,27.9-19.8,35.9-36.8,8.5,16.5,20.1,27.9,36.2,36.5h0Z"/>
      <path class="cls-8" d="M170.8-13.3c-28.7,28.6-57.7,57.4-86.1,85.7C56.5,44,27.4,14.8-1.3-14.1c27.9-27.9,56.9-57,85.6-85.6,28.8,28.7,57.8,57.7,86.6,86.4ZM161.3-9c1.1-1.2,2.1-2.5,3.5-4.2-1.5-1.8-2.8-3.5-4.3-5-23.8-23.8-47.7-47.6-71.4-71.5-3.4-3.5-5.5-4.1-9.3-.3C56.1-65.8,32.1-41.8,7.9-18c-3.9,3.9-3.5,6.2.2,9.9C32.1,15.5,56,39.3,79.6,63.3c4,4.1,6.3,3.4,9.8-.2,23.9-24.1,47.9-48.1,71.9-72.1Z"/>
      <path class="cls-3" d="M69.3,73.4c3.8,3.8,3.7,6.2,0,9.9-24,23.7-47.8,47.5-71.6,71.4-2.8,2.8-4.9,5.1-8.8,1.1-24.7-25-49.6-49.8-74.5-74.7-.7-.7-1.1-1.5-2.7-3.8,13.2-12.9,26.1-25.4,39-38.1C-36.9,27-24.4,14.7-12.1,2c3.7-3.8,6.2-3.9,10,0,23.7,24,47.5,47.8,71.4,71.5ZM24.6,103.4c6.9-5.7,8.3-18.9,2-26.3C16,65,4.8,53.4-7.2,40.4c-11.9,13.1-23.6,25.2-34.3,38.1-6.3,7.6-4.1,19.6,3.1,25.3,7.2,5.7,16.1,4.3,23.6-3.7,1.6-1.6,3.5-2.9,5.3-4.4.5.5,1,1,1.5,1.5-3.7,5.9-7.3,11.8-11.2,18H4.6c-3.7-6.2-7.3-12.2-10.8-18.2,1-.8,2-1.5,3-2.3,1.1,1.8,2,3.8,3.5,5.4,7.5,8,17.2,9.2,24.4,3.2h0Z"/>
      <path class="cls-5" d="M26.6,77.1c6.4,7.3,5,20.5-2,26.3-7.2,6-16.9,4.8-24.4-3.2-1.4-1.5-2.3-3.6-3.5-5.4-1,.8-2,1.5-3,2.3l-1.7.2c-.5-.5-1-1-1.5-1.5-1.8,1.5-3.7,2.7-5.3,4.4-7.6,8-16.5,9.4-23.6,3.7-7.3-5.8-9.4-17.8-3.1-25.3,10.7-12.9,22.4-25,34.3-38.1,12,13,23.2,24.6,33.8,36.7h0Z"/>
      <path class="cls-5" d="M4.6,115.3h-23.7c3.9-6.2,7.5-12.1,11.2-18l1.7-.2c3.6,6,7.2,12,10.8,18.2h0Z"/>
      <path class="cls-8" d="M78.7,78.5c-28.1,28.2-57,57.1-85.8,85.9-28.8-28.8-57.7-57.6-86.5-86.4C-64.9,49.5-35.9,20.7-7.1-7.9c28.3,28.5,57.2,57.6,85.8,86.3h0ZM69.2,83.4c3.8-3.7,3.9-6.2,0-9.9C45.4,49.7,21.6,25.9-2.1,2c-3.8-3.8-6.3-3.8-10,0-12.2,12.6-24.7,25-37.2,37.3-12.8,12.7-25.8,25.2-39,38.1,1.6,2.3,2.1,3.1,2.7,3.8,24.8,24.9,49.7,49.7,74.5,74.7,3.9,4,6,1.6,8.8-1.1,23.8-23.9,47.6-47.7,71.6-71.4h0Z"/>
    </g>
  </g>
  <rect class="cls-4" x="36.6" y="39.3" width="357.1" height="109.2"/>
  <path class="cls-6" d="M287.6,148.4c0-.1,0-.2,0-.3.8-.3,1.5-.7,2.3-1,10.4-4.1,19.7-9.9,25.8-19.6,10.6-17.1,11.5-39.3-3.4-56.4-13.2-15.2-30.6-20.4-50.1-18.7-16.5,1.5-30.8,8.6-43.1,19.4-11.2,9.9-21.9,20.3-32.4,30.9-16.2,16.3-33.3,31.4-52.6,44-1.3.8-1.9,1.3-1.9,1.8h155.4Z"/>
</svg>