<?xml version="1.0" encoding="UTF-8"?>
<svg id="Layer_1" data-name="Layer 1" xmlns="http://www.w3.org/2000/svg" xmlns:xlink="http://www.w3.org/1999/xlink" version="1.1" viewBox="0 0 702.7 231.6">
  <defs>
    <style>
      .cls-1 {
        clip-path: url(#clippath);
      }

      .cls-2 {
        fill: none;
      }

      .cls-2, .cls-3, .cls-4, .cls-5, .cls-6, .cls-7, .cls-8 {
        stroke-width: 0px;
      }

      .cls-3 {
        fill: #b960a5;
      }

      .cls-4 {
        fill: #e1ddca;
      }

      .cls-5 {
        fill: #e27db2;
      }

      .cls-6 {
        fill: #64b0bb;
      }

      .cls-7 {
        fill: #f58d86;
      }

      .cls-8 {
        fill: #9259a4;
      }
    </style>
    <clipPath id="clippath">
      <rect class="cls-2" width="702.7" height="231.6"/>
    </clipPath>
  </defs>
  <g class="cls-1">
    <g>
      <path class="cls-3" d="M838,316.9v5.7c-15-14.8-30-29.6-44.1-43.5l-2.4-2.4c-23.6,23.5-46.7,46.5-69.4,69,22.4,22.5,45.3,45.5,69.1,69.3.9-1,1.8-1.9,2.8-2.9l2.3,2.3h0c-2.2,2.2-2.1,3.8-.8,5.6l-2.1,2c-.5-.6-1-1.1-1.4-1.7-24.4,24.4-47.5,47.4-72,71.9,6.3,5.7,12.8,11.6,19.3,17.5h-5.7c-5.1-5.4-10.3-10.9-15.3-16.2-6.2,5.9-11.5,11.1-16.8,16.2h-4.6c5.9-6.4,11.8-12.8,17.5-19-23.2-23.2-46.2-46.2-68.5-68.4-23,22.8-46.1,45.9-69.3,69,5.4,5.9,11.2,12.1,17,18.4h-4.6c-5.3-5.4-10.5-10.9-16.3-16.8-5.7,6.1-10.8,11.5-15.8,16.8h-5.7c6.2-6.3,12.4-12.7,18-18.5-23.5-23.7-46.4-46.6-68.9-69.2-1.1,1.1-2.2,2.2-3.3,3.3-21.8,21.8-43.9,43.8-67.3,67.2,6.2,5.6,12.8,11.4,19.3,17.2h-5.7c-5-5.3-10.1-10.6-14.9-15.8-1.3.5-1.9.6-2.3,1-5,4.9-10,9.9-14.9,14.8h-4.6c5.8-6.4,11.7-12.8,17-18.6-2-2-4.1-4.1-6.1-6.1-21.2-21.2-42-42.1-63.1-63.2-.2.1-.9.4-1.4.9-21.7,21.6-43.3,43.3-65,64.8-2.3,2.3-2.3,3.9,0,6.2,5.2,5.2,10.2,10.7,15.3,16.1h-4.6c-4.4-4.4-8.7-9-13.3-13.2-1.2-1-4.5-1.5-5.4-.7-4.7,4.4-9,9.2-13.4,13.9h-5.7c6.1-6.3,12.1-12.6,17.9-18.6-23.4-23.3-46.5-46.3-69.1-68.8-22.7,22.6-45.8,45.6-70.4,70.1,6.3,5.6,12.8,11.5,19.3,17.3h-5.7c-5.2-5.4-10.3-10.9-15.6-16.4-6,6-11.3,11.2-16.6,16.4h-4.6c5.9-6.4,11.7-12.8,17.3-18.9-23.3-23.2-46.3-46.2-69.2-68.9-22.6,22.6-45.7,45.6-68.9,68.9,5.7,6.1,11.5,12.5,17.4,18.9h-4.6c-5.4-5.3-10.8-10.7-16.6-16.5-5.4,5.8-10.4,11.1-15.5,16.5h-5.7c6.2-6.4,12.4-12.7,17.8-18.3-23.6-23.7-46.5-46.6-70.9-71.1-.7,1-1.4,2-2.2,3.1l-2-2.1h0c2.7-2.6,2.7-4.5,0-7.1-7.8-7.5-15.5-15.2-23.2-22.8v-4.6c8.7,8.3,17.4,16.5,25.6,24.3,1,1,2,1.9,3,2.8,23.4-23.3,46.4-46.2,69.1-68.7-22.8-22.8-45.8-45.9-70.3-70.4-8.9,9.5-18.1,19.3-27.4,29.2v-5.7c8.2-8.9,16.5-17.9,25.3-27.4-7.8-7.5-16.6-15.8-25.3-24.2v-5.7c9.6,9.5,19.2,19,28.9,28.5,1.3-.9,2.1-1.4,2.8-2,21.5-21.5,42.9-43,64.5-64.4,3.5-3.5,1.1-5.1-1.1-7.3-19.7-19.7-39.4-39.4-59.1-59.2-2.1-2.1-4.3-4.1-6.8-6.4-2.2,2.1-4,3.8-5.8,5.5-7.8,7.5-15.6,15-23.4,22.5v-4.6c7.5-7.5,15-15.2,22.7-22.5,3.1-2.9,3.1-4.9,0-7.9-7.7-7.3-15.2-15-22.7-22.5v-4.6c9.7,9.3,19.5,18.5,28.4,27,1.9-1.9,3.7-3.7,5.6-5.5,21.6-21.5,42.7-42.5,63.6-63.3C-35.6,32-58.6,9.1-82-14.3c-9.3,9.1-18.9,18.6-28.5,28.1v-5.7c8.2-9,16.3-18,23.6-26-7.1-7.8-15.4-16.8-23.6-25.7v-5.7c9.2,9.9,18.4,19.9,27.3,29.4,24.6-24.7,47.6-47.7,70.1-70.3-22.6-22.7-45.6-45.7-68.9-69-1.4,1.3-3,2.8-4.7,4.3-8,7.6-15.9,15.3-23.9,22.9v-4.6c7.6-7.5,15.1-15.1,22.7-22.5,3-2.8,3.2-5,0-8-7.7-7.3-15.2-14.9-22.8-22.4v-4.6c8.7,8.2,17.3,16.5,25.6,24.4,1,1,2.1,2,3.1,2.9,23.4-23.4,46.4-46.3,69-68.8-22.8-22.8-45.9-45.9-70.5-70.5-8.8,9.5-18,19.4-27.3,29.4v-5.7c8.2-8.9,16.5-17.8,25-27.1-3.2-3.4-7.2-7.7-11.3-11.9h5.7c7.7,11.5,9.3,11.7,18.4,1.9.5-.5.8-1.3,1.2-1.9h5.7c-4,4.3-8,8.6-12.2,13.1,1.1,1.4,1.9,2.6,3,3.7,20.9,21,41.9,41.8,62.7,62.9,3,3.1,4.7,2.3,7.4-.3,11.5-11.7,23.1-23.3,34.8-34.8,10.3-10.2,20.7-20.2,31.3-30.5-4.6-5.2-8.4-9.6-12.2-14h4.6c6.6,7.4,13.4,7.6,20.3.4.1-.1.2-.3.3-.4h4.6c-3.8,4.4-7.6,8.8-10.8,12.5,23.2,23.3,46.1,46.2,68.7,68.8,22.6-22.6,45.4-45.6,68.6-68.8-3.6-3.9-7.6-8.2-11.7-12.5h5.7c2.6,2.8,4.9,5.7,7.8,8.2.9.7,3.4.8,4.2,0,2.7-2.5,5.1-5.5,7.5-8.3h5.7c-4,4.3-8,8.6-11.8,12.6,23.3,23.2,46.2,46.1,69.4,69.3,0,0,.9-.3,1.4-.8,21.8-21.7,43.5-43.5,65.3-65.3,2.1-2.1,1.8-3.8-.2-5.8-3.2-3.2-6.1-6.7-9.2-10h4.6c12.7,12.9,8.3,11.9,20.3.4.1-.1.3-.3.4-.4h4.6c-2.1,2.4-4.1,5-6.3,7.2-5.9,5.9-6,5.8-.3,11.5,17.4,17.5,34.9,34.9,52.3,52.3,3.9,3.9,7.9,7.7,11.4,11.1,21.4-21.3,42.3-42.3,63.5-63.5l6.1-6.1c-3.8-4-7.8-8.2-11.8-12.5h5.7c7.8,11.5,9.5,11.7,18.4,1.9.5-.5.8-1.3,1.1-1.9h5.7c-4,4.3-8,8.6-11.4,12.3,1.7,1.7,3.4,3.4,5.1,5.1,21.5,21.6,42.7,42.9,63.8,64.2,22.6-22.6,45.5-45.6,68.6-68.7-3.5-4.1-7.4-8.5-11.2-12.9h4.6c12.5,12.9,8.5,11.8,20.3.4.1-.1.2-.3.4-.4h4.6c-3.8,4.4-7.6,8.8-11.6,13.3,1,1.2,1.8,2.3,2.7,3.2,21.1,21.1,42.2,42.1,63.1,63.3,3.6,3.7,5.4,1.4,7.8-1,20.5-20.5,41-41.1,61.5-61.6,1.2-1.2,2.2-2.5,3.4-4-4.3-4.6-8.3-8.9-12.3-13.2h5.7c2.5,2.8,4.9,5.8,7.7,8.3.8.7,3.4.7,4.2,0,2.8-2.5,5.1-5.5,7.6-8.3h5.7c-4,4.3-8.1,8.6-13.6,14.4.5.4,1,.8,1.5,1.2l-1.9,2-.3-.3c-23.7,23.5-46.8,46.4-69.5,69,22.5,22.6,45.4,45.5,68.6,68.8.9-.8,1.9-1.7,3-2.6.3-.3.7-.6,1-1,8.7-8.6,17.3-17.4,26-25.9,5.7-5.6,11.6-11,17.4-16.4v4.6c-13.8,13.7-27.6,27.5-41.5,41.2-3.1,3-2.1,5,.5,7.5,13.7,13.6,27.4,27.2,41.1,40.9v4.6c-1.5-1.1-3.1-2.1-4.4-3.4-12.5-12.4-24.9-24.9-37.4-37.3-1.9-1.9-3.9-3.6-5.3-4.9-23.4,23.4-46.4,46.4-68.9,68.8,22.7,22.8,45.7,45.9,70.1,70.5,0,0,.2-.2.3-.3l1.8,1.7c-.2.2-.1.7-.2,1.1-.4.4-.8.8-1.2,1.3,1.4,1.1,2.8,2.1,4.1,3.1l-2.1,2.1c0,0,0-.1-.1-.2-3.2-3.2-5.1-3.2-8.3,0-20.6,20.8-41.3,41.5-62.1,62.1-3.4,3.4-2.8,5.2.2,8.2l.2.2c20.5,20.2,40.8,40.7,61.1,61,1.3,1.3,2.8,2.5,4.6,4.2,16-16,31.8-31.8,47.6-47.5v5.7c-13.7,13.6-27.2,27.4-41,40.9-3.1,3-3.1,4.9,0,7.9,13.8,13.5,27.4,27.2,41.1,40.8v5.7c-15.7-15.8-31.5-31.6-46.2-46.4-23.7,23.5-46.8,46.4-69.4,68.9,22.5,22.5,45.5,45.4,68.9,68.7,15.3-15.2,31-30.8,46.7-46.4v5.7c-1.4,1.2-3,2.3-4.3,3.6-11.6,11.5-23.2,23.1-34.8,34.7-5.8,5.8-5.8,5.8,0,11.7,13,12.8,26,25.6,39,38.4h0ZM784.2,130.8c2.7-2.7,2.4-4.5-.2-7.1-20.9-20.7-41.7-41.6-62.4-62.5-3-3-5-2.9-7.9.1-8.9,9.2-18,18.2-27.1,27.2-12.7,12.7-25.5,25.3-38.4,38.1.7,1.3.9,1.9,1.3,2.3,21.6,21.6,43.3,43.2,64.8,65,2.8,2.9,4.8,2.1,7.1-.3,20.9-21,41.8-42,62.8-62.9h0ZM717.7,341c22.8-22.7,45.7-45.6,68.5-68.3-22.7-22.7-45.6-45.6-67.8-67.8-22.9,22.8-46,45.7-68.2,67.8,22.4,22.6,45.2,45.7,67.6,68.3ZM785.5-163.8c-22.3-22.3-45.1-45.1-67.7-67.7-22.6,22.9-45.5,45.9-68.1,68.8,22.3,22.4,45.1,45.4,67.2,67.6,22.9-22.9,45.8-45.9,68.5-68.7h0ZM717.8,50.5c22.6-22.6,45.5-45.6,67.6-67.6-22.8-23.1-45.7-46.3-67.7-68.6-22.7,22.6-45.7,45.4-68.2,67.8,22.7,22.7,45.6,45.6,68.3,68.4h0ZM717.6,486.4c22.7-22.6,45.7-45.5,68.3-68-23-23-45.9-46-68.2-68.3-22.7,22.6-45.7,45.6-68.1,67.9,22.6,22.7,45.4,45.7,68,68.4h0ZM713.9,54.4c-.5-.6-1.1-1.6-1.8-2.4-21.2-21.2-42.5-42.4-63.6-63.7-3.1-3.1-4.9-2.1-7.5.4-13.2,13.3-26.4,26.6-39.7,39.7-8.7,8.6-17.5,16.9-25.7,24.7,24.1,24,47.2,47,69.8,69.5,22.4-22.3,45.4-45.2,68.5-68.3h0ZM698.1,216.9c5.5-5.5,10.9-11,15.9-16-23.4-23.5-46.3-46.5-68.6-68.8-22.9,22.8-45.9,45.8-69.2,69,.2.3.7,1.1,1.4,1.8,21.2,21.2,42.5,42.4,63.6,63.7,3.2,3.2,5.1,2.4,7.9-.4,16.2-16.5,32.6-32.8,49-49.2h0ZM713-90.2c-22.7-22.7-45.8-45.8-67.8-67.9-22.7,22.5-45.8,45.4-68.2,67.6,22.5,22.7,45.4,45.7,68,68.6,22.8-22.9,45.8-46,68-68.3h0ZM644.6,413.4c23-22.8,46.1-45.7,68.2-67.7-22.7-22.8-45.7-45.9-68.3-68.6-22.5,22.5-45.5,45.4-68.2,68.1,22.9,22.8,46,45.9,68.3,68.2h0ZM713.6-235.5c-22.8-22.8-45.8-45.9-68.3-68.4-22.8,22.8-45.9,45.8-68.6,68.4,22.7,22.7,45.7,45.7,68.6,68.7,22.6-22.7,45.5-45.7,68.3-68.7h0ZM642.5,128.1c-2.5-2.8-4-4.5-5.6-6.1-20-20-40.1-39.9-60-60.1-3.6-3.6-5.6-3.6-9.1,0-20.4,20.7-41,41.2-61.6,61.6-2.9,2.8-3.1,4.6-.2,7.4,20.9,20.7,41.8,41.5,62.5,62.4,3.3,3.4,5.3,2.8,8.3-.3,11.2-11.5,22.6-22.8,34-34.1,10.3-10.2,20.8-20.3,31.7-30.9h0ZM641.3-163.6c-.5-.6-1.3-1.7-2.3-2.6-21.1-21.1-42.2-42.2-63.2-63.4-3.2-3.2-4.9-1.9-7.4.6-20.6,20.8-41.3,41.5-62.1,62.1-3.1,3.1-2.9,4.9,0,7.9,20.8,20.6,41.4,41.3,62.2,62,1.2,1.2,2.6,2.1,3.5,2.9,23.2-23.3,46.1-46.2,69.2-69.4h0ZM640.2,418.9c-22.9-23-45.8-46.1-68.9-69.3.3-.2,0,0-.3.2-21.7,21.6-43.3,43.2-65.1,64.7-3.2,3.2-1.7,5,.7,7.4,20.7,20.7,41.4,41.4,62.1,62.1,1.1,1.1,2.5,2.1,3.7,3.1,23.1-23.3,45.9-46.1,67.9-68.2h0ZM640.5-18c-22.5-22.7-45.3-45.7-67.8-68.3-22.9,22.9-45.9,45.9-68.4,68.4,22.6,22.7,45.4,45.6,67.9,68.2,22.8-22.8,45.8-45.8,68.3-68.3h0ZM640.6,272.6c-22.5-22.6-45.4-45.5-67.9-68.1-22.8,22.8-45.9,45.8-68,67.8,22.6,22.8,45.5,45.9,67.9,68.5,22.6-22.7,45.5-45.6,68.1-68.2h0ZM568.6,54.3c-.2-.3-.5-1-1-1.5-21.6-21.6-43.3-43.2-64.8-65-3.1-3.2-4.8-1.3-7,.8C484.5,0,473.2,11.4,461.8,22.7c-10.5,10.5-21.2,20.9-31.5,31.2,23.6,23.6,46.7,46.5,69.3,69.1,22.9-22.7,45.9-45.6,69-68.6h0ZM566.7,348.5c3.4-3.4,1.3-5.2-1-7.4-20.4-20.4-40.8-40.8-61.2-61.2-1.4-1.4-3-2.7-3.5-3.2l-69.1,69.1c22.3,22.5,45.2,45.5,68.2,68.7.4-.3,1.1-.7,1.7-1.2,21.6-21.6,43.2-43.3,64.9-64.8h0ZM552.7,217.1c5.5-5.5,11.2-10.9,16.1-15.6-23.7-23.8-46.6-46.9-69.3-69.7-22.6,22.5-45.6,45.3-69,68.7,1.1,1.2,2,2.3,3.1,3.4,20.7,20.7,41.4,41.3,61.9,62.1,3.5,3.5,5.4,3.2,8.7-.1,16.1-16.4,32.3-32.5,48.6-48.7h0ZM499.5-22.2c22.8-22.8,45.8-45.8,68.7-68.6-22.5-22.5-45.4-45.5-68-68.1-22.9,22.9-45.9,46-68.5,68.6,22.5,22.6,45.5,45.7,67.8,68.1h0ZM568.2-236.2c-22.6-22.6-45.5-45.5-68.1-68.2-22.9,22.9-45.9,45.9-68.4,68.4,22.9,23,45.8,46,67.9,68.1,22.7-22.6,45.8-45.6,68.6-68.4ZM493.3-159.2c3.5-3.5,2.2-5.6-.6-8.5-20.6-20.5-41.1-41-61.6-61.5-1.2-1.2-2.5-2.1-3.8-3.2-1,.7-1.7,1.1-2.2,1.6-21.5,21.5-42.9,43.1-64.5,64.4-3.4,3.4-1.5,5.1.9,7.4,17.5,17.4,35,34.8,52.3,52.3,4.3,4.3,8.1,9.1,12.1,13.6,2.3-1.6,2.8-1.9,3.2-2.3,21.4-21.3,42.7-42.7,64.2-63.9h0ZM496.2,127.4c-1.1-1.4-1.8-2.6-2.9-3.7-20.8-20.8-41.7-41.6-62.4-62.5-3.1-3.1-5-2.7-7.9.3-20.4,20.6-40.9,41.2-61.6,61.6-3.4,3.4-3.4,5.4,0,8.7,20.8,20.5,41.4,41.2,62,62,2.5,2.5,4.3,3,7,.3,20.9-21,41.8-41.9,62.8-62.9,1-1,1.8-2.3,3-3.7h0ZM493,422.1c3.1-3.1,3.4-5.2,0-8.4-13.2-13-26.4-26-39.3-39.3-8.5-8.7-16.7-17.8-25.2-26.8-2.7,2.1-3.4,2.6-4.1,3.3-21.2,21.2-42.4,42.5-63.8,63.6-3.1,3.1-2,4.9.5,7.5,18,17.9,35.9,36,53.9,53.9,3.9,3.9,7.9,7.6,11.9,11.5,1.4-1.1,2.4-1.7,3.1-2.4,20.9-20.9,41.8-41.9,62.8-62.8h0ZM425.5,52.1c24.5-24.4,47.4-47.3,70.2-70-22.8-22.7-45.8-45.5-69.1-68.6-.3.2-1.3.7-2.1,1.5-21.4,21.3-42.8,42.7-64.2,64-3.1,3.1-1.3,4.9.9,7,16,15.9,32,31.8,47.8,47.9,5.9,6,11.3,12.4,16.5,18.2ZM427.2,341.2c22.8-22.8,45.7-45.8,68.4-68.6-22.7-22.6-45.7-45.5-68.3-68-22.8,22.6-45.8,45.5-68.3,67.8,22.7,22.9,45.5,45.9,68.2,68.8h0ZM423.8,55c-.9-1.2-1.5-2.3-2.4-3.2-2.9-3-5.9-6-8.9-8.9-18-18-36-35.9-53.9-54-2.8-2.8-4.7-3.6-7.9-.4-20.7,20.9-41.6,41.7-62.4,62.5-2.2,2.2-4,3.8-.9,7,21.4,21.2,42.8,42.6,64,64,2.3,2.3,3.9,2.2,6.1,0,21.2-21.3,42.4-42.5,63.6-63.7.9-.9,1.7-2,2.7-3.3ZM421.3,203.2c.9-.9,1.6-2,2.5-3.2-.9-1.2-1.6-2.3-2.5-3.2-21-21.1-42.2-42.1-63.1-63.3-2.9-2.9-4.7-2.5-7.4.2-20.8,21-41.8,41.9-62.8,62.8-2.6,2.6-2.8,4.4,0,7,21.2,21,42.2,42.1,63.3,63.2,2.4,2.4,4,2.8,6.6.2,21.1-21.3,42.4-42.5,63.6-63.7h0ZM421.4-87.3c2.6-2.6,2-4.3-.3-6.6-21.1-21-42.2-42.1-63.3-63.3-2.5-2.5-4.2-2.3-6.6,0-21,21.2-42.1,42.3-63.3,63.3-2.7,2.7-2.5,4.5,0,7,6.2,6,12.2,12.1,18.3,18.2,15.7,15.8,31.5,31.7,47.5,47.9,1.5-1,2.2-1.3,2.7-1.8,21.7-21.6,43.3-43.2,65-64.8h0ZM420.4-231.6c1.2-1.2,2.2-2.5,3.1-3.5-23.3-23.3-46.4-46.3-69.2-69.1-22.7,22.6-45.6,45.5-69.1,68.9,1.7,1.7,3.1,3.3,4.5,4.8,20.1,20.2,40.4,40.2,60.3,60.6,3.7,3.8,5.7,3.2,9.1-.3,20.3-20.6,40.8-40.9,61.2-61.3h0ZM419.8,350c1.4-1.4,2.7-3,3.6-4.1-23.4-23.4-46.3-46.4-69-69.1-22.7,22.7-45.6,45.6-68.9,68.9.7.9,1.4,1.8,2.2,2.6,21.2,21.3,42.5,42.5,63.6,63.8,3.3,3.4,5,1.5,7.4-.9,20.4-20.5,40.8-40.8,61.2-61.3h0ZM348.5,421.4c3.7-3.7,1.1-5.5-1.2-7.8-20.4-20.4-40.9-40.8-61.1-61.3-3.4-3.5-5.3-3.3-8.6,0-20.1,20.4-40.4,40.7-60.8,60.8-3.7,3.6-4,5.9-.1,9.6,14.2,13.9,28.1,28.1,42.2,42.1,7.5,7.5,15.1,15,22.8,22.5,1.2-.9,2.1-1.4,2.7-2,21.4-21.3,42.7-42.7,64.2-64h0ZM348.3,276.2c3-3,2.4-4.8-.3-7.5-13.2-13-26.3-26.1-39.3-39.3-8.7-8.8-17.1-17.8-25.1-26.1-24.1,23.9-47.3,46.8-70.2,69.6,22.7,22.7,45.6,45.6,68.7,68.7.8-.7,2-1.4,2.9-2.3,21.1-21.1,42.1-42.2,63.3-63.2h0ZM348,131.5c2.9-2.9,3.4-4.8.3-7.9-21-20.8-41.9-41.8-62.9-62.7-.9-.9-2-1.6-3.3-2.6-1.3,1-2.6,1.9-3.6,2.9-20.7,20.7-41.4,41.4-62.1,62-3,3-3.6,5.1-.2,8.4,20.8,20.5,41.5,41.2,62.1,62,3,3,4.8,3.1,7.8,0,20.5-20.8,41.2-41.4,62-62h0ZM347.2-13.2c3.6-3.6,3.8-5.5.2-9.1-18-17.7-35.7-35.7-53.6-53.5-3.9-3.9-7.8-7.6-11.8-11.4-1.2,1-1.8,1.4-2.4,1.9-21.4,21.3-42.7,42.7-64.2,64-3.1,3-2.3,4.9.3,7.5,9.7,9.5,19.3,19.1,28.8,28.8,12.1,12.2,24.1,24.5,36.8,37.3,2.5-2.3,4.2-3.8,5.8-5.4,20-20,39.9-40.2,60.1-60ZM347.1-158.3c3.8-3.7,4-5.8.1-9.5-14.1-13.7-28-27.7-41.8-41.8-7.6-7.7-14.9-15.8-22.3-23.7-.5.4-1,.7-1.4,1.1-.8.5-1.6,1-2.3,1.6-21.2,21.2-42.4,42.4-63.7,63.5-3.6,3.5-2,5.6.7,8.4,19.5,19.4,38.9,38.9,58.4,58.3,2.3,2.2,4.6,4.3,7.1,6.6,1.6-1.4,2.7-2.4,3.8-3.4,20.4-20.4,40.7-41,61.3-61.2h0ZM278.5,54.2c-.7-.8-1.4-1.7-2.2-2.5-20.8-20.8-41.7-41.5-62.4-62.5-3.6-3.7-5.7-3.4-9.1.1-20.3,20.6-40.8,40.9-61.2,61.4-1.2,1.2-2.3,2.5-2.9,3.2,23.3,23.3,46.3,46.4,69,69.3,22.5-22.5,45.4-45.5,68.9-68.9h0ZM266.6,213.1c4.2-4.1,8.8-7.7,12.6-11-24.4-24.6-47.4-47.7-70.5-71-.5.4-1.3.9-1.9,1.6-21.4,21.3-42.7,42.7-64.1,63.9-3.2,3.2-1.8,4.9.6,7.4,20.6,20.5,41.2,41,61.6,61.7,3.6,3.6,5.6,3.6,9.1,0,17.4-17.7,35-35.2,52.7-52.7h0ZM209.3-21.9c22.6-22.7,45.6-45.7,67.6-67.7-22.7-22.9-45.7-46.2-68.2-68.9-22.5,22.5-45.4,45.4-68,68,22.8,22.8,45.8,45.9,68.6,68.6h0ZM209.7-167.2c22.5-22.6,45.4-45.5,67.8-68-23.1-23.1-46.1-46.1-68.2-68.1-22.5,22.4-45.6,45.4-68,67.7,22.6,22.6,45.6,45.6,68.4,68.4h0ZM277.3,345.6c-22.7-22.8-45.7-45.9-67.8-68.2-22.7,22.6-45.8,45.5-68.7,68.3,22.6,22.6,45.5,45.5,68,68,23.1-22.9,46.2-45.9,68.6-68.1h0ZM203.5-160c3.1-3.1,1.3-4.8-.9-7-20.7-20.7-41.5-41.3-62.1-62.1-3-3-4.8-3.1-7.9,0-20.6,20.8-41.3,41.4-62,62.1-1.2,1.2-2.2,2.5-3,3.5,23.1,23.2,46,46.2,69.1,69.3.5-.3.9-.4,1.2-.7,21.8-21.7,43.6-43.5,65.5-65.2ZM202.4,422.1c3.6-3.6,2.9-5.6-.3-8.7-20.4-20.2-40.6-40.5-61-60.8-1.4-1.4-3-2.7-4.4-3.9-23.3,23.3-46.1,46.1-68.7,68.7,23.1,23.2,46,46.1,69.1,69.4,1-.9,2.3-1.9,3.5-3.1,20.6-20.6,41-41.2,61.8-61.6h0ZM136.6,50.4c22.8-22.7,45.8-45.6,68.6-68.2-22.8-22.6-45.9-45.4-68.5-67.9-22.6,22.5-45.6,45.4-68,67.7,22.6,22.8,45.4,45.8,67.8,68.4h0ZM204.8,127.9c-22.9-23.1-45.7-46.1-68.7-69.3-.3.2-1,.5-1.5,1.1-21.5,21.4-43,42.9-64.6,64.3-3.1,3.1-1.8,5,.7,7.4,15.7,15.6,31.3,31.3,47,47,6.2,6.1,12.4,12.2,18.5,18.2,23.4-23.5,46.3-46.4,68.6-68.7h0ZM205.3,272.7c-22.8-22.7-45.7-45.7-68.4-68.3-23,22.9-45.9,45.8-68.1,67.9,22.6,22.8,45.5,45.9,68,68.6,22.7-22.6,45.7-45.5,68.5-68.2h0ZM132.8,54.3c-.1-.2-.4-.9-1-1.4C110.2,31.2,88.6,9.6,67-12.1c-2.3-2.3-3.9-2.2-6.2,0C54.8-5.7,48.4.4,42.2,6.6,26.4,22.4,10.6,38.2-4.7,53.5c23.5,23.7,46.4,46.8,68.9,69.4,22.6-22.6,45.5-45.5,68.7-68.6h0ZM123.5,210.5c3.3-3.3,7.3-6.1,10.5-8.7-24.4-24.4-47.3-47.4-70-70.1-23,23-45.9,45.9-69.1,69.1.3.4.8,1.2,1.5,1.8,21.2,21.2,42.5,42.4,63.6,63.7,3,3.1,5,2.8,7.9-.2,18.4-18.6,36.9-37.2,55.5-55.6ZM132.5-235.5c-22.7-22.7-45.7-45.6-68.7-68.5-22.7,22.6-45.7,45.7-68.5,68.4,22.8,22.8,45.9,45.9,68.6,68.6,22.8-22.8,45.9-45.8,68.6-68.5h0ZM64.3-22.5c22.6-22.5,45.6-45.4,68.4-68.1-22.8-22.8-45.9-45.8-68.7-68.6-22.7,22.8-45.8,45.8-67.9,68,22.8,22.9,45.9,46.1,68.3,68.6h0ZM63.7,413.2c22.9-22.6,46-45.5,68.2-67.4-22.7-22.9-45.6-46-68.1-68.6-22.6,22.6-45.6,45.5-67.9,67.8,23,23.1,46,46.2,67.8,68.2h0ZM60.8,128.2c-.8-1.4-1-2-1.4-2.4C37.8,104.1,16.1,82.5-5.4,60.8c-2.9-2.9-4.8-1.9-7.1.4-20.9,21-41.8,42-62.9,62.8-2.5,2.4-2.6,4.2-.2,6.6,21,20.9,42,41.8,62.9,62.9,3.3,3.4,5.4,2.6,8.4-.4,13.1-13.4,26.4-26.6,39.7-39.8,8.4-8.3,16.8-16.6,25.4-25.1h0ZM60.3,417.5c-.6-.7-1.3-1.8-2.3-2.7-21.1-21.1-42.2-42.1-63.2-63.3-2.8-2.8-4.6-2.2-7,.2-21.2,21.3-42.5,42.5-63.7,63.8-.7.8-1.2,1.8-1.7,2.7,23.1,23,46,45.8,68.8,68.5,23-23,45.9-45.9,69.1-69h0ZM-9.7-93.5c24-24,46.9-46.8,69.2-69.1-22.8-22.8-45.7-45.9-68.8-69-.2.2-.9.5-1.4,1.1-21.5,21.5-43,43-64.6,64.4-2.7,2.7-1.8,4.4.5,6.6,7.5,7.4,14.9,14.8,22.3,22.3,14.3,14.6,28.6,29.2,42.9,43.8h0ZM59.1,273.1c-22.5-22.8-45.3-45.9-67.4-68.3-22.8,22.8-45.9,45.7-68.3,68.1,22.6,22.7,45.4,45.7,67.7,68.1,22.9-22.9,46-45.8,68.1-67.9h0ZM-8.6,50.5C14.2,27.6,37.2,4.7,59.5-17.7,36.8-40.5,13.9-63.6-8.6-86.3-31.5-63.6-54.5-40.7-77.2-18.1-54.4,4.8-31.4,27.7-8.6,50.5Z"/>
      <path class="cls-8" d="M784,123.7c2.6,2.6,2.9,4.5.2,7.1-21,20.9-41.9,41.9-62.8,62.9-2.4,2.4-4.3,3.2-7.1.3-21.5-21.7-43.2-43.3-64.8-65-.4-.4-.6-1-1.3-2.3,12.9-12.8,25.7-25.5,38.4-38.1,9.1-9,18.2-18,27.1-27.2,2.9-3,4.9-3.2,7.9-.1,20.7,20.9,41.5,41.7,62.4,62.5h0ZM778.8,130.8c.9-.9,1.6-2,2.7-3.4-1.2-1.4-2.2-2.7-3.4-3.9-18.9-18.9-37.9-37.8-56.7-56.8-2.7-2.8-4.6-3.1-7.5-.2-19.1,19.3-38.3,38.4-57.6,57.5-2.4,2.4-2.6,4.2-.2,6.7,19.4,19.3,38.7,38.6,58,57.9,2.4,2.4,4.2,2.6,6.7,0,19.3-19.4,38.6-38.7,57.9-58h0Z"/>
      <path class="cls-5" d="M781.2,272.2c.3.5.7,1,1,1.5-10.4,10.1-20.9,20.1-31.2,30.3-9.9,9.8-19.8,19.6-29.5,29.7-2.9,3-4.8,2.7-7.5,0-19-19.1-38-38.2-57.1-57.2-2.9-2.8-2.6-4.7.2-7.5,19.2-19,38.2-38,57.2-57.1,2.2-2.2,3.8-3.5,6.6-.7,19.9,20.1,40,40.1,60,60.1.3.3.3.7.5,1h0ZM739.8,289c5.3-2.8,8.3-7.6,7.9-13.6-.5-9.1-6.7-13.2-14.6-14.8-2.1-12.7-7.1-18.4-15.6-18.1-8.7.3-13.3,5.6-14.9,18-7.7,1.8-14.3,5.3-14.8,14.7-.3,5.8,2,10.7,7.1,13.4,7.8,4.2,14.7,1.7,20.8-4.4.4.3.9.7,1.3,1-2.5,5.5-4.9,11-7.5,16.8h16.3c-2.7-6.1-5.1-11.5-7.5-16.9.5-.3.9-.6,1.4-.9,5.8,5.6,12.2,9,20.1,4.8h0Z"/>
      <path class="cls-5" d="M780.7-19c.3.3.3.7,1.1,2.4-11.9,11.7-23.9,23.4-35.9,35.2-8,7.9-16.1,15.8-23.9,24-3,3.1-4.9,3.7-8.3.2-18.8-19.1-37.7-38-56.7-56.8-3.1-3.1-2.9-5.1,0-7.9,19.1-19,38.2-38,57.2-57.1,2-2,3.7-3.1,6.2-.6,20,20.2,40.1,40.4,60.2,60.6h0ZM740.6-1.9c5.4-3.1,7.5-8.1,7.1-14-.4-6.3-4.5-11.5-10.7-12.6-3.7-.7-4.3-2.5-4.7-5.8-1-8.8-6.4-13.5-14.9-13.4-8.1.1-13.3,5.5-14.5,14.1-.3,1.8-2.3,4.2-4,4.7-6.1,1.9-9.9,5.5-10.8,11.9-1,6.2,1.5,11.7,6.5,14.8,5.3,3.2,12.5,3,17.3-.6,1.3-1,2.5-2.1,3.7-3.1.5.3,1,.6,1.5.9-2.6,5.6-5.1,11.3-7.6,16.8h16.6c-2.6-5.7-5.1-11.4-7.7-17,.4-.3.9-.6,1.3-.8,1.4,1.1,2.8,2.4,4.2,3.5,4.7,3.5,11.6,3.9,16.8.9h0Z"/>
      <path class="cls-5" d="M781.5,127.4c-1.1,1.4-1.8,2.5-2.7,3.4-19.3,19.3-38.6,38.6-57.9,58-2.5,2.5-4.3,2.3-6.7,0-19.3-19.3-38.6-38.7-58-57.9-2.5-2.5-2.2-4.3.2-6.7,19.2-19.1,38.5-38.3,57.6-57.5,2.9-2.9,4.8-2.5,7.5.2,18.8,19,37.8,37.8,56.7,56.8,1.2,1.2,2.2,2.5,3.4,3.9h0ZM743.2,146.9c6.2-5.6,5.9-15.5-.7-22.6-5.6-6.1-11.1-12.2-16.7-18.2-2.7-2.9-5.6-5.6-8.5-8.5-4.4,4.9-8.6,9.4-12.6,13.9-5,5.5-10.4,10.8-14.7,16.7-4.4,6-2.4,15.5,3.2,19.6,5.4,4,12.6,2.9,18-2.6,1.4-1.4,2.8-2.6,4.2-3.9.5.4,1,.8,1.5,1.2-2.9,4.6-5.7,9.3-8.7,14.1h19.8c-2.2-2.7-4.2-4.7-5.7-7.1-1.5-2.4-2.5-5.1-3.7-7.6,2.1.2,3.1,1,4,1.9,6.9,7.2,14.7,8.4,20.6,3h0Z"/>
      <path class="cls-7" d="M747.7-16c.4,5.9-1.7,10.9-7.1,14-5.2,3-12.1,2.7-16.8-.8-1.4-1.1-2.8-2.3-4.2-3.5-.4.3-.9.6-1.3.8l-1.3.2c-.5-.3-1-.6-1.5-.9-1.2,1-2.4,2.1-3.7,3.1-4.8,3.6-12,3.9-17.3.6-5-3-7.4-8.5-6.5-14.8,1-6.4,4.7-10,10.8-11.9,1.7-.5,3.8-2.9,4-4.7,1.2-8.6,6.4-13.9,14.5-14.1,8.5-.1,13.9,4.5,14.9,13.4.4,3.2,1,5,4.7,5.8,6.1,1.2,10.3,6.3,10.7,12.6h0Z"/>
      <path class="cls-7" d="M742.5,124.3c6.5,7.1,6.8,17,.7,22.6-6,5.4-13.7,4.2-20.6-3-.9-.9-1.8-1.7-4-1.9l-1.7.6c-.5-.4-1-.8-1.5-1.2-1.4,1.3-2.9,2.6-4.2,3.9-5.5,5.6-12.6,6.6-18,2.6-5.6-4.1-7.6-13.7-3.2-19.6,4.4-6,9.8-11.2,14.7-16.7,4.1-4.5,8.2-9,12.6-13.9,3,3,5.9,5.6,8.5,8.5,5.6,6,11.1,12.1,16.7,18.2Z"/>
      <path class="cls-8" d="M786.2,272.7c-22.8,22.7-45.7,45.6-68.5,68.3-22.4-22.6-45.2-45.7-67.6-68.3,22.2-22.1,45.3-45,68.2-67.8,22.2,22.2,45.1,45.1,67.8,67.8ZM782.1,273.7c-.3-.5-.7-1-1-1.5-.2-.3-.2-.8-.5-1-20-20-40-40-60-60.1-2.8-2.8-4.4-1.5-6.6.7-19,19.1-38,38.2-57.2,57.1-2.8,2.8-3,4.6-.2,7.5,19.1,19,38.2,38.1,57.1,57.2,2.7,2.7,4.6,3,7.5,0,9.7-10,19.6-19.9,29.5-29.7,10.3-10.2,20.8-20.2,31.2-30.3h0Z"/>
      <path class="cls-8" d="M785.4-17.2c-22.1,22.1-45,45-67.6,67.6-22.7-22.8-45.7-45.7-68.3-68.4,22.5-22.4,45.5-45.3,68.2-67.8,22,22.3,44.9,45.5,67.7,68.6h0ZM781.9-16.5c-.8-1.8-.9-2.2-1.1-2.4-20.1-20.2-40.2-40.4-60.2-60.6-2.5-2.5-4.2-1.4-6.2.6-19,19.1-38.1,38.1-57.2,57.1-2.9,2.9-3.1,4.9,0,7.9,19,18.8,38,37.7,56.7,56.8,3.4,3.4,5.3,2.9,8.3-.2,7.8-8.1,15.9-16,23.9-24,12-11.8,24-23.5,35.9-35.2h0Z"/>
      <path class="cls-8" d="M712.1,52c.8.8,1.4,1.7,1.8,2.4-23.2,23.1-46.1,46-68.5,68.3-22.6-22.5-45.7-45.5-69.8-69.5,8.2-7.9,17.1-16.2,25.7-24.7,13.3-13.2,26.5-26.4,39.7-39.7,2.5-2.5,4.4-3.6,7.5-.4,21.1,21.3,42.4,42.5,63.6,63.7h0ZM709.7,55.7c-2.1-2.3-3.3-3.8-4.6-5.1-18.6-18.7-37.3-37.2-55.8-56.1-3.5-3.6-5.4-3-8.6.2-18.5,18.8-37.1,37.4-55.9,55.9-3.6,3.5-3.1,5.4.2,8.6,18.9,18.7,37.7,37.5,56.3,56.4,3.1,3.2,5,2.7,7.8-.3,10.8-11.1,21.8-22,32.8-32.9,9.1-9,18.3-17.8,27.8-26.9h0Z"/>
      <path class="cls-7" d="M708.9,199.9c-1.1,1.4-2,2.6-3,3.7-19.2,19.2-38.4,38.3-57.5,57.6-2.8,2.9-4.4,2.3-6.9-.2-19-19.1-38-38.2-57.2-57.1-3.2-3.1-2.7-4.9.2-7.8,19-18.8,38-37.7,56.7-56.8,3.2-3.2,4.9-2.7,7.8.2,18.7,18.9,37.5,37.6,56.3,56.4,1.2,1.2,2.2,2.5,3.5,4h0ZM665.5,214.1c8.1-8.9,11.7-19.7,8.1-31.8-1.7-6-5.2-10.8-11.8-12-6.4-1.1-10.3,2.8-13.6,7.7-.9,1.4-1.9,2.7-3.2,4.6-1.8-2.5-3.1-4.5-4.6-6.5-6.6-8.5-17.1-8.1-21.8,1.5-2.4,5-3.7,11.5-3.1,17,1.9,16.9,14,26.4,27.5,34.4,1.1.7,3.6.2,4.7-.6,6.1-4.6,12.6-8.8,17.7-14.3h0Z"/>
      <path class="cls-7" d="M705.1,50.6c1.3,1.3,2.5,2.7,4.6,5.1-9.5,9.2-18.7,18-27.8,26.9-11,10.9-22,21.8-32.8,32.9-2.9,2.9-4.7,3.4-7.8.3-18.6-18.9-37.4-37.7-56.3-56.4-3.3-3.2-3.7-5.2-.2-8.6,18.8-18.5,37.4-37.1,55.9-55.9,3.2-3.3,5.1-3.8,8.6-.2,18.5,18.8,37.2,37.4,55.8,56.1h0ZM657.4,67c4.5-4.5,9.9-8.1,15.7-12.7-12.2-6.4-21.3-15.5-28-28.3-6.6,12.9-15.8,21.8-28.8,28.9,13.3,6.8,21.9,16.4,28.5,27.7,4.5-5.6,8.1-11.1,12.7-15.6h0Z"/>
      <path class="cls-8" d="M714,200.9c-5,5-10.4,10.5-15.9,16-16.3,16.4-32.7,32.7-49,49.2-2.8,2.8-4.7,3.6-7.9.4-21.1-21.3-42.4-42.5-63.6-63.7-.7-.7-1.2-1.5-1.4-1.8,23.3-23.2,46.3-46.2,69.2-69,22.3,22.3,45.1,45.3,68.6,68.8h0ZM705.9,203.5c1-1,1.9-2.3,3-3.7-1.3-1.5-2.3-2.8-3.5-4-18.8-18.8-37.6-37.5-56.3-56.4-2.8-2.9-4.6-3.4-7.8-.2-18.8,19.1-37.7,38-56.7,56.8-2.9,2.9-3.4,4.7-.2,7.8,19.2,18.9,38.2,38,57.2,57.1,2.5,2.5,4.1,3.1,6.9.2,19.1-19.3,38.3-38.4,57.5-57.6h0Z"/>
      <path class="cls-8" d="M673.7,182.3c3.5,12.1,0,22.9-8.1,31.8-5.1,5.5-11.6,9.8-17.7,14.3-1.1.9-3.6,1.3-4.7.6-13.5-8-25.6-17.5-27.5-34.4-.6-5.5.6-12,3.1-17,4.7-9.7,15.2-10,21.8-1.5,1.5,1.9,2.8,3.9,4.6,6.5,1.3-1.9,2.3-3.2,3.2-4.6,3.2-4.8,7.2-8.8,13.6-7.7,6.6,1.1,10,6,11.8,12h0Z"/>
      <path class="cls-8" d="M673,54.4c-5.7,4.6-11.1,8.2-15.7,12.7-4.5,4.5-8.2,10-12.7,15.6-6.6-11.3-15.3-20.9-28.5-27.7,13-7.1,22.2-16,28.8-28.9,6.8,12.8,15.8,22,28,28.3h0Z"/>
      <path class="cls-8" d="M636.9,122c1.6,1.6,3.1,3.3,5.6,6.1-10.9,10.6-21.4,20.7-31.7,30.9-11.4,11.3-22.8,22.6-34,34.1-3,3.1-5,3.6-8.3.3-20.7-20.9-41.6-41.7-62.5-62.4-2.9-2.8-2.7-4.6.2-7.4,20.7-20.4,41.3-40.9,61.6-61.6,3.5-3.6,5.6-3.7,9.1,0,19.9,20.2,40,40.1,60,60.1h0ZM633.6,131.1c2.5-2.5,3-4.4.2-7.1-19.3-19.1-38.5-38.2-57.6-57.5-3-3-4.9-2.4-7.5.3-19,19.1-38,38.1-57.2,57.1-2.6,2.6-2.8,4.4-.1,7.1,19.3,19.1,38.4,38.3,57.6,57.5,1,1,2.3,1.8,3.7,2.8,1.5-1.2,2.7-2,3.8-3,19.1-19,38.1-38.1,57.2-57.1h0Z"/>
      <path class="cls-5" d="M633.8,269.6c2.3,2.3,2.4,3.9.1,6.1-19.5,19.4-39,38.9-58.4,58.4-2.5,2.5-4.3,2.1-6.6-.3-19.1-19.3-38.3-38.5-57.6-57.6-3-2.9-2.5-4.7.2-7.4,19.2-19,38.2-38.1,57.3-57.1,1-1,2.3-1.8,3.6-2.8,1.3,1.1,2.4,1.8,3.4,2.7,19.3,19.3,38.7,38.7,58.1,57.9h0ZM597,293c5.4-4.3,7.7-13.9,3.3-19.1-8.7-10.6-18.1-20.5-27.8-31.3-3.9,4.3-7.2,7.9-10.5,11.5-5.7,6.2-11.7,12.1-16.8,18.8-5,6.6-3.5,15.2,2.5,20.1,5.5,4.5,12.7,3.3,18.8-2.9,1.2-1.3,2.6-2.4,3.9-3.6.5.4,1.1.8,1.6,1.2-2.9,4.6-5.9,9.2-9.1,14.2h18.7c-3-5-5.8-9.6-8.5-14.1.9-.7,1.9-1.4,2.8-2,1.2,1.7,2.1,3.7,3.5,5.2,5.1,5.1,12.7,5.9,17.6,2.1h0Z"/>
      <path class="cls-5" d="M633.8,124c2.8,2.7,2.4,4.6-.2,7.1-19.1,19-38.1,38.1-57.2,57.1-1,1-2.3,1.9-3.8,3-1.4-1-2.6-1.8-3.7-2.8-19.2-19.2-38.4-38.4-57.6-57.5-2.7-2.7-2.5-4.5.1-7.1,19.1-19,38.2-38,57.2-57.1,2.7-2.7,4.6-3.3,7.5-.3,19.1,19.3,38.4,38.4,57.6,57.5h0ZM594.7,143.8c5.2-2.6,8.1-8.1,7.7-14.3-.5-6.5-4.2-11.5-11-13-3.4-.8-4.1-2.4-4.3-5.4-.8-8.5-6.6-13.6-14.7-13.6-7.8,0-13.7,5.3-14.4,13.3-.3,3.2-.9,4.9-4.6,5.7-7.9,1.8-12.2,9.5-10.4,17.2,1.8,7.9,8.5,12.8,16.7,11.1,4-.8,7.7-3.4,12.6-5.7v.3c-2.8,6.1-5.3,11.7-7.9,17.4h16.5c-2.7-5.9-5.2-11.4-7.6-16.9.5-.3,1-.5,1.5-.8.8.7,1.6,1.5,2.5,2.2,4.9,4.4,11.9,5.4,17.6,2.5h0Z"/>
      <path class="cls-5" d="M636.2-17.6c-1.1,1.2-1.8,2.3-2.8,3.2-19.2,19.2-38.4,38.3-57.5,57.6-2.6,2.6-4.3,2.9-7,.1-19.1-19.3-38.3-38.5-57.6-57.5-2.7-2.6-2.7-4.4,0-7,19.3-19.1,38.5-38.3,57.6-57.5,2.6-2.6,4.5-2.8,7.1-.1,19.1,19.3,38.4,38.4,57.5,57.6,1,1,1.8,2.3,2.8,3.7h0ZM597.2,2.5c5.4-4,7.5-14,2.8-19.7-8.5-10.5-17.9-20.2-27.6-30.9-9.7,10.7-19.1,20.5-27.7,30.9-4.7,5.8-2.7,15.2,2.9,19.7,5.7,4.5,12.8,3.3,18.8-3,1.2-1.3,2.8-2.3,4.2-3.5.4.4.8.8,1.2,1.2-2.9,4.7-5.8,9.3-8.9,14.3h18.8c-2.9-4.9-5.8-9.6-8.6-14.4.9-.7,1.7-1.4,2.6-2.1.8,1.5,1.4,3.2,2.5,4.5,5.8,6.2,13.2,7.3,19,3h0Z"/>
      <path class="cls-7" d="M602.3,129.5c.5,6.1-2.5,11.6-7.7,14.3-5.7,2.9-12.7,1.9-17.6-2.5-.8-.7-1.7-1.5-2.5-2.2-.5.3-1,.5-1.5.8l-1.1-.5v-.3c-4.8,2.3-8.5,4.9-12.5,5.7-8.1,1.7-14.8-3.1-16.7-11.1-1.8-7.7,2.5-15.4,10.4-17.2,3.8-.8,4.3-2.5,4.6-5.7.8-8.1,6.7-13.3,14.4-13.3,8.2,0,14,5.1,14.7,13.6.3,3,.9,4.6,4.3,5.4,6.7,1.6,10.5,6.5,11,13h0Z"/>
      <path class="cls-7" d="M600-17.2c4.7,5.7,2.6,15.7-2.8,19.7-5.7,4.3-13.2,3.2-19-3-1.1-1.2-1.7-3-2.5-4.5-.9.7-1.7,1.4-2.6,2.1h-1.3c-.4-.3-.8-.7-1.2-1.1-1.4,1.2-2.9,2.2-4.2,3.5-6,6.3-13.1,7.5-18.8,3-5.6-4.5-7.6-13.9-2.9-19.7,8.6-10.4,18-20.2,27.7-30.9,9.6,10.7,19,20.4,27.6,30.9h0Z"/>
      <path class="cls-7" d="M581.7,11.5h-18.8c3.1-4.9,6-9.6,8.9-14.3h1.3c2.8,4.7,5.7,9.4,8.6,14.3Z"/>
      <path class="cls-8" d="M572.7-86.3c22.5,22.6,45.3,45.6,67.8,68.3-22.5,22.5-45.5,45.5-68.3,68.3-22.5-22.6-45.3-45.5-67.9-68.2,22.5-22.5,45.5-45.5,68.4-68.4h0ZM633.4-14.4c.9-.9,1.7-2,2.8-3.2-1-1.3-1.8-2.6-2.8-3.7-19.2-19.2-38.4-38.4-57.5-57.6-2.6-2.6-4.5-2.5-7.1.1-19.1,19.3-38.3,38.4-57.6,57.5-2.6,2.6-2.6,4.4,0,7,19.3,19.1,38.5,38.3,57.6,57.5,2.7,2.7,4.4,2.5,7-.1,19.1-19.3,38.4-38.4,57.5-57.6h0Z"/>
      <path class="cls-8" d="M572.7,204.5c22.5,22.6,45.4,45.5,67.9,68.1-22.6,22.6-45.5,45.6-68.1,68.2-22.4-22.6-45.3-45.7-67.9-68.5,22.1-22.1,45.2-45,68-67.8h0ZM633.9,275.7c2.3-2.3,2.1-3.9-.1-6.1-19.4-19.2-38.7-38.6-58.1-57.9-.9-.9-2-1.7-3.4-2.7-1.3,1-2.5,1.8-3.6,2.8-19.1,19-38.1,38.2-57.3,57.1-2.7,2.7-3.2,4.5-.2,7.4,19.3,19.1,38.5,38.3,57.6,57.6,2.4,2.4,4.1,2.8,6.6.3,19.4-19.5,38.9-39,58.4-58.4h0Z"/>
      <path class="cls-7" d="M580.7,156.8h-16.5c2.6-5.7,5.1-11.3,7.8-17.4l1.1.5c2.5,5.5,5,11,7.6,16.9h0Z"/>
      <path class="cls-8" d="M567.6,52.7c.5.5.8,1.2,1,1.5-23.2,23-46.1,45.9-69,68.6-22.6-22.5-45.7-45.5-69.3-69.1,10.4-10.3,21-20.7,31.5-31.2C473.2,11.4,484.5,0,495.8-11.4c2.1-2.2,3.8-4,7-.8,21.5,21.7,43.2,43.3,64.8,65ZM563.9,55.6c-.8-1.4-1.1-2.2-1.6-2.7-19.9-19.9-39.7-39.8-59.6-59.8-2.3-2.4-3.9-2-6.1.3-8,8.2-16.1,16.3-24.3,24.4-12.2,12.1-24.5,24.1-36.7,36,.9,1.7,1,2.2,1.2,2.4,20,20,40.1,40,60,60.1,2.9,2.9,4.4,1.5,6.5-.6,12.4-12.5,24.9-24.9,37.4-37.3,7.7-7.6,15.5-15.2,23.2-22.8h0Z"/>
      <path class="cls-7" d="M562.3,52.9c.5.5.8,1.3,1.6,2.7-7.7,7.6-15.5,15.1-23.2,22.8-12.5,12.4-24.9,24.8-37.4,37.3-2.1,2.1-3.6,3.5-6.5.6-19.9-20.1-40-40.1-60-60.1-.2-.2-.3-.7-1.2-2.4,12.1-11.9,24.4-23.9,36.7-36,8.2-8.1,16.3-16.1,24.3-24.4,2.2-2.3,3.8-2.6,6.1-.3,19.8,19.9,39.7,39.8,59.6,59.8h0ZM520.9,68c7.6-7.9,9.9-17.9,8.2-28.7-1.1-7-6.2-13.1-11.8-14.1-7.2-1.2-11.5,2.6-14.8,8.3-.6,1.1-1.5,2.1-2.7,3.8-1.9-2.8-3.2-4.9-4.8-6.8-6.4-7.8-15.3-7.6-21,.7-4,5.7-5.1,12.3-3.7,19.2,3.3,15.9,14.2,25.7,27.7,33.1,1.2.7,3.9.3,5.1-.7,6.2-4.8,12.6-9.4,17.9-14.9h0Z"/>
      <path class="cls-7" d="M561.3,197.2c2.4,2.4,2,3.9-.2,6.1-19.4,19.3-38.7,38.6-58,58-1.9,1.9-3.4,3.3-6.1.6-19.9-20.1-40-40.1-60-60.1-.4-.4-.6-1-1.3-2.3,15.5-15.4,30.8-30.6,46.1-45.8,4.9-4.9,9.8-9.7,14.5-14.7,2.3-2.4,3.9-3,6.6-.3,19.4,19.5,38.9,39,58.4,58.4h0ZM500,229c6.5-13.1,16-21.8,28.4-28.9-12.6-7.1-21.9-15.9-28.6-29-6.6,13.2-16,22.4-29.3,29.2,13.7,6.4,22.3,16.2,29.5,28.7h0Z"/>
      <path class="cls-8" d="M568.7,201.5c-4.9,4.8-10.5,10.1-16.1,15.6-16.2,16.2-32.5,32.4-48.6,48.7-3.2,3.3-5.2,3.7-8.7.1-20.5-20.8-41.2-41.4-61.9-62.1-1.1-1.1-2-2.2-3.1-3.4,23.4-23.3,46.4-46.2,69-68.7,22.6,22.8,45.6,45.9,69.3,69.7h0ZM561.2,203.3c2.2-2.2,2.6-3.7.2-6.1-19.5-19.4-39-38.9-58.4-58.4-2.6-2.7-4.3-2-6.6.3-4.7,5-9.7,9.8-14.5,14.7-15.3,15.2-30.6,30.4-46.1,45.8.8,1.3.9,1.9,1.3,2.3,20,20,40,40,60,60.1,2.7,2.7,4.2,1.3,6.1-.6,19.3-19.4,38.6-38.7,58-58h0Z"/>
      <path class="cls-8" d="M529.1,39.3c1.7,10.8-.6,20.8-8.2,28.7-5.3,5.6-11.7,10.2-17.9,14.9-1.2.9-3.8,1.3-5.1.7-13.5-7.4-24.4-17.2-27.7-33.1-1.4-6.8-.2-13.4,3.7-19.2,5.7-8.3,14.6-8.6,21-.7,1.5,1.9,2.8,4,4.8,6.8,1.2-1.7,2.1-2.7,2.7-3.8,3.3-5.8,7.7-9.6,14.8-8.3,5.6,1,10.7,7.1,11.8,14.1h0Z"/>
      <path class="cls-8" d="M528.4,200.1c-12.4,7.1-21.9,15.8-28.4,28.9-7.2-12.6-15.8-22.3-29.5-28.7,13.3-6.8,22.6-16,29.3-29.2,6.8,13.1,16,21.9,28.6,29h0Z"/>
      <path class="cls-8" d="M493.3,123.7c1,1,1.8,2.3,2.9,3.7-1.1,1.4-1.9,2.7-3,3.7-20.9,21-41.9,41.9-62.8,62.9-2.7,2.8-4.5,2.3-7-.3-20.6-20.7-41.2-41.5-62-62-3.4-3.3-3.4-5.3,0-8.7,20.7-20.4,41.2-41,61.6-61.6,2.9-2.9,4.8-3.4,7.9-.3,20.7,20.9,41.6,41.6,62.4,62.5h0ZM487.7,131.6c2.9-2.9,3.3-4.9.2-8-19.1-18.9-38.2-38-57.1-57.1-2.6-2.6-4.3-2.8-7,0-19.1,19.3-38.3,38.4-57.5,57.5-2.5,2.5-3,4.2-.2,7,19.4,19.2,38.7,38.5,58,57.8.9.9,2,1.6,3.3,2.5,1.3-1.1,2.5-2,3.6-3,18.9-18.9,37.8-37.8,56.8-56.7h0Z"/>
      <path class="cls-5" d="M488.8,269.9c.8.8,1.4,1.8,2.2,2.8-.9,1.2-1.5,2.4-2.4,3.3-19.4,19.5-38.9,38.9-58.4,58.4-2,2-3.6,2.2-5.8,0-19.5-19.6-39.1-39.2-58.8-58.8-3.2-3.2-.9-5,1.2-7,15-15,30-30,45-45,4.2-4.2,8.5-8.3,12.6-12.6,2.1-2.2,3.6-2.1,5.7,0,19.5,19.6,39.1,39.2,58.7,58.8h0ZM449.2,289.1c5.5-2.6,8.2-7.7,7.8-14.6-.5-7.3-5-11-11.5-13.3-1.5-.5-3.1-2.9-3.4-4.7-1.1-8.1-6.2-13.4-14.2-14-7-.5-14.3,4.7-15.1,12.1-.5,5-2.8,6.5-6.9,8-5.9,2.1-9.2,7.9-8.9,14,.3,5.8,4.2,10.8,9.8,12.9,7.4,2.8,13.2-.4,18.5-5.5.4.3.8.6,1.2.9-2.4,5.5-4.8,11.1-7.5,17.3,4.9,0,9.2,0,13.6,0,.9,0,1.9-.1,3-.2-2.7-5.8-5.1-11.2-7.5-16.5,1.9-.5,2.5-.3,2.9,0,5.3,5.4,11.3,6.8,18.3,3.6h0Z"/>
      <path class="cls-5" d="M488.4-21.2c2.4,2.4,2.7,4,.1,6.6-19.5,19.4-38.9,38.9-58.4,58.3-.8.8-1.7,1.4-2.9,2.4-1.3-1-2.5-1.8-3.6-2.8-18.9-18.9-37.8-37.9-56.8-56.7-3.1-3-3.6-5-.3-8.3,19.2-18.9,38.2-38,57.2-57.2,2.8-2.8,4.6-2.4,7,.1,19.1,19.3,38.3,38.5,57.6,57.6h0ZM448.9-1.3c5.8-2.4,8.8-8.2,8.1-15.1-.7-7.2-4.9-11.2-11.9-12.8-1.2-.3-2.7-2.5-2.9-4-1.3-9.3-6.2-14.4-14.6-14.5-8.6-.2-13.8,4.9-15.4,14.4-.3,1.6-2.2,3.7-3.8,4.3-6.4,2.2-10.6,6.8-11.2,13.1-.5,5.9,2.5,11.4,7.9,14.1,5.5,2.9,12.4,2.1,17.2-1.9,1.1-.9,2.1-1.8,3.2-2.6.4.3.8.6,1.2.8,0,0,0,0,0,.1-2.5,5.6-5,11.3-7.5,16.9h16.5c-2.7-5.8-5.1-11-7.5-16.2.5-.3,1-.6,1.5-.9.3.2.7.3,1,.5,5.3,5.4,11.6,6.6,18.4,3.8h0Z"/>
      <path class="cls-5" d="M487.9,123.6c3.1,3.1,2.7,5.1-.2,8-19,18.8-37.9,37.8-56.8,56.7-1,1-2.3,1.9-3.6,3-1.3-1-2.4-1.6-3.3-2.5-19.3-19.3-38.6-38.6-58-57.8-2.8-2.8-2.3-4.5.2-7,19.3-19.1,38.5-38.2,57.5-57.5,2.7-2.8,4.5-2.5,7,0,19,19.1,38,38.2,57.1,57.1h0ZM452.2,147.6c5.5-4.4,6.9-14.5,2.1-20.3-8.5-10-17.6-19.5-27.2-30-9.6,10.7-19.3,20.5-27.8,31.2-5,6.3-2.5,15.1,3.9,19.8,5.4,4,12.5,2.6,18.1-3.9,1.1-1.2,1.3-3.2,1.9-4.9,1,.8,1.9,1.6,2.8,2.4-1.1,2.5-2,5.1-3.4,7.4-1.4,2.4-3.4,4.5-5.6,7.4h19.3c-2.8-4.9-5.4-9.5-8-14,.7-.4,1.3-.9,2-1.3,1,1.2,1.8,2.4,2.9,3.5,5.9,6,13.5,7.1,19,2.8h0Z"/>
      <path class="cls-8" d="M495.7-17.9c-22.8,22.7-45.8,45.6-70.2,70-5.2-5.8-10.6-12.2-16.5-18.2-15.8-16.1-31.8-31.9-47.8-47.9-2.2-2.2-4-4-.9-7,21.5-21.3,42.8-42.7,64.2-64,.8-.8,1.8-1.3,2.1-1.5,23.3,23.1,46.3,45.9,69.1,68.6h0ZM488.5-14.6c2.6-2.6,2.3-4.2-.1-6.6-19.2-19.2-38.4-38.4-57.6-57.6-2.5-2.5-4.3-3-7-.1-18.9,19.2-38,38.2-57.2,57.2-3.4,3.3-2.8,5.3.3,8.3,19,18.8,37.8,37.8,56.8,56.7,1,1,2.3,1.8,3.6,2.8,1.2-1,2.1-1.6,2.9-2.4,19.5-19.5,38.8-39,58.4-58.3h0Z"/>
      <path class="cls-7" d="M457-16.4c.7,6.8-2.3,12.7-8.1,15.1-6.8,2.8-13.1,1.6-18.4-3.8-.2-.2-.6-.3-1-.5-.5.3-1,.6-1.5.9l-1.5-.7s0,0,0-.1c-.4-.3-.8-.6-1.2-.8-1.1.9-2.1,1.7-3.2,2.6-4.8,4-11.6,4.8-17.2,1.9-5.4-2.8-8.4-8.3-7.9-14.1.6-6.3,4.8-10.9,11.2-13.1,1.6-.6,3.5-2.7,3.8-4.3,1.6-9.6,6.8-14.6,15.4-14.4,8.3.2,13.3,5.3,14.6,14.5.2,1.5,1.7,3.7,2.9,4,7,1.6,11.2,5.6,11.9,12.8h0Z"/>
      <path class="cls-7" d="M454.2,127.3c4.9,5.8,3.4,15.9-2.1,20.3-5.4,4.4-13.1,3.3-19-2.8-1-1.1-1.9-2.3-2.9-3.5-.7.4-1.3.9-2,1.3l-2.2-.8c-1-.8-1.9-1.6-2.8-2.4-.6,1.6-.8,3.6-1.9,4.9-5.6,6.5-12.7,7.9-18.1,3.9-6.4-4.7-8.9-13.5-3.9-19.8,8.5-10.7,18.1-20.5,27.8-31.2,9.6,10.5,18.7,20,27.2,30h0Z"/>
      <path class="cls-8" d="M495.6,272.6c-22.7,22.8-45.6,45.7-68.4,68.6-22.7-22.8-45.5-45.9-68.2-68.8,22.5-22.3,45.5-45.1,68.3-67.8,22.6,22.5,45.6,45.4,68.3,68h0ZM491,272.7c-.8-1.1-1.4-2-2.2-2.8-19.6-19.6-39.2-39.2-58.7-58.8-2.1-2.1-3.6-2.2-5.7,0-4.1,4.3-8.4,8.4-12.6,12.6-15,15-30,30-45,45-2,2-4.4,3.9-1.2,7,19.7,19.5,39.2,39.1,58.8,58.8,2.1,2.2,3.8,2,5.8,0,19.4-19.5,38.9-38.9,58.4-58.4.9-.9,1.5-2.1,2.4-3.3h0Z"/>
      <path class="cls-7" d="M436.3,156.7h-19.3c2.3-2.9,4.2-5,5.6-7.4,1.4-2.3,2.3-4.9,3.4-7.4l2.2.8c2.6,4.6,5.2,9.1,8,14h0Z"/>
      <path class="cls-7" d="M435.6,11.5h-16.5c2.5-5.7,5-11.3,7.5-16.9l1.5.7c2.4,5.2,4.8,10.5,7.5,16.2h0Z"/>
      <path class="cls-8" d="M421.4,51.8c.9.9,1.6,2,2.4,3.2-1,1.2-1.7,2.3-2.7,3.2-21.2,21.2-42.4,42.4-63.6,63.7-2.2,2.3-3.8,2.4-6.1,0-21.3-21.4-42.6-42.8-64-64-3.2-3.1-1.3-4.8.9-7,20.8-20.8,41.7-41.6,62.4-62.5,3.2-3.3,5.2-2.4,7.9.4,17.9,18.1,35.9,36,53.9,54,3,3,6,5.9,8.9,8.9ZM415.8,58.1c2.6-2.5,2.4-4.1,0-6.5-19.4-19.3-38.7-38.6-58-58-2.5-2.5-4.1-2.5-6.5,0-19.1,19.3-38.3,38.5-57.6,57.6-2.9,2.8-2.7,4.6.1,7.4,19.3,19.1,38.4,38.4,57.6,57.5.9.9,2,1.6,3.2,2.6,1.3-1.1,2.5-2,3.6-3.1,19.2-19.2,38.3-38.4,57.6-57.5Z"/>
      <path class="cls-8" d="M423.8,199.9c-.9,1.2-1.6,2.3-2.5,3.2-21.2,21.2-42.5,42.4-63.6,63.7-2.6,2.6-4.2,2.2-6.6-.2-21-21.1-42.1-42.2-63.3-63.2-2.7-2.7-2.5-4.4,0-7,21-20.9,42-41.8,62.8-62.8,2.7-2.7,4.5-3.1,7.4-.2,21,21.2,42.1,42.2,63.1,63.3.9.9,1.6,2,2.5,3.2h0ZM415.7,203.4c2.7-2.7,2.5-4.3-.1-6.9-19.3-19.1-38.5-38.3-57.6-57.6-2.8-2.8-4.3-2.5-6.9,0-19.1,19.3-38.3,38.5-57.6,57.6-2.8,2.7-2.6,4.3,0,6.9,19.3,19.1,38.4,38.4,57.7,57.6.9.9,2,1.7,3.3,2.8,1.3-1,2.5-1.8,3.6-2.9,19.2-19.2,38.4-38.5,57.6-57.6h0Z"/>
      <path class="cls-7" d="M415.8,51.6c2.4,2.4,2.6,3.9,0,6.5-19.3,19.1-38.4,38.4-57.6,57.5-1,1-2.2,1.9-3.6,3.1-1.2-1-2.3-1.7-3.2-2.6-19.2-19.2-38.3-38.4-57.6-57.5-2.8-2.8-3-4.6-.1-7.4,19.3-19.1,38.5-38.3,57.6-57.6,2.5-2.5,4.1-2.5,6.5,0,19.3,19.4,38.6,38.8,58,58ZM354.5,83.9c6.8-13,16-22.1,29.1-29.1-13.4-6.7-22.2-16.1-29.2-28.6-6.8,13-15.9,21.9-28.6,28.6,12.6,7.1,22.1,16,28.7,29.1h0Z"/>
      <path class="cls-7" d="M415.5,196.5c2.7,2.6,2.8,4.2.1,6.9-19.3,19.1-38.4,38.4-57.6,57.6-1,1-2.3,1.8-3.6,2.9-1.3-1.1-2.3-1.8-3.3-2.8-19.2-19.2-38.4-38.4-57.7-57.6-2.6-2.6-2.8-4.2,0-6.9,19.3-19.1,38.5-38.3,57.6-57.6,2.6-2.6,4.2-2.9,6.9,0,19.1,19.3,38.3,38.5,57.6,57.6h0ZM376.5,212.2c7.8-9.3,10.5-20.3,5.8-32.2-2.1-5.2-5.7-9.2-11.7-9.8-5.8-.6-9.7,2.8-12.6,7.4-1,1.5-2,3-3.6,5.4-1.5-2.3-2.4-3.9-3.4-5.4-2.9-4.3-6.4-7.8-12.1-7.4-6,.4-10.5,4.1-11.8,9.4-1.5,6.3-2.6,13.4-1.1,19.5,3.3,14.1,14.1,22.8,26.2,29.5,1.5.8,4.7.3,6.2-.8,6.3-4.9,13-9.6,18.1-15.6h0Z"/>
      <path class="cls-8" d="M382.3,180c4.7,11.8,2,22.9-5.8,32.2-5.1,6-11.8,10.7-18.1,15.6-1.4,1.1-4.7,1.6-6.2.8-12.1-6.8-22.9-15.4-26.2-29.5-1.4-6.1-.4-13.2,1.1-19.5,1.3-5.3,5.8-9,11.8-9.4,5.6-.4,9.2,3,12.1,7.4,1,1.5,1.9,3.1,3.4,5.4,1.6-2.3,2.6-3.8,3.6-5.4,2.9-4.6,6.8-8,12.6-7.4,6,.6,9.6,4.6,11.7,9.8h0Z"/>
      <path class="cls-8" d="M383.6,54.8c-13.2,7-22.3,16.1-29.1,29.1-6.6-13.2-16.1-22-28.7-29.1,12.7-6.7,21.8-15.6,28.6-28.6,6.9,12.5,15.7,22,29.2,28.6h0Z"/>
      <path class="cls-8" d="M348,268.7c2.7,2.6,3.3,4.5.3,7.5-21.2,21-42.2,42.1-63.3,63.2-.9.9-2,1.6-2.9,2.3-23.1-23.1-46-46-68.7-68.7,23-22.8,46.1-45.7,70.2-69.6,8,8.3,16.4,17.3,25.1,26.1,13,13.2,26.1,26.2,39.3,39.3h0ZM341.9,277.3c3.7-3.6,3.5-5.7,0-9.2-18.9-18.6-37.7-37.4-56.3-56.3-3-3-4.6-2.6-7.4.1-11.5,11.7-23.1,23.3-34.9,34.8-8.5,8.4-17.3,16.6-25.8,24.8,1.1,1.9,1.4,2.6,1.9,3.1,19.8,19.9,39.7,39.8,59.5,59.7,2.7,2.7,4.5,1.4,6.6-.8,18.7-18.8,37.5-37.7,56.4-56.3h0Z"/>
      <path class="cls-8" d="M348.2,123.6c3.1,3.1,2.7,5-.3,7.9-20.8,20.6-41.5,41.2-62,62-3.1,3.1-4.9,3-7.8,0-20.6-20.8-41.3-41.4-62.1-62-3.4-3.3-2.8-5.4.2-8.4,20.8-20.6,41.4-41.3,62.1-62,1-1,2.3-1.8,3.6-2.9,1.3,1,2.4,1.7,3.3,2.6,21,20.9,41.9,41.9,62.9,62.7h0ZM343.1,130.8c.9-.9,1.7-2,2.8-3.3-1.2-1.4-2.2-2.8-3.4-3.9-18.8-18.8-37.7-37.4-56.3-56.4-3.5-3.6-5.4-3.2-8.7,0-18.5,18.8-37.1,37.4-55.9,55.9-3.6,3.5-3,5.6.2,8.8,18.7,18.5,37.4,37.1,55.9,55.9,3.2,3.2,5.1,3.4,8.3.1,18.9-19.2,38-38.1,57.1-57.2h0Z"/>
      <path class="cls-8" d="M347.4-22.3c3.6,3.6,3.5,5.5-.2,9.1-20.2,19.8-40.1,40-60.1,60-1.6,1.6-3.3,3.1-5.8,5.4-12.7-12.8-24.7-25.1-36.8-37.3-9.6-9.6-19.2-19.2-28.8-28.8-2.6-2.6-3.4-4.5-.3-7.5,21.5-21.2,42.8-42.6,64.2-64,.5-.5,1.2-1,2.4-1.9,3.9,3.8,7.9,7.6,11.8,11.4,17.9,17.8,35.6,35.8,53.6,53.5h0ZM343-14.4c.9-.9,1.6-2,2.6-3.3-1-1.3-1.8-2.6-2.9-3.6-19-19.1-38.1-38.1-57.1-57.2-2.7-2.7-4.6-3.2-7.5-.2-19,19.2-38.1,38.2-57.2,57.2-2.8,2.8-2.9,4.6,0,7.5,19.3,19.1,38.5,38.3,57.6,57.6,2.4,2.4,3.9,2.8,6.5.2,19.3-19.4,38.7-38.7,58-58h0Z"/>
      <path class="cls-5" d="M345.8,127.5c-1.1,1.3-1.8,2.4-2.8,3.3-19,19-38.2,38-57.1,57.2-3.2,3.3-5.1,3.1-8.3-.1-18.5-18.8-37.2-37.4-55.9-55.9-3.2-3.2-3.8-5.3-.2-8.8,18.8-18.5,37.4-37.1,55.9-55.9,3.3-3.3,5.2-3.7,8.7,0,18.6,18.9,37.5,37.6,56.3,56.4,1.2,1.2,2.2,2.5,3.4,3.9h0ZM305.3,142.9c5.3-3.3,7.7-8.6,6.6-14.8-1.4-7.8-6.8-11.6-14.5-12.6-1-11.8-5.5-17.6-14-18-9.2-.4-15.7,3.7-16.9,18-7.1,1.2-12.6,4.5-14.1,12.1-1.2,6.4.7,12,6.5,15.3,7.8,4.4,14.8,2.3,21.1-3.9.4.3.8.7,1.2,1-2.4,5.6-4.9,11.1-7.3,16.7h16.3c-2.6-5.9-5.1-11.4-7.5-16.8.4-.5.8-1,1.2-1.5,6.3,7.1,13.5,9.4,21.5,4.5h0Z"/>
      <path class="cls-5" d="M345.6-17.7c-1,1.3-1.7,2.4-2.6,3.3-19.3,19.3-38.7,38.6-58,58-2.6,2.6-4.1,2.2-6.5-.2-19.1-19.3-38.3-38.5-57.6-57.6-2.9-2.9-2.8-4.7,0-7.5,19.1-19,38.2-38,57.2-57.2,2.9-3,4.8-2.5,7.5.2,19,19.1,38.1,38.2,57.1,57.2,1,1,1.8,2.3,2.9,3.6h0ZM307.1,2c5.9-5,6.7-14,1.5-20.7-2.3-3-4.9-5.8-7.5-8.6-6.3-6.8-12.7-13.4-19.3-20.4-7.7,8.3-14.9,15.9-22,23.7-2.4,2.7-4.9,5.5-6.5,8.6-3.2,6.4-.9,14.6,4.7,18.4,5.6,3.8,11.8,2.7,17.4-3,1.3-1.3,2.6-2.5,3.9-3.8.5.4,1,.7,1.6,1.1-2.8,4.7-5.6,9.4-8.4,14.2h19.5c-2.1-2.7-4.1-4.8-5.6-7.3-1.4-2.3-2.4-5-3.5-7.5.8-.6,1.7-1.2,2.5-1.9.8,1.5,1.4,3.3,2.5,4.5,6.1,6.6,13.4,7.5,19.2,2.6h0Z"/>
      <path class="cls-5" d="M341.9,268.1c3.5,3.5,3.7,5.6,0,9.2-18.9,18.6-37.7,37.5-56.4,56.3-2.1,2.2-3.9,3.5-6.6.8-19.8-19.9-39.7-39.8-59.5-59.7-.5-.5-.8-1.3-1.9-3.1,8.5-8.2,17.2-16.4,25.8-24.8,11.7-11.5,23.4-23.1,34.9-34.8,2.7-2.8,4.4-3.1,7.4-.1,18.6,18.9,37.4,37.7,56.3,56.3h0ZM304.3,294.3c5.2-2.1,7.7-6.8,7.5-11.8-.2-4.1-1.8-8.8-4.4-11.9-6.5-8-13.8-15.3-20.8-22.9-1.4-1.5-3-2.8-4.8-4.6-4.1,4.3-7.8,8.1-11.4,12-5.1,5.5-10.2,10.9-15,16.6-5.1,6.2-4.5,15.9,1.1,20.8,5.7,5.1,13.6,4,19.7-2.7,1-1.1,1.5-2.6,2.3-3.9.8.6,1.6,1.2,2.5,1.8-2.6,4.7-5.2,9.3-7.9,14.1h18.2c-3.1-5-5.9-9.5-8.7-14.1.6-.4,1.2-.8,1.8-1.2,1.7,1.7,3.2,3.6,5,5.2,4.4,4,9.6,4.7,15,2.6h0Z"/>
      <path class="cls-7" d="M311.8,128.1c1.2,6.2-1.2,11.5-6.6,14.8-8,4.9-15.2,2.7-21.5-4.5-.4.5-.8,1-1.2,1.5h-1.5c-.4-.2-.8-.6-1.2-.9-6.3,6.2-13.3,8.3-21.1,3.9-5.8-3.3-7.7-8.9-6.5-15.3,1.5-7.6,7-10.9,14.1-12.1,1.3-14.3,7.8-18.4,16.9-18,8.4.4,13,6.2,14,18,7.7,1.1,13.1,4.9,14.5,12.6h0Z"/>
      <path class="cls-7" d="M308.5-18.7c5.2,6.6,4.5,15.7-1.5,20.7-5.8,4.9-13,4-19.2-2.6-1.1-1.2-1.7-3-2.5-4.5-.8.6-1.7,1.2-2.5,1.9l-2,.6c-.5-.4-1-.7-1.6-1.1-1.3,1.3-2.7,2.5-3.9,3.8-5.6,5.7-11.8,6.8-17.4,3-5.6-3.8-8-12-4.7-18.4,1.6-3.2,4.1-6,6.5-8.6,7-7.8,14.2-15.4,22-23.7,6.6,6.9,13,13.6,19.3,20.4,2.6,2.8,5.2,5.6,7.5,8.6h0Z"/>
      <path class="cls-7" d="M292,11.5h-19.5c2.8-4.8,5.6-9.5,8.4-14.2l2-.6c1.2,2.5,2.1,5.2,3.5,7.5,1.5,2.4,3.5,4.6,5.6,7.3h0Z"/>
      <path class="cls-7" d="M290.1,156.7h-16.3c2.4-5.5,4.9-11.1,7.3-16.7h1.5c2.4,5.3,4.8,10.7,7.5,16.7h0Z"/>
      <path class="cls-8" d="M276.3,51.6c.8.8,1.5,1.7,2.2,2.5-23.4,23.4-46.3,46.4-68.9,68.9-22.8-22.9-45.8-45.9-69-69.3.6-.7,1.7-2,2.9-3.2,20.4-20.4,40.9-40.8,61.2-61.4,3.5-3.5,5.5-3.8,9.1-.1,20.7,21,41.6,41.7,62.4,62.5h0ZM261.9,66.6c3.8-3.7,7.9-7.1,11.4-10.3-22.2-22.2-43.3-43.3-64-64.1-20.7,20.7-41.9,41.8-63.4,63.3.2.3.4.8.8,1.2,19.7,19.8,39.5,39.5,59.2,59.3,2.8,2.8,4.5,2.2,7-.3,16.3-16.5,32.6-32.8,49-49.1h0Z"/>
      <path class="cls-7" d="M269.1,195.6c1.3,1.3,2.6,2.7,3.7,3.8-21.5,21.3-42.7,42.3-63.7,63.1-20.3-20.5-41.4-41.8-62.9-63.5.6-.7,2-2.2,3.4-3.7,18.4-18.4,36.9-36.7,55.1-55.3,3.8-3.9,5.8-3.5,9.4.2,18.2,18.6,36.7,36.8,55.1,55.2h0ZM209.3,229.1c6.8-13,16-22.2,29.1-29-13.3-6.7-22.2-16.3-29.3-29-6.4,13.4-16.1,21.9-28.3,29.1,12.8,6.9,21.8,15.9,28.6,28.8Z"/>
      <path class="cls-8" d="M279.2,202.1c-3.8,3.3-8.5,6.9-12.6,11-17.7,17.4-35.3,35-52.7,52.7-3.5,3.6-5.5,3.6-9.1,0-20.4-20.7-41-41.2-61.6-61.7-2.5-2.5-3.9-4.2-.6-7.4,21.5-21.2,42.8-42.6,64.1-63.9.7-.7,1.4-1.2,1.9-1.6,23.2,23.3,46.1,46.4,70.5,71ZM272.7,199.5c-1.1-1.1-2.3-2.5-3.7-3.8-18.4-18.4-36.9-36.7-55.1-55.2-3.6-3.7-5.6-4.1-9.4-.2-18.2,18.6-36.7,36.9-55.1,55.3-1.4,1.4-2.8,3-3.4,3.7,21.5,21.7,42.6,42.9,62.9,63.5,20.9-20.7,42.2-41.8,63.7-63.1h0Z"/>
      <path class="cls-7" d="M273.4,56.3c-3.6,3.2-7.7,6.6-11.4,10.3-16.4,16.3-32.8,32.7-49,49.1-2.5,2.5-4.2,3.1-7,.3-19.6-19.8-39.4-39.5-59.2-59.3-.4-.4-.6-.9-.8-1.2,21.5-21.5,42.7-42.6,63.4-63.3,20.7,20.7,41.9,41.9,64,64.1h0ZM230.1,68.5c7.7-9.5,11.8-20.1,7.4-32.5-1.8-5.2-5-9.5-10.8-10.8-6.4-1.4-10.5,2.1-13.9,6.9-1.1,1.5-2.1,3.1-3.5,5.1-2.1-2.9-3.6-5.5-5.6-7.7-5.6-6.5-14.7-6.3-19.6.7-2,2.9-3.5,6.4-4.1,9.9-2.7,16.4,5.6,28.1,17.7,37.2,12.6,9.4,10.2,9.1,22.3.5,3.7-2.7,7.2-5.8,10-9.3h0Z"/>
      <path class="cls-8" d="M237.6,36c4.4,12.3.2,22.9-7.4,32.5-2.8,3.5-6.3,6.7-10,9.3-12.1,8.7-9.8,9-22.3-.5-12.2-9.1-20.5-20.8-17.7-37.2.6-3.4,2.1-7,4.1-9.9,4.9-7,14-7.2,19.6-.7,1.9,2.2,3.5,4.8,5.6,7.7,1.4-2.1,2.4-3.6,3.5-5.1,3.4-4.8,7.5-8.3,13.9-6.9,5.9,1.3,9,5.6,10.8,10.8h0Z"/>
      <path class="cls-8" d="M238.3,200.1c-13.1,6.7-22.3,16-29.1,29-6.8-12.9-15.8-21.9-28.6-28.8,12.2-7.2,21.9-15.7,28.3-29.1,7.1,12.6,16,22.3,29.3,29Z"/>
      <path class="cls-5" d="M200.4,272.7c.4.5.9,1.1,1.3,1.6-4.8,4.1-9.8,7.9-14.2,12.3-15.4,15.1-30.7,30.4-45.8,45.8-3.6,3.7-5.8,4.1-9.6.2-18.5-18.8-37.3-37.4-55.9-56-1.2-1.2-2.1-2.6-4-4.8,9.4-9.1,18.7-17.9,27.8-26.9,11.2-11,22.2-22.1,33.3-33.2,2.1-2.1,3.7-3.6,6.6-.7,19.5,19.7,39.2,39.3,58.7,58.9.8.8,1.3,1.8,1.9,2.7h0ZM158.8,289c5.4-2.8,8.2-7.6,7.9-13.6-.5-9.1-6.7-13.2-14.6-14.8-2-12.7-7-18.3-15.6-18.1-8.8.2-13.2,5.5-14.8,17.6-13.3,5.3-18,13-13.5,22.3,4.4,9.2,14,10,27.8,2.9-2.5,5.5-4.9,11-7.5,16.8h16.5c-2.7-6.1-5.1-11.5-7.6-16.9l1.3-.9c5.8,5.7,12.3,8.9,20.1,4.7h0Z"/>
      <path class="cls-5" d="M197.4,123.6c2.8,2.7,3.1,4.6.1,7.5-19,18.8-37.8,37.8-56.7,56.7-1.2,1.2-2.5,2.2-4.1,3.5-1.5-1.1-2.7-1.9-3.8-3-19.2-19.1-38.4-38.4-57.7-57.4-2.8-2.7-2.3-4.5.2-7,19-18.8,38-37.7,56.7-56.7,3.5-3.5,5.6-3,8.8.3,18.7,18.9,37.5,37.6,56.3,56.3h0ZM164.8,143.9c3.2-5.2,2.3-13.3-2.1-18.3-6.4-7.2-12.9-14.1-19.3-21.2-2.1-2.3-4-4.9-6.2-7.6-3.2,3.4-5.2,5.7-7.3,7.9-6.8,7.5-14,14.7-20.3,22.6-4.9,6.1-3.4,15.7,2.1,20.2,5.5,4.5,12.9,3.4,18.9-2.7,1.2-1.2,2.6-2.3,3.9-3.5.5.4,1,.8,1.5,1.2-2.9,4.6-5.7,9.2-8.7,14.1h19c-3.1-4.9-6-9.6-8.9-14.3.6-.4,1.2-.8,1.8-1.2,1.4,1.5,2.6,3.2,4.2,4.3,2.6,1.7,5.4,3.7,8.4,4.4,5.6,1.3,10.2-1.3,13.1-6.1h0Z"/>
      <path class="cls-5" d="M197.3-21.8c3.4,3.3,3,5.2-.1,8.3-19.1,18.8-37.9,37.8-56.9,56.7-1,1-2.2,1.9-3.5,2.9-1.3-1.1-2.4-1.8-3.4-2.7C114.2,24.2,95.1,4.9,75.7-14.1c-3.1-3-2.5-4.8.1-7.5,19.1-19,38.2-38,57.2-57.2,2.9-2.9,4.7-2.6,7.5.2,18.8,19,37.7,38,56.8,56.7h0ZM159.6-1.9c5-2.9,8-9,7-14.6-1-6.1-4.2-10.9-10.6-12.1-4.2-.7-4.3-3.1-4.7-6.3-1.1-8.5-6.8-13.1-15.4-12.7-7.6.3-13.1,5.4-13.7,13.4-.2,3.1-1,4.8-4.4,5.5-6.3,1.2-9.9,5.4-10.8,11.7-1,6.3,1.5,11.6,6.6,14.7,5.3,3.2,12.4,2.9,17.3-.8,1.3-.9,2.4-2,3.6-3.1.5.3,1,.6,1.5.9-2.6,5.6-5.2,11.2-7.7,16.8h16.6c-2.6-5.7-5.1-11.4-7.6-17,.5-.3.9-.6,1.4-.9,1.4,1.2,2.7,2.4,4.1,3.5,4.5,3.5,11.7,3.9,16.8.9h0Z"/>
      <path class="cls-7" d="M166.6-16.5c.9,5.7-2.1,11.7-7,14.6-5,3-12.3,2.6-16.8-.9-1.4-1.1-2.7-2.3-4.1-3.5-.5.3-.9.6-1.4.9l-1.3.2c-.5-.3-1-.6-1.5-.9-1.2,1-2.4,2.1-3.6,3.1-4.9,3.7-12,4-17.3.8-5.1-3.1-7.5-8.4-6.6-14.7,1-6.3,4.5-10.5,10.8-11.7,3.4-.7,4.1-2.4,4.4-5.5.6-8,6-13.1,13.7-13.4,8.7-.3,14.4,4.2,15.4,12.7.4,3.3.5,5.6,4.7,6.3,6.4,1.1,9.6,5.9,10.6,12.1h0Z"/>
      <path class="cls-7" d="M162.7,125.6c4.4,4.9,5.4,13,2.1,18.3-3,4.8-7.5,7.3-13.1,6.1-3-.7-5.8-2.7-8.4-4.4-1.6-1.1-2.8-2.8-4.2-4.3-.6.4-1.2.8-1.8,1.2l-1.3.2c-.5-.4-1-.8-1.5-1.2-1.3,1.2-2.7,2.3-3.9,3.5-6,6.1-13.4,7.2-18.9,2.7-5.6-4.6-7.1-14.1-2.1-20.2,6.3-7.9,13.5-15.1,20.3-22.6,2-2.3,4.1-4.5,7.3-7.9,2.2,2.7,4.1,5.2,6.2,7.6,6.4,7.1,13,14,19.3,21.2h0Z"/>
      <path class="cls-8" d="M205.2-17.8c-22.8,22.7-45.8,45.5-68.6,68.2C114.1,27.8,91.3,4.8,68.7-18c22.4-22.3,45.4-45.2,68-67.7,22.6,22.4,45.6,45.2,68.5,67.9h0ZM197.2-13.5c3.1-3.1,3.5-5,.1-8.3-19.1-18.8-38-37.7-56.8-56.7-2.7-2.8-4.6-3.1-7.5-.2-19,19.1-38.1,38.2-57.2,57.2-2.6,2.6-3.2,4.4-.1,7.5,19.3,19,38.5,38.3,57.7,57.5.9.9,2,1.6,3.4,2.7,1.3-1.1,2.5-1.9,3.5-2.9,19-18.9,37.8-37.9,56.9-56.7h0Z"/>
      <path class="cls-8" d="M136.1,58.7c23,23.2,45.8,46.1,68.7,69.3-22.2,22.3-45.1,45.2-68.6,68.7-6.1-6-12.4-12-18.5-18.2-15.7-15.7-31.3-31.4-47-47-2.5-2.5-3.8-4.3-.7-7.4,21.6-21.4,43.1-42.9,64.6-64.3.5-.5,1.2-.9,1.5-1.1h0ZM197.6,131.1c2.9-2.9,2.6-4.7-.1-7.5-18.9-18.7-37.7-37.4-56.3-56.3-3.2-3.3-5.3-3.8-8.8-.3-18.8,19.1-37.7,37.9-56.7,56.7-2.5,2.5-3,4.3-.2,7,19.3,19.1,38.5,38.3,57.7,57.4,1,1,2.3,1.8,3.8,3,1.5-1.3,2.9-2.3,4.1-3.5,18.9-18.9,37.7-37.9,56.7-56.7h0Z"/>
      <path class="cls-7" d="M146.2,156.7h-19c3-4.9,5.9-9.5,8.7-14.1l1.3-.2c2.9,4.7,5.9,9.4,8.9,14.3h0Z"/>
      <path class="cls-8" d="M136.9,204.4c22.7,22.6,45.6,45.6,68.4,68.3-22.8,22.7-45.7,45.6-68.5,68.2-22.5-22.7-45.4-45.8-68-68.6,22.2-22.1,45.2-45,68.1-67.9h0ZM201.7,274.3c-.4-.6-.9-1.1-1.3-1.6-.6-.9-1.1-2-1.9-2.7-19.6-19.6-39.2-39.2-58.7-58.9-2.8-2.9-4.5-1.4-6.6.7-11.1,11.1-22.1,22.2-33.3,33.2-9.1,9-18.3,17.8-27.8,26.9,1.8,2.2,2.8,3.6,4,4.8,18.6,18.7,37.4,37.2,55.9,56,3.8,3.9,6,3.5,9.6-.2,15.1-15.4,30.4-30.7,45.8-45.8,4.5-4.4,9.5-8.2,14.2-12.3h0Z"/>
      <path class="cls-7" d="M145,11.6h-16.6c2.5-5.6,5.1-11.2,7.7-16.8l1.3-.2c2.5,5.7,5.1,11.3,7.6,17Z"/>
      <path class="cls-8" d="M131.8,52.9c.5.5.8,1.2,1,1.4-23.1,23.1-46.1,46.1-68.7,68.6C41.7,100.3,18.8,77.1-4.7,53.5,10.6,38.2,26.4,22.4,42.2,6.6c6.2-6.2,12.5-12.3,18.7-18.6,2.2-2.3,3.8-2.4,6.2,0,21.6,21.7,43.2,43.3,64.8,64.9h0ZM127.7,55.1c-.7-1-1.2-2-2-2.8-19.7-19.8-39.4-39.5-59.3-59.1-.9-.8-4.1-.8-5,0C41.8,12.7,22.2,32.3,2.6,51.9c-2.2,2.2-2.4,3.8,0,6.1,19.4,19.2,38.8,38.6,58,58,2.6,2.6,4.3,2.7,7,0,19.1-19.3,38.4-38.4,57.5-57.6.9-.9,1.7-2,2.7-3.3Z"/>
      <path class="cls-7" d="M125.8,52.3c.8.8,1.3,1.8,2,2.8-1,1.2-1.8,2.3-2.7,3.3-19.2,19.2-38.4,38.4-57.5,57.6-2.7,2.7-4.4,2.6-7,0C41.3,96.6,21.9,77.3,2.5,58c-2.4-2.4-2.1-4,0-6.1C22.2,32.3,41.8,12.7,61.5-6.8c.9-.9,4.1-.9,5,0,19.9,19.6,39.6,39.3,59.3,59.1h0ZM64.1,83.5c6.8-12.7,16.2-21.6,28.6-28.8-12.7-6.9-22-15.9-28.8-29-6.4,13.5-16,22.1-28.5,29.2,12.9,6.9,21.7,16.2,28.7,28.6h0Z"/>
      <path class="cls-7" d="M124.8,196.2c2.8,2.7,3.1,4.5.1,7.4-19.3,19.1-38.4,38.3-57.6,57.5-.9.9-2,1.7-3.2,2.7-1.2-.9-2.3-1.6-3.2-2.5-19.3-19.3-38.6-38.7-58-57.9-2.7-2.7-2.5-4.4.1-7,19.3-19.1,38.5-38.3,57.6-57.6,2.8-2.8,4.4-2.3,6.9.2,19,19.1,38,38.2,57.2,57.1h0ZM89.1,207.8c5.5-9.9,7.1-20.3,1.2-30.5-5.2-9.1-15.1-9.6-21.6-1.4-1.5,1.9-2.8,4-4.7,6.8-1.8-2.7-3-4.6-4.4-6.4-6.6-8.7-16.9-8.5-21.8,1.1-2.5,5-3.8,11.4-3.2,17,1.8,16.9,13.7,26.5,27.3,34.4,1.2.7,3.5.4,4.8-.3,9.1-5.1,17.2-11.4,22.4-20.7h0Z"/>
      <path class="cls-8" d="M134,201.8c-3.2,2.7-7.2,5.4-10.5,8.7-18.6,18.5-37.1,37-55.5,55.6-2.9,3-4.9,3.2-7.9.2-21.1-21.3-42.4-42.5-63.6-63.7-.7-.7-1.2-1.4-1.5-1.8,23.1-23.1,46.1-46.1,69.1-69.1,22.7,22.7,45.6,45.7,70,70.1h0ZM124.9,203.6c3-2.9,2.6-4.6-.1-7.4-19.2-18.9-38.2-38-57.2-57.1-2.5-2.5-4.1-3.1-6.9-.2-19.1,19.3-38.3,38.5-57.6,57.6-2.6,2.6-2.8,4.3-.1,7,19.4,19.2,38.7,38.6,58,57.9.9.9,2,1.6,3.2,2.5,1.2-1,2.3-1.8,3.2-2.7,19.2-19.2,38.3-38.4,57.6-57.5h0Z"/>
      <path class="cls-8" d="M90.3,177.3c5.9,10.3,4.3,20.6-1.2,30.5-5.2,9.3-13.3,15.6-22.4,20.7-1.3.7-3.6,1-4.8.3-13.6-7.9-25.5-17.5-27.3-34.4-.6-5.5.7-12,3.2-17,4.8-9.6,15.1-9.8,21.8-1.1,1.4,1.8,2.6,3.7,4.4,6.4,1.9-2.8,3.2-4.8,4.7-6.8,6.5-8.2,16.4-7.8,21.6,1.4h0Z"/>
      <path class="cls-8" d="M92.6,54.7c-12.3,7.2-21.8,16-28.6,28.8-7-12.4-15.8-21.7-28.7-28.6,12.5-7.1,22.1-15.7,28.5-29.2,6.8,13.1,16,22.1,28.8,29h0Z"/>
      <path class="cls-8" d="M59.4,125.8c.4.4.6,1,1.4,2.4-8.5,8.4-17,16.7-25.4,25.1-13.3,13.2-26.6,26.5-39.7,39.8-2.9,3-5,3.8-8.4.4-20.9-21.1-41.9-42-62.9-62.9-2.4-2.4-2.3-4.2.2-6.6,21-20.9,41.9-41.9,62.9-62.8,2.3-2.3,4.2-3.3,7.1-.4,21.5,21.7,43.2,43.4,64.8,65h0ZM52.2,131.4c3.1-3.1,2.9-5,0-7.9-18.9-18.7-37.7-37.5-56.3-56.4-3.4-3.5-5.5-3.2-8.8.2-18.6,18.9-37.4,37.7-56.4,56.3-3.2,3.1-2.9,4.9,0,7.8,19.2,18.9,38.2,38,57.3,57.1.9.9,2,1.7,3.4,2.8,1.4-1.1,2.8-2.1,4-3.2,18.9-18.9,37.8-37.9,56.8-56.7h0Z"/>
      <path class="cls-5" d="M52.1,123.5c3,2.9,3.2,4.8,0,7.9-19,18.8-37.9,37.8-56.8,56.7-1.2,1.2-2.6,2.1-4,3.2-1.4-1.2-2.5-1.9-3.4-2.8-19.1-19-38.1-38.1-57.3-57.1-3-2.9-3.3-4.7,0-7.8,18.9-18.6,37.7-37.4,56.4-56.3,3.3-3.4,5.3-3.7,8.8-.2,18.6,18.9,37.5,37.7,56.3,56.4h0ZM13.6,143.8c5.2-2.6,8.3-8.2,7.8-14.2-.6-6.8-4.4-11.6-11.5-13.2-3.3-.7-3.6-2.3-3.8-5.1-.7-8.2-6.4-13.6-14-13.8-8.4-.2-14.4,5-15.2,13.7-.3,3.2-1.1,4.5-4.4,5.2-6.6,1.5-10.6,6.5-10.9,13.1-.3,6,2,10.8,7.5,13.8,5.2,2.9,12.7,2.2,17.3-1.6,1.1-.9,2.2-2,3.3-3,.4.3.9.7,1.3,1-2.5,5.6-5.1,11.2-7.7,17H-.2c-2.7-6-5.2-11.5-7.7-17.1.5-.3,1-.6,1.5-.8.8.7,1.7,1.5,2.5,2.3,5.1,4.5,11.7,5.5,17.6,2.6h0Z"/>
      <path class="cls-5" d="M52.1-21.7c3,3,3,4.9,0,7.9C33,5,14.1,23.9-4.8,42.8c-2.2,2.2-3.9,4-7,.9C-31.4,23.9-51.2,4.2-70.9-15.6c-.5-.5-.9-1.2-2.2-3,10.5-10.2,20.7-20.2,30.9-30.2,9.9-9.8,19.8-19.6,29.6-29.6,3-3.1,4.9-3.1,7.9,0C14.1-59.4,33-40.5,52.1-21.7ZM16.6,2.1c5.5-4.5,6.6-15,1.5-20.8C9.7-28.4.9-37.6-8.7-47.9c-9.4,10.4-18.7,20-27.2,30.3-5,6-3.3,15.5,2.5,20.1,5.7,4.5,12.8,3.4,18.8-2.9,1.2-1.3,2.8-2.3,4.2-3.5.4.4.8.8,1.2,1.2-2.9,4.7-5.8,9.3-8.9,14.3H.7C-2.3,6.6-5.1,1.9-7.9-2.9c.8-.6,1.6-1.2,2.4-1.8.9,1.4,1.6,3.1,2.8,4.3C3.1,5.9,10.9,6.8,16.6,2.1Z"/>
      <path class="cls-5" d="M52,268.8c3.1,3.1,2.9,5,0,7.9-19,18.8-37.9,37.8-56.8,56.7-1.1,1.1-2.3,1.9-3.8,3.1-1.3-1.1-2.6-1.9-3.6-2.9-19.1-19-38.1-38.1-57.2-57.1-3.1-3-2.9-4.8.1-7.8,19.2-18.9,38.3-38,57.2-57.1,2.8-2.8,4.4-2.5,6.9.1,19,19.1,38,38.2,57.2,57.2h0ZM16.3,292.7c5.5-4.7,7.1-14.2,2.4-19.7-8.6-10.2-17.8-19.9-27.4-30.5-9.7,10.8-19.3,20.6-27.7,31.3-4.8,6.1-2.4,15.1,3.5,19.5,5.5,4.1,12.4,2.8,18.3-3.2,1.2-1.3,2.6-2.4,3.9-3.6.5.4,1,.8,1.6,1.2-2.9,4.6-5.9,9.2-9,14.2H.5c-3-5-5.7-9.6-8.4-14.2.9-.7,1.8-1.3,2.7-2,1,1.6,1.8,3.5,3.1,4.8,5.4,5.7,13.4,6.6,18.4,2.3h0Z"/>
      <path class="cls-7" d="M21.4,129.6c.5,6-2.6,11.7-7.8,14.2-5.8,2.9-12.5,1.9-17.6-2.6-.8-.7-1.7-1.5-2.5-2.3-.5.3-1,.6-1.5.8h-1.1c-.4-.3-.9-.7-1.3-1-1.1,1-2.2,2.1-3.3,3-4.6,3.8-12.1,4.4-17.3,1.6-5.4-3-7.8-7.8-7.5-13.8.3-6.6,4.3-11.6,10.9-13.1,3.3-.7,4.1-2,4.4-5.2.8-8.8,6.8-13.9,15.2-13.7,7.6.2,13.4,5.6,14,13.8.2,2.8.5,4.4,3.8,5.1,7.1,1.6,10.9,6.4,11.5,13.2h0Z"/>
      <path class="cls-7" d="M18.1-18.8c5.1,5.8,4,16.3-1.5,20.8C10.9,6.8,3.1,5.9-2.8-.5c-1.1-1.2-1.8-2.8-2.8-4.3-.8.6-1.6,1.2-2.4,1.8h-1.3c-.4-.3-.8-.7-1.2-1.1-1.4,1.1-2.9,2.2-4.2,3.5-6,6.3-13.1,7.4-18.8,2.9-5.8-4.6-7.5-14.1-2.5-20.1,8.5-10.2,17.8-19.8,27.2-30.3C.9-37.6,9.7-28.4,18.1-18.8Z"/>
      <path class="cls-7" d="M.7,11.5h-18.8C-15.1,6.6-12.2,1.9-9.3-2.7h1.3C-5.1,1.9-2.3,6.6.7,11.5Z"/>
      <path class="cls-8" d="M-8.3,204.8c22.1,22.4,44.9,45.5,67.4,68.3-22.1,22.1-45.2,45.1-68.1,67.9-22.3-22.4-45.1-45.4-67.7-68.1,22.4-22.4,45.5-45.3,68.3-68.1h0ZM52,276.7c2.9-2.9,3.1-4.8,0-7.9-19.2-18.9-38.2-38-57.2-57.2-2.6-2.6-4.2-2.9-6.9-.1-18.9,19.2-38,38.2-57.2,57.1-3,3-3.2,4.8-.1,7.8,19.2,18.9,38.2,38.1,57.2,57.1,1,1,2.3,1.8,3.6,2.9,1.5-1.2,2.7-2,3.8-3.1,18.9-18.9,37.8-37.8,56.8-56.7Z"/>
      <path class="cls-8" d="M59.5-17.7C37.2,4.7,14.2,27.6-8.6,50.5-31.4,27.7-54.4,4.8-77.2-18.1-54.5-40.7-31.5-63.6-8.6-86.3,13.9-63.6,36.8-40.5,59.5-17.7ZM52-13.8c3-3,3.1-4.9,0-7.9C33-40.5,14.1-59.4-4.7-78.5c-3-3-5-3-7.9,0-9.7,10-19.6,19.8-29.6,29.6-10.2,10-20.5,20-30.9,30.2,1.3,1.8,1.7,2.5,2.2,3C-51.2,4.2-31.4,23.9-11.8,43.7c3.1,3.1,4.8,1.3,7-.9C14.1,23.9,33,5,52-13.8Z"/>
    </g>
  </g>
  <rect class="cls-4" x="89.9" y="25.5" width="507.5" height="207.5"/>
  <path class="cls-6" d="M531.1,233c-.4-18.5-6.4-37-18.2-52.7-11.9-15.9-27.6-26.9-46.8-32.1-32.8-8.9-61.9-1-88.2,20.6.3-1.8.5-3.7,1-5.5,4.5-17.4,3.6-34.7-2.8-51.4-21.5-56.9-92.1-74.4-137.8-34.3-28.3,24.8-37.5,64.6-22.4,98,8.7,19.1,21.8,33.9,42.1,41.4,1.4.5,2.5,1.9,3.7,2.9-1.5.6-3,1.8-4.6,1.8-21.4.5-41.5-3.7-60.1-14.8-10.4-6.2-18.2-15.1-26.5-23.5-1.4-1.4-4-1.8-6.1-2.6-.7,2-2,3.9-2.1,5.9,0,15.4,0,30.8-.1,46.3h368.7,0Z"/>
</svg>