<?xml version="1.0" encoding="UTF-8"?>
<svg id="Layer_1" data-name="Layer 1" xmlns="http://www.w3.org/2000/svg" xmlns:xlink="http://www.w3.org/1999/xlink" version="1.1" viewBox="0 0 169.1 236.5">
  <defs>
    <style>
      .cls-1 {
        fill: #5560ab;
      }

      .cls-1, .cls-2, .cls-3, .cls-4, .cls-5, .cls-6, .cls-7 {
        stroke-width: 0px;
      }

      .cls-8 {
        clip-path: url(#clippath);
      }

      .cls-2 {
        fill: none;
      }

      .cls-3 {
        fill: #e1d9d5;
      }

      .cls-4 {
        fill: #576bb2;
      }

      .cls-5 {
        fill: #9186c0;
      }

      .cls-6 {
        fill: #c497c5;
      }

      .cls-7 {
        fill: #7bc57f;
      }
    </style>
    <clipPath id="clippath">
      <rect class="cls-2" width="169.1" height="236.5"/>
    </clipPath>
  </defs>
  <g class="cls-8">
    <g>
      <path class="cls-6" d="M162,276.9c18.2-18.4,36.5-36.7,56.3-56.7,1,1.7,1.8,3.9,3.3,5.4,15.9,16.1,32,32.1,48,48,2.1,2.1,3,3.6.4,6.1-17.2,17-34.2,34.1-51.3,51.1-.6.6-1.3,1-1.7,1.3-18.6-18.6-36.9-37.1-55.1-55.3h0ZM196,285.4c4.9,5.7,11.1,10.4,16.7,15.5,2.5,2.2,5.2,2.2,7.7.1,5.3-4.5,11.2-8.5,15.6-13.8,6.5-7.8,8.9-17.1,5.1-27.1-1.8-4.7-4.9-8.5-10.3-9.1-5.3-.6-8.7,2.5-11.4,6.7-.8,1.2-1.6,2.4-2.8,4.3-1.3-1.9-2-3-2.8-4.1-2.8-4.1-6.1-7.7-11.7-6.9-5,.7-9.8,5.8-10.9,11.8-1.5,8.2-.8,16.3,4.7,22.7h0Z"/>
      <path class="cls-4" d="M220.7,98.5c-3.1-3.2-4.9-3.6-8.2-.2-15.8,16.2-31.9,32.1-47.9,48.1-1.2,1.3-2.4,2.6-3,3.2,18.7,18.9,37.1,37.4,54.8,55.3,18.2-18.1,36.7-36.4,55.5-54.9-.9-1-2-2.2-3.2-3.4-16-16-32.1-31.9-47.9-48.1h0ZM220.7,207.6c-3.1,3.1-4.8,3.1-7.9,0-17.7-18-35.7-35.9-53.6-53.7-2.1-2.1-3.4-3.7-.6-6.4,18.7-18.5,37.2-37.1,55.9-55.7.6-.6,1.2-1,1.7-1.4,20.2,20.3,40.2,40.4,61.4,61.8-3.3,2.9-7.4,6-11,9.6-15.4,15.2-30.7,30.4-45.9,45.9h0Z"/>
      <path class="cls-4" d="M156.9,277.3c19.9-19.8,40.1-39.8,59.8-59.4,19.3,19.4,39.3,39.5,59.1,59.4-19.5,19.3-39.6,39.3-59.7,59.3-19.6-19.6-39.6-39.5-59.2-59.2h0ZM218.3,220.2c-19.8,19.9-38.1,38.3-56.3,56.7,18.1,18.2,36.5,36.7,55.1,55.3.4-.3,1.2-.7,1.7-1.3,17.1-17.1,34.1-34.2,51.3-51.1,2.5-2.5,1.7-4-.4-6.1-16.1-16-32.1-31.9-48-48-1.5-1.5-2.3-3.7-3.3-5.4h0Z"/>
      <path class="cls-6" d="M219.8,77c-2.2,2.2-3.6,2.7-6.1.3-17.1-17.3-34.4-34.4-51.5-51.7-.3-.3-.6-.8-.7-1.1,18.7-18.7,37.2-37.1,55.2-55.1,18.1,18,36.5,36.5,55.8,55.8-3.1,2.8-6.7,5.7-10,9-14.3,14.2-28.6,28.4-42.7,42.8ZM206.6,43.6c10.9,8.2,8.9,8,19.4.4,3.2-2.3,6.2-5.1,8.7-8.1,6.7-8.3,10.3-17.5,6.5-28.3-1.6-4.6-4.3-8.3-9.4-9.4-5.6-1.2-9.2,1.8-12.1,6-.9,1.3-1.8,2.7-3,4.5-1.8-2.5-3.1-4.8-4.8-6.7-4.9-5.7-12.8-5.5-17.1.6-1.8,2.5-3.1,5.6-3.6,8.6-2.4,14.3,4.9,24.4,15.5,32.4h0Z"/>
      <path class="cls-6" d="M212.5,98.3c3.3-3.4,5.1-3,8.2.2,15.8,16.2,31.9,32.1,47.9,48.1,1.2,1.2,2.2,2.4,3.2,3.4-18.7,18.6-37.2,36.9-55.4,54.9-17.7-17.9-36.1-36.4-54.8-55.3.6-.6,1.7-1.9,3-3.2,16-16,32.1-31.9,47.9-48.1ZM191.7,150.6c11.2,6,19,13.9,24.9,25.1,5.9-11.3,13.9-19.4,25.3-25.2-11.6-5.8-19.3-14.2-25.5-25.2-5.6,11.7-14.1,19.1-24.7,25.4h0Z"/>
      <path class="cls-6" d="M148,102.4c-5.2,5.3-11.6,6.2-16.4,2.3-4.9-4-6.2-12.3-1.9-17.6,5.5-6.9,11.7-13.1,17.7-19.7,1.8-2,3.6-3.9,6.3-6.9,1.9,2.3,3.6,4.6,5.4,6.6,5.6,6.2,11.3,12.2,16.9,18.4,3.8,4.3,4.7,11.3,1.8,15.9-2.6,4.2-6.6,6.4-11.4,5.3-2.6-.6-5-2.3-7.3-3.8-1.4-.9-2.4-2.5-3.6-3.8-.5.4-1,.7-1.6,1.1h-1.2c-.4-.2-.9-.6-1.3-.9-1.1,1-2.3,2-3.4,3.1h0Z"/>
      <path class="cls-6" d="M152.8,224.6c-12,6.2-20.4,5.5-24.2-2.5-3.9-8.1.1-14.9,11.8-19.4,1.4-10.5,5.2-15.1,12.9-15.3,7.5-.2,11.9,4.7,13.6,15.8,6.9,1.4,12.3,4.9,12.8,12.9.3,5.2-2.2,9.4-6.9,11.9-6.8,3.6-12.5.9-17.5-4.1-.4.2-.8.5-1.2.8h-1.2Z"/>
      <path class="cls-6" d="M161.6,112.7h-16.5c2.6-4.2,5.1-8.3,7.6-12.3h1.2c2.6,3.9,5.1,8,7.8,12.3h0Z"/>
      <path class="cls-4" d="M161.4,24.5c.2.3.4.7.7,1.1,17.2,17.2,34.4,34.4,51.5,51.7,2.4,2.4,3.9,1.9,6.1-.3,14.2-14.3,28.4-28.6,42.7-42.8,3.3-3.3,6.9-6.2,10-9-19.3-19.3-37.7-37.7-55.8-55.8-18,18-36.5,36.4-55.2,55.1h0ZM216.9,83.4c-19.9-19.9-39.9-40-60.1-60.3.6-.6,1.5-1.8,2.5-2.8,17.8-17.8,35.6-35.5,53.3-53.5,3-3.1,4.8-3.3,8,0,18,18.3,36.2,36.3,54.3,54.4.7.7,1.3,1.5,2,2.2-20.4,20.4-40.4,40.4-60,60Z"/>
      <path class="cls-6" d="M160.6,239.3h-14.3c2.2-5,4.4-9.8,6.5-14.6h1.2c2.1,4.6,4.2,9.3,6.6,14.6Z"/>
      <path class="cls-5" d="M153.5,16.4c-1.2-.9-2.1-1.6-2.9-2.4-16.7-16.7-33.4-33.5-50.2-50.1-2.7-2.6-2.2-4.2.1-6.5,16.7-16.5,33.3-33.1,49.8-49.8,2.5-2.6,4.1-2.2,6.5.2,16.4,16.6,32.8,33.1,49.4,49.4,2.9,2.9,2.6,4.5-.1,7.2-16.6,16.4-33,32.9-49.5,49.4-.9.9-2,1.6-3.1,2.6ZM133.3-25.8c4.6,2.8,10.8,2.5,15.1-.7,1.1-.8,2.1-1.8,3.2-2.7.4.3.9.5,1.3.8-2.2,4.9-4.5,9.8-6.7,14.6h14.5c-2.2-5-4.4-9.9-6.7-14.8.4-.3.8-.5,1.2-.8,1.2,1,2.3,2.1,3.6,3,3.9,3,10.2,3.4,14.6.8,4.3-2.5,6.9-7.8,6.1-12.7-.9-5.3-3.7-9.5-9.2-10.5-3.6-.6-3.8-2.7-4.1-5.5-.9-7.4-5.9-11.4-13.4-11.1-6.6.2-11.4,4.7-11.9,11.7-.2,2.7-.9,4.2-3.8,4.8-5.5,1.1-8.6,4.7-9.4,10.2-.8,5.5,1.3,10.1,5.7,12.8Z"/>
      <path class="cls-5" d="M153.5,142.8c-1.3-1-2.4-1.7-3.3-2.6-16.8-16.7-33.4-33.4-50.2-50-2.4-2.4-2-3.9.2-6.1,16.5-16.4,33.1-32.8,49.4-49.4,3-3.1,4.9-2.6,7.7.2,16.2,16.4,32.6,32.8,49.1,49,2.4,2.4,2.7,4,.1,6.5-16.5,16.4-32.9,32.9-49.4,49.4-1,1-2.2,1.9-3.5,3h0ZM131.6,104.7c4.8,3.9,11.2,3,16.4-2.3,1.1-1.1,2.2-2,3.4-3.1.4.3.9.7,1.3,1-2.5,4-5,8.1-7.6,12.3h16.5c-2.7-4.3-5.2-8.3-7.8-12.4.5-.4,1-.7,1.6-1.1,1.2,1.3,2.2,2.8,3.6,3.8,2.3,1.5,4.7,3.2,7.3,3.8,4.9,1.1,8.9-1.1,11.4-5.3,2.8-4.6,2-11.6-1.8-15.9-5.5-6.2-11.3-12.3-16.9-18.4-1.9-2-3.5-4.3-5.4-6.6-2.8,3-4.6,4.9-6.3,6.9-5.9,6.5-12.2,12.8-17.7,19.7-4.3,5.3-3,13.7,1.9,17.6h0Z"/>
      <path class="cls-4" d="M212.7,87.6c-19.4,19.4-39.3,39.3-59.7,59.8-5.3-5.2-10.8-10.5-16.1-15.8-13.7-13.6-27.3-27.3-40.9-40.9-2.2-2.2-3.3-3.8-.6-6.5,18.8-18.6,37.5-37.3,56.2-56,.4-.5,1.1-.8,1.3-.9,20,20.2,39.9,40.2,59.8,60.3h0ZM150.2,140.2c.9.9,2,1.6,3.3,2.6,1.3-1.1,2.5-2,3.5-3,16.5-16.5,32.9-33,49.4-49.4,2.6-2.5,2.3-4.1-.1-6.5-16.4-16.3-32.8-32.6-49.1-49-2.8-2.8-4.6-3.3-7.7-.2-16.4,16.6-32.9,33-49.4,49.4-2.2,2.2-2.6,3.8-.2,6.1,16.8,16.6,33.5,33.3,50.2,50h0Z"/>
      <path class="cls-5" d="M157.7,265.7c-3.1,3.2-5.1,3.5-8.4.2-16.1-16.4-32.4-32.5-48.7-48.8-1-1-1.9-2.2-3.4-4.2,8.2-7.9,16.2-15.6,24.2-23.4,9.7-9.6,19.4-19.2,29-28.9,1.8-1.8,3.2-3.1,5.7-.6,17,17.1,34.1,34.2,51.1,51.3.7.7,1.1,1.6,1.7,2.4.4.5.8.9,1.1,1.4-4.1,3.6-8.5,6.9-12.4,10.7-13.4,13.2-26.8,26.4-39.9,39.9h0ZM128.5,222.1c3.8,8,12.2,8.7,24.2,2.5-2.1,4.8-4.3,9.6-6.5,14.6h14.3c-2.4-5.3-4.5-10-6.6-14.7.4-.3.8-.5,1.2-.8,5.1,5,10.7,7.7,17.5,4.1,4.7-2.4,7.1-6.6,6.9-11.9-.5-7.9-5.8-11.5-12.8-12.9-1.7-11.1-6.1-16-13.6-15.8-7.6.2-11.5,4.8-12.9,15.3-11.6,4.6-15.7,11.3-11.8,19.4Z"/>
      <path class="cls-4" d="M100.4-42.6c-2.3,2.3-2.8,3.9-.1,6.5,16.8,16.6,33.5,33.4,50.2,50.1.8.8,1.8,1.4,2.9,2.4,1.1-.9,2.2-1.7,3.1-2.6,16.5-16.5,32.9-33,49.5-49.4,2.7-2.7,3.1-4.3.1-7.2-16.6-16.3-33.1-32.9-49.4-49.4-2.4-2.4-4-2.7-6.5-.2-16.5,16.7-33.2,33.2-49.8,49.8ZM153.3,20.1C133.7.4,113.9-19.6,94.2-39.5c19.5-19.4,39.5-39.4,59.2-59,19.7,19.5,39.8,39.4,59.6,59.1C193.2-19.5,173.2.4,153.3,20.1Z"/>
      <path class="cls-4" d="M97.2,212.9c1.6,1.9,2.4,3.2,3.4,4.2,16.2,16.2,32.6,32.4,48.7,48.8,3.3,3.4,5.2,3,8.4-.2,13.1-13.4,26.5-26.7,39.9-39.9,3.9-3.8,8.3-7.2,12.4-10.7-.4-.5-.8-.9-1.1-1.4-.6-.8-1-1.7-1.7-2.4-17.1-17.1-34.2-34.1-51.1-51.3-2.5-2.5-3.9-1.2-5.7.6-9.6,9.7-19.3,19.3-29,28.9-7.9,7.8-16,15.5-24.2,23.4h0ZM153.5,273.1c-19.6-19.7-39.5-39.9-59.2-59.8,19.3-19.3,39.3-39.2,59.3-59.1,19.7,19.7,39.7,39.7,59.5,59.5-19.8,19.8-39.8,39.7-59.6,59.4h0Z"/>
      <path class="cls-4" d="M30,151.1c20.2-20.1,40.2-40.1,60.2-60.2,19.8,19.8,39.7,39.8,60.9,61.1-2.8,2.3-6.2,4.7-9.2,7.6-16.2,16.1-32.3,32.2-48.4,48.4-2.6,2.6-4.3,2.8-6.9.1-18.4-18.6-36.9-37-55.4-55.5-.6-.6-1-1.2-1.3-1.6ZM37,147.2c-2.3,2.3-2.5,3.7-.1,6.1,16.9,16.8,33.7,33.6,50.5,50.4.8.8,1.8,1.4,2.8,2.2,1.1-.9,2-1.6,2.8-2.4,16.7-16.7,33.4-33.5,50.2-50.1,2.6-2.6,2.3-4.1-.1-6.4-16.7-16.5-33.3-33.1-49.8-49.8-2.2-2.2-3.6-2.7-6.1-.2-16.6,16.8-33.3,33.5-50.1,50.1Z"/>
      <path class="cls-4" d="M90.1,48.9c-6.1-10.8-13.8-18.9-25-24.9,10.9-6.2,19.3-13.7,24.8-25.4,5.9,11.4,13.9,19.3,25,25.3-10.7,6.3-19,14-24.9,25.1Z"/>
      <path class="cls-6" d="M93.2,77.2c-2.3,2.3-3.8,2.3-6.1,0-16.8-16.9-33.6-33.7-50.5-50.5-2.1-2-1.8-3.5,0-5.4C53.7,4.4,70.7-12.7,87.9-29.7c.8-.8,3.6-.8,4.3,0,17.3,17,34.5,34.2,51.6,51.5.7.7,1.1,1.6,1.7,2.5-.9,1.1-1.5,2-2.4,2.8-16.7,16.7-33.5,33.4-50.1,50.2ZM65.1,24.1c11.2,6,18.9,14.1,25,24.9,5.9-11.1,14.1-18.8,24.9-25.1-11.1-6-19.2-13.9-25-25.3-5.6,11.7-14,19.2-24.8,25.4Z"/>
      <path class="cls-6" d="M92.6,330.6c-1.8,1.8-3.1,2-5,.1-17-17.1-34.1-34.2-51.2-51.2-2.1-2.1-1.6-3.5.2-5.4,17-16.9,33.9-33.9,50.8-50.9,2.1-2.1,3.4-1.6,5.3.2,16.8,16.9,33.7,33.7,50.5,50.5.8.8,1.4,1.8,2.2,2.8-.8,1-1.4,2-2.2,2.8-16.9,17-33.9,33.9-50.8,50.9h0ZM65,277.1c11.3,5.7,19,13.9,25.1,24.9,6-11.1,13.8-19.2,25.4-25-11.8-5.9-19.4-14.3-25.6-25.1-5.8,11.5-14.1,19.1-24.9,25.2h0Z"/>
      <path class="cls-6" d="M90.2,205.9c-1-.8-2-1.4-2.8-2.2-16.8-16.8-33.6-33.7-50.5-50.4-2.3-2.3-2.2-3.8.1-6.1,16.8-16.6,33.5-33.3,50.1-50.1,2.5-2.5,3.9-2,6.1.2,16.5,16.7,33.1,33.3,49.8,49.8,2.4,2.4,2.7,3.9.1,6.4-16.8,16.6-33.4,33.4-50.2,50.1-.8.8-1.7,1.5-2.8,2.4h0ZM64.5,145.5c1.6,14.7,11.9,23.1,23.8,30,1,.6,3,.4,4.1-.3,7.9-4.5,15-9.9,19.5-18,4.8-8.6,6.2-17.6,1.1-26.6-4.6-8-13.2-8.4-18.8-1.2-1.3,1.7-2.4,3.5-4.1,5.9-1.6-2.3-2.7-4-3.8-5.5-5.8-7.5-14.7-7.4-18.9,1-2.2,4.4-3.3,10-2.8,14.8Z"/>
      <path class="cls-4" d="M36.6,21.4c-1.9,1.9-2.1,3.3,0,5.4,16.9,16.8,33.8,33.6,50.5,50.5,2.3,2.3,3.8,2.3,6.1,0,16.6-16.8,33.4-33.5,50.1-50.2.8-.8,1.5-1.8,2.4-2.8-.6-.9-1.1-1.8-1.7-2.5C126.7,4.5,109.5-12.7,92.2-29.7c-.8-.7-3.6-.7-4.3,0C70.7-12.7,53.7,4.4,36.6,21.4ZM90.2,83.2c-19.5-19.7-39.5-39.8-60-60.5,13.3-13.3,27.1-27,40.9-40.8,5.4-5.4,10.9-10.7,16.2-16.2,1.9-2,3.3-2.1,5.4,0,18.8,18.9,37.6,37.7,56.5,56.6.4.5.7,1.1.8,1.2-20.1,20.1-40.1,40.1-59.8,59.8Z"/>
      <path class="cls-4" d="M67.3,130.7c4.2-8.4,13.2-8.5,19-1,1.2,1.6,2.3,3.2,3.8,5.5,1.7-2.4,2.8-4.2,4.1-5.9,5.6-7.2,14.3-6.8,18.8,1.2,5.1,8.9,3.8,18-1.1,26.6-4.5,8.1-11.6,13.6-19.5,18-1.1.6-3.1.9-4.1.3-11.8-6.9-22.2-15.3-23.8-30-.5-4.8.6-10.4,2.8-14.8Z"/>
      <path class="cls-6" d="M22.4,99.7c-4,3.3-10.6,3.9-15.1,1.4-4.7-2.6-6.8-6.8-6.5-12,.3-5.8,3.7-10.1,9.5-11.4,2.9-.7,3.6-1.8,3.9-4.6.7-7.6,5.9-12.1,13.2-12,6.7.2,11.6,4.9,12.2,12,.2,2.4.5,3.8,3.3,4.4,6.2,1.4,9.5,5.6,10,11.5.4,5.2-2.3,10.2-6.8,12.4-5.1,2.5-10.9,1.7-15.3-2.2-.7-.6-1.4-1.3-2.2-2-.4.2-.9.5-1.3.7h-1c-.4-.3-.8-.6-1.1-.9-1,.9-1.9,1.8-2.9,2.6Z"/>
      <path class="cls-6" d="M21.7,228.7c-5.1,5.3-11.1,6.4-16,2.8-5.2-3.8-7.3-11.6-3.1-16.9,7.4-9.3,15.8-17.9,24.2-27.3,8.4,9.3,16.4,17.7,23.9,26.6,4.1,4.8,2.7,13.1-2.1,17.2-4.4,3.8-11.3,3-16.1-2-1.1-1.2-1.8-2.8-2.7-4.2-.8.6-1.6,1.2-2.4,1.8h-1c-.5-.4-.9-.7-1.4-1.1-1.1,1-2.3,2-3.4,3.1h0Z"/>
      <path class="cls-4" d="M36.8,274.2c-1.9,1.9-2.3,3.3-.2,5.4,17.1,17,34.1,34.1,51.2,51.2,1.9,1.9,3.2,1.7,5-.1,16.9-17,33.8-33.9,50.8-50.9.8-.8,1.4-1.8,2.2-2.8-.8-1-1.4-2-2.2-2.8-16.8-16.9-33.7-33.7-50.5-50.5-1.9-1.9-3.2-2.4-5.3-.2-16.9,17-33.8,34-50.8,50.9ZM89.8,336c-19-19.2-39-39.3-59.1-59.4,19.5-19.4,39.4-39.4,59.1-59.1,19.6,19.7,39.5,39.9,59.3,59.8-19.3,19.1-39.5,39-59.4,58.7h0Z"/>
      <path class="cls-6" d="M18.6,239c2.7-4.3,5.3-8.3,7.9-12.4h1c2.4,4,4.7,8,7.3,12.4h-16.2Z"/>
      <path class="cls-6" d="M34.2,112.8h-14.4c2.3-5.1,4.5-10,6.7-14.8h1c2.2,4.8,4.4,9.6,6.7,14.8Z"/>
      <path class="cls-5" d="M23.1,34.8c2.9-2.9,4.6-3.2,7.6-.2,16.2,16.5,32.6,32.8,49.1,49.1,2.6,2.6,2.8,4.2,0,6.9-16.6,16.4-33,32.9-49.5,49.4-1,1-2.2,1.8-3.5,2.8-1.2-1-2.1-1.7-2.9-2.5C7.3,123.8-9.3,107.1-25.9,90.7c-2.6-2.5-2.8-4.1,0-6.8C-9.5,67.7,6.8,51.3,23.1,34.8ZM7.3,101.1c4.5,2.5,11.1,1.9,15.1-1.4,1-.8,1.9-1.7,2.9-2.6.4.3.8.6,1.1.9-2.2,4.9-4.4,9.7-6.7,14.8h14.4c-2.4-5.2-4.5-10.1-6.7-14.9.4-.2.9-.5,1.3-.7.7.7,1.4,1.3,2.2,2,4.4,3.9,10.2,4.8,15.3,2.2,4.5-2.2,7.2-7.1,6.8-12.4-.5-5.9-3.8-10.1-10-11.5-2.9-.7-3.2-2-3.3-4.4-.6-7.1-5.5-11.9-12.2-12-7.4-.2-12.6,4.4-13.2,12-.2,2.8-1,3.9-3.9,4.6-5.8,1.3-9.2,5.7-9.5,11.4-.3,5.2,1.8,9.4,6.5,12Z"/>
      <path class="cls-5" d="M26.9,269.2c-1.2-.9-2.3-1.6-3.2-2.5-16.6-16.6-33.2-33.2-49.8-49.7-2.7-2.6-2.5-4.2.1-6.8,16.7-16.5,33.3-33.1,49.8-49.8,2.4-2.4,3.8-2.1,6.1,0,16.5,16.7,33.1,33.3,49.8,49.8,2.7,2.7,2.5,4.4,0,6.9-16.5,16.4-33,32.9-49.5,49.4-.9.9-2,1.6-3.3,2.7h0ZM5.7,231.6c4.8,3.6,10.8,2.5,16-2.8,1.1-1.1,2.2-2.1,3.4-3.1.5.4.9.7,1.4,1.1-2.5,4-5.1,8-7.9,12.4h16.2c-2.6-4.4-5-8.4-7.4-12.3.8-.6,1.6-1.2,2.4-1.8.9,1.4,1.6,3,2.7,4.2,4.7,4.9,11.7,5.7,16.1,2,4.7-4.1,6.1-12.4,2.1-17.2-7.5-8.9-15.5-17.3-23.9-26.6-8.4,9.4-16.8,17.9-24.2,27.3-4.2,5.3-2.1,13.1,3.1,16.9h0Z"/>
      <path class="cls-4" d="M30.7,144.4c-2.6,2.6-4.4,3.3-7.3.3C5.2,126.4-13.1,108.2-31.4,90c-2.1-2.1-2-3.6.1-5.8C-13,66,5.3,47.8,23.5,29.5c2-2,3.7-2.9,6.2-.4,18.8,18.9,37.6,37.8,56.4,56.6.3.3.5.8,1.2,2.1-7.4,7.3-14.8,14.6-22.1,21.8-11.6,11.5-23.1,23-34.6,34.7h0ZM23.9,140.3c.8.8,1.7,1.5,2.9,2.5,1.2-1,2.5-1.8,3.5-2.8,16.5-16.5,32.9-33,49.5-49.4,2.7-2.7,2.5-4.3,0-6.9-16.4-16.3-32.8-32.6-49.1-49.1-3-3-4.8-2.8-7.6.2C6.8,51.3-9.5,67.7-26,83.9c-2.8,2.7-2.5,4.3,0,6.8,16.7,16.5,33.2,33.1,49.9,49.7Z"/>
      <path class="cls-5" d="M30.1,13.5c-1.9,1.9-3.4,3.5-6.1.8C7-3-10.2-20.1-27.4-37.3c-.5-.5-.8-1-1.9-2.6,9.1-8.9,18.1-17.6,26.9-26.3,8.6-8.5,17.3-17.1,25.7-25.8,2.6-2.7,4.3-2.7,6.9,0,16.4,16.6,32.8,33,49.4,49.4,2.6,2.6,2.6,4.3,0,6.9C63.1-19.5,46.6-3,30.1,13.5ZM3.1-39.2C-1.3-34,.2-25.6,5.3-21.6c5,4,11.1,3,16.3-2.5,1.1-1.1,2.4-2,3.6-3l1,1c-2.5,4.1-5.1,8.1-7.7,12.4h16.4c-2.5-4.3-5-8.4-7.5-12.6.7-.5,1.4-1.1,2.1-1.6.8,1.2,1.4,2.7,2.4,3.7,5.2,5.5,11.9,6.3,16.9,2.2,4.8-4,5.8-13.1,1.3-18.2-7.3-8.4-15-16.4-23.4-25.4-8.2,9.1-16.3,17.5-23.7,26.4Z"/>
      <path class="cls-6" d="M-61.9,150.6c11.9,5.8,19.4,14.2,25.7,24.8,5.9-11.1,13.8-18.8,24.7-24.8-10.9-6.2-19.1-14-24.9-25.1-6.1,11-13.9,19.3-25.5,25.1ZM-61.9,181.2v-62c7.3-7,14.7-13.9,21.7-21.1,2.9-3,4.5-3.1,7.5,0C-16.3,114.6.2,131,16.7,147.5c.9.9,1.6,2,2,2.3-18.7,18.8-37.1,37.2-56.3,56.6-7.9-8.2-16.1-16.7-24.2-25.2Z"/>
      <path class="cls-4" d="M-38,215.8c21.3,21.3,41.4,41.4,61.2,61.3-19.7,19.6-39.7,39.5-60.2,59.8-.9-.8-1.7-1.6-2.6-2.5l1.4-1.5C-18.5,313.3,0,294.8,18,276.8,0,258.7-18.4,240.3-37.5,221.3c-7.9,8.1-16.2,16.5-24.4,24.9v-5c8.1-8.6,16.1-17.2,23.8-25.4h0Z"/>
      <path class="cls-4" d="M-26,210.2c-2.6,2.6-2.8,4.2-.1,6.8,16.7,16.5,33.2,33.1,49.8,49.7.9.9,2,1.6,3.2,2.5,1.3-1,2.4-1.8,3.3-2.7,16.5-16.4,33-33,49.5-49.4,2.5-2.5,2.7-4.2,0-6.9-16.7-16.5-33.3-33.1-49.8-49.8-2.2-2.2-3.6-2.5-6,0-16.5,16.7-33.1,33.3-49.8,49.8ZM26.6,273.2c-19.4-19.5-39.3-39.6-58.9-59.3,19.5-19.5,39.6-39.5,59.5-59.3,19.3,19.5,39.1,39.6,58.7,59.5-19.3,19.2-39.3,39.2-59.3,59.1Z"/>
      <path class="cls-4" d="M-29.3-40c1.1,1.6,1.4,2.2,1.9,2.6C-10.2-20.1,7-3,24.1,14.3c2.7,2.7,4.2,1.1,6.1-.8C46.6-3,63.1-19.5,79.6-35.8c2.6-2.6,2.7-4.3,0-6.9-16.6-16.4-33-32.9-49.4-49.4-2.6-2.6-4.3-2.6-6.9,0-8.5,8.7-17.1,17.3-25.7,25.8-8.9,8.8-17.8,17.4-26.9,26.3ZM26.9,20.2C7,.3-13-19.6-32.9-39.5-13.1-59.2,7-79.1,26.8-98.9c19.6,19.7,39.6,39.8,59.3,59.7C66.7-19.7,46.8.3,26.9,20.2Z"/>
      <path class="cls-4" d="M-36.7,211.1c-8.4-8.3-16.8-16.6-25.1-24.9v-5c8.2,8.5,16.3,17,24.2,25.2,19.3-19.3,37.6-37.8,56.3-56.6-.3-.4-1.1-1.4-2-2.3C.2,131-16.3,114.6-32.7,98c-3-3-4.6-2.9-7.5,0-7,7.3-14.5,14.1-21.7,21.1v-5l20.4-19.6c1.5-1.5,3.1-3,5-4.8,2.1,2,4,3.7,5.9,5.6,17.2,17.2,34.3,34.4,51.5,51.5,1.9,1.9,4,3.4.9,6.4-18.8,18.6-37.5,37.3-56.2,56-.6.6-1.3,1-2.4,1.8h0Z"/>
      <path class="cls-6" d="M-61.9,276.2c3.1,8.4,8.5,15,15.4,20.5,9.3,7.4,10.3,7.5,19.7.3,3.3-2.5,6.3-5.5,9-8.6,6.1-7,8.4-15.3,7-24.6-.9-6.1-5.4-11.7-10.6-12.7-6.1-1.2-9.5,2.7-12.5,7.2-.7,1-1.5,2-2.5,3.5-1.8-2.5-3.2-4.8-4.8-6.8-4.7-5.5-11.9-5.5-16.4,0-1.8,2.1-2.8,4.8-4.2,7.3v-16c8.2-8.4,16.5-16.8,24.4-24.9C-18.4,240.3,0,258.7,18,276.8,0,294.8-18.5,313.3-38.2,332.9c-.9-1.4-1.9-3.4-3.4-4.9-6.7-6.7-13.5-13.2-20.3-19.8v-32Z"/>
      <path class="cls-6" d="M-61.9,23.2c3.9,10.1,10.8,17.7,19.7,23.7,4.2,2.8,7.6,3.3,11.5-.1,3.4-2.9,7.1-5.5,10.3-8.6,7.7-7.5,11.2-16.7,9.5-27.6-1-6.1-5.4-11.5-10.1-12.4-5.5-1.1-9.2,1-13.3,7.5-.6.9-1.4,1.7-2.4,2.9-1.5-2.1-2.6-3.9-3.9-5.5-5.4-7-13.7-6.7-18.6.6-1,1.5-1.9,3.1-2.8,4.6V-6.8c8.1-8.5,16.3-17,23.9-24.9C-18.5-12.3,0,6.1,18.7,24.6c0,0,0,0,0,0,0,0,0,.3-.3.5C1,42.6-16.4,60-33.7,77.5c-2.4,2.4-3.8,1.4-5.7-.5-7.4-7.3-15-14.5-22.5-21.8,0,0,0-32,0-32Z"/>
      <path class="cls-4" d="M-38-31.7c-7.6,7.9-15.7,16.4-23.9,24.9v-5c8.4-8.3,16.7-16.5,24.8-24.5C-16.6-15.9,3.4,4.1,23.1,23.8,4.9,41.9-13.5,60.2-32.3,78.9l-1.4-1.4C-16.4,60,1,42.6,18.4,25.1c.2-.2.3-.5.3-.5,0,0,0,0,0,0C0,6.1-18.5-12.3-38-31.7Z"/>
      <path class="cls-1" d="M281.3,153.3c-21,20.9-41.1,40.8-61.1,60.6,19.8,19.8,39.7,39.7,59.9,59.8.7-.6,1.7-1.2,2.5-2,18.4-18.3,36.7-36.8,55.1-55,2.6-2.6,2.1-4.2-.2-6.5-11.5-11.3-22.9-22.7-34.2-34.2-7.6-7.7-14.9-15.5-21.9-22.7h0ZM276.6,144.7c2.6,2.6,4.1,2.7,6.8,0,17.9-18.1,35.9-36.1,54-54,2.5-2.5,2.9-4.2.2-6.9-18.3-18.1-36.5-36.4-54.8-54.6-.8-.8-1.8-1.4-2.9-2.3-1.2.9-2.3,1.6-3.2,2.5-18,18-36,36-54.1,54-2.6,2.6-3.1,4.4-.2,7.3,18.1,17.9,36.1,35.9,54.1,54h0ZM273.7-111.1c2,1.9,4,3.8,6.2,5.8,1.4-1.2,2.4-2.1,3.3-3,17.8-17.8,35.5-35.7,53.4-53.3,3.3-3.2,3.4-5,.1-8.3-12.3-12-24.4-24.1-36.4-36.4-6.6-6.7-13-13.8-19.4-20.7-.4.3-.8.6-1.2,1-.7.5-1.4.8-2,1.4-18.5,18.4-36.9,36.9-55.5,55.3-3.1,3.1-1.8,4.9.6,7.3,17,16.9,33.9,33.9,50.9,50.8h0ZM247.3-10.9c10.5,10.6,21,21.3,32.1,32.5,2.1-2,3.6-3.3,5-4.7,17.4-17.4,34.7-35,52.3-52.2,3.2-3.1,3.3-4.8.2-7.9-15.7-15.4-31.1-31.1-46.7-46.6-3.4-3.4-6.8-6.6-10.2-10-1,.8-1.6,1.2-2.1,1.7-18.6,18.6-37.2,37.2-55.9,55.7-2.7,2.6-2,4.3.3,6.5,8.4,8.3,16.8,16.6,25.1,25h0ZM275,21.2c-18.1-18.1-36.4-36.2-54.4-54.4-3.1-3.2-4.9-3-8,0-17.7,17.9-35.5,35.7-53.3,53.5-1,1-2,2.2-2.5,2.8,20.2,20.3,40.3,40.4,60.1,60.3,19.6-19.6,39.6-39.6,60-60-.6-.7-1.3-1.5-2-2.2h0ZM211.5-163.2c2.7-2.7,1.1-4.2-.8-6.1-18.1-18-36.1-36-54-54.1-2.6-2.6-4.2-2.7-6.8,0-17.9,18.1-36,36.1-54,54.1-1,1-1.9,2.2-2.6,3,20.2,20.2,40.1,40.2,60.2,60.4.4-.2.8-.3,1-.6,19-18.9,38-37.9,57-56.7h0ZM212.7,207.6c3.1,3.1,4.9,3.1,7.9,0,15.1-15.4,30.5-30.7,45.9-45.9,3.6-3.6,7.7-6.7,11-9.6-21.3-21.4-41.3-41.5-61.4-61.8-.4.3-1.1.8-1.7,1.4-18.6,18.6-37.2,37.2-55.9,55.7-2.8,2.8-1.6,4.3.6,6.4,17.9,17.8,35.9,35.7,53.6,53.7ZM210.6,343.8c3.1-3.1,2.5-4.8-.2-7.6-17.8-17.6-35.4-35.3-53.1-53-1.2-1.2-2.6-2.3-3.9-3.4-20.3,20.3-40.2,40.1-59.8,59.8,20.1,20.2,40,40.2,60.2,60.4.9-.8,2-1.7,3.1-2.7,17.9-17.9,35.7-35.9,53.8-53.6h0ZM86.6,208.2c2.6,2.6,4.3,2.4,6.9-.1,16-16.2,32.2-32.4,48.4-48.4,2.9-2.9,6.3-5.3,9.2-7.6-21.2-21.3-41.2-41.3-60.9-61.1-20,20-40,40-60.2,60.2.3.3.7,1,1.3,1.6,18.5,18.5,37,36.9,55.4,55.5h0ZM23.4,144.7c2.9,2.9,4.7,2.3,7.3-.3,11.4-11.6,23-23.2,34.6-34.7,7.3-7.3,14.7-14.5,22.1-21.8-.7-1.2-.9-1.7-1.2-2.1-18.8-18.9-37.7-37.7-56.4-56.6-2.5-2.5-4.2-1.7-6.2.4C5.3,47.8-13,66-31.3,84.2c-2.1,2.1-2.3,3.6-.1,5.8,18.3,18.2,36.6,36.4,54.7,54.7ZM339.2-171.8c3.2,3.3,5,2.8,8-.2,17.7-17.9,35.5-35.6,53.3-53.4,1-1,1.9-2.2,2.7-3.1-20.3-20.3-40.4-40.3-60.2-60.2-19.8,19.7-39.7,39.6-60.2,60,1.4,1.5,2.7,2.9,4,4.1,17.5,17.6,35.2,35,52.5,52.7h0ZM340.2,335.1c2.9,2.9,4.4,1.3,6.4-.8,17.7-17.8,35.5-35.6,53.3-53.4,1.2-1.2,2.3-2.6,3.1-3.5-20.4-20.4-40.3-40.4-60.1-60.2-19.7,19.8-39.7,39.7-60,60,.6.8,1.2,1.6,1.9,2.3,18.5,18.5,37,37,55.4,55.6ZM401-105.6c-18.4-18.3-36.8-36.7-55.1-55.1-2.2-2.2-3.6-2-5.7,0-18.3,18.4-36.7,36.8-55.1,55.1-2.4,2.4-2.2,3.9,0,6.1,5.4,5.2,10.6,10.5,15.9,15.8,13.7,13.8,27.4,27.6,41.4,41.7,1.3-.8,1.9-1.1,2.3-1.6,18.9-18.8,37.7-37.6,56.6-56.4,2.3-2.3,1.7-3.8-.3-5.7h0ZM340.5,82.5c2,2,3.4,1.9,5.3,0,18.4-18.5,36.9-37,55.4-55.5.8-.8,1.4-1.8,2.3-2.8-.8-1-1.4-2-2.1-2.8-2.5-2.6-5.2-5.2-7.8-7.8-15.6-15.7-31.3-31.3-46.9-47-2.4-2.4-4.1-3.2-6.9-.3-18,18.2-36.2,36.3-54.3,54.4-1.9,1.9-3.5,3.4-.7,6.1,18.7,18.5,37.2,37.1,55.8,55.8h0ZM340.1,208.5c2,2.1,3.5,2.4,5.8.2,18.4-18.5,36.9-37,55.4-55.5.8-.8,1.4-1.8,2.2-2.8-.8-1.1-1.4-2-2.2-2.8-18.3-18.4-36.7-36.7-55-55.1-2.5-2.6-4.1-2.2-6.5.2-18.1,18.3-36.4,36.5-54.7,54.7-2.3,2.3-2.4,3.8,0,6.1,18.4,18.3,36.8,36.7,55.1,55.1h0ZM390.6,5.8c5.1,5.2,9.8,10.8,14.3,15.8,21.3-21.2,41.3-41.2,61.1-61-19.9-19.7-39.9-39.6-60.2-59.7-.2.2-1.1.7-1.8,1.3-18.6,18.6-37.2,37.2-55.9,55.7-2.7,2.7-1.1,4.2.8,6.1,13.9,13.9,27.9,27.7,41.6,41.7ZM527.8,279.7c3-3,1.1-4.5-.8-6.5-17.8-17.8-35.5-35.5-53.3-53.3-1.2-1.2-2.6-2.4-3.1-2.8-20.5,20.5-40.5,40.5-60.1,60.1,19.5,19.6,39.4,39.6,59.4,59.8.4-.3,1-.6,1.5-1,18.8-18.8,37.6-37.7,56.5-56.4h0ZM465.8,207.9c3,3.1,4.7,2.8,7.5-.1,14-14.2,28.2-28.3,42.3-42.4,4.8-4.8,9.7-9.5,14-13.6-20.6-20.7-40.6-40.8-60.3-60.7-19.7,19.6-39.7,39.5-60.1,59.8.9,1,1.8,2,2.7,3,18,18,36.1,35.9,53.9,54.1h0ZM529.6-108.4c1,1,2.2,1.9,3,2.5,20.2-20.3,40.1-40.3,60.3-60.5-.5-.5-1.2-1.5-2-2.3-18.3-18.4-36.8-36.7-55-55.2-2.8-2.8-4.3-1.7-6.5.5-18,18.1-36,36.1-54.1,54.1-2.7,2.7-2.5,4.3,0,6.9,18.1,17.9,36.1,36,54.1,54h0ZM600,88.6c18.8,18.8,37.7,37.7,56.5,56.6,2.5,2.5,4.2,1.8,6.2-.3,18.2-18.3,36.4-36.6,54.7-54.8,2.3-2.3,2.1-4-.2-6.2-18.2-18.1-36.3-36.2-54.3-54.4-2.6-2.6-4.4-2.5-6.9.1-7.7,8-15.7,15.9-23.6,23.7-11.1,11-22.2,22-33.4,33.2.6,1.1.8,1.7,1.1,2h0ZM403.1,145c2.2,2.2,3.7,2.6,6.1.2,18.2-18.3,36.4-36.5,54.7-54.8.9-.9,1.6-2,2.6-3.3-.9-1.2-1.6-2.3-2.5-3.2-18.1-18.1-36.3-36.2-54.3-54.4-2.7-2.7-4.3-2.3-6.9.2-17.8,18-35.6,35.9-53.6,53.6-3,2.9-3,4.7,0,7.6,18.1,17.9,36.1,35.9,54,54ZM405.2-104.8c2-1.4,2.5-1.7,2.8-2,18.6-18.6,37.2-37.2,55.9-55.7,3-3,1.9-4.9-.5-7.4-17.9-17.8-35.8-35.7-53.7-53.6-1-1-2.2-1.8-3.3-2.8-.9.6-1.5,1-1.9,1.4-18.7,18.7-37.4,37.5-56.2,56.1-3,2.9-1.3,4.4.8,6.4,15.2,15.1,30.5,30.3,45.6,45.6,3.7,3.8,7,7.9,10.6,11.9ZM529.4,144.6c2.9,2.9,4.6,2.4,7.2-.2,9.8-10,19.7-19.9,29.6-29.7,9-8.9,18.1-17.7,27.6-26.9-2.2-2.4-3.5-3.9-4.9-5.3-17.4-17.4-34.9-34.8-52.2-52.3-3.1-3.2-4.9-3.1-8,0-17.8,18-35.7,35.9-53.7,53.6-2.5,2.5-2.7,4-.2,6.4,18.2,18,36.4,36.1,54.4,54.4h0ZM592.8,208.2c2.8,2.8,4.5,2.1,6.9-.3,14.2-14.3,28.4-28.6,42.7-42.8,4.8-4.8,9.5-9.6,13.8-13.9-20.4-20.5-40.3-40.5-59.7-59.9-19.9,19.8-40,39.9-60.3,60.1.2.2.6,1,1.2,1.5,18.5,18.5,37,36.9,55.4,55.5ZM587.1-303.8c10.9,11.2,7.4,10.3,17.7.4.1-.1.2-.3.3-.4h4c-3.3,3.8-6.6,7.7-10.1,11.6.9,1.1,1.6,2,2.4,2.8,18.3,18.4,36.7,36.6,55,55.1,3.2,3.2,4.7,1.2,6.8-.9,17.9-17.9,35.7-35.8,53.6-53.6,1-1,1.9-2.2,3-3.5-3.7-4-7.2-7.7-10.7-11.5h5c2.2,2.4,4.3,5,6.7,7.2.7.6,3,.6,3.7,0,2.4-2.2,4.4-4.8,6.6-7.2h5c-3.5,3.7-7,7.5-11.8,12.5.4.4.9.7,1.3,1l-1.7,1.7-.2-.2c-20.6,20.4-40.7,40.4-60.5,60.1,19.6,19.6,39.5,39.6,59.7,59.9.8-.7,1.7-1.5,2.6-2.3.3-.3.6-.6.9-.8,7.6-7.5,15-15.1,22.7-22.6,5-4.9,10.1-9.5,15.1-14.3v4c-12,12-24,24-36.2,35.8-2.7,2.6-1.8,4.4.4,6.6,12,11.8,23.8,23.7,35.8,35.6v4c-1.3-1-2.7-1.9-3.8-3-10.9-10.8-21.7-21.7-32.5-32.5-1.6-1.6-3.4-3.1-4.6-4.3-20.4,20.4-40.4,40.4-60,59.9,19.8,19.9,39.8,40,61.1,61.4,0,0,.2-.2.2-.2l1.6,1.5c-.2.2-.1.6-.2.9l-1.1,1.1c1.2.9,2.4,1.8,3.6,2.7l-1.8,1.8h-.1c-2.8-2.9-4.4-3-7.2-.1-17.9,18.1-35.9,36.2-54.1,54-3,2.9-2.5,4.5.2,7.2l.2.2c17.8,17.6,35.5,35.4,53.2,53.1,1.2,1.2,2.4,2.2,4,3.6,14-13.9,27.7-27.7,41.4-41.4v5c-11.9,11.9-23.7,23.8-35.8,35.6-2.7,2.6-2.7,4.2,0,6.8,12,11.8,23.9,23.7,35.8,35.6v5c-13.7-13.8-27.4-27.5-40.3-40.4-.8.8-1.5,1.5-2.3,2.3-19.8,19.7-39.2,38.9-58.2,57.7,19.6,19.6,39.6,39.5,60,59.9,13.3-13.2,27-26.8,40.7-40.4v5c-1.3,1.1-2.6,2-3.8,3.2-10.1,10.1-20.2,20.1-30.3,30.2-5,5-5.1,5.1,0,10.2,11.3,11.2,22.7,22.3,34,33.5v5c-13.1-12.9-26.1-25.8-38.4-37.9l-2.1-2.1c-20.6,20.5-40.7,40.5-60.4,60.1,19.5,19.6,39.5,39.6,60.2,60.4.8-.8,1.6-1.7,2.4-2.5l2,2h0c-2,1.9-1.9,3.3-.7,4.9l-1.8,1.7c-.4-.5-.8-1-1.2-1.5-21.3,21.2-41.4,41.3-62.7,62.6,5.5,5,11.2,10.1,16.9,15.2h-5c-4.5-4.7-9-9.5-13.4-14.1-5.4,5.2-10,9.6-14.6,14.1h-4c5.1-5.6,10.2-11.1,15.2-16.5-20.2-20.2-40.3-40.2-59.6-59.6-20,19.9-40.2,40-60.4,60.1,4.7,5.1,9.8,10.6,14.8,16h-4c-4.6-4.7-9.2-9.5-14.2-14.7-5,5.3-9.4,10-13.8,14.7h-5c5.4-5.5,10.8-11,15.7-16.1-20.5-20.6-40.4-40.6-60-60.3-1,1-1.9,1.9-2.9,2.9-19,19-38.2,38.1-58.6,58.5,5.4,4.9,11.1,9.9,16.8,15h-5c-4.4-4.6-8.8-9.2-13-13.7-1.1.5-1.7.5-2,.8-4.4,4.3-8.7,8.6-13,12.9h-4c5.1-5.6,10.1-11.1,14.8-16.2-1.8-1.8-3.6-3.6-5.3-5.3-18.4-18.5-36.6-36.7-55-55.1-.2.1-.8.4-1.2.8-18.9,18.8-37.7,37.7-56.6,56.5-2,2-2,3.4,0,5.4,4.6,4.6,8.9,9.3,13.4,14h-4c-3.9-3.9-7.6-7.9-11.6-11.5-1-.9-3.9-1.3-4.7-.6-4.1,3.8-7.8,8-11.6,12.1h-5c5.3-5.5,10.6-11,15.6-16.2-20.4-20.3-40.5-40.4-60.2-59.9-19.8,19.7-39.9,39.7-61.3,61.1,5.4,4.9,11.1,10,16.8,15.1h-5c-4.5-4.7-9-9.5-13.6-14.3-5.2,5.2-9.9,9.7-14.4,14.3h-4c5.1-5.6,10.2-11.1,15.1-16.4-20.3-20.2-40.3-40.2-60.2-60-19.7,19.7-39.8,39.7-60,60,4.9,5.3,10.1,10.9,15.2,16.5h-4c-4.7-4.6-9.4-9.3-14.5-14.4-4.7,5-9.1,9.7-13.5,14.4h-5c5.4-5.5,10.8-11.1,15.5-15.9-20.6-20.6-40.5-40.6-61.7-61.9-.6.8-1.2,1.7-1.9,2.7l-1.8-1.8h0c2.3-2.3,2.4-3.9,0-6.1-6.8-6.6-13.5-13.2-20.2-19.9v-4c7.6,7.2,15.1,14.4,22.3,21.2.9.8,1.7,1.6,2.6,2.5,20.4-20.3,40.4-40.2,60.2-59.8-19.8-19.9-39.9-39.9-61.2-61.3-7.7,8.2-15.8,16.8-23.9,25.4v-5c7.2-7.8,14.4-15.6,22.1-23.9-6.8-6.5-14.4-13.8-22.1-21.1v-5c8.4,8.3,16.7,16.5,25.1,24.9,1.1-.8,1.8-1.2,2.4-1.8,18.7-18.7,37.4-37.4,56.2-56,3-3,1-4.5-.9-6.4C3.7,129.7-13.4,112.5-30.6,95.3c-1.8-1.8-3.8-3.6-5.9-5.6-2,1.9-3.5,3.3-5,4.8l-20.4,19.6v-4c6.6-6.5,13-13.2,19.7-19.6,2.7-2.5,2.7-4.3,0-6.8-6.7-6.4-13.2-13-19.8-19.6v-4c8.5,8.1,16.9,16.1,24.7,23.5,1.6-1.6,3.2-3.2,4.9-4.8C-13.5,60.2,4.9,41.9,23.1,23.8,3.4,4.1-16.6-15.9-37.1-36.3c-8.1,8-16.4,16.2-24.8,24.5v-5c7.1-7.8,14.2-15.7,20.5-22.6-6.2-6.8-13.4-14.6-20.5-22.4v-5c8,8.7,16,17.3,23.7,25.6C-16.7-62.7,3.3-82.8,22.9-102.4c-19.7-19.8-39.7-39.8-60-60.1-1.2,1.1-2.7,2.4-4.1,3.8-6.9,6.6-13.8,13.3-20.8,20v-4c6.6-6.5,13.1-13.1,19.8-19.6,2.6-2.5,2.8-4.4,0-6.9-6.7-6.4-13.2-13-19.8-19.5v-4c7.5,7.2,15.1,14.3,22.3,21.2.9.9,1.8,1.7,2.7,2.6,20.4-20.4,40.4-40.3,60.1-59.9-19.9-19.9-39.9-40-61.4-61.4-7.7,8.3-15.7,16.9-23.7,25.6v-5c7.2-7.8,14.3-15.5,21.8-23.6-2.8-3-6.3-6.7-9.8-10.4h5c6.7,10,8.1,10.2,16,1.7.4-.5.7-1.1,1-1.7h5c-3.5,3.8-7,7.5-10.6,11.5,1,1.2,1.7,2.3,2.6,3.2,18.2,18.2,36.5,36.4,54.6,54.7,2.6,2.7,4.1,2.1,6.4-.3,10-10.2,20.1-20.3,30.3-30.3,9-8.9,18-17.6,27.2-26.5-4-4.6-7.3-8.4-10.6-12.2h4c5.8,6.4,11.7,6.6,17.7.4.1-.1.2-.3.3-.4h4c-3.3,3.8-6.6,7.6-9.4,10.9,20.2,20.3,40.2,40.3,59.8,59.9,19.6-19.7,39.6-39.7,59.7-59.9-3.2-3.4-6.7-7.1-10.1-10.9h5c2.2,2.4,4.3,5,6.8,7.2.7.6,3,.7,3.7,0,2.4-2.2,4.4-4.8,6.6-7.2h5c-3.5,3.7-7,7.5-10.3,11,20.3,20.2,40.3,40.2,60.4,60.3,0,0,.8-.2,1.2-.7,19-18.9,37.9-37.9,56.8-56.9,1.9-1.9,1.5-3.3-.2-5-2.8-2.8-5.4-5.8-8-8.7h4c11,11.2,7.2,10.4,17.7.4.1-.1.2-.2.3-.4h4c-1.8,2.1-3.5,4.3-5.5,6.3-5.1,5.1-5.2,5.1-.3,10,15.2,15.2,30.4,30.4,45.5,45.6,3.4,3.4,6.8,6.7,9.9,9.7,18.6-18.6,36.9-36.8,55.3-55.3,1.8-1.8,3.5-3.5,5.3-5.3-3.3-3.5-6.8-7.2-10.3-10.9h5c6.8,10,8.2,10.1,16,1.7.4-.5.7-1.1,1-1.7h5c-3.5,3.8-7,7.5-10,10.8,1.5,1.5,3,3,4.4,4.4,18.7,18.8,37.2,37.4,55.6,55.9,19.7-19.7,39.6-39.7,59.7-59.8-3.1-3.6-6.4-7.4-9.7-11.2h4,0ZM529.6,397.7c1,1,2.2,1.8,3.2,2.7,20.2-20.3,40-40.2,59.1-59.4-20-20.1-39.9-40.2-60-60.4.3-.2,0,0-.3.2-18.9,18.8-37.7,37.6-56.7,56.4-2.8,2.8-1.5,4.4.6,6.5,18,18,36,36,54.1,54.1h0ZM659.3,273.2c19.8-19.8,39.8-39.7,59.7-59.5-19.8-19.8-39.8-39.7-59.1-59-20,19.8-40.1,39.8-59.4,59.1,19.5,19.7,39.3,39.8,58.8,59.5h0ZM718.7,340.6c-20-20.1-39.9-40-59.4-59.5-19.8,19.7-39.8,39.7-59.3,59.1,19.7,19.8,39.6,39.8,59.2,59.6,19.8-19.7,39.8-39.6,59.5-59.2ZM718.4-166.4c-19.4-19.4-39.2-39.3-58.9-59-19.7,19.9-39.6,40-59.3,59.9,19.4,19.5,39.3,39.5,58.6,58.9,19.9-19.9,39.9-40,59.7-59.8h0ZM718.3-38.7c-19.9-20.1-39.8-40.3-59-59.7-19.8,19.7-39.8,39.6-59.4,59.1,19.8,19.8,39.7,39.8,59.5,59.6,19.7-19.7,39.6-39.7,58.8-58.9h0ZM656.1,23.6c-.4-.5-.9-1.4-1.6-2-18.5-18.5-37-36.9-55.4-55.5-2.7-2.7-4.3-1.8-6.5.4-11.5,11.6-23,23.1-34.6,34.6-7.5,7.4-15.3,14.7-22.4,21.5,21,20.9,41.1,40.9,60.8,60.5,19.5-19.5,39.5-39.4,59.7-59.5ZM655.8-228.9c-19.9-19.9-39.9-40-59.5-59.6-19.9,19.8-40,39.9-59.7,59.6,19.7,19.8,39.8,39.8,59.7,59.8,19.7-19.8,39.6-39.8,59.5-59.8h0ZM655.2-102.3c-19.7-19.8-39.9-39.9-59-59.1-19.7,19.6-39.9,39.5-59.4,58.9,19.6,19.8,39.5,39.8,59.3,59.7,19.8-19.9,39.9-40,59.2-59.5ZM655.1,277.3c-19.8-19.9-39.8-40-59.5-59.8-19.6,19.6-39.6,39.6-59.4,59.3,19.9,19.9,40,39.9,59.5,59.4,20-19.9,40.1-39.8,59.4-58.9h0ZM592.2,213.6c-19.6-19.7-39.5-39.6-59.2-59.3-19.9,19.8-39.9,39.9-59.2,59.1,19.7,19.9,39.6,40,59.1,59.7,19.7-19.7,39.6-39.7,59.3-59.4h0ZM592.1-39.5c-19.6-19.8-39.5-39.8-59-59.5-19.9,19.9-40,40-59.6,59.6,19.6,19.7,39.6,39.7,59.1,59.3,19.8-19.8,39.9-39.9,59.4-59.5ZM529.5,23.5c-.2-.3-.4-.9-.9-1.3-18.8-18.9-37.7-37.7-56.5-56.6-2.7-2.8-4.2-1.2-6.1.7-9.9,9.9-19.7,19.8-29.6,29.7-9.2,9.1-18.4,18.2-27.5,27.1,20.6,20.5,40.7,40.5,60.4,60.1,19.9-19.8,40-39.7,60.1-59.8ZM469.4-170c19.8-19.7,39.9-39.7,59.8-59.5-19.6-19.7-39.6-39.6-59.3-59.4-19.9,19.9-40,40-59.6,59.6,20,20,39.9,40.1,59.1,59.4ZM469.4-43.1c19.9-19.8,39.9-39.9,59.8-59.7-19.6-19.6-39.6-39.6-59.3-59.3-19.9,19.9-39.9,40-59.6,59.8,19.6,19.7,39.6,39.8,59.1,59.3h0ZM406.4,273.3c19.8-19.9,39.8-39.9,59.5-59.7-19.8-19.7-39.8-39.6-59.5-59.2-19.9,19.7-39.9,39.6-59.5,59,19.8,19.9,39.7,40,59.4,59.9ZM463.7,343.8c2.7-2.7,2.9-4.6,0-7.4-11.5-11.3-23-22.7-34.2-34.2-7.4-7.6-14.5-15.5-21.9-23.4-2.3,1.9-3,2.3-3.6,2.9-18.5,18.5-36.9,37-55.5,55.4-2.7,2.7-1.8,4.3.5,6.5,15.7,15.6,31.3,31.3,46.9,47,3.4,3.4,6.9,6.6,10.4,10,1.2-.9,2-1.4,2.7-2.1,18.2-18.2,36.4-36.5,54.7-54.7ZM337.9,343.2c3.3-3.2,1-4.8-1-6.8-17.8-17.8-35.6-35.5-53.2-53.4-3-3-4.6-2.9-7.5,0-17.5,17.8-35.2,35.4-52.9,52.9-3.2,3.2-3.5,5.1-.1,8.4,12.4,12.1,24.5,24.5,36.7,36.7,6.5,6.5,13.2,13,19.9,19.6,1.1-.8,1.8-1.2,2.4-1.8,18.6-18.6,37.2-37.2,55.9-55.7h0ZM217-169.4c19.6-19.6,39.5-39.6,59-59.2-20.1-20.1-40.1-40.1-59.4-59.3-19.6,19.5-39.7,39.5-59.3,59,19.7,19.7,39.7,39.7,59.6,59.5h0ZM275.8,277.2c-19.8-19.9-39.8-40-59.1-59.4-19.8,19.7-39.9,39.6-59.8,59.4,19.7,19.7,39.6,39.6,59.2,59.2,20.1-20,40.3-40,59.7-59.3h0ZM275.5-101.8c-19.8-20-39.8-40.2-59.4-60l-59.2,59.2c19.9,19.9,39.9,39.9,59.8,59.8,19.7-19.8,39.8-39.8,58.8-59ZM153.5,273.1c19.8-19.7,39.8-39.6,59.6-59.4-19.8-19.8-39.8-39.8-59.5-59.5-20,19.9-40,39.9-59.3,59.1,19.7,19.9,39.7,40,59.2,59.8ZM153.3,20.1c19.9-19.8,39.9-39.7,59.8-59.4-19.9-19.7-39.9-39.6-59.6-59.1-19.7,19.6-39.7,39.5-59.2,59C113.9-19.6,133.7.4,153.3,20.1ZM212.7,87.6c-20-20.1-39.8-40.2-59.8-60.3-.2.2-.9.5-1.3.9-18.7,18.7-37.4,37.4-56.2,56-2.8,2.7-1.6,4.3.6,6.5,13.7,13.6,27.3,27.3,40.9,40.9,5.4,5.4,10.8,10.6,16.1,15.8,20.4-20.5,40.4-40.4,59.7-59.8h0ZM150,23.5c-.1-.2-.4-.8-.8-1.2-18.8-18.9-37.7-37.7-56.4-56.6-2-2-3.4-1.9-5.4,0-5.3,5.5-10.8,10.8-16.2,16.2C57.3-4.3,43.6,9.5,30.2,22.8c20.5,20.6,40.4,40.8,60,60.5,19.7-19.7,39.7-39.6,59.8-59.8ZM90.3-43.4c19.7-19.6,39.7-39.5,59.5-59.3-19.9-19.8-39.9-39.9-59.8-59.7-19.8,19.8-39.8,39.9-59.2,59.2,19.8,20,39.9,40.2,59.5,59.8ZM90-169.2c19.9-19.8,39.9-39.9,59.8-59.7-19.8-19.8-39.8-39.7-59.8-59.7-19.7,19.7-39.8,39.8-59.7,59.6,19.9,19.9,39.9,39.9,59.7,59.7ZM149.2,277.3c-19.8-19.9-39.7-40.1-59.3-59.8-19.7,19.7-39.7,39.6-59.1,59,20,20.1,40,40.3,59.1,59.4,19.9-19.7,40.1-39.6,59.4-58.7h0ZM86.9,339.8c-.5-.6-1.2-1.6-2-2.4-18.4-18.4-36.8-36.7-55-55.2-2.5-2.5-4-2-6.1.2-18.5,18.5-37,37-55.5,55.5-.7.7-1,1.6-1.5,2.3,20.1,20,40.1,39.9,59.9,59.6,20-20,40-40,60.2-60.1h0ZM86.2-165.4c-19.8-19.9-39.8-39.9-60-60.1-.2.1-.8.5-1.3.9-18.8,18.7-37.5,37.4-56.3,56.1-2.3,2.3-1.6,3.8.4,5.7,6.5,6.4,13,12.9,19.4,19.4,12.5,12.7,24.9,25.4,37.4,38.2,20.9-20.9,40.9-40.8,60.3-60.2h0ZM86.2-39.2c-19.8-19.9-39.7-40-59.3-59.7C7-79.1-13.1-59.2-32.9-39.5-13-19.6,7,.3,26.9,20.2,46.8.3,66.7-19.7,86.2-39.2ZM85.8,214c-19.6-19.8-39.4-39.9-58.7-59.5-19.9,19.8-40,39.8-59.5,59.3,19.6,19.8,39.5,39.8,58.9,59.3,20-19.9,40-39.9,59.3-59.1Z"/>
    </g>
  </g>
  <rect class="cls-3" x="44.7" y="20.1" width="124.4" height="196.3"/>
  <path class="cls-7" d="M169.1,32.4c-.4,0-.9.5-1.7,1.6-12,16.5-25.7,31.4-41.1,44.7-9.6,8.3-18.9,16.8-26.3,27.2-7.1,10-13.4,20.5-15,33.1-1.6,12.4.4,23.9,7.9,34.2,13.1,17.9,36.1,22.3,54.1,10.2,5.8-3.9,9.8-9.3,12.5-15.8.5-1.1,1.1-2.2,1.7-3.3.2,0,.4.2.7.3.1.3.3.6.4.9.1.6.2,1.2.2,1.9.1,12.4-2.6,24.1-10.4,34-2.7,3.5-6.2,6.3-9.2,9.6-.7.8-.9,2-1.4,3,1,.4,2,1.1,3.1,1.2,6.5.1,13.1,0,19.6,0h4.7V32.4Z"/>
</svg>