<?xml version="1.0" encoding="UTF-8"?>
<svg id="Layer_1" data-name="Layer 1" xmlns="http://www.w3.org/2000/svg" xmlns:xlink="http://www.w3.org/1999/xlink" version="1.1" viewBox="0 0 395.7 318.6">
  <defs>
    <style>
      .cls-1 {
        clip-path: url(#clippath);
      }

      .cls-2 {
        fill: none;
      }

      .cls-2, .cls-3, .cls-4, .cls-5, .cls-6, .cls-7, .cls-8 {
        stroke-width: 0px;
      }

      .cls-3 {
        fill: #f281b1;
      }

      .cls-4 {
        fill: #e1dfd1;
      }

      .cls-5 {
        fill: #f59e8e;
      }

      .cls-6 {
        fill: #b7d659;
      }

      .cls-7 {
        fill: #d260a4;
      }

      .cls-8 {
        fill: #b060a6;
      }
    </style>
    <clipPath id="clippath">
      <rect class="cls-2" x="33.7" y="-.5" width="328.3" height="270.6"/>
    </clipPath>
  </defs>
  <rect class="cls-4" width="395.7" height="318.6"/>
  <g class="cls-1">
    <g>
      <path class="cls-8" d="M437.7,57c1.5,9.4-.5,18.1-7.1,25-4.7,4.9-10.2,8.9-15.6,13-1,.8-3.4,1.2-4.4.6-11.7-6.5-21.2-15-24.1-28.8-1.2-6-.2-11.7,3.2-16.7,5-7.3,12.7-7.5,18.3-.7,1.4,1.6,2.5,3.5,4.1,5.9,1.1-1.5,1.8-2.3,2.4-3.3,2.9-5,6.7-8.3,12.9-7.2,4.9.8,9.3,6.2,10.3,12.2Z"/>
      <path class="cls-8" d="M412.4,222.3c-6.2-10.9-13.7-19.4-25.7-25,11.5-5.9,19.7-13.9,25.5-25.4,5.9,11.4,14,19.1,24.9,25.3-10.8,6.2-19.1,13.8-24.7,25.2h0Z"/>
      <path class="cls-5" d="M386.7,197.2c11.9,5.6,19.4,14.1,25.7,25,5.6-11.4,13.9-19,24.7-25.2-11-6.2-19-13.9-24.9-25.3-5.8,11.5-13.9,19.5-25.5,25.4h0ZM409.2,143.9c2-2.1,3.4-2.6,5.7-.3,16.9,17,33.8,34,50.9,50.9,2.1,2.1,1.8,3.4-.1,5.3-16.9,16.8-33.7,33.6-50.5,50.5-1.7,1.7-3,2.9-5.3.5-17.3-17.5-34.8-34.9-52.2-52.3-.3-.3-.5-.8-1.1-2,13.5-13.4,26.8-26.6,40.1-39.9,4.2-4.2,8.5-8.4,12.7-12.8h0Z"/>
      <path class="cls-5" d="M410.5,95.6c1.1.6,3.4.2,4.4-.6,5.4-4.1,10.9-8.1,15.6-13,6.6-6.9,8.6-15.6,7.1-25-1-6.1-5.4-11.4-10.3-12.2-6.2-1.1-10,2.2-12.9,7.2-.5,1-1.3,1.8-2.4,3.3-1.7-2.4-2.8-4.3-4.1-5.9-5.6-6.8-13.3-6.6-18.3.7-3.4,5-4.5,10.8-3.2,16.7,2.9,13.9,12.4,22.4,24.1,28.8ZM409.5,17.1c1.9-2,3.3-2.3,5.3-.2,17.3,17.4,34.6,34.7,51.9,52,.4.4.7,1.1,1.4,2.3-6.7,6.6-13.5,13.2-20.2,19.8-10.9,10.8-21.7,21.6-32.5,32.5-1.8,1.8-3.1,3.1-5.6.5-17.3-17.5-34.8-34.9-52.2-52.3-.2-.2-.3-.6-1-2.1,10.6-10.4,21.3-20.8,31.9-31.3,7.1-7,14.2-14,21.1-21.2Z"/>
      <path class="cls-5" d="M386.7,321.2c2.4,10.2,9.1,17.2,17,23.3,8,6.1,8.8,6.1,16.8-.1,3.6-2.8,7.2-6,10.2-9.4,6.3-7.1,8.6-15.6,6.9-25-1.1-6.2-5.6-11.5-10.9-12.3-5.9-1-9.1,2.9-12,7.2-.7,1.1-1.5,2.1-2.2,3-.5-.1-.7-.1-.8-.2-1.1-1.5-2.1-3-3.1-4.4-5.6-7.9-14.5-7.6-19.4.8-3.2,5.4-3.9,11.2-2.5,17.3ZM411.8,268.3c18.6,18.6,37,37,55.2,55.3-18.2,18.1-36.7,36.4-55.4,55-.3-.3-1.3-.9-2.1-1.7-16.7-16.7-33.4-33.5-50.2-50.1-2-2-3.1-3.4-.5-6,17.3-17.1,34.4-34.3,51.6-51.5.4-.5,1-.7,1.4-.9Z"/>
      <path class="cls-8" d="M406.8-5c1.6,1.6,2.6,3.8,3.8,5.6,19.7-19.8,38-38.2,56.1-56.4-17.9-18-36.3-36.5-55-55.3-.4.3-1,.7-1.4,1.1-17,16.9-33.9,34-50.9,50.8-2.8,2.7-2.4,4.3.2,6.8,15.9,15.7,31.6,31.5,47.3,47.3ZM352.9-55.8c19.7-19.7,39.7-39.8,59.6-59.8,19.7,19.7,39.6,39.7,59.3,59.3-19.9,19.9-40,39.9-59.8,59.7-19.4-19.5-39.5-39.6-59.1-59.3Z"/>
      <path class="cls-8" d="M411.9,137.7c19.7,19.8,39.7,39.9,60.3,60.7-4.3,4.1-9.2,8.8-14,13.6-14.1,14.1-28.3,28.2-42.3,42.4-2.8,2.9-4.5,3.2-7.5.1-17.9-18.1-35.9-36.1-53.9-54.1-.9-.9-1.8-1.9-2.7-3,20.4-20.3,40.4-40.2,60.1-59.8h0ZM409.8,250.9c2.3,2.3,3.6,1.1,5.3-.5,16.8-16.9,33.7-33.7,50.5-50.5,1.9-1.9,2.2-3.2.1-5.3-17-16.9-34-33.9-50.9-50.9-2.3-2.3-3.7-1.8-5.7.3-4.1,4.4-8.4,8.5-12.7,12.8-13.3,13.2-26.6,26.5-40.1,39.9.7,1.1.8,1.6,1.1,2,17.4,17.4,34.9,34.8,52.2,52.3h0Z"/>
      <path class="cls-5" d="M387.1-56c11.1,6.1,19.3,14.1,25.2,25.4,5.6-11.4,13.9-19.3,25.1-25.4-11.6-5.7-19.3-14-25.2-25-6,11.2-13.9,19.2-25.1,25ZM466.7-55.8c-18,18.1-36.4,36.6-56.1,56.4-1.1-1.7-2.2-3.9-3.8-5.6-15.7-15.8-31.5-31.6-47.3-47.3-2.5-2.5-3-4.1-.2-6.8,17.1-16.8,34-33.9,50.9-50.8.5-.5,1-.8,1.4-1.1,18.7,18.8,37.1,37.3,55,55.3Z"/>
      <path class="cls-8" d="M426.8,297.6c5.3.9,9.8,6.1,10.9,12.3,1.6,9.4-.6,17.9-6.9,25-3,3.5-6.6,6.6-10.2,9.4-8,6.2-8.8,6.2-16.8.1-7.9-6-14.6-13.1-17-23.3-1.4-6.1-.7-12,2.5-17.3,4.9-8.4,13.8-8.7,19.4-.8,1,1.5,2.1,3,3.1,4.4,0,.1.3.1.8.2.7-.9,1.5-1.9,2.2-3,2.9-4.3,6.1-8.1,12-7.2Z"/>
      <path class="cls-5" d="M347.4,270.2c-4.6,4.5-9.6,7.2-16.1,4.8-4.9-1.8-8.3-6.2-8.5-11.2-.3-5.4,2.6-10.4,7.7-12.2,3.5-1.3,5.6-2.6,6-6.9.6-6.4,7.1-11,13.1-10.6,6.9.5,11.4,5.1,12.4,12.2.2,1.5,1.6,3.6,2.9,4.1,5.7,2,9.6,5.2,10,11.6.4,6-2,10.5-6.8,12.8-6,2.8-11.3,1.5-15.9-3.1-.3-.3-.8-.5-2.5,0l-1.3-.5c-.4-.3-.7-.5-1-.8h0Z"/>
      <path class="cls-5" d="M343.9,148.5c-4.9,5.6-11,6.9-15.8,3.4-5.6-4.1-7.8-11.8-3.4-17.2,7.4-9.3,15.8-17.9,24.2-27.2,8.3,9.1,16.3,17.4,23.6,26.2,4.3,5,3,13.9-1.8,17.7-4.7,3.8-11.4,2.8-16.5-2.4-.9-.9-1.7-2-2.5-3-.6.4-1.2.8-1.8,1.2l-1.9-.7c-.8-.7-1.6-1.4-2.5-2.1-.5,1.4-.7,3.1-1.6,4.2h0Z"/>
      <path class="cls-8" d="M411.5,378.6c18.7-18.6,37.2-37,55.4-55-18.2-18.3-36.6-36.7-55.2-55.3-.3.2-.9.5-1.4.9-17.2,17.2-34.4,34.4-51.6,51.5-2.6,2.6-1.6,4,.5,6,16.8,16.7,33.5,33.4,50.2,50.1.8.8,1.8,1.4,2.1,1.7ZM413.2,263.8c.5.4,1.8,1.5,3.1,2.8,17.8,17.8,35.5,35.5,53.3,53.3,2,2,3.8,3.5.9,6.5-18.9,18.7-37.7,37.6-56.5,56.4-.5.5-1.1.8-1.5,1-20-20.2-39.9-40.2-59.4-59.8,19.6-19.6,39.7-39.7,60.1-60.1h0Z"/>
      <path class="cls-8" d="M415.3,123.6c10.8-10.9,21.6-21.7,32.5-32.5,6.7-6.7,13.5-13.2,20.2-19.8-.7-1.3-1-1.9-1.4-2.3-17.3-17.3-34.6-34.7-51.9-52-2-2.1-3.4-1.7-5.3.2-7,7.2-14,14.2-21.1,21.2-10.6,10.5-21.4,21-31.9,31.3.7,1.5.8,1.9,1,2.1,17.4,17.4,34.9,34.8,52.2,52.3,2.5,2.5,3.8,1.3,5.6-.5ZM408.7,12.9c1.9-1.9,3.4-3.5,6.1-.7,18.8,18.9,37.6,37.7,56.5,56.6.4.4.7,1.1.9,1.3-20.2,20.1-40.2,39.9-60.1,59.8-19.7-19.6-39.8-39.6-60.4-60.1,9-8.9,18.3-18,27.5-27.1,9.9-9.8,19.8-19.8,29.6-29.7Z"/>
      <path class="cls-5" d="M356.3,32.9h-14.4c2.2-4.9,4.4-9.8,6.5-14.7l1.3.6c2.1,4.6,4.2,9.1,6.6,14.1h0Z"/>
      <path class="cls-8" d="M345.9,60.5c.9.9,2,1.6,3.1,2.5,1-.8,1.8-1.4,2.5-2.1,16.9-17,33.8-33.9,50.8-50.8,2.2-2.2,2-3.7,0-5.7-16.8-16.7-33.5-33.4-50.1-50.2-2.2-2.2-3.7-2.6-6.1-.1-16.5,16.7-33.1,33.3-49.8,49.8-2.9,2.9-2.4,4.6.2,7.3,16.5,16.4,33,33,49.4,49.4ZM348.5-52.5c20.3,20.1,40.3,40,60.2,59.8-19.9,19.8-39.9,39.7-61.1,61-4.5-5-9.2-10.6-14.3-15.8-13.8-14-27.7-27.8-41.6-41.7-1.9-1.9-3.5-3.5-.8-6.1,18.7-18.5,37.3-37.2,55.9-55.7.7-.7,1.6-1.2,1.8-1.3Z"/>
      <path class="cls-5" d="M356.3,285.8c-1,0-1.8.2-2.6.2-3.8,0-7.5,0-11.8,0,2.4-5.4,4.5-10.2,6.6-15.1l1.3.5c2.1,4.6,4.2,9.3,6.6,14.4Z"/>
      <path class="cls-5" d="M348.5,18c-.4-.2-.7-.5-1.1-.7-.9.8-1.9,1.5-2.8,2.3-4.2,3.5-10.1,4.2-14.9,1.7-4.7-2.4-7.3-7.2-6.9-12.3.5-5.4,4.2-9.5,9.8-11.4,1.4-.5,3-2.3,3.3-3.7,1.4-8.3,5.9-12.7,13.5-12.6,7.2.1,11.6,4.6,12.7,12.7.2,1.3,1.5,3.2,2.5,3.5,6.1,1.4,9.8,4.9,10.4,11.1.6,5.9-2,11-7,13.1-5.9,2.5-11.4,1.4-16-3.3-.2-.2-.5-.3-.8-.4-.4.2-.9.5-1.3.8l-1.3-.6s0,0,0-.1h0Z"/>
      <path class="cls-3" d="M401.8,130.4c2.7,2.7,2.4,4.4-.2,6.9-16.5,16.4-33,32.9-49.5,49.3-.9.9-2,1.7-3.1,2.6-1.1-.8-2.1-1.4-2.9-2.2-16.9-16.8-33.6-33.6-50.5-50.4-2.4-2.4-2-3.9.2-6.1,16.8-16.6,33.5-33.3,50.1-50.1,2.4-2.4,3.9-2.2,6.1,0,16.5,16.7,33.1,33.3,49.8,49.8h0ZM328.1,151.9c4.7,3.5,10.9,2.2,15.8-3.4.9-1.1,1.1-2.8,1.6-4.2.8.7,1.7,1.4,2.5,2.1-1,2.2-1.7,4.4-3,6.5-1.2,2.1-2.9,3.9-4.9,6.4h16.8c-2.4-4.3-4.7-8.2-7-12.2.6-.4,1.2-.8,1.8-1.2.8,1,1.6,2.1,2.5,3,5.1,5.3,11.8,6.2,16.5,2.4,4.8-3.8,6-12.6,1.8-17.7-7.4-8.7-15.3-17-23.6-26.2-8.4,9.3-16.8,17.8-24.2,27.2-4.3,5.5-2.1,13.1,3.4,17.2Z"/>
      <path class="cls-8" d="M346.2,187.2c.8.8,1.8,1.4,2.9,2.2,1.2-1,2.2-1.7,3.1-2.6,16.5-16.4,32.9-33,49.5-49.3,2.5-2.5,2.9-4.3.2-6.9-16.7-16.5-33.2-33.1-49.8-49.8-2.2-2.2-3.7-2.4-6.1,0-16.6,16.8-33.3,33.5-50.1,50.1-2.2,2.2-2.6,3.7-.2,6.1,16.9,16.7,33.7,33.6,50.5,50.4h0ZM409.1,133.8c-1,1.2-1.7,2.4-2.6,3.3-18.2,18.3-36.5,36.5-54.7,54.8-2.4,2.4-3.9,2-6.1-.2-17.9-18.1-35.9-36.1-54-54-3-2.9-3-4.6,0-7.6,18-17.8,35.9-35.7,53.6-53.7,2.5-2.6,4.2-3,6.9-.2,18,18.2,36.2,36.3,54.3,54.4.9.9,1.6,2,2.5,3.2h0Z"/>
      <path class="cls-3" d="M402.6,257.8c.7.7,1.2,1.5,1.9,2.5-.8,1-1.3,2.1-2.1,2.9-16.9,17-33.9,33.9-50.8,50.9-1.7,1.8-3.2,1.9-5,0-17-17.1-34.1-34.2-51.2-51.2-2.8-2.8-.8-4.4,1-6.1,13-13.1,26.1-26.1,39.2-39.2,3.6-3.6,7.4-7.2,10.9-10.9,1.8-1.9,3.2-1.8,5,0,17,17.1,34.1,34.1,51.1,51.2h0ZM331.3,275c6.5,2.4,11.5-.3,16.1-4.8.4.3.7.5,1,.8-2.1,4.8-4.2,9.6-6.6,15.1,4.3,0,8,0,11.8,0,.8,0,1.6-.1,2.6-.2-2.3-5.1-4.4-9.7-6.6-14.4,1.7-.4,2.2-.3,2.5,0,4.6,4.7,9.9,5.9,15.9,3.1,4.8-2.2,7.2-6.7,6.8-12.8-.4-6.4-4.4-9.6-10-11.6-1.3-.5-2.7-2.6-2.9-4.1-1-7.1-5.4-11.7-12.4-12.2-6.1-.4-12.5,4.1-13.1,10.6-.4,4.4-2.5,5.7-6,6.9-5.1,1.9-8,6.8-7.7,12.2.2,5.1,3.6,9.4,8.5,11.2h0Z"/>
      <path class="cls-3" d="M402.3,4.3c2.1,2,2.3,3.5,0,5.7-17,16.9-33.9,33.9-50.8,50.8-.7.7-1.5,1.2-2.5,2.1-1.1-.9-2.2-1.6-3.1-2.5-16.5-16.5-32.9-33-49.4-49.4-2.7-2.6-3.2-4.4-.2-7.3,16.7-16.5,33.3-33.1,49.8-49.8,2.4-2.5,4-2,6.1.1,16.7,16.8,33.4,33.5,50.1,50.2ZM322.8,9c-.5,5.1,2.2,9.9,6.9,12.3,4.8,2.5,10.8,1.8,14.9-1.7.9-.8,1.9-1.5,2.8-2.3.4.2.7.5,1.1.7,0,0,0,0,0,.1-2.2,4.9-4.4,9.8-6.5,14.7h14.4c-2.3-5-4.4-9.6-6.6-14.1.4-.3.9-.5,1.3-.8.3.1.6.2.8.4,4.6,4.7,10.1,5.8,16,3.3,5-2.1,7.6-7.2,7-13.1-.6-6.3-4.3-9.7-10.4-11.1-1.1-.2-2.4-2.2-2.5-3.5-1.1-8.1-5.4-12.5-12.7-12.7-7.5-.1-12,4.2-13.5,12.6-.2,1.4-1.9,3.3-3.3,3.7-5.6,1.9-9.3,5.9-9.8,11.4Z"/>
      <path class="cls-5" d="M340.2,159.3c2-2.6,3.6-4.4,4.9-6.4,1.2-2,2-4.3,3-6.5l1.9.7c2.3,4,4.5,7.9,7,12.2h-16.8Z"/>
      <path class="cls-5" d="M286.2,348.1c5.5-10.8,13.6-18.6,24.7-24.5-11.4-5.8-19.2-13.9-25.3-25.1-5.9,11.5-14.1,19.3-24.2,24.8,4.9,3.9,9.6,7,13.6,11,4,4,7.1,8.7,11.2,13.8ZM288.9,376.7c-2.5,2.6-4,2.3-6.4-.1-16.5-16.7-33.1-33.2-49.7-49.9-1.6-1.5-3.4-2.9-.9-5.3,17.8-17.8,35.4-35.6,54-54.2,7.9,8,15.2,15.5,22.5,22.9,10.1,10.1,20.1,20.3,30.4,30.3,2.6,2.5,2.4,4,0,6.5-16.7,16.5-33.3,33.1-49.8,49.8h0Z"/>
      <path class="cls-8" d="M282.6,177.4c.9,1.3,1.7,2.7,3,4.8,1.4-2.1,2.3-3.4,3.1-4.7,2.6-4,5.9-6.9,11-6.4,5.2.5,8.4,4,10.2,8.6,4.1,10.3,1.8,19.9-5.1,28-4.4,5.2-10.3,9.3-15.8,13.6-1.3,1-4.1,1.4-5.4.7-10.5-5.9-19.9-13.4-22.8-25.7-1.3-5.3-.3-11.5,1-17,1.1-4.6,5-7.9,10.3-8.2,4.9-.3,8,2.6,10.5,6.4h0Z"/>
      <path class="cls-8" d="M310.9,323.5c-11.1,6-19.2,13.8-24.7,24.5-4.1-5.1-7.3-9.9-11.2-13.8-4-3.9-8.7-7.1-13.6-11,10.1-5.5,18.3-13.3,24.2-24.8,6.1,11.2,13.9,19.3,25.3,25.1Z"/>
      <path class="cls-8" d="M311,70.5c-11.5,6.1-19.4,14.1-25.4,25.3-5.8-11.5-14-19.2-25-25.4,11-5.8,19-13.6,24.9-24.9,6,10.9,13.7,19.1,25.4,25Z"/>
      <path class="cls-8" d="M402.4,263.2c.8-.8,1.4-1.8,2.1-2.9-.7-.9-1.2-1.8-1.9-2.5-17-17.1-34.1-34.1-51.1-51.2-1.8-1.8-3.1-1.9-5,0-3.5,3.7-7.3,7.3-10.9,10.9-13.1,13.1-26.1,26.1-39.2,39.2-1.8,1.8-3.8,3.4-1,6.1,17.1,17,34.2,34.1,51.2,51.2,1.9,1.9,3.3,1.7,5,0,16.9-17,33.9-33.9,50.8-50.9h0ZM289.6,260.1c19.6-19.4,39.6-39.3,59.5-59,19.7,19.6,39.7,39.5,59.5,59.2-19.8,19.8-39.7,39.8-59.5,59.7-19.7-19.9-39.6-40-59.4-59.9Z"/>
      <path class="cls-8" d="M282.4,12.8c2.8-2.8,4.5-2.1,6.9.3,15.6,15.7,31.3,31.4,46.9,47,2.6,2.6,5.2,5.1,7.8,7.8.8.8,1.4,1.8,2.1,2.8-.9,1.1-1.5,2-2.3,2.8-18.5,18.5-36.9,36.9-55.4,55.5-2,2-3.3,2.1-5.3,0-18.5-18.6-37.1-37.2-55.8-55.8-2.8-2.7-1.1-4.2.7-6.1,18.1-18.1,36.3-36.2,54.3-54.4ZM283,124c.8.8,1.7,1.4,2.8,2.3,1.2-1,2.2-1.8,3.1-2.7,16.7-16.7,33.4-33.5,50.2-50.1,2.2-2.2,2.1-3.6,0-5.7-16.9-16.8-33.7-33.6-50.5-50.5-2.1-2.2-3.5-2.1-5.7,0-16.6,16.8-33.4,33.5-50.2,50.1-2.5,2.5-2.3,4,.1,6.5,16.8,16.6,33.5,33.4,50.2,50.1h0Z"/>
      <path class="cls-8" d="M285.6,252.6c1.1-.9,2.2-1.6,3.1-2.5,16.7-16.7,33.4-33.5,50.2-50.1,2.4-2.4,2.2-3.7-.1-6-16.8-16.6-33.5-33.3-50.1-50.1-2.4-2.4-3.8-2.2-6,0-16.6,16.8-33.3,33.5-50.1,50.2-2.4,2.4-2.2,3.8,0,6,16.8,16.7,33.5,33.4,50.2,50.1.8.8,1.7,1.5,2.8,2.4h0ZM282.4,139.2c2.4-2.4,3.9-2.7,6.5-.2,18.3,18.4,36.7,36.7,55,55.1.8.8,1.4,1.8,2.2,2.8-.8,1.1-1.4,2-2.2,2.8-18.5,18.5-37,36.9-55.4,55.5-2.2,2.2-3.7,1.9-5.8-.2-18.3-18.4-36.7-36.8-55.1-55.1-2.3-2.3-2.2-3.8,0-6.1,18.3-18.1,36.5-36.4,54.7-54.7h0Z"/>
      <path class="cls-8" d="M339.1-53.3c2.7-2.6,1.5-4-.6-6-16.2-16.1-32.3-32.2-48.4-48.4-1.4-1.4-2.9-2.6-4.1-3.8-.8.3-1.2.3-1.4.5-17.6,17.5-35.1,35-52.7,52.5-1.9,1.9-1.4,3.3.3,5,3.9,3.8,7.8,7.7,11.7,11.6,13.7,13.8,27.4,27.6,41.4,41.7,1.3-.9,1.8-1.2,2.3-1.7,17.2-17.2,34.3-34.4,51.6-51.5ZM282.8-114c2.1-2.1,3.5-2.3,5.7,0,18.3,18.4,36.7,36.8,55.1,55.1,2,2,2.6,3.5.3,5.7-18.9,18.8-37.7,37.6-56.6,56.4-.5.5-1.1.7-2.3,1.6-14-14.1-27.6-27.9-41.4-41.7-5.3-5.3-10.5-10.6-15.9-15.8-2.3-2.2-2.4-3.8,0-6.1,18.5-18.3,36.8-36.7,55.1-55.1h0Z"/>
      <path class="cls-5" d="M260.7,70.5c11,6.2,19.2,13.9,25,25.4,5.9-11.3,13.9-19.2,25.4-25.3-11.7-5.8-19.4-14-25.4-25-6,11.3-13.9,19.1-24.9,24.9ZM282.9,17.3c2.2-2.2,3.5-2.2,5.7,0,16.8,16.9,33.6,33.8,50.5,50.5,2.1,2.1,2.2,3.4,0,5.7-16.8,16.6-33.5,33.4-50.2,50.1-.9.9-2,1.7-3.1,2.7-1.1-.8-2-1.5-2.8-2.3-16.7-16.7-33.4-33.5-50.2-50.1-2.4-2.4-2.6-4-.1-6.5,16.8-16.6,33.5-33.3,50.2-50.1h0Z"/>
      <path class="cls-5" d="M285.6,182.2c-1.3-2.1-2.1-3.4-3-4.8-2.5-3.8-5.6-6.8-10.5-6.4-5.2.3-9.2,3.6-10.3,8.2-1.3,5.5-2.3,11.7-1,17,2.9,12.3,12.3,19.8,22.8,25.7,1.3.7,4.1.3,5.4-.7,5.5-4.3,11.3-8.4,15.8-13.6,6.8-8.1,9.2-17.7,5.1-28-1.8-4.5-5-8-10.2-8.6-5.1-.5-8.4,2.4-11,6.4-.9,1.3-1.8,2.6-3.1,4.7h0ZM282.7,143.9c2.3-2.3,3.6-2.5,6,0,16.6,16.8,33.3,33.5,50.1,50.1,2.3,2.3,2.5,3.7.1,6-16.8,16.6-33.5,33.4-50.2,50.1-.9.9-2,1.6-3.1,2.5-1.1-.9-2-1.6-2.8-2.4-16.7-16.7-33.4-33.5-50.2-50.1-2.3-2.2-2.4-3.6,0-6,16.8-16.6,33.5-33.3,50.1-50.2h0Z"/>
      <path class="cls-8" d="M279.5,3.4c3.2,3.1,3,4.8-.2,7.9-17.6,17.3-34.9,34.8-52.3,52.2-1.4,1.4-2.9,2.7-5,4.7-11-11.2-21.5-21.9-32.1-32.5-8.3-8.4-16.7-16.8-25.1-25-2.3-2.2-2.9-3.9-.3-6.5,18.7-18.5,37.3-37.1,55.9-55.7.5-.5,1-.8,2.1-1.7,3.4,3.3,6.9,6.6,10.2,10,15.6,15.5,31,31.2,46.7,46.6h0ZM219.5,60.6c2.1,2.1,3.4,2.4,5.7.2,16.8-16.9,33.7-33.7,50.5-50.5.8-.8,1.4-1.8,2.3-2.9-.9-1.2-1.6-2.3-2.5-3.2-16.6-16.6-33.2-33.2-49.8-49.8-2.3-2.3-4-2.8-6.5-.2-16.5,16.7-33.1,33.3-49.8,49.8-2.4,2.4-2.5,4,0,6.5,16.8,16.6,33.5,33.3,50.1,50.1Z"/>
      <path class="cls-8" d="M282.5,376.6c2.4,2.4,3.9,2.7,6.4.1,16.5-16.7,33.1-33.3,49.8-49.8,2.4-2.4,2.6-4,0-6.5-10.2-10-20.3-20.1-30.4-30.3-7.4-7.4-14.6-14.9-22.5-22.9-18.5,18.6-36.2,36.5-54,54.2-2.4,2.4-.6,3.8.9,5.3,16.6,16.6,33.2,33.2,49.7,49.9h0ZM289.3,381c-2,2-3.5,3.7-6.4.8-18.4-18.6-36.9-37-55.4-55.6-.7-.7-1.2-1.5-1.9-2.3,20.3-20.3,40.3-40.3,60-60,19.8,19.8,39.7,39.8,60.1,60.2-.8.9-1.9,2.3-3.1,3.5-17.8,17.8-35.6,35.6-53.3,53.4Z"/>
      <path class="cls-5" d="M220.7,143.9c-5.4,5.4-11.6,7.2-18.4,3.4-5.1-2.9-6.7-7.8-5.7-13.3,1.3-6.6,6.1-9.5,12.3-10.5,1.1-12.5,6.8-16,14.8-15.7,7.4.3,11.3,5.4,12.2,15.7,6.7.9,11.4,4.2,12.6,11,1,5.4-1.1,10-5.7,12.9-6.9,4.3-13.2,2.3-18.7-3.9-.3.4-.7.9-1,1.3h-1.4c-.4-.2-.7-.5-1.1-.8Z"/>
      <path class="cls-5" d="M217.4,275.1c-5.3,5.9-12.1,6.8-17.1,2.4-4.8-4.3-5.4-12.7-.9-18.1,4.1-5,8.6-9.7,13-14.5,3.1-3.4,6.4-6.7,9.9-10.4,1.6,1.5,3,2.7,4.2,4,6.1,6.6,12.5,13,18.1,20,2.2,2.7,3.6,6.8,3.8,10.4.2,4.4-1.9,8.5-6.5,10.3-4.7,1.8-9.2,1.2-13-2.3-1.6-1.4-2.9-3-4.4-4.5-.5.4-1.1.7-1.6,1h-1.4c-.7-.5-1.4-1.1-2.1-1.6-.7,1.1-1.1,2.5-2,3.4Z"/>
      <path class="cls-5" d="M216.8,22.8c-4.9,5-10.3,5.9-15.2,2.6-4.9-3.3-6.9-10.4-4.1-16,1.4-2.8,3.5-5.2,5.6-7.5,6.1-6.8,12.4-13.4,19.1-20.6,5.7,6,11.3,11.9,16.8,17.7,2.3,2.4,4.5,4.9,6.6,7.5,4.5,5.8,3.9,13.6-1.3,18-5.1,4.3-11.4,3.5-16.7-2.3-1-1.1-1.4-2.6-2.1-3.9l-2.2,1.6-1.7.5c-.4-.3-.9-.6-1.4-.9-1.1,1.1-2.3,2.1-3.4,3.3Z"/>
      <path class="cls-5" d="M230.5,285.6h-15.9c2.3-4.2,4.6-8.2,6.9-12.3h1.4c2.4,4,4.9,7.9,7.6,12.3Z"/>
      <path class="cls-5" d="M221.6,20.5l1.7-.5c1,2.2,1.8,4.5,3.1,6.5,1.3,2.1,3,4,4.9,6.3h-17c2.4-4.1,4.9-8.3,7.3-12.4Z"/>
      <path class="cls-5" d="M221.8,144.8h1.4c2.1,4.6,4.2,9.3,6.5,14.5h-14.2c2.1-4.8,4.2-9.7,6.4-14.5h0Z"/>
      <path class="cls-8" d="M226,191.3c-2.7,2.7-4.2,2.6-6.8,0-17.9-18.1-35.9-36.1-54.1-54-2.9-2.9-2.5-4.7.2-7.3,18.1-17.9,36.1-36,54.1-54,.9-.9,2-1.6,3.2-2.5,1.1.9,2.1,1.5,2.9,2.3,18.3,18.2,36.5,36.5,54.8,54.6,2.7,2.7,2.3,4.4-.2,6.9-18.1,17.9-36.1,35.9-54,54h0ZM218.8,186.4c2.8,2.8,4.4,2.9,7.2.1,16.5-16.7,33.1-33.2,49.7-49.8.8-.8,1.5-1.7,2.4-2.9-1-1.2-1.9-2.4-2.9-3.4-16.4-16.3-32.8-32.6-49-49.1-3.1-3.1-4.7-2.8-7.6,0-16.1,16.3-32.3,32.6-48.7,48.7-3.1,3.1-2.6,4.9.2,7.6,16.3,16.1,32.6,32.3,48.7,48.7h0Z"/>
      <path class="cls-3" d="M226,186.5c-2.8,2.8-4.4,2.7-7.2-.1-16.1-16.4-32.4-32.6-48.7-48.7-2.8-2.8-3.3-4.6-.2-7.6,16.4-16.1,32.6-32.3,48.7-48.7,2.8-2.9,4.5-3.2,7.6,0,16.2,16.5,32.6,32.7,49,49.1,1,1,1.9,2.2,2.9,3.4-1,1.2-1.6,2.1-2.4,2.9-16.6,16.6-33.2,33.1-49.7,49.8h0ZM196.7,133.9c-1.1,5.5.6,10.4,5.7,13.3,6.8,3.8,12.9,2,18.4-3.4.4.3.7.6,1.1.9-2.1,4.9-4.3,9.7-6.4,14.5h14.2c-2.3-5.2-4.4-9.9-6.5-14.6.3-.4.7-.9,1-1.3,5.4,6.2,11.7,8.2,18.7,3.9,4.6-2.9,6.7-7.4,5.7-12.9-1.3-6.8-5.9-10.1-12.6-11-.9-10.2-4.8-15.3-12.2-15.7-8-.4-13.6,3.2-14.8,15.7-6.1,1-11,3.9-12.3,10.5h0Z"/>
      <path class="cls-3" d="M225.6,313.4c-1.9,1.9-3.4,3-5.8.7-17.3-17.4-34.6-34.6-51.8-52-.4-.4-.7-1.1-1.6-2.7,7.4-7.1,15-14.3,22.4-21.6,10.2-10,20.3-20.1,30.4-30.3,2.4-2.4,3.9-2.7,6.4-.1,16.2,16.5,32.6,32.9,49.1,49.1,3.1,3,3.2,4.9,0,8-16.5,16.2-32.8,32.6-49.1,49h0ZM200.3,277.5c5,4.4,11.8,3.5,17.1-2.4.9-1,1.4-2.3,2-3.4.7.5,1.4,1.1,2.1,1.6-2.3,4-4.6,8.1-6.9,12.3h15.9c-2.7-4.4-5.1-8.3-7.6-12.2.5-.4,1.1-.7,1.6-1,1.4,1.5,2.8,3.1,4.4,4.5,3.8,3.5,8.3,4.1,13,2.3,4.6-1.8,6.7-5.9,6.5-10.3-.2-3.5-1.6-7.6-3.8-10.4-5.6-7-12-13.4-18.1-19.9-1.2-1.3-2.6-2.4-4.2-4-3.5,3.7-6.8,7-9.9,10.4-4.4,4.8-8.9,9.5-13,14.5-4.5,5.4-3.9,13.9.9,18.1Z"/>
      <path class="cls-3" d="M225.2,60.8c-2.2,2.3-3.6,1.9-5.7-.2-16.6-16.8-33.3-33.5-50.1-50.1-2.5-2.5-2.4-4.1,0-6.5,16.7-16.5,33.3-33.1,49.8-49.8,2.6-2.6,4.2-2.2,6.5.2,16.5,16.7,33.2,33.2,49.8,49.8.9.9,1.6,2,2.5,3.2-.9,1.1-1.5,2.1-2.3,2.9-16.8,16.8-33.7,33.6-50.5,50.5h0ZM201.6,25.5c4.9,3.3,10.3,2.3,15.2-2.6,1.1-1.1,2.3-2.2,3.4-3.3.4.3.9.6,1.4.9-2.4,4.1-4.8,8.2-7.3,12.4h17c-1.8-2.4-3.6-4.2-4.9-6.4-1.3-2-2.1-4.4-3.1-6.5l2.2-1.6c.7,1.3,1.2,2.9,2.1,3.9,5.4,5.8,11.6,6.6,16.7,2.3,5.2-4.4,5.8-12.2,1.3-18-2-2.6-4.3-5.1-6.6-7.5-5.5-5.9-11.1-11.7-16.8-17.7-6.7,7.2-13,13.9-19.1,20.6-2.1,2.3-4.2,4.8-5.6,7.5-2.8,5.6-.8,12.7,4.1,16h0Z"/>
      <path class="cls-5" d="M104.6,323.5c18.2-18.4,36.5-36.7,56.3-56.7,1,1.7,1.8,3.9,3.3,5.4,15.9,16.1,32,32.1,48,48,2.1,2.1,3,3.6.4,6.1-17.2,17-34.2,34.1-51.3,51.1-.6.6-1.3,1-1.7,1.3-18.6-18.6-36.9-37.1-55.1-55.3h0ZM133.9,309.3c-1.5,8.2-.8,16.3,4.7,22.7,4.9,5.7,11.1,10.4,16.7,15.5,2.5,2.2,5.2,2.2,7.7.1,5.3-4.5,11.2-8.5,15.6-13.8,6.5-7.8,8.9-17.1,5.1-27.1-1.8-4.7-4.9-8.5-10.3-9.1-5.3-.6-8.7,2.5-11.4,6.7-.8,1.2-1.6,2.4-2.8,4.3-1.3-1.9-2-3-2.8-4.1-2.8-4.1-6.1-7.7-11.7-6.9-5,.7-9.8,5.8-10.9,11.8h0Z"/>
      <path class="cls-8" d="M144.8,297.5c5.6-.8,8.9,2.8,11.7,6.9.7,1.1,1.5,2.2,2.8,4.1,1.2-1.9,2-3.1,2.8-4.3,2.6-4.2,6-7.3,11.4-6.7,5.4.6,8.5,4.4,10.3,9.1,3.8,10,1.4,19.3-5.1,27.1-4.4,5.3-10.3,9.3-15.6,13.8-2.5,2.1-5.2,2.1-7.7-.1-5.6-5.1-11.8-9.8-16.7-15.5-5.5-6.4-6.2-14.5-4.7-22.7,1.1-5.9,5.9-11.1,10.9-11.8h0Z"/>
      <path class="cls-8" d="M159.2,222.4c-5.9-11.2-13.7-19.1-24.9-25.1,10.6-6.3,19.1-13.7,24.7-25.4,6.2,11,13.9,19.4,25.5,25.2-11.4,5.9-19.4,13.9-25.3,25.2h0Z"/>
      <path class="cls-8" d="M166.4,259.3c1,1.6,1.2,2.3,1.6,2.7,17.3,17.3,34.6,34.6,51.8,52,2.4,2.4,3.9,1.2,5.8-.7,16.3-16.4,32.6-32.8,49.1-49,3.2-3.1,3-5,0-8-16.5-16.2-32.8-32.6-49.1-49.1-2.6-2.6-4-2.3-6.4.1-10,10.2-20.2,20.3-30.4,30.3-7.4,7.3-15.1,14.5-22.4,21.6h0ZM222.6,320.3c-20.1-20.1-40.1-40-59.9-59.8,20-19.8,40.1-39.8,61.1-60.6,6.9,7.2,14.3,15.1,21.9,22.7,11.3,11.5,22.8,22.9,34.2,34.2,2.3,2.3,2.9,3.9.2,6.5-18.5,18.3-36.8,36.7-55.1,55-.8.8-1.8,1.4-2.5,2Z"/>
      <path class="cls-8" d="M163.3,145.1c-3.1-3.2-4.9-3.6-8.2-.2-15.8,16.2-31.9,32.1-47.9,48.1-1.2,1.3-2.4,2.6-3,3.2,18.7,18.9,37.1,37.4,54.8,55.3,18.2-18.1,36.7-36.4,55.4-54.9-.9-1-2-2.2-3.2-3.4-16-16-32.1-31.9-47.9-48.1h0ZM163.2,254.2c-3.1,3.1-4.8,3.1-7.9,0-17.7-18-35.7-35.9-53.6-53.7-2.1-2.1-3.4-3.7-.6-6.4,18.7-18.5,37.2-37.1,55.9-55.7.6-.6,1.2-1,1.7-1.4,20.2,20.3,40.2,40.4,61.4,61.8-3.3,2.9-7.4,6-11,9.6-15.4,15.2-30.7,30.4-45.9,45.9h0Z"/>
      <path class="cls-8" d="M218.1-55.2c-19.1,19.1-39.1,39.2-58.8,59-19.8-19.8-39.9-39.9-59.8-59.8l59.2-59.2c19.6,19.8,39.6,40.1,59.4,60ZM160.2-110.8c-18.9,18.7-37.4,37.2-55.5,55.1C122.8-37.5,141-19.1,159.6-.4c.6-.5,1.2-.9,1.6-1.3,17-17,33.9-34,51-50.8,2.9-2.8,2.2-4.4-.3-6.8-16.4-16.3-32.8-32.7-49.2-49.1-1-1-2.2-2-2.5-2.3Z"/>
      <path class="cls-8" d="M99.5,323.9c19.9-19.8,40-39.8,59.8-59.4,19.3,19.4,39.3,39.5,59.1,59.4-19.4,19.3-39.6,39.3-59.7,59.3-19.6-19.6-39.6-39.5-59.2-59.2h0ZM160.9,266.8c-19.8,19.9-38.1,38.3-56.3,56.7,18.1,18.2,36.5,36.7,55.1,55.3.4-.3,1.2-.7,1.7-1.3,17.1-17.1,34.1-34.2,51.3-51.1,2.6-2.5,1.7-4-.4-6.1-16.1-16-32.1-32-48-48-1.5-1.5-2.3-3.7-3.3-5.4h0Z"/>
      <path class="cls-5" d="M162.4,123.6c-2.2,2.2-3.6,2.7-6.1.3-17.1-17.3-34.3-34.4-51.5-51.7-.3-.3-.6-.8-.7-1.1,18.7-18.7,37.2-37.1,55.2-55.1,18.1,18,36.5,36.5,55.8,55.8-3.1,2.8-6.7,5.7-9.9,9-14.3,14.2-28.6,28.4-42.7,42.8h0ZM149.2,90.2c10.9,8.2,8.9,8,19.4.4,3.2-2.3,6.2-5.1,8.7-8.1,6.7-8.3,10.3-17.5,6.5-28.3-1.6-4.5-4.3-8.3-9.4-9.4-5.6-1.2-9.2,1.8-12.1,6-.9,1.3-1.8,2.7-3,4.5-1.8-2.5-3.1-4.8-4.8-6.7-4.9-5.7-12.8-5.5-17.1.6-1.8,2.5-3.1,5.6-3.6,8.6-2.4,14.3,4.9,24.4,15.5,32.4h0Z"/>
      <path class="cls-5" d="M155.1,144.9c3.3-3.4,5.1-3,8.2.2,15.8,16.2,31.9,32.1,47.9,48.1,1.2,1.2,2.2,2.4,3.2,3.4-18.7,18.6-37.2,36.9-55.4,54.9-17.7-17.9-36.1-36.4-54.8-55.3.6-.6,1.7-1.9,3-3.2,16-16,32.1-31.9,47.9-48.1ZM134.3,197.3c11.2,6,19,13.9,24.9,25.1,5.9-11.3,13.9-19.4,25.3-25.2-11.6-5.8-19.3-14.2-25.5-25.2-5.6,11.7-14.1,19.1-24.7,25.4h0Z"/>
      <path class="cls-8" d="M137.3,49.2c4.3-6.1,12.2-6.3,17.1-.6,1.7,2,3,4.2,4.8,6.7,1.2-1.8,2.1-3.2,3-4.5,2.9-4.2,6.6-7.2,12.1-6,5.1,1.1,7.8,4.8,9.4,9.4,3.8,10.7.2,20-6.5,28.3-2.5,3.1-5.5,5.8-8.7,8.1-10.5,7.6-8.5,7.8-19.4-.4-10.6-8-17.9-18.1-15.5-32.4.5-3,1.8-6.1,3.6-8.6h0Z"/>
      <path class="cls-5" d="M90.6,149c-5.2,5.3-11.6,6.2-16.4,2.3-4.9-4-6.2-12.3-1.9-17.6,5.5-6.9,11.7-13.1,17.7-19.7,1.8-2,3.6-3.9,6.3-6.9,1.9,2.3,3.6,4.6,5.4,6.6,5.6,6.2,11.3,12.2,16.8,18.4,3.8,4.3,4.7,11.3,1.8,15.9-2.6,4.2-6.6,6.4-11.4,5.3-2.6-.6-5-2.3-7.3-3.8-1.4-.9-2.4-2.5-3.7-3.8-.5.4-1,.7-1.6,1.1h-1.2c-.4-.2-.9-.6-1.3-.9-1.1,1-2.3,2-3.4,3.1Z"/>
      <path class="cls-5" d="M95.4,271.3c-12,6.2-20.4,5.5-24.2-2.5-3.9-8.1.1-14.9,11.8-19.4,1.3-10.5,5.2-15.1,12.9-15.3,7.5-.2,11.9,4.7,13.6,15.8,6.9,1.4,12.3,4.9,12.8,12.9.3,5.2-2.2,9.4-6.8,11.9-6.8,3.6-12.5.9-17.5-4.1-.4.2-.8.5-1.2.8h-1.2q0,.1,0,.1Z"/>
      <path class="cls-5" d="M104.2,159.3h-16.5c2.6-4.2,5.1-8.3,7.6-12.3h1.2c2.6,3.9,5.1,8,7.8,12.3Z"/>
      <path class="cls-8" d="M104,71.1c.2.3.4.7.7,1.1,17.2,17.2,34.4,34.4,51.5,51.7,2.4,2.4,3.9,1.9,6.1-.3,14.2-14.3,28.4-28.6,42.7-42.8,3.3-3.3,6.9-6.2,9.9-9-19.3-19.3-37.7-37.7-55.8-55.8-18,18-36.5,36.4-55.2,55.1ZM159.5,130c-19.9-19.9-39.9-40-60.1-60.3.6-.6,1.5-1.8,2.5-2.8,17.8-17.8,35.6-35.5,53.3-53.5,3-3.1,4.8-3.3,8-.1,18,18.3,36.2,36.3,54.3,54.4.7.7,1.3,1.5,1.9,2.2-20.4,20.4-40.4,40.4-60,60h0Z"/>
      <path class="cls-5" d="M103.2,33h-14.5c2.2-4.8,4.5-9.7,6.7-14.6l1.1-.2c2.2,4.9,4.4,9.8,6.7,14.8Z"/>
      <path class="cls-5" d="M103.2,285.9h-14.3c2.2-5,4.4-9.8,6.5-14.6h1.2c2.1,4.6,4.2,9.3,6.6,14.6h0Z"/>
      <path class="cls-5" d="M90.9,20.2c-4.3,3.2-10.4,3.5-15.1.7-4.5-2.7-6.6-7.3-5.7-12.8.8-5.5,3.9-9.2,9.4-10.2,2.9-.6,3.6-2.1,3.8-4.8.5-6.9,5.2-11.4,11.9-11.7,7.6-.3,12.5,3.6,13.4,11.1.3,2.8.5,4.9,4.1,5.5,5.6,1,8.3,5.2,9.2,10.5.8,4.9-1.8,10.2-6.1,12.7-4.4,2.6-10.7,2.2-14.6-.8-1.2-1-2.4-2-3.6-3-.4.3-.8.5-1.2.8l-1.1.2c-.4-.3-.9-.5-1.3-.8-1.1.9-2.1,1.8-3.2,2.7Z"/>
      <path class="cls-3" d="M96.1,63c-1.2-.9-2.1-1.6-2.9-2.4-16.7-16.7-33.4-33.5-50.2-50.1-2.7-2.6-2.2-4.2.1-6.5,16.7-16.5,33.3-33.1,49.8-49.8,2.5-2.5,4.1-2.2,6.5.2,16.4,16.6,32.8,33.1,49.4,49.4,2.9,2.9,2.6,4.5-.1,7.2-16.6,16.4-33,32.9-49.5,49.4-.9.9-2,1.6-3.1,2.6h0ZM70.1,8c-.8,5.5,1.3,10.1,5.7,12.8,4.6,2.8,10.8,2.5,15.1-.7,1.1-.8,2.1-1.8,3.2-2.7.4.3.9.5,1.3.8-2.2,4.9-4.5,9.8-6.7,14.6h14.5c-2.2-5-4.4-9.9-6.7-14.8.4-.3.8-.5,1.2-.8,1.2,1,2.3,2.1,3.6,3,3.9,3,10.2,3.4,14.6.8,4.3-2.5,6.9-7.8,6.1-12.7-.9-5.3-3.7-9.5-9.2-10.5-3.7-.6-3.8-2.7-4.1-5.5-.9-7.4-5.9-11.4-13.4-11.1-6.6.2-11.4,4.7-11.9,11.7-.2,2.7-.8,4.2-3.8,4.8-5.5,1.1-8.6,4.7-9.4,10.2Z"/>
      <path class="cls-3" d="M96.1,189.4c-1.3-1-2.4-1.7-3.3-2.6-16.8-16.7-33.4-33.4-50.2-50-2.4-2.4-2-3.9.2-6.1,16.5-16.4,33.1-32.8,49.4-49.4,3-3.1,4.9-2.6,7.7.2,16.2,16.4,32.6,32.8,49.1,49,2.4,2.4,2.7,4,.1,6.5-16.5,16.4-32.9,32.9-49.4,49.4-1,1-2.2,1.9-3.5,3h0ZM74.2,151.4c4.8,3.9,11.2,3,16.4-2.3,1.1-1.1,2.2-2,3.4-3.1.4.3.9.7,1.3,1-2.5,4-5,8.1-7.6,12.3h16.5c-2.7-4.3-5.2-8.4-7.8-12.4.5-.4,1-.7,1.6-1.1,1.2,1.3,2.2,2.8,3.7,3.8,2.3,1.5,4.7,3.2,7.3,3.8,4.9,1.1,8.9-1.1,11.4-5.3,2.8-4.6,2-11.6-1.8-15.9-5.5-6.2-11.3-12.3-16.8-18.4-1.8-2-3.5-4.3-5.4-6.6-2.8,3-4.6,4.9-6.3,6.9-5.9,6.5-12.2,12.8-17.7,19.7-4.3,5.4-3,13.6,1.9,17.6Z"/>
      <path class="cls-8" d="M155.3,134.2c-19.4,19.4-39.3,39.3-59.7,59.8-5.3-5.2-10.8-10.5-16.1-15.8-13.7-13.6-27.3-27.3-41-40.9-2.2-2.2-3.3-3.8-.6-6.5,18.8-18.6,37.5-37.3,56.2-56,.4-.4,1.1-.8,1.3-.9,20,20.2,39.9,40.2,59.8,60.3h0ZM92.8,186.8c.9.9,2,1.6,3.3,2.6,1.3-1.1,2.5-2,3.5-3,16.5-16.5,32.9-33,49.4-49.4,2.6-2.5,2.3-4.1-.1-6.5-16.4-16.3-32.8-32.6-49.1-49-2.8-2.8-4.7-3.3-7.7-.2-16.3,16.6-32.9,33-49.4,49.4-2.2,2.2-2.6,3.8-.2,6.1,16.8,16.6,33.5,33.4,50.2,50h0Z"/>
      <path class="cls-3" d="M100.3,312.3c-3.1,3.2-5.1,3.5-8.4.2-16.1-16.4-32.5-32.5-48.7-48.8-1-1-1.9-2.2-3.5-4.2,8.2-7.9,16.2-15.6,24.2-23.4,9.7-9.6,19.4-19.2,29-28.9,1.8-1.8,3.2-3.1,5.7-.6,17,17.1,34.1,34.2,51.2,51.3.7.7,1.1,1.6,1.7,2.4.4.5.8.9,1.1,1.4-4.1,3.6-8.5,6.9-12.4,10.7-13.4,13.2-26.8,26.4-39.9,39.9ZM71.1,268.8c3.8,8,12.2,8.7,24.2,2.5-2.2,4.8-4.3,9.6-6.5,14.6h14.3c-2.4-5.3-4.5-10-6.6-14.7.4-.3.8-.5,1.2-.8,5.1,5,10.7,7.7,17.5,4.1,4.7-2.5,7.2-6.6,6.8-11.9-.5-7.9-5.8-11.5-12.8-12.9-1.7-11.1-6.1-16-13.6-15.8-7.7.2-11.5,4.8-12.9,15.3-11.6,4.6-15.7,11.3-11.8,19.4Z"/>
      <path class="cls-8" d="M7.6,323.7c10.8-6,19.1-13.7,24.9-25.2,6.2,10.8,13.9,19.2,25.6,25.1-11.6,5.8-19.4,13.9-25.4,25-6.1-11-13.8-19.2-25.1-24.9h0Z"/>
      <path class="cls-8" d="M43,4c-2.3,2.3-2.8,3.9-.1,6.5,16.8,16.6,33.5,33.4,50.2,50.1.8.8,1.8,1.4,2.9,2.4,1.1-.9,2.2-1.7,3.1-2.6,16.5-16.5,32.9-33,49.5-49.4,2.7-2.7,3.1-4.3.1-7.2-16.6-16.3-33.1-32.8-49.4-49.4-2.4-2.4-4-2.7-6.5-.2C76.3-29.1,59.7-12.5,43,4ZM95.9,66.8C76.3,47,56.5,27,36.8,7.2c19.5-19.4,39.5-39.4,59.2-59,19.7,19.5,39.8,39.4,59.6,59.1-19.9,19.8-39.9,39.7-59.8,59.4Z"/>
      <path class="cls-8" d="M39.8,259.5c1.6,2,2.4,3.2,3.5,4.2,16.2,16.2,32.6,32.4,48.7,48.8,3.3,3.4,5.2,3,8.4-.2,13.1-13.5,26.5-26.7,39.9-39.9,3.9-3.8,8.3-7.2,12.4-10.7-.4-.5-.8-1-1.1-1.4-.6-.8-1-1.7-1.7-2.4-17.1-17.1-34.2-34.1-51.2-51.3-2.5-2.5-3.9-1.2-5.7.6-9.6,9.7-19.3,19.3-29,28.9-7.9,7.8-16,15.5-24.2,23.4h0ZM96.1,319.7c-19.6-19.7-39.5-39.9-59.2-59.8,19.3-19.3,39.3-39.2,59.3-59.1,19.7,19.7,39.7,39.7,59.5,59.5-19.8,19.8-39.8,39.7-59.6,59.4h0Z"/>
      <path class="cls-8" d="M-20.4,193.9c-2.3,2.3-2.5,3.7-.1,6.1,16.9,16.8,33.7,33.6,50.5,50.4.8.8,1.8,1.4,2.8,2.2,1.1-.9,2-1.6,2.8-2.4,16.7-16.7,33.4-33.5,50.2-50.1,2.6-2.6,2.3-4.1-.1-6.4-16.7-16.5-33.3-33.1-49.8-49.8-2.2-2.2-3.6-2.7-6-.2-16.6,16.8-33.3,33.5-50.1,50.1h0ZM-27.5,197.7c20.2-20.1,40.2-40.1,60.2-60.2,19.8,19.8,39.7,39.8,60.9,61.1-2.8,2.3-6.2,4.7-9.2,7.6-16.2,16.1-32.3,32.2-48.4,48.4-2.6,2.6-4.3,2.8-6.9.1-18.4-18.6-36.9-37-55.4-55.5-.6-.6-1-1.2-1.3-1.6h0Z"/>
      <path class="cls-8" d="M32.7,95.6c-6.1-10.8-13.8-18.8-25-24.9,10.9-6.2,19.3-13.7,24.8-25.4,5.9,11.4,13.9,19.3,25,25.3-10.7,6.3-19,14-24.9,25.1Z"/>
      <path class="cls-5" d="M35.8,123.8c-2.3,2.3-3.8,2.3-6.1,0C12.9,106.9-4,90.1-20.9,73.3c-2.1-2.1-1.8-3.5,0-5.3C-3.7,51,13.3,33.9,30.5,16.9c.8-.8,3.6-.8,4.3,0,17.3,17.1,34.5,34.2,51.6,51.5.7.7,1.1,1.6,1.7,2.4-.9,1.1-1.5,2-2.3,2.8-16.7,16.7-33.5,33.4-50.1,50.2ZM7.7,70.7c11.2,6,18.9,14.1,25,24.9,5.9-11.1,14.1-18.8,24.9-25.1-11.1-6-19.2-13.8-25-25.3-5.6,11.7-14,19.2-24.8,25.4Z"/>
      <path class="cls-5" d="M35.2,377.3c-1.8,1.8-3.1,2-5,.1-17-17.1-34.1-34.2-51.2-51.2-2.1-2.1-1.6-3.5.2-5.4,17-16.9,33.9-33.9,50.8-50.9,2.1-2.1,3.5-1.6,5.3.2,16.8,16.9,33.6,33.7,50.5,50.5.8.8,1.4,1.8,2.2,2.8-.8,1-1.4,2-2.2,2.8-16.9,17-33.9,33.9-50.8,50.9h0ZM7.6,323.7c11.3,5.7,19,13.9,25.1,24.9,6-11.1,13.8-19.2,25.4-25-11.8-5.9-19.4-14.3-25.6-25.1-5.8,11.5-14.1,19.1-24.9,25.2h0Z"/>
      <path class="cls-5" d="M32.8,252.6c-1-.8-2-1.4-2.8-2.2-16.8-16.8-33.6-33.7-50.5-50.4-2.4-2.3-2.1-3.8.1-6.1,16.8-16.6,33.5-33.3,50.1-50.1,2.5-2.5,3.9-2,6,.2,16.5,16.7,33.1,33.3,49.8,49.8,2.4,2.4,2.7,3.9.1,6.4-16.8,16.6-33.5,33.4-50.2,50.1-.8.8-1.7,1.5-2.8,2.4h0ZM7.1,192.1c1.6,14.7,11.9,23.1,23.8,30,1,.6,3,.4,4.1-.3,7.9-4.5,15-9.9,19.5-18,4.8-8.6,6.2-17.6,1.1-26.6-4.5-8-13.2-8.4-18.8-1.2-1.3,1.7-2.4,3.5-4.1,5.9-1.6-2.3-2.6-4-3.9-5.5-5.8-7.5-14.7-7.4-19,1-2.2,4.4-3.3,10-2.8,14.8h0Z"/>
      <path class="cls-8" d="M-20.8,68c-1.9,1.9-2.1,3.3,0,5.3C-4,90.1,12.9,106.9,29.6,123.8c2.3,2.3,3.8,2.3,6.1,0,16.6-16.8,33.4-33.5,50.1-50.2.8-.8,1.5-1.8,2.3-2.8-.6-.9-1.1-1.8-1.7-2.4-17.2-17.2-34.3-34.4-51.6-51.5-.8-.7-3.6-.7-4.3,0C13.3,33.9-3.7,51-20.8,68ZM32.8,129.9C13.3,110.2-6.7,90-27.2,69.4-13.8,56.1,0,42.3,13.7,28.6c5.4-5.4,10.9-10.7,16.2-16.2,1.9-2,3.3-2.1,5.4,0,18.8,18.9,37.6,37.7,56.5,56.6.4.4.7,1.1.8,1.2-20.2,20.2-40.1,40.1-59.8,59.8Z"/>
      <path class="cls-8" d="M9.9,177.4c4.2-8.4,13.2-8.5,19-1,1.2,1.6,2.3,3.2,3.9,5.5,1.7-2.4,2.8-4.2,4.1-5.9,5.6-7.2,14.3-6.8,18.8,1.2,5.1,8.9,3.8,18-1.1,26.6-4.5,8.1-11.6,13.6-19.5,18-1.1.6-3.1.9-4.1.3-11.9-6.9-22.2-15.3-23.8-30-.5-4.8.6-10.4,2.8-14.8h0Z"/>
      <path class="cls-8" d="M-20.2-59.3c-2.7,2.7-2.4,4.3.1,6.8C-3.4-36.1,13.1-19.7,29.4-3c2.8,2.8,4.3,2.3,6.8-.2,16.5-16.7,33.1-33.2,49.7-49.8.8-.8,1.4-1.8,2.4-2.9-1.1-1.2-1.9-2.4-2.9-3.4-16.4-16.5-33-32.9-49.3-49.5-2.4-2.4-3.8-2.8-6.4-.2C13.1-92.3-3.5-75.8-20.2-59.3ZM32.9,3.2C13.4-16.4-6.7-36.6-26.5-56.6c19.3-19.3,39.3-39.4,59.2-59.2,19.9,19.8,40,39.9,59.8,59.7C72.6-36.3,52.6-16.4,32.9,3.2Z"/>
      <path class="cls-8" d="M-20.6,320.8c-1.9,1.9-2.3,3.3-.2,5.4,17.1,17,34.2,34.1,51.2,51.2,1.9,1.9,3.2,1.7,5-.1,16.9-17,33.9-33.9,50.8-50.9.8-.8,1.4-1.8,2.2-2.8-.8-1-1.4-2-2.2-2.8-16.8-16.9-33.7-33.7-50.5-50.5-1.9-1.9-3.2-2.4-5.3-.2-16.9,17-33.8,34-50.8,50.9ZM32.4,382.6c-19-19.2-39-39.3-59.1-59.4,19.5-19.4,39.4-39.4,59.1-59,19.6,19.7,39.5,39.9,59.3,59.8-19.3,19.1-39.5,39-59.4,58.7h0Z"/>
      <path class="cls-3" d="M-34.3,81.4c2.9-2.9,4.6-3.2,7.6-.2,16.2,16.5,32.6,32.8,49.1,49.1,2.6,2.6,2.8,4.2,0,6.9-16.6,16.4-33,32.9-49.5,49.4-1,1-2.2,1.8-3.5,2.8-1.2-1-2.1-1.7-2.9-2.5-16.6-16.6-33.2-33.2-49.9-49.7-2.6-2.5-2.8-4.1,0-6.8,16.5-16.2,32.9-32.6,49.1-49.1ZM-56.6,135.6c-.3,5.2,1.8,9.4,6.5,12,4.5,2.5,11.1,1.9,15.1-1.4,1-.8,1.9-1.7,2.9-2.6.4.3.8.6,1.1.9-2.2,4.9-4.4,9.7-6.7,14.8h14.4c-2.4-5.2-4.6-10.1-6.7-14.9.4-.2.9-.5,1.3-.7.7.6,1.4,1.3,2.2,2,4.4,3.9,10.2,4.8,15.3,2.2,4.5-2.2,7.2-7.1,6.8-12.4-.5-5.9-3.8-10.1-10-11.5-2.9-.7-3.1-2-3.3-4.4-.6-7.1-5.5-11.9-12.2-12-7.3-.2-12.6,4.3-13.2,12-.2,2.8-1,3.9-3.9,4.6-5.8,1.3-9.2,5.7-9.5,11.4Z"/>
      <path class="cls-3" d="M-30.5,315.8c-1.2-.9-2.3-1.6-3.2-2.5-16.6-16.6-33.2-33.2-49.8-49.7-2.7-2.6-2.5-4.2,0-6.8,16.7-16.5,33.3-33.1,49.8-49.8,2.4-2.4,3.8-2.1,6,0,16.5,16.7,33.1,33.3,49.8,49.8,2.7,2.7,2.5,4.4,0,6.9-16.5,16.4-33,32.9-49.5,49.4-.9.9-2,1.6-3.3,2.7ZM-51.7,278.2c4.8,3.6,10.8,2.5,16-2.8,1.1-1.1,2.2-2.1,3.4-3.1.5.4.9.7,1.4,1.1-2.6,4-5.1,8-7.9,12.4h16.2c-2.6-4.4-5-8.4-7.4-12.3.8-.6,1.6-1.2,2.4-1.8.9,1.4,1.6,3,2.7,4.2,4.7,5,11.7,5.7,16.1,2,4.7-4.1,6.1-12.4,2.1-17.2-7.5-8.9-15.5-17.3-23.9-26.6-8.4,9.4-16.8,17.9-24.2,27.3-4.2,5.3-2.1,13.1,3.1,16.9Z"/>
      <path class="cls-8" d="M-26.8,191c-2.6,2.6-4.4,3.3-7.3.3-18.2-18.3-36.5-36.5-54.8-54.7-2.1-2.1-2-3.6.1-5.8,18.3-18.2,36.5-36.4,54.7-54.7,2-2,3.7-2.9,6.2-.4,18.8,18.9,37.6,37.8,56.4,56.6.3.3.5.8,1.2,2.1-7.4,7.4-14.8,14.6-22.1,21.8-11.6,11.5-23.1,23-34.6,34.7ZM-33.5,187c.8.8,1.7,1.5,2.9,2.5,1.2-1,2.5-1.8,3.5-2.8,16.5-16.5,32.9-33,49.5-49.4,2.7-2.7,2.5-4.3,0-6.9C5.9,114.1-10.5,97.7-26.7,81.3c-3-3-4.8-2.8-7.6.2-16.2,16.5-32.6,32.8-49.1,49-2.8,2.7-2.5,4.3,0,6.8,16.7,16.5,33.2,33.1,49.9,49.7Z"/>
      <path class="cls-3" d="M-27.3,60.1c-1.9,1.9-3.4,3.5-6.1.8-17.1-17.3-34.3-34.4-51.5-51.6-.4-.4-.8-1-1.9-2.6,9.1-8.9,18.1-17.6,26.9-26.3,8.6-8.5,17.3-17.1,25.7-25.8,2.6-2.7,4.3-2.7,6.9,0C-10.7-28.9,5.7-12.5,22.3,3.9c2.6,2.6,2.6,4.3,0,6.9C5.7,27.1-10.8,43.6-27.3,60.1ZM-52.2,25c5,4,11.1,3,16.3-2.5,1.1-1.1,2.4-2,3.6-3l1,1c-2.5,4.1-5.1,8.1-7.7,12.4h16.4c-2.5-4.3-5-8.4-7.5-12.5.7-.5,1.4-1.1,2.1-1.6.8,1.2,1.4,2.7,2.4,3.7,5.2,5.5,11.9,6.3,16.9,2.2,4.8-4,5.8-13.1,1.3-18.1C-14.6-1.9-22.3-9.9-30.6-18.9-38.8-9.8-46.9-1.5-54.3,7.4c-4.3,5.2-2.8,13.5,2.2,17.5Z"/>
      <path class="cls-8" d="M-83.4,256.8c-2.6,2.6-2.8,4.2,0,6.8,16.7,16.5,33.2,33.1,49.8,49.7.9.9,2,1.6,3.2,2.5,1.3-1,2.4-1.8,3.3-2.7,16.5-16.5,33-33,49.5-49.4,2.5-2.5,2.7-4.2,0-6.9-16.7-16.5-33.3-33.1-49.8-49.8-2.2-2.2-3.6-2.5-6,0-16.5,16.7-33.1,33.3-49.8,49.8ZM-30.9,319.8c-19.4-19.5-39.3-39.5-58.9-59.3,19.5-19.5,39.6-39.5,59.5-59.3,19.3,19.5,39.1,39.6,58.7,59.5-19.3,19.2-39.3,39.2-59.3,59.1Z"/>
      <path class="cls-8" d="M-86.7,6.7c1.1,1.6,1.4,2.2,1.9,2.6,17.2,17.2,34.4,34.4,51.5,51.6,2.7,2.7,4.2,1.1,6.1-.8C-10.8,43.6,5.7,27.1,22.2,10.8c2.6-2.6,2.7-4.3,0-6.9C5.7-12.5-10.7-28.9-27.1-45.5c-2.6-2.6-4.3-2.6-6.9,0-8.5,8.7-17.1,17.3-25.7,25.8-8.9,8.8-17.8,17.4-26.9,26.3ZM-30.5,66.8c-19.9-19.9-39.9-39.8-59.8-59.7,19.8-19.7,39.9-39.6,59.7-59.4C-11-32.6,9-12.5,28.8,7.4,9.3,26.9-10.6,46.9-30.5,66.8Z"/>
      <path class="cls-7" d="M223.9,199.9c-21,20.9-41.1,40.8-61.1,60.6,19.8,19.8,39.7,39.7,59.9,59.8.7-.6,1.7-1.2,2.5-2,18.4-18.3,36.7-36.8,55.2-55,2.6-2.6,2.1-4.2-.2-6.5-11.5-11.3-22.9-22.7-34.2-34.2-7.6-7.7-14.9-15.5-21.9-22.7h0ZM219.2,191.3c2.6,2.6,4.1,2.7,6.8,0,17.9-18.1,35.9-36.1,54-54,2.5-2.5,2.9-4.2.2-6.9-18.3-18.1-36.5-36.4-54.8-54.6-.8-.8-1.8-1.4-2.9-2.3-1.2.9-2.3,1.6-3.2,2.5-18,18-36,36-54.1,54-2.6,2.6-3.1,4.4-.2,7.3,18.1,17.9,36.1,35.9,54.1,54h0ZM216.3-64.5c1.9,2,4,3.8,6.2,5.8,1.4-1.2,2.4-2.1,3.3-3,17.8-17.8,35.5-35.7,53.4-53.3,3.3-3.2,3.4-5,.1-8.3-12.3-12-24.4-24.1-36.4-36.4-6.6-6.7-12.9-13.8-19.4-20.7-.4.3-.8.6-1.2,1-.7.5-1.4.8-2,1.4-18.5,18.4-36.9,36.9-55.5,55.3-3.1,3.1-1.8,4.9.6,7.3,17,16.9,33.9,33.9,50.9,50.8h0ZM189.9,35.8c10.6,10.6,21,21.3,32.1,32.5,2.1-2,3.6-3.3,5-4.7,17.4-17.4,34.7-35,52.3-52.2,3.2-3.1,3.3-4.8.2-7.9-15.7-15.4-31.1-31.1-46.7-46.6-3.4-3.4-6.8-6.6-10.2-10-1.1.8-1.6,1.2-2.1,1.7-18.6,18.6-37.2,37.2-55.9,55.7-2.7,2.6-2,4.3.3,6.5,8.4,8.3,16.8,16.6,25.1,25ZM217.6,67.8c-18.1-18.1-36.3-36.2-54.3-54.4-3.1-3.2-4.9-3-8,.1-17.7,17.9-35.5,35.7-53.3,53.5-1,1-2,2.2-2.5,2.8,20.2,20.3,40.3,40.4,60.1,60.3,19.6-19.6,39.6-39.6,60-60-.6-.7-1.3-1.5-1.9-2.2ZM154.1-116.5c2.7-2.7,1.1-4.2-.8-6.1-18.1-18-36.1-36-54-54.1-2.6-2.6-4.2-2.7-6.8,0-17.9,18.1-36,36.1-54,54.1-1,1-1.9,2.2-2.6,3,20.2,20.2,40.1,40.2,60.2,60.4.4-.2.8-.3,1-.6,19-18.9,38-37.9,57-56.8ZM155.3,254.2c3.1,3.1,4.9,3.1,7.9,0,15.1-15.4,30.5-30.7,45.9-45.9,3.6-3.6,7.7-6.7,11-9.6-21.3-21.4-41.3-41.5-61.4-61.8-.4.4-1.1.8-1.7,1.4-18.6,18.6-37.2,37.2-55.9,55.7-2.8,2.8-1.6,4.3.6,6.4,17.9,17.8,35.9,35.7,53.6,53.7h0ZM153.2,390.5c3.1-3.1,2.5-4.8-.2-7.6-17.8-17.6-35.4-35.3-53.1-53-1.2-1.2-2.7-2.3-3.8-3.4-20.3,20.3-40.2,40.1-59.8,59.8,20.1,20.2,40,40.2,60.2,60.4.9-.8,2-1.7,3.1-2.7,17.9-17.9,35.7-35.9,53.8-53.6h0ZM29.2,254.8c2.6,2.7,4.3,2.4,6.9-.1,16-16.2,32.2-32.4,48.4-48.4,2.9-2.9,6.3-5.3,9.2-7.6-21.2-21.3-41.2-41.3-60.9-61.1-20,20-40,40-60.2,60.1.3.3.7,1,1.3,1.6,18.5,18.5,37,36.9,55.4,55.5ZM-34,191.3c2.9,2.9,4.7,2.3,7.3-.3,11.4-11.6,23-23.2,34.6-34.7,7.3-7.3,14.7-14.5,22.1-21.8-.7-1.2-.9-1.7-1.2-2.1-18.8-18.9-37.7-37.7-56.4-56.6-2.5-2.6-4.2-1.7-6.2.4-18.2,18.3-36.4,36.5-54.7,54.7-2.1,2.1-2.3,3.6-.1,5.8,18.3,18.2,36.6,36.4,54.8,54.7h0ZM535.4,254.9c2.8,2.8,4.5,2.1,6.9-.3,14.2-14.3,28.4-28.6,42.7-42.8,4.8-4.8,9.5-9.6,13.8-13.9-20.4-20.5-40.3-40.5-59.7-59.9-19.9,19.8-40,39.9-60.3,60.1.2.2.6,1,1.2,1.5,18.5,18.5,37,36.9,55.4,55.5h0ZM541.5,133.2c.6,1.1.8,1.6,1.1,2,18.8,18.9,37.7,37.6,56.5,56.6,2.5,2.5,4.2,1.8,6.2-.3,18.2-18.3,36.4-36.6,54.7-54.8,2.3-2.3,2.1-4-.2-6.2-18.2-18.1-36.3-36.2-54.3-54.4-2.6-2.6-4.4-2.5-6.9.1-7.7,8-15.7,15.8-23.6,23.7-11.1,11-22.2,22-33.4,33.2h0ZM406.5,137c.9-.9,1.6-2,2.6-3.3-.9-1.2-1.6-2.3-2.5-3.2-18.1-18.1-36.3-36.2-54.3-54.4-2.7-2.7-4.3-2.3-6.9.2-17.8,18-35.6,35.9-53.6,53.7-3,2.9-3,4.7,0,7.6,18.1,17.9,36.1,35.9,54,54,2.2,2.2,3.7,2.6,6.1.2,18.2-18.3,36.4-36.5,54.7-54.8h0ZM343.6-59c-18.4-18.3-36.8-36.7-55.1-55.1-2.2-2.2-3.6-2-5.7,0-18.3,18.4-36.7,36.8-55.1,55.1-2.4,2.4-2.2,3.9,0,6.1,5.4,5.2,10.6,10.5,15.9,15.8,13.7,13.8,27.4,27.6,41.4,41.7,1.3-.8,1.9-1.1,2.3-1.6,18.9-18.8,37.7-37.6,56.6-56.4,2.3-2.3,1.7-3.8-.3-5.7h0ZM282.7,255.1c2,2.1,3.5,2.4,5.8.2,18.4-18.5,36.9-37,55.4-55.5.8-.8,1.4-1.8,2.2-2.8-.8-1.1-1.4-2-2.2-2.8-18.3-18.4-36.7-36.7-55-55.1-2.5-2.6-4.1-2.2-6.5.2-18.1,18.3-36.4,36.5-54.7,54.7-2.3,2.3-2.4,3.8,0,6.1,18.4,18.3,36.8,36.7,55.1,55.1h0ZM281.8-125.2c3.2,3.3,5,2.8,8-.2,17.7-17.9,35.5-35.6,53.3-53.4,1-1,1.9-2.2,2.7-3.1-20.3-20.3-40.4-40.3-60.2-60.2-19.8,19.7-39.7,39.6-60.2,60,1.4,1.5,2.7,2.9,3.9,4.1,17.5,17.6,35.2,35,52.5,52.7h0ZM343.9,68c-2.5-2.6-5.2-5.2-7.8-7.8-15.6-15.7-31.3-31.3-46.9-47-2.4-2.4-4.1-3.2-6.9-.3-18,18.2-36.2,36.3-54.3,54.4-1.9,1.9-3.5,3.3-.7,6.1,18.7,18.5,37.2,37.1,55.8,55.8,2,2,3.4,1.9,5.3,0,18.4-18.5,36.9-37,55.4-55.5.8-.8,1.4-1.8,2.3-2.8-.8-1-1.4-2-2.1-2.8h0ZM333.2,52.4c5.1,5.2,9.8,10.8,14.3,15.8,21.3-21.2,41.3-41.2,61.1-61-19.9-19.7-39.9-39.6-60.2-59.8-.2.2-1.1.7-1.8,1.3-18.6,18.6-37.2,37.2-55.9,55.7-2.7,2.7-1.1,4.2.8,6.1,13.9,13.9,27.9,27.7,41.6,41.7ZM282.8,381.7c2.9,2.9,4.4,1.3,6.4-.8,17.7-17.8,35.5-35.6,53.3-53.4,1.2-1.2,2.3-2.6,3.1-3.5-20.4-20.4-40.3-40.4-60.1-60.2-19.7,19.8-39.7,39.7-60,60,.6.8,1.2,1.6,1.9,2.3,18.5,18.5,37,37,55.4,55.6ZM470.4,326.3c3-3,1.1-4.5-.9-6.5-17.8-17.8-35.5-35.5-53.3-53.3-1.2-1.2-2.6-2.4-3.1-2.8-20.5,20.5-40.5,40.5-60.1,60.1,19.5,19.6,39.4,39.6,59.4,59.8.4-.3,1-.6,1.5-1,18.8-18.8,37.6-37.7,56.5-56.4h0ZM337.2-70c3.7,3.8,7,7.9,10.6,11.9,2-1.4,2.5-1.7,2.8-2,18.6-18.6,37.2-37.2,55.9-55.7,3-3,1.9-4.9-.5-7.4-17.9-17.8-35.8-35.7-53.7-53.6-1-1-2.2-1.8-3.3-2.8-.9.6-1.5,1-1.9,1.4-18.7,18.7-37.4,37.5-56.2,56.1-3,2.9-1.3,4.4.8,6.4,15.2,15.2,30.5,30.3,45.6,45.6ZM408.4,254.5c3,3.1,4.7,2.8,7.5-.1,14-14.2,28.2-28.3,42.3-42.4,4.8-4.8,9.7-9.5,14-13.6-20.6-20.7-40.6-40.8-60.3-60.7-19.7,19.6-39.7,39.5-60.1,59.8.9,1,1.8,2,2.7,3,18,18,36.1,35.9,53.9,54.1h0ZM478.9,450.8c4.7,5.1,9.8,10.6,14.8,16h-4c-4.6-4.7-9.2-9.5-14.2-14.7-5,5.3-9.4,10-13.8,14.7h-5c5.4-5.5,10.8-11,15.7-16.1-20.5-20.6-40.4-40.6-60-60.3-1,1-1.9,1.9-2.9,2.9-19,19-38.2,38.1-58.6,58.5,5.4,4.9,11.1,9.9,16.8,15h-5c-4.4-4.6-8.8-9.2-13-13.7-1.1.5-1.7.5-2,.8-4.4,4.3-8.7,8.6-13,12.9h-4c5.1-5.6,10.1-11.1,14.8-16.2-1.8-1.8-3.6-3.6-5.3-5.3-18.4-18.5-36.6-36.7-55-55.1-.2.1-.8.4-1.2.8-18.9,18.8-37.7,37.7-56.6,56.5-2,2-2,3.4,0,5.4,4.6,4.6,8.9,9.3,13.4,14h-4c-3.9-3.9-7.6-7.9-11.6-11.5-1-.9-3.9-1.3-4.7-.6-4.1,3.8-7.8,8-11.6,12.1h-5c5.3-5.5,10.6-11,15.6-16.2-20.4-20.3-40.5-40.4-60.2-59.9-19.8,19.7-39.8,39.7-61.3,61.1,5.4,4.9,11.1,10,16.8,15.1h-5c-4.5-4.7-9-9.5-13.6-14.3-5.2,5.2-9.8,9.7-14.4,14.3h-4c5.1-5.6,10.2-11.1,15.1-16.4-20.3-20.2-40.3-40.2-60.2-60-19.7,19.7-39.8,39.7-60,60,4.9,5.3,10.1,10.9,15.2,16.5h-4c-4.7-4.6-9.4-9.3-14.5-14.4-4.7,5-9.1,9.7-13.5,14.4h-5c5.4-5.5,10.8-11.1,15.5-15.9-20.6-20.6-40.5-40.6-61.7-61.9-.6.8-1.2,1.7-1.9,2.7l-1.8-1.8h0c2.3-2.3,2.4-3.9,0-6.1-6.8-6.6-13.5-13.2-20.2-19.9v-4c7.6,7.2,15.1,14.4,22.3,21.2.9.8,1.7,1.6,2.6,2.5,20.4-20.3,40.4-40.2,60.2-59.8-19.8-19.9-39.9-39.9-61.2-61.3-7.7,8.2-15.8,16.8-23.8,25.4v-5c7.2-7.8,14.4-15.5,22.1-23.9-6.8-6.5-14.4-13.8-22.1-21.1v-5c8.4,8.3,16.7,16.5,25.1,24.8,1.1-.8,1.8-1.2,2.4-1.8,18.7-18.7,37.4-37.4,56.2-56,3-3,1-4.5-.9-6.4-17.2-17.2-34.3-34.4-51.5-51.5-1.8-1.8-3.8-3.6-5.9-5.6-1.9,1.9-3.5,3.3-5,4.8-6.8,6.5-13.6,13.1-20.4,19.6v-4c6.6-6.5,13-13.2,19.7-19.6,2.7-2.5,2.7-4.3,0-6.9-6.7-6.4-13.2-13-19.8-19.6v-4c8.5,8.1,16.9,16.1,24.7,23.6,1.6-1.6,3.2-3.2,4.9-4.8,18.8-18.7,37.2-37,55.4-55.1-19.8-19.7-39.8-39.7-60.2-60.1-8.1,8-16.4,16.2-24.8,24.5v-5c7.1-7.8,14.2-15.7,20.5-22.6-6.2-6.8-13.4-14.6-20.5-22.4v-5c8,8.6,16,17.3,23.7,25.6,21.4-21.5,41.5-41.6,61.1-61.2-19.7-19.8-39.7-39.8-60-60.1-1.2,1.1-2.7,2.4-4.1,3.8-6.9,6.7-13.8,13.3-20.8,20v-4c6.6-6.5,13.1-13.1,19.8-19.6,2.6-2.5,2.8-4.4,0-6.9-6.7-6.4-13.2-13-19.8-19.5v-4c7.5,7.2,15.1,14.3,22.3,21.2.9.8,1.8,1.7,2.7,2.6,20.4-20.4,40.4-40.3,60.1-59.9-19.9-19.9-39.9-40-61.4-61.4-7.7,8.3-15.7,16.9-23.7,25.6v-5c7.2-7.8,14.3-15.5,21.8-23.6-2.8-2.9-6.3-6.7-9.8-10.4h5c6.7,10,8.1,10.2,16,1.7.4-.5.7-1.1,1-1.7h5c-3.5,3.8-7,7.5-10.6,11.4,1,1.2,1.7,2.3,2.6,3.2,18.2,18.2,36.5,36.4,54.6,54.7,2.6,2.7,4.1,2.1,6.4-.3,10-10.2,20.1-20.3,30.3-30.3,9-8.9,18-17.6,27.2-26.6-4-4.6-7.3-8.4-10.6-12.2h4c5.8,6.4,11.7,6.6,17.7.4.1-.1.2-.3.3-.4h4c-3.3,3.8-6.6,7.6-9.4,10.9,20.2,20.3,40.2,40.3,59.8,59.9,19.6-19.7,39.6-39.7,59.7-59.9-3.2-3.4-6.7-7.1-10.1-10.9h5c2.2,2.4,4.3,5,6.8,7.2.7.6,3,.7,3.7,0,2.4-2.2,4.4-4.8,6.6-7.2h5c-3.5,3.7-7,7.5-10.3,10.9,20.3,20.2,40.2,40.2,60.4,60.3,0,0,.8-.2,1.2-.7,18.9-18.9,37.9-37.9,56.8-56.9,1.9-1.9,1.5-3.3-.2-5-2.8-2.8-5.4-5.8-8-8.7h4c11,11.2,7.2,10.4,17.7.4.1-.1.2-.2.3-.4h4c-1.8,2.1-3.5,4.3-5.5,6.3-5.1,5.1-5.2,5.1-.3,10,15.2,15.2,30.4,30.4,45.5,45.6,3.4,3.4,6.8,6.7,9.9,9.7,18.6-18.6,36.9-36.8,55.3-55.3,1.8-1.8,3.5-3.5,5.3-5.3-3.3-3.5-6.8-7.2-10.3-10.9h5c6.8,10,8.2,10.1,16,1.7.4-.5.7-1.1,1-1.7h5c-3.5,3.8-7,7.5-10,10.8,1.5,1.5,3,3,4.4,4.4,18.7,18.8,37.2,37.4,55.6,55.9,19.7-19.7,39.6-39.7,59.7-59.8-3.1-3.6-6.4-7.4-9.7-11.2h4c10.9,11.2,7.4,10.3,17.7.4.1-.1.2-.3.3-.4h4c-3.3,3.8-6.6,7.7-10.1,11.6.9,1.1,1.6,2,2.4,2.8,18.3,18.4,36.7,36.6,55,55.1,3.2,3.2,4.7,1.2,6.8-.9,17.9-17.9,35.7-35.8,53.6-53.6,1-1,1.9-2.2,3-3.5-3.7-4-7.2-7.7-10.7-11.5h5c2.2,2.4,4.3,5,6.7,7.2.7.6,3,.6,3.7,0,2.4-2.2,4.4-4.8,6.6-7.2h5c-3.5,3.7-7,7.5-11.8,12.5.4.4.9.7,1.3,1.1l-1.7,1.7-.2-.2c-20.6,20.4-40.7,40.4-60.5,60.1,19.6,19.6,39.5,39.6,59.7,59.9.8-.7,1.7-1.5,2.6-2.3.3-.3.6-.6.9-.8,7.6-7.5,15-15.1,22.7-22.6,5-4.9,10.1-9.5,15.1-14.3v4c-12,12-24,24-36.2,35.8-2.7,2.7-1.8,4.4.4,6.6,12,11.8,23.8,23.7,35.8,35.6v4c-1.3-1-2.7-1.9-3.8-3-10.9-10.8-21.7-21.7-32.5-32.5-1.6-1.6-3.4-3.1-4.6-4.3-20.4,20.3-40.4,40.4-60,60,19.8,19.9,39.8,40,61.1,61.4,0,0,.2-.2.2-.2l1.6,1.5c-.2.2-.1.6-.2.9l-1.1,1.1c1.2.9,2.4,1.8,3.6,2.7l-1.8,1.8h-.1c-2.8-2.9-4.4-3-7.2-.1-17.9,18.1-35.9,36.2-54.1,54-3,2.9-2.5,4.5.2,7.2l.2.2c17.8,17.6,35.5,35.4,53.2,53.1,1.2,1.1,2.4,2.2,4,3.6,14-13.9,27.7-27.7,41.4-41.4v5c-11.9,11.9-23.7,23.8-35.8,35.6-2.7,2.6-2.7,4.2,0,6.9,12,11.8,23.9,23.7,35.8,35.6v5c-13.7-13.8-27.4-27.5-40.3-40.4-.8.8-1.5,1.5-2.3,2.3-19.8,19.7-39.2,38.9-58.2,57.7,19.6,19.6,39.6,39.5,60,59.9,13.3-13.2,27-26.8,40.7-40.4v5c-1.3,1.1-2.6,2-3.8,3.2-10.1,10.1-20.2,20.1-30.3,30.2-5,5-5.1,5.1,0,10.2,11.3,11.2,22.7,22.3,34,33.5v5c-13.1-12.9-26.1-25.8-38.4-37.9l-2.1-2.1c-20.6,20.5-40.7,40.5-60.4,60.1,19.5,19.6,39.5,39.6,60.2,60.4.8-.8,1.6-1.7,2.4-2.5l2,2h0c-2,1.9-1.9,3.3-.7,4.9l-1.8,1.7c-.4-.5-.8-1-1.2-1.5-21.3,21.2-41.4,41.3-62.7,62.6,5.5,5,11.2,10.1,16.9,15.2h-5c-4.5-4.7-9-9.5-13.4-14.1-5.4,5.2-10,9.6-14.6,14.1h-4c5.1-5.6,10.2-11.1,15.2-16.5-20.2-20.2-40.3-40.2-59.6-59.6-20,19.9-40.2,40-60.4,60.1h0ZM475.4,447c20.2-20.3,40-40.2,59.1-59.4-20-20.1-39.9-40.2-60-60.4.3-.2,0,0-.3.2-18.9,18.8-37.7,37.6-56.7,56.4-2.8,2.8-1.5,4.4.6,6.5,18,18,36,36,54.1,54.1,1,1,2.2,1.8,3.2,2.7ZM472,191.3c2.9,2.9,4.6,2.4,7.2-.2,9.8-10,19.7-19.9,29.6-29.7,9-8.9,18.1-17.6,27.6-26.9-2.2-2.4-3.5-3.9-4.9-5.3-17.4-17.4-34.9-34.8-52.2-52.3-3.1-3.2-4.9-3.1-8,0-17.8,18-35.7,35.9-53.7,53.7-2.5,2.5-2.7,4-.2,6.4,18.2,18,36.4,36.1,54.4,54.4h0ZM475.2-59.2c20.2-20.3,40.1-40.3,60.3-60.5-.5-.5-1.2-1.5-2-2.3-18.3-18.4-36.8-36.7-55-55.2-2.8-2.8-4.3-1.7-6.5.5-18,18.1-36,36.1-54.1,54.1-2.7,2.7-2.5,4.3,0,6.8,18.1,17.9,36.1,36,54.1,54,1,1,2.2,1.9,3,2.5ZM601.9,319.8c19.8-19.8,39.8-39.7,59.7-59.5-19.8-19.8-39.8-39.7-59.1-59-20,19.8-40.1,39.8-59.4,59,19.5,19.7,39.3,39.8,58.8,59.5h0ZM661.3,387.2c-20-20.1-39.9-40-59.4-59.5-19.8,19.7-39.8,39.7-59.3,59.1,19.7,19.8,39.6,39.8,59.2,59.6,19.8-19.7,39.8-39.6,59.5-59.2h0ZM661-119.8c-19.4-19.4-39.2-39.3-58.9-59-19.7,19.9-39.6,40-59.3,59.9,19.4,19.5,39.3,39.5,58.6,58.9,19.9-19.9,39.9-40,59.7-59.8ZM660.9,7.9c-19.9-20.1-39.8-40.3-59-59.7-19.8,19.7-39.8,39.6-59.4,59.1,19.8,19.8,39.7,39.8,59.5,59.6,19.7-19.7,39.6-39.7,58.8-58.9ZM598.7,70.2c-.4-.5-.9-1.4-1.6-2.1-18.5-18.5-37-36.9-55.4-55.5-2.7-2.7-4.3-1.8-6.5.4-11.5,11.6-23,23.1-34.6,34.6-7.5,7.5-15.3,14.7-22.4,21.5,21,20.9,41.1,40.9,60.8,60.5,19.5-19.4,39.5-39.4,59.7-59.5ZM598.4-182.3c-19.9-19.9-39.9-40-59.5-59.6-19.9,19.8-40,39.9-59.7,59.6,19.7,19.8,39.8,39.8,59.7,59.8,19.7-19.8,39.6-39.8,59.5-59.8ZM597.8-55.7c-19.7-19.8-39.9-39.9-59-59.1-19.7,19.6-39.9,39.5-59.4,58.9,19.6,19.8,39.5,39.8,59.3,59.7,19.8-19.9,39.9-40,59.2-59.5h0ZM597.7,323.9c-19.8-19.9-39.8-40-59.5-59.8-19.6,19.6-39.6,39.6-59.4,59.3,19.9,19.9,40,39.9,59.5,59.4,20-19.9,40.1-39.8,59.4-58.9h0ZM534.8,260.2c-19.6-19.7-39.5-39.6-59.2-59.3-19.9,19.8-39.9,39.9-59.2,59.1,19.7,19.9,39.6,40,59.1,59.7,19.7-19.7,39.6-39.7,59.3-59.4h0ZM534.7,7.1c-19.6-19.7-39.5-39.8-59-59.5-19.9,20-40,40-59.6,59.6,19.6,19.7,39.6,39.7,59.1,59.3,19.8-19.8,39.9-39.9,59.4-59.4ZM472.1,70.1c-.2-.3-.4-.9-.9-1.3-18.8-18.9-37.7-37.7-56.5-56.6-2.7-2.8-4.2-1.1-6.1.7-9.9,9.9-19.7,19.8-29.6,29.7-9.2,9.1-18.4,18.2-27.5,27.1,20.6,20.5,40.7,40.5,60.4,60.1,19.9-19.8,40-39.7,60.1-59.8ZM412-123.4c19.8-19.7,39.9-39.7,59.8-59.5-19.6-19.7-39.6-39.6-59.3-59.4-19.9,19.9-40,40-59.6,59.6,20,20,39.9,40.1,59.1,59.3ZM412,3.5c19.9-19.8,39.9-39.9,59.8-59.7-19.6-19.6-39.6-39.6-59.3-59.3-19.9,19.9-39.9,40-59.6,59.8,19.6,19.7,39.6,39.8,59.1,59.3ZM349,320c19.8-19.9,39.8-39.9,59.5-59.7-19.8-19.7-39.8-39.6-59.5-59.2-19.9,19.7-39.9,39.6-59.5,59,19.8,20,39.7,40,59.4,59.9h0ZM406.2,390.4c2.7-2.7,2.9-4.6,0-7.4-11.5-11.3-23-22.7-34.2-34.2-7.4-7.6-14.5-15.5-21.9-23.4-2.3,1.9-3,2.3-3.6,2.9-18.5,18.5-36.9,37-55.5,55.4-2.7,2.7-1.8,4.3.5,6.5,15.7,15.6,31.3,31.3,46.9,47,3.4,3.4,6.9,6.6,10.4,10,1.2-.9,2-1.4,2.7-2.1,18.2-18.2,36.4-36.5,54.7-54.7ZM280.5,389.8c3.3-3.2,1-4.8-1-6.8-17.8-17.8-35.6-35.5-53.2-53.4-3-3-4.6-2.9-7.5,0-17.5,17.8-35.2,35.4-52.9,52.9-3.2,3.2-3.5,5.1-.1,8.4,12.4,12.1,24.5,24.5,36.7,36.7,6.6,6.5,13.2,13,19.9,19.6,1.1-.8,1.8-1.2,2.4-1.8,18.6-18.6,37.2-37.2,55.9-55.7h0ZM159.6-122.8c19.6-19.6,39.5-39.6,59-59.2-20.1-20.1-40.1-40.1-59.4-59.3-19.6,19.5-39.7,39.5-59.3,59,19.7,19.7,39.7,39.7,59.6,59.5h0ZM218.4,323.8c-19.8-19.9-39.8-40-59.1-59.4-19.8,19.7-39.9,39.6-59.8,59.4,19.7,19.7,39.6,39.6,59.2,59.2,20.1-20,40.2-40,59.7-59.3h0ZM218.1-55.2c-19.8-20-39.8-40.2-59.4-60l-59.2,59.2c19.9,19.9,39.9,39.9,59.8,59.8,19.7-19.8,39.8-39.8,58.8-59ZM96.1,319.7c19.8-19.7,39.8-39.6,59.6-59.4-19.8-19.8-39.8-39.8-59.5-59.5-20,19.9-40,39.9-59.3,59.1,19.7,19.9,39.7,40,59.2,59.8h0ZM95.9,66.8c19.9-19.8,39.9-39.7,59.8-59.4-19.9-19.7-39.9-39.6-59.6-59.1C76.4-32.2,56.3-12.2,36.8,7.2c19.6,19.8,39.5,39.9,59.1,59.6ZM155.3,134.2c-20-20.1-39.8-40.2-59.8-60.3-.2.2-.8.5-1.3.9-18.7,18.7-37.4,37.4-56.2,56-2.8,2.7-1.6,4.3.6,6.5,13.7,13.6,27.3,27.3,41,40.9,5.4,5.4,10.8,10.6,16.1,15.8,20.4-20.5,40.3-40.4,59.7-59.8h0ZM92.6,70.1c0-.2-.4-.8-.8-1.2-18.8-18.8-37.7-37.7-56.5-56.6-2-2-3.4-1.9-5.4,0-5.3,5.5-10.8,10.8-16.2,16.2C0,42.3-13.8,56.1-27.2,69.4c20.5,20.6,40.4,40.8,60,60.5,19.7-19.7,39.7-39.6,59.8-59.8ZM32.9,3.2c19.7-19.6,39.7-39.5,59.5-59.3-19.9-19.8-40-39.9-59.8-59.7C12.8-96-7.2-75.9-26.5-56.6-6.7-36.6,13.4-16.4,32.9,3.2ZM32.6-122.6c19.9-19.8,40-39.9,59.8-59.6-19.8-19.8-39.8-39.7-59.8-59.7-19.7,19.7-39.8,39.8-59.7,59.6,19.9,19.9,39.9,39.9,59.7,59.7h0ZM91.8,324c-19.8-19.9-39.7-40.1-59.3-59.8-19.7,19.7-39.7,39.6-59.1,59,20,20.1,40,40.3,59.1,59.4,19.9-19.7,40.1-39.6,59.4-58.7ZM29.5,386.4c-.5-.6-1.2-1.6-2-2.4-18.4-18.4-36.8-36.7-55-55.2-2.5-2.5-4-2-6.1.2-18.5,18.5-37,37-55.5,55.5-.7.7-1,1.6-1.5,2.3,20.2,20,40.1,39.9,59.9,59.6,20-20,40-40,60.2-60.1h0ZM28.8-118.8c-19.8-19.9-39.8-39.9-60-60.1-.2.1-.8.5-1.3.9-18.8,18.7-37.5,37.4-56.3,56.1-2.3,2.3-1.6,3.8.4,5.7,6.5,6.4,13,12.9,19.4,19.4,12.5,12.7,24.9,25.4,37.4,38.2,20.9-20.9,40.9-40.8,60.3-60.2h0ZM28.8,7.4C9-12.5-11-32.6-30.6-52.3-50.4-32.5-70.5-12.6-90.3,7.1c19.9,19.9,39.9,39.8,59.8,59.7C-10.6,46.9,9.3,26.9,28.8,7.4ZM28.4,260.6c-19.6-19.8-39.4-39.9-58.7-59.5-19.9,19.8-39.9,39.8-59.5,59.3,19.7,19.8,39.5,39.8,58.9,59.3,20-19.9,40-39.9,59.3-59.1Z"/>
    </g>
  </g>
  <path class="cls-6" d="M313.8,124.1c24-19.3,33-50.3,20.5-81.6-7.7-19.2-22.2-31.2-40.7-39.1-2.3-1-4.7-1.9-7-2.9,0-.2,0-.3,0-.5H55.7c0,.7,1,1.4,2.8,2.6,27.3,17.8,51.8,38.8,74.8,61.9,17.8,17.9,35.2,36.4,55,52.2,17.5,14,37.1,23.4,59.5,25.9,24.4,2.7,46.7-2.9,65.9-18.4h0Z"/>
</svg>