<?xml version="1.0" encoding="UTF-8"?>
<svg id="Layer_1" data-name="Layer 1" xmlns="http://www.w3.org/2000/svg" xmlns:xlink="http://www.w3.org/1999/xlink" version="1.1" viewBox="0 0 474.4 113.1">
  <defs>
    <style>
      .cls-1 {
        clip-path: url(#clippath);
      }

      .cls-2 {
        fill: none;
      }

      .cls-2, .cls-3, .cls-4, .cls-5, .cls-6, .cls-7, .cls-8 {
        stroke-width: 0px;
      }

      .cls-3 {
        fill: #d9e477;
      }

      .cls-4 {
        fill: #faee4b;
      }

      .cls-5 {
        fill: #9bce7d;
      }

      .cls-6 {
        fill: #705aa6;
      }

      .cls-7 {
        fill: #c8cae0;
      }

      .cls-8 {
        fill: #e9d742;
      }
    </style>
    <clipPath id="clippath">
      <rect class="cls-2" width="474.4" height="113.1"/>
    </clipPath>
  </defs>
  <g class="cls-1">
    <g>
      <path class="cls-4" d="M1149.4,375.6v8.5c-22.3-22-44.6-44-65.6-64.7l-3.6-3.5c-35.1,34.9-69.5,69.1-103.1,102.6,33.4,33.5,67.4,67.6,102.7,103.1,1.4-1.4,2.7-2.8,4.1-4.3l3.4,3.4h0c-3.3,3.3-3.2,5.7-1.2,8.3l-3.1,2.9c-.7-.8-1.4-1.7-2.1-2.5-36.3,36.3-70.6,70.5-107,106.9,9.4,8.5,19.1,17.3,28.8,26h-8.5c-7.6-8.1-15.3-16.2-22.8-24.1-9.2,8.8-17.1,16.5-25,24.1h-6.8c8.7-9.5,17.5-19,26-28.3-34.5-34.5-68.8-68.7-101.8-101.7-34.1,33.9-68.6,68.2-103.1,102.6,8,8.7,16.7,18.1,25.3,27.4h-6.8c-7.8-8.1-15.7-16.2-24.3-25-8.5,9.1-16,17.1-23.5,25h-8.5c9.2-9.4,18.4-18.8,26.8-27.5-35-35.2-69-69.3-102.4-103-1.6,1.6-3.3,3.3-4.9,4.9-32.5,32.4-65.2,65.1-100.1,99.9,9.3,8.3,19,17,28.7,25.6h-8.5c-7.5-7.9-15-15.8-22.2-23.4-1.9.8-2.8.9-3.4,1.4-7.4,7.3-14.8,14.6-22.2,22h-6.8c8.7-9.5,17.3-19,25.2-27.7-3-3-6.1-6.1-9.1-9.1-31.4-31.5-62.5-62.6-93.9-94-.3.2-1.3.6-2.1,1.4-32.2,32.1-64.3,64.3-96.6,96.4-3.4,3.4-3.4,5.7,0,9.1,7.8,7.8,15.2,15.9,22.8,23.9h-6.8c-6.6-6.6-12.9-13.5-19.9-19.6-1.7-1.5-6.7-2.2-8.1-1-7,6.5-13.3,13.7-19.9,20.6h-8.5c9-9.4,18-18.7,26.7-27.7-34.8-34.7-69.1-68.9-102.7-102.3-33.7,33.6-68,67.8-104.6,104.2,9.3,8.3,19,17.1,28.7,25.7h-8.5c-7.7-8.1-15.4-16.2-23.2-24.4-9,8.9-16.8,16.6-24.7,24.4h-6.8c8.7-9.5,17.4-19,25.7-28-34.6-34.5-68.9-68.7-102.8-102.4-33.7,33.6-67.9,67.8-102.5,102.4,8.4,9.1,17.2,18.6,26,28.1h-6.8c-8-7.9-16-15.9-24.8-24.6-8,8.6-15.5,16.6-23,24.6h-8.5c9.2-9.4,18.4-18.9,26.4-27.2-35.1-35.2-69.2-69.3-105.4-105.7-1.1,1.4-2.1,3-3.2,4.6l-3-3.1h0c4-3.9,4.1-6.7.1-10.5-11.6-11.2-23-22.6-34.5-33.9v-6.8c12.9,12.3,25.8,24.6,38.1,36.2,1.5,1.4,3,2.8,4.4,4.2,34.9-34.7,69-68.7,102.7-102.1-33.9-33.9-68.1-68.2-104.5-104.6-13.2,14.1-26.9,28.8-40.7,43.4v-8.5c12.3-13.3,24.5-26.5,37.7-40.8-11.6-11.1-24.6-23.6-37.7-36v-8.5c14.3,14.1,28.5,28.2,42.9,42.4,1.9-1.4,3.1-2,4.1-3,32-31.9,63.8-63.9,95.9-95.7,5.2-5.2,1.7-7.6-1.6-10.9-29.3-29.3-58.6-58.6-87.9-88-3.1-3.1-6.4-6.1-10-9.5-3.3,3.2-6,5.7-8.6,8.2-11.6,11.2-23.2,22.3-34.8,33.5v-6.8c11.2-11.2,22.2-22.5,33.7-33.4,4.6-4.3,4.7-7.3,0-11.7-11.5-10.9-22.5-22.2-33.8-33.4v-6.8c14.5,13.8,28.9,27.5,42.2,40.2,2.8-2.8,5.5-5.5,8.3-8.2,32.1-31.9,63.5-63.2,94.6-94.1-33.8-33.7-67.9-67.8-102.8-102.6-13.8,13.6-28.1,27.7-42.3,41.8v-8.5c12.1-13.4,24.3-26.7,35.1-38.6-10.6-11.6-22.8-24.9-35.1-38.2v-8.5c13.7,14.8,27.4,29.5,40.5,43.7,36.6-36.7,70.8-71,104.3-104.5-33.6-33.7-67.8-68-102.4-102.7-2,1.9-4.5,4.1-6.9,6.4-11.8,11.4-23.6,22.7-35.5,34.1v-6.8c11.3-11.1,22.4-22.4,33.8-33.4,4.4-4.2,4.7-7.5,0-11.8-11.5-10.9-22.6-22.2-33.9-33.3v-6.8c12.9,12.2,25.7,24.5,38.1,36.2,1.5,1.5,3.1,2.9,4.6,4.4,34.8-34.7,69-68.8,102.6-102.3-33.9-34-68.2-68.2-104.8-104.9-13.1,14.1-26.8,28.9-40.5,43.6v-8.5c12.2-13.2,24.5-26.5,37.2-40.3-4.8-5-10.7-11.4-16.7-17.7h8.5c11.5,17.1,13.9,17.4,27.3,2.8.7-.8,1.1-1.9,1.7-2.8h8.5c-6,6.4-11.9,12.8-18.1,19.5,1.7,2.1,2.9,3.9,4.4,5.5,31.1,31.2,62.3,62.2,93.3,93.5,4.5,4.5,7.1,3.5,11-.5,17.1-17.4,34.4-34.6,51.8-51.8,15.3-15.1,30.8-30.1,46.5-45.3-6.8-7.8-12.4-14.3-18.1-20.9h6.8c9.9,11,19.9,11.2,30.2.7.2-.2.3-.4.5-.7h6.8c-5.7,6.5-11.3,13.1-16,18.5,34.5,34.6,68.6,68.7,102.1,102.4,33.5-33.6,67.6-67.7,102-102.2-5.4-5.8-11.4-12.2-17.3-18.6h8.5c3.8,4.1,7.3,8.5,11.5,12.2,1.3,1.1,5.1,1.2,6.3.1,4.1-3.7,7.5-8.2,11.2-12.3h8.5c-6,6.4-12,12.7-17.6,18.7,34.6,34.5,68.7,68.6,103.2,103,.1,0,1.3-.4,2.1-1.1,32.4-32.3,64.7-64.7,97-97.1,3.2-3.2,2.6-5.6-.3-8.6-4.7-4.8-9.1-9.9-13.7-14.9h6.8c18.8,19.2,12.4,17.8,30.2.6.2-.2.4-.4.6-.6h6.8c-3.1,3.6-6.1,7.4-9.4,10.7-8.7,8.7-8.9,8.6-.5,17,25.9,26,51.8,51.9,77.8,77.8,5.8,5.8,11.7,11.4,17,16.5,31.8-31.7,62.9-62.9,94.4-94.4,3-3,6-6,9-9-5.6-5.9-11.6-12.3-17.6-18.6h8.5c11.6,17.1,14,17.3,27.3,2.8.7-.8,1.2-1.9,1.7-2.8h8.5c-5.9,6.4-11.9,12.8-17,18.4,2.5,2.5,5,5.1,7.5,7.6,31.9,32.1,63.5,63.8,94.9,95.4,33.6-33.7,67.6-67.7,101.9-102.2-5.3-6.1-11-12.6-16.6-19.1h6.8c18.6,19.1,12.6,17.6,30.2.7.2-.2.4-.4.5-.7h6.8c-5.7,6.5-11.3,13.1-17.2,19.8,1.5,1.8,2.7,3.4,4.1,4.8,31.3,31.3,62.7,62.5,93.8,94.1,5.4,5.5,8.1,2.1,11.6-1.5,30.5-30.5,61-61.1,91.5-91.6,1.8-1.8,3.2-3.8,5.1-6-6.3-6.8-12.3-13.2-18.3-19.6h8.5c3.8,4.1,7.3,8.6,11.5,12.3,1.2,1.1,5.1,1.1,6.2,0,4.1-3.7,7.6-8.1,11.3-12.3h8.5c-6,6.4-12,12.7-20.2,21.4.8.6,1.5,1.2,2.2,1.8l-2.9,2.9-.4-.4c-35.2,34.9-69.5,69-103.3,102.5,33.4,33.5,67.4,67.7,101.9,102.3,1.3-1.2,2.9-2.5,4.4-3.9.5-.5,1-.9,1.5-1.4,12.9-12.8,25.7-25.8,38.7-38.5,8.5-8.3,17.2-16.3,25.8-24.4v6.8c-20.6,20.4-41,41-61.8,61.2-4.6,4.5-3.1,7.5.7,11.2,20.4,20.2,40.7,40.5,61.1,60.8v6.8c-2.2-1.7-4.6-3.2-6.5-5.1-18.5-18.4-37-37-55.5-55.5-2.8-2.8-5.8-5.3-7.9-7.3-34.8,34.7-69,69-102.5,102.4,33.8,33.9,67.9,68.3,104.3,104.8.1-.1.3-.3.4-.4l2.7,2.6c-.3.3-.2,1.1-.3,1.6-.6.6-1.2,1.2-1.8,1.8,2,1.6,4.1,3.1,6.1,4.6l-3.2,3.1-.2-.2c-4.7-4.8-7.5-4.8-12.3,0-30.6,31-61.3,61.7-92.3,92.3-5.1,5-4.2,7.7.4,12.3l.3.3c30.4,30.1,60.6,60.5,90.8,90.7,2,2,4.1,3.7,6.9,6.2,23.8-23.8,47.3-47.2,70.8-70.7v8.5c-20.3,20.3-40.5,40.7-61,60.7-4.5,4.5-4.6,7.2,0,11.7,20.5,20.1,40.7,40.5,61.1,60.7v8.5c-23.4-23.5-46.8-47-68.7-69-1.3,1.3-2.6,2.6-3.9,3.9-33.8,33.6-66.9,66.4-99.3,98.5,33.5,33.4,67.7,67.5,102.5,102.2,22.8-22.6,46.1-45.8,69.4-69v8.5c-2.2,1.8-4.5,3.4-6.5,5.4-17.3,17.2-34.5,34.4-51.7,51.6-8.6,8.6-8.7,8.6.1,17.4,19.3,19.1,38.7,38.1,58.1,57.1h0ZM1069.5,98.9c4-3.9,3.5-6.8-.3-10.6-31-30.9-62-61.8-92.8-92.9-4.5-4.5-7.5-4.3-11.8.2-13.2,13.7-26.8,27.1-40.3,40.5-18.9,18.8-37.9,37.6-57.1,56.7,1.1,1.9,1.3,2.8,1.9,3.4,32.1,32.2,64.4,64.3,96.4,96.6,4.2,4.3,7.1,3.1,10.6-.5,31.1-31.2,62.2-62.4,93.4-93.5h0ZM970.5,411.4c33.9-33.8,68-67.8,101.9-101.6-33.8-33.7-67.9-67.8-100.8-100.8-34.1,33.9-68.4,68-101.4,100.8,33.3,33.7,67.2,67.9,100.4,101.6ZM1071.4-339.1c-33.1-33.1-67-67.1-100.6-100.7-33.7,34-67.6,68.2-101.3,102.2,33.1,33.3,67.1,67.5,100,100.6,34-34,68.2-68.3,101.9-102.1ZM970.7-20.5c33.6-33.6,67.7-67.7,100.5-100.6-33.9-34.4-67.9-68.8-100.7-102-33.8,33.6-68,67.6-101.4,100.9,33.7,33.7,67.8,67.9,101.6,101.7h0ZM970.4,627.6c33.8-33.7,67.9-67.6,101.5-101.1-34.2-34.2-68.2-68.3-101.4-101.6-33.7,33.6-68,67.8-101.3,101,33.6,33.8,67.5,68,101.1,101.7h0ZM964.9-14.7c-.7-.9-1.6-2.3-2.7-3.5-31.5-31.6-63.2-63-94.5-94.8-4.6-4.6-7.4-3.1-11.1.6-19.6,19.8-39.2,39.5-59,59.1-12.9,12.7-26.1,25.1-38.2,36.8,35.8,35.7,70.1,69.9,103.7,103.3,33.3-33.2,67.4-67.2,101.9-101.6h0ZM941.4,226.9c8.1-8.2,16.3-16.4,23.6-23.8-34.8-35-68.9-69.1-102-102.3-34,33.9-68.3,68.1-102.9,102.5.3.4,1.1,1.6,2,2.6,31.5,31.6,63.2,63,94.6,94.7,4.7,4.7,7.6,3.6,11.7-.6,24.2-24.5,48.5-48.7,72.8-73.1h0ZM963.5-229.6c-33.7-33.8-68.1-68.2-100.8-101-33.7,33.4-68.1,67.5-101.4,100.5,33.5,33.8,67.5,68,101.2,101.9,33.9-34,68.1-68.4,101.1-101.5h0ZM861.9,519.1c34.1-33.9,68.5-68,101.4-100.6-33.7-33.9-67.9-68.2-101.5-102-33.5,33.5-67.7,67.6-101.4,101.3,34,34,68.3,68.2,101.6,101.4h0ZM862.8-343.6c33.6-33.8,67.6-68,101.6-102.1-33.9-34-68.1-68.2-101.6-101.8-34,33.9-68.2,68.1-102,101.8,33.7,33.8,67.9,68,102,102.1h0ZM858.7,94.9c-3.8-4.1-5.9-6.7-8.3-9-29.8-29.8-59.7-59.4-89.2-89.3-5.3-5.4-8.3-5.3-13.6,0-30.3,30.8-60.9,61.3-91.6,91.6-4.3,4.2-4.6,6.8-.3,11,31.1,30.8,62.1,61.7,92.9,92.8,5,5,7.9,4.2,12.4-.4,16.7-17.1,33.6-33.9,50.6-50.7,15.3-15.2,30.9-30.1,47.2-46h0ZM857-338.9c-.8-.9-2-2.5-3.3-3.9-31.3-31.4-62.8-62.7-93.9-94.3-4.7-4.8-7.3-2.9-11,.8-30.7,30.9-61.4,61.7-92.4,92.3-4.6,4.6-4.3,7.3.1,11.7,30.9,30.6,61.6,61.5,92.4,92.2,1.7,1.7,3.8,3.2,5.2,4.3,34.5-34.6,68.5-68.8,102.9-103.2h0ZM855.4,527.2c-34.1-34.3-68.2-68.6-102.5-103.1.5-.3-.1,0-.5.3-32.3,32.1-64.4,64.3-96.8,96.2-4.8,4.8-2.5,7.4,1.1,11,30.8,30.7,61.5,61.5,92.3,92.3,1.7,1.7,3.8,3.1,5.5,4.6,34.4-34.6,68.3-68.6,100.9-101.4h0ZM855.8-122.4c-33.4-33.7-67.4-67.9-100.8-101.6-34,34.1-68.3,68.3-101.7,101.8,33.5,33.7,67.6,67.8,101,101.3,33.9-33.9,68.1-68.1,101.5-101.5h0ZM856,309.7c-33.5-33.6-67.5-67.7-101-101.3-33.9,33.9-68.2,68-101.1,100.9,33.6,33.9,67.6,68.3,100.9,101.9,33.6-33.7,67.6-67.8,101.2-101.4h0ZM748.9-14.9c-.3-.4-.7-1.5-1.5-2.3-32.1-32.2-64.4-64.3-96.4-96.6-4.6-4.7-7.2-2-10.4,1.2-16.8,16.9-33.7,33.8-50.6,50.7-15.7,15.6-31.4,31.1-46.9,46.3,35.2,35,69.4,69.2,103,102.7,34-33.8,68.2-67.8,102.7-102h0ZM746,422.5c5.1-5,1.9-7.7-1.5-11-30.3-30.3-60.7-60.6-91-91-2.1-2.1-4.5-4-5.3-4.7-35,35-69.2,69.2-102.7,102.7,33.2,33.5,67.2,67.7,101.4,102.1.7-.5,1.7-1,2.5-1.7,32.2-32.1,64.2-64.3,96.5-96.3h0ZM725.2,227.3c8.2-8.2,16.6-16.2,23.9-23.2-35.2-35.4-69.3-69.7-103-103.6-33.6,33.4-67.8,67.4-102.6,102.1,1.6,1.7,3,3.5,4.6,5.1,30.7,30.7,61.6,61.4,92,92.3,5.2,5.2,8.1,4.7,12.9-.2,23.9-24.3,48.1-48.4,72.2-72.5h0ZM646.2-128.6c33.9-33.9,68.2-68.1,102.1-102-33.5-33.5-67.5-67.6-101.2-101.2-34,34.1-68.2,68.3-101.8,102,33.5,33.6,67.7,67.9,100.8,101.2h0ZM748.3-446.8c-33.5-33.6-67.6-67.7-101.3-101.4-34,34-68.3,68.3-101.7,101.7,34.1,34.2,68.1,68.4,100.9,101.3,33.8-33.6,68.1-67.8,102-101.7h0ZM636.9-332.3c5.2-5.2,3.3-8.4-.9-12.6-30.6-30.4-61.1-61-91.6-91.5-1.7-1.7-3.8-3.1-5.7-4.7-1.5,1.1-2.5,1.6-3.3,2.4-31.9,32-63.8,64-95.9,95.8-5,5-2.2,7.5,1.3,11,26,25.9,52,51.7,77.8,77.8,6.4,6.4,12,13.5,18,20.3,3.4-2.4,4.2-2.9,4.8-3.4,31.8-31.7,63.5-63.5,95.5-95h0ZM641.2,93.8c-1.6-2-2.7-3.9-4.3-5.5-30.9-31-62-61.8-92.8-92.9-4.6-4.7-7.4-4-11.7.4-30.3,30.7-60.8,61.3-91.5,91.6-5.1,5-5,8,0,12.9,30.9,30.5,61.6,61.3,92.2,92.2,3.7,3.8,6.4,4.5,10.4.4,31-31.3,62.2-62.3,93.3-93.5,1.6-1.6,2.7-3.5,4.4-5.6h0ZM636.4,532c4.6-4.6,5-7.8.1-12.5-19.7-19.3-39.2-38.7-58.5-58.4-12.7-12.9-24.8-26.4-37.5-39.9-3.9,3.2-5.1,3.9-6.1,4.9-31.6,31.5-63.1,63.2-94.8,94.5-4.6,4.6-3,7.3.8,11.1,26.8,26.7,53.4,53.5,80.1,80.2,5.8,5.8,11.7,11.3,17.7,17.1,2-1.6,3.5-2.5,4.7-3.6,31.1-31.1,62.2-62.4,93.4-93.4h0ZM536.1-18.1c36.4-36.2,70.5-70.3,104.4-104.1-33.9-33.7-68.2-67.7-102.7-102-.4.3-1.9,1.1-3.1,2.3-31.8,31.7-63.6,63.5-95.5,95.2-4.6,4.6-1.9,7.2,1.3,10.5,23.7,23.7,47.6,47.3,71.1,71.2,8.7,8.9,16.7,18.4,24.4,27ZM538.7,411.7c33.8-33.9,67.9-68.1,101.7-101.9-33.8-33.6-67.9-67.6-101.5-101.1-33.9,33.7-68.1,67.6-101.5,100.8,33.8,34.1,67.7,68.3,101.4,102.3h0ZM533.7-13.8c-1.3-1.8-2.3-3.4-3.6-4.8-4.4-4.5-8.8-8.9-13.2-13.3-26.7-26.7-53.5-53.4-80.1-80.3-4.1-4.1-7-5.4-11.8-.6-30.8,31.1-61.8,62-92.8,92.9-3.2,3.2-6,5.7-1.3,10.4,31.9,31.6,63.6,63.4,95.2,95.2,3.4,3.4,5.8,3.3,9.1,0,31.4-31.6,63-63.1,94.5-94.7,1.4-1.4,2.5-3,3.9-4.8h0ZM529.9,206.5c1.3-1.3,2.4-3,3.8-4.8-1.4-1.8-2.4-3.4-3.8-4.8-31.3-31.3-62.7-62.6-93.9-94.1-4.3-4.4-7-3.8-11,.3-31,31.3-62.1,62.4-93.4,93.4-3.9,3.9-4.1,6.5-.1,10.4,31.4,31.2,62.8,62.6,94.1,94,3.5,3.5,6,4.1,9.8.3,31.4-31.6,63-63.1,94.5-94.7h0ZM530-225.4c3.9-3.9,2.9-6.4-.5-9.8-31.4-31.3-62.8-62.7-94.1-94.1-3.7-3.7-6.2-3.5-9.8.1-31.3,31.5-62.6,62.8-94.1,94.1-4.1,4-3.8,6.7,0,10.4,9.2,8.9,18.2,18,27.2,27,23.4,23.6,46.8,47.2,70.6,71.2,2.2-1.5,3.2-1.9,4-2.7,32.2-32.1,64.3-64.3,96.6-96.3h0ZM528.5-439.9c1.8-1.8,3.3-3.8,4.6-5.2-34.7-34.6-68.9-68.9-102.8-102.7-33.7,33.6-67.8,67.6-102.7,102.4,2.5,2.6,4.6,4.9,6.7,7.1,29.9,30,60,59.8,89.7,90,5.5,5.6,8.5,4.7,13.6-.4,30.2-30.6,60.6-60.8,91-91.2h0ZM527.7,424.8c2.1-2.1,4-4.5,5.3-6-34.8-34.9-68.9-69-102.7-102.8-33.7,33.7-67.7,67.8-102.4,102.5,1.1,1.3,2,2.7,3.2,3.9,31.5,31.6,63.2,63.1,94.5,94.9,4.9,5,7.5,2.2,11-1.3,30.3-30.4,60.7-60.7,91-91.1h0ZM421.7,530.9c5.6-5.5,1.7-8.2-1.8-11.6-30.4-30.4-60.8-60.6-90.9-91.2-5.1-5.1-7.9-5-12.9,0-29.9,30.3-60,60.5-90.4,90.4-5.5,5.4-6,8.7-.2,14.3,21.2,20.6,41.8,41.8,62.7,62.7,11.2,11.2,22.5,22.2,33.9,33.5,1.8-1.4,3.1-2.1,4-3,31.8-31.7,63.5-63.5,95.4-95.1h0ZM421.3,315c4.5-4.5,3.5-7.2-.4-11.1-19.6-19.3-39.1-38.8-58.5-58.4-12.9-13.1-25.5-26.5-37.4-38.8-35.9,35.6-70.3,69.7-104.4,103.5,33.8,33.7,67.8,67.8,102.2,102.1,1.2-1,2.9-2,4.3-3.4,31.4-31.3,62.6-62.7,94.2-93.9h0ZM420.8,99.9c4.3-4.3,5-7.2.4-11.7-31.3-31-62.4-62.2-93.5-93.3-1.3-1.3-3-2.4-4.9-3.9-2,1.6-3.9,2.8-5.4,4.3-30.8,30.7-61.5,61.5-92.4,92.1-4.5,4.5-5.3,7.5-.3,12.5,31,30.5,61.7,61.3,92.3,92.1,4.4,4.4,7.1,4.6,11.6,0,30.5-30.9,61.3-61.6,92.2-92.2h0ZM419.8-115.2c5.4-5.3,5.7-8.2.3-13.5-26.8-26.3-53.1-53-79.7-79.6-5.8-5.8-11.7-11.3-17.5-17-1.8,1.4-2.7,2-3.6,2.8-31.8,31.7-63.5,63.5-95.5,95.1-4.5,4.5-3.4,7.3.5,11.1,14.4,14.1,28.7,28.4,42.9,42.8,18,18.1,35.9,36.4,54.8,55.5,3.7-3.4,6.2-5.7,8.6-8,29.7-29.8,59.3-59.7,89.3-89.2ZM419.5-330.9c5.6-5.5,5.9-8.6.2-14.1-21-20.4-41.6-41.2-62.1-62.1-11.3-11.5-22.1-23.5-33.2-35.3-.7.5-1.4,1.1-2.1,1.7-1.1.8-2.4,1.4-3.4,2.4-31.6,31.5-63.1,63.1-94.8,94.4-5.3,5.3-3,8.4,1.1,12.5,29,28.9,57.9,57.8,86.9,86.7,3.3,3.3,6.9,6.5,10.6,9.9,2.3-2.1,4.1-3.5,5.6-5.1,30.4-30.4,60.5-60.9,91.2-91h0ZM317.6-15c-1.1-1.3-2.2-2.6-3.3-3.8-31-31-62.1-61.8-92.8-92.9-5.4-5.4-8.4-5.1-13.6.2-30.2,30.6-60.6,60.9-91,91.3-1.8,1.8-3.4,3.7-4.3,4.8,34.6,34.7,68.8,69,102.7,103,33.5-33.5,67.6-67.6,102.4-102.5h0ZM299.8,221.2c6.2-6.1,13.1-11.4,18.8-16.3-36.3-36.5-70.4-70.9-104.9-105.5-.7.6-1.9,1.4-2.9,2.4-31.8,31.7-63.5,63.5-95.4,95.1-4.8,4.8-2.7,7.4,1,11,30.6,30.5,61.3,60.9,91.6,91.7,5.3,5.4,8.3,5.3,13.6,0,25.9-26.3,52-52.4,78.3-78.3ZM214.6-128.1c33.7-33.7,67.9-68,100.5-100.7-33.7-34.1-67.9-68.7-101.4-102.5-33.5,33.5-67.5,67.5-101.1,101.1,33.9,33.9,68.2,68.2,102,102.1h0ZM215.2-344.2c33.5-33.5,67.5-67.7,100.8-101-34.3-34.3-68.5-68.5-101.4-101.3-33.5,33.4-67.8,67.5-101.2,100.7,33.6,33.6,67.8,67.8,101.7,101.7h0ZM315.7,418.3c-33.8-33.9-67.9-68.3-100.9-101.4-33.8,33.6-68.1,67.7-102.2,101.5,33.6,33.6,67.6,67.6,101.1,101.1,34.3-34.1,68.7-68.2,101.9-101.2h0ZM206-333.5c4.6-4.6,1.9-7.2-1.3-10.4-30.8-30.7-61.6-61.4-92.3-92.3-4.4-4.5-7.2-4.6-11.7,0-30.6,30.9-61.4,61.6-92.1,92.4-1.8,1.8-3.3,3.8-4.5,5.2,34.4,34.5,68.4,68.6,102.8,103.1.8-.4,1.3-.6,1.7-1,32.4-32.3,64.8-64.7,97.3-96.9h0ZM204.4,532.1c5.4-5.3,4.3-8.3-.4-12.9-30.3-30-60.4-60.3-90.6-90.4-2.1-2.1-4.5-4-6.6-5.8-34.6,34.6-68.6,68.5-102.2,102.2,34.3,34.5,68.3,68.6,102.7,103.2,1.5-1.3,3.5-2.9,5.3-4.6,30.6-30.6,61-61.3,91.8-91.6ZM106.5-20.6c33.9-33.8,68.1-67.7,102-101.5-33.9-33.7-68.2-67.6-101.8-100.9C73.2-189.6,38.9-155.5,5.7-122.3,39.2-88.5,73.1-54.3,106.5-20.6ZM208,94.6C173.9,60.2,140,26.1,105.8-8.4c-.4.3-1.5.8-2.2,1.6C71.6,25.1,39.7,57,7.6,88.8c-4.7,4.6-2.7,7.4,1,11.1,23.4,23.2,46.6,46.6,69.9,69.9,9.2,9.1,18.5,18.1,27.6,27,34.9-34.9,68.9-69,101.9-102.1h0ZM208.7,309.9c-33.9-33.8-67.9-67.9-101.6-101.6-34.1,34.1-68.3,68.1-101.3,101,33.7,34,67.7,68.3,101.1,102,33.8-33.7,67.9-67.6,101.8-101.4h0ZM100.9-14.9c-.2-.3-.6-1.3-1.4-2.1C67.4-49.2,35.2-81.3,3.1-113.6c-3.4-3.4-5.8-3.3-9.2.1-9.1,9.4-18.5,18.5-27.7,27.7-23.5,23.5-47,46.9-69.8,69.6C-68.6,19.1-34.5,53.5-1.2,87.1,32.4,53.6,66.5,19.5,100.9-14.9ZM87.1,217.4c5-4.9,10.8-9,15.6-13C66.5,168.2,32.4,134-1.3,100.2c-34.2,34.2-68.3,68.3-102.7,102.7.5.6,1.2,1.7,2.2,2.7,31.5,31.6,63.1,63.1,94.5,94.8,4.5,4.5,7.4,4.2,11.8-.3,27.4-27.7,54.9-55.3,82.6-82.7h0ZM100.6-445.7c-33.8-33.7-68-67.8-102.1-101.9-33.7,33.7-68,67.9-101.8,101.8,33.9,33.9,68.2,68.2,101.9,102,33.9-33.9,68.2-68.1,102-101.8ZM-1-129.1c33.6-33.4,67.7-67.5,101.6-101.2-33.9-33.8-68.2-68.1-102.2-101.9-33.8,33.8-68,68.1-101,101.1C-68.6-197.1-34.3-162.6-1-129.1ZM-1.9,518.7c34-33.6,68.4-67.6,101.4-100.2-33.7-34-67.8-68.4-101.3-102.1-33.6,33.6-67.7,67.6-101,100.8,34.2,34.4,68.3,68.7,100.8,101.4h0ZM-6.1,95c-1.2-2.1-1.5-3-2.1-3.6C-40.3,59.2-72.5,27.1-104.5-5.2c-4.3-4.4-7.1-2.8-10.6.6-31.1,31.2-62.2,62.4-93.5,93.4-3.6,3.6-3.9,6.2-.2,9.8,31.2,31.1,62.5,62.1,93.5,93.5,5,5,8.1,3.9,12.5-.6,19.5-19.9,39.3-39.5,59-59.2,12.5-12.4,25-24.7,37.7-37.3h0ZM-6.8,525.2c-.9-1.1-2-2.7-3.3-4.1-31.3-31.4-62.8-62.7-94-94.2-4.2-4.2-6.8-3.3-10.4.3-31.5,31.6-63.1,63.2-94.7,94.8-1.1,1.1-1.7,2.7-2.5,4,34.4,34.2,68.4,68.1,102.3,101.8,34.2-34.2,68.3-68.3,102.7-102.7h0ZM-111-234.6c35.7-35.6,69.8-69.7,102.9-102.8-33.9-34-68-68.2-102.4-102.7-.4.2-1.4.8-2.2,1.6-32,31.9-64,63.9-96.1,95.7-4,4-2.7,6.5.7,9.8,11.1,11,22.2,22.1,33.1,33.2,21.3,21.7,42.6,43.4,63.8,65.1h0ZM-8.6,310.4c-33.5-33.9-67.3-68.2-100.3-101.5-34,33.8-68.2,68-101.6,101.2,33.5,33.8,67.5,68,100.6,101.3,34.1-34,68.3-68.2,101.2-101h0ZM-109.3-20.5C-75.4-54.5-41.3-88.6-8.1-121.9c-33.7-33.9-67.8-68.2-101.3-101.9-33.9,33.7-68.2,67.7-102,101.4,34,33.9,68.1,68,102.1,102h0Z"/>
      <path class="cls-8" d="M636.9,88.4c1.5,1.6,2.7,3.5,4.3,5.5-1.6,2.1-2.8,4-4.4,5.6-31.1,31.2-62.3,62.3-93.3,93.5-4.1,4.1-6.7,3.4-10.4-.4-30.6-30.8-61.3-61.6-92.2-92.2-5-5-5.1-7.9,0-12.9,30.7-30.3,61.2-60.9,91.5-91.6,4.3-4.4,7.1-5.1,11.7-.4,30.8,31.1,61.8,61.9,92.8,92.9h0ZM628.6,100c4.3-4.3,4.9-7.3.3-11.9-28.5-28.2-56.8-56.5-85-85-3.8-3.8-6.4-4.2-10.4,0-28.4,28.7-56.9,57.1-85.6,85.5-3.8,3.7-4.5,6.3-.3,10.4,28.9,28.6,57.5,57.3,86.3,86,1.3,1.3,3,2.3,4.9,3.8,2-1.7,3.8-3,5.3-4.5,28.2-28.1,56.2-56.3,84.4-84.3h0Z"/>
      <path class="cls-3" d="M628.8,88.1c4.6,4.6,4,7.6-.3,11.9-28.2,28-56.3,56.2-84.4,84.3-1.6,1.6-3.4,2.9-5.3,4.5-1.9-1.4-3.6-2.4-4.9-3.8-28.8-28.7-57.4-57.4-86.3-86-4.1-4.1-3.4-6.7.3-10.4,28.6-28.4,57.2-56.9,85.6-85.5,4.1-4.1,6.6-3.7,10.4,0,28.2,28.4,56.5,56.8,85,85h0ZM575.8,123.8c8.1-6.5,10.3-21.6,3.1-30.2-12.6-14.9-26.2-29.1-40.4-44.7-14.3,15.9-28.6,30.5-41.3,46.4-7.4,9.3-3.7,22.4,5.9,29.4,8.1,5.9,18.6,3.8,26.9-5.8,1.6-1.8,1.9-4.8,2.8-7.2,1.4,1.2,2.8,2.4,4.2,3.6-1.6,3.7-3,7.6-5,11-2.1,3.5-5,6.6-8.3,11h28.6c-4.2-7.3-8-14.1-11.9-20.9,1-.6,2-1.3,3-2,1.4,1.7,2.7,3.6,4.3,5.1,8.7,9,20.1,10.6,28.2,4.1h0Z"/>
      <path class="cls-8" d="M530-18.5c1.3,1.4,2.3,3,3.6,4.8-1.5,1.8-2.6,3.5-3.9,4.8-31.5,31.6-63,63.1-94.5,94.7-3.3,3.4-5.7,3.5-9.1,0-31.6-31.8-63.3-63.6-95.2-95.2-4.7-4.7-2-7.2,1.3-10.4,31-30.9,62-61.8,92.8-92.9,4.8-4.8,7.7-3.6,11.8.6,26.6,26.9,53.4,53.5,80.1,80.3,4.4,4.4,8.9,8.8,13.2,13.3h0ZM521.7-9.2c3.8-3.8,3.6-6.1,0-9.6-28.8-28.7-57.6-57.4-86.2-86.3-3.7-3.7-6-3.7-9.7,0-28.4,28.7-57,57.2-85.7,85.6-4.3,4.2-4,6.9.2,11,28.7,28.4,57.1,57,85.7,85.5,1.3,1.3,3,2.4,4.8,3.9,2-1.7,3.8-3,5.3-4.6,28.5-28.5,57-57.2,85.7-85.6h0Z"/>
      <path class="cls-8" d="M533.6,201.7c-1.4,1.8-2.4,3.5-3.8,4.8-31.5,31.6-63.1,63.1-94.5,94.7-3.8,3.8-6.3,3.2-9.8-.3-31.3-31.4-62.6-62.8-94.1-94-4-4-3.8-6.5.1-10.4,31.2-31,62.4-62.1,93.4-93.4,4-4.1,6.7-4.7,11-.3,31.2,31.5,62.6,62.7,93.9,94.1,1.3,1.4,2.4,3,3.8,4.8h0ZM521.5,206.9c4-4,3.8-6.4-.2-10.3-28.7-28.4-57.2-56.9-85.6-85.6-4.1-4.1-6.4-3.8-10.3.1-28.4,28.7-56.9,57.2-85.6,85.6-4.1,4.1-3.8,6.5,0,10.3,28.7,28.4,57.2,57.1,85.7,85.6,1.4,1.4,3,2.5,4.8,4.1,1.9-1.5,3.8-2.7,5.3-4.3,28.6-28.5,57-57.2,85.7-85.6h0Z"/>
      <path class="cls-5" d="M521.7-18.8c3.6,3.6,3.8,5.9,0,9.6-28.7,28.4-57.1,57-85.7,85.6-1.6,1.6-3.3,2.9-5.3,4.6-1.8-1.5-3.4-2.5-4.8-3.9-28.6-28.5-57-57.1-85.7-85.5-4.2-4.1-4.4-6.8-.2-11,28.7-28.4,57.3-56.9,85.7-85.6,3.7-3.7,6-3.7,9.7,0,28.6,28.9,57.4,57.6,86.2,86.3h0ZM430.5,29.1c10.1-19.3,23.7-32.8,43.3-43.3-20-10-33.1-24-43.4-42.6-10.2,19.3-23.7,32.6-42.6,42.5,18.7,10.6,32.8,23.7,42.6,43.3Z"/>
      <path class="cls-5" d="M521.3,196.6c4,3.9,4.2,6.3.2,10.3-28.7,28.4-57.1,57.1-85.7,85.6-1.6,1.5-3.4,2.7-5.3,4.3-1.9-1.6-3.5-2.7-4.8-4.1-28.6-28.5-57.1-57.2-85.7-85.6-3.9-3.8-4.2-6.2,0-10.3,28.7-28.4,57.2-56.9,85.6-85.6,3.9-3.9,6.2-4.3,10.3-.1,28.4,28.7,56.9,57.2,85.6,85.6h0ZM463.2,219.9c11.7-13.8,15.7-30.2,8.6-47.8-3.1-7.7-8.5-13.7-17.3-14.6-8.7-.9-14.4,4.1-18.7,11-1.5,2.3-3,4.5-5.4,8-2.2-3.5-3.6-5.8-5-8.1-4.3-6.4-9.5-11.5-17.9-11-8.9.6-15.6,6.1-17.5,14-2.3,9.3-3.9,19.9-1.7,29,5,21,20.9,33.9,38.9,43.9,2.2,1.2,7,.5,9.2-1.2,9.4-7.3,19.3-14.3,26.9-23.2h0Z"/>
      <path class="cls-8" d="M473.8-14.2c-19.6,10.4-33.2,24-43.3,43.3-9.8-19.6-23.9-32.7-42.6-43.3,18.9-9.9,32.4-23.2,42.6-42.5,10.3,18.6,23.4,32.6,43.4,42.6h0Z"/>
      <path class="cls-8" d="M421.2,88.2c4.6,4.6,4,7.5-.4,11.7-30.9,30.6-61.6,61.3-92.2,92.2-4.5,4.6-7.2,4.4-11.6,0-30.6-30.9-61.4-61.6-92.3-92.1-5-5-4.2-8,.3-12.5,30.9-30.6,61.6-61.4,92.4-92.1,1.6-1.5,3.4-2.7,5.4-4.3,1.9,1.5,3.5,2.5,4.9,3.9,31.2,31.1,62.2,62.3,93.5,93.3h0ZM413.5,98.9c1.3-1.4,2.5-3,4.1-5-1.8-2.1-3.3-4.1-5-5.8-27.9-27.9-56-55.6-83.6-83.8-5.2-5.3-8.1-4.8-12.9.1-27.5,27.9-55.2,55.6-83.2,83.1-5.3,5.2-4.4,8.4.3,13.1,27.9,27.6,55.6,55.2,83.1,83.1,4.7,4.8,7.5,5,12.3.2,28.1-28.5,56.5-56.7,84.9-85h0Z"/>
      <path class="cls-3" d="M417.6,93.9c-1.6,2-2.8,3.6-4.1,5-28.3,28.3-56.7,56.5-84.9,85-4.8,4.8-7.6,4.6-12.3-.2-27.5-27.9-55.3-55.6-83.1-83.1-4.7-4.7-5.7-7.8-.3-13.1,28-27.5,55.6-55.2,83.2-83.1,4.8-4.9,7.7-5.4,12.9-.1,27.6,28.2,55.7,55.9,83.6,83.8,1.7,1.7,3.2,3.7,5,5.8h0ZM357.4,116.9c7.9-4.9,11.5-12.7,9.7-22-2.2-11.5-10.1-17.2-21.6-18.7-1.5-17.5-8.2-26.1-20.8-26.7-13.7-.6-23.3,5.5-25.2,26.7-10.5,1.7-18.8,6.7-20.9,17.9-1.8,9.5,1,17.8,9.7,22.7,11.5,6.5,22,3.4,31.3-5.8.6.5,1.2,1,1.8,1.6-3.6,8.3-7.3,16.5-10.9,24.8h24.3c-3.9-8.8-7.5-16.9-11.1-24.9.6-.7,1.2-1.5,1.7-2.2,9.3,10.6,20,14,31.9,6.7h0Z"/>
      <path class="cls-5" d="M367.1,94.9c1.7,9.3-1.8,17.1-9.7,22-11.8,7.3-22.6,3.9-31.9-6.7-.6.7-1.2,1.5-1.7,2.2l-2.3.2c-.6-.5-1.2-1-1.8-1.6-9.3,9.2-19.8,12.3-31.3,5.8-8.7-4.9-11.5-13.3-9.7-22.7,2.2-11.3,10.4-16.2,20.9-17.9,1.9-21.3,11.5-27.4,25.2-26.7,12.5.6,19.3,9.2,20.8,26.7,11.5,1.6,19.4,7.2,21.6,18.7h0Z"/>
      <path class="cls-5" d="M334.8,137.4h-24.3c3.6-8.2,7.3-16.5,10.9-24.8l2.3-.2c3.6,8.1,7.2,16.1,11.1,24.9h0Z"/>
      <path class="cls-8" d="M314.2-18.8c1.2,1.2,2.2,2.5,3.3,3.8-34.8,34.8-68.9,69-102.4,102.5C181.3,53.4,147.1,19.1,112.5-15.5c.9-1,2.6-3,4.3-4.8,30.4-30.4,60.8-60.7,91-91.3,5.2-5.2,8.2-5.6,13.6-.2,30.7,31.2,61.8,62,92.8,92.9h0ZM292.9,3.4c5.6-5.6,11.7-10.6,17-15.3-33-33-64.4-64.4-95.2-95.2-30.8,30.7-62.3,62.1-94.3,94.1.3.4.6,1.2,1.2,1.8,29.3,29.4,58.8,58.7,88,88.2,4.1,4.2,6.6,3.3,10.4-.5,24.2-24.5,48.5-48.8,72.9-73h0Z"/>
      <path class="cls-5" d="M303.6,195.3c2,2,3.8,4,5.4,5.7-32,31.7-63.5,63-94.7,93.8-30.3-30.5-61.6-62.1-93.6-94.3.9-1,2.9-3.3,5.1-5.4,27.3-27.4,54.8-54.5,81.9-82.2,5.7-5.9,8.6-5.2,14,.3,27,27.6,54.5,54.8,81.9,82.1h0ZM214.6,245.1c10.1-19.3,23.7-33.1,43.2-43.1-19.8-10-33-24.3-43.6-43.1-9.5,19.9-24,32.6-42.1,43.3,19.1,10.2,32.5,23.7,42.5,42.9h0Z"/>
      <path class="cls-8" d="M318.6,204.9c-5.7,4.9-12.6,10.2-18.8,16.3-26.3,25.9-52.4,52-78.3,78.3-5.3,5.3-8.3,5.4-13.6,0-30.3-30.8-60.9-61.2-91.6-91.7-3.7-3.6-5.8-6.2-1-11,31.9-31.6,63.6-63.4,95.4-95.1,1-1,2.1-1.8,2.9-2.4,34.4,34.6,68.6,69,104.9,105.5ZM309,201c-1.6-1.7-3.4-3.7-5.4-5.7-27.3-27.3-54.8-54.5-81.9-82.1-5.4-5.5-8.3-6.2-14-.3-27,27.6-54.5,54.8-81.9,82.2-2.1,2.2-4.1,4.4-5.1,5.4,32,32.2,63.3,63.8,93.6,94.3,31.1-30.9,62.7-62.1,94.7-93.8h0Z"/>
      <path class="cls-5" d="M309.9-12c-5.3,4.7-11.4,9.8-17,15.3-24.4,24.2-48.7,48.6-72.9,73-3.7,3.8-6.2,4.6-10.4.5-29.2-29.5-58.6-58.8-88-88.2-.6-.6-.9-1.4-1.2-1.8,32-31.9,63.5-63.4,94.3-94.1,30.8,30.8,62.2,62.3,95.2,95.2h0ZM245.6,6.2c11.4-14.2,17.6-29.9,11.1-48.3-2.8-7.8-7.4-14.2-16.1-16-9.5-2-15.7,3.1-20.7,10.3-1.6,2.3-3.1,4.6-5.1,7.6-3.1-4.3-5.4-8.1-8.3-11.4-8.4-9.7-21.9-9.4-29.2,1.1-3,4.3-5.3,9.6-6.1,14.7-4.1,24.4,8.3,41.7,26.4,55.3,18.7,14,15.2,13.6,33.2.7,5.5-3.9,10.7-8.7,14.9-13.9h0Z"/>
      <path class="cls-8" d="M256.7-42c6.5,18.3.3,34.1-11.1,48.3-4.2,5.2-9.4,10-14.9,13.9-18,12.9-14.5,13.3-33.2-.7-18.1-13.6-30.5-30.9-26.4-55.3.9-5.1,3.1-10.4,6.1-14.7,7.3-10.4,20.8-10.7,29.2-1.1,2.9,3.3,5.2,7.2,8.3,11.4,2.1-3.1,3.6-5.4,5.1-7.6,5-7.2,11.2-12.3,20.7-10.3,8.7,1.9,13.4,8.3,16.1,16h0Z"/>
      <path class="cls-3" d="M197,88.2c4.1,4.1,4.5,6.8.2,11.1-28.2,28-56.3,56.2-84.4,84.3-1.8,1.8-3.8,3.2-6,5.1-2.2-1.7-4.1-2.9-5.6-4.4-28.6-28.5-57.1-57-85.8-85.4-4.1-4.1-3.4-6.7.3-10.5C44,60.5,72.2,32.5,100.2,4.1c5.2-5.2,8.3-4.5,13.1.4,27.7,28.1,55.7,55.9,83.8,83.7h0ZM148.4,118.3c4.8-7.8,3.4-19.8-3.1-27.1-9.4-10.6-19.2-20.9-28.8-31.5-3.2-3.5-6-7.3-9.3-11.3-4.7,5.1-7.8,8.4-10.8,11.8-10.1,11.1-20.8,21.9-30.2,33.6-7.3,9.1-5.1,23.3,3.2,30.1,8.2,6.7,19.1,5.1,28-4,1.8-1.8,3.8-3.5,5.8-5.2.8.6,1.5,1.2,2.3,1.8-4.3,6.9-8.5,13.8-13,21h28.2c-4.5-7.3-8.9-14.3-13.3-21.2.9-.6,1.8-1.2,2.6-1.8,2,2.2,3.8,4.8,6.2,6.4,3.9,2.6,8,5.5,12.5,6.5,8.3,1.9,15.1-1.9,19.5-9h0Z"/>
      <path class="cls-5" d="M145.3,91.1c6.5,7.3,8,19.3,3.1,27.1-4.4,7.1-11.2,10.9-19.5,9-4.4-1-8.6-3.9-12.5-6.5-2.4-1.6-4.2-4.2-6.2-6.4-.9.6-1.8,1.2-2.6,1.8l-2,.2c-.8-.6-1.5-1.2-2.3-1.8-1.9,1.7-3.9,3.4-5.8,5.2-8.9,9.1-19.9,10.6-28,4-8.3-6.8-10.5-21-3.2-30.1,9.4-11.7,20-22.4,30.2-33.6,3-3.3,6.1-6.7,10.8-11.8,3.3,4,6.1,7.8,9.3,11.3,9.5,10.5,19.3,20.8,28.8,31.5h0Z"/>
      <path class="cls-8" d="M105.8-8.4c34.2,34.4,68.1,68.6,102.1,103-33,33.1-67.1,67.2-101.9,102.1-9.1-8.9-18.4-17.9-27.6-27-23.3-23.3-46.5-46.7-69.9-69.9-3.7-3.7-5.7-6.4-1-11.1C39.7,57,71.6,25.1,103.6-6.8c.8-.8,1.8-1.3,2.2-1.6ZM197.2,99.3c4.4-4.3,3.9-7.1-.2-11.1-28.1-27.8-56-55.6-83.8-83.7-4.8-4.8-7.9-5.6-13.1-.4-27.9,28.3-56.1,56.4-84.4,84.4-3.8,3.8-4.5,6.4-.3,10.5,28.7,28.4,57.2,56.9,85.8,85.4,1.5,1.5,3.4,2.7,5.6,4.4,2.3-1.9,4.3-3.4,6-5.1,28.1-28.1,56.1-56.3,84.4-84.3h0Z"/>
      <path class="cls-8" d="M99.5-17c.8.8,1.2,1.8,1.4,2.1C66.5,19.5,32.4,53.6-1.2,87.1-34.5,53.5-68.6,19.1-103.6-16.1c22.8-22.7,46.3-46.2,69.8-69.6,9.3-9.2,18.6-18.3,27.7-27.7,3.3-3.4,5.7-3.6,9.2-.1C35.2-81.3,67.4-49.2,99.5-17ZM93.4-13.7c-1.1-1.5-1.8-3-3-4.2C61.2-47.2,31.8-76.6,2.3-105.7c-1.3-1.3-6.1-1.2-7.4,0-29.3,28.9-58.4,58.1-87.6,87.2-3.2,3.2-3.6,5.6,0,9.1C-64,19.3-35.2,48-6.6,76.9c3.9,3.9,6.5,4,10.4,0C32.3,48.2,60.9,19.7,89.4-8.9c1.4-1.4,2.5-3,4-4.8h0Z"/>
      <path class="cls-5" d="M90.5-17.9c1.1,1.1,1.9,2.7,3,4.2-1.5,1.8-2.6,3.4-4,4.8C60.9,19.7,32.3,48.2,3.9,76.9c-4,4-6.5,3.9-10.4,0C-35.2,48-64,19.3-92.8-9.3c-3.6-3.5-3.1-5.9,0-9.1C-63.5-47.5-34.5-76.7-5.1-105.6c1.3-1.3,6.1-1.3,7.4,0,29.6,29.1,58.9,58.5,88.2,87.8ZM-1.3,28.6C8.8,9.6,22.8-3.5,41.2-14.2,22.2-24.5,8.5-37.9-1.6-57.3-11.1-37.3-25.4-24.5-44-13.9-24.8-3.6-11.7,10.2-1.3,28.6Z"/>
      <path class="cls-5" d="M89,196.1c4.1,4.1,4.6,6.6.2,11-28.7,28.3-57.1,57-85.6,85.5-1.4,1.3-3,2.5-4.8,4-1.8-1.4-3.4-2.4-4.8-3.7-28.7-28.7-57.4-57.5-86.2-86.1-4-4-3.7-6.5.2-10.4,28.7-28.4,57.2-56.9,85.6-85.6,4.2-4.3,6.6-3.4,10.3.3,28.2,28.4,56.6,56.8,85,85h0ZM36,213.4c8.2-14.7,10.6-30.1,1.8-45.4-7.8-13.6-22.5-14.3-32.1-2-2.2,2.9-4.1,5.9-7,10.1-2.7-3.9-4.5-6.8-6.6-9.5-9.9-12.9-25.2-12.6-32.4,1.7-3.7,7.4-5.7,17-4.7,25.3,2.7,25.1,20.4,39.4,40.6,51.1,1.7,1,5.2.6,7.1-.5,13.5-7.6,25.6-17,33.3-30.8h0Z"/>
      <path class="cls-8" d="M102.7,204.5c-4.8,4-10.7,8-15.6,13-27.7,27.4-55.2,55-82.6,82.7-4.4,4.4-7.3,4.8-11.8.3-31.4-31.7-63-63.2-94.5-94.8-1-1-1.8-2.1-2.2-2.7C-69.6,168.5-35.5,134.4-1.3,100.2c33.7,33.8,67.8,67.9,104,104.2ZM89.2,207.1c4.4-4.4,3.9-6.9-.2-11-28.5-28.2-56.8-56.5-85-85-3.7-3.8-6.1-4.6-10.3-.3-28.4,28.7-56.9,57.2-85.6,85.6-3.9,3.9-4.3,6.4-.2,10.4,28.8,28.6,57.5,57.4,86.2,86.1,1.3,1.3,3,2.4,4.8,3.7,1.8-1.5,3.4-2.7,4.8-4,28.5-28.5,57-57.1,85.6-85.5h0Z"/>
      <path class="cls-8" d="M41.2-14.2C22.8-3.5,8.8,9.6-1.3,28.6-11.7,10.2-24.8-3.6-44-13.9-25.4-24.5-11.1-37.3-1.6-57.3,8.5-37.9,22.2-24.5,41.2-14.2Z"/>
    </g>
  </g>
  <rect class="cls-7" x="32.7" y="29.9" width="393.7" height="83.2"/>
  <path class="cls-6" d="M308.5,113.1c-.2-7.7-2.7-15.4-7.6-21.9-5-6.6-11.4-11.2-19.4-13.3-13.6-3.7-25.7-.4-36.6,8.6.1-.8.2-1.5.4-2.3,1.9-7.2,1.5-14.4-1.1-21.3-8.9-23.6-38.2-30.9-57.1-14.2-11.7,10.3-15.5,26.8-9.3,40.6,3.6,7.9,9.1,14.1,17.5,17.2.6.2,1,.8,1.5,1.2-.6.3-1.3.8-1.9.8-8.9.2-17.2-1.5-24.9-6.1-4.3-2.6-7.5-6.3-11-9.7-.6-.6-1.7-.7-2.5-1.1-.3.8-.8,1.6-.9,2.4,0,6.4,0,12.8,0,19.2h152.9,0Z"/>
</svg>