<?xml version="1.0" encoding="UTF-8"?>
<svg id="Layer_1" data-name="Layer 1" xmlns="http://www.w3.org/2000/svg" xmlns:xlink="http://www.w3.org/1999/xlink" version="1.1" viewBox="0 0 172.3 185.3">
  <defs>
    <style>
      .cls-1 {
        fill: #82c674;
      }

      .cls-1, .cls-2, .cls-3, .cls-4, .cls-5, .cls-6, .cls-7 {
        stroke-width: 0px;
      }

      .cls-8 {
        clip-path: url(#clippath);
      }

      .cls-2 {
        fill: none;
      }

      .cls-3 {
        fill: #e29b87;
      }

      .cls-4 {
        fill: #9bc2e7;
      }

      .cls-5 {
        fill: #9ed6c7;
      }

      .cls-6 {
        fill: #75c153;
      }

      .cls-7 {
        fill: #dd5f7c;
      }
    </style>
    <clipPath id="clippath">
      <rect class="cls-2" x="25.3" y="15.2" width="147.1" height="154.9"/>
    </clipPath>
  </defs>
  <rect class="cls-3" width="172.3" height="185.3"/>
  <g class="cls-8">
    <g>
      <path class="cls-6" d="M183.8,27.1c.9,1.1,1.7,2.3,2.8,3.8,1.5-2,2.5-3.6,3.9-5,3.2-3.3,8-3.1,10.9.5,4.2,5.2,4,11.1,1.7,16.9-2.8,7-8.4,11.6-14.8,15.3-.8.5-2.4.5-3.2,0-7.4-4.2-13.6-9.5-15.8-18.1-1.1-4.4-1-8.9,1.7-12.9,3.4-5.1,8.9-5.4,12.8-.6h0Z"/>
      <path class="cls-6" d="M186.6,111.5c4.2,7.5,9.4,13.2,17.5,17.2-7.9,4.2-13.4,9.7-17.5,17.5-4-7.9-9.6-13.2-17.2-17.5,7.6-4,13.1-9.4,17.2-17.2Z"/>
      <path class="cls-6" d="M184.7,165.6c.5.5,1.2,1,1.9,1.6.8-.7,1.5-1.2,2.1-1.9,11.5-11.5,23-23.1,34.6-34.5,1.5-1.5,1.5-2.4,0-3.9-11.6-11.6-23.2-23.2-34.8-34.8-1.5-1.5-2.4-1.5-3.9,0-11.5,11.6-23,23.1-34.6,34.5-1.7,1.7-1.6,2.8,0,4.4,11.6,11.5,23.1,23,34.6,34.5h0ZM184.3,89c1.9-2,3.1-1.4,4.8.2,10.7,10.8,21.5,21.6,32.3,32.4s3.6,3.5,5.3,5.4c.5.6.9,1.2,1.5,1.9-.6.7-1,1.4-1.6,1.9-12.7,12.7-25.4,25.4-38.1,38.2-1.4,1.4-2.3,1.4-3.7,0-12.8-12.8-25.6-25.7-38.4-38.4-1.9-1.9-.8-2.9.5-4.2,12.5-12.5,25-24.9,37.4-37.5h0Z"/>
      <path class="cls-6" d="M184.6,252.5c.6.6,1.2,1,2,1.7.8-.6,1.5-1.1,2.1-1.7,11.5-11.5,23-23.1,34.6-34.5,1.6-1.6,1.5-2.6,0-4.2-11.6-11.4-23.1-23-34.5-34.5-1.6-1.7-2.6-1.5-4.1,0-11.5,11.6-23,23.1-34.5,34.5-1.7,1.6-1.5,2.6,0,4.2,11.6,11.5,23.1,23,34.6,34.5h-.2ZM184.3,176.1c1.6-1.6,2.7-1.9,4.4-.1,12.6,12.7,25.3,25.3,37.9,38,.5.5,1,1.2,1.5,1.9-.6.7-1,1.4-1.5,1.9-12.7,12.7-25.5,25.4-38.2,38.2-1.5,1.5-2.5,1.3-4-.1-12.6-12.7-25.3-25.3-37.9-37.9s-1.5-2.6,0-4.2c12.6-12.5,25.2-25.1,37.7-37.7h.1Z"/>
      <path class="cls-6" d="M223.4,43.5c1.8-1.8,1-2.8-.4-4.2-11.1-11.1-22.2-22.2-33.3-33.3-1-1-2-1.8-2.8-2.6-.6.2-.8.2-1,.4-12.1,12.1-24.2,24.1-36.3,36.2-1.3,1.3-1,2.3.2,3.4,2.7,2.6,5.4,5.3,8,8,9.4,9.5,18.9,19,28.5,28.7.9-.6,1.3-.9,1.6-1.2,11.8-11.8,23.6-23.7,35.5-35.5h0ZM184.6,1.6c1.4-1.5,2.5-1.6,3.9,0,12.6,12.7,25.3,25.4,37.9,38,1.4,1.4,1.8,2.4.2,3.9-13,12.9-26,25.9-39,38.8-.3.3-.7.5-1.6,1.1-9.6-9.7-19-19.2-28.5-28.7-3.6-3.7-7.3-7.3-11-10.9-1.6-1.5-1.7-2.6,0-4.2,12.7-12.6,25.4-25.3,38-38h.1Z"/>
      <path class="cls-4" d="M169.4,128.7c7.6,4.3,13.2,9.6,17.2,17.5,4.1-7.8,9.6-13.3,17.5-17.5-8.1-4-13.3-9.7-17.5-17.2-4.1,7.8-9.6,13.2-17.2,17.2h0ZM184.7,92.1c1.5-1.5,2.4-1.5,3.9,0,11.6,11.6,23.2,23.2,34.8,34.8,1.5,1.5,1.6,2.4,0,3.9-11.6,11.5-23.1,23-34.6,34.5s-1.3,1.2-2.1,1.9c-.7-.6-1.4-1-1.9-1.6-11.5-11.5-23-23.1-34.6-34.5-1.7-1.7-1.8-2.7,0-4.4,11.6-11.5,23.1-23,34.6-34.5h0Z"/>
      <path class="cls-4" d="M169.5,215.3c2,8.5,8.4,13.7,15.7,17.7.9.5,2.8.2,3.7-.5,3.8-2.9,7.8-5.8,10.9-9.4,4.7-5.6,6.3-12.2,3.5-19.3-1.2-3.1-3.4-5.5-7-5.9-3.5-.4-5.8,1.7-7.6,4.4-.6.9-1.2,1.8-2.2,3.2-.9-1.4-1.4-2.4-2-3.3-1.7-2.6-3.8-4.7-7.2-4.4-3.6.2-6.3,2.5-7.1,5.6-.9,3.8-1.6,8-.7,11.7h0v.2ZM184.5,179.3c1.6-1.6,2.5-1.7,4.1,0,11.4,11.6,23,23.1,34.5,34.5,1.6,1.6,1.7,2.5,0,4.2-11.6,11.5-23.1,23-34.6,34.5s-1.4,1.1-2.1,1.7c-.8-.6-1.4-1.1-2-1.7-11.5-11.5-23-23.1-34.6-34.5-1.6-1.6-1.7-2.5,0-4.2,11.6-11.4,23.1-23,34.5-34.5h.2Z"/>
      <path class="cls-4" d="M169.3,40.6c2.2,8.6,8.5,13.9,15.8,18.1.8.5,2.4.4,3.2,0,6.4-3.6,12-8.2,14.8-15.3,2.3-5.8,2.5-11.7-1.7-16.9-2.9-3.6-7.7-3.8-10.9-.5-1.3,1.4-2.4,3-3.9,5-1.1-1.5-1.9-2.7-2.8-3.8-3.9-4.8-9.4-4.6-12.8.6-2.7,4-2.8,8.5-1.7,12.9h0ZM186.9,3.4c.9.8,1.9,1.7,2.8,2.6,11.1,11.1,22.2,22.2,33.3,33.3,1.4,1.4,2.2,2.3.4,4.2-11.9,11.8-23.7,23.6-35.5,35.5-.3.3-.7.5-1.6,1.2-9.6-9.7-19.1-19.2-28.5-28.7-2.7-2.7-5.3-5.4-8-8-1.2-1.2-1.5-2.1-.2-3.4,12.1-12,24.2-24.1,36.3-36.2.1,0,.4-.2,1-.4h0Z"/>
      <path class="cls-6" d="M182.4,82.5c2.2,2.1,2.1,3.3-.1,5.5-12.1,11.9-24,24-36,36s-2,1.9-3.5,3.2c-7.6-7.7-14.8-15.1-22.1-22.4-5.7-5.8-11.5-11.5-17.3-17.2-1.6-1.5-2-2.7-.2-4.5,12.9-12.7,25.7-25.6,38.5-38.4.3-.3.7-.6,1.4-1.1,2.4,2.3,4.7,4.5,7.1,6.9,10.7,10.7,21.4,21.5,32.2,32.1h0ZM141,121.9c1.4,1.4,2.4,1.7,3.9,0,11.6-11.6,23.2-23.2,34.8-34.8s1-1.2,1.6-2c-.6-.8-1.1-1.6-1.7-2.2-11.4-11.4-22.9-22.9-34.3-34.3-1.6-1.6-2.7-1.9-4.5,0-11.4,11.5-22.8,22.9-34.3,34.3-1.7,1.7-1.7,2.8,0,4.5,11.6,11.4,23.1,23,34.5,34.5h0Z"/>
      <path class="cls-6" d="M182.2-4.8c2.3,2.2,2.2,3.5,0,5.7-12.4,12.1-24.5,24.5-36.8,36.7-.6.6-1.3,1.2-2.3,2.1-1.5-1.4-2.9-2.6-4.3-4-11.7-11.7-23.3-23.4-35-35-1.7-1.7-2.6-2.9-.4-5,12.8-12.6,25.5-25.4,38.2-38.1.4-.4.9-.6,1.4-1,.3-.2.6-.4.9-.7,4.4,4.8,8.8,9.6,13.4,14.2,8.3,8.4,16.6,16.8,25.1,25.1h-.2ZM140.6,34.2c.7.7,1.5,1.3,2.5,2.2.9-.8,1.7-1.3,2.4-2,11.4-11.3,22.7-22.7,34.1-34,1.6-1.6,1.9-2.7.1-4.5-11.6-11.4-23.1-23-34.5-34.5-1.7-1.7-2.7-1.4-4.2,0-11.4,11.5-22.8,22.9-34.3,34.3-1.8,1.8-1.7,3.1,0,4.8,11.3,11.2,22.6,22.5,33.8,33.7h0Z"/>
      <path class="cls-4" d="M133.8,165.2c.8-8.6,4.6-11,10.2-10.8,5.1.2,7.8,3.7,8.4,10.8,4.6.6,7.8,2.9,8.7,7.6.7,3.8-.7,6.9-3.9,8.9-4.8,2.9-9.1,1.6-12.9-2.7-.2.3-.5.6-.7.9h-.9c-.2-.1-.5-.4-.7-.6-3.8,3.7-8,5-12.6,2.3-3.5-2-4.6-5.4-3.9-9.2.9-4.6,4.2-6.5,8.5-7.2h-.2Z"/>
      <path class="cls-4" d="M139.2,95.9c-3.3,3.4-7.1,4.1-10.4,1.8-3.4-2.3-4.8-7.2-2.8-11s2.4-3.6,3.9-5.2c4.2-4.7,8.5-9.2,13.2-14.2,3.9,4.2,7.8,8.2,11.6,12.2,1.6,1.7,3.1,3.4,4.5,5.2,3.1,4,2.7,9.4-.9,12.4-3.5,2.9-7.8,2.4-11.5-1.6-.7-.7-1-1.8-1.5-2.7-.5.4-1,.7-1.5,1.1l-1.2.4c-.3-.2-.6-.4-.9-.6-.8.7-1.6,1.5-2.3,2.3h-.2Z"/>
      <path class="cls-4" d="M142.5,94.3l1.2-.4c.7,1.5,1.3,3.1,2.1,4.5.9,1.5,2.1,2.8,3.4,4.4h-11.7c1.7-2.9,3.3-5.7,5-8.5h0Z"/>
      <path class="cls-4" d="M138.2,189.9c1.5-3.3,2.9-6.7,4.4-10h.9c1.4,3.2,2.9,6.4,4.5,10h-9.8,0Z"/>
      <path class="cls-4" d="M138.2,15.6c1.5-3.4,2.9-6.6,4.4-9.7l.9-.4c1.5,3.3,3,6.5,4.6,10.1h-9.9Z"/>
      <path class="cls-4" d="M143.4,5.5l-.9.4c-.3-.2-.5-.4-.8-.6-3.4,3-7,4.8-11.5,2.7-3.4-1.6-5.3-4.5-5.1-8.5.2-3.8,2.1-6.6,5.8-7.7,2.3-.6,3.3-1.4,3.4-4.1.1-4.3,4.2-7.5,8.7-7.6,4.7,0,8.5,3.2,9,8.1.2,2.2,1,2.9,2.9,3.4,3.6,1,6,3.9,6.2,7.4.2,3.7-1,6.8-4.4,8.6-3.3,1.9-7.5,1.5-10.3-.8-.8-.6-1.5-1.3-2.2-1.9-.3.2-.5.4-.8.6h0Z"/>
      <path class="cls-6" d="M140.5,208.6c1.9,1.9,3,2,5,0,11.3-11.5,22.8-22.9,34.2-34.3.6-.6,1-1.2,1.7-2-.7-.8-1.3-1.7-2-2.4-11.3-11.3-22.6-22.4-33.7-33.8-2.1-2.1-3.2-1.9-5.2,0-11.1,11.3-22.3,22.4-33.6,33.5-2.2,2.1-1.8,3.4,0,5.3,11.2,11.1,22.4,22.3,33.5,33.5h0v.2ZM140.9,132.6c.6-.6,1.4-1.1,2.2-1.7.8.6,1.4,1,2,1.6,12.6,12.5,25.1,25.1,37.7,37.6,1.9,1.9,1.6,3-.2,4.7-12.5,12.3-24.9,24.7-37.2,37.2-1.8,1.9-2.9,1.8-4.7,0-12.4-12.5-24.8-24.9-37.3-37.2-2-2-1.7-3.2,0-5,12.5-12.4,24.8-24.8,37.3-37.2h.1Z"/>
      <path class="cls-5" d="M130.3,7.9c4.5,2.1,8.1.2,11.5-2.7.3.2.5.4.8.6-1.4,3.2-2.8,6.4-4.4,9.7h9.8c-1.6-3.6-3.1-6.8-4.6-10.1.3-.2.5-.4.8-.6.7.6,1.4,1.3,2.2,1.9,2.8,2.3,7,2.7,10.3.8,3.4-1.9,4.6-4.9,4.4-8.6-.2-3.5-2.7-6.4-6.2-7.4-1.9-.5-2.7-1.2-2.9-3.4-.4-5-4.2-8.2-9-8.1-4.5,0-8.6,3.3-8.7,7.6,0,2.7-1.2,3.5-3.4,4.1-3.6,1-5.6,3.9-5.8,7.7-.2,4,1.7,6.9,5.1,8.5h0ZM143.1,36.4c-1-.8-1.8-1.4-2.5-2.2-11.3-11.2-22.5-22.5-33.8-33.7-1.8-1.8-1.9-3,0-4.8,11.5-11.4,22.9-22.8,34.3-34.3,1.5-1.5,2.6-1.7,4.2,0,11.4,11.6,23,23.1,34.5,34.5,1.8,1.8,1.5,2.9-.1,4.5-11.4,11.3-22.7,22.7-34.1,34-.7.7-1.5,1.3-2.4,2h-.1Z"/>
      <path class="cls-5" d="M140.4,136.2c2-2,3.1-2.2,5.2,0,11.2,11.4,22.5,22.5,33.7,33.8.7.7,1.3,1.5,2,2.4-.7.8-1.1,1.4-1.7,2-11.4,11.4-22.9,22.8-34.2,34.3-1.9,2-3.1,1.9-5,0-11.1-11.3-22.3-22.4-33.5-33.5-1.9-1.9-2.3-3.2,0-5.3,11.3-11.1,22.5-22.3,33.6-33.5h0v-.2ZM142.6,179.9c-1.5,3.3-2.9,6.7-4.4,10h9.8c-1.6-3.6-3-6.8-4.5-10.1.2-.3.5-.6.7-.9,3.7,4.3,8.1,5.6,12.9,2.7,3.2-2,4.6-5.1,3.9-8.9-.9-4.6-4.1-6.9-8.7-7.6-.6-7.1-3.3-10.5-8.4-10.8-5.5-.3-9.4,2.2-10.2,10.8-4.2.7-7.6,2.7-8.5,7.2-.7,3.8.4,7.2,3.9,9.2,4.7,2.6,8.9,1.4,12.6-2.3.2.2.5.4.7.6h.2Z"/>
      <path class="cls-5" d="M140.8,48.6c1.8-1.8,2.9-1.5,4.5,0,11.4,11.5,22.9,22.9,34.3,34.3.6.6,1.1,1.4,1.7,2.2-.6.8-1,1.4-1.6,2-11.6,11.6-23.2,23.2-34.8,34.8-1.5,1.6-2.5,1.3-3.9,0-11.5-11.6-23-23.1-34.5-34.5-1.7-1.7-1.7-2.8,0-4.5,11.5-11.4,22.9-22.8,34.3-34.3h0ZM142.5,94.3c-1.7,2.8-3.3,5.7-5,8.5h11.7c-1.3-1.6-2.5-2.9-3.4-4.4-.9-1.4-1.4-3-2.1-4.5.5-.4,1-.7,1.5-1.1.5.9.8,2,1.5,2.7,3.7,4,8,4.5,11.5,1.6,3.6-3,4-8.4.9-12.4-1.4-1.8-3-3.5-4.5-5.2-3.8-4.1-7.6-8.1-11.6-12.2-4.6,5-9,9.6-13.2,14.2-1.4,1.6-2.9,3.3-3.9,5.2-1.9,3.8-.6,8.7,2.8,11s7.1,1.6,10.4-1.8c.8-.8,1.6-1.5,2.3-2.3.3.2.6.4.9.6h.2Z"/>
      <path class="cls-4" d="M99.4,59c4.1-7.8,9.7-13.2,17.4-17.5-7.9-3.9-13.1-9.7-17.5-17.2-3.9,7.8-9.5,13.2-17.1,17.3,7.6,4.2,13.3,9.5,17.2,17.4ZM135.8,39.2c1.7,1.7,2.2,2.7.2,4.7-11.8,11.6-23.4,23.3-35.1,35-.3.3-.7.6-1.1.9-12.8-12.9-25.4-25.5-37.8-38,12.4-12.3,25.2-25,38.2-38,.3.2,1,.9,1.8,1.6,11.3,11.3,22.5,22.6,33.9,33.8h-.1Z"/>
      <path class="cls-6" d="M116.8,41.5c-7.6,4.3-13.3,9.7-17.4,17.5-3.9-7.9-9.6-13.2-17.2-17.4,7.6-4.1,13.2-9.5,17.1-17.3,4.3,7.5,9.6,13.3,17.5,17.2Z"/>
      <path class="cls-6" d="M99.1,174.6c13.9,14,27.7,27.8,42.3,42.6-2.3,2-5.1,4.1-7.6,6.6-10.6,10.5-21.2,21-31.6,31.6-2.1,2.2-3.3,2.2-5.5,0-12.2-12.4-24.6-24.7-36.9-37s-2.3-2.5-.4-4.4c12.9-12.7,25.7-25.6,38.5-38.4.4-.4.9-.7,1.2-1h0ZM137.6,215.6c-.6-.7-1.4-1.5-2.2-2.3-11-11-22.1-22-33-33.1-2.2-2.2-3.4-2.5-5.7-.1-10.9,11.2-22,22.1-33,33.2-.9.9-1.7,1.8-2,2.2,12.9,13,25.5,25.8,37.8,38.1,12.6-12.4,25.3-25.1,38.2-37.8h0v-.2Z"/>
      <path class="cls-6" d="M140,42.1c-13.2,13.2-27,27-40.5,40.6l-41.2-41.2c13.5-13.5,27.3-27.3,40.8-40.8,13.5,13.7,27.3,27.6,40.9,41.4h0ZM136,43.9c2-1.9,1.5-3-.2-4.7-11.3-11.2-22.6-22.5-33.9-33.8-.7-.7-1.5-1.3-1.8-1.6-13,12.9-25.8,25.6-38.2,38,12.4,12.5,25,25.2,37.8,38,.4-.4.8-.6,1.1-.9,11.7-11.7,23.3-23.4,35.1-35h.1Z"/>
      <path class="cls-4" d="M101.7,165.3c-1.5,1.5-2.5,1.9-4.2.2-11.8-11.9-23.7-23.7-35.5-35.6-.2-.2-.4-.6-.5-.7,12.9-12.9,25.6-25.6,38-37.9,12.4,12.4,25.1,25.1,38.4,38.4-2.1,1.9-4.6,3.9-6.9,6.2-9.8,9.8-19.7,19.6-29.4,29.5h0ZM99.5,118.2c-1.2-1.7-2.2-3.3-3.3-4.6-3.4-3.9-8.8-3.8-11.8.4-1.2,1.7-2.1,3.9-2.5,5.9-1.6,9.8,3.3,16.8,10.6,22.3,7.5,5.7,6.1,5.5,13.4.3,2.2-1.6,4.3-3.5,6-5.6,4.6-5.7,7.1-12.1,4.5-19.5-1.1-3.1-3-5.7-6.5-6.5-3.8-.8-6.3,1.3-8.3,4.2-.6.9-1.2,1.8-2.1,3.1h0Z"/>
      <path class="cls-4" d="M82.3,216c7.7,4.1,13.1,9.6,17.2,17.3,4.1-7.8,9.6-13.3,17.4-17.4-8-4-13.3-9.8-17.6-17.4-3.9,8-9.7,13.1-17,17.5h0ZM135.4,213.2c.8.8,1.6,1.6,2.2,2.3-12.9,12.8-25.6,25.4-38.2,37.8-12.2-12.3-24.8-25.1-37.8-38.1.4-.4,1.2-1.3,2-2.2,11-11,22.1-22,33-33.2,2.3-2.4,3.5-2.1,5.7.1,10.9,11.1,22,22.1,33,33.1h0v.2Z"/>
      <path class="cls-6" d="M106,142.6c-7.3,5.2-5.9,5.4-13.4-.3-7.3-5.5-12.3-12.5-10.6-22.3.3-2.1,1.3-4.2,2.5-5.9,3-4.2,8.4-4.3,11.8-.4,1.2,1.3,2.1,2.9,3.3,4.6.8-1.2,1.4-2.2,2.1-3.1,2-2.9,4.5-5,8.3-4.2,3.5.8,5.4,3.3,6.5,6.5,2.6,7.4,0,13.8-4.5,19.5-1.7,2.1-3.8,4-6,5.6h0Z"/>
      <path class="cls-4" d="M67.5,78.7c3.8.7,5.7,3.5,6.4,7.2.6,3.4-1.2,7-4.2,8.8s-7.3,1.5-10.1-.6c-.8-.7-1.6-1.4-2.5-2.1-.3.2-.6.4-.8.6h-.8c-.3,0-.6-.2-.9-.4-.7.6-1.4,1.3-2.2,1.8-2.9,2.2-7.2,2.4-10.4.5-3.1-1.8-4.5-5-3.9-8.8s2.7-6.3,6.5-7.1c2-.4,2.5-1.4,2.6-3.3.3-4.8,3.6-7.9,8.2-8.1,5.2-.2,8.6,2.5,9.3,7.6.2,2,.3,3.4,2.8,3.8h0Z"/>
      <path class="cls-4" d="M72.6-1.5c2.7,3.2,1.5,9.2-1.6,11.6-3.4,2.7-7.8,2.1-11.3-1.5-.7-.8-1.6-1.4-2.3-2.2-.3.2-.5.4-.8.5h-1c-.4-.2-.7-.4-1.1-.7-.7.7-1.4,1.4-2.1,2.2-3.5,3.8-7.5,4.5-10.9,2-3.5-2.6-5-8.1-2.2-11.6,5.1-6.4,10.8-12.3,16.6-18.9,5.9,6.5,11.6,12.3,16.7,18.6h0Z"/>
      <path class="cls-4" d="M71.5,171.2c2.6,3,3.2,7.8,1.3,11-1.8,2.9-4.5,4.4-7.9,3.6-1.8-.4-3.5-1.6-5-2.6-1-.6-1.7-1.7-2.5-2.6-.4.2-.7.5-1.1.7h-.8c-.3-.1-.6-.4-.9-.6-.8.7-1.6,1.4-2.3,2.1-3.6,3.7-8,4.3-11.3,1.6s-4.2-8.5-1.3-12.1c3.8-4.7,8.1-9.1,12.2-13.5,1.2-1.4,2.5-2.7,4.4-4.7,1.3,1.6,2.5,3.1,3.7,4.5,3.9,4.2,7.8,8.4,11.6,12.7h-.1Z"/>
      <path class="cls-4" d="M61.6,189.9h-11.4c1.8-2.9,3.5-5.7,5.2-8.5h.8c1.8,2.7,3.5,5.5,5.4,8.5h0Z"/>
      <path class="cls-6" d="M99.7,169.7c-13.7-13.7-27.5-27.6-41.4-41.5.4-.4,1-1.2,1.8-1.9,12.2-12.3,24.6-24.5,36.7-36.8,2.1-2.1,3.3-2.3,5.5,0,12.4,12.6,25,25,37.4,37.5.5.5.9,1,1.3,1.5-14,14.1-27.8,27.8-41.3,41.3h0ZM62,129.9c11.8,11.9,23.7,23.7,35.5,35.6,1.7,1.7,2.7,1.3,4.2-.2,9.8-9.9,19.6-19.7,29.4-29.5,2.3-2.2,4.7-4.3,6.9-6.2l-38.4-38.4c-12.4,12.4-25.1,25.1-38,37.9,0,.2.3.5.5.7h0Z"/>
      <path class="cls-4" d="M60.9,102.9h-10c1.5-3.3,3.1-6.7,4.6-10.1h.8c1.5,3.3,3.1,6.7,4.6,10.1Z"/>
      <path class="cls-4" d="M58.7,11.3c.8,1.3,1.9,2.5,3.3,4.2h-11.5c1.8-2.9,3.5-5.7,5.1-8.5h1c.7,1.4,1.3,3,2.2,4.3h0Z"/>
      <path class="cls-5" d="M92.3,82.8c2,2,1.8,3.1,0,5-11.4,11.3-22.8,22.7-34.1,34-.6.6-1.3,1.1-2.1,1.8-.8-.6-1.5-1.1-2-1.6-11.5-11.5-23-23.1-34.6-34.5-1.8-1.8-1.5-2.9,0-4.5,11.5-11.4,22.9-22.8,34.3-34.3,1.7-1.8,2.8-1.5,4.5,0,11.3,11.4,22.6,22.8,34.1,34h-.1ZM59.6,94.2c2.7,2.1,7,2.3,10.1.6,3-1.8,4.8-5.4,4.2-8.8-.6-3.7-2.5-6.6-6.4-7.2-2.5-.4-2.6-1.9-2.8-3.8-.6-5.1-4.1-7.8-9.3-7.6-4.6.2-7.8,3.3-8.2,8.1,0,1.9-.6,2.9-2.6,3.3-3.8.7-5.9,3.3-6.5,7.1-.6,3.8.9,7,3.9,8.8,3.2,1.9,7.4,1.7,10.4-.5.8-.6,1.5-1.2,2.2-1.8.3.2.6.4.9.6-1.5,3.4-3.1,6.7-4.6,10.1h10c-1.5-3.4-3.1-6.8-4.6-10.2.3-.2.6-.4.8-.6.8.7,1.6,1.4,2.5,2.1h0v-.2Z"/>
      <path class="cls-5" d="M92.4,170c1.7,1.6,1.8,2.7,0,4.5-11.4,11.3-22.7,22.7-34,34-.7.7-1.5,1.3-2.4,2.1-.9-.7-1.6-1.1-2.3-1.8-11.5-11.5-23-23-34.6-34.5-1.7-1.6-1.4-2.7.1-4.2,11.4-11.3,22.8-22.6,34-34,2.1-2.1,3.4-1.8,5.3.2,11.2,11.3,22.5,22.6,33.8,33.8h0ZM64.9,185.8c3.4.8,6.1-.8,7.9-3.6,1.9-3.1,1.4-8-1.3-11-3.8-4.3-7.8-8.4-11.6-12.7-1.3-1.4-2.4-2.9-3.7-4.5-1.9,2.1-3.1,3.4-4.4,4.7-4.1,4.5-8.4,8.8-12.2,13.5-3,3.7-2.1,9.4,1.3,12.1,3.3,2.7,7.7,2.1,11.3-1.6.7-.7,1.5-1.4,2.3-2.1.3.2.6.5.9.7-1.7,2.8-3.4,5.6-5.2,8.5h11.4c-1.8-2.9-3.6-5.8-5.4-8.6.4-.2.7-.5,1.1-.7.8.9,1.5,1.9,2.5,2.6,1.6,1.1,3.2,2.2,5,2.6h.1Z"/>
      <path class="cls-6" d="M92.5,174.5c1.8-1.7,1.6-2.8,0-4.5-11.3-11.2-22.6-22.4-33.8-33.8-1.9-1.9-3.2-2.3-5.3-.2-11.3,11.4-22.6,22.7-34,34-1.5,1.5-1.8,2.6-.1,4.2,11.6,11.4,23.1,23,34.6,34.5.6.6,1.4,1.1,2.3,1.8.9-.8,1.7-1.4,2.4-2.1,11.3-11.3,22.6-22.7,34-34h-.1ZM55.6,131.1c13.8,13.9,27.5,27.7,41.2,41.6-13.3,13.4-27.1,27.1-41.1,41.2-3.7-3.6-7.4-7.2-11.1-10.9-9.4-9.4-18.8-18.8-28.2-28.2-1.5-1.5-2.3-2.6-.4-4.5,13-12.8,25.8-25.7,38.7-38.6.3-.3.7-.5.9-.6h0Z"/>
      <path class="cls-6" d="M55.9,36.4c1-.8,1.8-1.4,2.5-2.2,11.3-11.2,22.5-22.5,33.9-33.7,2-2,1.6-3.2-.2-5-11.3-11.2-22.6-22.5-33.8-33.8-1.8-1.8-2.9-1.8-4.7,0C42.2-26.8,30.8-15.4,19.3-4.1c-1.5,1.5-1.8,2.5-.1,4.2,11.5,11.4,22.9,22.8,34.3,34.2.7.7,1.5,1.3,2.4,2h0ZM95.5-4.3c1.3,1.3,2.4,2.4.5,4.2-13.1,13-26.2,26.1-39.3,39.1-.2.2-.4.2-.7.4C42.2,25.5,28.5,11.7,14.6-2.2c.5-.6,1.1-1.4,1.8-2.1,12.4-12.4,24.8-24.8,37.2-37.3,1.8-1.9,2.9-1.8,4.7,0,12.4,12.5,24.8,24.9,37.2,37.3h0Z"/>
      <path class="cls-5" d="M92.1-4.5c1.8,1.8,2.2,3,.2,5-11.4,11.2-22.6,22.5-33.9,33.7-.7.7-1.5,1.3-2.5,2.2-.9-.8-1.7-1.3-2.4-2C42.1,23,30.7,11.5,19.2.1c-1.7-1.7-1.4-2.7.1-4.2,11.5-11.4,22.9-22.8,34.3-34.3,1.8-1.8,2.9-1.8,4.7,0,11.2,11.3,22.5,22.6,33.8,33.8h0ZM59.6,8.5c3.6,3.7,7.9,4.3,11.3,1.5,3-2.4,4.2-8.4,1.6-11.6-5.2-6.2-10.8-12.1-16.7-18.6-5.8,6.5-11.5,12.4-16.6,18.9-2.8,3.5-1.3,9.1,2.2,11.6s7.5,1.8,10.9-2c.7-.7,1.4-1.4,2.1-2.2.4.2.7.5,1.1.7-1.7,2.8-3.4,5.6-5.1,8.5h11.5c-1.4-1.7-2.5-2.9-3.3-4.2-.9-1.4-1.4-2.9-2.2-4.4.3-.2.5-.4.8-.5.8.7,1.6,1.4,2.3,2.2h.1Z"/>
      <path class="cls-6" d="M58.1,121.8c11.4-11.3,22.7-22.7,34.1-34,1.9-1.8,2.1-3,0-5-11.4-11.3-22.8-22.6-34.1-34-1.6-1.7-2.8-1.9-4.5,0-11.4,11.5-22.8,22.9-34.3,34.3-1.6,1.6-1.9,2.7,0,4.5,11.6,11.4,23.1,23,34.6,34.5.6.6,1.2,1,2,1.6.8-.6,1.5-1.1,2.1-1.8h.1ZM97.1,85.2c-13.7,13.6-27.5,27.3-41.2,40.9-13.5-13.6-27.2-27.4-40.7-41,13.4-13.4,27.3-27.1,40.8-40.6,13.6,13.5,27.4,27.1,41.1,40.7h0Z"/>
      <path class="cls-6" d="M-29.1,216.3c13.9-13.9,27.7-27.7,41.4-41.4,13.6,13.6,27.3,27.4,42,42.1-1.9,1.6-4.3,3.2-6.3,5.2-11.2,11.1-22.3,22.2-33.3,33.4-1.8,1.8-2.9,1.9-4.7.1-12.7-12.8-25.4-25.5-38.1-38.2-.4-.4-.7-.9-.9-1.1h-.1ZM10.3,179.2c-11.4,11.6-23,23.1-34.5,34.5-1.6,1.6-1.7,2.6,0,4.2,11.6,11.5,23.2,23.2,34.8,34.7.5.5,1.2,1,1.9,1.5.7-.6,1.4-1.1,1.9-1.6,11.5-11.5,23-23.1,34.6-34.5,1.8-1.8,1.6-2.8,0-4.4-11.5-11.4-22.9-22.8-34.3-34.3-1.5-1.5-2.5-1.9-4.2-.1h-.2Z"/>
      <path class="cls-6" d="M12.4,146c-4.2-7.4-9.5-13-17.2-17.1,7.5-4.3,13.3-9.4,17.1-17.5,4.1,7.9,9.6,13.3,17.2,17.4-7.4,4.3-13.1,9.6-17.1,17.3h0Z"/>
      <path class="cls-4" d="M10.2,5c1.8-1.8,2.8-1.5,4.4,0,11.3,11.4,22.7,22.7,34,34.1.7.7,1.3,1.5,2,2.4-.7.8-1.1,1.4-1.7,2-11.4,11.4-22.9,22.9-34.2,34.3-1.7,1.7-2.8,2.1-4.7,0C-1.2,66.6-12.5,55.3-24,44c-1.8-1.8-2-2.8-.1-4.7C-12.6,28-1.1,16.5,10.2,5ZM-5.4,38.2c1.4,10,8.3,15.7,16.3,20.4,1,.6,3.1.2,4-.5,3.6-2.8,7.3-5.6,10.3-9,4.4-5,6.1-11,4.4-17.6-1-3.8-2.9-6.9-7-7.7s-6.7,1.4-8.6,4.8c-.4.7-.9,1.3-1.8,2.5-1.1-1.6-1.9-2.9-2.8-4-3.5-4.5-8.7-4.6-12.2-.2-2.7,3.3-3.3,7.3-2.7,11.4h0Z"/>
      <path class="cls-4" d="M13.8,91.8c11.9,11.7,23.7,23.6,35.6,35.4.5.5.8,1.1,1.2,1.7-.6.7-1.1,1.4-1.6,1.9-11.5,11.5-23.1,23-34.5,34.6-1.6,1.6-2.6,1.6-4.2,0-11.6-11.6-23.2-23.2-34.8-34.8-1.4-1.4-1.3-2.4,0-3.7,11.8-11.7,23.5-23.5,35.4-35.2.5-.5,2.5-.5,3,0h-.1ZM-4.8,128.8c7.7,4.2,13,9.7,17.2,17.1,4.1-7.6,9.7-12.9,17.1-17.3-7.6-4.1-13.2-9.5-17.2-17.4-3.8,8.1-9.6,13.2-17.1,17.5h0Z"/>
      <path class="cls-4" d="M14.5,179.3c11.4,11.5,22.8,22.9,34.3,34.3,1.7,1.6,1.9,2.7,0,4.4-11.6,11.4-23,23-34.6,34.5-.5.5-1.2,1-1.9,1.6-.7-.6-1.4-1-1.9-1.5-11.6-11.6-23.2-23.2-34.8-34.7-1.6-1.6-1.5-2.6,0-4.2,11.6-11.4,23.1-23,34.5-34.5,1.7-1.7,2.7-1.4,4.2.1h.2ZM-5.3,212.5c1.1,10.1,8.2,15.9,16.4,20.6.7.4,2.1.2,2.9-.2,5.4-3.1,10.3-6.9,13.4-12.4,3.3-5.9,4.3-12.1.7-18.3-3.1-5.5-9.1-5.8-13-.8-.9,1.1-1.7,2.4-2.8,4.1-1.1-1.6-1.8-2.7-2.7-3.8-4-5.2-10.2-5.1-13.1.7-1.5,3-2.3,6.9-1.9,10.2h0Z"/>
      <path class="cls-6" d="M-2.7,26.9c3.6-4.3,8.8-4.2,12.2.2.9,1.1,1.7,2.4,2.8,4,.8-1.2,1.4-1.8,1.8-2.5,1.9-3.4,4.6-5.6,8.6-4.8,4.1.8,6,3.9,7,7.7,1.7,6.6,0,12.7-4.4,17.6-3,3.4-6.7,6.2-10.3,9-1,.7-3.1,1.1-4,.5-8-4.7-14.9-10.5-16.3-20.4-.6-4.1,0-8,2.7-11.4h-.1Z"/>
      <path class="cls-6" d="M12.5,82.4C-.9,68.8-14.8,54.9-28.5,41.2-15.2,27.9-1.4,14.1,12.3.4c13.7,13.7,27.5,27.5,41.2,41.1-13.7,13.6-27.5,27.3-41,40.8h0ZM10.2,5C-1.1,16.5-12.6,28-24.1,39.3c-1.9,1.9-1.7,2.9.1,4.7C-12.5,55.3-1.2,66.6,10.1,78.1c1.9,2,3,1.6,4.7,0,11.4-11.5,22.8-22.9,34.2-34.3.6-.6,1-1.2,1.7-2-.7-.9-1.3-1.7-2-2.4C37.3,27.9,25.9,16.6,14.6,5.2c-1.6-1.6-2.6-1.9-4.4,0h0Z"/>
      <path class="cls-6" d="M12.4,169.6c-13.5-13.6-27.2-27.4-41.3-41.7,9.2-9.2,18.7-18.6,28.2-28.1,3.7-3.7,7.5-7.4,11.2-11.2,1.3-1.4,2.3-1.4,3.7,0,12.9,13,25.9,26,38.9,39,.3.3.5.7.6.8-13.9,13.9-27.6,27.6-41.2,41.2h-.1ZM-24.6,130.7c11.6,11.6,23.3,23.1,34.8,34.8,1.6,1.6,2.6,1.6,4.2,0,11.5-11.6,23-23.1,34.5-34.6.6-.6,1-1.2,1.6-1.9-.4-.6-.7-1.2-1.2-1.7-11.8-11.8-23.6-23.7-35.6-35.4-.5-.5-2.5-.5-3,0-11.8,11.7-23.6,23.4-35.4,35.2-1.3,1.3-1.5,2.3,0,3.7h.1Z"/>
      <path class="cls-5" d="M-28.6,136.1c11.2,11.4,22.5,22.6,33.8,33.8,1.8,1.8,1.9,2.9,0,4.7-11.4,11.3-22.7,22.7-34.1,34-.7.7-1.5,1.3-2.4,1.9-.8-.7-1.5-1.1-2-1.7-11.4-11.4-22.8-22.9-34.4-34.2-1.8-1.7-2-2.8,0-4.7,11.4-11.2,22.6-22.4,33.8-33.8,2-2,3.2-2.2,5.3-.1h0ZM-44.7,181.9c3.1,1.7,7.6,1.3,10.4-.9.7-.6,1.3-1.2,2-1.8.3.2.5.4.8.6-1.5,3.4-3,6.7-4.6,10.2h9.9c-1.6-3.6-3.1-6.9-4.6-10.2.3-.2.6-.3.9-.5.5.5,1,.9,1.5,1.4,3,2.7,7,3.3,10.5,1.6,3.1-1.5,5-4.9,4.7-8.5-.3-4.1-2.6-7-6.9-7.9-2-.4-2.2-1.4-2.3-3.1-.4-4.9-3.8-8.2-8.4-8.3-5.1-.1-8.7,3-9.1,8.2-.2,1.9-.7,2.7-2.7,3.1-4,.9-6.3,3.9-6.5,7.9-.2,3.6,1.2,6.5,4.5,8.3h0Z"/>
      <path class="cls-5" d="M-29.2-38.7C-17.7-27.1-6.1-15.5,5.5-3.9c1.3,1.3,1.7,2.2.2,3.7C-6.3,11.7-18.2,23.7-30.3,35.7c-.2.2-.6.3-1.4.8-9.7-9.8-19.3-19.4-28.9-29.1-2.4-2.4-4.8-5-7.3-7.3-1.5-1.4-1.6-2.4,0-3.9,11.6-11.6,23.2-23.1,34.8-34.8,1.4-1.4,2.5-1.6,4,0h0ZM-48.8,2.6c1.4,4.7,6.6,7.4,11.2,5.7,1.9-.7,3.6-2.1,6.5-3.8-.1.3-.3.6-.4.9-1.7,3.9-3.2,7.1-4.6,10.2h9.9c-1.6-3.5-3.1-6.7-4.6-9.9.3-.2.6-.4,1-.6.5.4,1.1.8,1.5,1.3,2.9,2.8,6.2,3.3,9.8,1.7,3.7-1.6,5.5-4.9,5.2-8.8-.3-4-2.3-6.5-6.6-7.7-1.9-.5-2.4-1.6-2.5-3.4-.5-5-3.7-8-8.6-8.1-4.9,0-8.5,3-8.9,8.1-.2,2.1-.9,2.9-2.9,3.5-5,1.4-7.5,6.1-6,11h0Z"/>
      <path class="cls-6" d="M-31.2,210.6c.9-.7,1.7-1.2,2.4-1.9,11.4-11.3,22.7-22.7,34.1-34,1.9-1.8,1.7-3,0-4.7-11.3-11.2-22.6-22.5-33.8-33.8-2.1-2.1-3.3-1.9-5.3.1-11.2,11.4-22.5,22.6-33.8,33.8-1.9,1.9-1.7,2.9,0,4.7,11.5,11.4,22.9,22.8,34.4,34.2.6.6,1.2,1,2,1.7h0ZM-33.5,132.6c1.4-1.4,2.5-2,4.3-.3,12.9,13,25.9,26,38.9,39,.2.2.3.6.8,1.4-5.1,5.1-10.2,10-15.2,15-8,7.9-15.9,15.9-23.8,23.9-1.8,1.8-3,2.3-5,.2-12.5-12.6-25.1-25.2-37.7-37.7-1.5-1.5-1.4-2.5,0-4,12.6-12.5,25.2-25.1,37.7-37.7h0v.2Z"/>
      <path class="cls-5" d="M-28.9,48.8c11.3,11.4,22.6,22.8,34,34,1.8,1.8,1.8,2.9,0,4.7-11.4,11.3-22.8,22.6-34.1,34-1.3,1.3-2.3,2.4-4.2.5-11.8-11.9-23.6-23.7-35.5-35.6s-.5-.7-1.3-1.8c6.3-6.1,12.4-12.1,18.6-18.1,6-5.9,11.9-11.8,17.7-17.8,1.8-1.8,3-1.9,4.8,0h0ZM-31.6,94.2c-1.7,2.8-3.5,5.6-5.3,8.5h11.3c-1.8-2.9-3.5-5.8-5.2-8.6.5-.4,1-.7,1.4-1.1.5.9,1,1.8,1.7,2.6,3.6,3.8,8.2,4.4,11.6,1.5,3.3-2.7,4-9,.9-12.5-5-5.8-10.4-11.3-16.1-17.5-5.7,6.3-11.2,12-16.3,18.2-3,3.6-2,9.3,1.5,12.1,3.4,2.7,7.7,2,11.3-1.7.7-.8,1.7-1.4,2.5-2.1.2.2.5.5.7.7h0Z"/>
      <path class="cls-6" d="M-31.6-43.1C-17.8-29.2-4-15.4,9.7-1.7-3.7,11.7-17.5,25.4-31.9,39.8c-8.6-8.8-17.2-17.5-25.7-26.3-4.4-4.5-8.9-9-13.4-13.4-1.3-1.3-1.9-2.4-.3-4,13-12.8,25.8-25.7,38.8-38.6.3-.3.7-.5.9-.6h0ZM-60.6,7.3c9.6,9.7,19.2,19.4,28.9,29.1.9-.4,1.2-.5,1.4-.8C-18.2,23.7-6.3,11.7,5.8-.2c1.5-1.5,1-2.4-.2-3.7C-6.1-15.5-17.7-27.1-29.2-38.7c-1.5-1.5-2.6-1.4-4,0-11.6,11.6-23.2,23.2-34.8,34.8S-69.4-1.4-67.9,0c2.5,2.3,4.9,4.8,7.3,7.3Z"/>
      <path class="cls-6" d="M-31.2,126.2c-13.7-13.7-27.5-27.5-41.2-41.1,13.7-13.6,27.5-27.3,41.1-40.9,13.5,13.6,27.3,27.4,40.9,41.1-13.4,13.4-27.2,27.2-40.8,40.9h0ZM-69.9,84.7c.8,1.1,1,1.5,1.3,1.8,11.8,11.8,23.7,23.7,35.5,35.6,1.9,1.9,2.9.8,4.2-.5,11.3-11.4,22.7-22.7,34.1-34,1.8-1.8,1.8-2.9,0-4.7-11.4-11.3-22.7-22.6-34-34-1.8-1.8-3-1.8-4.8,0-5.8,6-11.8,11.9-17.7,17.8-6.1,6-12.3,12-18.6,18.1h0Z"/>
      <path class="cls-1" d="M362.8,171.9c.4.8.6,1.1.8,1.4,13,13,26,25.9,38.9,39,1.7,1.7,2.9,1.2,4.3-.2,12.5-12.6,25.1-25.2,37.7-37.7,1.6-1.6,1.4-2.7-.1-4.3-12.5-12.4-25-24.9-37.4-37.5-1.8-1.8-3-1.7-4.8,0-5.3,5.5-10.8,10.9-16.3,16.3-7.6,7.6-15.3,15.2-23,22.9h-.1ZM358.6,255.7c1.9,1.9,3.1,1.5,4.7-.2,9.7-9.9,19.6-19.7,29.4-29.5,3.3-3.3,6.6-6.6,9.5-9.6-14.1-14.1-27.8-27.9-41.1-41.3-13.7,13.7-27.6,27.5-41.5,41.4.1.2.4.7.8,1.1,12.7,12.7,25.5,25.4,38.2,38.2h0ZM-33.6,211.9c2,2,3.3,1.6,5-.2,7.9-8,15.9-16,23.8-23.9,5-5,10.1-10,15.2-15-.5-.9-.6-1.2-.8-1.4-13-13-26-26-38.9-39-1.7-1.8-2.9-1.1-4.3.3-12.5,12.6-25.1,25.2-37.7,37.7-1.5,1.5-1.6,2.5,0,4,12.6,12.5,25.2,25.1,37.7,37.7h0v-.2ZM313.9,304.9c2.1-2,.8-3.1-.6-4.5l-36.7-36.7c-.9-.9-1.8-1.6-2.1-1.9l-41.4,41.4c13.4,13.5,27.1,27.3,40.9,41.2.3-.2.7-.4,1-.7,13-13,25.9-26,39-38.9h0ZM315.1,37.6c.7.7,1.5,1.3,2.1,1.7,13.9-14,27.7-27.7,41.5-41.6-.3-.4-.8-1-1.4-1.6-12.6-12.7-25.3-25.3-37.9-38-1.9-1.9-3-1.2-4.4.3-12.4,12.5-24.8,24.9-37.3,37.2-1.9,1.8-1.7,3,0,4.7,12.5,12.4,24.9,24.8,37.3,37.2h0ZM315.1,386.2c.7.7,1.5,1.3,2.2,1.8,13.9-14,27.5-27.7,40.7-40.9-13.7-13.8-27.5-27.7-41.3-41.6.2-.1,0,0-.2.1-13,13-26,25.9-39.1,38.8-2,1.9-1,3,.4,4.5l37.2,37.2h0ZM315,211.9c2,2,3.2,1.7,5-.2,6.7-6.9,13.6-13.7,20.4-20.5,6.2-6.1,12.5-12.2,19-18.5-1.5-1.6-2.4-2.7-3.4-3.6-12-12-24.1-24-36-36-2.1-2.2-3.4-2.1-5.5,0-12.2,12.4-24.6,24.7-37,37-1.7,1.7-1.8,2.7-.1,4.4,12.5,12.4,25.1,24.9,37.5,37.4h.1ZM232.2,216.2c.6.7,1.2,1.4,1.9,2,12.4,12.4,24.8,24.8,37.1,37.3,2.1,2.1,3.3,1.9,5.2,0,9.6-9.8,19.4-19.5,29.1-29.2,3.3-3.3,6.7-6.5,9.6-9.4-14.2-14.3-28-28.1-41.6-41.8-13.6,13.5-27.3,27.2-41.4,41.2h0ZM10,255.7c1.8,1.8,3,1.7,4.7-.1,11-11.2,22.2-22.3,33.3-33.4,2-2,4.4-3.6,6.3-5.2-14.6-14.7-28.4-28.4-42-42.1-13.8,13.8-27.6,27.6-41.4,41.4.2.2.5.7.9,1.1,12.7,12.7,25.5,25.4,38.1,38.2h.1ZM228,212.1c1.5,1.5,2.6,1.8,4.2.2,12.5-12.6,25.1-25.2,37.6-37.7s1.1-1.4,1.8-2.2c-.6-.8-1.1-1.6-1.7-2.2-12.5-12.5-25-24.9-37.4-37.5-1.9-1.9-3-1.6-4.7.2-12.2,12.4-24.5,24.7-36.9,37-2.1,2-2,3.2,0,5.2,12.5,12.3,24.8,24.7,37.2,37.2h0v-.2ZM141,128.4c-.4-.5-.9-1-1.3-1.5-12.5-12.5-25-24.9-37.4-37.5-2.2-2.2-3.4-2-5.5,0-12.2,12.4-24.5,24.6-36.7,36.8-.7.7-1.4,1.5-1.8,1.9,14,14,27.7,27.8,41.4,41.5l41.3-41.3h0ZM184.8,169.1c1.4,1.4,2.3,1.3,3.7,0,12.7-12.8,25.4-25.5,38.1-38.2.6-.6,1-1.2,1.6-1.9-.5-.7-.9-1.4-1.5-1.9-1.8-1.8-3.6-3.6-5.3-5.4-10.8-10.8-21.6-21.5-32.3-32.4-1.7-1.7-2.8-2.2-4.8-.2-12.4,12.6-24.9,25-37.4,37.5-1.3,1.3-2.4,2.3-.5,4.2,12.9,12.7,25.6,25.6,38.4,38.4h0ZM183.9-6.1c2.2,2.3,3.4,1.9,5.5-.2,12.2-12.3,24.5-24.5,36.7-36.8.7-.7,1.3-1.5,1.8-2.1-14-14-27.8-27.8-41.5-41.4-13.6,13.6-27.4,27.3-41.5,41.3,1,1,1.8,2,2.7,2.8,12.1,12.1,24.2,24.1,36.2,36.3h.1ZM184.6,255.9c1.4,1.4,2.4,1.7,4,.1,12.7-12.8,25.4-25.5,38.2-38.2.5-.5,1-1.2,1.5-1.9-.6-.7-1-1.4-1.5-1.9-12.6-12.7-25.3-25.3-37.9-38-1.7-1.8-2.8-1.5-4.4.1-12.5,12.6-25.1,25.2-37.7,37.7-1.6,1.6-1.7,2.6,0,4.2,12.7,12.6,25.3,25.3,37.9,37.9h-.1ZM184.7,343.1c2,2,3,.9,4.4-.5,12.2-12.3,24.5-24.5,36.7-36.8.9-.8,1.6-1.8,2.2-2.4-14-14.1-27.8-27.8-41.4-41.5-13.6,13.6-27.3,27.4-41.3,41.4.4.5.8,1.1,1.3,1.6,12.7,12.8,25.5,25.5,38.1,38.3h0ZM95.4,349.1c2.2-2.1,1.7-3.3-.2-5.2-12.2-12.1-24.4-24.3-36.6-36.5-.9-.9-1.8-1.6-2.7-2.3-14,14-27.7,27.7-41.2,41.2,13.8,13.9,27.6,27.7,41.5,41.6.6-.5,1.4-1.2,2.1-1.9,12.3-12.3,24.6-24.7,37.1-37h0ZM96-.1c1.9-1.8.8-2.9-.5-4.2-12.4-12.4-24.9-24.8-37.2-37.3-1.8-1.8-2.9-1.9-4.7,0C41.2-29.1,28.8-16.8,16.4-4.3c-.7.7-1.3,1.5-1.8,2.1,13.9,13.9,27.6,27.7,41.5,41.6.3-.2.6-.2.7-.4C69.8,25.9,82.9,12.9,96-.1ZM96.8,255.3c2.1,2.2,3.3,2.2,5.5,0,10.4-10.6,21-21.1,31.6-31.6,2.5-2.5,5.3-4.6,7.6-6.6-14.6-14.7-28.4-28.6-42.3-42.6-.3.2-.8.6-1.2,1-12.8,12.8-25.6,25.6-38.5,38.4-1.9,1.9-1.1,3,.4,4.4,12.4,12.3,24.7,24.6,36.9,37h0ZM222.1,31.9c2.6,2.6,4.9,5.4,7.3,8.2,1.4-1,1.7-1.2,1.9-1.4,12.8-12.8,25.6-25.6,38.5-38.3,2.1-2.1,1.3-3.4-.4-5.1-12.4-12.3-24.7-24.6-37-36.9-.7-.7-1.5-1.3-2.3-1.9-.6.4-1,.7-1.3,1-12.9,12.9-25.7,25.8-38.7,38.7-2,2-.9,3,.5,4.4,10.5,10.4,21,20.9,31.4,31.4h.1ZM140.8,211.9c1.8,1.8,2.9,1.9,4.7,0,12.3-12.5,24.7-24.9,37.2-37.2,1.8-1.7,2-2.9.2-4.7-12.6-12.5-25.2-25.1-37.7-37.6s-1.2-1-2-1.6c-.8.6-1.6,1.1-2.2,1.7-12.4,12.4-24.8,24.8-37.3,37.2-1.8,1.8-2.1,3,0,5,12.5,12.3,24.9,24.7,37.3,37.2h0ZM138.8,35.7c1.4,1.3,2.8,2.6,4.3,4,.9-.9,1.6-1.4,2.3-2.1,12.2-12.3,24.4-24.6,36.8-36.7,2.3-2.2,2.4-3.5,0-5.7-8.5-8.2-16.8-16.6-25.1-25.1-4.6-4.6-8.9-9.5-13.4-14.2-.3.2-.6.4-.9.7-.5.3-1,.6-1.4,1-12.7,12.7-25.4,25.5-38.2,38.1-2.2,2.1-1.2,3.4.4,5,11.7,11.6,23.4,23.3,35,35h.2ZM144.1,217.9c-14.5,14.4-28.3,28.1-42.1,41.8,13.6,13.6,27.4,27.4,41.2,41.2.5-.4,1.2-.8,1.7-1.4,12.7-12.6,25.3-25.3,38-37.9,1.8-1.8,1.4-2.9-.2-4.5-7.9-7.8-15.8-15.6-23.6-23.6-5.2-5.3-10.3-10.7-15.1-15.7h.1ZM120.7,104.8c7.3,7.3,14.5,14.7,22.1,22.4,1.5-1.4,2.5-2.3,3.5-3.2,12-12,23.9-24.1,36-36,2.2-2.1,2.3-3.3.1-5.5-10.8-10.6-21.4-21.4-32.2-32.1-2.3-2.3-4.7-4.6-7.1-6.9-.7.6-1.1.8-1.4,1.1-12.8,12.8-25.6,25.6-38.5,38.4-1.8,1.8-1.4,3,.2,4.5,5.8,5.7,11.6,11.5,17.3,17.2h0ZM226.5,39.5c-12.7-12.6-25.3-25.3-37.9-38-1.5-1.5-2.5-1.4-3.9,0-12.6,12.7-25.3,25.4-38,38-1.6,1.6-1.5,2.7,0,4.2,3.7,3.6,7.3,7.2,11,10.9,9.4,9.5,18.9,19,28.5,28.7.9-.6,1.3-.8,1.6-1.1,13-13,26-25.9,39-38.8,1.6-1.6,1.2-2.6-.2-3.9h-.1ZM219.3,116.3c3.5,3.6,6.8,7.4,9.9,10.9,14.7-14.6,28.4-28.4,42.1-42-13.7-13.6-27.5-27.3-41.5-41.2-.2,0-.8.4-1.2.9-12.8,12.8-25.6,25.6-38.5,38.4-1.8,1.8-.8,2.9.5,4.2,9.6,9.6,19.2,19.1,28.7,28.7h0ZM-68.9-97h3.4c-2.4,2.6-4.8,5.2-7.3,7.9.7.8,1.2,1.6,1.8,2.2,12.5,12.6,25.1,25.1,37.6,37.7,1.8,1.8,2.9,1.4,4.4-.2,6.9-7,13.9-14,20.9-20.9,6.2-6.1,12.4-12.1,18.8-18.3-2.7-3.2-5-5.8-7.3-8.4h2.8c4,4.4,8,4.5,12.2.3,0,0,.1-.2.2-.3h2.8c-2.3,2.6-4.6,5.3-6.5,7.5,13.9,14,27.7,27.7,41.2,41.3,13.5-13.6,27.3-27.3,41.2-41.3-2.2-2.3-4.6-4.9-7-7.5h3.4c1.5,1.7,3,3.4,4.7,4.9.5.4,2.1.5,2.5,0,1.6-1.5,3-3.3,4.5-5h3.4c-2.4,2.6-4.8,5.1-7.1,7.5,14,13.9,27.7,27.7,41.6,41.6,0,0,.5,0,.8-.5,13.1-13,26.1-26.1,39.2-39.2,1.3-1.3,1.1-2.3-.1-3.5-1.9-1.9-3.7-4-5.5-6h2.8c7.6,7.8,5,7.2,12.2.2,0,0,.1-.2.2-.2h2.8c-1.3,1.4-2.4,3-3.8,4.3-3.5,3.5-3.6,3.5-.2,6.9,10.5,10.5,20.9,20.9,31.4,31.4,2.3,2.3,4.7,4.6,6.8,6.7,12.8-12.8,25.4-25.4,38.1-38.1,1.2-1.2,2.4-2.4,3.6-3.6-2.2-2.4-4.7-4.9-7.1-7.5h3.4c4.7,6.9,5.7,7,11,1.1.3-.3.5-.8.7-1.1h3.4c-2.4,2.6-4.8,5.2-6.9,7.4,1,1,2,2,3,3.1,12.9,12.9,25.6,25.7,38.3,38.5,13.5-13.6,27.3-27.3,41.1-41.2-2.1-2.5-4.4-5.1-6.7-7.7h2.8c7.5,7.7,5.1,7.1,12.2.3,0,0,.1-.2.2-.3h2.8c-2.3,2.6-4.6,5.3-6.9,8,.6.7,1.1,1.4,1.6,1.9,12.6,12.6,25.3,25.2,37.9,38,2.2,2.2,3.3.8,4.7-.6,12.3-12.3,24.6-24.6,36.9-37,.7-.7,1.3-1.5,2.1-2.4-2.6-2.7-5-5.3-7.4-7.9h3.4c1.5,1.7,3,3.5,4.6,4.9.5.4,2,.5,2.5,0,1.7-1.5,3-3.3,4.5-5h3.4c-2.4,2.6-4.9,5.1-8.2,8.6.3.2.6.5.9.7l-1.2,1.2-.2-.2c-14.2,14.1-28.1,27.8-41.7,41.4,13.5,13.5,27.2,27.3,41.1,41.3.6-.6,1.4-1.2,2.1-1.9.1,0,.2-.2.3-.3,5.2-5.2,10.4-10.4,15.6-15.6,3.4-3.3,6.9-6.6,10.4-9.8v2.8c-8.3,8.2-16.5,16.5-24.9,24.7-1.9,1.8-1.2,3,.3,4.5,8.2,8.1,16.4,16.3,24.6,24.5v2.8c-.9-.7-1.8-1.3-2.6-2.1-7.5-7.4-14.9-14.9-22.4-22.4-1.1-1.1-2.3-2.1-3.2-3-14,14-27.9,27.8-41.3,41.3,13.6,13.7,27.4,27.5,42.1,42.3l.2-.2,1.1,1c-.1,0,0,.4-.1.6-.2.2-.5.5-.8.8.8.6,1.7,1.2,2.5,1.8l-1.3,1.3h0c-1.9-2-3-2-5,0-12.3,12.5-24.8,24.9-37.3,37.2-2.1,2-1.7,3.1.1,4.9h.1c12.3,12.3,24.4,24.5,36.7,36.7.8.8,1.7,1.5,2.8,2.5l28.5-28.5v3.4c-8.2,8.2-16.3,16.4-24.6,24.5-1.8,1.8-1.8,2.9,0,4.7,8.3,8.1,16.4,16.3,24.6,24.5v3.4c-9.4-9.5-18.9-19-27.7-27.9l-1.6,1.6c-13.6,13.6-27,26.8-40.1,39.8,13.5,13.5,27.3,27.2,41.3,41.2,9.2-9.1,18.6-18.5,28-27.8v3.4c-.9.7-1.8,1.4-2.6,2.2-7,6.9-13.9,13.9-20.9,20.8q-3.5,3.5,0,7c7.8,7.7,15.6,15.4,23.4,23.1v3.4c-9-8.9-18-17.8-26.5-26.1l-1.4-1.4c-14.2,14.1-28,27.9-41.6,41.4,13.5,13.5,27.2,27.3,41.4,41.6l1.7-1.7,1.4,1.4h0c-1.3,1.3-1.3,2.3-.5,3.4l-1.3,1.2c-.3-.3-.6-.7-.9-1-14.7,14.6-28.5,28.4-43.2,43.1,3.8,3.4,7.7,7,11.6,10.5h-3.4c-3.1-3.3-6.2-6.5-9.2-9.7-3.7,3.6-6.9,6.6-10.1,9.7h-2.8c3.5-3.8,7.1-7.7,10.5-11.4-13.9-13.9-27.7-27.7-41.1-41-13.8,13.7-27.7,27.5-41.6,41.4,3.2,3.5,6.7,7.3,10.2,11.1h-2.8c-3.2-3.3-6.3-6.5-9.8-10.1-3.4,3.7-6.5,6.9-9.5,10.1h-3.4c3.7-3.8,7.4-7.6,10.8-11.1-14.1-14.2-27.8-28-41.3-41.5l-2,2c-13.1,13.1-26.3,26.3-40.4,40.3,3.7,3.3,7.7,6.8,11.6,10.3h-3.4c-3-3.2-6-6.4-9-9.5-.8.3-1.1.4-1.4.6-3,2.9-6,5.9-9,8.9h-2.8c3.5-3.8,7-7.7,10.2-11.2-1.2-1.2-2.5-2.5-3.7-3.7-12.7-12.7-25.2-25.3-37.9-37.9-.1,0-.5.3-.9.6-13,13-25.9,26-39,38.9-1.4,1.4-1.4,2.3,0,3.7,3.1,3.1,6.1,6.4,9.2,9.7h-2.8c-2.6-2.7-5.2-5.4-8-7.9-.7-.6-2.7-.9-3.3-.4-2.8,2.6-5.4,5.5-8,8.3h-3.4c3.6-3.8,7.3-7.6,10.8-11.2-14-14-27.9-27.8-41.4-41.3-13.6,13.6-27.5,27.4-42.2,42.1,3.8,3.4,7.7,6.9,11.6,10.4h-3.4c-3.1-3.3-6.2-6.5-9.3-9.8-3.6,3.6-6.8,6.7-10,9.8h-2.8c3.5-3.8,7-7.7,10.4-11.3-14-13.9-27.8-27.7-41.5-41.3-13.6,13.6-27.4,27.4-41.4,41.3,3.4,3.7,6.9,7.5,10.5,11.3h-2.8c-3.2-3.2-6.5-6.4-10-9.9-3.2,3.5-6.3,6.7-9.3,9.9h-3.4c3.7-3.8,7.4-7.6,10.7-11-14.2-14.2-27.9-28-42.5-42.6-.4.6-.9,1.2-1.3,1.8l-1.2-1.2h0c1.6-1.6,1.6-2.7,0-4.2-4.7-4.5-9.3-9.1-13.9-13.7v-2.8c5.2,5,10.4,9.9,15.4,14.6.6.6,1.2,1.1,1.8,1.7,14.1-14,27.9-27.7,41.4-41.2-13.7-13.7-27.5-27.5-42.2-42.2-5.3,5.7-10.9,11.6-16.4,17.5v-3.4c4.9-5.4,9.9-10.7,15.2-16.5-4.7-4.5-9.9-9.5-15.2-14.5v-3.4c5.8,5.7,11.5,11.4,17.3,17.1.8-.6,1.3-.8,1.7-1.2,12.9-12.9,25.7-25.8,38.7-38.6,2.1-2.1.7-3.1-.6-4.4-11.8-11.8-23.6-23.7-35.5-35.5-1.3-1.3-2.6-2.5-4.1-3.8-1.3,1.3-2.4,2.3-3.5,3.3-4.7,4.5-9.4,9-14,13.5v-2.8c4.5-4.5,9-9.1,13.6-13.5,1.8-1.8,1.9-3,0-4.7-4.6-4.4-9.1-9-13.6-13.5v-2.8c5.8,5.6,11.7,11.1,17,16.2,1.1-1.1,2.2-2.2,3.3-3.3,12.9-12.9,25.6-25.5,38.2-38-13.6-13.6-27.4-27.3-41.5-41.4-5.6,5.5-11.3,11.2-17.1,16.9v-3.4c4.9-5.4,9.8-10.8,14.1-15.6-4.3-4.7-9.2-10.1-14.1-15.4v-3.4c5.5,6,11.1,11.9,16.4,17.6,14.8-14.8,28.6-28.6,42.1-42.2C-47.5,28.1-61.3,14.3-75.2.3c-.8.8-1.8,1.7-2.8,2.6-4.8,4.6-9.5,9.2-14.3,13.8v-2.8c4.5-4.5,9-9.1,13.6-13.5,1.8-1.7,1.9-3,0-4.8-4.6-4.4-9.1-8.9-13.7-13.4v-2.8c5.2,4.9,10.4,9.9,15.4,14.6.6.6,1.2,1.2,1.9,1.8,14.1-14,27.8-27.8,41.4-41.3-13.7-13.7-27.5-27.5-42.3-42.3-5.3,5.7-10.8,11.6-16.4,17.6v-3.4c4.9-5.4,9.9-10.7,15-16.3-1.9-2-4.3-4.6-6.8-7.2h3.4c4.6,6.9,5.6,7,11,1.1.3-.3.5-.8.7-1.1h.2ZM404.5,300.4c13.7-13.6,27.4-27.4,41.1-41-13.6-13.6-27.4-27.4-40.7-40.7-13.8,13.7-27.6,27.4-40.9,40.7,13.4,13.6,27.1,27.4,40.5,41h0ZM445.4,346.9c-13.8-13.8-27.5-27.6-40.9-41-13.6,13.6-27.4,27.3-40.9,40.7,13.5,13.6,27.3,27.4,40.8,41,13.6-13.6,27.4-27.3,41-40.8h0ZM404.1,38.8c13.7-13.7,27.5-27.6,41.1-41.2-13.3-13.4-27-27.1-40.6-40.6-13.6,13.7-27.3,27.5-40.9,41.2,13.4,13.4,27.1,27.2,40.3,40.6h.1ZM445.1,85.6c-13.7-13.9-27.4-27.8-40.6-41.2-13.6,13.5-27.4,27.3-40.9,40.7,13.6,13.6,27.4,27.4,41,41,13.6-13.6,27.3-27.3,40.5-40.6h0ZM402.2,128.5c-.3-.4-.6-.9-1.1-1.4-12.7-12.7-25.5-25.4-38.1-38.2-1.9-1.9-3-1.3-4.5.3-7.9,8-15.8,15.9-23.8,23.8-5.2,5.1-10.5,10.1-15.4,14.8,14.5,14.4,28.3,28.2,41.8,41.7,13.4-13.4,27.2-27.1,41.1-41h0ZM402-45.4c-13.7-13.7-27.5-27.5-41-41.1-13.7,13.7-27.5,27.5-41.2,41.1,13.6,13.6,27.4,27.4,41.1,41.2,13.6-13.6,27.3-27.4,41-41.2h.1ZM401.7,41.8c-13.6-13.6-27.5-27.5-40.7-40.7-13.6,13.5-27.5,27.2-40.9,40.6,13.5,13.6,27.2,27.4,40.8,41.1,13.7-13.7,27.5-27.6,40.8-41h0ZM401.6,303.3c-13.6-13.7-27.4-27.5-41-41.2l-40.9,40.9c13.7,13.7,27.6,27.5,41,40.9,13.8-13.7,27.7-27.4,40.9-40.6h0ZM358.3,259.4c-13.5-13.5-27.2-27.3-40.7-40.9-13.7,13.7-27.5,27.5-40.8,40.7,13.5,13.7,27.3,27.5,40.7,41.1,13.6-13.6,27.3-27.4,40.8-40.9h0ZM358.2,85.1c-13.5-13.6-27.2-27.4-40.7-41-13.7,13.7-27.5,27.6-41,41.1,13.5,13.6,27.3,27.4,40.7,40.9,13.7-13.7,27.5-27.5,40.9-41h.1ZM315.1,128.4c-.1-.2-.3-.6-.6-.9-13-13-26-25.9-38.9-39-1.9-1.9-2.9-.8-4.2.5-6.8,6.8-13.6,13.7-20.4,20.4-6.3,6.3-12.7,12.5-18.9,18.7,14.2,14.1,28,27.9,41.6,41.4,13.7-13.6,27.5-27.4,41.4-41.2h0ZM273.6-4.8c13.6-13.6,27.5-27.4,41.2-41-13.5-13.6-27.3-27.3-40.9-40.9-13.7,13.7-27.6,27.6-41,41,13.8,13.8,27.5,27.6,40.7,40.9h0ZM273.6,82.5c13.7-13.7,27.5-27.5,41.2-41.2-13.5-13.5-27.3-27.3-40.8-40.8-13.7,13.7-27.5,27.6-41.1,41.2,13.5,13.5,27.3,27.4,40.7,40.8h0ZM230.2,300.6c13.7-13.7,27.4-27.5,41-41.1-13.6-13.6-27.4-27.3-41-40.8-13.7,13.6-27.5,27.3-41,40.7,13.6,13.7,27.3,27.6,40.9,41.3h0ZM269.7,349.1c1.9-1.9,2-3.1,0-5.1-7.9-7.8-15.8-15.6-23.6-23.6-5.1-5.2-10-10.7-15.1-16.1-1.6,1.3-2.1,1.6-2.5,2-12.7,12.7-25.5,25.5-38.2,38.1-1.9,1.9-1.2,3,.3,4.5,10.8,10.8,21.6,21.6,32.3,32.4,2.3,2.3,4.7,4.6,7.1,6.9.8-.6,1.4-1,1.9-1.5,12.6-12.6,25.1-25.2,37.7-37.7h.1ZM183,348.7c2.2-2.2.7-3.3-.7-4.7-12.2-12.2-24.5-24.4-36.7-36.8-2-2.1-3.2-2-5.2,0-12.1,12.2-24.2,24.4-36.5,36.5-2.2,2.2-2.4,3.5,0,5.8,8.5,8.3,16.9,16.9,25.3,25.3,4.5,4.5,9.1,9,13.7,13.5.7-.6,1.2-.8,1.6-1.2,12.8-12.8,25.6-25.6,38.5-38.4h0ZM99.7-4.4c13.5-13.5,27.2-27.3,40.7-40.8-13.8-13.8-27.7-27.6-40.9-40.9-13.5,13.5-27.4,27.2-40.8,40.6,13.6,13.6,27.4,27.3,41,41h0ZM140.3,303.2c-13.6-13.7-27.4-27.5-40.7-40.9-13.6,13.5-27.5,27.3-41.2,40.9,13.5,13.5,27.3,27.3,40.8,40.8,13.9-13.8,27.7-27.5,41.1-40.8h0ZM140,42.1c-13.6-13.8-27.4-27.7-40.9-41.4-13.5,13.5-27.2,27.3-40.8,40.8l41.2,41.2c13.6-13.6,27.4-27.4,40.5-40.6h0ZM56,300.4c13.6-13.6,27.4-27.3,41.1-40.9-13.7-13.6-27.4-27.4-41-41-13.8,13.7-27.5,27.5-40.9,40.7,13.6,13.7,27.3,27.6,40.8,41.2h0ZM55.9,126.1c13.7-13.6,27.5-27.3,41.2-40.9-13.7-13.6-27.5-27.3-41.1-40.7-13.5,13.5-27.4,27.2-40.8,40.6,13.5,13.6,27.2,27.5,40.7,41h0ZM96.8,172.6c-13.8-13.9-27.4-27.7-41.2-41.6-.2.1-.6.3-.9.6-12.9,12.9-25.8,25.8-38.7,38.6-1.9,1.9-1.1,3,.4,4.5,9.4,9.4,18.8,18.8,28.2,28.2,3.7,3.7,7.5,7.3,11.1,10.9,14.1-14.1,27.8-27.9,41.1-41.2h0ZM53.6,128.4c0-.1-.3-.5-.6-.8-13-13-26-25.9-38.9-39-1.4-1.4-2.4-1.3-3.7,0-3.7,3.8-7.5,7.5-11.2,11.2-9.5,9.5-19,18.9-28.2,28.1,14.1,14.2,27.9,28.1,41.3,41.7,13.6-13.5,27.3-27.3,41.2-41.2h0ZM12.5,82.4c13.5-13.5,27.3-27.2,41-40.8C39.8,27.9,26,14.1,12.3.4-1.4,14.1-15.2,27.9-28.5,41.2-14.8,54.9-.9,68.8,12.5,82.4ZM12.3-4.3c13.7-13.7,27.5-27.5,41.2-41.1-13.6-13.6-27.4-27.4-41.2-41.1C-1.3-72.9-15.2-59.1-28.8-45.5-15.2-31.8-1.3-17.9,12.3-4.3ZM53,303.3c-13.6-13.7-27.4-27.6-40.8-41.2-13.6,13.5-27.3,27.3-40.7,40.7,13.8,13.9,27.6,27.7,40.7,40.9,13.7-13.5,27.6-27.3,40.9-40.4h-.1ZM10.1,346.3c-.4-.4-.8-1.1-1.4-1.6-12.6-12.7-25.3-25.3-37.9-38-1.7-1.7-2.7-1.3-4.2.1-12.7,12.8-25.5,25.5-38.2,38.2-.4.5-.7,1.1-1,1.6,13.9,13.8,27.6,27.5,41.3,41.1,13.8-13.8,27.6-27.5,41.4-41.4h0ZM9.7-1.7C-4-15.4-17.8-29.2-31.6-43.1c-.1,0-.6.3-.9.6-12.9,12.9-25.8,25.8-38.8,38.6-1.6,1.6-1.1,2.6.3,4,4.5,4.4,8.9,8.9,13.4,13.4,8.6,8.7,17.2,17.5,25.8,26.3C-17.5,25.4-3.7,11.7,9.7-1.7ZM9.6,85.3c-13.6-13.7-27.4-27.5-40.9-41.1-13.7,13.6-27.5,27.3-41.1,40.9,13.7,13.7,27.5,27.4,41.2,41.1,13.7-13.7,27.4-27.5,40.8-40.9h0ZM9.4,259.7c-13.5-13.7-27.2-27.5-40.5-41-13.7,13.7-27.5,27.4-41,40.8,13.5,13.6,27.2,27.4,40.6,40.9,13.8-13.7,27.6-27.5,40.8-40.7h.1Z"/>
    </g>
  </g>
  <path class="cls-7" d="M172.3,22.7c-.3,0-.7.4-1.3,1.2-9.2,12.6-19.6,24-31.4,34.2-7.3,6.3-14.5,12.9-20.1,20.8-5.5,7.7-10.2,15.6-11.5,25.3-1.2,9.5.3,18.3,6.1,26.2,10,13.7,27.6,17.1,41.4,7.8,4.5-3,7.5-7.1,9.6-12.1.4-.9.9-1.7,1.3-2.5.2,0,.3,0,.5.2,0,.2.2.5.3.7,0,.5.2.9.2,1.4.1,9.5-2,18.4-7.9,26-2.1,2.7-4.7,4.9-7,7.3-.6.6-.7,1.5-1.1,2.3.8.3,1.6.9,2.3.9h18.6V22.7h0Z"/>
</svg>