<?xml version="1.0" encoding="UTF-8"?>
<svg id="Layer_1" data-name="Layer 1" xmlns="http://www.w3.org/2000/svg" xmlns:xlink="http://www.w3.org/1999/xlink" version="1.1" viewBox="0 0 152.1 199.1">
  <defs>
    <style>
      .cls-1 {
        fill: #82c674;
      }

      .cls-1, .cls-2, .cls-3, .cls-4, .cls-5, .cls-6, .cls-7, .cls-8, .cls-9, .cls-10, .cls-11 {
        stroke-width: 0px;
      }

      .cls-12 {
        clip-path: url(#clippath);
      }

      .cls-2 {
        fill: none;
      }

      .cls-3 {
        fill: #d9e477;
      }

      .cls-4 {
        fill: #e29b87;
      }

      .cls-5 {
        fill: #9bc2e7;
      }

      .cls-13 {
        clip-path: url(#clippath-1);
      }

      .cls-6 {
        fill: #faee4b;
      }

      .cls-7 {
        fill: #9ed6c7;
      }

      .cls-8 {
        fill: #75c153;
      }

      .cls-9 {
        fill: #9bce7d;
      }

      .cls-10 {
        fill: #dd5f7c;
      }

      .cls-11 {
        fill: #e9d742;
      }
    </style>
    <clipPath id="clippath">
      <rect class="cls-2" x="-1075.9" y="-577.5" width="474.4" height="113.1"/>
    </clipPath>
    <clipPath id="clippath-1">
      <rect class="cls-2" x="0" width="152.1" height="199.1"/>
    </clipPath>
  </defs>
  <g class="cls-12">
    <g>
      <path class="cls-9" d="M73.5,30.3v54.6H12c10.2-9.9,20.4-19.8,30.9-30C26,46.6,13.2,32.3,2.3,13.8c-9.8,19.3-23.8,32.4-39.7,41.3,10.5,10.2,20.6,20,30.6,29.8h-58c-9.5-8.9-19-17.8-27.4-25.8C-59.3,26-27.8-5.7,4.3-37.9,15.6-26.5,27.3-14.6,39.2-2.8c11.3,11.1,22.8,22.1,34.2,33.1Z"/>
      <path class="cls-11" d="M73.5,21.8v8.5C62,19.3,50.5,8.3,39.2-2.8,27.3-14.6,15.6-26.5,4.3-37.9-27.8-5.7-59.3,26-92.2,59.2c8.4,7.9,17.9,16.9,27.4,25.8h-8.5c-9.7-8.7-19.3-17.5-28.8-26C-65.7,22.5-31.4-11.7,4.9-48c.7.8,1.4,1.6,2.1,2.5,5,5.9,10.2,12.2,15.9,18,14.5,14.9,29.3,29.5,44,44.1,1.9,1.9,4.3,3.4,6.5,5.1Z"/>
      <path class="cls-6" d="M73.5,14.9v6.8c-2.2-1.7-4.6-3.2-6.5-5.1C52.2,2,37.4-12.6,22.9-27.4c-5.7-5.9-10.9-12.2-15.9-18l3.1-2.9c.5.7,1.2,1.4,2,2.2C32.6-25.9,53-5.5,73.5,14.9Z"/>
      <path class="cls-11" d="M73.5,6.4v8.5C53-5.5,32.6-25.9,12.1-46.2c-.8-.8-1.4-1.5-2-2.2-2-2.6-2.1-5,1.2-8.3h0c20.8-20.4,41.4-41,62.1-61.5v8.5c-18.1,17.9-36.4,35.7-54.2,53.9-1.5,1.5-1.5,6.9,0,8.4C37.1-29.3,55.3-11.5,73.5,6.4Z"/>
      <path class="cls-3" d="M73.5-31.2V6.4C55.3-11.5,37.1-29.3,19.2-47.5c-1.5-1.5-1.5-6.9,0-8.4,17.8-18.2,36.1-36,54.2-53.9v46.1c-10.1,11.7-10.1,22.9,0,32.4h0Z"/>
      <path class="cls-6" d="M73.5-201.9v8.5c-22.3-22-44.6-44-65.6-64.7l-3.6-3.5c-35.1,34.9-69.5,69.1-103.1,102.6C-65.5-125.5-31.4-91.3,3.9-55.9c1.4-1.4,2.7-2.8,4.1-4.3l3.4,3.4h0c-3.3,3.3-3.2,5.7-1.2,8.3l-3.1,2.9c-.7-.8-1.4-1.7-2.1-2.5C-31.4-11.7-65.7,22.5-102.2,58.9c9.4,8.5,19.1,17.3,28.8,26h-8.5c-7.6-8.1-15.3-16.2-22.8-24.1-9.2,8.8-17.1,16.5-25,24.1h-6.8c8.7-9.5,17.5-19,26-28.3C-145.1,22.2-179.3-12-212.4-45c-34.1,33.9-68.6,68.2-103.1,102.6,8,8.7,16.7,18.1,25.3,27.4h-6.8c-7.8-8.1-15.7-16.2-24.3-25-8.5,9.1-16,17.1-23.5,25h-8.5c9.2-9.4,18.4-18.8,26.8-27.5-35-35.2-69-69.3-102.4-102.9-1.6,1.6-3.3,3.3-4.9,4.9-32.5,32.4-65.2,65.1-100.1,99.9,9.3,8.3,19,17,28.7,25.6h-8.5c-7.5-7.9-15-15.8-22.2-23.4-1.9.8-2.8.9-3.4,1.4-7.4,7.3-14.8,14.6-22.2,22h-6.8c8.7-9.5,17.3-19,25.2-27.7-3-3-6.1-6.1-9.1-9.1-31.4-31.5-62.5-62.6-93.8-94-.3.2-1.3.6-2.1,1.4-32.2,32.1-64.3,64.3-96.6,96.4-3.4,3.4-3.4,5.7,0,9.1,7.8,7.8,15.2,15.9,22.8,23.9h-6.8c-6.6-6.6-12.9-13.5-19.9-19.6-1.7-1.5-6.7-2.2-8.1-1-7,6.5-13.3,13.7-19.9,20.6h-8.5c9-9.4,18-18.7,26.7-27.7-34.8-34.7-69.1-68.9-102.7-102.3-33.7,33.6-68,67.8-104.6,104.2,9.3,8.3,19,17.1,28.7,25.7h-8.5c-7.7-8.1-15.4-16.2-23.2-24.4-9,8.9-16.8,16.6-24.7,24.4h-6.8c8.7-9.5,17.4-19,25.7-28-34.6-34.5-68.9-68.7-102.8-102.4-33.7,33.6-67.9,67.8-102.5,102.4,8.4,9.1,17.2,18.6,26,28.1h-6.8c-8-7.9-16-15.9-24.8-24.6-8,8.6-15.5,16.6-23,24.6h-8.5c9.2-9.4,18.4-18.9,26.4-27.2-35.1-35.2-69.2-69.3-105.4-105.7-1.1,1.4-2.1,3-3.2,4.6l-3-3.1h0c4-3.9,4.1-6.7.1-10.5-11.6-11.2-23-22.6-34.5-33.9v-6.8c12.9,12.3,25.8,24.6,38.1,36.2,1.5,1.4,3,2.8,4.4,4.2,34.9-34.7,69-68.7,102.7-102.1-33.9-33.9-68.1-68.2-104.5-104.6-13.2,14.1-26.9,28.8-40.7,43.4v-8.5c12.3-13.3,24.5-26.5,37.7-40.8-11.6-11.1-24.6-23.6-37.7-36v-8.5c14.3,14.1,28.5,28.2,42.9,42.4,1.9-1.4,3.1-2,4.1-3,32-31.9,63.8-63.9,95.9-95.7,5.2-5.2,1.7-7.6-1.6-10.9-29.3-29.3-58.6-58.6-87.9-88-3.1-3.1-6.4-6.1-10-9.5-3.3,3.2-6,5.7-8.6,8.2-11.6,11.2-23.2,22.3-34.8,33.5v-6.8c11.2-11.2,22.2-22.5,33.7-33.4,4.6-4.3,4.7-7.3,0-11.7-11.5-10.9-22.5-22.2-33.8-33.4v-6.8c14.5,13.8,28.9,27.5,42.2,40.2,2.8-2.8,5.5-5.5,8.3-8.2,32.1-31.9,63.5-63.2,94.6-94.1-33.8-33.7-67.9-67.8-102.8-102.6-13.8,13.6-28.1,27.7-42.3,41.8v-8.5c12.1-13.4,24.3-26.7,35.1-38.6-10.6-11.6-22.8-24.9-35.1-38.2v-8.5c13.7,14.8,27.4,29.5,40.5,43.7,36.6-36.7,70.8-71,104.3-104.5-33.6-33.7-67.8-68-102.4-102.7-2,1.9-4.5,4.1-6.9,6.4-11.8,11.4-23.6,22.7-35.5,34.1v-6.8c11.3-11.1,22.4-22.4,33.8-33.4,4.4-4.2,4.7-7.5,0-11.8-11.5-10.9-22.6-22.2-33.9-33.3v-6.8c12.9,12.2,25.7,24.5,38.1,36.2,1.5,1.5,3.1,2.9,4.6,4.4,34.8-34.7,69-68.8,102.6-102.3-33.9-34-68.2-68.2-104.8-104.9-13.1,14.1-26.8,28.9-40.5,43.6v-8.5c12.2-13.2,24.5-26.5,37.2-40.3-4.8-5-10.7-11.4-16.7-17.7h8.5c11.5,17.1,13.9,17.4,27.3,2.8.7-.8,1.1-1.9,1.7-2.8h8.5c-6,6.4-11.9,12.8-18.1,19.5,1.7,2.1,2.9,3.9,4.4,5.5,31.1,31.2,62.3,62.2,93.3,93.5,4.5,4.5,7.1,3.5,11-.5,17.1-17.4,34.4-34.6,51.8-51.8,15.3-15.1,30.8-30.1,46.5-45.3-6.8-7.8-12.4-14.3-18.1-20.9h6.8c9.9,11,19.9,11.2,30.2.7.2-.2.3-.4.5-.7h6.8c-5.7,6.5-11.3,13.1-16,18.5,34.5,34.6,68.6,68.7,102.1,102.4,33.5-33.6,67.6-67.7,102-102.2-5.4-5.8-11.4-12.2-17.3-18.6h8.5c3.8,4.1,7.3,8.5,11.5,12.2,1.3,1.1,5.1,1.2,6.3.1,4.1-3.7,7.5-8.2,11.2-12.3h8.5c-6,6.4-12,12.7-17.6,18.7,34.6,34.5,68.7,68.6,103.2,103,.1,0,1.3-.4,2.1-1.1,32.4-32.3,64.7-64.7,97-97.1,3.2-3.2,2.6-5.6-.3-8.6-4.7-4.8-9.1-9.9-13.7-14.9h6.8c18.8,19.2,12.4,17.8,30.2.6.2-.2.4-.4.6-.6h6.8c-3.1,3.6-6.1,7.4-9.4,10.7-8.7,8.7-8.9,8.6-.5,17,25.9,26,51.8,51.9,77.8,77.8,5.8,5.8,11.7,11.4,17,16.5,31.8-31.7,62.9-62.9,94.4-94.4,3-3,6-6,9-9-5.6-5.9-11.6-12.3-17.6-18.6h8.5c11.6,17.1,14,17.3,27.3,2.8.7-.8,1.2-1.9,1.7-2.8h8.5c-5.9,6.4-11.9,12.8-17,18.4,2.5,2.5,5,5.1,7.5,7.6,31.9,32.1,63.5,63.8,94.9,95.4,33.6-33.7,67.6-67.7,101.9-102.2-5.3-6.1-11-12.6-16.6-19.1h6.8c18.6,19.1,12.6,17.6,30.2.7.2-.2.4-.4.5-.7h6.8c-5.7,6.5-11.3,13.1-17.2,19.8,1.5,1.8,2.7,3.4,4.1,4.8,31.3,31.3,62.7,62.5,93.8,94.1,5.4,5.5,8.1,2.1,11.6-1.5,30.5-30.5,61-61.1,91.5-91.6,1.8-1.8,3.2-3.8,5.1-6-6.3-6.8-12.3-13.2-18.3-19.6h8.5c3.8,4.1,7.3,8.6,11.5,12.3,1.2,1.1,5.1,1.1,6.2,0,4.1-3.7,7.6-8.1,11.3-12.3h8.5c-6,6.4-12,12.7-20.2,21.4.8.6,1.5,1.2,2.2,1.8l-2.9,2.9-.4-.4c-35.2,34.9-69.5,69-103.3,102.5,33.4,33.5,67.4,67.7,101.9,102.3,1.3-1.2,2.9-2.5,4.4-3.9.5-.5,1-.9,1.5-1.4,12.9-12.8,25.7-25.8,38.7-38.5,8.5-8.3,17.2-16.3,25.8-24.4v6.8c-20.6,20.4-41,41-61.8,61.2-4.6,4.5-3.1,7.5.7,11.2,20.4,20.2,40.7,40.5,61.1,60.8v6.8c-2.2-1.7-4.6-3.2-6.5-5.1-18.5-18.4-37-37-55.5-55.5-2.8-2.8-5.8-5.3-7.9-7.3-34.8,34.7-69,69-102.5,102.4,33.8,33.9,67.9,68.3,104.3,104.8.1-.1.3-.3.4-.4l2.7,2.6c-.3.3-.2,1.1-.3,1.6-.6.6-1.2,1.2-1.8,1.8,2,1.6,4.1,3.1,6.1,4.6l-3.2,3.1-.2-.2c-4.7-4.8-7.5-4.8-12.3,0-30.6,31-61.3,61.7-92.3,92.3-5.1,5-4.2,7.7.4,12.3l.3.3c30.4,30.1,60.6,60.5,90.8,90.7,2,2,4.1,3.7,6.9,6.2,23.8-23.8,47.3-47.2,70.7-70.7v8.5c-20.3,20.3-40.5,40.7-61,60.7-4.5,4.5-4.6,7.2,0,11.7,20.5,20.1,40.7,40.5,61.1,60.7v8.5c-23.4-23.5-46.8-47-68.7-69-1.3,1.3-2.6,2.6-3.9,3.9-33.8,33.6-66.9,66.4-99.3,98.5,33.5,33.4,67.7,67.5,102.5,102.2,22.8-22.6,46.1-45.8,69.4-69v8.5c-2.2,1.8-4.5,3.4-6.5,5.4-17.3,17.2-34.5,34.4-51.7,51.6-8.6,8.6-8.7,8.6.1,17.4,19.3,19.1,38.7,38.1,58.1,57.1h0ZM-6.4-478.6c4-3.9,3.5-6.8-.3-10.6-31-30.9-62-61.8-92.8-92.9-4.5-4.5-7.5-4.3-11.8.2-13.2,13.7-26.8,27.1-40.3,40.5-18.9,18.8-37.9,37.6-57.1,56.7,1.1,1.9,1.3,2.8,1.9,3.4,32.1,32.2,64.4,64.3,96.4,96.6,4.2,4.3,7.1,3.1,10.6-.5,31.1-31.2,62.2-62.4,93.4-93.5h0ZM-105.4-166.1c33.9-33.8,68-67.8,101.9-101.6-33.8-33.7-67.9-67.8-100.8-100.8-34.1,33.9-68.4,68-101.4,100.8,33.3,33.7,67.2,67.9,100.4,101.6h0ZM-4.6-916.7c-33.1-33.1-67-67.1-100.6-100.7-33.7,34-67.6,68.2-101.3,102.2,33.1,33.3,67.1,67.5,100,100.6,34-34,68.2-68.3,101.9-102.1h0ZM-105.2-598.1c33.6-33.6,67.7-67.7,100.5-100.6-33.9-34.4-67.9-68.8-100.7-102-33.8,33.6-68,67.6-101.4,100.9,33.7,33.7,67.8,67.9,101.6,101.7h0ZM-105.6,50.1C-71.8,16.4-37.6-17.6-4-51.1c-34.2-34.2-68.2-68.3-101.4-101.6-33.7,33.6-68,67.8-101.3,101C-173.1-17.9-139.1,16.3-105.6,50.1ZM-111-592.3c-.7-.9-1.6-2.3-2.7-3.5-31.5-31.6-63.2-63-94.5-94.8-4.6-4.6-7.4-3.1-11.1.6-19.6,19.8-39.2,39.5-59,59.1-12.9,12.7-26.1,25.1-38.2,36.8,35.8,35.7,70.1,69.9,103.7,103.3,33.3-33.2,67.4-67.3,101.9-101.6h0ZM-134.5-350.6c8.1-8.2,16.3-16.4,23.6-23.8-34.8-35-68.9-69.1-102-102.3-34,33.9-68.3,68.1-102.9,102.5.3.4,1.1,1.6,2,2.6,31.5,31.6,63.2,63,94.6,94.7,4.7,4.7,7.6,3.6,11.7-.6,24.2-24.5,48.5-48.7,72.8-73.1h0ZM-112.4-807.1c-33.7-33.8-68.1-68.2-100.8-101-33.7,33.4-68.1,67.5-101.4,100.5,33.5,33.8,67.5,68,101.2,101.9,33.9-34,68.1-68.4,101.1-101.5h0ZM-214-58.4c34.1-33.9,68.5-68,101.4-100.6-33.7-33.9-67.9-68.2-101.6-102-33.5,33.5-67.7,67.6-101.4,101.3,34,34,68.3,68.2,101.6,101.4h0ZM-213.1-921.1c33.6-33.8,67.6-68,101.6-102.1-33.9-34-68.1-68.2-101.6-101.8-34,33.9-68.2,68.1-102,101.8,33.7,33.8,67.9,68,102,102.1h0ZM-217.2-482.6c-3.8-4.1-5.9-6.7-8.3-9-29.8-29.8-59.7-59.4-89.2-89.3-5.3-5.4-8.3-5.3-13.6,0-30.3,30.8-60.9,61.3-91.6,91.6-4.3,4.2-4.6,6.8-.3,11,31.1,30.8,62.1,61.7,92.9,92.8,5,5,7.9,4.2,12.4-.4,16.7-17.1,33.6-33.9,50.6-50.7,15.3-15.2,30.9-30.1,47.2-46h0ZM-218.9-916.4c-.8-.9-2-2.5-3.3-3.9-31.3-31.4-62.8-62.7-93.9-94.3-4.7-4.8-7.3-2.9-11,.8-30.7,30.9-61.4,61.7-92.4,92.3-4.6,4.6-4.3,7.3.1,11.7,30.9,30.6,61.6,61.5,92.4,92.2,1.7,1.7,3.8,3.2,5.2,4.3,34.5-34.6,68.5-68.8,102.9-103.2h0ZM-220.5-50.3c-34.1-34.3-68.2-68.6-102.5-103.1.5-.3-.1,0-.5.3-32.3,32.1-64.4,64.3-96.8,96.2-4.8,4.8-2.5,7.4,1.1,11,30.8,30.7,61.5,61.5,92.3,92.3,1.7,1.7,3.8,3.1,5.5,4.6,34.4-34.6,68.3-68.6,100.9-101.4h0ZM-220.2-699.9c-33.4-33.7-67.4-67.9-100.8-101.6-34,34.1-68.3,68.3-101.7,101.8,33.5,33.7,67.6,67.8,101,101.3,33.9-33.9,68.1-68.1,101.5-101.5h0ZM-220-267.8c-33.5-33.6-67.5-67.7-101-101.3-33.9,33.9-68.2,68-101.1,100.9,33.6,33.9,67.6,68.3,100.9,101.9,33.6-33.7,67.6-67.8,101.2-101.4h0ZM-327-592.4c-.3-.4-.7-1.5-1.5-2.3-32.1-32.2-64.4-64.3-96.4-96.6-4.6-4.7-7.2-2-10.4,1.2-16.8,16.9-33.7,33.8-50.6,50.7-15.7,15.6-31.4,31.1-46.9,46.3,35.2,35,69.4,69.2,103,102.7,34-33.8,68.2-67.8,102.7-102h0ZM-329.9-155c5.1-5,1.9-7.7-1.5-11-30.3-30.3-60.7-60.6-91-91-2.1-2.1-4.5-4-5.3-4.7-35,35-69.2,69.2-102.7,102.7,33.2,33.5,67.2,67.7,101.4,102.1.7-.5,1.7-1,2.5-1.7,32.2-32.1,64.2-64.3,96.5-96.3h0ZM-350.7-350.2c8.2-8.2,16.6-16.2,23.9-23.2-35.2-35.4-69.3-69.7-103-103.6-33.6,33.4-67.8,67.4-102.6,102.1,1.6,1.7,3,3.5,4.6,5.1,30.7,30.7,61.6,61.4,92,92.3,5.2,5.2,8.1,4.7,12.9-.2,23.9-24.3,48.1-48.4,72.2-72.5h0ZM-429.8-706.1c33.9-33.9,68.2-68.1,102.1-102-33.5-33.5-67.5-67.6-101.2-101.2-34,34.1-68.2,68.3-101.8,102,33.5,33.6,67.7,67.9,100.9,101.2ZM-327.7-1024.3c-33.5-33.6-67.6-67.7-101.3-101.4-34,34-68.3,68.3-101.7,101.7,34.1,34.2,68.1,68.4,100.9,101.3,33.8-33.6,68.1-67.8,102-101.7h0ZM-439-909.8c5.2-5.2,3.3-8.4-.9-12.6-30.6-30.4-61.1-61-91.6-91.5-1.7-1.7-3.8-3.1-5.7-4.7-1.5,1.1-2.5,1.6-3.3,2.4-31.9,32-63.8,64-95.9,95.8-5,5-2.2,7.5,1.3,11,26,25.9,52,51.7,77.8,77.8,6.4,6.4,12,13.5,18,20.3,3.4-2.4,4.2-2.9,4.8-3.4,31.8-31.7,63.5-63.5,95.5-95h0ZM-434.7-483.7c-1.6-2-2.7-3.9-4.3-5.5-30.9-31-62-61.8-92.8-92.9-4.6-4.7-7.4-4-11.7.4-30.3,30.7-60.8,61.3-91.5,91.6-5.1,5-5,8,0,12.9,30.9,30.5,61.6,61.3,92.2,92.2,3.7,3.8,6.4,4.5,10.4.4,31-31.3,62.2-62.4,93.3-93.5,1.6-1.6,2.7-3.5,4.4-5.6h0ZM-439.5-45.5c4.6-4.6,5-7.8.1-12.5-19.7-19.3-39.2-38.7-58.5-58.4-12.7-12.9-24.8-26.4-37.5-39.9-3.9,3.2-5.1,3.9-6.1,4.9-31.6,31.5-63.1,63.2-94.8,94.6-4.6,4.6-3,7.3.8,11.1,26.8,26.7,53.4,53.5,80.1,80.2,5.8,5.8,11.7,11.3,17.7,17.1,2-1.6,3.5-2.5,4.7-3.6,31.1-31.1,62.2-62.4,93.4-93.4h0ZM-539.8-595.6c36.4-36.2,70.5-70.3,104.4-104.1-33.9-33.7-68.2-67.7-102.7-102-.4.3-1.9,1.1-3.1,2.3-31.8,31.7-63.6,63.5-95.5,95.2-4.6,4.6-1.9,7.2,1.3,10.5,23.7,23.7,47.6,47.3,71.1,71.2,8.7,8.9,16.7,18.4,24.4,27h0ZM-537.3-165.8c33.8-33.9,67.9-68.1,101.7-101.9-33.8-33.6-67.9-67.6-101.5-101.1-33.9,33.7-68.1,67.6-101.5,100.8,33.8,34.1,67.7,68.3,101.4,102.3h0ZM-542.3-591.3c-1.3-1.8-2.3-3.4-3.6-4.8-4.4-4.5-8.8-8.9-13.2-13.3-26.7-26.7-53.5-53.4-80.1-80.3-4.1-4.1-7-5.4-11.8-.6-30.8,31.1-61.8,62-92.8,92.9-3.2,3.2-6,5.7-1.3,10.4,31.9,31.6,63.6,63.4,95.2,95.2,3.4,3.4,5.8,3.3,9.1,0,31.4-31.6,63-63.1,94.5-94.7,1.4-1.4,2.5-3,3.9-4.8h0ZM-546.1-371c1.3-1.3,2.4-3,3.8-4.8-1.4-1.8-2.4-3.4-3.8-4.8-31.3-31.3-62.7-62.6-93.9-94.1-4.3-4.4-7-3.8-11,.3-31,31.3-62.1,62.4-93.4,93.4-3.9,3.9-4.1,6.5-.1,10.4,31.4,31.2,62.8,62.6,94.1,94,3.5,3.5,6,4.1,9.8.3,31.4-31.6,63-63.1,94.5-94.7h0ZM-545.9-802.9c3.9-3.9,2.9-6.4-.5-9.8-31.4-31.3-62.8-62.7-94.1-94.1-3.7-3.7-6.2-3.5-9.8.1-31.3,31.5-62.6,62.8-94.1,94.1-4.1,4-3.8,6.7,0,10.4,9.2,8.9,18.2,18,27.2,27,23.4,23.6,46.8,47.2,70.6,71.2,2.2-1.5,3.2-1.9,4-2.7,32.2-32.1,64.3-64.3,96.6-96.3h0ZM-547.4-1017.4c1.8-1.8,3.3-3.8,4.6-5.2-34.7-34.6-68.9-68.9-102.8-102.7-33.7,33.6-67.8,67.6-102.7,102.4,2.5,2.6,4.6,4.9,6.7,7.1,29.9,30,60,59.8,89.7,90,5.5,5.6,8.5,4.7,13.6-.4,30.2-30.6,60.6-60.8,91-91.2h0ZM-548.2-152.7c2.1-2.1,4-4.5,5.3-6-34.8-34.9-68.9-69-102.7-102.8-33.7,33.7-67.7,67.8-102.4,102.5,1.1,1.3,2,2.7,3.2,3.9,31.5,31.6,63.2,63.1,94.5,94.9,4.9,5,7.5,2.2,11-1.3,30.3-30.4,60.7-60.7,91-91.1h0ZM-654.3-46.6c5.6-5.5,1.7-8.2-1.8-11.6-30.4-30.4-60.8-60.6-90.9-91.2-5.1-5.1-7.9-5-12.9,0-29.9,30.3-60,60.5-90.4,90.4-5.5,5.4-6,8.7-.2,14.3,21.2,20.6,41.8,41.8,62.7,62.7,11.2,11.2,22.5,22.2,33.9,33.5,1.8-1.4,3.1-2.1,4-3,31.8-31.7,63.5-63.5,95.4-95.1h0ZM-654.6-262.5c4.5-4.5,3.5-7.2-.4-11.1-19.6-19.3-39.1-38.8-58.5-58.4-12.9-13.1-25.5-26.5-37.4-38.8-35.9,35.6-70.3,69.7-104.4,103.5,33.8,33.7,67.8,67.8,102.2,102.1,1.2-1,2.9-2,4.3-3.4,31.4-31.3,62.6-62.7,94.2-93.9h0ZM-655.1-477.6c4.3-4.3,5-7.2.4-11.7-31.3-31-62.4-62.2-93.5-93.3-1.3-1.3-3-2.4-4.9-3.9-2,1.6-3.9,2.8-5.4,4.3-30.8,30.7-61.5,61.5-92.4,92.1-4.5,4.5-5.3,7.5-.3,12.5,31,30.5,61.7,61.3,92.3,92.1,4.4,4.4,7.1,4.6,11.6,0,30.5-30.9,61.3-61.6,92.2-92.2h0ZM-656.2-692.8c5.4-5.3,5.7-8.2.3-13.5-26.8-26.3-53.1-53-79.7-79.6-5.8-5.8-11.7-11.3-17.5-17-1.8,1.4-2.7,2-3.6,2.8-31.8,31.7-63.5,63.5-95.5,95.1-4.5,4.5-3.4,7.3.5,11.1,14.4,14.1,28.7,28.4,42.9,42.8,18,18.1,35.9,36.4,54.8,55.5,3.7-3.4,6.2-5.7,8.6-8,29.7-29.8,59.3-59.7,89.3-89.2h0ZM-656.4-908.4c5.6-5.5,5.9-8.6.2-14.1-21-20.4-41.6-41.2-62.1-62.1-11.3-11.5-22.1-23.5-33.2-35.3-.7.5-1.4,1.1-2.1,1.7-1.1.8-2.4,1.4-3.4,2.4-31.6,31.5-63,63.1-94.8,94.4-5.3,5.3-3,8.4,1.1,12.5,29,28.9,57.9,57.8,86.9,86.7,3.3,3.3,6.9,6.5,10.6,9.9,2.3-2.1,4.1-3.5,5.6-5.1,30.4-30.4,60.5-60.9,91.2-91h0ZM-758.4-592.5c-1.1-1.3-2.2-2.6-3.3-3.8-31-31-62.1-61.8-92.8-92.9-5.4-5.4-8.4-5.1-13.6.2-30.2,30.6-60.6,60.9-91,91.3-1.8,1.8-3.4,3.7-4.3,4.8,34.6,34.7,68.8,69,102.7,103,33.5-33.5,67.6-67.6,102.4-102.5h0ZM-776.1-356.3c6.2-6.1,13.1-11.4,18.8-16.3-36.3-36.5-70.4-70.9-104.9-105.5-.7.6-1.9,1.4-2.9,2.4-31.8,31.7-63.5,63.5-95.4,95.1-4.8,4.8-2.7,7.4,1,11,30.6,30.5,61.3,60.9,91.6,91.7,5.3,5.4,8.3,5.3,13.6,0,25.9-26.3,52-52.4,78.3-78.3h0ZM-861.3-705.6c33.7-33.7,67.9-68,100.5-100.7-33.7-34.1-67.9-68.7-101.4-102.5l-101.1,101.1c33.9,33.9,68.2,68.2,102,102.1h0ZM-860.7-921.7c33.5-33.5,67.5-67.7,100.8-101-34.3-34.3-68.5-68.5-101.4-101.3-33.5,33.4-67.8,67.5-101.2,100.7,33.6,33.6,67.8,67.8,101.7,101.7h0ZM-760.2-159.2c-33.8-33.9-67.9-68.3-100.9-101.4-33.8,33.6-68.1,67.7-102.2,101.5,33.6,33.6,67.6,67.6,101.1,101.1,34.3-34.1,68.7-68.2,101.9-101.2ZM-869.9-911.1c4.6-4.6,1.9-7.2-1.3-10.4-30.8-30.7-61.7-61.4-92.3-92.3-4.4-4.5-7.2-4.6-11.7,0-30.6,30.9-61.4,61.6-92.1,92.4-1.8,1.8-3.3,3.8-4.5,5.2,34.4,34.5,68.4,68.7,102.8,103.1.8-.4,1.3-.6,1.7-1,32.4-32.3,64.8-64.7,97.3-96.9h0ZM-871.5-45.5c5.4-5.3,4.3-8.3-.4-12.9-30.3-30-60.4-60.3-90.6-90.4-2.1-2.1-4.5-4-6.6-5.8-34.6,34.6-68.6,68.5-102.2,102.2,34.3,34.5,68.3,68.6,102.7,103.2,1.5-1.3,3.5-2.9,5.3-4.6,30.6-30.6,61-61.3,91.8-91.6ZM-969.4-598.1c33.9-33.8,68.1-67.7,102-101.5-33.9-33.7-68.2-67.6-101.8-100.9-33.6,33.4-67.8,67.5-101.1,100.7,33.5,33.8,67.5,68.1,100.9,101.7ZM-867.9-482.9c-34.1-34.4-68-68.5-102.1-103-.4.3-1.5.8-2.2,1.6-32,31.9-63.9,63.8-96,95.6-4.7,4.6-2.7,7.4,1,11.1,23.4,23.2,46.6,46.6,69.9,69.9,9.2,9.1,18.5,18.1,27.6,27,34.9-34.9,68.9-69,101.9-102.1h0ZM-867.2-267.6c-33.9-33.8-68-67.9-101.6-101.6-34.1,34.1-68.3,68.1-101.3,101,33.7,34,67.7,68.3,101.1,102,33.8-33.7,67.9-67.6,101.8-101.4h0ZM-975-592.4c-.2-.3-.6-1.3-1.4-2.1-32.1-32.2-64.3-64.3-96.4-96.6-3.4-3.4-5.8-3.3-9.2.1-9.1,9.4-18.5,18.5-27.7,27.7-23.5,23.5-47,46.9-69.8,69.6,34.9,35.2,69,69.6,102.4,103.2,33.6-33.6,67.7-67.7,102.1-102.1h0ZM-988.9-360.1c5-4.9,10.8-9,15.6-13-36.2-36.3-70.3-70.4-104-104.2-34.2,34.2-68.3,68.3-102.7,102.7.5.6,1.2,1.7,2.2,2.7,31.5,31.6,63.1,63.1,94.5,94.8,4.5,4.5,7.4,4.2,11.8-.3,27.4-27.7,54.9-55.3,82.6-82.7h0ZM-975.4-1023.3c-33.8-33.7-68-67.8-102.1-101.9-33.7,33.7-68,67.9-101.8,101.8,33.9,33.9,68.2,68.2,101.9,102,33.9-33.9,68.2-68.1,102-101.8h0ZM-1076.9-706.6c33.6-33.4,67.7-67.5,101.6-101.2-33.9-33.8-68.2-68.1-102.2-101.9-33.8,33.8-68,68.1-101,101.1,33.9,34.1,68.2,68.5,101.5,102.1h0ZM-1077.8-58.8c34-33.6,68.4-67.6,101.4-100.2-33.7-34-67.8-68.4-101.3-102.1-33.6,33.6-67.7,67.6-101,100.8,34.2,34.4,68.3,68.7,100.8,101.4h0ZM-1082-482.5c-1.2-2.1-1.5-3-2.1-3.6-32.1-32.2-64.3-64.3-96.3-96.7-4.3-4.4-7.1-2.8-10.6.6-31.1,31.2-62.2,62.4-93.5,93.4-3.6,3.6-3.9,6.2-.2,9.8,31.2,31.1,62.5,62.1,93.5,93.5,5,5,8.1,3.9,12.5-.6,19.5-19.9,39.3-39.5,59-59.2,12.5-12.4,25-24.7,37.7-37.3h0ZM-1082.7-52.4c-.9-1.1-2-2.7-3.3-4.1-31.3-31.4-62.8-62.7-94-94.2-4.2-4.2-6.8-3.3-10.4.3-31.5,31.6-63.1,63.2-94.7,94.8-1.1,1.1-1.7,2.7-2.5,4,34.4,34.2,68.4,68.1,102.3,101.8,34.2-34.2,68.3-68.3,102.7-102.7h0ZM-1186.9-812.1c35.7-35.6,69.8-69.7,102.9-102.8-33.9-34-68-68.2-102.4-102.7-.4.2-1.4.8-2.2,1.6-32,31.9-64,63.9-96.1,95.7-4,4-2.7,6.5.7,9.8,11.1,11,22.2,22.1,33.1,33.2,21.3,21.7,42.6,43.4,63.8,65.1h0ZM-1084.6-267.1c-33.5-33.9-67.3-68.2-100.3-101.5-34,33.8-68.2,68-101.6,101.2,33.5,33.8,67.5,68,100.6,101.3,34.1-34,68.3-68.2,101.2-101h0ZM-1185.2-598c33.9-34,68-68.1,101.2-101.4-33.7-33.9-67.8-68.2-101.3-101.9-33.9,33.7-68.2,67.7-102,101.4,34,33.9,68.1,68,102.1,102h0Z"/>
      <path class="cls-11" d="M2.3,13.8c10.8,18.5,23.7,32.8,40.6,41.1-10.5,10.2-20.7,20.1-30.9,30H-6.8c-10.1-9.8-20.1-19.6-30.6-29.8C-21.5,46.2-7.5,33.1,2.3,13.8Z"/>
    </g>
  </g>
  <g>
    <g class="cls-13">
      <g>
        <path class="cls-1" d="M32.6,424s-.4.2-.6.4c-30.5,30.4-60.9,60.8-91.6,91-4.6,4.5-2.4,7,1,10.4,29.2,29,58.2,58.2,87.3,87.3,1.6,1.6,3.6,3,5.2,4.3,32.5-32.7,64.6-64.9,95.4-95.9-32.2-32.4-64.5-64.8-96.9-97.5,0,0,.1,0,.2-.1h0ZM407.4,378.2v8.1c-21.1-20.8-42.2-41.6-62-61.2-1.1-1.1-2.3-2.2-3.4-3.3-33.2,33-65.7,65.3-97.6,97,31.6,31.7,63.7,64,97.1,97.5,1.3-1.3,2.6-2.7,3.9-4l3.2,3.2h0c-3.1,3.1-3,5.4-1.1,7.9l-3,2.8c-.7-.8-1.3-1.6-2-2.3-34.4,34.3-66.8,66.7-101.2,101,8.9,8.1,18.1,16.4,27.2,24.6h-8.1c-7.2-7.7-14.5-15.3-21.6-22.8-8.7,8.4-16.1,15.6-23.6,22.8h-6.5c8.3-9,16.5-18,24.6-26.7-32.6-32.6-65-65-96.3-96.2-32.3,32.1-64.8,64.5-97.5,97,7.6,8.2,15.8,17.1,23.9,25.9h-6.5c-7.4-7.7-14.8-15.3-22.9-23.7-8.1,8.6-15.2,16.1-22.3,23.7H3.7c8.7-8.9,17.4-17.8,25.3-26-33.1-33.3-65.2-65.6-96.8-97.4-1.6,1.5-3.1,3.1-4.6,4.6-30.7,30.6-61.7,61.5-94.7,94.5,8.8,7.8,18,16,27.1,24.2h-8.1c-7.1-7.5-14.2-14.9-21-22.2-1.8.7-2.7.8-3.2,1.3-7,6.9-14,13.9-21,20.8h-6.5c8.2-9,16.4-18,23.8-26.2-2.9-2.9-5.7-5.7-8.6-8.6-29.7-29.8-59.1-59.2-88.8-88.9-.3.2-1.3.6-2,1.3-30.5,30.4-60.8,60.8-91.3,91.2-3.2,3.2-3.2,5.4,0,8.6,7.3,7.4,14.4,15.1,21.5,22.6h-6.5c-6.2-6.2-12.2-12.7-18.8-18.6-1.6-1.5-6.3-2.1-7.6-.9-6.6,6.1-12.6,12.9-18.8,19.5h-8.1c8.5-8.9,17.1-17.7,25.2-26.2-32.9-32.8-65.4-65.1-97.1-96.8-31.9,31.8-64.3,64.1-98.9,98.6,8.8,7.9,18,16.1,27.1,24.4h-8.1c-7.3-7.7-14.5-15.3-21.9-23.1-8.5,8.4-15.9,15.7-23.3,23.1h-6.5c8.2-9,16.5-18,24.3-26.5-32.7-32.6-65.2-64.9-97.2-96.9-31.8,31.8-64.2,64.2-96.9,96.8,7.9,8.6,16.2,17.6,24.5,26.6h-6.5c-7.6-7.5-15.1-15-23.4-23.2-7.6,8.1-14.7,15.7-21.8,23.2h-8.1c8.7-8.9,17.4-17.9,25-25.7-33.2-33.3-65.4-65.6-99.7-100-1,1.3-2,2.8-3.1,4.3l-2.8-2.9h0c3.8-3.7,3.9-6.3.1-9.9-11-10.6-21.7-21.4-32.6-32.1v-6.5c12.2,11.6,24.4,23.2,36,34.2,1.4,1.3,2.8,2.7,4.2,4,33-32.8,65.3-64.9,97.1-96.6-32-32.1-64.4-64.5-98.8-98.9-12.4,13.3-25.5,27.2-38.5,41.1v-8.1c11.6-12.6,23.2-25.1,35.6-38.6-11-10.5-23.3-22.3-35.6-34.1v-8.1c13.5,13.3,27,26.7,40.6,40.1,1.8-1.3,3-2,3.9-2.9,30.2-30.2,60.3-60.4,90.7-90.5,4.9-4.9,1.6-7.2-1.5-10.3-27.7-27.7-55.4-55.5-83.2-83.2-3-3-6.1-5.8-9.5-9-3.1,3-5.6,5.4-8.1,7.8-11,10.6-21.9,21.1-32.9,31.7v-6.5c10.6-10.6,21-21.3,31.9-31.6,4.3-4.1,4.4-6.9,0-11.1-10.8-10.3-21.3-21-31.9-31.6v-6.5c13.7,13,27.4,26,39.9,38,2.6-2.6,5.2-5.2,7.8-7.8,30.4-30.2,60.1-59.8,89.5-89-31.9-31.9-64.2-64.1-97.2-97-13,12.9-26.5,26.2-40,39.6v-8.1c11.5-12.7,23-25.3,33.1-36.5-10-11-21.6-23.6-33.1-36.2v-8.1c12.9,14,25.9,27.9,38.3,41.3,34.6-34.7,67-67.1,98.6-98.8-31.8-31.9-64.1-64.3-96.8-97.1-1.9,1.7-4.3,3.9-6.6,6.1-11.2,10.8-22.4,21.5-33.6,32.3v-6.5c10.6-10.6,21.2-21.2,32-31.6,4.1-4,4.4-7.1,0-11.2-10.9-10.3-21.4-21-32.1-31.5v-6.5c12.2,11.6,24.4,23.1,36.1,34.2,1.5,1.4,2.9,2.7,4.3,4.1,33-32.9,65.2-65,97-96.7-32.1-32.1-64.5-64.5-99.1-99.2-12.4,13.4-25.4,27.3-38.3,41.3v-8.1c11.6-12.5,23.1-25.1,35.2-38.1-4.5-4.8-10.1-10.8-15.8-16.8h8.1c10.9,16.2,13.1,16.4,25.8,2.7.7-.8,1.1-1.8,1.6-2.7h8.1c-5.6,6.1-11.3,12.1-17.1,18.5,1.6,2,2.7,3.7,4.2,5.2,29.4,29.5,58.9,58.8,88.2,88.4,4.2,4.3,6.7,3.3,10.4-.5,16.2-16.5,32.5-32.8,49-49,14.5-14.3,29.1-28.4,44-42.9-6.4-7.4-11.8-13.6-17.1-19.7h6.5c9.3,10.4,18.9,10.6,28.6.6.2-.2.3-.4.5-.6h6.5c-5.3,6.2-10.7,12.3-15.2,17.5,32.6,32.7,64.9,65,96.6,96.8,31.7-31.8,63.9-64.1,96.5-96.7-5.1-5.5-10.8-11.5-16.4-17.6h8.1c3.6,3.9,7,8.1,10.9,11.6,1.2,1,4.8,1.1,6,.1,3.9-3.5,7.1-7.7,10.6-11.7h8.1c-5.7,6-11.3,12-16.6,17.7,32.7,32.7,65,64.9,97.6,97.4.1,0,1.2-.4,2-1.1,30.6-30.6,61.2-61.2,91.8-91.8,3-3,2.5-5.3-.3-8.1-4.5-4.5-8.6-9.4-12.9-14.1h6.5c17.8,18.2,11.7,16.8,28.5.6.2-.2.4-.4.5-.6h6.5c-3,3.4-5.7,7-8.9,10.1-8.3,8.2-8.4,8.2-.5,16.1,24.5,24.5,49,49.1,73.6,73.5,5.5,5.5,11,10.8,16,15.6,30-30,59.5-59.5,89.3-89.3,2.8-2.8,5.7-5.7,8.5-8.5-5.3-5.6-10.9-11.6-16.6-17.6h8.1c11,16.1,13.3,16.4,25.8,2.7.7-.8,1.1-1.8,1.6-2.7h8.1c-5.6,6.1-11.2,12.1-16.1,17.3,2.4,2.4,4.8,4.8,7.1,7.2,30.2,30.3,60,60.4,89.8,90.2,31.7-31.8,63.9-64.1,96.4-96.6-5-5.7-10.4-11.9-15.7-18.1h6.5c17.6,18.1,11.9,16.6,28.6.6.2-.2.3-.4.5-.6h6.5c-5.4,6.2-10.7,12.4-16.2,18.7,1.5,1.7,2.5,3.2,3.8,4.5,29.6,29.6,59.3,59.2,88.7,89,5.1,5.2,7.7,2,11-1.4,28.8-28.9,57.7-57.7,86.5-86.6,1.6-1.7,3.1-3.6,4.8-5.7-6-6.4-11.6-12.5-17.3-18.5h8.1c3.6,3.9,6.9,8.1,10.9,11.6,1.2,1,4.8,1,5.9,0,3.9-3.5,7.2-7.7,10.7-11.6h8.1c-5.7,6-11.4,12-19.1,20.2.7.6,1.4,1.1,2.1,1.7l-2.7,2.7-.4-.4c-33.2,33-65.8,65.3-97.7,97,31.6,31.7,63.8,64,96.4,96.7,1.3-1.1,2.7-2.4,4.2-3.7.5-.4,1-.9,1.4-1.4,12.2-12.1,24.3-24.4,36.6-36.4,8-7.8,16.3-15.4,24.4-23.1v6.5c-19.4,19.3-38.8,38.7-58.4,57.9-4.4,4.3-2.9,7.1.6,10.6,19.3,19.1,38.5,38.3,57.7,57.5v6.5c-2.1-1.6-4.3-3-6.2-4.9-17.5-17.4-35-35-52.5-52.4-2.6-2.6-5.4-5-7.5-6.9-32.9,32.8-65.3,65.2-96.9,96.8,31.9,32.1,64.2,64.6,98.6,99.1.1-.1.2-.2.3-.4l2.6,2.4c-.3.3-.2,1-.3,1.5-.6.6-1.2,1.2-1.7,1.8,1.9,1.5,3.9,2.9,5.8,4.3l-3,3-.2-.2c-4.4-4.5-7.1-4.6-11.6,0-28.9,29.3-58,58.4-87.3,87.3-4.8,4.7-4,7.3.4,11.6l.3.3c28.8,28.5,57.3,57.2,85.9,85.8,1.9,1.9,3.9,3.5,6.5,5.8,22.5-22.5,44.7-44.6,66.9-66.8v8.1c-19.2,19.2-38.3,38.5-57.7,57.4-4.3,4.2-4.3,6.8,0,11,19.4,19,38.5,38.3,57.7,57.4v8.1c-22.1-22.2-44.3-44.5-65-65.3-1.2,1.2-2.5,2.4-3.7,3.6-32,31.8-63.3,62.8-93.9,93.2,31.7,31.6,64,63.8,96.9,96.6,21.5-21.4,43.6-43.3,65.7-65.2v8.1c-2,1.7-4.2,3.2-6.1,5.1-16.4,16.2-32.6,32.5-49,48.8-8.1,8.1-8.2,8.2.1,16.4,18.2,18.1,36.6,36,54.9,54h0ZM331.8,116.5c3.7-3.7,3.3-6.4-.3-10-29.4-29.2-58.6-58.4-87.7-87.8-4.2-4.3-7.1-4-11.2.2-12.5,12.9-25.4,25.6-38.1,38.3-17.9,17.8-35.8,35.6-54,53.6,1,1.9,1.3,2.7,1.8,3.2,30.4,30.5,60.9,60.8,91.2,91.4,4,4,6.7,2.9,10-.4,29.4-29.5,58.8-59,88.3-88.4h0ZM238.2,412c32-31.9,64.3-64.1,96.3-96.1-31.9-31.9-64.2-64.1-95.4-95.3-32.2,32-64.7,64.3-96,95.3,31.5,31.8,63.6,64.3,95,96.1h0ZM333.6-297.7c-31.3-31.3-63.4-63.4-95.1-95.2-31.8,32.1-63.9,64.5-95.8,96.7,31.3,31.5,63.5,63.9,94.6,95.1,32.1-32.2,64.4-64.6,96.3-96.6ZM238.4,3.6c31.8-31.8,64-64.1,95-95.1-32-32.5-64.2-65.1-95.2-96.5-32,31.8-64.3,63.9-95.9,95.4C174.2-60.7,206.4-28.4,238.4,3.6ZM238.1,616.5c32-31.8,64.2-64,96-95.6-32.3-32.4-64.5-64.6-95.9-96.1-31.9,31.8-64.3,64.1-95.8,95.5,31.8,32,63.9,64.3,95.6,96.2h0ZM232.9,9c-.6-.8-1.5-2.2-2.6-3.3-29.8-29.9-59.7-59.6-89.4-89.6-4.4-4.4-7-3-10.5.6-18.5,18.7-37.1,37.4-55.8,55.9C62.5-15.4,50-3.7,38.5,7.4c33.9,33.8,66.3,66.1,98.1,97.7,31.5-31.4,63.8-63.6,96.3-96.1h0ZM210.7,237.6c7.7-7.7,15.4-15.5,22.3-22.5-33-33.1-65.1-65.4-96.4-96.8-32.1,32-64.6,64.4-97.3,97,.3.4,1,1.5,1.9,2.5,29.8,29.8,59.7,59.6,89.4,89.5,4.4,4.5,7.2,3.5,11.1-.5,22.8-23.2,45.9-46.1,68.9-69.1h0ZM231.6-194.2c-31.9-31.9-64.3-64.5-95.3-95.5-31.9,31.6-64.4,63.8-95.9,95.1,31.7,31.9,63.8,64.3,95.7,96.4,32-32.2,64.4-64.6,95.6-96h0ZM135.5,513.9c32.3-32,64.8-64.3,95.9-95.1-31.9-32-64.2-64.5-96-96.5-31.7,31.7-64,63.9-95.9,95.8,32.2,32.1,64.6,64.5,96.1,95.9ZM136.4-302c31.8-32,64-64.3,96.1-96.6-32.1-32.1-64.4-64.6-96.1-96.2-32.1,32-64.5,64.4-96.5,96.2,31.9,31.9,64.2,64.3,96.4,96.6h0ZM132.5,112.7c-3.6-3.9-5.6-6.3-7.9-8.6-28.1-28.1-56.4-56.1-84.3-84.5-5-5.1-7.9-5-12.8,0C-1.2,48.8-30.1,77.7-59.2,106.4c-4,4-4.3,6.4-.3,10.4C-30,145.9-.7,175.1,28.4,204.5c4.7,4.7,7.4,4,11.7-.4,15.8-16.2,31.8-32.1,47.8-48,14.5-14.3,29.2-28.5,44.6-43.4h0ZM130.9-297.5c-.8-.9-1.9-2.4-3.2-3.7-29.6-29.7-59.3-59.3-88.8-89.2-4.5-4.5-6.9-2.7-10.4.8-29,29.2-58.1,58.3-87.3,87.3-4.4,4.3-4,6.9.1,11.1C-29.5-262.2-.5-233,28.7-204c1.6,1.6,3.6,3,4.9,4.1,32.6-32.7,64.8-65,97.3-97.6h0ZM129.7-92.8c-31.6-31.9-63.7-64.2-95.3-96.1C2.2-156.6-30.2-124.2-61.8-92.6-30-60.7,2.1-28.5,33.7,3.2c32-32,64.4-64.4,96-96h0ZM129.9,315.9c-31.7-31.8-63.8-64-95.5-95.8C2.2,252.2-30.1,284.5-61.2,315.5c31.7,32,63.9,64.6,95.4,96.3,31.8-31.9,64-64.1,95.7-95.9ZM28.6,8.9c-.3-.4-.7-1.4-1.4-2.1C-3.2-23.7-33.7-54-63.9-84.6c-4.4-4.5-6.8-1.9-9.8,1.2-15.9,16-31.8,32-47.8,47.9-14.8,14.7-29.8,29.4-44.4,43.8,33.2,33.1,65.7,65.5,97.5,97.1C-36.3,73.4-4,41.3,28.6,8.9ZM25.9,422.6c4.8-4.8,1.8-7.3-1.4-10.4-28.7-28.7-57.3-57.4-86.1-86-2-2-4.2-3.8-5-4.5-33.1,33.1-65.5,65.5-97.1,97.1,31.4,31.6,63.6,64,95.9,96.6.6-.4,1.6-.9,2.3-1.6,30.4-30.4,60.7-60.9,91.3-91.1h0ZM6.3,237.9c7.7-7.7,15.7-15.3,22.6-22C-4.5,182.5-36.7,150-68.6,118c-31.8,31.6-64.1,63.7-97.1,96.5,1.5,1.6,2.9,3.3,4.4,4.8,29,29.1,58.2,58,87,87.3,4.9,5,7.6,4.4,12.2-.2,22.6-23,45.5-45.8,68.3-68.6h0ZM-68.5-98.6C-36.5-130.7-4.1-163,28-195.1c-31.6-31.7-63.9-63.9-95.7-95.7-32.1,32.2-64.5,64.6-96.3,96.5,31.6,31.8,64,64.2,95.4,95.7h0ZM28-399.6c-31.7-31.8-64-64-95.8-95.9-32.2,32.2-64.6,64.6-96.1,96.2,32.2,32.4,64.4,64.7,95.4,95.8,31.9-31.8,64.4-64.1,96.5-96.1h0ZM-77.3-291.3c4.9-4.9,3.1-7.9-.9-11.9-28.9-28.8-57.8-57.7-86.7-86.6-1.6-1.6-3.6-3-5.4-4.5-1.4,1-2.4,1.5-3.1,2.3-30.2,30.2-60.3,60.5-90.7,90.6-4.8,4.7-2.1,7.1,1.2,10.4,24.6,24.5,49.2,48.9,73.6,73.6,6,6.1,11.4,12.8,17.1,19.2,3.3-2.3,4-2.7,4.5-3.3,30.1-30,60.1-60,90.3-89.9h0ZM-73.2,111.7c-1.5-1.9-2.6-3.7-4.1-5.2-29.2-29.3-58.6-58.5-87.7-87.8-4.4-4.4-7-3.7-11.1.4-28.7,29-57.5,57.9-86.6,86.6-4.8,4.7-4.8,7.5,0,12.2,29.2,28.9,58.2,58,87.2,87.2,3.5,3.6,6,4.2,9.9.4,29.3-29.6,58.8-59,88.2-88.5,1.5-1.5,2.6-3.3,4.1-5.3h0ZM-77.7,526.1c4.4-4.3,4.7-7.4.1-11.9-18.6-18.2-37.1-36.6-55.3-55.2-12-12.2-23.5-25-35.4-37.7-3.7,3-4.8,3.7-5.8,4.7-29.9,29.8-59.6,59.7-89.6,89.4-4.4,4.3-2.8,6.9.7,10.5,25.3,25.2,50.5,50.6,75.8,75.9,5.4,5.4,11.1,10.7,16.7,16.1,1.9-1.5,3.3-2.3,4.4-3.4,29.4-29.4,58.8-59,88.3-88.3h0ZM-172.6,5.9c34.4-34.3,66.7-66.5,98.7-98.4-32.1-31.9-64.4-64-97.1-96.5-.4.3-1.8,1-2.9,2.1-30.1,30-60.1,60.1-90.3,90-4.3,4.3-1.8,6.8,1.3,9.9,22.5,22.4,45,44.7,67.2,67.3,8.2,8.4,15.8,17.4,23.1,25.5h0ZM-170.2,412.3c32-32.1,64.2-64.3,96.1-96.4-31.9-31.8-64.2-64-96-95.6-32.1,31.8-64.4,63.9-96,95.3,31.9,32.2,64.1,64.6,95.9,96.7h0ZM-174.9,10c-1.2-1.6-2.2-3.2-3.4-4.5-4.1-4.2-8.3-8.4-12.5-12.6-25.3-25.3-50.6-50.5-75.8-75.9-3.9-3.9-6.6-5.1-11.1-.5-29.1,29.4-58.4,58.6-87.7,87.9-3,3-5.6,5.4-1.2,9.8,30.2,29.9,60.1,59.9,90,90,3.2,3.2,5.5,3.1,8.6,0,29.7-29.9,59.6-59.7,89.4-89.6,1.3-1.3,2.3-2.8,3.7-4.6h0ZM-174.9,213.7c-1.3-1.7-2.3-3.3-3.6-4.5-29.6-29.7-59.3-59.2-88.8-89-4.1-4.1-6.6-3.6-10.4.3-29.3,29.6-58.7,59-88.3,88.3-3.7,3.7-3.9,6.1-.1,9.9,29.8,29.5,59.4,59.2,88.9,88.9,3.3,3.3,5.7,3.9,9.3.3,29.7-29.9,59.6-59.7,89.4-89.6,1.3-1.3,2.2-2.9,3.6-4.6h0ZM-178.4-190.2c3.7-3.7,2.7-6.1-.5-9.3-29.7-29.6-59.4-59.2-88.9-89-3.5-3.5-5.9-3.3-9.3.1-29.6,29.8-59.2,59.4-89,89-3.9,3.8-3.6,6.4,0,9.9,8.7,8.4,17.2,17,25.7,25.6,22.1,22.3,44.2,44.6,66.8,67.3,2-1.4,3-1.8,3.7-2.6,30.5-30.4,60.9-60.8,91.4-91h0ZM-179.8-393c1.7-1.7,3.1-3.5,4.3-4.9-32.8-32.8-65.2-65.1-97.2-97.1-31.9,31.8-64.2,63.9-97.2,96.8,2.3,2.4,4.3,4.6,6.4,6.7,28.3,28.4,56.8,56.6,84.8,85.2,5.2,5.3,8.1,4.5,12.8-.4,28.5-28.9,57.4-57.5,86.1-86.2h0ZM-180.6,424.7c2-2,3.7-4.2,5.1-5.7-32.9-33-65.1-65.2-97.1-97.2-31.9,31.9-64,64.1-96.8,97,1,1.2,1.9,2.5,3,3.6,29.8,29.9,59.7,59.7,89.4,89.7,4.6,4.7,7.1,2.1,10.4-1.2,28.7-28.8,57.4-57.4,86.1-86.2h0ZM-280.8,525.1c5.2-5.2,1.6-7.7-1.7-11-28.7-28.7-57.5-57.3-86-86.2-4.8-4.9-7.5-4.7-12.1,0-28.3,28.7-56.8,57.2-85.5,85.5-5.2,5.1-5.7,8.2-.2,13.6,20,19.5,39.5,39.5,59.3,59.2,10.6,10.6,21.3,21,32.1,31.7,1.7-1.3,2.9-2,3.8-2.9,30.1-30,60-60.1,90.2-89.9h0ZM-281.1,320.9c4.3-4.2,3.3-6.8-.4-10.5-18.5-18.3-37-36.7-55.3-55.2-12.2-12.4-24.1-25-35.3-36.7-34,33.7-66.5,65.9-98.7,97.9,32,31.9,64.2,64.1,96.7,96.6,1.2-.9,2.7-1.9,4-3.2,29.7-29.6,59.2-59.3,89-88.8h0ZM-281.6,117.5c4.1-4.1,4.7-6.8.4-11.1-29.6-29.3-59-58.8-88.4-88.2-1.3-1.3-2.9-2.3-4.6-3.6-1.9,1.5-3.7,2.6-5.1,4.1-29.1,29-58.1,58.2-87.3,87.1-4.3,4.2-5,7.1-.3,11.8,29.3,28.9,58.4,57.9,87.3,87.1,4.2,4.2,6.7,4.4,11,0,28.9-29.2,58-58.3,87.2-87.2h0ZM-282.6-86c5.1-5,5.3-7.8.2-12.8-25.3-24.9-50.3-50.2-75.4-75.3-5.4-5.4-11-10.7-16.6-16.1-1.7,1.3-2.6,1.9-3.3,2.7-30.1,30-60.1,60.1-90.3,90-4.3,4.2-3.2,6.9.4,10.5,13.6,13.4,27.1,26.9,40.6,40.4,17,17.2,34,34.4,51.8,52.5,3.5-3.2,5.9-5.3,8.1-7.6,28.1-28.2,56.1-56.5,84.5-84.3h0ZM-282.9-290c5.3-5.2,5.6-8.1.2-13.4-19.8-19.3-39.3-39-58.7-58.7-10.7-10.9-20.9-22.2-31.4-33.4-.7.5-1.4,1-2,1.6-1.1.7-2.3,1.3-3.2,2.2-29.9,29.8-59.6,59.7-89.6,89.3-5.1,5-2.9,7.9,1,11.8,27.4,27.3,54.8,54.7,82.1,82,3.2,3.2,6.5,6.1,10,9.3,2.2-2,3.8-3.3,5.3-4.8,28.7-28.7,57.2-57.6,86.2-86h0ZM-379.3,8.8c-1-1.2-2-2.5-3.1-3.6-29.3-29.3-58.7-58.4-87.8-87.9-5.1-5.2-8-4.8-12.8.2-28.5,28.9-57.3,57.6-86.1,86.3-1.7,1.7-3.2,3.5-4.1,4.5,32.7,32.8,65,65.2,97.1,97.4,31.6-31.7,63.9-64,96.8-96.9h0ZM-396,232.2c5.8-5.8,12.4-10.8,17.7-15.4-34.3-34.6-66.6-67-99.2-99.8-.7.5-1.8,1.3-2.7,2.2-30,30-60,60.1-90.2,89.9-4.6,4.5-2.6,7,.9,10.4,29,28.8,57.9,57.6,86.6,86.7,5,5.1,7.8,5.1,12.8,0,24.5-24.9,49.2-49.5,74.1-74.1h0ZM-476.6-98.2c31.8-31.9,64.2-64.3,95-95.2-31.9-32.3-64.2-64.9-95.9-96.9-31.7,31.7-63.9,63.9-95.6,95.6,32.1,32.1,64.4,64.5,96.5,96.5ZM-476-302.5c31.6-31.7,63.8-64,95.3-95.6-32.4-32.4-64.8-64.8-95.9-95.8-31.7,31.5-64.1,63.8-95.7,95.2,31.8,31.8,64.1,64.1,96.2,96.1h0ZM-381,418.5c-31.9-32.1-64.2-64.6-95.4-95.9-32,31.7-64.4,64-96.6,96,31.8,31.7,64,63.9,95.6,95.6,32.5-32.2,65-64.5,96.4-95.7h0ZM-484.8-292.4c4.4-4.3,1.8-6.8-1.2-9.9-29.1-29.1-58.3-58.1-87.2-87.3-4.2-4.2-6.8-4.4-11.1,0-28.9,29.3-58.1,58.3-87.1,87.4-1.7,1.7-3.1,3.6-4.2,4.9,32.5,32.6,64.7,64.9,97.2,97.5.7-.4,1.3-.6,1.6-.9,30.7-30.5,61.3-61.2,92-91.6h0ZM-486.3,526.1c5.1-5,4.1-7.8-.4-12.2-28.7-28.4-57.2-57-85.7-85.5-2-2-4.3-3.8-6.2-5.5-32.7,32.7-64.8,64.8-96.6,96.6,32.5,32.6,64.6,64.9,97.2,97.6,1.4-1.3,3.3-2.7,5-4.4,28.9-28.9,57.7-57.9,86.8-86.6h0ZM-578.8,3.5c32.1-31.9,64.4-64.1,96.5-96-32.1-31.8-64.5-63.9-96.3-95.4-31.7,31.6-64.1,63.9-95.6,95.2,31.7,32,63.8,64.4,95.4,96.2h0ZM-482.9,112.5c-32.3-32.5-64.3-64.8-96.6-97.4-.4.3-1.4.8-2.1,1.5-30.3,30.1-60.4,60.4-90.8,90.4-4.4,4.4-2.6,7,.9,10.5,22.1,21.9,44.1,44.1,66.1,66.1,8.7,8.7,17.5,17.1,26.1,25.5,33-33,65.2-65.3,96.4-96.6h0ZM-482.2,316.1c-32-32-64.2-64.2-96.1-96.1-32.3,32.2-64.6,64.4-95.8,95.5,31.8,32.1,64,64.6,95.6,96.5,31.9-31.8,64.2-64,96.3-95.9h0ZM-584.2,8.9c-.2-.2-.6-1.2-1.3-2-30.4-30.5-60.8-60.8-91.2-91.3-3.2-3.3-5.5-3.1-8.6.1-8.6,8.9-17.5,17.5-26.2,26.2-22.2,22.2-44.5,44.4-66,65.8,33,33.3,65.3,65.8,96.8,97.7,31.8-31.8,64-64,96.5-96.5h0ZM-597.3,228.6c4.7-4.7,10.2-8.5,14.8-12.3-34.3-34.3-66.5-66.6-98.4-98.6-32.3,32.3-64.6,64.6-97.1,97.1.4.5,1.2,1.7,2.1,2.6,29.8,29.9,59.7,59.6,89.4,89.6,4.2,4.3,7,3.9,11.1-.2,25.9-26.2,51.9-52.3,78.1-78.2h0ZM-681.4,513.5c32.1-31.7,64.7-63.9,95.9-94.8-31.9-32.1-64.2-64.7-95.7-96.5-31.8,31.7-64.1,64-95.5,95.3,32.4,32.5,64.6,65,95.4,95.9h0ZM-584.5-398.5c-32-31.9-64.3-64.1-96.6-96.4-31.9,31.8-64.3,64.2-96.3,96.2,32.1,32.1,64.5,64.5,96.4,96.4,32.1-32,64.5-64.4,96.5-96.3h0ZM-680.5-99.1c31.7-31.6,64.1-63.8,96.1-95.7-32.1-32-64.5-64.3-96.6-96.4-32,32-64.4,64.4-95.5,95.6,32.1,32.2,64.5,64.8,96,96.5h0ZM-685.4,112.8c-1.2-2-1.4-2.8-2-3.4-30.4-30.5-60.8-60.9-91.1-91.4-4.1-4.1-6.7-2.7-10,.6-29.4,29.5-58.8,59-88.4,88.3-3.4,3.4-3.7,5.9-.2,9.3,29.5,29.4,59.1,58.8,88.4,88.4,4.7,4.8,7.7,3.7,11.8-.5,18.5-18.8,37.1-37.4,55.8-56,11.8-11.8,23.7-23.4,35.7-35.2h0ZM-686,519.6c-.8-1-1.9-2.6-3.2-3.8-29.6-29.7-59.4-59.3-88.9-89.1-4-4-6.4-3.1-9.9.3-29.8,29.9-59.7,59.8-89.5,89.7-1,1-1.6,2.6-2.4,3.8,32.5,32.4,64.7,64.4,96.7,96.3,32.4-32.3,64.6-64.6,97.1-97.1h0ZM-784.5-198.8c33.7-33.7,66-65.9,97.3-97.2-32-32.1-64.3-64.5-96.8-97.1-.3.2-1.3.8-2,1.5-30.3,30.2-60.5,60.4-90.9,90.5-3.8,3.7-2.5,6.2.6,9.3,10.5,10.4,21,20.8,31.3,31.4,20.2,20.5,40.3,41.1,60.4,61.6h0ZM-687.8,316.5c-31.6-32-63.7-64.5-94.8-96-32.1,32-64.5,64.3-96.1,95.7,31.7,31.9,63.9,64.3,95.2,95.8,32.2-32.1,64.6-64.5,95.7-95.5h0ZM-783,3.6c32.1-32.1,64.3-64.4,95.7-95.9-31.9-32.1-64.2-64.6-95.8-96.4-32.1,31.9-64.5,64.1-96.5,95.9,32.1,32.1,64.4,64.3,96.5,96.4h0Z"/>
        <path class="cls-8" d="M331.5,106.5c3.6,3.6,4,6.3.3,10-29.5,29.4-58.9,58.9-88.3,88.4-3.3,3.3-6,4.5-10,.4-30.3-30.5-60.8-60.9-91.2-91.4-.5-.5-.8-1.3-1.8-3.2,18.1-18,36.1-35.8,54-53.6,12.8-12.7,25.6-25.3,38.1-38.3,4.1-4.2,6.9-4.5,11.2-.2,29.1,29.4,58.4,58.7,87.7,87.8h0ZM324.2,116.4c1.3-1.3,2.3-2.8,3.8-4.7-1.7-2-3.1-3.8-4.7-5.5-26.6-26.6-53.2-53.1-79.7-79.8-3.9-3.9-6.5-4.4-10.6-.3-26.9,27.1-53.9,54-80.9,80.9-3.4,3.3-3.7,5.9-.2,9.4,27.2,27.1,54.4,54.2,81.5,81.4,3.3,3.3,6,3.6,9.4.1,27.1-27.2,54.3-54.4,81.4-81.6h0Z"/>
        <path class="cls-7" d="M328,111.7c-1.5,1.9-2.5,3.5-3.8,4.7-27.1,27.2-54.3,54.3-81.4,81.6-3.5,3.5-6.1,3.2-9.4-.1-27.1-27.2-54.3-54.3-81.5-81.4-3.5-3.5-3.1-6.1.2-9.4,27.1-26.9,54.1-53.8,80.9-80.9,4.1-4.1,6.7-3.6,10.6.3,26.5,26.7,53.1,53.2,79.7,79.8,1.6,1.7,3.1,3.5,4.7,5.5h0ZM274.1,139.2c8.7-7.8,8.3-21.8-.9-31.8-7.8-8.5-15.6-17.1-23.5-25.5-3.8-4-7.8-7.8-12-12-6.2,6.8-12,13.2-17.8,19.6-7,7.8-14.6,15.1-20.7,23.6-6.1,8.4-3.3,21.8,4.5,27.6,7.6,5.6,17.6,4.1,25.4-3.7,1.9-1.9,3.9-3.7,5.9-5.5.7.6,1.5,1.1,2.2,1.7-4,6.5-8.1,13-12.3,19.9h27.8c-3.1-3.8-5.9-6.7-8-9.9-2.1-3.3-3.5-7.1-5.2-10.7,3,.2,4.4,1.4,5.6,2.6,9.7,10.2,20.6,11.8,29,4.2h0Z"/>
        <path class="cls-8" d="M333.4-91.5c-31,31-63.2,63.3-95,95.1-32-32-64.2-64.2-96.1-96.2,31.7-31.5,64-63.6,95.9-95.4,31,31.4,63.1,64,95.2,96.5h0ZM328.5-90.7c-1.1-2.5-1.2-3.1-1.6-3.4-28.2-28.4-56.5-56.7-84.7-85.2-3.5-3.6-6-2-8.8.8-26.8,26.8-53.6,53.6-80.5,80.3-4.1,4-4.4,6.9,0,11.2,26.8,26.4,53.4,53,79.8,79.8,4.7,4.8,7.4,4.1,11.6-.3,11-11.4,22.3-22.6,33.6-33.7,16.8-16.6,33.7-33.1,50.5-49.5h0Z"/>
        <path class="cls-8" d="M230.4,5.7c1.1,1.1,1.9,2.5,2.6,3.3-32.6,32.5-64.8,64.7-96.3,96.1C104.8,73.5,72.4,41.1,38.5,7.4c11.5-11,24-22.7,36.2-34.8,18.7-18.5,37.3-37.2,55.8-55.9,3.6-3.6,6.2-5,10.5-.6,29.7,30,59.6,59.8,89.4,89.6h0ZM227,10.9c-3-3.3-4.6-5.3-6.5-7.1-26.2-26.2-52.5-52.3-78.5-78.8-5-5.1-7.6-4.3-12.1.3C104-48.3,77.8-22.1,51.3,3.9c-5,4.9-4.4,7.6.2,12.2,26.6,26.2,53,52.7,79.2,79.3,4.4,4.5,7,3.8,11-.4,15.2-15.6,30.6-30.9,46.1-46.2,12.8-12.6,25.8-25,39.1-37.9h0Z"/>
        <path class="cls-5" d="M225.9,213.6c-1.6,2-2.8,3.7-4.2,5.2-26.9,27-54,53.9-80.8,81-4,4-6.2,3.2-9.7-.3-26.7-26.9-53.4-53.7-80.4-80.3-4.4-4.4-3.9-6.9.3-11,26.8-26.4,53.4-53,79.8-79.8,4.5-4.6,7-3.8,11,.3,26.3,26.5,52.7,52.9,79.1,79.3,1.7,1.7,3.1,3.6,5,5.7h0ZM164.9,233.6c11.4-12.5,16.4-27.7,11.4-44.7-2.5-8.4-7.3-15.2-16.6-16.8-9-1.6-14.5,3.9-19.1,10.8-1.3,1.9-2.7,3.8-4.6,6.5-2.5-3.6-4.4-6.4-6.4-9.1-9.2-12-24-11.4-30.6,2.1-3.4,7.1-5.2,16.1-4.3,23.9,2.7,23.7,19.7,37.1,38.6,48.3,1.6.9,5,.3,6.6-.9,8.5-6.4,17.7-12.3,24.8-20.1h0Z"/>
        <path class="cls-5" d="M220.5,3.7c1.8,1.8,3.5,3.9,6.5,7.1-13.4,12.9-26.4,25.3-39.1,37.9-15.5,15.3-30.9,30.6-46.1,46.2-4,4.1-6.6,4.8-11,.4-26.2-26.6-52.6-53-79.2-79.3-4.6-4.6-5.2-7.3-.2-12.2,26.4-26,52.6-52.2,78.6-78.6,4.5-4.6,7.2-5.4,12.1-.3,25.9,26.5,52.3,52.6,78.5,78.8h0ZM153.4,26.8c6.3-6.3,14-11.4,22-17.8C158.3,0,145.6-12.8,136.1-30.8,126.8-12.7,113.8-.2,95.5,9.8c18.6,9.6,30.8,23.1,40.1,39,6.3-7.9,11.4-15.5,17.8-21.9h0Z"/>
        <path class="cls-8" d="M233.1,215c-7,7-14.6,14.8-22.3,22.5-23,23-46,46-68.9,69.1-3.9,4-6.7,5-11.1.5-29.7-30-59.6-59.7-89.4-89.5-.9-.9-1.6-2.1-1.9-2.5,32.7-32.6,65.2-64.9,97.3-97,31.3,31.4,63.5,63.7,96.4,96.8h0ZM221.6,218.8c1.5-1.5,2.6-3.2,4.2-5.2-1.8-2.1-3.3-4-5-5.7-26.4-26.4-52.9-52.8-79.1-79.3-4-4.1-6.5-4.8-11-.3-26.4,26.8-53,53.4-79.8,79.8-4.1,4.1-4.7,6.6-.3,11,26.9,26.6,53.7,53.4,80.4,80.3,3.5,3.6,5.8,4.3,9.7.3,26.8-27.1,53.9-54,80.8-81h0Z"/>
        <path class="cls-8" d="M176.4,188.9c5,17,0,32.2-11.4,44.7-7.1,7.8-16.3,13.7-24.8,20.1-1.6,1.2-5.1,1.8-6.6.9-19-11.2-36-24.6-38.6-48.3-.9-7.8.9-16.8,4.3-23.9,6.6-13.6,21.4-14.1,30.6-2.1,2.1,2.7,3.9,5.5,6.4,9.1,1.9-2.7,3.3-4.5,4.6-6.5,4.6-6.8,10.1-12.3,19.1-10.8,9.3,1.6,14.1,8.5,16.6,16.8h0Z"/>
        <path class="cls-8" d="M175.5,9c-8.1,6.4-15.7,11.5-22,17.8-6.4,6.4-11.5,14-17.8,21.9-9.3-15.9-21.5-29.4-40.1-39C113.8-.2,126.8-12.7,136.1-30.8,145.6-12.8,158.3,0,175.5,9Z"/>
        <path class="cls-8" d="M124.6,104.2c2.2,2.3,4.3,4.7,7.9,8.6-15.4,15-30.1,29.1-44.6,43.4-16.1,15.9-32.1,31.8-47.8,48-4.2,4.3-7,5.1-11.7.4C-.7,175.1-30,145.9-59.5,116.8c-4-4-3.7-6.4.3-10.4C-30.1,77.7-1.2,48.8,27.5,19.7c5-5.1,7.8-5.2,12.8,0,27.9,28.4,56.2,56.3,84.3,84.5ZM120,116.9c3.6-3.6,4.1-6.1.3-10-27.1-26.8-54.2-53.8-81.1-80.9-4.2-4.2-6.9-3.3-10.6.4C1.9,53.3-24.9,80.1-51.8,106.8c-3.6,3.6-4,6.1-.2,9.9,27.1,26.8,54,53.9,81.1,80.8,1.5,1.5,3.2,2.6,5.2,4,2-1.6,3.8-2.8,5.3-4.3,26.8-26.8,53.6-53.6,80.5-80.3Z"/>
        <path class="cls-7" d="M120.2,106.9c3.9,3.8,3.3,6.4-.3,10-26.9,26.7-53.6,53.6-80.5,80.3-1.5,1.5-3.2,2.6-5.3,4.3-1.9-1.5-3.7-2.6-5.2-4-27-26.9-54-53.9-81.1-80.8-3.8-3.8-3.5-6.3.2-9.9C-24.9,80.1,1.9,53.3,28.6,26.5c3.7-3.7,6.4-4.6,10.6-.4,26.9,27.1,53.9,54,81.1,80.9h0ZM65.3,134.7c7.3-3.7,11.4-11.4,10.8-20.1-.7-9.1-6-16.1-15.4-18.3-4.8-1.1-5.7-3.3-6.1-7.6-1.1-11.9-9.2-19.1-20.7-19.1-10.9,0-19.2,7.4-20.3,18.8-.4,4.6-1.2,6.8-6.5,8-11.2,2.5-17.1,13.3-14.6,24.1,2.6,11.2,12,18,23.5,15.6,5.7-1.2,10.9-4.8,17.8-8.1,0,.1-.1.3-.2.4-3.8,8.5-7.3,16.4-10.9,24.5h23.1c-3.8-8.3-7.3-16.1-10.8-23.8.7-.4,1.5-.8,2.2-1.1,1.2,1,2.3,2.1,3.5,3.1,6.9,6.2,16.7,7.6,24.7,3.5h0Z"/>
        <path class="cls-5" d="M76.1,114.7c.7,8.7-3.5,16.4-10.8,20.1-8,4.1-17.8,2.7-24.7-3.5-1.2-1-2.3-2.1-3.5-3.1-.7.4-1.4.8-2.2,1.1l-1.5-.7c0-.1.1-.3.2-.4-6.9,3.2-12.1,6.9-17.8,8.1-11.4,2.4-20.9-4.4-23.5-15.6-2.5-10.8,3.5-21.6,14.6-24.1,5.3-1.2,6.1-3.4,6.5-8,1.1-11.4,9.4-18.7,20.3-18.8,11.5,0,19.6,7.2,20.7,19.1.4,4.3,1.3,6.4,6.1,7.6,9.4,2.2,14.7,9.2,15.4,18.3h0Z"/>
        <path class="cls-8" d="M34.4-188.8c31.6,31.8,63.7,64.2,95.3,96.1C98.1-61.2,65.8-28.8,33.7,3.2,2.1-28.5-30-60.7-61.8-92.6-30.2-124.2,2.2-156.6,34.4-188.8ZM119.8-87.6c1.3-1.3,2.4-2.8,3.9-4.6-1.4-1.9-2.5-3.7-4-5.1-26.9-27-54-54-80.9-81-3.7-3.7-6.3-3.5-10,.2C2-151.1-25-124.1-52.1-97.3c-3.7,3.7-3.6,6.2.1,9.9C-24.8-60.5,2.2-33.6,29-6.5c3.8,3.9,6.2,3.5,9.9-.2,26.9-27.1,53.9-54,80.9-81h0Z"/>
        <path class="cls-5" d="M45.7,153h-23.1c3.6-8.1,7.1-16,10.9-24.5l1.5.7c3.5,7.7,7,15.5,10.8,23.8h0Z"/>
        <path class="cls-8" d="M27.2,6.8c.7.7,1.1,1.7,1.4,2.1C-4,41.3-36.3,73.4-68.5,105.4c-31.8-31.7-64.2-64-97.5-97.1,14.6-14.4,29.5-29,44.4-43.8,16-15.9,31.9-31.9,47.8-47.9,3-3,5.4-5.6,9.8-1.2C-33.7-54-3.2-23.7,27.2,6.8ZM22,10.8c-1.2-2-1.6-3.1-2.3-3.8C-8.1-21.1-36.1-49-64-77.1c-3.3-3.3-5.5-2.8-8.6.4-11.2,11.6-22.7,22.9-34.1,34.3-17.2,17-34.5,33.8-51.5,50.6,1.2,2.5,1.3,3,1.7,3.4,28.1,28.2,56.3,56.2,84.3,84.5,4,4.1,6.2,2.1,9.1-.9,17.5-17.5,35-35,52.5-52.5C.2,32,11.2,21.4,22,10.8Z"/>
        <path class="cls-5" d="M19.8,7c.7.7,1.1,1.8,2.3,3.8C11.2,21.4.2,32-10.6,42.8c-17.6,17.4-35.1,34.9-52.5,52.5-3,3-5.1,5-9.1.9-28-28.3-56.2-56.3-84.3-84.5-.4-.4-.5-.9-1.7-3.4,17.1-16.8,34.4-33.6,51.5-50.6,11.5-11.3,22.9-22.7,34.1-34.3,3.1-3.2,5.3-3.7,8.6-.4C-36.1-49-8.1-21.1,19.8,7ZM-38.5,28.2C-27.9,17.1-24.6,3.1-27-12.2c-1.6-9.8-8.8-18.4-16.6-19.8-10.1-1.7-16.2,3.6-20.8,11.7-.9,1.6-2.1,3-3.8,5.3-2.7-3.9-4.5-6.9-6.7-9.6-9-11-21.5-10.7-29.6,1-5.6,8.1-7.2,17.4-5.2,27,4.6,22.4,19.9,36.1,38.9,46.6,1.8,1,5.5.4,7.2-.9,8.7-6.7,17.7-13.2,25.2-21h0Z"/>
        <path class="cls-5" d="M18.4,209.8c3.4,3.4,2.8,5.6-.3,8.6-27.3,27.1-54.4,54.3-81.6,81.5-2.7,2.7-4.8,4.6-8.6.9-28-28.2-56.2-56.3-84.3-84.4-.5-.5-.8-1.4-1.9-3.2,21.8-21.7,43.3-43,64.8-64.4,6.8-6.8,13.8-13.6,20.5-20.6,3.2-3.4,5.5-4.2,9.2-.5,27.3,27.5,54.6,54.9,82.1,82.2h0ZM-67.9,254.6c9.1-18.4,22.4-30.7,39.9-40.6-17.8-10-30.8-22.4-40.3-40.8-9.3,18.6-22.5,31.5-41.1,41.1,19.3,9,31.4,22.7,41.5,40.4h0Z"/>
        <path class="cls-8" d="M28.8,216c-6.9,6.7-14.8,14.2-22.6,22-22.8,22.8-45.7,45.5-68.3,68.6-4.6,4.6-7.3,5.1-12.2.2-28.8-29.3-58-58.3-87-87.3-1.5-1.5-2.9-3.1-4.4-4.8,33-32.8,65.3-64.9,97.1-96.5C-36.7,150-4.5,182.5,28.8,216ZM18.2,218.4c3.1-3.1,3.6-5.2.3-8.6-27.5-27.3-54.8-54.7-82.1-82.2-3.7-3.7-6.1-2.9-9.2.5-6.7,7-13.6,13.8-20.5,20.6-21.5,21.4-43,42.8-64.8,64.4,1,1.8,1.3,2.7,1.9,3.2,28.1,28.1,56.3,56.2,84.3,84.4,3.7,3.8,5.8,1.9,8.6-.9,27.2-27.2,54.3-54.4,81.6-81.5Z"/>
      </g>
    </g>
    <rect class="cls-4" y="27.7" width="111.8" height="143.4"/>
    <path class="cls-10" d="M35.9,68.2C23,57.2,11.3,45.1,1.4,31.3c-.6-.8-.9-1.2-1.2-1.2v138.9c6.2,0,12.5,0,18.7,0,.7,0,1.8-.4,1.8-.7,0-.7-.3-1.5-.6-2.2-.2-.4-.6-.6-.9-.9-1.8-1.8-3.8-3.4-5.4-5.3-6.5-8-9.1-17.4-8.8-27.6,0-.3,0-.6,0-.8.2-.3.4-.6.7-1,.3.2.6.4.8.7.5.9.8,1.8,1.3,2.7,4,9,11.2,13.8,20.6,15.5,18.6,3.4,33.3-11.5,35.5-26.6,1.4-9.7-.4-18.8-5.2-27.3-5.9-10.6-13.7-19.5-22.8-27.3h0Z"/>
  </g>
</svg>