<?xml version="1.0" encoding="UTF-8"?>
<svg id="Layer_1" data-name="Layer 1" xmlns="http://www.w3.org/2000/svg" xmlns:xlink="http://www.w3.org/1999/xlink" viewBox="0 0 820.068 820.068">
  <defs>
    <style>
      .cls-1 {
        fill: #9ca8d6;
      }

      .cls-1, .cls-2, .cls-3, .cls-4, .cls-5, .cls-6, .cls-7, .cls-8, .cls-9 {
        stroke-width: 0px;
      }

      .cls-10 {
        clip-path: url(#clippath);
      }

      .cls-2 {
        fill: #7a1a1a;
      }

      .cls-3 {
        fill: none;
      }

      .cls-4 {
        fill: #ec7a96;
      }

      .cls-5 {
        fill: #e6adb1;
      }

      .cls-6 {
        fill: #ba706e;
      }

      .cls-11 {
        clip-path: url(#clippath-1);
      }

      .cls-7 {
        fill: #832526;
      }

      .cls-8 {
        fill: #781b1b;
      }

      .cls-9 {
        fill: #d77384;
      }
    </style>
    <clipPath id="clippath">
      <rect class="cls-3" x="205.549" y="332.008" width="60.864" height="151.703"/>
    </clipPath>
    <clipPath id="clippath-1">
      <rect class="cls-3" x="88.935" y="186.84" width="60.864" height="303.405"/>
    </clipPath>
  </defs>
  <rect class="cls-1" x="55.737" y="490.245" width="713.764" height="290.875"/>
  <rect class="cls-1" x="88.935" y="186.84" width="60.864" height="303.405"/>
  <path class="cls-2" d="M119.377,37.424c.269.322.485.553.671.806,10.514,14.235,20.558,28.787,29.748,43.918,5.421,8.925,10.497,18.04,14.801,27.559,2.537,5.612,4.737,11.359,6.148,17.381,1.152,4.916,1.06,9.851.375,14.805-.801,5.794-2.56,11.295-5.237,16.487-2.935,5.693-6.797,10.685-11.564,14.978-5.83,5.249-12.492,9.018-20.002,11.268-8.433,2.527-16.998,2.893-25.592,1.088-11.198-2.352-20.644-7.859-28.297-16.379-5.238-5.83-8.974-12.513-11.197-20.035-1.638-5.542-2.395-11.205-2.033-16.97.248-3.959,1.339-7.76,2.601-11.518,3.628-10.804,8.879-20.837,14.482-30.706,6.788-11.956,14.294-23.457,22.15-34.73,4.02-5.768,8.176-11.441,12.275-17.155.182-.254.403-.48.671-.797Z"/>
  <path class="cls-4" d="M119.373,85.994c.17.203.305.348.422.507,6.617,8.959,12.939,18.119,18.724,27.642,3.412,5.618,6.607,11.354,9.315,17.346,1.597,3.532,2.981,7.149,3.87,10.94.725,3.094.667,6.2.236,9.318-.504,3.647-1.611,7.109-3.296,10.377-1.848,3.583-4.278,6.725-7.279,9.427-3.669,3.304-7.863,5.676-12.589,7.092-5.308,1.59-10.699,1.821-16.107.685-7.048-1.48-12.993-4.947-17.81-10.309-3.297-3.67-5.648-7.876-7.047-12.61-1.031-3.488-1.507-7.052-1.28-10.681.156-2.492.843-4.884,1.637-7.249,2.283-6.8,5.589-13.115,9.115-19.326,4.272-7.525,8.997-14.764,13.941-21.859,2.53-3.631,5.146-7.201,7.726-10.797.115-.16.253-.302.422-.502Z"/>
  <path class="cls-6" d="M119.361,742.371c-.17-.203-.305-.348-.422-.507-6.617-8.959-12.939-18.119-18.724-27.642-3.412-5.618-6.607-11.354-9.315-17.346-1.597-3.532-2.981-7.149-3.87-10.94-.725-3.094-.667-6.2-.236-9.318.504-3.647,1.611-7.109,3.296-10.377,1.848-3.583,4.278-6.725,7.279-9.427,3.669-3.304,7.863-5.676,12.589-7.092,5.308-1.59,10.699-1.821,16.107-.685,7.048,1.48,12.993,4.947,17.81,10.309,3.297,3.67,5.648,7.876,7.047,12.61,1.031,3.488,1.507,7.052,1.28,10.681-.156,2.492-.843,4.884-1.637,7.249-2.283,6.8-5.589,13.115-9.115,19.326-4.272,7.525-8.997,14.764-13.941,21.859-2.53,3.631-5.146,7.201-7.726,10.797-.115.16-.253.302-.422.502Z"/>
  <path class="cls-8" d="M216.608,742.371c-.17-.203-.305-.348-.422-.507-6.617-8.959-12.939-18.119-18.724-27.642-3.412-5.618-6.607-11.354-9.315-17.346-1.597-3.532-2.981-7.149-3.87-10.94-.725-3.094-.667-6.2-.236-9.318.504-3.647,1.611-7.109,3.296-10.377,1.848-3.583,4.278-6.725,7.279-9.427,3.669-3.304,7.863-5.676,12.589-7.092,5.308-1.59,10.699-1.821,16.107-.685,7.048,1.48,12.993,4.947,17.81,10.309,3.297,3.67,5.648,7.876,7.047,12.61,1.031,3.488,1.507,7.052,1.28,10.681-.156,2.492-.843,4.884-1.637,7.249-2.283,6.8-5.589,13.115-9.115,19.326-4.272,7.525-8.997,14.764-13.941,21.859-2.53,3.631-5.146,7.201-7.726,10.797-.115.16-.253.302-.422.502Z"/>
  <path class="cls-6" d="M313.855,742.371c-.17-.203-.305-.348-.422-.507-6.617-8.959-12.939-18.119-18.724-27.642-3.412-5.618-6.607-11.354-9.315-17.346-1.597-3.532-2.981-7.149-3.87-10.94-.725-3.094-.667-6.2-.236-9.318.504-3.647,1.611-7.109,3.296-10.377,1.848-3.583,4.278-6.725,7.279-9.427,3.669-3.304,7.863-5.676,12.589-7.092,5.308-1.59,10.699-1.821,16.107-.685,7.048,1.48,12.993,4.947,17.81,10.309,3.297,3.67,5.648,7.876,7.047,12.61,1.031,3.488,1.507,7.052,1.28,10.681-.156,2.492-.843,4.884-1.637,7.249-2.283,6.8-5.589,13.115-9.115,19.326-4.272,7.525-8.997,14.764-13.941,21.859-2.53,3.631-5.146,7.201-7.726,10.797-.115.16-.253.302-.422.502Z"/>
  <path class="cls-8" d="M411.102,742.371c-.17-.203-.305-.348-.422-.507-6.617-8.959-12.939-18.119-18.724-27.642-3.412-5.618-6.607-11.354-9.315-17.346-1.597-3.532-2.981-7.149-3.87-10.94-.725-3.094-.667-6.2-.236-9.318.504-3.647,1.611-7.109,3.296-10.377,1.848-3.583,4.278-6.725,7.279-9.427,3.669-3.304,7.863-5.676,12.589-7.092,5.308-1.59,10.699-1.821,16.107-.685,7.048,1.48,12.993,4.947,17.81,10.309,3.297,3.67,5.648,7.876,7.047,12.61,1.031,3.488,1.507,7.052,1.28,10.681-.156,2.492-.843,4.884-1.637,7.249-2.283,6.8-5.589,13.115-9.115,19.326-4.272,7.525-8.997,14.764-13.941,21.859-2.53,3.631-5.146,7.201-7.726,10.797-.115.16-.253.302-.422.502Z"/>
  <path class="cls-6" d="M508.349,742.371c-.17-.203-.305-.348-.422-.507-6.617-8.959-12.939-18.119-18.724-27.642-3.412-5.618-6.607-11.354-9.315-17.346-1.597-3.532-2.981-7.149-3.87-10.94-.725-3.094-.667-6.2-.236-9.318.504-3.647,1.611-7.109,3.296-10.377,1.848-3.583,4.278-6.725,7.279-9.427,3.669-3.304,7.863-5.676,12.589-7.092,5.308-1.59,10.699-1.821,16.107-.685,7.048,1.48,12.993,4.947,17.81,10.309,3.297,3.67,5.648,7.876,7.047,12.61,1.031,3.488,1.507,7.052,1.28,10.681-.156,2.492-.843,4.884-1.637,7.249-2.283,6.8-5.589,13.115-9.115,19.326-4.272,7.525-8.997,14.764-13.941,21.859-2.53,3.631-5.146,7.201-7.726,10.797-.115.16-.253.302-.422.502Z"/>
  <path class="cls-8" d="M605.596,742.371c-.17-.203-.305-.348-.422-.507-6.617-8.959-12.939-18.119-18.724-27.642-3.412-5.618-6.607-11.354-9.315-17.346-1.597-3.532-2.981-7.149-3.87-10.94-.725-3.094-.667-6.2-.236-9.318.504-3.647,1.611-7.109,3.296-10.377,1.848-3.583,4.278-6.725,7.279-9.427,3.669-3.304,7.863-5.676,12.589-7.092,5.308-1.59,10.699-1.821,16.107-.685,7.048,1.48,12.993,4.947,17.81,10.309,3.297,3.67,5.648,7.876,7.047,12.61,1.031,3.488,1.507,7.052,1.28,10.681-.156,2.492-.843,4.884-1.637,7.249-2.283,6.8-5.589,13.115-9.115,19.326-4.272,7.525-8.997,14.764-13.941,21.859-2.53,3.631-5.146,7.201-7.726,10.797-.115.16-.253.302-.422.502Z"/>
  <path class="cls-6" d="M702.843,742.371c-.17-.203-.305-.348-.422-.507-6.617-8.959-12.939-18.119-18.724-27.642-3.412-5.618-6.607-11.354-9.315-17.346-1.597-3.532-2.981-7.149-3.87-10.94-.725-3.094-.667-6.2-.236-9.318.504-3.647,1.611-7.109,3.296-10.377,1.848-3.583,4.278-6.725,7.279-9.427,3.669-3.304,7.863-5.676,12.589-7.092,5.308-1.59,10.699-1.821,16.107-.685,7.048,1.48,12.993,4.947,17.81,10.309,3.297,3.67,5.648,7.876,7.047,12.61,1.031,3.488,1.507,7.052,1.28,10.681-.156,2.492-.843,4.884-1.637,7.249-2.283,6.8-5.589,13.115-9.115,19.326-4.272,7.525-8.997,14.764-13.941,21.859-2.53,3.631-5.146,7.201-7.726,10.797-.115.16-.253.302-.422.502Z"/>
  <rect class="cls-1" x="205.549" y="332.277" width="60.864" height="151.703"/>
  <path class="cls-2" d="M235.991,182.861c.269.322.485.553.671.806,10.514,14.235,20.558,28.787,29.748,43.918,5.421,8.925,10.497,18.04,14.801,27.559,2.537,5.612,4.737,11.359,6.148,17.381,1.152,4.916,1.06,9.851.375,14.805-.801,5.794-2.56,11.295-5.237,16.487-2.935,5.693-6.797,10.685-11.564,14.978-5.83,5.249-12.492,9.018-20.002,11.268-8.433,2.527-16.998,2.893-25.592,1.088-11.198-2.352-20.644-7.859-28.297-16.379-5.238-5.83-8.974-12.513-11.197-20.035-1.638-5.542-2.395-11.205-2.033-16.97.248-3.959,1.339-7.76,2.601-11.518,3.628-10.804,8.879-20.837,14.482-30.706,6.788-11.956,14.294-23.457,22.15-34.73,4.02-5.768,8.176-11.441,12.275-17.155.182-.254.403-.48.671-.797Z"/>
  <path class="cls-5" d="M235.987,231.432c.17.203.305.348.422.507,6.617,8.959,12.939,18.119,18.724,27.642,3.412,5.618,6.607,11.354,9.315,17.346,1.597,3.532,2.981,7.149,3.87,10.94.725,3.094.667,6.2.236,9.318-.504,3.647-1.611,7.109-3.296,10.377-1.848,3.583-4.278,6.725-7.279,9.427-3.669,3.304-7.863,5.676-12.589,7.092-5.308,1.59-10.699,1.821-16.107.685-7.048-1.48-12.993-4.947-17.81-10.309-3.297-3.67-5.648-7.876-7.047-12.61-1.031-3.488-1.507-7.052-1.28-10.681.156-2.492.843-4.884,1.637-7.249,2.283-6.8,5.589-13.115,9.115-19.326,4.272-7.525,8.997-14.764,13.941-21.859,2.53-3.631,5.146-7.201,7.726-10.797.115-.16.253-.302.422-.502Z"/>
  <rect class="cls-8" x="40.751" y="497.574" width="736.152" height="84.74" transform="translate(-41.655 34.231) rotate(-4.562)"/>
  <rect class="cls-9" x="28.164" y="479.11" width="766.012" height="84.74" transform="translate(51.758 -36.933) rotate(5.488)"/>
  <rect class="cls-1" x="41.009" y="539.568" width="736.152" height="7.227" transform="translate(-41.911 34.262) rotate(-4.562)"/>
  <rect class="cls-7" x="55.737" y="754.333" width="713.764" height="13.679"/>
  <g class="cls-10">
    <g>
      <rect class="cls-7" x="190.12" y="362.869" width="98.12" height="9.222" transform="translate(-81.704 68.678) rotate(-13.982)"/>
      <rect class="cls-7" x="193.808" y="385.001" width="75.064" height="29.049" transform="translate(72.569 -33.984) rotate(9.957)"/>
      <rect class="cls-7" x="193.808" y="429.266" width="102.362" height="9.222"/>
    </g>
  </g>
  <g class="cls-11">
    <g>
      <rect class="cls-7" x="75.77" y="222.698" width="91.295" height="34.871" transform="translate(-67.46 48.479) rotate(-17.76)"/>
      <rect class="cls-7" x="86.476" y="290.017" width="70.445" height="23.977"/>
      <rect class="cls-7" x="67.109" y="347.192" width="104.516" height="6.158" transform="translate(126.898 -19.704) rotate(19.984)"/>
      <rect class="cls-7" x="75.77" y="398.834" width="95.856" height="30.432" transform="translate(-96.377 42.156) rotate(-13.982)"/>
    </g>
  </g>
  <rect class="cls-7" x="55.737" y="618.773" width="713.764" height="14.734"/>
</svg>