<?xml version="1.0" encoding="UTF-8"?>
<svg id="Layer_1" data-name="Layer 1" xmlns="http://www.w3.org/2000/svg" xmlns:xlink="http://www.w3.org/1999/xlink" version="1.1" viewBox="0 0 700.3 87.1">
  <defs>
    <style>
      .cls-1 {
        fill: #6cc8c1;
      }

      .cls-1, .cls-2, .cls-3, .cls-4, .cls-5, .cls-6, .cls-7 {
        stroke-width: 0px;
      }

      .cls-8 {
        clip-path: url(#clippath);
      }

      .cls-2 {
        fill: none;
      }

      .cls-3 {
        fill: #62cced;
      }

      .cls-4 {
        fill: #7ea9da;
      }

      .cls-5 {
        fill: #dc6a48;
      }

      .cls-6 {
        fill: #837ebb;
      }

      .cls-7 {
        fill: #e0c3c9;
      }
    </style>
    <clipPath id="clippath">
      <rect class="cls-2" x="59.9" width="584.7" height="69.5"/>
    </clipPath>
  </defs>
  <rect class="cls-7" width="700.3" height="87.1"/>
  <g class="cls-8">
    <g>
      <path class="cls-1" d="M764,49.4c8.5,8.7,17.1,17.2,25.8,25.8,1.1,1.1,2.5,2,3.8,3v5c-6.7-6.5-13.4-12.9-20-19.4-7-6.9-13.8-13.9-20.5-20.6-18.8,18.9-37.2,37.5-56.5,56.9,4.9,4.6,10.5,9.9,16,15.1h-5c-5.7-5.1-11.3-10.2-16.9-15.2,21.3-21.3,41.4-41.3,62.7-62.6.4.5.8,1,1.2,1.5,2.9,3.4,6,7.1,9.3,10.6h0Z"/>
      <path class="cls-1" d="M754.1,28.1l1.7,1.6c-.2.2-.3.4-.5.5-.8.8-1.6,1.7-2.4,2.5-20.7-20.8-40.6-40.8-60.2-60.4,19.7-19.6,39.8-39.6,60.4-60.1.7.7,1.4,1.4,2.1,2.1l-2,2c-19,19.1-37.4,37.5-55.5,55.8,17.9,17.8,36.4,36.1,56.3,56Z"/>
      <path class="cls-6" d="M760.5,19.8c-2.6,2.7-4.7,6-6.5,8.3-20-19.9-38.5-38.2-56.3-56,18.1-18.2,36.5-36.7,55.5-55.8,13.3,13.4,26.8,27.2,40.4,40.9V-12.8c-1.2.9-2.4,1.8-3.5,2.8-9.9,9.9-19.9,19.7-29.6,29.7h0ZM726.2-34.5c1.2,15.6,11.7,24.3,24,31.5,1.2.7,4.2,0,5.5-.9,5.8-4.7,11.9-9.2,16.6-14.9,6.1-7.4,8.1-16.3,4.5-25.8-1.9-5-5.1-8.8-10.6-9.4-5.2-.5-8.7,2.7-11.2,7-.7,1.2-1.6,2.3-2.7,3.9-1.8-2.6-3.2-4.7-4.8-6.5-5.1-5.9-11.5-5.9-16.7-.1-4,4.4-5,9.7-4.5,15.3Z"/>
      <path class="cls-6" d="M728.7,97.8c6.2,6,12,11.7,17.9,17.5h-34c-5.6-5.2-11.1-10.4-16-15.1,19.3-19.4,37.8-38,56.5-56.9,6.6,6.7,13.5,13.7,20.5,20.6,6.6,6.5,13.3,12.9,20,19.4v32h-36c6-5.8,12-11.6,18.1-17.6-9.9-4.8-17.4-13.2-23.8-24.1-5.7,11.3-14,19-23.3,24.2h0Z"/>
      <path class="cls-6" d="M712.9,35.9c3.9,4.7,2.2,13.2-2.2,16.8-5,4-11.5,3.1-16.5-2.1-1.1-1.1-2.3-2.2-3.4-3.2-.5.4-1,.9-1.4,1.3h-1.2c-.5-.5-.9-.9-1.3-1.2-1.2,1.1-2.4,2.2-3.5,3.3-4.9,5.2-10.5,6.1-15.6,2.5-5-3.6-7.2-11.9-3.2-16.9,7.4-9.3,15.7-17.9,24.2-27.4,8.5,9.4,16.7,17.9,24.2,27Z"/>
      <path class="cls-6" d="M689.4,48.6c2.4,3.8,4.9,7.6,7.6,11.9h-16.2c2.5-4.1,4.9-8.1,7.3-12h1.2Z"/>
      <path class="cls-4" d="M742.1,32.3c2.4,2.4,2.2,3.8,0,6.1-16.7,16.5-33.3,33.1-49.8,49.8-2.7,2.8-4.3,2.4-6.9-.1-16.3-16.5-32.6-32.8-49.1-49.1-2.7-2.7-3.1-4.2-.1-7.1,16.5-16.2,32.8-32.7,49.1-49,1-1,2.2-2,3.4-3.2,1.1.9,2,1.5,2.8,2.2,16.8,16.8,33.7,33.7,50.6,50.5h0ZM690.8,47.3c1.1,1.1,2.3,2.1,3.4,3.2,5,5.2,11.5,6.1,16.5,2.1,4.4-3.5,6.1-12,2.2-16.8-7.5-9-15.6-17.5-24.2-27-8.5,9.5-16.8,18.1-24.2,27.4-4,5-1.8,13.3,3.2,16.9,5,3.6,10.7,2.7,15.6-2.5,1.1-1.2,2.3-2.2,3.5-3.3.5.4.9.7,1.3,1.1-2.4,3.9-4.8,7.9-7.3,12h16.2c-2.7-4.3-5.2-8.1-7.6-11.9.5-.4,1-.9,1.4-1.3Z"/>
      <path class="cls-1" d="M742,38.3c2.3-2.3,2.5-3.7,0-6.1-16.9-16.8-33.7-33.6-50.6-50.5-.8-.8-1.7-1.4-2.8-2.2-1.3,1.2-2.4,2.1-3.4,3.2-16.4,16.4-32.6,32.8-49.1,49-3,2.9-2.6,4.5.1,7.1,16.5,16.3,32.8,32.6,49.1,49.1,2.5,2.6,4.2,2.9,6.9.1,16.5-16.7,33.1-33.3,49.8-49.8h0ZM688.9-23.9c19.4,19.5,39.4,39.4,59.4,59.5-19.7,19.6-39.7,39.5-59.5,59.2-19.7-19.8-39.6-39.8-59.2-59.6,19.5-19.5,39.6-39.5,59.3-59.1h0Z"/>
      <path class="cls-6" d="M611.6,115.2h-26c-4.3-4.6-8.5-9.2-13-13.6-2.2-2.2-2.7-3.6-.3-6.1,16.9-16.7,33.7-33.5,50.5-50.4,2.1-2.1,3.5-2.3,5.7,0,16.6,16.8,33.3,33.5,50.1,50.1,2.8,2.8,2.3,4.4-.2,6.8-4.4,4.2-8.5,8.8-12.7,13.2h-26c1.7-2,3.5-4,5.1-6.1,6.8-9,9.5-18.8,4.5-29.4-4.4-9.3-14.5-9.8-20.3-1.4-1,1.4-1.9,2.9-3.2,5-1.7-2.5-2.9-4.4-4.3-6.2-4.9-6.2-12.4-6.3-17.5-.2-3.9,4.6-4.6,10.1-4.2,15.9.6,9.3,6.1,15.9,11.9,22.4Z"/>
      <path class="cls-6" d="M600.5-27.9c11.2,5.9,19.4,14,25.2,25.3,5.8-11.5,13.9-19.3,25.2-25.3-11.5-5.8-19.3-14.1-25.3-25-6,11.1-14,19.1-25.1,25h0ZM678.8-31c2.4,2.4,2.1,3.9-.1,6.1-16.8,16.6-33.5,33.4-50.2,50.1-.8.8-1.7,1.5-2.8,2.4-1-.8-2-1.4-2.8-2.1-16.8-16.8-33.6-33.7-50.5-50.5-2.3-2.3-2.3-3.8,0-6.1,16.8-16.6,33.5-33.4,50.1-50.2,2.4-2.4,3.8-2.1,6,.1,16.7,16.8,33.4,33.5,50.2,50.1h0Z"/>
      <path class="cls-1" d="M628.9,78.4c5.8-8.4,15.9-7.8,20.3,1.4,5,10.6,2.3,20.4-4.5,29.4-1.6,2.1-3.4,4.1-5.1,6.1h-28c-5.8-6.5-11.3-13.1-11.9-22.4-.4-5.8.3-11.3,4.2-15.9,5-6,12.6-5.9,17.5.2,1.4,1.8,2.6,3.7,4.3,6.2,1.3-2,2.2-3.5,3.2-5Z"/>
      <path class="cls-6" d="M562,45.8c-.4-.2-.7-.4-1.1-.7-1,.8-1.9,1.6-2.9,2.4-4,3.5-9.6,4.2-14.4,1.8-5.1-2.5-7.9-7.2-7.2-12.5.7-5.6,3.5-9.7,9.2-11,2.8-.7,4-1.9,4.2-5,.6-7.4,5.9-11.9,12.9-11.8,7,.1,11.7,4.4,12.4,11.7.2,2.7.9,4.3,3.8,4.9,6,1.3,9,5.3,9.6,11.2.5,5.5-2.1,10-7.1,12.6-4.8,2.5-10.2,1.7-14.7-2.3-.7-.6-1.5-1.3-2.2-1.9-.5.3-1,.5-1.5.8l-1-.4Z"/>
      <path class="cls-1" d="M572.5-31c-2.3,2.3-2.4,3.8,0,6.1,16.9,16.8,33.7,33.6,50.5,50.5.8.8,1.8,1.4,2.8,2.1,1.1-.9,2-1.6,2.8-2.4,16.7-16.7,33.4-33.5,50.2-50.1,2.2-2.2,2.6-3.7.1-6.1-16.8-16.6-33.5-33.3-50.2-50.1-2.2-2.3-3.6-2.6-6-.1-16.6,16.8-33.3,33.5-50.1,50.2h0ZM625.3,31.3c-19.5-19.4-39.6-39.5-59.5-59.4,19.8-19.7,39.8-39.7,59.4-59.3,19.7,19.8,39.7,39.9,59.5,59.8-19.2,19.1-39.4,39.1-59.4,58.9Z"/>
      <path class="cls-1" d="M565.8,99.2c20.2-20.1,40.4-40.2,60.4-60.1,19.4,19.3,39.4,39.4,59.6,59.6-5,5.4-10.1,11-15.2,16.6h-5c4.2-4.4,8.3-9,12.7-13.2,2.6-2.5,3-4.1.2-6.8-16.8-16.6-33.5-33.3-50.1-50-2.2-2.2-3.6-2.1-5.7,0-16.8,16.9-33.6,33.7-50.5,50.4-2.5,2.4-2,3.9.3,6.1,4.5,4.4,8.7,9.1,13,13.6h-5c-5-5.5-10.1-10.9-14.8-16Z"/>
      <path class="cls-6" d="M555.4,60.6c2.2-4.9,4.4-9.9,6.6-14.8l1,.4c2.2,4.7,4.4,9.3,6.8,14.5h-14.3Z"/>
      <path class="cls-4" d="M565.8,88c-2.6,2.6-4.2,2.8-6.8,0-16.4-16.6-32.9-33-49.5-49.4-2.6-2.6-2.6-4.2,0-6.8,16.3-16.1,32.6-32.4,48.7-48.8,3.2-3.3,5.1-3.3,8.3,0,16.1,16.4,32.4,32.5,48.7,48.8,1,1,1.8,2.2,2.8,3.4-1,1.2-1.7,2.1-2.5,2.9-16.6,16.6-33.2,33.1-49.7,49.8ZM562,45.8c-2.2,5-4.4,9.9-6.6,14.8h14.3c-2.4-5.1-4.6-9.8-6.8-14.5.5-.3,1-.5,1.5-.8.8.6,1.5,1.2,2.2,1.9,4.6,4,9.9,4.8,14.7,2.3,5-2.6,7.6-7.1,7.1-12.6-.6-5.9-3.6-9.9-9.6-11.2-2.8-.6-3.5-2.2-3.8-4.9-.7-7.3-5.3-11.6-12.4-11.7-7.1-.1-12.3,4.4-12.9,11.8-.2,3.1-1.4,4.3-4.2,5-5.7,1.4-8.5,5.4-9.2,11-.7,5.3,2.2,10,7.2,12.5,4.8,2.3,10.4,1.6,14.4-1.8.9-.8,1.9-1.6,2.9-2.4.4.2.7.4,1.1.7Z"/>
      <path class="cls-1" d="M561.1-24.2c.2-.2.6-.3.3-.2,20.1,20.2,40.1,40.3,60,60.4-19.1,19.2-38.9,39.1-59.1,59.4-1-.8-2.2-1.7-3.2-2.7-18-18-36-36.1-54.1-54.1-2.1-2.1-3.5-3.7-.6-6.5,19-18.7,37.8-37.6,56.7-56.4ZM559,88.1c2.7,2.7,4.3,2.5,6.8,0,16.5-16.7,33.1-33.2,49.7-49.8.8-.8,1.5-1.7,2.5-2.9-1-1.2-1.8-2.4-2.8-3.4-16.2-16.2-32.6-32.4-48.7-48.8-3.2-3.3-5.1-3.3-8.3,0-16.1,16.4-32.3,32.6-48.6,48.8-2.7,2.6-2.7,4.2,0,6.8,16.6,16.4,33.1,32.8,49.5,49.4Z"/>
      <path class="cls-1" d="M538.6,115.2c5.6-5.2,11.2-10.4,16.2-15.1-19.5-19.5-37.9-38-56.8-56.8l-1.7-1.7c1-1,1.9-1.9,2.9-2.9,19.6,19.7,39.5,39.7,60,60.3-4.9,5.1-10.3,10.6-15.7,16.1h-5Z"/>
      <path class="cls-1" d="M499,73.4c6.1,11.1,13.9,19.3,23.7,24.3-6.1,6-12.1,11.8-18.1,17.6h-11c-5.9-5.7-11.8-11.4-18-17.5,9.3-5.3,17.7-13,23.4-24.4Z"/>
      <path class="cls-6" d="M473.6-30.3c2.4,10.2,9.1,17.2,17,23.3,8,6.1,8.8,6.1,16.8-.2,3.6-2.8,7.2-6,10.2-9.4,6.3-7.1,8.6-15.6,6.9-25-1.1-6.2-5.6-11.5-10.9-12.3-5.9-1-9.1,2.9-12,7.2-.7,1.1-1.5,2.1-2.2,3-.5-.2-.7-.2-.8-.2-1.1-1.5-2.1-3-3.1-4.4-5.6-7.9-14.5-7.6-19.4.8-3.2,5.4-3.9,11.2-2.5,17.3h0ZM498.7-83.3c18.6,18.6,37,37,55.2,55.3-18.2,18.1-36.7,36.4-55.4,55-.3-.3-1.3-.9-2.1-1.7-16.7-16.7-33.4-33.5-50.2-50.1-2-2-3.1-3.4-.5-6,17.3-17.1,34.4-34.3,51.6-51.5.4-.4,1-.7,1.4-.9h0Z"/>
      <path class="cls-1" d="M493.2,31.5c2.9,2.8,2.6,4.7,0,7.3-18.3,18.2-36.5,36.5-54.7,54.7-.7.7-1.5,1.2-2.7,2.1-3.5-3.4-7-6.6-10.4-10-15.6-15.7-31.2-31.4-46.9-47-2.2-2.2-3.2-3.8-.5-6.5,18.6-18.4,37-36.9,55.5-55.4.6-.6,1.3-1,3.6-2.9,7.4,7.9,14.5,15.8,21.9,23.4,11.3,11.5,22.7,22.9,34.2,34.2ZM432.2,88c2.8,2.8,4.5,2.7,7.3,0,16.1-16.4,32.4-32.6,48.8-48.8,3-2.9,3.1-4.7,0-7.7-16.6-16.4-33-32.9-49.5-49.4-.8-.8-1.8-1.4-3-2.4-1.2,1-2.5,1.8-3.5,2.9-16.4,16.3-32.8,32.8-49.2,49-2.7,2.7-3,4.5,0,7.3,16.5,16.3,32.9,32.6,49.1,49.1Z"/>
      <path class="cls-6" d="M498.1,43.4c18.8,18.8,37.3,37.3,56.8,56.8-5.1,4.7-10.7,9.9-16.2,15.1h-34c6-5.8,11.9-11.6,18.1-17.6-9.8-5-17.5-13.2-23.7-24.3-5.7,11.4-14.1,19.1-23.4,24.4,6.2,6,12.1,11.8,18,17.5h-35c-4-4.4-7.7-9-12.1-13-3.2-3-2.7-4.8.1-7.5,9.9-9.6,19.6-19.4,29.3-29.2,7.5-7.5,15-15,22.1-22.1h0Z"/>
      <path class="cls-1" d="M446.5,102.3c4.3,4,8.1,8.6,12.1,13h-4c-5.7-5.1-11.4-10.2-16.8-15,20.5-20.4,39.6-39.6,58.6-58.5l1.7,1.7c-7.1,7.1-14.6,14.6-22.1,22.1-9.8,9.8-19.4,19.6-29.3,29.2-2.9,2.8-3.4,4.6-.1,7.5h0Z"/>
      <path class="cls-1" d="M496.4,25.3c.8.8,1.8,1.4,2.1,1.7,18.7-18.6,37.2-37,55.4-55-18.2-18.3-36.7-36.7-55.2-55.3-.3.2-.9.5-1.4.9-17.2,17.2-34.4,34.4-51.6,51.5-2.6,2.6-1.6,4,.5,6,16.8,16.7,33.5,33.4,50.2,50.1h0ZM500.1-87.8c.5.4,1.8,1.5,3.1,2.8,17.8,17.8,35.5,35.5,53.3,53.3,2,2,3.8,3.5.8,6.5-18.9,18.7-37.7,37.6-56.5,56.4-.5.5-1.1.8-1.5,1-20-20.2-39.9-40.2-59.4-59.8,19.6-19.6,39.7-39.7,60.1-60.1h0Z"/>
      <path class="cls-6" d="M436.5,48.3c2.3,3.9,4.7,7.9,7.3,12.3h-16.1c2.6-4.3,5.1-8.3,7.6-12.3,0,0,1.2,0,1.2,0Z"/>
      <path class="cls-4" d="M443.8,60.5c-2.6-4.4-4.9-8.3-7.3-12.3.6-.4,1.3-.8,2-1.1.6.8,1.1,1.6,1.8,2.3,5.5,6.2,12.5,7.4,17.5,3,5.4-4.8,5.6-13.5.4-19.3-6.4-7-13-13.9-19.2-21-2.4-2.7-4-2.6-6.3,0-5.7,6.5-11.8,12.7-17.6,19.1-1.8,2-3.3,4.2-4.4,6.6-2.5,5.4-.4,12.4,4.4,15.5,4.7,3.1,10.5,2.2,14.8-2.5,1.3-1.4,2-3.2,3-4.9.8.7,1.6,1.4,2.4,2-2.5,4-5,8.1-7.6,12.3h16.2ZM488.3,31.4c3,3,2.9,4.8,0,7.7-16.4,16.1-32.6,32.4-48.8,48.7-2.8,2.8-4.5,2.9-7.3,0-16.3-16.5-32.6-32.9-49.1-49.1-2.9-2.8-2.6-4.7,0-7.3,16.5-16.3,32.8-32.7,49.2-49,1-1,2.2-1.9,3.5-2.9,1.2,1,2.2,1.6,3,2.4,16.5,16.5,32.9,33,49.5,49.4Z"/>
      <path class="cls-6" d="M432.6,12.3c2.3-2.6,3.9-2.8,6.3,0,6.3,7.1,12.9,14,19.2,21,5.2,5.8,5,14.5-.4,19.3-5,4.4-11.9,3.2-17.5-3-.7-.7-1.2-1.6-1.8-2.3-.7.4-1.3.7-2,1.1h-1.2c-.8-.8-1.6-1.4-2.4-2.1-1,1.6-1.8,3.5-3,4.9-4.4,4.7-10.1,5.6-14.8,2.5-4.8-3.1-6.9-10.1-4.4-15.5,1.1-2.4,2.6-4.7,4.4-6.6,5.8-6.4,11.8-12.6,17.6-19.1h0Z"/>
      <path class="cls-6" d="M373.1-3.5c5.5-10.8,13.6-18.6,24.7-24.5-11.4-5.8-19.2-13.9-25.3-25.1-5.9,11.5-14.1,19.3-24.2,24.8,4.9,3.9,9.6,7,13.6,11,4,3.9,7.1,8.7,11.2,13.8ZM425.6-31.1c2.6,2.5,2.4,4,0,6.5-16.7,16.5-33.3,33.1-49.8,49.8-2.5,2.6-4,2.3-6.4-.1-16.5-16.7-33.1-33.2-49.7-49.8-1.5-1.5-3.4-2.9-.9-5.3,17.8-17.8,35.4-35.6,54-54.2,7.9,8,15.2,15.5,22.5,22.9,10.1,10.2,20.1,20.3,30.4,30.3h0Z"/>
      <path class="cls-1" d="M394.9,77.6c6.2,9,4.6,22.3-4,32.8-1.4,1.7-2.9,3.2-4.3,4.8h-28c-7.4-7.7-13.1-16.1-11.8-27.4.4-3.2,1.4-6.5,3.1-9.3,4.7-7.9,13.2-8.2,18.8-.9,1.3,1.7,2.4,3.4,3.9,5.6,1.9-2.5,3.2-4.8,5-6.7,5.1-5.9,13-5.3,17.4,1.1h0Z"/>
      <path class="cls-1" d="M376.2,45.8c-2.8-2.8-4.4-2.8-7.2,0-16.3,16.6-32.8,33-49.4,49.4-2.5,2.5-2.6,4,0,6.5,4.5,4.4,8.7,9.1,13,13.6h-5c-4.4-4.7-8.8-9.4-13.4-14-2-2-2-3.4,0-5.3,18.9-18.8,37.7-37.7,56.6-56.5.4-.4,1.1-.7,1.2-.8,18.4,18.4,36.5,36.6,55,55.1l-1.5,1.5c-16.5-16.4-33-32.8-49.3-49.4h0Z"/>
      <path class="cls-6" d="M390.9,110.4c8.6-10.4,10.2-23.8,4-32.8-4.4-6.4-12.3-6.9-17.4-1.1-1.7,1.9-3.1,4.2-5,6.7-1.5-2.2-2.6-3.9-3.9-5.6-5.6-7.3-14-7-18.8.9-1.6,2.7-2.7,6.1-3.1,9.3-1.3,11.3,4.4,19.8,11.8,27.4h-26c-4.3-4.6-8.5-9.2-13-13.6-2.5-2.4-2.4-4,0-6.5,16.6-16.4,33-32.8,49.4-49.4,2.8-2.8,4.4-2.8,7.2,0,16.3,16.6,32.8,33.1,49.3,49.4,2.5,2.4,2.7,3.9,0,6.4-4.5,4.3-8.7,9.1-13,13.6h-26c1.4-1.6,2.9-3.2,4.3-4.8h0Z"/>
      <path class="cls-1" d="M305.5-22c2.9-2.9,4.6-3,7.5,0,17.6,17.9,35.5,35.6,53.2,53.4,2,2,4.3,3.6,1,6.8-18.7,18.5-37.3,37.1-55.9,55.7-.6.6-1.3,1-2.4,1.8-6.7-6.6-13.3-13.1-19.9-19.6-12.2-12.2-24.3-24.6-36.7-36.7-3.4-3.3-3.1-5.2.1-8.4,17.8-17.5,35.4-35.2,52.9-52.9ZM305.2,87.3c3.1,3.2,5.1,3.6,8.4.2,16.1-16.4,32.4-32.7,48.7-48.8,2.7-2.6,2.6-4.3,0-6.9-16.6-16.4-33-33-49.5-49.4-.9-.9-2-1.7-3.3-2.7-1.2,1-2.4,1.9-3.5,2.9-16.3,16.2-32.5,32.5-48.9,48.7-3.1,3.1-3.1,5,0,8.1,16.2,15.9,32.2,31.9,48,48.1Z"/>
      <path class="cls-1" d="M376.2,29.4c-2,2-3.5,3.7-6.4.8-18.4-18.6-36.9-37-55.4-55.6-.7-.7-1.2-1.5-1.9-2.3,20.3-20.3,40.2-40.3,60-60,19.8,19.8,39.7,39.8,60.1,60.2-.8.9-1.9,2.3-3.1,3.5-17.8,17.8-35.6,35.6-53.3,53.4h0ZM395.2-61.4c-7.4-7.4-14.6-14.9-22.5-22.9-18.5,18.6-36.2,36.5-54,54.2-2.4,2.4-.6,3.8.9,5.3,16.6,16.6,33.2,33.2,49.7,49.8,2.4,2.4,3.9,2.7,6.4.1,16.5-16.7,33.1-33.3,49.8-49.8,2.4-2.4,2.6-4,0-6.5-10.2-10-20.3-20.2-30.4-30.3h0Z"/>
      <path class="cls-6" d="M316.5,60.6h-14.1c2.2-5.1,4.2-9.8,6.3-14.4l1.6.4c2,4.5,4,9.1,6.2,14h0Z"/>
      <path class="cls-6" d="M307.4,45.2c-3.9,4.2-8.4,6.5-14.1,5.2-5.7-1.3-9.7-6-9.9-11.6-.2-6.6,2.7-11,8.7-12.9,2.1-.7,4.3-.8,4.5-4.2.5-7.8,5.6-12.6,12.6-12.6,7.1,0,12.3,4.6,13.1,12.3.3,2.7,1.2,3.8,3.6,4.4,5.7,1.3,8.9,5.2,9.5,10.8.6,5.4-1.4,9.8-6.3,12.6-5,2.8-10.8,2.2-15.4-1.5-.7-.6-1.5-1.2-2.2-1.8-.5.2-1,.5-1.4.7l-1.6-.4c-.4-.3-.8-.6-1.2-.9h0Z"/>
      <path class="cls-4" d="M313.6,87.5c-3.3,3.4-5.3,3-8.4-.2-15.9-16.2-31.9-32.2-48-48.1-3.1-3.1-3.2-5,0-8.1,16.4-16.1,32.6-32.4,48.9-48.7,1-1,2.2-1.9,3.5-2.9,1.3,1.1,2.4,1.8,3.3,2.7,16.5,16.5,33,33,49.5,49.4,2.6,2.6,2.7,4.3,0,6.9-16.4,16.2-32.6,32.4-48.7,48.8ZM283.4,38.9c.2,5.7,4.1,10.3,9.9,11.6,5.7,1.3,10.2-1.1,14.1-5.2.4.3.8.6,1.2.9-2,4.7-4.1,9.4-6.3,14.4h14.1c-2.2-4.9-4.2-9.5-6.2-14,.5-.2,1-.5,1.4-.7.7.6,1.4,1.2,2.2,1.8,4.5,3.7,10.3,4.3,15.4,1.5,4.9-2.7,6.9-7.2,6.3-12.6-.6-5.6-3.8-9.5-9.5-10.8-2.5-.6-3.4-1.7-3.6-4.4-.8-7.7-6-12.4-13.1-12.3-7,0-12.2,4.9-12.6,12.6-.2,3.4-2.4,3.5-4.5,4.2-6,2-8.9,6.3-8.7,12.9Z"/>
      <path class="cls-6" d="M220.8-42.3c-1.5,8.2-.8,16.3,4.7,22.7,4.9,5.7,11.1,10.4,16.7,15.4,2.5,2.2,5.2,2.2,7.7.1,5.3-4.5,11.2-8.5,15.6-13.8,6.5-7.8,8.9-17.1,5.1-27.1-1.8-4.7-4.9-8.5-10.3-9.1-5.3-.6-8.7,2.5-11.4,6.7-.8,1.2-1.6,2.4-2.8,4.3-1.3-1.9-2-3-2.8-4.1-2.8-4.1-6.1-7.7-11.7-6.9-5,.7-9.8,5.8-10.9,11.8h0ZM299.1-31.3c2.1,2.1,3,3.6.4,6.1-17.2,17-34.2,34.1-51.3,51.2-.6.6-1.3,1-1.7,1.3-18.6-18.6-36.9-37.1-55.1-55.3,18.2-18.4,36.5-36.7,56.3-56.7,1,1.7,1.8,3.9,3.3,5.4,15.9,16.1,32,32.1,48,48Z"/>
      <path class="cls-1" d="M246,73.4c6.1,11,13.9,19.3,23.7,24.3-6.1,6-12.1,11.8-18.1,17.6h-11c-5.9-5.7-11.7-11.5-17.9-17.5,9.2-5.1,17.5-12.7,23.3-24.3h0Z"/>
      <path class="cls-1" d="M246.2-87.1c19.3,19.4,39.3,39.5,59.1,59.4-19.5,19.3-39.6,39.3-59.7,59.3-19.6-19.6-39.6-39.5-59.2-59.2,19.9-19.8,40.1-39.8,59.8-59.4ZM299.5-25.2c2.5-2.5,1.7-4-.4-6.1-16.1-16-32.1-32-48-48-1.5-1.5-2.3-3.7-3.3-5.4-19.8,19.9-38.1,38.3-56.3,56.7,18.1,18.2,36.5,36.7,55.1,55.3.4-.3,1.2-.7,1.7-1.3,17.1-17.1,34.1-34.2,51.3-51.2h0Z"/>
      <path class="cls-6" d="M299.6,95.8c2.3,2.2,1.9,3.7-.2,5.7-4.7,4.5-9.2,9.2-13.8,13.7h-34c6-5.8,11.9-11.6,18.1-17.6-9.8-5-17.6-13.2-23.7-24.3-5.8,11.6-14.1,19.2-23.3,24.3,6.2,6.1,12.1,11.8,17.9,17.5h-34c-5.6-5.2-11.2-10.3-16.6-15.4,1-1.8,1.2-2.5,1.7-2.9,17.4-17.4,34.8-34.8,52.1-52.3,1.9-1.9,3.2-1.4,4.9.3,16.9,17,33.8,33.9,50.8,50.8h0Z"/>
      <path class="cls-1" d="M299.4,101.5c2.1-2,2.5-3.4.2-5.7-17-16.9-33.9-33.8-50.8-50.8-1.7-1.8-3.1-2.2-4.9-.3-17.4,17.4-34.7,34.8-52.1,52.3-.4.4-.7,1.1-1.7,2.9,5.4,5,11,10.2,16.6,15.4h-5c-5.7-5.1-11.4-10.2-16.8-15.1,21.4-21.3,41.5-41.4,61.3-61.1,19.7,19.6,39.8,39.6,60.2,59.9-5,5.2-10.3,10.7-15.6,16.2h-5c4.6-4.6,9.1-9.3,13.8-13.7h0Z"/>
      <path class="cls-6" d="M182.2,48.4h1.3c2.4,3.9,4.9,7.9,7.5,12.2h-16.1c2.5-4.1,4.9-8.2,7.3-12.2h0Z"/>
      <path class="cls-6" d="M180.8,47.3c-1.1,1-2.2,2-3.2,3-5.3,5.7-11.1,6.6-16.3,2.5-5-4-6.5-12.3-2.1-17.5,7.3-8.8,15.3-17.1,23.6-26.3,8.5,9.4,16.6,17.8,24.1,26.7,3.9,4.6,2.4,13.3-2,16.9-4.9,4.1-11.6,3.4-16.5-1.9-1.1-1.2-1.6-2.9-2.4-4.4-.9.7-1.7,1.4-2.6,2.1h-1.3c-.5-.3-.9-.7-1.4-1h0Z"/>
      <path class="cls-4" d="M185.9,88.4c-2.3,2.3-3.8,2.4-6.1,0-16.8-16.9-33.6-33.7-50.5-50.4-2.3-2.3-1.8-3.7.2-5.7C146.2,15.7,162.8-.9,179.4-17.4c1-1,2.2-1.9,3.5-2.9,1.3,1.1,2.3,1.9,3.2,2.8,16.6,16.6,33.1,33.2,49.8,49.7,2.2,2.2,2.6,3.7.2,6.1-16.8,16.6-33.5,33.3-50.2,50.1h0ZM182.2,48.4c-2.4,4-4.9,8.1-7.3,12.2h16.1c-2.7-4.3-5.1-8.3-7.5-12.2.9-.7,1.7-1.4,2.6-2.1.8,1.5,1.3,3.2,2.4,4.4,4.9,5.3,11.5,6,16.5,1.9,4.4-3.6,5.8-12.3,2-16.9-7.5-8.9-15.5-17.3-24.1-26.7-8.4,9.2-16.3,17.5-23.6,26.3-4.3,5.2-2.9,13.5,2.1,17.5,5.2,4.1,11,3.2,16.3-2.5,1-1.1,2.1-2,3.2-3,.4.4.9.7,1.4,1.1Z"/>
      <path class="cls-1" d="M179.9,88.4c2.3,2.3,3.8,2.2,6.1,0,16.6-16.8,33.3-33.5,50.2-50.1,2.4-2.4,2.1-3.9-.2-6.1-16.6-16.5-33.2-33.2-49.8-49.7-.9-.9-2-1.7-3.2-2.8-1.3,1.1-2.5,1.9-3.5,2.9-16.6,16.6-33.2,33.2-49.8,49.7-2.1,2-2.5,3.5-.2,5.7,16.9,16.7,33.8,33.5,50.5,50.4h0ZM123.1,34.8c19.7-19.7,39.6-39.6,59.8-59.8,1.2,1,2.6,2.1,3.9,3.4,17.7,17.6,35.3,35.4,53.1,53,2.8,2.7,3.4,4.5.2,7.6-18.1,17.8-35.9,35.8-53.8,53.7-1,1-2.2,1.9-3.1,2.7-20.1-20.2-40.1-40.2-60.2-60.4h0Z"/>
      <path class="cls-6" d="M172.6,95.2c2.8,2.7,2.4,4.4-.2,6.8-4.4,4.2-8.5,8.8-12.7,13.2h-26c1.5-1.8,3-3.5,4.5-5.3,6.3-7.6,8.9-16.2,6.8-26-1.3-5.8-5.8-10.7-10.6-11.3-6-.8-9.6,2.6-12.3,7.4-.6.9-1.3,1.8-2.4,3.2-1.3-2-2.3-3.7-3.5-5.2-5.3-7.2-13.9-7.7-18.5,0-2.6,4.3-3.5,10.3-3.6,15.5,0,9.1,6,15.5,11.6,21.9h-26c-4.1-4.3-8.1-8.8-12.4-12.9-2.9-2.7-3.3-4.5-.2-7.6,16.6-16.3,33-32.8,49.4-49.3,2.5-2.5,3.9-2.5,6.4,0,16.5,16.7,33.1,33.2,49.7,49.7h0Z"/>
      <path class="cls-6" d="M94.5-27.8c11.3,5.7,19,13.9,25.1,24.9,6-11.1,13.8-19.2,25.4-25-11.8-5.9-19.4-14.3-25.6-25.1-5.8,11.5-14.1,19.1-24.9,25.2ZM172.9-30.8c.8.8,1.4,1.8,2.2,2.8-.8,1-1.4,2-2.2,2.8-16.9,17-33.9,33.9-50.8,50.9-1.8,1.8-3.1,2-5,.1-17-17.1-34.1-34.2-51.2-51.2-2.1-2.1-1.6-3.5.2-5.4,17-16.9,33.9-33.8,50.8-50.9,2.1-2.1,3.4-1.6,5.3.2,16.8,16.9,33.7,33.7,50.5,50.5Z"/>
      <path class="cls-1" d="M97.6,77.9c4.6-7.6,13.2-7.1,18.5,0,1.1,1.6,2.1,3.2,3.5,5.2,1.1-1.4,1.8-2.2,2.4-3.2,2.8-4.8,6.3-8.2,12.3-7.4,4.8.6,9.3,5.5,10.6,11.3,2.2,9.8-.4,18.4-6.8,26-1.5,1.8-3,3.5-4.5,5.3h-28c-5.6-6.4-11.7-12.8-11.6-21.9,0-5.2,1-11.1,3.6-15.5Z"/>
      <path class="cls-1" d="M172.3,102c2.6-2.5,3-4.1.2-6.8-16.7-16.5-33.2-33-49.7-49.7-2.5-2.5-3.9-2.5-6.4,0-16.4,16.5-32.8,33-49.4,49.3-3.1,3-2.7,4.8.2,7.6,4.3,4.1,8.3,8.6,12.4,12.9h-5c-5.1-5.6-10.3-11.1-15.2-16.5,20.3-20.2,40.3-40.3,60-60,19.9,19.8,39.9,39.8,60.2,60-4.8,5.3-9.9,10.8-15.1,16.4h-5c4.2-4.4,8.3-9,12.7-13.2h0Z"/>
      <path class="cls-1" d="M175.1-28c-.8-1-1.4-2-2.2-2.8-16.8-16.9-33.7-33.7-50.5-50.5-1.9-1.9-3.2-2.4-5.3-.2-16.9,17-33.8,34-50.8,50.9-1.9,1.9-2.3,3.3-.2,5.4,17.1,17,34.2,34.1,51.2,51.2,1.9,1.9,3.2,1.7,5-.1,16.9-17,33.8-33.9,50.8-50.9.8-.8,1.4-1.8,2.2-2.8ZM119.4-87.4c19.6,19.7,39.6,39.9,59.3,59.8-19.3,19.1-39.5,39-59.4,58.7C100.2,11.9,80.3-8.2,60.2-28.4c19.5-19.4,39.4-39.4,59.1-59Z"/>
      <path class="cls-6" d="M49.3,60.8c2.2-5,4.4-9.9,6.7-14.9h1c2.2,4.9,4.4,9.7,6.7,14.9h-14.4Z"/>
      <path class="cls-6" d="M69.1,20.9c.2,2.8,1.1,4.1,3.8,4.9,6.2,1.8,9.1,5.5,9.6,11.3.4,5.3-2.3,10.1-7.3,12.5-4.9,2.4-10,1.5-14.7-2.5-.7-.6-1.5-1.2-2.3-1.8-.4.2-.8.5-1.2.7h-1c-.4-.4-.8-.7-1.2-.9-1,.9-2,1.8-3.1,2.7-4,3.3-9.7,3.9-14.5,1.5-4.7-2.4-7.4-7.2-6.9-12.3.5-5.5,3.8-9.6,9.2-11.1,2.8-.8,4-1.9,4.2-5,.6-7.4,5.9-11.8,13-11.7,7,.1,11.8,4.5,12.4,11.8Z"/>
      <path class="cls-1" d="M116.4,34.8c-20.2,20.1-40.1,40.1-60.2,60.1C36.4,75.2,16.5,55.4-3.7,35.3c.5-.8.8-1.7,1.5-2.3C16.3,14.5,34.8-4,53.3-22.5c2.1-2.1,3.7-2.7,6.1-.2,18.3,18.5,36.7,36.8,55,55.2.8.8,1.4,1.8,2,2.4ZM59.7,88.2c16.6-16.8,33.3-33.5,50.1-50.1,2.2-2.2,2.1-3.5,0-5.7C92.8,15.7,76-1.2,59.2-18c-.8-.8-1.7-1.5-2.8-2.4-1.3,1.1-2.5,2-3.5,3C36.4-1,20,15.5,3.4,32c-2.4,2.4-2.7,4-.1,6.5,16.7,16.5,33.3,33.1,49.8,49.8,2.4,2.4,4,2.5,6.5,0Z"/>
      <path class="cls-4" d="M109.7,32.4c2.1,2.1,2.3,3.5,0,5.7-16.8,16.6-33.5,33.3-50.1,50.1-2.5,2.5-4.1,2.4-6.5,0C36.6,71.5,20,54.9,3.3,38.4c-2.5-2.5-2.3-4,.1-6.5C20,15.5,36.4-1,52.9-17.5c1-1,2.2-1.9,3.5-3,1.1,1,2,1.6,2.8,2.4C76-1.2,92.8,15.7,109.7,32.4ZM60.5,47.1c4.7,4.1,9.8,5,14.7,2.5,5-2.5,7.7-7.2,7.3-12.5-.4-5.8-3.4-9.5-9.6-11.3-2.7-.8-3.6-2.1-3.8-4.9-.6-7.3-5.4-11.7-12.4-11.8-7.1-.1-12.5,4.3-13,11.7-.2,3.2-1.4,4.3-4.2,5-5.4,1.4-8.7,5.6-9.2,11.1-.5,5.1,2.2,9.9,6.9,12.3,4.8,2.5,10.5,1.9,14.5-1.5,1-.9,2.1-1.8,3.1-2.7.4.2.8.5,1.2.8-2.2,4.9-4.4,9.9-6.7,14.9h14.4c-2.3-5.2-4.5-10-6.7-14.8.4-.2.8-.5,1.2-.7.8.6,1.5,1.1,2.3,1.8Z"/>
      <path class="cls-1" d="M53.1,99.3c-4.7,4.9-10.1,10.4-15.5,15.9h-5c5.6-5.2,11.2-10.4,16.5-15.3C29.7,80.6,11.2,62.3-7.6,43.5c-7.9,7.5-16.3,15.6-24.8,23.7v-5c6.1-5.8,12.3-11.6,18.2-17.6,1.4-1.4,2.6-3,3.6-4.6.6-.9,1.3-1.8,1.9-2.7,21.2,21.3,41.2,41.3,61.7,61.9Z"/>
      <path class="cls-6" d="M49.1,99.9c-5.3,4.9-10.9,10.1-16.5,15.3H-1.4c6-5.8,11.9-11.6,18.1-17.5-9.9-4.9-17.4-13.3-23.7-23.9-6.1,11-13.8,19-23.5,23.8h-1.8v-30.4c8.4-8.1,16.9-16.2,24.8-23.7,18.8,18.7,37.3,37.1,56.7,56.4Z"/>
      <path class="cls-1" d="M-8.5-89.2c21.3,21.3,41.4,41.4,61.2,61.3C33-8.3,12.9,11.6-7.5,31.9c-.9-.8-1.7-1.6-2.6-2.5l1.4-1.5C11,8.3,29.5-10.2,47.5-28.2,29.5-46.2,11.1-64.6-8-83.7c-7.9,8.1-16.2,16.5-24.4,24.9v-5c8.1-8.6,16.1-17.2,23.9-25.4Z"/>
      <path class="cls-1" d="M-30.5,97.7c9.7-4.9,17.5-12.8,23.5-23.8,6.3,10.5,13.8,18.9,23.7,23.9-6.1,5.9-12.1,11.8-18,17.5h-11c-6-5.8-12-11.6-18.2-17.6Z"/>
      <path class="cls-6" d="M-32.4-28.8c3.1,8.4,8.5,15,15.4,20.5C-7.6-.9-6.6-.8,2.7-8c3.3-2.5,6.3-5.5,9-8.6,6.1-7,8.4-15.3,7-24.6-1-6.1-5.4-11.7-10.6-12.7-6.1-1.2-9.5,2.7-12.5,7.2-.7,1-1.5,2-2.5,3.5-1.8-2.5-3.1-4.8-4.8-6.8-4.7-5.5-11.9-5.5-16.4,0-1.8,2.1-2.8,4.8-4.2,7.3v-16c8.2-8.4,16.5-16.8,24.4-24.9C11.1-64.6,29.5-46.2,47.5-28.2,29.5-10.2,11,8.3-8.7,28c-.9-1.4-1.9-3.4-3.4-4.9-6.7-6.7-13.6-13.2-20.3-19.8v-32Z"/>
      <path class="cls-3" d="M52.9-160.3c2.9,2.9,4.7,2.3,7.3-.3,11.4-11.6,23-23.2,34.6-34.7,7.3-7.3,14.7-14.5,22.1-21.8-.7-1.2-.9-1.7-1.2-2.1-18.8-18.9-37.7-37.7-56.4-56.6-2.5-2.5-4.2-1.7-6.2.4-18.2,18.3-36.4,36.5-54.7,54.7-2.1,2.1-2.3,3.6-.1,5.8,18.3,18.2,36.6,36.4,54.8,54.7h0ZM116.1-96.8c2.6,2.7,4.3,2.4,6.9-.2,16-16.2,32.1-32.4,48.4-48.5,2.9-2.9,6.3-5.3,9.2-7.6-21.2-21.3-41.2-41.3-60.9-61.1-20,20-40,40-60.2,60.2.3.3.7,1,1.3,1.6,18.5,18.5,37,36.9,55.4,55.5ZM622.3-96.7c2.8,2.8,4.5,2.1,6.9-.3,14.2-14.3,28.4-28.6,42.7-42.8,4.8-4.8,9.5-9.6,13.8-13.9-20.4-20.5-40.3-40.5-59.7-59.9-19.9,19.8-40,39.9-60.3,60.1.2.2.6,1,1.2,1.5,18.5,18.5,37,36.9,55.4,55.5h0ZM241.1-468.1c2.7-2.7,1.1-4.2-.8-6.1-18.1-18-36.1-36-54-54.1-2.6-2.6-4.2-2.7-6.8,0-17.9,18.1-36,36.1-54,54.1-1,1-1.9,2.2-2.6,3,20.2,20.2,40.1,40.2,60.2,60.4.4-.2.8-.4,1-.6,19-18.9,38-37.9,57-56.8h0ZM240.1,38.9c3.1-3.1,2.5-4.8-.2-7.6-17.8-17.6-35.4-35.3-53.1-53-1.2-1.2-2.6-2.3-3.9-3.4-20.3,20.3-40.2,40.2-59.8,59.8,20.1,20.2,40,40.2,60.2,60.4.9-.8,2-1.7,3.1-2.7,17.9-17.9,35.7-35.9,53.8-53.7ZM242.2-97.3c3.1,3.1,4.9,3.1,7.9,0,15.1-15.4,30.5-30.7,45.9-45.9,3.6-3.6,7.7-6.7,11-9.6-21.3-21.4-41.3-41.5-61.4-61.8-.4.4-1.1.8-1.7,1.4-18.6,18.6-37.2,37.2-55.9,55.7-2.8,2.8-1.6,4.3.6,6.4,17.9,17.8,35.9,35.7,53.6,53.7h0ZM686-159.8c2.5,2.5,4.2,1.8,6.2-.3,18.2-18.3,36.4-36.6,54.7-54.8,2.3-2.3,2.1-4-.2-6.2-18.2-18.1-36.3-36.2-54.3-54.4-2.6-2.6-4.4-2.5-6.9.1-7.7,8-15.7,15.9-23.6,23.7-11.1,11-22.2,22-33.4,33.2.6,1.1.8,1.6,1.1,2,18.8,18.9,37.7,37.7,56.5,56.6h0ZM310.8-151.7c-21,20.9-41.1,40.8-61.1,60.6,19.8,19.8,39.7,39.7,59.9,59.8.7-.6,1.7-1.2,2.5-2,18.4-18.3,36.7-36.8,55.1-55,2.6-2.6,2.1-4.2-.2-6.5-11.5-11.3-22.9-22.7-34.2-34.2-7.6-7.7-14.9-15.5-21.9-22.7ZM306.1-160.3c2.6,2.6,4.1,2.7,6.8,0,17.9-18.1,35.9-36.1,54-54,2.5-2.5,2.9-4.2.2-6.9-18.3-18.1-36.5-36.4-54.8-54.6-.8-.8-1.8-1.4-2.9-2.3-1.2.9-2.3,1.6-3.2,2.5-18,18-36,36-54.1,54-2.6,2.6-3.1,4.4-.2,7.3,18.1,17.9,36.1,35.9,54.1,54h0ZM303.2-416.1c2,2,4,3.8,6.2,5.8,1.4-1.2,2.4-2.1,3.3-3,17.8-17.8,35.5-35.7,53.4-53.3,3.3-3.2,3.4-5,.1-8.3-12.3-12-24.4-24.1-36.4-36.4-6.6-6.7-13-13.8-19.4-20.7-.4.3-.8.7-1.2,1-.7.5-1.4.8-2,1.4-18.5,18.4-36.9,37-55.5,55.3-3.1,3.1-1.8,4.9.6,7.3,17,16.9,33.9,33.9,50.9,50.8h0ZM276.9-315.8c10.5,10.6,21,21.3,32.1,32.5,2.1-2,3.6-3.3,5-4.7,17.4-17.4,34.7-35,52.3-52.2,3.2-3.1,3.3-4.8.2-7.9-15.7-15.4-31.1-31.1-46.7-46.6-3.4-3.4-6.8-6.6-10.2-10-1,.8-1.6,1.2-2.1,1.7-18.6,18.6-37.2,37.2-55.9,55.7-2.7,2.6-2,4.3.3,6.5,8.4,8.3,16.8,16.6,25.1,25h0ZM304.5-283.8c-18.1-18.1-36.4-36.2-54.4-54.4-3.1-3.2-4.9-3-8,.1-17.7,17.9-35.5,35.7-53.3,53.5-1,1-2,2.2-2.5,2.8,20.2,20.3,40.3,40.4,60.1,60.3,19.6-19.6,39.6-39.6,60-60-.6-.7-1.3-1.5-2-2.2h0ZM430.5-410.5c-18.4-18.3-36.8-36.7-55.1-55.1-2.2-2.2-3.6-2-5.7,0-18.3,18.4-36.7,36.8-55.1,55.1-2.4,2.4-2.2,3.9,0,6.1,5.4,5.2,10.6,10.5,15.9,15.8,13.7,13.8,27.4,27.6,41.4,41.7,1.3-.9,1.9-1.1,2.3-1.6,18.9-18.8,37.7-37.6,56.6-56.4,2.3-2.3,1.7-3.8-.3-5.7h0ZM369.6-96.5c2,2.1,3.5,2.4,5.8.2,18.4-18.5,36.9-37,55.4-55.5.8-.8,1.4-1.8,2.2-2.8-.8-1.1-1.4-2-2.2-2.8-18.3-18.4-36.7-36.7-55-55.1-2.5-2.6-4.1-2.2-6.5.2-18.1,18.3-36.4,36.5-54.7,54.7-2.3,2.3-2.4,3.8,0,6.1,18.4,18.3,36.8,36.7,55.1,55.1h0ZM433-280.8c-.8-1-1.4-2-2.1-2.8-2.5-2.6-5.2-5.2-7.8-7.8-15.6-15.7-31.3-31.3-46.9-47-2.4-2.4-4.1-3.2-6.9-.3-18,18.2-36.2,36.3-54.3,54.4-1.9,1.9-3.5,3.4-.7,6.1,18.7,18.5,37.2,37.1,55.8,55.8,2,2,3.4,1.9,5.3,0,18.4-18.5,36.9-37,55.4-55.5.8-.8,1.4-1.8,2.3-2.8ZM420.1-299.2c5.1,5.2,9.8,10.8,14.3,15.8,21.3-21.2,41.3-41.2,61.1-61-19.9-19.7-39.9-39.6-60.2-59.8-.2.2-1.1.6-1.8,1.3-18.6,18.6-37.2,37.2-55.9,55.7-2.7,2.7-1.1,4.2.8,6.1,13.9,13.9,27.9,27.7,41.6,41.7ZM559.1-413.3c1,1,2.2,1.9,3,2.5,20.2-20.3,40.1-40.3,60.3-60.5-.5-.5-1.2-1.5-2-2.3-18.3-18.4-36.8-36.7-55-55.2-2.8-2.8-4.3-1.7-6.5.5-18,18.1-36,36.1-54.1,54.1-2.7,2.7-2.5,4.3,0,6.9,18.1,17.9,36.1,36,54.1,54h0ZM559.1,92.8c1,1,2.2,1.8,3.2,2.7,20.2-20.3,40-40.2,59.1-59.4-20-20.1-39.9-40.2-60-60.4.3-.2,0,0-.3.2-18.9,18.8-37.7,37.7-56.7,56.4-2.8,2.8-1.5,4.3.6,6.5,18.1,18,36,36,54.1,54.1h0ZM558.9-160.3c2.9,2.9,4.6,2.4,7.2-.2,9.8-10,19.7-19.9,29.6-29.7,9-8.9,18.1-17.6,27.6-26.9-2.2-2.4-3.5-3.9-4.9-5.3-17.4-17.4-34.9-34.8-52.2-52.3-3.1-3.2-4.9-3.1-8,0-17.8,18-35.7,35.9-53.7,53.6-2.5,2.5-2.7,4-.2,6.4,18.2,18,36.4,36.1,54.4,54.4h0ZM557.3-25.3c3-3,1.1-4.5-.8-6.5-17.8-17.8-35.5-35.5-53.3-53.3-1.2-1.2-2.6-2.4-3.1-2.8-20.5,20.5-40.5,40.5-60.1,60.1,19.5,19.6,39.4,39.7,59.4,59.8.4-.3,1-.6,1.5-1,18.8-18.8,37.6-37.7,56.5-56.4h0ZM496-217.8c-.9-1.2-1.6-2.3-2.5-3.2-18.1-18.1-36.3-36.2-54.3-54.4-2.7-2.7-4.3-2.3-6.9.2-17.8,18-35.6,35.9-53.6,53.6-3,2.9-3,4.7,0,7.6,18.1,17.9,36.1,35.9,54,54,2.2,2.2,3.7,2.6,6.1.2,18.2-18.3,36.4-36.5,54.7-54.8.9-.9,1.6-2,2.6-3.3ZM495.3-97.1c3,3.1,4.7,2.8,7.5-.1,14-14.2,28.2-28.3,42.3-42.5,4.8-4.8,9.7-9.5,14-13.6-20.6-20.7-40.6-40.8-60.3-60.7-19.7,19.6-39.7,39.5-60.1,59.8.9,1,1.8,2,2.7,3,18,18,36.1,35.9,53.9,54.1h0ZM368.7-476.8c3.2,3.3,5,2.8,8-.2,17.7-17.9,35.5-35.6,53.3-53.4,1-1,1.9-2.2,2.7-3.1-20.3-20.3-40.4-40.3-60.2-60.2-19.8,19.7-39.7,39.6-60.2,60,1.4,1.5,2.7,2.8,4,4.1,17.5,17.6,35.2,35,52.5,52.7h0ZM369.7,30.2c2.9,2.9,4.4,1.3,6.4-.8,17.7-17.8,35.5-35.6,53.3-53.4,1.2-1.2,2.3-2.6,3.1-3.5-20.4-20.4-40.3-40.4-60.1-60.2-19.7,19.8-39.7,39.7-60,60,.6.8,1.2,1.6,1.9,2.3,18.5,18.5,37,37,55.4,55.6h0ZM424.1-421.6c3.7,3.8,7,7.9,10.6,11.9,2-1.4,2.5-1.7,2.8-2,18.6-18.6,37.2-37.2,55.9-55.7,3-3,1.9-4.9-.5-7.4-17.9-17.8-35.8-35.7-53.7-53.6-1-1-2.2-1.8-3.3-2.8-.9.6-1.5,1-1.9,1.4-18.7,18.7-37.4,37.5-56.2,56.1-3,2.9-1.3,4.4.8,6.4,15.2,15.1,30.5,30.3,45.6,45.6h0ZM417.6,115.2c5.1-5.6,10.1-11.2,14.8-16.2-1.8-1.8-3.6-3.6-5.3-5.3-18.4-18.5-36.6-36.7-55-55.1-.2.1-.8.4-1.2.8-18.9,18.8-37.7,37.7-56.6,56.5-2,2-2,3.4,0,5.3,4.6,4.6,8.9,9.3,13.4,14h-4c-3.9-3.9-7.6-7.9-11.6-11.5-1-.9-3.9-1.3-4.7-.6-4.1,3.8-7.8,8-11.6,12.1h-5c5.3-5.5,10.6-11,15.6-16.2-20.4-20.3-40.5-40.3-60.2-59.9-19.8,19.7-39.9,39.7-61.3,61.1,5.4,4.9,11.1,10,16.8,15.1h-5c-4.5-4.7-9-9.5-13.6-14.3-5.2,5.2-9.9,9.7-14.4,14.3h-4c5.1-5.6,10.2-11.2,15.1-16.4-20.3-20.2-40.3-40.2-60.2-60-19.7,19.7-39.8,39.7-60,60,4.9,5.3,10.1,10.9,15.2,16.5h-4c-4.7-4.7-9.4-9.3-14.5-14.4-4.7,5-9.1,9.7-13.5,14.4h-5c5.4-5.5,10.8-11.1,15.5-15.9C32.5,78.7,12.6,58.7-8.6,37.4c-.6.8-1.2,1.7-1.9,2.7l-1.8-1.8h0c2.4-2.3,2.4-3.9,0-6.2-6.8-6.6-13.5-13.2-20.2-19.9v-4c7.6,7.2,15.1,14.4,22.3,21.2.9.8,1.7,1.6,2.6,2.5C12.9,11.6,33-8.3,52.7-27.9c-19.8-19.9-39.9-39.9-61.2-61.3-7.7,8.2-15.8,16.8-23.9,25.4v-5c7.2-7.8,14.4-15.6,22.1-23.9-6.8-6.5-14.4-13.8-22.1-21.1v-5c8.4,8.3,16.7,16.5,25.1,24.8,1.1-.8,1.8-1.2,2.4-1.8,18.7-18.7,37.4-37.4,56.2-56,3-3,1-4.5-.9-6.4-17.2-17.2-34.3-34.4-51.5-51.5-1.8-1.8-3.8-3.6-5.9-5.6-1.9,1.9-3.5,3.3-5,4.8-6.8,6.5-13.6,13.1-20.4,19.6v-4c6.6-6.5,13-13.2,19.7-19.6,2.7-2.5,2.7-4.3,0-6.9-6.7-6.4-13.2-13-19.8-19.6v-4c8.5,8.1,16.9,16.1,24.7,23.6,1.6-1.6,3.2-3.2,4.9-4.8,18.8-18.7,37.2-37,55.4-55.1-19.8-19.7-39.8-39.7-60.2-60.1-8.1,8-16.4,16.2-24.8,24.5v-5c7.1-7.8,14.2-15.7,20.5-22.6-6.2-6.8-13.4-14.6-20.5-22.4v-5c8,8.6,16,17.3,23.7,25.6,21.5-21.5,41.5-41.6,61.1-61.2-19.7-19.8-39.7-39.8-60-60.1-1.2,1.1-2.6,2.4-4.1,3.8-6.9,6.6-13.9,13.3-20.8,20v-4c6.6-6.5,13.1-13.1,19.8-19.6,2.6-2.5,2.8-4.4,0-6.9-6.7-6.4-13.3-13-19.8-19.5v-4c7.5,7.2,15.1,14.3,22.3,21.2.9.9,1.8,1.7,2.7,2.5,20.4-20.4,40.4-40.3,60.1-59.9-19.9-19.9-39.9-40-61.4-61.4-7.7,8.3-15.7,16.9-23.7,25.6v-5c7.2-7.8,14.3-15.5,21.8-23.6-2.8-3-6.3-6.7-9.8-10.4h5c6.7,10,8.1,10.2,16,1.7.4-.5.7-1.1,1-1.7h5c-3.5,3.8-7,7.5-10.6,11.5,1,1.2,1.7,2.3,2.6,3.2,18.2,18.2,36.5,36.4,54.6,54.7,2.6,2.7,4.1,2,6.4-.3,10-10.2,20.1-20.3,30.3-30.3,9-8.9,18-17.6,27.2-26.5-4-4.6-7.3-8.4-10.6-12.2h4c5.8,6.4,11.7,6.6,17.7.4.1-.1.2-.3.3-.4h4c-3.3,3.8-6.6,7.7-9.4,10.8,20.2,20.3,40.2,40.3,59.8,60,19.6-19.7,39.6-39.7,59.7-59.9-3.2-3.4-6.7-7.2-10.1-10.9h5c2.2,2.4,4.3,5,6.8,7.2.7.7,3,.7,3.7,0,2.4-2.2,4.4-4.8,6.6-7.2h5c-3.5,3.7-7,7.5-10.3,11,20.3,20.2,40.3,40.2,60.4,60.3,0,0,.8-.2,1.2-.7,19-18.9,37.9-37.9,56.8-56.8,1.9-1.9,1.5-3.3-.2-5-2.8-2.8-5.4-5.8-8-8.7h4c11,11.2,7.2,10.4,17.7.4.1-.1.2-.2.3-.4h4c-1.8,2.1-3.5,4.3-5.5,6.3-5.1,5.1-5.2,5.1-.3,10,15.2,15.2,30.4,30.4,45.5,45.6,3.4,3.4,6.8,6.7,9.9,9.7,18.6-18.6,36.9-36.8,55.3-55.3,1.8-1.8,3.5-3.5,5.3-5.3-3.3-3.5-6.8-7.2-10.3-10.9h5c6.8,10,8.2,10.2,16,1.7.4-.5.7-1.1,1-1.7h5c-3.5,3.8-7,7.5-10,10.8,1.5,1.5,3,3,4.4,4.4,18.7,18.8,37.2,37.4,55.6,55.9,19.7-19.7,39.6-39.7,59.7-59.8-3.1-3.6-6.4-7.4-9.7-11.2h4c10.9,11.2,7.4,10.3,17.7.4.1-.1.2-.3.3-.4h4c-3.3,3.8-6.6,7.7-10.1,11.6.9,1.1,1.6,2,2.4,2.8,18.3,18.3,36.7,36.6,55,55.1,3.2,3.2,4.7,1.2,6.8-.9,17.9-17.9,35.7-35.8,53.6-53.7,1-1,1.9-2.2,3-3.5-3.7-4-7.2-7.7-10.7-11.5h5c2.2,2.4,4.3,5,6.7,7.2.7.6,3,.7,3.7,0,2.4-2.2,4.4-4.8,6.6-7.2h5c-3.5,3.7-7,7.5-11.8,12.5.4.4.9.7,1.3,1l-1.7,1.7-.2-.2c-20.6,20.4-40.7,40.4-60.5,60,19.6,19.6,39.5,39.6,59.7,59.9.8-.7,1.7-1.5,2.6-2.3.3-.3.6-.5.9-.8,7.6-7.5,15-15.1,22.7-22.6,5-4.9,10.1-9.5,15.1-14.3v4c-12,12-24,24-36.2,35.9-2.7,2.6-1.8,4.4.4,6.6,12,11.8,23.8,23.7,35.8,35.6v4c-1.3-1-2.7-1.9-3.8-3-10.9-10.8-21.7-21.7-32.5-32.5-1.6-1.6-3.4-3.1-4.6-4.3-20.4,20.4-40.4,40.4-60,60,19.8,19.9,39.8,40,61.1,61.4,0,0,.2-.1.2-.2l1.6,1.5c-.2.2-.1.6-.2.9l-1.1,1.1c1.2.9,2.4,1.8,3.6,2.7l-1.8,1.8h-.1c-2.8-2.9-4.4-3-7.2-.1-17.9,18.1-35.9,36.2-54.1,54-3,2.9-2.5,4.5.2,7.2l.2.2c17.8,17.6,35.5,35.4,53.2,53.1,1.2,1.1,2.4,2.2,4,3.6,14-13.9,27.7-27.7,41.4-41.4v5c-11.9,11.9-23.7,23.8-35.8,35.6-2.7,2.6-2.7,4.2,0,6.9,12,11.8,23.9,23.7,35.8,35.6v5c-13.7-13.8-27.4-27.5-40.3-40.4-.8.8-1.5,1.5-2.3,2.3-19.8,19.7-39.2,38.9-58.2,57.7,19.6,19.6,39.6,39.5,60,59.9,13.3-13.2,27-26.8,40.7-40.4v5c-1.3,1.1-2.6,2-3.8,3.2-10.1,10.1-20.2,20.1-30.3,30.2-5,5-5.1,5.1,0,10.2,11.3,11.2,22.7,22.3,34,33.5v5c-13.1-12.9-26.1-25.8-38.4-37.9-.7-.7-1.4-1.4-2.1-2.1-20.6,20.5-40.7,40.5-60.4,60.1,19.5,19.6,39.5,39.6,60.2,60.4.8-.8,1.6-1.7,2.4-2.5l2,2h0c-2,1.9-1.9,3.3-.7,4.9l-1.8,1.7c-.4-.5-.8-1-1.2-1.5-21.3,21.2-41.4,41.3-62.7,62.6,5.5,5,11.2,10.1,16.9,15.2h-5c-4.5-4.7-9-9.5-13.4-14.1-5.4,5.2-10,9.7-14.6,14.1h-4c5.1-5.6,10.2-11.1,15.2-16.6-20.2-20.2-40.3-40.2-59.6-59.6-20,19.9-40.2,40-60.4,60.1,4.7,5.1,9.8,10.6,14.8,16h-4c-4.6-4.7-9.2-9.5-14.2-14.7-5,5.3-9.4,10-13.8,14.7h-5c5.4-5.5,10.8-11,15.7-16.1-20.5-20.6-40.4-40.6-60-60.3-1,1-1.9,1.9-2.9,2.9-19,19-38.2,38.1-58.6,58.5,5.4,4.8,11.1,9.9,16.8,15h-5c-4.4-4.6-8.8-9.2-13-13.7-1.1.4-1.7.5-2,.8-4.4,4.3-8.7,8.6-13,12.9h-4ZM688.8-31.8c19.8-19.8,39.8-39.7,59.7-59.5-19.8-19.8-39.8-39.7-59.1-59-20,19.8-40.1,39.8-59.4,59.1,19.5,19.7,39.3,39.8,58.8,59.5h0ZM748.2,35.6c-20-20.1-39.9-40-59.4-59.5-19.8,19.7-39.8,39.7-59.3,59.1,19.7,19.8,39.6,39.8,59.2,59.6,19.8-19.7,39.8-39.6,59.5-59.2ZM747.9-471.4c-19.4-19.4-39.2-39.3-58.9-59-19.7,19.9-39.6,40-59.3,59.9,19.4,19.5,39.3,39.5,58.6,58.9,19.9-19.9,39.9-40,59.7-59.8ZM747.8-343.7c-19.9-20.1-39.8-40.3-59-59.7-19.8,19.7-39.8,39.6-59.4,59.1,19.8,19.8,39.7,39.8,59.5,59.6,19.7-19.7,39.6-39.7,58.8-58.9h0ZM685.6-281.4c-.4-.5-.9-1.4-1.6-2-18.5-18.5-37-36.9-55.4-55.5-2.7-2.7-4.3-1.8-6.5.4-11.5,11.6-23,23.1-34.6,34.6-7.5,7.5-15.3,14.7-22.4,21.5,21,20.9,41.1,40.9,60.8,60.5,19.5-19.4,39.5-39.4,59.7-59.5ZM685.3-533.9c-19.9-19.9-39.9-40-59.5-59.6-19.9,19.8-40,39.9-59.7,59.6,19.7,19.8,39.8,39.8,59.7,59.8,19.7-19.8,39.6-39.8,59.5-59.8h0ZM684.8-407.3c-19.7-19.8-39.9-39.9-59-59.1-19.7,19.6-39.9,39.5-59.4,58.9,19.6,19.8,39.5,39.8,59.3,59.7,19.8-19.9,39.9-40,59.2-59.5ZM684.7-27.6c-19.8-19.8-39.8-40-59.5-59.8-19.6,19.6-39.6,39.6-59.4,59.3,19.9,19.9,40,39.9,59.5,59.4,20-19.9,40.1-39.8,59.4-58.9ZM621.8-91.3c-19.6-19.7-39.5-39.7-59.2-59.3-19.9,19.8-39.9,39.8-59.2,59.1,19.7,19.8,39.6,40,59.1,59.7,19.7-19.7,39.6-39.7,59.3-59.4h0ZM621.6-344.4c-19.6-19.8-39.5-39.8-59-59.5-19.9,20-40,40-59.6,59.6,19.7,19.7,39.6,39.7,59.1,59.4,19.8-19.8,39.9-39.9,59.4-59.5ZM559-281.5c-.2-.3-.4-.9-.9-1.3-18.8-18.9-37.7-37.6-56.5-56.6-2.7-2.8-4.2-1.1-6.1.7-9.9,9.9-19.7,19.8-29.6,29.7-9.2,9.1-18.4,18.2-27.5,27.1,20.6,20.5,40.7,40.5,60.4,60.1,19.9-19.8,40-39.7,60.1-59.8h0ZM498.9-474.9c19.8-19.7,39.9-39.7,59.8-59.5-19.7-19.7-39.6-39.7-59.3-59.4-19.9,19.9-40,40-59.6,59.6,20,20,39.9,40.1,59.1,59.4h0ZM498.9-348.1c19.9-19.8,39.9-39.9,59.8-59.7-19.6-19.6-39.6-39.6-59.3-59.3-19.9,20-39.9,40-59.6,59.8,19.6,19.7,39.6,39.8,59.1,59.3h0ZM435.9-31.6c19.8-19.9,39.8-39.9,59.5-59.7-19.8-19.7-39.8-39.6-59.5-59.2-19.9,19.7-39.9,39.6-59.5,59,19.8,19.9,39.7,40,59.4,59.9h0ZM493.2,38.8c2.7-2.7,2.9-4.6,0-7.4-11.5-11.3-23-22.7-34.2-34.2-7.4-7.6-14.5-15.5-21.9-23.4-2.3,1.9-3,2.3-3.6,2.9-18.5,18.5-36.9,37-55.5,55.4-2.7,2.7-1.8,4.3.5,6.5,15.7,15.6,31.3,31.3,46.9,47,3.4,3.4,6.9,6.6,10.4,10,1.2-.9,2-1.4,2.7-2.1,18.2-18.2,36.4-36.5,54.7-54.7ZM367.4,38.2c3.3-3.2,1-4.8-1-6.8-17.8-17.8-35.6-35.5-53.2-53.4-3-3-4.6-2.9-7.5,0-17.5,17.8-35.2,35.4-52.9,52.9-3.2,3.2-3.5,5.1-.1,8.4,12.4,12.1,24.5,24.5,36.7,36.7,6.5,6.6,13.2,13,19.9,19.6,1.1-.8,1.8-1.2,2.4-1.8,18.6-18.6,37.2-37.2,55.9-55.7ZM246.5-474.4c19.6-19.6,39.5-39.6,59-59.2-20.1-20.1-40.1-40.1-59.4-59.3-19.6,19.5-39.7,39.5-59.3,59,19.7,19.7,39.7,39.7,59.6,59.5h0ZM305.3-27.8c-19.8-19.9-39.8-40-59.1-59.4-19.8,19.7-39.9,39.6-59.8,59.4,19.7,19.7,39.6,39.6,59.2,59.2,20.1-20,40.2-40,59.7-59.3ZM305-406.8c-19.8-20-39.8-40.2-59.4-60-19.6,19.6-39.6,39.6-59.2,59.2,19.9,19.9,39.9,39.9,59.8,59.8,19.7-19.8,39.8-39.8,58.8-59ZM183-31.8c19.8-19.7,39.8-39.6,59.6-59.4-19.8-19.8-39.8-39.8-59.5-59.5-20,19.9-40,39.9-59.3,59.1,19.7,19.9,39.7,40,59.2,59.8ZM182.8-284.8c19.9-19.8,39.9-39.7,59.8-59.4-19.9-19.7-39.9-39.6-59.6-59.1-19.7,19.6-39.7,39.5-59.2,59,19.6,19.8,39.5,39.9,59.1,59.6ZM242.2-217.3c-20-20.1-39.8-40.2-59.8-60.3-.2.2-.9.5-1.3.9-18.7,18.7-37.4,37.4-56.2,56-2.8,2.7-1.6,4.3.6,6.5,13.7,13.6,27.3,27.3,40.9,40.9,5.4,5.4,10.8,10.6,16.1,15.8,20.4-20.5,40.4-40.4,59.7-59.8h0ZM179.5-281.5c-.1-.2-.4-.8-.8-1.2-18.8-18.9-37.7-37.7-56.4-56.6-2-2-3.4-1.9-5.4,0-5.3,5.5-10.8,10.8-16.2,16.2-13.8,13.7-27.5,27.5-40.9,40.8,20.5,20.6,40.4,40.8,60,60.5,19.7-19.7,39.7-39.6,59.8-59.8h0ZM119.8-348.4c19.7-19.6,39.7-39.5,59.5-59.3-19.9-19.8-39.9-39.9-59.8-59.7-19.8,19.8-39.8,39.9-59.2,59.2,19.8,20,39.9,40.1,59.5,59.8ZM119.5-474.2c19.9-19.8,40-39.9,59.8-59.7-19.8-19.8-39.8-39.7-59.8-59.7-19.7,19.7-39.8,39.8-59.7,59.6,19.9,19.9,39.9,39.9,59.7,59.7h0ZM178.7-27.6c-19.8-19.9-39.7-40.1-59.3-59.8-19.7,19.7-39.7,39.6-59.1,59,20,20.1,40,40.3,59.1,59.4,19.9-19.7,40.1-39.6,59.4-58.7ZM116.4,34.8c-.5-.6-1.2-1.6-2-2.4C96.1,14.1,77.7-4.3,59.4-22.7c-2.5-2.5-4-2-6.1.2C34.8-4,16.3,14.5-2.2,33c-.7.7-1,1.6-1.5,2.3,20.1,20,40.1,39.9,59.9,59.6,20-20,40-40,60.2-60.1ZM115.7-470.4c-19.8-19.9-39.8-40-60-60.1-.2.1-.8.5-1.3.9-18.8,18.7-37.5,37.4-56.3,56.1-2.3,2.3-1.6,3.8.4,5.7,6.5,6.4,13,12.9,19.4,19.5,12.5,12.7,24.9,25.4,37.4,38.1,20.9-20.9,40.9-40.8,60.3-60.2h0ZM115.7-344.2c-19.8-19.9-39.7-40-59.3-59.7-19.9,19.8-39.9,39.7-59.7,59.4,19.9,19.9,39.9,39.8,59.8,59.7,19.9-19.9,39.8-39.9,59.3-59.4ZM115.3-90.9c-19.6-19.8-39.4-39.9-58.7-59.5-19.9,19.8-40,39.8-59.5,59.3,19.6,19.8,39.5,39.8,58.9,59.3,20-19.9,40-39.9,59.3-59.1Z"/>
    </g>
  </g>
  <path class="cls-5" d="M234.8-.1s0,0,0,0c1,.7,1.7,1.2,2.4,1.6,14.4,8.7,28.3,18.1,41.6,28.4,13.2,10.2,25.7,21.1,37.5,32.8,2,1.9,2,1.9,4,0,8.1-7.4,16.1-15.1,24.5-22.2,17.3-14.8,35.9-27.8,55.5-39.4.5-.3.9-.6,1.7-1.2,0,0,0,0,0,0h-167.1Z"/>
</svg>