<?xml version="1.0" encoding="UTF-8"?>
<svg id="Layer_2" data-name="Layer 2" xmlns="http://www.w3.org/2000/svg" xmlns:xlink="http://www.w3.org/1999/xlink" viewBox="0 0 34.229 162.381">
  <defs>
    <style>
      .cls-1 {
        fill: #a5587a;
      }

      .cls-1, .cls-2, .cls-3, .cls-4, .cls-5 {
        stroke-width: 0px;
      }

      .cls-6 {
        clip-path: url(#clippath);
      }

      .cls-2 {
        fill: none;
      }

      .cls-3 {
        fill: #b7867d;
      }

      .cls-4 {
        fill: #a9625f;
      }

      .cls-5 {
        fill: #e48a41;
      }
    </style>
    <clipPath id="clippath">
      <rect class="cls-2" width="34.229" height="162.381"/>
    </clipPath>
  </defs>
  <g id="Layer_1-2" data-name="Layer 1">
    <g class="cls-6">
      <g>
        <path class="cls-4" d="M162.685,141.964v1.771c-4.631-4.57-9.261-9.137-13.612-13.431-.248-.244-.496-.489-.74-.73-7.288,7.249-14.412,14.334-21.402,21.289,6.926,6.951,13.987,14.04,21.317,21.399.283-.294.57-.592.854-.886l.698.709-.004.004c-.691.677-.659,1.18-.252,1.722l-.645.609c-.149-.174-.294-.344-.443-.514-7.539,7.525-14.653,14.625-22.214,22.171,1.959,1.771,3.964,3.589,5.973,5.406h-1.771c-1.587-1.679-3.174-3.359-4.733-5.006-1.903,1.832-3.543,3.419-5.187,5.006h-1.417c1.814-1.977,3.628-3.95,5.389-5.863-7.157-7.15-14.271-14.257-21.13-21.108-7.079,7.047-14.232,14.161-21.392,21.286,1.672,1.81,3.458,3.748,5.247,5.686h-1.417c-1.626-1.679-3.249-3.359-5.034-5.201-1.768,1.881-3.327,3.539-4.886,5.201h-1.771c1.906-1.959,3.812-3.915,5.559-5.708-7.263-7.302-14.313-14.391-21.25-21.364-.34.337-.677.677-1.017,1.013-6.735,6.721-13.53,13.505-20.779,20.74,1.924,1.718,3.94,3.518,5.956,5.318h-1.771c-1.555-1.64-3.111-3.277-4.613-4.864-.386.159-.585.184-.701.298-1.541,1.513-3.072,3.04-4.606,4.567h-1.417c1.796-1.977,3.596-3.954,5.233-5.754-.631-.631-1.258-1.261-1.888-1.888-6.522-6.54-12.97-12.999-19.475-19.514-.057.035-.28.131-.436.287-6.682,6.668-13.35,13.35-20.042,20.007-.709.701-.709,1.19-.007,1.895,1.616,1.619,3.157,3.305,4.73,4.967h-1.417c-1.364-1.371-2.678-2.795-4.12-4.074-.361-.322-1.392-.461-1.672-.202-1.456,1.339-2.767,2.834-4.127,4.276h-1.771c1.871-1.945,3.745-3.887,5.53-5.743-7.224-7.199-14.349-14.295-21.314-21.236-7.001,6.976-14.118,14.069-21.707,21.633,1.931,1.732,3.947,3.539,5.959,5.346h-1.771c-1.594-1.683-3.189-3.362-4.801-5.059-1.864,1.839-3.493,3.447-5.119,5.059h-1.417c1.81-1.977,3.621-3.954,5.332-5.821-7.181-7.153-14.295-14.246-21.332-21.257-6.987,6.976-14.097,14.079-21.271,21.247,1.743,1.885,3.564,3.858,5.385,5.832h-1.417c-1.662-1.651-3.32-3.298-5.137-5.102-1.665,1.775-3.224,3.437-4.783,5.102h-1.771c1.906-1.963,3.812-3.922,5.488-5.647-7.288-7.309-14.352-14.391-21.87-21.93-.22.294-.439.616-.67.946l-.624-.641.007-.007c.833-.801.843-1.382.025-2.172-2.409-2.321-4.776-4.691-7.157-7.04v-1.417c2.678,2.547,5.36,5.095,7.901,7.507.308.291.613.585.918.872,7.235-7.196,14.331-14.249,21.314-21.197-7.029-7.036-14.129-14.143-21.679-21.704-2.735,2.912-5.594,5.963-8.453,9.013v-1.771c2.544-2.756,5.088-5.513,7.816-8.464-2.406-2.303-5.112-4.893-7.816-7.479v-1.771c2.962,2.926,5.924,5.853,8.907,8.804.39-.287.652-.429.854-.631,6.632-6.622,13.24-13.268,19.904-19.854,1.084-1.07.351-1.587-.329-2.267-6.083-6.083-12.163-12.17-18.246-18.253-.652-.648-1.336-1.261-2.087-1.97-.691.659-1.24,1.183-1.786,1.708-2.406,2.317-4.811,4.634-7.217,6.955v-1.417c2.324-2.321,4.613-4.68,6.99-6.944.946-.9.967-1.523.014-2.427-2.377-2.264-4.673-4.613-7.004-6.926v-1.417c3.001,2.856,6.002,5.711,8.765,8.34.574-.57,1.151-1.144,1.722-1.711,6.661-6.622,13.187-13.112,19.635-19.525-7.004-6.99-14.09-14.062-21.335-21.293-2.856,2.82-5.821,5.75-8.786,8.68v-1.771c2.519-2.778,5.038-5.552,7.274-8.01-2.207-2.406-4.74-5.169-7.274-7.932v-1.771c2.841,3.065,5.686,6.126,8.411,9.063,7.599-7.617,14.692-14.728,21.633-21.682-6.972-6.994-14.062-14.108-21.243-21.307-.415.386-.935.854-1.442,1.336-2.455,2.36-4.907,4.719-7.359,7.082v-1.417c2.335-2.317,4.648-4.652,7.018-6.933.907-.875.974-1.548.014-2.459-2.381-2.26-4.694-4.599-7.033-6.905v-1.417c2.671,2.537,5.346,5.077,7.911,7.514.319.301.638.602.953.903,7.231-7.21,14.317-14.274,21.286-21.218-7.04-7.05-14.143-14.161-21.739-21.767-2.721,2.926-5.566,5.991-8.411,9.059v-1.771c2.54-2.753,5.077-5.506,7.72-8.368-.985-1.045-2.228-2.363-3.468-3.678h1.771c2.384,3.55,2.88,3.603,5.665.588.152-.167.241-.393.358-.588h1.771c-1.236,1.329-2.469,2.661-3.763,4.053.344.429.599.815.921,1.141,6.455,6.462,12.931,12.9,19.355,19.394.928.939,1.467.723,2.278-.106,3.55-3.614,7.139-7.188,10.746-10.746,3.178-3.139,6.395-6.239,9.651-9.406-1.407-1.623-2.583-2.976-3.759-4.329h1.417q3.072,3.422,6.267.135c.043-.039.074-.089.11-.135h1.417c-1.173,1.353-2.349,2.707-3.33,3.84,7.164,7.181,14.228,14.264,21.19,21.24,6.958-6.976,14.019-14.055,21.165-21.218-1.123-1.205-2.36-2.533-3.596-3.862h1.771c.787.854,1.527,1.768,2.395,2.533.259.23,1.059.252,1.304.028.85-.776,1.559-1.697,2.324-2.561h1.771c-1.244,1.318-2.484,2.639-3.649,3.876,7.185,7.171,14.26,14.232,21.41,21.371.025-.011.273-.074.429-.234,6.714-6.71,13.42-13.431,20.138-20.141.659-.655.549-1.162-.064-1.782-.981-.996-1.892-2.058-2.834-3.089h1.417c3.915,3.986,2.565,3.681,6.26.128.043-.039.078-.085.117-.128h1.417c-.648.74-1.258,1.527-1.956,2.221-1.814,1.803-1.835,1.793-.099,3.536,5.375,5.382,10.756,10.763,16.138,16.138,1.201,1.197,2.427,2.367,3.518,3.43,6.593-6.59,13.059-13.055,19.599-19.589.624-.624,1.247-1.247,1.871-1.871-1.155-1.226-2.399-2.547-3.642-3.865h1.771c2.413,3.539,2.916,3.592,5.669.588.149-.167.237-.393.354-.588h1.771c-1.233,1.329-2.466,2.661-3.529,3.805.521.524,1.045,1.049,1.566,1.573,6.622,6.654,13.176,13.243,19.695,19.79,6.965-6.983,14.023-14.058,21.147-21.201-1.095-1.261-2.271-2.615-3.451-3.968h1.417c3.865,3.964,2.618,3.646,6.267.135.039-.043.074-.092.11-.135h1.417c-1.176,1.353-2.352,2.71-3.564,4.11.315.376.556.709.843.996,6.494,6.501,13.017,12.978,19.472,19.521,1.116,1.134,1.679.432,2.416-.308,6.328-6.338,12.662-12.669,18.986-19.008.365-.365.673-.787,1.063-1.247-1.314-1.41-2.551-2.739-3.787-4.064h1.771c.787.857,1.52,1.775,2.388,2.544.255.227,1.049.234,1.297.007.85-.772,1.569-1.69,2.338-2.551h1.771c-1.247,1.318-2.494,2.639-4.198,4.439.156.128.312.252.464.372l-.595.602-.081-.081c-7.295,7.242-14.43,14.32-21.441,21.278,6.933,6.955,13.994,14.037,21.154,21.218.28-.248.599-.521.914-.811.106-.099.209-.195.312-.298,2.678-2.664,5.332-5.353,8.028-8,1.757-1.718,3.575-3.376,5.364-5.063v1.417c-4.266,4.237-8.514,8.496-12.815,12.698-.957.939-.634,1.555.142,2.324,4.237,4.195,8.45,8.407,12.673,12.613v1.417c-.453-.354-.949-.663-1.353-1.066-3.851-3.826-7.681-7.674-11.525-11.507-.577-.574-1.194-1.105-1.64-1.52-7.213,7.21-14.324,14.313-21.257,21.24,7.001,7.036,14.094,14.164,21.633,21.743.025-.028.053-.053.078-.081l.56.535c-.067.067-.046.22-.067.333-.128.128-.255.255-.383.386.418.322.85.631,1.272.949l-.655.652-.05-.05c-.974-.992-1.559-1.003-2.551.004-6.342,6.427-12.726,12.811-19.16,19.146-1.056,1.038-.872,1.605.078,2.544l.06.06c6.31,6.243,12.574,12.545,18.852,18.823.411.411.861.776,1.428,1.283,4.942-4.935,9.81-9.8,14.682-14.66v1.771c-4.216,4.205-8.407,8.439-12.666,12.606-.942.921-.946,1.499,0,2.423,4.255,4.166,8.45,8.397,12.666,12.606v1.771c-4.857-4.879-9.715-9.757-14.264-14.327-.269.269-.539.535-.808.801-7.022,6.969-13.885,13.775-20.602,20.442,6.955,6.937,14.04,14.001,21.264,21.208,4.723-4.687,9.566-9.498,14.409-14.306v1.771c-.446.368-.928.709-1.336,1.116-3.589,3.561-7.164,7.135-10.742,10.707-1.782,1.775-1.8,1.789.028,3.6,4.007,3.961,8.032,7.904,12.049,11.858ZM146.108,84.545c.822-.818.733-1.403-.064-2.193-6.437-6.402-12.857-12.822-19.248-19.27-.925-.935-1.548-.886-2.448.05-2.746,2.841-5.569,5.612-8.368,8.4-3.926,3.908-7.858,7.808-11.84,11.766.227.404.28.585.397.701,6.671,6.678,13.357,13.342,20.003,20.046.879.882,1.47.631,2.197-.099,6.448-6.476,12.9-12.949,19.372-19.401ZM125.567,149.387c7.029-7.011,14.115-14.076,21.137-21.08-7.004-7.004-14.079-14.076-20.924-20.921-7.075,7.029-14.2,14.111-21.055,20.924,6.909,6.983,13.941,14.097,20.843,21.077ZM146.498-6.361c-6.866-6.87-13.902-13.916-20.875-20.896-6.987,7.05-14.026,14.157-21.016,21.215,6.877,6.916,13.927,14.009,20.747,20.871,7.05-7.064,14.143-14.171,21.144-21.19ZM125.606,59.752c6.976-6.979,14.044-14.055,20.85-20.868-7.036-7.125-14.09-14.278-20.889-21.165-7.011,6.972-14.101,14.019-21.052,20.931,6.997,7.001,14.076,14.083,21.091,21.101ZM125.538,194.247c7.011-6.983,14.094-14.037,21.073-20.984-7.093-7.107-14.15-14.179-21.038-21.08-7.001,6.976-14.111,14.065-21.02,20.953,6.969,7.011,14.019,14.104,20.984,21.112ZM124.408,60.957c-.142-.184-.326-.485-.567-.726-6.54-6.554-13.105-13.08-19.617-19.663-.953-.967-1.527-.655-2.303.131-4.064,4.106-8.134,8.205-12.244,12.262-2.671,2.639-5.41,5.208-7.936,7.631,7.436,7.408,14.554,14.501,21.526,21.445,6.912-6.891,13.994-13.955,21.14-21.08ZM119.53,111.095c1.69-1.693,3.373-3.394,4.907-4.939-7.231-7.256-14.292-14.342-21.158-21.236-7.05,7.029-14.171,14.125-21.349,21.275.067.089.22.34.425.546,6.544,6.544,13.109,13.073,19.624,19.645.974.981,1.577.755,2.441-.117,5.01-5.084,10.069-10.118,15.11-15.174ZM124.114,16.363c-6.99-7.004-14.122-14.147-20.914-20.953-6.994,6.933-14.129,14.005-21.052,20.864,6.958,7.008,14.012,14.115,20.995,21.151,7.029-7.057,14.125-14.186,20.97-21.062ZM103.038,171.735c7.086-7.033,14.221-14.111,21.041-20.875-7.001-7.033-14.094-14.157-21.073-21.172-6.958,6.948-14.044,14.023-21.045,21.013,7.061,7.047,14.179,14.15,21.077,21.034ZM103.222-7.293c6.979-7.011,14.033-14.104,21.087-21.19-7.036-7.05-14.14-14.164-21.08-21.119-7.047,7.029-14.161,14.129-21.165,21.119,6.994,7.004,14.094,14.115,21.158,21.19ZM102.372,83.705c-.779-.847-1.233-1.382-1.725-1.874-6.172-6.175-12.379-12.319-18.501-18.54-1.102-1.12-1.729-1.098-2.82.011-6.289,6.384-12.637,12.712-19.015,19.008-.882.872-.946,1.407-.06,2.282,6.452,6.395,12.889,12.804,19.277,19.259,1.027,1.042,1.633.872,2.561-.081,3.458-3.546,6.972-7.043,10.494-10.526,3.185-3.146,6.413-6.25,9.789-9.537ZM102.01-6.308c-.163-.195-.407-.521-.691-.804-6.501-6.519-13.024-13.017-19.486-19.567-.981-.992-1.523-.599-2.289.17-6.37,6.406-12.744,12.804-19.167,19.156-.96.946-.889,1.52.028,2.427,6.42,6.356,12.786,12.761,19.178,19.142.365.358.79.655,1.077.893,7.16-7.185,14.221-14.267,21.349-21.417ZM101.684,173.422c-7.068-7.107-14.147-14.228-21.264-21.392.099-.057-.021-.014-.099.064-6.696,6.661-13.371,13.339-20.095,19.971-1.006.992-.531,1.541.223,2.292,6.395,6.374,12.769,12.772,19.156,19.156.358.358.779.648,1.141.946,7.142-7.178,14.164-14.232,20.938-21.038ZM101.755,38.619c-6.94-6.997-13.98-14.094-20.91-21.08-7.064,7.068-14.164,14.175-21.101,21.116,6.962,6.99,14.019,14.072,20.953,21.03,7.026-7.029,14.129-14.133,21.059-21.066ZM101.794,128.289c-6.948-6.965-14.009-14.047-20.956-21.016-7.047,7.029-14.154,14.118-20.977,20.928,6.965,7.033,14.026,14.164,20.935,21.14,6.972-6.99,14.033-14.069,20.999-21.052ZM79.577,60.925c-.057-.092-.152-.315-.308-.471-6.668-6.682-13.357-13.339-20-20.046-.964-.974-1.488-.404-2.151.259-3.49,3.511-6.983,7.022-10.49,10.512-3.252,3.238-6.53,6.448-9.736,9.612,7.295,7.27,14.412,14.359,21.385,21.31,7.061-7.022,14.154-14.072,21.3-21.176ZM78.982,151.693c1.056-1.045.393-1.591-.305-2.289-6.296-6.289-12.588-12.584-18.884-18.876-.443-.439-.925-.836-1.091-.985-7.256,7.256-14.363,14.363-21.31,21.307,6.894,6.944,13.945,14.047,21.041,21.193.138-.096.354-.202.514-.361,6.675-6.664,13.328-13.353,20.035-19.989ZM74.67,111.177c1.701-1.697,3.44-3.352,4.949-4.822-7.305-7.348-14.384-14.466-21.374-21.495-6.976,6.94-14.065,13.991-21.296,21.186.329.361.627.719.953,1.049,6.374,6.381,12.776,12.733,19.103,19.163,1.07,1.088,1.676.974,2.675-.043,4.956-5.049,9.977-10.041,14.99-15.039ZM58.259,37.322c7.036-7.029,14.143-14.125,21.19-21.165-6.944-6.951-14.016-14.026-20.995-21.009-7.05,7.068-14.147,14.182-21.123,21.176,6.944,6.969,14.044,14.094,20.928,20.999ZM79.446-28.703c-6.962-6.972-14.037-14.051-21.016-21.038-7.061,7.061-14.175,14.179-21.101,21.101,7.075,7.103,14.136,14.193,20.942,21.027,7.008-6.979,14.125-14.072,21.176-21.091ZM56.339-4.941c1.081-1.07.687-1.743-.188-2.611-6.352-6.32-12.676-12.666-19.018-18.993-.358-.358-.779-.652-1.18-.981-.308.227-.517.34-.677.503-6.632,6.632-13.24,13.286-19.907,19.883-1.045,1.035-.446,1.566.273,2.282C21.034.512,26.43,5.879,31.787,11.286c1.318,1.329,2.498,2.799,3.745,4.209.712-.51.875-.595.996-.716,6.6-6.576,13.179-13.172,19.812-19.72ZM57.232,83.489c-.326-.418-.57-.815-.889-1.137-6.416-6.423-12.857-12.825-19.252-19.273-.957-.964-1.538-.825-2.43.081-6.299,6.37-12.623,12.715-19,19.008-1.056,1.042-1.042,1.651,0,2.682,6.416,6.335,12.779,12.726,19.128,19.124.776.783,1.321.935,2.168.081,6.437-6.491,12.91-12.942,19.365-19.411.322-.322.57-.719.911-1.155ZM56.236,174.414c.96-.953,1.042-1.616.032-2.604-4.088-4-8.138-8.035-12.138-12.117-2.632-2.689-5.155-5.481-7.773-8.276-.815.655-1.063.818-1.268,1.02-6.554,6.544-13.087,13.105-19.67,19.62-.96.953-.62,1.523.167,2.303,5.559,5.53,11.086,11.096,16.634,16.641,1.194,1.197,2.427,2.352,3.663,3.546.422-.326.726-.51.971-.755,6.459-6.462,12.9-12.942,19.383-19.38ZM35.422,60.266c7.546-7.522,14.629-14.582,21.665-21.597-7.043-6.994-14.143-14.04-21.317-21.169-.089.064-.404.23-.645.471-6.604,6.583-13.19,13.183-19.808,19.748-.953.946-.397,1.502.276,2.172,4.928,4.914,9.874,9.814,14.756,14.77,1.81,1.839,3.468,3.823,5.073,5.605ZM35.953,149.447c7.022-7.04,14.086-14.122,21.098-21.151-7.004-6.972-14.094-14.033-21.066-20.981-7.04,6.987-14.133,14.026-21.073,20.914,7.008,7.064,14.055,14.171,21.041,21.218ZM34.915,61.159c-.273-.361-.482-.709-.755-.992-.903-.932-1.832-1.839-2.746-2.756-5.545-5.548-11.103-11.082-16.623-16.655-.85-.857-1.449-1.123-2.445-.117C5.963,47.097-.474,53.502-6.901,59.919c-.67.67-1.236,1.187-.262,2.154,6.618,6.554,13.194,13.148,19.759,19.752.709.712,1.197.684,1.892-.014,6.522-6.561,13.073-13.098,19.606-19.649.283-.283.51-.62.822-1.003ZM34.157,17.234c.815-.808.599-1.329-.103-2.03C27.532,8.71,21.02,2.202,14.537-4.328c-.772-.776-1.286-.719-2.03.028C6.02,2.23-.485,8.742-7.025,15.222c-.847.84-.787,1.396.014,2.168,1.91,1.842,3.777,3.727,5.644,5.612,4.857,4.889,9.704,9.785,14.65,14.774.446-.301.663-.404.822-.563,6.682-6.661,13.353-13.335,20.053-19.978ZM34.125,106.869c.28-.28.492-.627.783-1.003-.291-.372-.503-.716-.787-.996-6.494-6.508-13.009-12.992-19.482-19.521-.896-.903-1.449-.779-2.289.064-6.43,6.487-12.893,12.946-19.376,19.38-.811.804-.854,1.343-.025,2.165,6.53,6.48,13.031,12.988,19.518,19.507.726.73,1.251.85,2.037.057,6.526-6.565,13.08-13.098,19.62-19.652ZM33.845-27.271c.365-.365.68-.779.946-1.084-7.196-7.188-14.303-14.288-21.339-21.314C6.452-42.694-.627-35.64-7.868-28.423c.51.535.946,1.01,1.399,1.463C-.255-20.738,5.988-14.549,12.145-8.275c1.144,1.166,1.768.981,2.817-.078,6.257-6.342,12.584-12.616,18.884-18.919ZM33.679,152.164c.439-.439.822-.932,1.109-1.258-7.227-7.235-14.295-14.313-21.307-21.332-6.994,7.001-14.055,14.069-21.254,21.271.223.273.422.56.666.804,6.544,6.561,13.105,13.098,19.613,19.688,1.024,1.035,1.555.461,2.282-.269,6.289-6.31,12.595-12.602,18.891-18.905ZM11.671,174.183c1.155-1.137.351-1.693-.368-2.413-6.296-6.296-12.62-12.574-18.866-18.919-1.052-1.07-1.637-1.035-2.668.007-6.207,6.296-12.457,12.549-18.752,18.752-1.134,1.12-1.244,1.807-.039,2.976,4.393,4.276,8.673,8.669,13.009,13.002,2.324,2.321,4.673,4.616,7.043,6.955.383-.283.641-.429.84-.627,6.597-6.583,13.172-13.187,19.801-19.734ZM11.607,129.387c.932-.921.733-1.492-.085-2.299-4.071-4.014-8.12-8.046-12.134-12.113-2.682-2.714-5.293-5.495-7.752-8.056-7.454,7.39-14.582,14.455-21.665,21.477,7.008,7.004,14.079,14.069,21.211,21.19.255-.202.599-.425.886-.709,6.512-6.498,12.999-13.02,19.539-19.489ZM11.497,84.747c.9-.889,1.038-1.484.078-2.437-6.494-6.427-12.942-12.903-19.408-19.355-.283-.28-.627-.496-1.017-.801-.411.326-.804.574-1.127.896-6.388,6.37-12.754,12.761-19.163,19.114-.935.928-1.105,1.566-.067,2.59,6.427,6.331,12.807,12.712,19.16,19.117.914.921,1.47.967,2.416.011,6.338-6.416,12.719-12.79,19.128-19.135ZM11.281,40.1c1.12-1.102,1.173-1.704.053-2.806C5.779,31.831.305,26.286-5.208,20.777c-1.19-1.19-2.42-2.349-3.631-3.525-.372.294-.57.422-.737.585-6.6,6.583-13.183,13.187-19.815,19.737-.939.932-.712,1.52.096,2.313,2.987,2.937,5.948,5.899,8.896,8.871,3.738,3.766,7.454,7.55,11.362,11.514.765-.712,1.29-1.173,1.782-1.669,6.172-6.175,12.304-12.389,18.536-18.504ZM11.231-4.657c1.166-1.144,1.222-1.782.043-2.93C6.92-11.825,2.64-16.14-1.619-20.476c-2.345-2.388-4.588-4.875-6.877-7.32-.149.113-.298.23-.446.344-.234.163-.5.294-.698.492-6.554,6.533-13.084,13.091-19.67,19.596-1.109,1.095-.624,1.743.234,2.593C-23.053,1.217-17.062,7.233-11.05,13.231c.691.691,1.431,1.339,2.197,2.051.482-.439.84-.733,1.166-1.059C-1.388,7.92,4.875,1.585,11.231-4.657ZM-9.927,60.896c-.23-.262-.443-.539-.691-.783-6.423-6.427-12.878-12.822-19.256-19.291-1.112-1.13-1.747-1.049-2.82.039-6.253,6.349-12.584,12.63-18.884,18.94-.368.368-.705.772-.9.988,7.174,7.196,14.271,14.313,21.307,21.367,6.944-6.951,14.023-14.033,21.243-21.261ZM-13.608,109.919c1.283-1.268,2.724-2.374,3.894-3.383-7.536-7.582-14.618-14.706-21.764-21.895-.152.124-.393.287-.595.489-6.593,6.579-13.169,13.183-19.794,19.727-.999.988-.56,1.531.198,2.285,6.356,6.32,12.715,12.637,19.004,19.025,1.095,1.112,1.722,1.109,2.809,0,5.367-5.463,10.799-10.866,16.248-16.248ZM-31.287,37.432c6.983-7.001,14.086-14.115,20.846-20.889-6.997-7.079-14.09-14.249-21.034-21.275-6.948,6.948-14.016,14.016-20.981,20.981,7.04,7.043,14.143,14.15,21.169,21.183ZM-31.159-7.414c6.94-6.958,14.009-14.04,20.917-20.967-7.121-7.114-14.225-14.218-21.034-21.023-6.958,6.923-14.072,14.005-20.999,20.896,6.979,6.972,14.076,14.065,21.116,21.094ZM-10.313,150.815c-7.008-7.043-14.097-14.164-20.931-21.034-7.011,6.965-14.136,14.04-21.201,21.059,6.969,6.965,14.037,14.03,20.984,20.974,7.125-7.075,14.257-14.157,21.147-20.999ZM-33.083-5.199c.957-.942.404-1.488-.273-2.161-6.395-6.377-12.793-12.747-19.146-19.163-.918-.928-1.484-.96-2.423-.007-6.342,6.42-12.744,12.783-19.117,19.17-.365.365-.673.783-.925,1.081,7.142,7.16,14.2,14.242,21.328,21.392.156-.089.28-.128.361-.205,6.728-6.703,13.445-13.42,20.194-20.106ZM-33.412,174.424c1.116-1.098.893-1.711-.089-2.682-6.296-6.228-12.542-12.503-18.809-18.76-.443-.439-.939-.822-1.364-1.197-7.185,7.181-14.228,14.225-21.204,21.201,7.121,7.15,14.179,14.239,21.321,21.41.312-.273.723-.595,1.088-.964,6.345-6.342,12.662-12.715,19.057-19.008ZM-53.72,59.741c7.043-7.004,14.136-14.055,21.176-21.059-7.043-6.983-14.147-14.023-21.126-20.942-6.969,6.937-14.076,14.012-20.981,20.889,6.958,7.018,14.001,14.122,20.931,21.112ZM-32.665,83.652c-7.079-7.135-14.111-14.225-21.197-21.371-.089.064-.305.167-.464.326-6.639,6.615-13.261,13.247-19.925,19.837-.974.96-.563,1.534.205,2.296,4.854,4.818,9.668,9.672,14.508,14.501,1.903,1.899,3.837,3.763,5.718,5.605,7.238-7.249,14.295-14.324,21.154-21.193ZM-32.52,128.331c-7.022-7.022-14.101-14.094-21.091-21.08-7.086,7.064-14.168,14.122-21.016,20.953,6.983,7.043,14.051,14.171,20.984,21.165,7.008-6.979,14.094-14.037,21.123-21.038ZM-54.886,60.918c-.035-.057-.135-.273-.291-.432-6.668-6.678-13.346-13.346-20.003-20.038-.712-.716-1.212-.68-1.895.025-1.892,1.945-3.837,3.837-5.757,5.75-4.882,4.868-9.761,9.736-14.487,14.451,7.249,7.309,14.324,14.444,21.247,21.424,6.972-6.965,14.047-14.04,21.186-21.179ZM-57.763,109.136c1.035-1.024,2.246-1.867,3.245-2.689-7.518-7.536-14.586-14.618-21.583-21.629-7.089,7.086-14.175,14.168-21.317,21.307.099.12.259.365.461.567,6.54,6.551,13.102,13.087,19.617,19.663.932.939,1.541.864,2.445-.053,5.679-5.754,11.394-11.472,17.133-17.165ZM-76.221,171.657c7.05-6.969,14.196-14.03,21.038-20.793-7.001-7.057-14.079-14.193-21.013-21.179-6.976,6.965-14.058,14.037-20.949,20.921,7.096,7.139,14.182,14.267,20.924,21.052ZM-54.96-28.48c-7.018-7.001-14.101-14.072-21.193-21.147-6.99,6.987-14.101,14.094-21.133,21.119,7.036,7.036,14.143,14.147,21.154,21.158,7.043-7.029,14.157-14.129,21.172-21.13ZM-76.026,37.23c6.965-6.937,14.058-13.998,21.091-21.002-7.036-7.022-14.154-14.122-21.204-21.154-7.011,7.022-14.118,14.136-20.956,20.981,7.033,7.068,14.154,14.225,21.069,21.176ZM-77.096,83.727c-.252-.439-.308-.616-.429-.737-6.664-6.685-13.35-13.353-19.992-20.063-.893-.9-1.477-.588-2.193.131-6.455,6.469-12.91,12.942-19.394,19.383-.755.751-.808,1.286-.05,2.037,6.483,6.448,12.963,12.896,19.397,19.394,1.035,1.042,1.676.808,2.586-.117,4.05-4.127,8.149-8.209,12.244-12.29,2.586-2.579,5.194-5.134,7.83-7.738ZM-77.241,172.993c-.184-.227-.411-.56-.694-.843-6.505-6.515-13.027-13.006-19.504-19.546-.868-.879-1.414-.691-2.165.067-6.54,6.565-13.102,13.112-19.645,19.67-.234.234-.365.567-.528.833,7.135,7.1,14.196,14.129,21.225,21.123,7.1-7.096,14.171-14.164,21.31-21.303ZM-98.856,15.342c7.401-7.39,14.476-14.455,21.364-21.332-7.026-7.047-14.111-14.154-21.24-21.303-.074.053-.283.167-.446.329-6.646,6.622-13.275,13.261-19.936,19.865-.829.822-.556,1.353.138,2.034,2.313,2.275,4.602,4.577,6.877,6.891,4.425,4.496,8.832,9.01,13.243,13.516ZM-77.617,128.431c-6.944-7.029-13.973-14.147-20.811-21.069-7.047,7.022-14.154,14.108-21.077,21.006,6.962,7.008,14.012,14.101,20.882,21.02,7.068-7.054,14.179-14.147,21.006-20.956ZM-98.506,59.766c7.04-7.057,14.111-14.14,21.009-21.048-7.001-7.04-14.079-14.164-21.023-21.147-7.04,6.997-14.143,14.055-21.165,21.038,7.047,7.04,14.125,14.111,21.179,21.158Z"/>
        <path class="cls-1" d="M56.151-7.552c.875.868,1.268,1.541.188,2.611-6.632,6.547-13.211,13.144-19.812,19.72-.12.12-.283.205-.996.716-1.247-1.41-2.427-2.88-3.745-4.209C26.43,5.879,21.034.512,15.642-4.859c-.719-.716-1.318-1.247-.273-2.282,6.668-6.597,13.275-13.25,19.907-19.883.159-.163.368-.276.677-.503.4.329.822.624,1.18.981,6.342,6.328,12.666,12.673,19.018,18.993ZM54.592-4.909c.326-.322.592-.709.985-1.19-.478-.585-.872-1.155-1.353-1.637-5.665-5.683-11.366-11.327-16.992-17.045-1.081-1.098-1.74-.9-2.714.089-5.722,5.793-11.475,11.557-17.272,17.275-1.01.992-.971,1.616.004,2.579C23.079.93,28.871,6.74,34.639,12.568c.882.889,1.492,1.045,2.459.067,5.803-5.878,11.663-11.699,17.495-17.544Z"/>
        <path class="cls-1" d="M56.343,82.352c.319.322.563.719.889,1.137-.34.436-.588.833-.911,1.155-6.455,6.469-12.928,12.921-19.365,19.411-.847.854-1.392.701-2.168-.081-6.349-6.398-12.712-12.79-19.128-19.124-1.042-1.031-1.056-1.64,0-2.682,6.377-6.292,12.701-12.637,19-19.008.893-.907,1.474-1.045,2.43-.081,6.395,6.448,12.836,12.85,19.252,19.273ZM54.607,84.768c.889-.882,1.02-1.509.057-2.462-5.906-5.846-11.777-11.73-17.629-17.626-.79-.797-1.318-.872-2.161-.021-5.888,5.948-11.812,11.858-17.753,17.746-.783.776-.932,1.314-.074,2.161,5.991,5.927,11.939,11.893,17.909,17.842.28.276.631.485,1.02.783.411-.347.787-.616,1.109-.939,5.842-5.828,11.663-11.677,17.523-17.484Z"/>
        <path class="cls-1" d="M56.268,171.81c1.01.988.928,1.651-.032,2.604-6.483,6.437-12.924,12.917-19.383,19.38-.244.244-.549.429-.971.755-1.236-1.194-2.469-2.349-3.663-3.546-5.548-5.545-11.075-11.11-16.634-16.641-.787-.779-1.127-1.35-.167-2.303,6.583-6.515,13.116-13.077,19.67-19.62.205-.202.453-.365,1.268-1.02,2.618,2.795,5.141,5.587,7.773,8.276,4,4.081,8.049,8.117,12.138,12.117ZM54.483,174.513c1.049-1.035,1.088-1.672.028-2.717-5.878-5.803-11.695-11.67-17.537-17.509-.283-.283-.624-.507-1.052-.854-.436.358-.864.648-1.229,1.01-5.81,5.789-11.603,11.603-17.438,17.371-.953.946-1.052,1.587-.032,2.597,5.842,5.757,11.642,11.564,17.406,17.403.988,1.003,1.601.964,2.576-.028,5.718-5.8,11.472-11.56,17.279-17.272Z"/>
        <path class="cls-3" d="M54.94,127.446c.241.241.425.539.68.864-.266.372-.461.733-.74,1.017-6.002,6.009-12.01,12.007-18.012,18.016-.616.62-1.12.68-1.782.014-6.026-6.062-12.071-12.11-18.136-18.136-.985-.978-.266-1.538.368-2.172,4.623-4.627,9.25-9.254,13.881-13.877,1.293-1.293,2.618-2.554,3.876-3.879.641-.677,1.123-.634,1.757.004,6.026,6.058,12.074,12.099,18.108,18.15ZM42.738,133.38c1.704-.797,2.54-2.374,2.406-4.517-.142-2.267-1.548-3.391-3.554-4.099-.471-.163-.964-.907-1.035-1.438-.344-2.512-1.924-4.145-4.379-4.326-2.151-.159-4.422,1.456-4.655,3.741-.156,1.545-.879,2.009-2.129,2.462-1.814.655-2.831,2.423-2.735,4.322.089,1.793,1.279,3.334,3.011,3.986,2.299.864,4.074-.12,5.704-1.693.124.092.248.188.372.283-.744,1.708-1.488,3.415-2.324,5.332,1.516,0,2.852.004,4.188-.004.291,0,.577-.043.932-.074-.825-1.803-1.577-3.447-2.324-5.088.595-.149.776-.103.886.011,1.633,1.651,3.5,2.097,5.637,1.102Z"/>
        <path class="cls-3" d="M54.84,37.634c.73.726.825,1.24.028,2.03-6.023,5.977-12.01,12-18.012,18.001-.241.241-.528.439-.896.74-.393-.312-.779-.56-1.098-.879-5.839-5.835-11.653-11.699-17.516-17.509-.939-.932-1.12-1.545-.078-2.576,5.924-5.839,11.794-11.723,17.64-17.64.857-.868,1.407-.726,2.172.046,5.906,5.945,11.823,11.872,17.76,17.785ZM42.632,43.784c1.793-.744,2.71-2.537,2.501-4.648-.223-2.218-1.527-3.447-3.685-3.943-.383-.089-.829-.776-.896-1.236-.397-2.856-1.927-4.432-4.496-4.489-2.668-.053-4.262,1.502-4.762,4.45-.089.507-.67,1.155-1.166,1.325-1.977.68-3.288,2.101-3.461,4.032-.163,1.807.787,3.504,2.437,4.358,1.715.886,3.812.648,5.293-.595.326-.276.659-.542.985-.815.128.089.255.174.383.262-.007.014-.011.025-.018.039-.769,1.736-1.541,3.476-2.31,5.215h5.098c-.825-1.786-1.573-3.398-2.321-5.01.149-.089.301-.181.45-.269.099.053.22.081.294.159,1.63,1.665,3.575,2.034,5.672,1.166Z"/>
        <path class="cls-3" d="M54.663,82.306c.964.953.833,1.58-.057,2.462-5.86,5.807-11.681,11.656-17.523,17.484-.322.322-.698.592-1.109.939-.39-.298-.74-.507-1.02-.783-5.97-5.948-11.918-11.915-17.909-17.842-.857-.847-.709-1.385.074-2.161,5.941-5.888,11.865-11.798,17.753-17.746.843-.85,1.371-.776,2.161.021,5.853,5.895,11.723,11.78,17.629,17.626ZM43.652,89.714c1.686-1.353,2.147-4.478.638-6.264-2.622-3.096-5.435-6.026-8.382-9.265-2.969,3.298-5.945,6.32-8.567,9.626-1.534,1.938-.762,4.648,1.215,6.104,1.672,1.229,3.855.794,5.58-1.201.333-.383.397-.992.585-1.499l.882.744c-.344.765-.616,1.577-1.049,2.292-.439.733-1.035,1.375-1.732,2.278h5.938c-.864-1.513-1.669-2.919-2.473-4.326.209-.138.415-.276.62-.415.294.358.563.737.886,1.07,1.807,1.86,4.181,2.2,5.86.854Z"/>
        <path class="cls-3" d="M55.577-6.099c-.393.482-.659.868-.985,1.19-5.832,5.846-11.691,11.667-17.495,17.544-.967.978-1.577.822-2.459-.067C28.871,6.74,23.079.93,17.251-4.838c-.974-.964-1.013-1.587-.004-2.579,5.796-5.718,11.55-11.482,17.272-17.275.974-.988,1.633-1.187,2.714-.089,5.626,5.718,11.327,11.362,16.992,17.045.482.482.875,1.052,1.353,1.637ZM43.794-.122c1.867-1.732,1.849-4.744-.053-6.824-2.228-2.437-4.499-4.832-6.696-7.298-.808-.907-1.368-1.035-2.239-.043-2.023,2.303-4.184,4.485-6.214,6.781-.691.779-1.304,1.697-1.697,2.654-.737,1.807.089,4.17,1.637,5.18,1.697,1.109,3.699.822,5.254-.84.461-.492.73-1.166,1.084-1.754.287.237.57.475.854.712-.875,1.431-1.75,2.859-2.7,4.411h5.977c-.684-.879-1.236-1.47-1.644-2.151-.429-.719-.723-1.52-1.077-2.289.213-.135.425-.273.638-.407.184.294.329.627.56.882,2.041,2.289,4.507,2.668,6.317.985Z"/>
        <path class="cls-3" d="M54.511,171.795c1.059,1.045,1.02,1.683-.028,2.717-5.807,5.711-11.56,11.472-17.279,17.272-.974.992-1.587,1.031-2.576.028-5.764-5.839-11.564-11.645-17.406-17.403-1.02-1.01-.921-1.651.032-2.597,5.835-5.768,11.628-11.582,17.438-17.371.365-.361.794-.652,1.229-1.01.429.347.769.57,1.052.854,5.842,5.839,11.66,11.706,17.537,17.509ZM43.695,179.253c1.917-1.686,1.998-4.794.145-6.827-2.26-2.487-4.584-4.921-6.816-7.433-.85-.957-1.414-.907-2.243.028-2.034,2.296-4.181,4.489-6.225,6.774-.62.691-1.166,1.495-1.555,2.338-.886,1.913-.131,4.393,1.562,5.491,1.672,1.084,3.709.772,5.254-.893.453-.485.719-1.141,1.073-1.722.28.244.563.485.843.726-.882,1.428-1.768,2.856-2.7,4.365h5.725c-.921-1.548-1.75-2.944-2.583-4.344.23-.131.464-.266.694-.397.205.28.397.574.627.833,1.97,2.207,4.422,2.622,6.196,1.059Z"/>
        <path class="cls-1" d="M57.087,38.668c-7.036,7.015-14.118,14.076-21.665,21.597-1.605-1.782-3.263-3.766-5.073-5.605-4.882-4.956-9.828-9.856-14.756-14.77-.673-.67-1.229-1.226-.276-2.172,6.618-6.565,13.204-13.165,19.808-19.748.241-.241.556-.407.645-.471,7.174,7.128,14.274,14.175,21.317,21.169ZM54.869,39.664c.797-.79.701-1.304-.028-2.03-5.938-5.913-11.854-11.84-17.76-17.785-.765-.772-1.314-.914-2.172-.046-5.846,5.917-11.716,11.801-17.64,17.64-1.042,1.031-.861,1.644.078,2.576,5.863,5.81,11.677,11.674,17.516,17.509.319.319.705.567,1.098.879.368-.301.655-.5.896-.74,6.002-6.002,11.989-12.025,18.012-18.001Z"/>
        <path class="cls-5" d="M45.133,39.136c.209,2.112-.709,3.904-2.501,4.648-2.097.868-4.042.5-5.672-1.166-.074-.078-.195-.106-.294-.159-.149.089-.301.181-.45.269l-.468-.205c.007-.014.011-.025.018-.039-.128-.089-.255-.174-.383-.262-.326.273-.659.539-.985.815-1.481,1.244-3.578,1.481-5.293.595-1.651-.854-2.6-2.551-2.437-4.358.174-1.931,1.484-3.352,3.461-4.032.496-.17,1.077-.818,1.166-1.325.5-2.948,2.094-4.503,4.762-4.45,2.569.057,4.099,1.633,4.496,4.489.067.461.514,1.148.896,1.236,2.158.496,3.461,1.725,3.685,3.943Z"/>
        <path class="cls-5" d="M45.144,128.863c.135,2.143-.701,3.72-2.406,4.517-2.136.996-4.003.549-5.637-1.102-.11-.113-.291-.159-.886-.011l-.471-.167c-.124-.096-.248-.191-.372-.283-1.63,1.573-3.405,2.558-5.704,1.693-1.732-.652-2.923-2.193-3.011-3.986-.096-1.899.921-3.667,2.735-4.322,1.251-.453,1.973-.918,2.129-2.462.234-2.285,2.505-3.901,4.655-3.741,2.455.181,4.035,1.814,4.379,4.326.071.531.563,1.275,1.035,1.438,2.005.709,3.412,1.832,3.554,4.099Z"/>
        <path class="cls-5" d="M44.29,83.45c1.509,1.786,1.049,4.91-.638,6.264-1.679,1.346-4.053,1.006-5.86-.854-.322-.333-.592-.712-.886-1.07-.205.138-.411.276-.62.415l-.684-.244-.882-.744c-.188.507-.252,1.116-.585,1.499-1.725,1.995-3.908,2.43-5.58,1.201-1.977-1.456-2.749-4.166-1.215-6.104,2.622-3.305,5.598-6.328,8.567-9.626,2.948,3.238,5.761,6.168,8.382,9.265Z"/>
        <path class="cls-5" d="M43.741-6.946c1.903,2.08,1.92,5.091.053,6.824-1.81,1.683-4.276,1.304-6.317-.985-.23-.255-.376-.588-.56-.882-.213.135-.425.273-.638.407l-.556.028c-.283-.237-.567-.475-.854-.712-.354.588-.624,1.261-1.084,1.754-1.555,1.662-3.557,1.949-5.254.84-1.548-1.01-2.374-3.373-1.637-5.18.393-.957,1.006-1.874,1.697-2.654,2.03-2.296,4.191-4.478,6.214-6.781.872-.992,1.431-.864,2.239.043,2.197,2.466,4.468,4.861,6.696,7.298Z"/>
        <path class="cls-1" d="M57.051,128.296c-7.011,7.029-14.076,14.111-21.098,21.151-6.987-7.047-14.033-14.154-21.041-21.218,6.94-6.887,14.033-13.927,21.073-20.914,6.972,6.948,14.062,14.009,21.066,20.981ZM55.62,128.31c-.255-.326-.439-.624-.68-.864-6.034-6.051-12.081-12.092-18.108-18.15-.634-.638-1.116-.68-1.757-.004-1.258,1.325-2.583,2.586-3.876,3.879-4.631,4.623-9.258,9.25-13.881,13.877-.634.634-1.353,1.194-.368,2.172,6.065,6.026,12.11,12.074,18.136,18.136.663.666,1.166.606,1.782-.014,6.002-6.009,12.01-12.007,18.012-18.016.28-.283.475-.645.74-1.017Z"/>
        <path class="cls-5" d="M39,2.857h-5.977c.949-1.552,1.825-2.98,2.7-4.411l.556-.028c.354.769.648,1.569,1.077,2.289.407.68.96,1.272,1.644,2.151Z"/>
        <path class="cls-5" d="M38.759,92.531h-5.938c.698-.903,1.293-1.545,1.732-2.278.432-.716.705-1.527,1.049-2.292l.684.244c.804,1.407,1.608,2.813,2.473,4.326Z"/>
        <path class="cls-5" d="M38.536,47.738h-5.098c.769-1.74,1.541-3.479,2.31-5.215l.468.205c.748,1.612,1.495,3.224,2.321,5.01Z"/>
        <path class="cls-5" d="M38.54,137.355c-.354.032-.641.074-.932.074-1.336.007-2.671.004-4.188.004.836-1.917,1.58-3.624,2.324-5.332l.471.167c.748,1.64,1.499,3.284,2.324,5.088Z"/>
        <path class="cls-1" d="M34.161,60.167c.273.283.482.631.755.992-.312.383-.539.719-.822,1.003-6.533,6.551-13.084,13.087-19.606,19.649-.694.698-1.183.726-1.892.014-6.565-6.604-13.141-13.197-19.759-19.752-.974-.967-.407-1.484.262-2.154,6.427-6.416,12.864-12.822,19.248-19.28.996-1.006,1.594-.74,2.445.117,5.52,5.573,11.079,11.107,16.623,16.655.914.918,1.842,1.825,2.746,2.756ZM32.435,62.112c.794-.787.748-1.254-.004-2.002-5.984-5.945-11.95-11.915-17.895-17.906-.758-.769-1.251-.762-2.012.007-5.902,5.948-11.826,11.872-17.782,17.768-.886.875-.833,1.428.032,2.285,5.952,5.892,11.858,11.83,17.782,17.75.28.276.616.5.996.804.411-.354.783-.631,1.105-.953,5.924-5.92,11.826-11.862,17.778-17.753Z"/>
        <path class="cls-1" d="M34.054,15.204c.701.701.918,1.222.103,2.03-6.7,6.643-13.371,13.318-20.053,19.978-.159.159-.376.262-.822.563-4.946-4.988-9.792-9.885-14.65-14.774-1.867-1.885-3.734-3.77-5.644-5.612-.801-.772-.861-1.329-.014-2.168C-.485,8.742,6.02,2.23,12.507-4.299c.744-.748,1.258-.804,2.03-.028,6.483,6.53,12.995,13.038,19.518,19.532ZM32.453,17.223c.946-.935.514-1.435-.198-2.143C26.526,9.383,20.825,3.658,15.107-2.05c-.485-.489-1.01-.935-1.449-1.339-.298.11-.436.12-.51.191C6.92,3.006.705,9.217-5.527,15.41c-.687.684-.514,1.176.103,1.771,1.399,1.35,2.763,2.739,4.135,4.117,4.857,4.889,9.711,9.782,14.657,14.763.443-.326.652-.439.811-.599,6.09-6.083,12.156-12.187,18.274-18.239Z"/>
        <path class="cls-1" d="M34.908,105.866c-.291.376-.503.723-.783,1.003-6.54,6.554-13.094,13.087-19.62,19.652-.787.794-1.311.673-2.037-.057-6.487-6.519-12.988-13.027-19.518-19.507-.829-.822-.787-1.36.025-2.165,6.483-6.434,12.946-12.893,19.376-19.38.84-.843,1.392-.967,2.289-.064,6.473,6.53,12.988,13.013,19.482,19.521.283.28.496.624.787.996ZM32.386,106.95c.843-.833.783-1.325-.039-2.136-5.956-5.888-11.879-11.808-17.764-17.768-.85-.861-1.332-.783-2.133.028-5.888,5.952-11.805,11.879-17.76,17.768-.857.843-.794,1.339.014,2.14,5.948,5.899,11.862,11.837,17.789,17.76.283.283.613.524,1.006.854.397-.312.787-.56,1.105-.879,5.927-5.924,11.833-11.869,17.782-17.768Z"/>
        <path class="cls-1" d="M34.788,150.907c-.287.326-.67.818-1.109,1.258-6.296,6.303-12.602,12.595-18.891,18.905-.726.73-1.258,1.304-2.282.269-6.508-6.59-13.07-13.126-19.613-19.688-.244-.244-.443-.531-.666-.804,7.199-7.203,14.26-14.271,21.254-21.271,7.011,7.018,14.079,14.097,21.307,21.332ZM32.287,151.909c.868-.857.928-1.399.014-2.289-3.631-3.536-7.199-7.139-10.77-10.735-2.608-2.625-5.187-5.279-7.986-8.127-6.565,6.604-12.832,12.921-19.121,19.217-.854.854-.216,1.329.333,1.878,5.878,5.881,11.769,11.752,17.619,17.665.85.857,1.371.946,2.271.032,5.842-5.917,11.73-11.791,17.64-17.64Z"/>
        <path class="cls-5" d="M32.255,15.08c.712.709,1.144,1.208.198,2.143-6.119,6.051-12.184,12.156-18.274,18.239-.159.159-.368.273-.811.599-4.946-4.981-9.8-9.874-14.657-14.763-1.371-1.378-2.735-2.767-4.135-4.117-.616-.595-.79-1.088-.103-1.771C.705,9.217,6.92,3.006,13.148-3.198c.074-.071.213-.081.51-.191.439.404.964.85,1.449,1.339,5.718,5.708,11.419,11.433,17.148,17.13ZM21.991,17.188c1.187-2.994,1.286-6.012-.875-8.701-1.481-1.839-3.947-1.952-5.587-.269-.687.705-1.222,1.562-1.998,2.572-.567-.765-.992-1.378-1.456-1.959-1.995-2.476-4.84-2.349-6.593.283-1.382,2.069-1.467,4.358-.875,6.632,1.144,4.429,4.358,7.164,8.134,9.321.422.241,1.222.22,1.651-.025,3.288-1.874,6.161-4.234,7.599-7.855Z"/>
        <path class="cls-5" d="M32.432,60.11c.751.748.797,1.215.004,2.002-5.952,5.892-11.854,11.833-17.778,17.753-.322.322-.694.599-1.105.953-.379-.305-.716-.528-.996-.804-5.924-5.92-11.83-11.858-17.782-17.75-.864-.857-.918-1.41-.032-2.285,5.956-5.895,11.879-11.819,17.782-17.768.762-.769,1.254-.776,2.012-.007,5.945,5.991,11.911,11.961,17.895,17.906ZM13.506,70.055c2.104-3.996,4.925-6.816,8.992-8.978-4.145-2.065-6.863-4.971-9.002-8.839-2.108,4.014-4.918,6.77-8.832,8.825,3.883,2.204,6.802,4.925,8.843,8.992Z"/>
        <path class="cls-5" d="M32.347,104.814c.822.811.882,1.304.039,2.136-5.948,5.899-11.854,11.844-17.782,17.768-.319.319-.709.567-1.105.879-.393-.329-.723-.57-1.006-.854-5.927-5.924-11.84-11.862-17.789-17.76-.808-.801-.872-1.297-.014-2.14,5.956-5.888,11.872-11.815,17.76-17.768.801-.811,1.283-.889,2.133-.028,5.885,5.959,11.808,11.879,17.764,17.768ZM20.301,109.643c2.42-2.859,3.249-6.271,1.793-9.92-.638-1.605-1.754-2.845-3.6-3.029-1.803-.184-2.983.85-3.89,2.278-.301.475-.624.935-1.109,1.662-.453-.726-.74-1.212-1.049-1.679-.882-1.339-1.977-2.395-3.716-2.278-1.86.124-3.245,1.261-3.642,2.905-.468,1.934-.804,4.131-.358,6.012,1.031,4.358,4.344,7.026,8.081,9.119.461.255,1.456.099,1.903-.248,1.941-1.513,4.018-2.962,5.587-4.822Z"/>
        <path class="cls-5" d="M32.301,149.621c.914.889.854,1.431-.014,2.289-5.91,5.849-11.798,11.723-17.64,17.64-.9.914-1.421.825-2.271-.032-5.849-5.913-11.741-11.784-17.619-17.665-.549-.549-1.187-1.024-.333-1.878,6.289-6.296,12.556-12.613,19.121-19.217,2.799,2.848,5.378,5.502,7.986,8.127,3.571,3.596,7.139,7.199,10.77,10.735ZM13.708,159.413c1.941-3.819,4.825-6.586,8.751-8.698-4.039-2.037-6.802-4.921-8.96-8.878-2.097,4.092-4.995,6.831-8.57,8.79,1.729,1.378,3.408,2.494,4.808,3.894,1.399,1.396,2.519,3.072,3.972,4.893Z"/>
        <path class="cls-1" d="M22.094,99.723c1.456,3.649.627,7.061-1.793,9.92-1.569,1.86-3.646,3.309-5.587,4.822-.446.347-1.442.503-1.903.248-3.738-2.094-7.05-4.762-8.081-9.119-.446-1.881-.11-4.078.358-6.012.397-1.644,1.782-2.781,3.642-2.905,1.74-.117,2.834.939,3.716,2.278.308.468.595.953,1.049,1.679.485-.726.808-1.187,1.109-1.662.907-1.428,2.087-2.462,3.89-2.278,1.846.184,2.962,1.424,3.6,3.029Z"/>
        <path class="cls-1" d="M21.116,8.487c2.161,2.689,2.062,5.708.875,8.701-1.438,3.621-4.312,5.98-7.599,7.855-.429.244-1.229.266-1.651.025-3.777-2.158-6.99-4.893-8.134-9.321-.592-2.275-.507-4.563.875-6.632,1.754-2.632,4.599-2.76,6.593-.283.464.581.889,1.194,1.456,1.959.776-1.01,1.311-1.867,1.998-2.572,1.64-1.683,4.106-1.569,5.587.269Z"/>
        <path class="cls-1" d="M22.459,150.715c-3.926,2.112-6.809,4.879-8.751,8.698-1.453-1.821-2.572-3.497-3.972-4.893-1.399-1.399-3.079-2.515-4.808-3.894,3.575-1.959,6.473-4.698,8.57-8.79,2.158,3.957,4.921,6.841,8.96,8.878Z"/>
        <path class="cls-1" d="M22.498,61.077c-4.067,2.161-6.887,4.981-8.992,8.978-2.041-4.067-4.96-6.788-8.843-8.992,3.915-2.055,6.724-4.811,8.832-8.825,2.14,3.869,4.857,6.774,9.002,8.839Z"/>
        <path class="cls-1" d="M11.302,171.771c.719.719,1.523,1.275.368,2.413-6.629,6.547-13.204,13.151-19.801,19.734-.198.198-.457.344-.84.627-2.37-2.338-4.719-4.634-7.043-6.955-4.336-4.333-8.616-8.726-13.009-13.002-1.205-1.169-1.095-1.856.039-2.976,6.296-6.204,12.545-12.457,18.752-18.752,1.031-1.042,1.616-1.077,2.668-.007,6.246,6.345,12.57,12.623,18.866,18.919ZM9.885,174.357c.942-.932.925-1.531-.007-2.448-5.874-5.814-11.702-11.674-17.551-17.512-.322-.322-.709-.588-1.176-.971-.446.372-.868.673-1.229,1.031-5.764,5.75-11.5,11.532-17.307,17.243-1.109,1.091-1.105,1.761.007,2.856,5.725,5.626,11.401,11.305,17.024,17.034,1.112,1.134,1.796,1.268,2.976.064,5.7-5.817,11.472-11.567,17.264-17.296Z"/>
        <path class="cls-1" d="M11.522,127.088c.818.808,1.017,1.378.085,2.299-6.54,6.469-13.027,12.992-19.539,19.489-.287.283-.631.507-.886.709-7.132-7.121-14.203-14.186-21.211-21.19,7.082-7.022,14.21-14.086,21.665-21.477,2.459,2.561,5.07,5.343,7.752,8.056,4.014,4.067,8.064,8.099,12.134,12.113ZM9.644,129.734c1.123-1.105,1.077-1.757-.021-2.838-5.842-5.747-11.628-11.55-17.381-17.385-.911-.925-1.431-.811-2.275.046-3.546,3.621-7.142,7.196-10.756,10.749-2.636,2.593-5.328,5.13-7.95,7.649.337.581.415.815.574.971,6.119,6.143,12.255,12.269,18.366,18.416.843.85,1.378.432,2.044-.234,5.778-5.81,11.553-11.628,17.399-17.374Z"/>
        <path class="cls-1" d="M11.575,82.31c.96.953.822,1.548-.078,2.437-6.409,6.345-12.79,12.719-19.128,19.135-.946.957-1.502.911-2.416-.011-6.352-6.406-12.733-12.786-19.16-19.117-1.038-1.024-.868-1.662.067-2.59,6.409-6.352,12.776-12.744,19.163-19.114.322-.322.716-.57,1.127-.896.39.305.733.521,1.017.801,6.466,6.452,12.914,12.928,19.408,19.355ZM9.984,84.538c.283-.283.514-.616.854-1.027-.368-.432-.677-.85-1.038-1.212-5.793-5.793-11.621-11.546-17.357-17.388-1.081-1.102-1.672-.992-2.675.025-5.715,5.789-11.458,11.543-17.261,17.24-1.109,1.091-.918,1.736.064,2.71,5.786,5.718,11.546,11.458,17.254,17.254.978.992,1.559,1.045,2.551.035,5.839-5.91,11.734-11.759,17.608-17.636Z"/>
        <path class="cls-1" d="M11.334,37.294c1.12,1.102,1.066,1.704-.053,2.806-6.232,6.115-12.365,12.329-18.536,18.504-.492.496-1.017.957-1.782,1.669-3.908-3.964-7.624-7.748-11.362-11.514-2.948-2.972-5.91-5.934-8.896-8.871-.808-.794-1.035-1.382-.096-2.313,6.632-6.551,13.215-13.155,19.815-19.737.167-.163.365-.291.737-.585,1.212,1.176,2.441,2.335,3.631,3.525C.305,26.286,5.779,31.831,11.334,37.294ZM10.778,38.707c-.315-.407-.563-.801-.882-1.123C4.021,31.696-1.87,25.826-7.73,19.923c-.825-.833-1.407-.974-2.31-.06-5.853,5.913-11.738,11.791-17.647,17.647-.861.854-.9,1.421-.004,2.306,5.952,5.888,11.865,11.812,17.76,17.757.737.744,1.215.857,2.012.057,5.938-5.987,11.922-11.932,17.884-17.899.283-.28.5-.627.811-1.024Z"/>
        <path class="cls-1" d="M11.274-7.587c1.18,1.148,1.123,1.786-.043,2.93C4.875,1.585-1.388,7.92-7.688,14.223c-.326.326-.684.62-1.166,1.059-.765-.712-1.506-1.36-2.197-2.051C-17.062,7.233-23.053,1.217-29.076-4.771c-.857-.85-1.343-1.499-.234-2.593,6.586-6.505,13.116-13.063,19.67-19.596.198-.198.464-.329.698-.492.149-.113.298-.23.446-.344,2.289,2.445,4.531,4.932,6.877,7.32C2.64-16.14,6.92-11.825,11.274-7.587ZM9.917-4.941c.843-.833.981-1.399.067-2.306C4.036-13.132-1.884-19.052-7.773-25c-.847-.857-1.414-.74-2.182.032-5.856,5.895-11.723,11.777-17.622,17.629-.932.925-.893,1.573.025,2.48C-21.728.898-15.946,6.701-10.143,12.483c.365.365.779.68,1.279,1.109.471-.39.893-.687,1.254-1.045C-1.768,6.715,4.053.866,9.917-4.941Z"/>
        <path class="cls-3" d="M9.984-7.247c.914.907.776,1.474-.067,2.306C4.053.866-1.768,6.715-7.61,12.547c-.361.358-.783.655-1.254,1.045-.5-.429-.914-.744-1.279-1.109C-15.946,6.701-21.728.898-27.553-4.859c-.918-.907-.957-1.555-.025-2.48,5.899-5.853,11.766-11.734,17.622-17.629.769-.772,1.336-.889,2.182-.032C-1.884-19.052,4.036-13.132,9.984-7.247ZM-1.863-1.182C-.134-2.152.521-3.722.401-5.628c-.117-1.775-1.371-3.305-3.196-3.802-.981-.266-1.392-.627-1.488-1.75-.22-2.565-2.168-4.209-4.606-4.191-2.317.014-4.422,1.686-4.478,3.894-.035,1.375-.599,1.786-1.757,2.119-1.864.528-2.877,1.995-2.958,3.933-.085,2.048.864,3.564,2.625,4.372C-13.154.005-11.301-.927-9.551-2.447c.135.106.269.213.4.319-.73,1.637-1.463,3.277-2.239,5.01h5.056c-.833-1.832-1.591-3.511-2.352-5.19.135-.103.269-.205.407-.308.372.333.733.68,1.116.999C-5.7-.413-3.578-.218-1.863-1.182Z"/>
        <path class="cls-3" d="M9.896,37.584c.319.322.567.716.882,1.123-.312.397-.528.744-.811,1.024-5.963,5.966-11.947,11.911-17.884,17.899-.797.801-1.275.687-2.012-.057-5.895-5.945-11.808-11.869-17.76-17.757-.896-.886-.857-1.453.004-2.306,5.91-5.856,11.794-11.734,17.647-17.647.903-.914,1.484-.772,2.31.06,5.86,5.902,11.752,11.773,17.626,17.661ZM-1.116,44.791c1.832-1.548,2.051-4.326.453-6.377-.723-.928-1.523-1.8-2.328-2.661-1.949-2.083-3.922-4.145-5.948-6.282-2.384,2.565-4.606,4.918-6.774,7.312-.744.822-1.499,1.69-1.995,2.668-1.006,1.973-.283,4.492,1.456,5.665,1.732,1.166,3.656.829,5.375-.932.39-.4.804-.776,1.208-1.159.159.106.322.216.482.322-.857,1.46-1.715,2.916-2.579,4.386h6.012c-.652-.829-1.265-1.495-1.729-2.25-.446-.723-.733-1.541-1.091-2.317.255-.191.514-.383.772-.574.248.464.415,1.01.765,1.385,1.895,2.041,4.124,2.324,5.92.811Z"/>
        <path class="cls-3" d="M10.838,83.511c-.34.411-.57.744-.854,1.027-5.874,5.878-11.769,11.727-17.608,17.636-.992,1.01-1.573.957-2.551-.035-5.708-5.796-11.468-11.536-17.254-17.254-.981-.974-1.173-1.619-.064-2.71,5.803-5.697,11.546-11.451,17.261-17.24,1.003-1.017,1.594-1.127,2.675-.025,5.736,5.842,11.564,11.596,17.357,17.388.361.361.67.779,1.038,1.212ZM-1.668,88.279c1.64-1.01,2.381-2.636,2.019-4.567-.443-2.391-2.097-3.564-4.475-3.887-.301-3.631-1.711-5.428-4.315-5.552-2.834-.135-4.836,1.134-5.222,5.552-2.182.354-3.901,1.378-4.347,3.72-.376,1.963.202,3.695,2.005,4.716,2.395,1.357,4.57.705,6.501-1.205.128.106.252.216.376.326-.755,1.715-1.509,3.43-2.257,5.137h5.038c-.818-1.835-1.559-3.504-2.303-5.176.12-.149.241-.301.361-.45,1.927,2.204,4.159,2.898,6.618,1.385Z"/>
        <path class="cls-3" d="M9.878,171.909c.932.918.949,1.516.007,2.448-5.793,5.729-11.564,11.479-17.264,17.296-1.18,1.205-1.864,1.07-2.976-.064-5.623-5.729-11.298-11.408-17.024-17.034-1.112-1.095-1.116-1.764-.007-2.856,5.807-5.711,11.543-11.493,17.307-17.243.361-.358.783-.659,1.229-1.031.468.383.854.648,1.176.971,5.849,5.839,11.677,11.699,17.551,17.512ZM-1.856,178.081c1.736-.974,2.445-2.554,2.236-4.453-.22-1.991-1.353-3.366-3.362-3.84-.872-.205-1.187-.599-1.286-1.541-.287-2.735-2.133-4.375-4.648-4.361-2.491.014-4.315,1.732-4.482,4.478-.071,1.205-.84,1.229-1.601,1.477-2.133.694-3.164,2.236-3.079,4.581.071,1.998,1.467,3.646,3.5,4.11,2.027.464,3.624-.383,5.013-1.853.145.11.291.216.439.326-.723,1.658-1.445,3.32-2.228,5.112h4.988c-.776-1.75-1.492-3.362-2.204-4.974.167-.085.337-.167.503-.252.259.22.51.443.769.655,1.608,1.311,3.663,1.531,5.442.535Z"/>
        <path class="cls-3" d="M9.623,126.897c1.098,1.081,1.144,1.732.021,2.838-5.846,5.747-11.621,11.564-17.399,17.374-.666.666-1.201,1.084-2.044.234-6.111-6.147-12.248-12.273-18.366-18.416-.159-.156-.237-.39-.574-.971,2.622-2.519,5.314-5.056,7.95-7.649,3.614-3.554,7.21-7.128,10.756-10.749.843-.857,1.364-.971,2.275-.046,5.754,5.835,11.539,11.638,17.381,17.385ZM-1.98,134.967c1.608-.631,2.384-2.09,2.296-3.653-.071-1.258-.563-2.696-1.35-3.67-1.995-2.473-4.255-4.733-6.423-7.068-.425-.461-.911-.868-1.484-1.41-1.251,1.318-2.399,2.491-3.511,3.699-1.559,1.69-3.146,3.359-4.616,5.127-1.591,1.906-1.375,4.903.34,6.416,1.771,1.566,4.184,1.244,6.065-.847.308-.34.478-.801.716-1.205.252.188.503.376.755.567-.808,1.435-1.612,2.87-2.445,4.344h5.623c-.953-1.541-1.817-2.941-2.685-4.34.188-.124.372-.248.556-.372.514.539.996,1.112,1.548,1.612,1.36,1.229,2.958,1.453,4.616.801Z"/>
        <path class="cls-5" d="M.351,83.713c.361,1.931-.379,3.557-2.019,4.567-2.459,1.513-4.691.818-6.618-1.385-.12.149-.241.301-.361.45l-.478.039c-.124-.11-.248-.22-.376-.326-1.931,1.91-4.106,2.561-6.501,1.205-1.803-1.02-2.381-2.753-2.005-4.716.446-2.342,2.165-3.366,4.347-3.72.386-4.418,2.388-5.686,5.222-5.552,2.604.124,4.014,1.92,4.315,5.552,2.377.322,4.032,1.495,4.475,3.887Z"/>
        <path class="cls-5" d="M.316,131.315c.089,1.562-.687,3.022-2.296,3.653-1.658.652-3.256.429-4.616-.801-.553-.5-1.035-1.073-1.548-1.612-.184.124-.368.248-.556.372l-.492-.004c-.252-.191-.503-.379-.755-.567-.237.404-.407.864-.716,1.205-1.881,2.09-4.294,2.413-6.065.847-1.715-1.513-1.931-4.51-.34-6.416,1.47-1.768,3.057-3.437,4.616-5.127,1.112-1.208,2.26-2.381,3.511-3.699.574.542,1.059.949,1.484,1.41,2.168,2.335,4.429,4.595,6.423,7.068.787.974,1.279,2.413,1.35,3.67Z"/>
        <path class="cls-5" d="M-.662,38.413c1.598,2.051,1.378,4.829-.453,6.377-1.796,1.513-4.025,1.229-5.92-.811-.351-.376-.517-.921-.765-1.385-.259.191-.517.383-.772.574l-.613.181c-.159-.106-.322-.216-.482-.322-.404.383-.818.758-1.208,1.159-1.718,1.761-3.642,2.097-5.375.932-1.74-1.173-2.462-3.692-1.456-5.665.496-.978,1.251-1.846,1.995-2.668,2.168-2.395,4.39-4.747,6.774-7.312,2.027,2.136,4,4.198,5.948,6.282.804.861,1.605,1.732,2.328,2.661Z"/>
      </g>
    </g>
  </g>
</svg>