<?xml version="1.0" encoding="UTF-8"?>
<svg id="Layer_2" data-name="Layer 2" xmlns="http://www.w3.org/2000/svg" xmlns:xlink="http://www.w3.org/1999/xlink" viewBox="0 0 101.992 755.726">
  <defs>
    <style>
      .cls-1 {
        clip-path: url(#clippath);
      }

      .cls-2 {
        fill: none;
      }

      .cls-2, .cls-3, .cls-4, .cls-5, .cls-6 {
        stroke-width: 0px;
      }

      .cls-3 {
        fill: #b96f3f;
      }

      .cls-4 {
        fill: #a5503b;
      }

      .cls-5 {
        fill: #d4a859;
      }

      .cls-6 {
        fill: #e49855;
      }
    </style>
    <clipPath id="clippath">
      <rect class="cls-2" width="101.992" height="755.726"/>
    </clipPath>
  </defs>
  <g id="Layer_1-2" data-name="Layer 1">
    <g class="cls-1">
      <g>
        <path class="cls-3" d="M521.45,587.269v5.315c-13.894-13.714-27.778-27.417-40.833-40.301-.744-.734-1.488-1.456-2.222-2.19-21.878,21.75-43.256,43.012-64.231,63.88,20.783,20.857,41.97,42.13,63.965,64.21.85-.882,1.712-1.775,2.562-2.658l2.094,2.126-.011.011c-2.062,2.03-1.977,3.54-.744,5.167l-1.945,1.828c-.446-.521-.882-1.042-1.329-1.541-22.622,22.58-43.969,43.884-66.655,66.527,5.879,5.315,11.906,10.769,17.923,16.222h-5.315c-4.763-5.039-9.525-10.078-14.203-15.021-5.698,5.496-10.631,10.259-15.563,15.021h-4.252c5.443-5.932,10.886-11.853,16.169-17.594-21.474-21.453-42.81-42.778-63.402-63.338-21.24,21.134-42.693,42.491-64.188,63.869,5.018,5.432,10.376,11.247,15.744,17.062h-4.252c-4.869-5.039-9.748-10.078-15.096-15.606-5.315,5.645-9.993,10.62-14.67,15.606h-5.315c5.719-5.879,11.439-11.747,16.68-17.126-21.782-21.91-42.948-43.182-63.763-64.103-1.021,1.01-2.03,2.03-3.051,3.04-20.209,20.166-40.588,40.524-62.349,62.232,5.772,5.156,11.821,10.556,17.87,15.957h-5.315c-4.667-4.922-9.323-9.833-13.841-14.596-1.159.478-1.754.553-2.094.893-4.635,4.539-9.227,9.121-13.831,13.703h-4.252c5.39-5.932,10.79-11.864,15.702-17.264-1.892-1.892-3.774-3.785-5.666-5.666-19.571-19.624-38.919-39.004-58.426-58.554-.181.106-.84.393-1.318.861-20.05,20.007-40.057,40.057-60.138,60.032-2.126,2.105-2.126,3.572-.011,5.687,4.837,4.858,9.461,9.918,14.181,14.904h-4.252c-4.082-4.114-8.037-8.388-12.364-12.225-1.084-.967-4.178-1.382-5.018-.606-4.359,4.018-8.303,8.505-12.385,12.831h-5.315c5.613-5.836,11.237-11.673,16.605-17.232-21.676-21.602-43.054-42.895-63.965-63.721-20.996,20.932-42.353,42.215-65.124,64.911,5.783,5.198,11.832,10.62,17.87,16.042h-5.315c-4.784-5.05-9.568-10.089-14.405-15.181-5.592,5.517-10.471,10.344-15.361,15.181h-4.252c5.432-5.932,10.865-11.864,15.999-17.466-21.538-21.474-42.895-42.746-64.008-63.784-20.964,20.932-42.3,42.246-63.827,63.742,5.23,5.666,10.695,11.587,16.159,17.509h-4.252c-4.975-4.954-9.961-9.897-15.404-15.308-4.996,5.326-9.685,10.312-14.362,15.308h-5.315c5.719-5.889,11.439-11.768,16.467-16.945-21.867-21.931-43.065-43.182-65.623-65.804-.659.882-1.318,1.85-2.009,2.838l-1.871-1.924.021-.021c2.498-2.403,2.541-4.146.074-6.517-7.229-6.963-14.33-14.075-21.474-21.123v-4.252c8.037,7.643,16.084,15.287,23.706,22.526.925.872,1.839,1.754,2.753,2.615,21.719-21.591,43.001-42.767,63.954-63.604-21.091-21.113-42.395-42.438-65.049-65.124-8.196,8.738-16.786,17.891-25.365,27.045v-5.315c7.633-8.271,15.266-16.541,23.451-25.397-7.218-6.921-15.34-14.681-23.451-22.441v-5.315c8.887,8.781,17.775,17.562,26.726,26.417,1.18-.861,1.956-1.286,2.562-1.892,19.901-19.869,39.727-39.812,59.723-59.575,3.253-3.21,1.052-4.763-.989-6.804-18.253-18.253-36.495-36.517-54.748-54.769-1.945-1.945-3.997-3.785-6.261-5.911-2.073,1.977-3.71,3.551-5.358,5.124-7.218,6.952-14.437,13.905-21.655,20.868v-4.252c6.974-6.963,13.841-14.043,20.974-20.836,2.838-2.7,2.902-4.571.053-7.282-7.133-6.804-14.033-13.841-21.028-20.783v-4.252c9.004,8.568,18.008,17.137,26.3,25.025,1.722-1.712,3.455-3.434,5.167-5.135,19.986-19.869,39.568-39.344,58.915-58.586-21.017-20.974-42.278-42.204-64.018-63.891-8.568,8.462-17.466,17.254-26.364,26.045v-5.315c7.558-8.334,15.128-16.658,21.825-24.036-6.612-7.218-14.224-15.51-21.825-23.802v-5.315c8.526,9.185,17.062,18.381,25.237,27.193,22.803-22.856,44.086-44.192,64.911-65.06-20.921-20.985-42.193-42.332-63.731-63.933-1.254,1.159-2.817,2.562-4.327,4.008-7.378,7.08-14.734,14.16-22.091,21.251v-4.252c7.006-6.952,13.947-13.969,21.059-20.804,2.732-2.626,2.923-4.656.053-7.378-7.154-6.782-14.086-13.799-21.113-20.719v-4.252c8.016,7.612,16.042,15.234,23.738,22.548.957.904,1.914,1.807,2.86,2.711,21.697-21.634,42.959-42.831,63.869-63.678-21.123-21.144-42.438-42.48-65.23-65.304-8.164,8.781-16.701,17.977-25.237,27.183v-5.315c7.622-8.26,15.234-16.52,23.164-25.11-2.955-3.136-6.687-7.091-10.407-11.035h5.315c7.154,10.652,8.643,10.811,16.999,1.754.457-.489.723-1.169,1.074-1.754h5.315c-3.699,3.987-7.41,7.984-11.29,12.162,1.031,1.286,1.807,2.445,2.775,3.423,19.359,19.39,38.791,38.706,58.065,58.193,2.796,2.817,4.401,2.169,6.836-.319,10.652-10.843,21.432-21.57,32.243-32.243,9.536-9.419,19.188-18.721,28.958-28.225-4.22-4.869-7.75-8.93-11.279-12.991h4.252q9.217,10.269,18.806.404c.128-.117.223-.276.33-.404h4.252c-3.519,4.061-7.048,8.122-9.993,11.524,21.495,21.548,42.704,42.799,63.582,63.731,20.879-20.932,42.076-42.172,63.508-63.667-3.359-3.614-7.08-7.601-10.79-11.587h5.315c2.36,2.562,4.582,5.305,7.186,7.601.776.691,3.179.744,3.912.074,2.551-2.317,4.688-5.081,6.974-7.675h5.315c-3.721,3.955-7.452,7.92-10.939,11.63C-35.62,29.348-14.391,50.535,7.062,71.956c.074-.032.819-.223,1.286-.702C28.504,51.12,48.617,30.953,68.784,10.818c1.977-1.977,1.637-3.487-.191-5.347-2.945-2.987-5.687-6.176-8.515-9.27h4.252c11.747,11.949,7.697,11.045,18.784.383.128-.117.234-.255.351-.383h4.252c-1.945,2.222-3.774,4.582-5.868,6.665-5.443,5.411-5.507,5.379-.298,10.599,16.127,16.159,32.275,32.307,48.434,48.434,3.593,3.593,7.271,7.101,10.546,10.291,19.773-19.773,39.174-39.164,58.798-58.788,1.871-1.86,3.742-3.731,5.624-5.613-3.466-3.678-7.197-7.633-10.928-11.587h5.315c7.24,10.62,8.749,10.78,17.009,1.754.457-.489.712-1.169,1.063-1.754h5.315c-3.699,3.987-7.399,7.973-10.588,11.417,1.563,1.573,3.136,3.147,4.699,4.72,19.869,19.964,39.536,39.727,59.096,59.383,20.9-20.953,42.087-42.183,63.465-63.614-3.296-3.785-6.825-7.845-10.365-11.906h4.252c11.598,11.896,7.856,10.939,18.806.404.128-.128.223-.276.33-.404h4.252c-3.529,4.061-7.059,8.132-10.695,12.332.957,1.127,1.669,2.126,2.53,2.987,19.486,19.507,39.057,38.94,58.426,58.575,3.359,3.402,5.039,1.297,7.25-.925,18.986-19.018,37.994-38.015,56.981-57.034,1.084-1.095,2.009-2.36,3.179-3.742-3.944-4.231-7.654-8.218-11.364-12.193h5.315c2.36,2.573,4.571,5.326,7.165,7.633.765.68,3.147.702,3.891.021,2.551-2.317,4.709-5.071,7.016-7.654h5.315c-3.742,3.955-7.484,7.92-12.587,13.32.468.383.925.755,1.393,1.116l-1.786,1.807c-.085-.074-.17-.159-.255-.245-21.889,21.729-43.299,42.969-64.337,63.848,20.804,20.868,42.002,42.119,63.476,63.667.84-.755,1.797-1.563,2.743-2.434.319-.298.627-.595.936-.893,8.037-7.994,15.999-16.063,24.089-24.004,5.273-5.156,10.726-10.142,16.095-15.191v4.252c-12.799,12.714-25.535,25.492-38.441,38.1-2.881,2.817-1.914,4.667.425,6.974,12.704,12.576,25.354,25.227,38.015,37.845v4.252c-1.361-1.063-2.849-1.988-4.061-3.2-11.556-11.481-23.047-23.026-34.582-34.529-1.722-1.722-3.572-3.317-4.922-4.561-21.644,21.634-42.98,42.948-63.784,63.731,21.006,21.113,42.289,42.502,64.922,65.241.074-.085.159-.159.234-.245l1.669,1.605c-.202.202-.138.659-.202.999-.383.383-.765.765-1.148,1.159,1.254.978,2.551,1.892,3.816,2.849l-1.967,1.956-.149-.149c-2.923-2.977-4.678-3.008-7.654.011-19.029,19.284-38.186,38.441-57.491,57.448-3.157,3.115-2.615,4.816.234,7.633l.191.191c18.944,18.731,37.718,37.633,56.566,56.47,1.223,1.223,2.583,2.328,4.284,3.848,14.819-14.809,29.426-29.405,44.043-43.99v5.315c-12.651,12.619-25.227,25.322-38.005,37.824-2.828,2.764-2.838,4.497,0,7.271,12.778,12.502,25.354,25.195,38.005,37.824v5.315c-14.575-14.638-29.139-29.277-42.799-43.001-.808.808-1.616,1.605-2.424,2.403-21.07,20.921-41.662,41.343-61.818,61.35,20.868,20.815,42.13,42.013,63.806,63.635,14.171-14.064,28.703-28.501,43.235-42.927v5.315c-1.339,1.106-2.775,2.126-4.008,3.349-10.769,10.684-21.485,21.41-32.232,32.126-5.347,5.326-5.4,5.369.096,10.801,12.013,11.885,24.089,23.717,36.144,35.581ZM471.709,414.977c2.466-2.456,2.201-4.21-.191-6.58-19.316-19.21-38.579-38.473-57.757-57.82-2.775-2.807-4.646-2.658-7.346.149-8.239,8.526-16.701,16.839-25.11,25.205-11.779,11.726-23.579,23.43-35.528,35.305.68,1.212.85,1.754,1.201,2.105,20.007,20.039,40.078,40.035,60.01,60.138,2.636,2.658,4.412,1.903,6.591-.287,19.359-19.433,38.717-38.855,58.129-58.214ZM410.072,609.54c21.091-21.038,42.353-42.236,63.433-63.253-21.028-21.017-42.257-42.246-62.796-62.774-21.23,21.091-42.597,42.342-63.178,62.785,20.73,20.953,41.842,42.3,62.541,63.242ZM472.879,142.203c-20.602-20.613-41.715-41.757-62.636-62.7-20.964,21.155-42.087,42.48-63.061,63.657,20.634,20.751,41.789,42.034,62.264,62.626,21.144-21.198,42.427-42.523,63.433-63.582ZM410.189,340.583c20.932-20.943,42.14-42.172,62.562-62.615-21.102-21.389-42.278-42.842-62.679-63.508-21.038,20.911-42.31,42.066-63.168,62.806,21.006,21.006,42.236,42.257,63.285,63.317ZM409.987,744.147c21.038-20.953,42.289-42.119,63.231-62.966-21.283-21.325-42.459-42.544-63.125-63.253-21.006,20.932-42.332,42.204-63.072,62.87,20.921,21.038,42.066,42.321,62.966,63.348ZM406.596,344.198c-.425-.563-.967-1.456-1.69-2.179-19.635-19.667-39.334-39.259-58.873-59-2.86-2.902-4.571-1.967-6.91.393-12.183,12.321-24.408,24.61-36.729,36.793-8.016,7.92-16.244,15.627-23.823,22.899,22.314,22.229,43.682,43.512,64.592,64.348,20.741-20.677,41.991-41.874,63.433-63.253ZM391.958,494.644c5.081-5.081,10.131-10.184,14.724-14.819-21.697-21.772-42.884-43.044-63.487-63.721-21.155,21.091-42.523,42.374-64.061,63.837.202.255.67,1.021,1.276,1.626,19.635,19.646,39.334,39.238,58.884,58.958,2.923,2.945,4.731,2.264,7.325-.361,15.042-15.244,30.223-30.351,45.34-45.521ZM405.714,210.389c-20.974-21.017-42.363-42.448-62.753-62.87-20.985,20.804-42.395,42.023-63.168,62.604,20.879,21.028,42.044,42.353,63.008,63.465,21.081-21.176,42.374-42.565,62.913-63.2ZM342.472,676.599c21.272-21.102,42.682-42.342,63.136-62.636-21.006-21.102-42.278-42.48-63.231-63.529-20.879,20.847-42.14,42.076-63.146,63.051,21.187,21.144,42.544,42.459,63.242,63.115ZM343.024,139.408c20.943-21.038,42.108-42.321,63.274-63.582-21.113-21.155-42.417-42.502-63.253-63.37-21.134,21.091-42.491,42.395-63.508,63.37,20.985,21.017,42.289,42.353,63.487,63.582ZM340.473,412.458c-2.339-2.541-3.699-4.146-5.177-5.624-18.519-18.529-37.133-36.963-55.514-55.631-3.306-3.359-5.177-3.296-8.451.032-18.88,19.157-37.93,38.143-57.066,57.034-2.647,2.615-2.838,4.22-.181,6.846,19.369,19.188,38.675,38.409,57.842,57.789,3.083,3.125,4.901,2.615,7.686-.245,10.376-10.652,20.921-21.134,31.499-31.584,9.557-9.44,19.242-18.753,29.362-28.618ZM339.399,142.363c-.5-.585-1.233-1.563-2.084-2.413-19.497-19.561-39.068-39.057-58.469-58.713-2.934-2.977-4.571-1.797-6.867.51-19.114,19.22-38.239,38.419-57.512,57.48-2.87,2.838-2.658,4.561.096,7.282,19.252,19.072,38.366,38.281,57.544,57.427,1.084,1.084,2.36,1.977,3.221,2.69,21.495-21.559,42.672-42.81,64.071-64.263ZM338.411,681.659c-21.208-21.336-42.438-42.693-63.806-64.188.298-.17-.053-.053-.298.191-20.092,19.986-40.12,40.025-60.297,59.925-3.019,2.977-1.595,4.624.67,6.878,19.199,19.125,38.313,38.324,57.48,57.48,1.074,1.074,2.339,1.945,3.423,2.838,21.432-21.538,42.502-42.704,62.828-63.125ZM338.623,277.171c-20.815-20.996-41.938-42.289-62.732-63.253-21.198,21.208-42.512,42.533-63.327,63.359,20.9,20.974,42.066,42.225,62.87,63.104,21.081-21.091,42.395-42.406,63.189-63.21ZM338.74,546.234c-20.847-20.9-42.034-42.151-62.881-63.061-21.144,21.091-42.47,42.363-62.944,62.796,20.9,21.102,42.098,42.502,62.817,63.433,20.921-20.974,42.108-42.215,63.008-63.168ZM272.075,344.102c-.17-.276-.446-.946-.925-1.414-20.007-20.05-40.078-40.025-60-60.149-2.902-2.923-4.476-1.212-6.463.776-10.471,10.535-20.943,21.07-31.478,31.541-9.759,9.716-19.592,19.348-29.213,28.841,21.889,21.814,43.246,43.086,64.167,63.933,21.187-21.059,42.47-42.215,63.912-63.529ZM270.289,616.461c3.168-3.136,1.18-4.773-.914-6.867-18.891-18.87-37.76-37.76-56.662-56.64-1.318-1.318-2.775-2.509-3.274-2.955-21.772,21.772-43.097,43.097-63.944,63.933,20.687,20.836,41.842,42.151,63.136,63.593.415-.287,1.063-.606,1.541-1.084,20.028-19.996,39.993-40.067,60.117-59.978ZM257.351,494.888c5.103-5.092,10.322-10.057,14.862-14.468-21.931-22.048-43.171-43.405-64.146-64.497-20.932,20.826-42.193,41.981-63.901,63.572.989,1.084,1.882,2.158,2.87,3.147,19.125,19.146,38.334,38.207,57.31,57.502,3.21,3.264,5.028,2.923,8.026-.128,14.883-15.149,29.936-30.127,44.979-45.127ZM208.11,273.28c21.123-21.091,42.438-42.385,63.582-63.508-20.836-20.857-42.055-42.087-62.987-63.04-21.166,21.208-42.459,42.555-63.391,63.54,20.847,20.911,42.14,42.289,62.796,63.008ZM271.682,75.156c-20.889-20.911-42.108-42.151-63.061-63.115-21.187,21.187-42.533,42.544-63.306,63.317,21.219,21.304,42.406,42.587,62.828,63.093,21.028-20.943,42.395-42.225,63.54-63.295ZM202.348,146.466c3.253-3.21,2.062-5.23-.563-7.845-19.061-18.955-38.037-37.994-57.066-56.981-1.074-1.074-2.339-1.956-3.54-2.945-.925.68-1.552,1.021-2.03,1.51-19.901,19.901-39.727,39.865-59.723,59.66-3.136,3.104-1.35,4.699.808,6.846,16.191,16.116,32.371,32.222,48.444,48.444,3.955,3.987,7.495,8.398,11.237,12.629,2.147-1.531,2.626-1.786,2.987-2.147,19.805-19.741,39.546-39.536,59.447-59.171ZM205.027,411.809c-.967-1.254-1.701-2.445-2.668-3.412-19.252-19.273-38.579-38.483-57.767-57.831-2.87-2.902-4.614-2.477-7.293.245-18.901,19.114-37.877,38.154-57.002,57.034-3.168,3.125-3.136,4.954,0,8.047,19.242,19.008,38.334,38.186,57.395,57.385,2.317,2.349,3.955,2.807,6.506.245,19.305-19.475,38.728-38.834,58.097-58.246.967-.967,1.712-2.158,2.732-3.466ZM202.04,684.636c2.881-2.86,3.125-4.848.096-7.814-12.257-12.002-24.419-24.11-36.421-36.357-7.899-8.069-15.468-16.446-23.324-24.833-2.445,1.967-3.189,2.456-3.806,3.062-19.656,19.635-39.27,39.323-59.011,58.873-2.892,2.86-1.871,4.561.489,6.91,16.68,16.595,33.264,33.295,49.911,49.932,3.583,3.593,7.293,7.059,11.003,10.641,1.265-.978,2.169-1.531,2.902-2.264,19.38-19.39,38.706-38.834,58.161-58.15ZM139.595,342.125c22.633-22.569,43.884-43.756,64.996-64.805-21.123-20.985-42.427-42.13-63.965-63.519-.255.191-1.201.691-1.935,1.414-19.816,19.752-39.568,39.557-59.436,59.256-2.86,2.838-1.191,4.507.829,6.517,14.787,14.745,29.628,29.447,44.277,44.319,5.432,5.517,10.407,11.471,15.234,16.818ZM141.19,609.721c21.07-21.123,42.257-42.374,63.295-63.465-21.017-20.932-42.289-42.108-63.21-62.955-21.113,20.964-42.406,42.087-63.231,62.753,21.028,21.198,42.172,42.523,63.146,63.667ZM138.064,344.804c-.819-1.095-1.446-2.126-2.264-2.977-2.711-2.796-5.485-5.517-8.239-8.271-16.637-16.648-33.317-33.253-49.879-49.975-2.551-2.583-4.348-3.37-7.335-.351-19.157,19.38-38.473,38.6-57.757,57.852-1.999,2.009-3.71,3.561-.787,6.463,19.858,19.667,39.589,39.451,59.288,59.266,2.137,2.137,3.593,2.052,5.677-.043,19.571-19.688,39.227-39.302,58.841-58.958.84-.85,1.531-1.86,2.456-3.008ZM135.789,213.004c2.445-2.424,1.797-3.997-.308-6.091-19.571-19.486-39.11-39.015-58.565-58.607-2.317-2.328-3.859-2.158-6.091.085-19.465,19.592-38.983,39.132-58.597,58.575-2.551,2.519-2.371,4.189.043,6.506,5.719,5.528,11.322,11.184,16.924,16.828,14.575,14.681,29.118,29.373,43.958,44.341,1.339-.904,1.988-1.212,2.466-1.69,20.06-19.986,40.067-40.014,60.17-59.947ZM135.704,481.961c.84-.84,1.467-1.882,2.339-3.008-.872-1.116-1.51-2.147-2.349-2.987-19.497-19.529-39.047-38.983-58.469-58.575-2.69-2.721-4.348-2.349-6.867.191-19.295,19.465-38.675,38.845-58.139,58.15-2.434,2.413-2.562,4.029-.074,6.495,19.592,19.444,39.1,38.972,58.565,58.533,2.179,2.19,3.753,2.551,6.113.17,19.582-19.699,39.259-39.312,58.884-58.969ZM134.854,79.461c1.095-1.095,2.041-2.339,2.838-3.253-21.591-21.57-42.916-42.874-64.029-63.954-20.996,20.932-42.246,42.098-63.976,63.752,1.541,1.605,2.838,3.03,4.199,4.39,18.646,18.668,37.378,37.239,55.864,56.066,3.434,3.498,5.305,2.945,8.441-.234,18.784-19.029,37.76-37.856,56.662-56.768ZM134.354,617.864c1.318-1.308,2.466-2.785,3.327-3.763-21.676-21.708-42.895-42.948-63.933-64.008-20.974,21.006-42.172,42.215-63.763,63.827.659.819,1.265,1.68,1.988,2.413,19.635,19.688,39.323,39.302,58.862,59.075,3.062,3.104,4.656,1.382,6.836-.808,18.87-18.933,37.792-37.813,56.683-56.736ZM68.327,683.945c3.455-3.412,1.042-5.092-1.106-7.24-18.901-18.891-37.867-37.728-56.619-56.779-3.157-3.2-4.911-3.094-7.994.032-18.625,18.891-37.388,37.654-56.279,56.268-3.402,3.359-3.721,5.422-.117,8.93,13.182,12.831,26.024,26.013,39.036,39.015,6.974,6.963,14.022,13.852,21.144,20.868,1.148-.85,1.914-1.286,2.509-1.882,19.805-19.752,39.525-39.568,59.426-59.213ZM68.125,549.53c2.807-2.764,2.201-4.476-.255-6.899-12.204-12.045-24.366-24.142-36.41-36.346-8.037-8.143-15.882-16.488-23.26-24.174-22.367,22.176-43.756,43.373-65.007,64.443,21.028,21.006,42.257,42.215,63.646,63.582.765-.606,1.797-1.276,2.658-2.126,19.539-19.497,39.004-39.068,58.628-58.48ZM67.795,415.583c2.7-2.668,3.115-4.454.234-7.314-19.475-19.284-38.823-38.717-58.235-58.076-.85-.84-1.882-1.488-3.051-2.403-1.233.967-2.413,1.722-3.37,2.69-19.178,19.114-38.281,38.292-57.512,57.353-2.807,2.785-3.317,4.688-.202,7.771,19.284,18.997,38.43,38.143,57.491,57.363,2.743,2.764,4.412,2.892,7.25.032,19.018-19.252,38.164-38.377,57.395-57.416ZM67.147,281.615c3.359-3.306,3.519-5.113.159-8.42-16.669-16.393-33.093-33.03-49.624-49.56-3.583-3.583-7.261-7.048-10.907-10.588-1.116.893-1.712,1.276-2.201,1.765-19.816,19.752-39.568,39.568-59.458,59.224-2.828,2.796-2.137,4.561.276,6.942,8.962,8.813,17.849,17.7,26.704,26.619,11.205,11.3,22.356,22.654,34.082,34.55,2.296-2.137,3.87-3.529,5.347-5.007,18.519-18.529,36.92-37.176,55.62-55.524ZM66.998,147.317c3.498-3.434,3.668-5.347.128-8.792-13.065-12.714-25.907-25.663-38.675-38.675-7.038-7.165-13.777-14.628-20.645-21.963-.446.34-.893.691-1.339,1.031-.702.489-1.499.882-2.094,1.478-19.667,19.603-39.259,39.28-59.011,58.798-3.327,3.285-1.882,5.23.691,7.782C-35.876,164.943-17.888,182.994.141,200.991c2.084,2.073,4.295,4.018,6.591,6.155,1.446-1.318,2.519-2.201,3.508-3.179,18.891-18.912,37.686-37.92,56.757-56.651ZM3.511,344.017c-.691-.787-1.329-1.616-2.073-2.349-19.273-19.284-38.643-38.473-57.778-57.884-3.338-3.391-5.241-3.147-8.451.106-18.774,19.061-37.76,37.909-56.672,56.842-1.106,1.106-2.105,2.317-2.7,2.966,21.538,21.591,42.821,42.948,63.933,64.114,20.836-20.857,42.076-42.108,63.742-63.795ZM-7.524,491.114c3.848-3.806,8.164-7.123,11.673-10.163-22.612-22.739-43.862-44.117-65.304-65.687-.457.372-1.18.861-1.786,1.467-19.784,19.741-39.504,39.546-59.394,59.192-2.998,2.966-1.68,4.592.595,6.857,19.072,18.965,38.154,37.92,57.023,57.087,3.285,3.338,5.167,3.327,8.43,0,16.106-16.393,32.402-32.604,48.763-48.752ZM-60.581,273.599c20.953-20.996,42.268-42.342,62.551-62.679-20.996-21.23-42.278-42.746-63.115-63.827-20.847,20.847-42.044,42.055-62.944,62.955,21.113,21.134,42.427,42.459,63.508,63.55ZM-60.199,139.046c20.826-20.879,42.034-42.13,62.764-62.913C-18.792,54.787-40.117,33.473-60.55,13.051c-20.879,20.772-42.225,42.023-63.008,62.7,20.943,20.921,42.246,42.193,63.359,63.295ZM2.352,613.825c-21.017-21.134-42.3-42.502-62.806-63.115-21.038,20.9-42.417,42.13-63.614,63.189,20.911,20.9,42.119,42.098,62.966,62.934,21.378-21.23,42.778-42.48,63.455-63.008ZM-65.971,145.69c2.87-2.838,1.212-4.465-.819-6.485-19.178-19.135-38.377-38.249-57.438-57.502-2.764-2.785-4.465-2.881-7.282-.021-19.029,19.263-38.239,38.356-57.363,57.523-1.095,1.095-2.02,2.349-2.775,3.242,21.432,21.485,42.608,42.735,63.997,64.178.478-.255.84-.372,1.084-.606,20.188-20.113,40.344-40.269,60.595-60.329ZM-66.96,684.668c3.349-3.296,2.679-5.135-.266-8.047-18.891-18.689-37.633-37.516-56.438-56.29-1.329-1.318-2.807-2.477-4.093-3.593-21.548,21.548-42.693,42.682-63.625,63.614,21.368,21.453,42.544,42.725,63.976,64.241.936-.819,2.169-1.797,3.264-2.892,19.05-19.029,37.994-38.154,57.183-57.034ZM-127.884,340.551c21.134-21.017,42.406-42.172,63.54-63.189-21.144-20.953-42.448-42.076-63.402-62.838-20.9,20.815-42.236,42.044-62.955,62.679,20.889,21.059,42.023,42.374,62.817,63.348ZM-64.717,412.298c-21.24-21.41-42.332-42.682-63.604-64.124-.266.191-.904.5-1.393.978-19.922,19.848-39.791,39.748-59.787,59.521-2.923,2.881-1.69,4.603.617,6.889,14.564,14.458,29.011,29.022,43.533,43.512,5.709,5.698,11.513,11.29,17.158,16.818,21.719-21.761,42.906-42.98,63.476-63.593ZM-64.281,546.351c-21.07-21.059-42.3-42.289-63.274-63.253-21.272,21.208-42.512,42.385-63.072,62.881,20.953,21.134,42.161,42.523,62.966,63.508,21.028-20.943,42.289-42.119,63.38-63.136ZM-131.393,344.081c-.106-.17-.404-.819-.872-1.297-20.007-20.039-40.046-40.046-60.021-60.127-2.126-2.147-3.625-2.041-5.687.074-5.666,5.836-11.513,11.513-17.275,17.254-14.638,14.607-29.288,29.213-43.469,43.363,21.75,21.921,42.991,43.341,63.763,64.284,20.911-20.9,42.14-42.13,63.561-63.55ZM-140.025,488.765c3.104-3.072,6.74-5.602,9.748-8.069-22.558-22.612-43.777-43.862-64.773-64.911-21.272,21.272-42.533,42.523-63.954,63.944.287.361.765,1.095,1.371,1.701,19.635,19.656,39.312,39.27,58.873,59,2.785,2.817,4.614,2.594,7.325-.159,17.041-17.264,34.188-34.422,51.41-51.506ZM-195.4,676.365c21.144-20.911,42.587-42.098,63.115-62.392-21.006-21.176-42.246-42.587-63.04-63.55-20.932,20.9-42.193,42.119-62.87,62.774,21.304,21.421,42.555,42.799,62.796,63.168ZM-131.616,75.836c-21.049-21.006-42.31-42.225-63.593-63.455-20.974,20.953-42.31,42.289-63.412,63.37,21.113,21.113,42.438,42.448,63.476,63.487,21.134-21.091,42.48-42.395,63.529-63.402ZM-194.815,273.004c20.9-20.815,42.172-42.002,63.274-63.019-21.113-21.07-42.47-42.374-63.625-63.476-21.038,21.07-42.363,42.417-62.881,62.944,21.113,21.219,42.47,42.693,63.231,63.55ZM-198.026,412.521c-.765-1.318-.936-1.85-1.297-2.211-19.996-20.06-40.057-40.067-59.989-60.202-2.679-2.7-4.433-1.765-6.58.393-19.369,19.412-38.728,38.834-58.193,58.161-2.264,2.254-2.424,3.859-.149,6.113,19.454,19.348,38.898,38.696,58.203,58.193,3.104,3.125,5.028,2.424,7.76-.361,12.151-12.374,24.451-24.621,36.74-36.867,7.76-7.739,15.595-15.404,23.505-23.217ZM-198.472,680.373c-.542-.68-1.233-1.69-2.084-2.53-19.507-19.55-39.089-39.025-58.522-58.65-2.605-2.636-4.242-2.073-6.495.202-19.624,19.699-39.312,39.344-58.947,59.022-.702.702-1.084,1.701-1.584,2.488,21.41,21.315,42.597,42.406,63.689,63.391,21.304-21.293,42.523-42.502,63.944-63.922ZM-263.32,207.327c22.208-22.176,43.426-43.373,64.093-64.008-21.081-21.144-42.342-42.47-63.731-63.922-.213.159-.85.5-1.339.989-19.933,19.869-39.833,39.791-59.819,59.606-2.488,2.466-1.669,4.061.415,6.102,6.942,6.825,13.809,13.735,20.634,20.677,13.278,13.49,26.502,27.034,39.748,40.556ZM-199.599,546.66c-20.826-21.091-41.928-42.448-62.445-63.221-21.134,21.07-42.47,42.321-63.242,63.019,20.889,21.038,42.044,42.321,62.657,63.072,21.219-21.155,42.555-42.438,63.03-62.87ZM-262.278,340.626c21.123-21.176,42.342-42.427,63.04-63.157-20.996-21.123-42.246-42.502-63.083-63.465-21.123,21.006-42.438,42.183-63.508,63.136,21.144,21.123,42.385,42.342,63.55,63.487Z"/>
        <path class="cls-4" d="M201.785,138.621c2.626,2.615,3.816,4.635.563,7.845-19.901,19.635-39.642,39.429-59.447,59.171-.361.361-.84.617-2.987,2.147-3.742-4.231-7.282-8.643-11.237-12.629-16.074-16.222-32.254-32.328-48.444-48.444-2.158-2.147-3.944-3.742-.808-6.846,19.996-19.794,39.823-39.759,59.723-59.66.478-.489,1.106-.829,2.03-1.51,1.201.989,2.466,1.871,3.54,2.945,19.029,18.986,38.005,38.026,57.066,56.981ZM197.118,146.562c.967-.967,1.765-2.126,2.955-3.572-1.446-1.754-2.626-3.466-4.072-4.911-16.999-17.052-34.103-33.986-50.985-51.144-3.242-3.296-5.209-2.711-8.143.266-17.169,17.381-34.422,34.677-51.825,51.835-3.03,2.977-2.913,4.837.011,7.739,17.488,17.307,34.869,34.741,52.186,52.229,2.636,2.668,4.465,3.136,7.367.202,17.413-17.636,34.996-35.103,52.505-52.643Z"/>
        <path class="cls-4" d="M202.359,408.397c.967.967,1.701,2.158,2.668,3.412-1.021,1.308-1.765,2.498-2.732,3.466-19.369,19.412-38.791,38.77-58.097,58.246-2.551,2.562-4.189,2.105-6.506-.245-19.061-19.199-38.154-38.377-57.395-57.385-3.136-3.094-3.168-4.922,0-8.047,19.125-18.88,38.1-37.92,57.002-57.034,2.679-2.721,4.422-3.147,7.293-.245,19.188,19.348,38.515,38.558,57.767,57.831ZM197.15,415.647c2.679-2.647,3.062-4.539.181-7.388-17.732-17.541-35.336-35.198-52.909-52.888-2.36-2.392-3.955-2.615-6.485-.064-17.668,17.849-35.443,35.581-53.271,53.249-2.349,2.328-2.796,3.944-.223,6.485,17.977,17.785,35.826,35.687,53.749,53.536.829.829,1.882,1.456,3.051,2.349,1.233-1.042,2.36-1.85,3.338-2.817,17.519-17.488,34.986-35.039,52.569-52.463Z"/>
        <path class="cls-4" d="M202.135,676.822c3.03,2.966,2.785,4.954-.096,7.814-19.454,19.316-38.781,38.76-58.161,58.15-.734.734-1.637,1.286-2.902,2.264-3.71-3.583-7.42-7.048-11.003-10.641-16.648-16.637-33.232-33.338-49.911-49.932-2.36-2.349-3.381-4.05-.489-6.91,19.741-19.55,39.355-39.238,59.011-58.873.617-.606,1.361-1.095,3.806-3.062,7.856,8.388,15.425,16.765,23.324,24.833,12.002,12.247,24.164,24.355,36.421,36.357ZM196.778,684.933c3.147-3.104,3.274-5.018.096-8.154-17.647-17.413-35.092-35.018-52.633-52.537-.85-.85-1.871-1.52-3.157-2.562-1.308,1.063-2.594,1.945-3.678,3.03-17.445,17.371-34.816,34.816-52.324,52.122-2.87,2.828-3.168,4.763-.096,7.782,17.519,17.286,34.922,34.709,52.218,52.229,2.977,3.008,4.805,2.892,7.729-.085,17.158-17.402,34.433-34.688,51.846-51.825Z"/>
        <path class="cls-4" d="M197.692,11.765l1.637,1.637c-19.624,19.624-39.025,39.015-58.798,58.788-3.274-3.189-6.952-6.697-10.546-10.291-16.159-16.127-32.307-32.275-48.434-48.434-5.209-5.22-5.145-5.188.298-10.599,2.094-2.084,3.923-4.444,5.868-6.665h5.315c-2.753,2.955-5.369,6.049-8.303,8.823-2.424,2.296-2.7,4.029-.159,6.538,17.828,17.679,35.581,35.432,53.26,53.26,2.371,2.381,4.072,2.679,6.559.17,17.7-17.806,35.464-35.56,53.302-53.228Z"/>
        <path class="cls-6" d="M198.149,543.694c.734.734,1.286,1.626,2.041,2.605-.797,1.106-1.382,2.201-2.222,3.051-17.998,18.03-36.038,36.027-54.036,54.057-1.86,1.86-3.359,2.041-5.347.043-18.093-18.189-36.229-36.336-54.419-54.419-2.966-2.934-.797-4.614,1.095-6.517,13.884-13.884,27.767-27.767,41.651-41.641,3.88-3.88,7.856-7.665,11.63-11.641,1.935-2.03,3.37-1.903,5.283.011,18.083,18.179,36.219,36.304,54.323,54.451ZM161.537,561.511c5.113-2.392,7.622-7.123,7.218-13.554-.425-6.804-4.635-10.174-10.663-12.3-1.414-.489-2.892-2.721-3.104-4.316-1.031-7.537-5.772-12.438-13.14-12.98-6.442-.478-13.267,4.369-13.958,11.226-.478,4.635-2.647,6.028-6.4,7.388-5.443,1.967-8.483,7.271-8.207,12.969.266,5.379,3.838,10.004,9.036,11.96,6.899,2.594,12.225-.361,17.115-5.092.372.287.744.574,1.116.85-2.232,5.135-4.465,10.259-6.963,16.01,4.539,0,8.547.011,12.555-.011.872,0,1.743-.128,2.796-.223-2.477-5.411-4.731-10.344-6.974-15.266,1.786-.446,2.328-.308,2.658.032,4.901,4.954,10.503,6.293,16.913,3.306Z"/>
        <path class="cls-6" d="M197.851,274.205c2.19,2.19,2.488,3.731.096,6.102-18.083,17.934-36.049,36.006-54.057,54.015-.723.723-1.584,1.318-2.69,2.222-1.169-.936-2.339-1.68-3.296-2.636-17.509-17.509-34.954-35.103-52.548-52.537-2.828-2.796-3.37-4.635-.234-7.729,17.764-17.519,35.379-35.177,52.92-52.93,2.583-2.605,4.22-2.179,6.527.138,17.711,17.838,35.475,35.624,53.281,53.356ZM161.218,292.671c5.379-2.232,8.132-7.612,7.505-13.947-.67-6.655-4.582-10.344-11.056-11.832-1.148-.276-2.488-2.328-2.679-3.71-1.201-8.579-5.794-13.31-13.501-13.469-8.005-.159-12.778,4.507-14.288,13.352-.255,1.52-2.009,3.466-3.498,3.976-5.932,2.041-9.865,6.304-10.386,12.098-.489,5.422,2.36,10.514,7.314,13.076,5.145,2.658,11.439,1.945,15.893-1.786.978-.829,1.967-1.626,2.945-2.445.393.266.776.521,1.159.787-.021.043-.032.074-.053.117-2.307,5.209-4.624,10.429-6.942,15.648h15.298c-2.477-5.358-4.72-10.195-6.963-15.032.446-.266.904-.542,1.35-.808.298.159.659.245.882.468,4.89,5.007,10.726,6.113,17.02,3.508Z"/>
        <path class="cls-6" d="M197.309,4.812c2.626,2.349,3.147,4.21.383,6.952-17.838,17.668-35.602,35.422-53.302,53.228-2.488,2.509-4.189,2.211-6.559-.17-17.679-17.828-35.432-35.581-53.26-53.26-2.541-2.509-2.264-4.242.159-6.538,2.934-2.775,5.549-5.868,8.303-8.823h34.018c-1.318.691-2.562,1.595-3.955,2.052-5.868,1.914-9.1,5.996-9.738,11.991-.574,5.4,2.583,10.822,7.325,13.097,5.677,2.721,11.003,1.871,15.935-1.882,1.021-.765,1.924-1.69,2.87-2.541l1.18.765c-2.275,5.156-4.55,10.312-6.878,15.585h14.989c-2.339-5.241-4.529-10.142-6.719-15.042.489-.255.978-.521,1.467-.787.532.425,1.084.819,1.563,1.276,4.699,4.529,10.025,5.762,16.052,3.008,5.539-2.53,8.058-7.101,7.612-13.831-.436-6.549-4.422-10.057-10.365-11.875-1.297-.404-2.466-1.201-3.699-1.818h34.018c2.86,2.881,5.581,5.911,8.6,8.611Z"/>
        <path class="cls-6" d="M197.33,408.258c2.881,2.849,2.498,4.741-.181,7.388-17.583,17.424-35.049,34.975-52.569,52.463-.978.967-2.105,1.775-3.338,2.817-1.169-.893-2.222-1.52-3.051-2.349-17.923-17.849-35.772-35.751-53.749-53.536-2.573-2.541-2.126-4.157.223-6.485,17.828-17.668,35.602-35.4,53.271-53.249,2.53-2.551,4.125-2.328,6.485.064,17.573,17.69,35.177,35.347,52.909,52.888ZM164.279,430.487c5.06-4.061,6.442-13.437,1.914-18.795-7.856-9.291-16.308-18.083-25.152-27.81-8.909,9.908-17.838,18.976-25.705,28.894-4.603,5.815-2.286,13.947,3.657,18.317,5.018,3.689,11.556,2.381,16.733-3.604.999-1.148,1.191-2.977,1.754-4.497.882.744,1.765,1.488,2.647,2.232-1.031,2.296-1.85,4.731-3.136,6.878-1.329,2.201-3.115,4.125-5.209,6.836h17.817c-2.594-4.539-5.007-8.76-7.41-12.98.617-.415,1.233-.829,1.85-1.244.882,1.074,1.701,2.211,2.658,3.2,5.422,5.592,12.555,6.612,17.583,2.573Z"/>
        <path class="cls-6" d="M200.073,142.99c-1.191,1.446-1.988,2.605-2.955,3.572-17.509,17.541-35.092,35.007-52.505,52.643-2.902,2.934-4.731,2.466-7.367-.202-17.317-17.488-34.699-34.922-52.186-52.229-2.923-2.902-3.04-4.763-.011-7.739,17.402-17.158,34.656-34.454,51.825-51.835,2.934-2.977,4.901-3.561,8.143-.266,16.882,17.158,33.986,34.093,50.985,51.144,1.446,1.446,2.626,3.157,4.072,4.911ZM164.715,160.914c5.592-5.188,5.549-14.224-.17-20.464-6.687-7.314-13.501-14.5-20.092-21.899-2.424-2.732-4.103-3.104-6.719-.128-6.07,6.91-12.555,13.458-18.646,20.337-2.073,2.349-3.912,5.103-5.092,7.973-2.211,5.411.266,12.512,4.911,15.542,5.092,3.327,11.098,2.466,15.765-2.519,1.382-1.478,2.19-3.498,3.264-5.262.85.712,1.701,1.425,2.551,2.137-2.626,4.295-5.252,8.579-8.09,13.235h17.923c-2.041-2.636-3.699-4.412-4.922-6.453-1.297-2.158-2.179-4.561-3.242-6.867.638-.404,1.276-.819,1.924-1.223.542.882.978,1.882,1.669,2.647,6.123,6.867,13.522,7.994,18.965,2.945Z"/>
        <path class="cls-6" d="M196.873,676.78c3.179,3.136,3.051,5.05-.096,8.154-17.413,17.137-34.688,34.422-51.846,51.825-2.923,2.977-4.752,3.094-7.729.085-17.296-17.519-34.699-34.943-52.218-52.229-3.072-3.019-2.775-4.954.096-7.782,17.509-17.307,34.879-34.752,52.324-52.122,1.084-1.084,2.371-1.967,3.678-3.03,1.286,1.042,2.307,1.712,3.157,2.562,17.541,17.519,34.986,35.124,52.633,52.537ZM164.407,699.157c5.751-5.06,6.006-14.383.446-20.496-6.793-7.452-13.767-14.755-20.464-22.293-2.551-2.87-4.242-2.721-6.729.085-6.091,6.889-12.544,13.469-18.678,20.326-1.86,2.073-3.498,4.486-4.667,7.016-2.658,5.741-.393,13.182,4.688,16.478,5.018,3.253,11.13,2.317,15.776-2.679,1.35-1.456,2.158-3.423,3.21-5.167.85.723,1.69,1.446,2.541,2.169-2.658,4.295-5.305,8.579-8.111,13.108h17.179c-2.764-4.646-5.252-8.845-7.75-13.033.691-.404,1.393-.797,2.084-1.191.627.829,1.191,1.722,1.882,2.498,5.911,6.623,13.267,7.867,18.593,3.179Z"/>
        <path class="cls-4" d="M204.591,277.32c-21.113,21.049-42.363,42.236-64.996,64.805-4.826-5.347-9.802-11.3-15.234-16.818-14.649-14.872-29.49-29.575-44.277-44.319-2.02-2.009-3.689-3.678-.829-6.517,19.869-19.699,39.621-39.504,59.436-59.256.734-.723,1.68-1.223,1.935-1.414,21.538,21.389,42.842,42.533,63.965,63.519ZM197.947,280.307c2.392-2.371,2.094-3.912-.096-6.102-17.806-17.732-35.57-35.517-53.281-53.356-2.307-2.317-3.944-2.743-6.527-.138-17.541,17.753-35.156,35.411-52.92,52.93-3.136,3.094-2.594,4.933.234,7.729,17.594,17.434,35.039,35.028,52.548,52.537.957.957,2.126,1.701,3.296,2.636,1.106-.904,1.967-1.499,2.69-2.222,18.008-18.008,35.974-36.081,54.057-54.015Z"/>
        <path class="cls-4" d="M204.485,546.256c-21.038,21.091-42.225,42.342-63.295,63.465-20.974-21.144-42.119-42.47-63.146-63.667,20.826-20.666,42.119-41.789,63.231-62.753,20.921,20.847,42.193,42.023,63.21,62.955ZM200.19,546.298c-.755-.978-1.308-1.871-2.041-2.605-18.104-18.147-36.24-36.272-54.323-54.451-1.914-1.914-3.349-2.041-5.283-.011-3.774,3.976-7.75,7.76-11.63,11.641-13.884,13.873-27.767,27.757-41.651,41.641-1.892,1.903-4.061,3.583-1.095,6.517,18.189,18.083,36.325,36.229,54.419,54.419,1.988,1.999,3.487,1.818,5.347-.043,17.998-18.03,36.038-36.027,54.036-54.057.84-.85,1.425-1.945,2.222-3.051Z"/>
        <path class="cls-4" d="M135.8,341.827c.819.85,1.446,1.882,2.264,2.977-.925,1.148-1.616,2.158-2.456,3.008-19.614,19.656-39.27,39.27-58.841,58.958-2.084,2.094-3.54,2.179-5.677.043-19.699-19.816-39.429-39.599-59.288-59.266-2.923-2.902-1.212-4.454.787-6.463,19.284-19.252,38.6-38.473,57.757-57.852,2.987-3.019,4.784-2.232,7.335.351,16.563,16.722,33.242,33.327,49.879,49.975,2.753,2.753,5.528,5.475,8.239,8.271ZM130.623,347.663c2.392-2.36,2.243-3.763,0-6.006-17.966-17.849-35.868-35.751-53.696-53.728-2.286-2.307-3.763-2.286-6.049.021-17.711,17.849-35.485,35.624-53.356,53.302-2.658,2.636-2.498,4.295.096,6.867,17.86,17.679,35.581,35.496,53.356,53.26.84.829,1.85,1.499,2.987,2.413,1.233-1.063,2.349-1.892,3.317-2.86,17.775-17.764,35.485-35.592,53.345-53.271Z"/>
        <path class="cls-4" d="M135.481,206.913c2.105,2.094,2.753,3.668.308,6.091-20.103,19.933-40.11,39.961-60.17,59.947-.478.478-1.127.787-2.466,1.69-14.84-14.968-29.383-29.66-43.958-44.341-5.602-5.645-11.205-11.3-16.924-16.828-2.413-2.317-2.594-3.987-.043-6.506,19.614-19.444,39.132-38.983,58.597-58.575,2.232-2.243,3.774-2.413,6.091-.085,19.454,19.592,38.993,39.121,58.565,58.607ZM130.686,212.972c2.828-2.807,1.531-4.305-.606-6.432-17.19-17.094-34.295-34.273-51.442-51.4-1.467-1.467-3.04-2.807-4.359-4.018-.893.33-1.308.351-1.531.574-18.678,18.614-37.335,37.25-56.035,55.833-2.062,2.052-1.541,3.529.308,5.315,4.21,4.05,8.292,8.218,12.406,12.353,14.575,14.67,29.139,29.351,43.979,44.298,1.329-.978,1.956-1.318,2.434-1.807,18.274-18.242,36.474-36.559,54.844-54.716Z"/>
        <path class="cls-4" d="M138.043,478.953c-.872,1.127-1.499,2.169-2.339,3.008-19.624,19.656-39.302,39.27-58.884,58.969-2.36,2.381-3.933,2.02-6.113-.17-19.465-19.561-38.972-39.089-58.565-58.533-2.488-2.466-2.36-4.082.074-6.495,19.465-19.305,38.845-38.685,58.139-58.15,2.519-2.541,4.178-2.913,6.867-.191,19.422,19.592,38.972,39.047,58.469,58.575.84.84,1.478,1.871,2.349,2.987ZM130.484,482.206c2.519-2.498,2.339-3.976-.128-6.41-17.86-17.668-35.645-35.432-53.302-53.313-2.551-2.583-3.987-2.349-6.389.085-17.679,17.86-35.432,35.645-53.302,53.313-2.562,2.53-2.381,4.018.043,6.421,17.849,17.7,35.592,35.517,53.377,53.292.85.85,1.839,1.573,3.019,2.562,1.191-.936,2.36-1.69,3.317-2.647,17.785-17.764,35.507-35.602,53.366-53.302Z"/>
        <path class="cls-4" d="M137.692,76.208c-.797.914-1.743,2.158-2.838,3.253-18.901,18.912-37.877,37.739-56.662,56.768-3.136,3.179-5.007,3.731-8.441.234-18.487-18.827-37.218-37.399-55.864-56.066-1.361-1.361-2.658-2.785-4.199-4.39,21.729-21.655,42.98-42.821,63.976-63.752,21.113,21.081,42.438,42.385,64.029,63.954ZM130.155,79.185c2.573-2.541,2.87-4.125.096-6.825-10.907-10.609-21.602-21.432-32.307-32.232-7.824-7.899-15.531-15.893-23.834-24.419-19.805,19.869-38.643,38.791-57.523,57.661-2.519,2.519-.744,3.997.946,5.677,17.775,17.775,35.581,35.507,53.26,53.377,2.594,2.626,4.135,2.052,6.442-.276,17.562-17.732,35.188-35.39,52.92-52.962Z"/>
        <path class="cls-4" d="M137.681,614.101c-.861.978-2.009,2.456-3.327,3.763-18.891,18.923-37.813,37.803-56.683,56.736-2.179,2.19-3.774,3.912-6.836.808-19.539-19.773-39.227-39.387-58.862-59.075-.723-.734-1.329-1.595-1.988-2.413,21.591-21.612,42.789-42.821,63.763-63.827,21.038,21.059,42.257,42.3,63.933,64.008ZM130.176,617.109c2.605-2.573,2.785-4.199.053-6.867-10.907-10.609-21.602-21.421-32.328-32.211-7.824-7.877-15.563-15.84-23.962-24.387-19.699,19.816-38.504,38.77-57.363,57.661-2.573,2.562-.659,3.987.989,5.634,17.636,17.647,35.326,35.262,52.867,53.005,2.551,2.573,4.114,2.828,6.814.096,17.541-17.753,35.198-35.379,52.93-52.93Z"/>
        <path class="cls-4" d="M131.771,742.935l-1.605,1.605c-17.594-17.413-35.092-34.911-52.452-52.558-2.945-2.987-4.656-2.987-7.601.011-17.371,17.626-34.901,35.113-52.505,52.516-2.647,2.605-2.743,4.274-.053,6.867,4.784,4.646,9.227,9.642,13.82,14.49h-5.315c-4.72-4.986-9.344-10.046-14.181-14.904-2.116-2.116-2.116-3.583.011-5.687,20.081-19.975,40.088-40.025,60.138-60.032.478-.468,1.137-.755,1.318-.861,19.507,19.55,38.855,38.93,58.426,58.554Z"/>
        <path class="cls-5" d="M130.08,206.541c2.137,2.126,3.434,3.625.606,6.432-18.37,18.157-36.57,36.474-54.844,54.716-.478.489-1.106.829-2.434,1.807-14.84-14.947-29.405-29.628-43.979-44.298-4.114-4.135-8.196-8.303-12.406-12.353-1.85-1.786-2.371-3.264-.308-5.315,18.699-18.582,37.356-37.218,56.035-55.833.223-.223.638-.245,1.531-.574,1.318,1.212,2.892,2.551,4.359,4.018,17.147,17.126,34.252,34.305,51.442,51.4ZM99.283,212.866c3.561-8.983,3.859-18.04-2.626-26.109-4.433-5.517-11.843-5.858-16.754-.808-2.073,2.116-3.678,4.688-6.006,7.718-1.701-2.296-2.977-4.135-4.369-5.879-5.985-7.431-14.511-7.048-19.784.85-4.135,6.208-4.39,13.076-2.626,19.901,3.434,13.288,13.076,21.495,24.408,27.969,1.265.723,3.668.659,4.954-.074,9.865-5.624,18.487-12.704,22.803-23.568Z"/>
        <path class="cls-5" d="M130.623,341.657c2.243,2.243,2.392,3.646,0,6.006-17.86,17.679-35.57,35.507-53.345,53.271-.967.967-2.084,1.797-3.317,2.86-1.137-.914-2.147-1.584-2.987-2.413-17.775-17.764-35.496-35.581-53.356-53.26-2.594-2.573-2.753-4.231-.096-6.867,17.87-17.679,35.645-35.453,53.356-53.302,2.286-2.307,3.763-2.328,6.049-.021,17.828,17.977,35.73,35.879,53.696,53.728ZM73.823,371.497c6.315-12.002,14.787-20.453,26.981-26.938-12.427-6.198-20.581-14.915-27.013-26.524-6.325,12.045-14.755,20.315-26.502,26.481,11.662,6.612,20.422,14.777,26.534,26.981Z"/>
        <path class="cls-5" d="M130.357,475.795c2.466,2.434,2.647,3.912.128,6.41-17.86,17.7-35.581,35.538-53.366,53.302-.957.957-2.126,1.712-3.317,2.647-1.18-.989-2.169-1.712-3.019-2.562-17.785-17.775-35.528-35.592-53.377-53.292-2.424-2.403-2.605-3.891-.043-6.421,17.87-17.668,35.624-35.453,53.302-53.313,2.403-2.434,3.838-2.668,6.389-.085,17.658,17.881,35.443,35.645,53.302,53.313ZM94.223,490.285c7.261-8.579,9.738-18.816,5.379-29.777-1.924-4.805-5.273-8.526-10.811-9.089-5.411-.542-8.94,2.562-11.673,6.846-.904,1.425-1.871,2.807-3.327,4.986-1.361-2.179-2.211-3.636-3.147-5.039-2.647-4.018-5.932-7.186-11.152-6.836-5.57.372-9.738,3.785-10.928,8.717-1.403,5.804-2.403,12.385-1.074,18.04,3.094,13.076,13.033,21.081,24.259,27.363,1.382.765,4.359.298,5.698-.744,5.826-4.539,12.055-8.898,16.775-14.468Z"/>
        <path class="cls-5" d="M130.251,72.36c2.775,2.7,2.477,4.284-.096,6.825-17.732,17.573-35.358,35.23-52.92,52.962-2.307,2.328-3.848,2.902-6.442.276-17.679-17.87-35.485-35.602-53.26-53.377-1.69-1.68-3.466-3.157-.946-5.677,18.88-18.87,37.718-37.792,57.523-57.661,8.303,8.526,16.01,16.52,23.834,24.419,10.705,10.801,21.4,21.623,32.307,32.232ZM74.046,102.445c6.134-12.066,14.724-20.22,26.63-26.821-12.013-6.166-20.496-14.617-26.758-26.747-6.4,12.449-15.234,20.517-26.779,27.055,12.257,6.006,20.305,14.904,26.906,26.513Z"/>
        <path class="cls-5" d="M130.166,744.54c2.626,2.605,2.828,4.199.085,6.836-4.816,4.614-9.238,9.631-13.831,14.49h-27.64c1.531-1.722,3.115-3.391,4.571-5.167,9.164-11.109,10.886-25.248,4.274-34.826-4.699-6.814-13.033-7.378-18.508-1.137-1.807,2.062-3.285,4.412-5.262,7.101-1.595-2.286-2.796-4.157-4.146-5.921-5.921-7.729-14.926-7.442-19.964.936-1.754,2.913-2.902,6.485-3.285,9.876-1.329,11.97,4.699,20.996,12.555,29.139h-27.64c-4.592-4.848-9.036-9.844-13.82-14.49-2.69-2.594-2.594-4.263.053-6.867,17.604-17.402,35.135-34.89,52.505-52.516,2.945-2.998,4.656-2.998,7.601-.011,17.36,17.647,34.858,35.145,52.452,52.558Z"/>
        <path class="cls-5" d="M130.229,610.242c2.732,2.668,2.551,4.295-.053,6.867-17.732,17.551-35.39,35.177-52.93,52.93-2.7,2.732-4.263,2.477-6.814-.096-17.541-17.743-35.23-35.358-52.867-53.005-1.648-1.648-3.561-3.072-.989-5.634,18.859-18.891,37.665-37.845,57.363-57.661,8.398,8.547,16.137,16.51,23.962,24.387,10.726,10.79,21.421,21.602,32.328,32.211ZM74.429,639.625c5.826-11.471,14.479-19.763,26.268-26.098-12.13-6.113-20.422-14.766-26.896-26.641-6.293,12.278-14.989,20.496-25.716,26.375,5.198,4.135,10.227,7.484,14.426,11.683,4.199,4.189,7.558,9.217,11.917,14.681Z"/>
        <path class="cls-4" d="M99.602,460.508c4.359,10.96,1.882,21.198-5.379,29.777-4.72,5.57-10.95,9.929-16.775,14.468-1.339,1.042-4.316,1.51-5.698.744-11.226-6.283-21.166-14.288-24.259-27.363-1.329-5.656-.33-12.236,1.074-18.04,1.191-4.933,5.358-8.345,10.928-8.717,5.22-.351,8.505,2.817,11.152,6.836.936,1.403,1.786,2.86,3.147,5.039,1.456-2.179,2.424-3.561,3.327-4.986,2.732-4.284,6.261-7.388,11.673-6.846,5.539.563,8.887,4.284,10.811,9.089Z"/>
        <path class="cls-4" d="M96.658,186.757c6.485,8.069,6.187,17.126,2.626,26.109-4.316,10.865-12.938,17.945-22.803,23.568-1.286.734-3.689.797-4.954.074-11.332-6.474-20.974-14.681-24.408-27.969-1.765-6.825-1.51-13.692,2.626-19.901,5.273-7.899,13.799-8.281,19.784-.85,1.393,1.743,2.668,3.583,4.369,5.879,2.328-3.03,3.933-5.602,6.006-7.718,4.911-5.05,12.321-4.709,16.754.808Z"/>
        <path class="cls-4" d="M97.625,725.872c6.612,9.578,4.89,23.717-4.274,34.826-1.456,1.775-3.04,3.444-4.571,5.167h-29.766c-7.856-8.143-13.884-17.169-12.555-29.139.383-3.391,1.531-6.963,3.285-9.876,5.039-8.377,14.043-8.664,19.964-.936,1.35,1.765,2.551,3.636,4.146,5.921,1.977-2.69,3.455-5.039,5.262-7.101,5.475-6.24,13.809-5.677,18.508,1.137Z"/>
        <path class="cls-4" d="M100.697,613.527c-11.789,6.336-20.443,14.628-26.268,26.098-4.359-5.464-7.718-10.493-11.917-14.681-4.199-4.199-9.227-7.548-14.426-11.683,10.726-5.879,19.422-14.096,25.716-26.375,6.474,11.875,14.766,20.528,26.896,26.641Z"/>
        <path class="cls-4" d="M100.676,75.623c-11.906,6.602-20.496,14.755-26.63,26.821-6.602-11.609-14.649-20.507-26.906-26.513,11.545-6.538,20.379-14.607,26.779-27.055,6.261,12.13,14.745,20.581,26.758,26.747Z"/>
        <path class="cls-4" d="M100.803,344.559c-12.193,6.485-20.666,14.936-26.981,26.938-6.113-12.204-14.872-20.368-26.534-26.981,11.747-6.166,20.177-14.437,26.502-26.481,6.432,11.609,14.585,20.326,27.013,26.524Z"/>
        <path class="cls-5" d="M64.329-3.799h19.135c-.117.128-.223.266-.351.383-11.088,10.663-7.038,11.566-18.784-.383Z"/>
        <path class="cls-4" d="M68.592,5.471c1.828,1.86,2.169,3.37.191,5.347C48.617,30.953,28.504,51.12,8.348,71.254c-.468.478-1.212.67-1.286.702C-14.391,50.535-35.62,29.348-57.169,7.831c3.487-3.71,7.218-7.675,10.939-11.63h5.315c-3.115,3.136-6.145,6.368-9.376,9.376-2.222,2.062-2.073,3.753-.032,5.783C-32.261,29.348-14.231,47.367,3.777,65.418c2.073,2.084,3.614,1.988,5.73-.149C27.324,47.303,45.205,29.39,63.171,11.563c2.519-2.498,2.36-4.178-.128-6.506-2.945-2.753-5.539-5.889-8.281-8.855h5.315c2.828,3.094,5.57,6.283,8.515,9.27Z"/>
        <path class="cls-4" d="M67.221,676.705c2.147,2.147,4.561,3.827,1.106,7.24-19.901,19.646-39.621,39.461-59.426,59.213-.595.595-1.361,1.031-2.509,1.882-7.123-7.016-14.171-13.905-21.144-20.868-13.012-13.001-25.854-26.183-39.036-39.015-3.604-3.508-3.285-5.57.117-8.93,18.891-18.614,37.654-37.378,56.279-56.268,3.083-3.125,4.837-3.232,7.994-.032,18.753,19.05,37.718,37.888,56.619,56.779ZM62.958,684.466c2.828-2.796,2.775-4.592-.021-7.346-17.626-17.445-35.113-35.028-52.665-52.548-.967-.967-2.126-1.765-3.529-2.913-1.339,1.116-2.605,2.02-3.678,3.094-17.307,17.254-34.518,34.603-51.942,51.74-3.327,3.274-3.317,5.283.021,8.568,17.179,16.882,34.21,33.923,51.081,51.102,3.338,3.412,5.39,3.816,8.93.202,17.115-17.456,34.422-34.709,51.803-51.899Z"/>
        <path class="cls-4" d="M67.87,542.631c2.456,2.424,3.062,4.135.255,6.899-19.624,19.412-39.089,38.983-58.628,58.48-.861.85-1.892,1.52-2.658,2.126-21.389-21.368-42.619-42.576-63.646-63.582,21.251-21.07,42.64-42.268,65.007-64.443,7.378,7.686,15.223,16.031,23.26,24.174,12.045,12.204,24.206,24.302,36.41,36.346ZM62.235,550.572c3.37-3.317,3.232-5.273-.064-8.515-17.519-17.243-34.89-34.656-52.154-52.165-2.732-2.775-4.295-2.434-6.825.138-10.641,10.865-21.421,21.591-32.264,32.254-7.92,7.782-15.999,15.393-23.866,22.952,1.01,1.733,1.244,2.445,1.722,2.913,18.359,18.434,36.772,36.814,55.11,55.258,2.53,2.541,4.146,1.297,6.134-.702,17.339-17.434,34.667-34.89,52.207-52.133Z"/>
        <path class="cls-4" d="M68.029,408.269c2.881,2.86,2.466,4.646-.234,7.314-19.231,19.04-38.377,38.164-57.395,57.416-2.838,2.86-4.507,2.732-7.25-.032-19.061-19.22-38.207-38.366-57.491-57.363-3.115-3.083-2.605-4.986.202-7.771,19.231-19.061,38.334-38.239,57.512-57.353.957-.967,2.137-1.722,3.37-2.69,1.169.914,2.201,1.563,3.051,2.403,19.412,19.359,38.76,38.791,58.235,58.076ZM63.256,414.956c.85-.85,1.541-1.85,2.562-3.083-1.106-1.297-2.03-2.551-3.115-3.636-17.371-17.381-34.869-34.646-52.08-52.176-3.242-3.306-5.018-2.977-8.026.074-17.137,17.371-34.38,34.635-51.793,51.729-3.327,3.264-2.753,5.209.202,8.132,17.349,17.158,34.635,34.38,51.761,51.772,2.934,2.977,4.678,3.125,7.654.106,17.519-17.732,35.22-35.294,52.835-52.92Z"/>
        <path class="cls-4" d="M67.306,273.195c3.359,3.306,3.2,5.113-.159,8.42-18.699,18.349-37.101,36.995-55.62,55.524-1.478,1.478-3.051,2.87-5.347,5.007-11.726-11.896-22.877-23.249-34.082-34.55-8.855-8.919-17.743-17.806-26.704-26.619-2.413-2.381-3.104-4.146-.276-6.942,19.89-19.656,39.642-39.472,59.458-59.224.489-.489,1.084-.872,2.201-1.765,3.646,3.54,7.325,7.006,10.907,10.588,16.531,16.531,32.955,33.168,49.624,49.56ZM65.637,277.437c-.946-1.223-1.69-2.403-2.647-3.37-17.626-17.668-35.305-35.283-52.877-52.994-2.488-2.498-4.22-2.923-6.942-.181-17.551,17.743-35.22,35.379-52.952,52.952-2.583,2.562-2.7,4.263-.011,6.921,17.86,17.668,35.602,35.443,53.292,53.281,2.211,2.232,3.646,2.573,6.038.17,17.828-17.966,35.772-35.804,53.664-53.706.85-.84,1.51-1.882,2.434-3.072Z"/>
        <path class="cls-4" d="M67.125,138.525c3.54,3.444,3.37,5.358-.128,8.792-19.072,18.731-37.867,37.739-56.757,56.651-.989.978-2.062,1.86-3.508,3.179-2.296-2.137-4.507-4.082-6.591-6.155-18.03-17.998-36.017-36.049-54.089-54.015-2.573-2.551-4.018-4.497-.691-7.782,19.752-19.518,39.344-39.195,59.011-58.798.595-.595,1.393-.989,2.094-1.478.446-.34.893-.691,1.339-1.031,6.867,7.335,13.607,14.798,20.645,21.963,12.767,13.012,25.609,25.96,38.675,38.675ZM63.054,146.466c2.53-2.498,2.955-4.199.202-6.921-17.849-17.658-35.602-35.422-53.271-53.271-2.551-2.573-4.252-2.222-6.559.096-17.573,17.69-35.177,35.336-52.877,52.898-2.796,2.775-2.679,4.72.074,7.442,17.477,17.275,34.826,34.688,52.239,52.037,1.095,1.095,2.349,2.041,3.838,3.327,1.414-1.169,2.69-2.062,3.774-3.147,17.519-17.488,34.986-35.039,52.58-52.463Z"/>
        <path class="cls-6" d="M63.256,139.546c2.753,2.721,2.328,4.422-.202,6.921-17.594,17.424-35.06,34.975-52.58,52.463-1.084,1.084-2.36,1.977-3.774,3.147-1.488-1.286-2.743-2.232-3.838-3.327-17.413-17.349-34.762-34.762-52.239-52.037-2.753-2.721-2.87-4.667-.074-7.442C-31.751,121.707-14.146,104.06,3.426,86.371c2.307-2.317,4.008-2.668,6.559-.096,17.668,17.849,35.422,35.613,53.271,53.271ZM27.707,157.746c5.188-2.913,7.165-7.622,6.793-13.342-.351-5.326-4.114-9.918-9.589-11.407-2.945-.797-4.167-1.882-4.465-5.252-.659-7.697-6.495-12.629-13.82-12.576-6.942.043-13.267,5.06-13.437,11.683-.096,4.125-1.786,5.358-5.273,6.347-5.592,1.595-8.632,5.996-8.877,11.811-.255,6.145,2.594,10.695,7.877,13.118,6.91,3.179,12.47.383,17.721-4.178l1.212.957c-2.201,4.911-4.401,9.833-6.719,15.032h15.159c-2.488-5.496-4.773-10.535-7.059-15.574.404-.308.819-.617,1.223-.925,1.116.999,2.201,2.041,3.359,2.998,4.38,3.614,10.748,4.189,15.893,1.308Z"/>
        <path class="cls-6" d="M62.99,274.067c.957.967,1.701,2.147,2.647,3.37-.925,1.191-1.584,2.232-2.434,3.072-17.891,17.902-35.836,35.74-53.664,53.706-2.392,2.403-3.827,2.062-6.038-.17-17.69-17.838-35.432-35.613-53.292-53.281-2.69-2.658-2.573-4.359.011-6.921,17.732-17.573,35.4-35.209,52.952-52.952,2.721-2.743,4.454-2.317,6.942.181,17.573,17.711,35.251,35.326,52.877,52.994ZM29.95,295.69c5.496-4.646,6.155-12.98,1.361-19.135-2.169-2.785-4.561-5.4-6.984-7.984-5.847-6.251-11.768-12.438-17.849-18.848-7.154,7.697-13.82,14.745-20.326,21.942-2.232,2.466-4.497,5.071-5.985,8.005-3.019,5.921-.85,13.48,4.38,16.999,5.188,3.498,10.96,2.488,16.116-2.796,1.169-1.201,2.413-2.328,3.625-3.476.478.319.967.648,1.456.967-2.583,4.38-5.156,8.749-7.75,13.161h18.04c-1.945-2.498-3.795-4.486-5.188-6.751-1.329-2.169-2.201-4.624-3.274-6.952.765-.574,1.541-1.148,2.317-1.722.755,1.393,1.244,3.03,2.296,4.157,5.687,6.123,12.385,6.974,17.764,2.434Z"/>
        <path class="cls-6" d="M63.043,5.057c2.488,2.328,2.647,4.008.128,6.506C45.205,29.39,27.324,47.303,9.507,65.269c-2.116,2.137-3.657,2.232-5.73.149C-14.231,47.367-32.261,29.348-50.323,11.361c-2.041-2.03-2.19-3.721.032-5.783,3.232-3.008,6.261-6.24,9.376-9.376H-7.959C-11.669.464-15.752,4.461-18.994,9.054c-4.05,5.751-2.445,14.086,2.828,18.147,5.135,3.944,11.928,2.998,16.999-2.53,1.095-1.18,1.701-2.807,2.541-4.231.797.659,1.605,1.329,2.413,1.999-2.456,4.189-4.911,8.377-7.569,12.916H15.226c-2.828-4.688-5.443-8.994-8.047-13.31.744-.595,1.488-1.191,2.222-1.797,1.286,1.828,2.349,3.859,3.891,5.422,4.05,4.114,9.079,4.72,14.203,2.636,4.986-2.041,7.293-6.623,6.804-11.534-.383-3.763-2.413-7.59-4.476-10.896-2.201-3.519-5.305-6.474-8.016-9.674h32.955c2.743,2.966,5.337,6.102,8.281,8.855Z"/>
        <path class="cls-6" d="M65.818,411.873c-1.021,1.233-1.712,2.232-2.562,3.083-17.615,17.626-35.315,35.188-52.835,52.92-2.977,3.019-4.72,2.87-7.654-.106-17.126-17.392-34.412-34.614-51.761-51.772-2.955-2.923-3.529-4.869-.202-8.132,17.413-17.094,34.656-34.358,51.793-51.729,3.008-3.051,4.784-3.381,8.026-.074,17.211,17.53,34.709,34.794,52.08,52.176,1.084,1.084,2.009,2.339,3.115,3.636ZM28.291,426.182c4.922-3.03,7.144-7.909,6.06-13.703-1.329-7.176-6.293-10.695-13.416-11.673-.914-10.886-5.145-16.276-12.959-16.648-8.494-.404-14.511,3.402-15.67,16.648-6.549,1.074-11.704,4.146-13.044,11.173-1.127,5.889.617,11.088,6.028,14.149,7.176,4.072,13.714,2.116,19.507-3.614.372.319.744.648,1.116.978-2.264,5.145-4.518,10.291-6.772,15.415h15.117c-2.456-5.507-4.678-10.514-6.91-15.531.361-.446.723-.904,1.084-1.35,5.783,6.612,12.48,8.696,19.858,4.157Z"/>
        <path class="cls-6" d="M62.937,677.12c2.796,2.753,2.849,4.55.021,7.346-17.381,17.19-34.688,34.444-51.803,51.899-3.54,3.614-5.592,3.21-8.93-.202-16.871-17.179-33.901-34.22-51.081-51.102-3.338-3.285-3.349-5.294-.021-8.568,17.424-17.137,34.635-34.486,51.942-51.74,1.074-1.074,2.339-1.977,3.678-3.094,1.403,1.148,2.562,1.945,3.529,2.913,17.551,17.519,35.039,35.103,52.665,52.548ZM27.728,695.628c5.209-2.913,7.335-7.654,6.719-13.352-.659-5.974-4.061-10.099-10.099-11.524-2.615-.617-3.561-1.797-3.859-4.624-.861-8.207-6.389-13.129-13.947-13.086-7.473.043-12.948,5.198-13.448,13.437-.213,3.614-2.519,3.689-4.805,4.433-6.4,2.073-9.493,6.708-9.238,13.746.223,5.996,4.412,10.939,10.503,12.332s10.886-1.148,15.042-5.56c.436.33.882.648,1.318.978-2.169,4.975-4.337,9.961-6.687,15.34h14.968c-2.328-5.252-4.476-10.089-6.612-14.926.5-.255,1.01-.5,1.51-.755.776.659,1.531,1.329,2.317,1.967,4.816,3.933,10.982,4.592,16.318,1.595Z"/>
        <path class="cls-6" d="M62.171,542.057c3.296,3.242,3.434,5.198.064,8.515-17.541,17.243-34.869,34.699-52.207,52.133-1.988,1.999-3.604,3.242-6.134.702-18.338-18.444-36.75-36.825-55.11-55.258-.478-.468-.712-1.18-1.722-2.913,7.867-7.558,15.946-15.17,23.866-22.952,10.843-10.663,21.623-21.389,32.264-32.254,2.53-2.573,4.093-2.913,6.825-.138,17.264,17.509,34.635,34.922,52.154,52.165ZM27.356,566.273c4.826-1.903,7.165-6.272,6.889-10.96-.213-3.774-1.69-8.09-4.05-11.013-5.985-7.42-12.767-14.203-19.273-21.208-1.276-1.382-2.732-2.605-4.454-4.231-3.753,3.944-7.197,7.473-10.535,11.098-4.678,5.071-9.44,10.078-13.852,15.383-4.773,5.719-4.125,14.713,1.021,19.252,5.315,4.699,12.555,3.731,18.21-2.541.914-1.021,1.435-2.403,2.137-3.625.755.574,1.51,1.137,2.264,1.701-2.413,4.305-4.837,8.611-7.335,13.044H15.247c-2.86-4.624-5.454-8.823-8.058-13.023.563-.372,1.116-.744,1.669-1.116,1.541,1.616,2.998,3.338,4.646,4.826,4.082,3.699,8.877,4.369,13.852,2.413Z"/>
        <path class="cls-5" d="M34.5,144.404c.372,5.719-1.605,10.429-6.793,13.342-5.145,2.881-11.513,2.307-15.893-1.308-1.159-.957-2.243-1.999-3.359-2.998-.404.308-.819.617-1.223.925l-1.382.542-1.212-.957c-5.252,4.561-10.811,7.356-17.721,4.178-5.283-2.424-8.132-6.974-7.877-13.118.245-5.815,3.285-10.216,8.877-11.811,3.487-.989,5.177-2.222,5.273-6.347.17-6.623,6.495-11.641,13.437-11.683,7.325-.053,13.161,4.879,13.82,12.576.298,3.37,1.52,4.454,4.465,5.252,5.475,1.488,9.238,6.081,9.589,11.407Z"/>
        <path class="cls-5" d="M34.447,682.276c.617,5.698-1.51,10.439-6.719,13.352-5.337,2.998-11.502,2.339-16.318-1.595-.787-.638-1.541-1.308-2.317-1.967-.5.255-1.01.5-1.51.755l-1.669-.415c-.436-.33-.882-.648-1.318-.978-4.157,4.412-8.951,6.952-15.042,5.56s-10.28-6.336-10.503-12.332c-.255-7.038,2.838-11.673,9.238-13.746,2.286-.744,4.592-.819,4.805-4.433.5-8.239,5.974-13.395,13.448-13.437,7.558-.043,13.086,4.879,13.947,13.086.298,2.828,1.244,4.008,3.859,4.624,6.038,1.425,9.44,5.549,10.099,11.524Z"/>
        <path class="cls-5" d="M34.351,412.479c1.084,5.794-1.137,10.673-6.06,13.703-7.378,4.539-14.075,2.456-19.858-4.157-.361.446-.723.904-1.084,1.35l-1.435.117c-.372-.33-.744-.659-1.116-.978-5.794,5.73-12.332,7.686-19.507,3.614-5.411-3.062-7.154-8.26-6.028-14.149,1.339-7.027,6.495-10.099,13.044-11.173,1.159-13.246,7.176-17.052,15.67-16.648,7.814.372,12.045,5.762,12.959,16.648,7.123.978,12.087,4.497,13.416,11.673Z"/>
        <path class="cls-5" d="M34.298,16.772c.489,4.911-1.818,9.493-6.804,11.534-5.124,2.084-10.152,1.478-14.203-2.636-1.541-1.563-2.605-3.593-3.891-5.422-.734.606-1.478,1.201-2.222,1.797l-1.393.393c-.808-.67-1.616-1.339-2.413-1.999-.84,1.425-1.446,3.051-2.541,4.231-5.071,5.528-11.864,6.474-16.999,2.53-5.273-4.061-6.878-12.395-2.828-18.147C-15.752,4.461-11.669.464-7.959-3.799h29.766c2.711,3.2,5.815,6.155,8.016,9.674,2.062,3.306,4.093,7.133,4.476,10.896Z"/>
        <path class="cls-5" d="M34.245,555.313c.276,4.688-2.062,9.057-6.889,10.96-4.975,1.956-9.77,1.286-13.852-2.413-1.648-1.488-3.104-3.21-4.646-4.826-.553.372-1.106.744-1.669,1.116l-1.478-.021c-.755-.563-1.51-1.127-2.264-1.701-.702,1.223-1.223,2.605-2.137,3.625-5.656,6.272-12.895,7.24-18.21,2.541-5.145-4.539-5.794-13.533-1.021-19.252,4.412-5.305,9.174-10.312,13.852-15.383,3.338-3.625,6.782-7.154,10.535-11.098,1.722,1.626,3.179,2.849,4.454,4.231,6.506,7.006,13.288,13.788,19.273,21.208,2.36,2.923,3.838,7.24,4.05,11.013Z"/>
        <path class="cls-5" d="M31.31,276.554c4.794,6.155,4.135,14.49-1.361,19.135-5.379,4.539-12.076,3.689-17.764-2.434-1.052-1.127-1.541-2.764-2.296-4.157-.776.574-1.552,1.148-2.317,1.722l-1.828.542c-.489-.319-.978-.648-1.456-.967-1.212,1.148-2.456,2.275-3.625,3.476-5.156,5.283-10.928,6.293-16.116,2.796-5.23-3.519-7.399-11.077-4.38-16.999,1.488-2.934,3.753-5.539,5.985-8.005,6.506-7.197,13.171-14.245,20.326-21.942,6.081,6.41,12.002,12.597,17.849,18.848,2.424,2.583,4.816,5.198,6.984,7.984Z"/>
        <path class="cls-4" d="M21.807,765.865h-5.315c-2.519-2.647-4.879-5.485-7.654-7.824-.914-.765-3.498-.904-4.295-.191-2.647,2.392-4.826,5.294-7.186,8.016h-5.315c4.082-4.327,8.026-8.813,12.385-12.831.84-.776,3.933-.361,5.018.606,4.327,3.838,8.281,8.111,12.364,12.225Z"/>
        <path class="cls-5" d="M16.034,304.524H-2.006c2.594-4.412,5.167-8.781,7.75-13.161l1.828-.542c1.074,2.328,1.945,4.784,3.274,6.952,1.393,2.264,3.242,4.252,5.188,6.751Z"/>
        <path class="cls-5" d="M15.247,573.173H-1.623c2.498-4.433,4.922-8.738,7.335-13.044l1.478.021c2.605,4.199,5.198,8.398,8.058,13.023Z"/>
        <path class="cls-5" d="M15.226,35.354H-1.783c2.658-4.539,5.113-8.728,7.569-12.916l1.393-.393c2.605,4.316,5.22,8.622,8.047,13.31Z"/>
        <path class="cls-5" d="M14.291,169.939H-.869c2.317-5.198,4.518-10.12,6.719-15.032l1.382-.542c2.286,5.039,4.571,10.078,7.059,15.574Z"/>
        <path class="cls-5" d="M14.259,438.907H-.858c2.254-5.124,4.507-10.269,6.772-15.415l1.435-.117c2.232,5.018,4.454,10.025,6.91,15.531Z"/>
        <path class="cls-5" d="M14.195,707.747H-.773c2.349-5.379,4.518-10.365,6.687-15.34l1.669.415c2.137,4.837,4.284,9.674,6.612,14.926Z"/>
        <path class="cls-4" d="M1.438,341.668c.744.734,1.382,1.563,2.073,2.349-21.665,21.687-42.906,42.937-63.742,63.795-21.113-21.166-42.395-42.523-63.933-64.114.595-.648,1.595-1.86,2.7-2.966,18.912-18.933,37.899-37.782,56.672-56.842,3.21-3.253,5.113-3.498,8.451-.106,19.135,19.412,38.504,38.6,57.778,57.884ZM-11.84,355.488c3.487-3.466,7.293-6.602,10.588-9.557-20.517-20.528-40.099-40.11-59.277-59.298-19.167,19.114-38.791,38.685-58.713,58.565.181.276.404.776.765,1.137,18.274,18.295,36.591,36.538,54.78,54.908,2.594,2.605,4.135,2.073,6.463-.287,15.053-15.234,30.191-30.383,45.393-45.468Z"/>
        <path class="cls-4" d="M-3.952,751.248c2.232-2.137,2.626-3.668.223-6.049-18.083-17.923-36.07-35.932-54.015-53.983-1.85-1.86-3.264-2.381-5.273-.361-18.444,18.529-36.931,37.027-55.386,55.556-.468.478-.691,1.191-1.786,3.115,5.741,5.326,11.673,10.833,17.615,16.339h-5.315c-6.038-5.422-12.087-10.843-17.87-16.042,22.771-22.697,44.128-43.979,65.124-64.911,20.911,20.826,42.289,42.119,63.965,63.721-5.369,5.56-10.992,11.396-16.605,17.232h-5.315c4.869-4.89,9.653-9.865,14.638-14.617Z"/>
        <path class="cls-4" d="M4.149,480.951c-3.508,3.04-7.824,6.357-11.673,10.163-16.361,16.148-32.658,32.36-48.763,48.752-3.264,3.327-5.145,3.338-8.43,0-18.87-19.167-37.952-38.122-57.023-57.087-2.275-2.264-3.593-3.891-.595-6.857,19.89-19.646,39.61-39.451,59.394-59.192.606-.606,1.329-1.095,1.786-1.467,21.442,21.57,42.693,42.948,65.304,65.687ZM-1.825,478.538c-.999-1.052-2.158-2.339-3.381-3.561-17.02-17.03-34.146-33.944-50.974-51.134-3.359-3.434-5.177-3.848-8.738-.202-16.818,17.211-33.955,34.135-50.974,51.166-1.329,1.339-2.573,2.764-3.157,3.391,19.911,20.071,39.419,39.738,58.267,58.745,19.39-19.21,39.047-38.685,58.958-58.405Z"/>
        <path class="cls-4" d="M1.97,210.92c-20.283,20.337-41.598,41.683-62.551,62.679-21.081-21.091-42.395-42.417-63.508-63.55,20.9-20.9,42.098-42.108,62.944-62.955,20.836,21.081,42.119,42.597,63.115,63.827ZM-4.228,213.684c3.04-2.998,2.296-4.646-.319-7.24-17.498-17.317-34.847-34.773-52.261-52.165-1.095-1.095-2.307-2.084-2.7-2.434-20.05,19.911-39.791,39.514-58.979,58.565,19.178,19.295,38.589,38.834,58.341,58.713.68-.553,1.265-.946,1.754-1.425,18.04-18.019,36.006-36.123,54.163-54.015Z"/>
        <path class="cls-4" d="M2.565,76.134c-20.73,20.783-41.938,42.034-62.764,62.913-21.113-21.102-42.417-42.374-63.359-63.295,20.783-20.677,42.13-41.928,63.008-62.7C-40.117,33.473-18.792,54.787,2.565,76.134ZM-4.302,79.153c2.913-2.881,2.551-4.571-.181-7.261-16.903-16.658-33.657-33.465-50.379-50.294-1.722-1.722-2.945-3.955-4.146-5.613-20.655,20.719-40.195,40.333-60,60.212-.138-.319-.053.276.287.627,18.593,18.699,37.208,37.367,55.779,56.077,2.445,2.466,3.88.914,5.634-.84,17.626-17.679,35.23-35.379,53.005-52.909Z"/>
        <path class="cls-4" d="M-60.454,550.71c20.507,20.613,41.789,41.981,62.806,63.115-20.677,20.528-42.076,41.779-63.455,63.008-20.847-20.836-42.055-42.034-62.966-62.934,21.198-21.059,42.576-42.289,63.614-63.189ZM-3.792,616.535c2.711-2.679,1.765-4.252-.457-6.463-17.094-16.956-34.135-33.955-51.081-51.059-1.573-1.595-2.403-3.933-3.476-5.751-21.049,21.187-40.461,40.716-59.851,60.234,19.252,19.348,38.791,38.972,58.511,58.777.468-.34,1.244-.765,1.85-1.361,18.168-18.136,36.272-36.315,54.504-54.376Z"/>
      </g>
    </g>
  </g>
</svg>