<?xml version="1.0" encoding="UTF-8"?>
<svg id="Layer_2" data-name="Layer 2" xmlns="http://www.w3.org/2000/svg" xmlns:xlink="http://www.w3.org/1999/xlink" viewBox="0 0 406.337 52.399">
  <defs>
    <style>
      .cls-1 {
        clip-path: url(#clippath);
      }

      .cls-2 {
        fill: none;
      }

      .cls-2, .cls-3, .cls-4, .cls-5, .cls-6 {
        stroke-width: 0px;
      }

      .cls-3 {
        fill: #b9723c;
      }

      .cls-4 {
        fill: #f5ce47;
      }

      .cls-5 {
        fill: #a55136;
      }

      .cls-6 {
        fill: #e29e49;
      }
    </style>
    <clipPath id="clippath">
      <rect class="cls-2" x="0" width="406.337" height="52.399"/>
    </clipPath>
  </defs>
  <g id="Layer_1-2" data-name="Layer 1">
    <g class="cls-1">
      <g>
        <path class="cls-3" d="M409.546,117.231v2.499c-6.531-6.446-13.062-12.887-19.199-18.944-.35-.345-.7-.69-1.044-1.029-10.279,10.224-20.328,20.218-30.187,30.027,9.769,9.804,19.728,19.803,30.067,30.182.4-.415.805-.835,1.204-1.249l.984.999-.005.005c-.974.954-.929,1.664-.355,2.429l-.909.859c-.21-.245-.415-.485-.625-.725-10.634,10.614-20.668,20.628-31.331,31.271,2.763,2.499,5.592,5.062,8.425,7.625h-2.499c-2.239-2.369-4.477-4.737-6.676-7.061-2.683,2.583-4.997,4.822-7.316,7.061h-1.999c2.558-2.788,5.117-5.572,7.6-8.27-10.094-10.084-20.128-20.108-29.802-29.772-9.984,9.939-20.073,19.973-30.172,30.022,2.359,2.553,4.877,5.287,7.401,8.02h-1.999c-2.289-2.369-4.582-4.737-7.101-7.336-2.494,2.653-4.692,4.992-6.891,7.336h-2.499c2.688-2.763,5.377-5.522,7.84-8.05-10.244-10.299-20.188-20.298-29.972-30.132-.48.475-.954.954-1.434,1.429-9.499,9.479-19.079,19.049-29.307,29.253,2.713,2.424,5.557,4.962,8.4,7.501h-2.499c-2.194-2.314-4.382-4.622-6.506-6.861-.545.225-.825.26-.989.42-2.174,2.134-4.332,4.287-6.496,6.441h-1.999c2.533-2.788,5.072-5.577,7.381-8.115-.889-.889-1.774-1.779-2.663-2.663-9.199-9.224-18.294-18.334-27.469-27.524-.08.05-.39.185-.615.405-9.424,9.404-18.829,18.829-28.268,28.218-.999.989-.999,1.679-.01,2.673,2.279,2.284,4.452,4.662,6.671,7.006h-1.999c-1.924-1.934-3.778-3.943-5.812-5.747-.51-.455-1.964-.65-2.359-.285-2.049,1.889-3.903,3.998-5.822,6.031h-2.499c2.638-2.743,5.282-5.482,7.8-8.1-10.189-10.154-20.238-20.163-30.062-29.952-9.874,9.839-19.908,19.843-30.617,30.512,2.723,2.444,5.567,4.992,8.405,7.54h-2.499c-2.249-2.374-4.497-4.742-6.771-7.136-2.628,2.593-4.927,4.867-7.221,7.136h-1.999c2.553-2.788,5.107-5.577,7.521-8.21-10.124-10.089-20.163-20.093-30.087-29.982-9.854,9.839-19.883,19.858-30.002,29.967,2.459,2.658,5.027,5.442,7.595,8.225h-1.999c-2.344-2.329-4.682-4.652-7.241-7.196-2.354,2.504-4.552,4.847-6.751,7.196h-2.499c2.688-2.768,5.377-5.532,7.74-7.965-10.279-10.309-20.243-20.298-30.847-30.931-.31.415-.62.869-.944,1.334l-.879-.899.01-.01c1.174-1.134,1.189-1.954.035-3.068-3.398-3.273-6.736-6.616-10.094-9.929v-1.999c3.778,3.593,7.56,7.186,11.143,10.589.435.41.864.825,1.294,1.229,10.209-10.149,20.213-20.098,30.062-29.897-9.914-9.924-19.928-19.948-30.577-30.612-3.858,4.108-7.89,8.41-11.923,12.712v-2.499c3.588-3.888,7.176-7.77,11.023-11.938-3.393-3.248-7.211-6.901-11.023-10.549v-2.499c4.178,4.128,8.355,8.26,12.562,12.418.55-.405.919-.605,1.204-.889,9.354-9.339,18.674-18.714,28.073-28.003,1.529-1.509.495-2.239-.465-3.198-8.58-8.58-17.155-17.165-25.735-25.745-.914-.914-1.884-1.779-2.943-2.778-.974.929-1.749,1.669-2.518,2.409-3.393,3.268-6.786,6.536-10.179,9.809v-1.999c3.278-3.273,6.506-6.596,9.859-9.794,1.334-1.269,1.364-2.149.02-3.423C3.319,29.863.08,26.55-3.208,23.287v-1.999c4.232,4.028,8.465,8.055,12.363,11.763.81-.805,1.624-1.614,2.429-2.414C20.978,21.298,30.182,12.144,39.277,3.099,29.398-6.76,19.404-16.734,9.185-26.933,5.157-22.955.975-18.823-3.208-14.69v-2.499c3.553-3.918,7.106-7.83,10.259-11.298-3.113-3.393-6.686-7.291-10.259-11.188v-2.499c4.008,4.322,8.02,8.64,11.863,12.782,10.719-10.744,20.723-20.773,30.512-30.582-9.834-9.864-19.833-19.898-29.957-30.052-.59.545-1.324,1.204-2.034,1.884-3.468,3.328-6.926,6.656-10.384,9.989v-1.999c3.293-3.268,6.556-6.561,9.899-9.779,1.284-1.234,1.374-2.184.025-3.468-3.363-3.188-6.626-6.486-9.924-9.739v-1.999c3.768,3.578,7.54,7.161,11.158,10.599.45.425.899.849,1.344,1.274,10.199-10.169,20.193-20.133,30.022-29.927-9.929-9.944-19.948-19.973-30.662-30.702-3.838,4.128-7.85,8.45-11.863,12.777v-2.499c3.583-3.883,7.161-7.765,10.888-11.803-1.389-1.474-3.143-3.333-4.892-5.187h2.499c3.363,5.012,4.063,5.087,7.99.83.215-.235.34-.555.505-.83h2.499c-1.744,1.874-3.483,3.753-5.307,5.717.485.605.849,1.149,1.304,1.609,9.1,9.115,18.234,18.194,27.294,27.354,1.314,1.324,2.069,1.019,3.213-.15,5.007-5.097,10.069-10.139,15.156-15.156,4.482-4.427,9.02-8.8,13.612-13.267-1.984-2.289-3.643-4.197-5.302-6.106h1.999q4.332,4.827,8.84.19c.06-.055.105-.125.155-.19h1.999c-1.654,1.909-3.313,3.818-4.697,5.422,10.104,10.124,20.068,20.113,29.887,29.952,9.814-9.839,19.773-19.823,29.852-29.927-1.584-1.699-3.328-3.573-5.072-5.447h2.499c1.109,1.204,2.154,2.494,3.378,3.578.365.325,1.494.35,1.839.035,1.199-1.094,2.199-2.394,3.278-3.613h2.499c-1.754,1.859-3.503,3.723-5.142,5.467,10.129,10.114,20.108,20.078,30.192,30.142.035-.015.385-.105.605-.33,9.474-9.464,18.929-18.944,28.403-28.408.929-.924.775-1.639-.09-2.513-1.379-1.404-2.668-2.903-3.998-4.357h1.999c5.522,5.622,3.618,5.192,8.83.18.06-.055.11-.12.165-.18h1.999c-.914,1.044-1.774,2.154-2.758,3.133-2.558,2.543-2.588,2.528-.14,4.987,7.58,7.59,15.171,15.181,22.761,22.761,1.694,1.689,3.423,3.338,4.962,4.837,9.299-9.294,18.419-18.414,27.643-27.628.879-.879,1.759-1.759,2.638-2.638-1.629-1.729-3.383-3.593-5.137-5.452h2.499c3.403,4.992,4.113,5.067,7.995.83.215-.235.335-.555.5-.83h2.499c-1.739,1.874-3.478,3.753-4.977,5.367.735.74,1.474,1.479,2.209,2.219,9.339,9.384,18.584,18.679,27.778,27.913,9.824-9.849,19.778-19.828,29.827-29.902-1.544-1.779-3.203-3.688-4.867-5.597h1.999c5.452,5.592,3.693,5.142,8.84.19.055-.06.105-.13.155-.19h1.999c-1.659,1.909-3.318,3.823-5.027,5.797.445.53.785.999,1.189,1.404,9.16,9.17,18.359,18.304,27.464,27.534,1.579,1.599,2.369.61,3.408-.43,8.925-8.945,17.859-17.874,26.779-26.814.515-.515.949-1.109,1.499-1.759-1.854-1.989-3.598-3.863-5.342-5.732h2.499c1.109,1.209,2.149,2.504,3.368,3.588.36.32,1.479.33,1.829.01,1.199-1.089,2.214-2.384,3.298-3.598h2.499c-1.759,1.859-3.518,3.723-5.921,6.261.22.18.44.355.655.525l-.839.849-.115-.115c-10.289,10.214-20.353,20.198-30.242,30.012,9.779,9.809,19.743,19.798,29.837,29.927.395-.35.844-.735,1.289-1.144.15-.14.295-.275.44-.42,3.778-3.758,7.521-7.55,11.323-11.283,2.479-2.424,5.042-4.762,7.565-7.141v1.999c-6.016,5.976-12.008,11.983-18.069,17.909-1.354,1.324-.899,2.194.2,3.278,5.971,5.916,11.913,11.858,17.869,17.789v1.999c-.64-.5-1.339-.934-1.909-1.504-5.432-5.397-10.834-10.824-16.255-16.23-.815-.81-1.684-1.559-2.314-2.139-10.174,10.164-20.203,20.183-29.982,29.952,9.874,9.924,19.878,19.978,30.512,30.667.035-.04.075-.075.11-.115l.79.76c-.095.09-.065.305-.095.465-.18.18-.36.36-.54.545.59.455,1.199.889,1.794,1.339l-.924.919-.07-.07c-1.374-1.399-2.199-1.414-3.598.005-8.945,9.065-17.949,18.069-27.024,27.004-1.484,1.464-1.229,2.264.11,3.588l.09.09c8.905,8.805,17.729,17.694,26.584,26.544.58.58,1.219,1.094,2.019,1.809,6.966-6.961,13.832-13.817,20.703-20.678v2.499c-5.946,5.931-11.858,11.903-17.864,17.779-1.329,1.299-1.334,2.119,0,3.418,6.001,5.876,11.918,11.843,17.864,17.779v2.499c-6.851-6.881-13.702-13.762-20.118-20.208-.38.38-.76.755-1.139,1.129-9.904,9.829-19.583,19.428-29.058,28.833,9.809,9.784,19.803,19.748,29.992,29.912,6.661-6.611,13.492-13.397,20.323-20.178v2.499c-.63.52-1.304.999-1.884,1.574-5.062,5.022-10.104,10.064-15.151,15.101-2.513,2.504-2.538,2.523.04,5.077,5.652,5.587,11.328,11.148,16.995,16.725ZM386.165,36.244c1.159-1.154,1.034-1.979-.09-3.093-9.08-9.03-18.134-18.084-27.149-27.179-1.304-1.319-2.184-1.249-3.453.07-3.873,4.008-7.85,7.915-11.803,11.848-5.537,5.512-11.083,11.013-16.7,16.595.32.57.395.825.56.989,9.409,9.419,18.844,18.819,28.213,28.273,1.239,1.244,2.074.889,3.098-.14,9.1-9.135,18.199-18.264,27.324-27.364ZM357.192,127.7c9.914-9.889,19.908-19.853,29.812-29.732-9.879-9.879-19.858-19.853-29.512-29.507-9.979,9.919-20.028,19.903-29.697,29.512,9.744,9.849,19.668,19.883,29.397,29.727ZM386.714-91.974c-9.684-9.689-19.608-19.628-29.442-29.472-9.854,9.944-19.783,19.968-29.642,29.922,9.699,9.754,19.643,19.763,29.267,29.437,9.939-9.964,19.943-19.988,29.817-29.887ZM357.247,1.275c9.839-9.844,19.808-19.823,29.407-29.427-9.924-10.054-19.873-20.143-29.462-29.857-9.889,9.834-19.888,19.773-29.692,29.522,9.869,9.874,19.853,19.863,29.747,29.762ZM357.152,190.972c9.889-9.849,19.878-19.798,29.722-29.597-10.004-10.024-19.958-19.998-29.672-29.732-9.874,9.839-19.903,19.838-29.647,29.552,9.834,9.889,19.773,19.893,29.597,29.777ZM355.558,2.974c-.2-.26-.46-.685-.8-1.024-9.224-9.244-18.484-18.449-27.668-27.733-1.344-1.364-2.149-.924-3.248.185-5.732,5.792-11.473,11.573-17.27,17.295-3.763,3.723-7.63,7.346-11.193,10.764,10.489,10.449,20.533,20.453,30.362,30.252,9.749-9.724,19.738-19.688,29.817-29.737ZM348.677,73.697c2.384-2.394,4.762-4.792,6.921-6.966-10.199-10.239-20.158-20.233-29.842-29.957-9.944,9.914-19.988,19.923-30.112,30.007.095.125.315.48.6.77,9.229,9.229,18.489,18.439,27.678,27.708,1.374,1.384,2.224,1.064,3.443-.165,7.066-7.171,14.202-14.271,21.312-21.397ZM355.143-59.923c-9.859-9.879-19.918-19.953-29.497-29.552-9.864,9.779-19.928,19.753-29.692,29.427,9.814,9.884,19.763,19.908,29.612,29.832,9.914-9.954,19.923-20.008,29.577-29.707ZM325.416,159.221c9.994-9.919,20.063-19.903,29.677-29.442-9.874-9.919-19.878-19.968-29.722-29.862-9.814,9.799-19.808,19.778-29.682,29.637,9.959,9.939,19.998,19.958,29.727,29.667ZM325.676-93.288c9.844-9.889,19.793-19.893,29.742-29.887-9.924-9.944-19.938-19.978-29.732-29.787-9.939,9.914-19.973,19.928-29.852,29.787,9.864,9.879,19.878,19.908,29.842,29.887ZM324.476,35.06c-1.099-1.194-1.739-1.949-2.434-2.643-8.705-8.71-17.46-17.375-26.094-26.149-1.554-1.579-2.439-1.549-3.978.015-8.87,9.005-17.824,17.929-26.819,26.809-1.244,1.229-1.334,1.984-.085,3.218,9.1,9.02,18.179,18.059,27.189,27.169,1.449,1.464,2.304,1.224,3.613-.12,4.877-5.002,9.834-9.934,14.801-14.846,4.497-4.437,9.045-8.815,13.807-13.452ZM323.967-91.899c-.23-.275-.575-.735-.974-1.134-9.17-9.194-18.364-18.359-27.484-27.598-1.384-1.399-2.149-.844-3.228.245-8.985,9.03-17.974,18.054-27.034,27.014-1.349,1.334-1.249,2.144.04,3.423,9.055,8.965,18.034,17.999,27.054,26.999.51.51,1.109.924,1.514,1.259,10.099-10.134,20.058-20.123,30.112-30.207ZM323.507,161.599c-9.969-10.024-19.953-20.068-29.992-30.172.14-.08-.03-.02-.14.09-9.444,9.394-18.859,18.814-28.343,28.168-1.419,1.399-.75,2.174.315,3.233,9.025,8.99,18.009,18.014,27.019,27.019.505.505,1.099.914,1.609,1.334,10.074-10.124,19.978-20.073,29.532-29.672ZM323.607-28.532c-9.789-9.869-19.718-19.878-29.487-29.732-9.969,9.969-19.983,19.993-29.767,29.782,9.819,9.859,19.773,19.848,29.552,29.662,9.909-9.914,19.928-19.933,29.702-29.712ZM323.662,97.942c-9.799-9.824-19.758-19.813-29.557-29.642-9.939,9.914-19.963,19.913-29.587,29.517,9.824,9.919,19.783,19.978,29.527,29.817,9.834-9.859,19.793-19.843,29.617-29.692ZM292.326,2.929c-.08-.13-.21-.445-.435-.665-9.404-9.424-18.839-18.814-28.203-28.273-1.364-1.374-2.104-.57-3.038.365-4.922,4.952-9.849,9.904-14.796,14.826-4.587,4.567-9.209,9.095-13.732,13.557,10.289,10.254,20.328,20.253,30.162,30.057,9.959-9.904,19.963-19.848,30.042-29.867ZM291.486,130.953c1.489-1.474.555-2.244-.43-3.228-8.88-8.87-17.749-17.749-26.634-26.624-.62-.62-1.304-1.179-1.539-1.389-10.234,10.234-20.258,20.258-30.057,30.052,9.724,9.794,19.668,19.813,29.677,29.892.195-.135.5-.285.725-.51,9.414-9.399,18.799-18.834,28.258-28.193ZM285.405,73.807c2.399-2.394,4.852-4.727,6.986-6.801-10.309-10.364-20.293-20.403-30.152-30.317-9.839,9.789-19.838,19.733-30.037,29.882.465.51.884,1.014,1.349,1.479,8.985,9,18.014,17.959,26.939,27.029,1.509,1.534,2.364,1.374,3.773-.06,6.991-7.121,14.072-14.162,21.142-21.212ZM262.259-30.361c9.924-9.914,19.948-19.923,29.887-29.852-9.794-9.804-19.768-19.783-29.612-29.632-9.944,9.969-19.953,20.003-29.792,29.867,9.794,9.829,19.808,19.878,29.517,29.617ZM292.141-123.485c-9.819-9.829-19.798-19.818-29.642-29.672-9.959,9.959-19.993,19.998-29.757,29.762,9.974,10.019,19.933,20.018,29.532,29.657,9.884-9.844,19.923-19.848,29.867-29.747ZM259.55-89.97c1.529-1.509.969-2.459-.265-3.683-8.96-8.915-17.879-17.864-26.824-26.789-.505-.505-1.099-.919-1.664-1.384-.435.32-.73.48-.954.71-9.354,9.354-18.674,18.739-28.073,28.043-1.474,1.459-.635,2.209.38,3.218,7.605,7.575,15.216,15.146,22.771,22.771,1.859,1.879,3.523,3.948,5.282,5.936,1.009-.72,1.234-.839,1.404-1.009,9.309-9.274,18.589-18.579,27.943-27.813ZM260.81,34.755c-.46-.59-.805-1.149-1.254-1.604-9.05-9.06-18.134-18.089-27.154-27.184-1.349-1.359-2.169-1.164-3.428.115-8.885,8.985-17.804,17.934-26.799,26.809-1.484,1.469-1.469,2.329.005,3.783,9.045,8.935,18.019,17.949,26.974,26.974,1.094,1.104,1.864,1.319,3.058.115,9.08-9.155,18.209-18.254,27.314-27.379.455-.455.805-1.014,1.284-1.629ZM259.405,162.998c1.354-1.344,1.469-2.279.045-3.673-5.762-5.642-11.478-11.333-17.12-17.09-3.713-3.793-7.271-7.73-10.963-11.673-1.149.924-1.499,1.154-1.789,1.439-9.244,9.229-18.459,18.484-27.738,27.673-1.359,1.344-.879,2.149.23,3.248,7.84,7.8,15.636,15.651,23.461,23.471,1.684,1.689,3.428,3.318,5.167,5.002.595-.46,1.024-.72,1.369-1.064,9.11-9.115,18.194-18.254,27.339-27.334ZM230.053,2c10.639-10.609,20.628-20.568,30.552-30.462-9.929-9.864-19.943-19.803-30.067-29.857-.12.09-.57.325-.909.665-9.314,9.284-18.599,18.594-27.938,27.853-1.344,1.334-.56,2.119.39,3.063,6.951,6.931,13.927,13.842,20.813,20.833,2.553,2.593,4.892,5.392,7.161,7.905ZM230.797,127.784c9.909-9.929,19.868-19.918,29.757-29.832-9.879-9.834-19.878-19.793-29.712-29.592-9.929,9.854-19.933,19.783-29.722,29.497,9.884,9.964,19.823,19.988,29.677,29.927ZM229.333,3.259c-.385-.51-.68-.999-1.064-1.399-1.274-1.314-2.578-2.593-3.873-3.888-7.82-7.825-15.661-15.631-23.446-23.491-1.199-1.209-2.044-1.584-3.448-.165-9.005,9.11-18.084,18.149-27.149,27.194-.944.944-1.744,1.674-.37,3.038,9.334,9.244,18.609,18.544,27.868,27.858.999,1.004,1.689.964,2.668-.02,9.199-9.254,18.439-18.474,27.658-27.713.395-.4.715-.874,1.154-1.414ZM228.264-58.694c1.149-1.139.844-1.874-.145-2.863-9.199-9.16-18.384-18.339-27.529-27.549-1.089-1.094-1.814-1.014-2.863.04-9.15,9.209-18.324,18.394-27.549,27.534-1.194,1.184-1.109,1.969.02,3.058,2.693,2.598,5.327,5.257,7.96,7.915,6.851,6.896,13.687,13.802,20.663,20.838.63-.425.934-.57,1.159-.795,9.424-9.389,18.834-18.809,28.283-28.178ZM228.224,67.73c.39-.395.69-.884,1.099-1.414-.41-.525-.71-1.009-1.109-1.404-9.16-9.18-18.349-18.324-27.479-27.534-1.264-1.274-2.044-1.099-3.228.09-9.07,9.15-18.179,18.259-27.329,27.334-1.144,1.134-1.204,1.894-.035,3.053,9.209,9.14,18.379,18.319,27.529,27.514,1.024,1.034,1.764,1.199,2.873.08,9.204-9.259,18.449-18.474,27.678-27.718ZM227.824-121.466c.515-.515.959-1.099,1.334-1.529-10.149-10.139-20.173-20.153-30.097-30.062-9.869,9.839-19.858,19.788-30.072,29.967.725.755,1.334,1.424,1.974,2.064,8.765,8.775,17.569,17.505,26.259,26.354,1.609,1.644,2.489,1.384,3.968-.11,8.825-8.945,17.749-17.794,26.634-26.684ZM227.589,131.617c.62-.62,1.159-1.314,1.564-1.774-10.194-10.204-20.163-20.188-30.052-30.087-9.864,9.874-19.823,19.843-29.972,30.002.31.385.595.79.934,1.134,9.229,9.254,18.484,18.474,27.668,27.768,1.439,1.459,2.189.65,3.213-.38,8.87-8.9,17.764-17.774,26.644-26.664ZM196.548,162.674c1.629-1.604.495-2.389-.515-3.403-8.885-8.88-17.804-17.734-26.614-26.684-1.484-1.509-2.309-1.459-3.758.01-8.755,8.88-17.574,17.699-26.454,26.449-1.599,1.579-1.749,2.548-.055,4.197,6.196,6.031,12.233,12.228,18.349,18.339,3.278,3.273,6.591,6.511,9.934,9.809.545-.4.904-.605,1.184-.884,9.309-9.279,18.579-18.599,27.928-27.833ZM196.458,99.491c1.319-1.299,1.034-2.104-.12-3.243-5.737-5.662-11.453-11.348-17.115-17.085-3.783-3.828-7.466-7.75-10.933-11.363-10.514,10.424-20.568,20.388-30.557,30.292,9.884,9.879,19.858,19.843,29.917,29.887.36-.285.844-.6,1.249-.999,9.185-9.165,18.334-18.359,27.559-27.489ZM196.303,36.529c1.269-1.254,1.464-2.094.11-3.438-9.16-9.065-18.249-18.199-27.374-27.299-.4-.395-.884-.7-1.434-1.129-.58.46-1.134.81-1.589,1.264-9.01,8.985-17.989,18.004-27.029,26.959-1.319,1.309-1.559,2.209-.095,3.653,9.065,8.93,18.064,17.929,27.024,26.964,1.289,1.299,2.074,1.364,3.408.015,8.94-9.05,17.939-18.039,26.979-26.989ZM195.998-26.443c1.579-1.554,1.654-2.404.075-3.958-7.835-7.705-15.556-15.526-23.331-23.296-1.679-1.679-3.408-3.313-5.122-4.972-.525.415-.805.595-1.034.825-9.314,9.284-18.599,18.599-27.953,27.838-1.324,1.314-1.004,2.144.135,3.263,4.212,4.143,8.39,8.32,12.552,12.513,5.267,5.312,10.509,10.649,16.02,16.24,1.079-1.004,1.819-1.654,2.513-2.354,8.705-8.71,17.355-17.475,26.144-26.099ZM195.928-89.57c1.644-1.614,1.724-2.513.06-4.133-6.141-5.976-12.178-12.063-18.179-18.179-3.313-3.368-6.476-6.876-9.704-10.324-.21.16-.42.325-.63.485-.33.23-.705.415-.984.695-9.244,9.214-18.454,18.464-27.743,27.638-1.564,1.544-.879,2.459.33,3.658,8.495,8.445,16.945,16.93,25.425,25.39.979.974,2.019,1.889,3.098,2.893.68-.62,1.184-1.034,1.644-1.494,8.885-8.89,17.719-17.824,26.684-26.629ZM166.086,2.889c-.325-.37-.625-.76-.974-1.104-9.06-9.065-18.164-18.084-27.159-27.209-1.569-1.594-2.464-1.479-3.978.055-8.82,8.955-17.749,17.814-26.634,26.714-.52.52-.994,1.089-1.269,1.394,10.124,10.149,20.128,20.188,30.052,30.137,9.794-9.804,19.778-19.793,29.962-29.987ZM160.894,72.033c1.809-1.784,3.843-3.348,5.492-4.772-10.629-10.694-20.618-20.743-30.697-30.882-.215.175-.555.405-.839.69-9.299,9.279-18.574,18.594-27.918,27.828-1.409,1.389-.79,2.154.28,3.218,8.965,8.915,17.934,17.824,26.804,26.834,1.544,1.569,2.429,1.564,3.963,0,7.57-7.705,15.231-15.326,22.916-22.916ZM135.959-30.206c9.849-9.874,19.868-19.908,29.402-29.462-9.869-9.984-19.873-20.098-29.667-30.007-9.799,9.799-19.768,19.768-29.587,29.592,9.924,9.934,19.943,19.958,29.852,29.877ZM136.139-93.458c9.789-9.814,19.758-19.803,29.502-29.572-10.044-10.034-20.063-20.053-29.667-29.652-9.814,9.764-19.848,19.753-29.617,29.472,9.844,9.834,19.853,19.838,29.782,29.752ZM165.542,129.713c-9.884-9.934-19.883-19.978-29.522-29.667-9.889,9.824-19.938,19.803-29.902,29.702,9.829,9.824,19.798,19.788,29.597,29.582,10.049-9.979,20.108-19.968,29.827-29.617ZM133.426-90.33c1.349-1.334.57-2.104-.385-3.053-9.015-8.995-18.044-17.979-27.004-27.029-1.294-1.309-2.094-1.354-3.418-.01-8.945,9.055-17.974,18.029-26.964,27.039-.515.515-.949,1.104-1.304,1.524,10.074,10.099,20.028,20.088,30.082,30.172.225-.125.395-.18.51-.29,9.489-9.454,18.964-18.929,28.483-28.353ZM132.961,163.013c1.574-1.549,1.259-2.414-.125-3.783-8.88-8.785-17.689-17.634-26.529-26.459-.625-.62-1.324-1.159-1.924-1.689-10.134,10.129-20.068,20.063-29.907,29.902,10.044,10.084,19.998,20.083,30.072,30.197.44-.385,1.019-.839,1.534-1.359,8.955-8.945,17.859-17.934,26.879-26.809ZM104.318,1.26c9.939-9.879,19.938-19.823,29.872-29.702-9.939-9.849-19.958-19.778-29.802-29.537-9.824,9.784-19.853,19.763-29.592,29.462,9.814,9.899,19.753,19.918,29.522,29.777ZM134.015,34.985c-9.984-10.064-19.903-20.063-29.897-30.142-.125.09-.43.235-.655.46-9.364,9.329-18.704,18.684-28.103,27.978-1.374,1.359-.795,2.164.29,3.238,6.846,6.796,13.637,13.642,20.463,20.453,2.683,2.678,5.412,5.307,8.065,7.905,10.209-10.224,20.163-20.203,29.837-29.892ZM134.22,98.002c-9.904-9.904-19.888-19.878-29.742-29.732-9.999,9.964-19.988,19.918-29.647,29.552,9.849,9.934,19.818,19.988,29.597,29.852,9.884-9.844,19.878-19.798,29.792-29.672ZM102.674,2.919c-.05-.08-.19-.385-.41-.61-9.404-9.419-18.824-18.824-28.213-28.263-1.004-1.009-1.709-.959-2.673.035-2.668,2.743-5.412,5.412-8.12,8.11-6.886,6.866-13.767,13.732-20.433,20.383,10.224,10.309,20.203,20.373,29.967,30.217,9.834-9.824,19.813-19.803,29.882-29.872ZM98.617,70.928c1.459-1.444,3.168-2.633,4.577-3.793-10.604-10.629-20.573-20.618-30.442-30.507-9.999,9.994-19.993,19.983-30.067,30.052.14.17.365.515.65.8,9.229,9.239,18.479,18.459,27.668,27.733,1.314,1.324,2.174,1.219,3.448-.075,8.01-8.115,16.07-16.18,24.166-24.211ZM72.582,159.111c9.944-9.829,20.023-19.788,29.672-29.327-9.874-9.949-19.858-20.018-29.637-29.872-9.839,9.824-19.828,19.798-29.547,29.507,10.014,10.074,20.003,20.123,29.512,29.692ZM102.569-123.17c-9.899-9.874-19.888-19.848-29.892-29.827-9.859,9.854-19.888,19.878-29.807,29.787,9.924,9.924,19.948,19.953,29.837,29.842,9.934-9.914,19.968-19.928,29.862-29.802ZM72.862-30.491c9.819-9.784,19.823-19.743,29.742-29.622-9.924-9.904-19.963-19.918-29.907-29.837-9.889,9.904-19.913,19.938-29.557,29.592,9.919,9.969,19.963,20.063,29.722,29.867ZM71.348,35.09c-.355-.62-.435-.869-.605-1.039-9.399-9.429-18.829-18.834-28.198-28.298-1.259-1.269-2.084-.83-3.093.185-9.105,9.125-18.209,18.254-27.354,27.339-1.064,1.059-1.139,1.814-.07,2.873,9.145,9.095,18.284,18.189,27.359,27.354,1.459,1.469,2.364,1.139,3.648-.165,5.712-5.822,11.493-11.578,17.27-17.335,3.648-3.638,7.326-7.241,11.043-10.913ZM71.143,160.995c-.255-.315-.58-.79-.979-1.189-9.175-9.19-18.374-18.344-27.509-27.569-1.224-1.239-1.994-.969-3.053.095-9.224,9.259-18.479,18.494-27.708,27.743-.33.33-.515.8-.745,1.174,10.064,10.014,20.023,19.928,29.937,29.792,10.014-10.009,19.988-19.978,30.057-30.047ZM40.661-61.362c10.434-10.424,20.413-20.388,30.127-30.087-9.909-9.939-19.903-19.963-29.957-30.047-.105.075-.4.235-.63.465-9.369,9.339-18.724,18.704-28.118,28.018-1.169,1.159-.785,1.909.195,2.868,3.263,3.208,6.491,6.456,9.699,9.719,6.241,6.341,12.458,12.707,18.684,19.064ZM70.613,98.142c-9.794-9.914-19.708-19.953-29.352-29.717-9.939,9.904-19.963,19.898-29.727,29.627,9.819,9.884,19.763,19.888,29.452,29.647,9.969-9.949,20.003-19.953,29.627-29.557ZM41.151,1.295c9.929-9.954,19.903-19.943,29.632-29.687-9.869-9.929-19.858-19.978-29.652-29.827-9.929,9.869-19.948,19.828-29.852,29.672C21.218-18.618,31.202-8.644,41.151,1.295Z"/>
        <path class="cls-5" d="M409.546,73.757v2.499c-6.831,6.781-13.662,13.567-20.323,20.178-10.189-10.164-20.183-20.128-29.992-29.912,9.474-9.404,19.154-19.004,29.058-28.833l.41.41c-3.158,3.278-5.996,6.286-8.905,9.224-5.787,5.847-11.608,11.663-17.43,17.475-.869.869-1.724,1.549-.44,2.823,8.735,8.66,17.43,17.36,26.144,26.044.17.165.425.245.924.53,6.821-6.786,13.687-13.612,20.553-20.438Z"/>
        <path class="cls-4" d="M409.546,58.766v14.991c-6.866,6.826-13.732,13.652-20.553,20.438-.5-.285-.755-.365-.924-.53-8.715-8.685-17.41-17.385-26.144-26.044-1.284-1.274-.43-1.954.44-2.823,5.822-5.812,11.643-11.628,17.43-17.475,2.908-2.938,5.747-5.946,8.905-9.224,4.352,4.417,8.27,8.455,12.258,12.423,2.813,2.798,5.722,5.497,8.59,8.245ZM388.828,79.034c2.893-5.702,6.976-9.654,12.577-12.657-5.812-2.853-9.534-7.111-12.697-12.473-2.818,5.692-7.056,9.414-12.288,12.577,5.477,2.988,9.444,6.891,12.408,12.552Z"/>
        <path class="cls-5" d="M409.546,56.767v1.999c-2.868-2.748-5.777-5.447-8.59-8.245-3.988-3.968-7.905-8.005-12.258-12.423l-.41-.41c.38-.375.76-.75,1.139-1.129,6.416,6.446,13.267,13.327,20.118,20.208Z"/>
        <path class="cls-5" d="M409.546,51.77v2.499c-5.946-5.936-11.863-11.903-17.864-17.779-1.334-1.299-1.329-2.119,0-3.418,6.006-5.876,11.918-11.848,17.864-17.779v2.499c-5.242,5.182-10.469,10.379-15.736,15.541-1.059,1.039-1.069,1.849,0,2.898,5.272,5.152,10.494,10.354,15.736,15.541Z"/>
        <path class="cls-6" d="M409.546,40.777v10.993c-5.242-5.187-10.464-10.389-15.736-15.541-1.069-1.049-1.059-1.859,0-2.898,5.267-5.162,10.494-10.359,15.736-15.541v13.992c-2.948,2.289-2.948,6.091,0,8.995Z"/>
        <path class="cls-5" d="M409.546,10.794v1.999c-6.871,6.861-13.737,13.717-20.703,20.678-.8-.715-1.439-1.229-2.019-1.809-8.855-8.85-17.679-17.739-26.584-26.544l.825-.835c1.209.939,2.828,2.039,4.197,3.388,7.226,7.141,14.411,14.311,21.517,21.572,1.489,1.514,2.354,1.724,3.948.07,5.487-5.692,11.143-11.218,16.75-16.795.635-.63,1.374-1.154,2.069-1.724Z"/>
        <path class="cls-4" d="M409.546-4.197v14.991c-.695.57-1.434,1.094-2.069,1.724-5.607,5.577-11.263,11.103-16.75,16.795-1.594,1.654-2.459,1.444-3.948-.07-7.106-7.261-14.291-14.431-21.517-21.572-1.369-1.349-2.988-2.449-4.197-3.388-.08-.06-.16-.125-.235-.185,9.884-9.944,19.064-19.179,28.603-28.778.05.055.105.105.16.16,6.556,6.681,13.257,13.502,19.953,20.323ZM399.042,7.372c2.898-3.548,3.793-7.94,2.049-12.473-.904-2.344-2.334-4.272-5.042-4.657-2.663-.385-4.397,1.089-5.747,3.168-.4.61-.795,1.224-1.449,2.234-.874-1.279-1.469-2.264-2.179-3.153-2.593-3.248-6.926-3.248-8.945.345-1.154,2.054-1.884,4.702-1.769,7.036.385,7.92,5.951,12.213,12.123,15.866.465.275,1.549.115,1.989-.26,3.078-2.613,6.451-5.017,8.97-8.105Z"/>
        <path class="cls-5" d="M401.091-5.101c1.744,4.532.849,8.925-2.049,12.473-2.518,3.088-5.891,5.492-8.97,8.105-.44.375-1.524.535-1.989.26-6.171-3.653-11.738-7.945-12.123-15.866-.115-2.334.615-4.982,1.769-7.036,2.019-3.593,6.351-3.593,8.945-.345.71.889,1.304,1.874,2.179,3.153.655-1.009,1.049-1.624,1.449-2.234,1.349-2.079,3.083-3.553,5.747-3.168,2.708.385,4.138,2.314,5.042,4.657Z"/>
        <path class="cls-5" d="M390.662-25.569l-1.069,1.049c-.055-.055-.11-.105-.16-.16-9.539,9.599-18.719,18.834-28.603,28.778.075.06.155.125.235.185l-.825.835-.09-.09c-1.339-1.324-1.594-2.124-.11-3.588,9.075-8.935,18.079-17.939,27.024-27.004,1.399-1.419,2.224-1.404,3.598-.005Z"/>
        <path class="cls-5" d="M386.075,33.151c1.124,1.114,1.249,1.939.09,3.093-9.125,9.1-18.224,18.229-27.324,27.364-1.024,1.029-1.859,1.384-3.098.14-9.369-9.454-18.804-18.854-28.213-28.273-.165-.165-.24-.42-.56-.989,5.617-5.582,11.163-11.083,16.7-16.595,3.953-3.933,7.93-7.84,11.803-11.848,1.269-1.319,2.149-1.389,3.453-.07,9.015,9.095,18.069,18.149,27.149,27.179ZM383.801,36.214c.395-.395.71-.879,1.174-1.464-.52-.61-.959-1.194-1.469-1.704-8.225-8.23-16.48-16.435-24.67-24.7-1.194-1.204-2.014-1.364-3.273-.095-8.315,8.38-16.67,16.72-25.045,25.04-1.044,1.034-1.149,1.839-.07,2.913,8.43,8.385,16.84,16.785,25.235,25.205,1.029,1.034,1.844,1.129,2.923.04,8.38-8.43,16.795-16.82,25.195-25.235Z"/>
        <path class="cls-6" d="M384.975,34.75c-.465.585-.78,1.069-1.174,1.464-8.4,8.415-16.815,16.805-25.195,25.235-1.079,1.089-1.894.994-2.923-.04-8.395-8.42-16.805-16.82-25.235-25.205-1.079-1.074-.974-1.879.07-2.913,8.375-8.32,16.73-16.66,25.045-25.04,1.259-1.269,2.079-1.109,3.273.095,8.19,8.265,16.445,16.47,24.67,24.7.51.51.949,1.094,1.469,1.704ZM368.305,43.25c2.688-2.419,2.553-6.746-.29-9.834-2.424-2.633-4.817-5.292-7.261-7.905-1.169-1.249-2.419-2.414-3.718-3.703-1.924,2.119-3.723,4.078-5.497,6.051-2.164,2.409-4.507,4.687-6.411,7.291-1.899,2.593-1.029,6.741,1.394,8.54,2.344,1.734,5.462,1.274,7.85-1.139.585-.595,1.219-1.139,1.834-1.704l.675.525c-1.249,2.014-2.494,4.028-3.808,6.146h8.595c-.964-1.189-1.829-2.064-2.469-3.083-.645-1.029-1.074-2.204-1.599-3.313.934.07,1.354.42,1.734.815,2.998,3.153,6.376,3.653,8.97,1.314Z"/>
        <path class="cls-4" d="M368.015,33.416c2.843,3.088,2.978,7.416.29,9.834-2.593,2.339-5.971,1.839-8.97-1.314-.38-.395-.8-.745-1.734-.815l-.72.25-.675-.525c-.615.565-1.249,1.109-1.834,1.704-2.389,2.414-5.507,2.873-7.85,1.139-2.424-1.799-3.293-5.946-1.394-8.54,1.904-2.603,4.247-4.882,6.411-7.291,1.774-1.974,3.573-3.933,5.497-6.051,1.299,1.289,2.548,2.454,3.718,3.703,2.444,2.613,4.837,5.272,7.261,7.905Z"/>
        <path class="cls-4" d="M361.669,47.517h-8.595c1.314-2.119,2.558-4.133,3.808-6.146l.72-.25c.525,1.109.954,2.284,1.599,3.313.64,1.019,1.504,1.894,2.469,3.083Z"/>
        <path class="cls-5" d="M386.654-28.152c-9.599,9.604-19.568,19.583-29.407,29.427-9.894-9.899-19.878-19.888-29.747-29.762,9.804-9.749,19.803-19.688,29.692-29.522,9.589,9.714,19.538,19.803,29.462,29.857ZM385.125-27.882c-.35-.76-.385-.944-.49-1.054-8.74-8.79-17.485-17.564-26.209-26.364-1.089-1.099-1.844-.615-2.708.255-8.29,8.295-16.58,16.59-24.905,24.845-1.254,1.244-1.359,2.124-.005,3.458,8.29,8.175,16.535,16.4,24.7,24.705,1.469,1.494,2.304,1.249,3.603-.105,3.398-3.538,6.906-6.976,10.399-10.424,5.202-5.132,10.434-10.234,15.616-15.316Z"/>
        <path class="cls-5" d="M354.758,1.95c.34.34.6.765.8,1.024-10.079,10.049-20.068,20.013-29.817,29.737-9.829-9.799-19.873-19.803-30.362-30.252,3.563-3.418,7.431-7.041,11.193-10.764,5.797-5.722,11.538-11.503,17.27-17.295,1.099-1.109,1.904-1.549,3.248-.185,9.185,9.284,18.444,18.489,27.668,27.733ZM353.724,3.539c-.914-1.014-1.434-1.634-1.999-2.204-8.105-8.12-16.255-16.195-24.28-24.39-1.539-1.569-2.354-1.324-3.753.095-8.05,8.175-16.155,16.3-24.34,24.335-1.549,1.519-1.359,2.354.07,3.763,8.23,8.12,16.395,16.305,24.51,24.535,1.364,1.384,2.169,1.169,3.413-.11,4.702-4.822,9.479-9.574,14.276-14.306,3.953-3.898,7.975-7.725,12.103-11.718Z"/>
        <path class="cls-4" d="M353.369,66.291c-.49.605-.854,1.144-1.309,1.594-8.335,8.355-16.71,16.675-25.005,25.07-1.224,1.239-1.919,1.004-3.013-.1-8.25-8.32-16.53-16.62-24.875-24.85-1.374-1.354-1.189-2.134.095-3.403,8.285-8.18,16.525-16.4,24.69-24.7,1.384-1.409,2.154-1.164,3.393.09,8.13,8.215,16.325,16.365,24.49,24.545.515.515.964,1.099,1.534,1.754ZM334.51,72.463c3.538-3.868,5.077-8.565,3.538-13.837-.76-2.593-2.259-4.717-5.127-5.217-2.783-.48-4.497,1.224-5.906,3.333-.4.595-.825,1.174-1.409,2.004-.78-1.099-1.354-1.979-1.994-2.808-2.863-3.698-7.441-3.538-9.469.67-1.059,2.194-1.604,4.992-1.329,7.401.83,7.341,6.086,11.488,11.958,14.951.48.285,1.554.105,2.044-.265,2.643-1.984,5.492-3.818,7.695-6.231Z"/>
        <path class="cls-4" d="M351.725,1.335c.565.57,1.084,1.189,1.999,2.204-4.128,3.993-8.15,7.82-12.103,11.718-4.797,4.732-9.574,9.484-14.276,14.306-1.244,1.279-2.049,1.494-3.413.11-8.115-8.23-16.28-16.415-24.51-24.535-1.429-1.409-1.619-2.244-.07-3.763,8.185-8.035,16.29-16.16,24.34-24.335,1.399-1.419,2.214-1.664,3.753-.095,8.025,8.195,16.175,16.27,24.28,24.39ZM330.958,8.481c1.964-1.964,4.322-3.533,6.816-5.517-5.302-2.763-9.254-6.761-12.193-12.323-2.878,5.597-6.881,9.464-12.547,12.562,5.767,2.973,9.539,7.156,12.413,12.068,1.954-2.444,3.538-4.812,5.512-6.791Z"/>
        <path class="cls-5" d="M355.598,66.731c-2.159,2.174-4.537,4.572-6.921,6.966-7.111,7.126-14.246,14.226-21.312,21.397-1.219,1.229-2.069,1.549-3.443.165-9.19-9.269-18.449-18.479-27.678-27.708-.285-.29-.505-.645-.6-.77,10.124-10.084,20.168-20.093,30.112-30.007,9.684,9.724,19.643,19.718,29.842,29.957ZM352.06,67.885c.455-.45.82-.989,1.309-1.594-.57-.655-1.019-1.239-1.534-1.754-8.165-8.18-16.36-16.33-24.49-24.545-1.239-1.254-2.009-1.499-3.393-.09-8.165,8.3-16.405,16.52-24.69,24.7-1.284,1.269-1.469,2.049-.095,3.403,8.345,8.23,16.625,16.53,24.875,24.85,1.094,1.104,1.789,1.339,3.013.1,8.295-8.395,16.67-16.715,25.005-25.07Z"/>
        <path class="cls-5" d="M337.773,2.964c-2.494,1.984-4.852,3.553-6.816,5.517-1.974,1.979-3.558,4.347-5.512,6.791-2.873-4.912-6.646-9.095-12.413-12.068,5.667-3.098,9.669-6.966,12.547-12.562,2.938,5.562,6.891,9.559,12.193,12.323Z"/>
        <path class="cls-5" d="M322.043,32.417c.695.695,1.334,1.449,2.434,2.643-4.762,4.637-9.309,9.015-13.807,13.452-4.967,4.912-9.924,9.844-14.801,14.846-1.309,1.344-2.164,1.584-3.613.12-9.01-9.11-18.089-18.149-27.189-27.169-1.249-1.234-1.159-1.989.085-3.218,8.995-8.88,17.949-17.804,26.819-26.809,1.539-1.564,2.424-1.594,3.978-.015,8.635,8.775,17.39,17.44,26.094,26.149ZM320.599,36.349c1.104-1.099,1.279-1.899.08-3.083-8.395-8.305-16.76-16.645-25.08-25.025-1.294-1.304-2.134-1.034-3.283.12-8.265,8.315-16.56,16.6-24.885,24.855-1.124,1.114-1.239,1.899-.055,3.068,8.39,8.31,16.725,16.67,25.09,25.005.445.45,1.004.785,1.599,1.239.63-.505,1.179-.869,1.634-1.324,8.3-8.285,16.58-16.59,24.9-24.855Z"/>
        <path class="cls-6" d="M320.679,33.266c1.199,1.184,1.024,1.984-.08,3.083-8.32,8.265-16.6,16.57-24.9,24.855-.455.455-1.004.82-1.634,1.324-.595-.455-1.154-.79-1.599-1.239-8.365-8.335-16.7-16.695-25.09-25.005-1.184-1.169-1.069-1.954.055-3.068,8.325-8.255,16.62-16.54,24.885-24.855,1.149-1.154,1.989-1.424,3.283-.12,8.32,8.38,16.685,16.72,25.08,25.025ZM303.674,41.871c2.264-1.144,3.543-3.538,3.338-6.211-.22-2.823-1.849-4.992-4.772-5.672-1.494-.35-1.764-1.029-1.889-2.349-.345-3.683-2.853-5.921-6.411-5.906-3.383.015-5.951,2.289-6.281,5.807-.135,1.414-.38,2.109-2.009,2.479-3.453.78-5.302,4.118-4.527,7.471.8,3.453,3.718,5.567,7.256,4.827,1.759-.37,3.363-1.494,5.502-2.494-.02.045-.04.085-.06.13-1.169,2.633-2.259,5.077-3.368,7.575h7.156c-1.164-2.583-2.244-4.977-3.328-7.371.225-.12.45-.235.675-.355.36.325.715.655,1.074.979,2.124,1.914,5.167,2.349,7.645,1.089Z"/>
        <path class="cls-4" d="M307.012,35.66c.205,2.673-1.074,5.067-3.338,6.211-2.479,1.259-5.522.825-7.645-1.089-.36-.325-.715-.655-1.074-.979-.225.12-.45.235-.675.355l-.46-.205c.02-.045.04-.085.06-.13-2.139.999-3.743,2.124-5.502,2.494-3.538.74-6.456-1.374-7.256-4.827-.775-3.353,1.074-6.691,4.527-7.471,1.629-.37,1.874-1.064,2.009-2.479.33-3.518,2.898-5.792,6.281-5.807,3.558-.015,6.066,2.224,6.411,5.906.125,1.319.395,1.999,1.889,2.349,2.923.68,4.552,2.848,4.772,5.672Z"/>
        <path class="cls-5" d="M294.12-58.264c9.769,9.854,19.698,19.863,29.487,29.732-9.774,9.779-19.793,19.798-29.702,29.712-9.779-9.814-19.733-19.803-29.552-29.662,9.784-9.789,19.798-19.813,29.767-29.782ZM320.544-26.948c.4-.4.74-.864,1.194-1.409-.44-.58-.78-1.139-1.229-1.594-8.34-8.36-16.705-16.695-25.03-25.07-1.144-1.154-1.949-1.084-3.083.06-8.32,8.38-16.675,16.72-25.06,25.035-1.149,1.139-1.119,1.909.045,3.058,8.4,8.305,16.755,16.655,25.075,25.04,1.179,1.194,1.934,1.074,3.053-.05,8.315-8.385,16.685-16.715,25.035-25.07Z"/>
        <path class="cls-4" d="M297.608,47.527h-7.156c1.109-2.499,2.199-4.942,3.368-7.575l.46.205c1.084,2.394,2.164,4.787,3.328,7.371Z"/>
        <path class="cls-5" d="M291.891,2.265c.225.22.355.535.435.665-10.079,10.019-20.083,19.963-30.042,29.867-9.834-9.804-19.873-19.803-30.162-30.057,4.522-4.462,9.145-8.99,13.732-13.557,4.947-4.922,9.874-9.874,14.796-14.826.934-.934,1.674-1.739,3.038-.365,9.364,9.459,18.799,18.849,28.203,28.273ZM290.287,3.504c-.37-.625-.485-.954-.705-1.174-8.64-8.67-17.295-17.32-25.919-26.004-1.019-1.024-1.694-.869-2.653.125-3.473,3.583-7.016,7.101-10.569,10.609-5.317,5.252-10.664,10.474-15.95,15.661.37.76.41.939.52,1.049,8.705,8.71,17.435,17.395,26.099,26.154,1.249,1.264,1.904.64,2.818-.275,5.397-5.432,10.819-10.844,16.25-16.24,3.353-3.328,6.751-6.616,10.109-9.904Z"/>
        <path class="cls-4" d="M289.582,2.33c.22.22.335.55.705,1.174-3.358,3.288-6.756,6.576-10.109,9.904-5.432,5.397-10.854,10.809-16.25,16.24-.914.914-1.569,1.539-2.818.275-8.665-8.76-17.395-17.445-26.099-26.154-.11-.11-.15-.29-.52-1.049,5.287-5.187,10.634-10.409,15.95-15.661,3.553-3.508,7.096-7.026,10.569-10.609.959-.994,1.634-1.149,2.653-.125,8.625,8.685,17.28,17.335,25.919,26.004ZM271.553,8.891c3.288-3.438,4.312-7.77,3.563-12.478-.48-3.043-2.713-5.702-5.132-6.116-3.113-.535-5.022,1.119-6.451,3.618-.28.485-.655.914-1.189,1.649-.844-1.219-1.394-2.139-2.064-2.963-2.788-3.403-6.656-3.308-9.155.325-1.714,2.504-2.234,5.377-1.619,8.345,1.429,6.931,6.171,11.183,12.038,14.411.54.295,1.694.115,2.219-.285,2.673-2.074,5.462-4.073,7.79-6.506Z"/>
        <path class="cls-4" d="M289.168,65.112c1.049,1.039.869,1.719-.08,2.663-8.435,8.39-16.845,16.81-25.25,25.235-.839.839-1.494,1.434-2.648.265-8.67-8.74-17.395-17.425-26.089-26.134-.17-.17-.25-.42-.575-.994,6.736-6.696,13.392-13.317,20.043-19.938,2.124-2.114,4.277-4.197,6.336-6.371.979-1.039,1.709-1.304,2.853-.155,8.435,8.51,16.905,16.985,25.41,25.43ZM262.464,78.979c2.813-5.687,6.951-9.499,12.368-12.577-5.497-3.093-9.524-6.946-12.468-12.642-2.893,5.757-6.966,9.749-12.732,12.707,5.966,2.798,9.709,7.036,12.832,12.513Z"/>
        <path class="cls-5" d="M292.391,67.006c-2.134,2.074-4.587,4.407-6.986,6.801-7.071,7.051-14.152,14.092-21.142,21.212-1.409,1.434-2.264,1.594-3.773.06-8.925-9.07-17.954-18.029-26.939-27.029-.465-.465-.884-.969-1.349-1.479,10.199-10.149,20.198-20.093,30.037-29.882,9.859,9.914,19.843,19.953,30.152,30.317ZM289.088,67.775c.949-.944,1.129-1.624.08-2.663-8.505-8.445-16.975-16.92-25.41-25.43-1.144-1.149-1.874-.884-2.853.155-2.059,2.174-4.212,4.257-6.336,6.371-6.651,6.621-13.307,13.242-20.043,19.938.325.575.405.825.575.994,8.695,8.71,17.42,17.395,26.089,26.134,1.154,1.169,1.809.575,2.648-.265,8.405-8.425,16.815-16.845,25.25-25.235Z"/>
        <path class="cls-5" d="M275.116-3.587c.75,4.707-.275,9.04-3.563,12.478-2.329,2.434-5.117,4.432-7.79,6.506-.525.4-1.679.58-2.219.285-5.866-3.228-10.609-7.481-12.038-14.411-.615-2.968-.095-5.842,1.619-8.345,2.499-3.633,6.366-3.728,9.155-.325.67.825,1.219,1.744,2.064,2.963.535-.735.909-1.164,1.189-1.649,1.429-2.499,3.338-4.153,6.451-3.618,2.419.415,4.652,3.073,5.132,6.116Z"/>
        <path class="cls-5" d="M259.555,33.151c.45.455.795,1.014,1.254,1.604-.48.615-.83,1.174-1.284,1.629-9.105,9.125-18.234,18.224-27.314,27.379-1.194,1.204-1.964.989-3.058-.115-8.955-9.025-17.929-18.039-26.974-26.974-1.474-1.454-1.489-2.314-.005-3.783,8.995-8.875,17.914-17.824,26.799-26.809,1.259-1.279,2.079-1.474,3.428-.115,9.02,9.095,18.104,18.124,27.154,27.184ZM257.107,36.559c1.259-1.244,1.439-2.129.085-3.473-8.335-8.245-16.61-16.545-24.87-24.86-1.114-1.124-1.859-1.229-3.048-.03-8.305,8.39-16.66,16.725-25.04,25.03-1.104,1.094-1.314,1.854-.105,3.048,8.45,8.36,16.84,16.775,25.265,25.165.39.39.884.685,1.434,1.104.58-.49,1.109-.869,1.564-1.324,8.24-8.22,16.45-16.47,24.715-24.66Z"/>
        <path class="cls-6" d="M257.192,33.086c1.354,1.344,1.174,2.229-.085,3.473-8.265,8.19-16.475,16.44-24.715,24.66-.455.455-.984.835-1.564,1.324-.55-.42-1.044-.715-1.434-1.104-8.425-8.39-16.815-16.805-25.265-25.165-1.209-1.194-.999-1.954.105-3.048,8.38-8.305,16.735-16.64,25.04-25.03,1.189-1.199,1.934-1.094,3.048.03,8.26,8.315,16.535,16.615,24.87,24.86ZM241.656,43.535c2.379-1.909,3.028-6.316.899-8.835-3.693-4.367-7.665-8.5-11.823-13.067-4.187,4.652-8.385,8.915-12.083,13.577-2.164,2.733-1.074,6.556,1.714,8.61,2.359,1.734,5.437,1.119,7.87-1.694.47-.54.56-1.399.825-2.114l1.244,1.049c-.485,1.079-.869,2.224-1.479,3.233-.62,1.034-1.459,1.939-2.444,3.213h8.375c-1.219-2.134-2.354-4.118-3.488-6.101.295-.195.585-.39.874-.585.415.505.795,1.039,1.249,1.509,2.548,2.623,5.896,3.103,8.265,1.204Z"/>
        <path class="cls-5" d="M260.605-28.462c-9.924,9.894-19.913,19.853-30.552,30.462-2.269-2.513-4.607-5.312-7.161-7.905-6.886-6.991-13.862-13.902-20.813-20.833-.949-.944-1.734-1.729-.39-3.063,9.339-9.259,18.624-18.569,27.938-27.853.34-.34.79-.575.909-.665,10.124,10.054,20.138,19.993,30.067,29.857ZM257.477-27.058c1.124-1.114.989-1.839-.04-2.863-8.375-8.34-16.72-16.7-25.05-25.085-1.079-1.089-1.854-1.289-3.063-.065-8.245,8.345-16.525,16.645-24.88,24.88-1.469,1.454-1.214,2.319.11,3.633,8.275,8.195,16.475,16.465,24.705,24.695.45.45.994.8,1.549,1.239.52-.425.924-.705,1.264-1.044,8.465-8.465,16.91-16.96,25.405-25.39Z"/>
        <path class="cls-4" d="M242.555,34.7c2.129,2.518,1.479,6.926-.899,8.835-2.369,1.899-5.717,1.419-8.265-1.204-.455-.47-.835-1.004-1.249-1.509-.29.195-.58.39-.874.585l-.964-.345-1.244-1.049c-.265.715-.355,1.574-.825,2.114-2.434,2.813-5.512,3.428-7.87,1.694-2.788-2.054-3.878-5.876-1.714-8.61,3.698-4.662,7.895-8.925,12.083-13.577,4.158,4.567,8.13,8.7,11.823,13.067Z"/>
        <path class="cls-4" d="M234.755,47.508h-8.375c.984-1.274,1.824-2.179,2.444-3.213.61-1.009.994-2.154,1.479-3.233l.964.345c1.134,1.984,2.269,3.968,3.488,6.101Z"/>
        <path class="cls-5" d="M228.269,1.86c.385.4.68.889,1.064,1.399-.44.54-.76,1.014-1.154,1.414-9.219,9.239-18.459,18.459-27.658,27.713-.979.984-1.669,1.024-2.668.02-9.259-9.314-18.534-18.614-27.868-27.858-1.374-1.364-.575-2.094.37-3.038,9.065-9.045,18.144-18.084,27.149-27.194,1.404-1.419,2.249-1.044,3.448.165,7.785,7.86,15.626,15.666,23.446,23.491,1.294,1.294,2.598,2.573,3.873,3.888ZM225.835,4.603c1.119-1.109,1.054-1.769,0-2.823-8.445-8.385-16.86-16.805-25.24-25.255-1.074-1.084-1.769-1.074-2.843.01-8.325,8.39-16.68,16.745-25.08,25.06-1.249,1.234-1.174,2.014.045,3.223,8.395,8.31,16.725,16.685,25.08,25.035.395.39.869.705,1.404,1.134.58-.5,1.104-.889,1.559-1.344,8.355-8.35,16.68-16.73,25.075-25.04Z"/>
        <path class="cls-5" d="M229.323,66.316c-.41.53-.71,1.019-1.099,1.414-9.229,9.244-18.474,18.459-27.678,27.718-1.109,1.119-1.849.954-2.873-.08-9.15-9.194-18.319-18.374-27.529-27.514-1.169-1.159-1.109-1.919.035-3.053,9.15-9.075,18.259-18.184,27.329-27.334,1.184-1.189,1.964-1.364,3.228-.09,9.13,9.209,18.319,18.354,27.479,27.534.4.395.7.879,1.109,1.404ZM225.77,67.85c1.184-1.179,1.099-1.874-.06-3.018-8.395-8.305-16.755-16.655-25.055-25.06-1.199-1.214-1.874-1.104-3.008.04-8.305,8.395-16.65,16.755-25.05,25.06-1.209,1.189-1.119,1.889.02,3.018,8.39,8.32,16.73,16.695,25.09,25.05.4.4.864.74,1.419,1.204.56-.44,1.109-.79,1.559-1.239,8.36-8.355,16.69-16.735,25.085-25.055Z"/>
        <path class="cls-4" d="M225.835,1.78c1.054,1.054,1.119,1.714,0,2.823-8.395,8.31-16.72,16.69-25.075,25.04-.455.455-.979.844-1.559,1.344-.535-.43-1.009-.745-1.404-1.134-8.355-8.35-16.685-16.725-25.08-25.035-1.219-1.209-1.294-1.989-.045-3.223,8.4-8.315,16.755-16.67,25.08-25.06,1.074-1.084,1.769-1.094,2.843-.01,8.38,8.45,16.795,16.87,25.24,25.255ZM199.136,15.806c2.968-5.637,6.951-9.614,12.682-12.662-5.847-2.913-9.674-7.011-12.697-12.468-2.973,5.662-6.936,9.549-12.458,12.448,5.477,3.108,9.599,6.946,12.473,12.682Z"/>
        <path class="cls-4" d="M225.711,64.832c1.159,1.144,1.244,1.839.06,3.018-8.395,8.32-16.725,16.7-25.085,25.055-.45.45-.999.8-1.559,1.239-.555-.465-1.019-.805-1.419-1.204-8.36-8.355-16.7-16.73-25.09-25.05-1.139-1.129-1.229-1.829-.02-3.018,8.4-8.305,16.745-16.665,25.05-25.06,1.134-1.144,1.809-1.254,3.008-.04,8.3,8.405,16.66,16.755,25.055,25.06ZM208.721,71.643c3.413-4.033,4.582-8.845,2.528-13.992-.899-2.264-2.474-4.013-5.077-4.272-2.543-.26-4.207,1.199-5.487,3.213-.425.67-.879,1.319-1.564,2.344-.64-1.024-1.039-1.709-1.479-2.369-1.244-1.889-2.788-3.378-5.242-3.213-2.623.175-4.577,1.779-5.137,4.098-.66,2.728-1.134,5.827-.505,8.48,1.454,6.146,6.126,9.909,11.398,12.862.655.365,2.054.14,2.683-.35,2.738-2.134,5.667-4.178,7.88-6.801Z"/>
        <path class="cls-5" d="M211.819,3.144c-5.732,3.048-9.714,7.026-12.682,12.662-2.873-5.737-6.996-9.574-12.473-12.682,5.522-2.898,9.484-6.786,12.458-12.448,3.023,5.457,6.851,9.554,12.697,12.468Z"/>
        <path class="cls-5" d="M196.413,33.091c1.354,1.344,1.159,2.184-.11,3.438-9.04,8.95-18.039,17.939-26.979,26.989-1.334,1.349-2.119,1.284-3.408-.015-8.96-9.035-17.959-18.034-27.024-26.964-1.464-1.444-1.224-2.344.095-3.653,9.04-8.955,18.019-17.974,27.029-26.959.455-.455,1.009-.805,1.589-1.264.55.43,1.034.735,1.434,1.129,9.125,9.1,18.214,18.234,27.374,27.299ZM194.169,36.234c.4-.4.725-.869,1.204-1.449-.52-.61-.954-1.199-1.464-1.709-8.17-8.17-16.39-16.285-24.48-24.525-1.524-1.554-2.359-1.399-3.773.035-8.055,8.165-16.16,16.285-24.345,24.315-1.564,1.539-1.294,2.449.09,3.823,8.16,8.065,16.285,16.165,24.335,24.335,1.379,1.399,2.199,1.474,3.598.05,8.235-8.335,16.555-16.585,24.835-24.875Z"/>
        <path class="cls-5" d="M196.073-30.401c1.579,1.554,1.504,2.404-.075,3.958-8.79,8.625-17.44,17.39-26.144,26.099-.695.7-1.434,1.349-2.513,2.354-5.512-5.592-10.754-10.928-16.02-16.24-4.163-4.192-8.34-8.37-12.552-12.513-1.139-1.119-1.459-1.949-.135-3.263,9.354-9.239,18.639-18.554,27.953-27.838.23-.23.51-.41,1.034-.825,1.714,1.659,3.443,3.293,5.122,4.972,7.775,7.77,15.496,15.591,23.331,23.296ZM195.289-28.407c-.445-.575-.795-1.129-1.244-1.584-8.285-8.305-16.595-16.585-24.855-24.91-1.169-1.174-1.984-1.374-3.263-.085-8.25,8.345-16.555,16.63-24.89,24.89-1.214,1.204-1.269,2.004-.005,3.253,8.395,8.305,16.735,16.66,25.05,25.045,1.039,1.049,1.714,1.209,2.838.08,8.375-8.445,16.815-16.83,25.225-25.245.4-.395.705-.884,1.144-1.444Z"/>
        <path class="cls-6" d="M195.374,34.785c-.48.58-.805,1.049-1.204,1.449-8.28,8.29-16.6,16.54-24.835,24.875-1.399,1.424-2.219,1.349-3.598-.05-8.05-8.17-16.175-16.27-24.335-24.335-1.384-1.374-1.654-2.284-.09-3.823,8.185-8.03,16.29-16.15,24.345-24.315,1.414-1.434,2.249-1.589,3.773-.035,8.09,8.24,16.31,16.355,24.48,24.525.51.51.944,1.099,1.464,1.709ZM177.734,41.511c2.314-1.424,3.358-3.718,2.848-6.441-.625-3.368-2.958-5.027-6.306-5.482-.43-5.122-2.419-7.655-6.091-7.83-3.993-.19-6.821,1.599-7.366,7.83-3.078.5-5.502,1.944-6.131,5.247-.53,2.768.29,5.212,2.828,6.651,3.378,1.914,6.451.994,9.17-1.699.18.15.355.305.53.46-1.064,2.419-2.129,4.837-3.183,7.246h7.106c-1.154-2.588-2.199-4.942-3.248-7.301.17-.21.34-.42.51-.635,2.718,3.108,5.866,4.088,9.334,1.954Z"/>
        <path class="cls-4" d="M180.583,35.07c.51,2.723-.535,5.017-2.848,6.441-3.468,2.134-6.616,1.154-9.334-1.954-.17.215-.34.425-.51.635l-.675.055c-.175-.155-.35-.31-.53-.46-2.718,2.693-5.792,3.613-9.17,1.699-2.538-1.439-3.358-3.883-2.828-6.651.63-3.303,3.053-4.747,6.131-5.247.545-6.231,3.373-8.02,7.366-7.83,3.673.175,5.662,2.708,6.091,7.83,3.348.455,5.682,2.114,6.306,5.482Z"/>
        <path class="cls-4" d="M171.138,47.493h-7.106c1.054-2.409,2.119-4.827,3.183-7.246l.675-.055c1.049,2.359,2.094,4.712,3.248,7.301Z"/>
        <path class="cls-5" d="M165.112,1.785c.35.345.65.735.974,1.104-10.184,10.194-20.168,20.183-29.962,29.987-9.924-9.949-19.928-19.988-30.052-30.137.275-.305.75-.874,1.269-1.394,8.885-8.9,17.814-17.759,26.634-26.714,1.514-1.534,2.409-1.649,3.978-.055,8.995,9.125,18.099,18.144,27.159,27.209ZM158.871,8.281c1.639-1.629,3.428-3.103,4.972-4.492-9.639-9.649-18.844-18.854-27.863-27.873-9.005,8.985-18.229,18.189-27.593,27.529.085.13.19.365.36.535,8.59,8.6,17.2,17.175,25.75,25.81,1.214,1.224,1.944.974,3.038-.135,7.076-7.161,14.192-14.281,21.337-21.372Z"/>
        <path class="cls-4" d="M161.989,64.447c.575.575,1.119,1.179,1.589,1.674-9.359,9.269-18.599,18.424-27.713,27.454-8.86-8.93-18.029-18.179-27.389-27.613.275-.295.859-.964,1.484-1.594,8-8.005,16.05-15.955,23.961-24.051,1.674-1.709,2.528-1.519,4.108.095,7.91,8.08,15.96,16.03,23.961,24.036ZM135.954,79.019c2.943-5.657,6.946-9.674,12.642-12.612-5.807-2.918-9.659-7.101-12.752-12.602-2.793,5.832-7.031,9.539-12.338,12.667,5.582,2.993,9.504,6.931,12.448,12.547Z"/>
        <path class="cls-5" d="M166.386,67.261c-1.649,1.424-3.683,2.988-5.492,4.772-7.685,7.59-15.346,15.211-22.916,22.916-1.534,1.564-2.419,1.569-3.963,0-8.87-9.01-17.839-17.919-26.804-26.834-1.069-1.064-1.689-1.829-.28-3.218,9.344-9.234,18.619-18.549,27.918-27.828.285-.285.625-.515.839-.69,10.079,10.139,20.068,20.188,30.697,30.882ZM163.578,66.121c-.47-.495-1.014-1.099-1.589-1.674-8-8.005-16.05-15.955-23.961-24.036-1.579-1.614-2.434-1.804-4.108-.095-7.91,8.095-15.96,16.045-23.961,24.051-.625.63-1.209,1.299-1.484,1.594,9.359,9.434,18.529,18.684,27.389,27.613,9.115-9.03,18.354-18.184,27.713-27.454Z"/>
        <path class="cls-4" d="M163.843,3.789c-1.544,1.389-3.333,2.863-4.972,4.492-7.146,7.091-14.261,14.211-21.337,21.372-1.094,1.109-1.824,1.359-3.038.135-8.55-8.635-17.16-17.21-25.75-25.81-.17-.17-.275-.405-.36-.535,9.364-9.339,18.589-18.544,27.593-27.529,9.02,9.02,18.224,18.224,27.863,27.873ZM145.034,9.115c3.333-4.148,5.137-8.765,3.243-14.127-.805-2.279-2.164-4.158-4.717-4.697-2.778-.59-4.577.914-6.051,3.013-.465.66-.904,1.334-1.509,2.229-.899-1.254-1.574-2.374-2.419-3.343-2.459-2.828-6.396-2.743-8.55.315-.874,1.239-1.539,2.793-1.789,4.292-1.189,7.136,2.424,12.203,7.725,16.18,5.467,4.103,4.452,3.978,9.714.2,1.604-1.149,3.118-2.528,4.352-4.063Z"/>
        <path class="cls-5" d="M148.277-5.011c1.894,5.362.09,9.979-3.243,14.127-1.234,1.534-2.748,2.913-4.352,4.063-5.262,3.778-4.247,3.903-9.714-.2-5.302-3.978-8.915-9.045-7.725-16.18.25-1.499.914-3.053,1.789-4.292,2.154-3.058,6.091-3.143,8.55-.315.844.969,1.519,2.089,2.419,3.343.605-.894,1.044-1.569,1.509-2.229,1.474-2.099,3.273-3.603,6.051-3.013,2.553.54,3.913,2.419,4.717,4.697Z"/>
        <path class="cls-6" d="M130.807,33.106c1.204,1.189,1.329,1.994.055,3.253-8.265,8.19-16.465,16.45-24.695,24.675-.515.515-1.104.949-1.764,1.509-.635-.495-1.194-.835-1.644-1.289-8.37-8.33-16.705-16.69-25.1-24.995-1.204-1.189-1.004-1.964.1-3.058,8.27-8.2,16.52-16.41,24.695-24.7,1.509-1.534,2.434-1.304,3.833.11,8.125,8.215,16.31,16.37,24.52,24.495ZM116.586,41.911c1.414-2.284.994-5.797-.919-7.945-2.763-3.108-5.627-6.126-8.42-9.209-.924-1.019-1.759-2.129-2.718-3.298-1.374,1.494-2.279,2.464-3.168,3.443-2.958,3.263-6.076,6.396-8.825,9.829-2.139,2.668-1.494,6.821.934,8.805,2.389,1.954,5.607,1.494,8.205-1.159.53-.54,1.124-1.019,1.684-1.524.22.17.445.345.665.515-1.244,2.014-2.489,4.028-3.798,6.146h8.27c-1.334-2.129-2.608-4.173-3.883-6.216.255-.18.515-.355.77-.535.605.635,1.114,1.404,1.824,1.879,1.144.76,2.354,1.614,3.653,1.909,2.444.555,4.432-.55,5.727-2.638Z"/>
        <path class="cls-4" d="M115.666,33.966c1.914,2.149,2.334,5.662.919,7.945-1.294,2.089-3.283,3.193-5.727,2.638-1.299-.295-2.508-1.149-3.653-1.909-.71-.475-1.219-1.244-1.824-1.879-.255.18-.515.355-.77.535l-.59.07c-.22-.17-.445-.345-.665-.515-.56.505-1.154.984-1.684,1.524-2.598,2.653-5.817,3.113-8.205,1.159-2.429-1.984-3.073-6.136-.934-8.805,2.748-3.433,5.866-6.566,8.825-9.829.889-.979,1.794-1.949,3.168-3.443.959,1.169,1.794,2.279,2.718,3.298,2.793,3.083,5.657,6.101,8.42,9.209Z"/>
        <path class="cls-5" d="M134.19-28.442c-9.934,9.879-19.933,19.823-29.872,29.702-9.769-9.859-19.708-19.878-29.522-29.777,9.739-9.699,19.768-19.678,29.592-29.462,9.844,9.759,19.863,19.688,29.802,29.537ZM130.692-26.578c1.354-1.339,1.524-2.169.07-3.598-8.3-8.17-16.52-16.42-24.71-24.69-1.194-1.209-1.994-1.359-3.258-.085-8.255,8.33-16.565,16.61-24.885,24.875-1.154,1.144-1.399,1.934-.07,3.248,8.415,8.285,16.74,16.67,25.105,25.01.4.4.879.72,1.459,1.184.555-.46,1.084-.83,1.534-1.279,8.25-8.225,16.465-16.485,24.755-24.665Z"/>
        <path class="cls-5" d="M104.118,4.843c9.994,10.079,19.913,20.078,29.897,30.142-9.674,9.689-19.628,19.668-29.837,29.892-2.653-2.598-5.382-5.227-8.065-7.905-6.826-6.811-13.617-13.657-20.463-20.453-1.084-1.074-1.664-1.879-.29-3.238,9.399-9.294,18.739-18.649,28.103-27.978.225-.225.53-.37.655-.46ZM130.862,36.359c1.274-1.259,1.149-2.064-.055-3.253-8.21-8.125-16.395-16.28-24.52-24.495-1.399-1.414-2.324-1.644-3.833-.11-8.175,8.29-16.425,16.5-24.695,24.7-1.104,1.094-1.304,1.869-.1,3.058,8.395,8.305,16.73,16.665,25.1,24.995.45.455,1.009.795,1.644,1.289.66-.56,1.249-.994,1.764-1.509,8.23-8.225,16.43-16.485,24.695-24.675Z"/>
        <path class="cls-4" d="M108.496,47.512h-8.27c1.309-2.119,2.553-4.133,3.798-6.146l.59-.07c1.274,2.044,2.548,4.088,3.883,6.216Z"/>
        <path class="cls-5" d="M102.264,2.31c.22.225.36.53.41.61-10.069,10.069-20.048,20.048-29.882,29.872-9.764-9.844-19.743-19.908-29.967-30.217,6.666-6.651,13.547-13.517,20.433-20.383,2.708-2.698,5.452-5.367,8.12-8.11.964-.994,1.669-1.044,2.673-.035,9.389,9.439,18.809,18.844,28.213,28.263ZM100.475,3.284c-.305-.445-.525-.889-.859-1.224-8.58-8.595-17.155-17.185-25.805-25.705-.38-.375-1.779-.365-2.169.015C63.053-15.17,54.548-6.625,46.003,1.88c-.949.944-1.064,1.649-.03,2.678,8.45,8.375,16.865,16.78,25.245,25.225,1.144,1.154,1.889,1.174,3.048,0,8.315-8.39,16.69-16.725,25.04-25.085.4-.4.725-.874,1.169-1.414Z"/>
        <path class="cls-4" d="M99.616,2.06c.335.335.555.78.859,1.224-.445.54-.77,1.014-1.169,1.414-8.35,8.36-16.725,16.695-25.04,25.085-1.159,1.174-1.904,1.154-3.048,0-8.38-8.445-16.795-16.85-25.245-25.225-1.034-1.029-.919-1.734.03-2.678,8.545-8.505,17.05-17.05,25.64-25.51.39-.38,1.789-.39,2.169-.015,8.65,8.52,17.225,17.11,25.805,25.705ZM72.762,15.652c2.943-5.542,7.056-9.389,12.423-12.523-5.547-2.998-9.574-6.921-12.508-12.622-2.778,5.861-6.981,9.609-12.408,12.712,5.612,3.013,9.439,7.046,12.493,12.433Z"/>
        <path class="cls-4" d="M99.191,64.697c1.199,1.189,1.349,1.934.06,3.213-8.4,8.295-16.72,16.675-25.07,25.02-.4.395-.864.73-1.389,1.174-.52-.4-1.009-.695-1.399-1.089-8.415-8.4-16.805-16.825-25.245-25.2-1.174-1.164-1.074-1.904.07-3.038,8.395-8.305,16.755-16.65,25.06-25.05,1.229-1.244,1.929-.999,3.018.1,8.265,8.325,16.555,16.62,24.895,24.87ZM83.67,69.739c2.409-4.307,3.093-8.81.535-13.287-2.279-3.978-6.596-4.187-9.414-.6-.655.835-1.214,1.744-2.044,2.943-.8-1.149-1.329-1.984-1.924-2.763-2.893-3.773-7.371-3.703-9.469.495-1.089,2.179-1.654,4.982-1.394,7.391.795,7.336,5.971,11.548,11.888,14.971.51.295,1.519.185,2.074-.13,3.943-2.239,7.496-4.977,9.749-9.02Z"/>
        <path class="cls-5" d="M103.194,67.136c-1.409,1.159-3.118,2.349-4.577,3.793-8.095,8.03-16.155,16.095-24.166,24.211-1.274,1.294-2.134,1.399-3.448.075-9.19-9.274-18.439-18.494-27.668-27.733-.285-.285-.51-.63-.65-.8,10.074-10.069,20.068-20.058,30.067-30.052,9.869,9.889,19.838,19.878,30.442,30.507ZM99.251,67.91c1.289-1.279,1.139-2.024-.06-3.213-8.34-8.25-16.63-16.545-24.895-24.87-1.089-1.099-1.789-1.344-3.018-.1-8.305,8.4-16.665,16.745-25.06,25.05-1.144,1.134-1.244,1.874-.07,3.038,8.44,8.375,16.83,16.8,25.245,25.2.39.395.879.69,1.399,1.089.525-.445.989-.78,1.389-1.174,8.35-8.345,16.67-16.725,25.07-25.02Z"/>
        <path class="cls-5" d="M85.185,3.129c-5.367,3.133-9.479,6.981-12.423,12.523-3.053-5.387-6.881-9.419-12.493-12.433,5.427-3.103,9.629-6.851,12.408-12.712,2.933,5.702,6.961,9.624,12.508,12.622Z"/>
        <path class="cls-5" d="M70.743,34.051c.17.17.25.42.605,1.039-3.718,3.673-7.396,7.276-11.043,10.913-5.777,5.757-11.558,11.513-17.27,17.335-1.284,1.304-2.189,1.634-3.648.165-9.075-9.165-18.214-18.259-27.359-27.354-1.069-1.059-.994-1.814.07-2.873,9.145-9.085,18.249-18.214,27.354-27.339,1.009-1.014,1.834-1.454,3.093-.185,9.369,9.464,18.799,18.869,28.198,28.298ZM67.6,36.479c1.354-1.334,1.269-2.159-.02-3.438-8.22-8.13-16.405-16.3-24.52-24.535-1.494-1.514-2.384-1.369-3.818.085-8.11,8.24-16.285,16.41-24.525,24.515-1.384,1.359-1.244,2.124.035,3.388,8.34,8.24,16.615,16.55,24.915,24.83.4.4.869.73,1.474,1.239.62-.5,1.224-.904,1.734-1.409,8.24-8.225,16.44-16.495,24.725-24.675Z"/>
        <path class="cls-6" d="M67.58,33.041c1.289,1.279,1.374,2.104.02,3.438-8.285,8.18-16.485,16.45-24.725,24.675-.51.505-1.114.909-1.734,1.409-.605-.51-1.074-.839-1.474-1.239-8.3-8.28-16.575-16.59-24.915-24.83-1.279-1.264-1.419-2.029-.035-3.388,8.24-8.105,16.415-16.275,24.525-24.515,1.434-1.454,2.324-1.599,3.818-.085,8.115,8.235,16.3,16.405,24.52,24.535ZM50.8,41.881c2.254-1.109,3.598-3.568,3.383-6.186-.235-2.943-1.894-5.042-4.997-5.747-1.439-.325-1.574-1.014-1.669-2.219-.28-3.558-2.768-5.931-6.091-6.006-3.673-.08-6.276,2.174-6.616,5.986-.125,1.384-.48,1.944-1.929,2.274-2.873.645-4.587,2.828-4.742,5.702-.135,2.608.894,4.707,3.243,6.016,2.254,1.254,5.542.949,7.525-.68.505-.415.969-.869,1.449-1.309.195.15.385.295.575.44-1.099,2.434-2.199,4.862-3.353,7.416h7.206c-1.184-2.618-2.274-5.022-3.358-7.426.215-.12.435-.245.655-.365.36.33.715.66,1.079.979,2.209,1.959,5.097,2.384,7.64,1.124Z"/>
        <path class="cls-4" d="M54.183,35.695c.215,2.618-1.129,5.077-3.383,6.186-2.543,1.259-5.432.835-7.64-1.124-.365-.32-.72-.65-1.079-.979-.22.12-.44.245-.655.365l-.495.01c-.19-.145-.38-.29-.575-.44-.48.44-.944.894-1.449,1.309-1.984,1.629-5.272,1.934-7.525.68-2.349-1.309-3.378-3.408-3.243-6.016.155-2.873,1.869-5.057,4.742-5.702,1.449-.33,1.804-.889,1.929-2.274.34-3.813,2.943-6.066,6.616-5.986,3.323.075,5.812,2.449,6.091,6.006.095,1.204.23,1.894,1.669,2.219,3.103.705,4.762,2.803,4.997,5.747Z"/>
        <path class="cls-5" d="M70.783-28.392c-9.729,9.744-19.703,19.733-29.632,29.687-9.949-9.939-19.933-19.913-29.872-29.842,9.904-9.844,19.923-19.803,29.852-29.672,9.794,9.849,19.783,19.898,29.652,29.827ZM67.515-26.703c1.314-1.294,1.334-2.134.025-3.433-8.27-8.185-16.5-16.42-24.685-24.695-1.304-1.319-2.164-1.294-3.453.035-4.222,4.357-8.54,8.62-12.862,12.882-4.427,4.372-8.9,8.7-13.457,13.147.56.79.715,1.084.944,1.314C22.602-18.858,31.202-10.288,39.747-1.663c1.354,1.369,2.079.565,3.033-.39,8.225-8.24,16.45-16.48,24.735-24.65Z"/>
        <path class="cls-4" d="M44.784,47.567h-7.206c1.154-2.553,2.254-4.982,3.353-7.416l.495-.01c1.084,2.404,2.174,4.807,3.358,7.426Z"/>
        <path class="cls-5" d="M38.168,64.577c.959.959,1.994,1.689.465,3.198-9.399,9.289-18.719,18.664-28.073,28.003-.285.285-.655.485-1.204.889-4.207-4.158-8.385-8.29-12.562-12.418v-2.499c4.083,4.237,8.165,8.475,12.118,12.577,9.619-9.664,18.809-18.894,28.143-28.268-.155-.185-.53-.71-.979-1.159-8.23-8.24-16.505-16.435-24.675-24.74-1.479-1.504-2.299-1.439-3.738.045-3.513,3.628-7.236,7.056-10.868,10.564v-2.499c3.393-3.273,6.786-6.541,10.179-9.809.77-.74,1.544-1.479,2.518-2.409,1.059.999,2.029,1.864,2.943,2.778,8.58,8.58,17.155,17.165,25.735,25.745Z"/>
        <path class="cls-5" d="M37.063,3.499s-.005-.005-.005,0C27.739-5.756,18.469-14.965,8.715-24.654c-3.793,3.963-7.855,8.21-11.923,12.463v-2.499c4.182-4.133,8.365-8.265,12.393-12.243C19.404-16.734,29.398-6.76,39.277,3.099c-9.095,9.045-18.299,18.199-27.693,27.539l-.715-.72C19.529,21.173,28.244,12.473,36.928,3.759c.09-.09.135-.235.135-.26Z"/>
        <path class="cls-4" d="M37.058,3.499s.005,0,.005,0c0,.025-.045.17-.135.26-8.685,8.715-17.4,17.415-26.059,26.159-1.184,1.194-1.889.72-2.853-.23-3.708-3.668-7.476-7.271-11.223-10.898V2.799C-1.269,7.861,2.169,11.619,6.637,14.622c2.074,1.389,3.808,1.644,5.747-.055,1.679-1.474,3.568-2.728,5.157-4.287,3.848-3.773,5.612-8.345,4.747-13.777-.485-3.063-2.673-5.752-5.027-6.211-2.728-.535-4.592.525-6.631,3.733-.29.455-.685.844-1.174,1.434-.735-1.044-1.309-1.929-1.954-2.763-2.708-3.503-6.831-3.368-9.304.305-.5.745-.939,1.534-1.404,2.304v-7.496c4.068-4.252,8.13-8.5,11.923-12.463C18.469-14.965,27.739-5.756,37.058,3.499Z"/>
        <path class="cls-4" d="M36.074,64.902c.45.45.825.974.979,1.159-9.334,9.374-18.524,18.604-28.143,28.268-3.953-4.103-8.035-8.34-12.118-12.577v-30.981c3.633-3.508,7.356-6.936,10.868-10.564,1.439-1.484,2.259-1.549,3.738-.045,8.17,8.305,16.445,16.5,24.675,24.74ZM9.64,78.834c2.923-5.552,6.916-9.414,12.358-12.393-5.442-3.103-9.534-6.986-12.448-12.552-3.043,5.512-6.921,9.624-12.742,12.552,5.946,2.898,9.679,7.121,12.832,12.393Z"/>
        <path class="cls-5" d="M22.287-3.497c.864,5.432-.899,10.004-4.747,13.777-1.589,1.559-3.478,2.813-5.157,4.287-1.939,1.699-3.673,1.444-5.747.055C2.169,11.619-1.269,7.861-3.208,2.799v-7.496c.465-.77.904-1.559,1.404-2.304,2.474-3.673,6.596-3.808,9.304-.305.645.835,1.219,1.719,1.954,2.763.49-.59.884-.979,1.174-1.434,2.039-3.208,3.903-4.267,6.631-3.733,2.354.46,4.542,3.148,5.027,6.211Z"/>
        <path class="cls-5" d="M10.869,29.918l.715.72c-.805.8-1.619,1.609-2.429,2.414-3.898-3.708-8.13-7.735-12.363-11.763v-2.499c3.748,3.628,7.516,7.231,11.223,10.898.964.949,1.669,1.424,2.853.23Z"/>
        <path class="cls-5" d="M6.672,33.056c1.344,1.274,1.314,2.154-.02,3.423-3.353,3.198-6.581,6.521-9.859,9.794v-2.499c2.608-2.553,5.202-5.127,7.835-7.65.994-.954,1.029-1.724,0-2.698-2.648-2.508-5.227-5.092-7.835-7.64v-2.499c3.288,3.263,6.526,6.576,9.879,9.769Z"/>
        <path class="cls-6" d="M4.628,33.426c1.029.974.994,1.744,0,2.698-2.633,2.523-5.227,5.097-7.835,7.65v-17.989c2.608,2.548,5.187,5.132,7.835,7.64Z"/>
      </g>
    </g>
  </g>
</svg>