<?xml version="1.0" encoding="UTF-8"?>
<svg id="Layer_2" data-name="Layer 2" xmlns="http://www.w3.org/2000/svg" xmlns:xlink="http://www.w3.org/1999/xlink" viewBox="0 0 170.906 145.229">
  <defs>
    <style>
      .cls-1 {
        fill: #a5587a;
      }

      .cls-1, .cls-2, .cls-3, .cls-4, .cls-5, .cls-6, .cls-7, .cls-8, .cls-9 {
        stroke-width: 0px;
      }

      .cls-2 {
        fill: #a392c2;
      }

      .cls-10 {
        clip-path: url(#clippath);
      }

      .cls-3 {
        fill: #7a1a1a;
      }

      .cls-4 {
        fill: none;
      }

      .cls-5 {
        fill: #b7867d;
      }

      .cls-6 {
        fill: #a9625f;
      }

      .cls-7 {
        fill: #9a8a98;
      }

      .cls-8 {
        fill: #995a7b;
      }

      .cls-9 {
        fill: #e48a41;
      }
    </style>
    <clipPath id="clippath">
      <rect class="cls-4" x="5.392" y="0" width="157.544" height="145.229"/>
    </clipPath>
  </defs>
  <g id="Layer_1-2" data-name="Layer 1">
    <g>
      <g class="cls-10">
        <g>
          <path class="cls-6" d="M401.511,315.952v4.97c-12.99-12.821-25.971-25.633-38.176-37.679-.696-.686-1.391-1.362-2.077-2.047-20.454,20.335-40.432,40.223-60.042,59.723,19.421,19.5,39.229,39.388,59.793,60.032.805-.825,1.6-1.65,2.405-2.485l1.958,1.988-.01.01c-1.938,1.898-1.849,3.31-.706,4.83l-1.819,1.71c-.417-.487-.825-.974-1.242-1.441-21.15,21.11-41.108,41.038-62.318,62.198,5.496,4.979,11.132,10.068,16.757,15.167h-4.97c-4.453-4.711-8.905-9.412-13.279-14.044-5.327,5.148-9.939,9.591-14.551,14.044h-3.976c5.089-5.546,10.187-11.082,15.117-16.449-20.077-20.057-40.024-39.995-59.266-59.217-19.868,19.769-39.925,39.726-60.022,59.714,4.691,5.079,9.71,10.515,14.72,15.952h-3.976c-4.552-4.711-9.114-9.412-14.113-14.59-4.96,5.278-9.343,9.939-13.716,14.59h-4.97c5.347-5.496,10.694-10.983,15.604-16.012-20.375-20.484-40.164-40.372-59.614-59.932-.954.944-1.898,1.898-2.852,2.852-18.904,18.844-37.957,37.878-58.302,58.173,5.397,4.82,11.052,9.869,16.707,14.918h-4.97c-4.353-4.602-8.717-9.194-12.931-13.636-1.093.437-1.65.507-1.968.825-4.333,4.254-8.627,8.538-12.931,12.811h-3.976c5.049-5.546,10.088-11.082,14.69-16.141-1.769-1.769-3.528-3.538-5.297-5.297-18.298-18.347-36.397-36.466-54.635-54.744-.169.099-.785.368-1.232.805-18.735,18.715-37.44,37.45-56.225,56.126-1.988,1.978-1.988,3.34-.01,5.317,4.522,4.542,8.856,9.273,13.259,13.934h-3.976c-3.817-3.846-7.504-7.842-11.549-11.43-1.014-.904-3.906-1.292-4.691-.567-4.085,3.757-7.762,7.951-11.589,11.996h-4.97c5.258-5.457,10.506-10.903,15.525-16.111-20.266-20.196-40.253-40.104-59.793-59.574-19.639,19.57-39.607,39.468-60.896,60.688,5.417,4.86,11.062,9.929,16.707,14.998h-4.97c-4.473-4.711-8.945-9.422-13.467-14.193-5.228,5.168-9.79,9.681-14.362,14.193h-3.976c5.079-5.546,10.168-11.092,14.968-16.33-20.146-20.067-40.114-39.965-59.853-59.634-19.59,19.57-39.547,39.498-59.674,59.604,4.89,5.288,9.999,10.824,15.107,16.36h-3.976c-4.651-4.632-9.313-9.253-14.402-14.312-4.671,4.979-9.044,9.651-13.428,14.312h-4.97c5.347-5.496,10.694-11.002,15.405-15.833-20.454-20.514-40.263-40.382-61.363-61.532-.616.825-1.232,1.729-1.878,2.654l-1.749-1.789.02-.02c2.346-2.246,2.375-3.876.07-6.093-6.759-6.52-13.388-13.169-20.077-19.759v-3.976c7.524,7.146,15.048,14.292,22.174,21.061.865.825,1.719,1.64,2.574,2.445,20.295-20.186,40.193-39.975,59.783-59.465-19.709-19.739-39.627-39.676-60.817-60.886-7.663,8.17-15.684,16.727-23.714,25.285v-4.97c7.136-7.733,14.272-15.455,21.925-23.744-6.749-6.46-14.332-13.726-21.925-20.981v-4.97c8.309,8.21,16.628,16.429,24.997,24.698,1.093-.805,1.819-1.203,2.385-1.769,18.606-18.576,37.142-37.212,55.847-55.698,3.031-3.002.974-4.453-.934-6.361-17.065-17.055-34.111-34.14-51.186-51.196-1.819-1.819-3.737-3.548-5.854-5.536-1.928,1.859-3.469,3.32-4.999,4.791-6.759,6.5-13.507,13.01-20.256,19.51v-3.976c6.52-6.51,12.941-13.119,19.61-19.48,2.654-2.525,2.713-4.264.05-6.808-6.669-6.351-13.119-12.941-19.659-19.431v-3.976c8.418,8.011,16.837,16.022,24.599,23.406,1.61-1.61,3.22-3.21,4.83-4.81,18.675-18.576,36.983-36.784,55.072-54.774-19.639-19.61-39.527-39.448-59.843-59.733-8.021,7.911-16.34,16.131-24.659,24.351v-4.97c7.077-7.792,14.143-15.574,20.405-22.472-6.182-6.749-13.288-14.501-20.405-22.253V-1.102c7.981,8.597,15.952,17.194,23.595,25.434,21.319-21.369,41.227-41.326,60.697-60.837-19.57-19.62-39.458-39.567-59.594-59.763-1.173,1.073-2.634,2.385-4.045,3.737-6.888,6.619-13.766,13.249-20.653,19.868v-3.976c6.56-6.5,13.05-13.05,19.689-19.451,2.554-2.455,2.743-4.343.05-6.898-6.689-6.341-13.169-12.901-19.739-19.371v-3.976c7.504,7.126,14.998,14.243,22.194,21.081.895.845,1.789,1.69,2.674,2.534,20.295-20.226,40.164-40.034,59.714-59.525-19.749-19.779-39.676-39.726-60.986-61.065-7.623,8.22-15.604,16.817-23.595,25.414v-4.97c7.126-7.723,14.253-15.435,21.667-23.476-2.773-2.932-6.252-6.629-9.74-10.317h4.97c6.689,9.969,8.08,10.118,15.892,1.65.427-.467.676-1.103,1.004-1.65h4.97c-3.459,3.727-6.927,7.464-10.555,11.37.964,1.203,1.69,2.296,2.594,3.2,18.099,18.129,36.267,36.198,54.287,54.406,2.614,2.634,4.115,2.028,6.391-.298,9.959-10.138,20.037-20.166,30.145-30.145,8.925-8.806,17.95-17.493,27.084-26.388-3.956-4.552-7.255-8.349-10.555-12.145h3.976q8.617,9.611,17.592.388c.109-.119.199-.258.298-.388h3.976c-3.29,3.797-6.58,7.593-9.343,10.784,20.097,20.136,39.925,40.004,59.455,59.584,19.52-19.57,39.329-39.438,59.376-59.535-3.151-3.379-6.619-7.106-10.098-10.834h4.97c2.216,2.405,4.284,4.96,6.719,7.116.735.646,2.982.696,3.667.07,2.375-2.177,4.373-4.761,6.51-7.186h4.97c-3.479,3.697-6.967,7.405-10.227,10.873,20.146,20.117,39.995,39.935,60.061,59.962.06-.04.755-.219,1.193-.656,18.844-18.824,37.649-37.689,56.503-56.503,1.849-1.849,1.531-3.27-.179-5.009-2.753-2.793-5.317-5.765-7.961-8.667h3.976c10.983,11.181,7.196,10.327,17.562.368.119-.119.219-.248.328-.368h3.976c-1.819,2.087-3.528,4.284-5.486,6.232-5.089,5.059-5.148,5.039-.278,9.919,15.087,15.097,30.175,30.195,45.282,45.272,3.359,3.359,6.798,6.639,9.859,9.621,18.496-18.487,36.635-36.615,54.983-54.953l5.248-5.248c-3.24-3.439-6.729-7.146-10.217-10.843h4.97c6.778,9.929,8.18,10.078,15.902,1.65.427-.467.666-1.103.994-1.65h4.97c-3.459,3.727-6.918,7.464-9.899,10.674,1.461,1.471,2.932,2.942,4.393,4.413,18.576,18.665,36.963,37.152,55.251,55.519,19.54-19.59,39.349-39.438,59.336-59.475-3.071-3.528-6.381-7.335-9.691-11.132h3.976c10.843,11.122,7.345,10.227,17.582.378.119-.109.209-.248.308-.378h3.976c-3.3,3.797-6.59,7.603-9.999,11.529.895,1.054,1.57,1.988,2.365,2.793,18.218,18.248,36.526,36.407,54.625,54.764,3.141,3.18,4.721,1.213,6.778-.855,17.751-17.781,35.522-35.542,53.273-53.333,1.024-1.024,1.878-2.197,2.982-3.499-3.687-3.956-7.166-7.683-10.635-11.4h4.97c2.206,2.415,4.274,4.979,6.699,7.146.716.626,2.952.646,3.648.01,2.385-2.157,4.393-4.741,6.55-7.156h4.97c-3.499,3.697-6.997,7.405-11.768,12.464.437.358.865.706,1.302,1.044l-1.66,1.68c-.08-.07-.159-.149-.239-.229-20.474,20.315-40.482,40.173-60.161,59.694,19.461,19.51,39.269,39.378,59.356,59.525.904-.815,1.978-1.71,3.002-2.684.149-.139.288-.288.437-.427,7.514-7.474,14.948-15.018,22.522-22.432,4.92-4.83,10.019-9.482,15.038-14.213v3.976c-11.967,11.887-23.873,23.834-35.939,35.631-2.693,2.624-1.779,4.363.398,6.52,11.877,11.758,23.705,23.575,35.542,35.373v3.976c-1.272-.994-2.664-1.859-3.797-2.992-10.794-10.734-21.548-21.528-32.332-32.282-1.61-1.61-3.34-3.101-4.602-4.254-20.236,20.216-40.183,40.144-59.634,59.574,19.639,19.739,39.537,39.736,60.697,60.996.07-.07.139-.149.209-.219l1.57,1.501c-.179.179-.129.606-.179.924l-1.083,1.083c1.163.914,2.385,1.769,3.568,2.664l-1.839,1.819-.129-.129c-2.743-2.783-4.373-2.803-7.156.01-17.801,18.029-35.711,35.939-53.75,53.71-2.962,2.912-2.445,4.502.209,7.136l.179.179c17.711,17.522,35.264,35.194,52.885,52.796,1.143,1.153,2.415,2.177,4.005,3.598,13.855-13.835,27.521-27.481,41.177-41.128v4.97c-11.827,11.808-23.585,23.675-35.532,35.363-2.644,2.584-2.644,4.214,0,6.798,11.947,11.688,23.705,23.555,35.532,35.363v4.97c-13.616-13.686-27.243-27.372-40.014-40.193-.755.755-1.511,1.501-2.266,2.246-19.699,19.55-38.941,38.653-57.785,57.358,19.5,19.451,39.378,39.279,59.654,59.485,13.239-13.149,26.825-26.646,40.412-40.134v4.97c-1.252,1.034-2.594,1.988-3.747,3.131-10.058,9.989-20.087,20.017-30.135,30.036-4.999,4.979-5.049,5.019.089,10.098,11.241,11.112,22.522,22.184,33.793,33.266ZM355.016,154.87c2.296-2.296,2.047-3.936-.179-6.152-18.069-17.96-36.079-35.969-54.009-54.058-2.594-2.624-4.343-2.475-6.868.139-7.703,7.971-15.614,15.743-23.476,23.565-11.012,10.963-22.045,21.915-33.216,33.007.636,1.133.795,1.64,1.123,1.968,18.705,18.745,37.47,37.43,56.116,56.235,2.465,2.485,4.115,1.779,6.162-.268,18.089-18.168,36.188-36.327,54.346-54.436ZM297.38,336.774c19.719-19.659,39.597-39.488,59.306-59.137-19.649-19.649-39.508-39.488-58.71-58.68-19.848,19.719-39.826,39.577-59.058,58.69,19.371,19.6,39.11,39.557,58.461,59.127ZM356.1-100.145c-19.252-19.282-39.001-39.05-58.561-58.63-19.59,19.789-39.339,39.726-58.948,59.515,19.282,19.401,39.06,39.309,58.203,58.561,19.769-19.818,39.667-39.766,59.306-59.445ZM297.489,85.317c19.57-19.58,39.398-39.428,58.491-58.531-19.729-19.997-39.527-40.054-58.6-59.386-19.669,19.56-39.557,39.339-59.058,58.72,19.639,19.649,39.488,39.508,59.167,59.197ZM297.301,462.622c19.679-19.59,39.537-39.368,59.117-58.869-19.898-19.938-39.686-39.776-59.018-59.137-19.63,19.57-39.577,39.458-58.968,58.779,19.56,19.669,39.329,39.567,58.869,59.227ZM294.14,88.696c-.407-.517-.914-1.362-1.59-2.037-18.357-18.377-36.774-36.695-55.032-55.161-2.684-2.713-4.284-1.829-6.46.368-11.4,11.519-22.82,23.019-34.349,34.399-7.494,7.405-15.187,14.61-22.263,21.409,20.862,20.782,40.829,40.68,60.379,60.171,19.391-19.341,39.269-39.16,59.316-59.147ZM280.454,229.363c4.741-4.761,9.462-9.532,13.756-13.855-20.286-20.365-40.084-40.243-59.346-59.584-19.789,19.719-39.766,39.627-59.892,59.694.179.239.616.944,1.183,1.521,18.367,18.367,36.774,36.675,55.062,55.112,2.723,2.763,4.423,2.127,6.838-.328,14.064-14.262,28.257-28.386,42.4-42.559ZM293.315-36.406c-19.62-19.649-39.617-39.686-58.67-58.769-19.62,19.441-39.647,39.279-59.058,58.521,19.51,19.659,39.299,39.597,58.899,59.336,19.709-19.798,39.617-39.796,58.829-59.087ZM234.178,399.479c19.888-19.729,39.905-39.597,59.028-58.571-19.63-19.729-39.527-39.716-59.117-59.395-19.51,19.49-39.388,39.339-59.038,58.958,19.808,19.759,39.786,39.696,59.127,59.008ZM234.705-102.768c19.57-19.669,39.368-39.567,59.157-59.445-19.739-19.769-39.667-39.736-59.147-59.236-19.759,19.719-39.716,39.627-59.376,59.236,19.62,19.649,39.537,39.597,59.366,59.445ZM232.309,152.525c-2.187-2.385-3.459-3.876-4.84-5.268-17.314-17.324-34.717-34.558-51.901-52.011-3.091-3.141-4.84-3.081-7.902.03-17.652,17.91-35.452,35.661-53.353,53.333-2.475,2.435-2.644,3.936-.159,6.401,18.099,17.93,36.158,35.91,54.068,54.028,2.882,2.912,4.592,2.435,7.186-.239,9.7-9.949,19.56-19.759,29.449-29.529,8.935-8.826,17.99-17.532,27.452-26.746ZM231.306-100.005c-.467-.547-1.153-1.451-1.948-2.256-18.228-18.288-36.526-36.506-54.665-54.893-2.743-2.783-4.264-1.68-6.411.487-17.87,17.96-35.761,35.91-53.78,53.73-2.684,2.664-2.485,4.264.089,6.808,18,17.831,35.87,35.8,53.8,53.7,1.014,1.014,2.216,1.839,3.021,2.505,20.087-20.156,39.895-40.024,59.892-60.081ZM230.381,404.2c-19.828-19.938-39.676-39.915-59.654-60.002.278-.169-.05-.05-.278.169-18.785,18.685-37.51,37.43-56.374,56.026-2.823,2.783-1.491,4.323.626,6.431,17.95,17.88,35.83,35.83,53.74,53.74,1.004,1.004,2.187,1.819,3.2,2.654,20.037-20.126,39.746-39.925,58.739-59.018ZM230.59,26.031c-19.471-19.63-39.219-39.537-58.66-59.137-19.818,19.838-39.746,39.766-59.207,59.246,19.54,19.6,39.339,39.468,58.789,58.988,19.709-19.719,39.627-39.647,59.077-59.097ZM230.689,277.597c-19.49-19.55-39.299-39.418-58.789-58.968-19.759,19.719-39.706,39.607-58.849,58.71,19.54,19.729,39.358,39.736,58.73,59.306,19.57-19.61,39.368-39.458,58.908-59.048ZM168.362,88.607c-.159-.248-.417-.875-.865-1.322-18.705-18.735-37.47-37.42-56.096-56.225-2.713-2.743-4.184-1.143-6.033.726-9.8,9.84-19.59,19.689-29.439,29.489-9.124,9.074-18.318,18.079-27.302,26.955,20.464,20.395,40.422,40.283,59.982,59.783,19.818-19.699,39.706-39.478,59.753-59.405ZM166.692,343.254c2.962-2.932,1.113-4.473-.845-6.421-17.672-17.652-35.313-35.313-52.985-52.955-1.232-1.242-2.594-2.356-3.061-2.773-20.355,20.355-40.293,40.293-59.773,59.783,19.331,19.48,39.12,39.398,59.018,59.445.398-.268.994-.557,1.441-1.014,18.735-18.695,37.391-37.46,56.205-56.066ZM154.596,229.582c4.771-4.761,9.661-9.402,13.895-13.517-20.504-20.613-40.362-40.591-59.962-60.3-19.57,19.461-39.458,39.239-59.753,59.425.924,1.014,1.759,2.018,2.684,2.942,17.88,17.9,35.84,35.721,53.581,53.76,3.002,3.051,4.711,2.733,7.504-.109,13.915-14.173,27.988-28.177,42.052-42.201ZM108.559,22.403c19.749-19.729,39.686-39.637,59.445-59.386-19.48-19.5-39.319-39.349-58.889-58.938-19.779,19.828-39.686,39.786-59.256,59.405C69.34-16.965,89.257,3.022,108.559,22.403ZM168.004-162.83c-19.54-19.55-39.378-39.418-58.968-59.018-19.798,19.808-39.766,39.776-59.187,59.197,19.838,19.928,39.647,39.816,58.739,58.988,19.659-19.58,39.637-39.468,59.415-59.167ZM103.172-96.169c3.041-3.002,1.928-4.89-.527-7.325-17.821-17.721-35.562-35.522-53.353-53.283-1.004-1.004-2.177-1.819-3.3-2.743-.875.626-1.461.954-1.908,1.401-18.606,18.606-37.142,37.271-55.837,55.778-2.932,2.902-1.262,4.393.755,6.401,15.137,15.068,30.264,30.125,45.292,45.292,3.707,3.737,7.017,7.852,10.506,11.808,2.008-1.431,2.455-1.67,2.803-2.008,18.506-18.447,36.973-36.953,55.569-55.32ZM105.677,151.908c-.904-1.173-1.59-2.286-2.495-3.18-18-18.029-36.069-35.989-53.999-54.078-2.684-2.703-4.314-2.306-6.828.229-17.662,17.88-35.403,35.671-53.293,53.323-2.962,2.922-2.932,4.632,0,7.524,18,17.781,35.84,35.701,53.661,53.661,2.177,2.187,3.707,2.614,6.083.219,18.049-18.208,36.218-36.297,54.317-54.456.904-.904,1.6-2.018,2.554-3.24ZM102.894,406.993c2.693-2.674,2.912-4.542.08-7.315-11.46-11.211-22.83-22.532-34.051-33.991-7.375-7.534-14.451-15.376-21.796-23.218-2.296,1.839-2.992,2.296-3.558,2.872-18.387,18.347-36.725,36.754-55.181,55.032-2.703,2.674-1.749,4.274.457,6.46,15.604,15.525,31.099,31.129,46.664,46.693,3.349,3.349,6.818,6.59,10.287,9.939,1.183-.914,2.028-1.431,2.713-2.117,18.129-18.119,36.198-36.307,54.386-54.356ZM44.502,86.758c21.16-21.1,41.028-40.909,60.777-60.588C85.52,6.551,65.603-13.218,45.466-33.205c-.239.169-1.123.636-1.799,1.312C25.141-13.427,6.664,5.09-11.912,23.507c-2.664,2.654-1.113,4.214.775,6.093,13.835,13.785,27.7,27.531,41.396,41.436,5.079,5.158,9.74,10.724,14.243,15.723ZM45.993,336.943c19.699-19.749,39.517-39.607,59.177-59.326-19.639-19.57-39.527-39.378-59.097-58.869-19.739,19.6-39.647,39.349-59.117,58.67,19.659,19.818,39.428,39.756,59.038,59.525ZM43.071,89.263c-.765-1.014-1.352-1.988-2.117-2.783-2.534-2.604-5.129-5.158-7.703-7.733C17.697,63.193,2.112,47.658-13.373,32.034c-2.395-2.415-4.075-3.151-6.858-.338-17.91,18.119-35.969,36.098-54.009,54.098-1.869,1.869-3.469,3.32-.726,6.033,18.556,18.387,37.003,36.884,55.43,55.41,1.988,1.998,3.349,1.928,5.297-.03,18.308-18.417,36.675-36.754,55.012-55.132.795-.795,1.431-1.739,2.296-2.813ZM43.051,214.683c-.805-1.034-1.411-2.008-2.197-2.793-18.228-18.258-36.506-36.446-54.655-54.764-2.515-2.534-4.075-2.187-6.421.179-18.049,18.198-36.168,36.317-54.356,54.366-2.286,2.256-2.405,3.767-.08,6.073,18.318,18.178,36.556,36.436,54.754,54.734,2.037,2.047,3.508,2.375,5.715.149,18.308-18.417,36.705-36.744,55.052-55.122.785-.785,1.372-1.769,2.187-2.823ZM40.944-33.951c2.286-2.266,1.68-3.737-.288-5.705C22.358-57.874,4.1-76.122-14.098-94.45c-2.167-2.177-3.608-2.018-5.695.08-18.198,18.318-36.446,36.585-54.784,54.764-2.375,2.356-2.206,3.916.04,6.093,5.357,5.158,10.585,10.456,15.833,15.733C-45.088-4.064-31.482,9.671-17.617,23.666c1.252-.845,1.859-1.133,2.306-1.57C3.444,3.41,22.149-15.315,40.944-33.951ZM40.069-158.814c1.024-1.024,1.918-2.177,2.664-3.041-20.196-20.166-40.134-40.084-59.863-59.793-19.639,19.57-39.508,39.358-59.813,59.604,1.431,1.501,2.644,2.833,3.916,4.105,17.433,17.453,34.955,34.816,52.229,52.418,3.21,3.27,4.96,2.763,7.892-.219,17.562-17.791,35.313-35.393,52.975-53.074ZM39.602,344.566c1.232-1.232,2.316-2.614,3.111-3.528-20.266-20.295-40.094-40.144-59.763-59.843-19.62,19.639-39.438,39.468-59.624,59.684.626.755,1.183,1.56,1.869,2.246,18.347,18.407,36.754,36.744,55.022,55.241,2.862,2.902,4.363,1.282,6.391-.765,17.642-17.701,35.343-35.353,52.995-53.035ZM-22.129,406.347c3.23-3.2.984-4.761-1.034-6.778-17.672-17.662-35.403-35.264-52.925-53.074-2.952-3.002-4.602-2.902-7.484.02-17.413,17.662-34.946,35.204-52.617,52.617-3.18,3.131-3.479,5.059-.109,8.349,12.324,11.986,24.331,24.311,36.496,36.466,6.52,6.52,13.11,12.951,19.769,19.52,1.073-.805,1.789-1.213,2.356-1.769,18.506-18.457,36.943-36.993,55.549-55.35ZM-22.318,280.678c2.624-2.594,2.067-4.194-.239-6.46-11.41-11.261-22.77-22.571-34.041-33.981-7.514-7.613-14.839-15.415-21.747-22.601-20.912,20.733-40.899,40.551-60.767,60.25,19.659,19.649,39.498,39.468,59.495,59.445.716-.567,1.69-1.193,2.485-1.988,18.268-18.228,36.476-36.516,54.814-54.665ZM-22.626,155.437c2.525-2.495,2.922-4.164.219-6.838-18.208-18.029-36.297-36.188-54.446-54.297-.785-.785-1.759-1.391-2.852-2.246-1.153.914-2.246,1.61-3.151,2.515-17.92,17.87-35.79,35.81-53.77,53.631-2.624,2.594-3.101,4.383-.189,7.255,18.029,17.771,35.929,35.661,53.75,53.631,2.564,2.594,4.135,2.713,6.778.03,17.781-18,35.681-35.88,53.661-53.681ZM-23.232,30.186c3.151-3.091,3.3-4.781.149-7.872-15.574-15.326-30.94-30.88-46.395-46.336-3.349-3.34-6.788-6.59-10.197-9.889-1.044.825-1.6,1.183-2.057,1.64-18.516,18.477-36.983,36.993-55.589,55.38-2.644,2.604-1.998,4.254.268,6.48,8.379,8.239,16.678,16.548,24.957,24.887,10.476,10.565,20.902,21.18,31.874,32.302,2.137-1.998,3.608-3.29,4.989-4.671,17.314-17.334,34.528-34.757,52.001-51.921ZM-23.371-95.374c3.28-3.21,3.429-4.989.119-8.22-12.215-11.877-24.221-23.993-36.158-36.148-6.58-6.709-12.881-13.686-19.302-20.544-.417.318-.835.646-1.242.964-.666.457-1.411.825-1.968,1.382-18.387,18.328-36.705,36.735-55.171,54.973-3.111,3.071-1.749,4.89.646,7.275,16.896,16.797,33.713,33.673,50.57,50.5,1.948,1.938,4.015,3.757,6.162,5.755,1.362-1.222,2.365-2.057,3.28-2.972,17.672-17.672,35.234-35.452,53.064-52.965ZM-82.727,88.527c-.636-.735-1.242-1.511-1.928-2.197-18.029-18.019-36.138-35.959-54.028-54.118-3.121-3.171-4.9-2.942-7.902.109-17.552,17.821-35.303,35.433-52.975,53.134-1.044,1.034-1.978,2.167-2.525,2.773,20.126,20.186,40.034,40.154,59.763,59.942,19.48-19.5,39.339-39.368,59.594-59.644ZM-93.044,226.053c3.598-3.548,7.633-6.659,10.913-9.492-21.14-21.269-41.008-41.257-61.055-61.423-.417.348-1.103.805-1.67,1.372-18.496,18.457-36.933,36.983-55.529,55.35-2.803,2.773-1.57,4.284.567,6.401,17.821,17.731,35.661,35.452,53.303,53.372,3.071,3.121,4.83,3.111,7.882.01,15.058-15.336,30.304-30.483,45.59-45.59ZM-142.649,22.701c19.6-19.639,39.517-39.597,58.491-58.6-19.639-19.858-39.537-39.975-59.018-59.674-19.49,19.49-39.309,39.309-58.849,58.859,19.739,19.749,39.676,39.696,59.376,59.415ZM-142.292-103.106c19.48-19.52,39.299-39.388,58.68-58.819-19.967-19.958-39.905-39.885-59.008-58.978-19.51,19.421-39.468,39.289-58.899,58.62,19.58,19.56,39.488,39.458,59.227,59.177ZM-83.81,340.779c-19.649-19.749-39.537-39.736-58.72-59.008-19.669,19.54-39.657,39.398-59.465,59.077,19.54,19.54,39.368,39.358,58.859,58.839,19.987-19.838,39.995-39.706,59.326-58.908ZM-147.678-96.885c2.674-2.654,1.123-4.184-.765-6.073-17.94-17.89-35.89-35.761-53.71-53.76-2.584-2.604-4.164-2.693-6.808-.02-17.791,18.009-35.741,35.86-53.631,53.78-1.024,1.024-1.888,2.206-2.594,3.031,20.037,20.087,39.836,39.955,59.833,60.012.447-.248.785-.348,1.014-.576,18.884-18.805,37.719-37.649,56.662-56.394ZM-148.613,407.013c3.141-3.081,2.515-4.801-.239-7.524-17.672-17.463-35.184-35.075-52.776-52.617-1.232-1.242-2.624-2.316-3.827-3.369-20.146,20.146-39.905,39.905-59.485,59.475,19.977,20.067,39.776,39.945,59.813,60.071.875-.775,2.028-1.68,3.051-2.713,17.811-17.781,35.522-35.671,53.462-53.323ZM-205.573,85.287c19.759-19.649,39.647-39.428,59.405-59.077-19.769-19.59-39.686-39.339-59.276-58.749-19.54,19.461-39.478,39.309-58.859,58.6,19.53,19.689,39.289,39.617,58.73,59.227ZM-146.516,152.366c-19.848-20.017-39.577-39.905-59.465-59.952-.248.179-.845.477-1.292.924-18.636,18.546-37.212,37.152-55.907,55.639-2.723,2.703-1.58,4.304.576,6.45,13.616,13.507,27.124,27.124,40.71,40.67,5.327,5.327,10.754,10.555,16.042,15.723,20.295-20.335,40.104-40.183,59.336-59.455ZM-146.108,277.706c-19.699-19.699-39.547-39.537-59.157-59.137-19.888,19.818-39.746,39.617-58.958,58.779,19.59,19.759,39.408,39.756,58.859,59.376,19.669-19.58,39.537-39.378,59.256-59.018ZM-208.843,88.587c-.109-.149-.378-.765-.825-1.203-18.705-18.745-37.44-37.45-56.106-56.225-1.998-2.008-3.399-1.908-5.327.07-5.297,5.466-10.764,10.764-16.151,16.131-13.686,13.656-27.372,27.312-40.631,40.541,20.325,20.504,40.183,40.521,59.604,60.101,19.55-19.54,39.398-39.388,59.435-59.415ZM-216.923,223.857c2.902-2.872,6.301-5.238,9.114-7.544-21.091-21.14-40.919-41.008-60.548-60.678-19.898,19.878-39.766,39.746-59.803,59.773.268.338.716,1.024,1.282,1.59,18.357,18.377,36.754,36.715,55.042,55.161,2.614,2.634,4.314,2.425,6.848-.139,15.932-16.151,31.964-32.192,48.065-48.164ZM-268.696,399.25c19.769-19.54,39.816-39.358,59.008-58.332-19.63-19.789-39.498-39.816-58.938-59.415-19.57,19.54-39.448,39.388-58.779,58.69,19.918,20.037,39.786,40.024,58.71,59.058ZM-209.062-162.204c-19.679-19.639-39.557-39.478-59.455-59.326-19.61,19.6-39.557,39.537-59.286,59.246,19.739,19.739,39.686,39.686,59.356,59.356,19.759-19.719,39.706-39.637,59.386-59.276ZM-268.149,22.135c19.54-19.461,39.438-39.269,59.167-58.918-19.749-19.689-39.716-39.607-59.485-59.336-19.679,19.689-39.617,39.647-58.799,58.849,19.739,19.828,39.716,39.905,59.117,59.405ZM-271.151,152.584c-.706-1.242-.875-1.739-1.203-2.077-18.705-18.755-37.46-37.46-56.096-56.285-2.505-2.525-4.145-1.65-6.152.368-18.099,18.149-36.208,36.307-54.406,54.376-2.117,2.107-2.266,3.608-.139,5.725,18.188,18.079,36.367,36.178,54.416,54.396,2.902,2.932,4.711,2.266,7.255-.328,11.37-11.579,22.87-23.029,34.359-34.478,7.246-7.236,14.571-14.402,21.965-21.697ZM-271.558,402.997c-.517-.626-1.163-1.57-1.958-2.365-18.238-18.268-36.546-36.486-54.704-54.833-2.445-2.455-3.966-1.928-6.083.189-18.347,18.427-36.754,36.784-55.112,55.191-.646.646-1.014,1.58-1.481,2.326,20.017,19.918,39.826,39.637,59.545,59.256,19.918-19.908,39.756-39.736,59.793-59.763ZM-332.196-39.268c20.763-20.733,40.611-40.551,59.922-59.843-19.709-19.769-39.587-39.706-59.584-59.763-.199.149-.795.467-1.252.924-18.636,18.586-37.241,37.202-55.927,55.738-2.326,2.306-1.56,3.787.388,5.705,6.5,6.381,12.911,12.831,19.302,19.321,12.404,12.623,24.768,25.275,37.152,37.917ZM-272.612,277.985c-19.48-19.719-39.209-39.686-58.392-59.107-19.759,19.699-39.706,39.577-59.127,58.928,19.53,19.659,39.309,39.557,58.58,58.968,19.838-19.789,39.786-39.686,58.938-58.789ZM-331.222,85.357c19.759-19.789,39.587-39.667,58.938-59.048-19.63-19.749-39.498-39.736-58.978-59.326-19.749,19.63-39.667,39.438-59.376,59.018,19.769,19.749,39.637,39.587,59.415,59.356Z"/>
          <path class="cls-1" d="M227.469,147.257c1.382,1.391,2.654,2.882,4.84,5.268-9.462,9.213-18.516,17.92-27.452,26.746-9.889,9.77-19.749,19.58-29.449,29.529-2.594,2.674-4.304,3.151-7.186.239-17.91-18.119-35.969-36.098-54.068-54.028-2.485-2.465-2.316-3.966.159-6.401,17.9-17.672,35.701-35.423,53.353-53.333,3.061-3.111,4.81-3.171,7.902-.03,17.185,17.453,34.588,34.687,51.901,52.011ZM224.597,155.079c2.197-2.187,2.544-3.777.169-6.132-16.707-16.519-33.345-33.097-49.894-49.775-2.574-2.594-4.234-2.057-6.53.248-16.439,16.529-32.928,33.017-49.486,49.427-2.236,2.216-2.465,3.777-.109,6.112,16.678,16.519,33.256,33.157,49.894,49.725.895.895,1.998,1.57,3.18,2.475,1.252-1.014,2.346-1.739,3.25-2.644,16.509-16.469,32.978-32.997,49.526-49.437Z"/>
          <path class="cls-5" d="M224.766,148.947c2.375,2.356,2.028,3.946-.169,6.132-16.548,16.439-33.017,32.968-49.526,49.437-.904.904-1.998,1.63-3.25,2.644-1.183-.904-2.286-1.58-3.18-2.475-16.638-16.568-33.216-33.206-49.894-49.725-2.356-2.336-2.127-3.896.109-6.112,16.558-16.409,33.047-32.898,49.486-49.427,2.296-2.306,3.956-2.843,6.53-.248,16.548,16.678,33.186,33.256,49.894,49.775ZM190.943,166.062c4.492-2.276,7.047-7.027,6.629-12.354-.437-5.616-3.677-9.929-9.482-11.281-2.982-.696-3.508-2.037-3.757-4.661-.686-7.335-5.685-11.788-12.762-11.758-6.729.03-11.827,4.552-12.493,11.549-.258,2.813-.745,4.194-3.995,4.93-6.868,1.56-10.545,8.19-9.005,14.859,1.59,6.868,7.405,11.072,14.441,9.601,3.499-.735,6.679-2.972,10.933-4.96-.04.089-.08.169-.109.258-2.336,5.238-4.502,10.098-6.709,15.068h14.243c-2.316-5.138-4.473-9.899-6.619-14.66.447-.229.895-.467,1.342-.706.706.656,1.421,1.302,2.127,1.948,4.224,3.817,10.277,4.671,15.217,2.167Z"/>
          <path class="cls-5" d="M226.873,26.379c-.914,1.083-1.59,2.008-2.385,2.803-16.598,16.618-33.246,33.186-49.794,49.864-2.226,2.236-3.717,2.475-6.073.099-16.538-16.678-33.166-33.286-49.874-49.804-2.316-2.286-2.375-3.817-.08-6.083,16.668-16.538,33.296-33.127,49.834-49.794,2.256-2.276,3.866-2.405,6.142-.119,16.558,16.658,33.196,33.236,49.784,49.874.895.895,1.56,2.008,2.445,3.161ZM193.09,43.792c4.671-3.489,6.48-12.086,2.435-17.055C188.17,17.682,180.02,9.264,171.681,0c-8.389,9.293-16.529,17.731-23.943,26.766-4.095,4.979-2.375,13.149,2.495,17.035,4.9,3.916,11.052,2.892,16.23-2.614,1.073-1.133,2.395-2.028,3.608-3.031.358.358.706.706,1.054,1.063-2.534,4.045-5.069,8.09-7.742,12.374h16.3c-2.515-4.214-4.979-8.349-7.434-12.473.755-.596,1.511-1.203,2.266-1.799.706,1.292,1.183,2.803,2.167,3.856,4.979,5.357,11.44,6.321,16.409,2.614Z"/>
          <path class="cls-9" d="M197.573,153.707c.417,5.327-2.137,10.078-6.629,12.354-4.94,2.505-10.993,1.65-15.217-2.167-.706-.646-1.421-1.292-2.127-1.948-.447.239-.895.477-1.342.706l-.914-.407c.03-.089.07-.169.109-.258-4.254,1.988-7.434,4.224-10.933,4.96-7.037,1.471-12.851-2.733-14.441-9.601-1.541-6.669,2.137-13.298,9.005-14.859,3.25-.735,3.737-2.117,3.995-4.93.666-6.997,5.765-11.519,12.493-11.549,7.077-.03,12.076,4.423,12.762,11.758.248,2.624.775,3.966,3.757,4.661,5.804,1.352,9.044,5.665,9.482,11.281Z"/>
          <path class="cls-9" d="M195.525,26.737c4.045,4.97,2.236,13.567-2.435,17.055-4.97,3.707-11.43,2.743-16.409-2.614-.984-1.054-1.461-2.564-2.167-3.856-.755.596-1.511,1.203-2.266,1.799l-1.123.099c-.348-.358-.696-.706-1.054-1.063-1.213,1.004-2.534,1.898-3.608,3.031-5.178,5.506-11.33,6.53-16.23,2.614-4.87-3.886-6.59-12.056-2.495-17.035C155.153,17.732,163.293,9.294,171.681,0c8.339,9.263,16.489,17.681,23.844,26.736Z"/>
          <path class="cls-9" d="M179.682,51.594h-16.3c2.674-4.284,5.208-8.329,7.742-12.374l1.123-.099c2.455,4.125,4.92,8.259,7.434,12.473Z"/>
          <path class="cls-1" d="M171.93-33.106c19.441,19.6,39.189,39.508,58.66,59.137-19.451,19.451-39.368,39.378-59.077,59.097-19.451-19.52-39.249-39.388-58.789-58.988,19.461-19.48,39.388-39.408,59.207-59.246ZM224.487,29.182c.795-.795,1.471-1.719,2.385-2.803-.885-1.153-1.55-2.266-2.445-3.161-16.588-16.638-33.226-33.216-49.784-49.874-2.276-2.286-3.886-2.157-6.142.119-16.538,16.668-33.166,33.256-49.834,49.794-2.296,2.266-2.236,3.797.08,6.083,16.707,16.519,33.335,33.127,49.874,49.804,2.356,2.375,3.846,2.137,6.073-.099,16.548-16.678,33.196-33.246,49.794-49.864Z"/>
          <path class="cls-1" d="M167.497,87.285c.447.447.706,1.073.865,1.322-20.047,19.928-39.935,39.706-59.753,59.405-19.56-19.5-39.517-39.388-59.982-59.783,8.985-8.876,18.178-17.88,27.302-26.955,9.85-9.8,19.639-19.649,29.439-29.489,1.849-1.869,3.32-3.469,6.033-.726,18.626,18.805,37.391,37.49,56.096,56.225ZM164.317,89.76c-.745-1.252-.974-1.908-1.411-2.346-17.175-17.244-34.389-34.449-51.554-51.723-2.018-2.037-3.359-1.729-5.278.248-6.908,7.126-13.954,14.123-21.021,21.1-10.575,10.446-21.21,20.832-31.725,31.149.745,1.511.815,1.869,1.034,2.087,17.314,17.334,34.687,34.608,51.911,52.021,2.495,2.515,3.797,1.272,5.606-.547,10.744-10.804,21.518-21.568,32.332-32.302,6.669-6.619,13.418-13.159,20.107-19.689Z"/>
          <path class="cls-9" d="M162.905,87.414c.437.437.666,1.093,1.411,2.346-6.689,6.53-13.438,13.07-20.107,19.689-10.814,10.734-21.588,21.498-32.332,32.302-1.809,1.819-3.111,3.061-5.606.547-17.224-17.413-34.598-34.687-51.911-52.021-.219-.219-.288-.576-1.034-2.087,10.515-10.317,21.15-20.703,31.725-31.149,7.067-6.977,14.113-13.974,21.021-21.1,1.918-1.978,3.26-2.286,5.278-.248,17.165,17.274,34.379,34.478,51.554,51.723ZM127.045,100.464c6.54-6.838,8.587-15.455,7.096-24.818-.964-6.043-5.397-11.34-10.217-12.165-6.192-1.063-9.979,2.226-12.831,7.196-.557.964-1.302,1.819-2.356,3.28-1.68-2.425-2.783-4.254-4.115-5.894-5.536-6.768-13.239-6.58-18.198.646-3.419,4.979-4.453,10.694-3.23,16.598,2.852,13.785,12.275,22.243,23.943,28.664,1.083.596,3.369.239,4.413-.567,5.327-4.125,10.873-8.1,15.495-12.941Z"/>
          <path class="cls-9" d="M162.935-36.565C144.995-18.535,126.737-.188,107.187,19.451c-1.143-1.71-2.157-3.906-3.757-5.516-15.614-15.753-31.278-31.457-47.061-47.041-2.525-2.495-2.952-4.035-.189-6.768,16.966-16.727,33.763-33.634,50.619-50.48.457-.447,1.004-.805,1.431-1.133,18.606,18.685,36.884,37.033,54.704,54.923ZM108.907-11.489c5.596-11.38,13.815-19.162,25.007-25.225-11.579-5.655-19.162-13.895-25.086-24.828-5.944,11.122-13.845,19.063-24.987,24.848,11.062,6.063,19.152,14.024,25.066,25.205Z"/>
          <path class="cls-1" d="M134.142,75.647c1.491,9.363-.557,17.98-7.096,24.818-4.622,4.84-10.168,8.816-15.495,12.941-1.044.805-3.33,1.163-4.413.567-11.668-6.421-21.091-14.879-23.943-28.664-1.222-5.904-.189-11.619,3.23-16.598,4.96-7.226,12.662-7.414,18.198-.646,1.332,1.64,2.435,3.469,4.115,5.894,1.054-1.461,1.799-2.316,2.356-3.28,2.852-4.97,6.639-8.259,12.831-7.196,4.82.825,9.253,6.122,10.217,12.165Z"/>
          <path class="cls-1" d="M168.004-36.982c-19.759,19.749-39.696,39.657-59.445,59.386C89.257,3.022,69.34-16.965,49.859-36.515c19.57-19.62,39.478-39.577,59.256-59.405,19.57,19.59,39.408,39.438,58.889,58.938ZM107.187,19.451C126.737-.188,144.995-18.535,162.935-36.565c-17.821-17.89-36.098-36.238-54.704-54.923-.427.328-.974.686-1.431,1.133-16.857,16.847-33.653,33.753-50.619,50.48-2.763,2.733-2.336,4.274.189,6.768,15.783,15.584,31.447,31.288,47.061,47.041,1.6,1.61,2.614,3.807,3.757,5.516Z"/>
          <path class="cls-1" d="M103.182,148.728c.904.895,1.59,2.008,2.495,3.18-.954,1.222-1.65,2.336-2.554,3.24-18.099,18.159-36.267,36.248-54.317,54.456-2.375,2.395-3.906,1.968-6.083-.219-17.821-17.96-35.661-35.88-53.661-53.661-2.932-2.892-2.962-4.602,0-7.524,17.89-17.652,35.631-35.442,53.293-53.323,2.515-2.534,4.145-2.932,6.828-.229,17.93,18.089,35.999,36.049,53.999,54.078ZM98.312,155.496c2.505-2.475,2.862-4.234.169-6.908-16.578-16.399-33.037-32.898-49.466-49.447-2.206-2.226-3.697-2.445-6.063-.05-16.509,16.678-33.137,33.256-49.804,49.775-2.197,2.177-2.604,3.687-.209,6.063,16.807,16.628,33.504,33.365,50.252,50.053.785.775,1.759,1.362,2.862,2.197,1.153-.974,2.206-1.729,3.111-2.634,16.379-16.35,32.709-32.749,49.148-49.049Z"/>
          <path class="cls-5" d="M98.968,23.268c2.047,2.037,2.326,3.479.089,5.695-16.906,16.777-33.693,33.663-50.54,50.5-.676.676-1.481,1.232-2.515,2.077-1.093-.875-2.177-1.57-3.071-2.465C26.552,62.706,10.242,46.267-6.207,29.967c-2.644-2.624-3.151-4.343-.219-7.236C10.183,6.362,26.652-10.157,43.051-26.755c2.415-2.435,3.946-2.037,6.103.139C65.712-9.948,82.32,6.68,98.968,23.268ZM64.718,40.522c5.029-2.087,7.613-7.116,7.017-13.04-.616-6.222-4.284-9.661-10.327-11.062-1.083-.248-2.336-2.177-2.515-3.469-1.123-8.011-5.407-12.434-12.623-12.583-7.484-.159-11.947,4.204-13.358,12.473-.239,1.421-1.878,3.24-3.27,3.727-5.536,1.898-9.223,5.894-9.71,11.311-.447,5.059,2.216,9.82,6.838,12.215,4.81,2.485,10.704,1.819,14.859-1.67.914-.765,1.839-1.521,2.763-2.286.358.248.716.497,1.073.735-.02.04-.03.07-.05.109-2.157,4.87-4.323,9.75-6.49,14.63h14.312c-2.326-4.999-4.423-9.532-6.52-14.054.427-.248.845-.497,1.272-.745.278.139.616.219.825.437,4.562,4.681,10.019,5.705,15.902,3.27Z"/>
          <path class="cls-5" d="M98.481,148.589c2.693,2.674,2.336,4.433-.169,6.908-16.439,16.3-32.769,32.699-49.148,49.049-.904.904-1.958,1.66-3.111,2.634-1.103-.835-2.077-1.421-2.862-2.197-16.747-16.688-33.445-33.425-50.252-50.053-2.395-2.375-1.988-3.886.209-6.063,16.668-16.519,33.296-33.097,49.804-49.775,2.365-2.395,3.856-2.177,6.063.05,16.429,16.548,32.888,33.047,49.466,49.447ZM67.58,169.371c4.731-3.797,6.023-12.563,1.789-17.572-7.345-8.687-15.236-16.906-23.516-25.99-8.329,9.253-16.678,17.731-24.023,27.004-4.314,5.437-2.137,13.05,3.409,17.125,4.691,3.449,10.804,2.226,15.654-3.369.924-1.073,1.113-2.783,1.64-4.204.815.696,1.64,1.391,2.465,2.087-.964,2.157-1.729,4.423-2.932,6.431-1.242,2.057-2.902,3.856-4.87,6.391h16.658c-2.425-4.244-4.671-8.19-6.927-12.136l1.729-1.163c.825,1.004,1.59,2.067,2.485,3.002,5.079,5.228,11.738,6.182,16.439,2.395Z"/>
          <path class="cls-1" d="M105.279,26.17c-19.749,19.679-39.617,39.488-60.777,60.588-4.502-4.999-9.164-10.565-14.243-15.723C16.564,57.13,2.699,43.385-11.136,29.599c-1.888-1.878-3.439-3.439-.775-6.093C6.664,5.09,25.141-13.427,43.667-31.893c.676-.676,1.56-1.143,1.799-1.312C65.603-13.218,85.52,6.551,105.279,26.17ZM99.057,28.963c2.236-2.216,1.958-3.658-.089-5.695C82.32,6.68,65.712-9.948,49.153-26.616c-2.157-2.177-3.687-2.574-6.103-.139C26.652-10.157,10.183,6.362-6.425,22.731c-2.932,2.892-2.425,4.612.219,7.236,16.449,16.3,32.759,32.739,49.138,49.109.895.895,1.978,1.59,3.071,2.465,1.034-.845,1.839-1.401,2.515-2.077,16.847-16.837,33.634-33.723,50.54-50.5Z"/>
          <path class="cls-9" d="M71.735,27.482c.596,5.924-1.988,10.953-7.017,13.04-5.884,2.435-11.34,1.411-15.902-3.27-.209-.219-.547-.298-.825-.437-.427.248-.845.497-1.272.745l-1.302-.576c.02-.04.03-.07.05-.109-.358-.239-.716-.487-1.073-.735-.924.765-1.849,1.521-2.763,2.286-4.155,3.489-10.048,4.155-14.859,1.67-4.622-2.395-7.285-7.156-6.838-12.215.487-5.417,4.174-9.412,9.71-11.311,1.391-.487,3.031-2.306,3.27-3.727C34.324,4.573,38.787.21,46.271.369c7.216.149,11.499,4.572,12.623,12.583.179,1.292,1.431,3.22,2.515,3.469,6.043,1.401,9.71,4.84,10.327,11.062Z"/>
          <path class="cls-9" d="M69.369,151.799c4.234,5.009,2.942,13.775-1.789,17.572-4.701,3.787-11.36,2.833-16.439-2.395-.895-.934-1.66-1.998-2.485-3.002l-1.729,1.163-1.928-.686c-.825-.696-1.65-1.391-2.465-2.087-.527,1.421-.716,3.131-1.64,4.204-4.85,5.596-10.963,6.818-15.654,3.369-5.546-4.075-7.723-11.688-3.409-17.125,7.345-9.273,15.694-17.751,24.023-27.004,8.279,9.084,16.171,17.304,23.516,25.99Z"/>
          <path class="cls-9" d="M53.238,51.614h-14.312c2.167-4.88,4.333-9.76,6.49-14.63l1.302.576c2.097,4.522,4.194,9.054,6.52,14.054Z"/>
          <path class="cls-1" d="M40.954,86.48c.765.795,1.352,1.769,2.117,2.783-.865,1.073-1.501,2.018-2.296,2.813-18.337,18.377-36.705,36.715-55.012,55.132-1.948,1.958-3.31,2.028-5.297.03-18.427-18.526-36.874-37.023-55.43-55.41-2.743-2.713-1.143-4.164.726-6.033,18.039-18,36.098-35.979,54.009-54.098,2.783-2.813,4.463-2.077,6.858.338,15.485,15.624,31.069,31.159,46.624,46.713,2.574,2.574,5.168,5.129,7.703,7.733ZM36.123,91.937c2.226-2.206,2.097-3.518-.01-5.606C19.317,69.643,2.579,52.896-14.088,36.089c-2.137-2.157-3.518-2.137-5.655.02-16.558,16.688-33.176,33.306-49.884,49.844-2.485,2.455-2.326,4.015.089,6.411,16.698,16.529,33.266,33.186,49.894,49.794.775.775,1.719,1.401,2.783,2.256,1.163-.994,2.197-1.769,3.101-2.674,16.618-16.608,33.186-33.276,49.884-49.804Z"/>
          <path class="cls-1" d="M40.656-39.656c1.968,1.968,2.574,3.439.288,5.705C22.149-15.315,3.444,3.41-15.311,22.095c-.447.437-1.054.726-2.306,1.57C-31.482,9.671-45.088-4.064-58.705-17.78c-5.248-5.278-10.476-10.575-15.833-15.733-2.246-2.177-2.415-3.737-.04-6.093,18.337-18.178,36.585-36.446,54.784-54.764,2.087-2.097,3.528-2.256,5.695-.08C4.1-76.122,22.358-57.874,40.656-39.656ZM36.173-33.991c2.654-2.624,1.441-4.015-.567-6.003C19.545-55.986,3.543-72.037-12.488-88.059c-1.372-1.362-2.843-2.624-4.075-3.747-.835.298-1.222.328-1.431.537-17.463,17.393-34.906,34.816-52.388,52.19-1.928,1.918-1.441,3.3.298,4.97,3.926,3.787,7.742,7.683,11.589,11.559C-44.869-8.845-31.253,4.881-17.378,18.855c1.252-.914,1.829-1.232,2.276-1.68C1.983.11,19.008-17.015,36.173-33.991Z"/>
          <path class="cls-9" d="M35.607-39.994c2.008,1.988,3.22,3.379.567,6.003C19.008-17.015,1.983.11-15.102,17.175c-.447.447-1.024.765-2.276,1.68C-31.253,4.881-44.869-8.845-58.496-22.551c-3.846-3.876-7.663-7.772-11.589-11.559-1.739-1.67-2.226-3.051-.298-4.97,17.483-17.373,34.926-34.796,52.388-52.19.209-.209.596-.239,1.431-.537,1.232,1.123,2.703,2.385,4.075,3.747C3.543-72.037,19.545-55.986,35.607-39.994ZM6.813-34.09c3.34-8.398,3.608-16.857-2.455-24.4-4.145-5.168-11.062-5.486-15.664-.765-1.938,1.988-3.439,4.383-5.616,7.216-1.59-2.147-2.773-3.866-4.085-5.486-5.596-6.957-13.567-6.599-18.496.785-3.866,5.804-4.105,12.235-2.455,18.616,3.22,12.414,12.225,20.087,22.83,26.15,1.173.666,3.429.606,4.632-.08C-5.282-17.313,2.788-23.932,6.813-34.09Z"/>
          <path class="cls-9" d="M36.114,86.331c2.107,2.087,2.236,3.399.01,5.606C19.426,108.465,2.858,125.133-13.76,141.741c-.904.904-1.938,1.68-3.101,2.674-1.063-.855-2.008-1.481-2.783-2.256-16.628-16.608-33.196-33.266-49.894-49.794-2.415-2.395-2.574-3.956-.089-6.411,16.707-16.538,33.325-33.157,49.884-49.844,2.137-2.157,3.518-2.177,5.655-.02C2.579,52.896,19.317,69.643,36.114,86.331ZM-16.981,114.22c5.904-11.211,13.815-19.113,25.215-25.185-11.619-5.794-19.242-13.944-25.245-24.798-5.914,11.271-13.805,18.993-24.788,24.768,10.903,6.172,19.093,13.805,24.818,25.215Z"/>
          <path class="cls-1" d="M8.235,89.034c-11.4,6.073-19.311,13.974-25.215,25.185-5.725-11.41-13.915-19.043-24.818-25.215,10.983-5.775,18.874-13.497,24.788-24.768,6.003,10.853,13.626,19.003,25.245,24.798Z"/>
        </g>
      </g>
      <g>
        <rect class="cls-8" x="-.123" y="46.616" width="171.153" height="6.704" transform="translate(-7.563 16.1) rotate(-10.31)"/>
        <rect class="cls-7" x="-.123" y="52.088" width="171.153" height="14.164" transform="translate(12.051 -14.42) rotate(10.373)"/>
        <circle class="cls-3" cx="62.726" cy="54.209" r="16.793"/>
        <path class="cls-2" d="M57.923,48.28c2.082.012,3.889,1.275,4.66,3.263.021.055.046.131.089.15.087.037.149.002.187-.105.242-.675.622-1.264,1.117-1.783,1.936-2.025,4.83-1.81,6.432-.641,1.232.899,1.915,2.1,2.005,3.631.083,1.402-.391,2.624-1.188,3.749-.385.544-.861.993-1.365,1.422-1.89,1.608-3.773,3.224-5.659,4.837-.451.386-.905.767-1.351,1.158-.094.083-.148.086-.245.003-1.374-1.182-2.753-2.359-4.13-3.537-1.165-.996-2.343-1.977-3.485-2.998-.359-.321-.647-.732-.923-1.132-.637-.926-1.002-1.948-1.037-3.085-.076-2.492,1.749-4.609,4.225-4.88.221-.024.444-.035.667-.052Z"/>
      </g>
    </g>
  </g>
</svg>