<?xml version="1.0" encoding="UTF-8"?>
<svg id="Layer_2" data-name="Layer 2" xmlns="http://www.w3.org/2000/svg" viewBox="0 0 305.587 157.218">
  <defs>
    <style>
      .cls-1 {
        fill: #bd7db5;
      }

      .cls-1, .cls-2, .cls-3, .cls-4, .cls-5, .cls-6 {
        stroke-width: 0px;
      }

      .cls-2 {
        fill: #a392c2;
      }

      .cls-3 {
        fill: #7a1a1a;
      }

      .cls-4 {
        fill: #d89ba8;
      }

      .cls-5 {
        fill: #d5969a;
      }

      .cls-6 {
        fill: #995a7b;
      }
    </style>
  </defs>
  <g id="Layer_1-2" data-name="Layer 1">
    <g>
      <g>
        <rect class="cls-3" x="64.985" y="81.203" width="155.608" height="42.032"/>
        <path class="cls-6" d="M214.516,120.981s-14.012-82.598,32.805-111.112c46.817-28.514,22.896,13.826,22.896,13.826l-23.636,7.128,21.832.567s-7.826,18.847-9.996,23.342c-2.17,4.495-14.565.944-14.565.944l10.639,4.614-39.975,60.69Z"/>
        <path class="cls-4" d="M208.113,121.18s48.839-80.902,82.753-84.727c33.914-3.825-1.39,23.133-1.39,23.133l-12.417-4.612,6.84,10.698s-14.783,13.316-18.409,16.35c-3.626,3.035-5.42-5.946-5.42-5.946l.526,9.119-52.482,35.986Z"/>
        <path class="cls-5" d="M138.914,108.926c-65.258,0-120.479-13.648-138.914-32.448v80.74h277.828v-80.74c-18.435,18.8-73.656,32.448-138.914,32.448Z"/>
        <rect class="cls-3" y="135.904" width="277.828" height="11.626"/>
      </g>
      <circle class="cls-2" cx="38.871" cy="131.394" r="24.624"/>
      <circle class="cls-3" cx="38.871" cy="131.394" r="22.244"/>
      <path class="cls-1" d="M30.239,120.14c3.741.022,6.988,2.291,8.374,5.864.038.099.083.236.161.269.156.066.268.004.337-.189.435-1.213,1.117-2.272,2.008-3.204,3.479-3.639,8.678-3.252,11.557-1.151,2.214,1.616,3.441,3.774,3.603,6.525.148,2.52-.703,4.715-2.135,6.736-.692.977-1.546,1.784-2.453,2.555-3.397,2.889-6.78,5.794-10.169,8.692-.81.693-1.626,1.379-2.427,2.081-.169.148-.265.155-.44.005-2.469-2.124-4.946-4.239-7.421-6.356-2.093-1.79-4.21-3.553-6.263-5.387-.645-.576-1.163-1.315-1.659-2.035-1.145-1.663-1.801-3.5-1.863-5.543-.136-4.478,3.142-8.281,7.591-8.768.398-.044.798-.063,1.198-.094Z"/>
    </g>
  </g>
</svg>