<?xml version="1.0" encoding="UTF-8"?>
<svg id="Layer_2" data-name="Layer 2" xmlns="http://www.w3.org/2000/svg" xmlns:xlink="http://www.w3.org/1999/xlink" viewBox="0 0 154.454 131.248">
  <defs>
    <style>
      .cls-1 {
        clip-path: url(#clippath);
      }

      .cls-2 {
        fill: #7a1a1a;
      }

      .cls-2, .cls-3, .cls-4, .cls-5, .cls-6, .cls-7, .cls-8, .cls-9, .cls-10 {
        stroke-width: 0px;
      }

      .cls-3 {
        fill: none;
      }

      .cls-4 {
        fill: #b96f3f;
      }

      .cls-5 {
        fill: #ff8759;
      }

      .cls-6 {
        fill: #a5503b;
      }

      .cls-7 {
        fill: #ac5846;
      }

      .cls-8 {
        fill: #d4a859;
      }

      .cls-9 {
        fill: #c37f46;
      }

      .cls-10 {
        fill: #e49855;
      }
    </style>
    <clipPath id="clippath">
      <rect class="cls-3" x="4.873" width="142.378" height="131.248"/>
    </clipPath>
  </defs>
  <g id="Layer_1-2" data-name="Layer 1">
    <g>
      <g class="cls-1">
        <g>
          <path class="cls-4" d="M199.671,144.19c-.013,0-.145.066-.251.165-12.473,12.407-24.907,24.854-37.433,37.202-1.874,1.848-.99,2.871.416,4.27,11.919,11.873,23.785,23.791,35.684,35.684.667.667,1.452,1.208,2.125,1.762,13.305-13.371,26.392-26.511,39.004-39.188-13.166-13.239-26.346-26.504-39.611-39.848.033-.02.053-.033.066-.046ZM352.847,125.487v3.3c-8.626-8.513-17.245-17.02-25.349-25.026-.462-.449-.924-.904-1.379-1.353-13.582,13.503-26.854,26.702-39.875,39.657,12.902,12.948,26.055,26.154,39.71,39.861.528-.548,1.063-1.096,1.59-1.65l1.3,1.32-.007.007c-1.28,1.261-1.228,2.198-.462,3.207l-1.208,1.135c-.277-.323-.548-.64-.825-.957-14.044,14.018-27.296,27.243-41.379,41.3,3.65,3.3,7.392,6.685,11.127,10.071h-3.3c-2.957-3.128-5.913-6.25-8.817-9.325-3.537,3.412-6.6,6.369-9.662,9.325h-2.64c3.379-3.683,6.758-7.359,10.038-10.922-13.331-13.318-26.577-26.557-39.36-39.32-13.186,13.127-26.504,26.379-39.848,39.65,3.115,3.372,6.448,6.982,9.774,10.592h-2.64c-3.023-3.128-6.052-6.25-9.371-9.688-3.3,3.504-6.204,6.6-9.107,9.688h-3.3c3.551-3.65,7.101-7.293,10.361-10.632-13.529-13.602-26.669-26.808-39.584-39.795-.634.627-1.261,1.261-1.894,1.887-12.552,12.519-25.204,25.158-38.713,38.634,3.584,3.201,7.339,6.553,11.094,9.906h-3.3c-2.897-3.056-5.788-6.105-8.593-9.061-.719.297-1.089.343-1.3.554-2.877,2.825-5.728,5.669-8.586,8.507h-2.64c3.346-3.683,6.699-7.359,9.748-10.718-1.175-1.175-2.343-2.349-3.518-3.518-12.15-12.183-24.161-24.214-36.271-36.351-.112.066-.521.244-.818.535-12.447,12.427-24.867,24.867-37.334,37.268-1.32,1.307-1.32,2.217-.007,3.531,3.003,3.016,5.88,6.157,8.804,9.253h-2.64c-2.534-2.554-4.983-5.207-7.675-7.59-.667-.601-2.587-.858-3.115-.376-2.706,2.495-5.154,5.28-7.689,7.966h-3.3c3.491-3.623,6.976-7.24,10.309-10.698-13.457-13.41-26.728-26.629-39.71-39.558-13.034,12.995-26.293,26.207-40.429,40.297,3.597,3.227,7.345,6.593,11.094,9.959h-3.3c-2.97-3.128-5.94-6.263-8.942-9.424-3.471,3.425-6.501,6.428-9.536,9.424h-2.64c3.372-3.683,6.745-7.365,9.939-10.843-13.377-13.325-26.636-26.537-39.743-39.598-13.014,12.995-26.26,26.227-39.624,39.578,3.247,3.511,6.639,7.187,10.031,10.863h-2.64c-3.089-3.075-6.184-6.144-9.563-9.503-3.102,3.306-6.012,6.402-8.916,9.503h-3.3c3.551-3.656,7.101-7.306,10.229-10.513-13.582-13.622-26.742-26.814-40.746-40.858-.409.548-.818,1.148-1.247,1.762l-1.162-1.188.013-.013c1.551-1.498,1.577-2.574.046-4.052-4.488-4.323-8.89-8.738-13.331-13.113v-2.64c4.996,4.745,9.985,9.49,14.717,13.985.574.541,1.142,1.089,1.709,1.623,13.483-13.404,26.695-26.544,39.703-39.485-13.087-13.107-26.319-26.346-40.383-40.429-5.088,5.425-10.421,11.107-15.747,16.789v-3.3c4.739-5.134,9.477-10.262,14.559-15.766-4.481-4.29-9.523-9.114-14.559-13.932v-3.3c5.517,5.451,11.041,10.909,16.591,16.4.733-.535,1.214-.799,1.59-1.175,12.354-12.335,24.663-24.715,37.076-36.984,2.019-1.993.653-2.957-.614-4.224-11.331-11.331-22.65-22.67-33.988-33.994-1.208-1.208-2.481-2.356-3.887-3.676-1.28,1.234-2.303,2.204-3.32,3.181-4.488,4.316-8.969,8.639-13.45,12.955v-2.64c4.329-4.323,8.593-8.711,13.021-12.935,1.762-1.676,1.802-2.838.033-4.521-4.428-4.217-8.711-8.593-13.054-12.902V-1.225c5.59,5.319,11.18,10.639,16.327,15.542,1.069-1.069,2.145-2.132,3.207-3.194,12.407-12.335,24.564-24.425,36.575-36.37-13.047-13.021-26.247-26.194-39.743-39.663-5.319,5.253-10.843,10.711-16.367,16.169v-3.3c4.692-5.174,9.391-10.342,13.549-14.922-4.105-4.481-8.83-9.629-13.549-14.776v-3.3c5.293,5.709,10.592,11.417,15.667,16.888,14.156-14.189,27.375-27.441,40.304-40.396-12.995-13.028-26.2-26.273-39.571-39.683-.779.713-1.749,1.584-2.686,2.481-4.58,4.395-9.14,8.791-13.714,13.193v-2.64c4.349-4.316,8.659-8.665,13.074-12.915,1.696-1.63,1.815-2.884.033-4.58-4.442-4.211-8.744-8.566-13.107-12.863v-2.64c4.983,4.725,9.959,9.457,14.737,13.998.594.561,1.188,1.122,1.775,1.683,13.47-13.43,26.669-26.583,39.65-39.525-13.113-13.133-26.346-26.379-40.495-40.548-5.062,5.451-10.368,11.166-15.667,16.875v-3.3c4.732-5.128,9.457-10.249,14.38-15.588-1.835-1.947-4.145-4.402-6.461-6.85h3.3c4.442,6.619,5.365,6.718,10.553,1.096.284-.31.449-.733.667-1.096h3.3c-2.297,2.475-4.6,4.956-7.009,7.55.64.799,1.122,1.525,1.722,2.125,12.018,12.038,24.082,24.029,36.047,36.126,1.736,1.749,2.732,1.346,4.244-.198,6.613-6.732,13.305-13.391,20.017-20.017,5.92-5.847,11.919-11.622,17.977-17.522-2.62-3.023-4.811-5.544-7.002-8.065h2.64q5.722,6.375,11.675.251c.079-.073.139-.165.205-.251h2.64c-2.184,2.521-4.369,5.042-6.204,7.161,13.344,13.371,26.511,26.563,39.472,39.558,12.962-12.995,26.121-26.181,39.426-39.525-2.085-2.244-4.395-4.719-6.699-7.194h3.3c1.472,1.597,2.844,3.293,4.461,4.725.482.429,1.98.462,2.435.046,1.577-1.445,2.904-3.161,4.323-4.771H.429c-2.31,2.455-4.626,4.917-6.791,7.22,13.377,13.358,26.557,26.517,39.875,39.809.046-.02.508-.139.799-.429,12.513-12.506,24.999-25.026,37.519-37.525,1.228-1.221,1.016-2.165-.119-3.32-1.828-1.854-3.531-3.828-5.286-5.755h2.64c7.293,7.425,4.778,6.857,11.661.244.079-.079.145-.165.218-.244h2.64c-1.208,1.386-2.343,2.844-3.643,4.138-3.379,3.359-3.419,3.339-.185,6.586,10.018,10.025,20.036,20.05,30.068,30.061,2.231,2.231,4.514,4.409,6.547,6.388,12.282-12.275,24.326-24.313,36.509-36.489l3.485-3.485c-2.151-2.283-4.468-4.745-6.784-7.2h3.3c4.501,6.593,5.431,6.692,10.559,1.096.284-.31.442-.733.66-1.096h3.3c-2.297,2.475-4.593,4.956-6.573,7.088.97.977,1.947,1.953,2.917,2.93,12.335,12.394,24.544,24.669,36.687,36.865,12.975-13.008,26.128-26.187,39.4-39.492-2.039-2.343-4.237-4.87-6.435-7.392h2.64c7.2,7.385,4.877,6.791,11.675.251.079-.073.139-.172.205-.251h2.64c-2.191,2.521-4.376,5.049-6.639,7.656.594.7,1.036,1.32,1.571,1.854,12.097,12.117,24.247,24.174,36.271,36.364,2.085,2.112,3.135.805,4.501-.568,11.787-11.807,23.587-23.6,35.374-35.413.673-.68,1.247-1.459,1.973-2.323-2.442-2.627-4.752-5.101-7.055-7.57h3.3c1.465,1.604,2.838,3.306,4.448,4.745.475.416,1.96.429,2.415.007,1.59-1.432,2.924-3.148,4.356-4.752h3.3c-2.323,2.455-4.646,4.917-7.814,8.276.29.238.574.469.865.693l-1.109,1.122-.158-.158c-13.589,13.49-26.88,26.676-39.941,39.637,12.915,12.955,26.075,26.148,39.413,39.525.601-.541,1.313-1.135,1.993-1.782.099-.092.191-.191.29-.284,4.989-4.963,9.926-9.972,14.948-14.902,3.273-3.201,6.659-6.289,9.992-9.431v2.64c-7.946,7.893-15.852,15.826-23.864,23.66-1.788,1.742-1.181,2.897.264,4.329,7.887,7.807,15.74,15.654,23.6,23.488v2.64c-.845-.66-1.769-1.234-2.521-1.986-7.174-7.128-14.308-14.295-21.468-21.435-1.069-1.069-2.217-2.059-3.056-2.825-13.437,13.424-26.682,26.656-39.598,39.558,13.041,13.107,26.253,26.385,40.304,40.502.046-.046.092-.099.139-.145l1.043.997c-.125.119-.086.403-.119.614-.244.238-.482.475-.719.719.772.601,1.584,1.175,2.369,1.769l-1.221,1.208-.086-.086c-1.821-1.848-2.904-1.861-4.758.007-11.813,11.972-23.706,23.864-35.691,35.664-1.96,1.934-1.623,2.99.145,4.739l.119.119c11.76,11.635,23.415,23.369,35.116,35.057.759.766,1.604,1.445,2.66,2.389,9.2-9.187,18.274-18.248,27.342-27.309v3.3c-7.854,7.834-15.661,15.72-23.594,23.481-1.755,1.716-1.762,2.798,0,4.514,7.933,7.761,15.74,15.641,23.594,23.481v3.3c-9.048-9.088-18.089-18.175-26.57-26.689-.502.502-1.003.997-1.505,1.492-13.08,12.981-25.864,25.666-38.377,38.08,12.955,12.922,26.154,26.082,39.611,39.505,8.797-8.731,17.819-17.693,26.841-26.649v3.3c-.832.686-1.722,1.32-2.488,2.079-6.685,6.633-13.338,13.292-20.01,19.944-3.32,3.306-3.353,3.333.059,6.705,7.458,7.378,14.955,14.724,22.439,22.089ZM321.974,18.528c1.525-1.525,1.36-2.613-.119-4.085-11.998-11.925-23.956-23.884-35.862-35.895-1.722-1.742-2.884-1.643-4.56.092-5.115,5.293-10.368,10.454-15.588,15.648-7.312,7.279-14.638,14.552-22.056,21.917.422.752.528,1.089.746,1.307,12.42,12.44,24.88,24.854,37.261,37.34,1.63,1.65,2.732,1.181,4.092-.185,12.011-12.057,24.029-24.121,36.087-36.139ZM283.703,139.313c13.094-13.061,26.293-26.22,39.38-39.268-13.054-13.047-26.233-26.22-38.984-38.964-13.179,13.094-26.445,26.28-39.215,38.971,12.863,13.014,25.969,26.26,38.819,39.261ZM322.694-150.804c-12.79-12.803-25.897-25.93-38.885-38.931-13.008,13.14-26.121,26.372-39.142,39.518,12.803,12.882,25.936,26.101,38.647,38.885,13.127-13.16,26.339-26.405,39.38-39.472ZM283.776-27.656c12.995-13.001,26.161-26.181,38.839-38.865-13.1-13.278-26.247-26.596-38.911-39.433-13.061,12.988-26.266,26.115-39.215,38.99,13.041,13.047,26.22,26.233,39.287,39.307ZM283.651,222.877c13.061-13.008,26.253-26.141,39.254-39.089-13.212-13.239-26.359-26.412-39.188-39.268-13.041,12.995-26.28,26.2-39.155,39.03,12.988,13.061,26.115,26.273,39.089,39.327ZM281.545-25.412c-.264-.343-.601-.904-1.049-1.353-12.189-12.203-24.418-24.366-36.542-36.628-1.782-1.802-2.844-1.214-4.296.244-7.563,7.649-15.153,15.285-22.802,22.841-4.976,4.917-10.084,9.701-14.79,14.216,13.853,13.8,27.118,27.012,40.099,39.954,12.876-12.843,26.068-26.002,39.38-39.274ZM272.464,67.992c3.148-3.161,6.283-6.329,9.134-9.2-13.47-13.523-26.616-26.722-39.406-39.565-13.14,13.094-26.405,26.313-39.776,39.631.125.165.416.634.792,1.016,12.189,12.196,24.418,24.352,36.555,36.595,1.815,1.835,2.937,1.412,4.547-.218,9.338-9.47,18.763-18.848,28.154-28.259ZM280.998-108.481c-13.021-13.047-26.299-26.352-38.951-39.023-13.028,12.909-26.326,26.082-39.215,38.858,12.955,13.054,26.095,26.293,39.109,39.4,13.087-13.146,26.306-26.425,39.056-39.235ZM241.737,180.943c13.206-13.094,26.497-26.286,39.195-38.885-13.041-13.1-26.247-26.372-39.254-39.439-12.955,12.942-26.161,26.121-39.202,39.149,13.153,13.12,26.412,26.359,39.261,39.175ZM242.08-152.547c13.001-13.061,26.148-26.273,39.281-39.472-13.107-13.133-26.332-26.385-39.268-39.34-13.12,13.1-26.379,26.319-39.426,39.34,13.028,13.047,26.253,26.293,39.413,39.472ZM240.496,16.964c-1.452-1.577-2.297-2.574-3.214-3.491-11.496-11.503-23.052-22.947-34.463-34.536-2.052-2.085-3.214-2.046-5.247.02-11.721,11.892-23.541,23.679-35.427,35.413-1.643,1.617-1.762,2.613-.112,4.25,12.024,11.906,24.009,23.844,35.908,35.875,1.914,1.934,3.042,1.617,4.771-.158,6.441-6.606,12.988-13.12,19.555-19.607,5.933-5.86,11.945-11.642,18.228-17.766ZM239.829-150.712c-.31-.363-.766-.964-1.294-1.498-12.104-12.143-24.253-24.247-36.298-36.45-1.821-1.848-2.838-1.115-4.263.323-11.859,11.925-23.739,23.844-35.704,35.677-1.782,1.762-1.65,2.831.059,4.521,11.952,11.84,23.818,23.772,35.724,35.658.673.673,1.465,1.221,2,1.663,13.344-13.384,26.491-26.577,39.776-39.894ZM239.348-67.023c-12.922-13.034-26.035-26.253-38.944-39.268-13.16,13.166-26.392,26.405-39.314,39.34,12.975,13.014,26.115,26.207,39.037,39.169,13.087-13.094,26.313-26.326,39.221-39.241ZM239.42,100.019c-12.942-12.981-26.095-26.174-39.037-39.155-13.127,13.094-26.365,26.299-39.076,38.984,12.975,13.1,26.134,26.385,38.997,39.38,12.995-13.021,26.141-26.207,39.116-39.208ZM198.034-25.472c-.106-.165-.277-.581-.574-.878-12.42-12.44-24.88-24.847-37.248-37.334-1.802-1.821-2.778-.759-4.013.482-6.501,6.534-13.001,13.074-19.541,19.581-6.058,6.025-12.163,12.005-18.136,17.898,13.589,13.542,26.847,26.748,39.835,39.696,13.153-13.08,26.365-26.214,39.677-39.446ZM196.925,143.616c1.967-1.947.733-2.97-.561-4.27-11.734-11.714-23.448-23.442-35.182-35.156-.818-.825-1.722-1.564-2.033-1.841-13.516,13.516-26.755,26.755-39.696,39.696,12.843,12.929,25.976,26.161,39.195,39.472.257-.178.66-.37.957-.673,12.434-12.414,24.828-24.874,37.321-37.228ZM188.894,68.137c3.168-3.161,6.415-6.243,9.226-8.975-13.615-13.694-26.801-26.953-39.815-40.04-13.001,12.922-26.2,26.055-39.677,39.459.614.673,1.168,1.34,1.782,1.953,11.873,11.886,23.798,23.719,35.578,35.697,1.993,2.026,3.122,1.815,4.983-.073,9.239-9.411,18.584-18.71,27.923-28.022ZM158.325-69.438c13.113-13.094,26.346-26.313,39.472-39.426-12.935-12.948-26.108-26.128-39.103-39.136-13.133,13.166-26.359,26.418-39.347,39.446,12.935,12.981,26.154,26.253,38.977,39.116ZM197.797-192.428c-12.975-12.981-26.148-26.174-39.155-39.188-13.146,13.153-26.405,26.412-39.301,39.307,13.173,13.232,26.326,26.438,39.004,39.169,13.054-13.001,26.319-26.207,39.452-39.287ZM154.748-148.165c2.019-1.993,1.28-3.247-.35-4.864-11.833-11.767-23.613-23.587-35.427-35.38-.667-.667-1.452-1.208-2.191-1.821-.581.416-.97.627-1.267.931-12.354,12.354-24.663,24.748-37.076,37.037-1.947,1.927-.838,2.917.502,4.25,10.051,10.005,20.096,20.003,30.074,30.074,2.455,2.481,4.653,5.214,6.976,7.84,1.333-.95,1.63-1.109,1.854-1.333,12.295-12.249,24.557-24.537,36.905-36.733ZM156.411,16.561c-.601-.779-1.056-1.518-1.656-2.112-11.952-11.972-23.95-23.897-35.856-35.908-1.782-1.795-2.864-1.531-4.534.152-11.727,11.866-23.514,23.686-35.387,35.407-1.967,1.94-1.947,3.075,0,4.996,11.945,11.807,23.798,23.706,35.631,35.625,1.445,1.459,2.455,1.742,4.039.152,11.985-12.09,24.049-24.102,36.067-36.159.601-.601,1.063-1.34,1.696-2.151ZM154.563,185.939c1.782-1.775,1.934-3.016.053-4.857-7.609-7.444-15.159-14.961-22.61-22.571-4.897-5.002-9.602-10.21-14.479-15.417-1.518,1.221-1.98,1.525-2.363,1.907-12.203,12.183-24.379,24.405-36.634,36.542-1.795,1.775-1.162,2.838.304,4.29,10.355,10.302,20.65,20.67,30.985,30.998,2.224,2.231,4.527,4.382,6.831,6.606.785-.607,1.346-.95,1.802-1.406,12.038-12.038,24.036-24.108,36.113-36.093ZM115.79-26.699c14.051-14.011,27.243-27.164,40.35-40.231-13.113-13.028-26.339-26.154-39.71-39.433-.158.119-.746.429-1.201.878-12.295,12.262-24.564,24.557-36.898,36.786-1.775,1.762-.739,2.798.515,4.046,9.187,9.154,18.393,18.281,27.487,27.514,3.372,3.425,6.468,7.121,9.457,10.441ZM116.78,139.425c13.08-13.113,26.233-26.306,39.294-39.393-13.047-12.995-26.247-26.148-39.241-39.089-13.107,13.014-26.326,26.128-39.254,38.957,13.054,13.16,26.181,26.398,39.202,39.525ZM114.84-25.036c-.508-.673-.898-1.32-1.406-1.848-1.683-1.729-3.405-3.425-5.115-5.134-10.328-10.335-20.683-20.643-30.959-31.018-1.59-1.604-2.706-2.099-4.554-.224-11.899,12.031-23.884,23.97-35.862,35.922-1.241,1.241-2.303,2.204-.488,4.006C48.785-11.124,61.033,1.158,73.262,13.459c1.327,1.327,2.231,1.274,3.524-.02,12.15-12.229,24.352-24.405,36.529-36.608.521-.528.95-1.155,1.525-1.868ZM114.827,58.244c-.535-.693-.937-1.333-1.459-1.854-12.104-12.123-24.24-24.201-36.298-36.364-1.67-1.683-2.699-1.452-4.263.119-11.978,12.084-24.009,24.115-36.093,36.1-1.511,1.498-1.59,2.501-.046,4.032,12.163,12.071,24.273,24.194,36.357,36.344,1.353,1.36,2.33,1.577,3.795.099,12.156-12.229,24.372-24.399,36.555-36.601.521-.521.911-1.175,1.452-1.874ZM113.428-106.851c1.518-1.505,1.115-2.481-.191-3.788-12.15-12.097-24.28-24.22-36.357-36.384-1.439-1.445-2.396-1.34-3.782.053-12.084,12.163-24.201,24.293-36.377,36.364-1.577,1.564-1.472,2.6.026,4.039,3.551,3.432,7.029,6.943,10.507,10.454,9.048,9.107,18.076,18.228,27.289,27.52.832-.561,1.234-.752,1.531-1.043,12.453-12.407,24.874-24.841,37.354-37.215ZM112.847-189.762c.68-.68,1.267-1.452,1.769-2.019-13.41-13.391-26.649-26.616-39.756-39.703-13.034,12.995-26.227,26.134-39.716,39.578.957.997,1.762,1.881,2.607,2.726,11.576,11.589,23.204,23.118,34.681,34.806,2.132,2.171,3.293,1.835,5.24-.145,11.661-11.813,23.442-23.501,35.176-35.242ZM112.537,144.487c.818-.818,1.538-1.736,2.066-2.343-13.457-13.476-26.623-26.656-39.683-39.736-13.028,13.041-26.187,26.207-39.591,39.624.409.508.785,1.043,1.241,1.498,12.183,12.222,24.405,24.399,36.535,36.68,1.901,1.927,2.891.851,4.244-.508,11.714-11.754,23.462-23.475,35.189-35.215ZM71.547,185.51c2.145-2.125.647-3.161-.686-4.501-11.734-11.727-23.508-23.415-35.149-35.242-1.953-1.993-3.049-1.927-4.963.013-11.562,11.727-23.211,23.376-34.938,34.938-2.112,2.079-2.31,3.359-.073,5.537,8.183,7.966,16.156,16.149,24.234,24.22,4.329,4.329,8.705,8.599,13.127,12.962.713-.535,1.188-.805,1.564-1.175,12.288-12.255,24.531-24.564,36.885-36.753ZM71.421,102.065c1.742-1.722,1.373-2.785-.158-4.29-7.576-7.477-15.12-14.988-22.604-22.564-4.989-5.055-9.86-10.236-14.44-15.007-13.886,13.767-27.157,26.926-40.356,40.007,13.061,13.047,26.233,26.207,39.512,39.472.475-.376,1.122-.792,1.65-1.32,12.13-12.104,24.214-24.247,36.397-36.298ZM71.217,18.904c1.676-1.656,1.94-2.765.145-4.541C59.271,2.392,47.26-9.666,35.209-21.69c-.528-.521-1.168-.924-1.894-1.492-.766.607-1.498,1.069-2.092,1.67C19.317-9.646,7.458,2.266-4.481,14.093c-1.742,1.729-2.059,2.917-.125,4.824,11.972,11.8,23.857,23.679,35.691,35.611,1.703,1.716,2.739,1.802,4.501.02,11.807-11.952,23.693-23.824,35.631-35.644ZM70.814-64.264c2.092-2.052,2.184-3.174.099-5.227-10.342-10.177-20.545-20.505-30.807-30.767-2.224-2.217-4.508-4.376-6.771-6.567-.693.548-1.063.785-1.366,1.089-12.302,12.269-24.564,24.564-36.911,36.773-1.755,1.729-1.327,2.825.172,4.303,5.57,5.471,11.081,10.988,16.578,16.525,6.956,7.015,13.879,14.064,21.158,21.449,1.426-1.327,2.402-2.184,3.32-3.102,11.496-11.51,22.92-23.079,34.529-34.476ZM70.722-147.637c2.178-2.132,2.277-3.313.079-5.458-8.111-7.893-16.083-15.931-24.009-24.003-4.369-4.455-8.553-9.088-12.816-13.641-.277.211-.554.429-.825.64-.442.304-.937.548-1.307.917-12.209,12.17-24.372,24.385-36.634,36.502-2.066,2.039-1.168,3.247.429,4.831,11.219,11.153,22.386,22.359,33.579,33.532,1.294,1.287,2.666,2.495,4.092,3.821.898-.812,1.564-1.366,2.178-1.973,11.727-11.741,23.396-23.541,35.235-35.169ZM31.309-25.525c-.422-.488-.825-1.003-1.28-1.459C18.057-38.948,6.033-50.867-5.847-62.918c-2.072-2.105-3.254-1.953-5.247.073-11.655,11.826-23.442,23.528-35.182,35.281-.686.686-1.307,1.439-1.67,1.841C-34.581-12.319-21.369.94-8.262,14.08,4.673,1.131,17.859-12.061,31.309-25.525ZM24.459,65.794c2.389-2.356,5.068-4.422,7.246-6.303C17.668,45.368,4.475,32.096-8.836,18.706c-.284.231-.733.535-1.109.911-12.282,12.255-24.524,24.557-36.872,36.753-1.861,1.835-1.043,2.844.37,4.25,11.84,11.774,23.686,23.541,35.4,35.44,2.039,2.072,3.207,2.066,5.233.007,9.998-10.183,20.116-20.248,30.272-30.272ZM-8.48-69.234c13.014-13.041,26.24-26.293,38.839-38.911-13.041-13.186-26.253-26.544-39.188-39.624-12.942,12.942-26.101,26.101-39.076,39.083,13.107,13.113,26.339,26.359,39.426,39.452ZM-8.242-152.771c12.935-12.962,26.095-26.154,38.964-39.056-13.259-13.252-26.497-26.484-39.182-39.162-12.955,12.896-26.214,26.088-39.109,38.924,12.995,12.988,26.22,26.2,39.327,39.294ZM30.59,141.973c-13.047-13.113-26.26-26.385-38.99-39.182-13.061,12.975-26.332,26.154-39.492,39.228,12.981,12.975,26.148,26.134,39.089,39.07,13.272-13.179,26.557-26.372,39.393-39.116ZM-11.826-148.64c1.782-1.762.752-2.778-.508-4.032-11.906-11.879-23.824-23.745-35.658-35.697-1.716-1.729-2.765-1.788-4.521-.013-11.813,11.958-23.739,23.811-35.611,35.71-.68.68-1.254,1.465-1.722,2.013,13.305,13.338,26.451,26.53,39.729,39.848.297-.165.521-.231.673-.383,12.533-12.486,25.045-24.999,37.618-37.446ZM-12.44,185.953c2.085-2.046,1.663-3.188-.165-4.996-11.727-11.595-23.363-23.29-35.037-34.938-.818-.825-1.742-1.538-2.541-2.237-13.377,13.377-26.497,26.497-39.499,39.492,13.265,13.325,26.412,26.524,39.716,39.881.581-.508,1.346-1.109,2.026-1.795,11.826-11.813,23.587-23.686,35.499-35.407ZM-50.262-27.676c13.12-13.047,26.326-26.181,39.446-39.228-13.127-13.008-26.352-26.121-39.36-39.01-12.975,12.922-26.214,26.101-39.083,38.911,12.968,13.074,26.088,26.306,38.997,39.327ZM-11.047,16.865C-24.227,3.573-37.327-9.633-50.533-22.944c-.165.119-.561.317-.865.607-12.368,12.321-24.702,24.676-37.116,36.951-1.815,1.795-1.049,2.858.383,4.277,9.041,8.975,18.01,18.017,27.032,27.012,3.537,3.537,7.141,7.009,10.645,10.441,13.483-13.503,26.636-26.682,39.406-39.479ZM-10.777,100.092c-13.08-13.08-26.26-26.253-39.281-39.268-13.206,13.16-26.392,26.306-39.155,39.03,13.008,13.12,26.174,26.398,39.089,39.426,13.054-13.001,26.253-26.148,39.347-39.188ZM-52.433-25.485c-.073-.106-.257-.508-.548-.799-12.42-12.447-24.861-24.867-37.261-37.334-1.32-1.333-2.25-1.267-3.531.046-3.518,3.63-7.147,7.147-10.724,10.711-9.088,9.068-18.175,18.136-26.986,26.92C-117.98-12.325-104.794.966-91.899,13.967-78.917.993-65.738-12.187-52.433-25.485ZM-57.799,64.335c1.927-1.907,4.184-3.478,6.052-5.009-14.004-14.037-27.17-27.23-40.205-40.29-13.212,13.199-26.405,26.392-39.71,39.69.178.224.475.68.851,1.056,12.189,12.203,24.405,24.379,36.548,36.628,1.736,1.749,2.864,1.61,4.547-.099,10.579-10.718,21.224-21.369,31.916-31.975ZM-92.176,180.798c13.127-12.981,26.438-26.134,39.182-38.733-13.041-13.14-26.227-26.438-39.136-39.452-12.995,12.975-26.194,26.154-39.03,38.971,13.226,13.305,26.418,26.577,38.984,39.215ZM-52.578-192.012c-13.067-13.041-26.266-26.214-39.479-39.393-13.021,13.014-26.266,26.253-39.367,39.34,13.107,13.107,26.346,26.352,39.413,39.413,13.113-13.094,26.365-26.319,39.433-39.36ZM-91.813-69.61c12.975-12.922,26.187-26.075,39.281-39.122-13.107-13.08-26.365-26.299-39.492-39.4-13.067,13.074-26.306,26.326-39.043,39.076,13.107,13.166,26.365,26.497,39.254,39.446ZM-93.806,17.003c-.475-.818-.581-1.148-.805-1.373-12.414-12.453-24.867-24.874-37.241-37.373-1.663-1.676-2.752-1.096-4.085.244-12.024,12.051-24.042,24.108-36.126,36.106-1.406,1.399-1.505,2.396-.092,3.801,12.077,12.005,24.148,24.022,36.133,36.12,1.927,1.947,3.128,1.505,4.818-.218,7.55-7.689,15.186-15.291,22.808-22.894,4.818-4.804,9.682-9.563,14.592-14.413ZM-94.083,183.286c-.337-.416-.766-1.043-1.294-1.571-12.11-12.13-24.267-24.227-36.331-36.41-1.617-1.63-2.627-1.28-4.032.125-12.183,12.236-24.405,24.425-36.595,36.647-.429.429-.673,1.049-.983,1.544,13.292,13.226,26.445,26.319,39.538,39.347,13.226-13.219,26.398-26.385,39.696-39.683ZM-134.341-110.382c13.787-13.767,26.959-26.926,39.789-39.736-13.087-13.127-26.286-26.365-39.565-39.683-.132.099-.528.31-.832.614-12.374,12.341-24.729,24.702-37.136,37.01-1.544,1.531-1.036,2.514.257,3.788,4.31,4.23,8.573,8.52,12.81,12.83,8.243,8.381,16.453,16.783,24.676,25.177ZM-94.783,100.277c-12.929-13.094-26.029-26.352-38.766-39.248-13.12,13.08-26.365,26.28-39.261,39.129,12.968,13.054,26.101,26.266,38.898,39.155,13.173-13.14,26.418-26.352,39.129-39.037ZM-133.694-27.63c13.113-13.14,26.286-26.339,39.136-39.208-13.034-13.113-26.227-26.385-39.162-39.393-13.113,13.034-26.346,26.187-39.426,39.188,13.127,13.113,26.319,26.286,39.452,39.413Z"/>
          <path class="cls-6" d="M197.46-26.349c.297.297.469.713.574.878-13.311,13.232-26.524,26.365-39.677,39.446-12.988-12.948-26.247-26.154-39.835-39.696,5.973-5.893,12.077-11.873,18.136-17.898,6.54-6.507,13.041-13.047,19.541-19.581,1.234-1.241,2.211-2.303,4.013-.482,12.368,12.486,24.828,24.894,37.248,37.334ZM195.342-24.706c-.488-.832-.64-1.267-.931-1.558-11.404-11.45-22.841-22.874-34.232-34.344-1.34-1.353-2.231-1.148-3.504.165-4.587,4.732-9.266,9.378-13.958,14.011-7.022,6.936-14.084,13.833-21.066,20.683.488,1.003.541,1.241.686,1.386,11.496,11.503,23.026,22.98,34.47,34.542,1.65,1.67,2.514.845,3.722-.363,7.134-7.174,14.288-14.321,21.468-21.449,4.428-4.395,8.909-8.738,13.344-13.074Z"/>
          <path class="cls-6" d="M196.365,139.346c1.294,1.3,2.528,2.323.561,4.27-12.493,12.354-24.887,24.814-37.321,37.228-.297.304-.7.495-.957.673-13.219-13.311-26.352-26.544-39.195-39.472,12.942-12.942,26.181-26.181,39.696-39.696.31.277,1.214,1.016,2.033,1.841,11.734,11.714,23.448,23.442,35.182,35.156ZM194.642,141.788c-12.038-12.051-24.187-24.214-36.443-36.482-.191.132-.594.323-.891.614-11.351,11.345-22.67,22.722-34.08,34.001-1.742,1.722-1.023,2.653.323,3.986,11.061,11.002,22.082,22.056,33.13,33.077.521.521,1.155.931,1.379,1.115,12.368-12.275,24.57-24.392,36.581-36.311Z"/>
          <path class="cls-8" d="M194.411-26.264c.29.29.442.726.931,1.558-4.435,4.336-8.916,8.678-13.344,13.074-7.18,7.128-14.334,14.275-21.468,21.449-1.208,1.208-2.072,2.033-3.722.363-11.444-11.562-22.973-23.039-34.47-34.542-.145-.145-.198-.383-.686-1.386,6.982-6.85,14.044-13.747,21.066-20.683,4.692-4.633,9.371-9.279,13.958-14.011,1.274-1.313,2.165-1.518,3.504-.165,11.391,11.47,22.828,22.894,34.232,34.344ZM170.6-17.598c4.343-4.541,5.695-10.262,4.712-16.479-.64-4.013-3.584-7.53-6.784-8.078-4.112-.706-6.626,1.478-8.52,4.778-.37.64-.865,1.208-1.564,2.178-1.122-1.61-1.848-2.825-2.732-3.914-3.676-4.494-8.791-4.369-12.084.429-2.27,3.306-2.957,7.101-2.145,11.021,1.887,9.154,8.15,14.77,15.898,19.033.719.389,2.237.158,2.93-.376,3.537-2.739,7.22-5.379,10.289-8.593Z"/>
          <path class="cls-8" d="M193.863,56.653c1.386,1.373,1.148,2.27-.106,3.518-11.14,11.081-22.247,22.208-33.348,33.328-1.109,1.109-1.967,1.894-3.498.35-11.45-11.543-22.967-23.013-34.456-34.516-.224-.218-.33-.554-.759-1.307,8.896-8.85,17.687-17.594,26.478-26.339,2.798-2.792,5.643-5.544,8.362-8.414,1.294-1.373,2.264-1.722,3.768-.205,11.14,11.239,22.333,22.432,33.559,33.585ZM158.602,74.967c3.716-7.51,9.173-12.546,16.327-16.611-7.26-4.085-12.579-9.173-16.466-16.69-3.821,7.596-9.193,12.869-16.809,16.776,7.88,3.696,12.816,9.292,16.948,16.525Z"/>
          <path class="cls-6" d="M198.12,59.161c-2.811,2.732-6.058,5.814-9.226,8.975-9.338,9.312-18.683,18.611-27.923,28.022-1.861,1.887-2.99,2.099-4.983.073-11.78-11.978-23.706-23.811-35.578-35.697-.614-.614-1.168-1.28-1.782-1.953,13.476-13.404,26.676-26.537,39.677-39.459,13.014,13.087,26.2,26.346,39.815,40.04ZM193.758,60.171c1.254-1.247,1.492-2.145.106-3.518-11.226-11.153-22.419-22.346-33.559-33.585-1.505-1.518-2.475-1.168-3.768.205-2.719,2.871-5.563,5.623-8.362,8.414-8.791,8.744-17.581,17.489-26.478,26.339.429.752.535,1.089.759,1.307,11.49,11.503,23.006,22.973,34.456,34.516,1.531,1.544,2.389.759,3.498-.35,11.101-11.12,22.208-22.247,33.348-33.328Z"/>
          <path class="cls-6" d="M175.299,132.793c1.082,6.23-.403,11.82-4.567,16.532-2.019,2.283-4.343,4.343-6.745,6.217-5.286,4.112-5.821,4.118-11.094.092-5.233-3.993-9.668-8.626-11.219-15.357-.931-4.039-.462-7.887,1.617-11.437,3.247-5.537,9.121-5.742,12.803-.548.693.977,1.373,1.953,2.072,2.917.053.073.205.073.521.172.462-.62.997-1.274,1.472-1.98,1.914-2.825,4.065-5.359,7.952-4.732,3.498.568,6.481,4.052,7.187,8.124Z"/>
          <path class="cls-8" d="M158.199,105.306c12.255,12.269,24.405,24.432,36.443,36.482-12.011,11.919-24.214,24.036-36.581,36.311-.224-.185-.858-.594-1.379-1.115-11.048-11.021-22.069-22.076-33.13-33.077-1.346-1.333-2.066-2.264-.323-3.986,11.411-11.279,22.729-22.656,34.08-34.001.297-.29.7-.482.891-.614ZM170.732,149.325c4.164-4.712,5.649-10.302,4.567-16.532-.706-4.072-3.689-7.557-7.187-8.124-3.887-.627-6.039,1.907-7.952,4.732-.475.706-1.01,1.36-1.472,1.98-.317-.099-.469-.099-.521-.172-.7-.964-1.379-1.94-2.072-2.917-3.683-5.194-9.556-4.989-12.803.548-2.079,3.551-2.547,7.398-1.617,11.437,1.551,6.732,5.986,11.364,11.219,15.357,5.273,4.026,5.808,4.019,11.094-.092,2.402-1.874,4.725-3.933,6.745-6.217Z"/>
          <path class="cls-6" d="M174.929,58.356c-7.154,4.065-12.612,9.101-16.327,16.611-4.131-7.233-9.068-12.83-16.948-16.525,7.616-3.907,12.988-9.18,16.809-16.776,3.887,7.517,9.206,12.605,16.466,16.69Z"/>
          <path class="cls-6" d="M154.754,14.449c.601.594,1.056,1.333,1.656,2.112-.634.812-1.096,1.551-1.696,2.151-12.018,12.057-24.082,24.069-36.067,36.159-1.584,1.59-2.594,1.307-4.039-.152-11.833-11.919-23.686-23.818-35.631-35.625-1.947-1.92-1.967-3.056,0-4.996,11.873-11.721,23.66-23.541,35.387-35.407,1.67-1.683,2.752-1.947,4.534-.152,11.906,12.011,23.904,23.937,35.856,35.908ZM151.52,18.943c1.663-1.643,1.901-2.811.112-4.587-11.008-10.889-21.937-21.845-32.846-32.833-1.465-1.478-2.455-1.623-4.026-.033-10.969,11.074-22.003,22.082-33.071,33.051-1.459,1.445-1.736,2.448-.139,4.026,11.16,11.041,22.247,22.155,33.367,33.236.521.515,1.168.904,1.894,1.459.772-.647,1.465-1.148,2.072-1.749,10.876-10.856,21.719-21.752,32.635-32.569Z"/>
          <path class="cls-10" d="M152.147,98.442c.449.449.792,1.003,1.261,1.617-.495.686-.858,1.366-1.379,1.887-11.173,11.193-22.373,22.366-33.546,33.565-1.148,1.148-2.085,1.261-3.32.02-11.232-11.292-22.491-22.557-33.783-33.777-1.841-1.828-.495-2.871.68-4.052,8.619-8.619,17.238-17.238,25.857-25.851,2.409-2.409,4.877-4.758,7.22-7.227,1.201-1.261,2.092-1.181,3.28.007,11.226,11.285,22.485,22.538,33.73,33.81ZM129.412,109.496c3.174-1.485,4.732-4.422,4.481-8.408-.264-4.23-2.877-6.322-6.619-7.636-.871-.31-1.795-1.696-1.927-2.686-.64-4.673-3.584-7.722-8.157-8.058-3.999-.297-8.236,2.712-8.665,6.969-.29,2.877-1.643,3.742-3.973,4.587-3.379,1.221-5.266,4.521-5.095,8.051.165,3.346,2.389,6.21,5.61,7.425,4.283,1.61,7.596-.218,10.625-3.155.231.172.462.35.693.528-1.386,3.181-2.772,6.362-4.323,9.932,2.818,0,5.306.007,7.794-.007.541,0,1.082-.079,1.736-.132-1.538-3.366-2.93-6.428-4.329-9.484,1.109-.271,1.445-.191,1.656.02,3.036,3.082,6.514,3.914,10.493,2.052Z"/>
          <path class="cls-10" d="M151.633,14.357c1.788,1.775,1.551,2.943-.112,4.587-10.916,10.817-21.759,21.713-32.635,32.569-.607.601-1.3,1.102-2.072,1.749-.726-.554-1.373-.944-1.894-1.459-11.12-11.081-22.208-22.194-33.367-33.236-1.597-1.577-1.32-2.58.139-4.026,11.068-10.969,22.102-21.977,33.071-33.051,1.571-1.59,2.561-1.445,4.026.033,10.909,10.988,21.838,21.944,32.846,32.833ZM131.114,28.156c3.141-2.521,3.999-8.342,1.188-11.668-4.877-5.768-10.117-11.226-15.615-17.258-5.53,6.144-11.074,11.774-15.951,17.931-2.864,3.61-1.426,8.665,2.264,11.371,3.115,2.29,7.174,1.478,10.394-2.237.614-.713.733-1.848,1.082-2.792.548.462,1.096.924,1.643,1.386-.64,1.432-1.148,2.937-1.947,4.27-.825,1.366-1.927,2.561-3.234,4.244h11.061c-1.61-2.818-3.108-5.438-4.6-8.058l1.148-.772c.548.667,1.056,1.373,1.65,1.993,3.366,3.465,7.794,4.105,10.916,1.59Z"/>
          <path class="cls-8" d="M133.893,101.088c.251,3.986-1.307,6.923-4.481,8.408-3.98,1.861-7.458,1.03-10.493-2.052-.211-.211-.548-.29-1.656-.02l-.878-.31c-.231-.178-.462-.356-.693-.528-3.029,2.937-6.342,4.765-10.625,3.155-3.221-1.214-5.445-4.079-5.61-7.425-.172-3.531,1.716-6.831,5.095-8.051,2.33-.845,3.683-1.709,3.973-4.587.429-4.257,4.666-7.266,8.665-6.969,4.574.337,7.517,3.386,8.157,8.058.132.99,1.056,2.376,1.927,2.686,3.742,1.313,6.355,3.405,6.619,7.636Z"/>
          <path class="cls-8" d="M132.302,16.488c2.811,3.326,1.953,9.147-1.188,11.668-3.122,2.514-7.55,1.874-10.916-1.59-.594-.62-1.102-1.327-1.65-1.993l-1.148.772-1.28-.455c-.548-.462-1.096-.924-1.643-1.386-.35.944-.469,2.079-1.082,2.792-3.221,3.716-7.279,4.527-10.394,2.237-3.689-2.706-5.128-7.761-2.264-11.371,4.877-6.157,10.421-11.787,15.951-17.931,5.497,6.032,10.738,11.49,15.615,17.258Z"/>
          <path class="cls-6" d="M156.074,100.033c-13.061,13.087-26.214,26.28-39.294,39.393-13.021-13.127-26.148-26.365-39.202-39.525,12.929-12.83,26.148-25.943,39.254-38.957,12.995,12.942,26.194,26.095,39.241,39.089ZM153.408,100.059c-.469-.614-.812-1.168-1.261-1.617-11.246-11.272-22.505-22.524-33.73-33.81-1.188-1.188-2.079-1.267-3.28-.007-2.343,2.468-4.811,4.818-7.22,7.227-8.619,8.612-17.238,17.232-25.857,25.851-1.175,1.181-2.521,2.224-.68,4.052,11.292,11.219,22.551,22.485,33.783,33.777,1.234,1.241,2.171,1.129,3.32-.02,11.173-11.199,22.373-22.373,33.546-33.565.521-.521.884-1.201,1.379-1.887Z"/>
          <path class="cls-8" d="M122,33.403h-11.061c1.307-1.683,2.409-2.877,3.234-4.244.799-1.333,1.307-2.838,1.947-4.27l1.28.455c1.492,2.62,2.99,5.24,4.6,8.058Z"/>
          <path class="cls-8" d="M121.591,116.908c-.653.053-1.195.132-1.736.132-2.488.013-4.976.007-7.794.007,1.551-3.57,2.937-6.751,4.323-9.932l.878.31c1.399,3.056,2.792,6.118,4.329,9.484Z"/>
          <path class="cls-6" d="M113.434-26.884c.508.528.898,1.175,1.406,1.848-.574.713-1.003,1.34-1.525,1.868-12.176,12.203-24.379,24.379-36.529,36.608-1.294,1.294-2.198,1.346-3.524.02C61.033,1.158,48.785-11.124,36.457-23.333c-1.815-1.802-.752-2.765.488-4.006,11.978-11.952,23.963-23.89,35.862-35.922,1.848-1.874,2.963-1.379,4.554.224,10.276,10.375,20.63,20.683,30.959,31.018,1.709,1.709,3.432,3.405,5.115,5.134ZM110.22-23.261c1.485-1.465,1.393-2.336,0-3.729-11.153-11.074-22.267-22.194-33.334-33.354-1.419-1.432-2.336-1.419-3.755.013-10.995,11.081-22.029,22.115-33.123,33.097-1.65,1.63-1.551,2.66.059,4.257C51.154-12.002,62.155-.941,73.196,10.087c.515.515,1.142.931,1.848,1.498.772-.66,1.459-1.175,2.059-1.775,11.035-11.028,22.029-22.095,33.117-33.071Z"/>
          <path class="cls-6" d="M113.368,56.39c.521.521.924,1.162,1.459,1.854-.541.7-.931,1.353-1.452,1.874-12.183,12.203-24.399,24.372-36.555,36.601-1.465,1.478-2.442,1.261-3.795-.099-12.084-12.15-24.194-24.273-36.357-36.344-1.544-1.531-1.465-2.534.046-4.032,12.084-11.985,24.115-24.016,36.093-36.1,1.564-1.571,2.594-1.802,4.263-.119,12.057,12.163,24.194,24.24,36.298,36.364ZM110.134,60.27c1.564-1.558,1.452-2.475-.073-3.986-11.094-10.969-22.135-21.996-33.097-33.097-1.584-1.597-2.475-1.459-3.966.053-10.975,11.087-21.996,22.128-33.09,33.097-1.59,1.577-1.478,2.495.026,3.986,11.081,10.988,22.095,22.049,33.137,33.084.528.528,1.142.977,1.874,1.597.739-.587,1.465-1.049,2.059-1.643,11.041-11.035,22.043-22.102,33.13-33.09Z"/>
          <path class="cls-6" d="M114.602,142.145c-.528.607-1.247,1.525-2.066,2.343-11.727,11.741-23.475,23.462-35.189,35.215-1.353,1.36-2.343,2.435-4.244.508-12.13-12.282-24.352-24.458-36.535-36.68-.455-.455-.832-.99-1.241-1.498,13.404-13.417,26.563-26.583,39.591-39.624,13.061,13.08,26.227,26.26,39.683,39.736ZM109.943,144.012c1.617-1.597,1.729-2.607.033-4.263-6.765-6.586-13.41-13.298-20.069-19.997-4.857-4.89-9.662-9.833-14.875-15.139-12.229,12.302-23.904,24.069-35.611,35.796-1.597,1.59-.409,2.475.614,3.498,10.955,10.962,21.93,21.891,32.82,32.906,1.584,1.597,2.554,1.762,4.23.059,10.889-11.021,21.851-21.963,32.859-32.859Z"/>
          <path class="cls-8" d="M110.22-26.99c1.393,1.393,1.485,2.264,0,3.729-11.087,10.975-22.082,22.043-33.117,33.071-.601.601-1.287,1.115-2.059,1.775-.706-.568-1.333-.983-1.848-1.498C62.155-.941,51.154-12.002,40.067-22.977c-1.61-1.597-1.709-2.627-.059-4.257,11.094-10.982,22.128-22.016,33.123-33.097,1.419-1.432,2.336-1.445,3.755-.013,11.068,11.16,22.181,22.28,33.334,33.354ZM74.959-8.465c3.92-7.444,9.18-12.698,16.75-16.723-7.715-3.848-12.777-9.259-16.77-16.466-3.927,7.477-9.16,12.612-16.453,16.44,7.24,4.105,12.678,9.173,16.473,16.75Z"/>
          <path class="cls-8" d="M110.062,56.284c1.525,1.511,1.637,2.429.073,3.986-11.087,10.988-22.089,22.056-33.13,33.09-.594.594-1.32,1.056-2.059,1.643-.733-.62-1.346-1.069-1.874-1.597-11.041-11.035-22.056-22.095-33.137-33.084-1.505-1.492-1.617-2.409-.026-3.986,11.094-10.969,22.115-22.01,33.09-33.097,1.492-1.511,2.382-1.65,3.966-.053,10.962,11.101,22.003,22.128,33.097,33.097ZM87.623,65.279c4.508-5.326,6.045-11.681,3.339-18.479-1.195-2.99-3.273-5.299-6.712-5.643-3.359-.343-5.55,1.584-7.246,4.244-.561.884-1.162,1.742-2.066,3.095-.845-1.353-1.373-2.257-1.953-3.128-1.643-2.495-3.683-4.461-6.923-4.244-3.458.231-6.045,2.349-6.784,5.412-.871,3.603-1.492,7.695-.667,11.206,1.92,8.111,8.091,13.08,15.06,16.981.858.482,2.706.191,3.537-.462,3.623-2.818,7.484-5.517,10.414-8.982Z"/>
          <path class="cls-8" d="M109.976,139.749c1.696,1.656,1.584,2.666-.033,4.263-11.008,10.896-21.97,21.838-32.859,32.859-1.676,1.703-2.646,1.538-4.23-.059-10.889-11.015-21.864-21.944-32.82-32.906-1.023-1.023-2.211-1.907-.614-3.498,11.708-11.727,23.382-23.495,35.611-35.796,5.214,5.306,10.018,10.249,14.875,15.139,6.659,6.699,13.305,13.41,20.069,19.997ZM75.335,157.99c3.623-7.114,8.989-12.269,16.308-16.202-7.53-3.795-12.678-9.167-16.697-16.539-3.907,7.623-9.305,12.724-15.964,16.374,3.227,2.567,6.355,4.646,8.962,7.253,2.6,2.6,4.686,5.722,7.392,9.114Z"/>
          <path class="cls-6" d="M90.963,46.8c2.706,6.798,1.168,13.153-3.339,18.479-2.93,3.465-6.791,6.164-10.414,8.982-.832.653-2.679.944-3.537.462-6.969-3.9-13.14-8.87-15.06-16.981-.825-3.511-.205-7.603.667-11.206.739-3.062,3.326-5.181,6.784-5.412,3.24-.218,5.28,1.749,6.923,4.244.581.871,1.109,1.775,1.953,3.128.904-1.353,1.505-2.211,2.066-3.095,1.696-2.66,3.887-4.587,7.246-4.244,3.438.343,5.517,2.653,6.712,5.643Z"/>
          <path class="cls-6" d="M91.642,141.788c-7.319,3.933-12.684,9.088-16.308,16.202-2.706-3.392-4.791-6.514-7.392-9.114-2.607-2.607-5.735-4.686-8.962-7.253,6.659-3.65,12.057-8.751,15.964-16.374,4.019,7.372,9.167,12.744,16.697,16.539Z"/>
          <path class="cls-6" d="M71.263,97.776c1.531,1.505,1.901,2.567.158,4.29-12.183,12.051-24.267,24.194-36.397,36.298-.528.528-1.175.944-1.65,1.32-13.278-13.265-26.451-26.425-39.512-39.472,13.199-13.08,26.471-26.24,40.356-40.007,4.58,4.771,9.451,9.952,14.44,15.007,7.484,7.576,15.027,15.087,22.604,22.564ZM67.765,102.705c2.092-2.059,2.006-3.273-.04-5.28-10.876-10.711-21.66-21.521-32.378-32.391-1.696-1.722-2.666-1.511-4.23.086-6.613,6.745-13.305,13.404-20.036,20.023-4.917,4.837-9.932,9.563-14.816,14.249.627,1.082.772,1.518,1.069,1.815,11.397,11.437,22.828,22.848,34.212,34.305,1.571,1.577,2.574.799,3.808-.442,10.764-10.823,21.521-21.66,32.411-32.364Z"/>
          <path class="cls-6" d="M71.362,14.363c1.795,1.775,1.531,2.884-.145,4.541-11.939,11.82-23.824,23.693-35.631,35.644-1.762,1.782-2.798,1.696-4.501-.02C19.251,42.596,7.366,30.717-4.606,18.917c-1.934-1.907-1.617-3.095.125-4.824C7.458,2.266,19.317-9.646,31.223-21.512c.594-.601,1.327-1.063,2.092-1.67.726.568,1.366.97,1.894,1.492C47.26-9.666,59.271,2.392,71.362,14.363ZM68.399,18.515c.528-.528.957-1.148,1.59-1.914-.686-.805-1.261-1.584-1.934-2.257C57.272,3.56,46.409-7.158,35.724-18.047c-2.013-2.052-3.108-1.848-4.983.046C20.103-7.217,9.398,3.507-1.412,14.113c-2.066,2.033-1.709,3.24.125,5.049,10.771,10.652,21.501,21.35,32.133,32.14,1.821,1.848,2.904,1.947,4.758.066,10.87-11.008,21.858-21.904,32.793-32.853Z"/>
          <path class="cls-10" d="M69.989,16.601c-.634.766-1.063,1.386-1.59,1.914-10.936,10.949-21.924,21.845-32.793,32.853-1.854,1.881-2.937,1.782-4.758-.066C20.215,40.511,9.484,29.813-1.286,19.161c-1.835-1.808-2.191-3.016-.125-5.049C9.398,3.507,20.103-7.217,30.741-18.001c1.874-1.894,2.97-2.099,4.983-.046C46.409-7.158,57.272,3.56,68.055,14.344c.673.673,1.247,1.452,1.934,2.257ZM46.693,25.484c3.056-1.881,4.435-4.91,3.762-8.507-.825-4.448-3.907-6.639-8.329-7.24-.568-6.765-3.194-10.111-8.045-10.342-5.273-.251-9.008,2.112-9.728,10.342-4.059.66-7.266,2.574-8.098,6.93-.7,3.656.383,6.883,3.742,8.784,4.455,2.528,8.513,1.313,12.11-2.244.231.205.462.403.693.607-1.406,3.194-2.805,6.388-4.204,9.569h9.385c-1.518-3.412-2.904-6.527-4.29-9.642.224-.277.449-.554.673-.838,3.59,4.112,7.748,5.398,12.328,2.58Z"/>
          <path class="cls-10" d="M67.725,97.426c2.046,2.006,2.132,3.221.04,5.28-10.889,10.705-21.647,21.541-32.411,32.364-1.234,1.241-2.237,2.019-3.808.442-11.384-11.457-22.815-22.868-34.212-34.305-.297-.297-.442-.733-1.069-1.815,4.884-4.686,9.899-9.411,14.816-14.249,6.732-6.619,13.424-13.278,20.036-20.023,1.564-1.597,2.534-1.808,4.23-.086,10.718,10.87,21.501,21.68,32.378,32.391ZM46.112,112.453c2.996-1.175,4.448-3.887,4.277-6.804-.132-2.343-1.049-5.022-2.514-6.837-3.716-4.607-7.926-8.817-11.958-13.166-.799-.858-1.703-1.617-2.772-2.62-2.33,2.448-4.468,4.633-6.54,6.883-2.897,3.148-5.86,6.256-8.599,9.55-2.963,3.557-2.561,9.134.634,11.958,3.3,2.91,7.794,2.31,11.305-1.584.568-.634.891-1.492,1.327-2.244.469.35.937.7,1.406,1.056-1.498,2.673-3.003,5.346-4.547,8.091h10.467c-1.775-2.864-3.386-5.471-4.996-8.078.343-.238.686-.469,1.03-.7.957,1.003,1.861,2.072,2.884,3.003,2.534,2.29,5.511,2.706,8.599,1.492Z"/>
          <path class="cls-8" d="M50.454,16.977c.673,3.597-.706,6.626-3.762,8.507-4.58,2.818-8.738,1.531-12.328-2.58-.224.284-.449.561-.673.838l-.891.073c-.231-.205-.462-.403-.693-.607-3.597,3.557-7.656,4.771-12.11,2.244-3.359-1.901-4.442-5.128-3.742-8.784.832-4.356,4.039-6.27,8.098-6.93C25.072,1.507,28.808-.855,34.081-.604c4.851.231,7.477,3.577,8.045,10.342,4.422.601,7.504,2.792,8.329,7.24Z"/>
          <path class="cls-8" d="M50.388,105.649c.172,2.917-1.28,5.629-4.277,6.804-3.089,1.214-6.065.799-8.599-1.492-1.023-.931-1.927-2-2.884-3.003-.343.231-.686.462-1.03.7l-.924-.013c-.469-.356-.937-.706-1.406-1.056-.436.752-.759,1.61-1.327,2.244-3.511,3.894-8.005,4.494-11.305,1.584-3.194-2.825-3.597-8.401-.634-11.958,2.739-3.293,5.702-6.402,8.599-9.55,2.072-2.25,4.211-4.435,6.54-6.883,1.069,1.003,1.973,1.762,2.772,2.62,4.032,4.349,8.243,8.56,11.958,13.166,1.465,1.815,2.382,4.494,2.514,6.837Z"/>
          <path class="cls-8" d="M38.595,116.736h-10.467c1.544-2.745,3.049-5.418,4.547-8.091l.924.013c1.61,2.607,3.221,5.214,4.996,8.078Z"/>
          <path class="cls-8" d="M37.981,33.383h-9.385c1.399-3.181,2.798-6.375,4.204-9.569l.891-.073c1.386,3.115,2.772,6.23,4.29,9.642Z"/>
          <path class="cls-6" d="M30.029-26.983c.455.455.858.97,1.28,1.459C17.859-12.061,4.673,1.131-8.262,14.08-21.369.94-34.581-12.319-47.945-25.723c.363-.403.983-1.155,1.67-1.841,11.741-11.754,23.528-23.455,35.182-35.281,1.993-2.026,3.174-2.178,5.247-.073,11.879,12.051,23.904,23.97,35.875,35.935ZM21.779-18.404c2.165-2.151,4.527-4.098,6.573-5.933C15.615-37.074,3.465-49.23-8.447-61.149c-11.899,11.866-24.082,24.022-36.45,36.357.119.172.251.482.475.713C-33.077-12.728-21.706-1.403-10.414,10.001c1.61,1.617,2.567,1.287,4.013-.178C2.944.366,12.342-9.039,21.779-18.404Z"/>
          <path class="cls-8" d="M26.491,139.643c1.386,1.373,1.967,2.349.284,4.019-11.318,11.206-22.557,22.498-33.836,33.75-.376.37-.858.634-1.148.851-12.242-12.302-24.372-24.484-36.324-36.496,12.038-12.11,24.088-24.24,37.156-37.393.667,1.129,1.181,2.58,2.158,3.57,10.52,10.619,21.099,21.178,31.711,31.698ZM4.29,148.546c4.296-5.141,5.9-11.272,3.386-17.878-1.195-3.115-3.201-5.59-6.798-5.992-3.511-.383-5.755,1.623-7.484,4.402-.502.812-1.03,1.604-1.828,2.838-.865-1.28-1.34-1.993-1.828-2.706-1.868-2.732-4.039-5.082-7.741-4.58-3.313.455-6.461,3.848-7.187,7.761-1.003,5.398-.521,10.764,3.122,14.981,3.254,3.762,7.299,6.837,11.008,10.196,1.643,1.492,3.419,1.485,5.062.092,3.504-2.963,7.385-5.636,10.289-9.114Z"/>
          <path class="cls-8" d="M25.897,55.776c.759.759,1.485,1.558,2.099,2.211-12.361,12.242-24.564,24.333-36.601,36.258-11.701-11.793-23.811-24.009-36.166-36.469.356-.389,1.129-1.274,1.96-2.105,10.559-10.573,21.198-21.072,31.638-31.764,2.211-2.257,3.339-2.006,5.425.125,10.454,10.672,21.079,21.178,31.645,31.744ZM-8.487,75.02c3.887-7.471,9.18-12.777,16.697-16.657-7.662-3.854-12.757-9.378-16.842-16.644-3.689,7.702-9.279,12.599-16.288,16.73,7.365,3.953,12.546,9.154,16.433,16.572Z"/>
          <path class="cls-6" d="M31.705,59.491c-2.178,1.881-4.857,3.947-7.246,6.303-10.157,10.025-20.274,20.089-30.272,30.272-2.026,2.059-3.194,2.066-5.233-.007-11.714-11.899-23.561-23.666-35.4-35.44-1.412-1.406-2.231-2.415-.37-4.25,12.348-12.196,24.59-24.498,36.872-36.753.376-.376.825-.68,1.109-.911,13.311,13.391,26.504,26.662,40.541,40.785ZM27.996,57.987c-.614-.653-1.34-1.452-2.099-2.211C15.331,45.21,4.706,34.703-5.748,24.032c-2.085-2.132-3.214-2.382-5.425-.125-10.441,10.691-21.079,21.191-31.638,31.764-.832.832-1.604,1.716-1.96,2.105,12.354,12.46,24.465,24.676,36.166,36.469,12.038-11.925,24.24-24.016,36.601-36.258Z"/>
          <path class="cls-8" d="M28.352-24.337c-2.046,1.835-4.409,3.782-6.573,5.933C12.342-9.039,2.944.366-6.401,9.823c-1.445,1.465-2.402,1.795-4.013.178C-21.706-1.403-33.077-12.728-44.421-24.079c-.224-.231-.356-.541-.475-.713,12.368-12.335,24.55-24.491,36.45-36.357C3.465-49.23,15.615-37.074,28.352-24.337ZM3.505-17.301c4.409-5.478,6.791-11.576,4.283-18.657-1.063-3.009-2.858-5.491-6.23-6.204-3.663-.779-6.045,1.208-7.992,3.98-.614.871-1.195,1.762-1.993,2.943-1.181-1.656-2.079-3.135-3.194-4.415-3.247-3.735-8.447-3.623-11.292.416-1.155,1.643-2.026,3.689-2.363,5.669-1.571,9.424,3.201,16.116,10.203,21.369,7.227,5.418,5.88,5.253,12.836.264C-.125-13.454,1.881-15.275,3.505-17.301Z"/>
          <path class="cls-6" d="M7.676,130.668c2.514,6.606.911,12.737-3.386,17.878-2.904,3.478-6.784,6.151-10.289,9.114-1.643,1.393-3.419,1.399-5.062-.092-3.709-3.359-7.755-6.435-11.008-10.196-3.643-4.217-4.125-9.583-3.122-14.981.726-3.914,3.874-7.306,7.187-7.761,3.702-.502,5.874,1.848,7.741,4.58.488.713.964,1.426,1.828,2.706.799-1.234,1.327-2.026,1.828-2.838,1.729-2.778,3.973-4.785,7.484-4.402,3.597.403,5.603,2.877,6.798,5.992Z"/>
          <path class="cls-6" d="M8.21,58.363c-7.517,3.881-12.81,9.187-16.697,16.657-3.887-7.418-9.068-12.618-16.433-16.572,7.009-4.131,12.599-9.028,16.288-16.73,4.085,7.266,9.18,12.79,16.842,16.644Z"/>
          <path class="cls-6" d="M-8.401,102.791c12.731,12.797,25.943,26.068,38.99,39.182-12.836,12.744-26.121,25.936-39.393,39.116-12.942-12.935-26.108-26.095-39.089-39.07,13.16-13.074,26.431-26.253,39.492-39.228ZM26.775,143.662c1.683-1.67,1.102-2.646-.284-4.019-10.612-10.52-21.191-21.079-31.711-31.698-.977-.99-1.492-2.442-2.158-3.57-13.067,13.153-25.118,25.283-37.156,37.393,11.952,12.011,24.082,24.194,36.324,36.496.29-.218.772-.482,1.148-.851,11.279-11.252,22.518-22.544,33.836-33.75Z"/>
        </g>
      </g>
      <g>
        <rect class="cls-9" x="-.112" y="42.129" width="154.678" height="6.059" transform="translate(-6.835 14.55) rotate(-10.31)"/>
        <rect class="cls-7" x="-.112" y="47.074" width="154.678" height="12.801" transform="translate(10.891 -13.032) rotate(10.373)"/>
        <circle class="cls-2" cx="56.688" cy="48.991" r="15.176"/>
        <path class="cls-5" d="M52.347,43.633c1.881.011,3.515,1.152,4.212,2.949.019.05.042.119.081.135.078.033.135.002.169-.095.219-.61.562-1.143,1.01-1.611,1.75-1.83,4.365-1.636,5.813-.579,1.114.813,1.731,1.898,1.812,3.282.075,1.267-.354,2.371-1.074,3.388-.348.491-.778.897-1.234,1.285-1.708,1.453-3.41,2.914-5.114,4.372-.407.348-.818.693-1.221,1.047-.085.075-.133.078-.221.002-1.242-1.068-2.488-2.132-3.732-3.197-1.052-.9-2.117-1.787-3.15-2.709-.324-.29-.585-.661-.834-1.023-.576-.837-.906-1.76-.937-2.788-.069-2.252,1.58-4.165,3.818-4.41.2-.022.402-.032.602-.047Z"/>
      </g>
    </g>
  </g>
</svg>