<?xml version="1.0" encoding="UTF-8"?>
<svg id="Layer_2" data-name="Layer 2" xmlns="http://www.w3.org/2000/svg" viewBox="0 0 276.17 142.084">
  <defs>
    <style>
      .cls-1 {
        fill: #7a1a1a;
      }

      .cls-1, .cls-2, .cls-3, .cls-4, .cls-5, .cls-6 {
        stroke-width: 0px;
      }

      .cls-2 {
        fill: #ff972d;
      }

      .cls-3 {
        fill: #ff8759;
      }

      .cls-4 {
        fill: #ff6c45;
      }

      .cls-5 {
        fill: #ac5846;
      }

      .cls-6 {
        fill: #d88542;
      }
    </style>
  </defs>
  <g id="Layer_1-2" data-name="Layer 1">
    <g>
      <g>
        <rect class="cls-1" x="58.73" y="73.386" width="140.628" height="37.986"/>
        <path class="cls-2" d="M193.866,109.335s-12.663-74.646,29.647-100.416c42.31-25.769,20.692,12.496,20.692,12.496l-21.36,6.442,19.73.513s-7.073,17.033-9.034,21.095c-1.961,4.062-13.163.853-13.163.853l9.614,4.17-36.127,54.848Z"/>
        <path class="cls-6" d="M188.08,109.515s44.138-73.114,74.787-76.571c30.649-3.457-1.257,20.906-1.257,20.906l-11.222-4.168,6.182,9.668s-13.36,12.034-16.637,14.776c-3.277,2.742-4.898-5.374-4.898-5.374l.475,8.241-47.43,32.522Z"/>
        <path class="cls-5" d="M125.542,98.441c-58.976,0-108.881-12.334-125.542-29.325v72.968h251.084v-72.968c-16.661,16.99-66.566,29.325-125.542,29.325Z"/>
        <rect class="cls-1" y="122.822" width="251.084" height="10.507"/>
      </g>
      <circle class="cls-3" cx="35.129" cy="118.746" r="22.253"/>
      <circle class="cls-1" cx="35.129" cy="118.746" r="20.102"/>
      <path class="cls-4" d="M27.328,108.575c3.381.02,6.316,2.071,7.568,5.3.035.089.075.213.145.243.141.06.242.003.304-.171.394-1.096,1.009-2.053,1.815-2.896,3.144-3.289,7.843-2.939,10.445-1.04,2.001,1.46,3.11,3.411,3.256,5.897.134,2.277-.636,4.261-1.929,6.087-.625.883-1.398,1.613-2.217,2.309-3.07,2.611-6.127,5.236-9.19,7.855-.732.626-1.469,1.246-2.194,1.881-.153.134-.24.14-.398.004-2.232-1.919-4.47-3.831-6.706-5.744-1.891-1.618-3.805-3.211-5.66-4.868-.583-.521-1.051-1.188-1.499-1.839-1.035-1.503-1.627-3.163-1.684-5.01-.123-4.047,2.84-7.484,6.86-7.924.36-.039.722-.057,1.082-.085Z"/>
    </g>
  </g>
</svg>