<?xml version="1.0" encoding="UTF-8"?>
<svg id="Layer_2" data-name="Layer 2" xmlns="http://www.w3.org/2000/svg" viewBox="0 0 306.731 157.807">
  <defs>
    <style>
      .cls-1 {
        fill: #f6de00;
      }

      .cls-1, .cls-2, .cls-3, .cls-4, .cls-5, .cls-6 {
        stroke-width: 0px;
      }

      .cls-2 {
        fill: #7a1a1a;
      }

      .cls-3 {
        fill: #e6bb42;
      }

      .cls-4 {
        fill: #dcb654;
      }

      .cls-5 {
        fill: #ffc71a;
      }

      .cls-6 {
        fill: #fdcb67;
      }
    </style>
  </defs>
  <g id="Layer_1-2" data-name="Layer 1">
    <g>
      <g>
        <rect class="cls-2" x="65.229" y="81.507" width="156.19" height="42.189"/>
        <path class="cls-3" d="M215.319,121.434s-14.064-82.907,32.928-111.528c46.992-28.621,22.982,13.878,22.982,13.878l-23.724,7.155,21.913.57s-7.856,18.917-10.033,23.429c-2.178,4.512-14.62.948-14.62.948l10.678,4.631-40.125,60.917Z"/>
        <path class="cls-6" d="M208.892,121.633s49.022-81.205,83.063-85.044c34.041-3.839-1.396,23.219-1.396,23.219l-12.464-4.629,6.866,10.738s-14.839,13.366-18.478,16.412-5.44-5.969-5.44-5.969l.528,9.153-52.679,36.12Z"/>
        <path class="cls-4" d="M139.434,109.334c-65.502,0-120.93-13.699-139.434-32.57v81.042h278.868v-81.042c-18.504,18.87-73.932,32.57-139.434,32.57Z"/>
        <rect class="cls-2" y="136.413" width="278.868" height="11.669"/>
      </g>
      <circle class="cls-1" cx="39.017" cy="131.886" r="24.716"/>
      <circle class="cls-2" cx="39.017" cy="131.886" r="22.327"/>
      <path class="cls-5" d="M30.353,120.59c3.755.022,7.015,2.3,8.406,5.886.038.099.083.237.161.27.156.066.269.004.338-.19.437-1.217,1.121-2.28,2.016-3.216,3.492-3.653,8.711-3.264,11.6-1.156,2.222,1.622,3.454,3.788,3.617,6.549.149,2.529-.706,4.732-2.143,6.761-.695.981-1.552,1.791-2.462,2.565-3.41,2.9-6.805,5.815-10.207,8.725-.813.695-1.632,1.384-2.436,2.089-.17.149-.266.156-.442.005-2.479-2.132-4.965-4.254-7.449-6.38-2.1-1.797-4.226-3.566-6.286-5.407-.647-.579-1.167-1.32-1.665-2.042-1.15-1.67-1.808-3.513-1.87-5.564-.137-4.495,3.154-8.312,7.619-8.801.399-.044.801-.063,1.202-.094Z"/>
    </g>
  </g>
</svg>