<?xml version="1.0" encoding="UTF-8"?>
<svg id="Layer_2" data-name="Layer 2" xmlns="http://www.w3.org/2000/svg" xmlns:xlink="http://www.w3.org/1999/xlink" viewBox="0 0 171.546 145.772">
  <defs>
    <style>
      .cls-1 {
        fill: #a5587a;
      }

      .cls-1, .cls-2, .cls-3, .cls-4, .cls-5, .cls-6, .cls-7, .cls-8, .cls-9, .cls-10, .cls-11, .cls-12, .cls-13 {
        stroke-width: 0px;
      }

      .cls-2 {
        fill: #f6de00;
      }

      .cls-14 {
        clip-path: url(#clippath);
      }

      .cls-3 {
        fill: #7a1a1a;
      }

      .cls-4 {
        fill: none;
      }

      .cls-5 {
        fill: #b9723c;
      }

      .cls-6 {
        fill: #f5ce47;
      }

      .cls-7 {
        fill: #a55136;
      }

      .cls-8 {
        fill: #e6bb42;
      }

      .cls-9 {
        fill: #f8bb49;
      }

      .cls-10 {
        fill: #b7867d;
      }

      .cls-11 {
        fill: #a9625f;
      }

      .cls-12 {
        fill: #e29e49;
      }

      .cls-13 {
        fill: #e48a41;
      }
    </style>
    <clipPath id="clippath">
      <rect class="cls-4" x="5.412" width="158.133" height="145.772"/>
    </clipPath>
  </defs>
  <g id="Layer_1-2" data-name="Layer 1">
    <g>
      <g class="cls-14">
        <g>
          <path class="cls-11" d="M403.016,317.135v4.988c-13.039-12.869-26.068-25.729-38.319-37.83-.698-.678-1.397-1.367-2.085-2.045-20.531,20.411-40.593,40.364-60.276,59.947,19.503,19.573,39.386,39.536,60.027,60.256.798-.828,1.606-1.656,2.404-2.494l1.965,1.995-.01.01c-1.935,1.905-1.856,3.322-.698,4.848l-1.826,1.716c-.419-.489-.828-.968-1.247-1.447-21.229,21.189-41.262,41.182-62.551,62.431,5.517,4.988,11.173,10.106,16.82,15.224h-4.988c-4.469-4.729-8.939-9.447-13.328-14.096-5.347,5.158-9.976,9.627-14.605,14.096h-3.99c5.108-5.567,10.216-11.123,15.174-16.511-20.152-20.132-40.174-40.144-59.498-59.438-19.932,19.843-40.064,39.875-60.236,59.937,4.709,5.098,9.737,10.555,14.775,16.012h-3.99c-4.569-4.729-9.148-9.447-14.166-14.645-4.988,5.297-9.378,9.976-13.767,14.645h-4.988c5.367-5.517,10.734-11.024,15.653-16.072-20.441-20.561-40.304-40.523-59.837-60.157-.958.948-1.905,1.905-2.863,2.853-18.965,18.925-38.089,38.029-58.51,58.401,5.417,4.838,11.094,9.906,16.77,14.974h-4.988c-4.38-4.619-8.749-9.228-12.989-13.697-1.087.449-1.646.519-1.965.838-4.35,4.27-8.659,8.57-12.979,12.859h-3.99c5.058-5.567,10.126-11.123,14.735-16.201-1.776-1.776-3.542-3.552-5.317-5.317-18.366-18.416-36.523-36.603-54.829-54.949-.17.1-.788.369-1.237.808-18.815,18.785-37.59,37.59-56.435,56.336-1.995,1.975-1.995,3.352-.01,5.337,4.539,4.559,8.879,9.308,13.308,13.987h-3.99c-3.831-3.861-7.542-7.871-11.602-11.473-1.018-.908-3.911-1.297-4.709-.569-4.09,3.771-7.791,7.981-11.622,12.041h-4.988c5.267-5.477,10.545-10.944,15.583-16.171-20.341-20.272-40.404-40.254-60.027-59.797-19.703,19.643-39.745,39.615-61.114,60.915,5.427,4.878,11.104,9.966,16.77,15.054h-4.988c-4.489-4.729-8.979-9.467-13.518-14.246-5.247,5.178-9.827,9.717-14.416,14.246h-3.99c5.098-5.567,10.196-11.133,15.014-16.391-20.212-20.142-40.254-40.114-60.067-59.857-19.673,19.643-39.695,39.645-59.897,59.827,4.908,5.307,10.036,10.864,15.164,16.421h-3.99c-4.669-4.649-9.348-9.288-14.456-14.366-4.689,4.998-9.088,9.687-13.478,14.366h-4.988c5.367-5.527,10.734-11.044,15.453-15.892-20.521-20.591-40.414-40.533-61.583-61.763-.619.828-1.237,1.736-1.886,2.664l-1.756-1.796.02-.02c2.344-2.265,2.384-3.891.07-6.125-6.784-6.534-13.438-13.208-20.152-19.823v-3.99c7.542,7.173,15.094,14.346,22.247,21.14.868.818,1.726,1.646,2.584,2.454,20.381-20.262,40.354-40.124,60.017-59.688-19.793-19.813-39.785-39.825-61.044-61.114-7.692,8.2-15.752,16.79-23.803,25.379v-4.988c7.163-7.761,14.326-15.513,22.008-23.833-6.774-6.485-14.396-13.777-22.008-21.06v-4.988c8.34,8.24,16.68,16.491,25.08,24.791,1.107-.808,1.836-1.207,2.404-1.776,18.675-18.646,37.281-37.361,56.046-55.907,3.053-3.013.988-4.469-.928-6.385-17.129-17.129-34.248-34.268-51.377-51.387-1.826-1.826-3.751-3.562-5.876-5.557-1.945,1.866-3.482,3.332-5.028,4.809-6.774,6.524-13.548,13.059-20.322,19.583v-3.99c6.544-6.534,12.989-13.169,19.683-19.553,2.664-2.534,2.724-4.29.05-6.834-6.694-6.375-13.169-12.989-19.733-19.503v-3.99c8.45,8.041,16.9,16.082,24.681,23.494,1.616-1.616,3.242-3.222,4.848-4.828,18.755-18.646,37.131-36.922,55.288-54.979-19.723-19.683-39.675-39.596-60.077-59.957-8.041,7.941-16.391,16.191-24.741,24.442v-4.988c7.093-7.821,14.196-15.633,20.481-22.556-6.205-6.774-13.348-14.555-20.481-22.337V-1.106c8.001,8.629,16.012,17.259,23.684,25.529,21.399-21.449,41.371-41.481,60.915-61.064-19.633-19.693-39.596-39.715-59.807-59.987-1.177,1.077-2.644,2.394-4.06,3.751-6.923,6.644-13.827,13.288-20.731,19.942v-3.99c6.574-6.524,13.089-13.099,19.763-19.523,2.564-2.464,2.743-4.36.05-6.923-6.714-6.365-13.218-12.949-19.813-19.444v-3.99c7.522,7.143,15.054,14.296,22.277,21.16.898.848,1.796,1.696,2.684,2.544,20.361-20.302,40.314-40.184,59.937-59.747-19.823-19.853-39.825-39.875-61.214-61.294-7.662,8.24-15.673,16.88-23.684,25.509v-4.988c7.153-7.752,14.296-15.493,21.738-23.564-2.773-2.943-6.275-6.654-9.767-10.355h4.988c6.714,10.006,8.111,10.156,15.952,1.656.429-.469.678-1.107,1.008-1.656h4.988c-3.472,3.741-6.953,7.492-10.595,11.413.968,1.207,1.696,2.305,2.604,3.212,18.167,18.197,36.403,36.323,54.49,54.61,2.624,2.644,4.13,2.035,6.415-.299,9.996-10.176,20.112-20.242,30.258-30.258,8.949-8.839,18.007-17.558,27.175-26.487-3.961-4.569-7.273-8.38-10.585-12.191h3.99q8.649,9.637,17.648.379c.12-.11.21-.249.309-.379h3.99c-3.302,3.811-6.614,7.622-9.378,10.824,20.172,20.212,40.074,40.154,59.668,59.797,19.593-19.643,39.486-39.576,59.598-59.747-3.152-3.392-6.644-7.133-10.126-10.874h4.988c2.215,2.414,4.3,4.978,6.744,7.143.728.648,2.983.698,3.681.07,2.384-2.185,4.39-4.779,6.534-7.213h4.988c-3.492,3.711-6.993,7.432-10.266,10.914,20.222,20.192,40.144,40.084,60.276,60.176.07-.03.768-.21,1.207-.648,18.915-18.905,37.79-37.83,56.715-56.725,1.856-1.846,1.536-3.272-.18-5.018-2.763-2.803-5.337-5.786-7.991-8.699h3.99c11.024,11.223,7.223,10.365,17.628.369.12-.12.219-.249.329-.369h3.99c-1.826,2.095-3.542,4.3-5.507,6.255-5.108,5.078-5.168,5.058-.279,9.956,15.144,15.154,30.288,30.308,45.452,45.442,3.372,3.372,6.824,6.664,9.896,9.657,18.566-18.556,36.772-36.752,55.188-55.158,1.756-1.756,3.512-3.512,5.267-5.267-3.252-3.452-6.754-7.173-10.256-10.884h4.988c6.794,9.966,8.21,10.116,15.962,1.656.429-.469.668-1.107.998-1.656h4.988c-3.472,3.741-6.943,7.492-9.936,10.714,1.467,1.476,2.943,2.953,4.409,4.429,18.646,18.735,37.101,37.291,55.458,55.727,19.613-19.663,39.496-39.586,59.558-59.698-3.093-3.542-6.405-7.362-9.727-11.173h3.99c10.884,11.163,7.372,10.266,17.648.379.12-.11.21-.259.309-.379h3.99c-3.312,3.811-6.624,7.632-10.036,11.572.898,1.057,1.566,1.995,2.374,2.803,18.286,18.316,36.653,36.543,54.829,54.969,3.152,3.192,4.729,1.217,6.804-.858,17.817-17.847,35.655-35.675,53.472-53.532,1.018-1.028,1.886-2.205,2.983-3.512-3.701-3.971-7.183-7.712-10.665-11.443h4.988c2.215,2.424,4.29,4.998,6.724,7.173.718.629,2.963.648,3.651.01,2.404-2.165,4.419-4.759,6.584-7.183h4.988c-3.512,3.711-7.023,7.432-11.812,12.51.439.359.868.708,1.307,1.048l-1.676,1.696-.239-.239c-20.541,20.391-40.633,40.324-60.376,59.917,19.523,19.583,39.416,39.526,59.568,59.747.788-.698,1.686-1.467,2.574-2.285.299-.269.589-.549.878-.838,7.542-7.502,15.014-15.074,22.606-22.526,4.948-4.838,10.066-9.507,15.104-14.256v3.99c-12.011,11.932-23.963,23.923-36.074,35.765-2.704,2.634-1.796,4.38.399,6.544,11.922,11.802,23.793,23.664,35.675,35.505v3.99c-1.277-.998-2.674-1.866-3.811-3.003-10.844-10.774-21.628-21.608-32.453-32.403-1.616-1.616-3.352-3.113-4.619-4.27-20.312,20.292-40.334,40.294-59.857,59.797,19.713,19.813,39.685,39.885,60.925,61.224.07-.07.14-.15.21-.219l1.576,1.506c-.19.18-.13.609-.19.928-.359.359-.718.718-1.077,1.087,1.177.908,2.394,1.776,3.581,2.674l-1.846,1.836-.14-.14c-2.743-2.793-4.39-2.813-7.183.01-17.857,18.097-35.835,36.074-53.951,53.911-2.963,2.923-2.454,4.519.219,7.163l.18.18c17.778,17.588,35.396,35.326,53.083,52.994,1.147,1.157,2.424,2.185,4.02,3.611,13.907-13.887,27.614-27.584,41.331-41.282v4.988c-11.872,11.842-23.674,23.763-35.665,35.495-2.654,2.594-2.664,4.23,0,6.824,11.991,11.732,23.793,23.644,35.665,35.495v4.988c-13.677-13.737-27.345-27.474-40.164-40.344-.758.758-1.516,1.506-2.275,2.255-19.773,19.623-39.097,38.797-58.012,57.563,19.583,19.533,39.536,39.426,59.877,59.718,13.298-13.199,26.936-26.746,40.573-40.284v4.988c-1.257,1.038-2.604,1.995-3.761,3.143-10.106,10.026-20.162,20.092-30.248,30.148-5.018,4.998-5.068,5.038.09,10.136,11.273,11.153,22.606,22.257,33.919,33.39ZM356.337,155.451c2.314-2.305,2.065-3.951-.18-6.175-18.127-18.027-36.204-36.104-54.201-54.261-2.604-2.634-4.36-2.484-6.894.14-7.732,8.001-15.673,15.802-23.564,23.654-11.054,11.004-22.127,21.998-33.34,33.131.638,1.137.798,1.646,1.127,1.975,18.775,18.815,37.61,37.57,56.316,56.445,2.474,2.494,4.14,1.786,6.185-.279,18.167-18.227,36.333-36.463,54.55-54.63ZM298.495,338.035c19.793-19.733,39.745-39.635,59.528-59.358-19.733-19.723-39.655-39.635-58.929-58.899-19.922,19.793-39.975,39.725-59.289,58.909,19.454,19.673,39.266,39.695,58.69,59.348ZM357.435-100.519c-19.334-19.354-39.147-39.196-58.78-58.85-19.673,19.863-39.496,39.875-59.179,59.738,19.364,19.474,39.216,39.456,58.431,58.78,19.843-19.893,39.815-39.915,59.528-59.668ZM298.605,85.637c19.643-19.653,39.546-39.576,58.71-58.75-19.803-20.072-39.675-40.204-58.82-59.608-19.743,19.633-39.705,39.476-59.279,58.939,19.713,19.723,39.635,39.655,59.388,59.418ZM298.416,464.354c19.743-19.663,39.685-39.516,59.338-59.089-19.972-20.012-39.845-39.925-59.239-59.358-19.713,19.643-39.725,39.606-59.189,58.999,19.633,19.743,39.476,39.715,59.089,59.448ZM295.233,89.029c-.399-.519-.908-1.367-1.586-2.045-18.426-18.446-36.912-36.832-55.248-55.368-2.684-2.724-4.29-1.836-6.485.369-11.433,11.562-22.905,23.105-34.468,34.528-7.522,7.432-15.244,14.665-22.357,21.489,20.94,20.86,40.992,40.833,60.615,60.396,19.464-19.414,39.406-39.306,59.528-59.368ZM281.496,230.222c4.769-4.779,9.507-9.567,13.817-13.907-20.361-20.441-40.244-40.394-59.568-59.807-19.863,19.793-39.915,39.775-60.127,59.907.19.249.629.958,1.197,1.536,18.426,18.436,36.912,36.812,55.258,55.318,2.743,2.773,4.439,2.135,6.874-.329,14.116-14.316,28.362-28.492,42.549-42.718ZM294.405-36.541c-19.683-19.723-39.755-39.835-58.89-58.989-19.693,19.513-39.785,39.426-59.279,58.74,19.593,19.733,39.456,39.745,59.129,59.558,19.783-19.873,39.765-39.945,59.039-59.309ZM235.057,400.965c19.962-19.793,40.054-39.735,59.249-58.78-19.713-19.803-39.675-39.865-59.338-59.618-19.593,19.563-39.546,39.486-59.259,59.179,19.883,19.833,39.925,39.845,59.348,59.219ZM235.576-103.153c19.653-19.743,39.516-39.715,59.378-59.668-19.813-19.853-39.805-39.885-59.358-59.468-19.833,19.803-39.875,39.785-59.598,59.468,19.693,19.723,39.685,39.745,59.578,59.668ZM233.181,153.086c-2.195-2.384-3.472-3.891-4.858-5.277-17.379-17.389-34.847-34.687-52.096-52.205-3.103-3.152-4.858-3.093-7.931.03-17.718,17.977-35.595,35.795-53.552,53.532-2.484,2.444-2.664,3.951-.17,6.425,18.177,17.997,36.293,36.044,54.281,54.231,2.893,2.923,4.599,2.444,7.213-.239,9.737-9.986,19.633-19.833,29.559-29.639,8.969-8.859,18.057-17.598,27.554-26.856ZM232.174-100.379c-.469-.549-1.157-1.457-1.955-2.265-18.296-18.356-36.663-36.653-54.869-55.099-2.753-2.793-4.29-1.686-6.445.489-17.927,18.027-35.884,36.044-53.971,53.931-2.694,2.664-2.494,4.28.09,6.834,18.067,17.897,36.004,35.934,54.001,53.901,1.018,1.018,2.215,1.846,3.023,2.514,20.172-20.232,40.044-40.174,60.127-60.306ZM231.246,405.714c-19.903-20.012-39.825-40.064-59.877-60.236.279-.16-.05-.04-.279.18-18.855,18.755-37.65,37.57-56.585,56.236-2.833,2.793-1.496,4.34.629,6.455,18.017,17.947,35.954,35.964,53.941,53.941,1.008,1.008,2.195,1.826,3.212,2.664,20.112-20.212,39.885-40.074,58.959-59.239ZM231.445,26.129c-19.533-19.703-39.356-39.685-58.87-59.358-19.893,19.903-39.895,39.915-59.428,59.468,19.613,19.673,39.476,39.615,58.999,59.209,19.783-19.793,39.785-39.795,59.299-59.318ZM231.555,278.637c-19.563-19.623-39.446-39.566-59.009-59.189-19.843,19.793-39.855,39.755-59.069,58.929,19.613,19.803,39.506,39.885,58.949,59.528,19.633-19.683,39.516-39.615,59.129-59.269ZM168.994,88.939c-.16-.249-.419-.878-.868-1.327-18.775-18.805-37.61-37.56-56.306-56.435-2.724-2.753-4.2-1.147-6.066.728-9.827,9.876-19.653,19.763-29.54,29.599-9.158,9.108-18.386,18.147-27.415,27.055,20.541,20.471,40.583,40.434,60.216,60.007,19.883-19.773,39.855-39.625,59.977-59.628ZM167.318,344.539c2.973-2.943,1.107-4.489-.858-6.455-17.728-17.708-35.435-35.435-53.173-53.143-1.237-1.247-2.604-2.364-3.073-2.783-20.431,20.431-40.444,40.444-60.007,60.007,19.414,19.543,39.266,39.546,59.249,59.668.389-.269.998-.559,1.447-1.018,18.795-18.765,37.53-37.6,56.415-56.276ZM155.177,230.442c4.789-4.779,9.687-9.437,13.947-13.568-20.581-20.701-40.513-40.743-60.196-60.526-19.643,19.533-39.596,39.386-59.967,59.648.928,1.018,1.766,2.025,2.694,2.953,17.947,17.967,35.974,35.854,53.782,53.961,3.013,3.063,4.719,2.743,7.532-.11,13.967-14.226,28.093-28.283,42.209-42.359ZM108.968,22.478c19.823-19.793,39.825-39.775,59.668-59.598-19.553-19.573-39.466-39.496-59.109-59.159-19.863,19.903-39.845,39.935-59.488,59.628C69.601-17.028,89.584,3.034,108.968,22.478ZM168.625-163.439c-19.603-19.623-39.516-39.566-59.179-59.239-19.883,19.883-39.915,39.925-59.408,59.418,19.913,20.002,39.795,39.965,58.959,59.209,19.733-19.653,39.785-39.615,59.628-59.388ZM103.56-96.528c3.053-3.013,1.935-4.908-.529-7.352-17.887-17.788-35.695-35.655-53.552-53.482-1.008-1.008-2.195-1.826-3.322-2.753-.868.629-1.457.948-1.905,1.407-18.675,18.675-37.281,37.411-56.046,55.986-2.943,2.913-1.267,4.409.758,6.425,15.194,15.124,30.378,30.238,45.462,45.462,3.711,3.751,7.033,7.881,10.545,11.852,2.015-1.437,2.464-1.676,2.803-2.015,18.586-18.516,37.111-37.092,55.787-55.528ZM106.074,152.478c-.908-1.177-1.596-2.295-2.504-3.192-18.067-18.097-36.204-36.124-54.211-54.281-2.694-2.714-4.33-2.314-6.844.229-17.738,17.937-35.545,35.805-53.492,53.522-2.973,2.933-2.943,4.649,0,7.552,18.057,17.847,35.974,35.835,53.862,53.852,2.175,2.205,3.711,2.634,6.105.229,18.117-18.276,36.343-36.433,54.52-54.66.908-.908,1.606-2.025,2.564-3.252ZM103.271,408.517c2.704-2.684,2.933-4.559.09-7.342-11.503-11.253-22.915-22.616-34.178-34.119-7.412-7.562-14.515-15.433-21.888-23.304-2.295,1.846-2.993,2.305-3.571,2.883-18.446,18.416-36.852,36.892-55.378,55.238-2.714,2.684-1.756,4.29.459,6.485,15.653,15.573,31.216,31.245,46.838,46.858,3.362,3.372,6.844,6.624,10.325,9.986,1.187-.918,2.035-1.437,2.724-2.125,18.187-18.197,36.323-36.443,54.58-54.56ZM44.671,87.084c21.239-21.179,41.182-41.062,60.995-60.815C85.843,6.576,65.85-13.267,45.639-33.339c-.239.18-1.127.648-1.816,1.327C25.227-13.477,6.692,5.109-11.954,23.595c-2.684,2.664-1.117,4.23.778,6.115,13.877,13.837,27.804,27.634,41.551,41.591,5.098,5.178,9.767,10.764,14.296,15.782ZM46.167,338.205c19.773-19.823,39.655-39.755,59.398-59.548-19.723-19.643-39.685-39.526-59.318-59.089-19.813,19.673-39.795,39.496-59.338,58.89,19.733,19.893,39.576,39.905,59.259,59.747ZM43.234,89.598c-.768-1.018-1.357-1.995-2.125-2.793-2.544-2.614-5.148-5.178-7.732-7.761C17.765,63.42,2.112,47.837-13.43,32.155c-2.394-2.424-4.08-3.172-6.884-.339-17.977,18.187-36.104,36.234-54.201,54.3-1.876,1.876-3.482,3.332-.738,6.056,18.636,18.456,37.151,37.022,55.637,55.617,2.005,2.005,3.372,1.925,5.327-.03,18.366-18.486,36.812-36.892,55.218-55.338.788-.798,1.437-1.746,2.305-2.823ZM41.099-34.077c2.295-2.275,1.686-3.751-.289-5.726C22.444-58.09,4.108-76.416-14.149-94.803c-2.175-2.185-3.621-2.025-5.716.08-18.266,18.386-36.583,36.722-54.989,54.969-2.394,2.364-2.225,3.931.04,6.105,5.367,5.188,10.625,10.495,15.882,15.802C-45.255-4.079-31.607,9.708-17.68,23.755c1.257-.848,1.866-1.137,2.314-1.576C3.459,3.423,22.234-15.372,41.099-34.077ZM41.02,218.321c.788-.788,1.377-1.776,2.195-2.833-.818-1.048-1.417-2.015-2.205-2.803-18.296-18.326-36.643-36.583-54.869-54.969-2.524-2.544-4.08-2.195-6.445.18-18.107,18.266-36.293,36.453-54.56,54.57-2.285,2.265-2.404,3.781-.07,6.095,18.386,18.246,36.692,36.573,54.959,54.939,2.045,2.055,3.522,2.384,5.736.15,18.376-18.486,36.842-36.882,55.258-55.328ZM40.222-159.408c1.028-1.028,1.915-2.195,2.664-3.053-20.262-20.242-40.274-40.234-60.087-60.017-19.703,19.643-39.645,39.506-60.037,59.827,1.447,1.506,2.664,2.843,3.941,4.12,17.498,17.518,35.076,34.947,52.425,52.614,3.222,3.282,4.978,2.773,7.921-.219,17.628-17.857,35.435-35.525,53.173-53.273ZM39.753,345.856c1.237-1.237,2.314-2.624,3.123-3.542-20.341-20.371-40.254-40.294-59.997-60.067-19.683,19.713-39.576,39.615-59.837,59.897.619.768,1.187,1.576,1.866,2.265,18.426,18.476,36.902,36.882,55.238,55.448,2.873,2.913,4.37,1.287,6.415-.768,17.708-17.768,35.465-35.485,53.193-53.233ZM-22.21,407.868c3.242-3.212.978-4.779-1.038-6.804-17.738-17.728-35.535-35.396-53.133-53.273-2.953-3.013-4.609-2.913-7.502.02-17.478,17.728-35.086,35.336-52.814,52.814-3.192,3.143-3.492,5.078-.11,8.37,12.37,12.041,24.422,24.412,36.633,36.613,6.544,6.544,13.159,12.999,19.843,19.593,1.077-.808,1.796-1.217,2.354-1.776,18.586-18.526,37.092-37.131,55.767-55.557ZM-22.399,281.729c2.634-2.604,2.065-4.21-.239-6.485-11.453-11.303-22.865-22.656-34.168-34.109-7.542-7.642-14.904-15.473-21.828-22.686-20.99,20.81-41.062,40.703-61.004,60.476,19.733,19.723,39.655,39.615,59.728,59.668.718-.569,1.686-1.197,2.494-1.995,18.336-18.296,36.603-36.653,55.019-54.869ZM-22.708,156.019c2.534-2.504,2.923-4.18.219-6.864-18.276-18.097-36.433-36.323-54.65-54.5-.798-.788-1.766-1.397-2.863-2.255-1.157.918-2.265,1.616-3.162,2.524-17.997,17.937-35.924,35.944-53.971,53.822-2.634,2.614-3.113,4.409-.19,7.293,18.097,17.837,36.064,35.795,53.951,53.832,2.574,2.594,4.14,2.724,6.804.03,17.847-18.067,35.815-36.014,53.862-53.881ZM-23.317,30.299c3.152-3.103,3.302-4.799.15-7.901-15.643-15.383-31.056-30.996-46.569-46.509-3.362-3.352-6.814-6.614-10.236-9.926-1.048.828-1.606,1.187-2.065,1.646-18.596,18.546-37.131,37.131-55.797,55.587-2.654,2.614-2.005,4.27.259,6.504,8.41,8.27,16.75,16.61,25.06,24.98,10.515,10.605,20.98,21.259,31.984,32.423,2.155-2.005,3.631-3.302,5.018-4.689,17.379-17.398,34.647-34.887,52.195-52.116ZM-23.457-95.73c3.282-3.222,3.442-5.008.12-8.25-12.261-11.932-24.312-24.083-36.293-36.283-6.604-6.734-12.929-13.737-19.374-20.621-.419.319-.838.648-1.257.968-.658.459-1.407.828-1.965,1.387-18.456,18.396-36.842,36.862-55.378,55.178-3.123,3.083-1.766,4.908.648,7.303,16.96,16.86,33.839,33.799,50.759,50.689,1.955,1.945,4.03,3.771,6.185,5.776,1.357-1.227,2.364-2.065,3.292-2.983,17.728-17.748,35.366-35.585,53.263-53.163ZM-83.034,88.859c-.648-.738-1.247-1.516-1.945-2.205-18.087-18.087-36.263-36.104-54.221-54.32-3.133-3.182-4.918-2.953-7.931.11-17.618,17.877-35.435,35.565-53.183,53.333-1.038,1.038-1.975,2.175-2.534,2.783,20.212,20.262,40.184,40.304,59.997,60.166,19.553-19.573,39.486-39.516,59.817-59.867ZM-93.39,226.9c3.611-3.562,7.662-6.684,10.954-9.527-21.219-21.349-41.162-41.411-61.284-61.653-.429.349-1.107.808-1.676,1.377-18.566,18.526-37.072,37.121-55.737,55.557-2.813,2.773-1.576,4.3.559,6.425,17.897,17.798,35.805,35.585,53.512,53.572,3.083,3.133,4.848,3.123,7.911.01,15.114-15.393,30.407-30.607,45.761-45.761ZM-143.181,22.787c19.663-19.713,39.665-39.745,58.7-58.82-19.703-19.932-39.675-40.124-59.229-59.897-19.563,19.563-39.456,39.456-59.069,59.079,19.813,19.823,39.815,39.845,59.598,59.638ZM-142.822-103.492c19.543-19.593,39.446-39.536,58.899-59.039-20.042-20.032-40.054-40.035-59.229-59.199-19.593,19.493-39.625,39.436-59.119,58.84,19.643,19.633,39.635,39.606,59.448,59.398ZM-84.122,342.055c-19.723-19.823-39.695-39.885-58.939-59.229-19.743,19.613-39.805,39.546-59.698,59.299,19.623,19.613,39.526,39.506,59.089,59.059,20.062-19.922,40.144-39.865,59.548-59.129ZM-148.239-97.247c2.694-2.664,1.137-4.2-.768-6.095-17.997-17.957-36.014-35.894-53.901-53.961-2.594-2.614-4.18-2.704-6.834-.02-17.857,18.077-35.884,35.994-53.832,53.981-1.028,1.028-1.895,2.215-2.604,3.043,20.112,20.162,39.985,40.104,60.057,60.236.449-.249.788-.349,1.018-.579,18.945-18.875,37.86-37.79,56.864-56.605ZM-149.167,408.537c3.143-3.093,2.514-4.819-.249-7.552-17.728-17.528-35.316-35.206-52.964-52.814-1.247-1.247-2.634-2.324-3.841-3.382-20.222,20.222-40.064,40.054-59.708,59.698,20.052,20.142,39.925,40.094,60.037,60.286.878-.768,2.035-1.676,3.063-2.714,17.877-17.857,35.655-35.805,53.662-53.522ZM-206.34,85.607c19.833-19.723,39.795-39.576,59.628-59.299-19.843-19.663-39.835-39.486-59.498-58.969-19.613,19.533-39.635,39.456-59.079,58.82,19.603,19.763,39.436,39.765,58.949,59.448ZM-147.062,152.937c-19.932-20.092-39.725-40.054-59.688-60.176-.249.18-.848.479-1.307.918-18.695,18.626-37.341,37.301-56.106,55.857-2.743,2.714-1.586,4.32.579,6.465,13.667,13.568,27.225,27.235,40.853,40.833,5.357,5.347,10.804,10.595,16.102,15.782,20.381-20.411,40.264-40.334,59.568-59.678ZM-146.653,278.746c-19.773-19.773-39.695-39.685-59.378-59.358-19.962,19.893-39.895,39.765-59.189,58.999,19.663,19.833,39.566,39.905,59.089,59.598,19.733-19.653,39.685-39.526,59.478-59.239ZM-209.632,88.919c-.1-.16-.379-.768-.818-1.207-18.775-18.815-37.58-37.59-56.326-56.435-1.995-2.015-3.402-1.915-5.337.07-5.317,5.487-10.804,10.804-16.211,16.191-13.737,13.707-27.484,27.415-40.793,40.693,20.411,20.581,40.344,40.673,59.837,60.326,19.623-19.613,39.546-39.536,59.648-59.638ZM-217.733,224.695c2.913-2.883,6.325-5.257,9.148-7.572-21.17-21.219-41.072-41.162-60.785-60.905-19.962,19.952-39.915,39.895-60.017,59.997.269.339.718,1.028,1.287,1.596,18.426,18.446,36.892,36.852,55.248,55.368,2.614,2.644,4.33,2.434,6.874-.15,15.992-16.201,32.083-32.303,48.245-48.335ZM-269.699,400.745c19.843-19.623,39.965-39.506,59.229-58.55-19.713-19.863-39.645-39.965-59.159-59.638-19.643,19.613-39.596,39.536-58.999,58.909,19.992,20.112,39.935,40.174,58.929,59.279ZM-209.842-162.81c-19.753-19.713-39.705-39.625-59.678-59.548-19.683,19.673-39.705,39.685-59.508,59.468,19.813,19.813,39.825,39.835,59.568,59.578,19.833-19.793,39.865-39.785,59.618-59.498ZM-269.15,22.218c19.613-19.533,39.576-39.416,59.378-59.139-19.813-19.773-39.855-39.755-59.698-59.558-19.753,19.763-39.765,39.795-59.019,59.069,19.813,19.903,39.855,40.054,59.338,59.628ZM-272.163,153.146c-.718-1.237-.878-1.736-1.217-2.075-18.765-18.825-37.59-37.6-56.296-56.495-2.514-2.534-4.16-1.656-6.175.369-18.177,18.217-36.343,36.443-54.61,54.58-2.125,2.115-2.275,3.621-.14,5.746,18.256,18.147,36.503,36.313,54.62,54.6,2.913,2.943,4.719,2.275,7.283-.329,11.403-11.622,22.945-23.115,34.478-34.607,7.283-7.263,14.635-14.456,22.057-21.788ZM-272.582,404.506c-.509-.629-1.157-1.576-1.955-2.374-18.306-18.336-36.682-36.623-54.919-55.039-2.444-2.464-3.981-1.935-6.095.19-18.416,18.496-36.892,36.922-55.318,55.398-.658.648-1.018,1.586-1.486,2.334,20.092,19.992,39.975,39.785,59.767,59.478,19.992-19.982,39.905-39.885,60.007-59.987ZM-333.437-39.415c20.84-20.81,40.753-40.703,60.147-60.067-19.783-19.843-39.735-39.855-59.807-59.987-.2.15-.798.469-1.257.928-18.705,18.655-37.381,37.341-56.136,55.947-2.334,2.314-1.566,3.801.389,5.726,6.514,6.395,12.959,12.879,19.364,19.394,12.46,12.67,24.871,25.369,37.301,38.059ZM-273.64,279.026c-19.543-19.793-39.346-39.835-58.6-59.328-19.833,19.773-39.855,39.725-59.348,59.149,19.603,19.733,39.456,39.705,58.8,59.189,19.913-19.863,39.935-39.835,59.149-59.009ZM-332.459,85.677c19.823-19.863,39.735-39.815,59.159-59.269-19.703-19.823-39.645-39.885-59.199-59.548-19.823,19.703-39.825,39.586-59.598,59.239,19.843,19.823,39.775,39.735,59.638,59.578Z"/>
          <path class="cls-1" d="M228.323,147.809c1.387,1.387,2.664,2.893,4.858,5.277-9.497,9.258-18.586,17.997-27.554,26.856-9.926,9.807-19.823,19.653-29.559,29.639-2.614,2.684-4.32,3.162-7.213.239-17.987-18.187-36.104-36.234-54.281-54.231-2.494-2.474-2.314-3.981.17-6.425,17.957-17.738,35.835-35.555,53.552-53.532,3.073-3.123,4.828-3.182,7.931-.03,17.249,17.518,34.717,34.817,52.096,52.205ZM225.44,155.66c2.205-2.195,2.554-3.791.17-6.155-16.77-16.58-33.47-33.231-50.081-49.961-2.584-2.604-4.26-2.065-6.554.249-16.501,16.59-33.051,33.141-49.681,49.612-2.245,2.225-2.474,3.791-.11,6.135,16.75,16.58,33.39,33.281,50.091,49.911.898.898,2.005,1.566,3.192,2.484,1.257-1.018,2.354-1.746,3.262-2.654,16.57-16.531,33.101-33.121,49.711-49.622Z"/>
          <path class="cls-10" d="M225.609,149.505c2.384,2.364,2.035,3.961-.17,6.155-16.61,16.501-33.141,33.091-49.711,49.622-.908.908-2.005,1.636-3.262,2.654-1.187-.918-2.295-1.586-3.192-2.484-16.7-16.63-33.34-33.33-50.091-49.911-2.364-2.344-2.135-3.911.11-6.135,16.63-16.471,33.181-33.021,49.681-49.612,2.295-2.314,3.971-2.853,6.554-.249,16.61,16.73,33.311,33.38,50.081,49.961ZM191.65,166.684c4.519-2.285,7.073-7.063,6.664-12.4-.439-5.637-3.691-9.966-9.527-11.323-2.983-.698-3.522-2.045-3.761-4.679-.698-7.362-5.706-11.832-12.809-11.802-6.754.03-11.872,4.569-12.54,11.592-.269,2.823-.758,4.21-4.01,4.948-6.894,1.556-10.585,8.22-9.038,14.914,1.596,6.894,7.432,11.113,14.485,9.637,3.522-.738,6.714-2.983,10.984-4.978-.04.09-.08.17-.11.259-2.344,5.257-4.519,10.136-6.734,15.124h14.296c-2.334-5.158-4.489-9.936-6.644-14.715.439-.239.888-.469,1.337-.708.718.658,1.427,1.307,2.145,1.955,4.24,3.821,10.315,4.689,15.264,2.175Z"/>
          <path class="cls-10" d="M227.714,26.478c-.908,1.087-1.586,2.015-2.384,2.813-16.67,16.68-33.38,33.311-49.981,50.051-2.235,2.245-3.731,2.484-6.095.1-16.61-16.74-33.291-33.41-50.061-49.991-2.324-2.295-2.384-3.831-.09-6.105,16.74-16.6,33.42-33.251,50.031-49.981,2.265-2.285,3.871-2.414,6.155-.12,16.62,16.72,33.321,33.36,49.971,50.051.898.908,1.576,2.025,2.454,3.182ZM193.815,43.947c4.679-3.492,6.504-12.121,2.444-17.109C188.867,17.749,180.696,9.299,172.326.001c-8.42,9.328-16.59,17.798-24.043,26.856-4.1,5.008-2.374,13.208,2.504,17.109,4.928,3.921,11.094,2.903,16.301-2.624,1.067-1.137,2.404-2.035,3.621-3.043.349.359.708.708,1.057,1.067-2.544,4.06-5.088,8.121-7.771,12.42h16.351c-2.514-4.23-4.988-8.38-7.462-12.52.768-.609,1.526-1.207,2.285-1.806.708,1.297,1.187,2.813,2.165,3.871,4.998,5.377,11.493,6.345,16.481,2.614Z"/>
          <path class="cls-13" d="M198.314,154.283c.409,5.337-2.145,10.116-6.664,12.4-4.948,2.514-11.024,1.646-15.264-2.175-.718-.648-1.427-1.297-2.145-1.955-.449.239-.898.469-1.337.708l-.918-.409c.03-.09.07-.17.11-.259-4.27,1.995-7.462,4.24-10.984,4.978-7.053,1.476-12.889-2.743-14.485-9.637-1.546-6.694,2.145-13.358,9.038-14.914,3.252-.738,3.741-2.125,4.01-4.948.668-7.023,5.786-11.562,12.54-11.592,7.103-.03,12.111,4.439,12.809,11.802.239,2.634.778,3.981,3.761,4.679,5.836,1.357,9.088,5.686,9.527,11.323Z"/>
          <path class="cls-13" d="M196.259,26.837c4.06,4.988,2.235,13.618-2.444,17.109-4.988,3.731-11.483,2.763-16.481-2.614-.978-1.057-1.457-2.574-2.165-3.871-.758.599-1.516,1.197-2.285,1.806l-1.117.1c-.349-.359-.708-.708-1.057-1.067-1.217,1.008-2.554,1.905-3.621,3.043-5.208,5.527-11.373,6.544-16.301,2.624-4.878-3.901-6.604-12.101-2.504-17.109C155.736,17.799,163.907,9.329,172.326.001c8.37,9.298,16.541,17.748,23.933,26.836Z"/>
          <path class="cls-13" d="M180.347,51.788h-16.351c2.684-4.3,5.228-8.36,7.771-12.42l1.117-.1c2.474,4.14,4.948,8.29,7.462,12.52Z"/>
          <path class="cls-1" d="M172.576-33.229c19.513,19.673,39.336,39.655,58.87,59.358-19.513,19.523-39.516,39.526-59.299,59.318-19.523-19.593-39.386-39.536-58.999-59.209,19.533-19.553,39.536-39.566,59.428-59.468ZM225.33,29.291c.798-.798,1.476-1.726,2.384-2.813-.878-1.157-1.556-2.275-2.454-3.182-16.65-16.69-33.35-33.33-49.971-50.051-2.285-2.295-3.891-2.165-6.155.12-16.61,16.73-33.291,33.38-50.031,49.981-2.295,2.275-2.235,3.811.09,6.105,16.77,16.58,33.45,33.251,50.061,49.991,2.364,2.384,3.861,2.145,6.095-.1,16.6-16.74,33.311-33.37,49.981-50.051Z"/>
          <path class="cls-1" d="M168.126,87.612c.449.449.708,1.077.868,1.327-20.122,20.002-40.094,39.855-59.977,59.628-19.633-19.573-39.675-39.536-60.216-60.007,9.028-8.909,18.256-17.947,27.415-27.055,9.886-9.837,19.713-19.723,29.54-29.599,1.866-1.876,3.342-3.482,6.066-.728,18.695,18.875,37.53,37.63,56.306,56.435ZM164.924,90.096c-.738-1.257-.968-1.915-1.407-2.354-17.239-17.309-34.528-34.578-51.747-51.916-2.035-2.045-3.382-1.736-5.297.249-6.933,7.153-14.007,14.176-21.1,21.179-10.615,10.485-21.289,20.91-31.844,31.265.738,1.516.818,1.876,1.038,2.095,17.379,17.389,34.807,34.737,52.106,52.215,2.494,2.524,3.801,1.277,5.627-.549,10.784-10.844,21.598-21.648,32.453-32.423,6.694-6.644,13.468-13.208,20.172-19.763Z"/>
          <path class="cls-13" d="M163.517,87.742c.439.439.668,1.097,1.407,2.354-6.704,6.554-13.478,13.119-20.172,19.763-10.854,10.774-21.668,21.579-32.453,32.423-1.826,1.826-3.133,3.073-5.627.549-17.299-17.478-34.727-34.827-52.106-52.215-.219-.219-.299-.579-1.038-2.095,10.555-10.355,21.229-20.78,31.844-31.265,7.093-7.003,14.166-14.027,21.1-21.179,1.915-1.985,3.262-2.295,5.297-.249,17.219,17.339,34.508,34.607,51.747,51.916ZM127.523,100.841c6.564-6.864,8.609-15.513,7.113-24.911-.958-6.066-5.407-11.383-10.246-12.211-6.215-1.067-10.026,2.235-12.879,7.223-.559.968-1.307,1.826-2.364,3.292-1.696-2.434-2.793-4.27-4.13-5.916-5.557-6.794-13.288-6.604-18.266.648-3.432,4.998-4.469,10.734-3.242,16.66,2.853,13.837,12.321,22.327,24.033,28.771,1.087.589,3.382.239,4.429-.569,5.347-4.14,10.914-8.131,15.553-12.989Z"/>
          <path class="cls-13" d="M163.547-36.701C145.54-18.604,127.214-.188,107.591,19.525c-1.147-1.716-2.165-3.921-3.781-5.537-15.663-15.812-31.385-31.575-47.227-47.217-2.534-2.504-2.963-4.05-.19-6.794,17.029-16.79,33.879-33.759,50.809-50.669.449-.449,1.008-.808,1.437-1.137,18.675,18.755,37.022,37.171,54.909,55.128ZM109.317-11.531c5.617-11.423,13.867-19.234,25.1-25.32-11.632-5.676-19.234-13.947-25.18-24.921-5.966,11.153-13.897,19.134-25.08,24.941,11.104,6.085,19.224,14.076,25.16,25.3Z"/>
          <path class="cls-1" d="M134.636,75.93c1.496,9.398-.549,18.047-7.113,24.911-4.639,4.858-10.206,8.849-15.553,12.989-1.048.808-3.342,1.157-4.429.569-11.712-6.445-21.179-14.934-24.033-28.771-1.227-5.926-.19-11.662,3.242-16.66,4.978-7.253,12.71-7.442,18.266-.648,1.337,1.646,2.434,3.482,4.13,5.916,1.057-1.467,1.806-2.324,2.364-3.292,2.853-4.988,6.664-8.29,12.879-7.223,4.838.828,9.288,6.145,10.246,12.211Z"/>
          <path class="cls-1" d="M168.635-37.12c-19.843,19.823-39.845,39.805-59.668,59.598C89.584,3.034,69.601-17.028,50.038-36.651c19.643-19.693,39.625-39.725,59.488-59.628,19.643,19.663,39.556,39.586,59.109,59.159ZM107.591,19.525C127.214-.188,145.54-18.604,163.547-36.701c-17.887-17.957-36.234-36.373-54.909-55.128-.429.329-.988.688-1.437,1.137-16.93,16.91-33.779,33.879-50.809,50.669-2.773,2.743-2.344,4.29.19,6.794,15.842,15.643,31.565,31.405,47.227,47.217,1.616,1.616,2.634,3.821,3.781,5.537Z"/>
          <path class="cls-1" d="M103.57,149.285c.908.898,1.596,2.015,2.504,3.192-.958,1.227-1.656,2.344-2.564,3.252-18.177,18.227-36.403,36.383-54.52,54.66-2.394,2.404-3.931,1.975-6.105-.229-17.887-18.017-35.805-36.004-53.862-53.852-2.943-2.903-2.973-4.619,0-7.552,17.947-17.718,35.755-35.585,53.492-53.522,2.514-2.544,4.15-2.943,6.844-.229,18.007,18.157,36.144,36.184,54.211,54.281ZM98.682,156.079c2.514-2.484,2.873-4.25.17-6.933-16.64-16.461-33.161-33.021-49.652-49.632-2.215-2.235-3.711-2.454-6.085-.05-16.58,16.74-33.261,33.38-49.991,49.961-2.205,2.185-2.624,3.701-.21,6.085,16.87,16.69,33.62,33.49,50.44,50.24.788.778,1.766,1.367,2.863,2.205,1.157-.978,2.215-1.736,3.133-2.644,16.441-16.411,32.832-32.882,49.332-49.233Z"/>
          <path class="cls-10" d="M99.341,23.356c2.055,2.045,2.334,3.492.09,5.716-16.97,16.84-33.829,33.789-50.729,50.689-.678.678-1.486,1.237-2.524,2.085-1.097-.878-2.195-1.576-3.083-2.474C26.654,62.941,10.283,46.441-6.228,30.08c-2.654-2.634-3.162-4.36-.219-7.263C10.223,6.386,26.754-10.194,43.214-26.855c2.424-2.444,3.961-2.045,6.125.13C65.96-9.985,82.63,6.705,99.341,23.356ZM64.963,40.674c5.048-2.095,7.632-7.143,7.043-13.089-.629-6.245-4.3-9.697-10.365-11.104-1.087-.249-2.344-2.185-2.524-3.482-1.127-8.041-5.437-12.48-12.67-12.63-7.512-.16-11.991,4.22-13.408,12.52-.239,1.427-1.886,3.252-3.282,3.741-5.567,1.905-9.258,5.916-9.747,11.343-.459,5.088,2.215,9.866,6.864,12.271,4.828,2.494,10.734,1.826,14.914-1.676.918-.768,1.846-1.526,2.763-2.295.369.249.728.499,1.087.738-.02.04-.03.07-.05.11-2.165,4.888-4.34,9.787-6.514,14.685h14.356c-2.324-5.018-4.429-9.567-6.534-14.106.419-.249.848-.499,1.267-.758.279.15.619.229.828.449,4.589,4.699,10.066,5.726,15.972,3.282Z"/>
          <path class="cls-10" d="M98.852,149.146c2.704,2.684,2.344,4.449-.17,6.933-16.501,16.351-32.892,32.822-49.332,49.233-.918.908-1.975,1.666-3.133,2.644-1.097-.838-2.075-1.427-2.863-2.205-16.82-16.75-33.57-33.55-50.44-50.24-2.414-2.384-1.995-3.901.21-6.085,16.73-16.58,33.41-33.221,49.991-49.961,2.374-2.404,3.871-2.185,6.085.05,16.491,16.61,33.011,33.171,49.652,49.632ZM67.836,170.006c4.749-3.811,6.046-12.61,1.796-17.638-7.372-8.719-15.303-16.97-23.604-26.088-8.36,9.288-16.74,17.798-24.122,27.105-4.32,5.457-2.145,13.099,3.432,17.189,4.709,3.462,10.844,2.235,15.703-3.382.938-1.077,1.117-2.793,1.646-4.22l2.484,2.095c-.968,2.165-1.736,4.439-2.943,6.455-1.247,2.065-2.923,3.871-4.888,6.415h16.72c-2.434-4.26-4.699-8.22-6.953-12.181l1.736-1.167c.828,1.008,1.596,2.075,2.494,3.013,5.088,5.238,11.782,6.205,16.501,2.404Z"/>
          <path class="cls-1" d="M105.665,26.269c-19.813,19.753-39.755,39.635-60.995,60.815-4.529-5.018-9.198-10.605-14.296-15.782C16.628,57.345,2.701,43.547-11.176,29.71c-1.895-1.886-3.462-3.452-.778-6.115C6.692,5.109,25.227-13.477,43.823-32.012c.688-.678,1.576-1.147,1.816-1.327C65.85-13.267,85.843,6.576,105.665,26.269ZM99.43,29.072c2.245-2.225,1.965-3.671-.09-5.716C82.63,6.705,65.96-9.985,49.34-26.725c-2.165-2.175-3.701-2.574-6.125-.13C26.754-10.194,10.223,6.386-6.447,22.817c-2.943,2.903-2.434,4.629.219,7.263,16.511,16.361,32.882,32.862,49.322,49.292.888.898,1.985,1.596,3.083,2.474,1.038-.848,1.846-1.407,2.524-2.085,16.9-16.9,33.759-33.849,50.729-50.689Z"/>
          <path class="cls-13" d="M72.006,27.586c.589,5.946-1.995,10.994-7.043,13.089-5.906,2.444-11.383,1.417-15.972-3.282-.21-.219-.549-.299-.828-.449-.419.259-.848.509-1.267.758l-1.307-.579c.02-.04.03-.07.05-.11-.359-.239-.718-.489-1.087-.738-.918.768-1.846,1.526-2.763,2.295-4.18,3.502-10.086,4.17-14.914,1.676-4.649-2.404-7.323-7.183-6.864-12.271.489-5.427,4.18-9.437,9.747-11.343,1.397-.489,3.043-2.314,3.282-3.741C34.455,4.59,38.935.211,46.447.37c7.233.15,11.542,4.589,12.67,12.63.18,1.297,1.437,3.232,2.524,3.482,6.066,1.407,9.737,4.858,10.365,11.104Z"/>
          <path class="cls-13" d="M69.631,152.368c4.25,5.028,2.953,13.827-1.796,17.638-4.719,3.801-11.413,2.833-16.501-2.404-.898-.938-1.666-2.005-2.494-3.013l-1.736,1.167-1.935-.688-2.484-2.095c-.529,1.427-.708,3.143-1.646,4.22-4.858,5.617-10.994,6.844-15.703,3.382-5.577-4.09-7.752-11.732-3.432-17.189,7.382-9.308,15.762-17.817,24.122-27.105,8.3,9.118,16.231,17.369,23.604,26.088Z"/>
          <path class="cls-13" d="M53.43,51.808h-14.356c2.175-4.898,4.35-9.797,6.514-14.685l1.307.579c2.105,4.539,4.21,9.088,6.534,14.106Z"/>
          <path class="cls-1" d="M41.109,86.804c.768.798,1.357,1.776,2.125,2.793-.868,1.077-1.516,2.025-2.305,2.823-18.406,18.446-36.852,36.852-55.218,55.338-1.955,1.955-3.322,2.035-5.327.03-18.486-18.596-37.002-37.161-55.637-55.617-2.743-2.724-1.137-4.18.738-6.056,18.097-18.067,36.224-36.114,54.201-54.3,2.803-2.833,4.489-2.085,6.884.339,15.543,15.683,31.196,31.265,46.808,46.888,2.584,2.584,5.188,5.148,7.732,7.761ZM36.251,92.281c2.245-2.215,2.105-3.532,0-5.637C19.391,69.905,2.591,53.095-14.139,36.225c-2.145-2.165-3.532-2.145-5.676.02-16.62,16.75-33.301,33.43-50.071,50.031-2.494,2.464-2.344,4.02.09,6.435,16.76,16.59,33.39,33.311,50.071,49.981.788.778,1.736,1.407,2.803,2.265,1.157-.998,2.205-1.776,3.113-2.684,16.68-16.67,33.301-33.4,50.061-49.991Z"/>
          <path class="cls-1" d="M40.81-39.804c1.975,1.975,2.584,3.452.289,5.726C22.234-15.372,3.459,3.423-15.366,22.178c-.449.439-1.057.728-2.314,1.576C-31.607,9.708-45.255-4.079-58.932-17.846c-5.257-5.307-10.515-10.615-15.882-15.802-2.265-2.175-2.434-3.741-.04-6.105,18.406-18.246,36.722-36.583,54.989-54.969,2.095-2.105,3.542-2.265,5.716-.08C4.108-76.416,22.444-58.09,40.81-39.804ZM36.311-34.117c2.654-2.634,1.437-4.03-.569-6.026C19.611-56.195,3.559-72.306-12.533-88.388c-1.377-1.367-2.853-2.634-4.09-3.761-.838.299-1.227.329-1.437.539-17.528,17.458-35.036,34.947-52.585,52.385-1.935,1.925-1.447,3.312.289,4.988,3.951,3.801,7.781,7.712,11.642,11.592C-45.035-8.877-31.368,4.9-17.441,18.926c1.247-.918,1.836-1.237,2.285-1.686C1.993.111,19.072-17.078,36.311-34.117Z"/>
          <path class="cls-13" d="M35.742-40.143c2.005,1.995,3.222,3.392.569,6.026C19.072-17.078,1.993.111-15.156,17.24c-.449.449-1.038.768-2.285,1.686C-31.368,4.9-45.035-8.877-58.712-22.645c-3.861-3.881-7.692-7.791-11.642-11.592-1.736-1.676-2.225-3.063-.289-4.988,17.548-17.438,35.056-34.927,52.585-52.385.21-.21.599-.239,1.437-.539,1.237,1.127,2.714,2.394,4.09,3.761C3.559-72.306,19.611-56.195,35.742-40.143ZM6.841-34.217c3.342-8.43,3.621-16.92-2.464-24.492-4.16-5.188-11.113-5.507-15.722-.768-1.945,1.995-3.452,4.4-5.637,7.243-1.596-2.155-2.793-3.881-4.1-5.507-5.617-6.983-13.618-6.624-18.566.788-3.881,5.826-4.12,12.271-2.464,18.685,3.222,12.46,12.271,20.162,22.905,26.247,1.187.668,3.442.609,4.649-.08C-5.3-17.377,2.791-24.021,6.841-34.217Z"/>
          <path class="cls-13" d="M36.251,86.645c2.105,2.105,2.245,3.422,0,5.637C19.491,108.872,2.871,125.602-13.81,142.272c-.908.908-1.955,1.686-3.113,2.684-1.067-.858-2.015-1.486-2.803-2.265-16.68-16.67-33.311-33.39-50.071-49.981-2.434-2.414-2.584-3.971-.09-6.435,16.77-16.6,33.45-33.281,50.071-50.031,2.145-2.165,3.532-2.185,5.676-.02C2.591,53.095,19.391,69.905,36.251,86.645ZM-17.052,114.648c5.926-11.253,13.877-19.194,25.32-25.28-11.662-5.816-19.314-13.997-25.35-24.891-5.936,11.303-13.847,19.065-24.871,24.851,10.944,6.205,19.164,13.867,24.901,25.32Z"/>
          <path class="cls-1" d="M8.268,89.368c-11.443,6.085-19.394,14.027-25.32,25.28-5.736-11.453-13.957-19.114-24.901-25.32,11.024-5.786,18.935-13.548,24.871-24.851,6.036,10.894,13.687,19.074,25.35,24.891Z"/>
        </g>
        <g>
          <path class="cls-5" d="M.85,520.717c-.034,0-.262.114-.432.285-21.511,21.397-42.953,42.862-64.555,64.157-3.232,3.187-1.707,4.951.717,7.364,20.543,20.475,41.019,41.03,61.539,61.539,1.15,1.15,2.504,2.083,3.665,3.039,22.945-23.047,45.503-45.719,67.264-67.571-22.706-22.842-45.446-45.719-68.311-68.721.057-.034.091-.057.114-.091ZM265.012,488.463v5.691c-14.875-14.682-29.751-29.353-43.727-43.147-.797-.785-1.593-1.571-2.379-2.345-23.412,23.298-46.299,46.06-68.755,68.391,22.251,22.33,44.934,45.104,68.482,68.744.911-.945,1.832-1.889,2.743-2.845l2.242,2.276-.011.011c-2.219,2.174-2.117,3.79-.808,5.531l-2.071,1.958c-.478-.558-.945-1.104-1.423-1.65-24.22,24.174-47.073,46.994-71.361,71.225,6.294,5.702,12.736,11.529,19.189,17.368h-5.691c-5.099-5.395-10.198-10.778-15.206-16.082-6.112,5.896-11.381,10.983-16.662,16.082h-4.553c5.827-6.339,11.655-12.69,17.311-18.836-22.99-22.968-45.844-45.799-67.879-67.81-22.74,22.638-45.719,45.491-68.721,68.391,5.372,5.805,11.108,12.03,16.856,18.256h-4.553c-5.224-5.395-10.437-10.778-16.173-16.708-5.679,6.044-10.687,11.381-15.695,16.708h-5.691c6.123-6.283,12.246-12.576,17.857-18.335-23.332-23.457-45.981-46.231-68.266-68.63-1.093,1.081-2.174,2.174-3.266,3.255-21.636,21.59-43.465,43.386-66.752,66.627,6.18,5.52,12.656,11.302,19.132,17.083h-5.691c-4.996-5.27-9.993-10.528-14.819-15.615-1.241.501-1.878.592-2.254.945-4.951,4.871-9.868,9.777-14.796,14.671h-4.553c5.77-6.351,11.552-12.69,16.81-18.483-23.036-23.081-45.719-45.81-68.63-68.755-.182.114-.899.421-1.4.922-21.465,21.431-42.885,42.896-64.384,64.271-2.276,2.265-2.276,3.836-.023,6.089,5.19,5.201,10.141,10.619,15.194,15.957h-4.553c-4.382-4.405-8.604-8.98-13.237-13.089-1.161-1.036-4.473-1.48-5.372-.649-4.678,4.302-8.889,9.105-13.259,13.737h-5.691c6.009-6.248,12.03-12.485,17.766-18.449-23.207-23.116-46.095-45.924-68.47-68.22-22.49,22.41-45.355,45.195-69.734,69.495,6.203,5.565,12.679,11.37,19.143,17.175h-5.691c-5.122-5.395-10.243-10.79-15.422-16.253-5.987,5.918-11.222,11.085-16.446,16.253h-4.553c5.816-6.351,11.632-12.69,17.129-18.688-23.059-22.99-45.924-45.776-68.527-68.3-22.444,22.421-45.287,45.23-68.334,68.254,5.6,6.066,11.45,12.394,17.3,18.734h-4.553c-5.338-5.292-10.664-10.596-16.503-16.389-5.349,5.702-10.357,11.051-15.365,16.389h-5.691c6.123-6.294,12.246-12.599,17.63-18.131-23.412-23.491-46.106-46.243-70.257-70.462-.706.945-1.411,1.98-2.151,3.039l-2.003-2.049.023-.023c2.675-2.572,2.709-4.439.08-6.977-7.739-7.466-15.342-15.08-22.99-22.626v-4.553c8.604,8.183,17.22,16.366,25.38,24.117.99.933,1.969,1.878,2.948,2.8,23.241-23.116,46.038-45.776,68.47-68.095-22.581-22.603-45.389-45.434-69.643-69.722-8.786,9.355-17.971,19.155-27.156,28.954v-5.691c8.172-8.855,16.344-17.698,25.107-27.19-7.728-7.398-16.423-15.718-25.107-24.026v-5.691c9.515,9.401,19.03,18.813,28.613,28.283,1.252-.922,2.094-1.377,2.743-2.026,21.306-21.272,42.532-42.612,63.941-63.781,3.483-3.437,1.127-5.099-1.058-7.273-19.542-19.542-39.072-39.106-58.614-58.637-2.094-2.083-4.291-4.052-6.704-6.339-2.219,2.128-3.983,3.801-5.736,5.486-7.728,7.443-15.456,14.898-23.184,22.342v-4.553c7.466-7.455,14.819-15.023,22.455-22.308,3.039-2.891,3.107-4.883.046-7.796-7.637-7.273-15.012-14.819-22.501-22.251v-4.553c9.64,9.173,19.28,18.347,28.158,26.803,1.844-1.844,3.699-3.676,5.531-5.509,21.397-21.272,42.362-42.122,63.076-62.723-22.501-22.455-45.264-45.173-68.539-68.402-9.173,9.071-18.7,18.472-28.226,27.884v-5.691c8.092-8.912,16.184-17.835,23.366-25.733-7.091-7.728-15.228-16.605-23.366-25.483v-5.691c9.128,9.845,18.267,19.69,27.019,29.125,24.413-24.47,47.199-47.324,69.495-69.665-22.399-22.467-45.173-45.309-68.243-68.436-1.332,1.229-3.005,2.732-4.632,4.291-7.887,7.569-15.763,15.16-23.639,22.74v-4.553c7.5-7.432,14.932-14.944,22.547-22.273,2.914-2.811,3.13-4.974.046-7.899-7.648-7.261-15.08-14.773-22.592-22.182v-4.553c8.582,8.16,17.175,16.31,25.415,24.14,1.024.967,2.049,1.935,3.062,2.902,23.229-23.161,45.992-45.844,68.379-68.163-22.615-22.649-45.434-45.491-69.836-69.927-8.741,9.412-17.88,19.257-27.019,29.102v-5.691c8.16-8.843,16.31-17.675,24.8-26.883-3.164-3.358-7.159-7.58-11.142-11.814h5.691c7.66,11.416,9.253,11.586,18.199,1.889.489-.535.774-1.252,1.15-1.889h5.691c-3.972,4.268-7.933,8.547-12.087,13.02,1.104,1.377,1.923,2.629,2.959,3.665,20.737,20.76,41.542,41.451,62.176,62.302,2.982,3.016,4.712,2.322,7.318-.33,11.404-11.62,22.933-23.093,34.52-34.531,10.209-10.084,20.543-20.031,31.003-30.218-4.518-5.213-8.297-9.56-12.076-13.908h4.553q9.868,11.006,20.134.444c.137-.137.239-.296.353-.444h4.553c-3.767,4.348-7.546,8.707-10.698,12.349,23.013,23.059,45.708,45.821,68.072,68.231,22.353-22.41,45.036-45.161,67.992-68.174-3.608-3.87-7.58-8.138-11.552-12.406h5.691c2.527,2.754,4.905,5.679,7.694,8.149.831.74,3.403.797,4.188.08,2.732-2.481,5.008-5.452,7.466-8.229h5.691c-3.995,4.245-7.978,8.479-11.711,12.451,23.07,23.036,45.799,45.73,68.766,68.664.08-.046.876-.25,1.377-.751,21.579-21.556,43.113-43.158,64.692-64.703,2.117-2.117,1.764-3.744-.205-5.736-3.141-3.198-6.078-6.601-9.105-9.925h4.553c12.576,12.804,8.24,11.825,20.111.421.137-.137.25-.285.376-.421h4.553c-2.083,2.39-4.04,4.905-6.283,7.136-5.827,5.793-5.896,5.77-.319,11.359,17.266,17.3,34.554,34.577,51.842,51.842,3.858,3.847,7.796,7.603,11.302,11.017,21.181-21.169,41.952-41.929,62.962-62.928,2.003-2.003,4.006-4.006,6.009-6.009-3.71-3.938-7.705-8.183-11.7-12.417h5.691c7.751,11.37,9.367,11.552,18.21,1.889.478-.535.763-1.252,1.138-1.889h5.691c-3.961,4.268-7.921,8.547-11.336,12.224,1.673,1.684,3.358,3.369,5.031,5.053C-39.838-105.691-18.783-84.522,2.159-63.489c22.376-22.433,45.048-45.161,67.935-68.106-3.517-4.04-7.295-8.399-11.085-12.747h4.553c12.417,12.736,8.411,11.711,20.134.432.125-.125.239-.285.353-.432h4.553c-3.779,4.348-7.557,8.707-11.45,13.202,1.013,1.218,1.787,2.276,2.709,3.198,20.862,20.896,41.815,41.701,62.552,62.723,3.597,3.631,5.395,1.377,7.762-.99,20.327-20.361,40.677-40.7,60.993-61.072,1.172-1.172,2.162-2.515,3.414-4.006-4.222-4.53-8.195-8.786-12.167-13.054h5.691c2.527,2.766,4.883,5.702,7.671,8.183.819.728,3.369.74,4.166.023,2.732-2.481,5.042-5.44,7.512-8.206h5.691c-4.006,4.234-8.012,8.479-13.487,14.272.501.41,1.002.808,1.491,1.195l-1.901,1.923c-.091-.08-.182-.171-.273-.262-23.434,23.264-46.356,46.004-68.88,68.357,22.273,22.342,44.968,45.104,67.958,68.163.899-.797,1.923-1.673,2.936-2.606.341-.307.672-.626,1.002-.956,8.604-8.559,17.129-17.197,25.79-25.688,5.645-5.531,11.484-10.858,17.231-16.275v4.553c-13.703,13.612-27.349,27.293-41.166,40.802-3.073,3.005-2.037,4.996.455,7.466,13.612,13.464,27.145,26.997,40.711,40.506v4.553c-1.457-1.138-3.05-2.128-4.348-3.414-12.372-12.303-24.675-24.663-37.024-36.978-1.855-1.844-3.836-3.551-5.27-4.871-23.172,23.15-46.015,45.969-68.288,68.22,22.49,22.615,45.275,45.503,69.495,69.859.08-.091.171-.171.25-.262l1.798,1.719c-.216.205-.148.694-.216,1.058-.41.41-.819.831-1.229,1.241,1.332,1.036,2.732,2.026,4.086,3.05l-2.106,2.094-.159-.159c-3.13-3.187-5.008-3.21-8.195.023-20.373,20.634-40.882,41.144-61.551,61.494-3.392,3.335-2.8,5.156.25,8.172l.205.205c20.27,20.065,40.381,40.301,60.549,60.458,1.32,1.32,2.766,2.493,4.587,4.12,15.877-15.843,31.515-31.47,47.164-47.096v5.691c-13.544,13.521-27.008,27.11-40.688,40.495-3.027,2.959-3.039,4.826,0,7.785,13.669,13.385,27.145,26.974,40.688,40.495v5.691c-15.604-15.672-31.208-31.344-45.821-46.026-.865.865-1.73,1.719-2.595,2.572-22.558,22.387-44.604,44.262-66.183,65.682,22.342,22.273,45.104,44.979,68.311,68.129,15.171-15.069,30.73-30.525,46.288-45.969v5.691c-1.434,1.184-2.982,2.276-4.291,3.585-11.529,11.438-23.013,22.933-34.508,34.395-5.725,5.702-5.782,5.748.091,11.563,12.872,12.724,25.802,25.403,38.708,38.093ZM211.758,304.005c2.64-2.629,2.356-4.507-.205-7.045-20.68-20.555-41.303-41.189-61.835-61.903-2.971-3.005-4.974-2.834-7.865.159-8.821,9.139-17.892,18.028-26.883,26.985-12.611,12.565-25.244,25.096-38.037,37.798.728,1.309.899,1.878,1.275,2.254,21.431,21.465,42.908,42.862,64.259,64.396,2.823,2.845,4.723,2.037,7.056-.307,20.714-20.805,41.44-41.599,62.233-62.336ZM145.769,512.307c22.581-22.512,45.343-45.218,67.901-67.719-22.501-22.49-45.23-45.218-67.218-67.196-22.729,22.581-45.617,45.321-67.64,67.207,22.194,22.444,44.797,45.298,66.957,67.708ZM213.01,11.981c-22.057-22.08-44.661-44.706-67.059-67.139C123.507-32.497,100.892-9.666,78.437,12.994c22.091,22.228,44.74,45.013,66.661,67.059,22.638-22.694,45.423-45.537,67.913-68.072ZM145.894,224.358c22.41-22.421,45.116-45.15,66.979-67.025-22.603-22.899-45.264-45.867-67.105-68.004-22.524,22.399-45.298,45.048-67.628,67.241,22.478,22.501,45.218,45.241,67.753,67.788ZM145.678,656.418c22.524-22.433,45.275-45.082,67.696-67.412-22.786-22.831-45.457-45.548-67.583-67.719-22.49,22.421-45.332,45.184-67.526,67.309,22.387,22.535,45.036,45.309,67.412,67.822ZM142.047,228.227c-.455-.592-1.047-1.559-1.821-2.333-21.01-21.044-42.1-42.02-63.019-63.167-3.062-3.107-4.905-2.094-7.398.421-13.054,13.191-26.132,26.359-39.334,39.402-8.582,8.468-17.379,16.719-25.494,24.504,23.89,23.798,46.755,46.584,69.153,68.903,22.205-22.148,44.956-44.831,67.913-67.731ZM126.375,389.308c5.429-5.452,10.835-10.915,15.763-15.866-23.229-23.32-45.912-46.083-67.97-68.231-22.649,22.581-45.526,45.378-68.584,68.357.216.273.706,1.081,1.366,1.741,21.021,21.033,42.111,41.997,63.041,63.121,3.13,3.153,5.065,2.424,7.842-.387,16.093-16.332,32.346-32.505,48.542-48.735ZM73.395,584.112c22.763-22.592,45.685-45.343,67.594-67.07-22.49-22.592-45.275-45.48-67.696-68.015-22.353,22.319-45.116,45.048-67.605,67.514,22.683,22.638,45.548,45.457,67.708,67.571ZM141.103,84.97c-22.455-22.501-45.366-45.446-67.184-67.298C51.452,39.934,28.53,62.662,6.29,84.685c22.353,22.512,45.013,45.343,67.446,67.947,22.581-22.672,45.378-45.571,67.366-67.662ZM73.987,8.976c22.421-22.524,45.082-45.298,67.742-68.072-22.603-22.638-45.423-45.503-67.719-67.833C51.372-104.348,28.518-81.551,6.017-59.096,28.484-36.595,51.292-13.752,73.987,8.976ZM71.255,301.319c-2.504-2.732-3.961-4.439-5.543-6.032-19.826-19.838-39.767-39.573-59.434-59.559-3.54-3.597-5.554-3.528-9.06.034-20.202,20.509-40.597,40.836-61.084,61.072-2.834,2.8-3.039,4.507-.193,7.33,20.725,20.532,41.405,41.121,61.926,61.869,3.301,3.335,5.247,2.788,8.229-.273,11.108-11.393,22.399-22.626,33.712-33.814,10.232-10.107,20.6-20.077,31.447-30.627ZM70.094,12.14c-.524-.626-1.309-1.662-2.219-2.584C46.99-11.385,26.037-32.247,5.277-53.303c-3.153-3.187-4.894-1.912-7.352.558C-22.539-32.179-43.014-11.624-63.648,8.783c-3.084,3.05-2.857,4.883.091,7.808C-42.934,36.997-22.482,57.575-1.95,78.073c1.172,1.161,2.538,2.106,3.46,2.868C24.512,57.871,47.195,35.108,70.094,12.14ZM69.275,156.468C46.979,133.989,24.364,111.193,2.102,88.748c-22.694,22.717-45.503,45.537-67.788,67.844,22.364,22.444,45.036,45.195,67.309,67.549,22.569-22.581,45.389-45.4,67.651-67.674ZM69.4,444.542c-22.319-22.387-45.002-45.139-67.321-67.526-22.638,22.581-45.469,45.355-67.389,67.23,22.376,22.603,45.059,45.503,67.253,67.913,22.399-22.455,45.082-45.184,67.457-67.617ZM-1.973,228.125c-.182-.285-.489-1.002-.99-1.514-21.42-21.454-42.908-42.851-64.248-64.384-3.096-3.141-4.78-1.309-6.908.831-11.211,11.268-22.433,22.547-33.7,33.769-10.448,10.391-20.976,20.714-31.276,30.866,23.434,23.355,46.299,46.14,68.698,68.459,22.683-22.558,45.469-45.195,68.425-68.027ZM-3.885,519.727c3.392-3.358,1.263-5.122-.979-7.352-20.225-20.213-40.438-40.438-60.663-60.64-1.423-1.423-2.971-2.697-3.505-3.175-23.309,23.309-46.14,46.14-68.459,68.459,22.148,22.308,44.797,45.116,67.594,68.072.444-.307,1.138-.637,1.65-1.15,21.443-21.42,42.817-42.908,64.362-64.214ZM-17.736,389.558c5.463-5.452,11.051-10.767,15.9-15.479-23.468-23.605-46.208-46.482-68.664-69.051-22.41,22.285-45.184,44.945-68.413,68.049,1.058,1.161,2.015,2.322,3.062,3.369,20.475,20.498,41.041,40.905,61.368,61.562,3.437,3.494,5.383,3.13,8.593-.125,15.923-16.23,32.05-32.266,48.155-48.325ZM-70.454,152.313C-47.851,129.721-25.02,106.925-2.382,84.31-24.69,61.979-47.407,39.251-69.828,16.818c-22.649,22.706-45.446,45.56-67.856,68.027,22.308,22.387,45.116,45.275,67.23,67.469ZM-2.394-59.801c-22.364-22.387-45.093-45.139-67.514-67.583-22.683,22.683-45.537,45.548-67.788,67.788C-114.967-36.777-92.284-14.003-70.42,7.952-47.908-14.469-25.043-37.243-2.394-59.801ZM-76.623,16.534c3.471-3.437,2.208-5.6-.603-8.388-20.407-20.293-40.723-40.677-61.095-61.016-1.15-1.15-2.504-2.083-3.79-3.141-.99.717-1.662,1.093-2.174,1.605-21.306,21.306-42.532,42.68-63.952,63.884-3.358,3.323-1.434,5.019.876,7.33,17.322,17.243,34.656,34.486,51.865,51.854,4.234,4.279,8.024,8.991,12.03,13.521,2.288-1.639,2.811-1.901,3.198-2.299,21.204-21.124,42.339-42.316,63.645-63.349ZM-73.755,300.613c-1.047-1.343-1.832-2.618-2.857-3.642-20.612-20.646-41.303-41.201-61.846-61.926-3.073-3.096-4.94-2.64-7.808.262-20.236,20.475-40.552,40.848-61.038,61.061-3.392,3.346-3.346,5.304,0,8.616,20.612,20.361,41.053,40.882,61.448,61.448,2.493,2.504,4.245,2.993,6.965.25,20.68-20.839,41.474-41.565,62.211-62.359,1.036-1.036,1.832-2.31,2.925-3.71ZM-76.953,592.716c3.084-3.062,3.346-5.201.102-8.377-13.134-12.838-26.143-25.802-38.993-38.924-8.456-8.627-16.56-17.607-24.971-26.587-2.618,2.106-3.414,2.629-4.075,3.289-21.056,21.01-42.043,42.088-63.189,63.019-3.084,3.062-1.992,4.894.535,7.398,17.857,17.778,35.612,35.646,53.436,53.47,3.836,3.836,7.796,7.546,11.768,11.381,1.354-1.047,2.333-1.639,3.118-2.424,20.748-20.748,41.44-41.565,62.268-62.245ZM-143.819,226.008c24.242-24.163,46.994-46.846,69.597-69.381-22.626-22.455-45.434-45.104-68.482-67.992-.285.193-1.297.728-2.071,1.502-21.215,21.147-42.373,42.35-63.633,63.451-3.062,3.027-1.275,4.814.888,6.977,15.832,15.775,31.72,31.515,47.403,47.438,5.816,5.907,11.142,12.281,16.298,18.005ZM-142.112,512.511c22.558-22.626,45.252-45.366,67.776-67.947-22.501-22.41-45.275-45.093-67.674-67.401-22.615,22.433-45.4,45.048-67.696,67.173,22.512,22.694,45.15,45.526,67.594,68.174ZM-145.446,228.876c-.876-1.161-1.548-2.276-2.424-3.175-2.902-2.993-5.884-5.918-8.821-8.866-17.812-17.812-35.669-35.601-53.401-53.492-2.732-2.766-4.655-3.608-7.853-.387-20.509,20.748-41.189,41.337-61.835,61.949-2.151,2.14-3.972,3.801-.842,6.908,21.26,21.056,42.384,42.236,63.474,63.451,2.276,2.288,3.847,2.208,6.078-.034,20.953-21.09,41.997-42.088,62.985-63.133.911-.911,1.639-1.992,2.64-3.221ZM-147.882,87.781c2.618-2.595,1.923-4.279-.33-6.533-20.953-20.862-41.872-41.758-62.7-62.746-2.481-2.493-4.131-2.31-6.522.091-20.839,20.976-41.736,41.895-62.746,62.711-2.72,2.697-2.527,4.484.046,6.977,6.135,5.907,12.133,11.973,18.131,18.017,15.604,15.706,31.174,31.435,47.062,47.46,1.434-.967,2.128-1.297,2.64-1.798,21.465-21.397,42.896-42.84,64.419-64.18ZM-147.984,375.73c.899-.899,1.582-2.026,2.515-3.232-.933-1.184-1.616-2.299-2.527-3.198-20.862-20.896-41.792-41.736-62.586-62.711-2.879-2.902-4.655-2.504-7.352.205-20.657,20.839-41.417,41.588-62.245,62.256-2.606,2.584-2.743,4.314-.08,6.954,20.976,20.817,41.861,41.724,62.7,62.677,2.333,2.345,4.018,2.72,6.544.182,20.965-21.101,42.02-42.088,63.03-63.133ZM-148.883-55.203c1.172-1.172,2.185-2.493,3.039-3.483-23.116-23.093-45.947-45.901-68.55-68.47-22.478,22.41-45.23,45.082-68.493,68.254,1.639,1.719,3.039,3.244,4.496,4.701,19.963,19.986,40.017,39.869,59.798,60.025,3.676,3.744,5.679,3.164,9.048-.25,20.1-20.373,40.427-40.529,60.663-60.777ZM-149.418,521.23c1.411-1.411,2.64-2.993,3.562-4.04-23.218-23.241-45.924-45.969-68.448-68.527-22.467,22.49-45.15,45.207-68.277,68.345.717.865,1.354,1.787,2.14,2.572,21.021,21.078,42.1,42.088,63.007,63.258,3.289,3.323,4.996,1.468,7.33-.865,20.202-20.282,40.461-40.495,60.686-60.742ZM-220.12,591.976c3.71-3.665,1.127-5.452-1.184-7.762-20.225-20.225-40.54-40.381-60.606-60.777-3.38-3.437-5.258-3.323-8.559.034-19.952,20.213-40.028,40.301-60.253,60.242-3.642,3.585-3.995,5.805-.125,9.56,14.113,13.726,27.862,27.839,41.792,41.77,7.466,7.455,15.012,14.819,22.626,22.342,1.229-.922,2.06-1.377,2.697-2.026,21.192-21.135,42.316-42.362,63.611-63.383ZM-220.324,448.07c2.993-2.971,2.356-4.803-.273-7.398-13.077-12.895-26.086-25.847-38.981-38.913-8.616-8.707-17.004-17.641-24.902-25.881-23.946,23.742-46.846,46.436-69.597,68.994,22.512,22.501,45.23,45.195,68.14,68.072.819-.637,1.923-1.354,2.845-2.276,20.919-20.873,41.758-41.815,62.768-62.598ZM-220.677,304.665c2.891-2.868,3.335-4.78.25-7.842-20.862-20.646-41.576-41.44-62.347-62.176-.911-.899-2.015-1.593-3.266-2.572-1.32,1.047-2.584,1.844-3.619,2.879-20.521,20.464-40.973,41.007-61.562,61.414-3.005,2.971-3.551,5.019-.216,8.308,20.646,20.35,41.144,40.836,61.551,61.414,2.936,2.971,4.723,3.107,7.762.034,20.361-20.612,40.859-41.087,61.448-61.459ZM-221.371,161.225c3.597-3.528,3.767-5.463.171-9.014-17.846-17.55-35.43-35.362-53.14-53.06-3.824-3.824-7.773-7.546-11.666-11.324-1.195.945-1.832,1.354-2.356,1.878-21.215,21.158-42.362,42.362-63.667,63.417-3.016,2.982-2.288,4.871.307,7.421,9.595,9.435,19.109,18.95,28.579,28.51,12.007,12.087,23.946,24.242,36.5,36.978,2.458-2.288,4.143-3.767,5.725-5.349,19.826-19.849,39.528-39.801,59.547-59.456ZM-221.531,17.455c3.744-3.688,3.927-5.725.137-9.412-13.988-13.612-27.736-27.475-41.417-41.405-7.534-7.682-14.739-15.672-22.091-23.525-.478.376-.956.74-1.434,1.115-.751.512-1.605.933-2.242,1.571-21.056,20.999-42.031,42.066-63.189,62.95-3.562,3.517-2.003,5.6.751,8.331,19.348,19.235,38.594,38.56,57.908,57.829,2.219,2.231,4.598,4.302,7.056,6.59,1.548-1.4,2.697-2.356,3.744-3.403,20.236-20.236,40.358-40.597,60.777-60.64ZM-289.5,228.034c-.74-.842-1.423-1.73-2.219-2.515-20.634-20.634-41.371-41.178-61.858-61.972-3.574-3.631-5.611-3.369-9.06.125-20.088,20.407-40.427,40.575-60.663,60.845-1.184,1.184-2.265,2.481-2.891,3.175,23.047,23.116,45.844,45.981,68.448,68.641,22.308-22.33,45.048-45.082,68.243-68.3ZM-301.326,385.518c4.12-4.063,8.752-7.626,12.508-10.869-24.208-24.356-46.96-47.244-69.916-70.326-.489.387-1.263.911-1.912,1.559-21.181,21.135-42.305,42.35-63.588,63.383-3.21,3.175-1.798,4.905.637,7.33,20.418,20.304,40.848,40.597,61.05,61.118,3.517,3.574,5.531,3.574,9.025.011,17.243-17.561,34.69-34.907,52.195-52.206ZM-358.119,152.655c22.433-22.478,45.252-45.343,66.968-67.105-22.478-22.74-45.264-45.776-67.571-68.334-22.319,22.319-45.025,45.025-67.401,67.401,22.615,22.615,45.434,45.457,68.004,68.038ZM-357.709,8.589c22.296-22.353,45.002-45.104,67.196-67.355-22.877-22.854-45.696-45.662-67.571-67.526-22.353,22.228-45.207,44.979-67.457,67.116,22.421,22.399,45.218,45.184,67.833,67.765ZM-290.741,516.893c-22.512-22.615-45.287-45.503-67.241-67.571-22.524,22.376-45.412,45.116-68.106,67.651,22.387,22.376,45.093,45.07,67.412,67.389,22.888-22.729,45.799-45.48,67.935-67.469ZM-363.889,15.714c3.073-3.039,1.297-4.792-.876-6.954-20.543-20.475-41.098-40.95-61.505-61.562-2.948-2.982-4.769-3.084-7.785-.023-20.373,20.623-40.939,41.064-61.414,61.585-1.172,1.172-2.162,2.527-2.971,3.471,22.945,23.013,45.617,45.753,68.516,68.721.501-.285.899-.398,1.161-.66,21.613-21.534,43.192-43.113,64.874-64.578ZM-364.948,592.739c3.585-3.528,2.868-5.497-.285-8.616-20.225-19.997-40.29-40.165-60.424-60.253-1.423-1.411-3.016-2.652-4.382-3.847-23.081,23.07-45.708,45.685-68.118,68.095,22.877,22.979,45.548,45.742,68.493,68.789,1.002-.888,2.322-1.923,3.494-3.107,20.384-20.361,40.677-40.836,61.22-61.061ZM-430.186,224.323c22.626-22.501,45.412-45.15,68.038-67.651-22.638-22.433-45.457-45.048-67.879-67.275-22.387,22.285-45.218,45.013-67.401,67.105,22.353,22.547,44.979,45.366,67.241,67.822ZM-362.546,301.136c-22.74-22.911-45.332-45.685-68.095-68.641-.285.193-.979.535-1.491,1.047-21.329,21.238-42.601,42.544-64.009,63.713-3.13,3.096-1.81,4.928.66,7.387,15.592,15.467,31.06,31.06,46.607,46.573,6.112,6.1,12.326,12.087,18.37,18.005,23.252-23.286,45.924-46.015,67.958-68.083ZM-362.079,444.667c-22.558-22.558-45.298-45.275-67.753-67.719-22.763,22.694-45.514,45.378-67.514,67.309,22.433,22.626,45.139,45.526,67.412,67.992,22.512-22.421,45.275-45.093,67.856-67.583ZM-433.93,228.102c-.114-.171-.432-.876-.933-1.377-21.42-21.465-42.874-42.885-64.259-64.384-2.288-2.299-3.892-2.185-6.089.08-6.078,6.26-12.326,12.326-18.495,18.483-15.684,15.627-31.356,31.265-46.538,46.413,23.286,23.48,46.015,46.402,68.254,68.835,22.399-22.387,45.127-45.116,68.061-68.049ZM-443.172,383.014c3.323-3.301,7.216-6.009,10.425-8.65-24.151-24.208-46.857-46.96-69.335-69.483-22.774,22.763-45.537,45.514-68.482,68.459.319.376.831,1.161,1.48,1.81,21.01,21.044,42.088,42.043,63.019,63.167,2.993,3.016,4.951,2.777,7.853-.159,18.244-18.495,36.603-36.864,55.04-55.143ZM-502.469,583.85c22.649-22.376,45.605-45.07,67.583-66.797-22.49-22.66-45.23-45.594-67.503-68.038-22.41,22.376-45.161,45.104-67.298,67.207,22.797,22.945,45.56,45.833,67.218,67.628ZM-434.169-59.084c-22.547-22.49-45.298-45.207-68.083-67.935-22.455,22.444-45.298,45.275-67.89,67.844,22.603,22.615,45.434,45.446,67.958,67.981,22.626-22.592,45.48-45.4,68.015-67.89ZM-501.843,152.006c22.376-22.285,45.161-44.968,67.753-67.457-22.603-22.558-45.469-45.366-68.118-67.958-22.524,22.547-45.355,45.4-67.321,67.389,22.592,22.706,45.469,45.696,67.685,68.027ZM-505.28,301.387c-.808-1.423-.99-1.992-1.377-2.367-21.408-21.488-42.885-42.908-64.225-64.453-2.868-2.902-4.746-1.901-7.045.41-20.737,20.794-41.474,41.576-62.302,62.268-2.424,2.413-2.595,4.131-.159,6.556,20.828,20.703,41.644,41.428,62.313,62.29,3.323,3.358,5.383,2.595,8.308-.376,13.009-13.259,26.177-26.359,39.334-39.482,8.308-8.286,16.685-16.492,25.153-24.846ZM-505.747,588.141c-.592-.717-1.32-1.798-2.231-2.709-20.896-20.919-41.849-41.781-62.655-62.791-2.788-2.811-4.541-2.208-6.954.216-21.01,21.101-42.088,42.122-63.11,63.201-.751.74-1.172,1.81-1.696,2.663,22.922,22.808,45.605,45.389,68.186,67.856,22.808-22.797,45.526-45.503,68.459-68.436ZM-575.184,81.692c23.776-23.742,46.504-46.436,68.63-68.527-22.569-22.638-45.332-45.469-68.231-68.436-.239.171-.911.535-1.434,1.058-21.351,21.283-42.646,42.601-64.043,63.827-2.663,2.64-1.787,4.336.444,6.533,7.432,7.307,14.784,14.693,22.091,22.125,14.215,14.454,28.374,28.954,42.544,43.42ZM-506.953,444.986c-22.308-22.581-44.888-45.446-66.854-67.685-22.638,22.558-45.469,45.321-67.708,67.48,22.364,22.512,45.013,45.309,67.082,67.526,22.706-22.66,45.548-45.446,67.48-67.321ZM-574.058,224.403c22.615-22.66,45.332-45.423,67.492-67.617-22.49-22.615-45.23-45.503-67.537-67.935-22.615,22.478-45.434,45.161-67.992,67.583,22.638,22.615,45.378,45.332,68.038,67.97Z"/>
          <path class="cls-7" d="M265.012,101.496v5.691c-15.137,15.752-30.263,31.492-45.184,47.028-.08.091-.171.171-.25.262-24.22-24.356-47.005-47.244-69.495-69.859,22.273-22.251,45.116-45.07,68.288-68.22,1.434,1.32,3.414,3.027,5.27,4.871,12.349,12.315,24.652,24.675,37.024,36.978,1.297,1.286,2.891,2.276,4.348,3.414v5.691c-7.614-7.364-15.285-14.659-22.808-22.103-7.933-7.853-15.718-15.843-23.15-23.355-21.511,21.499-42.578,42.555-62.939,62.916,20.418,20.498,41.337,41.508,62.985,63.235,15.069-15.285,30.491-30.923,45.912-46.55Z"/>
          <path class="cls-6" d="M265.012,67.351v34.144c-15.422,15.627-30.844,31.265-45.912,46.55-21.647-21.727-42.566-42.737-62.985-63.235,20.361-20.361,41.428-41.417,62.939-62.916,7.432,7.512,15.217,15.501,23.15,23.355,7.523,7.443,15.194,14.739,22.808,22.103ZM246.836,84.663c-13.567-6.328-21.989-16.059-29.296-28.476-6.294,12.975-15.752,21.647-28.169,28.624,12.724,6.772,21.75,15.911,28.317,28.556,6.897-12.451,15.706-21.841,29.148-28.704Z"/>
          <path class="cls-6" d="M265.012-76.054v34.144c-9.355,9.094-18.779,18.108-28.044,27.304-6.26,6.226-12.292,12.702-17.88,18.495-21.886-21.852-42.874-42.805-63.201-63.098,20.589-20.725,41.474-41.736,63.098-63.485,15.194,15.388,30.605,31.014,46.026,46.641ZM240.269-48.397c7.034-8.513,9.595-18.802,5.497-29.808-2.117-5.679-5.725-10.004-12.053-10.676-5.987-.626-9.879,2.959-12.85,7.728-.842,1.366-1.73,2.709-2.993,4.701-1.639-2.401-2.743-4.097-3.915-5.748-7.011-9.754-18.233-8.707-23.366,2.219-3.232,6.863-3.13,14.01-.922,21.033,4.143,13.1,14.045,21.226,25.38,27.771,1.525.888,4.814.592,6.203-.512,6.613-5.258,13.703-10.277,19.018-16.708Z"/>
          <path class="cls-7" d="M219.247-126.951c.66.66,1.32,1.32,1.992,1.98l-2.254,2.276c-21.625,21.75-42.509,42.76-63.098,63.485,20.327,20.293,41.314,41.246,63.201,63.098l1.901,2.811c-1.013.933-2.037,1.81-2.936,2.606-22.99-23.059-45.685-45.821-67.958-68.163,22.524-22.353,45.446-45.093,68.88-68.357.091.091.182.182.273.262Z"/>
          <path class="cls-12" d="M208.276,155.546c.239.25.319.672,1.115,2.413-11.802,11.563-23.719,23.184-35.567,34.873-7.956,7.853-15.945,15.684-23.685,23.753-2.959,3.084-4.86,3.642-8.206.228-18.597-18.916-37.376-37.638-56.258-56.27-3.084-3.039-2.845-5.031.011-7.876,18.961-18.802,37.843-37.695,56.725-56.588,1.969-1.98,3.688-3.084,6.169-.58,19.861,20.054,39.789,40.04,59.695,60.048ZM168.543,172.413c5.326-3.107,7.387-8.047,7.011-13.908-.41-6.283-4.496-11.359-10.585-12.531-3.71-.706-4.291-2.481-4.655-5.702-.979-8.764-6.374-13.396-14.773-13.259-8.001.125-13.145,5.406-14.375,13.919-.262,1.764-2.299,4.131-4.006,4.655-6.066,1.878-9.765,5.486-10.744,11.791-.945,6.203,1.445,11.632,6.419,14.648,5.27,3.175,12.372,2.936,17.163-.637,1.286-.956,2.47-2.037,3.699-3.062.478.285.967.569,1.445.854-2.538,5.588-5.065,11.177-7.557,16.685h16.469c-2.549-5.657-5.087-11.268-7.614-16.867.432-.285.876-.569,1.32-.854,1.377,1.15,2.72,2.345,4.154,3.426,4.609,3.505,11.484,3.847,16.628.842Z"/>
          <path class="cls-12" d="M205.533,8.487c3.449,3.392,3.301,5.281-.034,8.559-18.916,18.62-37.627,37.456-56.418,56.201-.922.922-1.946,1.741-3.642,3.244-9.344-9.435-18.233-18.461-27.179-27.441-10.835-10.881-21.613-21.818-32.642-32.494-3.084-2.982-3.039-4.746,0-7.751,18.745-18.506,37.365-37.137,55.86-55.905,3.289-3.335,5.213-3.414,8.593.034,18.313,18.688,36.796,37.206,55.461,55.553ZM171.207,32.092c5.235-4.803,5.782-14.397,1.036-20.247-2.39-2.936-4.917-5.77-7.5-8.536-6.169-6.578-12.417-13.1-19.246-20.293-9.344,10.368-18.529,19.895-26.894,30.104-4.883,5.952-2.902,15.445,2.936,19.838,5.748,4.336,12.394,3.346,18.085-2.993,1.184-1.32,1.48-3.426,2.197-5.167,1.058.922,2.117,1.832,3.175,2.743-2.732,4.598-5.474,9.208-8.195,13.783h18.176c-3.096-4.894-5.85-9.23-8.604-13.578,1.093-.979,2.197-1.958,3.289-2.936.774,1.764,1.15,3.892,2.39,5.247,5.713,6.248,13.749,6.988,19.155,2.037Z"/>
          <path class="cls-6" d="M175.554,158.505c.376,5.861-1.684,10.801-7.011,13.908-5.144,3.005-12.019,2.663-16.628-.842-1.434-1.081-2.777-2.276-4.154-3.426-.444.285-.888.569-1.32.854l-1.297.182c-.478-.285-.967-.569-1.445-.854-1.229,1.024-2.413,2.106-3.699,3.062-4.792,3.574-11.894,3.813-17.163.637-4.974-3.016-7.364-8.445-6.419-14.648.979-6.305,4.678-9.913,10.744-11.791,1.707-.524,3.744-2.891,4.006-4.655,1.229-8.513,6.374-13.794,14.375-13.919,8.399-.137,13.794,4.496,14.773,13.259.364,3.221.945,4.996,4.655,5.702,6.089,1.172,10.175,6.248,10.585,12.531Z"/>
          <path class="cls-6" d="M172.242,11.844c4.746,5.85,4.2,15.445-1.036,20.247-5.406,4.951-13.441,4.211-19.155-2.037-1.241-1.354-1.616-3.483-2.39-5.247-1.093.979-2.197,1.958-3.289,2.936l-1.377-.205c-1.058-.911-2.117-1.821-3.175-2.743-.717,1.741-1.013,3.847-2.197,5.167-5.691,6.339-12.337,7.33-18.085,2.993-5.839-4.393-7.819-13.885-2.936-19.838,8.365-10.209,17.55-19.735,26.894-30.104,6.829,7.193,13.077,13.715,19.246,20.293,2.584,2.766,5.11,5.6,7.5,8.536Z"/>
          <path class="cls-6" d="M154.977,41.322h-18.176c2.72-4.575,5.463-9.185,8.195-13.783l1.377.205c2.754,4.348,5.509,8.684,8.604,13.578Z"/>
          <path class="cls-7" d="M145.951-55.158c22.399,22.433,45.002,45.059,67.059,67.139-22.49,22.535-45.275,45.378-67.913,68.072-21.921-22.046-44.569-44.831-66.661-67.059,22.455-22.66,45.07-45.491,67.514-68.152ZM205.499,17.046c3.335-3.278,3.483-5.167.034-8.559-18.665-18.347-37.149-36.864-55.461-55.553-3.38-3.449-5.304-3.369-8.593-.034-18.495,18.768-37.115,37.399-55.86,55.905-3.039,3.005-3.084,4.769,0,7.751,11.029,10.676,21.807,21.613,32.642,32.494,8.946,8.98,17.835,18.005,27.179,27.441,1.696-1.502,2.72-2.322,3.642-3.244,18.791-18.745,37.502-37.581,56.418-56.201Z"/>
          <path class="cls-7" d="M212.874,157.333c-21.864,21.875-44.569,44.604-66.979,67.025-22.535-22.547-45.275-45.287-67.753-67.788,22.33-22.194,45.104-44.843,67.628-67.241,21.841,22.137,44.501,45.104,67.105,68.004ZM209.391,157.959c-.797-1.741-.876-2.162-1.115-2.413-19.906-20.008-39.835-39.994-59.695-60.048-2.481-2.504-4.2-1.4-6.169.58-18.882,18.893-37.763,37.786-56.725,56.588-2.857,2.845-3.096,4.837-.011,7.876,18.882,18.631,37.661,37.354,56.258,56.27,3.346,3.414,5.247,2.857,8.206-.228,7.739-8.069,15.729-15.9,23.685-23.753,11.848-11.689,23.764-23.309,35.567-34.873Z"/>
          <path class="cls-6" d="M134.672-62.226c.774.785,1.4,1.741,2.276,2.834-.819,1.127-1.457,2.276-2.345,3.164C115.358-36.913,96.055-17.656,76.844,1.692c-2.265,2.276-3.824,2.254-6.078-.011C51.543-17.667,32.263-36.959,12.926-56.193c-2.242-2.219-2.322-3.779-.011-6.078,19.36-19.235,38.64-38.526,57.852-57.897,2.299-2.31,3.824-2.231,6.066.023,19.235,19.348,38.56,38.617,57.84,57.92ZM73.862-30.506c6.647-12.941,15.718-22.034,28.92-28.795-13.396-6.408-22.034-16.127-29.136-28.397-6.681,12.872-15.854,21.807-28.59,28.533,13.157,6.681,22.068,16.105,28.806,28.658Z"/>
          <path class="cls-6" d="M134.206,81.123c2.527,2.515,2.925,4.2.148,6.931-19.121,18.927-38.139,37.957-57.066,57.066-2.561,2.595-4.177,2.891-6.886.137-18.916-19.132-37.946-38.15-57.043-57.089-2.606-2.584-2.811-4.245-.102-6.92,19.235-19.052,38.332-38.253,57.499-57.374.899-.888,2.015-1.548,3.175-2.436,1.218,1.036,2.276,1.798,3.187,2.709,19.03,18.996,38.002,38.037,57.089,56.975ZM95.828,96.317c7.091-8.286,9.583-18.426,6.385-29.25-1.741-5.861-5.099-10.71-11.711-11.757-6.544-1.036-10.653,2.675-13.783,7.899-.74,1.241-1.673,2.356-2.936,4.12-1.719-2.458-3.039-4.439-4.45-6.351-5.565-7.569-13.919-7.956-20.145-.899-4.735,5.361-5.713,11.916-4.803,18.62,2.288,16.879,13.84,26.655,27.543,34.463,1.332.751,4.314.159,5.645-.911,6.317-5.053,13.054-9.856,18.256-15.934Z"/>
          <path class="cls-7" d="M73.918,17.672c21.818,21.852,44.729,44.797,67.184,67.298-21.989,22.091-44.786,44.991-67.366,67.662-22.433-22.603-45.093-45.434-67.446-67.947C28.53,62.662,51.452,39.934,73.918,17.672ZM134.354,88.054c2.777-2.732,2.379-4.416-.148-6.931-19.087-18.939-38.059-37.98-57.089-56.975-.911-.911-1.969-1.673-3.187-2.709-1.161.888-2.276,1.548-3.175,2.436-19.166,19.121-38.264,38.321-57.499,57.374-2.709,2.675-2.504,4.336.102,6.92,19.098,18.939,38.128,37.957,57.043,57.089,2.709,2.754,4.325,2.458,6.886-.137,18.927-19.109,37.946-38.139,57.066-57.066Z"/>
          <path class="cls-7" d="M102.213,67.067c3.198,10.824.706,20.965-6.385,29.25-5.201,6.078-11.939,10.881-18.256,15.934-1.332,1.07-4.314,1.662-5.645.911-13.703-7.808-25.255-17.584-27.543-34.463-.911-6.704.068-13.259,4.803-18.62,6.226-7.056,14.58-6.669,20.145.899,1.411,1.912,2.732,3.892,4.45,6.351,1.263-1.764,2.197-2.879,2.936-4.12,3.13-5.224,7.239-8.934,13.783-7.899,6.613,1.047,9.97,5.896,11.711,11.757Z"/>
          <path class="cls-7" d="M141.729-59.096C119.068-36.322,96.408-13.547,73.987,8.976,51.292-13.752,28.484-36.595,6.017-59.096c22.501-22.455,45.355-45.252,67.992-67.833,22.296,22.33,45.116,45.195,67.719,67.833ZM136.949-59.392c-.876-1.093-1.502-2.049-2.276-2.834-19.28-19.303-38.606-38.572-57.84-57.92-2.242-2.254-3.767-2.333-6.066-.023-19.212,19.371-38.492,38.663-57.852,57.897-2.31,2.299-2.231,3.858.011,6.078C32.263-36.959,51.543-17.667,70.766,1.681c2.254,2.265,3.813,2.288,6.078.011,19.212-19.348,38.515-38.606,57.761-57.92.888-.888,1.525-2.037,2.345-3.164Z"/>
          <path class="cls-7" d="M67.875,9.557c.911.922,1.696,1.958,2.219,2.584C47.195,35.108,24.512,57.871,1.51,80.941c-.922-.763-2.288-1.707-3.46-2.868-20.532-20.498-40.984-41.075-61.607-61.482-2.948-2.925-3.175-4.757-.091-7.808C-43.014-11.624-22.539-32.179-2.075-52.745c2.458-2.47,4.2-3.744,7.352-.558C26.037-32.247,46.99-11.385,67.875,9.557ZM63.004,15.555c2.094-2.094,1.969-3.619-.091-5.668C43.587-9.348,24.318-28.639,5.073-47.965c-2.049-2.049-3.744-2.834-6.157-.41C-20.456-28.912-39.873-9.496-59.335,9.887c-2.094,2.094-1.958,3.699.068,5.713C-39.804,34.983-20.388,54.399-.925,73.782c.774.774,1.787,1.286,2.879,2.06,1.013-.74,2.003-1.297,2.777-2.071C24.159,54.377,43.553,34.937,63.004,15.555Z"/>
          <path class="cls-12" d="M62.913,9.887c2.06,2.049,2.185,3.574.091,5.668C43.553,34.937,24.159,54.377,4.731,73.771c-.774.774-1.764,1.332-2.777,2.071-1.093-.774-2.106-1.286-2.879-2.06C-20.388,54.399-39.804,34.983-59.266,15.6c-2.026-2.015-2.162-3.619-.068-5.713C-39.873-9.496-20.456-28.912-1.085-48.374c2.413-2.424,4.109-1.639,6.157.41C24.318-28.639,43.587-9.348,62.913,9.887ZM23.579,28.917c5.679-2.971,8.502-8.126,7.91-14.454-.592-6.339-4.075-10.778-10.607-12.428-3.437-.865-4.325-2.549-4.587-5.873-.637-8.172-6.157-13.02-14.261-13.157-7.785-.125-13.874,4.962-14.568,12.941-.307,3.585-1.366,5.281-4.94,6.18-6.226,1.559-10.038,6.339-10.357,12.622-.296,5.93,1.98,10.71,7.364,13.703,5.292,2.959,12.042,2.515,16.56-1.104,1.354-1.081,2.618-2.288,3.927-3.449.444.307.888.615,1.343.922-2.504,5.622-5.008,11.256-7.443,16.731H10.069c-2.697-5.861-5.156-11.177-7.614-16.503.478-.273.945-.546,1.411-.808,1.104.899,2.219,1.787,3.323,2.697,4.894,4.075,10.983,4.814,16.389,1.98Z"/>
          <path class="cls-12" d="M65.018,156.866c-1.047,1.241-1.81,2.299-2.72,3.21-19.018,19.03-38.082,38.002-57.021,57.1-2.549,2.561-4.268,2.834-6.954.125-18.95-19.109-37.98-38.128-57.112-57.043-2.652-2.618-2.72-4.359-.102-6.965,19.098-18.939,38.128-37.934,57.078-57.021,2.584-2.595,4.416-2.754,7.022-.137,18.961,19.075,38.014,38.059,57.009,57.112,1.024,1.024,1.798,2.299,2.8,3.619ZM26.333,176.806c5.349-3.995,7.421-13.84,2.8-19.53-8.434-10.368-17.755-20.008-27.304-30.616-9.606,10.642-18.927,20.304-27.429,30.65-4.689,5.702-2.709,15.069,2.857,19.508,5.622,4.484,12.656,3.312,18.586-2.993,1.229-1.297,2.754-2.322,4.143-3.471.398.41.797.808,1.206,1.218-2.902,4.632-5.805,9.264-8.877,14.17H10.979c-2.879-4.826-5.691-9.56-8.513-14.284.865-.683,1.741-1.377,2.606-2.06.808,1.48,1.354,3.21,2.47,4.416,5.702,6.135,13.1,7.239,18.791,2.993Z"/>
          <path class="cls-6" d="M31.489,14.462c.592,6.328-2.231,11.484-7.91,14.454-5.406,2.834-11.495,2.094-16.389-1.98-1.104-.911-2.219-1.798-3.323-2.697-.467.262-.933.535-1.411.808l-1.093-.228c-.455-.307-.899-.615-1.343-.922-1.309,1.161-2.572,2.367-3.927,3.449-4.518,3.619-11.268,4.063-16.56,1.104-5.383-2.993-7.66-7.773-7.364-13.703.319-6.283,4.131-11.063,10.357-12.622,3.574-.899,4.632-2.595,4.94-6.18.694-7.978,6.783-13.066,14.568-12.941,8.104.137,13.624,4.985,14.261,13.157.262,3.323,1.15,5.008,4.587,5.873,6.533,1.65,10.016,6.089,10.607,12.428Z"/>
          <path class="cls-6" d="M29.133,157.276c4.621,5.691,2.549,15.536-2.8,19.53-5.691,4.245-13.089,3.141-18.791-2.993-1.115-1.206-1.662-2.936-2.47-4.416-.865.683-1.741,1.377-2.606,2.06l-1.275.114c-.41-.41-.808-.808-1.206-1.218-1.389,1.15-2.914,2.174-4.143,3.471-5.93,6.305-12.963,7.478-18.586,2.993-5.565-4.439-7.546-13.806-2.857-19.508,8.502-10.346,17.823-20.008,27.429-30.65,9.549,10.607,18.87,20.247,27.304,30.616Z"/>
          <path class="cls-7" d="M2.102,88.748c22.262,22.444,44.877,45.241,67.173,67.719-22.262,22.273-45.082,45.093-67.651,67.674-22.273-22.353-44.945-45.104-67.309-67.549C-43.401,134.285-20.593,111.466,2.102,88.748ZM62.298,160.076c.911-.911,1.673-1.969,2.72-3.21-1.002-1.32-1.775-2.595-2.8-3.619-18.996-19.052-38.048-38.037-57.009-57.112-2.606-2.618-4.439-2.458-7.022.137-18.95,19.087-37.98,38.082-57.078,57.021-2.618,2.606-2.549,4.348.102,6.965,19.132,18.916,38.162,37.934,57.112,57.043,2.686,2.709,4.405,2.436,6.954-.125,18.939-19.098,38.002-38.071,57.021-57.1Z"/>
          <path class="cls-6" d="M10.069,41.55H-6.081c2.436-5.474,4.94-11.108,7.443-16.731l1.093.228c2.458,5.326,4.917,10.642,7.614,16.503Z"/>
        </g>
      </g>
      <g>
        <rect class="cls-8" x="-.124" y="46.791" width="171.794" height="6.729" transform="translate(-7.591 16.16) rotate(-10.31)"/>
        <rect class="cls-9" x="-.124" y="52.283" width="171.794" height="14.217" transform="translate(12.096 -14.474) rotate(10.373)"/>
        <circle class="cls-3" cx="62.961" cy="54.412" r="16.856"/>
        <path class="cls-2" d="M58.139,48.461c2.09.012,3.904,1.28,4.678,3.276.021.055.046.132.09.15.087.037.15.002.188-.106.243-.677.624-1.269,1.122-1.79,1.943-2.033,4.848-1.816,6.456-.643,1.237.903,1.922,2.108,2.013,3.645.083,1.408-.393,2.634-1.193,3.763-.387.546-.864.997-1.37,1.427-1.898,1.614-3.787,3.236-5.68,4.855-.452.387-.908.77-1.356,1.162-.095.083-.148.087-.246.003-1.379-1.186-2.763-2.368-4.145-3.55-1.169-1-2.352-1.984-3.498-3.009-.36-.322-.65-.735-.926-1.137-.64-.929-1.006-1.955-1.041-3.097-.076-2.501,1.755-4.626,4.24-4.898.222-.024.446-.035.669-.052Z"/>
      </g>
    </g>
  </g>
</svg>