<?xml version="1.0" encoding="UTF-8"?>
<svg id="Layer_2" data-name="Layer 2" xmlns="http://www.w3.org/2000/svg" viewBox="0 0 85.878 99.373">
  <defs>
    <style>
      .cls-1 {
        fill: #b4515a;
      }

      .cls-1, .cls-2, .cls-3, .cls-4 {
        stroke-width: 0px;
      }

      .cls-2 {
        fill: #d27381;
      }

      .cls-3 {
        fill: #9ba8d5;
      }

      .cls-4 {
        fill: #7e2626;
      }
    </style>
  </defs>
  <g id="Alice">
    <g>
      <g>
        <rect class="cls-1" y="13.555" width="85.818" height="85.818"/>
        <g>
          <rect class="cls-3" y="74.334" width="85.818" height="5.614"/>
          <rect class="cls-3" y="31.172" width="85.878" height="7.018"/>
          <rect class="cls-3" x="14.996" y="38.191" width="7.018" height="36.143"/>
          <rect class="cls-3" x="61.666" y="38.191" width="7.72" height="36.143"/>
          <path class="cls-4" d="M12.44,46.323c2.628.016,4.91,1.61,5.884,4.12.027.069.058.166.113.189.109.046.188.003.237-.133.306-.852.785-1.596,1.411-2.251,2.444-2.557,6.098-2.285,8.12-.809,1.556,1.135,2.418,2.652,2.532,4.585.104,1.771-.494,3.313-1.5,4.733-.486.687-1.087,1.254-1.723,1.795-2.387,2.03-4.764,4.071-7.145,6.107-.569.487-1.142.969-1.706,1.462-.119.104-.186.109-.309.003-1.735-1.492-3.475-2.978-5.214-4.466-1.47-1.258-2.958-2.496-4.4-3.785-.453-.405-.817-.924-1.165-1.43-.805-1.169-1.265-2.459-1.309-3.895-.096-3.146,2.208-5.819,5.334-6.161.28-.031.561-.044.842-.066Z"/>
          <path class="cls-4" d="M59.461,46.323c2.628.016,4.91,1.61,5.884,4.12.027.069.058.166.113.189.109.046.188.003.237-.133.306-.852.785-1.596,1.411-2.251,2.444-2.557,6.098-2.285,8.12-.809,1.556,1.135,2.418,2.652,2.532,4.585.104,1.771-.494,3.313-1.5,4.733-.486.687-1.087,1.254-1.723,1.795-2.387,2.03-4.764,4.071-7.145,6.107-.569.487-1.142.969-1.706,1.462-.119.104-.186.109-.309.003-1.735-1.492-3.475-2.978-5.214-4.466-1.47-1.258-2.958-2.496-4.4-3.785-.453-.405-.817-.924-1.165-1.43-.805-1.169-1.265-2.459-1.309-3.895-.096-3.146,2.208-5.819,5.334-6.161.28-.031.561-.044.842-.066Z"/>
          <circle class="cls-2" cx="17.803" cy="88.21" r="2.807"/>
          <circle class="cls-2" cx="65.526" cy="88.21" r="2.807"/>
          <circle class="cls-2" cx="17.803" cy="23.804" r="2.807"/>
          <circle class="cls-2" cx="65.526" cy="23.804" r="2.807"/>
        </g>
      </g>
      <path class="cls-4" d="M33.458,0c4.122.024,7.7,2.525,9.227,6.461.042.109.091.26.177.296.171.073.295.004.371-.208.48-1.336,1.231-2.503,2.212-3.53,3.833-4.009,9.562-3.583,12.734-1.268,2.44,1.78,3.792,4.158,3.97,7.189.163,2.776-.775,5.195-2.352,7.421-.762,1.077-1.704,1.966-2.702,2.815-3.743,3.183-7.47,6.383-11.204,9.577-.892.763-1.791,1.519-2.674,2.293-.187.163-.292.171-.485.005-2.721-2.34-5.45-4.67-8.176-7.003-2.306-1.972-4.639-3.914-6.9-5.935-.711-.635-1.281-1.449-1.827-2.242-1.262-1.833-1.984-3.857-2.053-6.108-.15-4.934,3.462-9.124,8.364-9.661.438-.048.88-.069,1.32-.103Z"/>
    </g>
  </g>
</svg>