<?xml version="1.0" encoding="UTF-8"?>
<svg id="Layer_2" data-name="Layer 2" xmlns="http://www.w3.org/2000/svg" viewBox="0 0 105.065 63.458">
  <defs>
    <style>
      .cls-1 {
        fill: #9ba8d5;
      }

      .cls-1, .cls-2, .cls-3, .cls-4 {
        stroke-width: 0px;
      }

      .cls-2 {
        fill: #c96b78;
      }

      .cls-3 {
        fill: #7d2727;
      }

      .cls-4 {
        fill: #bf6a6f;
      }
    </style>
  </defs>
  <g id="Alice">
    <g>
      <rect class="cls-1" width="105.065" height="63.458"/>
      <rect class="cls-3" x="13.171" width="14.339" height="63.458"/>
      <rect class="cls-4" y="44.695" width="105.065" height="10.22"/>
      <rect class="cls-4" y="8.542" width="105.065" height="9.763"/>
      <path class="cls-3" d="M88.216,25.532c1.578.009,2.948.967,3.533,2.474.016.042.035.1.068.114.066.028.113.002.142-.08.184-.512.471-.958.847-1.352,1.468-1.535,3.661-1.372,4.876-.486.934.682,1.452,1.592,1.52,2.753.063,1.063-.297,1.989-.901,2.842-.292.412-.652.753-1.035,1.078-1.433,1.219-2.86,2.444-4.29,3.667-.342.292-.686.582-1.024.878-.071.063-.112.065-.186.002-1.042-.896-2.087-1.788-3.131-2.681-.883-.755-1.776-1.499-2.642-2.273-.272-.243-.491-.555-.7-.858-.483-.702-.76-1.477-.786-2.339-.057-1.889,1.326-3.494,3.203-3.699.168-.018.337-.027.505-.039Z"/>
      <path class="cls-2" d="M12.588,3.035c3.36.02,6.277,2.058,7.521,5.267.034.089.074.212.144.242.14.059.24.003.303-.17.391-1.089,1.003-2.04,1.803-2.878,3.124-3.268,7.794-2.921,10.38-1.034,1.989,1.451,3.091,3.389,3.236,5.86.133,2.263-.632,4.235-1.917,6.05-.622.878-1.389,1.603-2.203,2.295-3.051,2.594-6.089,5.204-9.133,7.807-.727.622-1.46,1.238-2.18,1.869-.152.133-.238.139-.395.004-2.218-1.907-4.442-3.807-6.665-5.708-1.879-1.608-3.781-3.191-5.625-4.838-.579-.518-1.045-1.181-1.49-1.828-1.029-1.494-1.617-3.144-1.673-4.979-.122-4.022,2.822-7.438,6.818-7.875.357-.039.717-.057,1.076-.084Z"/>
    </g>
  </g>
</svg>