<?xml version="1.0" encoding="UTF-8"?>
<svg id="Layer_2" data-name="Layer 2" xmlns="http://www.w3.org/2000/svg" xmlns:xlink="http://www.w3.org/1999/xlink" viewBox="0 0 11.363 60.657">
  <defs>
    <style>
      .cls-1 {
        clip-path: url(#clippath);
      }

      .cls-2 {
        fill: none;
      }

      .cls-2, .cls-3, .cls-4, .cls-5, .cls-6 {
        stroke-width: 0px;
      }

      .cls-3 {
        fill: #5d95e2;
      }

      .cls-4 {
        fill: #4692b9;
      }

      .cls-5 {
        fill: #414dd3;
      }

      .cls-6 {
        fill: #41a393;
      }
    </style>
    <clipPath id="clippath">
      <rect class="cls-2" width="11.363" height="60.657"/>
    </clipPath>
  </defs>
  <g id="Alice">
    <g class="cls-1">
      <g>
        <path class="cls-4" d="M45.587,45.929v.465c-1.214-1.198-2.428-2.396-3.569-3.522l-.195-.192c-1.913,1.902-3.781,3.761-5.614,5.586,1.816,1.823,3.668,3.682,5.592,5.613.074-.077.15-.154.224-.232l.183.186h0c-.181.178-.173.31-.066.454l-.17.159c-.039-.046-.077-.09-.116-.135-1.978,1.974-3.844,3.837-5.826,5.817.513.465,1.04.941,1.566,1.417h-.465c-.416-.44-.833-.88-1.242-1.312-.498.48-.929.897-1.361,1.312h-.372c.477-.518.953-1.035,1.414-1.538-1.877-1.875-3.743-3.739-5.542-5.537-1.858,1.849-3.733,3.715-5.612,5.585.438.475.907.982,1.375,1.491h-.372c-.426-.44-.851-.88-1.32-1.363-.464.494-.873.928-1.283,1.363h-.465c.501-.513,1.001-1.026,1.459-1.497-1.905-1.915-3.755-3.774-5.574-5.604-.089.088-.178.178-.267.267-1.767,1.763-3.549,3.542-5.452,5.441.506.451,1.034.922,1.562,1.394h-.465c-.407-.429-.815-.86-1.209-1.275-.102.042-.154.048-.184.078-.404.397-.807.797-1.209,1.197h-.372c.472-.518.943-1.036,1.374-1.508-.165-.165-.331-.331-.495-.496-1.712-1.716-3.403-3.41-5.109-5.119-.015.01-.073.034-.114.076-1.753,1.749-3.502,3.502-5.258,5.247-.186.185-.185.313,0,.498.423.424.828.867,1.24,1.302h-.372c-.357-.36-.702-.733-1.08-1.069-.095-.084-.365-.121-.439-.053-.382.351-.726.744-1.084,1.122h-.465c.492-.509.982-1.02,1.452-1.507-1.895-1.888-3.764-3.75-5.591-5.571-1.836,1.83-3.704,3.692-5.694,5.676.507.454,1.034.928,1.562,1.402h-.465c-.418-.441-.836-.881-1.259-1.327-.489.483-.915.905-1.343,1.327h-.372c.476-.518.951-1.036,1.4-1.526-1.884-1.877-3.75-3.737-5.597-5.577-1.832,1.831-3.697,3.694-5.579,5.574.456.495.934,1.013,1.412,1.53h-.372c-.435-.432-.871-.864-1.347-1.337-.437.466-.846.902-1.256,1.337h-.465c.5-.514,1-1.028,1.441-1.481-1.913-1.917-3.765-3.775-5.737-5.753-.058.076-.115.161-.176.248l-.164-.168.002-.002c.218-.21.221-.362.006-.57-.632-.61-1.252-1.231-1.877-1.848v-.372c.704.668,1.407,1.337,2.073,1.97.081.076.161.152.241.228,1.898-1.888,3.758-3.738,5.59-5.56-1.843-1.846-3.705-3.711-5.687-5.694-.717.765-1.467,1.564-2.218,2.364v-.465c.667-.722,1.335-1.445,2.05-2.22-.631-.604-1.34-1.283-2.05-1.962v-.465c.778.769,1.555,1.536,2.337,2.31.102-.074.17-.112.223-.165,1.74-1.737,3.473-3.481,5.222-5.208.283-.281.091-.417-.086-.595-1.597-1.596-3.191-3.192-4.787-4.788-.17-.17-.349-.331-.546-.517-.181.173-.325.309-.468.448-.631.608-1.262,1.216-1.894,1.823v-.372c.61-.609,1.21-1.227,1.834-1.821.248-.236.254-.4.005-.638-.624-.594-1.227-1.21-1.838-1.817v-.372c.787.749,1.574,1.498,2.3,2.189.151-.151.302-.3.452-.45,1.746-1.737,3.458-3.439,5.15-5.122-1.836-1.833-3.696-3.689-5.596-5.585-.749.74-1.527,1.508-2.306,2.276v-.465c.662-.728,1.323-1.455,1.908-2.101-.578-.631-1.243-1.356-1.908-2.081v-.465c.746.804,1.492,1.608,2.206,2.378,1.994-1.998,3.855-3.863,5.676-5.689-1.83-1.835-3.69-3.7-5.573-5.588-.11.101-.246.223-.378.35-.644.618-1.287,1.238-1.931,1.857v-.372c.613-.607,1.22-1.22,1.841-1.819.239-.23.257-.406.005-.644-.625-.594-1.231-1.207-1.846-1.812v-.372c.702.666,1.402,1.333,2.076,1.971.084.079.167.158.25.237,1.897-1.89,3.756-3.744,5.584-5.566-1.848-1.849-3.711-3.715-5.704-5.709-.713.768-1.459,1.572-2.206,2.376v-.465c.666-.721,1.333-1.443,2.026-2.194-.259-.274-.585-.62-.911-.966h.465c.626.932.757.946,1.486.154.04-.044.063-.102.094-.154h.465c-.323.349-.648.698-.987,1.064.091.112.158.214.243.298,1.692,1.695,3.391,3.385,5.076,5.087.244.247.385.19.599-.027.931-.948,1.873-1.886,2.818-2.82.835-.823,1.678-1.636,2.533-2.468-.37-.425-.678-.781-.987-1.136h.372q.806.899,1.645.036c.01-.011.019-.024.028-.036h.372c-.308.356-.615.711-.874,1.008,1.879,1.884,3.733,3.742,5.56,5.572,1.825-1.83,3.678-3.687,5.552-5.566-.295-.316-.619-.665-.944-1.014h.465c.207.225.401.465.628.665.069.06.279.065.343.007.222-.203.409-.444.609-.672h.465c-.325.347-.651.693-.956,1.018C-3.114-2.847-1.258-.993.618.879c.006-.003.071-.02.112-.061,1.762-1.76,3.521-3.523,5.284-5.284.173-.173.143-.305-.017-.467-.257-.261-.497-.54-.744-.811h.372c1.027,1.046.673.966,1.643.034.01-.01.02-.022.03-.034h.372c-.17.195-.329.401-.512.583-.476.473-.482.471-.026.928C8.54-2.821,9.951-1.41,11.363,0c.314.313.636.62.922.899,1.729-1.729,3.426-3.423,5.141-5.138l.492-.492c-.304-.322-.63-.667-.956-1.014h.465c.634.929.765.943,1.487.154.04-.044.062-.102.093-.154h.465c-.323.349-.647.698-.925.998.137.138.274.275.411.413,1.736,1.745,3.455,3.474,5.166,5.192,1.828-1.832,3.679-3.689,5.548-5.562-.287-.33-.597-.685-.906-1.041h.372c1.014,1.04.687.956,1.644.035.011-.01.02-.023.029-.035h.372c-.308.356-.616.711-.935,1.078.084.099.147.187.221.261,1.704,1.706,3.415,3.405,5.109,5.122.293.297.441.112.634-.081,1.659-1.663,3.321-3.323,4.981-4.986.096-.096.176-.206.279-.327-.345-.37-.669-.718-.994-1.067h.465c.206.226.4.467.626.668.067.059.276.06.341.002.223-.203.411-.443.612-.67h.465c-.327.347-.653.692-1.1,1.165.041.033.081.066.122.098l-.156.158-.021-.021c-1.915,1.899-3.785,3.756-5.626,5.581,1.82,1.824,3.672,3.683,5.55,5.567.085-.077.185-.161.281-.252.014-.013.027-.027.041-.04.703-.698,1.398-1.404,2.106-2.098.46-.452.937-.887,1.406-1.329v.372c-1.119,1.112-2.232,2.23-3.361,3.332-.252.245-.166.408.037.61,1.111,1.099,2.217,2.205,3.323,3.308v.372c-.119-.092-.249-.174-.355-.279-1.009-1.005-2.015-2.013-3.023-3.019-.151-.151-.312-.29-.43-.399-1.892,1.891-3.758,3.755-5.576,5.572,1.837,1.846,3.697,3.716,5.676,5.704.007-.007.014-.014.02-.021l.146.14c-.017.018-.012.058-.017.086-.033.034-.067.068-.101.101.11.086.223.166.335.25l-.173.171s-.007-.008-.012-.013c-.257-.26-.409-.263-.669,0-1.665,1.685-3.339,3.361-5.026,5.022-.277.272-.229.421.02.667l.016.016c1.656,1.638,3.298,3.291,4.946,4.938.107.107.226.204.375.336,1.296-1.295,2.573-2.571,3.85-3.847v.465c-1.105,1.104-2.205,2.215-3.322,3.307-.248.243-.248.394,0,.637,1.117,1.092,2.217,2.203,3.323,3.306v.465c-1.273-1.28-2.547-2.56-3.741-3.758-1.915,1.901-3.786,3.758-5.616,5.574,1.823,1.819,3.682,3.673,5.578,5.563,1.239-1.231,2.509-2.492,3.779-3.754v.465c-.117.098-.243.186-.35.293-.941.935-1.878,1.873-2.818,2.809-.467.467-.471.47.008.944,1.051,1.04,2.107,2.074,3.16,3.111ZM41.24,30.868c.215-.215.191-.368-.017-.576-1.69-1.678-3.373-3.363-5.049-5.055-.243-.244-.407-.231-.643.013-.719.746-1.46,1.472-2.194,2.205-1.031,1.025-2.062,2.048-3.106,3.086.059.107.073.154.104.185,1.749,1.752,3.504,3.499,5.247,5.258.23.232.386.166.576-.025,1.691-1.699,3.384-3.397,5.082-5.089ZM35.851,47.877c1.843-1.839,3.702-3.692,5.545-5.531-1.837-1.836-3.694-3.692-5.49-5.487-1.855,1.844-3.724,3.701-5.522,5.488,1.812,1.833,3.657,3.699,5.468,5.53ZM41.341,7.021c-1.8-1.803-3.646-3.651-5.476-5.482-1.832,1.849-3.679,3.714-5.512,5.565,1.803,1.814,3.653,3.675,5.442,5.475,1.849-1.853,3.71-3.718,5.546-5.559ZM35.86,24.364c1.83-1.832,3.684-3.687,5.469-5.474-1.845-1.87-3.696-3.745-5.48-5.552-1.839,1.828-3.699,3.678-5.521,5.49,1.836,1.837,3.692,3.694,5.532,5.536ZM35.843,59.645c1.84-1.832,3.697-3.682,5.528-5.506-1.86-1.863-3.711-3.718-5.518-5.53-1.836,1.831-3.702,3.69-5.514,5.496,1.828,1.84,3.677,3.7,5.504,5.539ZM35.547,24.679c-.037-.048-.086-.126-.149-.191-1.716-1.718-3.438-3.431-5.146-5.158-.251-.253-.401-.171-.604.035-1.066,1.077-2.134,2.152-3.212,3.217-.701.692-1.419,1.365-2.082,2.002,1.951,1.943,3.818,3.804,5.647,5.626,1.813-1.808,3.671-3.661,5.546-5.531ZM34.267,37.833c.443-.444.885-.89,1.286-1.296-1.896-1.904-3.748-3.763-5.549-5.571-1.85,1.843-3.718,3.705-5.6,5.581.017.022.058.089.112.142,1.717,1.718,3.438,3.429,5.148,5.154.256.257.414.198.639-.032,1.315-1.333,2.642-2.654,3.965-3.98ZM35.47,12.981c-1.834-1.836-3.705-3.71-5.486-5.495-1.835,1.818-3.707,3.674-5.522,5.473,1.824,1.838,3.675,3.702,5.508,5.548,1.843-1.852,3.705-3.721,5.501-5.526ZM29.94,53.74c1.86-1.845,3.731-3.702,5.52-5.476-1.836-1.845-3.696-3.714-5.528-5.554-1.824,1.822-3.683,3.679-5.521,5.512,1.852,1.849,3.72,3.712,5.529,5.518ZM35.521,1.217c-1.846-1.849-3.709-3.715-5.53-5.539-1.849,1.844-3.715,3.706-5.553,5.54,1.835,1.837,3.697,3.703,5.551,5.559,1.83-1.84,3.681-3.7,5.532-5.56ZM29.765,30.648c-.204-.223-.323-.362-.453-.492-1.619-1.62-3.246-3.231-4.853-4.863-.289-.294-.453-.288-.739.002-1.65,1.676-3.315,3.336-4.989,4.987-.231.229-.247.368-.015.599,1.692,1.677,3.381,3.358,5.056,5.052.27.273.429.228.672-.021.907-.931,1.829-1.848,2.754-2.761.836-.825,1.682-1.64,2.567-2.502ZM29.671,7.034c-.044-.05-.108-.136-.182-.21-1.704-1.71-3.415-3.415-5.112-5.134-.257-.26-.399-.156-.599.046-1.671,1.68-3.344,3.359-5.028,5.024-.252.249-.233.399.007.638,1.683,1.667,3.354,3.347,5.031,5.021.095.095.207.173.283.234,1.878-1.884,3.731-3.742,5.6-5.618ZM29.585,54.182c-1.853-1.865-3.71-3.733-5.577-5.612.025-.015-.006-.005-.027.017-1.756,1.747-3.507,3.499-5.271,5.239-.263.259-.139.403.059.601,1.678,1.672,3.35,3.35,5.025,5.025.094.093.205.17.299.247,1.874-1.882,3.717-3.733,5.493-5.518ZM29.605,18.82c-1.821-1.836-3.667-3.697-5.485-5.53-1.853,1.854-3.717,3.718-5.535,5.539,1.826,1.833,3.678,3.691,5.496,5.516,1.843-1.843,3.705-3.706,5.524-5.525ZM29.615,42.343c-1.823-1.828-3.676-3.686-5.498-5.513-1.848,1.844-3.712,3.704-5.503,5.49,1.827,1.845,3.68,3.716,5.493,5.545,1.829-1.834,3.68-3.69,5.508-5.521ZM23.787,24.672c-.016-.024-.04-.083-.082-.125-1.749-1.752-3.503-3.498-5.245-5.258-.254-.256-.39-.107-.564.068-.916.921-1.832,1.842-2.753,2.757-.853.849-1.713,1.691-2.553,2.521,1.914,1.906,3.78,3.767,5.609,5.589,1.853-1.842,3.713-3.691,5.588-5.554ZM23.63,48.482c.277-.274.104-.417-.079-.6-1.652-1.65-3.302-3.302-4.954-4.952-.116-.115-.243-.219-.287-.259-1.903,1.904-3.768,3.769-5.589,5.59,1.809,1.822,3.658,3.684,5.52,5.56.036-.025.092-.053.135-.095,1.751-1.749,3.496-3.503,5.255-5.244ZM22.498,37.853c.446-.444.903-.879,1.299-1.264-1.916-1.928-3.774-3.796-5.607-5.639-1.83,1.821-3.69,3.67-5.587,5.558.086.095.165.189.251.275,1.672,1.674,3.351,3.34,5.01,5.026.281.285.441.257.702-.01,1.301-1.325,2.618-2.635,3.932-3.946ZM18.194,18.48c1.846-1.844,3.71-3.706,5.559-5.552-1.823-1.823-3.678-3.68-5.508-5.512-1.849,1.854-3.711,3.721-5.541,5.555,1.822,1.828,3.684,3.697,5.49,5.509ZM23.752,1.159c-1.826-1.828-3.682-3.685-5.514-5.519-1.851,1.852-3.718,3.719-5.534,5.536,1.855,1.862,3.708,3.723,5.494,5.515,1.837-1.83,3.705-3.691,5.555-5.533ZM17.69,7.393c.284-.28.181-.456-.048-.685-1.666-1.657-3.326-3.322-4.99-4.982-.093-.094-.204-.171-.309-.257-.082.059-.136.089-.178.131-1.74,1.74-3.473,3.486-5.221,5.217-.274.271-.118.411.072.599,1.415,1.408,2.83,2.817,4.234,4.234.347.349.656.735.983,1.104.187-.133.229-.155.261-.187,1.731-1.726,3.457-3.456,5.196-5.174ZM17.925,30.591c-.086-.111-.15-.214-.233-.298-1.684-1.685-3.374-3.364-5.05-5.056-.251-.254-.403-.217-.638.021-1.652,1.671-3.31,3.336-4.983,4.986-.277.273-.274.433,0,.704,1.683,1.662,3.351,3.338,5.018,5.017.204.204.347.244.569.02,1.689-1.702,3.387-3.394,5.079-5.091.085-.085.151-.189.24-.303ZM17.664,54.443c.252-.25.272-.424.007-.683-1.072-1.049-2.134-2.108-3.183-3.179-.691-.704-1.352-1.437-2.039-2.17-.215.171-.279.214-.333.268-1.719,1.717-3.434,3.437-5.16,5.146-.253.25-.163.4.043.605,1.459,1.451,2.909,2.911,4.363,4.365.314.313.638.617.962.929.111-.085.19-.134.254-.198,1.695-1.694,3.385-3.394,5.086-5.083ZM12.204,24.499c1.98-1.973,3.837-3.825,5.683-5.666-1.848-1.834-3.71-3.683-5.593-5.552-.022.016-.105.059-.168.123-1.732,1.727-3.46,3.459-5.196,5.181-.25.248-.105.393.072.57,1.293,1.289,2.589,2.573,3.87,3.875.475.481.911,1.003,1.332,1.47ZM12.343,47.893c1.842-1.847,3.695-3.705,5.534-5.548-1.837-1.83-3.697-3.682-5.526-5.504-1.847,1.832-3.708,3.679-5.528,5.485,1.837,1.854,3.686,3.718,5.52,5.567ZM12.07,24.733c-.072-.096-.126-.186-.198-.26-.236-.244-.48-.482-.72-.723-1.454-1.455-2.912-2.907-4.36-4.369-.224-.226-.381-.295-.641-.031-1.675,1.694-3.363,3.375-5.049,5.058-.176.175-.325.311-.069.564,1.735,1.719,3.461,3.449,5.183,5.181.186.188.313.18.495-.003,1.712-1.721,3.429-3.437,5.144-5.155.074-.073.134-.163.215-.262ZM11.864,36.724c.073-.073.129-.165.204-.264-.075-.097-.132-.188-.205-.261-1.704-1.706-3.414-3.408-5.111-5.121-.235-.237-.381-.204-.6.018-1.688,1.701-3.382,3.395-5.083,5.083-.214.212-.224.352-.007.568,1.713,1.7,3.418,3.407,5.121,5.118.19.191.327.223.534.015,1.711-1.723,3.431-3.437,5.147-5.155ZM11.871,13.21c.214-.212.158-.349-.027-.533-1.711-1.704-3.418-3.411-5.12-5.125-.202-.204-.337-.189-.533.008-1.702,1.712-3.408,3.421-5.123,5.12-.222.22-.206.367.004.57.501.483.99.978,1.481,1.471,1.273,1.283,2.546,2.568,3.842,3.876.118-.08.175-.106.217-.148,1.753-1.747,3.502-3.498,5.259-5.241ZM11.79,1.536c.095-.096.178-.204.248-.285-1.888-1.885-3.753-3.747-5.598-5.59C4.604-2.511,2.746-.66.848,1.233c.134.141.248.265.367.384,1.629,1.633,3.268,3.257,4.883,4.903.3.306.464.257.738-.02,1.642-1.664,3.302-3.31,4.955-4.963ZM11.746,48.605c.114-.115.216-.244.29-.33-1.895-1.897-3.749-3.754-5.588-5.595-1.835,1.836-3.688,3.691-5.575,5.58.059.071.111.147.175.211,1.716,1.72,3.438,3.436,5.145,5.165.268.271.408.12.598-.071,1.65-1.656,3.305-3.306,4.956-4.96ZM5.973,54.382c.302-.298.092-.445-.097-.633-1.652-1.652-3.31-3.298-4.949-4.964-.276-.281-.43-.27-.7.003-1.628,1.652-3.268,3.292-4.92,4.919-.297.293-.325.474-.01.781,1.152,1.122,2.276,2.273,3.414,3.411.609.609,1.225,1.21,1.848,1.824.1-.074.167-.112.22-.165,1.731-1.726,3.455-3.458,5.194-5.176ZM5.955,42.631c.245-.243.193-.391-.021-.603-1.068-1.053-2.13-2.111-3.184-3.178-.703-.712-1.388-1.441-2.033-2.113-1.954,1.938-3.824,3.792-5.682,5.634,1.838,1.836,3.693,3.69,5.563,5.559.067-.053.158-.112.232-.186,1.708-1.704,3.411-3.415,5.126-5.113ZM5.928,30.921c.236-.234.272-.39.02-.639-1.704-1.687-3.395-3.385-5.092-5.077-.073-.073-.165-.131-.267-.21-.108.085-.21.151-.295.234-1.676,1.672-3.347,3.349-5.028,5.015-.245.243-.29.41-.017.678,1.685,1.662,3.359,3.336,5.026,5.016.24.242.386.253.633.002,1.663-1.683,3.337-3.354,5.019-5.019ZM5.87,19.209c.295-.289.309-.447.014-.736-1.456-1.434-2.893-2.889-4.338-4.333-.313-.313-.635-.617-.954-.926-.098.077-.15.112-.192.154-1.731,1.727-3.458,3.458-5.198,5.178-.247.244-.187.399.025.607.783.77,1.56,1.547,2.334,2.327.98.987,1.954,1.981,2.981,3.02.2-.187.337-.308.467-.437,1.619-1.62,3.229-3.25,4.863-4.854ZM5.858,7.468c.306-.3.32-.467.01-.769-1.142-1.112-2.265-2.244-3.381-3.381-.615-.626-1.204-1.28-1.805-1.921-.039.031-.077.06-.116.091-.061.043-.131.077-.184.129-1.719,1.714-3.432,3.434-5.159,5.139-.291.288-.164.457.06.681C-3.137,9.008-1.564,10.586.012,12.16c.182.181.375.351.576.537.127-.114.221-.192.307-.278,1.652-1.652,3.295-3.315,4.963-4.952ZM.307,24.664c-.059-.069-.116-.141-.18-.206-1.686-1.685-3.378-3.363-5.052-5.06-.292-.296-.458-.276-.739.009-1.641,1.666-3.301,3.314-4.954,4.968-.097.098-.185.204-.236.26,1.882,1.888,3.744,3.754,5.588,5.605,1.823-1.823,3.679-3.682,5.573-5.577ZM-.658,37.524c.336-.333.714-.624,1.02-.888-1.976-1.988-3.835-3.857-5.709-5.743-.039.032-.103.074-.156.127-1.73,1.727-3.454,3.458-5.192,5.176-.262.259-.147.401.053.599,1.667,1.658,3.335,3.316,4.984,4.991.287.293.452.292.737,0,1.408-1.433,2.834-2.85,4.263-4.262ZM-5.296,18.508c1.832-1.836,3.694-3.703,5.469-5.48-1.836-1.857-3.696-3.738-5.519-5.58-1.822,1.823-3.676,3.677-5.503,5.504,1.846,1.848,3.71,3.712,5.553,5.556ZM-5.263,6.745C-3.442,4.918-1.588,3.061.224,1.245-1.643-.622-3.508-2.485-5.294-4.27c-1.824,1.816-3.691,3.673-5.508,5.482,1.831,1.829,3.692,3.689,5.538,5.534ZM.206,48.251c-1.838-1.847-3.698-3.716-5.492-5.517-1.839,1.827-3.707,3.683-5.561,5.523,1.827,1.827,3.681,3.681,5.504,5.503,1.869-1.856,3.74-3.714,5.548-5.509ZM-5.767,7.326c.25-.248.105-.391-.072-.568-1.678-1.672-3.356-3.343-5.022-5.026-.242-.244-.389-.253-.637-.003-1.664,1.684-3.342,3.353-5.015,5.029-.096.096-.177.206-.242.283,1.873,1.879,3.725,3.736,5.594,5.612.042-.023.074-.033.095-.053,1.766-1.758,3.527-3.521,5.298-5.274ZM-5.854,54.445c.294-.289.235-.45-.022-.704-1.652-1.633-3.29-3.28-4.935-4.92-.115-.115-.245-.217-.358-.314-1.884,1.884-3.731,3.731-5.562,5.561,1.868,1.876,3.72,3.736,5.593,5.617.082-.072.19-.157.286-.253,1.665-1.664,3.321-3.336,4.998-4.986ZM-11.161,47.873c1.839-1.832,3.698-3.683,5.542-5.52-1.843-1.841-3.699-3.697-5.533-5.53-1.86,1.854-3.717,3.705-5.513,5.496,1.832,1.848,3.685,3.718,5.504,5.553ZM-11.181,24.36c1.848-1.837,3.707-3.687,5.555-5.523-1.848-1.832-3.711-3.679-5.542-5.494-1.828,1.82-3.692,3.676-5.504,5.479,1.825,1.842,3.673,3.705,5.491,5.538ZM-5.658,30.634c-1.856-1.872-3.701-3.731-5.561-5.606-.023.016-.079.044-.121.086-1.743,1.735-3.48,3.474-5.228,5.203-.255.253-.148.402.055.603,1.272,1.264,2.536,2.537,3.806,3.804.498.497,1.006.986,1.5,1.47,1.898-1.902,3.75-3.758,5.548-5.56ZM-11.486,24.669c-.009-.014-.035-.071-.077-.112-1.749-1.752-3.501-3.502-5.246-5.258-.187-.187-.318-.178-.498.007-.495.51-1.006,1.006-1.51,1.508-1.28,1.277-2.56,2.554-3.799,3.791,1.901,1.916,3.758,3.789,5.574,5.62,1.828-1.828,3.684-3.684,5.558-5.557ZM-12.241,37.319c.27-.269.588-.491.851-.706-1.972-1.976-3.826-3.835-5.662-5.674-1.861,1.86-3.718,3.718-5.592,5.59.025.032.068.095.121.148,1.716,1.719,3.436,3.433,5.146,5.158.244.247.403.228.64-.013,1.49-1.509,2.989-3.01,4.495-4.503ZM-17.083,53.719c1.849-1.827,3.723-3.679,5.518-5.454-1.836-1.851-3.693-3.723-5.511-5.556-1.83,1.827-3.688,3.682-5.496,5.487,1.862,1.874,3.72,3.743,5.49,5.522ZM-11.507,1.218c-1.84-1.836-3.699-3.691-5.559-5.547-1.834,1.833-3.7,3.697-5.545,5.541,1.846,1.846,3.711,3.71,5.55,5.55,1.848-1.844,3.713-3.706,5.553-5.544ZM-17.032,18.455c1.827-1.819,3.688-3.672,5.533-5.508-1.847-1.842-3.713-3.705-5.562-5.549-1.84,1.842-3.705,3.707-5.498,5.503,1.846,1.855,3.714,3.731,5.528,5.555ZM-17.313,30.653c-.066-.115-.082-.163-.112-.193-1.749-1.754-3.503-3.503-5.245-5.263-.234-.237-.387-.154-.574.033-1.693,1.698-3.387,3.396-5.087,5.086-.199.196-.212.336-.014.534,1.701,1.691,3.402,3.383,5.089,5.087.27.273.44.211.678-.032,1.063-1.083,2.139-2.152,3.213-3.224.678-.676,1.362-1.347,2.054-2.029ZM-17.351,54.069c-.048-.059-.109-.147-.182-.221-1.706-1.708-3.417-3.411-5.116-5.126-.228-.23-.371-.181-.569.018-1.716,1.722-3.436,3.439-5.153,5.16-.06.06-.095.148-.138.217,1.872,1.863,3.725,3.706,5.568,5.542,1.862-1.862,3.718-3.717,5.591-5.589ZM-23.021,12.714c1.941-1.939,3.797-3.792,5.603-5.596-1.843-1.849-3.702-3.713-5.572-5.589-.019.014-.074.045-.117.086-1.743,1.738-3.481,3.479-5.23,5.212-.217.216-.146.354.036.533.608.597,1.207,1.201,1.805,1.808,1.16,1.179,2.316,2.363,3.474,3.546ZM-17.449,42.38c-1.822-1.844-3.666-3.711-5.459-5.527-1.849,1.842-3.714,3.7-5.529,5.509,1.826,1.838,3.675,3.7,5.478,5.514,1.854-1.849,3.719-3.71,5.51-5.496ZM-22.93,24.367c1.848-1.85,3.703-3.708,5.511-5.521-1.836-1.847-3.693-3.715-5.514-5.547-1.848,1.836-3.71,3.688-5.552,5.519,1.848,1.847,3.705,3.703,5.555,5.55Z"/>
        <path class="cls-6" d="M17.641,6.708c.23.229.333.405.048.685-1.739,1.718-3.465,3.448-5.196,5.174-.033.032-.074.054-.261.187-.327-.369-.637-.755-.983-1.104-1.404-1.417-2.82-2.826-4.234-4.234-.19-.188-.346-.327-.072-.599,1.748-1.731,3.481-3.477,5.221-5.217.043-.042.097-.072.178-.131.105.086.216.164.309.257,1.664,1.66,3.323,3.324,4.99,4.982ZM17.233,7.402c.086-.086.154-.186.258-.312-.125-.153-.23-.303-.356-.43-1.485-1.49-2.981-2.971-4.457-4.47-.283-.288-.455-.237-.712.022-1.501,1.52-3.009,3.033-4.531,4.532-.264.261-.255.424,0,.677,1.529,1.514,3.048,3.037,4.562,4.567.23.232.391.273.644.017,1.522-1.541,3.06-3.068,4.59-4.601Z"/>
        <path class="cls-6" d="M17.692,30.293c.084.085.148.188.233.298-.089.114-.155.218-.24.303-1.692,1.697-3.39,3.389-5.079,5.091-.222.224-.365.184-.569-.02-1.666-1.678-3.335-3.355-5.018-5.017-.274-.27-.277-.43,0-.704,1.673-1.651,3.332-3.315,4.983-4.986.235-.238.388-.275.638-.021,1.677,1.691,3.366,3.371,5.05,5.056ZM17.236,30.925c.233-.231.268-.396.015-.645-1.549-1.533-3.089-3.077-4.625-4.625-.207-.208-.347-.228-.568-.005-1.544,1.56-3.098,3.11-4.657,4.655-.205.204-.243.344-.019.567,1.572,1.554,3.132,3.12,4.698,4.679.073.073.165.128.268.205.108-.09.206-.161.291-.245,1.532-1.529,3.059-3.063,4.597-4.587Z"/>
        <path class="cls-6" d="M17.671,53.76c.265.259.244.433-.007.683-1.701,1.689-3.39,3.389-5.086,5.083-.064.064-.143.113-.254.198-.324-.312-.648-.616-.962-.929-1.454-1.454-2.904-2.915-4.363-4.365-.205-.205-.296-.355-.043-.605,1.726-1.709,3.441-3.429,5.16-5.146.054-.054.118-.097.333-.268.687.733,1.349,1.466,2.039,2.17,1.049,1.072,2.112,2.13,3.183,3.179ZM17.203,54.468c.275-.27.286-.439.008-.713-1.542-1.521-3.068-3.06-4.601-4.592-.074-.074-.164-.134-.276-.224-.114.093-.227.17-.322.264-1.525,1.52-3.044,3.044-4.574,4.557-.251.248-.277.417-.008.681,1.533,1.511,3.054,3.034,4.565,4.565.26.264.42.253.677-.007,1.5-1.521,3.009-3.033,4.532-4.532Z"/>
        <path class="cls-6" d="M17.283-4.383l.144.144c-1.716,1.715-3.413,3.409-5.141,5.138-.286-.279-.608-.586-.922-.899-1.413-1.41-2.823-2.822-4.233-4.234-.456-.456-.45-.454.026-.928.183-.182.342-.388.512-.583h.465c-.24.258-.469.529-.725.771-.212.202-.236.352-.015.573,1.559,1.546,3.111,3.098,4.656,4.655.207.209.356.234.573.016,1.547-1.557,3.1-3.109,4.66-4.653Z"/>
        <path class="cls-3" d="M17.324,42.121c.063.063.112.142.178.228-.07.097-.121.192-.194.266-1.573,1.577-3.151,3.151-4.724,4.727-.162.163-.294.178-.467.004-1.582-1.59-3.166-3.177-4.758-4.758-.258-.257-.07-.404.096-.57l3.641-3.641c.339-.338.687-.669,1.017-1.017.169-.178.295-.167.462,0,1.581,1.589,3.167,3.173,4.75,4.76ZM14.123,43.678c.447-.208.665-.622.631-1.184-.037-.595-.406-.889-.933-1.075-.123-.044-.252-.238-.271-.378-.09-.658-.504-1.086-1.148-1.134-.564-.042-1.161.382-1.221.981-.041.405-.23.527-.559.646-.477.173-.743.637-.718,1.134.023.471.336.875.791,1.046.602.227,1.069-.031,1.495-.444.033.025.065.049.098.074-.195.449-.39.897-.609,1.4.397,0,.747,0,1.099,0,.075,0,.151-.012.243-.02-.217-.474-.413-.904-.61-1.336.156-.038.204-.026.233.004.428.433.917.55,1.479.288Z"/>
        <path class="cls-3" d="M17.297,18.561c.191.191.217.325.008.533-1.581,1.568-3.151,3.147-4.725,4.721-.064.064-.139.116-.235.195-.103-.082-.204-.148-.288-.23-1.532-1.532-3.057-3.069-4.595-4.593-.247-.244-.295-.406-.02-.676,1.553-1.532,3.094-3.076,4.626-4.627.226-.229.369-.191.571.012,1.548,1.56,3.101,3.114,4.658,4.665ZM14.095,20.174c.469-.194.711-.665.655-1.219-.058-.582-.4-.903-.966-1.034-.101-.023-.218-.203-.235-.323-.105-.75-.506-1.164-1.179-1.178-.7-.015-1.118.393-1.25,1.167-.022.133-.176.303-.306.348-.518.178-.862.551-.907,1.058-.043.474.206.919.639,1.142.449.232,1,.171,1.389-.156.086-.072.172-.142.258-.213.033.022.067.046.1.069,0,.003-.003.007-.004.009-.203.455-.404.911-.608,1.369h1.338c-.217-.468-.414-.891-.61-1.315.04-.023.079-.046.119-.07.026.013.058.021.077.041.428.438.937.534,1.488.306Z"/>
        <path class="cls-3" d="M17.25-4.991c.229.205.274.368.033.608-1.56,1.545-3.113,3.097-4.66,4.653-.217.218-.366.193-.573-.016-1.546-1.558-3.098-3.11-4.656-4.655-.221-.22-.197-.371.015-.573.256-.243.485-.513.725-.771h2.974c-.114.061-.223.14-.346.18-.512.167-.796.523-.851,1.047-.049.473.226.947.641,1.146.496.237.962.164,1.393-.165.088-.068.167-.148.251-.222.034.022.068.045.102.067-.199.451-.398.901-.601,1.362h1.31c-.204-.458-.396-.887-.586-1.315.043-.023.086-.046.128-.069.046.037.094.071.137.112.41.395.875.504,1.402.263.485-.221.705-.621.665-1.209-.038-.573-.386-.879-.905-1.039-.113-.034-.217-.105-.324-.159h2.974c.25.253.488.518.753.754Z"/>
        <path class="cls-3" d="M17.251,30.28c.253.249.218.414-.015.645-1.538,1.524-3.065,3.059-4.597,4.587-.085.085-.183.155-.291.245-.102-.077-.194-.132-.268-.205-1.566-1.56-3.126-3.126-4.698-4.679-.225-.223-.187-.363.019-.567,1.56-1.546,3.113-3.096,4.657-4.655.221-.223.361-.204.568.005,1.535,1.547,3.075,3.091,4.625,4.625ZM14.363,32.224c.441-.355.562-1.176.166-1.643-.687-.812-1.425-1.582-2.198-2.431-.779.865-1.56,1.659-2.247,2.526-.403.508-.2,1.219.319,1.6.439.323,1.01.209,1.464-.315.086-.099.104-.26.153-.392.077.065.153.129.23.194-.089.202-.162.414-.274.601-.116.192-.271.361-.455.599h1.558c-.226-.397-.437-.767-.648-1.136.054-.036.108-.072.163-.108.077.093.148.193.232.28.474.489,1.097.578,1.537.225Z"/>
        <path class="cls-3" d="M17.491,7.09c-.104.126-.173.227-.258.312-1.531,1.533-3.068,3.06-4.59,4.601-.253.257-.414.216-.644-.017-1.514-1.53-3.034-3.053-4.562-4.567-.256-.253-.265-.415,0-.677,1.521-1.499,3.03-3.011,4.531-4.532.257-.259.429-.31.712-.022,1.477,1.499,2.972,2.981,4.457,4.47.126.127.23.277.356.43ZM14.4,8.656c.489-.454.485-1.244-.014-1.789-.586-.639-1.181-1.269-1.757-1.915-.213-.238-.36-.27-.587-.01-.531.604-1.098,1.176-1.63,1.778-.181.204-.342.445-.445.697-.194.473.023,1.094.428,1.359.445.29.971.216,1.379-.22.121-.129.191-.306.284-.461.074.062.149.125.224.188-.23.375-.459.75-.708,1.157h1.567c-.178-.23-.323-.386-.43-.564-.113-.189-.191-.4-.283-.6.056-.036.112-.072.167-.107.048.077.086.164.146.23.535.601,1.183.7,1.658.258Z"/>
        <path class="cls-3" d="M17.211,53.755c.278.274.267.442-.008.713-1.522,1.499-3.032,3.01-4.532,4.532-.257.259-.416.27-.677.007-1.511-1.532-3.033-3.054-4.565-4.565-.269-.264-.243-.433.008-.681,1.531-1.513,3.049-3.037,4.574-4.557.095-.094.207-.171.322-.264.112.09.202.15.276.224,1.533,1.532,3.06,3.071,4.601,4.592ZM14.374,55.711c.502-.441.524-1.257.038-1.791-.594-.652-1.204-1.29-1.789-1.949-.223-.252-.371-.238-.587.007-.533.602-1.097,1.178-1.634,1.776-.163.182-.306.393-.408.613-.232.503-.034,1.152.41,1.441.44.284.974.203,1.379-.234.118-.127.189-.3.281-.452.074.063.148.126.222.19-.232.375-.464.75-.708,1.145h1.501c-.241-.405-.459-.772-.677-1.139l.181-.103c.055.072.104.151.165.218.517.579,1.16.688,1.626.277Z"/>
        <path class="cls-6" d="M17.887,18.832c-1.847,1.841-3.704,3.693-5.683,5.666-.421-.467-.857-.989-1.332-1.47-1.281-1.301-2.577-2.586-3.87-3.875-.178-.177-.322-.322-.072-.57,1.736-1.722,3.464-3.455,5.196-5.181.063-.063.146-.107.168-.123,1.883,1.869,3.745,3.718,5.593,5.552ZM17.305,19.094c.209-.208.183-.343-.008-.533-1.557-1.55-3.11-3.105-4.658-4.665-.202-.203-.345-.241-.571-.012-1.533,1.551-3.073,3.096-4.626,4.627-.274.27-.227.431.02.676,1.538,1.524,3.063,3.061,4.595,4.593.084.083.185.149.288.23.096-.079.171-.131.235-.195,1.574-1.574,3.144-3.153,4.725-4.721Z"/>
        <path class="cls-5" d="M14.75,18.955c.056.554-.186,1.025-.655,1.219-.551.229-1.06.132-1.488-.306-.02-.02-.051-.028-.077-.041-.04.023-.079.046-.119.07l-.121-.054s.003-.007.004-.009c-.033-.023-.067-.046-.1-.069-.086.071-.173.141-.258.213-.388.327-.94.388-1.389.156-.433-.223-.682-.668-.639-1.142.046-.507.389-.879.907-1.058.13-.045.283-.215.306-.348.132-.774.55-1.182,1.25-1.167.674.014,1.074.428,1.179,1.178.017.121.134.3.235.323.566.131.908.453.966,1.034Z"/>
        <path class="cls-5" d="M14.754,42.494c.034.562-.184.976-.631,1.184-.561.262-1.051.145-1.479-.288-.03-.03-.077-.042-.233-.004l-.124-.044c-.033-.025-.065-.049-.098-.074-.427.414-.893.671-1.495.444-.454-.17-.768-.574-.791-1.046-.024-.497.242-.961.718-1.134.328-.119.518-.241.559-.646.06-.599.657-1.022,1.221-.981.644.047,1.058.476,1.148,1.134.02.14.149.335.271.378.527.186.896.48.933,1.075Z"/>
        <path class="cls-5" d="M14.529,30.581c.396.467.275,1.288-.166,1.643-.441.353-1.063.264-1.537-.225-.085-.086-.155-.187-.232-.28-.055.035-.109.072-.163.108l-.18-.064c-.077-.065-.153-.129-.23-.194-.049.132-.067.293-.153.392-.454.524-1.025.638-1.464.315-.519-.381-.722-1.092-.319-1.6.687-.867,1.468-1.661,2.247-2.526.773.849,1.511,1.619,2.198,2.431Z"/>
        <path class="cls-5" d="M14.412,53.92c.486.534.464,1.349-.038,1.791-.467.411-1.11.302-1.626-.277-.06-.068-.11-.146-.165-.218l-.181.103-.116-.006c-.074-.063-.148-.126-.222-.19-.092.151-.163.324-.281.452-.405.437-.94.519-1.379.234-.444-.289-.642-.939-.41-1.441.102-.22.245-.431.408-.613.537-.599,1.1-1.174,1.634-1.776.217-.245.364-.259.587-.007.586.659,1.195,1.296,1.789,1.949Z"/>
        <path class="cls-5" d="M14.386,6.867c.499.546.503,1.335.014,1.789-.475.441-1.123.343-1.658-.258-.059-.067-.098-.153-.146-.23-.056.035-.112.071-.167.107l-.146.007c-.075-.062-.15-.125-.224-.188-.094.155-.164.332-.284.461-.408.436-.934.51-1.379.22-.405-.265-.623-.886-.428-1.359.103-.252.264-.493.445-.697.533-.602,1.099-1.174,1.63-1.778.228-.26.375-.228.587.01.575.647,1.171,1.276,1.757,1.915Z"/>
        <path class="cls-6" d="M17.878,42.345c-1.839,1.844-3.692,3.702-5.534,5.548-1.834-1.849-3.682-3.713-5.52-5.567,1.82-1.806,3.681-3.653,5.528-5.485,1.829,1.822,3.689,3.674,5.526,5.504ZM17.501,42.349c-.066-.086-.114-.165-.178-.228-1.583-1.587-3.169-3.171-4.75-4.76-.167-.168-.293-.179-.462,0-.33.348-.678.678-1.017,1.017l-3.641,3.641c-.165.165-.354.312-.096.57,1.591,1.581,3.176,3.167,4.758,4.758.174.175.306.159.467-.004,1.573-1.576,3.151-3.15,4.724-4.727.073-.073.125-.169.194-.266Z"/>
        <path class="cls-6" d="M13.616,61.543h-.372c-1.043-1.016-.709-1.125-1.766,0h-.465c.402-.4.805-.8,1.209-1.197.03-.03.082-.036.184-.078.394.415.802.846,1.209,1.275Z"/>
        <path class="cls-6" d="M11.521,59.538c.165.165.33.331.495.496-.43.472-.902.991-1.374,1.508h-.465c.401-.424.788-.862,1.209-1.266.241-.23.222-.37-.007-.598l.141-.141Z"/>
        <path class="cls-6" d="M11.872,24.473c.072.074.126.165.198.26-.081.099-.14.189-.215.262-1.715,1.718-3.432,3.434-5.144,5.155-.182.183-.309.191-.495.003-1.722-1.732-3.448-3.462-5.183-5.181-.257-.253-.107-.389.069-.564,1.686-1.683,3.375-3.363,5.049-5.058.26-.264.417-.195.641.031,1.448,1.462,2.905,2.914,4.36,4.369.241.241.484.479.72.723ZM11.42,24.983c.208-.206.196-.33,0-.525-1.571-1.56-3.136-3.126-4.694-4.698-.2-.201-.329-.199-.529.003-1.547,1.56-3.102,3.114-4.665,4.66-.232.23-.217.375.009.599,1.561,1.546,3.11,3.104,4.665,4.656.073.073.162.131.261.211.108-.092.204-.165.289-.249,1.554-1.553,3.103-3.112,4.665-4.657Z"/>
        <path class="cls-6" d="M12.068,36.46c-.075.099-.131.191-.204.264-1.716,1.718-3.436,3.432-5.147,5.155-.207.208-.345.177-.534-.015-1.703-1.711-3.408-3.418-5.121-5.118-.217-.216-.206-.356.007-.568,1.701-1.688,3.395-3.382,5.083-5.083.219-.222.365-.255.6-.018,1.697,1.713,3.407,3.415,5.111,5.121.073.073.13.165.205.261ZM11.407,36.745c.22-.218.204-.348-.01-.56-1.562-1.546-3.116-3.099-4.661-4.661-.222-.226-.349-.205-.559.007-1.546,1.562-3.098,3.117-4.66,4.662-.224.221-.208.35.004.56,1.561,1.548,3.112,3.106,4.666,4.659.075.075.162.138.265.225.103-.082.205-.148.289-.231,1.556-1.553,3.105-3.113,4.666-4.66Z"/>
        <path class="cls-6" d="M11.844,12.678c.185.183.241.321.027.533-1.757,1.743-3.507,3.494-5.259,5.241-.042.042-.099.068-.217.148-1.296-1.309-2.569-2.594-3.842-3.876-.491-.494-.98-.988-1.481-1.471-.21-.203-.226-.349-.004-.57,1.715-1.699,3.421-3.408,5.123-5.12.195-.197.331-.212.533-.008,1.702,1.714,3.409,3.421,5.12,5.125ZM11.425,13.207c.248-.244.135-.375-.052-.561-1.503-1.494-2.999-2.996-4.498-4.495-.127-.127-.266-.244-.381-.35-.078.028-.114.031-.134.05-1.633,1.626-3.263,3.256-4.899,4.881-.18.178-.135.308.028.464.367.354.725.718,1.085,1.081,1.273,1.283,2.547,2.566,3.844,3.873.117-.086.171-.116.214-.158,1.597-1.596,3.189-3.197,4.794-4.784Z"/>
        <path class="cls-6" d="M12.038,1.25c-.07.081-.153.19-.248.285-1.652,1.653-3.312,3.299-4.955,4.963-.274.278-.438.326-.738.02-1.615-1.646-3.254-3.27-4.883-4.903-.119-.119-.233-.243-.367-.384,1.899-1.892,3.757-3.744,5.593-5.573,1.845,1.843,3.71,3.705,5.598,5.59ZM11.378,1.511c.225-.222.251-.362.008-.597-.953-.928-1.889-1.874-2.824-2.819-.683-.69-1.357-1.389-2.084-2.134C4.747-2.302,3.101-.647,1.45,1.003c-.22.22-.064.349.083.496,1.554,1.553,3.112,3.103,4.656,4.666.228.23.362.18.563-.023,1.535-1.55,3.077-3.095,4.626-4.63Z"/>
        <path class="cls-6" d="M12.036,48.275c-.074.086-.176.215-.29.33-1.652,1.654-3.307,3.304-4.956,4.96-.19.191-.33.342-.598.071-1.707-1.729-3.429-3.444-5.145-5.165-.064-.064-.116-.14-.175-.211,1.888-1.889,3.741-3.744,5.575-5.58,1.839,1.841,3.693,3.698,5.588,5.595ZM11.38,48.539c.228-.226.244-.368.005-.6-.953-.928-1.889-1.873-2.826-2.816-.684-.689-1.361-1.385-2.094-2.133-1.723,1.733-3.366,3.389-5.016,5.041-.224.225-.057.349.087.494,1.542,1.543,3.087,3.082,4.622,4.633.222.226.36.248.596.009,1.533-1.552,3.076-3.093,4.626-4.627Z"/>
        <path class="cls-6" d="M11.521,59.538l-.141.141c-1.538-1.522-3.068-3.053-4.586-4.595-.257-.262-.407-.261-.665,0-1.519,1.542-3.05,3.071-4.59,4.591-.23.229-.239.374-.005.601.418.405.808.842,1.208,1.266h-.465c-.412-.435-.817-.878-1.24-1.302-.184-.185-.185-.313,0-.498,1.757-1.745,3.506-3.498,5.258-5.247.041-.042.099-.066.114-.076,1.705,1.709,3.397,3.403,5.109,5.119Z"/>
        <path class="cls-5" d="M11.373,12.645c.187.186.3.317.052.561-1.605,1.587-3.197,3.189-4.794,4.784-.043.042-.097.072-.214.158-1.297-1.307-2.571-2.59-3.844-3.873-.36-.362-.717-.727-1.085-1.081-.163-.156-.208-.285-.028-.464,1.636-1.625,3.266-3.255,4.899-4.881.02-.02.056-.022.134-.05.115.106.254.223.381.35,1.499,1.498,2.995,3,4.498,4.495ZM8.68,13.197c.311-.784.336-1.576-.23-2.282-.388-.482-1.034-.513-1.465-.071-.18.185-.322.41-.524.675-.15-.202-.26-.362-.383-.514-.523-.65-1.269-.616-1.73.074-.362.542-.384,1.143-.23,1.74.301,1.162,1.143,1.878,2.135,2.445.11.063.321.057.433-.007.862-.492,1.616-1.11,1.994-2.06Z"/>
        <path class="cls-5" d="M11.419,24.458c.197.195.209.319,0,.525-1.561,1.546-3.111,3.104-4.665,4.657-.085.085-.181.157-.289.249-.099-.08-.188-.138-.261-.211-1.555-1.552-3.103-3.111-4.665-4.656-.227-.224-.242-.369-.009-.599,1.562-1.546,3.117-3.1,4.665-4.66.2-.202.329-.204.529-.003,1.559,1.573,3.124,3.138,4.694,4.698ZM6.454,27.067c.552-1.049,1.292-1.788,2.358-2.355-1.086-.542-1.799-1.305-2.361-2.32-.553,1.054-1.29,1.777-2.318,2.316,1.02.577,1.785,1.292,2.321,2.359Z"/>
        <path class="cls-5" d="M11.397,36.185c.215.213.23.342.01.56-1.56,1.547-3.11,3.107-4.666,4.66-.084.084-.186.15-.289.231-.103-.087-.19-.15-.265-.225-1.555-1.553-3.105-3.111-4.666-4.659-.212-.21-.228-.339-.004-.56,1.562-1.545,3.114-3.099,4.66-4.662.21-.212.336-.232.559-.007,1.545,1.562,3.099,3.115,4.661,4.661ZM8.237,37.452c.635-.75.852-1.645.47-2.603-.167-.421-.461-.745-.945-.795-.473-.047-.782.223-1.02.599-.079.125-.165.245-.292.435-.118-.191-.193-.317-.274-.441-.232-.35-.52-.627-.976-.598-.487.033-.851.331-.955.762-.122.508-.21,1.084-.093,1.578.27,1.142,1.138,1.842,2.12,2.391.121.068.382.027.499-.064.509-.397,1.053-.778,1.466-1.265Z"/>
        <path class="cls-5" d="M11.387.915c.243.235.217.375-.008.597-1.549,1.535-3.091,3.08-4.626,4.63-.202.204-.336.253-.563.023-1.545-1.562-3.102-3.113-4.656-4.666-.147-.147-.303-.276-.083-.496,1.652-1.65,3.297-3.305,5.029-5.041.727.744,1.401,1.444,2.084,2.134.936.945,1.872,1.891,2.824,2.819ZM6.474,3.545c.536-1.055,1.286-1.768,2.328-2.345-1.051-.539-1.792-1.278-2.339-2.338C5.902-.051,5.131.655,4.121,1.226c1.073.526,1.775,1.304,2.353,2.319Z"/>
        <path class="cls-5" d="M11.379,59.68c.23.228.248.367.007.598-.421.403-.808.842-1.209,1.266h-2.416c.134-.15.272-.296.4-.451.802-.972.953-2.208.375-3.045-.412-.596-1.139-.645-1.618-.1-.159.18-.287.387-.46.622-.139-.2-.244-.363-.362-.518-.518-.676-1.306-.651-1.746.082-.152.255-.254.567-.286.862-.117,1.047.41,1.836,1.097,2.547h-2.416c-.401-.424-.79-.861-1.208-1.266-.234-.228-.226-.373.005-.601,1.54-1.52,3.072-3.049,4.59-4.591.257-.261.408-.262.665,0,1.518,1.542,3.047,3.073,4.586,4.595Z"/>
        <path class="cls-5" d="M11.385,47.939c.24.232.223.375-.005.6-1.55,1.534-3.094,3.075-4.626,4.627-.236.239-.374.217-.596-.009-1.534-1.551-3.08-3.09-4.622-4.633-.144-.144-.311-.269-.087-.494,1.65-1.652,3.293-3.308,5.016-5.041.733.748,1.41,1.444,2.094,2.133.938.943,1.874,1.888,2.826,2.816ZM6.507,50.507c.51-1.002,1.266-1.727,2.297-2.281-1.06-.534-1.785-1.292-2.351-2.329-.55,1.073-1.31,1.791-2.247,2.305.454.362.894.655,1.261,1.021s.66.807,1.041,1.283Z"/>
        <path class="cls-6" d="M8.707,34.848c.382.958.165,1.853-.47,2.603-.413.487-.956.868-1.466,1.265-.117.091-.378.132-.499.064-.981-.549-1.85-1.249-2.12-2.391-.117-.494-.029-1.07.093-1.578.104-.431.468-.73.955-.762.456-.03.744.247.976.598.081.124.156.25.274.441.127-.19.213-.31.292-.435.238-.375.546-.646,1.02-.599.484.049.778.374.945.795Z"/>
        <path class="cls-6" d="M8.45,10.916c.567.705.542,1.497.23,2.282-.377.951-1.132,1.569-1.994,2.06-.112.064-.323.071-.433.007-.992-.567-1.834-1.283-2.135-2.445-.154-.597-.132-1.198.23-1.74.461-.691,1.206-.724,1.73-.074.123.151.233.312.383.514.203-.265.344-.49.524-.675.43-.442,1.077-.412,1.465.071Z"/>
        <path class="cls-6" d="M8.535,58.048c.578.836.428,2.073-.375,3.045-.127.155-.266.301-.4.451h-2.602c-.687-.711-1.214-1.5-1.097-2.547.033-.296.134-.608.286-.862.441-.732,1.229-.757,1.746-.082.118.154.223.318.362.518.173-.235.301-.441.46-.622.479-.545,1.206-.495,1.618.1Z"/>
        <path class="cls-6" d="M8.803,48.226c-1.031.554-1.786,1.279-2.297,2.281-.381-.477-.674-.917-1.041-1.283s-.808-.66-1.261-1.021c.937-.514,1.697-1.231,2.247-2.305.566,1.037,1.291,1.795,2.351,2.329Z"/>
        <path class="cls-6" d="M8.802,1.2c-1.042.577-1.792,1.29-2.328,2.345-.578-1.015-1.281-1.793-2.353-2.319C5.131.655,5.902-.051,6.463-1.138c.547,1.06,1.288,1.799,2.339,2.338Z"/>
        <path class="cls-6" d="M8.812,24.712c-1.066.567-1.806,1.306-2.358,2.355-.535-1.067-1.301-1.782-2.321-2.359,1.028-.539,1.765-1.262,2.318-2.316.561,1.015,1.274,1.778,2.361,2.32Z"/>
        <path class="cls-6" d="M5.996-4.933c.16.163.19.295.017.467C4.251-2.705,2.492-.942.729.818c-.041.041-.106.059-.112.061C-1.258-.993-3.114-2.847-4.998-4.727c.305-.324.631-.671.956-1.018h.465c-.272.274-.536.558-.82.821-.194.18-.18.327-.002.505C-2.821-2.846-1.245-1.27.33.308c.182.182.316.174.501-.013,1.558-1.572,3.121-3.137,4.692-4.695.22-.218.207-.365-.011-.569-.257-.241-.483-.515-.724-.775h.465c.247.271.487.55.744.811Z"/>
        <path class="cls-6" d="M5.876,53.749c.189.188.399.335.097.633-1.74,1.718-3.464,3.45-5.194,5.176-.053.053-.12.091-.22.165-.623-.614-1.239-1.216-1.848-1.824-1.138-1.138-2.261-2.289-3.414-3.411-.315-.307-.287-.488.01-.781,1.652-1.627,3.292-3.268,4.92-4.919.27-.273.424-.283.7-.003,1.639,1.665,3.297,3.311,4.949,4.964ZM5.505,54.428c.247-.245.242-.401-.002-.643-1.542-1.524-3.07-3.061-4.604-4.593-.086-.086-.186-.154-.309-.255-.117.098-.227.176-.322.27-1.513,1.508-3.017,3.025-4.54,4.523-.292.286-.29.462.002.749,1.501,1.476,2.99,2.965,4.465,4.468.293.297.472.334.782.018,1.495-1.526,3.009-3.034,4.529-4.537Z"/>
        <path class="cls-6" d="M5.934,42.028c.215.212.267.361.021.603-1.715,1.697-3.417,3.408-5.126,5.113-.074.074-.165.133-.232.186-1.87-1.869-3.725-3.722-5.563-5.559,1.858-1.842,3.728-3.696,5.682-5.634.646.672,1.331,1.402,2.033,2.113,1.054,1.067,2.116,2.125,3.184,3.178ZM5.441,42.722c.296-.29.283-.461-.005-.744-1.533-1.507-3.051-3.03-4.56-4.561-.239-.242-.375-.213-.596.013-.931.949-1.874,1.887-2.822,2.82-.691.68-1.399,1.346-2.086,2.006.088.152.11.215.151.256,1.606,1.611,3.215,3.218,4.819,4.831.22.222.362.113.535-.061,1.517-1.525,3.032-3.051,4.564-4.558Z"/>
        <path class="cls-6" d="M5.948,30.281c.252.249.216.405-.02.639-1.681,1.665-3.356,3.336-5.019,5.019-.247.251-.393.24-.633-.002-1.667-1.68-3.341-3.354-5.026-5.016-.273-.269-.229-.435.017-.678,1.681-1.666,3.352-3.343,5.028-5.015.085-.084.187-.15.295-.234.102.079.193.137.267.21,1.697,1.692,3.389,3.39,5.092,5.077ZM5.53,30.866c.074-.074.135-.162.224-.27-.097-.114-.178-.223-.272-.318-1.519-1.52-3.047-3.029-4.553-4.562-.283-.288-.438-.26-.702.007-1.498,1.518-3.005,3.028-4.527,4.522-.292.285-.242.455.017.711,1.517,1.5,3.028,3.006,4.525,4.525.257.261.409.274.67.01,1.531-1.551,3.078-3.086,4.618-4.626Z"/>
        <path class="cls-6" d="M5.884,18.473c.295.289.281.447-.014.736-1.634,1.604-3.244,3.234-4.863,4.854-.129.129-.267.25-.467.437-1.026-1.039-2.001-2.033-2.981-3.02-.774-.78-1.55-1.558-2.334-2.327-.212-.208-.272-.362-.025-.607,1.74-1.719,3.467-3.451,5.198-5.178.043-.043.095-.077.192-.154.319.309.64.612.954.926,1.445,1.444,2.882,2.899,4.338,4.333ZM5.526,19.112c.073-.074.131-.165.213-.269-.084-.107-.148-.211-.232-.295-1.54-1.545-3.086-3.085-4.623-4.633-.217-.219-.369-.256-.607-.016-1.534,1.551-3.079,3.093-4.628,4.629-.227.224-.236.373-.002.605,1.561,1.544,3.113,3.099,4.66,4.658.193.194.319.225.527.014,1.559-1.57,3.128-3.129,4.692-4.694Z"/>
        <path class="cls-6" d="M5.868,6.699c.309.301.296.468-.01.769-1.668,1.637-3.31,3.299-4.963,4.952-.086.086-.179.164-.307.278-.201-.186-.394-.356-.576-.537-1.576-1.574-3.149-3.152-4.729-4.722-.224-.224-.351-.393-.06-.681C-3.05,5.051-1.337,3.331.382,1.617c.053-.052.123-.086.184-.129.039-.031.077-.06.116-.091.601.641,1.19,1.295,1.805,1.921,1.116,1.138,2.239,2.27,3.381,3.381ZM5.512,7.393c.221-.219.258-.367.019-.605C3.969,5.244,2.417,3.692.873,2.131c-.223-.226-.371-.195-.573.008-1.536,1.546-3.075,3.089-4.622,4.625-.244.242-.234.412.007.651,1.528,1.51,3.045,3.033,4.566,4.548.097.096.205.178.336.292.124-.102.234-.18.329-.275,1.533-1.529,3.06-3.063,4.597-4.587Z"/>
        <path class="cls-3" d="M5.531,6.788c.24.238.203.386-.019.605-1.537,1.523-3.064,3.058-4.597,4.587-.095.095-.205.173-.329.275-.131-.113-.24-.196-.336-.292-1.521-1.516-3.038-3.038-4.566-4.548-.241-.239-.251-.409-.007-.651C-2.776,5.229-1.237,3.685.299,2.14c.203-.204.35-.234.573-.008,1.545,1.56,3.097,3.113,4.658,4.657ZM2.422,8.38c.454-.255.626-.666.594-1.167-.03-.465-.359-.866-.838-.996-.257-.07-.364-.165-.389-.459-.059-.674-.569-1.104-1.208-1.1-.608.004-1.161.443-1.175,1.021-.009.361-.157.469-.461.556-.49.139-.756.524-.776,1.033-.022.537.226.934.689,1.147.604.278,1.09.033,1.549-.366.034.029.07.057.105.085-.192.429-.384.859-.587,1.314h1.325c-.217-.48-.417-.921-.616-1.362l.106-.081c.098.087.192.179.294.262.383.317.94.367,1.389.115Z"/>
        <path class="cls-3" d="M5.511-4.969c.218.204.231.35.011.569C3.952-2.842,2.388-1.277.831.295c-.185.187-.319.195-.501.013-1.574-1.578-3.151-3.153-4.729-4.727-.178-.178-.192-.324.002-.505.283-.263.547-.546.82-.821H-.696c-.324.373-.681.722-.965,1.125-.354.502-.214,1.231.248,1.586.448.345,1.042.263,1.485-.22.096-.104.15-.246.222-.371.071.059.141.117.211.176-.215.366-.429.732-.662,1.128h1.488c-.248-.409-.476-.786-.704-1.163.065-.052.13-.105.195-.157.112.159.204.337.339.474.355.359.794.413,1.242.23.436-.178.638-.578.595-1.008-.033-.329-.21-.663-.391-.952-.191-.309-.464-.567-.701-.847h2.881c.241.26.467.534.724.775Z"/>
        <path class="cls-3" d="M5.754,30.596c-.089.108-.15.195-.224.27-1.54,1.541-3.087,3.075-4.618,4.626-.261.264-.414.251-.67-.01-1.497-1.52-3.008-3.025-4.525-4.525-.258-.256-.309-.426-.017-.711,1.522-1.494,3.029-3.005,4.527-4.522.264-.268.419-.296.702-.007,1.506,1.533,3.034,3.043,4.553,4.562.095.095.176.204.272.318ZM2.473,31.847c.43-.265.625-.692.531-1.198-.117-.627-.551-.935-1.174-1.02-.08-.953-.449-1.424-1.132-1.455-.744-.035-1.269.297-1.371,1.455-.572.094-1.022.362-1.14.977-.099.515.054.969.527,1.237.628.356,1.199.185,1.705-.316.033.028.065.057.099.085-.198.451-.396.901-.593,1.349h1.322c-.214-.481-.409-.92-.604-1.358.032-.04.063-.079.095-.118.506.578,1.091.759,1.736.363Z"/>
        <path class="cls-3" d="M5.739,18.843c-.082.104-.139.194-.213.269-1.564,1.565-3.134,3.125-4.692,4.694-.208.211-.334.18-.527-.014-1.546-1.56-3.099-3.114-4.66-4.658-.234-.232-.225-.381.002-.605,1.549-1.536,3.094-3.078,4.628-4.629.238-.24.39-.204.607.016,1.536,1.548,3.083,3.088,4.623,4.633.085.084.149.188.232.295ZM2.618,20.438c.48-.406.539-1.135.12-1.672-.19-.243-.4-.472-.611-.698-.512-.546-1.03-1.087-1.561-1.648-.625.673-1.207,1.289-1.777,1.918-.194.216-.393.443-.523.699-.263.519-.073,1.179.383,1.487.454.306.958.217,1.409-.245.102-.104.211-.203.317-.304.043.029.085.057.127.086-.225.382-.45.765-.677,1.151h1.576c-.17-.218-.331-.392-.453-.59-.117-.19-.193-.404-.287-.609.068-.05.136-.1.203-.151.066.123.11.266.201.363.497.536,1.083.611,1.553.213Z"/>
        <path class="cls-3" d="M5.503,53.785c.243.242.249.398.002.643-1.52,1.503-3.034,3.011-4.529,4.537-.309.316-.489.28-.782-.018-1.475-1.503-2.964-2.992-4.465-4.468-.292-.287-.294-.463-.002-.749,1.523-1.498,3.027-3.015,4.54-4.523.095-.095.204-.173.322-.27.124.1.224.169.309.255,1.534,1.532,3.062,3.069,4.604,4.593ZM2.425,55.404c.454-.255.641-.669.586-1.167-.058-.522-.355-.883-.883-1.007-.229-.055-.31-.157-.336-.405-.075-.717-.559-1.147-1.22-1.143-.652.004-1.132.454-1.175,1.175-.02.315-.22.322-.421.387-.559.182-.829.586-.807,1.202.019.525.385.957.918,1.079.532.121.951-.1,1.315-.487l.114.086c-.19.435-.379.87-.584,1.341h1.309c-.204-.459-.391-.882-.579-1.305.045-.022.088-.045.133-.066.067.057.133.115.202.171.421.344.961.401,1.428.14Z"/>
        <path class="cls-3" d="M5.436,41.978c.287.283.3.454.005.744-1.533,1.507-3.047,3.033-4.564,4.558-.174.175-.315.283-.535.061-1.604-1.612-3.213-3.22-4.819-4.831-.041-.041-.062-.103-.151-.256.688-.66,1.395-1.325,2.086-2.006.948-.933,1.89-1.871,2.822-2.82.22-.226.357-.255.596-.013,1.509,1.532,3.028,3.054,4.56,4.561ZM2.391,44.095c.423-.166.626-.548.603-.958-.02-.33-.149-.708-.354-.963-.524-.649-1.117-1.242-1.685-1.854-.112-.121-.24-.228-.389-.37-.329.345-.629.653-.921.969-.409.444-.826.882-1.212,1.345-.417.501-.361,1.287.089,1.684.465.411,1.099.326,1.592-.222.08-.089.125-.211.187-.317.066.049.133.099.199.149-.212.376-.424.753-.641,1.14h1.474c-.25-.404-.477-.771-.704-1.138.048-.033.097-.065.146-.098.135.141.261.292.405.422.357.322.776.382,1.211.211Z"/>
        <path class="cls-5" d="M3.016,7.212c.033.501-.14.913-.594,1.167-.45.252-1.007.202-1.389-.115-.101-.083-.196-.175-.294-.262l-.106.081-.122.048c-.035-.028-.071-.056-.105-.085-.459.399-.945.644-1.549.366-.463-.213-.711-.61-.689-1.147.02-.508.286-.893.776-1.033.304-.086.452-.195.461-.556.014-.578.567-1.018,1.175-1.021.639-.004,1.15.427,1.208,1.1.025.295.132.389.389.459.48.13.809.532.838.996Z"/>
        <path class="cls-5" d="M3.011,54.236c.055.498-.132.913-.586,1.167-.467.261-1.007.204-1.428-.14-.069-.056-.135-.114-.202-.171-.045.021-.088.044-.133.066l-.146-.036-.114-.086c-.364.387-.783.608-1.315.487-.533-.122-.9-.554-.918-1.079-.022-.615.247-1.02.807-1.202.201-.065.401-.072.421-.387.043-.72.522-1.171,1.175-1.175.661-.004,1.145.427,1.22,1.143.026.248.108.35.336.405.528.125.825.485.883,1.007Z"/>
        <path class="cls-5" d="M3.004,30.649c.094.506-.1.933-.531,1.198-.645.396-1.231.215-1.736-.363-.032.039-.063.078-.095.118l-.125.009c-.033-.028-.066-.057-.099-.085-.507.501-1.077.672-1.705.316-.473-.268-.625-.722-.527-1.237.118-.614.569-.883,1.14-.977.102-1.158.627-1.491,1.371-1.455.683.032,1.052.503,1.132,1.455.623.086,1.057.393,1.174,1.02Z"/>
        <path class="cls-5" d="M2.994,43.137c.023.41-.18.792-.603.958-.435.171-.854.112-1.211-.211-.144-.13-.27-.281-.405-.422-.049.033-.098.065-.146.098l-.129-.002c-.066-.049-.133-.099-.199-.149-.061.106-.107.228-.187.317-.494.548-1.127.633-1.592.222-.45-.397-.507-1.183-.089-1.684.386-.463.803-.901,1.212-1.345.292-.316.592-.625.921-.969.15.142.277.249.389.37.568.612,1.161,1.205,1.685,1.854.205.255.335.633.354.963Z"/>
        <path class="cls-5" d="M2.738,18.766c.419.537.361,1.266-.12,1.672-.47.398-1.056.323-1.553-.213-.091-.098-.135-.241-.201-.363-.067.05-.135.1-.203.151l-.16.048c-.043-.029-.085-.057-.127-.086-.106.101-.215.2-.317.304-.451.462-.954.551-1.409.245-.456-.308-.646-.968-.383-1.487.13-.256.329-.483.523-.699.57-.629,1.152-1.245,1.777-1.918.532.56,1.049,1.101,1.561,1.648.211.226.421.454.611.698Z"/>
        <path class="cls-6" d="M1.906,61.543h-.465c-.22-.23-.427-.479-.669-.683-.079-.067-.306-.08-.375-.018-.231.21-.423.464-.629.701h-.465c.358-.378.702-.77,1.084-1.122.073-.068.344-.031.439.053.378.336.723.709,1.08,1.069Z"/>
        <path class="cls-5" d="M1.401,21.212H-.175c.227-.386.452-.769.677-1.151l.16-.048c.094.204.17.419.287.609.122.198.283.372.453.59Z"/>
        <path class="cls-5" d="M1.333,44.698H-.141c.217-.388.429-.764.641-1.14l.129.002c.227.367.454.734.704,1.138Z"/>
        <path class="cls-5" d="M1.249,9.446H-.076c.204-.455.395-.885.587-1.314l.122-.048c.199.441.399.882.616,1.362Z"/>
        <path class="cls-5" d="M1.246,32.96H-.075c.197-.448.395-.898.593-1.349l.125-.009c.195.438.39.876.604,1.358Z"/>
        <path class="cls-5" d="M1.242,56.463H-.067c.204-.471.394-.906.584-1.341l.146.036c.188.423.375.846.579,1.305Z"/>
        <path class="cls-6" d="M.126,24.458c.064.065.121.138.18.206-1.894,1.895-3.75,3.754-5.573,5.577-1.845-1.851-3.706-3.718-5.588-5.605.051-.057.139-.163.236-.26,1.652-1.654,3.312-3.302,4.954-4.968.281-.285.447-.306.739-.009,1.674,1.697,3.366,3.375,5.052,5.06ZM-1.035,25.666c.305-.302.638-.576.926-.835-1.794-1.795-3.505-3.507-5.182-5.185-1.676,1.672-3.39,3.383-5.132,5.121.016.024.035.068.067.099,1.597,1.599,3.198,3.194,4.789,4.799.226.229.361.181.564-.024,1.316-1.332,2.64-2.656,3.968-3.976Z"/>
        <path class="cls-6" d="M-.346,60.266c.196-.187.23-.321.02-.529-1.58-1.567-3.153-3.141-4.722-4.719-.162-.163-.285-.208-.46-.033-1.613,1.621-3.229,3.238-4.842,4.858-.042.042-.061.104-.157.272.502.465,1.021.946,1.54,1.428h-.465c-.528-.474-1.056-.947-1.562-1.402,1.991-1.984,3.858-3.846,5.694-5.676,1.827,1.821,3.696,3.683,5.591,5.571-.469.487-.96.997-1.452,1.507h-.465c.426-.427.844-.862,1.28-1.277Z"/>
        <path class="cls-6" d="M.362,36.636c-.307.265-.684.556-1.02.888-1.429,1.412-2.855,2.829-4.263,4.262-.285.291-.45.292-.737,0-1.65-1.675-3.317-3.333-4.984-4.991-.2-.198-.315-.339-.053-.599,1.739-1.718,3.463-3.449,5.192-5.176.053-.053.117-.096.156-.127,1.875,1.886,3.733,3.755,5.709,5.743ZM-.16,36.424c-.086-.091-.189-.204-.296-.311-1.487-1.488-2.984-2.967-4.456-4.47-.293-.299-.453-.336-.763-.018-1.471,1.506-2.969,2.984-4.456,4.474-.117.116-.225.242-.276.296,1.741,1.755,3.445,3.474,5.093,5.136,1.695-1.679,3.414-3.382,5.154-5.107Z"/>
        <path class="cls-6" d="M.173,13.028c-1.774,1.777-3.637,3.644-5.469,5.48-1.843-1.844-3.707-3.708-5.553-5.556,1.827-1.827,3.681-3.681,5.503-5.504,1.823,1.842,3.682,3.723,5.519,5.58ZM-.369,13.269c.265-.261.201-.405-.029-.632-1.529-1.514-3.047-3.04-4.569-4.56-.096-.097-.202-.182-.236-.213-1.753,1.74-3.479,3.454-5.156,5.119,1.677,1.688,3.375,3.396,5.1,5.133.059-.047.111-.082.153-.125,1.577-1.575,3.148-3.157,4.736-4.722Z"/>
        <path class="cls-6" d="M.224,1.245c-1.812,1.816-3.665,3.674-5.487,5.5-1.846-1.845-3.707-3.705-5.538-5.534,1.817-1.809,3.683-3.665,5.508-5.482C-3.508-2.485-1.643-.622.224,1.245ZM-.376,1.508c.255-.251.223-.399-.016-.635C-1.869-.583-3.335-2.052-4.797-3.523c-.151-.151-.257-.346-.362-.491-1.806,1.811-3.515,3.526-5.246,5.263-.012-.027-.005.025.026.055,1.625,1.635,3.253,3.267,4.876,4.903.213.215.339.08.493-.073C-3.469,4.589-1.929,3.041-.376,1.508Z"/>
        <path class="cls-6" d="M-5.286,42.734c1.794,1.801,3.653,3.67,5.492,5.517-1.809,1.796-3.679,3.653-5.548,5.509-1.823-1.822-3.677-3.676-5.504-5.503,1.853-1.84,3.721-3.696,5.561-5.523ZM-.331,48.489c.237-.234.154-.372-.041-.565-1.494-1.482-2.983-2.969-4.465-4.464-.138-.139-.211-.344-.305-.503-1.84,1.852-3.537,3.56-5.232,5.266,1.683,1.691,3.391,3.406,5.115,5.139.042-.03.11-.067.162-.12,1.588-1.585,3.171-3.175,4.766-4.753Z"/>
      </g>
    </g>
  </g>
</svg>