<?xml version="1.0" encoding="UTF-8"?>
<svg id="Layer_2" data-name="Layer 2" xmlns="http://www.w3.org/2000/svg" xmlns:xlink="http://www.w3.org/1999/xlink" viewBox="0 0 12.871 141.172">
  <defs>
    <style>
      .cls-1 {
        clip-path: url(#clippath);
      }

      .cls-2 {
        fill: none;
      }

      .cls-2, .cls-3, .cls-4, .cls-5, .cls-6 {
        stroke-width: 0px;
      }

      .cls-3 {
        fill: #c041d3;
      }

      .cls-4 {
        fill: #9e5de2;
      }

      .cls-5 {
        fill: #6f46b9;
      }

      .cls-6 {
        fill: #4841a3;
      }
    </style>
    <clipPath id="clippath">
      <rect class="cls-2" width="12.871" height="141.172"/>
    </clipPath>
  </defs>
  <g id="Alice">
    <g class="cls-1">
      <g>
        <path class="cls-5" d="M55.896,113.026c-.006,0-.05.022-.082.054-4.088,4.066-8.165,8.146-12.269,12.193-.614.606-.324.941.136,1.399,3.904,3.891,7.796,7.798,11.695,11.695.218.218.476.396.696.578,4.361-4.38,8.648-8.689,12.783-12.844-4.315-4.339-8.637-8.687-12.982-13.058.011-.006.017-.011.022-.017ZM106.1,106.896v1.082c-2.827-2.79-5.654-5.578-8.31-8.2-.151-.149-.303-.298-.452-.446-4.449,4.426-8.799,8.754-13.067,12.998,4.229,4.244,8.54,8.572,13.015,13.065.173-.18.348-.359.521-.541l.426.433-.002.002c-.422.413-.402.72-.154,1.051l-.394.372c-.091-.106-.18-.21-.27-.314-4.603,4.594-8.946,8.931-13.562,13.536,1.196,1.084,2.42,2.191,3.647,3.301h-1.082c-.969-1.025-1.938-2.048-2.892-3.056-1.159,1.12-2.161,2.087-3.165,3.056h-.865c1.107-1.207,2.215-2.412,3.29-3.58-4.369-4.365-8.713-8.704-12.9-12.887-4.324,4.302-8.689,8.646-13.06,12.995,1.021,1.105,2.111,2.288,3.203,3.472h-.865c-.993-1.025-1.983-2.048-3.074-3.175-1.079,1.149-2.031,2.163-2.983,3.175h-1.082c1.164-1.196,2.327-2.39,3.394-3.485-4.434-4.458-8.739-8.786-12.974-13.043-.208.205-.413.413-.621.619-4.112,4.103-8.261,8.245-12.686,12.662,1.175,1.049,2.405,2.148,3.636,3.247h-1.082c-.95-1.001-1.899-2.001-2.816-2.968-.236.095-.359.112-.428.18-.941.926-1.875,1.858-2.812,2.788h-.865c1.097-1.207,2.193-2.412,3.195-3.513-4.378-4.387-8.691-8.706-13.043-13.067-.035.022-.171.08-.266.175-4.079,4.073-8.15,8.15-12.236,12.215-.433.43-.433.727-.004,1.157.986.989,1.927,2.018,2.888,3.033h-.865c-.833-.837-1.635-1.707-2.516-2.487-.221-.197-.85-.281-1.021-.123-.889.818-1.689,1.73-2.52,2.611h-1.082c1.142-1.187,2.286-2.373,3.376-3.506-4.41-4.395-8.76-8.728-13.013-12.965-4.274,4.259-8.62,8.589-13.253,13.207,1.179,1.058,2.407,2.161,3.638,3.264h-1.082c-.973-1.025-1.947-2.051-2.931-3.089-1.138,1.125-2.133,2.107-3.126,3.089h-.865c1.105-1.207,2.211-2.412,3.255-3.554-4.384-4.367-8.728-8.698-13.024-12.978-4.265,4.259-8.607,8.596-12.987,12.972,1.064,1.151,2.176,2.356,3.288,3.56h-.865c-1.014-1.008-2.027-2.014-3.136-3.115-1.017,1.084-1.968,2.1-2.92,3.115h-1.082c1.164-1.196,2.327-2.394,3.351-3.446-4.449-4.464-8.762-8.788-13.352-13.391-.134.18-.268.376-.409.578l-.381-.389.004-.004c.508-.489.515-.844.015-1.326-1.471-1.419-2.916-2.866-4.369-4.3v-.865c1.635,1.555,3.273,3.11,4.824,4.583.188.177.374.357.56.532,4.417-4.393,8.749-8.7,13.013-12.941-4.291-4.296-8.626-8.635-13.236-13.251-1.67,1.778-3.415,3.64-5.161,5.503v-1.082c1.553-1.683,3.106-3.363,4.772-5.167-1.471-1.406-3.121-2.987-4.772-4.566v-1.082c1.808,1.787,3.617,3.575,5.438,5.375.238-.175.398-.262.521-.385,4.049-4.043,8.083-8.098,12.152-12.122.66-.653.212-.969-.201-1.384-3.714-3.712-7.426-7.43-11.14-11.142-.398-.396-.815-.772-1.274-1.205-.422.404-.757.722-1.09,1.043-1.469,1.415-2.937,2.831-4.406,4.246v-.865c1.419-1.417,2.816-2.855,4.268-4.24.578-.549.591-.928.009-1.482-1.451-1.382-2.855-2.816-4.276-4.229v-.865c1.832,1.743,3.664,3.487,5.351,5.094.35-.35.703-.699,1.051-1.047,4.066-4.043,8.051-8.005,11.987-11.92-4.276-4.268-8.602-8.585-13.026-13-1.743,1.722-3.554,3.511-5.364,5.299v-1.082c1.538-1.696,3.076-3.389,4.441-4.891-1.348-1.469-2.894-3.156-4.441-4.843v-1.082c1.735,1.871,3.469,3.742,5.133,5.535,4.642-4.65,8.972-8.994,13.21-13.24-4.257-4.27-8.585-8.611-12.969-13.006-.253.234-.571.519-.88.813-1.499,1.441-2.996,2.883-4.493,4.324v-.865c1.425-1.415,2.838-2.84,4.285-4.233.554-.534.595-.945.009-1.501-1.456-1.38-2.866-2.808-4.294-4.216v-.865c1.631,1.551,3.264,3.1,4.83,4.588.195.184.389.368.582.552,4.415-4.402,8.741-8.713,12.995-12.954-4.298-4.304-8.635-8.646-13.274-13.29-1.659,1.789-3.396,3.66-5.133,5.531v-1.082c1.549-1.681,3.1-3.359,4.713-5.109-.601-.638-1.361-1.443-2.118-2.245h1.082c1.456,2.17,1.759,2.202,3.459.359.093-.102.147-.24.218-.359h1.082c-.755.811-1.508,1.624-2.297,2.474.21.262.366.5.562.696,3.941,3.945,7.895,7.878,11.817,11.84.567.573.895.441,1.391-.065,2.167-2.206,4.358-4.389,6.56-6.56,1.94-1.916,3.904-3.807,5.892-5.743-.859-.991-1.577-1.817-2.295-2.643h.865q1.875,2.092,3.826.084c.024-.026.045-.056.067-.084h.865c-.718.826-1.434,1.653-2.033,2.347,4.374,4.382,8.687,8.706,12.937,12.967,4.248-4.259,8.559-8.583,12.922-12.956-.686-.735-1.441-1.547-2.195-2.358h1.082c.48.523.932,1.079,1.46,1.549.16.141.649.151.798.015.517-.474.952-1.036,1.419-1.564h1.082c-.759.805-1.516,1.611-2.228,2.366C-7.247-6.624-2.927-2.311,1.437,2.048c.013-.009.164-.048.262-.143C5.798-2.192,9.893-6.297,13.994-10.392c.402-.402.335-.712-.039-1.09-.599-.608-1.155-1.255-1.73-1.886h.865c2.388,2.433,1.566,2.247,3.822.08.026-.026.048-.054.071-.08h.865c-.396.454-.768.932-1.194,1.356-1.107,1.101-1.123,1.097-.061,2.159C19.875-6.568,23.159-3.282,26.446,0c.733.731,1.482,1.445,2.148,2.094,4.025-4.023,7.973-7.969,11.966-11.959l1.142-1.142c-.705-.748-1.464-1.555-2.224-2.36h1.082c1.473,2.161,1.78,2.195,3.461.359.091-.102.145-.24.216-.359h1.082c-.753.811-1.505,1.624-2.154,2.323.318.32.638.64.956.96,4.043,4.062,8.044,8.085,12.024,12.083,4.253-4.263,8.561-8.583,12.911-12.944-.668-.768-1.389-1.596-2.107-2.423h.865c2.36,2.42,1.598,2.226,3.826.082.024-.024.043-.054.067-.082h.865c-.718.826-1.436,1.655-2.176,2.509.193.229.34.433.515.608,3.965,3.971,7.947,7.925,11.888,11.918.681.692,1.025.264,1.475-.186,3.863-3.87,7.731-7.735,11.592-11.607.223-.223.411-.478.649-.761-.802-.861-1.557-1.672-2.312-2.481h1.082c.48.526.928,1.084,1.458,1.555.156.136.64.141.792.004.519-.472.958-1.034,1.428-1.56h1.082c-.761.805-1.523,1.611-2.563,2.712.095.078.19.154.283.227l-.361.366c-.017-.015-.035-.032-.052-.05-4.454,4.421-8.81,8.743-13.091,12.991,4.233,4.246,8.544,8.57,12.915,12.954.171-.151.366-.318.558-.495.065-.058.128-.119.19-.182,1.635-1.627,3.255-3.268,4.901-4.882,1.073-1.051,2.182-2.064,3.275-3.093v.865c-2.604,2.587-5.198,5.187-7.824,7.754-.584.571-.387.95.087,1.419,2.587,2.559,5.159,5.131,7.737,7.698v.865c-.277-.216-.58-.404-.828-.651-2.349-2.336-4.687-4.685-7.034-7.025-.353-.35-.729-.675-1.001-.926-4.406,4.4-8.745,8.736-12.978,12.965,4.274,4.296,8.605,8.648,13.207,13.274.015-.017.032-.032.048-.05l.342.329c-.041.039-.028.132-.041.201-.078.078-.156.158-.234.236.253.197.519.385.777.58l-.4.398-.03-.03c-.595-.606-.952-.61-1.557.002-3.872,3.924-7.77,7.821-11.698,11.689-.645.634-.532.98.048,1.553l.039.039c3.852,3.813,7.674,7.659,11.507,11.49.251.251.526.474.872.783,3.017-3.011,5.989-5.981,8.964-8.951v1.082c-2.574,2.57-5.133,5.152-7.733,7.696-.575.562-.578.917-.002,1.48,2.6,2.544,5.161,5.126,7.735,7.696v1.082c-2.966-2.978-5.931-5.957-8.708-8.747-.164.164-.329.327-.493.489-4.287,4.255-8.477,8.412-12.578,12.483,4.246,4.233,8.572,8.548,12.982,12.948,2.883-2.864,5.84-5.801,8.797-8.736v1.082c-.273.225-.567.433-.818.681-2.189,2.174-4.371,4.356-6.556,6.537-1.088,1.084-1.099,1.092.017,2.198,2.446,2.418,4.904,4.828,7.356,7.24ZM95.979,71.84c.502-.5.448-.857-.039-1.339-3.93-3.909-7.85-7.828-11.752-11.765-.567-.571-.945-.539-1.495.03-1.676,1.735-3.4,3.426-5.109,5.129-2.397,2.388-4.798,4.769-7.229,7.183.138.247.171.357.242.428,4.073,4.079,8.155,8.146,12.212,12.238.536.541.898.387,1.341-.058,3.937-3.954,7.876-7.906,11.827-11.847ZM83.438,111.427c4.291-4.278,8.617-8.594,12.905-12.87-4.276-4.276-8.596-8.594-12.775-12.77-4.32,4.291-8.669,8.613-12.855,12.773,4.218,4.265,8.511,8.609,12.725,12.868ZM96.217,16.341c-4.192-4.196-8.488-8.499-12.745-12.76-4.265,4.307-8.563,8.646-12.831,12.952,4.198,4.222,8.503,8.555,12.667,12.745,4.304-4.313,8.635-8.654,12.909-12.937ZM83.461,56.703c4.259-4.261,8.574-8.581,12.729-12.738-4.296-4.352-8.602-8.717-12.753-12.924-4.281,4.257-8.609,8.561-12.853,12.779,4.272,4.276,8.592,8.598,12.876,12.883ZM83.42,138.815c4.281-4.263,8.605-8.568,12.863-12.812-4.328-4.339-8.637-8.656-12.842-12.87-4.274,4.259-8.615,8.587-12.833,12.792,4.255,4.281,8.557,8.611,12.812,12.889ZM82.73,57.438c-.087-.112-.199-.296-.346-.443-3.993-3.999-8.001-7.986-11.977-12.005-.582-.591-.932-.398-1.406.08-2.481,2.507-4.966,5.01-7.475,7.486-1.631,1.611-3.303,3.18-4.845,4.659,4.54,4.523,8.886,8.853,13.143,13.095,4.22-4.209,8.544-8.522,12.907-12.872ZM79.752,88.051c1.032-1.036,2.059-2.074,2.996-3.015-4.415-4.432-8.726-8.758-12.918-12.967-4.304,4.291-8.652,8.624-13.034,12.991.041.052.134.205.26.331,3.995,3.997,8.003,7.982,11.981,11.994.595.601.963.463,1.49-.071,3.059-3.104,6.147-6.178,9.225-9.262ZM69.683,125.074c4.326-4.294,8.682-8.617,12.846-12.747-4.274-4.294-8.605-8.643-12.866-12.926-4.248,4.242-8.574,8.561-12.848,12.831,4.311,4.3,8.656,8.639,12.868,12.842ZM82.551,30.212c-4.268-4.276-8.622-8.637-12.768-12.79-4.27,4.231-8.626,8.548-12.853,12.736,4.248,4.278,8.553,8.617,12.818,12.913,4.291-4.309,8.624-8.661,12.803-12.859ZM69.795,15.77c4.261-4.281,8.568-8.611,12.874-12.937-4.296-4.302-8.633-8.648-12.87-12.892-4.302,4.291-8.646,8.624-12.922,12.892,4.27,4.276,8.605,8.617,12.918,12.937ZM69.276,71.329c-.476-.519-.753-.844-1.053-1.146-3.768-3.77-7.558-7.521-11.295-11.319-.673-.684-1.056-.671-1.722.006-3.839,3.898-7.715,7.761-11.609,11.607-.539.53-.578.857-.037,1.393,3.939,3.902,7.869,7.815,11.767,11.758.629.634.999.53,1.566-.052,2.111-2.165,4.255-4.3,6.407-6.426,1.945-1.921,3.915-3.816,5.976-5.821ZM69.056,16.371c-.102-.119-.249-.316-.422-.491-3.969-3.98-7.951-7.945-11.897-11.946-.599-.606-.93-.366-1.397.106-3.889,3.909-7.78,7.815-11.702,11.693-.586.58-.543.928.017,1.482,3.919,3.88,7.806,7.791,11.708,11.687.221.221.482.4.658.545,4.371-4.387,8.682-8.71,13.034-13.075ZM68.9,43.8c-4.237-4.272-8.535-8.605-12.766-12.87-4.313,4.317-8.648,8.654-12.883,12.894,4.25,4.265,8.559,8.589,12.792,12.838,4.289-4.291,8.626-8.628,12.857-12.861ZM68.924,98.549c-4.242-4.255-8.553-8.579-12.796-12.833-4.3,4.291-8.639,8.62-12.807,12.777,4.255,4.294,8.566,8.648,12.783,12.907,4.257-4.268,8.568-8.587,12.82-12.851ZM55.359,57.419c-.035-.054-.093-.19-.188-.288-4.071-4.077-8.155-8.144-12.21-12.236-.588-.597-.908-.249-1.313.158-2.131,2.141-4.263,4.285-6.405,6.418-1.988,1.975-3.986,3.937-5.944,5.866,4.454,4.439,8.797,8.769,13.054,13.011,4.313-4.287,8.643-8.592,13.006-12.928ZM54.996,112.838c.645-.638.24-.973-.186-1.397-3.844-3.842-7.685-7.685-11.529-11.525-.27-.27-.565-.513-.666-.603-4.432,4.43-8.769,8.769-13.011,13.011,4.209,4.24,8.514,8.574,12.846,12.937.084-.058.216-.121.314-.221,4.075-4.069,8.137-8.152,12.232-12.202ZM52.364,88.099c1.038-1.036,2.1-2.046,3.022-2.942-4.46-4.486-8.784-8.834-13.05-13.123-4.259,4.235-8.587,8.54-13.002,12.933.199.221.383.439.582.64,3.891,3.896,7.8,7.774,11.663,11.7.653.664,1.023.595,1.631-.024,3.028-3.084,6.093-6.132,9.154-9.184ZM42.345,43.011c4.296-4.294,8.635-8.626,12.937-12.924-4.24-4.244-8.557-8.563-12.818-12.827-4.304,4.315-8.637,8.659-12.896,12.928,4.24,4.255,8.574,8.605,12.777,12.822ZM55.279,2.699c-4.25-4.255-8.57-8.579-12.831-12.844-4.311,4.311-8.656,8.656-12.883,12.883,4.32,4.337,8.63,8.665,12.786,12.838,4.278-4.261,8.624-8.589,12.928-12.876ZM41.172,17.206c.66-.653.42-1.064-.115-1.594-3.878-3.857-7.739-7.731-11.611-11.596-.218-.218-.476-.396-.72-.597-.188.136-.316.208-.415.305-4.047,4.049-8.081,8.111-12.152,12.139-.638.632-.273.956.167,1.393,3.292,3.279,6.586,6.556,9.857,9.857.805.813,1.525,1.709,2.286,2.57.435-.311.534-.363.608-.437,4.03-4.015,8.046-8.042,12.096-12.039ZM41.717,71.195c-.199-.255-.348-.497-.543-.692-3.917-3.924-7.852-7.832-11.754-11.769-.584-.588-.939-.502-1.484.05-3.846,3.891-7.707,7.763-11.6,11.605-.645.636-.638,1.008,0,1.637,3.917,3.87,7.802,7.77,11.678,11.678.474.476.807.569,1.324.048,3.93-3.963,7.882-7.899,11.823-11.851.197-.197.348-.439.556-.705ZM41.109,126.709c.586-.582.636-.989.017-1.592-2.494-2.44-4.966-4.904-7.408-7.398-1.607-1.64-3.147-3.346-4.746-5.053-.497.4-.649.5-.774.625-4.002,3.993-7.99,7.999-12.009,11.977-.588.582-.379.93.102,1.406,3.394,3.379,6.768,6.775,10.153,10.162.731.729,1.484,1.434,2.239,2.163.257-.199.443-.311.593-.461,3.943-3.943,7.876-7.899,11.834-11.83ZM28.402,57.016c4.607-4.592,8.931-8.903,13.227-13.186-4.3-4.27-8.635-8.572-13.015-12.922-.054.037-.247.138-.394.286-4.032,4.019-8.053,8.049-12.093,12.057-.582.578-.242.917.169,1.326,3.009,3,6.026,5.992,9.009,9.018,1.105,1.123,2.118,2.334,3.097,3.422ZM28.726,111.464c4.287-4.298,8.6-8.62,12.881-12.911-4.276-4.259-8.605-8.57-12.861-12.809-4.298,4.263-8.63,8.561-12.866,12.766,4.276,4.313,8.579,8.652,12.846,12.954ZM28.092,57.562c-.169-.221-.294-.433-.461-.603-.552-.569-1.118-1.125-1.679-1.685-3.385-3.385-6.777-6.766-10.147-10.166-.521-.526-.885-.686-1.492-.074-3.898,3.943-7.828,7.856-11.752,11.773-.409.407-.755.722-.16,1.313,4.038,4.002,8.055,8.027,12.063,12.059.433.435.731.42,1.155-.006,3.982-4.008,7.979-7.999,11.97-11.998.173-.173.311-.379.502-.612ZM27.61,85.471c.171-.171.301-.385.476-.614-.175-.225-.307-.437-.478-.608-3.965-3.973-7.943-7.932-11.894-11.918-.547-.552-.887-.476-1.397.039-3.926,3.96-7.871,7.904-11.83,11.832-.495.491-.521.82-.015,1.322,3.986,3.956,7.956,7.93,11.916,11.912.443.446.764.517,1.244.032,3.982-4.008,7.986-7.997,11.979-11.996ZM27.63,30.747c.497-.493.366-.813-.063-1.242-3.982-3.965-7.958-7.936-11.916-11.925-.472-.474-.785-.439-1.239.017-3.963,3.986-7.932,7.962-11.925,11.918-.517.513-.48.852.009,1.326,1.166,1.123,2.306,2.275,3.446,3.424,2.966,2.985,5.925,5.974,8.944,9.02.273-.184.404-.247.502-.342,4.079-4.066,8.15-8.142,12.243-12.197ZM27.439,3.572c.223-.223.415-.474.578-.662-4.393-4.389-8.732-8.723-13.028-13.013C10.715-5.843,6.393-1.537,1.972,2.87c.311.327.578.616.854.893,3.792,3.798,7.605,7.577,11.365,11.408.699.712,1.079.601,1.72-.048,3.82-3.872,7.683-7.703,11.529-11.551ZM27.338,113.123c.268-.268.502-.569.677-.768-4.413-4.417-8.728-8.736-13.008-13.024-4.27,4.274-8.581,8.589-12.976,12.989.136.164.257.34.407.489,3.993,4.006,8.001,7.997,11.974,12.022.625.632.95.279,1.393-.167,3.839-3.852,7.69-7.694,11.533-11.542ZM13.901,126.568c.705-.696.214-1.036-.225-1.475-3.846-3.844-7.705-7.674-11.518-11.551-.642-.653-.999-.632-1.629.004-3.79,3.844-7.605,7.661-11.449,11.451-.694.681-.759,1.101-.024,1.817,2.682,2.609,5.295,5.291,7.943,7.936,1.417,1.419,2.853,2.818,4.3,4.248.234-.175.392-.262.513-.385,4.028-4.017,8.04-8.051,12.089-12.046ZM13.862,99.219c.569-.565.448-.913-.052-1.406-2.485-2.451-4.958-4.912-7.408-7.395-1.637-1.657-3.232-3.355-4.735-4.919-4.549,4.512-8.901,8.825-13.225,13.112,4.278,4.276,8.596,8.589,12.95,12.937.154-.121.366-.26.541-.433,3.976-3.967,7.936-7.947,11.929-11.897ZM13.795,71.963c.549-.543.634-.906.048-1.488-3.965-3.924-7.902-7.876-11.849-11.817-.173-.171-.383-.303-.621-.489-.251.199-.491.35-.688.547-3.9,3.889-7.789,7.793-11.7,11.672-.573.565-.675.954-.041,1.579,3.924,3.867,7.819,7.761,11.698,11.672.558.565.898.591,1.475.006,3.867-3.917,7.765-7.809,11.678-11.682ZM13.663,44.705c.684-.673.716-1.04.032-1.713-3.392-3.335-6.733-6.721-10.099-10.084-.727-.727-1.477-1.434-2.217-2.152-.227.18-.348.257-.45.357-4.03,4.021-8.049,8.051-12.098,12.052-.573.567-.435.926.058,1.41,1.823,1.793,3.632,3.601,5.431,5.416,2.282,2.299,4.551,4.609,6.937,7.03.465-.435.785-.716,1.086-1.017,3.768-3.772,7.514-7.564,11.319-11.3ZM13.633,17.381c.712-.701.746-1.088.024-1.791-2.656-2.585-5.269-5.222-7.869-7.867-1.432-1.46-2.801-2.978-4.198-4.471-.091.069-.182.141-.273.21-.143.099-.305.18-.426.301-4.002,3.989-7.988,7.995-12.009,11.964-.677.668-.381,1.064.143,1.583C-7.301,20.965-3.641,24.638.029,28.3c.422.424.874.818,1.341,1.252.294-.266.513-.448.712-.647,3.846-3.846,7.67-7.715,11.551-11.525ZM.715,57.401c-.141-.16-.27-.329-.422-.478-3.922-3.922-7.863-7.826-11.756-11.778-.681-.69-1.066-.64-1.722.024-3.818,3.878-7.683,7.711-11.529,11.564-.225.225-.43.472-.549.603,4.38,4.393,8.713,8.739,13.006,13.045,4.242-4.244,8.563-8.568,12.972-12.98ZM-1.532,87.331c.783-.772,1.661-1.449,2.377-2.066-4.601-4.629-8.925-8.979-13.287-13.365-.093.074-.24.173-.363.296-4.028,4.017-8.04,8.049-12.085,12.046-.61.603-.342.932.121,1.393,3.88,3.859,7.763,7.715,11.602,11.615.668.679,1.049.677,1.715.002,3.277-3.338,6.593-6.634,9.92-9.922ZM-12.326,43.076c4.263-4.272,8.6-8.617,12.727-12.753-4.274-4.322-8.602-8.7-12.842-12.987-4.242,4.242-8.557,8.555-12.809,12.809,4.298,4.298,8.635,8.639,12.924,12.931ZM-12.25,15.696C-8.011,11.448-3.695,7.124.523,2.895-3.825-1.448-8.164-5.785-12.321-9.94-16.567-5.713-20.911-1.389-25.14,2.818c4.261,4.257,8.594,8.587,12.889,12.879ZM.479,112.299c-4.278-4.298-8.607-8.648-12.779-12.842-4.281,4.253-8.63,8.574-12.944,12.857,4.255,4.253,8.57,8.566,12.812,12.805,4.35-4.317,8.704-8.641,12.911-12.82ZM-13.422,17.05c.584-.578.247-.911-.167-1.322-3.904-3.893-7.811-7.783-11.689-11.7-.562-.567-.906-.586-1.48-.004-3.874,3.919-7.78,7.804-11.672,11.704-.223.223-.411.48-.565.66,4.358,4.371,8.669,8.695,13.021,13.06.095-.054.171-.076.218-.125,4.11-4.092,8.211-8.194,12.331-12.273ZM-13.624,126.713c.681-.671.545-1.045-.054-1.637-3.844-3.8-7.657-7.633-11.483-11.451-.27-.27-.573-.504-.833-.733-4.387,4.384-8.687,8.685-12.946,12.944,4.348,4.367,8.656,8.693,13.017,13.073.19-.169.439-.366.664-.591,3.874-3.87,7.731-7.763,11.635-11.605ZM-26.022,56.696c4.3-4.276,8.63-8.581,12.928-12.857-4.3-4.263-8.637-8.561-12.898-12.786-4.255,4.235-8.594,8.555-12.809,12.753,4.248,4.285,8.548,8.622,12.779,12.889ZM-13.167,71.295c-4.322-4.354-8.615-8.685-12.944-13.047-.054.039-.184.104-.281.201-4.054,4.036-8.098,8.085-12.165,12.109-.595.588-.344.937.125,1.404,2.963,2.94,5.903,5.903,8.858,8.851,1.162,1.159,2.343,2.297,3.491,3.422,4.419-4.426,8.728-8.745,12.915-12.939ZM-13.079,98.572c-4.287-4.287-8.609-8.605-12.876-12.87-4.326,4.313-8.65,8.622-12.831,12.792,4.263,4.3,8.579,8.652,12.812,12.922,4.278-4.261,8.605-8.57,12.896-12.844ZM-26.734,57.414c-.022-.032-.082-.167-.177-.262-4.071-4.079-8.15-8.15-12.212-12.236-.435-.437-.74-.415-1.159.015-1.153,1.19-2.34,2.343-3.513,3.511-2.981,2.972-5.959,5.944-8.845,8.823,4.423,4.462,8.745,8.819,12.972,13.08,4.255-4.253,8.576-8.572,12.935-12.931ZM-28.49,86.853c.632-.625,1.371-1.14,1.981-1.642-4.59-4.601-8.905-8.925-13.177-13.205-4.328,4.326-8.654,8.65-13.015,13.008.058.074.158.223.281.346,3.993,3.999,7.999,7.99,11.977,12.005.569.573.941.528,1.492-.03,3.465-3.515,6.954-7.006,10.46-10.482ZM-26.779,2.835c-4.285-4.274-8.611-8.592-12.939-12.911-4.268,4.265-8.611,8.605-12.902,12.894,4.296,4.296,8.635,8.637,12.915,12.918,4.3-4.291,8.643-8.626,12.926-12.9ZM-39.64,42.952c4.253-4.235,8.583-8.546,12.876-12.822-4.298-4.285-8.641-8.62-12.946-12.913-4.281,4.285-8.62,8.628-12.794,12.807,4.294,4.315,8.641,8.685,12.863,12.928ZM-39.759,125.024c4.304-4.253,8.665-8.566,12.844-12.695-4.274-4.307-8.596-8.665-12.829-12.931-4.259,4.253-8.583,8.572-12.79,12.773,4.333,4.361,8.656,8.71,12.775,12.853ZM-40.294,71.342c-.154-.27-.188-.379-.262-.452-4.071-4.082-8.15-8.152-12.206-12.249-.545-.549-.902-.359-1.339.08-3.941,3.95-7.882,7.902-11.84,11.834-.461.459-.493.785-.03,1.246,3.958,3.935,7.914,7.873,11.843,11.838.632.638,1.023.493,1.579-.071,2.472-2.52,4.975-5.012,7.475-7.504,1.579-1.575,3.171-3.134,4.78-4.722ZM-40.382,125.839c-.112-.136-.251-.342-.424-.515-3.971-3.976-7.953-7.94-11.907-11.933-.53-.534-.863-.42-1.322.041-3.993,4.01-7.999,8.005-11.996,12.011-.141.141-.221.344-.32.506,4.356,4.335,8.667,8.626,12.959,12.896,4.335-4.333,8.652-8.648,13.011-13.006ZM-53.579,29.589c4.519-4.512,8.838-8.825,13.043-13.024-4.289-4.302-8.615-8.641-12.967-13.006-.045.032-.173.102-.273.201-4.058,4.045-8.105,8.096-12.171,12.13-.506.502-.34.824.084,1.242,1.412,1.389,2.81,2.792,4.198,4.205,2.702,2.747,5.392,5.501,8.085,8.252ZM-40.612,98.633c-4.24-4.291-8.531-8.637-12.706-12.863-4.302,4.287-8.641,8.613-12.868,12.825,4.25,4.278,8.553,8.609,12.749,12.833,4.315-4.307,8.656-8.637,12.825-12.794ZM-53.365,56.711c4.298-4.307,8.615-8.633,12.827-12.851-4.274-4.298-8.596-8.648-12.835-12.911-4.3,4.272-8.635,8.583-12.922,12.844,4.302,4.298,8.624,8.615,12.931,12.918Z"/>
        <path class="cls-6" d="M27.632,56.958c.167.171.292.383.461.603-.19.234-.329.439-.502.612-3.991,3.999-7.988,7.99-11.97,11.998-.424.426-.722.441-1.155.006-4.008-4.032-8.025-8.057-12.063-12.059-.595-.591-.249-.906.16-1.313,3.924-3.917,7.854-7.83,11.752-11.773.608-.612.971-.452,1.492.074,3.37,3.4,6.762,6.781,10.147,10.166.56.56,1.127,1.116,1.679,1.685ZM26.578,58.143c.485-.48.456-.766-.002-1.22-3.653-3.632-7.296-7.276-10.925-10.934-.463-.469-.764-.465-1.229.004-3.604,3.632-7.22,7.248-10.858,10.848-.541.534-.506.874.022,1.395,3.634,3.597,7.237,7.222,10.856,10.837.171.169.376.305.608.491.251-.216.478-.385.675-.582,3.617-3.614,7.22-7.242,10.854-10.839Z"/>
        <path class="cls-6" d="M28.086,84.857c-.175.229-.305.443-.476.614-3.993,3.999-7.997,7.988-11.979,11.996-.48.485-.8.413-1.244-.032-3.96-3.982-7.93-7.956-11.916-11.912-.506-.502-.48-.831.015-1.322,3.958-3.928,7.904-7.871,11.83-11.832.51-.515.85-.591,1.397-.039,3.952,3.986,7.93,7.945,11.894,11.918.171.171.303.383.478.608ZM26.548,85.521c.515-.508.478-.811-.024-1.306-3.636-3.595-7.253-7.209-10.845-10.848-.519-.523-.813-.478-1.302.017-3.597,3.634-7.207,7.253-10.843,10.848-.523.517-.485.818.006,1.306,3.634,3.601,7.242,7.227,10.863,10.843.173.173.374.32.614.523.242-.193.48-.344.675-.539,3.619-3.617,7.224-7.244,10.856-10.845Z"/>
        <path class="cls-6" d="M27.567,29.505c.428.428.56.748.063,1.242-4.092,4.056-8.163,8.131-12.243,12.197-.097.095-.229.158-.502.342-3.02-3.046-5.979-6.035-8.944-9.02-1.14-1.149-2.28-2.301-3.446-3.424-.489-.474-.526-.813-.009-1.326,3.993-3.956,7.962-7.932,11.925-11.918.454-.456.768-.491,1.239-.017,3.958,3.989,7.934,7.96,11.916,11.925ZM26.589,30.738c.578-.571.314-.874-.121-1.306-3.498-3.48-6.978-6.974-10.469-10.46-.296-.296-.619-.571-.887-.815-.18.065-.264.071-.311.117-3.8,3.785-7.594,7.577-11.399,11.358-.42.417-.314.718.063,1.082.854.824,1.687,1.672,2.524,2.516,2.966,2.983,5.929,5.97,8.948,9.011.27-.199.398-.268.495-.366,3.716-3.714,7.421-7.441,11.157-11.135Z"/>
        <path class="cls-6" d="M28.017,2.911c-.162.188-.355.439-.578.662-3.846,3.848-7.709,7.679-11.529,11.551-.64.649-1.021.759-1.72.048-3.759-3.831-7.573-7.61-11.365-11.408-.277-.277-.543-.567-.854-.893C6.393-1.537,10.715-5.843,14.989-10.102,19.285-5.813,23.624-1.478,28.017,2.911ZM26.483,3.518c.521-.519.582-.841.017-1.391C24.283-.031,22.105-2.231,19.927-4.431c-1.59-1.607-3.158-3.234-4.849-4.968C11.05-5.356,7.217-1.506,3.373,2.335c-.51.51-.149.811.193,1.155,3.617,3.614,7.242,7.222,10.839,10.858.528.534.839.417,1.309-.056,3.575-3.606,7.162-7.201,10.77-10.774Z"/>
        <path class="cls-6" d="M28.015,112.355c-.175.199-.409.5-.677.768-3.844,3.848-7.694,7.69-11.533,11.542-.443.446-.768.798-1.393.167-3.973-4.025-7.982-8.016-11.974-12.022-.149-.149-.27-.324-.407-.489,4.395-4.4,8.706-8.715,12.976-12.989,4.281,4.287,8.596,8.607,13.008,13.024ZM26.487,112.967c.528-.523.567-.854.009-1.397-2.217-2.159-4.395-4.358-6.576-6.554-1.592-1.603-3.167-3.223-4.875-4.962-4.008,4.032-7.834,7.889-11.674,11.732-.521.523-.132.811.203,1.146,3.588,3.593,7.186,7.175,10.757,10.785.519.523.837.578,1.386.019,3.567-3.612,7.16-7.199,10.77-10.77Z"/>
        <path class="cls-3" d="M26.468,29.431c.435.433.699.735.121,1.306-3.736,3.694-7.441,7.421-11.157,11.135-.097.097-.225.167-.495.366-3.02-3.041-5.983-6.028-8.948-9.011-.837-.844-1.67-1.691-2.524-2.516-.376-.363-.482-.664-.063-1.082,3.805-3.781,7.599-7.573,11.399-11.358.048-.045.132-.052.311-.117.268.244.591.519.887.815,3.491,3.487,6.971,6.98,10.469,10.46ZM20.202,30.716c.725-1.828.785-3.668-.534-5.31-.904-1.125-2.41-1.194-3.411-.167-.42.433-.746.954-1.22,1.57-.346-.467-.606-.841-.889-1.194-1.218-1.514-2.955-1.436-4.025.171-.844,1.263-.895,2.663-.534,4.051.699,2.702,2.661,4.371,4.966,5.691.257.145.746.132,1.008-.017,2.007-1.144,3.761-2.585,4.64-4.795Z"/>
        <path class="cls-3" d="M26.576,56.923c.459.454.487.74.002,1.22-3.634,3.597-7.237,7.224-10.854,10.839-.197.197-.424.366-.675.582-.231-.186-.437-.322-.608-.491-3.619-3.614-7.222-7.24-10.856-10.837-.528-.521-.562-.861-.022-1.395,3.638-3.599,7.255-7.216,10.858-10.848.465-.469.766-.474,1.229-.004,3.63,3.658,7.272,7.302,10.925,10.934ZM15.021,62.993c1.285-2.44,3.007-4.159,5.49-5.481-2.531-1.261-4.19-3.035-5.496-5.397-1.287,2.453-3.002,4.134-5.392,5.39,2.371,1.343,4.153,3.004,5.399,5.488Z"/>
        <path class="cls-3" d="M26.524,84.214c.502.495.539.798.024,1.306-3.632,3.601-7.237,7.229-10.856,10.845-.195.195-.433.346-.675.539-.24-.203-.441-.35-.614-.523-3.621-3.617-7.229-7.242-10.863-10.843-.491-.489-.53-.79-.006-1.306,3.636-3.595,7.246-7.214,10.843-10.848.489-.495.783-.541,1.302-.017,3.593,3.638,7.209,7.253,10.845,10.848ZM19.17,87.162c1.477-1.746,1.983-3.826,1.094-6.056-.389-.98-1.073-1.737-2.198-1.849-1.101-.11-1.821.519-2.375,1.391-.184.29-.381.571-.679,1.014-.275-.443-.45-.74-.638-1.025-.539-.818-1.207-1.462-2.271-1.391-1.133.076-1.979.77-2.221,1.774-.286,1.181-.491,2.522-.218,3.673.629,2.658,2.652,4.287,4.934,5.565.281.158.889.063,1.162-.151,1.185-.924,2.453-1.808,3.411-2.944Z"/>
        <path class="cls-6" d="M26.503,140.286c.558-.536.517-.861-.017-1.389-3.58-3.543-7.142-7.106-10.672-10.696-.599-.608-.947-.606-1.547.002-3.537,3.586-7.101,7.144-10.683,10.685-.539.532-.558.87-.013,1.397.976.945,1.88,1.962,2.814,2.948h-1.082c-.96-1.014-1.901-2.044-2.888-3.033-.428-.43-.428-.727.004-1.157,4.086-4.064,8.157-8.142,12.236-12.215.095-.095.231-.154.266-.175,4.352,4.361,8.665,8.68,13.043,13.067-1.001,1.101-2.098,2.306-3.195,3.513h-1.082c.932-.989,1.834-2.009,2.814-2.948Z"/>
        <path class="cls-3" d="M26.485,138.898c.534.528.575.852.017,1.389-.98.939-1.882,1.96-2.814,2.948h-5.624c.309-.35.632-.69.93-1.049,1.865-2.263,2.215-5.139.87-7.088-.956-1.386-2.652-1.501-3.766-.231-.368.42-.668.898-1.071,1.447-.324-.467-.569-.848-.844-1.205-1.205-1.573-3.039-1.516-4.062.188-.357.593-.591,1.319-.668,2.009-.273,2.438.956,4.272,2.555,5.929h-5.624c-.934-.986-1.839-2.003-2.814-2.948-.545-.528-.526-.865.013-1.397,3.582-3.541,7.147-7.099,10.683-10.685.599-.608.947-.61,1.547-.002,3.53,3.591,7.093,7.153,10.672,10.696Z"/>
        <path class="cls-3" d="M26.5,2.128c.565.549.504.872-.017,1.391-3.608,3.573-7.194,7.168-10.77,10.774-.469.474-.781.591-1.309.056-3.597-3.636-7.222-7.244-10.839-10.858-.342-.344-.703-.645-.193-1.155,3.844-3.842,7.677-7.692,11.704-11.734,1.691,1.735,3.26,3.361,4.849,4.968C22.105-2.231,24.283-.031,26.5,2.128ZM15.067,8.251c1.248-2.455,2.994-4.116,5.418-5.457-2.444-1.257-4.17-2.976-5.444-5.442C13.736-.118,11.941,1.524,9.592,2.854c2.494,1.222,4.129,3.035,5.475,5.397Z"/>
        <path class="cls-3" d="M26.496,111.57c.558.543.519.874-.009,1.397-3.61,3.571-7.203,7.157-10.77,10.77-.549.558-.867.504-1.386-.019-3.571-3.61-7.168-7.192-10.757-10.785-.335-.335-.725-.623-.203-1.146,3.839-3.844,7.666-7.7,11.674-11.732,1.709,1.739,3.283,3.359,4.875,4.962,2.18,2.195,4.358,4.395,6.576,6.554ZM15.145,117.549c1.185-2.332,2.946-4.021,5.343-5.31-2.466-1.244-4.153-3.004-5.47-5.421-1.281,2.498-3.05,4.17-5.232,5.366,1.056.841,2.081,1.523,2.935,2.377.854.852,1.538,1.875,2.425,2.987Z"/>
        <path class="cls-6" d="M20.264,81.106c.889,2.23.383,4.311-1.094,6.056-.958,1.136-2.226,2.02-3.411,2.944-.273.214-.88.309-1.162.151-2.282-1.278-4.304-2.907-4.934-5.565-.273-1.151-.067-2.492.218-3.673.242-1.004,1.088-1.698,2.221-1.774,1.064-.071,1.733.573,2.271,1.391.188.286.363.582.638,1.025.298-.443.495-.725.679-1.014.554-.872,1.274-1.501,2.375-1.391,1.125.112,1.808.87,2.198,1.849Z"/>
        <path class="cls-6" d="M19.667,25.406c1.319,1.642,1.259,3.482.534,5.31-.878,2.211-2.632,3.651-4.64,4.795-.262.149-.751.162-1.008.017-2.306-1.319-4.268-2.989-4.966-5.691-.361-1.389-.309-2.788.534-4.051,1.071-1.607,2.808-1.685,4.025-.171.283.353.543.727.889,1.194.474-.616.8-1.138,1.22-1.57,1.001-1.027,2.507-.958,3.411.167Z"/>
        <path class="cls-6" d="M19.864,135.097c1.345,1.949.995,4.826-.87,7.088-.298.359-.621.699-.93,1.049h-6.056c-1.598-1.657-2.827-3.491-2.555-5.929.078-.69.311-1.417.668-2.009,1.023-1.704,2.857-1.761,4.062-.188.275.357.519.738.844,1.205.402-.549.703-1.027,1.071-1.447,1.114-1.27,2.81-1.155,3.766.231Z"/>
        <path class="cls-6" d="M20.487,112.238c-2.397,1.289-4.157,2.978-5.343,5.31-.887-1.112-1.57-2.135-2.425-2.987-.854-.854-1.88-1.536-2.935-2.377,2.182-1.196,3.952-2.868,5.232-5.366,1.317,2.416,3.004,4.177,5.47,5.421Z"/>
        <path class="cls-6" d="M20.485,2.794c-2.425,1.341-4.17,3.002-5.418,5.457-1.345-2.362-2.981-4.175-5.475-5.397C11.941,1.524,13.736-.118,15.041-2.648c1.274,2.466,3,4.185,5.444,5.442Z"/>
        <path class="cls-6" d="M20.511,57.512c-2.483,1.322-4.205,3.041-5.49,5.481-1.246-2.483-3.028-4.144-5.399-5.488,2.39-1.257,4.105-2.937,5.392-5.39,1.306,2.362,2.966,4.136,5.496,5.397Z"/>
        <path class="cls-6" d="M13.955-11.482c.374.379.441.688.039,1.09C9.893-6.297,5.798-2.192,1.699,1.905c-.097.095-.249.134-.262.143C-2.927-2.311-7.247-6.624-11.634-11.002c.712-.755,1.469-1.562,2.228-2.366h1.082c-.634.638-1.25,1.296-1.908,1.908-.452.422-.422.764-.006,1.177C-6.566-6.622-2.895-2.958.767.715c.424.426.738.404,1.166-.028,3.627-3.658,7.266-7.302,10.921-10.93.51-.508.48-.85-.026-1.324-.601-.56-1.127-1.198-1.685-1.802h1.082c.575.632,1.131,1.278,1.73,1.886Z"/>
        <path class="cls-6" d="M13.676,125.093c.439.439.93.779.225,1.475-4.049,3.995-8.062,8.029-12.089,12.046-.121.123-.279.21-.513.385-1.447-1.43-2.883-2.829-4.3-4.248-2.648-2.645-5.26-5.328-7.943-7.936-.735-.716-.671-1.136.024-1.817,3.844-3.79,7.659-7.607,11.449-11.451.629-.636.986-.658,1.629-.004,3.813,3.876,7.672,7.707,11.518,11.551ZM12.811,126.672c.575-.569.565-.932-.004-1.495-3.586-3.547-7.144-7.127-10.716-10.692-.199-.197-.433-.359-.72-.593-.27.227-.528.411-.748.632-3.519,3.511-7.021,7.041-10.566,10.525-.677.666-.675,1.075.004,1.743,3.495,3.437,6.961,6.902,10.393,10.4.679.692,1.097.774,1.817.041,3.48-3.554,7.004-7.064,10.54-10.562Z"/>
        <path class="cls-6" d="M13.81,97.813c.5.493.621.841.052,1.406-3.993,3.95-7.953,7.93-11.929,11.897-.175.173-.387.311-.541.433-4.354-4.348-8.672-8.661-12.95-12.937,4.324-4.287,8.676-8.6,13.225-13.112,1.503,1.564,3.097,3.262,4.735,4.919,2.451,2.483,4.923,4.945,7.408,7.395ZM12.664,99.431c.686-.675.658-1.075-.013-1.733-3.567-3.511-7.099-7.054-10.612-10.616-.556-.565-.874-.495-1.389.028-2.165,2.211-4.361,4.393-6.567,6.563-1.609,1.585-3.253,3.134-4.854,4.67.205.355.253.497.348.595,3.738,3.749,7.482,7.488,11.215,11.243.515.517.841.264,1.248-.145,3.528-3.547,7.054-7.099,10.623-10.605Z"/>
        <path class="cls-6" d="M13.842,70.475c.586.582.502.945-.048,1.488-3.913,3.874-7.811,7.765-11.678,11.682-.578.584-.917.558-1.475-.006-3.878-3.911-7.774-7.804-11.698-11.672-.634-.625-.532-1.014.041-1.579,3.911-3.878,7.8-7.783,11.7-11.672.197-.197.437-.348.688-.547.238.186.448.318.621.489,3.948,3.941,7.884,7.893,11.849,11.817ZM12.871,71.835c.171-.171.314-.374.521-.627-.225-.264-.413-.519-.634-.74-3.537-3.534-7.095-7.047-10.597-10.616-.66-.671-1.021-.606-1.633.015-3.489,3.534-6.995,7.049-10.538,10.525-.677.666-.56,1.062.039,1.655,3.532,3.491,7.049,6.997,10.534,10.534.597.606.95.638,1.557.022,3.565-3.608,7.164-7.179,10.75-10.768Z"/>
        <path class="cls-6" d="M13.695,42.991c.684.673.651,1.04-.032,1.713-3.805,3.736-7.551,7.527-11.319,11.3-.301.301-.621.582-1.086,1.017-2.386-2.42-4.655-4.731-6.937-7.03-1.8-1.815-3.608-3.623-5.431-5.416-.493-.485-.632-.844-.058-1.41,4.049-4.002,8.068-8.031,12.098-12.052.102-.099.223-.177.45-.357.74.718,1.49,1.425,2.217,2.152,3.366,3.363,6.708,6.749,10.099,10.084ZM13.356,43.857c-.195-.251-.344-.491-.539-.688-3.586-3.595-7.183-7.177-10.761-10.783-.504-.508-.859-.595-1.41-.035-3.573,3.61-7.166,7.199-10.774,10.772-.528.523-.549.87-.002,1.408,3.634,3.595,7.244,7.214,10.843,10.841.45.454.742.523,1.226.035,3.627-3.656,7.281-7.285,10.921-10.925.173-.173.305-.385.495-.625Z"/>
        <path class="cls-6" d="M13.656,15.59c.722.703.688,1.09-.024,1.791-3.88,3.809-7.705,7.679-11.551,11.525-.199.199-.417.381-.712.647-.467-.435-.919-.828-1.341-1.252-3.671-3.662-7.33-7.335-11.005-10.99-.523-.519-.82-.915-.143-1.583C-7.098,11.757-3.111,7.751.89,3.763c.121-.121.283-.201.426-.301.091-.069.182-.141.273-.21,1.397,1.492,2.767,3.011,4.198,4.471,2.6,2.645,5.213,5.282,7.869,7.867ZM12.83,17.206c.515-.508.599-.854.041-1.406-3.632-3.595-7.246-7.209-10.841-10.841-.517-.523-.863-.452-1.332.019-3.575,3.599-7.157,7.192-10.759,10.763-.569.565-.545.96.015,1.514,3.556,3.517,7.086,7.058,10.629,10.588.223.223.476.415.781.677.288-.238.545-.42.766-.638,3.567-3.558,7.121-7.129,10.7-10.677Z"/>
        <path class="cls-4" d="M12.871,15.8c.558.552.474.898-.041,1.406-3.58,3.547-7.134,7.119-10.7,10.677-.221.218-.478.4-.766.638-.305-.262-.558-.454-.781-.677-3.543-3.53-7.073-7.071-10.629-10.588-.56-.554-.584-.95-.015-1.514C-6.46,12.171-2.878,8.578.698,4.978c.469-.472.815-.543,1.332-.019,3.595,3.632,7.209,7.246,10.841,10.841ZM5.636,19.501c1.058-.593,1.458-1.549,1.382-2.715-.069-1.082-.835-2.018-1.949-2.319-.599-.162-.85-.385-.908-1.071-.134-1.566-1.324-2.568-2.812-2.559-1.415.009-2.699,1.03-2.734,2.377-.022.839-.366,1.092-1.073,1.293-1.14.324-1.756,1.218-1.806,2.401-.052,1.25.528,2.176,1.603,2.671,1.406.645,2.537.076,3.606-.852.082.065.164.13.244.195-.446,1.001-.893,2.001-1.367,3.061h3.087c-.508-1.12-.971-2.146-1.436-3.171.082-.063.164-.125.249-.188.227.203.448.415.681.61.893.738,2.189.854,3.234.266Z"/>
        <path class="cls-4" d="M12.817,43.169c.195.197.344.437.539.688-.19.24-.322.452-.495.625-3.64,3.64-7.294,7.27-10.921,10.925-.485.489-.777.42-1.226-.035-3.599-3.627-7.209-7.246-10.843-10.841-.547-.539-.526-.885.002-1.408,3.608-3.573,7.201-7.162,10.774-10.772.552-.56.906-.474,1.41.035,3.578,3.606,7.175,7.188,10.761,10.783ZM6.092,47.568c1.12-.945,1.255-2.641.279-3.893-.441-.565-.93-1.099-1.421-1.624-1.19-1.272-2.394-2.529-3.632-3.833-1.456,1.564-2.812,3-4.136,4.464-.454.5-.915,1.03-1.218,1.627-.614,1.207-.173,2.743.889,3.459,1.058.714,2.232.506,3.281-.569.236-.244.491-.472.738-.707.097.065.197.132.294.197-.523.891-1.047,1.78-1.575,2.68h3.668c-.396-.508-.77-.913-1.053-1.376-.273-.441-.448-.941-.668-1.415l.474-.35c.151.283.253.616.465.846,1.159,1.248,2.52,1.421,3.614.495Z"/>
        <path class="cls-4" d="M12.828-11.566c.506.474.536.815.026,1.324C9.198-6.615,5.56-2.971,1.933.687c-.428.433-.742.454-1.166.028-3.662-3.673-7.333-7.337-11.005-10.999-.415-.413-.446-.755.006-1.177.658-.612,1.274-1.27,1.908-1.908H-1.619c-.755.867-1.588,1.681-2.245,2.615-.826,1.17-.497,2.866.575,3.692,1.045.802,2.427.61,3.459-.513.221-.242.346-.573.515-.863l.493.409c-.5.85-.999,1.702-1.542,2.626h3.463c-.578-.954-1.107-1.83-1.637-2.706.151-.123.301-.244.452-.366.262.37.476.785.79,1.103.826.835,1.847.96,2.89.534,1.014-.415,1.484-1.345,1.384-2.347-.076-.766-.489-1.542-.908-2.217-.448-.716-1.079-1.317-1.631-1.968h6.705c.558.603,1.084,1.242,1.685,1.802Z"/>
        <path class="cls-4" d="M13.393,71.208c-.208.253-.35.456-.521.627-3.586,3.588-7.186,7.16-10.75,10.768-.608.616-.96.584-1.557-.022-3.485-3.537-7.002-7.043-10.534-10.534-.599-.593-.716-.989-.039-1.655,3.543-3.476,7.049-6.991,10.538-10.525.612-.621.973-.686,1.633-.015,3.502,3.569,7.06,7.082,10.597,10.616.221.221.409.476.634.74ZM5.757,74.119c1.001-.614,1.454-1.609,1.233-2.788-.273-1.458-1.281-2.176-2.732-2.373-.184-2.217-1.045-3.314-2.635-3.389-1.73-.082-2.953.692-3.188,3.389-1.332.216-2.381.844-2.654,2.271-.229,1.198.123,2.256,1.224,2.881,1.462.828,2.79.428,3.969-.738.078.067.154.132.229.199-.461,1.047-.921,2.094-1.38,3.136h3.076c-.497-1.118-.952-2.139-1.404-3.16.074-.091.147-.182.221-.275,1.177,1.348,2.539,1.769,4.041.846Z"/>
        <path class="cls-4" d="M12.806,125.178c.569.562.58.926.004,1.495-3.537,3.498-7.06,7.008-10.54,10.562-.72.733-1.138.651-1.817-.041-3.433-3.498-6.898-6.963-10.393-10.4-.679-.668-.681-1.077-.004-1.743,3.545-3.485,7.047-7.015,10.566-10.525.221-.221.478-.404.748-.632.288.234.521.396.72.593,3.571,3.565,7.129,7.144,10.716,10.692ZM5.642,128.946c1.06-.593,1.492-1.56,1.365-2.717-.134-1.218-.826-2.057-2.053-2.347-.532-.125-.725-.363-.785-.941-.175-1.67-1.302-2.671-2.838-2.663-1.521.009-2.637,1.058-2.736,2.734-.043.735-.513.751-.978.902-1.302.424-1.932,1.365-1.88,2.797.043,1.222.895,2.226,2.137,2.509,1.237.283,2.213-.234,3.061-1.131.089.067.177.134.266.199-.441,1.014-.883,2.027-1.358,3.121h3.046c-.474-1.069-.911-2.053-1.348-3.037.104-.05.208-.102.309-.154.156.134.311.27.469.4.98.8,2.237.934,3.322.327Z"/>
        <path class="cls-4" d="M12.651,97.699c.671.658.699,1.058.013,1.733-3.569,3.506-7.095,7.058-10.623,10.605-.407.409-.733.662-1.248.145-3.733-3.755-7.478-7.495-11.215-11.243-.095-.097-.143-.24-.348-.595,1.601-1.536,3.245-3.084,4.854-4.67,2.206-2.17,4.402-4.352,6.567-6.563.515-.523.833-.593,1.389-.028,3.513,3.562,7.045,7.106,10.612,10.616ZM5.565,102.624c.984-.385,1.458-1.274,1.404-2.228-.043-.77-.344-1.648-.824-2.243-1.218-1.51-2.598-2.89-3.922-4.315-.26-.281-.556-.53-.906-.859-.764.802-1.464,1.518-2.144,2.256-.952,1.032-1.921,2.051-2.818,3.13-.971,1.166-.839,2.996.205,3.919,1.084.954,2.557.757,3.705-.519.188-.208.292-.489.435-.735.156.115.309.229.463.346-.493.876-.986,1.752-1.492,2.652h3.431c-.58-.939-1.11-1.793-1.637-2.648.112-.076.227-.154.34-.229.314.329.608.679.945.984.828.751,1.804.887,2.816.489Z"/>
        <path class="cls-3" d="M7.018,16.786c.076,1.166-.324,2.122-1.382,2.715-1.045.588-2.34.472-3.234-.266-.234-.195-.454-.407-.681-.61-.084.063-.167.125-.249.188l-.283.11c-.08-.065-.162-.13-.244-.195-1.069.928-2.2,1.497-3.606.852-1.075-.495-1.655-1.421-1.603-2.671.05-1.183.666-2.077,1.806-2.401.707-.201,1.051-.454,1.073-1.293.035-1.348,1.319-2.369,2.734-2.377,1.488-.009,2.678.993,2.812,2.559.058.686.309.908.908,1.071,1.114.301,1.88,1.237,1.949,2.319Z"/>
        <path class="cls-3" d="M7.007,126.229c.128,1.157-.305,2.124-1.365,2.717-1.086.608-2.343.474-3.322-.327-.158-.13-.314-.266-.469-.4-.102.052-.205.104-.309.154l-.34-.084c-.089-.065-.177-.132-.266-.199-.848.898-1.823,1.415-3.061,1.131-1.242-.283-2.094-1.287-2.137-2.509-.052-1.432.578-2.373,1.88-2.797.465-.151.934-.167.978-.902.099-1.676,1.216-2.725,2.736-2.734,1.536-.009,2.663.993,2.838,2.663.061.578.253.815.785.941,1.226.29,1.919,1.129,2.053,2.347Z"/>
        <path class="cls-3" d="M6.99,71.331c.221,1.179-.231,2.174-1.233,2.788-1.501.924-2.864.502-4.041-.846-.074.093-.147.184-.221.275l-.292.024c-.076-.067-.151-.132-.229-.199-1.179,1.166-2.507,1.566-3.969.738-1.101-.625-1.454-1.683-1.224-2.881.273-1.428,1.322-2.055,2.654-2.271.236-2.697,1.458-3.472,3.188-3.389,1.59.076,2.451,1.172,2.635,3.389,1.451.197,2.459.915,2.732,2.373Z"/>
        <path class="cls-3" d="M6.968,100.396c.054.954-.42,1.843-1.404,2.228-1.012.398-1.988.262-2.816-.489-.337-.305-.632-.655-.945-.984-.112.076-.227.154-.34.229l-.301-.004c-.154-.117-.307-.231-.463-.346-.143.247-.247.528-.435.735-1.149,1.276-2.622,1.473-3.705.519-1.045-.924-1.177-2.754-.205-3.919.898-1.079,1.867-2.098,2.818-3.13.679-.738,1.38-1.454,2.144-2.256.35.329.647.578.906.859,1.324,1.425,2.704,2.805,3.922,4.315.48.595.781,1.473.824,2.243Z"/>
        <path class="cls-3" d="M6.371,43.675c.976,1.252.841,2.948-.279,3.893-1.094.926-2.455.753-3.614-.495-.212-.229-.314-.562-.465-.846l-.474.35-.372.11c-.097-.065-.197-.132-.294-.197-.247.236-.502.463-.738.707-1.049,1.075-2.224,1.283-3.281.569-1.062-.716-1.503-2.252-.889-3.459.303-.597.764-1.127,1.218-1.627,1.324-1.464,2.68-2.901,4.136-4.464,1.237,1.304,2.442,2.561,3.632,3.833.491.526.98,1.06,1.421,1.624Z"/>
        <path class="cls-6" d="M4.438,143.234h-1.082c-.513-.539-.993-1.114-1.56-1.59-.184-.156-.712-.186-.872-.041-.539.487-.982,1.079-1.462,1.631h-1.082c.831-.88,1.631-1.793,2.52-2.611.171-.158.8-.074,1.021.123.88.781,1.683,1.65,2.516,2.487Z"/>
        <path class="cls-3" d="M3.261,49.368H-.408c.528-.9,1.051-1.789,1.575-2.68l.372-.11c.221.474.396.973.668,1.415.283.463.658.867,1.053,1.376Z"/>
        <path class="cls-3" d="M3.101,104.028H-.33c.506-.9.999-1.776,1.492-2.652l.301.004c.528.854,1.058,1.709,1.637,2.648Z"/>
        <path class="cls-3" d="M2.908,21.984H-.178c.474-1.06.921-2.059,1.367-3.061l.283-.11c.465,1.025.928,2.051,1.436,3.171Z"/>
        <path class="cls-3" d="M2.9,76.709H-.176c.459-1.043.919-2.089,1.38-3.136l.292-.024c.452,1.021.906,2.042,1.404,3.16Z"/>
        <path class="cls-3" d="M2.889,131.409H-.157c.476-1.094.917-2.107,1.358-3.121l.34.084c.437.984.874,1.968,1.348,3.037Z"/>
        <path class="cls-6" d="M.293,56.923c.151.149.281.318.422.478-4.408,4.413-8.73,8.736-12.972,12.98-4.294-4.307-8.626-8.652-13.006-13.045.119-.132.324-.379.549-.603,3.846-3.852,7.711-7.685,11.529-11.564.655-.664,1.04-.714,1.722-.024,3.893,3.952,7.834,7.856,11.756,11.778ZM-2.408,59.735c.709-.705,1.484-1.341,2.152-1.942-4.175-4.177-8.157-8.161-12.061-12.067-3.898,3.889-7.891,7.873-11.944,11.916.037.056.082.16.156.234,3.716,3.72,7.445,7.432,11.146,11.17.526.532.841.422,1.315-.058,3.061-3.1,6.143-6.18,9.236-9.251Z"/>
        <path class="cls-6" d="M-.806,140.26c.456-.435.536-.744.048-1.231-3.679-3.647-7.339-7.309-10.992-10.984-.374-.376-.662-.485-1.071-.074-3.753,3.77-7.514,7.534-11.269,11.306-.095.095-.143.242-.363.634,1.166,1.082,2.375,2.202,3.584,3.322h-1.082c-1.231-1.103-2.459-2.206-3.638-3.264,4.633-4.618,8.979-8.948,13.253-13.207,4.253,4.237,8.602,8.57,13.013,12.965-1.09,1.133-2.234,2.319-3.376,3.506h-1.082c.989-.995,1.962-2.005,2.976-2.974Z"/>
        <path class="cls-6" d="M.845,85.265c-.716.616-1.594,1.293-2.377,2.066-3.327,3.288-6.643,6.584-9.92,9.922-.666.675-1.047.677-1.715-.002-3.839-3.9-7.722-7.757-11.602-11.615-.463-.461-.731-.79-.121-1.393,4.045-3.997,8.057-8.029,12.085-12.046.123-.123.27-.223.363-.296,4.363,4.387,8.687,8.736,13.287,13.365ZM-.371,84.772c-.203-.214-.439-.476-.688-.725-3.463-3.463-6.948-6.904-10.372-10.404-.684-.699-1.056-.781-1.778-.041-3.424,3.504-6.909,6.945-10.372,10.411-.27.273-.523.562-.642.69,4.051,4.086,8.02,8.088,11.856,11.953,3.945-3.909,7.945-7.871,11.996-11.884Z"/>
        <path class="cls-6" d="M.401,30.323c-4.127,4.136-8.464,8.481-12.727,12.753-4.289-4.291-8.626-8.633-12.924-12.931,4.253-4.255,8.568-8.568,12.809-12.809C-8.201,21.623-3.873,26.001.401,30.323ZM-.86,30.883c.616-.608.467-.945-.067-1.473-3.558-3.521-7.09-7.073-10.633-10.614-.223-.223-.467-.422-.549-.495-4.079,4.051-8.096,8.04-11.998,11.916,3.9,3.926,7.852,7.904,11.871,11.946.138-.112.257-.19.355-.29,3.671-3.666,7.328-7.348,11.023-10.99Z"/>
        <path class="cls-6" d="M.523,2.895C-3.695,7.124-8.011,11.448-12.25,15.696c-4.296-4.291-8.628-8.622-12.889-12.879,4.229-4.207,8.572-8.531,12.818-12.758C-8.164-5.785-3.825-1.448.523,2.895ZM-.877,3.51c.595-.586.521-.928-.037-1.477-3.437-3.389-6.846-6.807-10.251-10.231-.348-.353-.597-.807-.841-1.144C-16.208-5.125-20.184-1.136-24.216,2.908c-.026-.063-.009.058.061.128,3.781,3.805,7.571,7.603,11.349,11.412.497.5.79.186,1.146-.173C-8.073,10.678-4.491,7.077-.877,3.51Z"/>
        <path class="cls-6" d="M-12.3,99.457c4.172,4.194,8.501,8.544,12.779,12.842-4.207,4.179-8.561,8.503-12.911,12.82-4.242-4.24-8.557-8.553-12.812-12.805,4.313-4.283,8.663-8.605,12.944-12.857ZM-.771,112.853c.552-.547.359-.867-.095-1.317-3.476-3.448-6.943-6.909-10.391-10.389-.322-.324-.491-.8-.707-1.17-4.285,4.311-8.235,8.287-12.18,12.256,3.919,3.937,7.895,7.93,11.907,11.962.095-.071.253-.158.374-.279,3.697-3.688,7.38-7.389,11.092-11.062Z"/>
      </g>
    </g>
  </g>
</svg>