<?xml version="1.0" encoding="UTF-8"?>
<svg id="Layer_2" data-name="Layer 2" xmlns="http://www.w3.org/2000/svg" viewBox="0 0 87.056 21.504">
  <defs>
    <style>
      .cls-1 {
        fill: #b4515a;
      }

      .cls-1, .cls-2, .cls-3, .cls-4, .cls-5 {
        stroke-width: 0px;
      }

      .cls-2 {
        fill: #b37666;
      }

      .cls-3 {
        fill: #9ba8d5;
      }

      .cls-4 {
        fill: #7f2f23;
      }

      .cls-5 {
        fill: #7d2727;
      }
    </style>
  </defs>
  <g id="Alice">
    <g>
      <rect class="cls-3" y="7.639" width="87.056" height="13.865"/>
      <rect class="cls-4" x="12.659" y="6.448" width="5.898" height="15.056"/>
      <rect class="cls-1" y="9.906" width="87.056" height="2.542"/>
      <circle class="cls-5" cx="66.913" cy="16.872" r="1.678"/>
      <circle class="cls-2" cx="73.812" cy="16.821" r="1.729"/>
      <circle class="cls-5" cx="80.71" cy="16.872" r="1.678"/>
      <circle class="cls-2" cx="60.015" cy="16.821" r="1.729"/>
      <path class="cls-5" d="M12.068,0c1.578.009,2.948.967,3.533,2.474.016.042.035.1.068.114.066.028.113.002.142-.08.184-.512.471-.958.847-1.352,1.468-1.535,3.661-1.372,4.876-.486.934.682,1.452,1.592,1.52,2.753.063,1.063-.297,1.989-.901,2.842-.292.412-.652.753-1.035,1.078-1.433,1.219-2.86,2.444-4.29,3.667-.342.292-.686.582-1.024.878-.071.063-.112.065-.186.002-1.042-.896-2.087-1.788-3.131-2.681-.883-.755-1.776-1.499-2.642-2.273-.272-.243-.491-.555-.7-.858-.483-.702-.76-1.477-.786-2.339-.057-1.889,1.326-3.494,3.203-3.699.168-.018.337-.027.505-.039Z"/>
    </g>
  </g>
</svg>