<?xml version="1.0" encoding="UTF-8"?>
<svg id="Layer_2" data-name="Layer 2" xmlns="http://www.w3.org/2000/svg" xmlns:xlink="http://www.w3.org/1999/xlink" viewBox="0 0 16.373 13.913">
  <defs>
    <style>
      .cls-1 {
        clip-path: url(#clippath);
      }

      .cls-2 {
        fill: none;
      }

      .cls-2, .cls-3, .cls-4, .cls-5, .cls-6, .cls-7, .cls-8, .cls-9, .cls-10 {
        stroke-width: 0px;
      }

      .cls-3 {
        fill: #5d95e2;
      }

      .cls-4 {
        fill: #4692b9;
      }

      .cls-5 {
        fill: #64caf4;
      }

      .cls-6 {
        fill: #00b2e9;
      }

      .cls-7 {
        fill: #414dd3;
      }

      .cls-8 {
        fill: #791919;
      }

      .cls-9 {
        fill: #8ec7e5;
      }

      .cls-10 {
        fill: #41a393;
      }
    </style>
    <clipPath id="clippath">
      <rect class="cls-2" x=".517" width="15.092" height="13.913"/>
    </clipPath>
  </defs>
  <g id="Alice">
    <g>
      <g class="cls-1">
        <g>
          <path class="cls-4" d="M42.585,16.492s-.018.008-.031.02c-1.481,1.474-2.959,2.953-4.447,4.42-.222.22-.118.341.049.507,1.416,1.411,2.827,2.827,4.24,4.24.079.079.173.143.252.209,1.581-1.589,3.136-3.15,4.634-4.656-1.563-1.573-3.13-3.149-4.705-4.734.004-.002.006-.004.008-.005ZM60.783,14.269v.392c-1.025-1.011-2.049-2.022-3.012-2.972-.055-.054-.11-.108-.164-.162-1.614,1.604-3.19,3.172-4.737,4.712,1.532,1.538,3.095,3.107,4.718,4.736.063-.065.126-.13.189-.196l.154.157h0c-.153.151-.146.262-.056.382l-.143.135c-.033-.038-.065-.076-.098-.114-1.669,1.665-3.243,3.237-4.915,4.907.433.392.877.794,1.321,1.197h-.392c-.351-.372-.703-.743-1.048-1.108-.42.406-.784.757-1.148,1.108h-.314c.402-.438.804-.874,1.193-1.298-1.584-1.582-3.158-3.155-4.676-4.672-1.567,1.56-3.15,3.134-4.734,4.711.369.401.765.83,1.16,1.258h-.314c-.359-.372-.718-.743-1.113-1.151-.391.416-.736.784-1.082,1.151h-.392c.423-.434.844-.866,1.231-1.263-1.607-1.616-3.168-3.185-4.703-4.728-.075.074-.15.15-.225.224-1.491,1.487-2.994,2.989-4.599,4.59.427.38.873.779,1.318,1.177h-.392c-.343-.363-.688-.725-1.02-1.077-.086.035-.13.041-.155.066-.341.336-.681.674-1.02,1.011h-.314c.398-.438.796-.874,1.159-1.273-.14-.14-.278-.279-.418-.418-1.444-1.447-2.871-2.877-4.31-4.319-.013.008-.062.029-.096.064-1.479,1.476-2.954,2.954-4.436,4.428-.157.156-.156.263,0,.419.357.358.699.732,1.046,1.099h-.314c-.301-.303-.592-.619-.911-.902-.08-.071-.308-.102-.37-.045-.322.296-.612.627-.914.946h-.392c.415-.43.829-.86,1.225-1.271-1.599-1.593-3.176-3.164-4.717-4.7-1.549,1.544-3.125,3.114-4.804,4.788.427.383.873.783,1.318,1.183h-.392c-.352-.372-.705-.743-1.062-1.12-.412.408-.772.764-1.133,1.12h-.314c.401-.438.802-.875,1.181-1.288-1.589-1.583-3.164-3.153-4.722-4.705-1.545,1.544-3.119,3.116-4.707,4.702.385.417.788.854,1.191,1.291h-.314c-.367-.365-.735-.73-1.136-1.129-.369.393-.714.761-1.059,1.129h-.392c.422-.434.844-.868,1.215-1.249-1.614-1.618-3.176-3.186-4.84-4.854-.049.065-.097.136-.148.209l-.138-.141.002-.002c.184-.177.187-.306.005-.481-.534-.514-1.057-1.038-1.585-1.558v-.314c.594.564,1.187,1.128,1.749,1.661.068.065.136.129.203.193,1.601-1.592,3.171-3.154,4.716-4.691-1.555-1.557-3.126-3.13-4.798-4.803-.605.645-1.237,1.32-1.871,1.995v-.392c.563-.61,1.126-1.219,1.73-1.873-.532-.51-1.131-1.083-1.73-1.655v-.392c.656.648,1.312,1.296,1.972,1.948.086-.064.143-.095.188-.14,1.468-1.465,2.93-2.936,4.406-4.394.239-.237.077-.351-.073-.502C1.164,4.662-.181,3.314-1.528,1.969c-.143-.143-.295-.28-.461-.437-.153.147-.274.262-.395.378-.532.513-1.065,1.026-1.598,1.539v-.314c.514-.514,1.021-1.035,1.547-1.537.209-.199.214-.337.004-.537C-2.958.56-3.466.041-3.982-.471v-.314c.664.632,1.328,1.264,1.941,1.847.127-.127.255-.253.381-.379C-.187-.783,1.257-2.22,2.684-3.639c-1.549-1.547-3.118-3.112-4.721-4.712-.632.624-1.288,1.273-1.945,1.921v-.392c.558-.615,1.116-1.229,1.61-1.773-.488-.532-1.048-1.144-1.61-1.756v-.392c.63.678,1.258,1.356,1.861,2.006,1.682-1.686,3.252-3.26,4.788-4.799-1.544-1.548-3.113-3.121-4.701-4.715-.093.085-.208.188-.319.295-.543.522-1.086,1.044-1.629,1.567v-.314c.517-.513,1.03-1.03,1.553-1.534.202-.194.216-.343.004-.544-.528-.5-1.039-1.018-1.557-1.528v-.314c.592.561,1.183,1.124,1.752,1.662.071.067.141.134.211.201,1.6-1.596,3.168-3.158,4.711-4.696-1.559-1.56-3.131-3.134-4.812-4.817-.601.648-1.231,1.327-1.861,2.005v-.392c.562-.609,1.124-1.218,1.709-1.852-.219-.231-.493-.523-.768-.814h.392c.528.786.638.798,1.254.13.034-.037.053-.087.079-.13h.392c-.273.294-.547.589-.832.897.076.095.133.181.204.252,1.428,1.43,2.861,2.855,4.283,4.292.206.208.325.16.505-.024.786-.8,1.58-1.591,2.377-2.378.704-.695,1.416-1.38,2.137-2.082-.312-.359-.572-.659-.833-.958h.314q.68.757,1.388.03c.009-.009.016-.02.024-.03h.314c-.26.3-.519.599-.737.851,1.585,1.589,3.15,3.156,4.69,4.701,1.54-1.544,3.103-3.111,4.684-4.697-.249-.267-.522-.561-.797-.855h.392c.175.19.338.391.53.561.058.051.235.055.289.005.187-.172.345-.376.514-.567h.392c-.274.292-.55.584-.807.858,1.589,1.587,3.156,3.15,4.738,4.73.005-.002.06-.016.094-.051,1.487-1.485,2.971-2.973,4.458-4.458.146-.146.121-.258-.014-.395-.217-.22-.419-.455-.628-.684h.314c.866.882.568.815,1.386.029.009-.009.017-.02.025-.029h.314c-.143.165-.278.338-.432.492-.401.399-.407.398-.022.783,1.189,1.191,2.38,2.382,3.572,3.572.265.265.536.524.778.759,1.458-1.458,2.89-2.888,4.338-4.335.138-.137.276-.275.415-.414-.256-.271-.532-.564-.807-.855h.392c.535.783.645.795,1.255.13.034-.037.053-.087.078-.13h.392c-.273.294-.546.589-.78.842.115.116.231.232.346.348,1.466,1.473,2.917,2.931,4.359,4.38,1.542-1.545,3.104-3.111,4.681-4.692-.242-.278-.503-.579-.764-.878h.314c.855.877.579.807,1.387.03.009-.009.016-.02.024-.03h.314c-.26.3-.52.6-.789.91.071.083.124.157.187.22,1.438,1.44,2.882,2.872,4.31,4.32.247.251.372.096.535-.067,1.4-1.403,2.802-2.804,4.202-4.207.081-.081.148-.173.235-.276-.291-.312-.565-.606-.839-.899h.392c.174.191.337.393.528.564.056.049.233.051.288,0,.188-.17.347-.374.517-.565h.392c-.276.292-.551.584-.928.983.034.028.068.056.103.082l-.131.133c-.006-.005-.013-.012-.019-.018-1.615,1.603-3.194,3.169-4.746,4.709,1.535,1.539,3.098,3.107,4.683,4.696.062-.055.133-.115.202-.18.023-.021.046-.043.069-.066.593-.59,1.179-1.185,1.777-1.77.388-.381.79-.748,1.186-1.121v.314c-.944.938-1.883,1.88-2.835,2.811-.212.207-.14.344.031.514.937.928,1.87,1.86,2.804,2.791v.314c-.1-.078-.21-.147-.3-.236-.852-.847-1.7-1.698-2.551-2.547-.127-.127-.263-.245-.362-.336-1.597,1.595-3.171,3.167-4.705,4.7,1.55,1.557,3.119,3.135,4.788,4.812.005-.005.011-.012.016-.017l.124.118c-.014.014-.01.048-.014.073l-.085.085c.093.071.188.14.282.21l-.146.144s-.006-.007-.01-.011c-.216-.22-.345-.221-.565,0-1.404,1.422-2.817,2.835-4.24,4.237-.234.23-.193.355.016.563l.014.014c1.397,1.382,2.782,2.776,4.172,4.165.09.091.191.172.316.284,1.093-1.091,2.171-2.168,3.248-3.245v.392c-.932.931-1.861,1.868-2.802,2.79-.209.204-.209.332,0,.536.942.922,1.87,1.858,2.803,2.79v.392c-1.074-1.08-2.149-2.159-3.156-3.171-.06.06-.119.118-.179.177-1.554,1.542-3.073,3.049-4.559,4.525,1.538,1.534,3.107,3.099,4.706,4.693,1.045-1.037,2.117-2.102,3.188-3.166v.392c-.099.082-.205.157-.296.247-.793.788-1.585,1.579-2.377,2.37-.394.393-.398.396.007.797.887.877,1.778,1.749,2.666,2.624ZM57.115,1.562c.181-.181.162-.31-.014-.485-1.425-1.417-2.845-2.838-4.26-4.265-.205-.207-.343-.195-.543.011-.607.629-1.232,1.242-1.851,1.859-.869.865-1.74,1.729-2.62,2.604.049.089.062.129.088.155,1.476,1.479,2.956,2.953,4.427,4.436.194.196.325.14.486-.022,1.427-1.433,2.855-2.866,4.287-4.294ZM52.569,15.912c1.555-1.551,3.123-3.115,4.678-4.665-1.55-1.55-3.117-3.115-4.632-4.629-1.565,1.556-3.142,3.122-4.659,4.63,1.529,1.546,3.085,3.12,4.613,4.665ZM57.201-18.556c-1.519-1.521-3.076-3.081-4.619-4.625-1.546,1.561-3.104,3.134-4.651,4.695,1.521,1.531,3.082,3.101,4.592,4.62,1.56-1.563,3.13-3.137,4.679-4.69ZM52.577-3.925c1.544-1.545,3.108-3.11,4.615-4.617-1.557-1.578-3.119-3.16-4.624-4.685-1.552,1.543-3.121,3.103-4.658,4.632,1.549,1.55,3.114,3.117,4.667,4.67ZM52.562,25.84c1.552-1.545,3.12-3.106,4.664-4.644-1.569-1.573-3.131-3.138-4.655-4.665-1.549,1.544-3.123,3.113-4.652,4.637,1.542,1.552,3.102,3.121,4.643,4.672ZM52.313-3.659c-.031-.041-.072-.107-.125-.161-1.447-1.45-2.9-2.895-4.341-4.352-.212-.214-.338-.144-.51.029-.899.909-1.8,1.816-2.71,2.714-.591.584-1.197,1.153-1.756,1.689,1.646,1.64,3.221,3.209,4.764,4.747,1.53-1.526,3.097-3.089,4.679-4.666ZM51.233,7.438c.374-.376.746-.752,1.085-1.093-1.6-1.607-3.162-3.175-4.682-4.701-1.56,1.556-3.136,3.126-4.725,4.708.014.02.049.075.094.121,1.448,1.449,2.9,2.893,4.343,4.348.216.218.349.168.539-.026,1.109-1.125,2.229-2.239,3.345-3.357ZM52.248-13.528c-1.547-1.55-3.125-3.131-4.628-4.636-1.548,1.534-3.128,3.099-4.659,4.617,1.539,1.551,3.1,3.124,4.646,4.681,1.556-1.562,3.125-3.139,4.641-4.661ZM47.583,20.858c1.568-1.556,3.147-3.123,4.656-4.62-1.549-1.556-3.118-3.133-4.664-4.686-1.539,1.538-3.107,3.103-4.657,4.651,1.563,1.559,3.139,3.132,4.665,4.654ZM52.291-23.453c-1.557-1.56-3.129-3.135-4.665-4.674-1.56,1.556-3.134,3.127-4.685,4.674,1.548,1.55,3.119,3.124,4.683,4.69,1.544-1.552,3.106-3.121,4.667-4.69ZM47.435,1.377c-.172-.188-.273-.307-.382-.416-1.366-1.367-2.739-2.726-4.094-4.103-.244-.248-.382-.243-.623.002-1.392,1.413-2.797,2.813-4.209,4.207-.195.192-.209.31-.013.505,1.428,1.414,2.853,2.833,4.265,4.262.227.23.362.192.567-.019.765-.785,1.543-1.559,2.323-2.33.705-.696,1.419-1.383,2.166-2.11ZM47.356-18.545c-.037-.043-.091-.114-.154-.178-1.438-1.443-2.882-2.881-4.312-4.331-.216-.22-.336-.133-.506.038-1.41,1.417-2.821,2.833-4.242,4.239-.212.21-.197.336.006.537,1.42,1.407,2.83,2.824,4.244,4.236.08.08.175.145.238.198,1.585-1.59,3.147-3.158,4.725-4.74ZM47.299-8.602c-1.536-1.549-3.094-3.119-4.628-4.665-1.563,1.565-3.136,3.137-4.67,4.674,1.541,1.546,3.103,3.114,4.637,4.654,1.555-1.556,3.126-3.128,4.661-4.662ZM47.308,11.244c-1.538-1.542-3.101-3.11-4.639-4.652-1.559,1.556-3.132,3.125-4.643,4.632,1.542,1.556,3.105,3.135,4.634,4.679,1.543-1.547,3.105-3.114,4.647-4.658ZM42.391-3.666c-.013-.02-.034-.069-.069-.104-1.476-1.478-2.955-2.952-4.425-4.436-.214-.216-.329-.09-.476.057-.773.776-1.545,1.553-2.322,2.326-.72.716-1.445,1.426-2.154,2.126,1.614,1.609,3.189,3.178,4.732,4.716,1.563-1.554,3.132-3.114,4.715-4.686ZM42.258,16.423c.234-.231.088-.353-.067-.507-1.394-1.393-2.786-2.786-4.179-4.178-.098-.098-.205-.186-.242-.219-1.606,1.606-3.179,3.179-4.715,4.716,1.526,1.536,3.086,3.108,4.657,4.69.031-.021.078-.044.114-.08,1.477-1.475,2.95-2.955,4.433-4.423ZM41.304,7.456c.376-.376.762-.742,1.096-1.066-1.617-1.626-3.184-3.202-4.73-4.757-1.544,1.535-3.113,3.096-4.714,4.688.073.08.139.159.212.232,1.411,1.412,2.827,2.818,4.227,4.241.237.241.372.216.592-.009,1.098-1.118,2.209-2.223,3.317-3.329ZM37.673-8.889c1.557-1.556,3.13-3.126,4.69-4.684-1.538-1.538-3.103-3.104-4.646-4.65-1.56,1.564-3.131,3.139-4.675,4.686,1.537,1.542,3.108,3.119,4.632,4.647ZM42.362-23.502c-1.541-1.542-3.107-3.11-4.652-4.656-1.562,1.563-3.137,3.138-4.669,4.67,1.565,1.572,3.129,3.141,4.635,4.654,1.55-1.545,3.126-3.114,4.686-4.668ZM37.247-18.243c.24-.237.153-.386-.041-.578-1.406-1.398-2.806-2.802-4.21-4.203-.078-.079-.172-.143-.26-.216-.069.049-.114.075-.151.111-1.467,1.468-2.93,2.94-4.405,4.4-.231.229-.1.347.06.505,1.193,1.189,2.388,2.377,3.573,3.573.292.295.553.619.829.931.158-.113.193-.132.22-.158,1.461-1.455,2.917-2.915,4.384-4.364ZM37.446,1.328c-.072-.093-.126-.18-.197-.251-1.421-1.422-2.846-2.839-4.261-4.266-.212-.213-.34-.182-.539.018-1.393,1.41-2.793,2.814-4.204,4.207-.234.231-.231.365,0,.594,1.42,1.403,2.827,2.816,4.233,4.233.172.172.292.206.48.017,1.425-1.436,2.857-2.863,4.285-4.296.071-.071.127-.159.202-.256ZM37.225,21.452c.212-.211.23-.358.006-.577-.904-.884-1.8-1.778-2.685-2.682-.583-.594-1.141-1.213-1.72-1.832-.181.145-.235.181-.281.227-1.451,1.447-2.897,2.9-4.353,4.341-.213.211-.137.337.036.51,1.231,1.224,2.454,2.456,3.681,3.683.265.265.538.521.812.785.093-.072.16-.113.214-.167,1.43-1.43,2.856-2.864,4.291-4.288ZM32.619-3.812c1.67-1.665,3.237-3.227,4.795-4.78-1.559-1.548-3.13-3.107-4.719-4.685-.019.014-.089.051-.142.104-1.462,1.457-2.919,2.918-4.384,4.37-.211.209-.089.332.061.481,1.091,1.088,2.184,2.172,3.265,3.269.401.407.768.846,1.124,1.24ZM32.736,15.925c1.554-1.558,3.118-3.125,4.669-4.68-1.55-1.544-3.119-3.107-4.662-4.644-1.558,1.546-3.129,3.104-4.664,4.628,1.55,1.563,3.11,3.136,4.657,4.696ZM32.506-3.614c-.06-.08-.106-.157-.167-.22-.199-.205-.405-.407-.608-.61-1.227-1.228-2.457-2.453-3.678-3.685-.189-.191-.321-.249-.541-.027-1.413,1.429-2.838,2.848-4.26,4.268-.148.147-.274.262-.058.476,1.464,1.451,2.92,2.91,4.373,4.371.157.158.264.151.418-.002,1.444-1.453,2.893-2.9,4.34-4.349.063-.063.113-.137.181-.222ZM32.332,6.503c.062-.062.109-.14.172-.223-.064-.082-.111-.158-.173-.22-1.437-1.44-2.88-2.875-4.312-4.32-.198-.2-.321-.172-.507.014-1.423,1.436-2.853,2.865-4.288,4.289-.18.178-.189.297-.006.479,1.445,1.434,2.884,2.874,4.32,4.318.16.162.276.187.451.012,1.444-1.453,2.895-2.899,4.342-4.349ZM32.338-13.334c.18-.179.133-.295-.023-.45-1.444-1.437-2.884-2.878-4.32-4.323-.17-.172-.285-.159-.449.006-1.436,1.445-2.875,2.886-4.322,4.32-.187.186-.174.309.003.48.423.408.835.825,1.249,1.242,1.074,1.082,2.148,2.166,3.241,3.27.1-.067.147-.089.183-.124,1.479-1.474,2.954-2.951,4.437-4.421ZM32.27-23.185c.08-.081.151-.172.209-.24-1.592-1.591-3.166-3.162-4.723-4.717-1.549,1.544-3.117,3.105-4.719,4.702.113.118.209.223.31.324,1.375,1.377,2.757,2.747,4.12,4.135.253.258.391.218.623-.017,1.385-1.404,2.786-2.792,4.18-4.187ZM32.233,16.527c.096-.097.182-.206.245-.278-1.599-1.601-3.163-3.167-4.715-4.721-1.548,1.549-3.111,3.114-4.704,4.708.049.06.093.124.147.178,1.447,1.452,2.9,2.899,4.341,4.358.226.229.344.101.504-.06,1.392-1.396,2.788-2.789,4.182-4.184ZM27.362,21.401c.255-.252.078-.376-.082-.535-1.394-1.393-2.793-2.782-4.175-4.187-.233-.237-.363-.229-.59.002-1.374,1.393-2.757,2.777-4.151,4.151-.251.247-.274.399-.009.658.972.946,1.92,1.919,2.88,2.878.514.514,1.033,1.022,1.559,1.54.085-.064.141-.096.186-.14,1.46-1.456,2.914-2.918,4.382-4.367ZM27.348,11.487c.206-.205.162-.331-.019-.51-.901-.888-1.797-1.781-2.686-2.681-.593-.601-1.171-1.216-1.716-1.783-1.649,1.636-3.227,3.199-4.794,4.753,1.551,1.55,3.116,3.114,4.694,4.69.056-.045.133-.094.196-.157,1.441-1.438,2.878-2.881,4.325-4.312ZM27.324,1.606c.199-.197.23-.329.017-.539-1.437-1.422-2.864-2.855-4.296-4.283-.062-.062-.139-.11-.225-.177-.091.072-.177.127-.249.198-1.414,1.41-2.823,2.825-4.242,4.23-.207.205-.245.347-.014.573,1.422,1.402,2.834,2.813,4.24,4.231.202.204.325.214.534.002,1.403-1.42,2.816-2.831,4.234-4.235ZM27.275-8.275c.249-.244.26-.377.012-.621-1.229-1.209-2.44-2.436-3.66-3.655-.264-.263-.536-.52-.804-.78-.082.065-.126.093-.162.129-1.461,1.458-2.918,2.918-4.385,4.369-.209.205-.158.336.021.511.661.65,1.316,1.306,1.969,1.963.826.833,1.649,1.671,2.515,2.548.169-.158.285-.26.394-.369,1.366-1.367,2.724-2.742,4.102-4.096ZM27.265-18.18c.258-.253.27-.394.009-.648-.964-.938-1.911-1.893-2.853-2.852-.519-.529-1.015-1.08-1.523-1.621-.033.025-.065.051-.098.076-.052.036-.111.065-.155.109-1.451,1.446-2.896,2.897-4.352,4.337-.245.242-.138.386.051.574,1.333,1.325,2.66,2.656,3.989,3.984.154.153.317.296.486.454.107-.096.187-.162.259-.234,1.394-1.395,2.78-2.797,4.187-4.178ZM22.582-3.672c-.05-.058-.098-.119-.152-.173-1.422-1.422-2.85-2.838-4.262-4.269-.246-.25-.387-.232-.623.009-1.385,1.406-2.785,2.795-4.179,4.192-.082.082-.156.171-.199.219,1.588,1.592,3.158,3.168,4.715,4.729,1.538-1.538,3.103-3.106,4.701-4.705ZM21.768,7.177c.284-.28.602-.525.861-.749-1.667-1.678-3.235-3.255-4.817-4.846-.033.027-.086.064-.132.108-1.459,1.456-2.914,2.918-4.381,4.367-.221.219-.124.338.045.505,1.407,1.399,2.813,2.797,4.205,4.211.242.246.381.245.622,0,1.188-1.21,2.391-2.406,3.597-3.597ZM17.855-8.865c1.545-1.549,3.117-3.124,4.614-4.623-1.549-1.567-3.118-3.154-4.656-4.708-1.537,1.538-3.101,3.101-4.643,4.643,1.557,1.558,3.13,3.132,4.685,4.687ZM17.883-18.79c1.537-1.54,3.1-3.107,4.629-4.64-1.575-1.574-3.148-3.147-4.655-4.653-1.539,1.532-3.114,3.099-4.646,4.625,1.545,1.543,3.115,3.113,4.672,4.668ZM22.497,16.228c-1.551-1.558-3.12-3.135-4.633-4.655-1.552,1.542-3.128,3.108-4.691,4.661,1.542,1.542,3.106,3.105,4.643,4.642,1.577-1.566,3.155-3.132,4.681-4.647ZM17.458-18.299c.211-.209.089-.33-.06-.479-1.415-1.411-2.831-2.821-4.237-4.241-.204-.205-.329-.212-.537-.002-1.404,1.421-2.82,2.829-4.231,4.243-.08.081-.149.174-.204.239,1.58,1.585,3.143,3.152,4.719,4.734.035-.02.063-.027.08-.045,1.49-1.483,2.976-2.97,4.47-4.449ZM17.384,21.453c.248-.243.198-.379-.019-.594-1.393-1.378-2.776-2.767-4.163-4.151-.097-.098-.207-.183-.302-.266-1.589,1.589-3.148,3.148-4.693,4.692,1.576,1.583,3.139,3.151,4.719,4.739.07-.061.16-.133.241-.214,1.404-1.404,2.802-2.814,4.217-4.207ZM12.89-3.928c1.559-1.55,3.128-3.11,4.686-4.661-1.559-1.545-3.131-3.103-4.676-4.635-1.542,1.535-3.115,3.101-4.643,4.623,1.54,1.553,3.099,3.125,4.632,4.672ZM17.549,1.364c-1.566-1.579-3.122-3.148-4.691-4.73-.02.014-.067.038-.102.073-1.47,1.463-2.936,2.931-4.41,4.389-.215.213-.125.34.046.509,1.073,1.066,2.14,2.14,3.211,3.208.421.42.848.833,1.266,1.24,1.601-1.604,3.164-3.17,4.681-4.69ZM17.582,11.252c-1.555-1.554-3.121-3.119-4.668-4.665-1.569,1.563-3.136,3.125-4.651,4.637,1.545,1.559,3.109,3.136,4.644,4.684,1.551-1.545,3.119-3.107,4.675-4.656ZM12.632-3.667c-.008-.012-.03-.06-.065-.095-1.476-1.479-2.954-2.954-4.426-4.436-.158-.158-.268-.151-.42.005-.418.431-.848.849-1.274,1.273-1.08,1.077-2.159,2.155-3.205,3.198,1.603,1.618,3.17,3.197,4.702,4.741,1.542-1.542,3.109-3.107,4.689-4.687ZM11.996,7.004c.228-.227.496-.413.718-.595-1.664-1.668-3.228-3.235-4.777-4.787-1.57,1.568-3.137,3.136-4.718,4.715.021.027.057.081.102.125,1.447,1.45,2.899,2.896,4.341,4.352.206.208.34.191.54-.012,1.257-1.273,2.522-2.539,3.793-3.799ZM7.911,20.841c1.56-1.542,3.141-3.105,4.655-4.602-1.549-1.561-3.116-3.141-4.65-4.687-1.544,1.542-3.111,3.107-4.637,4.63,1.571,1.581,3.139,3.158,4.632,4.659ZM12.615-23.452c-1.552-1.549-3.121-3.114-4.69-4.68-1.547,1.546-3.121,3.119-4.678,4.674l4.683,4.683c1.559-1.556,3.132-3.127,4.685-4.676ZM7.954-8.91c1.542-1.535,3.111-3.098,4.668-4.648-1.558-1.553-3.132-3.125-4.693-4.681-1.552,1.553-3.125,3.128-4.639,4.643,1.557,1.564,3.133,3.148,4.664,4.686ZM7.717,1.381c-.056-.097-.069-.136-.095-.163C6.146-.262,4.667-1.738,3.197-3.223c-.198-.199-.326-.13-.485.029C1.284-1.762-.145-.329-1.58,1.096c-.168.166-.179.285-.012.452C-.157,2.974,1.278,4.402,2.702,5.839c.228.231.371.179.572-.026.897-.913,1.804-1.817,2.711-2.72.572-.571,1.149-1.136,1.733-1.712ZM7.685,21.136c-.041-.049-.092-.124-.154-.187-1.44-1.441-2.883-2.878-4.316-4.326-.192-.194-.313-.152-.48.015-1.447,1.454-2.899,2.902-4.348,4.354-.051.051-.08.125-.117.183,1.579,1.571,3.143,3.127,4.697,4.675,1.571-1.571,3.136-3.135,4.717-4.715ZM2.901-13.754c1.638-1.636,3.204-3.199,4.727-4.721-1.555-1.56-3.123-3.132-4.701-4.715-.016.012-.063.037-.099.073-1.47,1.466-2.937,2.935-4.412,4.397-.183.182-.123.299.031.45.512.503,1.019,1.012,1.522,1.524.979.996,1.954,1.994,2.931,2.991ZM7.602,11.274c-1.537-1.556-3.093-3.131-4.606-4.663-1.56,1.554-3.133,3.122-4.665,4.649,1.541,1.551,3.1,3.121,4.621,4.652,1.564-1.561,3.138-3.131,4.649-4.638ZM2.978-3.922c1.559-1.561,3.124-3.129,4.65-4.658-1.549-1.558-3.116-3.135-4.652-4.68-1.559,1.549-3.13,3.111-4.684,4.656C-.149-7.047,1.418-5.482,2.978-3.922Z"/>
          <path class="cls-10" d="M22.43-3.845c.054.054.102.115.152.173-1.598,1.6-3.164,3.167-4.701,4.705-1.556-1.561-3.127-3.136-4.715-4.729.043-.048.118-.137.199-.219,1.394-1.396,2.794-2.786,4.179-4.192.237-.241.377-.259.623-.009,1.412,1.432,2.84,2.848,4.262,4.269ZM21.449-2.826c.257-.256.538-.487.781-.705-1.513-1.513-2.957-2.958-4.372-4.374-1.414,1.41-2.86,2.854-4.33,4.32.013.02.03.057.056.085,1.347,1.349,2.698,2.694,4.04,4.049.191.193.304.153.476-.021,1.11-1.124,2.228-2.24,3.348-3.354Z"/>
          <path class="cls-7" d="M22.009,15.951c.165.163.234.279.034.478-1.345,1.331-2.681,2.673-4.021,4.01-.044.044-.101.075-.136.101-1.454-1.462-2.896-2.909-4.316-4.336,1.43-1.439,2.862-2.88,4.414-4.443.079.134.14.307.257.424,1.25,1.262,2.506,2.516,3.767,3.766ZM19.372,17.009c.51-.611.701-1.339.401-2.124-.141-.37-.38-.664-.807-.711-.418-.046-.685.192-.89.522-.06.096-.122.191-.217.337-.103-.152-.159-.237-.217-.321-.222-.325-.479-.604-.92-.543-.394.053-.768.456-.854.921-.118.641-.062,1.279.372,1.78.386.447.866.812,1.307,1.211.195.177.406.176.601.011.416-.352.877-.67,1.223-1.083Z"/>
          <path class="cls-7" d="M21.939,5.987c.091.09.176.185.249.263-1.469,1.454-2.918,2.891-4.349,4.308-1.39-1.401-2.828-2.852-4.297-4.333.043-.046.134-.151.233-.25,1.255-1.256,2.518-2.504,3.76-3.774.262-.268.397-.238.644.015,1.242,1.269,2.505,2.516,3.76,3.771ZM17.854,8.274c.463-.888,1.091-1.518,1.984-1.978-.91-.459-1.516-1.115-2.001-1.978-.438.915-1.102,1.497-1.935,1.988.876.47,1.491,1.088,1.952,1.969Z"/>
          <path class="cls-10" d="M22.629,6.429c-.259.223-.577.469-.861.749-1.206,1.191-2.409,2.387-3.597,3.597-.241.245-.379.245-.622,0-1.392-1.414-2.798-2.812-4.205-4.211-.169-.167-.266-.286-.045-.505,1.467-1.449,2.922-2.911,4.381-4.367.045-.045.099-.081.132-.108,1.582,1.591,3.15,3.168,4.817,4.846ZM22.188,6.25c-.073-.078-.158-.172-.249-.263-1.255-1.255-2.518-2.503-3.76-3.771-.247-.253-.382-.283-.644-.015-1.241,1.27-2.505,2.518-3.76,3.774-.099.099-.19.204-.233.25,1.469,1.481,2.907,2.932,4.297,4.333,1.43-1.417,2.88-2.853,4.349-4.308Z"/>
          <path class="cls-7" d="M22.23-3.531c-.243.218-.524.449-.781.705-1.12,1.113-2.238,2.23-3.348,3.354-.172.174-.285.214-.476.021-1.342-1.355-2.693-2.7-4.04-4.049-.027-.027-.043-.064-.056-.085,1.469-1.465,2.916-2.91,4.33-4.32,1.415,1.416,2.859,2.86,4.372,4.374ZM19.279-2.695c.523-.651.806-1.375.508-2.217-.126-.358-.34-.652-.739-.737-.436-.093-.719.143-.95.473-.072.103-.141.209-.236.35-.141-.197-.247-.372-.379-.525-.386-.444-1.004-.43-1.342.049-.137.195-.241.438-.28.674-.187,1.12.379,1.915,1.211,2.539.859.644.699.625,1.525.031.251-.18.489-.397.683-.637Z"/>
          <path class="cls-10" d="M19.837,6.295c-.893.46-1.521,1.091-1.984,1.978-.461-.881-1.077-1.499-1.952-1.969.833-.491,1.497-1.073,1.935-1.988.485.863,1.091,1.52,2.001,1.978Z"/>
          <path class="cls-10" d="M17.864,11.573c1.513,1.52,3.082,3.097,4.633,4.655-1.526,1.515-3.104,3.081-4.681,4.647-1.538-1.537-3.102-3.1-4.643-4.642,1.563-1.552,3.139-3.119,4.691-4.661ZM22.044,16.429c.2-.198.13-.314-.034-.478-1.261-1.25-2.517-2.504-3.767-3.766-.117-.118-.178-.29-.257-.424-1.552,1.563-2.984,3.004-4.414,4.443,1.42,1.427,2.861,2.874,4.316,4.336.035-.026.093-.057.136-.101,1.34-1.337,2.675-2.678,4.021-4.01Z"/>
          <path class="cls-3" d="M17.246,11.247c.029.037.059.074.089.111-.325.28-.668.543-.973.842-1.051,1.034-2.097,2.074-3.128,3.128-.246.252-.398.278-.657.013-1.263-1.284-2.545-2.551-3.818-3.825-.081-.08-.146-.176-.271-.329.643-.621,1.275-1.222,1.896-1.833.763-.75,1.519-1.509,2.274-2.267.142-.143.253-.245.448-.049,1.332,1.345,2.674,2.681,4.01,4.022.053.053.088.123.131.186ZM14.411,12.362c.365-.193.561-.519.537-.931-.036-.621-.457-.9-1-1.009-.136-.867-.475-1.251-1.066-1.236-.599.016-.904.379-1.01,1.201-.911.36-1.229.886-.922,1.524.301.626.957.685,1.9.197-.169.376-.336.752-.513,1.146h1.124c-.185-.414-.35-.784-.516-1.155.031-.02.061-.04.092-.06.398.389.841.604,1.375.323Z"/>
          <path class="cls-3" d="M17.046,1.069c.189.187.209.313.009.51-1.298,1.285-2.584,2.581-3.875,3.872-.081.081-.174.149-.277.237-.1-.077-.187-.131-.259-.202-1.313-1.308-2.621-2.62-3.938-3.923-.189-.187-.158-.308.016-.48,1.297-1.286,2.591-2.575,3.874-3.876.238-.241.383-.205.602.017,1.274,1.289,2.558,2.569,3.847,3.844ZM14.815,2.452c.222-.359.156-.91-.143-1.247-.434-.488-.884-.961-1.321-1.444-.146-.161-.276-.334-.427-.518-.216.235-.358.387-.497.54-.465.512-.953,1.004-1.385,1.542-.336.419-.234,1.07.147,1.382.375.307.879.234,1.287-.182.083-.085.176-.16.264-.239.034.027.069.054.104.081-.195.316-.39.632-.596.964h1.297c-.209-.334-.409-.655-.609-.975.041-.027.081-.056.122-.084.094.1.175.22.286.295.18.119.369.253.572.3.384.087.696-.086.899-.413Z"/>
          <path class="cls-7" d="M14.948,11.431c.024.412-.172.738-.537.931-.534.281-.977.066-1.375-.323-.031.02-.061.041-.092.06l-.096.009c-.942.488-1.599.43-1.9-.197-.307-.638.011-1.164.922-1.524.106-.823.411-1.186,1.01-1.201.591-.016.931.369,1.066,1.236.543.109.964.388,1,1.009Z"/>
          <path class="cls-7" d="M14.671,1.204c.3.338.365.888.143,1.247-.202.327-.514.5-.899.413-.203-.046-.393-.18-.572-.3-.111-.074-.192-.195-.286-.295-.041.028-.081.056-.122.084l-.092.011c-.035-.027-.07-.054-.104-.081-.089.079-.181.154-.264.239-.409.416-.913.489-1.287.182-.381-.311-.483-.963-.147-1.382.431-.539.92-1.03,1.385-1.542.14-.154.281-.305.497-.54.151.184.281.358.427.518.438.483.888.957,1.321,1.444Z"/>
          <path class="cls-10" d="M12.858-3.365c1.569,1.582,3.125,3.15,4.691,4.73-1.517,1.52-3.08,3.086-4.681,4.69-.417-.408-.844-.82-1.266-1.24-1.071-1.069-2.137-2.143-3.211-3.208-.171-.169-.261-.296-.046-.509,1.475-1.458,2.94-2.926,4.41-4.389.035-.035.082-.059.102-.073ZM17.055,1.58c.2-.198.18-.324-.009-.51-1.288-1.275-2.573-2.555-3.847-3.844-.22-.222-.365-.258-.602-.017-1.283,1.301-2.577,2.59-3.874,3.876-.174.172-.205.293-.016.48,1.317,1.303,2.626,2.615,3.938,3.923.071.071.159.125.259.202.103-.088.196-.156.277-.237,1.291-1.291,2.577-2.587,3.875-3.872Z"/>
          <path class="cls-7" d="M13.545,3.33h-1.297c.205-.332.401-.648.596-.964l.092-.011c.2.321.401.641.609.975Z"/>
          <path class="cls-10" d="M12.915,6.587c1.547,1.546,3.113,3.111,4.668,4.665-1.556,1.549-3.124,3.111-4.675,4.656-1.535-1.548-3.099-3.125-4.644-4.684,1.516-1.512,3.082-3.074,4.651-4.637ZM17.335,11.358c-.03-.037-.06-.074-.089-.111-.043-.063-.078-.133-.131-.186-1.336-1.341-2.678-2.677-4.01-4.022-.194-.197-.306-.094-.448.049-.755.758-1.511,1.516-2.274,2.267-.621.611-1.253,1.212-1.896,1.833.125.153.191.249.271.329,1.273,1.274,2.555,2.54,3.818,3.825.26.265.411.238.657-.013,1.03-1.054,2.076-2.094,3.128-3.128.305-.3.648-.562.973-.842Z"/>
          <path class="cls-7" d="M13.46,13.254h-1.124c.176-.394.344-.769.513-1.146l.096-.009c.165.371.331.741.516,1.155Z"/>
          <path class="cls-10" d="M12.567-3.762c.035.034.057.083.065.095-1.58,1.58-3.147,3.146-4.689,4.687-1.532-1.545-3.099-3.124-4.702-4.741,1.046-1.044,2.126-2.121,3.205-3.198.426-.423.856-.841,1.274-1.273.152-.156.263-.164.42-.005,1.473,1.481,2.951,2.957,4.426,4.436ZM12.287-3.61c-.049-.07-.083-.14-.136-.192-1.346-1.348-2.692-2.696-4.049-4.033-.06-.059-.279-.057-.34.002-1.348,1.327-2.683,2.668-4.024,4.003-.148.148-.167.259-.004.42,1.325,1.314,2.646,2.633,3.961,3.958.18.181.296.184.478,0,1.305-1.316,2.619-2.624,3.928-3.936.063-.063.114-.137.184-.222Z"/>
          <path class="cls-7" d="M12.152-3.802c.053.053.087.122.136.192-.07.085-.122.159-.184.222-1.309,1.312-2.624,2.62-3.928,3.936-.183.184-.299.181-.478,0-1.315-1.325-2.636-2.644-3.961-3.958-.163-.162-.144-.272.004-.42,1.341-1.335,2.676-2.675,4.024-4.003.06-.06.28-.061.34-.002,1.357,1.337,2.703,2.685,4.049,4.033ZM7.938-1.669c.463-.87,1.108-1.474,1.95-1.966-.87-.47-1.502-1.086-1.963-1.981-.436.92-1.095,1.508-1.947,1.995.881.473,1.481,1.106,1.96,1.952Z"/>
          <path class="cls-7" d="M12.287,16.208c-.064.082-.111.16-.172.222-1.327,1.33-2.656,2.656-3.98,3.989-.141.142-.243.155-.389.009-1.335-1.34-2.671-2.678-4.012-4.012-.164-.163-.128-.274.02-.421,1.332-1.326,2.661-2.655,3.985-3.989.165-.167.271-.128.417.02,1.316,1.324,2.638,2.641,3.956,3.962.063.062.111.138.176.22ZM7.939,18.177c.468-.875,1.083-1.51,1.992-1.962-.921-.461-1.524-1.119-2.01-1.967-.455.901-1.105,1.501-1.952,1.975.887.446,1.492,1.09,1.97,1.954Z"/>
          <path class="cls-7" d="M12.085,6.026c.189.187.212.304.009.504-1.318,1.302-2.623,2.616-3.934,3.926-.062.063-.135.114-.218.184-.082-.063-.158-.109-.22-.171-1.32-1.318-2.636-2.64-3.96-3.954-.184-.183-.169-.299.01-.477,1.317-1.303,2.629-2.613,3.932-3.931.193-.195.303-.157.474.016,1.296,1.306,2.598,2.608,3.906,3.902ZM9.651,6.817c.377-.676.485-1.382.083-2.085-.357-.624-1.034-.657-1.476-.094-.103.131-.191.274-.321.462-.125-.18-.208-.311-.302-.434-.454-.592-1.156-.581-1.486.078-.17.341-.26.781-.219,1.159.125,1.151.937,1.812,1.866,2.349.08.046.238.029.325-.02.619-.351,1.176-.781,1.531-1.415Z"/>
          <path class="cls-10" d="M12.714,6.409c-.222.182-.49.369-.718.595-1.271,1.26-2.536,2.526-3.793,3.799-.2.203-.334.22-.54.012-1.443-1.455-2.894-2.902-4.341-4.352-.045-.045-.081-.099-.102-.125,1.581-1.58,3.148-3.147,4.718-4.715,1.549,1.552,3.113,3.119,4.777,4.787ZM12.095,6.53c.203-.2.18-.318-.009-.504-1.308-1.295-2.609-2.596-3.906-3.902-.171-.172-.281-.211-.474-.016-1.303,1.318-2.615,2.627-3.932,3.931-.179.178-.194.294-.01.477,1.324,1.314,2.64,2.636,3.96,3.954.062.062.138.108.22.171.083-.07.156-.122.218-.184,1.311-1.309,2.616-2.624,3.934-3.926Z"/>
          <path class="cls-10" d="M12.566,16.239c-1.514,1.497-3.096,3.06-4.655,4.602-1.493-1.502-3.06-3.078-4.632-4.659,1.526-1.523,3.093-3.089,4.637-4.63,1.534,1.546,3.101,3.126,4.65,4.687ZM12.114,16.43c.062-.062.109-.14.172-.222-.065-.082-.113-.158-.176-.22-1.318-1.321-2.64-2.638-3.956-3.962-.147-.148-.252-.187-.417-.02-1.324,1.334-2.653,2.663-3.985,3.989-.147.147-.183.258-.02.421,1.341,1.334,2.678,2.672,4.012,4.012.146.147.248.133.389-.009,1.324-1.332,2.653-2.659,3.98-3.989Z"/>
          <path class="cls-10" d="M9.734,4.733c.402.703.294,1.409-.083,2.085-.354.634-.911,1.064-1.531,1.415-.087.049-.245.067-.325.02-.929-.537-1.741-1.198-1.866-2.349-.041-.378.049-.818.219-1.159.33-.659,1.032-.67,1.486-.078.094.122.177.253.302.434.131-.188.219-.331.321-.462.442-.563,1.12-.53,1.476.094Z"/>
          <path class="cls-10" d="M7.622,1.218c.026.027.039.066.095.163-.583.576-1.16,1.142-1.733,1.712-.906.903-1.814,1.807-2.711,2.72-.201.205-.343.257-.572.026C1.278,4.402-.157,2.974-1.592,1.548c-.167-.167-.156-.285.012-.452C-.145-.329,1.284-1.762,2.712-3.194c.158-.159.287-.228.485-.029C4.667-1.738,6.146-.262,7.622,1.218ZM7.129,1.599c.212-.209.198-.339-.004-.539C5.836-.217,4.552-1.498,3.278-2.79c-.234-.238-.374-.216-.6.013C1.406-1.484.123-.202-1.17,1.069c-.217.213-.195.333.006.532C.145,2.894,1.443,4.198,2.746,5.497c.063.063.136.115.231.194.097-.078.193-.142.272-.221,1.294-1.291,2.58-2.587,3.88-3.872Z"/>
          <path class="cls-3" d="M7.125,1.06c.202.2.216.329.004.539-1.3,1.284-2.587,2.581-3.88,3.872-.079.079-.175.143-.272.221-.095-.079-.168-.132-.231-.194C1.443,4.198.145,2.894-1.164,1.601c-.202-.198-.223-.318-.006-.532C.123-.202,1.406-1.484,2.678-2.777c.226-.229.365-.252.6-.013C4.552-1.498,5.836-.217,7.125,1.06ZM4.493,2.447c.353-.175.564-.561.531-.971-.038-.462-.297-.791-.784-.902-.227-.051-.247-.159-.262-.348-.045-.557-.434-.931-.957-.942-.576-.013-.985.341-1.038.939-.019.217-.074.305-.302.357-.451.101-.721.444-.744.895-.021.409.14.738.509.943.354.197.87.149,1.181-.107.078-.065.151-.136.227-.205.03.024.06.046.09.069-.172.382-.345.763-.526,1.164h1.131c-.187-.411-.357-.788-.528-1.165.034-.019.069-.038.103-.057.056.052.113.103.17.154.347.307.8.373,1.199.176Z"/>
          <path class="cls-3" d="M7.117,10.983c.213.211.197.344,0,.54-1.297,1.287-2.587,2.581-3.88,3.872-.072.071-.158.129-.257.209-.091-.072-.177-.127-.248-.197-1.302-1.299-2.599-2.605-3.908-3.898-.209-.206-.198-.331.008-.535,1.311-1.291,2.613-2.593,3.907-3.902.19-.191.3-.169.474.008,1.295,1.306,2.595,2.61,3.905,3.902ZM4.679,12.616c.372-.318.482-.971.164-1.348-.587-.695-1.215-1.356-1.872-2.083-.659.736-1.316,1.406-1.894,2.137-.328.415-.162,1.03.241,1.329.378.278.85.194,1.251-.222.084-.086.176-.164.264-.245.035.027.071.056.107.083-.201.315-.401.63-.616.969h1.273c-.205-.345-.391-.656-.577-.967.063-.046.125-.092.188-.138.07.111.124.236.212.329.37.388.915.45,1.258.156Z"/>
          <path class="cls-7" d="M5.024,1.475c.033.411-.178.797-.531.971-.399.197-.852.13-1.199-.176-.057-.051-.114-.103-.17-.154-.034.02-.068.038-.103.057l-.077.002c-.031-.023-.06-.045-.09-.069-.076.069-.149.14-.227.205-.311.256-.827.303-1.181.107-.369-.205-.53-.535-.509-.943.024-.452.293-.794.744-.895.227-.052.283-.14.302-.357.053-.597.463-.952,1.038-.939.522.011.912.384.957.942.015.189.035.297.262.348.487.111.746.44.784.902Z"/>
          <path class="cls-7" d="M4.843,11.268c.318.376.209,1.03-.164,1.348-.343.294-.888.232-1.258-.156-.089-.093-.143-.218-.212-.329-.063.046-.125.092-.188.138l-.079-.002c-.036-.027-.072-.056-.107-.083-.089.082-.18.159-.264.245-.401.416-.873.5-1.251.222-.404-.299-.569-.914-.241-1.329.579-.732,1.235-1.401,1.894-2.137.658.727,1.285,1.388,1.872,2.083Z"/>
          <path class="cls-7" d="M3.597,13.236h-1.273c.216-.34.416-.654.616-.969l.079.002c.186.31.372.622.577.967Z"/>
          <path class="cls-10" d="M2.996,6.611c1.513,1.532,3.069,3.107,4.606,4.663-1.511,1.507-3.085,3.077-4.649,4.638-1.521-1.531-3.081-3.101-4.621-4.652,1.531-1.527,3.105-3.095,4.665-4.649ZM7.116,11.523c.198-.196.214-.329,0-.54-1.31-1.292-2.609-2.596-3.905-3.902-.175-.176-.285-.199-.474-.008-1.294,1.309-2.596,2.61-3.907,3.902-.206.204-.216.329-.008.535,1.309,1.293,2.606,2.598,3.908,3.898.071.07.157.125.248.197.1-.08.185-.137.257-.209,1.294-1.291,2.584-2.585,3.88-3.872Z"/>
          <path class="cls-7" d="M3.549,3.338h-1.131c.181-.401.354-.782.526-1.164l.077-.002c.171.377.341.754.528,1.165Z"/>
          <path class="cls-10" d="M2.511,6.008c.15.151.312.265.073.502-1.476,1.458-2.938,2.929-4.406,4.394-.045.045-.102.076-.188.14-.66-.652-1.316-1.301-1.972-1.948v-.392c.641.665,1.282,1.33,1.901,1.974,1.51-1.516,2.951-2.965,4.417-4.436-.024-.029-.083-.111-.154-.182C.89,4.766-.408,3.48-1.69,2.177c-.233-.236-.361-.227-.587.006-.551.569-1.135,1.107-1.705,1.658v-.392c.533-.513,1.066-1.026,1.598-1.539.121-.116.242-.231.395-.378.166.157.318.293.461.437C-.181,3.314,1.164,4.662,2.511,6.008Z"/>
          <path class="cls-7" d="M2.337-3.576c.002-.005-.003.023-.02.04C.953-2.168-.414-.803-1.773.569c-.186.187-.296.113-.448-.036C-2.802-.042-3.394-.608-3.982-1.177v-2.509c.304.794.844,1.384,1.545,1.855.325.218.597.258.902-.009.263-.231.56-.427.809-.673C-.123-3.104.154-3.822.019-4.674c-.077-.481-.42-.902-.789-.975-.429-.084-.721.082-1.041.586-.045.071-.107.133-.184.225-.115-.164-.205-.303-.307-.434-.424-.55-1.071-.528-1.459.048-.079.117-.147.241-.221.361v-1.176c.638-.667,1.276-1.334,1.872-1.956C-.581-6.474.874-5.028,2.337-3.576Z"/>
          <path class="cls-10" d="M2.316-3.536c.017-.017.023-.045.02-.04C.874-5.028-.581-6.474-2.111-7.994c-.595.622-1.233,1.288-1.872,1.956v-.392c.657-.648,1.313-1.297,1.945-1.921C-.434-6.751,1.135-5.186,2.684-3.639,1.257-2.22-.187-.783-1.661.682l-.112-.113C-.414-.803.953-2.168,2.316-3.536Z"/>
          <path class="cls-7" d="M2.181,6.058c.071.071.13.153.154.182-1.465,1.471-2.907,2.919-4.417,4.436-.619-.644-1.26-1.309-1.901-1.974V3.841c.571-.55,1.154-1.088,1.705-1.658.226-.233.354-.242.587-.006C-.408,3.48.89,4.766,2.181,6.058ZM-1.966,8.244c.459-.871,1.086-1.477,1.939-1.944-.854-.488-1.496-1.097-1.952-1.97-.478.865-1.087,1.51-2,1.97.933.456,1.52,1.117,2.014,1.945Z"/>
          <path class="cls-10" d="M-2.112,11.412c1.672,1.673,3.243,3.246,4.798,4.803-1.545,1.538-3.115,3.099-4.716,4.691-.067-.064-.135-.128-.203-.193l.111-.117c1.542-1.541,2.991-2.991,4.403-4.402-1.413-1.414-2.856-2.858-4.347-4.351-.623.636-1.269,1.295-1.916,1.955v-.392c.634-.675,1.266-1.35,1.871-1.995Z"/>
          <path class="cls-7" d="M2.28,16.195c-1.411,1.411-2.861,2.861-4.403,4.402-.071-.107-.147-.267-.265-.386-.525-.524-1.062-1.035-1.595-1.551v-2.509c.244.655.668,1.175,1.21,1.603.732.582.809.589,1.542.021.256-.198.492-.429.705-.673.481-.554.663-1.202.548-1.93-.074-.475-.422-.914-.829-.993-.478-.093-.748.21-.982.561-.055.082-.116.16-.198.272-.141-.199-.248-.376-.379-.532-.367-.429-.931-.434-1.287,0-.138.168-.22.38-.329.572v-1.255c.646-.659,1.292-1.319,1.916-1.955,1.491,1.493,2.934,2.936,4.347,4.351Z"/>
        </g>
      </g>
      <g>
        <rect class="cls-9" x="-.012" y="4.466" width="16.396" height=".642" transform="translate(-.725 1.542) rotate(-10.31)"/>
        <rect class="cls-5" x="-.012" y="4.99" width="16.396" height="1.357" transform="translate(1.154 -1.381) rotate(10.373)"/>
        <circle class="cls-8" cx="6.009" cy="5.193" r="1.609"/>
        <path class="cls-6" d="M5.549,4.625c.199.001.373.122.446.313.002.005.004.013.009.014.008.004.014,0,.018-.01.023-.065.06-.121.107-.171.185-.194.463-.173.616-.061.118.086.183.201.192.348.008.134-.038.251-.114.359-.037.052-.082.095-.131.136-.181.154-.361.309-.542.463-.043.037-.087.074-.129.111-.009.008-.014.008-.023,0-.132-.113-.264-.226-.396-.339-.112-.095-.224-.189-.334-.287-.034-.031-.062-.07-.088-.108-.061-.089-.096-.187-.099-.296-.007-.239.168-.442.405-.467.021-.002.043-.003.064-.005Z"/>
      </g>
    </g>
  </g>
</svg>