<?xml version="1.0" encoding="UTF-8"?>
<svg id="Layer_2" data-name="Layer 2" xmlns="http://www.w3.org/2000/svg" viewBox="0 0 52.458 35.121">
  <defs>
    <style>
      .cls-1 {
        fill: #8f2929;
      }

      .cls-1, .cls-2, .cls-3, .cls-4, .cls-5, .cls-6 {
        stroke-width: 0px;
      }

      .cls-2 {
        fill: #b37666;
      }

      .cls-3 {
        fill: #9ba8d5;
      }

      .cls-4 {
        fill: #d07381;
      }

      .cls-5 {
        fill: #7d2727;
      }

      .cls-6 {
        fill: #d0cfe4;
      }
    </style>
  </defs>
  <g id="Alice">
    <g>
      <rect class="cls-6" y="7.774" width="52.458" height="27.347"/>
      <path class="cls-5" d="M22.587,0c1.578.009,2.948.967,3.533,2.474.016.042.035.1.068.114.066.028.113.002.142-.08.184-.512.471-.958.847-1.352,1.468-1.535,3.661-1.372,4.876-.486.934.682,1.452,1.592,1.52,2.753.063,1.063-.297,1.989-.901,2.842-.292.412-.652.753-1.035,1.078-1.433,1.219-2.86,2.444-4.29,3.667-.342.292-.686.582-1.024.878-.071.063-.112.065-.186.002-1.042-.896-2.087-1.788-3.131-2.681-.883-.755-1.776-1.499-2.642-2.273-.272-.243-.491-.555-.7-.858-.483-.702-.76-1.477-.786-2.339-.057-1.889,1.326-3.494,3.203-3.699.168-.018.337-.027.505-.039Z"/>
      <rect class="cls-2" x="10.098" y="15.481" width="32.263" height="1.449"/>
      <rect class="cls-2" y="15.481" width="2.727" height="1.449"/>
      <rect class="cls-2" x="49.731" y="15.481" width="2.727" height="1.449"/>
      <rect class="cls-4" y="21.448" width="52.458" height="13.674"/>
      <rect class="cls-3" x="4.641" y="7.774" width="3.882" height="27.347"/>
      <rect class="cls-3" x="44.102" y="7.774" width="3.61" height="27.347"/>
      <path class="cls-1" d="M24.408,19.149c.789.005,1.474.483,1.766,1.237.008.021.017.05.034.057.033.014.056,0,.071-.04.092-.256.236-.479.424-.676.734-.768,1.831-.686,2.438-.243.467.341.726.796.76,1.376.031.532-.148.995-.45,1.421-.146.206-.326.376-.517.539-.717.609-1.43,1.222-2.145,1.834-.171.146-.343.291-.512.439-.036.031-.056.033-.093,0-.521-.448-1.043-.894-1.565-1.341-.441-.378-.888-.749-1.321-1.136-.136-.122-.245-.277-.35-.429-.242-.351-.38-.738-.393-1.169-.029-.945.663-1.747,1.601-1.85.084-.009.168-.013.253-.02Z"/>
    </g>
  </g>
</svg>