<?xml version="1.0" encoding="UTF-8"?>
<svg id="Layer_2" data-name="Layer 2" xmlns="http://www.w3.org/2000/svg" viewBox="0 0 29.275 15.061">
  <defs>
    <style>
      .cls-1 {
        fill: #7bccc3;
      }

      .cls-1, .cls-2, .cls-3, .cls-4, .cls-5, .cls-6 {
        stroke-width: 0px;
      }

      .cls-2 {
        fill: #00b2e9;
      }

      .cls-3 {
        fill: #791919;
      }

      .cls-4 {
        fill: #9ca7d4;
      }

      .cls-5 {
        fill: #4ac3cc;
      }

      .cls-6 {
        fill: #afdce3;
      }
    </style>
  </defs>
  <g id="Alice">
    <g>
      <g>
        <rect class="cls-3" x="6.225" y="7.779" width="14.907" height="4.027"/>
        <path class="cls-5" d="M20.55,11.59s-1.342-7.913,3.143-10.644c4.485-2.732,2.193,1.325,2.193,1.325l-2.264.683,2.091.054s-.75,1.805-.958,2.236-1.395.09-1.395.09l1.019.442-3.83,5.814Z"/>
        <path class="cls-1" d="M19.937,11.609s4.679-7.75,7.928-8.117c3.249-.366-.133,2.216-.133,2.216l-1.19-.442.655,1.025s-1.416,1.276-1.764,1.566-.519-.57-.519-.57l.05.874-5.028,3.447Z"/>
        <path class="cls-6" d="M13.308,10.435c-6.252,0-11.542-1.307-13.308-3.108v7.735h26.615v-7.735c-1.766,1.801-7.056,3.108-13.308,3.108Z"/>
        <rect class="cls-3" y="13.019" width="26.615" height="1.114"/>
      </g>
      <circle class="cls-2" cx="3.724" cy="12.587" r="2.359"/>
      <circle class="cls-3" cx="3.724" cy="12.587" r="2.131"/>
      <path class="cls-4" d="M2.897,11.509c.358.002.669.22.802.562.004.009.008.023.015.026.015.006.026,0,.032-.018.042-.116.107-.218.192-.307.333-.349.831-.312,1.107-.11.212.155.33.362.345.625.014.241-.067.452-.205.645-.066.094-.148.171-.235.245-.325.277-.65.555-.974.833-.078.066-.156.132-.233.199-.016.014-.025.015-.042,0-.237-.203-.474-.406-.711-.609-.2-.171-.403-.34-.6-.516-.062-.055-.111-.126-.159-.195-.11-.159-.173-.335-.178-.531-.013-.429.301-.793.727-.84.038-.004.076-.006.115-.009Z"/>
    </g>
  </g>
</svg>