<?xml version="1.0" encoding="UTF-8"?>
<svg id="Layer_1" data-name="Layer 1" xmlns="http://www.w3.org/2000/svg" xmlns:xlink="http://www.w3.org/1999/xlink" version="1.1" viewBox="0 0 158.9 139.6">
  <defs>
    <style>
      .cls-1 {
        fill: #7b1c43;
      }

      .cls-1, .cls-2, .cls-3, .cls-4, .cls-5, .cls-6, .cls-7, .cls-8, .cls-9 {
        stroke-width: 0px;
      }

      .cls-2 {
        fill: #c5876d;
      }

      .cls-10 {
        clip-path: url(#clippath);
      }

      .cls-3 {
        fill: none;
      }

      .cls-4 {
        fill: #a63f3b;
      }

      .cls-5 {
        fill: #f07e6d;
      }

      .cls-6 {
        fill: #b66a4b;
      }

      .cls-7 {
        fill: #ba5b3e;
      }

      .cls-8 {
        fill: #ad4644;
      }

      .cls-9 {
        fill: #aa815c;
      }
    </style>
    <clipPath id="clippath">
      <rect class="cls-3" x="10.4" y="7.9" width="133.7" height="123.3"/>
    </clipPath>
  </defs>
  <g class="cls-10">
    <g>
      <path class="cls-7" d="M-182.6,13.3v-3.1c8.1,8,16.2,16,23.8,23.5.4.4.9.8,1.3,1.3,12.8-12.7,25.2-25.1,37.4-37.2-12.1-12.2-24.5-24.6-37.3-37.4-.5.5-1,1-1.5,1.5l-1.2-1.2h0c1.2-1.2,1.1-2.1.4-3l1.1-1.1c.3.3.5.6.8.9,13.2-13.2,25.6-25.6,38.9-38.8-3.4-3.1-6.9-6.3-10.5-9.5h3.1c2.8,2.9,5.6,5.9,8.3,8.8,3.3-3.2,6.2-6,9.1-8.8h2.5c-3.2,3.5-6.4,6.9-9.4,10.3,12.5,12.5,25,24.9,37,36.9,12.4-12.3,24.9-24.8,37.4-37.2-2.9-3.2-6.1-6.6-9.2-9.9h2.5c2.8,2.9,5.7,5.9,8.8,9.1,3.1-3.3,5.8-6.2,8.6-9.1h3.1c-3.3,3.4-6.7,6.8-9.7,10C-24.7-68.1-12.4-55.7-.2-43.5c.6-.6,1.2-1.2,1.8-1.8,11.8-11.8,23.7-23.6,36.4-36.3-3.4-3-6.9-6.2-10.4-9.3h3.1c2.7,2.9,5.4,5.7,8.1,8.5.7-.3,1-.3,1.2-.5,2.7-2.6,5.4-5.3,8.1-8h2.5c-3.1,3.5-6.3,6.9-9.2,10.1,1.1,1.1,2.2,2.2,3.3,3.3,11.4,11.4,22.7,22.7,34.1,34.1.1,0,.5-.2.8-.5,11.7-11.7,23.4-23.4,35.1-35,1.2-1.2,1.2-2.1,0-3.3-2.8-2.8-5.5-5.8-8.3-8.7h2.5c2.4,2.4,4.7,4.9,7.2,7.1.6.6,2.4.8,2.9.4,2.5-2.3,4.8-5,7.2-7.5h3.1c-3.3,3.4-6.6,6.8-9.7,10,12.6,12.6,25.1,25,37.3,37.2,12.2-12.2,24.7-24.6,38-37.8-3.4-3-6.9-6.2-10.4-9.4h3.1c2.8,2.9,5.6,5.9,8.4,8.9,3.3-3.2,6.1-6,9-8.9h2.5c-3.2,3.5-6.3,6.9-9.3,10.2,12.6,12.5,25,24.9,37.3,37.2,12.2-12.2,24.7-24.6,37.2-37.2-3-3.3-6.2-6.8-9.4-10.2h2.5c2.9,2.9,5.8,5.8,9,8.9,2.9-3.1,5.6-6,8.4-8.9h3.1c-3.3,3.4-6.7,6.9-9.6,9.9,12.8,12.8,25.1,25.2,38.3,38.4.4-.5.8-1.1,1.2-1.7l1.1,1.1h0c-1.5,1.4-1.5,2.4,0,3.8,4.2,4.1,8.3,8.2,12.5,12.3v2.5c-4.7-4.5-9.4-8.9-13.8-13.1-.5-.5-1.1-1-1.6-1.5-12.7,12.6-25.1,24.9-37.3,37.1,12.3,12.3,24.7,24.7,37.9,38,4.8-5.1,9.8-10.4,14.8-15.8v3.1c-4.5,4.8-8.9,9.6-13.7,14.8,4.2,4,8.9,8.6,13.7,13.1v3.1c-5.2-5.1-10.4-10.2-15.6-15.4-.7.5-1.1.8-1.5,1.1-11.6,11.6-23.2,23.2-34.8,34.7-1.9,1.9-.6,2.8.6,4,10.6,10.6,21.3,21.3,31.9,31.9,1.1,1.1,2.3,2.2,3.7,3.4,1.2-1.2,2.2-2.1,3.1-3,4.2-4.1,8.4-8.1,12.6-12.2v2.5c-4.1,4.1-8.1,8.2-12.2,12.1-1.7,1.6-1.7,2.7,0,4.2,4.2,4,8.2,8.1,12.3,12.1v2.5c-5.2-5-10.5-10-15.3-14.6-1,1-2,2-3,3-11.6,11.6-23.1,22.9-34.3,34.2,12.3,12.2,24.6,24.6,37.3,37.3,5-4.9,10.2-10.1,15.4-15.2v3.1c-4.4,4.9-8.8,9.7-12.7,14,3.9,4.2,8.3,9,12.7,13.9v3.1c-5-5.4-9.9-10.7-14.7-15.9-13.3,13.3-25.7,25.8-37.9,37.9,12.2,12.2,24.6,24.7,37.2,37.3.7-.7,1.6-1.5,2.5-2.3,4.3-4.1,8.6-8.3,12.9-12.4v2.5c-4.1,4.1-8.1,8.1-12.3,12.1-1.6,1.5-1.7,2.7,0,4.3,4.2,4,8.2,8,12.3,12.1v2.5c-4.7-4.4-9.4-8.9-13.8-13.1-.6-.5-1.1-1.1-1.7-1.6-12.7,12.6-25,25-37.2,37.1,12.3,12.3,24.7,24.8,38,38.1,4.8-5.1,9.7-10.5,14.7-15.8v3.1c-4.4,4.8-8.9,9.6-13.5,14.6,1.7,1.8,3.9,4.1,6.1,6.4h-3.1c-4.2-6.2-5-6.3-9.9-1-.3.3-.4.7-.6,1h-3.1c2.2-2.3,4.3-4.7,6.6-7.1-.6-.8-1.1-1.4-1.6-2-11.3-11.3-22.6-22.6-33.9-33.9-1.6-1.6-2.6-1.3-4,.2-6.2,6.3-12.5,12.6-18.8,18.8-5.6,5.5-11.2,10.9-16.9,16.5,2.5,2.8,4.5,5.2,6.6,7.6h-2.5c-3.6-4-7.2-4.1-11-.2,0,0-.1.2-.2.2h-2.5c2.1-2.4,4.1-4.7,5.8-6.7-12.5-12.6-24.9-25-37.1-37.2-12.2,12.2-24.5,24.6-37,37.1,2,2.1,4.1,4.4,6.3,6.8h-3.1c-1.4-1.5-2.7-3.1-4.2-4.4-.5-.4-1.9-.4-2.3,0-1.5,1.4-2.7,3-4.1,4.5h-3.1c2.2-2.3,4.3-4.6,6.4-6.8-12.6-12.5-24.9-24.9-37.4-37.4,0,0-.5.1-.8.4-11.8,11.7-23.5,23.5-35.2,35.2-1.2,1.1-1,2,.1,3.1,1.7,1.7,3.3,3.6,5,5.4h-2.5c-6.8-7-4.5-6.4-11-.2,0,0-.1.1-.2.2h-2.5c1.1-1.3,2.2-2.7,3.4-3.9,3.2-3.2,3.2-3.1.2-6.2-9.4-9.4-18.8-18.8-28.2-28.2-2.1-2.1-4.2-4.1-6.1-6-11.5,11.5-22.8,22.8-34.3,34.3-1.1,1.1-2.2,2.2-3.3,3.3,2,2.1,4.2,4.5,6.4,6.8h-3.1c-4.2-6.2-5.1-6.3-9.9-1-.3.3-.4.7-.6,1h-3.1c2.2-2.3,4.3-4.7,6.2-6.7-.9-.9-1.8-1.8-2.7-2.8-11.6-11.6-23.1-23.2-34.5-34.6-12.2,12.2-24.5,24.6-37,37.1,1.9,2.2,4,4.6,6,6.9h-2.5c-6.8-6.9-4.6-6.4-11-.2,0,0-.1.2-.2.2h-2.5c2.1-2.4,4.1-4.7,6.2-7.2-.6-.7-1-1.2-1.5-1.7-11.4-11.4-22.8-22.7-34.1-34.2-2-2-2.9-.8-4.2.5-11.1,11.1-22.2,22.2-33.2,33.3-.6.6-1.2,1.4-1.9,2.2,2.3,2.5,4.5,4.8,6.6,7.1h-3.1c-1.4-1.5-2.7-3.1-4.2-4.5-.4-.4-1.8-.4-2.3,0-1.5,1.4-2.7,3-4.1,4.5h-3.1c2.2-2.3,4.4-4.6,7.3-7.8-.3-.2-.5-.4-.8-.7l1-1.1c0,0,0,0,.1.1,12.8-12.7,25.2-25.1,37.5-37.2-12.1-12.2-24.5-24.6-37-37.1-.6.5-1.2,1.1-1.9,1.7,0,0-.2.2-.3.3-4.7,4.7-9.3,9.4-14,14-3.1,3-6.2,5.9-9.4,8.9v-2.5c7.5-7.4,14.9-14.9,22.4-22.2,1.7-1.6,1.1-2.7-.2-4.1-7.4-7.3-14.8-14.7-22.2-22.1v-2.5c.8.6,1.7,1.2,2.4,1.9,6.7,6.7,13.4,13.4,20.2,20.1,1,1,2.1,1.9,2.9,2.7,12.6-12.6,25.1-25,37.2-37.2-12.2-12.3-24.7-24.8-37.9-38,0,0,0,0-.1.1l-1-.9c.1-.1,0-.4.1-.6.2-.2.5-.4.7-.7-.7-.6-1.5-1.1-2.2-1.7l1.1-1.1h0c1.7,1.8,2.7,1.8,4.5,0,11.1-11.2,22.3-22.4,33.5-33.5,1.8-1.8,1.5-2.8-.1-4.4h-.1c-11-11-22-22.1-33-33-.7-.7-1.5-1.4-2.5-2.2-8.6,8.6-17.2,17.1-25.7,25.6v-3.1c7.4-7.4,14.7-14.8,22.2-22.1,1.6-1.6,1.7-2.6,0-4.2-7.4-7.3-14.8-14.7-22.2-22.1v-3.1c8.5,8.5,17,17.1,25,25.1.5-.5.9-.9,1.4-1.4,12.3-12.2,24.3-24.1,36-35.8-12.2-12.1-24.6-24.5-37.2-37.1-8.3,8.2-16.7,16.6-25.2,25v-3.1c.8-.6,1.6-1.2,2.3-2,6.3-6.2,12.5-12.5,18.8-18.7,3.1-3.1,3.1-3.1,0-6.3-7-6.9-14-13.8-21.1-20.7h0ZM-153.6,113.8c-1.4,1.4-1.3,2.5.1,3.8,11.3,11.2,22.5,22.4,33.7,33.7,1.6,1.6,2.7,1.6,4.3,0,4.8-5,9.7-9.8,14.6-14.7,6.9-6.8,13.7-13.7,20.7-20.6-.4-.7-.5-1-.7-1.2-11.7-11.7-23.4-23.3-35-35.1-1.5-1.5-2.6-1.1-3.8.2-11.3,11.3-22.6,22.7-33.9,33.9h0ZM-117.7.3c-12.3,12.3-24.7,24.6-37,36.9,12.3,12.3,24.6,24.6,36.6,36.6,12.4-12.3,24.8-24.7,36.8-36.6C-93.3,25-105.6,12.5-117.7.3ZM-154.3,272.8c12,12,24.3,24.3,36.5,36.6,12.2-12.3,24.5-24.8,36.8-37.1-12-12.1-24.4-24.5-36.3-36.5-12.3,12.4-24.7,24.8-37,37.1ZM-117.8,157.1c-12.2,12.2-24.6,24.6-36.5,36.5,12.3,12.5,24.6,25,36.5,37,12.3-12.2,24.7-24.5,36.8-36.6-12.2-12.2-24.6-24.6-36.9-36.9ZM-117.7-78.2c-12.3,12.2-24.7,24.6-36.9,36.7,12.4,12.4,24.8,24.8,36.8,36.9,12.2-12.2,24.7-24.6,36.8-36.7-12.2-12.3-24.5-24.7-36.7-36.9h0ZM-115.7,155c.2.3.6.8,1,1.3,11.4,11.5,22.9,22.9,34.3,34.4,1.7,1.7,2.7,1.1,4-.2,7.1-7.2,14.2-14.4,21.4-21.5,4.7-4.6,9.5-9.1,13.9-13.4-13-13-25.5-25.4-37.7-37.5-12.1,12.1-24.5,24.4-37,36.9h0ZM-107.1,67.3c-3,3-5.9,5.9-8.6,8.6,12.7,12.7,25,25.1,37,37.2,12.3-12.3,24.8-24.7,37.4-37.2-.1-.2-.4-.6-.7-1-11.4-11.4-22.9-22.9-34.3-34.4-1.7-1.7-2.8-1.3-4.3.2-8.8,8.9-17.6,17.7-26.4,26.5h0ZM-115.2,233c12.2,12.3,24.7,24.8,36.6,36.7,12.2-12.1,24.7-24.5,36.8-36.5-12.2-12.3-24.5-24.7-36.7-37-12.3,12.3-24.7,24.8-36.7,36.8h0ZM-78.3-38.8c-12.4,12.3-24.9,24.7-36.8,36.5,12.2,12.3,24.7,24.8,36.9,37C-66.1,22.6-53.7,10.2-41.4-2c-12.4-12.3-24.8-24.8-36.9-36.8h0ZM-78.6,274.4c-12.2,12.3-24.6,24.7-36.9,37.1,12.3,12.3,24.7,24.8,36.9,36.9,12.3-12.3,24.8-24.7,37-36.9-12.2-12.3-24.7-24.7-37-37.1ZM-77.1,115.2c1.4,1.5,2.2,2.4,3,3.3,10.8,10.8,21.7,21.6,32.4,32.4,1.9,2,3,1.9,4.9,0,11-11.2,22.1-22.2,33.3-33.3,1.5-1.5,1.7-2.5.1-4-11.3-11.2-22.5-22.4-33.7-33.7-1.8-1.8-2.9-1.5-4.5.1-6,6.2-12.2,12.3-18.4,18.4-5.6,5.5-11.2,10.9-17.1,16.7ZM-76.5,272.7c.3.3.7.9,1.2,1.4,11.4,11.4,22.8,22.8,34.1,34.2,1.7,1.7,2.7,1,4-.3,11.1-11.2,22.3-22.4,33.5-33.5,1.7-1.7,1.5-2.7,0-4.2-11.2-11.1-22.4-22.3-33.6-33.5-.6-.6-1.4-1.1-1.9-1.6-12.5,12.6-24.9,25-37.4,37.5h0ZM-75.9-41.7c12.4,12.4,24.7,24.9,37.2,37.4-.2,0,0,0,.2-.1C-26.8-16.1-15.2-27.8-3.4-39.4c1.8-1.7.9-2.7-.4-4-11.2-11.2-22.3-22.3-33.5-33.5-.6-.6-1.4-1.1-2-1.7-12.5,12.6-24.8,24.9-36.6,36.8ZM-76,194.1c12.1,12.2,24.5,24.7,36.6,36.9,12.4-12.4,24.8-24.8,36.9-36.9-12.2-12.2-24.5-24.6-36.7-36.8-12.3,12.3-24.7,24.7-36.8,36.9ZM-76.1,37.2c12.2,12.2,24.5,24.6,36.7,36.8C-27.1,61.7-14.7,49.3-2.8,37.4-14.9,25.1-27.3,12.6-39.4.4c-12.2,12.2-24.6,24.6-36.7,36.8ZM-37.2,155.1c0,.2.3.6.5.8,11.7,11.7,23.4,23.3,35,35.1,1.7,1.7,2.6.7,3.8-.5,6.1-6.1,12.2-12.3,18.4-18.4,5.7-5.7,11.4-11.3,17-16.8C24.7,142.6,12.2,130.2,0,118c-12.4,12.3-24.8,24.6-37.3,37ZM-36.2-3.7c-1.8,1.8-.7,2.8.5,4C-24.7,11.3-13.7,22.3-2.6,33.3c.8.8,1.6,1.5,1.9,1.7C12,22.3,24.4,9.9,36.6-2.2,24.5-14.4,12.2-26.8-.3-39.3c-.2.2-.6.4-.9.6C-12.8-27-24.5-15.3-36.2-3.7ZM-28.7,67.2c-3,3-6,5.9-8.7,8.4C-24.5,88.5-12.2,100.9,0,113.2c12.2-12.1,24.6-24.5,37.3-37.1-.6-.6-1.1-1.3-1.7-1.8C24.5,63.1,13.3,52,2.2,40.8c-1.9-1.9-2.9-1.7-4.7,0-8.7,8.8-17.5,17.6-26.2,26.3h0ZM0,196.4c-12.3,12.3-24.7,24.7-37.1,37,12.1,12.2,24.5,24.5,36.7,36.8,12.3-12.4,24.8-24.8,37-37C24.5,220.9,12.1,208.5,0,196.4ZM-37,311.9c12.2,12.2,24.6,24.6,36.8,36.8,12.3-12.4,24.8-24.8,36.9-36.9-12.4-12.4-24.7-24.8-36.6-36.8-12.3,12.2-24.7,24.6-37.1,36.9h0ZM3.4,270.3c-1.9,1.9-1.2,3,.3,4.6,11.1,11.1,22.2,22.2,33.3,33.2.6.6,1.4,1.1,2.1,1.7.5-.4.9-.6,1.2-.9,11.6-11.6,23.2-23.2,34.8-34.8,1.8-1.8.8-2.7-.5-4-9.4-9.4-18.9-18.8-28.2-28.2-2.3-2.3-4.4-4.9-6.6-7.4-1.3.9-1.5,1-1.7,1.3-11.5,11.5-23.1,23-34.7,34.5h0ZM1.8,115.6c.6.7,1,1.4,1.6,2,11.2,11.2,22.5,22.4,33.7,33.7,1.7,1.7,2.7,1.4,4.3-.1,11-11.1,22.1-22.2,33.2-33.3,1.8-1.8,1.8-2.9,0-4.7-11.2-11.1-22.4-22.3-33.5-33.5-1.4-1.4-2.3-1.6-3.8-.1-11.3,11.4-22.6,22.6-33.9,34-.6.6-1,1.3-1.6,2ZM3.6-43.5c-1.7,1.7-1.8,2.8,0,4.6,7.1,7,14.2,14.1,21.2,21.2,4.6,4.7,9,9.6,13.6,14.5,1.4-1.1,1.9-1.4,2.2-1.8,11.5-11.4,22.9-22.9,34.4-34.3,1.7-1.7,1.1-2.7-.3-4-9.7-9.7-19.4-19.4-29.1-29.1-2.1-2.1-4.3-4.1-6.4-6.2-.7.6-1.3.9-1.7,1.3-11.3,11.3-22.6,22.6-33.9,33.9h0ZM40,156.2c-13.2,13.2-25.6,25.5-37.9,37.8,12.3,12.2,24.7,24.6,37.3,37,.1-.1.7-.4,1.1-.8,11.5-11.5,23.1-23.1,34.7-34.5,1.7-1.7.7-2.6-.5-3.8-8.6-8.6-17.3-17.2-25.8-25.8-3.2-3.2-6.1-6.7-8.9-9.8ZM39.1.2C26.8,12.5,14.4,24.9,2.2,37.2c12.3,12.2,24.6,24.6,36.9,36.7,12.3-12.2,24.7-24.5,36.9-36.6C63.6,25,51.3,12.5,39.1.2ZM40.9,154.7c.5.6.8,1.2,1.3,1.7,1.6,1.6,3.2,3.2,4.8,4.8,9.7,9.7,19.4,19.4,29.1,29.1,1.5,1.5,2.5,2,4.3.2,11.2-11.3,22.4-22.5,33.7-33.7,1.2-1.2,2.2-2.1.5-3.8-11.6-11.5-23.1-23-34.6-34.6-1.2-1.2-2.1-1.2-3.3,0-11.4,11.5-22.9,22.9-34.3,34.4-.5.5-.9,1.1-1.4,1.8h0ZM40.9,76.5c.5.7.9,1.3,1.4,1.7,11.4,11.4,22.8,22.7,34.1,34.2,1.6,1.6,2.5,1.4,4-.1,11.3-11.3,22.6-22.6,33.9-33.9,1.4-1.4,1.5-2.3,0-3.8-11.4-11.3-22.8-22.7-34.1-34.1-1.3-1.3-2.2-1.5-3.6,0-11.4,11.5-22.9,22.9-34.3,34.4-.5.5-.9,1.1-1.4,1.8h0ZM42.2,231.5c-1.4,1.4-1,2.3.2,3.6,11.4,11.4,22.8,22.7,34.1,34.2,1.4,1.4,2.2,1.3,3.6,0,11.3-11.4,22.7-22.8,34.2-34.2,1.5-1.5,1.4-2.4,0-3.8-3.3-3.2-6.6-6.5-9.9-9.8-8.5-8.6-17-17.1-25.6-25.8-.8.5-1.2.7-1.4,1-11.7,11.7-23.4,23.3-35.1,35h0ZM42.8,309.4c-.6.6-1.2,1.4-1.7,1.9,12.6,12.6,25,25,37.3,37.3,12.2-12.2,24.6-24.5,37.3-37.2-.9-.9-1.7-1.8-2.4-2.6-10.9-10.9-21.8-21.7-32.6-32.7-2-2-3.1-1.7-4.9.1-11,11.1-22,22.1-33,33.1ZM43.1-4.5c-.8.8-1.4,1.6-1.9,2.2,12.6,12.7,25,25,37.3,37.3,12.2-12.2,24.6-24.6,37.2-37.2-.4-.5-.7-1-1.2-1.4-11.4-11.5-22.9-22.9-34.3-34.4-1.8-1.8-2.7-.8-4,.5-11,11-22,22-33,33.1ZM81.6-43.1c-2,2-.6,3,.6,4.2,11,11,22.1,22,33,33.1,1.8,1.9,2.9,1.8,4.7,0,10.9-11,21.8-22,32.8-32.8,2-2,2.2-3.2,0-5.2-7.7-7.5-15.2-15.2-22.8-22.7-4.1-4.1-8.2-8.1-12.3-12.2-.7.5-1.1.8-1.5,1.1-11.5,11.5-23,23.1-34.6,34.5h0ZM81.7,35.3c-1.6,1.6-1.3,2.6.1,4,7.1,7,14.2,14.1,21.2,21.2,4.7,4.7,9.3,9.6,13.6,14.1,13-12.9,25.5-25.3,37.9-37.6C142.2,24.8,129.9,12.4,117.4,0c-.4.4-1.1.7-1.6,1.2-11.4,11.4-22.7,22.8-34.2,34.1h0ZM81.9,113.4c-1.6,1.6-1.8,2.6-.1,4.3,11.4,11.2,22.6,22.6,34,33.9.5.5,1.1.9,1.8,1.4.7-.6,1.4-1,2-1.6,11.2-11.1,22.3-22.3,33.5-33.4,1.6-1.6,1.9-2.7.1-4.5-11.2-11.1-22.4-22.2-33.5-33.4-1.6-1.6-2.6-1.7-4.2,0-11.1,11.2-22.3,22.4-33.5,33.5h0ZM82.2,191.5c-2,1.9-2.1,3,0,4.9,9.7,9.6,19.3,19.3,28.9,28.9,2.1,2.1,4.2,4.1,6.4,6.2.7-.5,1-.7,1.3-1,11.5-11.5,23.1-23.1,34.7-34.5,1.6-1.6,1.2-2.7-.2-4-5.2-5.1-10.4-10.3-15.6-15.5-6.5-6.6-13-13.2-19.9-20.1-1.3,1.2-2.3,2.1-3.1,2.9-10.8,10.8-21.5,21.7-32.4,32.4h0ZM82.3,269.8c-2,2-2.1,3.1,0,5.1,7.6,7.4,15.1,15,22.5,22.5,4.1,4.2,8,8.5,12,12.8.3-.2.5-.4.8-.6.4-.3.9-.5,1.2-.9,11.5-11.4,22.9-22.9,34.4-34.3,1.9-1.9,1.1-3-.4-4.5-10.5-10.5-21-21-31.5-31.5-1.2-1.2-2.5-2.3-3.8-3.6-.8.8-1.5,1.3-2,1.9-11,11-22,22.1-33.1,33h0ZM119.3,155.1c.4.5.8.9,1.2,1.4,11.2,11.2,22.5,22.4,33.7,33.8,1.9,2,3.1,1.8,4.9,0,10.9-11.1,22-22.1,33-33.1.6-.6,1.2-1.4,1.6-1.7-12.6-12.6-25-25-37.3-37.4-12.1,12.2-24.5,24.6-37.2,37.2h0ZM125.8,69.4c-2.2,2.2-4.8,4.2-6.8,5.9,13.2,13.3,25.6,25.7,38.1,38.3.3-.2.7-.5,1-.9,11.5-11.5,23-23.1,34.6-34.5,1.7-1.7,1-2.7-.3-4-11.1-11.1-22.2-22.1-33.2-33.3-1.9-1.9-3-1.9-4.9,0-9.4,9.6-18.9,19-28.4,28.4h0ZM156.7,196.2c-12.2,12.2-24.6,24.7-36.5,36.5,12.2,12.4,24.7,24.9,36.8,37.2,12.2-12.2,24.5-24.5,36.7-36.7-12.3-12.3-24.7-24.8-37-37.1h0ZM156.5,274.6c-12.1,12.2-24.5,24.6-36.6,36.7,12.5,12.4,24.9,24.9,36.8,36.8,12.2-12.1,24.6-24.5,36.7-36.6-12.2-12.2-24.6-24.6-36.9-36.9ZM120-2.2c12.3,12.3,24.7,24.8,36.6,36.8,12.3-12.2,24.7-24.6,37.1-36.8-12.2-12.2-24.6-24.5-36.7-36.7-12.5,12.4-24.9,24.8-37,36.7ZM159.9,270.8c-1.7,1.6-.7,2.6.5,3.8,11.2,11.2,22.4,22.3,33.5,33.5,1.6,1.6,2.6,1.7,4.2,0,11.1-11.2,22.3-22.4,33.4-33.5.6-.6,1.2-1.4,1.6-1.9-12.5-12.5-24.8-24.9-37.3-37.4-.3.2-.5.2-.6.4-11.8,11.7-23.5,23.5-35.3,35.2h0ZM160.4-43.5c-2,1.9-1.6,3,.2,4.7,11,10.9,21.9,21.9,32.9,32.8.8.8,1.6,1.4,2.4,2.1,12.6-12.6,24.9-24.9,37.1-37.1-12.5-12.5-24.8-24.9-37.3-37.5-.5.5-1.3,1-1.9,1.7-11.1,11.1-22.2,22.2-33.3,33.3h0ZM196,157.2c-12.3,12.3-24.7,24.6-37,36.8,12.3,12.2,24.8,24.5,37,36.6,12.2-12.1,24.6-24.5,36.7-36.5-12.2-12.3-24.5-24.7-36.6-36.9h0ZM159.1,115.3c12.4,12.5,24.7,24.9,37.1,37.4.2-.1.5-.3.8-.6,11.6-11.6,23.2-23.2,34.9-34.7,1.7-1.7,1-2.7-.4-4-8.5-8.4-16.9-16.9-25.4-25.4-3.3-3.3-6.7-6.6-10-9.8-12.7,12.7-25,25.1-37,37.1h0ZM158.9,37.2c12.3,12.3,24.7,24.7,36.9,36.9,12.4-12.4,24.8-24.7,36.8-36.7-12.2-12.3-24.6-24.8-36.7-37-12.3,12.2-24.7,24.6-37,36.8ZM198,155.1c0,0,.2.5.5.8,11.7,11.7,23.3,23.3,35,35.1,1.2,1.3,2.1,1.2,3.3,0,3.3-3.4,6.7-6.7,10.1-10.1,8.5-8.5,17.1-17,25.3-25.3-12.7-12.8-25.1-25.3-37.2-37.5-12.2,12.2-24.6,24.6-37.1,37.1h0ZM203,70.7c-1.8,1.8-3.9,3.3-5.7,4.7,13.2,13.2,25.5,25.6,37.8,37.8,12.4-12.4,24.8-24.8,37.3-37.3-.2-.2-.4-.6-.8-1-11.4-11.5-22.9-22.9-34.3-34.4-1.6-1.6-2.7-1.5-4.3,0-9.9,10.1-19.9,20.1-30,30h0ZM235.3-38.6c-12.3,12.2-24.8,24.5-36.8,36.4,12.2,12.3,24.6,24.8,36.8,37.1,12.2-12.2,24.6-24.6,36.7-36.6-12.4-12.5-24.8-25-36.6-36.8h0ZM198.1,311.5c12.3,12.2,24.7,24.6,37.1,37,12.2-12.2,24.7-24.7,37-36.9-12.3-12.3-24.7-24.8-37-37-12.3,12.3-24.8,24.7-37,37h0ZM235,196.5c-12.2,12.1-24.6,24.5-36.9,36.7,12.3,12.3,24.8,24.7,37.1,37,12.3-12.3,24.7-24.7,36.7-36.7-12.3-12.4-24.8-24.9-36.9-37h0ZM236.8,115.2c.4.8.5,1.1.8,1.3,11.7,11.7,23.4,23.4,35,35.1,1.6,1.6,2.6,1,3.8-.2,11.3-11.3,22.6-22.6,33.9-33.9,1.3-1.3,1.4-2.2,0-3.6-11.3-11.3-22.7-22.6-33.9-33.9-1.8-1.8-2.9-1.4-4.5.2-7.1,7.2-14.3,14.4-21.4,21.5-4.5,4.5-9.1,9-13.7,13.5h0ZM237.1-41c.3.4.7,1,1.2,1.5,11.4,11.4,22.8,22.8,34.1,34.2,1.5,1.5,2.5,1.2,3.8-.1,11.4-11.5,22.9-22.9,34.4-34.4.4-.4.6-1,.9-1.5-12.5-12.4-24.8-24.7-37.1-37-12.4,12.4-24.8,24.8-37.3,37.3h0ZM274.9,234.8c-12.9,12.9-25.3,25.3-37.4,37.3,12.3,12.3,24.7,24.8,37.2,37.3.1,0,.5-.3.8-.6,11.6-11.6,23.2-23.2,34.9-34.8,1.5-1.4,1-2.4-.2-3.6-4-4-8.1-8-12-12.1-7.7-7.9-15.5-15.8-23.2-23.6h0ZM237.8,37c12.1,12.3,24.4,24.8,36.4,36.9,12.3-12.3,24.8-24.7,36.9-36.8-12.2-12.3-24.5-24.7-36.5-36.8-12.4,12.3-24.8,24.8-36.8,36.7h0ZM274.3,157.1c-12.3,12.3-24.7,24.7-36.8,36.8,12.2,12.3,24.6,24.8,36.8,37,12.3-12.2,24.7-24.6,37-36.8-12.3-12.3-24.7-24.7-37.1-37h0Z"/>
      <path class="cls-4" d="M-36.7,155.9c-.3-.3-.4-.7-.5-.8C-24.7,142.7-12.3,130.3,0,118c12.2,12.2,24.6,24.6,37.4,37.3-5.6,5.5-11.3,11.2-17,16.8-6.1,6.1-12.2,12.2-18.4,18.4-1.2,1.2-2.1,2.2-3.8.5-11.6-11.7-23.3-23.4-35-35.1h0ZM-34.7,154.4c.5.8.6,1.2.9,1.5,10.7,10.8,21.5,21.5,32.2,32.3,1.3,1.3,2.1,1.1,3.3-.2,4.3-4.4,8.7-8.8,13.1-13.2,6.6-6.5,13.2-13,19.8-19.4-.5-.9-.5-1.2-.6-1.3-10.8-10.8-21.6-21.6-32.4-32.4-1.5-1.6-2.4-.8-3.5.3-6.7,6.7-13.4,13.4-20.2,20.1-4.2,4.1-8.4,8.2-12.5,12.3h0Z"/>
      <path class="cls-4" d="M-35.7.3c-1.2-1.2-2.4-2.2-.5-4C-24.5-15.3-12.8-27-1.2-38.7c.3-.3.7-.5.9-.6C12.2-26.8,24.5-14.4,36.6-2.2,24.4,9.9,12,22.3-.7,35c-.3-.3-1.1-1-1.9-1.7C-13.7,22.3-24.7,11.3-35.7.3ZM-34.1-2C-22.8,9.3-11.3,20.7.2,32.3c.2-.1.6-.3.8-.6C11.7,21,22.3,10.3,33-.3c1.6-1.6,1-2.5-.3-3.7C22.3-14.3,12-24.7,1.6-35.1c-.5-.5-1.1-.9-1.3-1C-11.3-24.6-22.8-13.2-34.1-2Z"/>
      <path class="cls-9" d="M-33.8,155.8c-.3-.3-.4-.7-.9-1.5,4.2-4.1,8.4-8.2,12.5-12.3,6.7-6.7,13.5-13.4,20.2-20.1,1.1-1.1,1.9-1.9,3.5-.3,10.7,10.9,21.6,21.6,32.4,32.4.1.1.2.4.6,1.3-6.6,6.4-13.2,12.9-19.8,19.4-4.4,4.4-8.8,8.7-13.1,13.2-1.2,1.2-2,1.4-3.3.2-10.7-10.8-21.4-21.5-32.2-32.3h0ZM-11.5,147.7c-4.1,4.3-5.4,9.6-4.4,15.5.6,3.8,3.4,7.1,6.4,7.6,3.9.7,6.2-1.4,8-4.5.3-.6.8-1.1,1.5-2,1,1.5,1.7,2.7,2.6,3.7,3.5,4.2,8.3,4.1,11.3-.4,2.1-3.1,2.8-6.7,2-10.4-1.8-8.6-7.7-13.9-14.9-17.9-.7-.4-2.1-.1-2.8.4-3.3,2.6-6.8,5.1-9.7,8.1h0Z"/>
      <path class="cls-9" d="M-33.3,78c-1.3-1.3-1.1-2.1,0-3.3,10.5-10.4,20.9-20.9,31.3-31.3,1-1,1.8-1.8,3.3-.3,10.8,10.8,21.6,21.6,32.4,32.4.2.2.3.5.7,1.2-8.4,8.3-16.6,16.5-24.9,24.7-2.6,2.6-5.3,5.2-7.9,7.9-1.2,1.3-2.1,1.6-3.5.2-10.5-10.6-21-21.1-31.5-31.5h0ZM-.2,60.8c-3.5,7.1-8.6,11.8-15.3,15.6,6.8,3.8,11.8,8.6,15.5,15.7,3.6-7.1,8.6-12.1,15.8-15.8-7.4-3.5-12-8.7-15.9-15.5h0Z"/>
      <path class="cls-4" d="M-37.3,75.6c2.6-2.6,5.7-5.5,8.7-8.4,8.8-8.7,17.5-17.5,26.2-26.3,1.7-1.8,2.8-2,4.7,0,11.1,11.2,22.3,22.4,33.4,33.5.6.6,1.1,1.2,1.7,1.8C24.7,88.7,12.3,101.1,0,113.2c-12.2-12.3-24.6-24.8-37.4-37.6h0ZM-33.2,74.6c-1.2,1.2-1.4,2,0,3.3,10.5,10.5,21.1,21,31.5,31.5,1.4,1.4,2.3,1.1,3.5-.2,2.6-2.7,5.2-5.3,7.9-7.9,8.3-8.2,16.5-16.4,24.9-24.7-.4-.7-.5-1-.7-1.2C22.9,64.6,12.1,53.9,1.4,43c-1.4-1.5-2.2-.7-3.3.3-10.4,10.5-20.9,20.9-31.3,31.3h0Z"/>
      <path class="cls-4" d="M-15.9,163.2c-.9-5.8.3-11.2,4.4-15.5,2.9-3,6.3-5.5,9.7-8.1.7-.5,2.1-.7,2.8-.4,7.3,4,13.2,9.3,14.9,17.9.8,3.7.1,7.2-2,10.4-3.1,4.5-7.9,4.6-11.3.4-.8-1-1.5-2.2-2.6-3.7-.7.9-1.1,1.4-1.5,2-1.8,3.1-4.1,5.2-8,4.5-3-.5-5.8-3.8-6.4-7.6h0Z"/>
      <path class="cls-4" d="M-15.9,6.4c-1-5.8.4-11.1,4.3-15.5,1.9-2.1,4.1-4.1,6.3-5.8,5-3.9,5.5-3.9,10.4,0C10.1-11.3,14.2-6.9,15.7-.6c.9,3.8.4,7.4-1.5,10.7-3.1,5.2-8.6,5.4-12,.5-.7-.9-1.3-1.8-1.9-2.7,0,0-.2,0-.5-.2-.4.6-.9,1.2-1.4,1.9-1.8,2.7-3.8,5-7.5,4.4-3.3-.5-6.1-3.8-6.8-7.6h0Z"/>
      <path class="cls-9" d="M.2,32.3C-11.3,20.7-22.8,9.3-34.1-2-22.8-13.2-11.3-24.6.3-36.1c.2.2.8.6,1.3,1C12-24.7,22.3-14.3,32.7-4c1.3,1.3,1.9,2.1.3,3.7C22.3,10.3,11.7,21,1,31.7c-.3.3-.7.5-.8.6ZM-11.6-9.1c-3.9,4.4-5.3,9.7-4.3,15.5.7,3.8,3.5,7.1,6.8,7.6,3.7.6,5.7-1.8,7.5-4.4.4-.7.9-1.3,1.4-1.9.3,0,.4,0,.5.2.7.9,1.3,1.8,1.9,2.7,3.5,4.9,9,4.7,12-.5,2-3.3,2.4-6.9,1.5-10.7-1.5-6.3-5.6-10.7-10.5-14.4-5-3.8-5.5-3.8-10.4,0-2.3,1.8-4.4,3.7-6.3,5.8h0Z"/>
      <path class="cls-4" d="M-15.5,76.4c6.7-3.8,11.8-8.5,15.3-15.6,3.9,6.8,8.5,12,15.9,15.5-7.2,3.7-12.2,8.6-15.8,15.8-3.7-7.1-8.6-11.8-15.5-15.7h0Z"/>
      <path class="cls-4" d="M3.4,117.6c-.6-.6-1-1.3-1.6-2,.6-.8,1-1.5,1.6-2,11.3-11.3,22.6-22.6,33.9-34,1.5-1.5,2.4-1.2,3.8.1,11.1,11.2,22.2,22.4,33.5,33.5,1.8,1.8,1.8,2.9,0,4.7-11.2,11-22.2,22.1-33.2,33.3-1.6,1.6-2.6,1.8-4.3.1-11.2-11.3-22.5-22.5-33.7-33.7ZM6.4,113.4c-1.6,1.5-1.8,2.6-.1,4.3,10.3,10.2,20.6,20.5,30.8,30.8,1.4,1.4,2.3,1.5,3.8,0,10.3-10.4,20.7-20.7,31.1-31,1.4-1.4,1.6-2.3.1-3.8-10.5-10.4-20.9-20.8-31.3-31.2-.5-.5-1.1-.8-1.8-1.4-.7.6-1.4,1.1-1.9,1.6-10.2,10.2-20.4,20.4-30.6,30.6h0Z"/>
      <path class="cls-2" d="M5.9,38.7c-.4-.4-.7-.9-1.2-1.5.5-.7.8-1.3,1.3-1.8C16.5,24.9,27,14.4,37.5,3.9c1.1-1.1,2-1.2,3.1,0,10.5,10.6,21.1,21.2,31.7,31.7,1.7,1.7.5,2.7-.6,3.8-8.1,8.1-16.2,16.2-24.3,24.3-2.3,2.3-4.6,4.5-6.8,6.8-1.1,1.2-2,1.1-3.1,0-10.5-10.6-21.1-21.2-31.7-31.8ZM27.2,28.3c-3,1.4-4.4,4.2-4.2,7.9.2,4,2.7,5.9,6.2,7.2.8.3,1.7,1.6,1.8,2.5.6,4.4,3.4,7.3,7.7,7.6,3.8.3,7.7-2.5,8.1-6.5.3-2.7,1.5-3.5,3.7-4.3,3.2-1.1,4.9-4.2,4.8-7.6-.2-3.1-2.2-5.8-5.3-7-4-1.5-7.1.2-10,3-.2-.2-.4-.3-.7-.5,1.3-3,2.6-6,4.1-9.3-2.6,0-5,0-7.3,0-.5,0-1,0-1.6.1,1.4,3.2,2.8,6,4.1,8.9-1,.3-1.4.2-1.6,0-2.9-2.9-6.1-3.7-9.9-1.9h0Z"/>
      <path class="cls-2" d="M6.3,117.7c-1.7-1.7-1.5-2.8.1-4.3,10.3-10.2,20.4-20.4,30.7-30.6.6-.6,1.2-1,1.9-1.6.7.5,1.3.9,1.8,1.4,10.4,10.4,20.9,20.8,31.3,31.2,1.5,1.5,1.2,2.4-.1,3.8-10.4,10.3-20.8,20.6-31.1,31-1.5,1.5-2.4,1.4-3.8,0-10.2-10.3-20.5-20.6-30.8-30.8h0ZM25.6,104.7c-3,2.4-3.8,7.8-1.1,11,4.6,5.4,9.5,10.5,14.7,16.2,5.2-5.8,10.4-11.1,15-16.8,2.7-3.4,1.3-8.1-2.1-10.7-2.9-2.2-6.7-1.4-9.8,2.1-.6.7-.7,1.7-1,2.6-.5-.4-1-.9-1.5-1.3.6-1.3,1.1-2.8,1.8-4,.8-1.3,1.8-2.4,3-4h-10.4c1.5,2.6,2.9,5.1,4.3,7.6l-1.1.7c-.5-.6-1-1.3-1.5-1.9-3.2-3.3-7.3-3.8-10.3-1.5h0Z"/>
      <path class="cls-9" d="M23,36.2c-.2-3.8,1.2-6.5,4.2-7.9,3.7-1.7,7-1,9.9,1.9.2.2.5.3,1.6,0l.8.3c.2.2.4.3.7.5,2.8-2.8,6-4.5,10-3,3,1.1,5.1,3.8,5.3,7,.2,3.3-1.6,6.4-4.8,7.6-2.2.8-3.5,1.6-3.7,4.3-.4,4-4.4,6.8-8.1,6.5-4.3-.3-7.1-3.2-7.7-7.6-.1-.9-1-2.2-1.8-2.5-3.5-1.2-6-3.2-6.2-7.2h0Z"/>
      <path class="cls-9" d="M24.5,115.7c-2.6-3.1-1.8-8.6,1.1-11,2.9-2.4,7.1-1.8,10.3,1.5.6.6,1,1.2,1.5,1.9l1.1-.7,1.2.4c.5.4,1,.9,1.5,1.3.3-.9.4-2,1-2.6,3-3.5,6.8-4.3,9.8-2.1,3.5,2.5,4.8,7.3,2.1,10.7-4.6,5.8-9.8,11.1-15,16.8-5.2-5.7-10.1-10.8-14.7-16.2h0Z"/>
      <path class="cls-4" d="M2.2,37.2C14.4,24.9,26.8,12.5,39.1.2c12.2,12.3,24.6,24.8,36.8,37.1-12.1,12-24.6,24.4-36.9,36.6C26.8,61.8,14.4,49.4,2.2,37.2ZM4.7,37.2c.4.6.8,1.1,1.2,1.5,10.6,10.6,21.1,21.2,31.7,31.8,1.1,1.1,2,1.2,3.1,0,2.2-2.3,4.5-4.5,6.8-6.8,8.1-8.1,16.2-16.2,24.3-24.3,1.1-1.1,2.4-2.1.6-3.8-10.6-10.5-21.2-21.1-31.7-31.7-1.2-1.2-2-1.1-3.1,0-10.5,10.5-21,21-31.5,31.5-.5.5-.8,1.1-1.3,1.8h0Z"/>
      <path class="cls-9" d="M34.2,99.8h10.4c-1.2,1.6-2.3,2.7-3,4-.8,1.3-1.2,2.7-1.8,4l-1.2-.4c-1.4-2.5-2.8-4.9-4.3-7.6h0Z"/>
      <path class="cls-9" d="M34.5,21.4c.6,0,1.1-.1,1.6-.1,2.3,0,4.7,0,7.3,0-1.5,3.4-2.8,6.3-4.1,9.3l-.8-.3c-1.3-2.9-2.6-5.7-4.1-8.9Z"/>
      <path class="cls-4" d="M42.2,156.4c-.5-.5-.8-1.1-1.3-1.7.5-.7.9-1.3,1.4-1.8,11.4-11.5,22.9-22.9,34.3-34.4,1.2-1.2,2.1-1.3,3.3,0,11.5,11.6,23,23.1,34.6,34.6,1.7,1.7.7,2.6-.5,3.8-11.2,11.2-22.5,22.4-33.7,33.7-1.7,1.8-2.8,1.3-4.3-.2-9.7-9.8-19.4-19.4-29.1-29.1-1.6-1.6-3.2-3.2-4.8-4.8h0ZM45.2,153c-1.4,1.4-1.3,2.2,0,3.5,10.5,10.4,20.9,20.8,31.3,31.3,1.3,1.3,2.2,1.3,3.5,0,10.3-10.4,20.7-20.8,31.1-31.1,1.6-1.5,1.5-2.5,0-4-10.4-10.3-20.7-20.7-31.1-31.1-.5-.5-1.1-.9-1.7-1.4-.7.6-1.4,1.1-1.9,1.7-10.4,10.4-20.7,20.8-31.1,31.1h0Z"/>
      <path class="cls-4" d="M42.3,78.2c-.5-.5-.9-1.1-1.4-1.7.5-.7.9-1.3,1.4-1.8,11.4-11.5,22.9-22.9,34.3-34.4,1.4-1.4,2.3-1.2,3.6,0,11.3,11.4,22.7,22.8,34.1,34.1,1.4,1.4,1.4,2.4,0,3.8-11.3,11.3-22.6,22.6-33.9,33.9-1.5,1.5-2.4,1.7-4,.1-11.3-11.4-22.7-22.8-34.1-34.2h0ZM45.3,74.6c-1.5,1.5-1.4,2.3,0,3.7,10.4,10.3,20.8,20.7,31.1,31.1,1.5,1.5,2.3,1.4,3.7,0,10.3-10.4,20.7-20.8,31.1-31.1,1.5-1.5,1.4-2.3,0-3.7-10.4-10.3-20.8-20.7-31.1-31.1-.5-.5-1.1-.9-1.8-1.5-.7.5-1.4,1-1.9,1.5-10.4,10.4-20.7,20.8-31.1,31.1h0Z"/>
      <path class="cls-4" d="M41.1-2.3c.5-.6,1.2-1.4,1.9-2.2,11-11,22-22,33-33.1,1.3-1.3,2.2-2.3,4-.5,11.4,11.5,22.9,23,34.3,34.4.4.4.8.9,1.2,1.4-12.6,12.6-24.9,25-37.2,37.2-12.3-12.3-24.6-24.7-37.3-37.3ZM45.5-4.1c-1.5,1.5-1.6,2.4,0,4,6.4,6.2,12.6,12.5,18.8,18.8,4.6,4.6,9.1,9.2,14,14.2,11.5-11.6,22.4-22.6,33.4-33.6,1.5-1.5.4-2.3-.6-3.3-10.3-10.3-20.6-20.6-30.8-30.9-1.5-1.5-2.4-1.7-4,0-10.2,10.4-20.5,20.6-30.9,30.9h0Z"/>
      <path class="cls-9" d="M45.2,156.5c-1.3-1.3-1.4-2.1,0-3.5,10.4-10.3,20.7-20.7,31.1-31.1.6-.6,1.2-1,1.9-1.7.7.5,1.3.9,1.7,1.4,10.4,10.4,20.7,20.7,31.1,31.1,1.5,1.5,1.6,2.5,0,4-10.4,10.3-20.8,20.7-31.1,31.1-1.3,1.3-2.2,1.4-3.5,0-10.4-10.5-20.8-20.9-31.3-31.3h0ZM78.3,139.1c-3.7,7-8.6,11.9-15.7,15.7,7.2,3.6,12,8.7,15.8,15.5,3.7-7,8.6-11.8,15.5-15.4-6.8-3.9-11.9-8.6-15.5-15.7h0Z"/>
      <path class="cls-9" d="M45.4,78.3c-1.4-1.4-1.5-2.3,0-3.7,10.4-10.3,20.7-20.7,31.1-31.1.6-.6,1.2-1,1.9-1.5.7.6,1.3,1,1.8,1.5,10.4,10.4,20.7,20.8,31.1,31.1,1.4,1.4,1.5,2.3,0,3.7-10.4,10.3-20.8,20.7-31.1,31.1-1.4,1.4-2.2,1.6-3.7,0-10.3-10.4-20.7-20.8-31.1-31.1h0ZM66.5,69.8c-4.2,5-5.7,11-3.1,17.4,1.1,2.8,3.1,5,6.3,5.3,3.2.3,5.2-1.5,6.8-4,.5-.8,1.1-1.6,1.9-2.9.8,1.3,1.3,2.1,1.8,2.9,1.5,2.3,3.5,4.2,6.5,4,3.2-.2,5.7-2.2,6.4-5.1.8-3.4,1.4-7.2.6-10.5-1.8-7.6-7.6-12.3-14.1-16-.8-.5-2.5-.2-3.3.4-3.4,2.6-7,5.2-9.8,8.4h0Z"/>
      <path class="cls-9" d="M45.5,0c-1.6-1.6-1.5-2.5,0-4,10.3-10.2,20.6-20.5,30.9-30.9,1.6-1.6,2.5-1.4,4,0,10.2,10.3,20.5,20.6,30.8,30.9,1,1,2.1,1.8.6,3.3-11,11-22,22.1-33.4,33.6-4.9-5-9.4-9.6-14-14.2C58.1,12.4,51.8,6.1,45.5,0ZM78-17.2c-3.4,6.7-8.4,11.5-15.3,15.2,7.1,3.6,11.9,8.6,15.7,15.5,3.7-7.2,8.7-11.9,15-15.4-3-2.4-6-4.4-8.4-6.8-2.4-2.4-4.4-5.4-6.9-8.6h0Z"/>
      <path class="cls-4" d="M63.3,87.2c-2.5-6.4-1.1-12.4,3.1-17.4,2.8-3.3,6.4-5.8,9.8-8.4.8-.6,2.5-.9,3.3-.4,6.5,3.7,12.3,8.3,14.1,16,.8,3.3.2,7.1-.6,10.5-.7,2.9-3.1,4.9-6.4,5.1-3,.2-5-1.6-6.5-4-.5-.8-1-1.7-1.8-2.9-.8,1.3-1.4,2.1-1.9,2.9-1.6,2.5-3.6,4.3-6.8,4-3.2-.3-5.2-2.5-6.3-5.3h0Z"/>
      <path class="cls-4" d="M62.7-2c6.9-3.7,11.9-8.5,15.3-15.2,2.5,3.2,4.5,6.1,6.9,8.6s5.4,4.4,8.4,6.8c-6.3,3.4-11.3,8.2-15,15.4-3.8-6.9-8.6-12-15.7-15.5h0Z"/>
      <path class="cls-4" d="M62.6,154.8c7.1-3.8,12-8.7,15.7-15.7,3.6,7.1,8.7,11.9,15.5,15.7-6.8,3.6-11.8,8.4-15.5,15.4-3.8-6.8-8.5-11.9-15.8-15.5h0Z"/>
      <path class="cls-4" d="M81.8,39.3c-1.4-1.4-1.8-2.4-.1-4,11.4-11.3,22.8-22.7,34.2-34.1.5-.5,1.1-.9,1.6-1.2,12.5,12.5,24.8,24.8,37.1,37.1-12.4,12.3-24.9,24.6-37.9,37.6-4.3-4.5-8.9-9.3-13.6-14.1-7-7.1-14.1-14.2-21.2-21.2h0ZM85.1,34.7c-2,1.9-1.9,3.1,0,5,10.2,10.1,20.3,20.2,30.4,30.4,1.6,1.6,2.5,1.4,4,0,6.2-6.3,12.5-12.6,18.8-18.8,4.6-4.5,9.3-9,13.9-13.4-.6-1-.7-1.4-1-1.7-10.7-10.7-21.4-21.5-32.1-32.2-1.5-1.5-2.4-.8-3.6.4-10.1,10.2-20.2,20.3-30.4,30.4h0Z"/>
      <path class="cls-4" d="M81.7,117.7c-1.7-1.7-1.4-2.7.1-4.3,11.2-11.1,22.4-22.3,33.5-33.5,1.7-1.7,2.6-1.6,4.2,0,11.1,11.2,22.3,22.4,33.5,33.4,1.8,1.8,1.5,2.9-.1,4.5-11.2,11.1-22.4,22.3-33.5,33.4-.6.6-1.2,1-2,1.6-.7-.5-1.3-.9-1.8-1.4-11.3-11.3-22.6-22.6-34-33.9h0ZM84.5,113.8c-.5.5-.9,1.1-1.5,1.8.6.8,1.2,1.5,1.8,2.1,10.1,10.1,20.3,20.2,30.4,30.4,1.9,1.9,2.9,1.7,4.7,0,10-10.1,20-20.2,30.2-30.2,1.9-1.9,1.6-3-.1-4.7-10.1-10-20.2-20-30.2-30.2-1.7-1.7-2.7-1.8-4.5,0-10.2,10.3-20.5,20.6-30.8,30.9h0Z"/>
      <path class="cls-2" d="M83,115.6c.6-.7,1-1.3,1.5-1.8,10.3-10.3,20.6-20.5,30.8-30.9,1.7-1.8,2.8-1.7,4.5,0,10,10.1,20.1,20.2,30.2,30.2,1.7,1.7,2.1,2.8.1,4.7-10.2,10-20.2,20-30.2,30.2-1.8,1.8-2.8,2-4.7,0-10-10.2-20.2-20.3-30.4-30.4-.6-.6-1.2-1.4-1.8-2.1h0ZM104.9,107.2c-2.9,1.8-4.2,4.6-3.5,8,.8,4.2,3.7,6.2,7.8,6.8.5,6.4,3,9.5,7.6,9.7,5,.2,8.5-2,9.1-9.7,3.8-.6,6.8-2.4,7.6-6.5.7-3.4-.4-6.5-3.5-8.2-4.2-2.4-8-1.2-11.4,2.1-.2-.2-.4-.4-.7-.6,1.3-3,2.6-6,3.9-9h-8.8c1.4,3.2,2.7,6.1,4,9.1-.2.3-.4.5-.6.8-3.4-3.9-7.3-5.1-11.6-2.4Z"/>
      <path class="cls-2" d="M85.1,39.7c-1.9-1.9-2-3,0-5,10.2-10.1,20.3-20.2,30.4-30.4,1.2-1.2,2.1-1.9,3.6-.4,10.7,10.8,21.4,21.5,32.1,32.2.3.3.4.7,1,1.7-4.6,4.4-9.3,8.8-13.9,13.4-6.3,6.2-12.6,12.5-18.8,18.8-1.5,1.5-2.4,1.7-4,0-10.1-10.2-20.2-20.4-30.4-30.4h0ZM105.4,25.5c-2.8,1.1-4.2,3.7-4,6.4.1,2.2,1,4.7,2.4,6.4,3.5,4.3,7.4,8.3,11.2,12.4.8.8,1.6,1.5,2.6,2.5,2.2-2.3,4.2-4.4,6.1-6.5,2.7-3,5.5-5.9,8.1-9,2.8-3.3,2.4-8.6-.6-11.2-3.1-2.7-7.3-2.2-10.6,1.5-.5.6-.8,1.4-1.2,2.1-.4-.3-.9-.7-1.3-1,1.4-2.5,2.8-5,4.3-7.6h-9.8c1.7,2.7,3.2,5.1,4.7,7.6l-1,.7c-.9-.9-1.7-1.9-2.7-2.8-2.4-2.2-5.2-2.5-8.1-1.4h0Z"/>
      <path class="cls-9" d="M101.4,115.2c-.6-3.4.7-6.2,3.5-8,4.3-2.6,8.2-1.4,11.6,2.4.2-.3.4-.5.6-.8h.8c.2.1.4.3.7.5,3.4-3.3,7.2-4.5,11.4-2.1,3.2,1.8,4.2,4.8,3.5,8.2-.8,4.1-3.8,5.9-7.6,6.5-.7,7.7-4.2,9.9-9.1,9.7-4.6-.2-7-3.4-7.6-9.7-4.2-.6-7-2.6-7.8-6.8h0Z"/>
      <path class="cls-9" d="M101.4,31.9c-.2-2.7,1.2-5.3,4-6.4,2.9-1.1,5.7-.8,8.1,1.4,1,.9,1.8,1.9,2.7,2.8l1-.7h.9c.4.3.9.7,1.3,1,.4-.7.7-1.5,1.2-2.1,3.3-3.7,7.5-4.2,10.6-1.5,3,2.6,3.4,7.9.6,11.2-2.6,3.1-5.4,6-8.1,9-1.9,2.1-4,4.2-6.1,6.5-1-.9-1.9-1.7-2.6-2.5-3.8-4.1-7.7-8-11.2-12.4-1.4-1.7-2.2-4.2-2.4-6.4h0Z"/>
      <path class="cls-9" d="M112.5,21.5h9.8c-1.4,2.6-2.9,5.1-4.3,7.6h-.9c-1.5-2.5-3-4.9-4.7-7.6h0Z"/>
      <path class="cls-9" d="M113.1,99.8h8.8c-1.3,3-2.6,6-3.9,9h-.8c-1.3-2.9-2.6-5.8-4-9h0Z"/>
      <path class="cls-4" d="M120.5,156.5c-.4-.4-.8-.9-1.2-1.4,12.6-12.6,25-25,37.2-37.2,12.3,12.3,24.7,24.8,37.3,37.4-.3.4-.9,1.1-1.6,1.7-11,11-22.1,22-33,33.1-1.9,1.9-3,2-4.9,0-11.2-11.3-22.4-22.5-33.7-33.8h0ZM128.3,148.4c-2,2-4.3,3.8-6.2,5.6,12,12,23.4,23.4,34.6,34.6,11.2-11.1,22.6-22.6,34.2-34.1-.1-.2-.2-.5-.5-.7-10.6-10.7-21.3-21.3-31.9-32-1.5-1.5-2.4-1.2-3.8.2-8.8,8.9-17.6,17.7-26.5,26.5h0Z"/>
      <path class="cls-9" d="M123.9,0c-1.3-1.3-1.8-2.2-.3-3.8,10.6-10.5,21.2-21.1,31.8-31.7.4-.3.8-.6,1.1-.8,11.5,11.5,22.9,23,34.1,34.3-11.3,11.4-22.6,22.8-34.9,35.1-.6-1.1-1.1-2.4-2-3.4C143.8,19.8,133.8,9.9,123.9,0ZM144.7-8.4c-4,4.8-5.5,10.6-3.2,16.8,1.1,2.9,3,5.2,6.4,5.6,3.3.4,5.4-1.5,7-4.1.5-.8,1-1.5,1.7-2.7.8,1.2,1.3,1.9,1.7,2.5,1.8,2.6,3.8,4.8,7.3,4.3,3.1-.4,6.1-3.6,6.8-7.3.9-5.1.5-10.1-2.9-14.1-3.1-3.5-6.9-6.4-10.3-9.6-1.5-1.4-3.2-1.4-4.8,0-3.3,2.8-6.9,5.3-9.7,8.6h0Z"/>
      <path class="cls-9" d="M124.4,78.8c-.7-.7-1.4-1.5-2-2.1,11.6-11.5,23.1-22.9,34.4-34.1,11,11.1,22.4,22.5,34,34.3-.3.4-1.1,1.2-1.8,2-9.9,9.9-19.9,19.8-29.7,29.8-2.1,2.1-3.1,1.9-5.1-.1-9.8-10-19.8-19.9-29.7-29.8ZM156.7,60.7c-3.7,7-8.6,12-15.7,15.6,7.2,3.6,12,8.8,15.8,15.6,3.5-7.2,8.7-11.8,15.3-15.7-6.9-3.7-11.8-8.6-15.4-15.6h0Z"/>
      <path class="cls-4" d="M119,75.3c2-1.8,4.6-3.7,6.8-5.9,9.5-9.4,19-18.9,28.4-28.4,1.9-1.9,3-1.9,4.9,0,11,11.2,22.1,22.2,33.2,33.3,1.3,1.3,2.1,2.3.3,4-11.6,11.4-23.1,23-34.6,34.5-.4.4-.8.6-1,.9-12.5-12.6-24.9-25-38.1-38.3h0ZM122.5,76.7c.6.6,1.3,1.4,2,2.1,9.9,9.9,19.9,19.8,29.7,29.8,2,2,3,2.2,5.1.1,9.8-10,19.8-19.9,29.7-29.8.8-.8,1.5-1.6,1.8-2-11.6-11.7-23-23.2-34-34.3-11.3,11.2-22.8,22.6-34.4,34.1Z"/>
      <path class="cls-9" d="M122.1,154c1.9-1.7,4.1-3.6,6.2-5.6,8.9-8.8,17.7-17.6,26.5-26.5,1.4-1.4,2.3-1.7,3.8-.2,10.6,10.7,21.3,21.3,31.9,32,.2.2.3.5.5.7-11.6,11.6-23.1,23-34.2,34.1-11.2-11.2-22.6-22.6-34.6-34.6h0ZM145.5,147.4c-4.1,5.1-6.4,10.9-4,17.5,1,2.8,2.7,5.2,5.9,5.8,3.4.7,5.7-1.1,7.5-3.7.6-.8,1.1-1.7,1.9-2.8,1.1,1.6,2,2.9,3,4.1,3.1,3.5,7.9,3.4,10.6-.4,1.1-1.5,1.9-3.5,2.2-5.3,1.5-8.9-3-15.1-9.6-20.1-6.8-5.1-5.5-4.9-12.1-.2-2,1.4-3.9,3.1-5.4,5h0Z"/>
      <path class="cls-4" d="M141.4,164.9c-2.4-6.7-.1-12.4,4-17.5,1.5-1.9,3.4-3.6,5.4-5,6.5-4.7,5.3-4.8,12.1.2,6.6,4.9,11.1,11.2,9.6,20.1-.3,1.9-1.1,3.8-2.2,5.3-2.7,3.8-7.6,3.9-10.6.4-1-1.2-1.9-2.6-3-4.1-.8,1.1-1.3,1.9-1.9,2.8-1.8,2.6-4.1,4.5-7.5,3.7-3.2-.7-4.9-3-5.9-5.8h0Z"/>
      <path class="cls-4" d="M141.5,8.4c-2.4-6.2-.9-12,3.2-16.8,2.7-3.3,6.4-5.8,9.7-8.6,1.5-1.3,3.2-1.3,4.8,0,3.5,3.2,7.3,6,10.3,9.6,3.4,4,3.9,9,2.9,14.1-.7,3.7-3.6,6.9-6.8,7.3-3.5.5-5.5-1.7-7.3-4.3-.5-.7-.9-1.3-1.7-2.5-.8,1.2-1.2,1.9-1.7,2.7-1.6,2.6-3.7,4.5-7,4.1-3.4-.4-5.3-2.7-6.4-5.6h0Z"/>
      <path class="cls-4" d="M141,76.3c7.1-3.6,12-8.6,15.7-15.6,3.7,7,8.5,11.9,15.4,15.6-6.6,3.9-11.8,8.5-15.3,15.7-3.8-6.8-8.6-12-15.8-15.6h0Z"/>
      <path class="cls-4" d="M156.6,34.6c-12-12-24.4-24.5-36.6-36.8,12.1-12,24.5-24.4,37-36.7,12.2,12.1,24.5,24.5,36.7,36.7-12.4,12.3-24.8,24.7-37.1,36.8h0ZM123.6-3.8c-1.6,1.6-1,2.5.3,3.8,10,9.9,19.9,19.8,29.8,29.8.9.9,1.4,2.3,2,3.4,12.3-12.4,23.6-23.7,34.9-35.1-11.2-11.3-22.6-22.7-34.1-34.3-.3.2-.7.4-1.1.8-10.6,10.6-21.1,21.2-31.8,31.7h0Z"/>
      <path class="cls-4" d="M195.8,74c-12.2-12.2-24.6-24.6-36.9-36.9,12.3-12.2,24.7-24.6,37-36.8,12.1,12.2,24.5,24.7,36.7,37-12,12-24.4,24.3-36.8,36.7ZM160.8,36.3c.2.3.5.6.7.9.3.5.6,1.1,1,1.5,10.6,10.6,21.2,21.2,31.7,31.8,1.5,1.6,2.4.7,3.5-.4,6-6,11.9-12,18-17.9,4.9-4.8,9.9-9.6,15-14.5-1-1.2-1.5-2-2.1-2.6-10.1-10.1-20.2-20.1-30.2-30.2-2.1-2.1-3.3-1.9-5.2.1-8.2,8.3-16.4,16.5-24.7,24.7-2.4,2.4-5.1,4.4-7.7,6.7Z"/>
    </g>
  </g>
  <g>
    <rect class="cls-6" x="3.6" y="85.9" width="145.3" height="5.7" transform="translate(-14.7 15.1) rotate(-10.3)"/>
    <rect class="cls-8" x="70.2" y="8.3" width="12" height="145.3" transform="translate(-17.1 141.3) rotate(-79.6)"/>
    <circle class="cls-1" cx="95.5" cy="85.1" r="14.3"/>
    <path class="cls-5" d="M99.6,90.2c-1.8,0-3.3-1.1-4-2.8,0,0,0-.1,0-.1,0,0-.1,0-.2,0-.2.6-.5,1.1-.9,1.5-1.6,1.7-4.1,1.5-5.5.5-1-.8-1.6-1.8-1.7-3.1,0-1.2.3-2.2,1-3.2.3-.5.7-.8,1.2-1.2,1.6-1.4,3.2-2.7,4.8-4.1.4-.3.8-.7,1.1-1,0,0,.1,0,.2,0,1.2,1,2.3,2,3.5,3,1,.8,2,1.7,3,2.5.3.3.5.6.8,1,.5.8.9,1.7.9,2.6,0,2.1-1.5,3.9-3.6,4.1-.2,0-.4,0-.6,0h0Z"/>
  </g>
</svg>