<?xml version="1.0" encoding="UTF-8"?>
<svg id="Layer_1" data-name="Layer 1" xmlns="http://www.w3.org/2000/svg" xmlns:xlink="http://www.w3.org/1999/xlink" version="1.1" viewBox="0 0 348.7 70.6">
  <defs>
    <style>
      .cls-1 {
        fill: #6cc8c1;
      }

      .cls-1, .cls-2, .cls-3, .cls-4, .cls-5, .cls-6, .cls-7 {
        stroke-width: 0px;
      }

      .cls-8 {
        clip-path: url(#clippath);
      }

      .cls-2 {
        fill: none;
      }

      .cls-3 {
        fill: #62cced;
      }

      .cls-4 {
        fill: #7ea9da;
      }

      .cls-5 {
        fill: #dc6a48;
      }

      .cls-6 {
        fill: #837ebb;
      }

      .cls-7 {
        fill: #e0c3c9;
      }
    </style>
    <clipPath id="clippath">
      <rect class="cls-2" x="29.8" width="291.1" height="43.7"/>
    </clipPath>
  </defs>
  <rect class="cls-7" y="0" width="348.7" height="70.6"/>
  <g class="cls-8">
    <g>
      <path class="cls-6" d="M395.2,41.4v15.9h-17.9c3-2.9,6-5.8,9-8.8-4.9-2.4-8.7-6.6-11.8-12-2.9,5.6-7,9.5-11.6,12,3.1,3,6,5.9,8.9,8.7h-16.9c-2.8-2.6-5.5-5.2-8-7.5,9.6-9.7,18.8-18.9,28.2-28.3,3.3,3.3,6.7,6.8,10.2,10.3,3.3,3.3,6.6,6.4,10,9.7h0Z"/>
      <path class="cls-1" d="M395.2,39v2.5c-3.3-3.2-6.7-6.4-10-9.7-3.5-3.4-6.9-6.9-10.2-10.3-9.4,9.4-18.5,18.7-28.2,28.3,2.5,2.3,5.2,4.9,8,7.5h-2.5c-2.8-2.6-5.6-5.1-8.4-7.6,10.6-10.6,20.6-20.6,31.2-31.2.2.2.4.5.6.7,1.5,1.7,3,3.6,4.6,5.3,4.2,4.3,8.5,8.6,12.8,12.9.6.6,1.3,1,1.9,1.5h0Z"/>
      <path class="cls-6" d="M395.2-21.3V-6.4c-.6.5-1.2.9-1.7,1.4-4.9,4.9-9.9,9.8-14.8,14.8-1.3,1.3-2.3,3-3.2,4.1-9.9-9.9-19.1-19-28.1-27.9,9-9.1,18.2-18.3,27.6-27.8,6.6,6.7,13.4,13.5,20.1,20.4h0ZM384.5-9.4c3-3.7,4-8.1,2.2-12.8-.9-2.5-2.5-4.4-5.3-4.7-2.6-.3-4.3,1.3-5.6,3.5-.4.6-.8,1.2-1.3,1.9-.9-1.3-1.6-2.3-2.4-3.2-2.5-2.9-5.7-2.9-8.3,0-2,2.2-2.5,4.8-2.2,7.6.6,7.8,5.8,12.1,11.9,15.7.6.4,2.1,0,2.7-.5,2.9-2.3,5.9-4.6,8.2-7.4h0Z"/>
      <path class="cls-3" d="M395.2-26.3v2.5c-6.5-6.4-13-12.8-19.1-18.9-.4-.3-.7-.7-1-1-10.2,10.2-20.3,20.2-30.1,29.9,9.7,9.8,19.7,19.7,30,30.1.4-.4.8-.8,1.2-1.2l1,1h0c-1,1-.9,1.7-.4,2.4l-.9.9c-.2-.2-.4-.5-.6-.7-10.6,10.6-20.6,20.6-31.2,31.2,2.8,2.5,5.6,5,8.4,7.6h-2.5c-2.2-2.4-4.5-4.7-6.7-7-2.7,2.6-5,4.8-7.3,7h-2c2.5-2.8,5.1-5.5,7.6-8.2-10.1-10-20.1-20-29.7-29.7-9.9,9.9-20,19.9-30.1,29.9,2.4,2.5,4.9,5.3,7.4,8h-2c-2.3-2.4-4.6-4.7-7.1-7.3-2.5,2.6-4.7,5-6.9,7.3h-2.5c2.7-2.7,5.4-5.5,7.8-8-10.2-10.3-20.1-20.2-29.9-30-.5.5-1,1-1.4,1.4-9.5,9.4-19,19-29.2,29.2,2.7,2.4,5.5,4.9,8.4,7.5h-2.5c-2.2-2.3-4.4-4.6-6.5-6.8-.5.2-.8.3-1,.4-2.2,2.1-4.3,4.3-6.5,6.4h-2c2.5-2.8,5.1-5.6,7.4-8.1-.9-.9-1.8-1.8-2.6-2.7-9.2-9.2-18.2-18.3-27.4-27.4,0,0-.4.2-.6.4-9.4,9.4-18.8,18.8-28.2,28.1-1,1-1,1.7,0,2.7,2.3,2.3,4.4,4.6,6.6,7h-2c-1.9-1.9-3.8-3.9-5.8-5.7-.5-.4-2-.6-2.4-.3-2,1.9-3.9,4-5.8,6h-2.5c2.6-2.7,5.3-5.5,7.8-8.1-10.2-10.1-20.2-20.1-30-29.8-9.8,9.8-19.8,19.8-30.5,30.4,2.7,2.4,5.5,5,8.4,7.5h-2.5c-2.2-2.4-4.5-4.7-6.7-7.1-2.6,2.6-4.9,4.8-7.2,7.1h-2c2.5-2.8,5.1-5.6,7.5-8.2-10.1-10.1-20.1-20-30-29.9-9.8,9.8-19.8,19.8-29.9,29.9,2.5,2.7,5,5.4,7.6,8.2h-2c-2.3-2.3-4.7-4.6-7.2-7.2-2.3,2.5-4.5,4.8-6.7,7.2h-2.5c2.7-2.8,5.4-5.5,7.7-7.9C16.2,39.2,6.3,29.2-4.3,18.6c-.3.4-.6.9-.9,1.3l-.9-.9h0c1.2-1.1,1.2-2,0-3.1-3.4-3.3-6.7-6.6-10.1-9.9v-2c3.8,3.6,7.5,7.2,11.1,10.6.4.4.9.8,1.3,1.2C6.4,5.8,16.4-4.1,26.2-13.9c-9.9-9.9-19.9-19.9-30.5-30.5-3.8,4.1-7.9,8.4-11.9,12.7v-2.5c3.6-3.9,7.1-7.7,11-11.9-3.4-3.2-7.2-6.9-11-10.5v-2.5c4.2,4.1,8.3,8.2,12.5,12.4.5-.4.9-.6,1.2-.9,9.3-9.3,18.6-18.6,28-27.9,1.5-1.5.5-2.2-.5-3.2-8.5-8.5-17.1-17.1-25.6-25.7-.9-.9-1.9-1.8-2.9-2.8-1,.9-1.7,1.7-2.5,2.4-3.4,3.3-6.8,6.5-10.1,9.8v-2c3.3-3.3,6.5-6.6,9.8-9.8,1.3-1.3,1.4-2.1,0-3.4-3.3-3.2-6.6-6.5-9.8-9.7v-2c4.2,4,8.4,8,12.3,11.7.8-.8,1.6-1.6,2.4-2.4,9.4-9.3,18.5-18.4,27.6-27.4-9.8-9.8-19.8-19.8-30-29.9-4,4-8.2,8.1-12.3,12.2v-2.5c3.5-3.9,7.1-7.8,10.2-11.3-3.1-3.4-6.7-7.3-10.2-11.1v-2.5c4,4.3,8,8.6,11.8,12.7,10.7-10.7,20.6-20.7,30.4-30.5-9.8-9.8-19.8-19.8-29.9-29.9-.6.5-1.3,1.2-2,1.9-3.5,3.3-6.9,6.6-10.3,9.9v-2c3.3-3.3,6.5-6.5,9.9-9.7,1.3-1.2,1.4-2.2,0-3.5-3.4-3.2-6.6-6.5-9.9-9.7v-2c3.8,3.6,7.5,7.1,11.1,10.6.4.4.9.8,1.3,1.3,10.2-10.1,20.1-20.1,29.9-29.8-9.9-9.9-19.9-19.9-30.6-30.6-3.8,4.1-7.8,8.4-11.8,12.7v-2.5c3.6-3.9,7.1-7.7,10.9-11.8-1.4-1.5-3.1-3.3-4.9-5.2h2.5c3.4,5,4,5.1,8,.8.2-.2.3-.5.5-.8h2.5c-1.7,1.9-3.5,3.7-5.3,5.7.5.6.8,1.1,1.3,1.6,9.1,9.1,18.2,18.1,27.2,27.3,1.3,1.3,2.1,1,3.2-.1,5-5.1,10-10.1,15.1-15.1,4.5-4.4,9-8.8,13.6-13.2-2-2.3-3.6-4.2-5.3-6.1h2c2.9,3.2,5.8,3.3,8.8.2,0,0,.1-.1.2-.2h2c-1.6,1.9-3.3,3.8-4.7,5.4,10.1,10.1,20,20,29.8,29.9,9.8-9.8,19.7-19.8,29.7-29.8-1.6-1.7-3.3-3.6-5.1-5.4h2.5c1.1,1.2,2.1,2.5,3.4,3.6.4.3,1.5.3,1.8,0,1.2-1.1,2.2-2.4,3.3-3.6h2.5c-1.7,1.9-3.5,3.7-5.1,5.4,10.1,10.1,20,20,30.1,30,0,0,.4-.1.6-.3,9.4-9.4,18.9-18.9,28.3-28.3.9-.9.8-1.6,0-2.5-1.4-1.4-2.7-2.9-4-4.3h2c5.5,5.6,3.6,5.2,8.8.2,0,0,.1-.1.2-.2h2c-.9,1-1.8,2.1-2.7,3.1-2.5,2.5-2.6,2.5-.1,5,7.6,7.6,15.1,15.1,22.7,22.7,1.7,1.7,3.4,3.3,4.9,4.8,9.3-9.3,18.3-18.3,27.5-27.5.9-.9,1.8-1.7,2.6-2.6-1.6-1.7-3.4-3.6-5.1-5.4h2.5c3.4,5,4.1,5.1,8,.8.2-.2.3-.5.5-.8h2.5c-1.7,1.9-3.5,3.7-5,5.3.7.7,1.5,1.5,2.2,2.2,9.3,9.4,18.5,18.6,27.7,27.8,9.8-9.8,19.7-19.8,29.7-29.8-1.5-1.8-3.2-3.7-4.9-5.6h2c5.4,5.6,3.7,5.1,8.8.2,0,0,.1-.1.2-.2h2c-1.7,1.9-3.3,3.8-5,5.8.4.5.8,1,1.2,1.4,9.1,9.1,18.3,18.2,27.4,27.4,1.6,1.6,2.4.6,3.4-.4,8.9-8.9,17.8-17.8,26.7-26.7.5-.5.9-1.1,1.5-1.8-1.8-2-3.6-3.8-5.3-5.7h2.5c1.1,1.2,2.1,2.5,3.4,3.6.4.3,1.5.3,1.8,0,1.2-1.1,2.2-2.4,3.3-3.6h2.5c-1.8,1.9-3.5,3.7-5.9,6.2.2.2.4.4.7.5l-.8.8h-.1c-10.3,10.1-20.3,20-30.1,29.8,9.7,9.8,19.7,19.7,29.7,29.8.4-.4.8-.7,1.3-1.1.1-.1.3-.3.4-.4,3.8-3.7,7.5-7.5,11.3-11.2,2.5-2.4,5-4.8,7.5-7.1v2c-6,6-12,11.9-18,17.9-1.3,1.3-.9,2.2.2,3.3,6,5.9,11.9,11.8,17.8,17.7v2c-.6-.5-1.3-.9-1.9-1.5-5.4-5.4-10.8-10.8-16.2-16.2-.8-.8-1.7-1.5-2.3-2.1-10.1,10.1-20.1,20.1-29.9,29.9,9.8,9.9,19.8,19.9,30.4,30.6,0,0,0,0,.1-.1l.8.8c0,0,0,.3,0,.5-.2.2-.4.4-.5.5.6.5,1.2.9,1.8,1.3l-.9.9h0c-1.4-1.5-2.2-1.5-3.6,0-8.9,9-17.9,18-26.9,26.9-1.5,1.5-1.2,2.3.1,3.6h0c8.9,8.9,17.7,17.7,26.5,26.5.6.6,1.2,1.1,2,1.8,6.9-6.9,13.8-13.8,20.6-20.6v2.5c-5.9,5.9-11.8,11.9-17.8,17.7-1.3,1.3-1.3,2.1,0,3.4,6,5.9,11.9,11.8,17.8,17.7v2.5c-6.8-6.9-13.7-13.7-20-20.1-.4.4-.8.8-1.1,1.1-9.9,9.8-19.5,19.4-29,28.7,9.8,9.7,19.7,19.7,29.9,29.8,6.6-6.6,13.4-13.3,20.2-20.1v2.5c-.6.5-1.3,1-1.9,1.6-5,5-10.1,10-15.1,15-2.5,2.5-2.5,2.5,0,5.1,5.6,5.6,11.3,11.1,16.9,16.7h0ZM371.9-107c1.2-1.2,1-2,0-3.1-9-9-18.1-18-27.1-27.1-1.3-1.3-2.2-1.2-3.4,0-3.9,4-7.8,7.9-11.8,11.8-5.5,5.5-11,11-16.6,16.5.3.6.4.8.6,1,9.4,9.4,18.8,18.7,28.1,28.2,1.2,1.2,2.1.9,3.1-.1,9.1-9.1,18.1-18.2,27.2-27.3h0ZM343-15.8c9.9-9.8,19.8-19.8,29.7-29.6-9.8-9.8-19.8-19.8-29.4-29.4-9.9,9.9-20,19.8-29.6,29.4,9.7,9.8,19.6,19.8,29.3,29.6h0ZM372.4-234.7c-9.6-9.7-19.5-19.6-29.3-29.4-9.8,9.9-19.7,19.9-29.5,29.8,9.7,9.7,19.6,19.7,29.2,29.3,9.9-9.9,19.9-19.9,29.7-29.8h0ZM343-141.8c9.8-9.8,19.7-19.8,29.3-29.3-9.9-10-19.8-20.1-29.4-29.8-9.9,9.8-19.8,19.7-29.6,29.4,9.8,9.8,19.8,19.8,29.6,29.7h0ZM343,47.2c9.9-9.8,19.8-19.7,29.6-29.5-10-10-19.9-19.9-29.6-29.6-9.8,9.8-19.8,19.8-29.5,29.4,9.8,9.9,19.7,19.8,29.5,29.7h0ZM341.4-140.1c-.2-.3-.5-.7-.8-1-9.2-9.2-18.4-18.4-27.6-27.6-1.3-1.4-2.1-.9-3.2.2-5.7,5.8-11.4,11.5-17.2,17.2-3.7,3.7-7.6,7.3-11.2,10.7,10.5,10.4,20.5,20.4,30.3,30.1,9.7-9.7,19.7-19.6,29.7-29.6h0ZM334.5-69.6c2.4-2.4,4.7-4.8,6.9-6.9-10.2-10.2-20.1-20.2-29.7-29.8-9.9,9.9-19.9,19.8-30,29.9,0,.1.3.5.6.8,9.2,9.2,18.4,18.4,27.6,27.6,1.4,1.4,2.2,1.1,3.4-.2,7-7.1,14.2-14.2,21.2-21.3h0ZM340.9-202.8c-9.8-9.8-19.8-19.9-29.4-29.4-9.8,9.7-19.9,19.7-29.6,29.3,9.8,9.8,19.7,19.8,29.5,29.7,9.9-9.9,19.9-19.9,29.5-29.6h0ZM311.3,15.6c10-9.9,20-19.8,29.6-29.3-9.8-9.9-19.8-19.9-29.6-29.8-9.8,9.8-19.7,19.7-29.6,29.5,9.9,9.9,19.9,19.9,29.6,29.6h0ZM311.6-236c9.8-9.9,19.7-19.8,29.6-29.8-9.9-9.9-19.9-19.9-29.6-29.7-9.9,9.9-19.9,19.9-29.7,29.7,9.8,9.8,19.8,19.8,29.7,29.8h0ZM310.4-108.1c-1.1-1.2-1.7-1.9-2.4-2.6-8.7-8.7-17.4-17.3-26-26.1-1.5-1.6-2.4-1.5-4,0-8.8,9-17.8,17.9-26.7,26.7-1.2,1.2-1.3,2,0,3.2,9.1,9,18.1,18,27.1,27.1,1.4,1.5,2.3,1.2,3.6-.1,4.9-5,9.8-9.9,14.7-14.8,4.5-4.4,9-8.8,13.8-13.4h0ZM309.9-234.7c-.2-.3-.6-.7-1-1.1-9.1-9.2-18.3-18.3-27.4-27.5-1.4-1.4-2.1-.8-3.2.2-9,9-17.9,18-26.9,26.9-1.3,1.3-1.2,2.1,0,3.4,9,8.9,18,17.9,27,26.9.5.5,1.1.9,1.5,1.3,10.1-10.1,20-20,30-30.1h0ZM309.4,17.9c-9.9-10-19.9-20-29.9-30.1.1,0,0,0-.1,0-9.4,9.4-18.8,18.7-28.2,28.1-1.4,1.4-.7,2.2.3,3.2,9,9,17.9,18,26.9,26.9.5.5,1.1.9,1.6,1.3,10-10.1,19.9-20,29.4-29.6h0ZM309.5-171.5c-9.8-9.8-19.6-19.8-29.4-29.6-9.9,9.9-19.9,19.9-29.7,29.7,9.8,9.8,19.7,19.8,29.4,29.6,9.9-9.9,19.9-19.9,29.6-29.6ZM309.6-45.5c-9.8-9.8-19.7-19.7-29.5-29.5-9.9,9.9-19.9,19.8-29.5,29.4,9.8,9.9,19.7,19.9,29.4,29.7,9.8-9.8,19.7-19.8,29.5-29.6h0ZM278.4-140.2c0-.1-.2-.4-.4-.7-9.4-9.4-18.8-18.7-28.1-28.2-1.4-1.4-2.1-.6-3,.4-4.9,4.9-9.8,9.9-14.7,14.8-4.6,4.5-9.2,9.1-13.7,13.5,10.3,10.2,20.3,20.2,30.1,29.9,9.9-9.9,19.9-19.8,29.9-29.8h0ZM277.5-12.6c1.5-1.5.6-2.2-.4-3.2-8.8-8.8-17.7-17.7-26.5-26.5-.6-.6-1.3-1.2-1.5-1.4-10.2,10.2-20.2,20.2-29.9,30,9.7,9.8,19.6,19.7,29.6,29.8.2-.1.5-.3.7-.5,9.4-9.4,18.7-18.8,28.2-28.1h0ZM271.5-69.5c2.4-2.4,4.8-4.7,7-6.8-10.3-10.3-20.2-20.3-30-30.2-9.8,9.8-19.8,19.7-29.9,29.8.5.5.9,1,1.3,1.5,9,9,17.9,17.9,26.8,26.9,1.5,1.5,2.4,1.4,3.8,0,7-7.1,14-14.1,21.1-21.1h0ZM248.4-173.3c9.9-9.9,19.9-19.9,29.8-29.7-9.8-9.8-19.7-19.7-29.5-29.5-9.9,9.9-19.9,19.9-29.7,29.8,9.8,9.8,19.7,19.8,29.4,29.5h0ZM278.2-266.1c-9.8-9.8-19.7-19.7-29.5-29.6-9.9,9.9-19.9,19.9-29.7,29.7,9.9,10,19.9,19.9,29.4,29.6,9.8-9.8,19.9-19.8,29.8-29.6h0ZM245.7-232.7c1.5-1.5,1-2.4-.3-3.7-8.9-8.9-17.8-17.8-26.7-26.7-.5-.5-1.1-.9-1.7-1.4-.4.3-.7.5-1,.7-9.3,9.3-18.6,18.7-28,27.9-1.5,1.5-.6,2.2.4,3.2,7.6,7.5,15.2,15.1,22.7,22.7,1.9,1.9,3.5,3.9,5.3,5.9,1-.7,1.2-.8,1.4-1,9.3-9.2,18.5-18.5,27.8-27.7h0ZM247-108.4c-.5-.6-.8-1.1-1.2-1.6-9-9-18.1-18-27.1-27.1-1.3-1.4-2.2-1.2-3.4.1-8.9,9-17.7,17.9-26.7,26.7-1.5,1.5-1.5,2.3,0,3.8,9,8.9,18,17.9,26.9,26.9,1.1,1.1,1.9,1.3,3,.1,9-9.1,18.1-18.2,27.2-27.3.5-.5.8-1,1.3-1.6h0ZM245.6,19.3c1.3-1.3,1.5-2.3,0-3.7-5.7-5.6-11.4-11.3-17.1-17-3.7-3.8-7.2-7.7-10.9-11.6-1.1.9-1.5,1.1-1.8,1.4-9.2,9.2-18.4,18.4-27.6,27.6-1.3,1.3-.9,2.1.2,3.2,7.8,7.8,15.6,15.6,23.4,23.4,1.7,1.7,3.4,3.3,5.1,5,.6-.5,1-.7,1.4-1.1,9.1-9.1,18.1-18.2,27.2-27.2h0ZM216.3-141.1c10.6-10.6,20.6-20.5,30.4-30.4-9.9-9.8-19.9-19.7-30-29.7-.1,0-.6.3-.9.7-9.3,9.3-18.5,18.5-27.8,27.8-1.3,1.3-.6,2.1.4,3.1,6.9,6.9,13.9,13.8,20.7,20.8,2.5,2.6,4.9,5.4,7.1,7.9h0ZM217-15.7c9.9-9.9,19.8-19.8,29.7-29.7-9.8-9.8-19.8-19.7-29.6-29.5-9.9,9.8-19.9,19.7-29.6,29.4,9.8,9.9,19.8,19.9,29.6,29.8h0ZM215.6-139.8c-.4-.5-.7-1-1.1-1.4-1.3-1.3-2.6-2.6-3.9-3.9-7.8-7.8-15.6-15.6-23.4-23.4-1.2-1.2-2-1.6-3.4-.2-9,9.1-18,18.1-27.1,27.1-.9.9-1.7,1.7-.4,3,9.3,9.2,18.5,18.5,27.8,27.8,1,1,1.7,1,2.7,0,9.2-9.2,18.4-18.4,27.6-27.6.4-.4.7-.9,1.2-1.4h0ZM214.5-201.6c1.1-1.1.8-1.9-.1-2.9-9.2-9.1-18.3-18.3-27.4-27.5-1.1-1.1-1.8-1-2.9,0-9.1,9.2-18.3,18.3-27.4,27.4-1.2,1.2-1.1,2,0,3.1,2.7,2.6,5.3,5.2,7.9,7.9,6.8,6.9,13.6,13.8,20.6,20.8.6-.4.9-.6,1.2-.8,9.4-9.4,18.8-18.7,28.2-28.1h0ZM214.5-75.6c.4-.4.7-.9,1.1-1.4-.4-.5-.7-1-1.1-1.4-9.1-9.1-18.3-18.3-27.4-27.4-1.3-1.3-2-1.1-3.2,0-9,9.1-18.1,18.2-27.2,27.2-1.1,1.1-1.2,1.9,0,3,9.2,9.1,18.3,18.3,27.4,27.4,1,1,1.8,1.2,2.9,0,9.2-9.2,18.4-18.4,27.6-27.6h0ZM214.1-264.1c.5-.5,1-1.1,1.3-1.5-10.1-10.1-20.1-20.1-30-30-9.8,9.8-19.8,19.7-30,29.9.7.8,1.3,1.4,2,2.1,8.7,8.7,17.5,17.4,26.2,26.3,1.6,1.6,2.5,1.4,4-.1,8.8-8.9,17.7-17.7,26.5-26.6h0ZM213.9-11.9c.6-.6,1.2-1.3,1.6-1.8-10.2-10.2-20.1-20.1-29.9-30-9.8,9.8-19.8,19.8-29.9,29.9.3.4.6.8.9,1.1,9.2,9.2,18.4,18.4,27.6,27.7,1.4,1.5,2.2.6,3.2-.4,8.8-8.9,17.7-17.7,26.5-26.6h0ZM182.9,19c1.6-1.6.5-2.4-.5-3.4-8.8-8.8-17.7-17.7-26.5-26.6-1.5-1.5-2.3-1.4-3.7,0-8.7,8.8-17.5,17.6-26.4,26.4-1.6,1.6-1.7,2.5,0,4.2,6.2,6,12.2,12.2,18.3,18.3,3.3,3.3,6.6,6.5,9.9,9.8.5-.4.9-.6,1.2-.9,9.3-9.2,18.5-18.5,27.8-27.7h0ZM182.8-43.9c1.3-1.3,1-2.1-.1-3.2-5.7-5.6-11.4-11.3-17.1-17-3.8-3.8-7.4-7.7-10.9-11.3-10.5,10.4-20.5,20.3-30.4,30.2,9.8,9.8,19.8,19.8,29.8,29.8.4-.3.8-.6,1.2-1,9.2-9.1,18.3-18.3,27.5-27.4h0ZM182.7-106.7c1.3-1.3,1.5-2.1.1-3.4-9.1-9-18.2-18.1-27.3-27.2-.4-.4-.9-.7-1.4-1.1-.6.5-1.1.8-1.6,1.3-9,9-17.9,17.9-26.9,26.9-1.3,1.3-1.6,2.2,0,3.6,9,8.9,18,17.9,26.9,26.9,1.3,1.3,2.1,1.4,3.4,0,8.9-9,17.9-18,26.9-26.9h0ZM182.4-169.4c1.6-1.5,1.6-2.4,0-3.9-7.8-7.7-15.5-15.5-23.2-23.2-1.7-1.7-3.4-3.3-5.1-5-.5.4-.8.6-1,.8-9.3,9.3-18.5,18.5-27.9,27.7-1.3,1.3-1,2.1.1,3.3,4.2,4.1,8.4,8.3,12.5,12.5,5.3,5.3,10.5,10.6,16,16.2,1.1-1,1.8-1.6,2.5-2.3,8.7-8.7,17.3-17.4,26.1-26h0ZM182.3-232.3c1.6-1.6,1.7-2.5,0-4.1-6.1-6-12.1-12-18.1-18.1-3.3-3.4-6.4-6.9-9.7-10.3-.2.2-.4.3-.6.5-.3.2-.7.4-1,.7-9.2,9.2-18.4,18.4-27.6,27.5-1.6,1.5-.9,2.4.3,3.6,8.5,8.4,16.9,16.9,25.3,25.3,1,1,2,1.9,3.1,2.9.7-.6,1.2-1,1.6-1.5,8.9-8.9,17.7-17.8,26.6-26.5h0ZM152.6-140.2c-.3-.4-.6-.8-1-1.1-9-9-18.1-18-27.1-27.1-1.6-1.6-2.5-1.5-4,0-8.8,8.9-17.7,17.8-26.5,26.6-.5.5-1,1.1-1.3,1.4,10.1,10.1,20.1,20.1,29.9,30,9.8-9.8,19.7-19.7,29.9-29.9h0ZM147.4-71.3c1.8-1.8,3.8-3.3,5.5-4.8-10.6-10.7-20.5-20.7-30.6-30.8-.2.2-.6.4-.8.7-9.3,9.3-18.5,18.5-27.8,27.7-1.4,1.4-.8,2.1.3,3.2,8.9,8.9,17.9,17.8,26.7,26.7,1.5,1.6,2.4,1.6,3.9,0,7.5-7.7,15.2-15.3,22.8-22.8h0ZM122.5-173.2c9.8-9.8,19.8-19.8,29.3-29.4-9.8-9.9-19.8-20-29.6-29.9-9.8,9.8-19.7,19.7-29.5,29.5,9.9,9.9,19.9,19.9,29.8,29.8ZM122.7-236.2c9.8-9.8,19.7-19.7,29.4-29.5-10-10-20-20-29.6-29.5-9.8,9.7-19.8,19.7-29.5,29.4,9.8,9.8,19.8,19.8,29.7,29.6h0ZM152-13.8c-9.8-9.9-19.8-19.9-29.4-29.6-9.9,9.8-19.9,19.7-29.8,29.6,9.8,9.8,19.7,19.7,29.5,29.5,10-9.9,20-19.9,29.7-29.5h0ZM120-233.1c1.3-1.3.6-2.1-.4-3-9-9-18-17.9-26.9-26.9-1.3-1.3-2.1-1.4-3.4,0-8.9,9-17.9,18-26.9,26.9-.5.5-.9,1.1-1.3,1.5,10,10.1,20,20,30,30.1.2-.1.4-.2.5-.3,9.5-9.4,18.9-18.9,28.4-28.3h0ZM119.6,19.4c1.6-1.5,1.3-2.4-.1-3.8-8.8-8.7-17.6-17.6-26.4-26.4-.6-.6-1.3-1.2-1.9-1.7-10.1,10.1-20,20-29.8,29.8,10,10.1,19.9,20,30,30.1.4-.4,1-.8,1.5-1.4,8.9-8.9,17.8-17.9,26.8-26.7h0ZM91-141.8c9.9-9.8,19.9-19.8,29.8-29.6-9.9-9.8-19.9-19.7-29.7-29.4-9.8,9.7-19.8,19.7-29.5,29.4,9.8,9.9,19.7,19.9,29.4,29.7h0ZM120.6-108.2c-9.9-10-19.8-20-29.8-30-.1,0-.4.2-.7.5-9.3,9.3-18.6,18.6-28,27.9-1.4,1.4-.8,2.2.3,3.2,6.8,6.8,13.6,13.6,20.4,20.4,2.7,2.7,5.4,5.3,8,7.9,10.2-10.2,20.1-20.1,29.7-29.8h0ZM120.8-45.4c-9.9-9.9-19.8-19.8-29.6-29.6-10,9.9-19.9,19.9-29.5,29.4,9.8,9.9,19.7,19.9,29.5,29.8,9.8-9.8,19.8-19.7,29.7-29.6h0ZM89.4-140.2c0,0-.2-.4-.4-.6-9.4-9.4-18.8-18.8-28.1-28.2-1-1-1.7-1-2.7,0-2.7,2.7-5.4,5.4-8.1,8.1-6.9,6.8-13.7,13.7-20.4,20.3,10.2,10.3,20.1,20.3,29.9,30.1,9.8-9.8,19.7-19.7,29.8-29.8h0ZM85.3-72.4c1.5-1.4,3.2-2.6,4.6-3.8-10.6-10.6-20.5-20.5-30.3-30.4-10,10-19.9,19.9-30,29.9.1.2.4.5.6.8,9.2,9.2,18.4,18.4,27.6,27.6,1.3,1.3,2.2,1.2,3.4,0,8-8.1,16-16.1,24.1-24.1ZM59.4,15.5c9.9-9.8,20-19.7,29.6-29.2-9.8-9.9-19.8-19.9-29.5-29.8-9.8,9.8-19.8,19.7-29.4,29.4,10,10,19.9,20.1,29.4,29.6ZM89.3-265.8c-9.9-9.8-19.8-19.8-29.8-29.7-9.8,9.8-19.8,19.8-29.7,29.7,9.9,9.9,19.9,19.9,29.7,29.7,9.9-9.9,19.9-19.9,29.8-29.7h0ZM59.7-173.5c9.8-9.7,19.8-19.7,29.6-29.5-9.9-9.9-19.9-19.8-29.8-29.7-9.9,9.9-19.8,19.9-29.5,29.5,9.9,9.9,19.9,20,29.6,29.8ZM58.2-108.1c-.4-.6-.4-.9-.6-1-9.4-9.4-18.8-18.8-28.1-28.2-1.3-1.3-2.1-.8-3.1.2-9.1,9.1-18.1,18.2-27.3,27.2-1.1,1.1-1.1,1.8,0,2.9,9.1,9.1,18.2,18.1,27.3,27.3,1.5,1.5,2.4,1.1,3.6-.2,5.7-5.8,11.5-11.5,17.2-17.3,3.6-3.6,7.3-7.2,11-10.9h0ZM58,17.3c-.3-.3-.6-.8-1-1.2C47.8,7,38.7-2.1,29.6-11.3c-1.2-1.2-2-1-3,0C17.3-2,8.1,7.2-1.1,16.4c-.3.3-.5.8-.7,1.2,10,10,20,19.9,29.8,29.7,10-10,19.9-19.9,30-29.9ZM27.6-204.2c10.4-10.4,20.3-20.3,30-30-9.9-9.9-19.8-19.9-29.9-29.9-.1,0-.4.2-.6.5-9.3,9.3-18.7,18.6-28,27.9-1.2,1.2-.8,1.9.2,2.9,3.3,3.2,6.5,6.4,9.7,9.7,6.2,6.3,12.4,12.7,18.6,19h0ZM57.4-45.3c-9.8-9.9-19.6-19.9-29.2-29.6-9.9,9.9-19.9,19.8-29.6,29.5,9.8,9.8,19.7,19.8,29.3,29.5,9.9-9.9,19.9-19.9,29.5-29.4ZM28.1-141.8c9.9-9.9,19.8-19.9,29.5-29.6-9.8-9.9-19.8-19.9-29.5-29.7-9.9,9.8-19.9,19.8-29.7,29.6,9.9,9.9,19.9,19.8,29.8,29.7h0Z"/>
      <path class="cls-1" d="M376.3,14.8c0,0-.2.2-.3.3-.4.4-.8.8-1.2,1.2-10.3-10.3-20.2-20.3-30-30.1,9.8-9.8,19.8-19.7,30.1-29.9.3.3.7.7,1,1l-1,1c-9.5,9.5-18.6,18.7-27.6,27.8,8.9,8.8,18.1,18,28.1,27.9l.9.8h0Z"/>
      <path class="cls-4" d="M369.5,16.1c1.2,1.2,1.1,1.9,0,3-8.3,8.2-16.6,16.5-24.8,24.8-1.3,1.4-2.2,1.2-3.4,0-8.1-8.2-16.2-16.3-24.4-24.4-1.3-1.3-1.5-2.1,0-3.6,8.2-8.1,16.3-16.3,24.5-24.4.5-.5,1.1-1,1.7-1.6.5.4,1,.7,1.4,1.1,8.4,8.4,16.8,16.8,25.2,25.1h0ZM353.9,26.2c2.2-1.8,3-6,1.1-8.4-3.7-4.5-7.8-8.7-12-13.4-4.2,4.7-8.3,9-12,13.6-2,2.5-.9,6.6,1.6,8.4,2.5,1.8,5.3,1.3,7.7-1.2.6-.6,1.2-1.1,1.7-1.7.2.2.4.4.7.6-1.2,2-2.4,3.9-3.6,6h8c-1.4-2.1-2.6-4-3.8-5.9.2-.2.5-.4.7-.6.6.5,1.2,1.1,1.7,1.6,2.5,2.6,5.7,3,8.2,1.1h0Z"/>
      <path class="cls-6" d="M355,17.8c1.9,2.4,1.1,6.6-1.1,8.4-2.5,2-5.7,1.5-8.2-1.1-.5-.6-1.1-1.1-1.7-1.6-.2.2-.5.4-.7.6h-.6c-.2-.2-.4-.4-.7-.6-.6.6-1.2,1.1-1.7,1.7-2.4,2.6-5.2,3-7.7,1.2-2.5-1.8-3.6-5.9-1.6-8.4,3.7-4.6,7.8-8.9,12-13.6,4.3,4.7,8.3,8.9,12,13.4h0Z"/>
      <path class="cls-1" d="M349.8,57.4h-2.5c-3.3-5.1-4-5.2-8-1.1-.3.4-.6.7-1,1.1h-2.5c2.3-2.2,4.6-4.5,7.3-7,2.2,2.3,4.4,4.7,6.7,7h0Z"/>
      <path class="cls-4" d="M347.4,57.4h-9c.3-.4.6-.8,1-1.1,4-4.1,4.7-4,8,1.1Z"/>
      <path class="cls-6" d="M347.1,30.1h-8c1.3-2.1,2.5-4,3.6-6h.6c1.2,2,2.4,3.8,3.8,6Z"/>
      <path class="cls-1" d="M372.6,17.7c-9.8,9.8-19.8,19.7-29.6,29.5-9.8-9.9-19.7-19.8-29.5-29.7,9.7-9.7,19.7-19.6,29.5-29.4,9.7,9.7,19.6,19.6,29.6,29.6h0ZM369.4,19.1c1.1-1.1,1.2-1.8,0-3-8.4-8.3-16.8-16.7-25.2-25.1-.4-.4-.9-.7-1.4-1.1-.6.6-1.2,1.1-1.7,1.6-8.1,8.1-16.2,16.3-24.5,24.4-1.5,1.5-1.3,2.2,0,3.6,8.2,8.1,16.3,16.2,24.4,24.4,1.3,1.3,2.1,1.4,3.4,0,8.2-8.3,16.5-16.6,24.8-24.8h0Z"/>
      <path class="cls-6" d="M338-15.4c1.2,1.2,1,1.9,0,3-8.4,8.3-16.6,16.6-25,24.9-.4.4-.9.7-1.4,1.2-.5-.4-1-.7-1.4-1.1-8.4-8.4-16.7-16.8-25.2-25.1-1.2-1.1-1.1-1.9,0-3,8.4-8.3,16.7-16.6,25-25,1.2-1.2,1.9-1.1,3,0,8.3,8.4,16.6,16.7,25,25h0ZM311.5-1.3c2.9-5.7,6.9-9.6,12.6-12.6-5.7-2.9-9.6-7-12.6-12.5-3,5.5-7,9.5-12.5,12.5,5.6,2.9,9.7,7,12.5,12.6Z"/>
      <path class="cls-1" d="M337.7,50.8c1.3-1.2,1.5-2,.1-3.4-8.4-8.2-16.7-16.6-24.9-24.9-1.1-1.1-1.8-1-2.8,0-8.3,8.4-16.7,16.8-25.1,25.1-1.2,1.2-1,1.9.1,3,2.2,2.2,4.3,4.5,6.5,6.8h-2.5c-2.5-2.7-5-5.4-7.4-8,10.1-10,20.1-20,30.1-29.9,9.6,9.6,19.6,19.6,29.7,29.7-2.5,2.7-5,5.5-7.6,8.2h-2.5c2.1-2.2,4.1-4.5,6.3-6.6Z"/>
      <path class="cls-6" d="M337.9,47.4c1.4,1.4,1.2,2.2-.1,3.4-2.2,2.1-4.2,4.4-6.3,6.6h-12.9c.9-1,1.8-2,2.6-3,3.4-4.5,4.7-9.3,2.2-14.6-2.2-4.6-7.2-4.9-10.1-.7-.5.7-1,1.5-1.6,2.5-.8-1.2-1.4-2.2-2.1-3.1-2.4-3.1-6.2-3.1-8.7-.1-1.9,2.3-2.3,5-2.1,7.9.3,4.6,3,7.9,5.9,11.1h-12.9c-2.2-2.3-4.2-4.6-6.5-6.8-1.1-1.1-1.3-1.8-.1-3,8.4-8.3,16.8-16.7,25.1-25.1,1-1.1,1.7-1.1,2.8,0,8.3,8.4,16.6,16.7,24.9,24.9h0Z"/>
      <path class="cls-1" d="M340.9-13.8c-9.6,9.5-19.6,19.5-29.6,29.3-9.7-9.7-19.7-19.7-29.6-29.6,9.8-9.8,19.8-19.8,29.6-29.5,9.8,9.9,19.8,19.9,29.6,29.8h0ZM337.9-12.4c1.1-1.1,1.3-1.8,0-3-8.4-8.3-16.7-16.6-25-25-1.1-1.1-1.8-1.3-3,0-8.3,8.4-16.6,16.7-25,25-1.2,1.1-1.2,1.9,0,3,8.4,8.3,16.8,16.7,25.2,25.1.4.4.9.7,1.4,1.1.5-.5,1-.8,1.4-1.2,8.3-8.3,16.6-16.7,25-24.9h0Z"/>
      <path class="cls-1" d="M323.2,39.7c2.5,5.3,1.1,10.2-2.2,14.6-.8,1.1-1.7,2-2.6,3h-13.9c-2.9-3.2-5.6-6.5-5.9-11.1-.2-2.9.2-5.6,2.1-7.9,2.5-3,6.3-2.9,8.7.1.7.9,1.3,1.8,2.1,3.1.7-1,1.1-1.8,1.6-2.5,2.9-4.2,7.9-3.9,10.1.7h0Z"/>
      <path class="cls-4" d="M306.3,15.9c.5.5.9,1.1,1.4,1.7-.5.6-.8,1-1.2,1.4-8.3,8.3-16.5,16.5-24.8,24.8-1.3,1.3-2.1,1.4-3.4,0-8.2-8.2-16.4-16.4-24.6-24.6-1.3-1.3-1.3-2.1,0-3.4,8.1-8,16.2-16.1,24.2-24.3,1.6-1.6,2.6-1.6,4.2,0,8,8.1,16.1,16.2,24.2,24.3h0ZM289.5,24.7c2.5-1.3,3.8-3.5,3.5-6.3-.3-3-1.8-4.9-4.8-5.6-1.4-.3-1.7-1.1-1.9-2.4-.3-3.6-2.7-5.8-6.2-5.8-3.5,0-6.1,2.2-6.4,5.9-.1,1.6-.7,2.2-2.1,2.5-2.9.7-4.2,2.7-4.6,5.5-.3,2.6,1.1,5,3.6,6.2,2.4,1.2,5.2.8,7.2-.9.5-.4,1-.8,1.4-1.2.2.1.4.2.5.3-1.1,2.5-2.2,4.9-3.3,7.4h7.1c-1.2-2.5-2.3-4.9-3.4-7.2.2-.1.5-.3.7-.4.4.3.7.6,1.1.9,2.3,2,4.9,2.4,7.3,1.1Z"/>
      <path class="cls-6" d="M293,18.4c.3,2.7-1,5-3.5,6.3-2.4,1.2-5.1.8-7.3-1.1-.4-.3-.7-.6-1.1-.9-.2.1-.5.3-.7.4l-.5-.2c-.2-.1-.4-.2-.5-.3-.5.4-1,.8-1.4,1.2-2,1.7-4.8,2.1-7.2.9-2.5-1.2-3.9-3.6-3.6-6.2.3-2.8,1.7-4.8,4.6-5.5,1.4-.3,2-.9,2.1-2.5.3-3.7,2.9-5.9,6.4-5.9,3.5,0,5.8,2.2,6.2,5.8.1,1.3.4,2.1,1.9,2.4,3,.6,4.5,2.6,4.8,5.6Z"/>
      <path class="cls-1" d="M287.1,57.4h-2.5c-1.2-1.2-2.3-2.5-3.6-3.6-.4-.4-1.6-.4-2,0-1.2,1.1-2.3,2.5-3.4,3.7h-2.5c2.2-2.3,4.4-4.7,6.9-7.3,2.5,2.6,4.8,4.9,7.1,7.3h0Z"/>
      <path class="cls-1" d="M279.5-12.1c10,10.1,20,20.1,29.9,30.1-9.5,9.6-19.4,19.5-29.4,29.6-.5-.4-1.1-.8-1.6-1.3-9-9-17.9-18-26.9-26.9-1.1-1.1-1.7-1.8-.3-3.2,9.5-9.3,18.8-18.7,28.2-28.1.1-.1.3-.2.1,0h0ZM307.7,17.6c-.5-.6-.9-1.2-1.4-1.7-8.1-8.1-16.2-16.1-24.2-24.3-1.6-1.6-2.5-1.6-4.2,0-8,8.2-16.1,16.3-24.2,24.3-1.3,1.3-1.3,2.1,0,3.4,8.3,8.1,16.5,16.3,24.6,24.6,1.3,1.3,2.1,1.3,3.4,0,8.2-8.3,16.5-16.5,24.8-24.8.4-.4.7-.9,1.2-1.4h0Z"/>
      <path class="cls-4" d="M284.6,57.4h-9c1.1-1.3,2.1-2.6,3.4-3.7.4-.3,1.6-.3,2,0,1.3,1.1,2.4,2.4,3.6,3.6h0Z"/>
      <path class="cls-6" d="M283.7,30.2h-7.1c1.1-2.4,2.2-4.9,3.3-7.4l.5.2c1.1,2.3,2.2,4.6,3.4,7.2Z"/>
      <path class="cls-1" d="M277.1-15.8c1,1,1.9,1.7.4,3.2-9.4,9.3-18.8,18.7-28.2,28.1-.2.2-.5.4-.7.5-10-10-19.9-20-29.6-29.8,9.8-9.8,19.8-19.7,29.9-30,.2.2.9.8,1.5,1.4,8.9,8.8,17.7,17.7,26.5,26.5h0ZM275.8-14c-9.1-9.1-18.2-18.3-27.5-27.5-.1,0-.4.2-.7.5-8.6,8.6-17.1,17.1-25.7,25.7-1.3,1.3-.8,2,.2,3,8.4,8.3,16.7,16.6,25,25,.4.4.9.7,1,.8,9.3-9.3,18.5-18.4,27.6-27.4h0Z"/>
      <path class="cls-1" d="M278.5,49.4c-2.5,2.5-5.1,5.3-7.8,8h-2.5c2.8-2.6,5.6-5.2,8.1-7.5-9.7-9.7-18.9-18.9-28.3-28.3l-.8-.8c.5-.5,1-1,1.4-1.4,9.7,9.8,19.7,19.8,29.9,30h0Z"/>
      <path class="cls-6" d="M276.3,49.9c-2.5,2.3-5.3,4.9-8.1,7.5h-16.9c3-2.9,5.9-5.8,9-8.7-4.9-2.5-8.7-6.6-11.8-12.1-2.8,5.7-7,9.5-11.6,12.1,3.1,3,6,5.9,9,8.7h-17.4c-2-2.2-3.9-4.5-6-6.5-1.6-1.5-1.3-2.4,0-3.8,4.9-4.8,9.7-9.7,14.6-14.5,3.7-3.7,7.5-7.5,11-11,9.4,9.4,18.6,18.6,28.3,28.3h0Z"/>
      <path class="cls-6" d="M248.3-41.5c9.2,9.3,18.4,18.4,27.5,27.5-9.1,9-18.3,18.1-27.6,27.4-.2-.1-.6-.4-1-.8-8.3-8.3-16.6-16.6-25-25-1-1-1.6-1.7-.2-3,8.6-8.5,17.1-17.1,25.7-25.7.2-.2.5-.4.7-.5h0ZM257.8-8.3c3.1-3.6,4.3-7.8,3.4-12.5-.5-3.1-2.8-5.7-5.4-6.1-2.9-.5-4.6,1.4-6,3.6-.4.5-.8,1-1.1,1.5-.2,0-.4,0-.4-.1-.5-.7-1-1.5-1.6-2.2-2.8-3.9-7.2-3.8-9.7.4-1.6,2.7-1.9,5.6-1.2,8.6,1.2,5.1,4.5,8.6,8.5,11.6,4,3,4.4,3,8.4,0,1.8-1.4,3.6-3,5.1-4.7h0Z"/>
      <path class="cls-1" d="M248.5,36.5c3.1,5.5,6.9,9.6,11.8,12.1-3.1,3-6,5.9-9,8.7h-5.5c-2.9-2.8-5.9-5.7-9-8.7,4.6-2.6,8.8-6.5,11.6-12.1h0Z"/>
      <path class="cls-1" d="M247.2,20.8l.8.8c-3.5,3.5-7.3,7.3-11,11-4.9,4.9-9.7,9.8-14.6,14.5-1.4,1.4-1.7,2.3,0,3.8,2.2,2,4,4.3,6,6.5h-2c-2.8-2.5-5.7-5.1-8.4-7.5,10.2-10.2,19.7-19.7,29.2-29.2h0Z"/>
      <path class="cls-1" d="M245.6,15.7c1.4,1.4,1.3,2.3,0,3.7-9.1,9-18.2,18.2-27.2,27.2-.3.3-.8.6-1.4,1.1-1.7-1.7-3.5-3.3-5.1-5-7.8-7.8-15.6-15.6-23.4-23.4-1.1-1.1-1.6-1.9-.2-3.2,9.3-9.2,18.4-18.4,27.6-27.6.3-.3.6-.5,1.8-1.4,3.7,3.9,7.2,7.9,10.9,11.6,5.6,5.7,11.3,11.4,17.1,17h0ZM243.1,19.5c1.5-1.4,1.5-2.4,0-3.8-8.3-8.2-16.4-16.4-24.6-24.6-.4-.4-.9-.7-1.5-1.2-.6.5-1.2.9-1.7,1.4-8.2,8.1-16.3,16.3-24.5,24.4-1.3,1.3-1.5,2.2,0,3.6,8.2,8.1,16.4,16.3,24.5,24.5,1.4,1.4,2.3,1.4,3.6,0,8-8.2,16.1-16.2,24.3-24.3h0Z"/>
      <path class="cls-4" d="M243.1,15.7c1.5,1.5,1.4,2.4,0,3.8-8.2,8-16.2,16.1-24.3,24.3-1.4,1.4-2.2,1.4-3.6,0-8.1-8.2-16.3-16.4-24.5-24.5-1.4-1.4-1.3-2.3,0-3.6,8.2-8.1,16.3-16.3,24.5-24.4.5-.5,1.1-.9,1.7-1.4.6.5,1.1.8,1.5,1.2,8.2,8.2,16.4,16.4,24.6,24.6h0ZM227.9,26.1c2.7-2.4,2.8-6.7.2-9.6-3.2-3.5-6.4-6.9-9.6-10.4-1.2-1.3-2-1.3-3.2,0-2.9,3.2-5.9,6.3-8.7,9.5-.9,1-1.6,2.1-2.2,3.3-1.2,2.7-.2,6.2,2.2,7.7,2.4,1.5,5.2,1.1,7.4-1.3.6-.7,1-1.6,1.5-2.4.4.3.8.7,1.2,1-1.2,2-2.5,4-3.8,6.1h8c-1.3-2.2-2.5-4.1-3.6-6.1.3-.2.7-.4,1-.6.3.4.6.8.9,1.2,2.8,3.1,6.2,3.7,8.7,1.5h0Z"/>
      <path class="cls-6" d="M228.1,16.5c2.6,2.9,2.5,7.2-.2,9.6-2.5,2.2-5.9,1.6-8.7-1.5-.3-.4-.6-.8-.9-1.2-.3.2-.7.4-1,.6h-.6c-.4-.4-.8-.7-1.2-1-.5.8-.9,1.7-1.5,2.4-2.2,2.3-5,2.8-7.4,1.3-2.4-1.5-3.4-5-2.2-7.7.5-1.2,1.3-2.3,2.2-3.3,2.9-3.2,5.9-6.3,8.7-9.5,1.2-1.3,2-1.4,3.2,0,3.1,3.5,6.4,7,9.6,10.4h0Z"/>
      <path class="cls-1" d="M223.9,57.4h-2c-5.6-5.4-3.8-6-9.5,0h-2.5c2.2-2.1,4.3-4.3,6.5-6.4.2-.2.4-.2,1-.4,2.1,2.2,4.3,4.5,6.5,6.8h0Z"/>
      <path class="cls-4" d="M221.9,57.4h-9.5c5.7-6,3.9-5.4,9.5,0Z"/>
      <path class="cls-6" d="M221,30.1h-8c1.3-2.1,2.6-4.1,3.8-6.1h.6c1.2,2,2.3,4,3.6,6.1Z"/>
      <path class="cls-1" d="M212.6,46.6c.9.9,1.8,1.8,2.6,2.7-2.3,2.5-4.8,5.3-7.4,8.1h-2.5c2.2-2.3,4.2-4.6,6.5-6.8,1.3-1.2,1.2-2,0-3.2l.8-.8h0Z"/>
      <path class="cls-1" d="M215.4-13.7c-.4.5-.9,1.1-1.6,1.8-8.8,8.9-17.7,17.7-26.5,26.6-1,1-1.8,1.8-3.2.4-9.1-9.3-18.4-18.5-27.6-27.7-.3-.3-.6-.8-.9-1.1,10.1-10.1,20-20.1,29.9-29.9,9.9,9.9,19.8,19.8,29.9,30h0ZM211.9-12.3c1.2-1.2,1.3-2,0-3.2-5.1-5-10.1-10-15.1-15.1-3.7-3.7-7.3-7.4-11.2-11.4-9.2,9.3-18,18.2-26.9,27-1.2,1.2-.3,1.9.5,2.6,8.3,8.3,16.5,16.5,24.8,24.8,1.2,1.2,1.9,1.3,3.2,0,8.2-8.3,16.5-16.6,24.8-24.8h0Z"/>
      <path class="cls-1" d="M212.6,46.6l-.8.8c-8.2-8.2-16.4-16.4-24.6-24.6-1.4-1.4-2.2-1.4-3.6,0-8.1,8.3-16.3,16.5-24.6,24.6-1.2,1.2-1.3,2,0,3.2,2.2,2.2,4.3,4.5,6.5,6.8h-2.5c-2.2-2.3-4.4-4.7-6.6-7-1-1-1-1.7,0-2.7,9.4-9.4,18.8-18.7,28.2-28.1.2-.2.5-.4.6-.4,9.1,9.2,18.2,18.2,27.4,27.4h0Z"/>
      <path class="cls-6" d="M211.9,47.4c1.2,1.2,1.3,2,0,3.2-2.3,2.2-4.3,4.5-6.5,6.8h-12.9c.7-.8,1.5-1.6,2.1-2.4,4.3-5.2,5.1-11.8,2-16.3-2.2-3.2-6.1-3.5-8.7-.5-.8,1-1.5,2.1-2.5,3.3-.7-1.1-1.3-1.9-1.9-2.8-2.8-3.6-7-3.5-9.4.4-.8,1.4-1.4,3-1.5,4.6-.6,5.6,2.2,9.8,5.9,13.6h-12.9c-2.2-2.3-4.2-4.6-6.5-6.8-1.3-1.2-1.2-2,0-3.2,8.2-8.1,16.5-16.3,24.6-24.6,1.4-1.4,2.2-1.4,3.6,0,8.1,8.3,16.3,16.5,24.6,24.6h0Z"/>
      <path class="cls-6" d="M211.9-15.5c1.3,1.2,1.2,2,0,3.2-8.3,8.2-16.6,16.5-24.8,24.8-1.3,1.3-2,1.2-3.2,0-8.2-8.3-16.5-16.6-24.8-24.8-.8-.8-1.7-1.4-.5-2.6,8.8-8.8,17.6-17.7,26.9-27,3.9,4,7.6,7.7,11.2,11.4,5,5.1,10,10.1,15.1,15.1h0ZM185.8-1.7c2.7-5.4,6.8-9.3,12.3-12.2-5.7-2.9-9.6-6.9-12.6-12.5-2.9,5.8-7,9.6-12,12.3,2.4,1.9,4.8,3.5,6.8,5.5,2,2,3.5,4.3,5.6,6.9h0Z"/>
      <path class="cls-1" d="M196.6,38.7c3.1,4.5,2.3,11.1-2,16.3-.7.8-1.4,1.6-2.1,2.4h-13.9c-3.7-3.8-6.5-8-5.9-13.6.2-1.6.7-3.3,1.5-4.6,2.4-3.9,6.6-4.1,9.4-.4.6.8,1.2,1.7,1.9,2.8.9-1.3,1.6-2.4,2.5-3.3,2.6-2.9,6.5-2.7,8.7.5h0Z"/>
      <path class="cls-1" d="M182.4,15.6c1,1,2.1,1.8.5,3.4-9.3,9.2-18.6,18.5-27.8,27.7-.3.3-.6.5-1.2.9-3.3-3.3-6.6-6.5-9.9-9.8-6.1-6.1-12.1-12.3-18.3-18.3-1.7-1.6-1.5-2.6,0-4.2,8.8-8.7,17.6-17.5,26.4-26.4,1.4-1.5,2.3-1.5,3.7,0,8.8,8.9,17.7,17.7,26.5,26.6h0ZM180.4,19.3c1.3-1.3,1.3-2.2,0-3.4-8.3-8.2-16.4-16.4-24.7-24.6-.5-.5-1-.8-1.7-1.4-.6.5-1.2.9-1.7,1.5-8.1,8.1-16.2,16.2-24.3,24.2-1.6,1.5-1.6,2.5,0,4,8,7.9,16,15.9,23.9,23.9,1.6,1.6,2.5,1.8,4.2,0,8-8.2,16.1-16.3,24.3-24.3h0Z"/>
      <path class="cls-4" d="M180.4,15.8c1.3,1.3,1.3,2.1,0,3.4-8.1,8.1-16.3,16.1-24.3,24.3-1.7,1.7-2.6,1.5-4.2,0-7.9-8.1-15.9-16-23.9-23.9-1.6-1.5-1.6-2.5,0-4,8.2-8,16.2-16.2,24.3-24.2.5-.5,1.1-.9,1.7-1.5.7.5,1.2.9,1.7,1.4,8.2,8.2,16.4,16.4,24.7,24.6h0ZM163.9,24.5c2.4-1.4,3.4-3.6,3.1-6.3-.3-2.8-1.9-4.7-4.7-5.4-1.2-.3-1.7-.8-1.8-2.2-.4-3.8-3-6.1-6.5-6.1-3.5,0-6.1,2.4-6.3,6.3-.1,1.7-1.2,1.7-2.3,2.1-3,1-4.4,3.1-4.3,6.4.1,2.8,2.1,5.1,4.9,5.8,2.8.6,5.1-.5,7-2.6.2.2.4.3.6.5-1,2.3-2,4.7-3.1,7.2h7c-1.1-2.5-2.1-4.7-3.1-7,.2-.1.5-.2.7-.4.4.3.7.6,1.1.9,2.3,1.8,5.1,2.2,7.6.8h0Z"/>
      <path class="cls-6" d="M167.1,18.2c.3,2.7-.7,4.9-3.1,6.3-2.5,1.4-5.4,1.1-7.6-.8-.4-.3-.7-.6-1.1-.9-.2.1-.5.2-.7.4l-.8-.2c-.2-.2-.4-.3-.6-.5-1.9,2.1-4.2,3.3-7,2.6-2.9-.7-4.8-3-4.9-5.8-.1-3.3,1.3-5.5,4.3-6.4,1.1-.3,2.2-.4,2.3-2.1.2-3.9,2.8-6.3,6.3-6.3,3.5,0,6.1,2.3,6.5,6.1.1,1.3.6,1.9,1.8,2.2,2.8.7,4.4,2.6,4.7,5.4h0Z"/>
      <path class="cls-1" d="M161.1,57.4h-2.5c-1.2-1.2-2.3-2.6-3.6-3.7-.4-.4-1.6-.4-2,0-1.2,1.1-2.3,2.5-3.4,3.8h-2.5c1.9-2,3.8-4.1,5.8-6,.4-.4,1.8-.2,2.4.3,2,1.8,3.9,3.8,5.8,5.7h0Z"/>
      <path class="cls-4" d="M158.6,57.4h-9c1.1-1.3,2.1-2.6,3.4-3.8.4-.3,1.6-.3,2,0,1.3,1.1,2.4,2.4,3.6,3.7h0Z"/>
      <path class="cls-6" d="M157.6,30.2h-7c1.1-2.5,2.1-4.9,3.1-7.2l.8.2c1,2.3,2,4.5,3.1,7Z"/>
      <path class="cls-1" d="M149.1,50.5c1-1,1.2-1.7.1-2.8-8.5-8.4-16.9-16.8-25.3-25.3-.9-.9-1.5-1.1-2.5-.2-8.6,8.7-17.3,17.3-25.9,26-.2.2-.3.6-.8,1.5,2.7,2.5,5.5,5.1,8.2,7.6h-2.5c-2.8-2.5-5.7-5.1-8.4-7.5,10.7-10.6,20.7-20.6,30.5-30.4,9.8,9.8,19.8,19.7,30,29.8-2.5,2.6-5.1,5.3-7.8,8.1h-2.5c2.3-2.3,4.5-4.6,6.9-6.8h0Z"/>
      <path class="cls-6" d="M149.2,47.7c1.1,1.1.9,1.8-.1,2.8-2.3,2.2-4.6,4.6-6.9,6.8h-16.9c3-2.9,5.9-5.8,9-8.7-4.9-2.5-8.8-6.6-11.8-12.1-2.9,5.8-7,9.6-11.6,12.1,3.1,3,6,5.9,8.9,8.7h-16.9c-2.8-2.6-5.6-5.2-8.2-7.6.5-.9.6-1.2.8-1.5,8.6-8.7,17.3-17.3,25.9-26,.9-.9,1.6-.7,2.5.2,8.4,8.5,16.8,16.9,25.3,25.3h0Z"/>
      <path class="cls-6" d="M148.9-15.6c1,1,1.5,1.8.2,3-8.5,8.5-17,17-25.5,25.5-.3.3-.6.5-.9.6-9.2-9.3-18.4-18.5-27.4-27.5,9.1-9.1,18.2-18.3,28-28.2.5.8.9,1.9,1.6,2.7,7.9,8,15.9,16,23.9,23.9h0ZM132.2-8.9c3.2-3.9,4.5-8.5,2.5-13.5-.9-2.4-2.4-4.2-5.1-4.5-2.6-.3-4.3,1.2-5.6,3.3-.4.6-.8,1.2-1.4,2.1-.6-1-1-1.5-1.4-2-1.4-2.1-3-3.8-5.8-3.5-2.5.3-4.9,2.9-5.4,5.9-.8,4.1-.4,8.1,2.4,11.3,2.5,2.8,5.5,5.2,8.3,7.7,1.2,1.1,2.6,1.1,3.8,0,2.6-2.2,5.6-4.3,7.8-6.9h0Z"/>
      <path class="cls-1" d="M122.5,36.5c3.1,5.5,6.9,9.6,11.8,12.1-3.1,3-6,5.9-9,8.7h-5.5c-2.9-2.9-5.8-5.7-8.9-8.7,4.6-2.5,8.7-6.3,11.6-12.1h0Z"/>
      <path class="cls-1" d="M122.6-43.4c9.6,9.7,19.6,19.7,29.4,29.6-9.7,9.6-19.7,19.6-29.7,29.5-9.8-9.8-19.7-19.7-29.5-29.5,9.9-9.9,19.9-19.8,29.8-29.6h0ZM149.1-12.6c1.3-1.3.8-2-.2-3-8-7.9-16-15.9-23.9-23.9-.7-.7-1.1-1.8-1.6-2.7-9.9,9.9-19,19.1-28,28.2,9,9.1,18.2,18.2,27.4,27.5.2-.2.6-.4.9-.6,8.5-8.5,17-17,25.5-25.5h0Z"/>
      <path class="cls-1" d="M119.4,15.6c1.4,1.4,1.7,2.2.1,3.8-9,8.8-17.9,17.8-26.8,26.7-.5.5-1.1,1-1.5,1.4-10-10.1-20-20-30-30.1,9.8-9.8,19.7-19.7,29.8-29.8.6.5,1.3,1.1,1.9,1.7,8.8,8.8,17.6,17.6,26.4,26.4h0ZM117.6,19c1.2-1.2,1-1.9,0-3-8.3-8.2-16.5-16.5-24.8-24.8-.5-.5-1-.8-1.6-1.4-.6.5-1.2,1-1.8,1.5-8.3,8.2-16.5,16.5-24.8,24.7-1,1-1.2,1.7-.1,2.9,8.4,8.3,16.8,16.7,25.2,25.1,1.2,1.2,1.9,1.1,3,0,8.3-8.4,16.6-16.7,25-24.9h0Z"/>
      <path class="cls-4" d="M117.5,16c1.1,1.1,1.3,1.8,0,3-8.4,8.3-16.7,16.6-25,24.9-1.1,1.2-1.9,1.2-3,0-8.3-8.4-16.7-16.8-25.2-25.1-1.1-1.1-.9-1.8.1-2.9C72.8,7.8,81.1-.4,89.3-8.7c.5-.5,1.1-.9,1.8-1.5.6.5,1.2.9,1.6,1.4,8.3,8.3,16.5,16.5,24.8,24.8h0ZM102,26.1c2.2-1.8,2.9-6.1,1-8.4-3.7-4.4-7.7-8.6-12-13.3-4.2,4.6-8.1,8.7-11.8,13.1-2.2,2.6-1.4,6.7,1.1,8.7,2.6,2,5.5,1.6,8.1-1.2.5-.5,1.1-1,1.6-1.5.2.2.5.4.7.5-1.2,2-2.4,4-3.7,6.1h8c-1.3-2.2-2.5-4.1-3.8-6.1l1.3-1.1c.4.7.6,1.6,1.2,2.2,2.4,2.6,5.7,3,8.2,1h0Z"/>
      <path class="cls-6" d="M103,17.7c1.9,2.3,1.2,6.6-1,8.4-2.5,2-5.8,1.7-8.2-1-.5-.6-.8-1.5-1.2-2.2l-1.3,1.1h-.6c-.2-.2-.5-.3-.7-.5-.5.5-1.1,1-1.6,1.5-2.6,2.8-5.6,3.3-8.1,1.2-2.5-2-3.2-6.1-1.1-8.7,3.7-4.4,7.6-8.5,11.8-13.1,4.2,4.7,8.3,8.9,12,13.3Z"/>
      <path class="cls-1" d="M97.9,57.4h-2.5c-3.4-5.2-4-5.3-8.2-1-.3.3-.5.6-.8,1h-2.5c2.3-2.3,4.6-4.5,7.2-7.1,2.3,2.4,4.5,4.8,6.7,7.1h0Z"/>
      <path class="cls-4" d="M95.4,57.4h-9c.3-.3.5-.7.8-1,4.1-4.3,4.7-4.2,8.2,1Z"/>
      <path class="cls-6" d="M95.1,30.2h-8c1.2-2.1,2.4-4.1,3.7-6.1h.6c1.2,1.9,2.4,3.9,3.8,6.1h0Z"/>
      <path class="cls-6" d="M87.2-14c-.4.5-.7,1-1.1,1.4-8.4,8.4-16.9,16.9-25.3,25.3-.9.9-1.5,1-2.5,0-8.5-8.5-17-17-25.5-25.5-1-1-.8-1.7.1-2.7,8.5-8.4,16.9-16.9,25.3-25.3,1.1-1.1,1.7-.8,2.6.1,8.4,8.4,16.7,16.8,25.1,25.2.4.4.7.9,1.1,1.4ZM59.6-1.5c3-5.6,6.9-9.6,12.7-12.5-5.9-2.9-9.7-7.1-12.8-12.5-2.9,5.7-7,9.5-12.4,12.5,5.6,2.8,9.5,6.9,12.5,12.4Z"/>
      <path class="cls-1" d="M85.8,50.8c1.3-1.2,1.5-2,.1-3.4-8.3-8.2-16.6-16.5-24.8-24.8-1.2-1.2-2-1.2-3.2,0-8.2,8.2-16.3,16.4-24.6,24.6-1.5,1.5-1.4,2.4,0,3.8,2.2,2,4.1,4.3,6.2,6.4h-2.5c-2.6-2.8-5.1-5.5-7.6-8.2,10.1-10.1,20.1-20.1,29.9-29.9,9.9,9.9,19.9,19.8,30,29.9-2.4,2.6-4.9,5.4-7.5,8.2h-2.5c2.1-2.2,4.1-4.5,6.3-6.6h0Z"/>
      <path class="cls-6" d="M85.9,47.4c1.4,1.4,1.2,2.2-.1,3.4-2.2,2.1-4.2,4.4-6.3,6.6h-12.9c.7-.9,1.5-1.7,2.2-2.6,3.2-3.8,4.4-8.1,3.4-12.9-.6-2.9-2.9-5.3-5.3-5.6-3-.4-4.8,1.3-6.2,3.7-.3.5-.7.9-1.2,1.6-.7-1-1.2-1.8-1.7-2.6-2.6-3.6-6.9-3.8-9.2,0-1.3,2.2-1.8,5.1-1.8,7.7,0,4.5,3,7.7,5.8,10.9h-12.9c-2.1-2.1-4-4.4-6.2-6.4-1.4-1.4-1.6-2.3,0-3.8,8.3-8.1,16.5-16.3,24.6-24.6,1.2-1.2,2-1.3,3.2,0,8.2,8.3,16.5,16.6,24.8,24.8h0Z"/>
      <path class="cls-1" d="M89-13.8c-9.6,9.5-19.7,19.4-29.6,29.2C49.9,5.9,40-4.1,30-14.1c9.7-9.7,19.6-19.6,29.4-29.4,9.7,9.8,19.7,19.9,29.5,29.8ZM86.1-12.5c.4-.4.7-.9,1.1-1.4-.4-.5-.7-1-1.1-1.4-8.4-8.4-16.8-16.8-25.1-25.2-.9-.9-1.6-1.2-2.6-.1-8.4,8.5-16.9,16.9-25.3,25.3-.9.9-1.2,1.6-.1,2.7,8.5,8.5,17,17,25.5,25.5.9.9,1.6.8,2.5,0,8.4-8.5,16.9-16.9,25.3-25.3Z"/>
      <path class="cls-1" d="M72.1,41.8c1.1,4.9-.2,9.2-3.4,12.9-.7.9-1.5,1.8-2.2,2.6h-13.9c-2.8-3.2-5.8-6.4-5.8-10.9,0-2.6.5-5.5,1.8-7.7,2.3-3.8,6.6-3.5,9.2,0,.6.8,1.1,1.6,1.7,2.6.5-.7.9-1.1,1.2-1.6,1.4-2.4,3.2-4.1,6.2-3.7,2.4.3,4.6,2.7,5.3,5.6Z"/>
      <path class="cls-1" d="M57,16.2c.4.4.7.9,1,1.2-10,10-20,20-30,29.9C18.1,37.5,8.2,27.6-1.8,17.6c.2-.4.4-.8.7-1.2C8.1,7.2,17.3-2,26.5-11.2c1.1-1.1,1.8-1.3,3,0,9.1,9.2,18.3,18.3,27.4,27.5h0ZM54.7,19c1.1-1.1,1-1.8,0-2.8C46.2,7.8,37.9-.6,29.5-9c-.4-.4-.9-.7-1.4-1.2-.6.5-1.2,1-1.7,1.5C18.1-.5,10,7.7,1.7,15.9c-1.2,1.2-1.3,2,0,3.2,8.3,8.2,16.6,16.5,24.8,24.8,1.2,1.2,2,1.3,3.2,0,8.3-8.4,16.6-16.7,25-25h0Z"/>
      <path class="cls-4" d="M54.6,16.1c1.1,1.1,1.1,1.7,0,2.8-8.4,8.3-16.7,16.6-25,25-1.2,1.2-2,1.2-3.2,0C18.2,35.6,10,27.3,1.6,19.1c-1.3-1.2-1.2-2,0-3.2C10,7.7,18.1-.5,26.3-8.7c.5-.5,1.1-.9,1.7-1.5.5.5,1,.8,1.4,1.2C37.9-.6,46.2,7.8,54.6,16.1ZM37.4,24.7c2.5-1.2,3.8-3.6,3.6-6.2-.2-2.9-1.7-4.7-4.8-5.6-1.3-.4-1.8-1-1.9-2.4-.3-3.6-2.7-5.8-6.2-5.9-3.6,0-6.2,2.2-6.5,5.8-.1,1.6-.7,2.1-2.1,2.5-2.7.7-4.3,2.8-4.6,5.5-.2,2.5,1.1,4.9,3.4,6.1,2.4,1.2,5.2.9,7.2-.7.5-.4,1-.9,1.5-1.3.2.1.4.3.6.4-1.1,2.5-2.2,4.9-3.3,7.4h7.2c-1.2-2.6-2.3-5-3.3-7.3.2-.1.4-.2.6-.3.4.3.8.6,1.1.9,2.3,2,4.9,2.5,7.3,1.3h0Z"/>
      <path class="cls-6" d="M41.1,18.5c.2,2.7-1.2,5-3.6,6.2-2.4,1.2-5,.8-7.3-1.3-.4-.3-.8-.6-1.1-.9-.2.1-.4.2-.6.3h-.5c-.2-.2-.4-.3-.6-.4-.5.4-1,.9-1.5,1.3-2,1.7-4.8,2-7.2.7-2.3-1.2-3.7-3.6-3.4-6.1.3-2.7,1.9-4.8,4.6-5.5,1.4-.4,2-.9,2.1-2.5.3-3.7,2.9-5.9,6.5-5.8,3.5,0,5.9,2.2,6.2,5.9.1,1.4.5,2,1.9,2.4,3.1.9,4.5,2.7,4.8,5.6h0Z"/>
      <path class="cls-1" d="M35.2,57.4h-2.5c-1.4-1.6-2.8-3.2-4.5-5.1-1.8,2.1-3.2,3.6-4.5,5.1h-2.5c2.2-2.3,4.4-4.7,6.7-7.2,2.6,2.5,4.9,4.8,7.2,7.2Z"/>
      <path class="cls-4" d="M32.7,57.4h-9c1.3-1.5,2.7-3,4.5-5.1,1.7,1.9,3.1,3.5,4.5,5.1h0Z"/>
      <path class="cls-6" d="M31.7,30.3h-7.2c1.1-2.5,2.2-5,3.3-7.4h.5c1.1,2.5,2.2,4.8,3.3,7.4Z"/>
      <path class="cls-1" d="M26.4,49.5c-2.4,2.4-5,5.2-7.7,7.9h-2.5c2.8-2.6,5.6-5.2,8.2-7.6C14.8,40.1,5.6,31-3.8,21.7c-3.9,3.8-8.1,7.8-12.3,11.8v-2.5c3-2.9,6.1-5.8,9.1-8.8.7-.7,1.3-1.5,1.8-2.3.3-.5.6-.9.9-1.3,10.6,10.6,20.5,20.5,30.7,30.8h0Z"/>
      <path class="cls-6" d="M24.4,49.8c-2.6,2.5-5.4,5-8.2,7.6H-.7c3-2.9,5.9-5.8,9-8.7-4.9-2.5-8.6-6.7-11.8-11.9-3,5.5-6.9,9.4-11.7,11.9h-.9v-15.1c4.2-4,8.4-8.1,12.3-11.8,9.4,9.3,18.6,18.5,28.2,28.1h0Z"/>
      <path class="cls-1" d="M-4.2-44.4c10.6,10.6,20.6,20.6,30.5,30.5C16.4-4.1,6.4,5.8-3.7,15.9c-.4-.4-.9-.8-1.3-1.2l.7-.7C5.5,4.1,14.7-5.1,23.6-14,14.7-23,5.5-32.2-4-41.7c-4,4-8.1,8.2-12.2,12.4v-2.5c4-4.3,8-8.6,11.9-12.7h0Z"/>
      <path class="cls-6" d="M23.6-14C14.7-5.1,5.5,4.1-4.3,13.9c-.5-.7-.9-1.7-1.7-2.4-3.3-3.3-6.7-6.6-10.1-9.9v-15.9c1.5,4.2,4.2,7.5,7.7,10.2C-3.8-.4-3.3-.4,1.3-4c1.6-1.3,3.1-2.7,4.5-4.3,3-3.5,4.2-7.6,3.5-12.3-.5-3-2.7-5.8-5.3-6.3-3-.6-4.7,1.3-6.2,3.6-.3.5-.7,1-1.3,1.7-.9-1.3-1.6-2.4-2.4-3.4-2.3-2.7-5.9-2.8-8.2,0-.9,1.1-1.4,2.4-2.1,3.6v-8c4.1-4.2,8.2-8.4,12.2-12.4C5.5-32.2,14.7-23,23.6-14Z"/>
      <path class="cls-1" d="M-3.5,36.8c3.2,5.2,6.9,9.4,11.8,11.9-3,3-6,5.9-9,8.7h-5.5c-3-2.9-6-5.8-9-8.8,4.8-2.4,8.7-6.4,11.7-11.9h0Z"/>
    </g>
  </g>
  <path class="cls-5" d="M116.9,0s0,0,0,0c.5.3.8.6,1.2.8,7.2,4.3,14.1,9,20.7,14.1,6.6,5.1,12.8,10.5,18.7,16.3,1,1,1,.9,2,0,4-3.7,8-7.5,12.2-11.1,8.6-7.4,17.9-13.8,27.6-19.6.2-.1.5-.3.8-.6,0,0,0,0,0,0h-83.2,0Z"/>
</svg>