<?xml version="1.0" encoding="UTF-8"?>
<svg id="Layer_1" data-name="Layer 1" xmlns="http://www.w3.org/2000/svg" version="1.1" viewBox="0 0 270.2 156.3">
  <defs>
    <style>
      .cls-1 {
        fill: #7b1c43;
      }

      .cls-1, .cls-2, .cls-3, .cls-4, .cls-5, .cls-6 {
        stroke-width: 0px;
      }

      .cls-2 {
        fill: #f07e6d;
      }

      .cls-3 {
        fill: #ad4644;
      }

      .cls-4 {
        fill: #ae6848;
      }

      .cls-5 {
        fill: #e2837a;
      }

      .cls-6 {
        fill: #b96b4d;
      }
    </style>
  </defs>
  <g>
    <rect class="cls-1" x="76.3" y="44.6" width="132.1" height="35.7"/>
    <path class="cls-4" d="M81.5,46.5s11.9,70.1-27.8,94.3c-39.7,24.2-19.4-11.7-19.4-11.7l20.1-6.1-18.5-.5s6.6-16,8.5-19.8,12.4-.8,12.4-.8l-9-3.9,33.9-51.5h0Z"/>
    <path class="cls-6" d="M86.9,46.4S45.5,115,16.7,118.3s1.2-19.6,1.2-19.6l10.5,3.9-5.8-9.1s12.5-11.3,15.6-13.9c3.1-2.6,4.6,5,4.6,5l-.4-7.7,44.5-30.5h0Z"/>
    <path class="cls-3" d="M145.7,56.8c55.4,0,102.3,11.6,117.9,27.5V15.8H27.7v68.5c15.6-16,62.5-27.5,117.9-27.5h0Z"/>
    <rect class="cls-1" x="27.7" y="24" width="235.8" height="9.9"/>
  </g>
  <circle class="cls-2" cx="230.6" cy="37.7" r="20.9"/>
  <circle class="cls-1" cx="230.6" cy="37.7" r="18.9"/>
  <path class="cls-5" d="M237.9,47.2c-3.2,0-5.9-1.9-7.1-5,0,0,0-.2-.1-.2-.1,0-.2,0-.3.2-.4,1-.9,1.9-1.7,2.7-3,3.1-7.4,2.8-9.8,1-1.9-1.4-2.9-3.2-3.1-5.5-.1-2.1.6-4,1.8-5.7.6-.8,1.3-1.5,2.1-2.2,2.9-2.5,5.8-4.9,8.6-7.4.7-.6,1.4-1.2,2.1-1.8.1-.1.2-.1.4,0,2.1,1.8,4.2,3.6,6.3,5.4,1.8,1.5,3.6,3,5.3,4.6.5.5,1,1.1,1.4,1.7,1,1.4,1.5,3,1.6,4.7.1,3.8-2.7,7-6.4,7.4-.3,0-.7,0-1,0h0Z"/>
</svg>