<?xml version="1.0" encoding="UTF-8"?>
<svg id="Layer_1" data-name="Layer 1" xmlns="http://www.w3.org/2000/svg" version="1.1" viewBox="0 0 234.3 135.5">
  <defs>
    <style>
      .cls-1 {
        fill: #a8cf38;
      }

      .cls-1, .cls-2, .cls-3, .cls-4, .cls-5, .cls-6 {
        stroke-width: 0px;
      }

      .cls-2 {
        fill: #f9ef5e;
      }

      .cls-3 {
        fill: #a5ce45;
      }

      .cls-4 {
        fill: #fbef4d;
      }

      .cls-5 {
        fill: #aba342;
      }

      .cls-6 {
        fill: #7a6729;
      }
    </style>
  </defs>
  <g>
    <rect class="cls-6" x="57.6" y="69.3" width="110.6" height="29.9"/>
    <path class="cls-1" d="M163.8,97.5s-10-58.7,23.3-78.9c33.3-20.3,16.3,9.8,16.3,9.8l-16.8,5.1,15.5.4s-5.6,13.4-7.1,16.6c-1.5,3.2-10.3.7-10.3.7l7.6,3.3-28.4,43.1h0Z"/>
    <path class="cls-3" d="M159.3,97.7s34.7-57.5,58.8-60.2c24.1-2.7-1,16.4-1,16.4l-8.8-3.3,4.9,7.6s-10.5,9.5-13.1,11.6-3.9-4.2-3.9-4.2l.4,6.5-37.3,25.6h0Z"/>
    <path class="cls-5" d="M110.1,89c-46.4,0-85.6-9.7-98.7-23.1v57.4h197.4v-57.4c-13.1,13.4-52.3,23.1-98.7,23.1h0Z"/>
    <rect class="cls-6" x="11.4" y="108.1" width="197.4" height="8.3"/>
  </g>
  <circle class="cls-2" cx="39" cy="104.9" r="17.5"/>
  <circle class="cls-6" cx="39" cy="104.9" r="15.8"/>
  <path class="cls-4" d="M32.9,96.9c2.7,0,5,1.6,6,4.2,0,0,0,.2.1.2.1,0,.2,0,.2-.1.3-.9.8-1.6,1.4-2.3,2.5-2.6,6.2-2.3,8.2-.8,1.6,1.1,2.4,2.7,2.6,4.6.1,1.8-.5,3.3-1.5,4.8-.5.7-1.1,1.3-1.7,1.8-2.4,2.1-4.8,4.1-7.2,6.2-.6.5-1.2,1-1.7,1.5-.1.1-.2.1-.3,0-1.8-1.5-3.5-3-5.3-4.5-1.5-1.3-3-2.5-4.5-3.8-.5-.4-.8-.9-1.2-1.4-.8-1.2-1.3-2.5-1.3-3.9,0-3.2,2.2-5.9,5.4-6.2.3,0,.6,0,.9,0h0Z"/>
</svg>