<?xml version="1.0" encoding="UTF-8"?>
<svg id="Layer_1" data-name="Layer 1" xmlns="http://www.w3.org/2000/svg" xmlns:xlink="http://www.w3.org/1999/xlink" viewBox="0 0 135.545 149.984">
  <defs>
    <style>
      .cls-1 {
        fill: #41b9b7;
      }

      .cls-1, .cls-2, .cls-3, .cls-4, .cls-5, .cls-6, .cls-7, .cls-8, .cls-9, .cls-10, .cls-11, .cls-12 {
        stroke-width: 0px;
      }

      .cls-2 {
        fill: #1e7b3d;
      }

      .cls-3 {
        fill: #97d5d6;
      }

      .cls-13 {
        clip-path: url(#clippath);
      }

      .cls-4 {
        fill: none;
      }

      .cls-5 {
        fill: #58c8e2;
      }

      .cls-6 {
        fill: #70c7c9;
      }

      .cls-14 {
        clip-path: url(#clippath-1);
      }

      .cls-15 {
        clip-path: url(#clippath-3);
      }

      .cls-16 {
        clip-path: url(#clippath-2);
      }

      .cls-7 {
        fill: #38a56e;
      }

      .cls-8 {
        fill: #85cdb5;
      }

      .cls-9 {
        fill: #45ac72;
      }

      .cls-10 {
        fill: #5e7ebe;
      }

      .cls-11 {
        fill: #45b0c2;
      }

      .cls-12 {
        fill: #3eb9bc;
      }
    </style>
    <clipPath id="clippath">
      <rect class="cls-4" x="2119.067" y="548.871" width="976.369" height="821.975"/>
    </clipPath>
    <clipPath id="clippath-1">
      <polygon class="cls-4" points="3363.626 768.845 1723.774 1268.639 1369.875 794.632 3009.727 294.837 3363.626 768.845"/>
    </clipPath>
    <clipPath id="clippath-2">
      <polygon class="cls-4" points="3699.615 1128.919 2059.763 1628.714 1705.864 1154.706 3345.716 654.911 3699.615 1128.919"/>
    </clipPath>
    <clipPath id="clippath-3">
      <rect class="cls-4" x="10.455" y="27.703" width="111.934" height="103.184"/>
    </clipPath>
  </defs>
  <g class="cls-13">
    <g>
      <g class="cls-14">
        <g>
          <polygon class="cls-6" points="-4616.127 3130.07 -4814.303 3179.041 5509.98 -485.404 5708.156 -534.375 -4616.127 3130.07"/>
          <polygon class="cls-3" points="-3919.861 3077.201 -4712.565 3273.085 6717.053 -783.682 7509.758 -979.566 -3919.861 3077.201"/>
          <polygon class="cls-12" points="-2071.036 2527.832 -2269.212 2576.803 7974.824 -1059.159 8173 -1108.13 -2071.036 2527.832"/>
        </g>
      </g>
      <g class="cls-16">
        <g>
          <polygon class="cls-6" points="-4280.138 3490.145 -4478.314 3539.116 5845.968 -125.329 6044.145 -174.3 -4280.138 3490.145"/>
          <polygon class="cls-3" points="-3583.872 3437.275 -4376.577 3633.159 7053.042 -423.607 7845.747 -619.491 -3583.872 3437.275"/>
          <polygon class="cls-12" points="-1735.047 2887.907 -1933.223 2936.878 8310.813 -699.085 8508.989 -748.056 -1735.047 2887.907"/>
        </g>
      </g>
    </g>
  </g>
  <g>
    <g class="cls-15">
      <g>
        <path class="cls-1" d="M163.604,141.061c-.016,0-.125.052-.202.13-9.801,9.754-19.581,19.54-29.429,29.247-1.468,1.453-.773,2.257.327,3.357,9.37,9.334,18.704,18.704,28.054,28.054.524.524,1.147.949,1.671,1.385,10.46-10.512,20.749-20.842,30.664-30.809-10.346-10.408-20.712-20.837-31.136-31.323.026-.016.042-.026.052-.042ZM284.022,126.357v2.594c-6.781-6.693-13.557-13.381-19.929-19.669-.363-.358-.726-.716-1.084-1.069-10.673,10.616-21.107,20.992-31.343,31.177,10.138,10.18,20.479,20.562,31.219,31.338.415-.431.835-.861,1.25-1.297l1.022,1.038-.005.005c-1.012.991-.965,1.728-.368,2.522l-.949.892c-.218-.254-.431-.503-.649-.752-11.041,11.02-21.459,21.423-32.526,32.469,2.864,2.599,5.806,5.256,8.742,7.918h-2.594c-2.324-2.459-4.649-4.913-6.932-7.331-2.781,2.688-5.188,5.007-7.596,7.331h-2.075c2.662-2.895,5.318-5.785,7.892-8.587-10.475-10.47-20.894-20.878-30.939-30.913-10.372,10.32-20.842,20.738-31.328,31.172,2.444,2.651,5.064,5.489,7.679,8.327h-2.075c-2.376-2.459-4.753-4.913-7.368-7.617-2.589,2.755-4.872,5.188-7.16,7.617h-2.594c2.797-2.869,5.588-5.733,8.146-8.359-10.636-10.693-20.961-21.075-31.12-31.286-.498.493-.991.991-1.489,1.484-9.863,9.842-19.815,19.778-30.43,30.373,2.817,2.516,5.77,5.152,8.717,7.788h-2.594c-2.273-2.402-4.55-4.799-6.75-7.119-.571.228-.861.265-1.027.431-2.257,2.221-4.504,4.457-6.75,6.688h-2.075c2.636-2.895,5.266-5.785,7.668-8.426-.924-.924-1.842-1.847-2.765-2.765-9.552-9.578-19-19.036-28.521-28.578-.083.052-.41.192-.638.42-9.785,9.77-19.55,19.55-29.356,29.299-1.038,1.032-1.032,1.743-.005,2.776,2.361,2.371,4.623,4.841,6.921,7.274h-2.075c-1.992-2.008-3.917-4.094-6.029-5.967-.529-.472-2.039-.674-2.449-.296-2.132,1.961-4.052,4.151-6.05,6.262h-2.594c2.745-2.848,5.484-5.692,8.104-8.41-10.579-10.543-21.013-20.935-31.214-31.099-10.252,10.216-20.676,20.603-31.789,31.681,2.828,2.537,5.775,5.183,8.722,7.829h-2.594c-2.33-2.459-4.664-4.919-7.03-7.409-2.729,2.698-5.111,5.054-7.497,7.409h-2.075c2.656-2.895,5.308-5.79,7.814-8.525-10.517-10.475-20.935-20.863-31.245-31.131-10.226,10.216-20.64,20.619-31.146,31.115,2.548,2.76,5.214,5.65,7.881,8.54h-2.075c-2.428-2.418-4.862-4.83-7.518-7.471-2.439,2.599-4.721,5.038-7.01,7.471h-2.594c2.791-2.869,5.588-5.744,8.042-8.265-10.678-10.709-21.018-21.081-32.028-32.122-.322.431-.643.903-.981,1.385l-.913-.934.01-.01c1.219-1.173,1.235-2.023.036-3.186-3.528-3.398-6.994-6.869-10.486-10.309v-2.075c3.928,3.73,7.855,7.461,11.575,10.994.451.431.898.856,1.344,1.276,10.595-10.538,20.982-20.868,31.208-31.042-10.289-10.304-20.686-20.712-31.748-31.784-4,4.265-8.187,8.732-12.38,13.199v-2.594c3.725-4.037,7.451-8.068,11.446-12.395-3.523-3.372-7.482-7.165-11.446-10.953v-2.594c4.343,4.286,8.68,8.576,13.049,12.893.571-.42.949-.628,1.245-.924,9.713-9.697,19.389-19.431,29.154-29.076,1.582-1.567.508-2.324-.483-3.321-8.914-8.903-17.812-17.822-26.726-26.726-.949-.949-1.951-1.852-3.051-2.89-1.012.97-1.816,1.733-2.615,2.501-3.523,3.393-7.046,6.792-10.574,10.185v-2.075c3.404-3.398,6.761-6.849,10.237-10.169,1.385-1.318,1.416-2.226.026-3.554-3.481-3.315-6.849-6.755-10.263-10.143v-2.075c4.395,4.182,8.789,8.364,12.841,12.219.841-.841,1.686-1.676,2.522-2.511,9.749-9.697,19.306-19.202,28.749-28.593-10.252-10.237-20.634-20.593-31.24-31.182-4.182,4.13-8.525,8.421-12.872,12.712v-2.594c3.694-4.068,7.383-8.13,10.652-11.731-3.227-3.523-6.937-7.57-10.652-11.617v-2.594c4.166,4.488,8.327,8.976,12.317,13.277,11.129-11.155,21.522-21.573,31.686-31.758-10.211-10.242-20.598-20.655-31.11-31.198-.612.56-1.375,1.245-2.112,1.951-3.596,3.455-7.186,6.916-10.782,10.372v-2.075c3.424-3.393,6.812-6.812,10.278-10.154,1.333-1.282,1.432-2.267.026-3.601-3.492-3.31-6.875-6.735-10.304-10.112v-2.075c3.917,3.715,7.829,7.435,11.591,10.999.467.446.934.887,1.396,1.328,10.59-10.558,20.966-20.899,31.172-31.073-10.315-10.325-20.717-20.738-31.841-31.878-3.98,4.286-8.146,8.779-12.317,13.267v-2.594c3.72-4.031,7.44-8.058,11.311-12.255-1.448-1.531-3.264-3.461-5.085-5.386h2.594c3.497,5.204,4.223,5.282,8.296.861.223-.244.353-.576.524-.861h2.594c-1.806,1.946-3.616,3.897-5.505,5.936.503.628.877,1.199,1.349,1.671,9.448,9.464,18.933,18.891,28.339,28.401,1.365,1.375,2.148,1.058,3.341-.156,5.199-5.292,10.455-10.527,15.736-15.736,4.654-4.597,9.365-9.132,14.133-13.775-2.065-2.376-3.788-4.358-5.51-6.34h2.075q4.498,5.012,9.184.197c.057-.057.104-.13.156-.197h2.075c-1.717,1.982-3.435,3.964-4.877,5.629,10.491,10.512,20.842,20.883,31.037,31.105,10.19-10.216,20.531-20.588,30.996-31.079-1.645-1.764-3.455-3.71-5.271-5.655h2.594c1.157,1.256,2.236,2.589,3.507,3.715.384.337,1.557.363,1.915.036,1.24-1.136,2.283-2.485,3.398-3.751h2.594c-1.816,1.93-3.637,3.865-5.339,5.676,10.517,10.501,20.883,20.847,31.354,31.297.031-.016.394-.109.623-.337,9.837-9.827,19.659-19.675,29.496-29.496.965-.965.799-1.707-.093-2.615-1.437-1.458-2.776-3.009-4.156-4.524h2.075c5.733,5.837,3.756,5.391,9.173.192.057-.062.114-.13.166-.192h2.075c-.949,1.09-1.837,2.236-2.859,3.253-2.656,2.641-2.693,2.631-.145,5.178,7.871,7.881,15.747,15.762,23.633,23.633,1.754,1.754,3.549,3.466,5.147,5.022,9.65-9.65,19.125-19.109,28.702-28.687.913-.908,1.826-1.821,2.745-2.739-1.697-1.795-3.518-3.73-5.339-5.661h2.594c3.539,5.183,4.27,5.261,8.301.861.223-.244.348-.576.519-.861h2.594c-1.806,1.946-3.611,3.897-5.162,5.572.763.768,1.531,1.536,2.288,2.304,9.702,9.744,19.301,19.394,28.842,28.983,10.206-10.226,20.541-20.588,30.975-31.048-1.603-1.842-3.331-3.829-5.059-5.811h2.075c5.661,5.806,3.834,5.339,9.178.197.062-.057.109-.13.161-.197h2.075c-1.717,1.982-3.44,3.969-5.22,6.019.467.55.82,1.038,1.235,1.458,9.516,9.526,19.067,19.005,28.521,28.588,1.634,1.66,2.459.633,3.539-.446,9.267-9.282,18.543-18.554,27.805-27.841.534-.534.986-1.147,1.557-1.826-1.925-2.065-3.736-4.011-5.552-5.951h2.594c1.152,1.261,2.231,2.599,3.497,3.73.374.327,1.541.337,1.904.005,1.245-1.126,2.298-2.475,3.419-3.736h2.594c-1.821,1.93-3.647,3.865-6.143,6.506.228.187.451.368.68.545l-.866.877c-.042-.036-.083-.078-.125-.119-10.688,10.605-21.132,20.972-31.406,31.162,10.159,10.185,20.499,20.557,30.985,31.073.41-.363.877-.763,1.339-1.188.15-.14.306-.285.457-.436,3.922-3.902,7.803-7.84,11.757-11.71,2.568-2.522,5.23-4.95,7.85-7.419v2.075c-6.247,6.205-12.463,12.442-18.761,18.601-1.406,1.37-.929,2.278.208,3.404,6.2,6.138,12.374,12.307,18.554,18.466v2.075c-.664-.519-1.39-.97-1.982-1.562-5.635-5.603-11.249-11.238-16.878-16.852-.841-.841-1.743-1.619-2.397-2.221-10.569,10.553-20.982,20.956-31.136,31.099,10.258,10.304,20.64,20.743,31.686,31.841.036-.036.073-.078.109-.114l.82.783c-.093.093-.067.316-.093.483l-.566.566c.612.472,1.245.924,1.868,1.39l-.965.955c-.021-.026-.042-.047-.067-.073-1.432-1.453-2.283-1.463-3.736.005-9.292,9.412-18.642,18.761-28.059,28.038-1.546,1.52-1.276,2.35.109,3.725l.093.093c9.246,9.147,18.409,18.372,27.608,27.561.597.602,1.261,1.136,2.091,1.878,7.233-7.222,14.367-14.346,21.496-21.47v2.594c-6.169,6.164-12.312,12.359-18.543,18.46-1.385,1.349-1.385,2.2-.005,3.549,6.236,6.102,12.374,12.297,18.549,18.46v2.594c-7.108-7.144-14.221-14.289-20.883-20.982-.394.394-.789.783-1.183,1.173-10.283,10.206-20.333,20.178-30.171,29.942,10.18,10.154,20.557,20.505,31.141,31.053,6.916-6.864,14.009-13.91,21.096-20.951v2.594c-.654.54-1.354,1.038-1.956,1.634-5.251,5.214-10.486,10.449-15.726,15.679-2.61,2.599-2.636,2.62.042,5.271,5.868,5.801,11.762,11.575,17.641,17.366ZM259.75,42.268c1.199-1.199,1.069-2.055-.093-3.212-9.433-9.375-18.829-18.777-28.189-28.22-1.359-1.37-2.273-1.292-3.59.073-4.016,4.161-8.151,8.218-12.25,12.302-5.749,5.723-11.513,11.44-17.34,17.231.332.591.41.856.581,1.027,9.77,9.785,19.56,19.54,29.294,29.356,1.287,1.297,2.153.929,3.217-.145,9.443-9.479,18.891-18.964,28.37-28.412ZM229.668,137.227c10.289-10.263,20.665-20.614,30.954-30.871-10.258-10.258-20.624-20.614-30.648-30.632-10.356,10.294-20.79,20.66-30.83,30.638,10.117,10.232,20.416,20.65,30.524,30.866ZM260.316-90.856c-10.05-10.066-20.354-20.385-30.565-30.607-10.232,10.33-20.541,20.738-30.778,31.068,10.066,10.128,20.396,20.52,30.383,30.57,10.325-10.346,20.712-20.759,30.959-31.032ZM229.72,5.96c10.216-10.221,20.567-20.582,30.539-30.555-10.304-10.439-20.64-20.909-30.596-31.001-10.263,10.211-20.65,20.536-30.824,30.653,10.247,10.258,20.608,20.624,30.882,30.902ZM229.621,202.923c10.273-10.226,20.645-20.551,30.861-30.731-10.382-10.408-20.717-20.764-30.804-30.871-10.252,10.216-20.665,20.598-30.783,30.684,10.206,10.268,20.525,20.655,30.726,30.918ZM227.971,7.724c-.208-.27-.477-.711-.83-1.064-9.578-9.593-19.192-19.156-28.728-28.796-1.401-1.416-2.236-.955-3.372.192-5.951,6.013-11.913,12.016-17.931,17.957-3.912,3.865-7.923,7.627-11.622,11.176,10.891,10.849,21.314,21.236,31.525,31.411,10.123-10.097,20.494-20.442,30.959-30.876ZM220.827,81.156c2.475-2.485,4.939-4.976,7.186-7.233-10.59-10.631-20.93-21.008-30.985-31.105-10.325,10.294-20.754,20.686-31.265,31.156.093.13.322.498.623.799,9.583,9.588,19.192,19.145,28.739,28.77,1.427,1.442,2.309,1.11,3.57-.171,7.342-7.445,14.751-14.818,22.134-22.217ZM227.541-57.583c-10.237-10.258-20.681-20.717-30.627-30.679-10.242,10.149-20.697,20.505-30.83,30.549,10.185,10.263,20.515,20.671,30.747,30.975,10.294-10.335,20.681-20.774,30.71-30.845ZM196.675,169.956c10.377-10.294,20.826-20.665,30.809-30.57-10.247-10.299-20.634-20.733-30.861-31.006-10.185,10.175-20.562,20.536-30.814,30.778,10.335,10.315,20.764,20.723,30.866,30.798ZM227.826-123.258c-10.304-10.32-20.707-20.743-30.871-30.923-10.32,10.294-20.738,20.686-31.001,30.923,10.242,10.258,20.64,20.671,30.99,31.032,10.216-10.268,20.551-20.655,30.882-31.032ZM195.699,41.044c-1.147-1.245-1.811-2.029-2.532-2.75-9.038-9.043-18.123-18.04-27.094-27.151-1.614-1.64-2.527-1.608-4.125.016-9.209,9.35-18.507,18.616-27.851,27.841-1.292,1.271-1.38,2.055-.083,3.341,9.448,9.36,18.875,18.746,28.225,28.204,1.505,1.52,2.397,1.271,3.751-.125,5.064-5.194,10.211-10.315,15.373-15.415,4.664-4.607,9.391-9.152,14.336-13.962ZM195.17-90.784c-.244-.285-.602-.758-1.017-1.178-9.516-9.547-19.067-19.057-28.536-28.656-1.432-1.453-2.226-.877-3.347.254-9.329,9.375-18.668,18.746-28.069,28.049-1.406,1.39-1.302,2.226.042,3.554,9.396,9.308,18.725,18.689,28.085,28.033.529.529,1.157.96,1.577,1.307,10.486-10.522,20.826-20.894,31.265-31.364ZM194.796-24.989c-10.164-10.247-20.474-20.64-30.622-30.871-10.346,10.356-20.743,20.759-30.902,30.928,10.195,10.232,20.531,20.603,30.684,30.793,10.289-10.294,20.686-20.697,30.84-30.85ZM194.853,106.335c-10.175-10.206-20.52-20.577-30.695-30.783-10.315,10.294-20.723,20.676-30.721,30.648,10.2,10.299,20.546,20.743,30.664,30.959,10.211-10.237,20.546-20.598,30.752-30.824ZM162.317,7.677c-.088-.13-.223-.457-.457-.69-9.765-9.78-19.555-19.534-29.283-29.351-1.416-1.432-2.179-.597-3.149.379-5.116,5.137-10.226,10.278-15.368,15.394-4.763,4.737-9.562,9.438-14.253,14.071,10.683,10.647,21.101,21.029,31.312,31.208,10.346-10.283,20.728-20.608,31.198-31.011ZM161.44,140.61c1.551-1.531.581-2.335-.441-3.352-9.225-9.215-18.434-18.434-27.654-27.644-.649-.649-1.359-1.23-1.603-1.448-10.626,10.626-21.034,21.034-31.203,31.208,10.097,10.169,20.422,20.567,30.814,31.032.202-.14.514-.291.752-.529,9.775-9.759,19.519-19.555,29.335-29.268ZM155.126,81.27c2.49-2.485,5.043-4.908,7.253-7.056-10.699-10.761-21.07-21.19-31.302-31.478-10.216,10.159-20.598,20.484-31.193,31.022.483.529.918,1.053,1.401,1.536,9.334,9.344,18.709,18.647,27.971,28.064,1.567,1.593,2.459,1.427,3.917-.057,7.264-7.399,14.616-14.709,21.952-22.03ZM131.098-26.883c10.304-10.299,20.712-20.691,31.032-31.001-10.175-10.18-20.531-20.541-30.747-30.767-10.325,10.351-20.717,20.769-30.933,31.011,10.169,10.206,20.567,20.64,30.648,30.757ZM162.125-123.58c-10.195-10.206-20.557-20.577-30.783-30.809-10.335,10.341-20.759,20.764-30.897,30.902,10.361,10.403,20.702,20.785,30.669,30.793,10.258-10.221,20.686-20.603,31.011-30.887ZM128.281-88.781c1.588-1.567,1.012-2.553-.27-3.824-9.303-9.251-18.569-18.543-27.851-27.815-.524-.524-1.141-.949-1.728-1.432-.457.327-.758.498-.996.732-9.708,9.713-19.389,19.457-29.149,29.117-1.531,1.515-.659,2.293.4,3.341,7.897,7.866,15.799,15.726,23.644,23.644,1.93,1.951,3.658,4.099,5.484,6.164,1.043-.747,1.276-.872,1.458-1.048,9.666-9.63,19.301-19.291,29.008-28.879ZM129.593,40.722c-.477-.612-.835-1.193-1.302-1.66-9.401-9.412-18.834-18.787-28.194-28.23-1.401-1.411-2.252-1.204-3.564.119-9.22,9.334-18.481,18.621-27.82,27.836-1.546,1.525-1.531,2.418,0,3.928,9.396,9.282,18.709,18.637,28.012,28.012,1.136,1.141,1.935,1.365,3.175.114,9.427-9.505,18.907-18.948,28.36-28.427.467-.472.835-1.053,1.333-1.691ZM128.135,173.883c1.406-1.396,1.52-2.371.042-3.819-5.982-5.853-11.913-11.762-17.77-17.744-3.855-3.933-7.549-8.026-11.383-12.12-1.199.96-1.557,1.199-1.857,1.499-9.599,9.578-19.171,19.187-28.806,28.728-1.411,1.396-.908,2.231.239,3.372,8.146,8.099,16.24,16.25,24.36,24.37,1.754,1.754,3.559,3.445,5.37,5.194.617-.477,1.064-.747,1.416-1.105,9.464-9.458,18.896-18.953,28.391-28.375ZM97.653,6.712c11.051-11.015,21.418-21.356,31.727-31.629-10.315-10.242-20.712-20.562-31.224-31.001-.125.093-.586.337-.939.69-9.671,9.64-19.317,19.306-29.008,28.92-1.396,1.385-.586,2.2.405,3.181,7.217,7.196,14.455,14.372,21.605,21.631,2.651,2.693,5.085,5.598,7.435,8.208ZM98.432,137.315c10.283-10.309,20.629-20.676,30.897-30.97-10.258-10.216-20.64-20.557-30.85-30.731-10.309,10.232-20.702,20.541-30.861,30.627,10.258,10.346,20.577,20.754,30.814,31.073ZM96.906,8.02c-.4-.529-.7-1.038-1.105-1.453-1.318-1.359-2.677-2.693-4.021-4.037-8.12-8.12-16.255-16.229-24.339-24.386-1.25-1.261-2.127-1.645-3.58-.176C54.512-12.573,45.084-3.187,35.673,6.209c-.981.975-1.816,1.733-.384,3.149,9.687,9.599,19.322,19.254,28.936,28.925,1.038,1.043,1.748,1.001,2.765-.016,9.557-9.614,19.145-19.187,28.718-28.78.415-.415.747-.908,1.199-1.468ZM95.755,74.966c.41-.41.721-.924,1.141-1.474-.42-.54-.737-1.048-1.147-1.458-9.51-9.531-19.057-19.026-28.531-28.588-1.313-1.323-2.127-1.141-3.352.093-9.417,9.5-18.881,18.959-28.375,28.381-1.188,1.178-1.25,1.966-.042,3.17,9.562,9.49,19.083,19.021,28.588,28.573,1.064,1.069,1.826,1.24,2.983.078,9.552-9.614,19.156-19.182,28.733-28.775ZM95.796-56.301c1.193-1.183.882-1.951-.15-2.978-9.552-9.51-19.083-19.042-28.583-28.604-1.126-1.136-1.883-1.053-2.973.042-9.5,9.562-19.026,19.099-28.599,28.588-1.24,1.23-1.152,2.044.021,3.181,2.797,2.693,5.526,5.453,8.265,8.213,7.108,7.16,14.211,14.33,21.449,21.636.659-.441.975-.591,1.209-.82,9.785-9.754,19.55-19.529,29.361-29.258ZM95.345-121.483c.529-.534.996-1.136,1.385-1.588-10.538-10.527-20.951-20.925-31.25-31.214-10.252,10.216-20.624,20.546-31.224,31.115.747.783,1.385,1.479,2.049,2.143,9.095,9.111,18.243,18.175,27.26,27.364,1.676,1.707,2.589,1.442,4.12-.114,9.168-9.287,18.434-18.476,27.659-27.706ZM95.101,141.295c.638-.643,1.204-1.365,1.619-1.842-10.579-10.595-20.93-20.956-31.198-31.24-10.242,10.252-20.588,20.603-31.125,31.156.327.394.617.815.975,1.173,9.578,9.609,19.192,19.182,28.723,28.837,1.494,1.515,2.278.669,3.336-.4,9.209-9.241,18.45-18.455,27.67-27.685ZM62.87,173.546c1.686-1.671.514-2.485-.54-3.539-9.225-9.22-18.481-18.409-27.628-27.706-1.541-1.567-2.402-1.515-3.907.01-9.09,9.22-18.243,18.377-27.468,27.468-1.66,1.634-1.816,2.641-.057,4.353,6.434,6.262,12.706,12.696,19.057,19.042,3.398,3.404,6.838,6.761,10.315,10.19.56-.42.934-.633,1.23-.924,9.661-9.635,19.285-19.311,28.998-28.894ZM62.777,107.944c1.365-1.354,1.074-2.19-.125-3.372-5.962-5.878-11.892-11.783-17.776-17.739-3.922-3.974-7.746-8.047-11.352-11.798-10.911,10.823-21.35,21.169-31.722,31.452,10.263,10.258,20.619,20.603,31.058,31.032.374-.296.882-.623,1.297-1.038,9.536-9.516,19.042-19.062,28.619-28.536ZM62.616,42.564c1.318-1.302,1.52-2.174.114-3.57-9.51-9.412-18.953-18.891-28.427-28.344-.41-.41-.918-.726-1.489-1.173-.602.477-1.173.841-1.645,1.313C21.814,20.119,12.485,29.484,3.1,38.787c-1.37,1.354-1.619,2.288-.093,3.788,9.407,9.277,18.751,18.616,28.059,27.997,1.339,1.349,2.153,1.416,3.533.016,9.282-9.396,18.632-18.73,28.017-28.023ZM62.294-22.82c1.645-1.614,1.723-2.496.078-4.109-8.13-8.001-16.146-16.12-24.22-24.188-1.748-1.743-3.544-3.44-5.323-5.162-.54.431-.835.617-1.074.856-9.666,9.645-19.306,19.311-29.019,28.91-1.38,1.359-1.043,2.221.14,3.383,4.374,4.301,8.706,8.639,13.028,12.992C21.373-4.625,26.816.917,32.544,6.723c1.116-1.043,1.883-1.717,2.605-2.439,9.038-9.049,18.025-18.144,27.146-27.104ZM62.227-88.366c1.707-1.676,1.785-2.605.057-4.291-6.377-6.2-12.644-12.525-18.875-18.87-3.435-3.502-6.719-7.144-10.076-10.724-.218.166-.431.337-.649.503-.342.239-.732.431-1.027.721-9.599,9.567-19.161,19.171-28.801,28.697-1.624,1.603-.913,2.553.337,3.798,8.82,8.768,17.599,17.578,26.399,26.362,1.017,1.012,2.096,1.961,3.217,3.004.711-.638,1.235-1.074,1.712-1.551,9.225-9.23,18.393-18.507,27.706-27.649ZM31.236,7.636c-.332-.384-.649-.789-1.007-1.147C20.818-2.918,11.37-12.283,2.026-21.762c-1.629-1.655-2.558-1.536-4.125.057C-11.262-12.402-20.528-3.208-29.753,6.032c-.54.54-1.032,1.131-1.318,1.448C-20.565,18.018-10.172,28.441.127,38.771,10.301,28.592,20.662,18.22,31.236,7.636ZM25.851,79.428c1.878-1.852,3.985-3.476,5.697-4.955C20.517,63.37,10.14,52.936-.325,42.409c-.218.182-.571.42-.872.716-9.656,9.635-19.28,19.306-28.983,28.894-1.468,1.448-.825,2.236.291,3.341,9.308,9.256,18.616,18.507,27.826,27.862,1.603,1.629,2.522,1.624,4.114.005,7.86-8.006,15.82-15.918,23.799-23.799ZM-.039-26.727c10.226-10.252,20.624-20.671,30.529-30.591-10.252-10.366-20.634-20.868-30.809-31.151-10.169,10.175-20.52,20.52-30.721,30.726C-20.736-47.434-10.328-37.021-.039-26.727ZM.142-92.402c10.169-10.19,20.515-20.562,30.632-30.705-10.424-10.418-20.832-20.821-30.804-30.788-10.185,10.138-20.603,20.51-30.747,30.601,10.221,10.211,20.614,20.598,30.918,30.892ZM30.676,139.318C20.413,129.009,10.031,118.575.023,108.514c-10.273,10.2-20.702,20.567-31.048,30.84,10.2,10.2,20.551,20.546,30.726,30.715,10.434-10.356,20.878-20.728,30.975-30.752ZM-2.67-89.154c1.396-1.385.591-2.184-.4-3.17-9.365-9.339-18.735-18.668-28.038-28.064-1.349-1.359-2.174-1.406-3.554-.01-9.287,9.401-18.658,18.72-27.997,28.075-.529.534-.986,1.152-1.349,1.582,10.455,10.486,20.795,20.857,31.229,31.328.233-.13.415-.182.529-.301,9.858-9.816,19.69-19.654,29.579-29.439ZM-3.158,173.894c1.64-1.608,1.313-2.506-.125-3.928-9.22-9.116-18.367-18.31-27.551-27.468-.643-.649-1.37-1.209-1.998-1.759-10.517,10.517-20.832,20.832-31.053,31.048,10.429,10.475,20.769,20.852,31.224,31.359.462-.405,1.058-.877,1.598-1.416,9.292-9.287,18.538-18.621,27.903-27.836ZM-32.892,5.944C-22.578-4.313-12.196-14.638-1.881-24.896c-10.315-10.226-20.717-20.536-30.939-30.669-10.206,10.159-20.614,20.52-30.726,30.591,10.19,10.278,20.505,20.681,30.653,30.918ZM-2.063,40.961c-10.361-10.449-20.66-20.832-31.042-31.297-.13.093-.441.249-.674.483-9.723,9.682-19.425,19.394-29.185,29.045-1.422,1.411-.825,2.247.306,3.367,7.103,7.051,14.159,14.159,21.247,21.231,2.786,2.781,5.614,5.51,8.374,8.208,10.595-10.616,20.935-20.977,30.975-31.037ZM-1.845,106.392c-10.289-10.283-20.65-20.64-30.887-30.871-10.377,10.346-20.749,20.681-30.778,30.684,10.226,10.315,20.572,20.754,30.731,30.996,10.263-10.221,20.64-20.557,30.933-30.809ZM-34.599,7.667c-.052-.078-.197-.4-.431-.628-9.765-9.785-19.545-19.55-29.289-29.351-1.043-1.048-1.774-.996-2.781.036-2.765,2.854-5.614,5.619-8.431,8.421-7.144,7.129-14.289,14.258-21.21,21.164,10.61,10.704,20.977,21.153,31.115,31.374,10.206-10.2,20.572-20.562,31.027-31.016ZM-38.812,78.281c1.51-1.499,3.284-2.734,4.753-3.938-11.01-11.036-21.361-21.407-31.608-31.675-10.382,10.377-20.759,20.749-31.219,31.203.14.176.379.534.674.83,9.578,9.593,19.182,19.166,28.728,28.796,1.365,1.375,2.252,1.266,3.575-.078,8.317-8.426,16.686-16.8,25.096-25.138ZM-34.714-123.253c-10.273-10.252-20.65-20.608-31.032-30.97-10.237,10.232-20.655,20.64-30.954,30.928,10.304,10.304,20.717,20.717,30.985,30.985,10.315-10.294,20.728-20.691,31.001-30.944ZM-65.559-27.023c10.2-10.159,20.588-20.499,30.887-30.757-10.309-10.278-20.728-20.676-31.053-30.975-10.273,10.278-20.681,20.697-30.695,30.721,10.304,10.351,20.733,20.832,30.861,31.011ZM-65.844,169.841c10.325-10.2,20.785-20.546,30.804-30.451-10.247-10.33-20.619-20.785-30.767-31.016-10.216,10.2-20.588,20.562-30.684,30.638,10.398,10.46,20.769,20.894,30.648,30.83ZM-67.126,41.07c-.368-.643-.457-.903-.628-1.079-9.765-9.791-19.555-19.555-29.283-29.382-1.307-1.318-2.158-.861-3.206.192-9.453,9.474-18.907,18.953-28.401,28.386-1.11,1.1-1.183,1.883-.078,2.989,9.495,9.438,18.99,18.886,28.412,28.396,1.51,1.531,2.454,1.183,3.782-.171,5.936-6.045,11.939-12.022,17.936-17.999,3.788-3.777,7.606-7.518,11.466-11.332ZM-67.338,171.797c-.27-.327-.607-.82-1.017-1.235-9.526-9.536-19.078-19.047-28.562-28.625-1.271-1.282-2.07-1.007-3.175.099-9.573,9.619-19.182,19.202-28.77,28.811-.337.337-.529.825-.773,1.214,10.449,10.398,20.795,20.691,31.084,30.933,10.398-10.392,20.754-20.743,31.214-31.198ZM-98.993-59.077c10.839-10.823,21.2-21.169,31.281-31.24-10.289-10.32-20.665-20.728-31.105-31.198-.104.078-.415.244-.654.483-9.728,9.702-19.436,19.42-29.195,29.097-1.214,1.204-.815,1.977.208,2.978,3.388,3.331,6.74,6.698,10.071,10.086,6.475,6.589,12.93,13.194,19.394,19.794ZM-67.888,106.537c-10.169-10.294-20.468-20.717-30.477-30.856-10.32,10.283-20.733,20.66-30.866,30.762,10.195,10.263,20.515,20.65,30.581,30.783,10.351-10.33,20.764-20.717,30.762-30.69ZM-98.485,5.981c10.315-10.33,20.671-20.707,30.767-30.824-10.247-10.309-20.619-20.743-30.783-30.97-10.315,10.247-20.712,20.588-30.996,30.809,10.32,10.309,20.686,20.665,31.011,30.985Z"/>
        <path class="cls-7" d="M193.167,38.294c.721.721,1.385,1.505,2.532,2.75-4.945,4.81-9.671,9.355-14.336,13.962-5.162,5.1-10.309,10.221-15.373,15.415-1.354,1.396-2.247,1.645-3.751.125-9.35-9.458-18.777-18.844-28.225-28.204-1.297-1.287-1.209-2.07.083-3.341,9.344-9.225,18.642-18.492,27.851-27.841,1.598-1.624,2.511-1.655,4.125-.016,8.971,9.111,18.056,18.108,27.094,27.151ZM191.668,42.377c1.152-1.141,1.333-1.972.088-3.201-8.717-8.623-17.407-17.277-26.046-25.984-1.339-1.354-2.21-1.074-3.409.13-8.582,8.628-17.189,17.236-25.833,25.802-1.167,1.157-1.287,1.972-.057,3.191,8.706,8.623,17.36,17.309,26.046,25.958.467.467,1.048.82,1.66,1.292.659-.529,1.224-.908,1.697-1.38,8.623-8.597,17.215-17.226,25.854-25.807Z"/>
        <path class="cls-5" d="M191.772,104.96c1.032,1.022,1.1,1.754.067,2.776-8.815,8.774-17.615,17.563-26.388,26.383-1.141,1.147-1.925.949-2.994-.13-8.634-8.701-17.293-17.381-26.01-26.004-1.339-1.328-1.147-2.122.088-3.352,8.659-8.566,17.246-17.205,25.875-25.807.462-.467,1.032-.82,1.614-1.271.602.493,1.1.825,1.515,1.24,8.742,8.722,17.464,17.469,26.233,26.165ZM175.137,115.545c2.444-1.956,3.461-6.268,1.505-8.649-3.928-4.779-8.198-9.277-12.566-14.154-1.764,1.925-3.274,3.554-4.763,5.194-2.553,2.812-5.292,5.479-7.58,8.488-2.267,2.983-1.588,6.859,1.121,9.075,2.475,2.029,5.754,1.515,8.488-1.318.555-.571,1.162-1.09,1.748-1.629.239.182.477.363.721.545-1.333,2.086-2.662,4.171-4.104,6.439h8.462c-1.37-2.273-2.605-4.322-3.839-6.366.425-.306.851-.612,1.271-.924.524.794.939,1.691,1.593,2.356,2.288,2.324,5.754,2.693,7.943.944Z"/>
        <path class="cls-5" d="M191.756,39.176c1.245,1.23,1.064,2.06-.088,3.201-8.639,8.582-17.231,17.21-25.854,25.807-.472.472-1.038.851-1.697,1.38-.612-.472-1.193-.825-1.66-1.292-8.685-8.649-17.34-17.335-26.046-25.958-1.23-1.219-1.11-2.034.057-3.191,8.644-8.566,17.252-17.174,25.833-25.802,1.199-1.204,2.07-1.484,3.409-.13,8.639,8.706,17.329,17.36,26.046,25.984ZM174.1,48.111c2.345-1.188,3.679-3.673,3.461-6.449-.223-2.931-1.92-5.183-4.95-5.889-1.551-.363-1.832-1.064-1.961-2.433-.358-3.829-2.968-6.153-6.662-6.138-3.507.016-6.174,2.376-6.517,6.029-.14,1.468-.394,2.19-2.091,2.573-3.585.809-5.5,4.275-4.696,7.757.825,3.585,3.86,5.78,7.534,5.012,1.826-.384,3.487-1.551,5.712-2.589-.021.047-.042.088-.062.135-1.214,2.734-2.345,5.271-3.502,7.866h7.435c-1.209-2.682-2.335-5.168-3.455-7.653.233-.125.467-.244.7-.368.368.342.742.68,1.116,1.017,2.205,1.992,5.36,2.439,7.938,1.131Z"/>
        <path class="cls-5" d="M192.856-24.807c-.477.566-.825,1.048-1.245,1.463-8.665,8.675-17.355,17.324-25.994,26.03-1.162,1.167-1.94,1.292-3.17.052-8.634-8.706-17.314-17.376-26.036-25.999-1.204-1.193-1.235-1.992-.042-3.175,8.701-8.634,17.381-17.293,26.015-25.994,1.178-1.188,2.018-1.256,3.206-.062,8.644,8.696,17.329,17.35,25.989,26.03.467.472.82,1.053,1.276,1.655ZM175.22-15.717c2.439-1.821,3.383-6.309,1.276-8.903-3.845-4.727-8.099-9.121-12.452-13.957-4.379,4.851-8.628,9.256-12.499,13.972-2.138,2.599-1.235,6.864,1.302,8.893,2.563,2.039,5.77,1.51,8.473-1.365.56-.591,1.256-1.058,1.883-1.582.187.187.368.368.55.555-1.318,2.112-2.641,4.223-4.042,6.46h8.509c-1.313-2.2-2.599-4.358-3.881-6.511.394-.316.789-.628,1.183-.939.374.674.623,1.463,1.131,2.013,2.599,2.797,5.972,3.3,8.566,1.365Z"/>
        <path class="cls-7" d="M163.552,141.103c10.424,10.486,20.79,20.915,31.136,31.323-9.915,9.967-20.204,20.297-30.664,30.809-.524-.436-1.147-.861-1.671-1.385-9.35-9.35-18.684-18.72-28.054-28.054-1.1-1.1-1.795-1.904-.327-3.357,9.848-9.708,19.628-19.493,29.429-29.247.078-.078.187-.13.202-.13-.01.016-.026.026-.052.042ZM192.929,172.036c-.519-.633-.949-1.25-1.479-1.78-8.416-8.426-16.888-16.8-25.242-25.294-1.665-1.697-2.651-1.707-4.332.005-8.333,8.514-16.764,16.93-25.242,25.304-1.385,1.37-1.385,2.195-.016,3.549,8.608,8.488,17.168,17.023,25.667,25.615,1.39,1.401,2.226,1.302,3.559-.047,8.556-8.654,17.189-17.236,25.786-25.849.42-.415.773-.898,1.297-1.505Z"/>
        <path class="cls-7" d="M164.174-55.86c10.149,10.232,20.458,20.624,30.622,30.871-10.154,10.154-20.551,20.557-30.84,30.85-10.154-10.19-20.489-20.562-30.684-30.793,10.159-10.169,20.557-20.572,30.902-30.928ZM191.611-23.344c.42-.415.768-.898,1.245-1.463-.457-.602-.809-1.183-1.276-1.655-8.659-8.68-17.345-17.335-25.989-26.03-1.188-1.193-2.029-1.126-3.206.062-8.634,8.701-17.314,17.36-26.015,25.994-1.193,1.183-1.162,1.982.042,3.175,8.722,8.623,17.402,17.293,26.036,25.999,1.23,1.24,2.008,1.116,3.17-.052,8.639-8.706,17.329-17.355,25.994-26.03Z"/>
        <path class="cls-7" d="M164.159,75.552c10.175,10.206,20.52,20.577,30.695,30.783-10.206,10.226-20.541,20.588-30.752,30.824-10.117-10.216-20.463-20.66-30.664-30.959,9.998-9.972,20.406-20.354,30.721-30.648ZM191.839,107.736c1.032-1.022.965-1.754-.067-2.776-8.768-8.696-17.49-17.443-26.233-26.165-.415-.415-.913-.747-1.515-1.24-.581.451-1.152.804-1.614,1.271-8.628,8.602-17.215,17.241-25.875,25.807-1.235,1.23-1.427,2.023-.088,3.352,8.717,8.623,17.376,17.303,26.01,26.004,1.069,1.079,1.852,1.276,2.994.13,8.774-8.82,17.573-17.61,26.388-26.383Z"/>
        <path class="cls-7" d="M161.86,6.987c.233.233.368.56.457.69-10.47,10.403-20.852,20.728-31.198,31.011-10.211-10.18-20.629-20.562-31.312-31.208,4.69-4.633,9.49-9.334,14.253-14.071,5.142-5.116,10.252-10.258,15.368-15.394.97-.975,1.733-1.811,3.149-.379,9.728,9.816,19.519,19.571,29.283,29.351ZM160.2,8.279c-.389-.654-.503-.996-.732-1.224-8.971-9.002-17.957-17.983-26.912-27.001-1.058-1.064-1.759-.903-2.76.13-3.606,3.72-7.285,7.373-10.974,11.015-5.52,5.453-11.072,10.875-16.561,16.261.389.789.431.975.54,1.09,9.038,9.049,18.108,18.066,27.099,27.156,1.302,1.313,1.982.664,2.926-.285,5.609-5.64,11.233-11.259,16.878-16.862,3.481-3.455,7.01-6.869,10.496-10.278Z"/>
        <path class="cls-7" d="M160.999,137.258c1.022,1.017,1.992,1.821.441,3.352-9.816,9.713-19.56,19.508-29.335,29.268-.239.239-.55.389-.752.529-10.392-10.465-20.717-20.863-30.814-31.032,10.169-10.175,20.577-20.582,31.203-31.208.244.218.955.799,1.603,1.448,9.22,9.209,18.429,18.429,27.654,27.644ZM159.645,139.173c-9.464-9.474-19.016-19.036-28.645-28.682-.156.104-.472.254-.706.488-8.924,8.914-17.817,17.859-26.793,26.726-1.365,1.354-.804,2.086.254,3.134,8.701,8.649,17.366,17.34,26.046,26.004.41.41.908.737,1.084.877,9.723-9.65,19.317-19.176,28.759-28.547Z"/>
        <path class="cls-10" d="M159.468,7.055c.228.228.342.571.732,1.224-3.487,3.409-7.015,6.823-10.496,10.278-5.645,5.603-11.269,11.223-16.878,16.862-.944.949-1.624,1.598-2.926.285-8.992-9.09-18.061-18.108-27.099-27.156-.109-.114-.15-.301-.54-1.09,5.489-5.386,11.041-10.807,16.561-16.261,3.689-3.642,7.368-7.295,10.974-11.015,1.001-1.032,1.702-1.193,2.76-.13,8.955,9.017,17.942,17.999,26.912,27.001ZM140.743,13.867c3.419-3.57,4.483-8.068,3.705-12.955-.503-3.155-2.817-5.92-5.334-6.351-3.232-.555-5.209,1.162-6.698,3.756-.285.503-.68.949-1.23,1.712-.877-1.266-1.453-2.221-2.148-3.077-2.89-3.533-6.911-3.435-9.5.337-1.785,2.599-2.319,5.583-1.686,8.665,1.489,7.196,6.413,11.612,12.504,14.963.56.306,1.754.125,2.298-.296,2.781-2.153,5.676-4.229,8.089-6.755Z"/>
        <path class="cls-10" d="M159.033,72.242c1.09,1.079.908,1.785-.078,2.765-8.763,8.711-17.495,17.459-26.222,26.202-.866.872-1.546,1.489-2.75.275-8.997-9.075-18.056-18.092-27.089-27.135-.171-.171-.254-.436-.597-1.027,6.994-6.958,13.91-13.832,20.816-20.707,2.205-2.195,4.436-4.358,6.574-6.615,1.022-1.079,1.78-1.354,2.963-.161,8.763,8.836,17.558,17.635,26.383,26.404ZM131.311,86.64c2.921-5.904,7.217-9.863,12.836-13.059-5.702-3.212-9.889-7.212-12.94-13.122-3.009,5.972-7.233,10.117-13.22,13.189,6.195,2.906,10.081,7.305,13.324,12.992Z"/>
        <path class="cls-7" d="M162.379,74.214c-2.21,2.148-4.763,4.571-7.253,7.056-7.336,7.321-14.688,14.631-21.952,22.03-1.458,1.484-2.35,1.65-3.917.057-9.261-9.417-18.637-18.72-27.971-28.064-.483-.483-.918-1.007-1.401-1.536,10.595-10.538,20.977-20.863,31.193-31.022,10.232,10.289,20.603,20.717,31.302,31.478ZM158.955,75.007c.986-.981,1.167-1.686.078-2.765-8.826-8.768-17.62-17.568-26.383-26.404-1.183-1.193-1.94-.918-2.963.161-2.138,2.257-4.369,4.421-6.574,6.615-6.906,6.875-13.822,13.749-20.816,20.707.342.591.425.856.597,1.027,9.033,9.043,18.092,18.061,27.089,27.135,1.204,1.214,1.883.597,2.75-.275,8.727-8.742,17.459-17.49,26.222-26.202Z"/>
        <path class="cls-7" d="M144.443,132.101c.851,4.898-.316,9.292-3.596,12.997-1.582,1.795-3.409,3.414-5.303,4.887-4.151,3.232-4.576,3.238-8.722.073-4.114-3.139-7.601-6.781-8.82-12.073-.732-3.175-.363-6.2,1.276-8.992,2.553-4.353,7.165-4.514,10.066-.425.54.763,1.079,1.531,1.624,2.288.042.057.161.057.41.135.363-.488.789-1.001,1.162-1.557,1.499-2.221,3.191-4.213,6.247-3.72,2.75.446,5.095,3.186,5.655,6.387Z"/>
        <path class="cls-7" d="M144.448.912c.778,4.887-.285,9.386-3.705,12.955-2.413,2.527-5.308,4.602-8.089,6.755-.545.42-1.738.602-2.298.296-6.091-3.352-11.015-7.767-12.504-14.963-.633-3.082-.099-6.065,1.686-8.665,2.589-3.772,6.61-3.871,9.5-.337.695.856,1.271,1.811,2.148,3.077.55-.763.944-1.209,1.23-1.712,1.489-2.594,3.466-4.312,6.698-3.756,2.516.431,4.83,3.196,5.334,6.351Z"/>
        <path class="cls-10" d="M130.999,110.491c9.63,9.645,19.182,19.208,28.645,28.682-9.443,9.37-19.036,18.896-28.759,28.547-.176-.14-.674-.467-1.084-.877-8.68-8.665-17.345-17.355-26.046-26.004-1.058-1.048-1.619-1.78-.254-3.134,8.976-8.867,17.869-17.812,26.793-26.726.233-.233.55-.384.706-.488ZM140.847,145.098c3.279-3.705,4.446-8.099,3.596-12.997-.56-3.201-2.906-5.941-5.655-6.387-3.056-.493-4.747,1.499-6.247,3.72-.374.555-.799,1.069-1.162,1.557-.249-.078-.368-.078-.41-.135-.545-.758-1.084-1.525-1.624-2.288-2.9-4.088-7.513-3.928-10.066.425-1.64,2.791-2.008,5.816-1.276,8.992,1.219,5.292,4.706,8.934,8.82,12.073,4.146,3.165,4.571,3.16,8.722-.073,1.894-1.474,3.72-3.092,5.303-4.887Z"/>
        <path class="cls-7" d="M144.147,73.581c-5.619,3.196-9.915,7.155-12.836,13.059-3.243-5.687-7.129-10.086-13.324-12.992,5.987-3.072,10.211-7.217,13.22-13.189,3.051,5.91,7.238,9.91,12.94,13.122Z"/>
        <path class="cls-7" d="M128.291,39.062c.467.467.825,1.048,1.302,1.66-.498.638-.866,1.219-1.333,1.691-9.453,9.479-18.933,18.922-28.36,28.427-1.24,1.25-2.039,1.027-3.175-.114-9.303-9.375-18.616-18.73-28.012-28.012-1.531-1.51-1.546-2.402,0-3.928,9.339-9.215,18.601-18.502,27.82-27.836,1.313-1.323,2.164-1.531,3.564-.119,9.36,9.443,18.792,18.818,28.194,28.23ZM125.749,42.595c1.302-1.292,1.494-2.21.083-3.606-8.649-8.561-17.246-17.174-25.818-25.812-1.157-1.162-1.935-1.276-3.17-.026-8.618,8.706-17.293,17.36-25.999,25.984-1.147,1.136-1.359,1.925-.104,3.165,8.774,8.68,17.485,17.418,26.227,26.129.41.405.924.711,1.494,1.147.602-.508,1.152-.903,1.624-1.375,8.551-8.535,17.075-17.096,25.662-25.605Z"/>
        <path class="cls-7" d="M128.177,170.065c1.479,1.448,1.365,2.423-.042,3.819-9.495,9.422-18.927,18.917-28.391,28.375-.353.358-.799.628-1.416,1.105-1.811-1.748-3.616-3.44-5.37-5.194-8.12-8.12-16.214-16.271-24.36-24.37-1.147-1.141-1.65-1.977-.239-3.372,9.635-9.542,19.208-19.15,28.806-28.728.301-.301.659-.54,1.857-1.499,3.834,4.094,7.528,8.187,11.383,12.12,5.858,5.982,11.788,11.892,17.77,17.744ZM125.562,174.023c1.536-1.515,1.598-2.449.047-3.98-8.608-8.499-17.127-17.091-25.683-25.636-.42-.415-.918-.747-1.546-1.256-.638.524-1.266.949-1.795,1.479-8.514,8.478-16.992,16.992-25.537,25.439-1.401,1.385-1.546,2.324-.047,3.803,8.556,8.436,17.049,16.935,25.486,25.486,1.453,1.474,2.345,1.411,3.777-.042,8.374-8.488,16.8-16.93,25.299-25.294Z"/>
        <path class="cls-5" d="M126.237,105.095c.353.353.623.789.996,1.271-.394.54-.68,1.074-1.09,1.484-8.784,8.8-17.589,17.584-26.373,26.388-.903.903-1.64.991-2.61.016-8.831-8.877-17.677-17.729-26.56-26.554-1.442-1.437-.389-2.257.534-3.186,6.776-6.776,13.552-13.552,20.328-20.323,1.894-1.894,3.834-3.741,5.676-5.681.944-.991,1.645-.929,2.579.005,8.826,8.872,17.682,17.718,26.518,26.58ZM108.368,113.786c2.496-1.167,3.715-3.471,3.523-6.61-.208-3.326-2.267-4.971-5.209-6.003-.685-.244-1.406-1.333-1.515-2.112-.503-3.673-2.812-6.07-6.408-6.335-3.149-.233-6.48,2.132-6.818,5.479-.228,2.262-1.287,2.942-3.118,3.606-2.662.96-4.146,3.554-4.011,6.33.13,2.631,1.878,4.882,4.415,5.837,3.362,1.266,5.967-.171,8.353-2.48.182.135.363.275.545.415-1.09,2.501-2.179,5.002-3.404,7.809,2.215,0,4.177.005,6.133-.005.42,0,.846-.062,1.359-.104-1.204-2.646-2.304-5.054-3.404-7.456.872-.213,1.136-.15,1.302.016,2.387,2.423,5.121,3.077,8.255,1.614Z"/>
        <path class="cls-5" d="M126.086-26.431c1.069,1.064,1.214,1.816.047,2.973-8.826,8.758-17.589,17.573-26.378,26.362-.358.353-.778.643-1.313,1.084-.576-.457-1.141-.82-1.608-1.287-8.551-8.545-17.065-17.127-25.652-25.636-1.38-1.37-1.645-2.267-.114-3.777,8.67-8.545,17.272-17.168,25.828-25.833,1.261-1.271,2.06-1.064,3.186.073,8.644,8.701,17.314,17.381,26.004,26.041ZM108.212-17.424c2.62-1.09,3.969-3.715,3.658-6.807-.322-3.248-2.231-5.043-5.391-5.775-.566-.13-1.219-1.136-1.313-1.811-.586-4.182-2.823-6.491-6.584-6.569-3.907-.083-6.242,2.195-6.978,6.511-.125.742-.981,1.691-1.707,1.946-2.89.991-4.81,3.077-5.064,5.904-.239,2.641,1.152,5.126,3.57,6.377,2.506,1.297,5.583.949,7.752-.872.477-.4.96-.794,1.442-1.193.187.13.374.259.56.384-.01.021-.016.036-.026.057-1.126,2.542-2.257,5.09-3.388,7.637h7.471c-1.214-2.61-2.309-4.976-3.404-7.336.223-.13.441-.259.664-.389.145.073.322.114.431.228,2.387,2.444,5.23,2.978,8.307,1.707Z"/>
        <path class="cls-5" d="M125.832,38.989c1.411,1.396,1.219,2.314-.083,3.606-8.587,8.509-17.111,17.07-25.662,25.605-.472.472-1.022.866-1.624,1.375-.571-.436-1.084-.742-1.494-1.147-8.742-8.711-17.454-17.449-26.227-26.129-1.256-1.24-1.043-2.029.104-3.165,8.706-8.623,17.381-17.277,25.999-25.984,1.235-1.25,2.013-1.136,3.17.026,8.571,8.639,17.168,17.252,25.818,25.812ZM109.706,49.838c2.465-1.982,3.139-6.558.929-9.173-3.834-4.535-7.954-8.826-12.271-13.568-4.348,4.83-8.711,9.256-12.546,14.097-2.252,2.838-1.116,6.812,1.78,8.94,2.449,1.8,5.64,1.162,8.172-1.759.483-.56.581-1.453.856-2.195.431.363.856.726,1.287,1.09-.498,1.126-.903,2.309-1.531,3.357-.643,1.074-1.515,2.013-2.542,3.336h8.701c-1.266-2.215-2.444-4.275-3.622-6.335.301-.202.602-.405.908-.607.431.524.825,1.079,1.297,1.567,2.646,2.729,6.122,3.227,8.582,1.25Z"/>
        <path class="cls-5" d="M125.609,170.044c1.551,1.531,1.489,2.465-.047,3.98-8.499,8.364-16.925,16.805-25.299,25.294-1.432,1.453-2.324,1.515-3.777.042-8.436-8.551-16.93-17.049-25.486-25.486-1.499-1.479-1.354-2.418.047-3.803,8.545-8.447,17.023-16.961,25.537-25.439.529-.529,1.157-.955,1.795-1.479.628.508,1.126.841,1.546,1.256,8.556,8.545,17.075,17.137,25.683,25.636ZM109.768,180.965c2.802-2.47,2.926-7.02.213-9.998-3.315-3.642-6.719-7.202-9.988-10.885-1.245-1.401-2.07-1.328-3.279.042-2.978,3.362-6.122,6.574-9.121,9.92-.903,1.012-1.707,2.19-2.278,3.424-1.297,2.807-.192,6.434,2.288,8.042,2.454,1.593,5.437,1.131,7.7-1.302.664-.716,1.053-1.676,1.567-2.522.415.353.825.706,1.24,1.058-1.292,2.091-2.589,4.182-3.954,6.392h8.379c-1.344-2.267-2.563-4.312-3.777-6.361.337-.192.674-.389,1.012-.581.306.41.581.841.918,1.219,2.885,3.232,6.475,3.839,9.08,1.551Z"/>
        <path class="cls-7" d="M129.381-24.916c-10.309,10.273-20.676,20.614-31.727,31.629-2.35-2.61-4.784-5.515-7.435-8.208-7.15-7.259-14.388-14.434-21.605-21.631-.991-.981-1.8-1.795-.405-3.181,9.692-9.614,19.337-19.28,29.008-28.92.353-.353.815-.597.939-.69,10.512,10.439,20.909,20.759,31.224,31.001ZM126.133-23.459c1.167-1.157,1.022-1.909-.047-2.973-8.691-8.659-17.36-17.34-26.004-26.041-1.126-1.136-1.925-1.344-3.186-.073-8.556,8.665-17.158,17.288-25.828,25.833-1.531,1.51-1.266,2.407.114,3.777,8.587,8.509,17.101,17.091,25.652,25.636.467.467,1.032.83,1.608,1.287.534-.441.955-.732,1.313-1.084,8.789-8.789,17.552-17.604,26.378-26.362Z"/>
        <path class="cls-10" d="M111.891,107.176c.192,3.139-1.027,5.443-3.523,6.61-3.134,1.463-5.868.809-8.255-1.614-.166-.166-.431-.228-1.302-.016l-.685-.244c-.182-.14-.363-.28-.545-.415-2.387,2.309-4.991,3.746-8.353,2.48-2.537-.955-4.286-3.206-4.415-5.837-.135-2.776,1.349-5.37,4.011-6.33,1.832-.664,2.89-1.344,3.118-3.606.337-3.347,3.668-5.712,6.818-5.479,3.596.265,5.904,2.662,6.408,6.335.109.778.83,1.868,1.515,2.112,2.942,1.032,5.002,2.677,5.209,6.003Z"/>
        <path class="cls-10" d="M110.635,40.665c2.21,2.615,1.536,7.191-.929,9.173-2.459,1.977-5.936,1.479-8.582-1.25-.472-.488-.866-1.043-1.297-1.567-.306.202-.607.405-.908.607l-1.007-.358c-.431-.363-.856-.726-1.287-1.09-.275.742-.374,1.634-.856,2.195-2.532,2.921-5.723,3.559-8.172,1.759-2.895-2.127-4.031-6.102-1.78-8.94,3.834-4.841,8.198-9.267,12.546-14.097,4.317,4.742,8.436,9.033,12.271,13.568Z"/>
        <path class="cls-7" d="M129.329,106.346c-10.268,10.294-20.614,20.66-30.897,30.97-10.237-10.32-20.557-20.728-30.814-31.073,10.159-10.086,20.551-20.396,30.861-30.627,10.211,10.175,20.593,20.515,30.85,30.731ZM127.233,106.366c-.374-.483-.643-.918-.996-1.271-8.836-8.862-17.693-17.708-26.518-26.58-.934-.934-1.634-.996-2.579-.005-1.842,1.94-3.782,3.788-5.676,5.681-6.776,6.771-13.552,13.547-20.328,20.323-.924.929-1.977,1.748-.534,3.186,8.883,8.826,17.729,17.677,26.56,26.554.97.975,1.707.887,2.61-.016,8.784-8.805,17.589-17.589,26.373-26.388.41-.41.695-.944,1.09-1.484Z"/>
        <path class="cls-10" d="M102.541,53.963h-8.701c1.027-1.323,1.899-2.262,2.542-3.336.628-1.048,1.032-2.231,1.531-3.357l1.007.358c1.178,2.06,2.356,4.12,3.622,6.335Z"/>
        <path class="cls-10" d="M102.214,119.612c-.514.042-.939.104-1.359.104-1.956.01-3.917.005-6.133.005,1.224-2.807,2.314-5.308,3.404-7.809l.685.244c1.1,2.402,2.2,4.81,3.404,7.456Z"/>
        <path class="cls-7" d="M95.801,6.567c.405.415.706.924,1.105,1.453-.451.56-.783,1.053-1.199,1.468-9.573,9.593-19.161,19.166-28.718,28.78-1.017,1.017-1.728,1.058-2.765.016-9.614-9.671-19.249-19.327-28.936-28.925-1.432-1.416-.597-2.174.384-3.149,9.412-9.396,18.839-18.782,28.189-28.241,1.453-1.468,2.33-1.084,3.58.176,8.084,8.156,16.219,16.266,24.339,24.386,1.344,1.344,2.703,2.677,4.021,4.037ZM93.28,9.415c1.162-1.152,1.095-1.837-.005-2.926-8.768-8.711-17.506-17.454-26.207-26.227-1.116-1.126-1.837-1.116-2.952.01C55.477-11.017,46.797-2.342,38.075,6.292c-1.297,1.282-1.214,2.091.052,3.347,8.717,8.628,17.36,17.324,26.041,25.994.41.405.903.732,1.458,1.178.602-.519,1.141-.924,1.614-1.396,8.675-8.67,17.324-17.371,26.041-25.999Z"/>
        <path class="cls-7" d="M96.896,73.492c-.42.55-.732,1.064-1.141,1.474-9.578,9.593-19.182,19.161-28.733,28.775-1.157,1.162-1.92.991-2.983-.078-9.505-9.552-19.026-19.083-28.588-28.573-1.209-1.204-1.147-1.992.042-3.17,9.495-9.422,18.959-18.881,28.375-28.381,1.224-1.235,2.039-1.416,3.352-.093,9.474,9.562,19.021,19.057,28.531,28.588.41.41.726.918,1.147,1.458ZM93.207,75.085c1.23-1.219,1.147-1.946-.057-3.134-8.722-8.623-17.397-17.293-26.015-26.02-1.245-1.256-1.951-1.147-3.123.042-8.628,8.717-17.293,17.397-26.015,26.02-1.25,1.24-1.162,1.961.021,3.134,8.717,8.639,17.371,17.335,26.051,26.01.42.415.903.768,1.479,1.256.576-.462,1.147-.825,1.614-1.292,8.685-8.675,17.335-17.376,26.046-26.015Z"/>
        <path class="cls-7" d="M96.72,139.453c-.415.477-.981,1.199-1.619,1.842-9.22,9.23-18.46,18.445-27.67,27.685-1.058,1.069-1.842,1.915-3.336.4-9.531-9.656-19.145-19.228-28.723-28.837-.358-.358-.649-.778-.975-1.173,10.538-10.553,20.883-20.904,31.125-31.156,10.268,10.283,20.619,20.645,31.198,31.24ZM93.057,140.921c1.271-1.256,1.365-2.049.026-3.352-5.318-5.178-10.543-10.455-15.778-15.721-3.819-3.845-7.596-7.731-11.69-11.902-9.619,9.671-18.792,18.922-28.002,28.142-1.25,1.256-.316,1.946.488,2.75,8.608,8.618,17.236,17.21,25.802,25.869,1.24,1.256,2.008,1.385,3.326.047,8.556-8.665,17.174-17.267,25.828-25.833Z"/>
        <path class="cls-10" d="M93.274,6.489c1.1,1.09,1.167,1.774.005,2.926-8.717,8.628-17.366,17.329-26.041,25.999-.472.472-1.012.877-1.614,1.396-.555-.446-1.048-.773-1.458-1.178-8.68-8.67-17.324-17.366-26.041-25.994-1.266-1.256-1.349-2.065-.052-3.347,8.722-8.634,17.402-17.309,26.041-26.02,1.116-1.126,1.837-1.136,2.952-.01,8.701,8.774,17.438,17.516,26.207,26.227ZM65.558,21.048c3.082-5.853,7.212-9.983,13.163-13.147-6.065-3.025-10.045-7.279-13.179-12.945-3.087,5.884-7.202,9.915-12.94,12.924,5.692,3.227,9.967,7.212,12.955,13.168Z"/>
        <path class="cls-10" d="M93.15,71.951c1.204,1.188,1.287,1.915.057,3.134-8.711,8.639-17.36,17.34-26.046,26.015-.467.467-1.038.83-1.614,1.292-.576-.488-1.058-.841-1.479-1.256-8.68-8.675-17.335-17.371-26.051-26.01-1.183-1.173-1.271-1.894-.021-3.134,8.722-8.623,17.386-17.303,26.015-26.02,1.173-1.188,1.878-1.297,3.123-.042,8.618,8.727,17.293,17.397,26.015,26.02ZM75.509,79.023c3.544-4.187,4.758-9.178,2.625-14.528-.934-2.35-2.573-4.166-5.277-4.436-2.641-.27-4.363,1.245-5.692,3.336-.441.695-.918,1.37-1.629,2.433-.659-1.064-1.079-1.774-1.531-2.459-1.297-1.961-2.9-3.507-5.448-3.336-2.719.182-4.753,1.847-5.334,4.255-.68,2.833-1.173,6.05-.519,8.81,1.505,6.377,6.356,10.283,11.835,13.35.674.379,2.132.15,2.786-.363,2.843-2.215,5.878-4.338,8.182-7.061Z"/>
        <path class="cls-10" d="M93.082,137.569c1.339,1.302,1.245,2.096-.026,3.352-8.654,8.566-17.272,17.168-25.828,25.833-1.318,1.339-2.086,1.209-3.326-.047-8.566-8.659-17.194-17.252-25.802-25.869-.804-.804-1.738-1.494-.488-2.75,9.209-9.22,18.383-18.471,28.002-28.142,4.094,4.171,7.871,8.058,11.69,11.902,5.235,5.266,10.46,10.543,15.778,15.721ZM65.848,151.91c2.848-5.593,7.067-9.645,12.821-12.738-5.92-2.983-9.962-7.207-13.127-13.002-3.066,5.993-7.316,10.003-12.546,12.872,2.532,2.018,4.991,3.653,7.041,5.702,2.049,2.044,3.684,4.498,5.811,7.165Z"/>
        <path class="cls-7" d="M78.135,64.496c2.132,5.349.918,10.341-2.625,14.528-2.304,2.724-5.339,4.846-8.182,7.061-.654.514-2.112.742-2.786.363-5.479-3.066-10.33-6.973-11.835-13.35-.654-2.76-.161-5.977.519-8.81.581-2.407,2.615-4.073,5.334-4.255,2.548-.171,4.151,1.375,5.448,3.336.451.685.872,1.396,1.531,2.459.711-1.064,1.188-1.738,1.629-2.433,1.328-2.091,3.051-3.606,5.692-3.336,2.703.27,4.343,2.086,5.277,4.436Z"/>
        <path class="cls-7" d="M78.669,139.173c-5.754,3.092-9.972,7.144-12.821,12.738-2.127-2.667-3.762-5.121-5.811-7.165-2.049-2.049-4.509-3.684-7.041-5.702,5.23-2.869,9.479-6.88,12.546-12.872,3.165,5.795,7.207,10.019,13.127,13.002Z"/>
        <path class="cls-7" d="M78.721,7.9c-5.951,3.165-10.081,7.295-13.163,13.147-2.989-5.956-7.264-9.941-12.955-13.168,5.738-3.009,9.853-7.041,12.94-12.924,3.134,5.666,7.113,9.92,13.179,12.945Z"/>
        <path class="cls-7" d="M62.331,170.007c1.053,1.053,2.226,1.868.54,3.539-9.713,9.583-19.337,19.259-28.998,28.894-.296.291-.669.503-1.23.924-3.476-3.43-6.916-6.786-10.315-10.19-6.351-6.345-12.623-12.779-19.057-19.042-1.759-1.712-1.603-2.719.057-4.353,9.225-9.09,18.377-18.248,27.468-27.468,1.505-1.525,2.366-1.577,3.907-.01,9.147,9.298,18.403,18.486,27.628,27.706ZM60.255,173.795c1.38-1.365,1.349-2.241-.01-3.585-8.608-8.514-17.137-17.096-25.703-25.646-.477-.472-1.038-.861-1.728-1.422-.654.545-1.266.986-1.795,1.515-8.447,8.421-16.842,16.888-25.345,25.247-1.629,1.598-1.619,2.579.01,4.182,8.379,8.239,16.691,16.556,24.925,24.946,1.634,1.66,2.636,1.857,4.363.099,8.348-8.525,16.8-16.945,25.283-25.335Z"/>
        <path class="cls-7" d="M62.652,104.571c1.199,1.183,1.489,2.018.125,3.372-9.578,9.474-19.083,19.021-28.619,28.536-.415.415-.924.742-1.297,1.038-10.439-10.429-20.795-20.774-31.058-31.032,10.372-10.283,20.811-20.629,31.722-31.452,3.606,3.751,7.43,7.824,11.352,11.798,5.884,5.956,11.814,11.861,17.776,17.739ZM59.897,108.447c1.65-1.614,1.577-2.573-.026-4.151-8.556-8.421-17.034-16.919-25.46-25.465-1.333-1.354-2.096-1.188-3.326.067-5.199,5.303-10.46,10.538-15.752,15.742-3.86,3.803-7.809,7.518-11.648,11.202.493.851.612,1.193.841,1.427,8.966,8.992,17.947,17.962,26.902,26.969,1.23,1.24,2.018.633,2.989-.348,8.468-8.509,16.925-17.028,25.48-25.444Z"/>
        <path class="cls-7" d="M62.73,38.995c1.406,1.396,1.204,2.267-.114,3.57-9.386,9.292-18.735,18.626-28.017,28.023-1.38,1.401-2.195,1.333-3.533-.016-9.308-9.381-18.652-18.72-28.059-27.997-1.525-1.499-1.276-2.433.093-3.788,9.386-9.303,18.715-18.668,28.069-27.997.472-.472,1.043-.835,1.645-1.313.571.446,1.079.763,1.489,1.173,9.474,9.453,18.917,18.933,28.427,28.344ZM60.401,42.258c.41-.41.747-.898,1.245-1.505-.54-.633-.986-1.245-1.52-1.774-8.478-8.478-17.013-16.904-25.418-25.465-1.577-1.608-2.444-1.453-3.917.036-8.364,8.478-16.774,16.909-25.273,25.247-1.629,1.598-1.349,2.548.093,3.969,8.468,8.374,16.904,16.785,25.262,25.268,1.432,1.453,2.283,1.531,3.741.052,8.545-8.654,17.184-17.22,25.786-25.828Z"/>
        <path class="cls-7" d="M62.372-26.93c1.645,1.614,1.567,2.496-.078,4.109-9.121,8.96-18.108,18.056-27.146,27.104-.721.721-1.489,1.396-2.605,2.439C26.816.917,21.373-4.625,15.905-10.14c-4.322-4.353-8.654-8.691-13.028-12.992-1.183-1.162-1.52-2.023-.14-3.383,9.713-9.599,19.353-19.265,29.019-28.91.239-.239.534-.425,1.074-.856,1.78,1.723,3.575,3.419,5.323,5.162,8.073,8.068,16.089,16.188,24.22,24.188ZM61.563-24.854c-.467-.602-.825-1.178-1.292-1.65-8.602-8.623-17.236-17.215-25.812-25.864-1.209-1.219-2.06-1.427-3.388-.083-8.566,8.659-17.189,17.267-25.838,25.838-1.266,1.256-1.318,2.086-.01,3.378C13.938-14.612,22.603-5.937,31.236,2.769c1.079,1.09,1.78,1.256,2.942.083,8.701-8.768,17.464-17.475,26.196-26.207.41-.415.732-.924,1.188-1.499Z"/>
        <path class="cls-5" d="M60.271-26.504c.467.472.825,1.048,1.292,1.65-.457.576-.778,1.084-1.188,1.499C51.643-14.623,42.879-5.916,34.178,2.852c-1.162,1.173-1.863,1.007-2.942-.083C22.603-5.937,13.938-14.612,5.222-23.235c-1.307-1.292-1.256-2.122.01-3.378,8.649-8.571,17.272-17.179,25.838-25.838,1.328-1.344,2.179-1.136,3.388.083,8.576,8.649,17.21,17.241,25.812,25.864ZM44.14-15.951c2.682-2.267,3.009-6.335.669-9.339-1.058-1.354-2.231-2.636-3.409-3.897-2.859-3.051-5.749-6.065-8.717-9.194-3.487,3.751-6.74,7.196-9.92,10.709-1.084,1.199-2.195,2.47-2.921,3.902-1.468,2.895-.41,6.579,2.138,8.296,2.537,1.712,5.349,1.214,7.866-1.365.571-.586,1.178-1.131,1.769-1.697.239.156.472.316.711.472-1.256,2.138-2.511,4.27-3.777,6.423h8.8c-.949-1.214-1.847-2.19-2.527-3.295-.654-1.058-1.079-2.257-1.603-3.393.379-.28.758-.56,1.131-.841.368.68.612,1.479,1.121,2.029,2.776,2.994,6.045,3.409,8.67,1.188Z"/>
        <path class="cls-5" d="M61.646,40.753c-.498.607-.835,1.095-1.245,1.505-8.602,8.608-17.241,17.174-25.786,25.828-1.458,1.479-2.309,1.401-3.741-.052-8.359-8.483-16.795-16.894-25.262-25.268-1.442-1.422-1.723-2.371-.093-3.969,8.499-8.338,16.909-16.769,25.273-25.247,1.474-1.489,2.34-1.645,3.917-.036,8.405,8.561,16.94,16.987,25.418,25.465.534.529.981,1.141,1.52,1.774ZM43.331,47.737c2.402-1.474,3.487-3.86,2.963-6.688-.654-3.497-3.077-5.22-6.553-5.692-.446-5.318-2.506-7.949-6.32-8.13-4.151-.197-7.082,1.66-7.653,8.13-3.191.519-5.707,2.023-6.366,5.448-.55,2.874.301,5.412,2.942,6.911,3.507,1.987,6.693,1.027,9.521-1.769.182.161.363.316.55.477-1.105,2.511-2.21,5.022-3.31,7.523h7.378c-1.193-2.682-2.283-5.131-3.367-7.58.176-.218.348-.436.524-.659,2.828,3.232,6.091,4.244,9.692,2.029Z"/>
        <path class="cls-5" d="M60.245,170.21c1.359,1.344,1.39,2.221.01,3.585-8.483,8.39-16.935,16.81-25.283,25.335-1.728,1.759-2.729,1.562-4.363-.099-8.234-8.39-16.546-16.707-24.925-24.946-1.629-1.603-1.64-2.584-.01-4.182,8.504-8.359,16.899-16.826,25.345-25.247.529-.529,1.141-.97,1.795-1.515.69.56,1.25.949,1.728,1.422,8.566,8.551,17.096,17.132,25.703,25.646ZM43.061,179.248c2.537-1.422,3.58-3.741,3.274-6.517-.322-2.921-1.982-4.934-4.924-5.629-1.282-.301-1.738-.872-1.883-2.257-.42-4.005-3.123-6.408-6.812-6.387-3.642.021-6.32,2.537-6.558,6.558-.109,1.764-1.23,1.8-2.35,2.164-3.123,1.017-4.628,3.274-4.504,6.709.104,2.931,2.148,5.339,5.126,6.019,2.968.68,5.308-.56,7.342-2.714.213.161.425.322.638.477-1.058,2.433-2.117,4.862-3.258,7.487h7.305c-1.136-2.563-2.184-4.924-3.232-7.285.249-.119.493-.244.742-.368.374.322.742.649,1.126.96,2.35,1.92,5.365,2.241,7.969.783Z"/>
        <path class="cls-5" d="M59.871,104.296c1.603,1.577,1.676,2.537.026,4.151-8.556,8.416-17.013,16.935-25.48,25.444-.97.981-1.759,1.588-2.989.348-8.955-9.007-17.936-17.978-26.902-26.969-.228-.233-.348-.576-.841-1.427,3.839-3.684,7.788-7.399,11.648-11.202,5.292-5.204,10.553-10.439,15.752-15.742,1.23-1.256,1.992-1.422,3.326-.067,8.426,8.545,16.904,17.044,25.46,25.465ZM42.874,116.11c2.361-.924,3.497-3.056,3.367-5.344-.109-1.847-.83-3.954-1.977-5.38-2.926-3.622-6.236-6.932-9.407-10.351-.628-.674-1.333-1.271-2.174-2.06-1.837,1.925-3.513,3.642-5.142,5.412-2.283,2.475-4.613,4.919-6.766,7.508-2.324,2.797-2.013,7.186.498,9.401,2.594,2.288,6.133,1.816,8.888-1.245.446-.498.7-1.173,1.043-1.764.368.275.742.55,1.11.83-1.183,2.101-2.366,4.203-3.58,6.361h8.229c-1.396-2.252-2.662-4.301-3.928-6.351.27-.182.54-.368.815-.55.752.789,1.458,1.629,2.267,2.361,1.987,1.8,4.327,2.127,6.755,1.173Z"/>
        <path class="cls-10" d="M46.293,41.049c.524,2.828-.56,5.214-2.963,6.688-3.601,2.215-6.864,1.204-9.692-2.029-.176.223-.348.441-.524.659l-.7.057c-.187-.161-.368-.316-.55-.477-2.828,2.797-6.013,3.756-9.521,1.769-2.641-1.499-3.492-4.037-2.942-6.911.659-3.424,3.175-4.929,6.366-5.448.571-6.47,3.502-8.327,7.653-8.13,3.813.182,5.873,2.812,6.32,8.13,3.476.472,5.899,2.195,6.553,5.692Z"/>
        <path class="cls-10" d="M46.241,110.766c.13,2.288-1.007,4.421-3.367,5.344-2.428.955-4.768.628-6.755-1.173-.809-.732-1.515-1.572-2.267-2.361-.275.182-.545.368-.815.55l-.721-.01c-.368-.28-.742-.555-1.11-.83-.342.591-.597,1.266-1.043,1.764-2.755,3.061-6.294,3.533-8.888,1.245-2.511-2.215-2.823-6.605-.498-9.401,2.153-2.589,4.483-5.033,6.766-7.508,1.629-1.769,3.305-3.487,5.142-5.412.841.789,1.546,1.385,2.174,2.06,3.17,3.419,6.48,6.729,9.407,10.351,1.147,1.427,1.868,3.533,1.977,5.38Z"/>
        <path class="cls-10" d="M36.964,119.477h-8.229c1.214-2.158,2.397-4.26,3.58-6.361l.721.01c1.266,2.049,2.532,4.099,3.928,6.351Z"/>
        <path class="cls-10" d="M36.482,53.948h-7.378c1.1-2.501,2.205-5.012,3.31-7.523l.7-.057c1.084,2.449,2.174,4.898,3.367,7.58Z"/>
        <path class="cls-7" d="M30.23,6.489c.358.358.674.763,1.007,1.147C20.662,18.22,10.301,28.592.127,38.771-10.172,28.441-20.565,18.018-31.071,7.48c.285-.316.778-.908,1.318-1.448C-20.528-3.208-11.262-12.402-2.099-21.705c1.567-1.593,2.496-1.712,4.125-.057C11.37-12.283,20.818-2.918,30.23,6.489ZM23.744,13.234c1.702-1.691,3.559-3.222,5.168-4.664C18.898-1.444,9.346-11.001-.019-20.371-9.373-11.043-18.946-1.486-28.669,8.212c.088.135.197.384.374.56C-19.382,17.696-10.442,26.599-1.56,35.565c1.261,1.276,2.013,1.012,3.149-.14,7.347-7.435,14.74-14.823,22.155-22.191Z"/>
        <path class="cls-10" d="M27.449,137.486c1.09,1.079,1.551,1.847.228,3.16-8.903,8.81-17.739,17.687-26.606,26.534-.291.291-.669.498-.903.669-9.625-9.671-19.156-19.249-28.557-28.692,9.464-9.521,18.938-19.057,29.211-29.398.524.887.929,2.029,1.702,2.807,8.27,8.348,16.582,16.65,24.925,24.92ZM10,144.486c3.378-4.042,4.638-8.862,2.656-14.055-.934-2.449-2.516-4.395-5.339-4.706-2.765-.306-4.529,1.271-5.889,3.455-.394.638-.809,1.261-1.437,2.231-.68-1.007-1.053-1.567-1.437-2.127-1.468-2.148-3.17-3.995-6.086-3.596-2.605.353-5.079,3.02-5.65,6.096-.783,4.244-.41,8.462,2.459,11.778,2.553,2.957,5.733,5.375,8.654,8.016,1.287,1.173,2.682,1.167,3.974.073,2.755-2.33,5.806-4.431,8.094-7.165Z"/>
        <path class="cls-10" d="M26.982,71.552c.602.597,1.167,1.224,1.65,1.738-9.718,9.625-19.311,19.13-28.775,28.505-9.194-9.272-18.715-18.87-28.433-28.671.285-.306.887-1.001,1.541-1.655,8.301-8.312,16.665-16.567,24.878-24.972,1.733-1.774,2.625-1.577,4.26.099,8.218,8.395,16.577,16.65,24.878,24.956ZM-.05,86.681c3.061-5.873,7.217-10.045,13.127-13.09-6.024-3.035-10.029-7.378-13.241-13.09-2.895,6.055-7.295,9.905-12.805,13.153,5.795,3.108,9.868,7.196,12.919,13.028Z"/>
        <path class="cls-7" d="M31.548,74.473c-1.712,1.479-3.819,3.103-5.697,4.955-7.98,7.881-15.939,15.794-23.799,23.799-1.593,1.619-2.511,1.624-4.114-.005-9.209-9.355-18.517-18.606-27.826-27.862-1.116-1.105-1.759-1.894-.291-3.341,9.702-9.588,19.327-19.259,28.983-28.894.301-.296.654-.534.872-.716,10.465,10.527,20.842,20.961,31.872,32.064ZM28.632,73.29c-.483-.514-1.048-1.141-1.65-1.738-8.301-8.307-16.66-16.561-24.878-24.956-1.634-1.676-2.527-1.873-4.26-.099-8.213,8.405-16.577,16.66-24.878,24.972-.654.654-1.256,1.349-1.541,1.655,9.718,9.801,19.239,19.4,28.433,28.671,9.464-9.375,19.057-18.881,28.775-28.505Z"/>
        <path class="cls-10" d="M28.912,8.57c-1.608,1.442-3.466,2.973-5.168,4.664-7.414,7.368-14.808,14.756-22.155,22.191-1.136,1.152-1.889,1.416-3.149.14-8.883-8.966-17.822-17.869-26.736-26.793-.176-.176-.285-.425-.374-.56C-18.946-1.486-9.373-11.043-.019-20.371,9.346-11.001,18.898-1.444,28.912,8.57ZM9.383,14.1c3.461-4.306,5.334-9.1,3.362-14.668-.835-2.366-2.247-4.317-4.893-4.877-2.885-.612-4.758.955-6.288,3.129C1.087-1.631.63-.93.002-.002c-.934-1.302-1.634-2.465-2.511-3.471-2.553-2.937-6.646-2.848-8.877.327-.913,1.292-1.598,2.9-1.857,4.457-1.24,7.409,2.511,12.67,8.016,16.8,5.681,4.26,4.623,4.135,10.091.208,1.66-1.193,3.238-2.625,4.519-4.218Z"/>
        <path class="cls-7" d="M12.745-.567c1.972,5.567.099,10.361-3.362,14.668-1.282,1.593-2.859,3.025-4.519,4.218-5.469,3.928-4.41,4.052-10.091-.208C-10.733,13.981-14.484,8.72-13.244,1.311c.259-1.557.944-3.165,1.857-4.457,2.231-3.175,6.325-3.264,8.877-.327C-1.632-2.466-.932-1.304.002-.002c.628-.929,1.084-1.629,1.562-2.314,1.531-2.174,3.404-3.741,6.288-3.129,2.646.56,4.057,2.511,4.893,4.877Z"/>
        <path class="cls-7" d="M12.657,130.43c1.982,5.194.721,10.014-2.656,14.055-2.288,2.734-5.339,4.836-8.094,7.165-1.292,1.095-2.688,1.1-3.974-.073-2.921-2.641-6.102-5.059-8.654-8.016-2.869-3.315-3.243-7.534-2.459-11.778.571-3.077,3.046-5.744,5.65-6.096,2.916-.4,4.618,1.448,6.086,3.596.384.56.758,1.121,1.437,2.127.628-.97,1.043-1.593,1.437-2.231,1.359-2.184,3.123-3.762,5.889-3.455,2.823.311,4.405,2.257,5.339,4.706Z"/>
        <path class="cls-7" d="M13.077,73.591c-5.91,3.046-10.066,7.217-13.127,13.09-3.051-5.832-7.124-9.92-12.919-13.028,5.51-3.248,9.91-7.098,12.805-13.153,3.212,5.712,7.217,10.055,13.241,13.09Z"/>
        <path class="cls-7" d="M.023,108.514c10.008,10.06,20.391,20.494,30.653,30.804-10.097,10.024-20.541,20.396-30.975,30.752-10.175-10.169-20.525-20.515-30.726-30.715C-20.679,129.081-10.25,118.715.023,108.514ZM27.677,140.646c1.323-1.313.861-2.081-.228-3.16-8.343-8.27-16.655-16.572-24.925-24.92-.773-.778-1.178-1.92-1.702-2.807-10.273,10.341-19.747,19.877-29.211,29.398,9.401,9.443,18.933,19.021,28.557,28.692.233-.171.612-.379.903-.669,8.867-8.846,17.703-17.724,26.606-26.534Z"/>
      </g>
    </g>
    <g>
      <rect class="cls-11" x="6.536" y="60.823" width="121.604" height="4.763" transform="translate(-10.224 13.072) rotate(-10.31)"/>
      <rect class="cls-9" x="6.536" y="64.711" width="121.604" height="10.064" transform="translate(13.659 -10.985) rotate(10.373)"/>
      <circle class="cls-2" cx="51.191" cy="66.218" r="11.931"/>
      <path class="cls-8" d="M47.778,62.005c1.479.009,2.763.906,3.311,2.319.015.039.033.093.064.106.062.026.106.001.133-.075.172-.479.442-.898.794-1.267,1.376-1.439,3.431-1.286,4.57-.455.875.639,1.361,1.492,1.425,2.58.059.996-.278,1.864-.844,2.663-.274.386-.611.706-.97,1.01-1.343,1.142-2.681,2.291-4.021,3.437-.32.274-.643.545-.96.823-.067.059-.105.061-.174.002-.976-.84-1.956-1.676-2.934-2.513-.827-.708-1.665-1.405-2.476-2.13-.255-.228-.46-.52-.656-.805-.453-.658-.712-1.384-.737-2.192-.054-1.771,1.243-3.274,3.002-3.467.157-.017.316-.025.474-.037Z"/>
    </g>
  </g>
</svg>