<?xml version="1.0" encoding="UTF-8"?>
<svg id="Layer_1" data-name="Layer 1" xmlns="http://www.w3.org/2000/svg" xmlns:xlink="http://www.w3.org/1999/xlink" version="1.1" viewBox="0 0 288.3 130">
  <defs>
    <style>
      .cls-1 {
        fill: #6cc8c1;
      }

      .cls-1, .cls-2, .cls-3, .cls-4, .cls-5, .cls-6, .cls-7, .cls-8, .cls-9, .cls-10 {
        stroke-width: 0px;
      }

      .cls-11 {
        clip-path: url(#clippath);
      }

      .cls-2 {
        fill: none;
      }

      .cls-3 {
        fill: #3eb9bc;
      }

      .cls-4 {
        fill: #97d5d6;
      }

      .cls-5 {
        fill: #62cced;
      }

      .cls-12 {
        clip-path: url(#clippath-1);
      }

      .cls-13 {
        clip-path: url(#clippath-3);
      }

      .cls-14 {
        clip-path: url(#clippath-2);
      }

      .cls-6 {
        fill: #7ea9da;
      }

      .cls-7 {
        fill: #70c7c9;
      }

      .cls-8 {
        fill: #dc6a48;
      }

      .cls-9 {
        fill: #837ebb;
      }

      .cls-10 {
        fill: #e0c3c9;
      }
    </style>
    <clipPath id="clippath">
      <rect class="cls-2" x="1866.6" y="95.4" width="976.4" height="822"/>
    </clipPath>
    <clipPath id="clippath-1">
      <polygon class="cls-2" points="3111.2 315.3 1471.3 815.1 1117.4 341.1 2757.3 -158.7 3111.2 315.3"/>
    </clipPath>
    <clipPath id="clippath-2">
      <polygon class="cls-2" points="3447.2 675.4 1807.3 1175.2 1453.4 701.2 3093.3 201.4 3447.2 675.4"/>
    </clipPath>
    <clipPath id="clippath-3">
      <rect class="cls-2" width="288.3" height="130"/>
    </clipPath>
  </defs>
  <g class="cls-11">
    <g>
      <g class="cls-12">
        <g>
          <polygon class="cls-7" points="-4868.6 2676.6 -5066.8 2725.5 5257.5 -938.9 5455.7 -987.9 -4868.6 2676.6"/>
          <polygon class="cls-4" points="-4172.3 2623.7 -4965 2819.6 6464.6 -1237.2 7257.3 -1433.1 -4172.3 2623.7"/>
          <polygon class="cls-3" points="-2323.5 2074.3 -2521.7 2123.3 7722.4 -1512.7 7920.5 -1561.6 -2323.5 2074.3"/>
        </g>
      </g>
      <g class="cls-14">
        <g>
          <polygon class="cls-7" points="-4532.6 3036.6 -4730.8 3085.6 5593.5 -578.8 5791.7 -627.8 -4532.6 3036.6"/>
          <polygon class="cls-4" points="-3836.3 2983.8 -4629 3179.6 6800.6 -877.1 7593.3 -1073 -3836.3 2983.8"/>
          <polygon class="cls-3" points="-1987.5 2434.4 -2185.7 2483.4 8058.4 -1152.6 8256.5 -1201.6 -1987.5 2434.4"/>
        </g>
      </g>
    </g>
  </g>
  <g>
    <g class="cls-13">
      <g>
        <path class="cls-5" d="M679.6,525.7v6.2c-16.1-15.9-32.3-31.9-47.5-46.8-.9-.9-1.7-1.7-2.6-2.6-25.4,25.3-50.3,50-74.7,74.3,24.2,24.2,48.8,49,74.4,74.6,1-1,2-2.1,3-3.1l2.4,2.5h0c-2.4,2.4-2.3,4.1-.9,6l-2.2,2.1c-.5-.6-1-1.2-1.5-1.8-26.3,26.3-51.1,51-77.5,77.4,6.8,6.2,13.8,12.5,20.8,18.8h-6.2c-5.5-5.8-11.1-11.7-16.5-17.5-6.6,6.4-12.4,11.9-18.1,17.5h-4.9c6.3-6.9,12.7-13.8,18.8-20.5-25-24.9-49.8-49.7-73.7-73.6-24.7,24.6-49.6,49.4-74.6,74.2,5.8,6.3,12.1,13.1,18.3,19.8h-4.9c-5.7-5.8-11.3-11.7-17.6-18.1-6.2,6.6-11.6,12.3-17,18.1h-6.2c6.6-6.8,13.3-13.6,19.4-19.9-25.3-25.5-49.9-50.2-74.1-74.5-1.2,1.2-2.3,2.3-3.5,3.5-23.5,23.4-47.2,47.1-72.5,72.3,6.7,6,13.7,12.3,20.8,18.5h-6.2c-5.4-5.7-10.8-11.4-16.1-17-1.3.6-2,.6-2.4,1-5.4,5.3-10.7,10.6-16.1,15.9h-4.9c6.3-6.9,12.5-13.8,18.3-20.1-2.2-2.2-4.4-4.4-6.6-6.6-22.8-22.8-45.2-45.4-67.9-68.1-.2.1-1,.5-1.5,1-23.3,23.3-46.6,46.6-69.9,69.8-2.5,2.4-2.5,4.2,0,6.6,5.6,5.6,11,11.5,16.5,17.3h-4.9c-4.8-4.8-9.3-9.7-14.4-14.2-1.3-1.1-4.9-1.6-5.8-.7-5.1,4.7-9.7,9.9-14.4,14.9h-6.2c6.5-6.8,13.1-13.6,19.3-20-25.2-25.1-50.1-49.9-74.3-74.1-24.4,24.3-49.2,49.1-75.7,75.5,6.7,6,13.8,12.3,20.8,18.6h-6.2c-5.6-5.9-11.1-11.7-16.7-17.6-6.5,6.4-12.2,12-17.9,17.6h-4.9c6.3-6.9,12.6-13.8,18.6-20.3-25-25-49.9-49.7-74.4-74.2-24.4,24.3-49.2,49.1-74.2,74.1,6.1,6.6,12.4,13.5,18.8,20.3h-4.9c-5.8-5.7-11.6-11.5-17.9-17.8-5.8,6.2-11.3,12-16.7,17.8h-6.2c6.6-6.8,13.3-13.7,19.1-19.7-25.4-25.5-50.1-50.2-76.3-76.5-.8,1-1.5,2.2-2.3,3.3l-2.2-2.2h0c2.9-2.8,2.9-4.8,0-7.6-8.4-8.1-16.7-16.4-25-24.6v-4.9c9.3,8.9,18.7,17.8,27.6,26.2,1.1,1,2.1,2,3.2,3,25.2-25.1,50-49.7,74.3-73.9-24.5-24.5-49.3-49.3-75.6-75.7-9.5,10.2-19.5,20.8-29.5,31.4v-6.2c8.9-9.6,17.7-19.2,27.3-29.5-8.4-8-17.8-17.1-27.3-26.1v-6.2c10.3,10.2,20.7,20.4,31.1,30.7,1.4-1,2.3-1.5,3-2.2,23.1-23.1,46.2-46.3,69.4-69.3,3.8-3.7,1.2-5.5-1.1-7.9-21.2-21.2-42.4-42.5-63.6-63.7s-4.7-4.4-7.3-6.9c-2.4,2.3-4.3,4.1-6.2,6-8.4,8.1-16.8,16.2-25.2,24.2v-4.9c8.1-8.1,16.1-16.3,24.4-24.2,3.3-3.1,3.4-5.3,0-8.5-8.3-7.9-16.3-16.1-24.4-24.2v-4.9c10.5,10,20.9,19.9,30.6,29.1,2-2,4-4,6-6,23.2-23.1,46-45.7,68.5-68.1-24.4-24.4-49.1-49.1-74.4-74.3-10,9.8-20.3,20.1-30.6,30.3v-6.2c8.8-9.7,17.6-19.4,25.4-27.9-7.7-8.4-16.5-18-25.4-27.7v-6.2c9.9,10.7,19.8,21.4,29.3,31.6,26.5-26.6,51.2-51.4,75.5-75.6-24.3-24.4-49.1-49.2-74.1-74.3-1.5,1.3-3.3,3-5,4.7-8.6,8.2-17.1,16.5-25.7,24.7v-4.9c8.1-8.1,16.2-16.2,24.5-24.2,3.2-3.1,3.4-5.4,0-8.6-8.3-7.9-16.4-16-24.5-24.1v-4.9c9.3,8.9,18.6,17.7,27.6,26.2,1.1,1.1,2.2,2.1,3.3,3.2,25.2-25.1,49.9-49.8,74.2-74-24.6-24.6-49.3-49.4-75.8-75.9-9.5,10.2-19.4,20.9-29.3,31.6v-6.2c8.9-9.6,17.7-19.2,26.9-29.2-3.4-3.6-7.8-8.2-12.1-12.8h6.2c8.3,12.4,10,12.6,19.8,2.1.5-.6.8-1.4,1.2-2.1h6.2c-4.3,4.6-8.6,9.3-13.1,14.1,1.2,1.5,2.1,2.8,3.2,4,22.5,22.6,45.1,45,67.5,67.7,3.2,3.3,5.1,2.5,7.9-.4,12.4-12.6,24.9-25.1,37.5-37.5,11.1-10.9,22.3-21.8,33.7-32.8-4.9-5.7-9-10.4-13.1-15.1h4.9c7.1,8,14.4,8.1,21.9.5.1-.1.3-.3.4-.5h4.9c-4.1,4.7-8.2,9.5-11.6,13.4,25,25.1,49.6,49.8,73.9,74.1C-50.7-98.3-26-123-1.1-148c-3.9-4.2-8.2-8.8-12.5-13.5h6.2c2.7,3,5.3,6.2,8.4,8.8.9.8,3.7.9,4.5,0,3-2.7,5.4-5.9,8.1-8.9h6.2c-4.3,4.6-8.7,9.2-12.7,13.5,25.1,25,49.7,49.6,74.7,74.5,0,0,1-.3,1.5-.8,23.4-23.4,46.8-46.9,70.2-70.3,2.3-2.3,1.9-4.1-.2-6.2-3.4-3.5-6.6-7.2-9.9-10.8h4.9c13.7,13.9,8.9,12.9,21.8.5.1-.1.3-.3.4-.5h4.9c-2.3,2.6-4.4,5.3-6.8,7.8-6.3,6.3-6.4,6.3-.3,12.3,18.7,18.8,37.5,37.6,56.3,56.3,4.2,4.2,8.5,8.2,12.3,12,23-23,45.5-45.5,68.4-68.3,2.2-2.2,4.4-4.3,6.5-6.5-4-4.3-8.4-8.9-12.7-13.5h6.2c8.4,12.4,10.2,12.5,19.8,2.1.5-.6.8-1.4,1.2-2.1h6.2c-4.3,4.6-8.6,9.3-12.3,13.3,1.8,1.8,3.6,3.7,5.5,5.5,23.1,23.2,46,46.2,68.7,69,24.3-24.4,48.9-49,73.8-74-3.8-4.4-7.9-9.1-12-13.9h4.9c13.5,13.8,9.1,12.7,21.9.5.1-.1.3-.3.4-.5h4.9c-4.1,4.7-8.2,9.5-12.4,14.3,1.1,1.3,1.9,2.5,2.9,3.5,22.7,22.7,45.4,45.3,67.9,68.1,3.9,4,5.9,1.5,8.4-1.1,22.1-22.1,44.2-44.2,66.2-66.3,1.3-1.3,2.3-2.7,3.7-4.4-4.6-4.9-8.9-9.6-13.2-14.2h6.2c2.7,3,5.3,6.2,8.3,8.9.9.8,3.7.8,4.5,0,3-2.7,5.5-5.9,8.2-8.9h6.2c-4.3,4.6-8.7,9.2-14.6,15.5.5.4,1.1.9,1.6,1.3l-2.1,2.1-.3-.3c-25.4,25.3-50.3,49.9-74.8,74.2,24.2,24.3,48.8,49,73.8,74,1-.9,2.1-1.8,3.2-2.8.4-.3.7-.7,1.1-1,9.3-9.3,18.6-18.7,28-27.9,6.1-6,12.5-11.8,18.7-17.7v4.9c-14.9,14.8-29.7,29.6-44.7,44.3-3.3,3.3-2.2,5.4.5,8.1,14.8,14.6,29.5,29.3,44.2,44v4.9c-1.6-1.2-3.3-2.3-4.7-3.7-13.4-13.3-26.8-26.8-40.2-40.1-2-2-4.2-3.9-5.7-5.3-25.2,25.1-50,49.9-74.2,74.1,24.4,24.5,49.2,49.4,75.5,75.8,0,0,.2-.2.3-.3l2,1.9c-.2.2-.2.8-.2,1.1-.4.5-.9.9-1.3,1.3,1.4,1.1,3,2.2,4.4,3.3l-2.3,2.3-.2-.2c-3.4-3.5-5.4-3.5-8.9,0-22.1,22.4-44.4,44.7-66.8,66.8-3.7,3.6-3,5.6.3,8.9l.2.2c22,21.8,43.8,43.7,65.7,65.6,1.4,1.4,3,2.7,5,4.5,17.2-17.2,34.2-34.2,51.2-51.2v6.2c-14.7,14.7-29.3,29.5-44.2,44-3.3,3.2-3.3,5.2,0,8.5,14.8,14.5,29.5,29.3,44.2,44v6.2c-16.9-17-33.9-34-49.8-50-.9.9-1.9,1.9-2.8,2.8-24.5,24.3-48.4,48.1-71.9,71.3,24.3,24.2,49,48.8,74.2,74,16.5-16.4,33.4-33.1,50.3-49.9v6.2c-1.6,1.3-3.2,2.5-4.7,3.9-12.5,12.4-25,24.9-37.5,37.3-6.2,6.2-6.3,6.3,0,12.6,14,13.8,28,27.6,42,41.4h0ZM621.8,325.4c2.9-2.9,2.6-4.9-.2-7.6-22.5-22.3-44.8-44.7-67.1-67.2-3.2-3.3-5.4-3.1-8.5.2-9.6,9.9-19.4,19.6-29.2,29.3-13.7,13.6-27.4,27.2-41.3,41,.8,1.4,1,2.1,1.4,2.5,23.3,23.3,46.6,46.5,69.8,69.9,3.1,3.1,5.1,2.2,7.7-.3,22.5-22.6,45-45.2,67.6-67.7h0ZM550.2,551.6c24.5-24.5,49.2-49.1,73.7-73.5-24.4-24.4-49.1-49.1-73-73-24.7,24.5-49.5,49.2-73.4,73,24.1,24.4,48.6,49.2,72.7,73.5h0ZM623.2,8.3c-24-24-48.5-48.5-72.8-72.9-24.4,24.6-48.9,49.4-73.3,74,24,24.1,48.6,48.9,72.4,72.8,24.6-24.6,49.3-49.4,73.7-73.9h0ZM550.3,238.9c24.3-24.3,49-49,72.7-72.8-24.5-24.9-49.1-49.8-72.9-73.8-24.5,24.3-49.2,48.9-73.4,73,24.4,24.4,49.1,49.1,73.6,73.6ZM550.1,708.1c24.5-24.4,49.2-49,73.5-73.2-24.7-24.8-49.4-49.5-73.4-73.5-24.4,24.3-49.2,49.1-73.3,73.1,24.3,24.5,48.9,49.2,73.2,73.6h0ZM546.1,243.1c-.5-.7-1.1-1.7-2-2.5-22.8-22.9-45.7-45.6-68.4-68.6-3.3-3.4-5.3-2.3-8,.5-14.2,14.3-28.4,28.6-42.7,42.8-9.3,9.2-18.9,18.2-27.7,26.6,25.9,25.8,50.8,50.6,75.1,74.8,24.1-24,48.8-48.7,73.7-73.5h0ZM529.1,418c5.9-5.9,11.8-11.8,17.1-17.2-25.2-25.3-49.9-50-73.8-74.1-24.6,24.5-49.4,49.3-74.5,74.2.2.3.8,1.2,1.5,1.9,22.8,22.8,45.7,45.6,68.5,68.5,3.4,3.4,5.5,2.6,8.5-.4,17.5-17.7,35.1-35.3,52.7-52.9h0ZM545.1,87.6c-24.4-24.4-49.3-49.3-73-73.1-24.4,24.2-49.3,48.9-73.4,72.8,24.3,24.4,48.9,49.2,73.2,73.8,24.5-24.6,49.3-49.5,73.1-73.5h0ZM471.6,629.5c24.7-24.5,49.6-49.2,73.4-72.8-24.4-24.5-49.2-49.4-73.5-73.9-24.3,24.2-49,48.9-73.4,73.3,24.6,24.6,49.5,49.4,73.5,73.4h0ZM472.2,5.1c24.3-24.5,49-49.2,73.6-73.9-24.5-24.6-49.3-49.4-73.5-73.7-24.6,24.5-49.4,49.3-73.8,73.7,24.4,24.4,49.2,49.2,73.8,73.9h0ZM469.3,322.5c-2.7-3-4.3-4.8-6-6.5-21.5-21.5-43.2-43-64.5-64.7-3.8-3.9-6-3.8-9.8,0-21.9,22.3-44.1,44.3-66.3,66.3-3.1,3-3.3,4.9-.2,8,22.5,22.3,45,44.7,67.2,67.2,3.6,3.6,5.7,3,8.9-.3,12.1-12.4,24.3-24.6,36.6-36.7,11.1-11,22.4-21.8,34.1-33.3h0ZM468,8.5c-.6-.7-1.4-1.8-2.4-2.8-22.7-22.7-45.4-45.4-68-68.3-3.4-3.5-5.3-2.1-8,.6-22.2,22.3-44.5,44.7-66.9,66.8-3.3,3.3-3.1,5.3,0,8.5,22.4,22.2,44.6,44.5,66.9,66.8,1.3,1.3,2.7,2.3,3.7,3.1,25-25.1,49.6-49.8,74.5-74.7h0ZM466.9,635.4c-24.7-24.8-49.3-49.6-74.2-74.6.3-.2,0,0-.3.2-23.4,23.2-46.6,46.5-70.1,69.7-3.5,3.5-1.9,5.4.8,8,22.3,22.2,44.5,44.6,66.8,66.8,1.2,1.2,2.7,2.3,4,3.3,24.9-25,49.4-49.6,73-73.4h0ZM467.1,165.2c-24.2-24.4-48.8-49.2-72.9-73.5-24.7,24.7-49.4,49.4-73.6,73.7,24.3,24.4,48.9,49.1,73.1,73.3,24.5-24.5,49.3-49.3,73.5-73.5h0ZM467.2,478c-24.2-24.3-48.9-49-73.1-73.3-24.6,24.5-49.4,49.2-73.2,73,24.3,24.5,48.9,49.4,73,73.7,24.3-24.4,49-49.1,73.2-73.4h0ZM389.7,243c-.2-.3-.5-1.1-1.1-1.7-23.3-23.3-46.6-46.5-69.8-69.9-3.4-3.4-5.2-1.4-7.5.9-12.2,12.2-24.4,24.5-36.6,36.7-11.3,11.3-22.8,22.5-34,33.5,25.4,25.4,50.3,50.1,74.6,74.3,24.6-24.5,49.4-49.1,74.3-73.9h0ZM387.7,559.6c3.7-3.6,1.4-5.5-1.1-8-22-21.9-43.9-43.9-65.9-65.8-1.5-1.5-3.2-2.9-3.8-3.4-25.3,25.3-50.1,50.1-74.3,74.3,24,24.2,48.6,49,73.4,73.9.5-.3,1.2-.7,1.8-1.3,23.3-23.2,46.5-46.6,69.9-69.7h0ZM372.6,418.3c5.9-5.9,12-11.7,17.3-16.8-25.5-25.6-50.2-50.5-74.6-75-24.3,24.2-49.1,48.8-74.3,73.9,1.1,1.3,2.2,2.5,3.3,3.7,22.2,22.3,44.6,44.4,66.6,66.8,3.7,3.8,5.8,3.4,9.3-.1,17.3-17.6,34.8-35,52.3-52.5h0ZM315.4,160.7c24.5-24.5,49.3-49.3,73.9-73.8-24.2-24.2-48.9-48.9-73.2-73.3-24.6,24.7-49.3,49.5-73.7,73.9,24.2,24.3,49,49.2,73,73.3h0ZM389.3-69.6c-24.3-24.3-49-49-73.3-73.4-24.6,24.6-49.4,49.4-73.6,73.6,24.7,24.8,49.3,49.5,73,73.3,24.4-24.3,49.3-49.1,73.9-73.6ZM308.7,13.3c3.8-3.7,2.4-6.1-.7-9.1-22.2-22-44.2-44.2-66.3-66.2-1.2-1.2-2.7-2.3-4.1-3.4-1.1.8-1.8,1.2-2.4,1.8-23.1,23.1-46.2,46.3-69.4,69.4-3.6,3.6-1.6,5.5.9,8,18.8,18.7,37.6,37.5,56.3,56.3,4.6,4.6,8.7,9.8,13.1,14.7,2.5-1.8,3.1-2.1,3.5-2.5,23-23,46-46,69.1-68.8h0ZM311.8,321.7c-1.1-1.5-2-2.8-3.1-4-22.4-22.4-44.8-44.7-67.2-67.2-3.3-3.4-5.4-2.9-8.5.3-22,22.2-44,44.4-66.3,66.3-3.7,3.6-3.6,5.8,0,9.4,22.4,22.1,44.6,44.4,66.7,66.7,2.7,2.7,4.6,3.3,7.6.3,22.5-22.6,45-45.1,67.6-67.7,1.1-1.1,2-2.5,3.2-4h0ZM308.3,638.9c3.3-3.3,3.6-5.6.1-9.1-14.2-14-28.4-28-42.3-42.3-9.2-9.4-18-19.1-27.1-28.9-2.8,2.3-3.7,2.8-4.4,3.6-22.9,22.8-45.7,45.7-68.6,68.4-3.4,3.3-2.2,5.3.6,8,19.4,19.3,38.7,38.7,58,58,4.2,4.2,8.5,8.2,12.8,12.4,1.5-1.1,2.5-1.8,3.4-2.6,22.5-22.5,45-45.1,67.6-67.6h0ZM235.7,240.7c26.3-26.2,51-50.9,75.6-75.3-24.6-24.4-49.3-49-74.4-73.8-.3.2-1.4.8-2.2,1.6-23,23-46,46-69.1,68.9-3.3,3.3-1.4,5.2,1,7.6,17.2,17.1,34.4,34.2,51.5,51.5,6.3,6.4,12.1,13.3,17.7,19.6h0ZM237.6,551.8c24.5-24.6,49.1-49.3,73.6-73.8-24.4-24.3-49.2-49-73.5-73.2-24.6,24.4-49.3,48.9-73.5,72.9,24.4,24.7,49,49.4,73.4,74ZM234,243.8c-1-1.3-1.7-2.5-2.6-3.5-3.2-3.2-6.4-6.4-9.6-9.6-19.3-19.4-38.7-38.7-58-58.1-3-3-5.1-3.9-8.5-.4-22.3,22.5-44.7,44.9-67.1,67.3-2.3,2.3-4.3,4.1-.9,7.5,23.1,22.9,46,45.9,68.9,68.9,2.5,2.5,4.2,2.4,6.6,0,22.8-22.9,45.6-45.7,68.4-68.5,1-1,1.8-2.2,2.9-3.5h0ZM231.3,90.6c2.8-2.8,2.1-4.6-.4-7.1-22.8-22.7-45.5-45.4-68.1-68.1-2.7-2.7-4.5-2.5-7.1,0-22.6,22.8-45.3,45.5-68.1,68.1-3,2.9-2.7,4.9,0,7.6,6.7,6.4,13.2,13,19.7,19.6,16.9,17.1,33.8,34.1,51.1,51.5,1.6-1.1,2.3-1.4,2.9-2,23.3-23.2,46.6-46.5,69.9-69.7h0ZM231.2,403.3c1-1,1.7-2.2,2.7-3.5-1-1.3-1.8-2.5-2.7-3.5-22.7-22.7-45.4-45.3-68-68.1-3.1-3.2-5.1-2.7-8,.2-22.4,22.6-45,45.1-67.6,67.6-2.8,2.8-3,4.7,0,7.6,22.8,22.6,45.5,45.3,68.1,68.1,2.5,2.5,4.4,3,7.1.2,22.8-22.9,45.6-45.7,68.5-68.6h0ZM230.2-64.6c1.3-1.3,2.4-2.7,3.3-3.8-25.1-25.1-49.9-49.8-74.4-74.3-24.4,24.3-49.1,48.9-74.4,74.1,1.8,1.9,3.3,3.5,4.9,5.1C111.3-41.8,133-20.3,154.5,1.6c4,4.1,6.2,3.4,9.8-.3,21.8-22.1,43.9-44,65.9-66h0ZM229.6,561.3c1.5-1.5,2.9-3.2,3.9-4.4-25.2-25.2-49.9-49.9-74.3-74.4-24.4,24.4-49,49.1-74.1,74.2.8.9,1.5,2,2.3,2.8,22.8,22.9,45.7,45.7,68.4,68.7,3.6,3.6,5.4,1.6,7.9-.9,21.9-22,43.9-44,65.9-66h0ZM152.9,638.1c4-4,1.2-5.9-1.3-8.4-22-22-44-43.9-65.8-66-3.7-3.7-5.7-3.6-9.3,0-21.7,22-43.5,43.8-65.4,65.4-4,3.9-4.3,6.3-.1,10.4,15.3,14.9,30.3,30.2,45.4,45.4,8.1,8.1,16.3,16.1,24.6,24.3,1.3-1,2.2-1.5,2.9-2.2,23-23,45.9-46,69.1-68.8h0ZM152.6,481.8c3.3-3.2,2.6-5.2-.3-8-14.2-14-28.3-28.1-42.3-42.3-9.4-9.5-18.5-19.2-27-28.1-26,25.8-50.9,50.4-75.6,74.9,24.4,24.4,49.1,49.1,74,73.9.9-.7,2.1-1.5,3.1-2.5,22.7-22.7,45.3-45.4,68.2-68h0ZM152.3,326.1c3.1-3.1,3.6-5.2.3-8.5-22.7-22.4-45.1-45-67.7-67.5-1-1-2.2-1.7-3.5-2.8-1.4,1.1-2.8,2-3.9,3.1-22.3,22.2-44.5,44.5-66.8,66.7-3.3,3.2-3.9,5.5-.2,9,22.4,22.1,44.7,44.4,66.8,66.7,3.2,3.2,5.1,3.4,8.4,0,22.1-22.4,44.4-44.6,66.7-66.7h0ZM151.5,170.4c3.9-3.8,4.1-5.9.2-9.8-19.4-19.1-38.5-38.4-57.7-57.6-4.2-4.2-8.4-8.2-12.7-12.3-1.3,1-2,1.5-2.6,2.1-23,23-46,46-69.1,68.8-3.3,3.2-2.5,5.3.3,8.1,10.4,10.2,20.8,20.6,31,30.9,13,13.1,26,26.3,39.6,40.2,2.7-2.5,4.5-4.1,6.2-5.8,21.5-21.5,42.9-43.2,64.7-64.5h0ZM151.3,14.2c4.1-4,4.3-6.2.1-10.2-15.2-14.8-30.1-29.8-45-45-8.2-8.3-16-17-24-25.5-.5.4-1,.8-1.6,1.2-.8.6-1.7,1-2.4,1.7C55.7-40.8,32.9-17.9,9.9,4.8c-3.9,3.8-2.2,6.1.8,9,21,20.9,41.9,41.9,62.9,62.8,2.4,2.4,5,4.7,7.7,7.2,1.7-1.5,2.9-2.6,4.1-3.7,22-22,43.8-44.1,66-65.8h0ZM77.5,242.9c-.8-.9-1.5-1.9-2.4-2.7-22.4-22.4-44.9-44.7-67.2-67.3-3.9-3.9-6.1-3.7-9.8.1-21.8,22.2-43.9,44.1-65.9,66.1-1.3,1.3-2.5,2.7-3.1,3.4,25,25.1,49.8,49.9,74.3,74.5,24.2-24.2,48.9-49,74.1-74.2h0ZM64.7,413.9c4.5-4.4,9.5-8.3,13.6-11.8-26.3-26.4-51-51.3-75.9-76.4-.5.4-1.4,1-2.1,1.7-23,23-45.9,46-69,68.8-3.5,3.4-2,5.3.7,8,22.2,22,44.4,44.1,66.3,66.4,3.8,3.9,6,3.9,9.8,0,18.7-19.1,37.7-37.9,56.7-56.7h0ZM3,161.1c24.4-24.4,49.1-49.2,72.7-72.9C51.3,63.5,26.6,38.5,2.4,14c-24.2,24.2-48.9,48.9-73.2,73.2,24.5,24.6,49.3,49.4,73.8,73.9ZM3.5,4.6c24.2-24.3,48.9-49,73-73.1C51.6-93.3,26.8-118.1,3.1-141.8c-24.3,24.1-49.1,48.8-73.2,72.9C-45.8-44.6-21.1-19.9,3.5,4.6ZM76.2,556.6c-24.4-24.6-49.2-49.4-73-73.4-24.5,24.3-49.3,49-74,73.5,24.3,24.3,49,48.9,73.2,73.2,24.9-24.7,49.7-49.4,73.8-73.2ZM-3.2,12.4c3.3-3.3,1.4-5.2-1-7.6C-26.5-17.4-48.8-39.6-71-62c-3.2-3.2-5.2-3.3-8.5,0-22.1,22.4-44.5,44.6-66.7,66.9-1.3,1.3-2.3,2.7-3.2,3.8,24.9,25,49.5,49.7,74.4,74.6.6-.3,1-.4,1.3-.7C-50.2,59.1-26.8,35.7-3.2,12.4ZM-4.4,638.9c3.9-3.8,3.1-6-.3-9.4-22-21.7-43.7-43.6-65.6-65.4-1.5-1.5-3.3-2.9-4.8-4.2-25.1,25-49.6,49.6-74,74,24.8,24.9,49.5,49.7,74.4,74.7,1.1-1,2.5-2.1,3.8-3.4,22.1-22.1,44.2-44.4,66.5-66.3h0ZM-75.2,238.9c24.6-24.4,49.3-49,73.9-73.4-24.6-24.4-49.4-48.9-73.7-73.1-24.3,24.2-49.1,48.9-73.2,72.9,24.3,24.5,48.9,49.3,73,73.6h0ZM-1.8,322.3c-24.7-24.9-49.2-49.6-73.9-74.5-.3.2-1.1.6-1.6,1.1-23.2,23.1-46.3,46.2-69.5,69.2-3.4,3.3-2,5.3.7,8,16.9,16.8,33.7,33.7,50.6,50.6,6.6,6.6,13.4,13.1,19.9,19.6,25.2-25.3,49.9-50,73.8-73.9h0ZM-1.3,478.1c-24.5-24.5-49.2-49.2-73.6-73.5-24.7,24.7-49.4,49.3-73.3,73.1,24.4,24.6,49,49.4,73.2,73.8,24.4-24.4,49.2-49,73.7-73.4h0ZM-79.3,243c-.1-.2-.5-1-1-1.5-23.3-23.3-46.6-46.6-69.8-69.9-2.5-2.5-4.2-2.4-6.6,0-6.6,6.8-13.4,13.4-20.1,20.1-17,17-34,34-50.5,50.4,25.3,25.5,50,50.4,74.1,74.7,24.3-24.3,49-49,73.9-73.9h0ZM-89.3,411.2c3.6-3.6,7.8-6.5,11.3-9.4-26.2-26.3-50.9-51-75.3-75.4-24.7,24.7-49.4,49.4-74.4,74.3.3.4.9,1.3,1.6,2,22.8,22.9,45.7,45.7,68.4,68.6,3.2,3.3,5.4,3,8.5-.2,19.8-20.1,39.7-40,59.8-59.9h0ZM-153.7,629.3c24.6-24.3,49.5-48.9,73.4-72.5-24.4-24.6-49.1-49.5-73.3-73.9-24.3,24.3-49,49-73.1,73,24.8,24.9,49.5,49.8,73,73.4h0ZM-79.6-68.9c-24.5-24.4-49.2-49.1-73.9-73.8-24.4,24.4-49.2,49.1-73.7,73.7,24.5,24.5,49.3,49.3,73.8,73.8,24.6-24.5,49.4-49.3,73.9-73.7h0ZM-153,160.4c24.3-24.2,49-48.8,73.6-73.3-24.5-24.5-49.4-49.3-74-73.8-24.5,24.5-49.2,49.3-73.1,73.2,24.5,24.7,49.4,49.6,73.5,73.9ZM-156.8,322.6c-.9-1.5-1.1-2.1-1.5-2.6-23.2-23.3-46.6-46.6-69.7-70-3.1-3.2-5.2-2.1-7.6.4-22.5,22.6-45,45.2-67.6,67.6-2.6,2.6-2.8,4.5-.2,7.1,22.6,22.5,45.2,45,67.7,67.6,3.6,3.6,5.8,2.8,9-.4,14.1-14.4,28.4-28.6,42.7-42.9,9-9,18.1-17.9,27.3-27h0ZM-157.3,633.9c-.6-.8-1.4-2-2.4-3-22.7-22.7-45.4-45.4-68-68.2-3-3.1-4.9-2.4-7.6.2-22.8,22.9-45.7,45.7-68.5,68.6-.8.8-1.3,2-1.8,2.9,24.9,24.8,49.5,49.3,74,73.7,24.8-24.8,49.4-49.4,74.3-74.3h0ZM-232.7,84c25.8-25.8,50.5-50.4,74.5-74.4-24.5-24.6-49.2-49.4-74.1-74.3-.3.2-1,.6-1.6,1.1-23.2,23.1-46.3,46.3-69.5,69.3-2.9,2.9-1.9,4.7.5,7.1,8.1,7.9,16.1,16,24,24,15.4,15.7,30.8,31.4,46.2,47.1ZM-158.6,478.5c-24.2-24.5-48.7-49.3-72.6-73.5-24.6,24.5-49.4,49.2-73.5,73.3,24.3,24.4,48.9,49.2,72.8,73.3,24.7-24.6,49.5-49.3,73.3-73.1h0ZM-231.5,239c24.6-24.6,49.2-49.3,73.3-73.4-24.4-24.5-49.1-49.4-73.3-73.8-24.6,24.4-49.3,49-73.8,73.4,24.6,24.6,49.3,49.2,73.9,73.8Z"/>
        <path class="cls-9" d="M383,87.4c-22.3,22.4-45,45.2-69.3,69.7-1.4-2.1-2.7-4.9-4.7-6.9-19.4-19.6-38.9-39.1-58.5-58.5-3.1-3.1-3.7-5-.2-8.4,21.1-20.8,42-41.8,62.9-62.8.6-.6,1.3-1,1.8-1.4,23.1,23.2,45.9,46,68,68.3h0ZM315.8,118.5c6.9-14.2,17.2-23.8,31.1-31.4-14.4-7-23.8-17.3-31.2-30.9-7.4,13.8-17.2,23.7-31.1,30.9,13.8,7.5,23.8,17.4,31.2,31.3h0Z"/>
        <path class="cls-1" d="M389.3,86.9c-24.6,24.6-49.4,49.3-73.9,73.8-24-24.1-48.8-48.9-73-73.3,24.3-24.4,49.1-49.2,73.7-73.9,24.3,24.4,49,49,73.2,73.3h0ZM313.7,157c24.3-24.4,47-47.2,69.3-69.7-22.2-22.2-44.9-45.1-68-68.3-.5.4-1.2.8-1.8,1.4-21,20.9-41.8,42-62.9,62.8-3.4,3.4-2.9,5.3.2,8.4,19.6,19.4,39.1,38.9,58.5,58.5,2,2,3.3,4.7,4.7,6.9h0Z"/>
        <path class="cls-1" d="M346.9,87.2c-13.9,7.5-24.1,17.2-31.1,31.4-7.4-13.9-17.4-23.8-31.2-31.3,13.9-7.2,23.7-17.1,31.1-30.9,7.4,13.6,16.8,23.8,31.2,30.9h0Z"/>
        <path class="cls-1" d="M316-143c24.3,24.4,49,49.1,73.3,73.4-24.6,24.5-49.4,49.2-73.9,73.6-23.7-23.8-48.4-48.6-73-73.3,24.1-24.2,49-49,73.6-73.6ZM380.4-64.5c1.4-1.4,2.6-3,3.3-3.8-23.1-23.2-45.8-46-68.8-69-.4.3-1.2.9-1.9,1.5-21.1,21.1-42.2,42.2-63.4,63.2-3.3,3.3-1.7,5,.7,7.5,20.3,20.2,40.6,40.3,60.6,60.8,4,4.1,6.2,3.3,9.8-.3,19.8-20,39.8-39.9,59.7-59.8h0Z"/>
        <path class="cls-1" d="M308,4.1c3.1,3,4.4,5.4.7,9.1-23.1,22.8-46.1,45.8-69.1,68.8-.4.4-1,.7-3.5,2.5-4.4-4.9-8.5-10-13.1-14.7-18.7-18.9-37.5-37.6-56.3-56.3-2.5-2.5-4.6-4.4-.9-8,23.2-23,46.3-46.2,69.4-69.4.6-.6,1.3-1,2.4-1.8,1.4,1.1,2.9,2.2,4.1,3.4,22.1,22.1,44.2,44.2,66.3,66.2h0ZM302.6,13.4c1.1-1.1,2.1-2.5,3.4-4.2-1.7-2-3-4-4.7-5.7-19.8-19.8-39.6-39.5-59.3-59.5-3.8-3.8-6.1-3.2-9.5.3-20,20.2-40,40.3-60.2,60.2-3.5,3.5-3.4,5.6,0,9,20.3,20.1,40.5,40.4,60.7,60.7,3.1,3.1,5.2,3.6,8.6.2,20.2-20.5,40.7-40.8,61-61.2h0Z"/>
        <path class="cls-6" d="M303.5,161.8c2.5,2.5,2.9,4.3,0,7.1-21,20.8-41.9,41.8-62.8,62.8-.8.8-1.8,1.5-3.1,2.6-1.4-1.1-2.7-2-3.8-3.1-20.4-20.4-40.6-40.8-61.1-61.1-3.3-3.2-3.9-5.4-.3-9,20.7-20.4,41.1-40.9,61.5-61.5,3-3,4.9-2.5,7.6.2,20.6,20.7,41.2,41.4,62,62h0ZM260.9,183.2c6.3-2.6,9.5-8.9,8.7-16.2-.8-7.7-5.3-12-12.9-13.8-1.3-.3-2.9-2.7-3.1-4.3-1.4-10-6.7-15.5-15.7-15.7-9.3-.2-14.9,5.2-16.6,15.5-.3,1.8-2.3,4-4.1,4.6-6.9,2.4-11.5,7.3-12.1,14.1-.6,6.3,2.7,12.2,8.5,15.2,6,3.1,13.3,2.3,18.5-2.1,1.1-1,2.3-1.9,3.4-2.8.4.3.9.6,1.3.9,0,0,0,0,0,.1-2.7,6.1-5.4,12.1-8.1,18.2h17.8c-2.9-6.2-5.5-11.9-8.1-17.5.5-.3,1.1-.6,1.6-.9.3.2.8.3,1,.5,5.7,5.8,12.5,7.1,19.8,4.1h0Z"/>
        <path class="cls-6" d="M306,9.2c-1.4,1.7-2.3,3-3.4,4.2-20.4,20.4-40.8,40.7-61,61.2-3.4,3.4-5.5,2.9-8.6-.2-20.1-20.3-40.3-40.6-60.7-60.7-3.4-3.4-3.5-5.5,0-9,20.2-19.9,40.3-40,60.2-60.2,3.4-3.5,5.7-4.1,9.5-.3,19.6,19.9,39.5,39.6,59.3,59.5,1.7,1.7,3.1,3.7,4.7,5.7h0ZM264.9,30.1c6.5-6,6.4-16.5-.2-23.8-7.8-8.5-15.7-16.9-23.4-25.5-2.8-3.2-4.8-3.6-7.8-.1-7.1,8-14.6,15.6-21.7,23.6-2.4,2.7-4.5,5.9-5.9,9.3-2.6,6.3.3,14.5,5.7,18.1,5.9,3.9,12.9,2.9,18.3-2.9,1.6-1.7,2.5-4.1,3.8-6.1,1,.8,2,1.7,3,2.5-3.1,5-6.1,10-9.4,15.4h20.8c-2.4-3.1-4.3-5.1-5.7-7.5-1.5-2.5-2.5-5.3-3.8-8,.7-.5,1.5-1,2.2-1.4.6,1,1.1,2.2,2,3.1,7.1,8,15.7,9.3,22,3.4h0Z"/>
        <path class="cls-1" d="M311.3,165.4c-24.5,24.5-49.2,49.1-75.6,75.3-5.6-6.2-11.4-13.1-17.7-19.6-17-17.3-34.3-34.4-51.5-51.5-2.3-2.3-4.3-4.3-1-7.6,23.1-22.9,46.1-45.9,69.1-68.9.8-.8,2-1.4,2.2-1.6,25,24.9,49.8,49.4,74.4,73.8h0ZM303.6,168.9c2.8-2.8,2.4-4.6,0-7.1-20.7-20.6-41.4-41.3-62-62-2.7-2.7-4.6-3.2-7.6-.2-20.4,20.6-40.9,41.2-61.5,61.5-3.6,3.6-3,5.7.3,9,20.5,20.3,40.7,40.7,61.1,61.1,1.1,1.1,2.5,2,3.8,3.1,1.3-1.1,2.3-1.7,3.1-2.6,20.9-20.9,41.8-41.9,62.8-62.8h0Z"/>
        <path class="cls-9" d="M264.7,6.3c6.6,7.3,6.7,17.8.2,23.8-6.3,5.9-14.9,4.6-22-3.4-.8-.9-1.3-2.1-2-3.1-.7.5-1.5,1-2.2,1.4h-1.9c-1-.7-2-1.6-3-2.4-1.2,2.1-2.2,4.4-3.8,6.1-5.4,5.8-12.4,6.8-18.3,2.9-5.4-3.5-8.3-11.8-5.7-18.1,1.4-3.3,3.5-6.5,5.9-9.3,7.1-8,14.6-15.6,21.7-23.6,3-3.5,5-3,7.8.1,7.7,8.6,15.6,17,23.4,25.5Z"/>
        <path class="cls-9" d="M248.2,40.5h-20.8c3.3-5.4,6.4-10.4,9.4-15.4h1.9c1.2,2.6,2.3,5.4,3.8,7.9,1.4,2.4,3.3,4.4,5.7,7.5h0Z"/>
        <path class="cls-1" d="M230.9,83.5c2.4,2.4,3.2,4.3.4,7.1-23.4,23.2-46.6,46.5-69.9,69.7-.6.6-1.3.9-2.9,2-17.3-17.4-34.2-34.5-51.1-51.5-6.5-6.6-13-13.1-19.7-19.6-2.8-2.7-3-4.6,0-7.6,22.8-22.6,45.5-45.3,68.1-68.1,2.6-2.6,4.4-2.8,7.1,0,22.6,22.8,45.3,45.5,68.1,68.1h0ZM225.4,90.6c3.3-3.2,1.8-5-.7-7.5-20-19.9-39.9-39.8-59.8-59.8-1.7-1.7-3.5-3.2-5.1-4.7-1,.4-1.5.4-1.8.7-21.7,21.6-43.4,43.3-65.1,64.9-2.4,2.4-1.8,4.1.4,6.2,4.9,4.7,9.6,9.6,14.4,14.4,16.9,17.1,33.9,34.1,51.1,51.5,1.5-1.1,2.3-1.5,2.8-2.1,21.2-21.2,42.4-42.5,63.8-63.6h0Z"/>
        <path class="cls-1" d="M233.5-68.4c-.9,1.1-2,2.5-3.3,3.8-22,22-44,43.9-65.9,66-3.7,3.7-5.8,4.3-9.8.3-21.5-21.9-43.3-43.5-64.9-65.2-1.6-1.6-3.1-3.2-4.9-5.1,25.3-25.2,50-49.8,74.4-74.1,24.5,24.5,49.3,49.3,74.4,74.3h0ZM224.8-65c3-3,3.3-4.8.1-7.9-12.7-12.3-25.1-24.9-37.6-37.5-9.1-9.2-18-18.5-27.7-28.4-23,23.1-44.9,45.1-66.9,67-2.9,2.9-.9,4.6,1.1,6.6,20.7,20.7,41.4,41.3,61.9,62,3,3.1,4.8,2.4,7.5-.3,20.4-20.6,40.9-41.1,61.5-61.6h0Z"/>
        <path class="cls-9" d="M224.7,83.1c2.5,2.5,4,4.2.7,7.5-21.4,21.1-42.5,42.4-63.8,63.6-.6.6-1.3,1-2.8,2.1-17.3-17.4-34.2-34.4-51.1-51.5-4.8-4.8-9.5-9.7-14.4-14.4-2.2-2.1-2.8-3.8-.4-6.2,21.7-21.6,43.4-43.3,65.1-64.9.3-.3.7-.3,1.8-.7,1.5,1.4,3.4,3,5.1,4.7,19.9,19.9,39.8,39.9,59.8,59.8h0ZM188.9,90.5c4.1-10.4,4.5-21-3.1-30.4-5.2-6.4-13.8-6.8-19.5-.9-2.4,2.5-4.3,5.5-7,9-2-2.7-3.5-4.8-5.1-6.8-7-8.6-16.9-8.2-23,1-4.8,7.2-5.1,15.2-3.1,23.1,4,15.4,15.2,25,28.4,32.5,1.5.8,4.3.8,5.8,0,11.5-6.5,21.5-14.8,26.5-27.4h0Z"/>
        <path class="cls-1" d="M185.8,60.1c7.5,9.4,7.2,19.9,3.1,30.4-5,12.6-15,20.9-26.5,27.4-1.5.9-4.3.9-5.8,0-13.2-7.5-24.4-17.1-28.4-32.5-2.1-7.9-1.8-15.9,3.1-23.1,6.1-9.2,16-9.6,23-1,1.6,2,3.1,4.2,5.1,6.8,2.7-3.5,4.6-6.5,7-9,5.7-5.9,14.3-5.5,19.5.9h0Z"/>
        <path class="cls-1" d="M151.7,160.6c3.9,3.8,3.7,5.9-.2,9.8-21.7,21.3-43.1,43-64.7,64.5-1.7,1.7-3.5,3.3-6.2,5.8-13.6-13.8-26.6-27-39.6-40.2-10.3-10.4-20.6-20.7-31-30.9-2.8-2.8-3.6-4.8-.3-8.1,23.1-22.9,46.1-45.9,69.1-68.8.6-.6,1.3-1,2.6-2.1,4.2,4.1,8.5,8.1,12.7,12.3,19.2,19.2,38.3,38.5,57.7,57.6h0ZM146.9,169.1c1-1,1.7-2.2,2.8-3.6-1.1-1.4-2-2.8-3.1-3.9-20.5-20.5-41-41-61.5-61.6-2.9-2.9-4.9-3.4-8.1-.2-20.4,20.6-40.9,41.1-61.6,61.6-3,3-3.1,5,0,8,20.8,20.5,41.4,41.2,62,61.9,2.6,2.6,4.2,3,7,.2,20.7-20.9,41.6-41.6,62.4-62.4h0Z"/>
        <path class="cls-1" d="M151.5,4c4.1,4,3.9,6.2-.1,10.2-22.2,21.8-44,43.9-66,65.8-1.1,1.1-2.4,2.2-4.1,3.7-2.7-2.5-5.2-4.7-7.7-7.2C52.6,55.7,31.7,34.7,10.7,13.9c-3-3-4.7-5.2-.8-9,23-22.7,45.8-45.6,68.6-68.4.7-.7,1.6-1.1,2.4-1.7.5-.4,1-.8,1.6-1.2,8,8.5,15.8,17.2,24,25.5,14.8,15.1,29.8,30.2,45,45ZM146.8,13.3c2.9-2.9,3.4-4.9.2-8-20.8-20.5-41.4-41.2-61.9-61.9-3-3-4.9-2.6-7.6.1C57-36,36.5-15.5,16,4.9c-3.2,3.2-3.1,5.5,0,8.7,20.3,20.1,40.5,40.3,60.7,60.5,1.3,1.3,2.7,2.4,4.5,3.9,1.6-1.4,3.1-2.4,4.4-3.7,20.4-20.3,40.7-40.7,61.1-61Z"/>
        <path class="cls-6" d="M147,5.2c3.2,3.2,2.7,5.1-.2,8-20.5,20.3-40.8,40.7-61.1,61-1.2,1.3-2.7,2.3-4.4,3.7-1.7-1.5-3.2-2.6-4.5-3.9C56.5,53.9,36.4,33.6,16,13.5c-3.2-3.2-3.3-5.4,0-8.7,20.6-20.4,41-40.9,61.5-61.5,2.7-2.7,4.7-3.1,7.6-.1,20.5,20.8,41.2,41.4,61.9,61.9ZM105.7,26.4c6-3.4,8.3-8.9,7.9-15.5-.4-6.2-4.8-11.5-11.1-13.3-3.4-.9-4.8-2.2-5.2-6.1-.8-8.9-7.6-14.7-16.1-14.6-8.1,0-15.4,5.9-15.6,13.6-.1,4.8-2.1,6.2-6.1,7.4-6.5,1.9-10,7-10.3,13.7-.3,7.1,3,12.4,9.2,15.2,8,3.7,14.5.4,20.6-4.9.5.4.9.7,1.4,1.1-2.6,5.7-5.1,11.4-7.8,17.5h17.6c-2.9-6.4-5.5-12.2-8.2-18.1.5-.4.9-.7,1.4-1.1,1.3,1.2,2.6,2.4,3.9,3.5,5.1,4.2,12.5,4.9,18.5,1.5h0Z"/>
        <path class="cls-6" d="M149.8,165.5c-1.1,1.4-1.8,2.6-2.8,3.6-20.8,20.8-41.7,41.5-62.4,62.4-2.8,2.8-4.4,2.4-7-.2-20.6-20.7-41.2-41.4-62-61.9-3.1-3.1-3-5.1,0-8,20.6-20.4,41.2-40.9,61.6-61.6,3.2-3.2,5.2-2.7,8.1.2,20.4,20.6,41,41.1,61.5,61.6,1.1,1.1,2,2.5,3.1,3.9h0ZM108.3,186.7c6.4-5.4,7.2-15.1,1.6-22.2-2.5-3.2-5.3-6.3-8.1-9.3-6.8-7.3-13.7-14.5-20.8-21.9-8.3,8.9-16.1,17.1-23.6,25.5-2.6,2.9-5.2,5.9-7,9.3-3.5,6.9-1,15.7,5.1,19.8,6,4.1,12.7,2.9,18.7-3.3,1.4-1.4,2.8-2.7,4.2-4,.6.4,1.1.8,1.7,1.1-3,5.1-6,10.2-9,15.3h21c-2.3-2.9-4.4-5.2-6-7.8-1.5-2.5-2.6-5.4-3.8-8.1.9-.7,1.8-1.3,2.7-2,.9,1.6,1.4,3.5,2.7,4.8,6.6,7.1,14.4,8.1,20.7,2.8h0Z"/>
        <path class="cls-9" d="M113.6,10.9c.4,6.6-1.9,12.1-7.9,15.5-6,3.3-13.4,2.7-18.5-1.5-1.3-1.1-2.6-2.3-3.9-3.5-.5.4-1,.7-1.4,1.1l-1.6.6c-.5-.4-.9-.7-1.4-1.1-6.1,5.3-12.6,8.6-20.6,4.9-6.1-2.8-9.5-8.1-9.2-15.2.3-6.8,3.8-11.9,10.3-13.7,4-1.1,6-2.6,6.1-7.4.2-7.7,7.5-13.5,15.6-13.6,8.5,0,15.3,5.7,16.1,14.6.3,3.9,1.8,5.2,5.2,6.1,6.4,1.7,10.7,7.1,11.1,13.3h0Z"/>
        <path class="cls-9" d="M90.1,40.5h-17.6c2.7-6,5.3-11.8,7.8-17.5l1.6-.6c2.7,5.9,5.3,11.7,8.2,18.1h0Z"/>
        <path class="cls-9" d="M68.2,83c3,3,3.9,4.9.4,8.4-21.1,20.8-42,41.8-63,62.8-.6.6-1.2,1-2,1.7-23-23.1-45.5-45.8-67.8-68.3C-42,65.4-19,42.7,4.3,19.5c.5.4,1.9,1.6,3.2,2.8,20.2,20.2,40.4,40.5,60.8,60.6h0ZM2.9,118.5c7.3-13.9,17.5-23.7,31.2-31.4-14.1-7-23.5-17.3-31.3-30.9-6.9,14.1-17.1,23.7-30.7,31.1,13.7,7.5,23.8,17.1,30.8,31.2h0Z"/>
        <path class="cls-1" d="M75.7,88.2c-23.6,23.6-48.4,48.5-72.7,72.9-24.5-24.5-49.3-49.3-73.8-73.9C-46.5,62.9-21.9,38.2,2.4,14c24.2,24.5,49,49.5,73.4,74.2ZM68.5,91.4c3.5-3.5,2.7-5.4-.4-8.4C47.8,62.9,27.7,42.6,7.4,22.3c-1.3-1.3-2.7-2.4-3.2-2.8-23.3,23.1-46.3,45.9-68.6,68.1,22.3,22.4,44.9,45.2,67.8,68.3.8-.6,1.5-1.1,2-1.7,21-21,41.9-42,63-62.8h0Z"/>
        <path class="cls-1" d="M34.1,87.1c-13.7,7.7-23.9,17.5-31.2,31.4-7-14.1-17.2-23.7-30.8-31.2,13.6-7.4,23.8-17,30.7-31.1,7.8,13.5,17.2,23.9,31.3,30.9h0Z"/>
        <path class="cls-1" d="M76.4-68.5C52.3-44.4,27.7-19.6,3.5,4.6c-24.6-24.5-49.3-49.3-73.7-73.6C-46-93-21.2-117.7,3.1-141.8c23.8,23.7,48.5,48.5,73.4,73.3ZM68.4-65c3.4-3.3,3-5.3-.2-8.4-19.6-19.4-39.1-38.9-58.6-58.5-2-2-3.4-4.6-4.8-6.5-24,24.1-46.7,46.9-69.8,70-.1-.4,0,.3.3.7C-43-46-21.3-24.3.3-2.5,3.1.4,4.8-1.4,6.8-3.5c20.5-20.6,41-41.1,61.6-61.5Z"/>
      </g>
    </g>
    <rect class="cls-10" x="21.5" y="34.4" width="239.3" height="95.6"/>
    <path class="cls-8" d="M228,130s0,0,0,0c-1-.7-1.8-1.2-2.5-1.7-15-9-29.4-18.8-43.2-29.5-13.7-10.6-26.6-21.9-39-34-2.1-2-2.1-2-4.1,0-8.4,7.7-16.7,15.6-25.4,23-18,15.3-37.3,28.9-57.6,41-.5.3-.9.7-1.7,1.2,0,0,0,0,0,0h173.6Z"/>
  </g>
</svg>