<?xml version="1.0" encoding="UTF-8"?>
<svg id="Layer_1" data-name="Layer 1" xmlns="http://www.w3.org/2000/svg" xmlns:xlink="http://www.w3.org/1999/xlink" version="1.1" viewBox="0 0 167.9 154.8">
  <defs>
    <style>
      .cls-1 {
        fill: #b9ad50;
      }

      .cls-1, .cls-2, .cls-3, .cls-4, .cls-5, .cls-6, .cls-7, .cls-8, .cls-9, .cls-10, .cls-11, .cls-12, .cls-13 {
        stroke-width: 0px;
      }

      .cls-2 {
        fill: #b7ac92;
      }

      .cls-14 {
        clip-path: url(#clippath);
      }

      .cls-3 {
        fill: none;
      }

      .cls-4 {
        fill: #baab53;
      }

      .cls-5 {
        fill: #a99371;
      }

      .cls-6 {
        fill: #e4d659;
      }

      .cls-7 {
        fill: #a58d47;
      }

      .cls-8 {
        fill: #c4d46f;
      }

      .cls-9 {
        fill: #a58c4d;
      }

      .cls-10 {
        fill: #e2df62;
      }

      .cls-11 {
        fill: #e4d96e;
      }

      .cls-12 {
        fill: #a5816a;
      }

      .cls-13 {
        fill: #acd25c;
      }
    </style>
    <clipPath id="clippath">
      <rect class="cls-3" width="167.9" height="154.8"/>
    </clipPath>
  </defs>
  <g class="cls-14">
    <g>
      <g>
        <path class="cls-5" d="M422.2,336.8v5.3c-13.9-13.7-27.7-27.3-40.7-40.2l-2.2-2.2c-21.8,21.7-43.1,42.9-64,63.7,20.7,20.8,41.8,42,63.7,64,.8-.9,1.7-1.8,2.6-2.6l2.1,2.1h0c-2.1,2-2,3.5-.8,5.2l-1.9,1.8c-.4-.5-.9-1-1.3-1.5-22.5,22.5-43.8,43.7-66.4,66.3,5.9,5.3,11.9,10.7,17.9,16.2h-5.3c-4.7-5-9.5-10-14.2-15-5.7,5.5-10.6,10.2-15.5,15h-4.2c5.4-5.9,10.8-11.8,16.1-17.5-21.4-21.4-42.7-42.6-63.2-63.1-21.2,21.1-42.6,42.3-64,63.7,5,5.4,10.3,11.2,15.7,17h-4.2c-4.9-5-9.7-10-15.1-15.6-5.3,5.6-9.9,10.6-14.6,15.6h-5.3c5.7-5.8,11.4-11.7,16.6-17.1-21.7-21.8-42.8-43-63.5-63.9l-3,3c-20.1,20.1-40.5,40.4-62.1,62,5.8,5.1,11.8,10.5,17.8,15.9h-5.3c-4.7-4.9-9.3-9.8-13.8-14.5-1.2.5-1.8.6-2.1.9-4.6,4.5-9.2,9.1-13.8,13.7h-4.2c5.4-5.9,10.7-11.8,15.6-17.2-21.4-21.5-42.6-42.6-63.9-64-.2.1-.8.4-1.3.9-20,19.9-39.9,39.9-59.9,59.8-2.1,2.1-2.1,3.6,0,5.7,4.8,4.8,9.4,9.9,14.1,14.9h-4.2c-4.1-4.1-8-8.4-12.3-12.2-1.1-1-4.2-1.4-5-.6-4.4,4-8.3,8.5-12.3,12.8h-5.3c5.6-5.8,11.2-11.6,16.5-17.2-21.6-21.5-42.9-42.7-63.7-63.5-20.9,20.9-42.2,42.1-64.9,64.7,5.8,5.2,11.8,10.6,17.8,16h-5.3c-4.8-5-9.5-10-14.4-15.1-5.6,5.5-10.4,10.3-15.3,15.1h-4.2c5.4-5.9,10.8-11.8,15.9-17.4-21.5-21.4-42.7-42.6-63.8-63.6-20.9,20.9-42.2,42.1-63.6,63.5,5.2,5.6,10.7,11.5,16.1,17.4h-4.2c-5-4.9-9.9-9.9-15.4-15.3-5,5.3-9.6,10.3-14.3,15.3h-5.3c5.7-5.9,11.4-11.7,16.4-16.9-21.8-21.9-42.9-43-65.4-65.6-.7.9-1.3,1.8-2,2.8l-1.9-1.9h0c2.5-2.4,2.5-4.2,0-6.5-7.2-7-14.3-14-21.4-21.1v-4.2c8,7.6,16,15.2,23.6,22.4.9.9,1.8,1.7,2.7,2.6,21.6-21.5,42.8-42.6,63.7-63.4-21-21-42.2-42.3-64.8-64.9-8.2,8.7-16.7,17.8-25.3,27v-5.3c7.6-8.2,15.2-16.5,23.4-25.3-7.2-6.9-15.3-14.6-23.4-22.4v-5.3c8.9,8.8,17.7,17.5,26.6,26.3,1.2-.9,1.9-1.3,2.6-1.9,19.8-19.8,39.6-39.7,59.5-59.4,3.2-3.2,1-4.7-1-6.8-18.2-18.2-36.4-36.4-54.6-54.6-1.9-1.9-4-3.8-6.2-5.9-2.1,2-3.7,3.5-5.3,5.1-7.2,6.9-14.4,13.9-21.6,20.8v-4.2c7-6.9,13.8-14,20.9-20.8,2.8-2.7,2.9-4.6,0-7.3-7.1-6.8-14-13.8-20.9-20.7v-4.2c9,8.5,17.9,17.1,26.2,24.9,1.7-1.7,3.4-3.4,5.1-5.1,19.9-19.8,39.4-39.2,58.7-58.4-20.9-20.9-42.1-42-63.8-63.7-8.5,8.4-17.4,17.2-26.3,26v-5.3c7.5-8.3,15.1-16.6,21.7-24-6.6-7.2-14.2-15.5-21.7-23.7V-1.2c8.5,9.2,17,18.3,25.1,27.1,22.7-22.8,43.9-44,64.7-64.8-20.8-20.9-42.1-42.2-63.5-63.7-1.2,1.2-2.8,2.5-4.3,4-7.3,7-14.7,14.1-22,21.2v-4.2c7-6.9,13.9-13.9,21-20.7,2.7-2.6,2.9-4.6,0-7.4-7.1-6.8-14-13.8-21-20.6v-4.2c8,7.6,16,15.2,23.7,22.5,1,.9,1.9,1.8,2.9,2.7,21.6-21.6,42.8-42.7,63.6-63.4-21.1-21.1-42.3-42.3-65-65.1-8.1,8.8-16.6,17.9-25.1,27.1v-5.3c7.6-8.2,15.2-16.5,23.1-25-3-3.1-6.7-7.1-10.4-11h5.3c7.1,10.6,8.6,10.8,16.9,1.8.5-.5.7-1.2,1.1-1.8h5.3c-3.7,4-7.4,8-11.3,12.1,1,1.3,1.8,2.4,2.8,3.4,19.3,19.3,38.7,38.6,57.9,58,2.8,2.8,4.4,2.2,6.8-.3,10.6-10.8,21.3-21.5,32.1-32.1,9.5-9.4,19.1-18.6,28.9-28.1-4.2-4.9-7.7-8.9-11.2-12.9h4.2c6.1,6.8,12.4,7,18.7.4.1-.1.2-.3.3-.4h4.2c-3.5,4-7,8.1-10,11.5,21.4,21.5,42.5,42.7,63.4,63.5,20.8-20.9,41.9-42,63.3-63.4-3.4-3.6-7.1-7.6-10.8-11.6h5.3c2.4,2.6,4.6,5.3,7.2,7.6.8.7,3.2.7,3.9,0,2.5-2.3,4.7-5.1,6.9-7.7h5.3c-3.7,4-7.4,7.9-10.9,11.6,21.5,21.4,42.6,42.6,64,63.9,0,0,.8-.2,1.3-.7,20.1-20.1,40.1-40.2,60.2-60.2,2-2,1.6-3.5-.2-5.3-2.9-3-5.7-6.2-8.5-9.2h4.2c11.7,11.9,7.7,11,18.7.4.1-.1.2-.3.4-.4h4.2c-1.9,2.2-3.8,4.6-5.8,6.6-5.4,5.4-5.5,5.4-.3,10.6,16.5,15.8,32.5,31.8,48.6,47.9,3.6,3.6,7.2,7.1,10.5,10.2,19.7-19.7,39-39,58.6-58.6,1.9-1.9,3.7-3.7,5.6-5.6-3.5-3.7-7.2-7.6-10.9-11.6h5.3c7.2,10.6,8.7,10.8,16.9,1.8.5-.5.7-1.2,1.1-1.8h5.3c-3.7,4-7.4,8-10.6,11.4,1.6,1.6,3.1,3.1,4.7,4.7,19.8,19.9,39.4,39.6,58.9,59.2,20.8-20.9,41.9-42,63.2-63.4-3.3-3.8-6.8-7.8-10.3-11.9h4.2c11.6,11.9,7.8,10.9,18.7.4.1-.1.2-.3.3-.4h4.2c-3.5,4.1-7,8.1-10.7,12.3.9,1.1,1.7,2.1,2.5,3,19.4,19.5,38.9,38.8,58.2,58.4,3.3,3.4,5,1.3,7.2-.9,18.9-19,37.9-37.9,56.8-56.8,1.1-1.1,2-2.3,3.2-3.7-3.9-4.2-7.6-8.2-11.3-12.2h5.3c2.3,2.6,4.5,5.3,7.1,7.6.8.7,3.1.7,3.9,0,2.5-2.3,4.7-5.1,7-7.6h5.3c-3.7,4-7.5,7.9-12.6,13.3.5.4.9.8,1.4,1.1l-1.8,1.8-.2-.2c-21.8,21.6-43.1,42.8-64.1,63.6,20.7,20.8,41.8,42,63.3,63.4.8-.8,1.8-1.6,2.7-2.4.3-.3.6-.6.9-.9,8-8,15.9-16,24-23.9,5.3-5.1,10.7-10.1,16-15.1v4.2c-12.8,12.7-25.5,25.4-38.3,38-2.9,2.8-1.9,4.7.4,6.9,12.7,12.5,25.3,25.1,37.9,37.7v4.2c-1.4-1.1-2.9-2-4.1-3.2-11.5-11.5-23-23-34.5-34.4-1.7-1.7-3.6-3.3-4.9-4.5-21.6,21.5-42.8,42.8-63.6,63.5,20.9,21,42.1,42.3,64.7,65l.2-.2,1.7,1.6c-.2.2-.1.6-.2,1-.4.4-.8.8-1.1,1.2,1.2,1,2.5,1.9,3.8,2.8l-2,1.9h-.1c-2.9-3.1-4.7-3.1-7.6,0-19,19.2-38.1,38.3-57.3,57.2-3.2,3.1-2.6,4.8.2,7.6l.2.2c18.9,18.7,37.6,37.5,56.4,56.3,1.2,1.2,2.6,2.3,4.3,3.8,14.8-14.7,29.3-29.3,43.9-43.8v5.3c-12.6,12.6-25.1,25.2-37.9,37.7-2.8,2.8-2.8,4.5,0,7.3,12.7,12.4,25.3,25.1,37.9,37.7v5.3c-14.5-14.6-29-29.2-42.7-42.8-.8.8-1.6,1.6-2.4,2.4-21,20.8-41.5,41.2-61.6,61.1,20.8,20.7,42,41.9,63.6,63.4,14.1-14,28.6-28.4,43.1-42.8v5.3c-1.3,1.1-2.8,2.1-4,3.3-10.7,10.7-21.4,21.3-32.1,32s-5.4,5.4,0,10.8c12,11.9,24,23.6,36,35.5h.4ZM372.7,165.1c2.5-2.4,2.2-4.2-.2-6.6-19.3-19.1-38.4-38.3-57.6-57.6-2.8-2.8-4.6-2.6-7.3,0-8.2,8.5-16.6,16.8-25,25.1-11.7,11.7-23.5,23.4-35.4,35.2.7,1.2.8,1.7,1.2,2.1,19.9,20,39.9,39.9,59.8,59.9,2.6,2.6,4.4,1.9,6.6-.3,19.3-19.4,38.6-38.7,57.9-58h0ZM311.2,359c21-21,42.2-42.1,63.2-63-20.9-20.9-42.1-42.1-62.6-62.5-21.1,21-42.5,42.2-62.9,62.6,20.7,20.9,41.7,42.2,62.3,63h0ZM373.8-106.7c-20.5-20.6-41.6-41.6-62.4-62.5-20.9,21.1-41.9,42.3-62.8,63.4,20.6,20.7,41.6,41.9,62,62.4,21.1-21.1,42.3-42.4,63.2-63.4h0ZM311.4,90.9c20.8-20.9,42-42,62.3-62.4-21-21.3-42.1-42.7-62.5-63.3-21,20.8-42.2,41.9-62.9,62.6,20.9,20.9,42.1,42.1,63.1,63.1h0ZM311.2,493.1c21-20.9,42.1-42,63-62.7-21.2-21.3-42.3-42.4-62.9-63-20.9,20.9-42.2,42.1-62.9,62.7,20.8,21,41.9,42.2,62.7,63.1h0ZM307.8,94.5c-.4-.6-1-1.5-1.7-2.2-19.6-19.6-39.2-39.1-58.7-58.8-2.9-2.9-4.6-1.9-6.9.4-12.2,12.3-24.3,24.5-36.6,36.7-8,7.9-16.2,15.6-23.7,22.8,22.2,22.2,43.5,43.4,64.4,64.1,20.7-20.6,41.8-41.7,63.2-63h0ZM293.2,244.5c5.1-5.1,10.1-10.2,14.7-14.8-21.6-21.7-42.7-42.9-63.3-63.5-21.1,21-42.4,42.2-63.8,63.6.2.3.7,1,1.3,1.6,19.6,19.6,39.2,39.1,58.7,58.8,2.9,2.9,4.7,2.3,7.3-.4,15-15.2,30.1-30.3,45.2-45.4h-.1ZM306.9-38.8c-20.9-20.9-42.2-42.3-62.5-62.6-20.9,20.7-42.3,41.9-62.9,62.4,20.8,21,41.9,42.2,62.8,63.3,21-21.1,42.2-42.4,62.7-63h-.1ZM243.9,425.8c21.2-21,42.5-42.2,62.9-62.4-20.9-21-42.1-42.3-63-63.3-20.8,20.8-42,41.9-62.9,62.8,21.1,21.1,42.4,42.3,63,62.9h0ZM244.4-109.5c20.9-21,42-42.2,63.1-63.4-21-21.1-42.3-42.3-63-63.1-21.1,21-42.3,42.2-63.3,63.1,20.9,20.9,42.1,42.2,63.3,63.4h-.1ZM241.9,162.6c-2.3-2.5-3.7-4.1-5.2-5.6-18.5-18.5-37-36.8-55.3-55.4-3.3-3.3-5.2-3.3-8.4,0-18.8,19.1-37.8,38-56.9,56.8-2.6,2.6-2.8,4.2-.2,6.8,19.3,19.1,38.5,38.3,57.6,57.6,3.1,3.1,4.9,2.6,7.7-.3,10.3-10.6,20.8-21.1,31.4-31.5,9.5-9.4,19.2-18.7,29.3-28.5h0ZM240.8-106.6c-.5-.6-1.2-1.5-2.1-2.4-19.4-19.5-38.9-38.9-58.3-58.5-2.9-3-4.6-1.8-6.8.5-19,19.2-38.1,38.3-57.3,57.3-2.9,2.8-2.7,4.5,0,7.3,19.2,19,38.2,38.1,57.3,57.2,1.1,1.1,2.4,2,3.2,2.7,21.4-21.5,42.5-42.7,63.8-64h.2ZM239.8,430.8c-21.1-21.3-42.3-42.6-63.6-64,.3-.2,0,0-.3.2-20,19.9-40,39.9-60.1,59.7-3,3-1.6,4.6.7,6.9,19.1,19.1,38.2,38.2,57.3,57.3,1.1,1.1,2.3,1.9,3.4,2.8,21.4-21.5,42.4-42.6,62.6-62.9h0ZM240,27.7c-20.8-20.9-41.8-42.1-62.5-63-21.1,21.1-42.4,42.4-63.1,63.2,20.8,20.9,41.9,42.1,62.7,62.9,21-21,42.2-42.3,63-63h-.1ZM240.2,295.9c-20.8-20.8-41.9-42-62.7-62.8-21.1,21-42.3,42.2-62.7,62.6,20.8,21,42,42.4,62.6,63.2,20.8-20.9,42-42.1,62.8-62.9h0ZM173.7,94.4c-.2-.3-.5-.9-.9-1.4-19.9-20-39.9-39.9-59.8-59.9-2.9-2.9-4.4-1.2-6.4.8-10.4,10.5-20.9,21-31.4,31.4-9.7,9.7-19.5,19.3-29.1,28.7,21.8,21.7,43.1,42.9,63.9,63.7,21.1-21,42.3-42.1,63.7-63.3ZM171.9,365.9c3.2-3.1,1.2-4.8-.9-6.8-18.8-18.8-37.6-37.6-56.5-56.4-1.3-1.3-2.8-2.5-3.3-3-21.7,21.7-43,42.9-63.7,63.7,20.6,20.8,41.7,42,62.9,63.4.4-.3,1.1-.6,1.5-1.1,20-19.9,39.9-39.9,59.9-59.8h.1ZM159,244.7c5.1-5.1,10.3-10,14.8-14.4-21.8-22-43-43.3-63.9-64.3-20.9,20.8-42.1,41.8-63.7,63.3,1,1.1,1.9,2.2,2.8,3.1,19.1,19.1,38.2,38.1,57.1,57.3,3.2,3.3,5,2.9,8-.1,14.8-15.1,29.8-30,44.8-45h.1ZM110,23.9c21-21,42.3-42.2,63.4-63.3-20.8-20.8-41.9-42-62.8-62.8-21.1,21.1-42.3,42.4-63.2,63.3C68.2-18.1,89.4,3.2,110,23.9ZM173.3-173.6c-20.8-20.8-42-42-62.8-62.9-21.1,21.1-42.4,42.4-63.1,63.1,21.2,21.2,42.3,42.4,62.6,62.9,21-20.9,42.2-42.1,63.3-63.1h0ZM104.2-102.5c3.2-3.2,2.1-5.2-.6-7.8-19-18.9-37.9-37.9-56.9-56.8-1.1-1.1-2.3-1.9-3.5-2.9-.9.7-1.5,1-2,1.5-19.8,19.8-39.6,39.7-59.5,59.5-3.1,3.1-1.3,4.7.8,6.8C-1.3-86.2,14.8-70.2,30.8-54c3.9,4,7.5,8.4,11.2,12.6,2.1-1.5,2.6-1.8,3-2.1,19.7-19.7,39.4-39.4,59.2-59h0ZM106.9,161.9c-1-1.2-1.7-2.4-2.7-3.4-19.2-19.2-38.5-38.3-57.6-57.6-2.9-2.9-4.6-2.5-7.3.2-18.8,19.1-37.7,38-56.8,56.8-3.2,3.1-3.1,4.9,0,8,19.2,18.9,38.2,38,57.2,57.2,2.3,2.3,4,2.8,6.5.2,19.2-19.4,38.6-38.7,57.9-58s1.7-2.2,2.7-3.5h0ZM103.9,433.8c2.9-2.9,3.1-4.8,0-7.8-12.2-12-24.3-24-36.3-36.2-7.9-8-15.4-16.4-23.2-24.7-2.4,2-3.2,2.4-3.8,3.1-19.6,19.6-39.1,39.2-58.8,58.7-2.9,2.9-1.9,4.6.5,6.9,16.6,16.5,33.1,33.2,49.7,49.8,3.6,3.6,7.3,7,11,10.6,1.3-1,2.2-1.5,2.9-2.3,19.3-19.3,38.6-38.7,58-57.9h0v-.2ZM41.7,92.5c22.6-22.5,43.7-43.6,64.8-64.6C85.4,7,64.2-14.1,42.7-35.4c-.3.2-1.2.7-1.9,1.4C21-14.3,1.4,5.4-18.4,25.1c-2.9,2.8-1.2,4.5.8,6.5,14.7,14.7,29.5,29.3,44.1,44.2,5.4,5.5,10.4,11.4,15.2,16.8h0ZM43.3,359.2c21-21.1,42.1-42.2,63.1-63.2-20.9-20.9-42.1-42-63-62.7-21,20.9-42.3,41.9-63,62.5,20.9,21.1,42,42.4,62.9,63.5h0ZM40.2,95.1c-.8-1.1-1.4-2.1-2.2-3-2.7-2.8-5.5-5.5-8.2-8.3C13.1,67.4-3.5,50.8-20,34.1c-2.6-2.6-4.3-3.4-7.3-.4-19.1,19.3-38.3,38.5-57.6,57.7-2,2-3.7,3.5-.8,6.4,19.8,19.6,39.5,39.3,59.1,59.1,2.1,2.1,3.6,2.1,5.6,0,19.5-19.6,39.1-39.2,58.6-58.8.8-.8,1.5-1.9,2.4-3h.2ZM37.8,231.8c.8-.8,1.5-1.9,2.3-3-.9-1.1-1.5-2.1-2.3-3-19.4-19.5-38.9-38.8-58.3-58.4-2.7-2.7-4.3-2.3-6.8.2-19.2,19.4-38.6,38.7-57.9,57.9-2.4,2.4-2.6,4,0,6.5,19.5,19.4,39,38.8,58.4,58.3,2.2,2.2,3.7,2.5,6.1.2,19.5-19.6,39.1-39.2,58.7-58.8h-.2ZM37.9-36.2c2.4-2.4,1.8-4-.3-6.1C18.1-61.7-1.4-81.1-20.8-100.7c-2.3-2.3-3.8-2.2-6.1,0-19.4,19.5-38.8,39-58.4,58.4-2.5,2.5-2.4,4.2,0,6.5,5.7,5.5,11.3,11.1,16.9,16.8C-53.8-4.3-39.3,10.3-24.5,25.2c1.3-.9,2-1.2,2.5-1.7C-2.1,3.6,17.9-16.3,37.9-36.2ZM37-169.3c1.1-1.1,2-2.3,2.8-3.2-21.5-21.5-42.8-42.7-63.8-63.7-20.9,20.9-42.1,42-63.8,63.5,1.5,1.6,2.8,3,4.2,4.4,18.6,18.6,37.2,37.1,55.7,55.9,3.4,3.5,5.3,2.9,8.4-.2,18.7-19,37.6-37.7,56.5-56.6h0ZM36.5,367.3c1.3-1.3,2.5-2.8,3.3-3.8-21.6-21.6-42.7-42.8-63.7-63.8-20.9,20.9-42,42.1-63.6,63.6.7.8,1.3,1.7,2,2.4,19.6,19.6,39.2,39.2,58.6,58.9,3.1,3.1,4.7,1.4,6.8-.8,18.8-18.9,37.7-37.7,56.5-56.5h.1ZM-29.3,433.1c3.5-3.4,1-5.1-1.1-7.2-18.8-18.8-37.7-37.6-56.4-56.6-3.1-3.2-4.9-3.1-8,0-18.6,18.8-37.2,37.5-56.1,56.1-3.4,3.3-3.7,5.4-.1,8.9,13.1,12.8,25.9,25.9,38.9,38.9,6.9,6.9,14,13.8,21.1,20.8,1.1-.8,1.9-1.3,2.5-1.9,19.7-19.7,39.4-39.4,59.2-59h0ZM-29.5,299.2c2.8-2.8,2.2-4.5-.3-6.9-12.2-12-24.3-24.1-36.3-36.2-8-8.1-15.8-16.4-23.2-24.1-22.3,22.1-43.6,43.2-64.8,64.2,21,20.9,42.1,42.1,63.4,63.4.8-.6,1.8-1.3,2.6-2.1,19.5-19.4,38.9-38.9,58.4-58.3h.2ZM-29.9,165.7c2.7-2.7,3.1-4.4.2-7.3-19.4-19.2-38.7-38.6-58-57.9-.8-.8-1.9-1.5-3-2.4-1.2,1-2.4,1.7-3.4,2.7-19.1,19-38.1,38.2-57.3,57.2-2.8,2.8-3.3,4.7-.2,7.7,19.2,18.9,38.3,38,57.3,57.2,2.7,2.8,4.4,2.9,7.2,0,19-19.2,38-38.2,57.2-57.2h0ZM-30.5,32.2c3.3-3.3,3.5-5.1.2-8.4C-47,7.4-63.3-9.1-79.8-25.6c-3.6-3.6-7.2-7-10.9-10.5-1.1.9-1.7,1.3-2.2,1.8-19.7,19.7-39.4,39.4-59.3,59-2.8,2.8-2.1,4.5.3,6.9,8.9,8.8,17.8,17.6,26.6,26.5,11.2,11.3,22.3,22.6,34,34.4,2.3-2.1,3.8-3.5,5.3-5,18.5-18.5,36.8-37,55.4-55.3h0ZM-30.7-101.7c3.5-3.4,3.6-5.3.1-8.8-13-12.7-25.8-25.6-38.5-38.5-7-7.2-13.7-14.6-20.6-21.9-.4.4-.9.7-1.3,1-.7.5-1.5.9-2.1,1.5-19.6,19.5-39.1,39.1-58.8,58.6-3.3,3.3-1.9,5.2.7,7.8,18,17.9,35.9,35.9,53.9,53.8,2.1,2.1,4.3,4,6.6,6.1,1.5-1.3,2.5-2.2,3.5-3.2,18.8-18.8,37.6-37.8,56.6-56.4h-.1ZM-93.9,94.4c-.7-.8-1.3-1.6-2.1-2.3-19.2-19.2-38.5-38.3-57.6-57.7-3.3-3.4-5.2-3.1-8.4,0-18.7,19-37.6,37.8-56.5,56.6-1.1,1.1-2.1,2.3-2.7,3,21.5,21.5,42.7,42.8,63.7,63.9,20.8-20.8,41.9-42,63.5-63.6h0ZM-104.9,240.9c3.8-3.8,8.1-7.1,11.6-10.1-22.5-22.7-43.7-44-65.1-65.5-.5.4-1.2.8-1.8,1.5-19.7,19.7-39.4,39.4-59.2,59-3,3-1.7,4.6.6,6.8,19,18.9,38,37.8,56.8,56.9,3.3,3.3,5.1,3.3,8.4,0,16.1-16.3,32.3-32.5,48.6-48.6h0ZM-157.8,24.2c20.9-20.9,42.1-42.2,62.3-62.5-20.9-21.2-42.1-42.6-62.9-63.6-20.8,20.8-41.9,41.9-62.7,62.7,21.1,21,42.3,42.3,63.3,63.3h0ZM-157.4-109.9c20.8-20.8,41.9-42,62.5-62.7l-62.9-62.9c-20.8,20.7-42.1,41.9-62.8,62.5,20.9,20.8,42.1,42.1,63.1,63.1h.1ZM-95.1,363.2c-21-21-42.2-42.4-62.6-62.9-21,20.8-42.3,42-63.4,63,20.8,20.8,42,42,62.7,62.7,21.3-21.2,42.6-42.3,63.2-62.8h.1ZM-163.2-103.3c2.9-2.8,1.2-4.5-.8-6.5-19.1-19.1-38.3-38.1-57.2-57.3-2.8-2.8-4.4-2.9-7.2,0-19,19.2-38.1,38.2-57.2,57.3-1.1,1.1-2,2.4-2.8,3.2,21.3,21.4,42.5,42.6,63.8,64,.5-.3.8-.4,1.1-.6,20.1-20,40.2-40.1,60.4-60.1h-.1ZM-164.1,433.8c3.3-3.3,2.7-5.1-.3-8-18.8-18.6-37.5-37.4-56.2-56.1-1.3-1.3-2.8-2.5-4.1-3.6l-63.4,63.4c21.3,21.4,42.4,42.6,63.7,64,.9-.8,2.2-1.8,3.3-2.9,19-19,37.9-38,57-56.8h0ZM-224.9,90.9c21.1-20.9,42.3-42,63.3-63-21.1-20.9-42.3-41.9-63.2-62.6-20.8,20.7-42.1,41.9-62.7,62.5,20.8,21,41.9,42.2,62.6,63.1h0ZM-161.9,162.4c-21.2-21.3-42.2-42.5-63.4-63.9-.3.2-.9.5-1.4,1-19.9,19.8-39.7,39.6-59.6,59.3-2.9,2.9-1.7,4.6.6,6.9,14.5,14.4,28.9,28.9,43.4,43.4s11.5,11.2,17.1,16.7c21.6-21.7,42.7-42.8,63.2-63.4h0ZM-161.5,296c-21-21-42.2-42.1-63.1-63-21.2,21.1-42.4,42.2-62.8,62.7,20.9,21.1,42,42.4,62.7,63.3,21-20.9,42.1-42,63.2-62.9h0ZM-228.4,94.4c-.1-.2-.4-.8-.9-1.3-19.9-20-39.9-39.9-59.8-59.9-2.1-2.1-3.6-2-5.7,0-5.6,5.8-11.5,11.5-17.2,17.2-14.6,14.5-29.2,29.1-43.3,43.2,21.7,21.9,42.8,43.2,63.5,64.1,20.8-20.8,42-42,63.4-63.3h0ZM-237,238.6c3.1-3.1,6.7-5.6,9.7-8.1-22.5-22.5-43.6-43.7-64.5-64.7-21.2,21.2-42.4,42.4-63.7,63.7.3.4.8,1.1,1.4,1.7,19.6,19.6,39.2,39.1,58.7,58.8,2.8,2.8,4.6,2.6,7.3-.1,17-17.2,34.1-34.3,51.2-51.3h0ZM-292.2,425.6c21.1-20.8,42.4-42,62.9-62.2-20.9-21.1-42.1-42.4-62.8-63.3-20.9,20.8-42,42-62.6,62.6,21.2,21.4,42.4,42.7,62.6,62.9h-.1ZM-228.6-172.9c-21-20.9-42.2-42.1-63.4-63.2-20.9,20.9-42.2,42.1-63.2,63.2,21,21.1,42.3,42.3,63.3,63.3,21.1-21,42.3-42.3,63.3-63.2h0ZM-291.6,23.6c20.8-20.7,42-41.9,63.1-62.8-21.1-21-42.3-42.2-63.4-63.3-21,21-42.2,42.3-62.7,62.7,21,21.1,42.3,42.5,63,63.3h0ZM-294.8,162.6c-.8-1.3-.9-1.9-1.3-2.2-19.9-20-39.9-39.9-59.8-60-2.7-2.7-4.4-1.8-6.6.4-19.3,19.4-38.6,38.7-58,58-2.3,2.2-2.4,3.8-.1,6.1,19.4,19.3,38.8,38.6,58,58,3.1,3.1,5,2.4,7.7-.4,12.1-12.3,24.4-24.5,36.6-36.8,7.7-7.7,15.5-15.4,23.4-23.1h0ZM-295.2,429.6c-.6-.7-1.2-1.7-2.1-2.5-19.5-19.5-39-38.9-58.3-58.4-2.6-2.6-4.2-2.1-6.5.2-19.5,19.6-39.2,39.2-58.7,58.8-.7.7-1.1,1.7-1.6,2.5,21.3,21.2,42.5,42.2,63.5,63.2l63.7-63.7h0ZM-359.8-41.9c22.1-22.1,43.3-43.2,63.9-63.8-21-21.1-42.2-42.3-63.5-63.7-.2.2-.8.5-1.3,1-19.9,19.8-39.7,39.7-59.6,59.4-2.5,2.5-1.7,4,.4,6.1,6.9,6.8,13.8,13.7,20.6,20.6,13.2,13.5,26.4,27,39.6,40.4h-.1ZM-296.3,296.3c-20.8-21-41.8-42.3-62.2-63-21.1,21-42.3,42.2-63,62.8,20.8,21,41.9,42.2,62.4,62.9,21.1-21.1,42.4-42.3,62.8-62.7h0ZM-358.8,91c21-21.1,42.2-42.3,62.8-62.9-20.9-21-42.1-42.4-62.9-63.2-21.1,20.9-42.3,42-63.3,62.9,21.1,21,42.2,42.2,63.3,63.3h.1Z"/>
        <path class="cls-12" d="M236.7,157c1.5,1.5,2.8,3.1,5.2,5.6-10.1,9.8-19.7,19.1-29.3,28.5-10.5,10.4-21,20.9-31.4,31.5-2.8,2.9-4.6,3.4-7.7.3-19.1-19.3-38.3-38.5-57.6-57.6-2.6-2.6-2.5-4.2.2-6.8,19.1-18.8,38.1-37.8,56.9-56.8,3.3-3.3,5.1-3.4,8.4,0,18.3,18.6,36.9,37,55.3,55.4h0ZM233.7,165.3c2.3-2.3,2.7-4,.2-6.5-17.8-17.6-35.5-35.3-53.2-53.1-2.7-2.8-4.5-2.2-7,.3-17.5,17.6-35.1,35.2-52.7,52.7-2.4,2.4-2.6,4,0,6.5,17.8,17.6,35.5,35.3,53.2,53,1,1,2.1,1.7,3.4,2.6,1.3-1.1,2.5-1.8,3.5-2.8,17.6-17.6,35.2-35.2,52.8-52.7h-.1Z"/>
        <path class="cls-2" d="M233.8,158.8c2.5,2.5,2.2,4.2-.2,6.5-17.6,17.5-35.2,35.1-52.8,52.7s-2.1,1.7-3.5,2.8c-1.2-1-2.4-1.7-3.4-2.6-17.7-17.7-35.4-35.4-53.2-53-2.5-2.5-2.3-4.2,0-6.5,17.6-17.5,35.2-35.1,52.7-52.7,2.4-2.5,4.2-3,7-.3,17.6,17.8,35.4,35.4,53.2,53.1h0ZM197.8,177c4.8-2.4,7.5-7.5,7.1-13.2-.5-6-3.9-10.6-10.1-12-3.2-.7-3.7-2.2-4-5-.7-7.8-6-12.6-13.6-12.5-7.2,0-12.6,4.9-13.3,12.3-.3,3-.8,4.5-4.3,5.3-7.3,1.7-11.2,8.7-9.6,15.8,1.7,7.3,7.9,11.8,15.4,10.2,3.7-.8,7.1-3.2,11.7-5.3,0,0,0,.2-.1.3-2.5,5.6-4.8,10.8-7.2,16.1h15.2c-2.5-5.5-4.8-10.6-7.1-15.6.5-.2,1-.5,1.4-.7.8.7,1.5,1.4,2.3,2.1,4.5,4.1,11,5,16.2,2.3h0Z"/>
        <path class="cls-2" d="M236.1,28.1c-1,1.2-1.7,2.1-2.5,3-17.7,17.7-35.4,35.4-53.1,53.2-2.4,2.4-4,2.6-6.5,0-17.6-17.8-35.4-35.5-53.2-53.1-2.5-2.4-2.5-4.1,0-6.5,17.8-17.6,35.5-35.3,53.1-53.1,2.4-2.4,4.1-2.6,6.5-.1,17.6,17.8,35.4,35.4,53.1,53.2,1,1,1.7,2.2,2.6,3.4h0ZM200.1,46.7c5-3.7,6.9-12.9,2.6-18.2-7.9-9.7-16.6-18.6-25.5-28.5-8.9,9.9-17.6,18.9-25.5,28.5-4.4,5.3-2.5,14,2.7,18.2s11.8,3.1,17.3-2.8c1.1-1.2,2.6-2.2,3.8-3.2l1.1,1.1c-2.7,4.3-5.4,8.6-8.3,13.2h17.4c-2.7-4.5-5.3-8.9-7.9-13.3.8-.6,1.6-1.3,2.4-1.9.8,1.4,1.3,3,2.3,4.1,5.3,5.7,12.2,6.7,17.5,2.8h.1Z"/>
        <path class="cls-6" d="M204.9,163.8c.4,5.7-2.3,10.7-7.1,13.2-5.3,2.7-11.7,1.7-16.2-2.3-.8-.7-1.5-1.4-2.3-2.1-.5.2-1,.5-1.4.7l-1-.4s0-.2.1-.3c-4.5,2.1-7.9,4.5-11.7,5.3-7.5,1.6-13.7-2.9-15.4-10.2-1.6-7.1,2.3-14.2,9.6-15.8,3.5-.8,4-2.3,4.3-5.3.7-7.4,6.1-12.3,13.3-12.3s12.9,4.7,13.6,12.5c.3,2.8.8,4.2,4,5,6.2,1.4,9.7,6,10.1,12h0Z"/>
        <path class="cls-6" d="M202.7,28.5c4.3,5.3,2.4,14.5-2.6,18.2-5.3,4-12.2,2.9-17.5-2.8-1-1.1-1.5-2.7-2.3-4.1-.8.6-1.6,1.3-2.4,1.9h-1.2c0,0-1.1-1-1.1-1-1.3,1.1-2.7,2-3.8,3.2-5.5,5.9-12.1,7-17.3,2.8-5.2-4.1-7-12.9-2.7-18.2,7.8-9.6,16.5-18.6,25.4-28.5,8.9,9.9,17.6,18.8,25.4,28.5h.1Z"/>
        <path class="cls-12" d="M177.5-35.3c20.7,20.9,41.8,42.1,62.5,63-20.7,20.7-42,42-63,63-20.7-20.8-41.8-42-62.7-62.9,20.7-20.8,42-42,63.1-63.2h.1ZM233.5,31.1c.9-.8,1.6-1.8,2.5-3-.9-1.2-1.7-2.4-2.6-3.4-17.7-17.7-35.4-35.4-53.1-53.2-2.4-2.4-4.1-2.3-6.5.1-17.6,17.8-35.3,35.4-53.1,53.1-2.4,2.4-2.4,4,0,6.5,17.8,17.6,35.5,35.3,53.2,53.1,2.5,2.5,4.1,2.3,6.5,0,17.6-17.8,35.4-35.4,53.1-53.2h0Z"/>
        <path class="cls-12" d="M172.8,93c.5.5.7,1.1.9,1.4-21.4,21.3-42.6,42.3-63.7,63.3-20.8-20.8-42.1-42-63.9-63.7,9.6-9.4,19.4-19.1,29.1-28.7,10.5-10.4,20.9-20.9,31.4-31.4s3.5-3.7,6.4-.8c19.9,20,39.9,40,59.8,59.9ZM169.4,95.7c-.8-1.3-1-2-1.5-2.5-18.3-18.4-36.7-36.7-55-55.1-2.2-2.2-3.6-1.9-5.6.3-7.4,7.6-14.9,15.1-22.4,22.5-11.3,11.1-22.6,22.2-33.8,33.2.8,1.6.9,2,1.1,2.2,18.4,18.5,37,36.9,55.3,55.4,2.7,2.7,4,1.4,6-.6,11.5-11.5,22.9-23,34.5-34.4,7.1-7.1,14.3-14,21.4-21h0Z"/>
        <path class="cls-6" d="M167.9,93.2c.5.5.7,1.2,1.5,2.5-7.1,7-14.3,13.9-21.4,21-11.5,11.4-23,22.9-34.5,34.4-1.9,1.9-3.3,3.3-6,.6-18.4-18.6-36.9-37-55.3-55.4-.2-.2-.3-.6-1.1-2.2,11.2-11,22.5-22.1,33.8-33.2,7.5-7.4,15-14.9,22.4-22.5,2-2.1,3.5-2.4,5.6-.3,18.3,18.4,36.6,36.7,55,55.1h0ZM129.7,107.1c7-7.3,9.1-16.5,7.6-26.5-1-6.4-5.8-12.1-10.9-13-6.6-1.1-10.6,2.4-13.7,7.7-.6,1-1.4,1.9-2.5,3.5-1.8-2.6-3-4.5-4.4-6.3-5.9-7.2-14.1-7-19.4.7-3.6,5.3-4.7,11.4-3.4,17.7,3,14.7,13.1,23.7,25.5,30.5,1.1.6,3.6.3,4.7-.6,5.7-4.4,11.6-8.6,16.5-13.8h0Z"/>
        <path class="cls-6" d="M167.9-39C148.8-19.8,129.3-.2,108.5,20.7c-1.2-1.8-2.3-4.2-4-5.9C87.9-1.9,71.2-18.7,54.3-35.3c-2.7-2.7-3.2-4.3-.2-7.2,18.1-17.8,36-35.9,53.9-53.8s1.1-.9,1.5-1.2c19.8,19.9,39.3,39.5,58.3,58.6h0ZM110.3-12.2c6-12.1,14.7-20.4,26.6-26.9-12.3-6-20.4-14.8-26.7-26.5-6.3,11.9-14.7,20.3-26.6,26.5,11.8,6.5,20.4,14.9,26.7,26.9h0Z"/>
        <path class="cls-12" d="M137.2,80.6c1.6,10-.6,19.2-7.6,26.5-4.9,5.1-10.8,9.4-16.5,13.8-1.1.9-3.5,1.2-4.7.6-12.4-6.8-22.5-15.8-25.5-30.5-1.3-6.3-.2-12.4,3.4-17.7,5.3-7.7,13.5-7.9,19.4-.7,1.4,1.7,2.6,3.7,4.4,6.3,1.1-1.5,1.9-2.5,2.5-3.5,3-5.3,7.1-8.8,13.7-7.7,5.1.9,9.9,6.5,10.9,13h0Z"/>
        <path class="cls-12" d="M173.3-39.4c-21.1,21-42.3,42.3-63.4,63.3C89.4,3.2,68.2-18.1,47.4-38.9c20.9-20.9,42.1-42.2,63.2-63.3,20.9,20.9,42,42,62.8,62.8h-.1ZM108.5,20.7C129.3-.2,148.8-19.8,167.9-39c-19-19.1-38.5-38.6-58.3-58.6-.4.3-1,.7-1.5,1.2-18,17.9-35.9,36-53.9,53.8-3,2.9-2.5,4.6.2,7.2C71.2-18.7,87.9-1.9,104.5,14.9c1.7,1.7,2.8,4.1,4,5.9h0Z"/>
        <path class="cls-12" d="M104.2,158.5c1,1,1.7,2.1,2.7,3.4-1,1.3-1.8,2.5-2.7,3.5-19.3,19.4-38.7,38.6-57.9,58-2.5,2.6-4.2,2.1-6.5-.2-19-19.1-38-38.2-57.2-57.2-3.1-3.1-3.2-4.9,0-8,19.1-18.8,38-37.8,56.8-56.8,2.7-2.7,4.4-3.1,7.3-.2,19.1,19.3,38.4,38.4,57.6,57.6h0ZM99.1,165.7c2.7-2.6,3.1-4.5.2-7.4-17.7-17.5-35.2-35.1-52.7-52.7-2.4-2.4-4-2.6-6.5,0-17.6,17.8-35.3,35.4-53.1,53.1-2.3,2.3-2.8,3.9-.2,6.5,17.9,17.7,35.7,35.6,53.6,53.4.8.8,1.9,1.5,3.1,2.3,1.2-1,2.4-1.8,3.3-2.8,17.5-17.4,34.9-34.9,52.4-52.3h0Z"/>
        <path class="cls-2" d="M99.7,24.8c2.2,2.2,2.5,3.7,0,6.1-18,17.9-35.9,35.9-53.9,53.8-.7.7-1.6,1.3-2.7,2.2-1.2-.9-2.3-1.7-3.3-2.6C22.6,66.8,5.2,49.3-12.4,31.9c-2.8-2.8-3.3-4.6-.2-7.7C5.1,6.8,22.7-10.8,40.1-28.5c2.6-2.6,4.2-2.2,6.5.1C64.3-10.6,82,7.1,99.7,24.8ZM63.2,43.2c5.4-2.2,8.1-7.6,7.5-13.9-.7-6.6-4.6-10.3-11-11.8-1.1-.3-2.5-2.3-2.7-3.7-1.2-8.5-5.8-13.3-13.4-13.4-8-.2-12.7,4.5-14.2,13.3-.3,1.5-2,3.5-3.5,4-5.9,2-9.8,6.3-10.4,12.1-.5,5.4,2.4,10.5,7.3,13,5.1,2.6,11.4,1.9,15.8-1.8,1-.8,2-1.6,2.9-2.4.4.3.8.5,1.1.8h0c-2.3,5.3-4.6,10.5-6.9,15.7h15.2c-2.5-5.3-4.7-10.2-7-15,.5-.3.9-.5,1.4-.8.3,0,.7.2.9.5,4.9,5,10.7,6.1,17,3.5h0Z"/>
        <path class="cls-2" d="M99.2,158.4c2.9,2.9,2.5,4.7-.2,7.4-17.5,17.4-34.9,34.9-52.4,52.3-1,1-2.1,1.8-3.3,2.8-1.2-.9-2.2-1.5-3.1-2.3-17.9-17.8-35.6-35.6-53.6-53.4-2.6-2.5-2.1-4.1.2-6.5,17.8-17.6,35.5-35.3,53.1-53.1,2.5-2.6,4.1-2.3,6.5,0,17.5,17.6,35.1,35.2,52.7,52.7h0ZM66.3,180.5c5-4,6.4-13.4,1.9-18.7-7.8-9.3-16.2-18-25.1-27.7-8.9,9.9-17.8,18.9-25.6,28.8-4.6,5.8-2.3,13.9,3.6,18.2,5,3.7,11.5,2.4,16.7-3.6,1-1.1,1.2-3,1.7-4.5.9.7,1.8,1.5,2.6,2.2-1,2.3-1.8,4.7-3.1,6.9s-3.1,4.1-5.2,6.8h17.8c-2.6-4.5-5-8.7-7.4-12.9.6-.4,1.2-.8,1.9-1.2.9,1.1,1.7,2.2,2.6,3.2,5.4,5.6,12.5,6.6,17.5,2.6h0Z"/>
        <path class="cls-12" d="M106.5,27.9c-21,21-42.2,42.1-64.8,64.6-4.8-5.3-9.8-11.3-15.2-16.8C11.9,60.9-2.9,46.2-17.6,31.6c-2-2-3.7-3.7-.8-6.5C1.4,5.4,21-14.3,40.8-34c.7-.7,1.7-1.2,1.9-1.4C64.2-14.1,85.4,7,106.5,27.9ZM99.8,30.9c2.4-2.4,2.1-3.9,0-6.1C82,7.1,64.3-10.6,46.6-28.4c-2.3-2.3-3.9-2.7-6.5-.1C22.7-10.8,5.1,6.8-12.6,24.2c-3.1,3.1-2.6,4.9.2,7.7,17.5,17.4,34.9,34.9,52.4,52.3,1,1,2.1,1.7,3.3,2.6,1.1-.9,1.9-1.5,2.7-2.2,17.9-17.9,35.8-35.9,53.9-53.8h0Z"/>
        <path class="cls-6" d="M70.7,29.3c.6,6.3-2.1,11.7-7.5,13.9-6.3,2.6-12.1,1.5-17-3.5-.2-.2-.6-.3-.9-.5-.4.3-.9.5-1.4.8l-1.4-.6h0c-.4-.4-.8-.6-1.1-.9-1,.8-2,1.6-2.9,2.4-4.4,3.7-10.7,4.4-15.8,1.8-4.9-2.6-7.8-7.6-7.3-13,.5-5.8,4.4-10,10.4-12.1,1.5-.5,3.2-2.4,3.5-4C30.8,4.9,35.6.2,43.6.4c7.7.2,12.2,4.9,13.4,13.4.2,1.4,1.5,3.4,2.7,3.7,6.5,1.5,10.3,5.2,11,11.8h0Z"/>
        <path class="cls-6" d="M68.2,161.8c4.5,5.3,3.1,14.7-1.9,18.7s-12.1,3-17.5-2.6c-1-1-1.8-2.1-2.6-3.2-.6.4-1.2.8-1.9,1.2l-2.1-.7c-.9-.7-1.7-1.5-2.6-2.2-.6,1.5-.8,3.3-1.7,4.5-5.2,6-11.7,7.3-16.7,3.6-5.9-4.3-8.2-12.4-3.6-18.2,7.8-9.9,16.7-18.9,25.6-28.8,8.8,9.7,17.2,18.5,25.1,27.7h0Z"/>
        <path class="cls-6" d="M51,55h-15.2c2.3-5.2,4.6-10.4,6.9-15.6l1.4.6c2.2,4.8,4.5,9.7,7,15h-.1Z"/>
        <path class="cls-12" d="M37.9,92.2c.8.8,1.4,1.9,2.2,3-.9,1.1-1.6,2.2-2.4,3-19.5,19.6-39.1,39.1-58.6,58.8-2.1,2.1-3.5,2.2-5.6,0-19.6-19.7-39.3-39.5-59.1-59.1-2.9-2.9-1.2-4.4.8-6.4,19.2-19.2,38.5-38.3,57.6-57.7,3-3,4.8-2.2,7.3.4C-3.5,50.8,13.1,67.4,29.7,83.9c2.7,2.7,5.5,5.5,8.2,8.3ZM32.8,98c2.4-2.4,2.2-3.8,0-6C14.8,74.2-3,56.4-20.8,38.5c-2.3-2.3-3.7-2.3-6,0-17.6,17.8-35.4,35.5-53.2,53.1-2.6,2.6-2.5,4.3,0,6.8,17.8,17.6,35.4,35.4,53.2,53.1.8.8,1.8,1.5,3,2.4,1.2-1.1,2.3-1.9,3.3-2.9,17.7-17.7,35.4-35.5,53.2-53.1h0Z"/>
        <path class="cls-12" d="M37.6-42.3c2.1,2.1,2.8,3.7.3,6.1C17.9-16.3-2.1,3.6-22.1,23.5c-.5.5-1.1.8-2.5,1.7-14.8-14.9-29.3-29.6-43.8-44.2-5.6-5.6-11.2-11.3-16.9-16.8-2.4-2.3-2.6-4,0-6.5,19.6-19.4,39-38.8,58.4-58.4,2.2-2.2,3.8-2.4,6.1,0C-1.4-81.1,18.1-61.7,37.6-42.3ZM32.8-36.2c2.8-2.8,1.5-4.3-.6-6.4C15.1-59.7-2-76.8-19.1-93.9c-1.5-1.5-3-2.8-4.3-4-.9.3-1.3.3-1.5.6-18.6,18.5-37.2,37.1-55.8,55.6-2,2-1.5,3.5.3,5.3,4.2,4,8.3,8.2,12.4,12.3C-53.6-9.4-39.1,5.2-24.3,20.1c1.3-1,1.9-1.3,2.4-1.8C-3.6.1,14.5-18.1,32.8-36.2Z"/>
        <path class="cls-6" d="M32.2-42.6c2.1,2.1,3.4,3.6.6,6.4C14.5-18.1-3.6.1-21.8,18.3c-.5.5-1.1.8-2.4,1.8-14.8-14.9-29.3-29.5-43.8-44.1-4.1-4.1-8.2-8.3-12.4-12.3-1.8-1.8-2.4-3.3-.3-5.3,18.6-18.5,37.2-37.1,55.8-55.6.2-.2.6-.3,1.5-.6,1.3,1.2,2.9,2.5,4.3,4C-2-76.8,15.1-59.7,32.2-42.6ZM1.5-36.3c3.5-9,3.8-18-2.6-26-4.4-5.5-11.8-5.8-16.7-.8-2.1,2.1-3.7,4.7-6,7.7-1.7-2.3-3-4.1-4.4-5.8-6-7.4-14.5-7-19.7.8-4.1,6.2-4.4,13-2.6,19.8,3.4,13.2,13,21.4,24.3,27.9,1.3.7,3.7.6,4.9,0C-11.4-18.5-2.8-25.5,1.5-36.3Z"/>
        <path class="cls-6" d="M32.7,92c2.2,2.2,2.4,3.6,0,6-17.8,17.6-35.4,35.4-53.2,53.1-1,1-2.1,1.8-3.3,2.9-1.1-.9-2.1-1.6-3-2.4-17.7-17.7-35.4-35.5-53.2-53.1-2.6-2.6-2.8-4.2,0-6.8,17.8-17.6,35.5-35.3,53.2-53.1,2.3-2.3,3.8-2.3,6,0C-3,56.4,14.8,74.2,32.7,92ZM-23.9,121.7c6.3-11.9,14.7-20.4,26.9-26.8-12.4-6.2-20.5-14.9-26.9-26.4-6.3,12-14.7,20.2-26.4,26.4,11.6,6.6,20.3,14.7,26.4,26.9h0Z"/>
        <path class="cls-12" d="M3,94.9c-12.2,6.5-20.6,14.9-26.9,26.8-6.1-12.2-14.8-20.3-26.4-26.9,11.7-6.2,20.1-14.4,26.4-26.4,6.4,11.6,14.5,20.3,26.9,26.4h0Z"/>
      </g>
      <g>
        <path class="cls-1" d="M92.2,466.2s-.2.1-.4.3c-20.8,20.7-41.5,41.4-62.3,61.9-3.1,3.1-1.6,4.8.7,7.1,19.8,19.8,39.6,39.6,59.4,59.4,1.1,1.1,2.4,2,3.5,2.9,22.2-22.3,43.9-44.1,64.9-65.3-21.9-22-43.9-44.1-66-66.4h.2ZM347.3,435v5.5c-14.4-14.2-28.7-28.3-42.2-41.7-.8-.7-1.5-1.5-2.3-2.3-22.6,22.5-44.7,44.5-66.4,66,21.5,21.6,43.4,43.6,66.1,66.4.9-.9,1.8-1.8,2.6-2.7l2.2,2.2h0c-2.1,2.1-2,3.7-.8,5.4l-2,1.9c-.5-.5-.9-1.1-1.4-1.6-23.4,23.3-45.5,45.4-68.9,68.8,6.1,5.5,12.3,11.1,18.5,16.8h-5.5c-4.9-5.2-9.8-10.4-14.7-15.5-5.9,5.7-11,10.6-16.1,15.5h-4.4c5.6-6.1,11.3-12.3,16.7-18.2-22.2-22.2-44.3-44.2-65.5-65.5-22,21.9-44.1,43.9-66.4,66,5.2,5.6,10.7,11.6,16.3,17.6h-4.4c-5-5.2-10.1-10.4-15.6-16.1-5.5,5.8-10.3,11-15.2,16.1h-5.5c5.9-6.1,11.8-12.1,17.3-17.7-22.5-22.6-44.4-44.6-65.9-66.3-1.1,1-2.1,2.1-3.2,3.1-20.9,20.8-42,41.9-64.5,64.3,6,5.3,12.2,10.9,18.5,16.5h-5.5c-4.8-5.1-9.6-10.2-14.3-15.1-1.2.5-1.8.6-2.2.9-4.8,4.7-9.5,9.4-14.3,14.2h-4.4c5.6-6.1,11.2-12.3,16.2-17.8-2-2-3.9-3.9-5.9-5.9-20.3-20.3-40.2-40.3-60.4-60.5-.2,0-.9.4-1.4.9-20.7,20.7-41.4,41.4-62.2,62.1-2.2,2.2-2.2,3.7,0,5.9,5,5,9.8,10.3,14.7,15.4h-4.4c-4.2-4.3-8.3-8.7-12.8-12.6-1.1-1-4.3-1.4-5.2-.6-4.5,4.2-8.6,8.8-12.8,13.3h-5.5c5.8-6,11.6-12.1,17.2-17.8-22.4-22.3-44.5-44.3-66.1-65.9-21.7,21.6-43.8,43.6-67.3,67.1,6,5.4,12.2,11,18.5,16.6h-5.5c-4.9-5.2-9.9-10.4-14.9-15.7-5.8,5.7-10.8,10.7-15.9,15.7h-4.4c5.6-6.1,11.2-12.3,16.5-18.1-22.3-22.2-44.4-44.2-66.2-65.9-21.7,21.6-43.7,43.7-66,65.9,5.4,5.8,11.1,12,16.7,18.1h-4.4c-5.1-5.1-10.3-10.2-15.9-15.8-5.2,5.5-10,10.7-14.8,15.8h-5.5c5.9-6.1,11.8-12.2,17-17.5-22.6-22.7-44.5-44.6-67.8-68-.7.9-1.4,1.9-2.1,2.9l-1.9-2h0c2.6-2.5,2.6-4.3,0-6.8-7.5-7.2-14.8-14.5-22.2-21.8v-4.4c8.3,7.9,16.6,15.8,24.5,23.3,1,.9,1.9,1.8,2.8,2.7,22.5-22.3,44.5-44.2,66.1-65.7-21.8-21.8-43.8-43.9-67.2-67.3-8.5,9-17.4,18.5-26.2,28v-5.5c7.9-8.5,15.8-17.1,24.2-26.3-7.5-7.1-15.8-15.2-24.2-23.2v-5.5c9.2,9.1,18.4,18.2,27.6,27.3,1.2-.9,2-1.3,2.6-2,20.6-20.5,41.1-41.2,61.7-61.6,3.4-3.3,1.1-4.9-1-7-18.9-18.9-37.7-37.7-56.6-56.6-2-2-4.1-3.9-6.5-6.1-2.1,2-3.8,3.7-5.5,5.3-7.5,7.2-14.9,14.4-22.4,21.6v-4.4c7.2-7.2,14.3-14.5,21.7-21.5,2.9-2.8,3-4.7,0-7.5-7.4-7-14.5-14.3-21.7-21.5v-4.4c9.3,8.9,18.6,17.7,27.2,25.9,1.8-1.8,3.6-3.6,5.3-5.3,20.6-20.6,40.9-40.7,60.9-60.6-21.7-21.7-43.7-43.6-66.2-66-8.9,8.7-18.1,17.8-27.3,26.9v-5.5c7.8-8.6,15.6-17.2,22.6-24.8-6.8-7.5-14.7-16-22.6-24.6v-5.5c8.8,9.5,17.6,19,26.1,28.1,23.6-23.6,45.6-45.7,67.1-67.3-21.6-21.7-43.6-43.7-65.9-66.1-1.3,1.2-2.9,2.6-4.5,4.1-7.6,7.3-15.2,14.6-22.8,22V1c7.2-7.2,14.4-14.4,21.8-21.5,2.8-2.7,3-4.8,0-7.6-7.4-7-14.6-14.3-21.8-21.4v-4.4c8.3,7.9,16.6,15.7,24.5,23.3,1,.9,2,1.9,3,2.8,22.4-22.4,44.4-44.3,66-65.8-21.8-21.9-43.9-43.9-67.4-67.5-8.4,9.1-17.3,18.6-26.1,28.1v-5.5c7.9-8.5,15.8-17.1,23.9-26-3.1-3.2-6.9-7.3-10.8-11.4h5.5c7.4,11,8.9,11.2,17.6,1.8.5-.5.7-1.2,1.1-1.8h5.5c-3.8,4.1-7.7,8.3-11.7,12.6,1.1,1.3,1.9,2.5,2.9,3.5,20,20,40.1,40,60,60.2,2.9,2.9,4.5,2.2,7.1-.3,11-11.2,22.2-22.3,33.3-33.3,9.9-9.7,19.8-19.4,29.9-29.2-4.4-5-8-9.2-11.7-13.4h4.4c6.4,7.1,12.8,7.2,19.5.4.1-.1.2-.3.3-.4h4.4c-3.6,4.2-7.3,8.4-10.3,11.9,22.2,22.3,44.1,44.2,65.7,65.9,21.6-21.6,43.5-43.6,65.6-65.8-3.5-3.7-7.3-7.9-11.2-12h5.5c2.5,2.6,4.7,5.5,7.4,7.9.8.7,3.3.8,4.1,0,2.6-2.4,4.8-5.3,7.2-7.9h5.5c-3.8,4.1-7.7,8.2-11.3,12,22.3,22.2,44.2,44.2,66.4,66.3,0,0,.8-.2,1.3-.7,20.8-20.8,41.6-41.7,62.5-62.5,2-2,1.7-3.6-.2-5.5-3-3.1-5.9-6.4-8.8-9.6h4.4c12.1,12.4,8,11.4,19.4.4,0-.1.2-.3.4-.4h4.4c-2,2.3-3.9,4.7-6.1,6.9-5.6,5.6-5.7,5.6-.3,11,16.7,16.7,33.4,33.4,50.1,50.1,3.7,3.7,7.5,7.3,10.9,10.6,20.5-20.4,40.5-40.5,60.8-60.8,1.9-1.9,3.9-3.9,5.8-5.8-3.6-3.8-7.4-7.9-11.3-12h5.5c7.5,11,9,11.1,17.6,1.8.5-.5.7-1.2,1.1-1.8h5.5c-3.8,4.1-7.6,8.3-10.9,11.8,1.6,1.6,3.2,3.3,4.9,4.9,20.5,20.6,40.9,41.1,61.1,61.4,21.6-21.7,43.5-43.6,65.6-65.8-3.4-3.9-7.1-8.1-10.7-12.3h4.4c12,12.3,8.1,11.3,19.4.4.1-.1.2-.3.3-.4h4.4c-3.6,4.2-7.3,8.4-11.1,12.7,1,1.2,1.7,2.2,2.6,3.1,20.1,20.2,40.4,40.3,60.4,60.6,3.5,3.5,5.2,1.3,7.5-.9,19.6-19.7,39.3-39.3,58.9-59,1.1-1.1,2.1-2.4,3.3-3.9-4.1-4.4-7.9-8.5-11.8-12.6h5.5c2.4,2.7,4.7,5.5,7.4,7.9.8.7,3.3.7,4,0,2.6-2.4,4.9-5.2,7.3-7.9h5.5c-3.9,4.1-7.7,8.2-13,13.8.5.4,1,.8,1.4,1.2l-1.8,1.9s-.2-.2-.3-.3c-22.6,22.5-44.8,44.4-66.5,66,21.5,21.6,43.4,43.5,65.6,65.8,1-.9,2.2-1.9,3.3-3,.2-.2.3-.3.5-.5,8.3-8.3,16.5-16.6,24.9-24.8,5.4-5.3,11.1-10.5,16.6-15.7v4.4c-13.2,13.1-26.4,26.4-39.7,39.4-3,2.9-2,4.8.4,7.2,13.1,13,26.2,26.1,39.3,39.1v4.4c-1.4-1.1-2.9-2.1-4.2-3.3-11.9-11.9-23.8-23.8-35.7-35.7-1.8-1.8-3.7-3.4-5.1-4.7-22.4,22.4-44.4,44.4-65.9,65.9,21.7,21.8,43.7,43.9,67.1,67.4l.2-.2,1.7,1.7c-.2.2-.1.7-.2,1-.4.4-.8.8-1.2,1.2,1.3,1,2.6,2,3.9,2.9l-2,2h-.1c-3-3.2-4.8-3.3-7.9,0-19.7,19.9-39.5,39.7-59.4,59.4-3.3,3.2-2.7,5,.2,7.9l.2.2c19.6,19.4,39,38.9,58.5,58.4,1.3,1.3,2.7,2.4,4.4,4,15.3-15.3,30.4-30.4,45.5-45.5v5.5c-13.1,13-26.1,26.2-39.3,39.1-2.9,2.9-2.9,4.7,0,7.5,13.2,12.9,26.2,26,39.3,39.1v5.5c-15.1-15.1-30.1-30.3-44.2-44.4l-2.5,2.5c-21.8,21.6-43.1,42.7-63.9,63.4,21.6,21.5,43.5,43.4,65.9,65.8,14.6-14.5,29.7-29.5,44.7-44.4v5.5c-1.4,1.1-2.9,2.2-4.1,3.5-11.1,11-22.2,22.1-33.3,33.2-5.5,5.5-5.6,5.5,0,11.2,12.4,12.3,24.9,24.5,37.4,36.8h0l.8-.4ZM295.9,256.9c2.5-2.5,2.3-4.4-.2-6.8-20-19.9-39.9-39.8-59.7-59.8-2.9-2.9-4.8-2.7-7.6.2-8.5,8.8-17.3,17.4-26,26.1-12.2,12.1-24.4,24.2-36.7,36.5.7,1.3.9,1.8,1.2,2.2,20.7,20.7,41.4,41.4,62,62.2,2.7,2.7,4.6,2,6.8-.3,20-20.1,40-40.2,60.1-60.2h.1ZM232.2,458.1c21.8-21.7,43.8-43.7,65.6-65.4-21.7-21.7-43.7-43.7-64.9-64.9-21.9,21.8-44,43.8-65.3,64.9,21.4,21.7,43.2,43.7,64.6,65.4h0ZM297.1-25c-21.3-21.3-43.1-43.2-64.7-64.8-21.7,21.9-43.5,43.9-65.2,65.8,21.3,21.5,43.2,43.5,64.4,64.7,21.9-21.9,43.9-44,65.6-65.7h-.1ZM232.3,180c21.6-21.6,43.6-43.6,64.7-64.7-21.8-22.1-43.7-44.3-64.8-65.7-21.7,21.6-43.7,43.5-65.3,64.9,21.7,21.7,43.7,43.7,65.4,65.5h0ZM232.1,597.2c21.7-21.7,43.7-43.5,65.4-65.1-22-22-43.9-44-65.3-65.4-21.7,21.6-43.8,43.6-65.2,65,21.6,21.7,43.5,43.7,65.1,65.5h0ZM228.6,183.8c-.5-.6-1-1.5-1.8-2.3-20.3-20.3-40.7-40.6-60.8-61-3-3-4.7-2-7.2.4-12.6,12.7-25.2,25.5-38,38-8.3,8.2-16.8,16.2-24.6,23.7,23.1,23,45.2,45,66.8,66.5,21.4-21.4,43.4-43.3,65.6-65.4h0ZM213.5,339.3c5.2-5.3,10.5-10.5,15.2-15.3-22.4-22.5-44.3-44.5-65.6-65.9-21.9,21.8-44,43.8-66.2,66,.2.3.7,1.1,1.3,1.7,20.3,20.3,40.7,40.6,60.9,60.9,3,3,4.9,2.3,7.6-.4,15.6-15.8,31.2-31.4,46.9-47.1h-.1ZM227.7,45.4C206,23.7,183.9,1.6,162.8-19.5,141.1,2,119,23.9,97.5,45.2c21.6,21.7,43.5,43.8,65.1,65.6,21.8-21.9,43.8-44,65-65.3h0ZM162.3,527.4c22-21.8,44.1-43.8,65.3-64.7-21.7-21.8-43.7-43.9-65.4-65.7-21.6,21.5-43.6,43.5-65.3,65.2,21.9,21.9,44,43.9,65.4,65.2h0ZM162.9-27.9c21.6-21.7,43.5-43.7,65.4-65.7-21.8-21.9-43.8-43.9-65.4-65.5-21.8,21.8-43.9,43.8-65.7,65.5,21.7,21.7,43.7,43.8,65.6,65.7h.1ZM160.2,254.3c-2.4-2.6-3.8-4.3-5.4-5.8-19.1-19.2-38.4-38.2-57.4-57.5-3.4-3.5-5.4-3.4-8.7,0-19.5,19.8-39.2,39.4-59,59-2.7,2.7-2.9,4.4-.2,7.1,20,19.8,40,39.7,59.8,59.7,3.2,3.2,5.1,2.7,7.9-.3,10.7-11,21.6-21.8,32.6-32.6,9.9-9.8,19.9-19.4,30.4-29.6h0ZM159.1-24.9c-.5-.6-1.3-1.6-2.2-2.5-20.2-20.2-40.4-40.4-60.4-60.7-3-3.1-4.7-1.9-7.1.5-19.7,19.9-39.5,39.7-59.5,59.4-3,2.9-2.7,4.7,0,7.5C50-.9,69.7,19,89.6,38.8c1.1,1.1,2.4,2,3.3,2.8C115.1,19.3,137-2.7,159.1-24.9ZM158.3,114.5c-21.5-21.7-43.4-43.7-64.8-65.4-21.9,21.9-43.9,44-65.5,65.5,21.6,21.7,43.5,43.7,65,65.2l65.3-65.3h0ZM158.4,392.6c-21.6-21.6-43.5-43.6-65-65.2-21.9,21.8-43.9,43.8-65.1,64.9,21.6,21.8,43.5,43.9,64.9,65.6,21.6-21.7,43.5-43.6,65.1-65.3h.1ZM89.5,183.7c-.2-.3-.5-1-1-1.5-20.7-20.7-41.4-41.4-62-62.2-3-3-4.6-1.3-6.7.8-10.8,10.9-21.7,21.8-32.5,32.6-10.1,10-20.3,20-30.2,29.8C-20.2,205.8,1.8,227.8,23.5,249.3c21.9-21.8,43.9-43.6,66.1-65.7h0ZM87.7,465.2c3.3-3.3,1.2-4.9-.9-7.1-19.5-19.5-39-39-58.6-58.5-1.4-1.4-2.9-2.6-3.4-3.1-22.5,22.5-44.6,44.6-66.1,66.1,21.4,21.5,43.2,43.6,65.3,65.7.4-.3,1.1-.6,1.6-1.1,20.7-20.7,41.3-41.4,62.1-62h0ZM74.3,339.5c5.3-5.3,10.7-10.4,15.4-15-22.7-22.8-44.6-44.9-66.3-66.7-21.6,21.5-43.6,43.4-66.1,65.7,1,1.1,1.9,2.2,3,3.3,19.8,19.8,39.6,39.5,59.2,59.4,3.3,3.4,5.2,3,8.3-.1,15.4-15.7,30.9-31.1,46.5-46.6h0ZM23.4,110.5c21.8-21.8,43.9-43.8,65.7-65.7C67.6,23.2,45.7,1.3,24-20.4,2.1,1.6-19.9,23.6-41.5,45.3-20,66.9,2,89,23.4,110.5ZM89.1-94.3c-21.6-21.6-43.5-43.6-65.2-65.3C2-137.7-20-115.6-41.5-94.1-19.6-72.1,2.3-50.1,23.4-28.9c21.7-21.6,43.8-43.7,65.7-65.4ZM17.4-20.6c3.4-3.3,2.1-5.4-.6-8.1C-2.8-48.3-22.5-68-42.1-87.6s-2.4-2-3.6-3c-1,.7-1.6,1.1-2.1,1.6-20.6,20.6-41.1,41.2-61.7,61.7-3.2,3.2-1.4,4.9.8,7.1C-92.1-3.7-75.3,12.9-58.7,29.7c4.1,4.1,7.7,8.7,11.6,13.1,2.2-1.6,2.7-1.8,3.1-2.2C-23.5,20.1-3.1-.3,17.4-20.6ZM20.2,253.7c-1-1.3-1.8-2.5-2.8-3.5-19.9-19.9-39.9-39.8-59.7-59.8-3-3-4.8-2.6-7.5.3-19.5,19.8-39.2,39.4-58.9,59-3.3,3.2-3.2,5.1,0,8.3,19.9,19.6,39.6,39.5,59.3,59.3,2.4,2.4,4.1,2.9,6.7.3,20-20.1,40-40.1,60.1-60.2,1-1,1.8-2.2,2.8-3.6h0ZM17.1,535.7c3-3,3.2-5,0-8.1-12.7-12.4-25.2-24.9-37.6-37.6-8.2-8.3-16-17-24.1-25.7-2.5,2-3.3,2.5-3.9,3.2-20.3,20.3-40.6,40.6-61,60.9-3,3-1.9,4.7.5,7.1,17.2,17.2,34.4,34.4,51.6,51.6,3.7,3.7,7.5,7.3,11.4,11,1.3-1,2.2-1.6,3-2.3,20-20,40-40.1,60.1-60.1h0ZM-47.4,181.6C-24,158.3-2.1,136.4,19.8,114.6-2.1,92.9-24.1,71.1-46.4,49c-.3.2-1.2.7-2,1.5-20.5,20.4-40.9,40.9-61.5,61.3-3,2.9-1.2,4.7.9,6.7,15.3,15.2,30.6,30.4,45.8,45.8,5.6,5.7,10.8,11.9,15.7,17.4h0ZM-45.8,458.2c21.8-21.8,43.7-43.8,65.4-65.6-21.7-21.6-43.7-43.5-65.3-65.1-21.8,21.7-43.8,43.5-65.4,64.9,21.7,21.9,43.6,44,65.3,65.8h0ZM-49,184.4c-.8-1.1-1.5-2.2-2.3-3.1-2.8-2.9-5.7-5.7-8.5-8.6-17.2-17.2-34.4-34.4-51.6-51.7-2.6-2.7-4.5-3.5-7.6-.4-19.8,20-39.8,39.9-59.7,59.8-2.1,2.1-3.8,3.7-.8,6.7,20.5,20.3,40.9,40.8,61.3,61.3,2.2,2.2,3.7,2.1,5.9,0,20.2-20.4,40.6-40.6,60.8-60.9.9-.9,1.6-1.9,2.5-3.1h0ZM-49,323.1c-.9-1.2-1.6-2.2-2.4-3.1-20.2-20.2-40.4-40.3-60.4-60.6-2.8-2.8-4.5-2.4-7.1.2-20,20.1-40,40.2-60.1,60.1-2.5,2.5-2.7,4.2,0,6.7,20.3,20.1,40.4,40.3,60.5,60.5,2.3,2.3,3.9,2.6,6.3.2,20.2-20.4,40.6-40.6,60.9-60.9.9-.9,1.5-2,2.4-3.1h-.1ZM-51.4,48.1c2.5-2.5,1.9-4.1-.3-6.3C-71.9,21.7-92.1,1.5-112.2-18.7c-2.4-2.4-4-2.2-6.3,0-20.1,20.3-40.3,40.5-60.6,60.6-2.6,2.6-2.5,4.3,0,6.7,5.9,5.7,11.7,11.6,17.5,17.4,15.1,15.2,30.1,30.4,45.4,45.8,1.4-.9,2.1-1.3,2.6-1.7,20.7-20.6,41.4-41.4,62.2-62h0ZM-52.3-89.9c1.1-1.1,2.1-2.4,2.9-3.4-22.3-22.3-44.4-44.3-66.2-66.1-21.7,21.6-43.7,43.5-66.1,65.9,1.6,1.7,2.9,3.1,4.3,4.5,19.3,19.3,38.6,38.5,57.7,58,3.6,3.6,5.5,3,8.7-.2,19.4-19.7,39-39.1,58.6-58.7h0ZM-52.8,466.7c1.4-1.4,2.6-2.9,3.4-3.9-22.4-22.4-44.3-44.4-66.1-66.2-21.7,21.7-43.6,43.6-65.9,66,.7.8,1.3,1.7,2.1,2.5,20.3,20.4,40.6,40.6,60.8,61.1,3.2,3.2,4.8,1.4,7.1-.8,19.5-19.6,39.1-39.1,58.6-58.6h0ZM-121.1,535c3.6-3.5,1.1-5.3-1.1-7.5-19.5-19.5-39.1-39-58.5-58.7-3.3-3.3-5.1-3.2-8.3,0-19.3,19.5-38.6,38.9-58.2,58.2-3.5,3.5-3.8,5.6-.1,9.2,13.6,13.3,26.9,26.9,40.4,40.3,7.2,7.2,14.5,14.3,21.9,21.6,1.2-.9,2-1.3,2.6-1.9,20.5-20.4,40.8-40.9,61.4-61.2h-.1ZM-121.3,396c2.9-2.9,2.3-4.6-.3-7.1-12.6-12.5-25.2-25-37.6-37.6-8.3-8.4-16.4-17-24-25-23.1,22.9-45.2,44.8-67.2,66.6,21.7,21.7,43.7,43.6,65.8,65.7.8-.6,1.9-1.3,2.7-2.2,20.2-20.2,40.3-40.4,60.6-60.5h0ZM-121.7,257.6c2.8-2.8,3.2-4.6.2-7.6-20.1-19.9-40.1-40-60.2-60-.9-.9-1.9-1.5-3.2-2.5-1.3,1-2.5,1.8-3.5,2.8-19.8,19.8-39.6,39.6-59.5,59.3-2.9,2.9-3.4,4.9-.2,8,19.9,19.6,39.7,39.4,59.4,59.3,2.8,2.9,4.6,3,7.5,0,19.7-19.9,39.5-39.7,59.3-59.4h.2ZM-122.3,119.1c3.5-3.4,3.6-5.3.2-8.7-17.2-16.9-34.2-34.1-51.3-51.2-3.7-3.7-7.5-7.3-11.3-10.9-1.2.9-1.8,1.3-2.3,1.8-20.5,20.4-40.9,40.9-61.5,61.2-2.9,2.9-2.2,4.7.3,7.2,9.3,9.1,18.5,18.3,27.6,27.5,11.6,11.7,23.1,23.4,35.2,35.7,2.4-2.2,4-3.6,5.5-5.2,19.1-19.2,38.2-38.4,57.5-57.4h.1ZM-122.5-19.8c3.6-3.5,3.8-5.5,0-9.1-13.5-13.1-26.8-26.5-40-40-7.3-7.4-14.2-15.1-21.3-22.7-.5.4-.9.7-1.4,1.1-.7.5-1.6.9-2.2,1.5-20.3,20.3-40.6,40.6-61,60.8-3.4,3.4-1.9,5.4.7,8,18.7,18.6,37.3,37.2,55.9,55.8,2.2,2.1,4.4,4.2,6.8,6.4,1.5-1.4,2.6-2.3,3.6-3.3C-161.6,19.3-142.2-.4-122.5-19.8ZM-188.1,183.6c-.7-.8-1.4-1.7-2.1-2.4-19.9-19.9-40-39.8-59.7-59.8-3.5-3.5-5.4-3.3-8.7,0-19.4,19.7-39,39.2-58.6,58.7-1.1,1.1-2.2,2.4-2.8,3.1,22.3,22.3,44.3,44.4,66.1,66.3,21.5-21.6,43.5-43.5,65.9-65.9h-.1ZM-199.5,335.6c4-3.9,8.4-7.4,12.1-10.5-23.4-23.5-45.3-45.6-67.5-67.9-.5.4-1.2.9-1.8,1.5-20.5,20.4-40.8,40.9-61.4,61.2-3.1,3.1-1.7,4.7.6,7.1,19.7,19.6,39.4,39.2,58.9,59,3.4,3.5,5.3,3.4,8.7,0,16.6-16.9,33.5-33.7,50.4-50.4h0ZM-254.4,110.8c21.7-21.7,43.7-43.8,64.7-64.8C-211.4,24-233.4,1.8-254.9-20c-21.6,21.5-43.5,43.5-65.1,65.1,21.8,21.8,43.9,43.9,65.6,65.7h0ZM-254-28.3c21.5-21.6,43.5-43.6,64.9-65-22.1-22.1-44.1-44.1-65.2-65.2-21.6,21.5-43.7,43.4-65.1,64.8,21.6,21.6,43.7,43.6,65.5,65.4h-.1ZM-189.3,462.5c-21.7-21.8-43.7-43.9-64.9-65.2-21.7,21.6-43.8,43.6-65.7,65.3,21.6,21.6,43.5,43.5,65.1,65.1,22.1-21.9,44.2-43.9,65.6-65.1h0ZM-259.9-21.4c3-2.9,1.3-4.6-.8-6.7-19.8-19.8-39.7-39.5-59.4-59.4-2.9-2.9-4.6-3-7.5,0-19.7,19.9-39.5,39.6-59.3,59.5-1.1,1.1-2.1,2.4-2.9,3.4,22.2,22.2,44,44.2,66.2,66.4.5-.3.9-.4,1.1-.6,20.9-20.8,41.7-41.6,62.6-62.4h0v-.2ZM-261,535.7c3.5-3.4,2.8-5.3-.3-8.3-19.5-19.3-38.9-38.8-58.3-58.2-1.4-1.4-2.9-2.5-4.2-3.7l-65.8,65.8c22.1,22.2,44,44.2,66.1,66.4,1-.8,2.2-1.8,3.4-3,19.7-19.7,39.3-39.4,59.1-59h0ZM-323.9,180c21.8-21.7,43.8-43.6,65.7-65.3-21.9-21.7-43.9-43.5-65.5-65-21.6,21.5-43.6,43.5-65.1,64.8,21.6,21.8,43.4,43.8,64.9,65.5h0ZM-258.6,254.2c-21.9-22.1-43.8-44.1-65.7-66.3-.3.2-.9.5-1.4,1-20.6,20.5-41.1,41.1-61.8,61.5-3,3-1.7,4.8.6,7.1,15.1,14.9,30,30,45,45s11.9,11.7,17.7,17.4c22.5-22.5,44.4-44.4,65.6-65.7h0ZM-258.2,392.7l-65.4-65.4c-22,21.9-43.9,43.8-65.2,65,21.7,21.8,43.6,44,65.1,65.6,21.7-21.6,43.7-43.5,65.5-65.3h0ZM-327.5,183.6c-.1-.2-.4-.8-.9-1.3-20.7-20.7-41.4-41.4-62-62.2-2.2-2.2-3.8-2.1-5.9,0-5.9,6-11.9,11.9-17.9,17.8-15.1,15.1-30.3,30.2-44.9,44.8,22.5,22.7,44.4,44.8,65.9,66.5,21.6-21.6,43.6-43.6,65.7-65.7h0ZM-336.5,333.2c3.2-3.2,7-5.8,10.1-8.3-23.3-23.4-45.2-45.3-66.9-67.1-22,22-44,43.9-66.1,66.1.3.4.8,1.1,1.4,1.8,20.3,20.3,40.6,40.6,60.9,61,2.9,2.9,4.8,2.7,7.6-.2,17.6-17.8,35.3-35.6,53.1-53.2h-.1ZM-393.7,527.1c21.9-21.6,44-43.5,65.2-64.5-21.7-21.9-43.7-44-65.2-65.7-21.6,21.6-43.6,43.5-65,64.9,22,22.2,44,44.3,64.9,65.3h.1ZM-327.8-93.6c-21.8-21.7-43.7-43.7-65.7-65.6-21.7,21.7-43.7,43.7-65.6,65.5,21.8,21.8,43.9,43.9,65.6,65.6,21.8-21.8,43.9-43.8,65.7-65.5ZM-393.1,110.2c21.6-21.5,43.6-43.4,65.4-65.1-21.8-21.8-43.9-43.8-65.8-65.6-21.8,21.8-43.8,43.8-65,65.1,21.8,21.9,43.9,44.1,65.4,65.7h0ZM-396.4,254.4c-.8-1.4-1-1.9-1.3-2.3-20.7-20.7-41.4-41.4-62-62.2-2.8-2.8-4.6-1.8-6.8.4-20,20.1-40,40.1-60.2,60.1-2.3,2.3-2.5,4-.2,6.3,20.1,20,40.2,40,60.2,60.2,3.2,3.2,5.2,2.5,8-.4,12.6-12.8,25.3-25.5,38-38.1,8-8,16.1-15.9,24.3-24h0ZM-396.9,531.3c-.6-.7-1.3-1.7-2.2-2.6-20.2-20.2-40.4-40.3-60.5-60.6-2.7-2.7-4.4-2.1-6.7.2-20.3,20.4-40.6,40.7-60.9,61-.7.7-1.1,1.8-1.6,2.6,22.1,22,44,43.8,65.8,65.5,22-22,44-43.9,66.1-66.1h0ZM-463.9,42.3c23-22.9,44.9-44.8,66.3-66.2-21.8-21.9-43.8-43.9-65.9-66.1-.2.2-.9.5-1.4,1-20.6,20.5-41.2,41.1-61.8,61.6-2.6,2.5-1.7,4.2.4,6.3,7.2,7.1,14.3,14.2,21.3,21.4,13.7,14,27.4,27.9,41.1,41.9h0ZM-398.1,393.1c-21.5-21.8-43.3-43.9-64.6-65.4-21.8,21.8-43.9,43.8-65.4,65.2,21.6,21.7,43.5,43.7,64.8,65.2,21.9-21.9,44-43.9,65.2-65h0ZM-462.9,180.1c21.8-21.9,43.8-43.9,65.2-65.3-21.7-21.8-43.7-43.9-65.2-65.6-21.8,21.7-43.9,43.6-65.6,65.3,21.9,21.8,43.8,43.8,65.7,65.6h-.1Z"/>
        <path class="cls-7" d="M232.3-89.9c21.6,21.6,43.5,43.5,64.7,64.8-21.7,21.8-43.7,43.8-65.6,65.7-21.2-21.3-43-43.3-64.4-64.7,21.7-21.9,43.5-43.9,65.2-65.8h.1ZM289.9-20.1c3.2-3.2,3.4-5,0-8.3-18-17.7-35.9-35.6-53.6-53.6-3.3-3.3-5.1-3.3-8.3,0-17.8,18.1-35.8,36.1-53.9,54-2.9,2.9-3,4.6,0,7.5,10.6,10.3,21.1,20.9,31.5,31.4,8.6,8.7,17.2,17.4,26.3,26.5,1.6-1.5,2.6-2.3,3.5-3.1,18.1-18.1,36.2-36.3,54.5-54.3h0Z"/>
        <path class="cls-7" d="M297,115.3c-21.1,21.1-43,43.1-64.7,64.7-21.8-21.8-43.7-43.7-65.4-65.5,21.6-21.4,43.6-43.3,65.3-64.9,21.1,21.4,43,43.6,64.8,65.7ZM293.6,115.9c-.8-1.7-.8-2.1-1.1-2.3-19.2-19.3-38.5-38.6-57.6-58-2.4-2.4-4-1.4-6,.6-18.2,18.2-36.5,36.5-54.8,54.6-2.8,2.7-3,4.7,0,7.6,18.2,18,36.4,36.1,54.3,54.3,3.2,3.3,5.1,2.7,7.9-.2,7.5-7.8,15.2-15.3,22.9-22.9,11.5-11.3,22.9-22.5,34.3-33.7h.1Z"/>
        <path class="cls-7" d="M226.8,181.5c.7.7,1.3,1.7,1.8,2.3-22.2,22.1-44.1,44-65.6,65.4-21.6-21.6-43.7-43.6-66.8-66.5,7.8-7.5,16.3-15.5,24.6-23.7,12.7-12.6,25.4-25.3,38-38,2.4-2.4,4.2-3.4,7.2-.4,20.2,20.4,40.6,40.7,60.8,61h0ZM224.6,185c-2-2.2-3.2-3.6-4.4-4.8-17.8-17.9-35.7-35.6-53.4-53.6-3.4-3.5-5.2-2.9-8.3.2-17.7,18-35.5,35.8-53.5,53.5-3.4,3.3-3,5.2.2,8.3,18.1,17.9,36.1,35.9,53.9,54,3,3,4.8,2.6,7.5-.2,10.3-10.6,20.8-21.1,31.4-31.5,8.7-8.6,17.5-17,26.6-25.8h0Z"/>
        <path class="cls-13" d="M221,41.7c2.5,2.4,2.8,4.1.2,6.7-18.5,18.3-36.8,36.6-55.1,55.1-2.5,2.5-4,2.8-6.6,0-18.3-18.5-36.6-36.8-55.1-55.1-2.5-2.5-2.7-4.1,0-6.7,18.6-18.4,37-36.9,55.5-55.4.9-.9,1.9-1.5,3.1-2.4,1.2,1,2.2,1.7,3.1,2.6,18.4,18.4,36.7,36.7,55.1,55h-.2ZM184,56.4c6.8-8,9.2-17.8,6.2-28.2-1.7-5.7-4.9-10.3-11.3-11.4-6.3-1-10.3,2.6-13.3,7.6-.7,1.2-1.6,2.3-2.8,4-1.7-2.4-2.9-4.3-4.3-6.1-5.4-7.3-13.4-7.7-19.5-.9-4.6,5.2-5.5,11.5-4.6,18,2.2,16.3,13.4,25.7,26.6,33.3,1.3.7,4.2.2,5.5-.9,6.1-4.9,12.6-9.5,17.6-15.4h0Z"/>
        <path class="cls-13" d="M220.1,180.2c1.3,1.3,2.4,2.6,4.4,4.8-9.1,8.8-17.9,17.2-26.6,25.8-10.6,10.4-21.1,20.9-31.4,31.5-2.7,2.8-4.5,3.3-7.5.2-17.8-18.1-35.8-36.1-53.9-54-3.1-3.1-3.6-4.9-.2-8.3,18-17.7,35.8-35.5,53.5-53.5,3.1-3.1,4.9-3.7,8.3-.2,17.6,18,35.6,35.8,53.4,53.6h0ZM174.5,195.9c4.3-4.3,9.5-7.8,15-12.1-11.7-6.1-20.4-14.9-26.8-27.1-6.3,12.3-15.1,20.8-27.6,27.6,12.7,6.5,21,15.7,27.3,26.5,4.3-5.4,7.8-10.6,12.1-14.9h0Z"/>
        <path class="cls-7" d="M162.8-19.5c21.1,21.1,43.2,43.3,64.9,65-21.2,21.3-43.2,43.4-65,65.3-21.7-21.8-43.6-43.9-65.1-65.6C119,23.9,141.1,2,162.8-19.5ZM221.2,48.4c2.7-2.6,2.3-4.3-.2-6.7-18.4-18.3-36.7-36.7-55.1-55-.9-.9-1.9-1.6-3.1-2.6-1.1.8-2.2,1.5-3.1,2.4-18.5,18.5-36.9,37-55.5,55.4-2.6,2.6-2.4,4.2,0,6.7,18.5,18.3,36.8,36.7,55.1,55.1,2.6,2.6,4.2,2.4,6.6,0,18.3-18.5,36.6-36.8,55.1-55.1h.2Z"/>
        <path class="cls-7" d="M190.1,28.2c3.1,10.5.7,20.2-6.2,28.2-5,5.9-11.5,10.5-17.6,15.4-1.3,1-4.2,1.6-5.5.9-13.2-7.5-24.4-17-26.6-33.3-.9-6.5,0-12.8,4.6-18,6-6.8,14.1-6.4,19.5.9,1.4,1.8,2.6,3.7,4.3,6.1,1.2-1.7,2.1-2.8,2.8-4,3-5.1,7-8.6,13.3-7.6,6.4,1,9.6,5.7,11.3,11.4h0Z"/>
        <path class="cls-7" d="M157-27.4c.9.9,1.6,1.9,2.2,2.5C137-2.7,115.1,19.3,92.9,41.6c-.9-.7-2.2-1.6-3.3-2.8C69.7,19,50-.9,30.1-20.6c-2.8-2.8-3.1-4.6,0-7.5,19.9-19.7,39.7-39.5,59.5-59.4,2.4-2.4,4.1-3.6,7.1-.5,20.1,20.3,40.3,40.5,60.4,60.7h-.1ZM152.3-21.6c2-2,1.9-3.5,0-5.5-18.7-18.6-37.3-37.2-55.8-55.9-2-2-3.6-2.7-6-.4-18.7,18.8-37.5,37.5-56.2,56.3-2,2-1.9,3.6,0,5.5C53-2.8,71.7,15.9,90.5,34.6c.7.7,1.7,1.2,2.8,2,1-.7,1.9-1.3,2.7-2,18.8-18.7,37.5-37.5,56.3-56.2h0Z"/>
        <path class="cls-10" d="M152.2-27.1c2,2,2.1,3.5,0,5.5-18.8,18.7-37.5,37.5-56.3,56.2-.8.7-1.7,1.3-2.7,2-1.1-.7-2-1.3-2.8-2C71.7,15.9,53-2.8,34.2-21.5c-2-1.9-2.1-3.5,0-5.5,18.8-18.7,37.5-37.5,56.2-56.3,2.3-2.4,4-1.6,6,.4,18.6,18.7,37.2,37.3,55.8,55.9h0ZM114.2-8.7c5.5-2.9,8.2-7.8,7.6-14-.6-6.1-3.9-10.4-10.2-12-3.3-.8-4.2-2.5-4.4-5.7-.6-7.9-5.9-12.6-13.8-12.7-7.5,0-13.4,4.8-14.1,12.5-.3,3.5-1.3,5.1-4.8,6-6,1.5-9.7,6.1-10,12.2-.3,5.7,1.9,10.3,7.1,13.2,5.1,2.8,11.6,2.4,16-1.1,1.3-1.1,2.5-2.2,3.8-3.3.4.3.9.6,1.3.9-2.4,5.4-4.8,10.9-7.2,16.2h15.6c-2.6-5.7-5-10.8-7.4-15.9l1.4-.8c1.1.9,2.1,1.7,3.2,2.6,4.7,3.9,10.6,4.6,15.8,1.9h0Z"/>
        <path class="cls-10" d="M154.2,114.9c-1,1.2-1.8,2.2-2.6,3.1-18.4,18.4-36.8,36.7-55.1,55.1-2.5,2.5-4.1,2.7-6.7.1-18.3-18.4-36.7-36.8-55.1-55.1-2.6-2.5-2.6-4.2,0-6.7,18.4-18.3,36.8-36.6,55.1-55.1,2.5-2.5,4.3-2.7,6.8,0,18.3,18.4,36.7,36.7,55.1,55.1s1.7,2.2,2.7,3.5h-.2ZM116.9,134.1c5.2-3.8,7.2-13.4,2.7-18.8-8.1-10-17.1-19.3-26.4-29.6-9.3,10.3-18.3,19.6-26.5,29.6-4.5,5.5-2.6,14.5,2.7,18.8,5.4,4.3,12.2,3.2,18-2.9,1.2-1.3,2.6-2.2,4-3.4.4.4.8.8,1.2,1.2-2.8,4.5-5.6,8.9-8.6,13.7h18c-2.8-4.6-5.5-9.2-8.2-13.8.8-.7,1.7-1.3,2.5-2,.8,1.4,1.3,3.1,2.4,4.3,5.5,5.9,12.7,7,18.2,2.9Z"/>
        <path class="cls-13" d="M119.6,115.3c4.5,5.5,2.5,15-2.7,18.8-5.5,4.1-12.6,3-18.2-2.9-1.1-1.2-1.6-2.8-2.4-4.3-.8.7-1.7,1.3-2.5,2h-1.2c-.4-.3-.8-.7-1.2-1.1-1.3,1.1-2.8,2.1-4,3.4-5.7,6.1-12.5,7.2-18,2.9-5.4-4.3-7.3-13.3-2.7-18.8,8.2-10,17.2-19.3,26.5-29.6,9.2,10.2,18.2,19.5,26.4,29.6h0Z"/>
        <path class="cls-13" d="M102,142.7h-18c3-4.7,5.8-9.2,8.6-13.7h1.2c2.7,4.5,5.5,9,8.2,13.7h0Z"/>
        <path class="cls-7" d="M93.5,49.1c21.5,21.7,43.3,43.7,64.8,65.4l-65.3,65.3c-21.5-21.6-43.4-43.6-65-65.2,21.5-21.5,43.6-43.6,65.5-65.5ZM151.6,118c.9-.9,1.6-1.9,2.6-3.1-1-1.3-1.7-2.5-2.7-3.5-18.3-18.4-36.7-36.7-55.1-55.1-2.5-2.5-4.3-2.4-6.8,0-18.3,18.4-36.7,36.8-55.1,55.1-2.5,2.5-2.5,4.2,0,6.7,18.5,18.3,36.9,36.6,55.1,55.1,2.6,2.6,4.3,2.4,6.7-.1,18.3-18.4,36.7-36.8,55.1-55.1h.2Z"/>
        <path class="cls-13" d="M101.2,3.5h-15.6c2.3-5.3,4.8-10.7,7.2-16.2l1.1.2c2.4,5.1,4.7,10.3,7.4,15.9h0Z"/>
        <path class="cls-7" d="M88.6,182.2c.5.5.8,1.2,1,1.5-22.2,22-44.2,43.9-66.1,65.7-21.6-21.6-43.7-43.6-66.3-66.1,9.9-9.8,20.1-19.8,30.2-29.8,10.9-10.8,21.7-21.7,32.5-32.6,2-2.1,3.7-3.8,6.7-.8,20.6,20.8,41.3,41.5,62,62.2h0ZM85,184.9c-.8-1.4-1.1-2.1-1.5-2.6-19-19.1-38-38.1-57-57.2-2.2-2.3-3.7-1.9-5.8.3-7.6,7.9-15.4,15.6-23.2,23.3-11.7,11.6-23.5,23-35.1,34.4.8,1.7.9,2.1,1.1,2.3,19.1,19.2,38.4,38.3,57.4,57.5,2.7,2.8,4.2,1.4,6.2-.6,11.9-11.9,23.8-23.8,35.7-35.7,7.4-7.3,14.8-14.6,22.2-21.8h0Z"/>
        <path class="cls-13" d="M83.5,182.3c.5.5.7,1.2,1.5,2.6-7.4,7.2-14.8,14.5-22.2,21.8-12,11.9-23.9,23.8-35.7,35.7-2,2-3.5,3.4-6.2.6-19-19.3-38.3-38.4-57.4-57.5-.2-.2-.3-.6-1.1-2.3,11.6-11.4,23.4-22.9,35.1-34.4,7.8-7.7,15.6-15.5,23.2-23.3,2.1-2.2,3.6-2.5,5.8-.3,19,19.1,38,38.1,57,57.2h0ZM43.8,196.8c7.2-7.6,9.5-17.1,7.8-27.4-1.1-6.7-6-12.5-11.3-13.5-6.8-1.2-11,2.5-14.2,8-.6,1.1-1.4,2-2.6,3.6-1.9-2.7-3.1-4.7-4.5-6.5-6.1-7.5-14.6-7.3-20.1.7-3.8,5.5-4.9,11.8-3.6,18.4,3.2,15.2,13.6,24.6,26.5,31.7,1.2.6,3.7.3,4.9-.6,5.9-4.6,12-9,17.1-14.3h0Z"/>
        <path class="cls-13" d="M83.5,45.3c-19.8,19.9-40,40.2-61.6,61.9-1.3-1.9-2.4-4.3-4.2-6.1C.5,83.7-16.9,66.3-34.3,49.1c-2.8-2.8-3.3-4.5-.2-7.5C-15.8,23.1,2.8,4.4,21.5-14.2c.5-.5,1.1-.9,1.6-1.3C43.6,5.2,63.8,25.5,83.5,45.3ZM23.8,73c6.2-12.6,15.3-21.2,27.6-27.9-12.8-6.3-21.2-15.4-27.7-27.5-6.6,12.3-15.3,21.1-27.6,27.5,12.2,6.7,21.2,15.5,27.7,27.9Z"/>
        <path class="cls-7" d="M89.1,44.8c-21.9,21.8-43.9,43.8-65.7,65.7C2,89-20,66.9-41.5,45.3-19.9,23.6,2.1,1.6,24-20.4,45.7,1.3,67.6,23.2,89.1,44.8ZM21.9,107.2c21.6-21.7,41.8-42,61.6-61.9C63.8,25.5,43.6,5.2,23-15.5c-.5.4-1.1.8-1.6,1.3C2.8,4.4-15.8,23.1-34.5,41.6c-3.1,3-2.6,4.7.2,7.5C-16.9,66.3.5,83.7,17.7,101.1c1.8,1.8,2.9,4.2,4.2,6.1Z"/>
        <path class="cls-7" d="M51.4,45.1c-12.4,6.7-21.5,15.3-27.6,27.9-6.5-12.4-15.5-21.2-27.7-27.9,12.3-6.4,21.1-15.2,27.6-27.5,6.5,12.1,14.9,21.2,27.7,27.5Z"/>
        <path class="cls-7" d="M16.9-28.7c2.7,2.7,3.9,4.8.6,8.1C-3.1-.3-23.5,20.1-44,40.5c-.4.4-.9.6-3.1,2.2-3.9-4.4-7.5-8.9-11.6-13.1C-75.3,12.9-92.1-3.7-108.8-20.4c-2.2-2.2-4.1-3.9-.8-7.1,20.7-20.5,41.2-41.1,61.7-61.7.5-.5,1.1-.9,2.1-1.6,1.2,1,2.5,1.9,3.6,3C-22.5-68-2.8-48.3,16.9-28.7ZM12-20.5c1-1,1.8-2.2,3.1-3.7-1.5-1.8-2.7-3.6-4.2-5.1-17.6-17.6-35.3-35.1-52.7-52.9-3.4-3.4-5.4-2.8-8.4.3-17.7,18-35.6,35.8-53.6,53.6-3.1,3.1-3,5,0,8C-85.7-2.4-67.8,15.6-49.9,33.7c2.7,2.8,4.6,3.2,7.6.2C-24.2,15.7-6.1-2.4,12-20.5Z"/>
        <path class="cls-10" d="M12.8,111.4c2.3,2.3,2.6,3.8,0,6.3-18.7,18.5-37.3,37.2-55.9,55.8-.7.7-1.6,1.4-2.8,2.3-1.2-1-2.4-1.7-3.4-2.7-18.1-18.1-36.1-36.3-54.3-54.3-2.9-2.9-3.5-4.8-.2-8,18.4-18.1,36.6-36.4,54.7-54.7,2.7-2.7,4.4-2.3,6.7,0C-24,74.7-5.6,93.1,12.8,111.4ZM-25.1,130.5c5.6-2.3,8.4-7.9,7.8-14.4-.7-6.9-4.7-10.7-11.4-12.2-1.2-.3-2.6-2.4-2.8-3.8-1.2-8.9-6-13.7-14-13.9-8.3-.2-13.2,4.7-14.8,13.8-.3,1.6-2.1,3.6-3.6,4.1-6.1,2.1-10.2,6.5-10.7,12.5-.5,5.6,2.5,10.9,7.6,13.5,5.3,2.7,11.8,2,16.4-1.8,1-.8,2-1.7,3.1-2.5.4.3.8.5,1.2.8h0c-2.4,5.5-4.8,10.9-7.2,16.3h15.8c-2.6-5.5-4.9-10.5-7.2-15.5.5-.3.9-.5,1.4-.8.3.2.7.3.9.5,5.1,5.2,11.1,6.3,17.6,3.6h0v-.2Z"/>
        <path class="cls-10" d="M15.1-24.2c-1.2,1.5-2.1,2.7-3.1,3.7C-6.1-2.4-24.2,15.7-42.2,33.9c-3,3-4.9,2.5-7.6-.2C-67.8,15.6-85.7-2.4-103.8-20.3c-3-3-3.1-4.9,0-8,18-17.7,35.8-35.6,53.6-53.6,3-3.1,5.1-3.7,8.4-.3C-24.4-64.4-6.7-46.9,10.9-29.3c1.5,1.5,2.7,3.3,4.2,5.1ZM-21.5-5.7c5.8-5.4,5.7-14.7-.2-21.2-6.9-7.6-14-15-20.8-22.6-2.5-2.8-4.2-3.2-6.9,0-6.3,7.1-13,13.9-19.3,21-2.1,2.4-4,5.3-5.3,8.2-2.3,5.6.3,12.9,5.1,16.1,5.3,3.4,11.5,2.5,16.3-2.6,1.4-1.5,2.3-3.6,3.4-5.4.9.7,1.8,1.5,2.6,2.2-2.7,4.4-5.4,8.9-8.4,13.7h18.5c-2.1-2.7-3.8-4.6-5.1-6.7-1.3-2.2-2.3-4.7-3.4-7.1.7-.4,1.3-.8,2-1.3.6.9,1,1.9,1.7,2.7C-34.7-1.6-27.1-.5-21.5-5.7Z"/>
        <path class="cls-7" d="M19.8,114.6c-21.8,21.8-43.8,43.7-67.2,67-5-5.5-10.1-11.7-15.7-17.4-15.1-15.4-30.5-30.6-45.8-45.8-2.1-2.1-3.8-3.8-.9-6.7,20.5-20.4,41-40.8,61.5-61.3.7-.7,1.7-1.3,2-1.5C-24.1,71.1-2.1,92.9,19.8,114.6ZM12.9,117.7c2.5-2.5,2.2-4,0-6.3-18.4-18.3-36.8-36.7-55.1-55.2-2.4-2.4-4.1-2.8-6.7,0-18.1,18.4-36.3,36.6-54.7,54.7-3.2,3.2-2.7,5.1.2,8,18.2,18,36.2,36.2,54.3,54.3,1,1,2.2,1.8,3.4,2.7,1.1-.9,2-1.5,2.8-2.3,18.6-18.6,37.2-37.3,55.9-55.8h-.1Z"/>
      </g>
      <g>
        <path class="cls-4" d="M462.5,226.1v4.1c-10.8-10.7-21.6-21.3-31.8-31.4-.6-.6-1.2-1.1-1.7-1.7-17,16.9-33.7,33.5-50,49.7,16.2,16.2,32.7,32.8,49.8,50,.7-.7,1.3-1.4,2-2.1l1.6,1.7h0c-1.6,1.6-1.5,2.8-.6,4l-1.5,1.4c-.3-.4-.7-.8-1-1.2-17.6,17.6-34.2,34.2-51.9,51.8,4.6,4.1,9.3,8.4,14,12.6h-4.1c-3.7-3.9-7.4-7.8-11.1-11.7-4.4,4.3-8.3,8-12.1,11.7h-3.3c4.2-4.6,8.5-9.2,12.6-13.7l-49.3-49.3c-16.5,16.5-33.2,33.1-50,49.7,3.9,4.2,8.1,8.7,12.3,13.3h-3.3c-3.8-3.9-7.6-7.8-11.8-12.1-4.1,4.4-7.8,8.3-11.4,12.1h-4.1c4.5-4.6,8.9-9.1,13-13.3-17-17.1-33.4-33.6-49.6-49.9-.8.8-1.6,1.6-2.4,2.4-15.7,15.7-31.6,31.5-48.5,48.4,4.5,4,9.2,8.2,13.9,12.4h-4.1c-3.6-3.8-7.3-7.7-10.8-11.4-.9.4-1.4.4-1.6.7-3.6,3.5-7.2,7.1-10.8,10.7h-3.3c4.2-4.6,8.4-9.2,12.2-13.4l-4.4-4.4c-15.2-15.3-30.3-30.4-45.5-45.6,0,0-.7.3-1,.7-15.6,15.6-31.2,31.2-46.8,46.7-1.6,1.6-1.6,2.8,0,4.4,3.8,3.8,7.4,7.7,11,11.6h-3.3c-3.2-3.2-6.3-6.5-9.6-9.5-.8-.8-3.3-1.1-3.9-.5-3.4,3.1-6.5,6.6-9.6,10h-4.1c4.4-4.5,8.7-9.1,12.9-13.4-16.9-16.8-33.5-33.4-49.8-49.6-16.4,16.3-33,32.9-50.7,50.5,4.5,4,9.2,8.3,13.9,12.5h-4.1c-3.7-3.9-7.4-7.8-11.2-11.8-4.4,4.3-8.2,8.1-11.9,11.8h-3.3c4.2-4.6,8.5-9.2,12.5-13.6-16.8-16.7-33.4-33.3-49.8-49.7-16.3,16.3-32.9,32.9-49.7,49.6,4.1,4.4,8.3,9,12.6,13.6h-3.3c-3.9-3.8-7.8-7.7-12-11.9-3.9,4.1-7.5,8-11.2,11.9h-4.1c4.5-4.6,8.9-9.2,12.8-13.2-17-17.1-33.5-33.6-51.1-51.2-.5.7-1,1.4-1.6,2.2l-1.5-1.5h0c1.9-1.9,2-3.2,0-5.1-5.6-5.4-11.2-11-16.7-16.4v-3.3c6.3,5.9,12.5,11.9,18.5,17.5.7.7,1.4,1.4,2.1,2,16.9-16.8,33.5-33.3,49.8-49.5-16.4-16.4-33-33-50.6-50.7-6.4,6.8-13.1,13.9-19.7,21v-4.1c5.9-6.4,11.9-12.9,18.3-19.8-5.6-5.4-11.9-11.4-18.3-17.5v-4.1c6.9,6.8,13.8,13.7,20.8,20.6.9-.7,1.5-1,2-1.5,15.5-15.5,30.9-31,46.5-46.4,2.5-2.5.8-3.7-.8-5.3-14.2-14.2-28.4-28.4-42.6-42.6s-3.1-2.9-4.9-4.6c-1.6,1.5-2.9,2.8-4.2,4-5.6,5.4-11.2,10.8-16.9,16.2v-3.3c5.4-5.4,10.8-10.9,16.3-16.2,2.2-2.1,2.3-3.6,0-5.7-5.6-5.3-10.9-10.8-16.4-16.2v-3.3c7,6.7,14,13.3,20.5,19.5l4-4c15.5-15.5,30.8-30.6,45.9-45.6-16.4-16.3-32.9-32.8-49.8-49.7-6.7,6.6-13.6,13.4-20.5,20.3v-3.9c5.9-6.5,11.8-13,17-18.7-5.1-5.6-11.1-12.1-17-18.5v-4.1c6.6,7.2,13.3,14.3,19.6,21.2,17.7-17.8,34.3-34.4,50.5-50.6-16.3-16.3-32.8-32.9-49.6-49.8-1,.9-2.2,2-3.4,3.1-5.7,5.5-11.5,11-17.2,16.5v-3.3c5.5-5.4,10.9-10.9,16.4-16.2,2.1-2,2.3-3.6,0-5.7-5.6-5.3-11-10.7-16.4-16.1v-3.3c6.2,5.9,12.5,11.9,18.5,17.5.7.7,1.5,1.4,2.2,2.1,16.9-16.8,33.4-33.3,49.7-49.6-16.4-16.5-33-33.1-50.8-50.8-6.3,6.8-13,14-19.6,21.2v-4.1c5.9-6.4,11.9-12.9,18-19.5-2.3-2.4-5.2-5.5-8.1-8.6h4.1c5.6,8.3,6.7,8.4,13.2,1.4.4-.4.6-.9.8-1.4h4.1c-2.9,3.1-5.8,6.2-8.8,9.5.8,1,1.4,1.9,2.2,2.7,15.1,15.1,30.2,30.1,45.2,45.3,2.2,2.2,3.4,1.7,5.3-.2,8.3-8.4,16.7-16.8,25.1-25.1,7.4-7.3,14.9-14.6,22.5-22-3.3-3.8-6-6.9-8.8-10.1h3.3c4.8,5.3,9.7,5.4,14.6.3l.3-.3h3.3c-2.7,3.2-5.5,6.3-7.8,9,16.7,16.8,33.2,33.3,49.5,49.6,16.2-16.3,32.7-32.8,49.4-49.6-2.6-2.8-5.5-5.9-8.4-9H2.5c1.8,2,3.6,4.1,5.6,5.9.6.5,2.5.6,3.1,0,2-1.8,3.6-4,5.4-6h4.1c-2.9,3.1-5.8,6.2-8.5,9.1,16.8,16.7,33.3,33.2,50,49.9,0,0,.6-.2,1-.5,15.7-15.7,31.4-31.4,47-47,1.5-1.5,1.3-2.7,0-4.2-2.3-2.3-4.4-4.8-6.6-7.2h3.3c9.1,9.3,6,8.6,14.6.3l.3-.3h3.3c-1.5,1.7-2.9,3.6-4.6,5.2-4.2,4.2-4.3,4.2-.2,8.3l37.7,37.7c2.8,2.8,5.7,5.5,8.2,8,15.4-15.4,30.5-30.5,45.8-45.7,1.5-1.4,2.9-2.9,4.4-4.4-2.7-2.9-5.6-5.9-8.5-9h4.1c5.6,8.3,6.8,8.4,13.2,1.4.4-.4.6-.9.8-1.4h4.1c-2.9,3.1-5.8,6.2-8.2,8.9,1.2,1.2,2.4,2.4,3.6,3.7,15.5,15.5,30.8,30.9,46,46.2,16.3-16.3,32.8-32.8,49.4-49.5-2.6-2.9-5.3-6.1-8.1-9.3h3.3c9,9.3,6.1,8.5,14.6.3,0,0,.2-.2.3-.3h3.3c-2.7,3.2-5.5,6.3-8.3,9.6.7.9,1.3,1.7,2,2.3,15.2,15.2,30.4,30.3,45.5,45.6,2.6,2.6,3.9,1,5.6-.7,14.8-14.8,29.6-29.6,44.3-44.4.9-.9,1.6-1.8,2.5-2.9-3.1-3.3-6-6.4-8.8-9.5h4.1c1.8,2,3.5,4.1,5.6,5.9.6.5,2.4.5,3,0,2-1.8,3.7-4,5.5-6h4.1c-2.9,3.1-5.8,6.2-9.8,10.4.4.3.7.6,1.1.9l-1.4,1.4s-.1-.1-.2-.2l-1.6,1.6c-16.5,16.3-32.6,32.3-48.4,48.1,16.2,16.2,32.7,32.8,49.4,49.6.7-.6,1.4-1.2,2.1-1.9.2-.2.5-.5.7-.7,6.3-6.2,12.5-12.5,18.7-18.7,4.1-4,8.3-7.9,12.5-11.8v3.3c-10,9.9-19.9,19.8-29.9,29.7-2.2,2.2-1.5,3.6.3,5.4,9.9,9.8,19.7,19.6,29.6,29.4v3.3c-1.1-.8-2.2-1.5-3.2-2.5-9-8.9-17.9-17.9-26.9-26.9-1.3-1.3-2.8-2.6-3.8-3.5-16.9,16.8-33.5,33.4-49.7,49.6,16.4,16.4,32.9,33.1,50.5,50.8l.2-.2,1.3,1.2c-.1.1,0,.5-.1.8-.3.3-.6.6-.9.9,1,.8,2,1.5,3,2.2l-1.5,1.5h-.1c-2.3-2.4-3.6-2.4-6,0-14.8,15-29.7,29.9-44.7,44.7-2.5,2.4-2,3.7.2,5.9h.1c14.7,14.7,29.4,29.4,44,44.1,1,1,2,1.8,3.3,3,11.5-11.5,22.9-22.9,34.3-34.2v4.1c-9.8,9.8-19.6,19.7-29.6,29.4-2.2,2.2-2.2,3.5,0,5.7,9.9,9.7,19.7,19.6,29.6,29.4v4.1c-11.3-11.4-22.7-22.8-33.3-33.5-.6.6-1.3,1.2-1.9,1.9-16.4,16.3-32.4,32.2-48.1,47.7,16.2,16.2,32.8,32.7,49.7,49.5,11-11,22.3-22.2,33.7-33.4v4.1c-1.1.9-2.2,1.7-3.1,2.6-8.4,8.3-16.7,16.7-25.1,25-4.2,4.1-4.2,4.2,0,8.4,9.4,9.2,18.8,18.5,28.1,27.7h0ZM423.8,92c1.9-1.9,1.7-3.3-.1-5.1-15-14.9-30-29.9-45-45-2.2-2.2-3.6-2.1-5.7,0-6.4,6.6-13,13.1-19.5,19.6-9.2,9.1-18.4,18.2-27.7,27.5.5,1,.7,1.4.9,1.6,15.6,15.6,31.2,31.2,46.7,46.8,2.1,2.1,3.4,1.5,5.1-.2,15.1-15.1,30.1-30.2,45.2-45.3h.1ZM375.9,243.5c16.4-16.4,33-32.9,49.4-49.2-16.4-16.4-32.9-32.9-48.9-48.8-16.5,16.4-33.2,32.9-49.2,48.9,16.1,16.3,32.6,32.9,48.7,49.2h0ZM424.7-120.3c-16-16.1-32.5-32.5-48.8-48.8-16.3,16.5-32.8,33.1-49.1,49.5,16.1,16.2,32.5,32.7,48.5,48.8,16.5-16.5,33-33.1,49.4-49.5h0ZM375.9,34.1c16.3-16.3,32.8-32.8,48.7-48.7-16.4-16.6-32.9-33.3-48.8-49.4-16.4,16.3-32.9,32.7-49.2,48.9,16.3,16.4,32.9,32.9,49.2,49.3h0ZM375.8,348.2c16.4-16.3,32.9-32.8,49.2-49-16.6-16.6-33-33.1-49.1-49.2-16.4,16.3-33,32.8-49.1,48.9,16.3,16.4,32.7,32.9,49,49.3h0ZM373.2,36.9c-.3-.4-.8-1.1-1.3-1.7-15.3-15.3-30.6-30.5-45.8-45.9-2.2-2.3-3.6-1.5-5.4.3-9.5,9.6-19,19.2-28.6,28.6-6.2,6.2-12.6,12.2-18.5,17.8,17.4,17.3,34,33.9,50.3,50.1,16.1-16.1,32.7-32.6,49.4-49.2h-.1ZM361.8,154c3.9-4,7.9-7.9,11.5-11.5-16.9-17-33.4-33.5-49.4-49.6-16.5,16.4-33.1,33-49.9,49.7.1.2.5.8,1,1.3,15.3,15.3,30.6,30.5,45.8,45.9,2.3,2.3,3.7,1.8,5.7-.3,11.7-11.9,23.5-23.6,35.3-35.4h0ZM372.5-67.2c-16.3-16.4-33-33-48.8-48.9-16.3,16.2-33,32.7-49.2,48.7,16.2,16.4,32.7,33,49,49.4,16.4-16.5,33-33.1,49-49.2h0ZM323.2,295.7c16.5-16.4,33.2-33,49.1-48.8-16.4-16.4-32.9-33.1-49.2-49.4-16.2,16.2-32.8,32.7-49.1,49.1,16.5,16.5,33.1,33,49.2,49.1ZM372.9-171.9c-16.4-16.5-33-33.1-49.2-49.3-16.5,16.4-33.1,33-49.4,49.3,16.3,16.4,32.9,33,49.4,49.5,16.3-16.4,32.8-32.9,49.2-49.5ZM321.7,90.1c-1.8-2-2.9-3.2-4-4.4-14.4-14.4-28.9-28.8-43.2-43.3-2.6-2.6-4-2.6-6.6,0-14.7,14.9-29.5,29.7-44.4,44.4-2.1,2-2.2,3.3-.1,5.3,15.1,14.9,30.1,29.9,45,45,2.4,2.4,3.8,2,6-.2,8.1-8.3,16.3-16.4,24.5-24.6,7.4-7.3,15-14.6,22.9-22.3h0ZM320.8-120.2c-.4-.5-1-1.2-1.6-1.9-15.2-15.2-30.4-30.4-45.5-45.7-2.3-2.3-3.5-1.4-5.3.4-14.9,15-29.8,29.9-44.8,44.7-2.2,2.2-2.1,3.6,0,5.7,15,14.8,29.9,29.8,44.8,44.7.8.8,1.8,1.5,2.5,2.1,16.7-16.8,33.2-33.3,49.9-50h0ZM320.1,299.6c-16.5-16.6-33-33.2-49.7-50,.2-.1,0,0-.2.1-15.6,15.6-31.2,31.2-46.9,46.6-2.3,2.3-1.2,3.6.5,5.4,14.9,14.9,29.8,29.8,44.7,44.7.8.8,1.8,1.5,2.7,2.2,16.7-16.8,33.1-33.2,48.9-49.1h0ZM320.2-15.2c-16.2-16.3-32.6-32.9-48.8-49.2-16.5,16.5-33.1,33.1-49.3,49.3,16.3,16.3,32.7,32.9,48.9,49.1,16.4-16.4,33-33,49.2-49.2h0ZM320.3,194.2c-16.2-16.3-32.7-32.8-48.9-49.1-16.4,16.4-33,33-49,48.9,16.3,16.4,32.8,33.1,48.9,49.4,16.3-16.3,32.8-32.8,49-49.2ZM268.5,36.9c-.1-.2-.4-.7-.7-1.1-15.6-15.6-31.2-31.2-46.7-46.8-2.3-2.3-3.5-1-5,.6-8.2,8.2-16.3,16.4-24.5,24.5-7.6,7.6-15.2,15.1-22.7,22.4,17,17,33.7,33.5,49.9,49.8,16.5-16.4,33.1-32.9,49.8-49.5h0ZM267.1,248.8c2.5-2.4.9-3.7-.7-5.3l-44.1-44.1c-1-1-2.2-2-2.6-2.3l-49.8,49.8c16.1,16.2,32.6,32.8,49.1,49.5.3-.2.8-.5,1.2-.8,15.6-15.6,31.1-31.2,46.8-46.7h.1ZM257,154.2c4-4,8-7.8,11.6-11.3-17.1-17.2-33.6-33.8-49.9-50.2-16.3,16.2-32.8,32.7-49.7,49.5.8.8,1.5,1.7,2.2,2.4,14.9,14.9,29.8,29.7,44.6,44.8,2.5,2.5,3.9,2.3,6.2,0,11.6-11.8,23.3-23.5,35-35.1h0ZM218.7-18.3c16.4-16.4,33-33,49.5-49.4-16.2-16.2-32.7-32.8-49-49.1-16.5,16.5-33,33.1-49.3,49.5,16.2,16.3,32.8,32.9,48.9,49h-.1ZM268.1-172.5l-49.1-49.1-49.3,49.3c16.5,16.6,33,33.1,48.9,49.1,16.4-16.3,33-32.9,49.5-49.3ZM214.2-117c2.5-2.5,1.6-4.1-.4-6.1-14.8-14.8-29.6-29.6-44.4-44.4s-1.8-1.5-2.8-2.3c-.7.5-1.2.8-1.6,1.2-15.5,15.5-30.9,31-46.5,46.4-2.4,2.4-1,3.6.6,5.3,12.6,12.5,25.2,25.1,37.7,37.7,3.1,3.1,5.8,6.5,8.7,9.8,1.7-1.2,2-1.4,2.3-1.7,15.4-15.4,30.8-30.8,46.3-46.1h0v.2ZM216.3,89.6c-.8-1-1.3-1.9-2.1-2.6l-45-45c-2.2-2.3-3.6-1.9-5.7.2-14.7,14.9-29.5,29.7-44.4,44.4-2.5,2.4-2.4,3.9,0,6.3,15,14.8,29.8,29.7,44.7,44.7,1.8,1.8,3.1,2.2,5.1.2,15-15.2,30.2-30.2,45.2-45.3.8-.8,1.3-1.7,2.1-2.7h0v-.2ZM213.9,301.9c2.2-2.2,2.4-3.8,0-6.1-9.5-9.3-19-18.8-28.3-28.3-6.1-6.3-12-12.8-18.2-19.3-1.9,1.5-2.5,1.9-3,2.4-15.3,15.3-30.6,30.6-45.9,45.8-2.3,2.2-1.4,3.6.4,5.4,13,12.9,25.9,25.9,38.8,38.9,2.8,2.8,5.7,5.5,8.6,8.3,1-.8,1.7-1.2,2.3-1.8,15.1-15.1,30.1-30.2,45.3-45.3h0ZM165.3,35.3c17.6-17.6,34.2-34.1,50.6-50.4-16.4-16.3-33-32.8-49.8-49.4-.2,0-.9.5-1.5,1.1-15.4,15.4-30.8,30.8-46.3,46.1-2.2,2.2-.9,3.5.6,5.1,11.5,11.5,23.1,22.9,34.5,34.5,4.2,4.3,8.1,8.9,11.8,13.1h.1ZM166.6,243.6c16.4-16.4,32.9-33,49.3-49.4-16.4-16.3-32.9-32.8-49.2-49-16.4,16.3-33,32.7-49.2,48.8,16.4,16.5,32.8,33.1,49.1,49.6h0ZM164.1,37.4c-.6-.8-1.1-1.7-1.8-2.3-2.1-2.2-4.3-4.3-6.4-6.4-12.9-12.9-25.9-25.9-38.8-38.9-2-2-3.4-2.6-5.7-.3-14.9,15.1-29.9,30.1-45,45-1.6,1.6-2.9,2.8-.6,5,15.4,15.3,30.8,30.7,46.1,46.1,1.7,1.7,2.8,1.6,4.4,0,15.2-15.3,30.5-30.6,45.8-45.9.7-.7,1.2-1.4,1.9-2.3h.1ZM162.3,144.2c.7-.7,1.1-1.5,1.8-2.4-.7-.9-1.2-1.7-1.8-2.3-15.2-15.2-30.4-30.3-45.5-45.6-2.1-2.1-3.4-1.8-5.3,0-15,15.2-30.1,30.2-45.3,45.3-1.9,1.9-2,3.1,0,5.1,15.2,15.1,30.4,30.3,45.6,45.6,1.7,1.7,2.9,2,4.8.1,15.2-15.3,30.5-30.6,45.8-45.9h0ZM162.4-65.2c1.9-1.9,1.4-3.1-.2-4.7-15.2-15.2-30.4-30.4-45.6-45.6-1.8-1.8-3-1.7-4.7,0-15.2,15.2-30.3,30.5-45.6,45.6-2,2-1.8,3.3,0,5.1,4.5,4.3,8.8,8.7,13.2,13.1,11.3,11.4,22.7,22.9,34.2,34.5,1.1-.7,1.6-1,1.9-1.3,15.6-15.6,31.2-31.1,46.8-46.7h0ZM161.7-169.1c.9-.9,1.6-1.8,2.2-2.5l-49.8-49.8c-16.3,16.3-32.9,32.8-49.8,49.6,1.2,1.2,2.2,2.4,3.3,3.4,14.5,14.5,29.1,29,43.5,43.6,2.7,2.7,4.1,2.3,6.6-.2,14.6-14.8,29.4-29.5,44.1-44.2h0ZM161.3,249.9c1-1,1.9-2.2,2.6-2.9-16.9-16.9-33.4-33.4-49.8-49.8-16.3,16.4-32.8,32.9-49.6,49.7.5.6,1,1.3,1.6,1.9,15.3,15.3,30.6,30.6,45.8,46,2.4,2.4,3.6,1.1,5.3-.6,14.7-14.7,29.4-29.4,44.1-44.2h0ZM109.9,301.4c2.7-2.7.8-4-.9-5.6-14.7-14.7-29.5-29.4-44.1-44.2-2.5-2.5-3.8-2.4-6.2,0-14.5,14.7-29.1,29.3-43.8,43.8-2.6,2.6-2.9,4.2,0,7,10.3,10,20.3,20.2,30.4,30.4,5.4,5.4,10.9,10.8,16.4,16.2.9-.7,1.5-1,2-1.5,15.4-15.4,30.8-30.8,46.2-46.1h0ZM109.7,196.8c2.2-2.2,1.7-3.5-.2-5.4-9.5-9.4-19-18.8-28.3-28.3-6.3-6.3-12.4-12.8-18.1-18.8-17.4,17.3-34,33.8-50.6,50.2,16.4,16.4,32.9,32.9,49.5,49.5.6-.5,1.4-1,2.1-1.7,15.2-15.2,30.4-30.4,45.6-45.5h0ZM109.5,92.5c2.1-2.1,2.4-3.5.2-5.7-15.2-15-30.2-30.1-45.3-45.2-.7-.7-1.5-1.2-2.4-1.9-1,.8-1.9,1.3-2.6,2.1-14.9,14.9-29.8,29.8-44.8,44.6-2.2,2.2-2.6,3.6-.1,6,15,14.8,29.9,29.7,44.7,44.6,2.1,2.2,3.4,2.3,5.6,0,14.8-15,29.7-29.9,44.7-44.7h0v.2ZM108.9-11.8c2.6-2.6,2.7-4,0-6.6-13-12.8-25.8-25.7-38.6-38.6-2.8-2.8-5.7-5.5-8.5-8.2-.9.7-1.3,1-1.7,1.4-15.4,15.4-30.8,30.8-46.3,46.1-2.2,2.2-1.7,3.5.2,5.4,7,6.9,13.9,13.8,20.8,20.7,8.7,8.8,17.4,17.6,26.5,26.9,1.8-1.7,3-2.7,4.2-3.9,14.4-14.4,28.7-28.9,43.3-43.2h0ZM108.8-116.3c2.7-2.7,2.8-4.2,0-6.8-10.2-9.9-20.2-20-30.1-30.1-5.5-5.6-10.7-11.4-16.1-17.1-.3.3-.7.5-1,.8-.5.4-1.2.7-1.6,1.1-15.3,15.3-30.6,30.6-45.9,45.8-2.6,2.6-1.5,4.1.5,6.1,14.1,14,28.1,28,42.1,42s3.4,3.1,5.1,4.8c1.1-1,2-1.7,2.7-2.5,14.7-14.7,29.3-29.5,44.2-44.1h.1ZM59.4,36.8c-.5-.6-1-1.3-1.6-1.8C42.8,20,27.7,5,12.8-10.1c-2.6-2.6-4.1-2.4-6.6,0C-8.4,4.8-23.1,19.5-37.8,34.2c-.9.9-1.6,1.8-2.1,2.3C-23.2,53.3-6.6,70,9.8,86.4c16.2-16.2,32.7-32.8,49.6-49.7h0ZM50.8,151.3c3-3,6.4-5.5,9.1-7.9-17.6-17.7-34.1-34.3-50.8-51.1-.3.3-.9.7-1.4,1.1-15.4,15.4-30.7,30.8-46.2,46.1-2.3,2.3-1.3,3.6.5,5.3,14.8,14.8,29.7,29.5,44.4,44.4,2.6,2.6,4,2.6,6.6,0,12.5-12.8,25.2-25.4,37.9-38h-.1ZM9.5-18c16.3-16.3,32.9-33,48.7-48.8-16.3-16.5-32.9-33.3-49.1-49.7-16.2,16.2-32.7,32.7-49,49C-23.5-51-6.9-34.4,9.5-18ZM9.8-122.7c16.2-16.2,32.7-32.8,48.8-49-16.6-16.6-33.2-33.2-49.1-49.1-16.2,16.2-32.9,32.7-49,48.8,16.3,16.3,32.9,32.8,49.3,49.3h0ZM58.5,246.8c-16.4-16.4-32.9-33.1-48.9-49.1-16.4,16.3-33,32.8-49.5,49.2,16.3,16.3,32.8,32.8,49,49,16.6-16.5,33.3-33.1,49.4-49h0ZM5.3-117.6c2.2-2.2.9-3.5-.6-5.1-14.9-14.9-29.9-29.8-44.7-44.8-2.2-2.2-3.5-2.2-5.7,0-14.8,15-29.8,29.9-44.6,44.8-.8.9-1.6,1.8-2.2,2.5,16.7,16.7,33.2,33.3,49.8,50,.4-.2.7-.3.8-.5,15.7-15.7,31.4-31.3,47.2-46.9h0ZM4.6,301.9c2.6-2.6,2.1-4-.2-6.3-14.7-14.5-29.3-29.2-43.9-43.8-1-1-2.2-1.9-3.2-2.8-16.8,16.8-33.2,33.2-49.5,49.5,16.6,16.7,33.1,33.3,49.8,50,.7-.6,1.7-1.4,2.5-2.3,14.8-14.8,29.6-29.7,44.5-44.4h0ZM-42.8,34.1C-26.4,17.7-9.8,1.3,6.6-15.1-9.8-31.4-26.4-47.8-42.7-64c-16.3,16.2-32.9,32.7-49,48.8C-75.5,1.2-59,17.8-42.8,34.1ZM6.3,89.9c-16.5-16.7-32.9-33.2-49.5-49.9-.2,0-.7.4-1.1.8-15.5,15.4-31,30.9-46.5,46.3-2.3,2.3-1.3,3.6.5,5.4,11.3,11.2,22.6,22.6,33.9,33.9s9,8.8,13.4,13.1C-26.2,122.5-9.7,106,6.3,89.9ZM6.7,194.3c-16.4-16.4-32.9-32.9-49.3-49.2-16.5,16.5-33.1,33-49.1,48.9,16.3,16.4,32.8,33.1,49,49.4,16.4-16.3,32.9-32.8,49.3-49.1h0ZM-45.6,36.8c0,0-.3-.6-.7-1-15.6-15.6-31.2-31.2-46.7-46.8-1.7-1.7-2.8-1.6-4.4,0-4.4,4.6-9,9-13.4,13.4-11.4,11.4-22.8,22.7-33.8,33.7,16.9,17.1,33.5,33.7,49.6,50l49.5-49.5h0v.2ZM-52.3,149.5c2.4-2.4,5.2-4.4,7.6-6.3-17.6-17.6-34.1-34.1-50.4-50.5-16.6,16.5-33.1,33.1-49.8,49.8.2.3.6.8,1.1,1.3,15.3,15.3,30.6,30.6,45.8,45.9,2.2,2.2,3.6,2,5.7-.1,13.3-13.4,26.6-26.8,40-40.1h0ZM-45.8-171.9c-16.4-16.4-32.9-32.9-49.5-49.4-16.3,16.3-32.9,32.9-49.4,49.3l49.4,49.4c16.4-16.4,33.1-33,49.4-49.4h.1ZM-94.9-18.5c16.3-16.2,32.8-32.7,49.3-49-16.4-16.4-33.1-33-49.5-49.4-16.4,16.4-33,33-48.9,49,16.4,16.5,33.1,33.2,49.2,49.5h0ZM-95.4,295.5c16.5-16.3,33.1-32.8,49.1-48.6-16.3-16.5-32.9-33.1-49.1-49.5-16.3,16.3-32.8,32.8-48.9,48.9,16.6,16.7,33.1,33.3,48.9,49.2ZM-97.4,90.1c-.6-1-.7-1.4-1-1.7-15.6-15.6-31.2-31.2-46.7-46.9-2.1-2.1-3.4-1.4-5.1.3-15.1,15.1-30.2,30.2-45.3,45.3-1.8,1.8-1.9,3-.1,4.8,15.1,15.1,30.3,30.1,45.3,45.3,2.4,2.4,3.9,1.9,6-.3,9.5-9.6,19-19.2,28.6-28.7,6-6,12.1-12,18.3-18.1h0ZM-97.8,298.6c-.4-.5-1-1.3-1.6-2-15.2-15.2-30.4-30.4-45.5-45.6-2-2-3.3-1.6-5.1.2-15.3,15.3-30.6,30.6-45.9,45.9-.5.5-.8,1.3-1.2,1.9,16.7,16.6,33.2,33,49.6,49.3,16.6-16.6,33.1-33.1,49.8-49.8h-.1ZM-148.3-69.6c17.3-17.3,33.8-33.8,49.9-49.8-16.4-16.5-33-33.1-49.6-49.8-.2.1-.7.4-1,.8-15.5,15.5-31,31-46.6,46.4-1.9,1.9-1.3,3.2.3,4.7,5.4,5.3,10.7,10.7,16.1,16.1,10.3,10.5,20.6,21,30.9,31.6h0ZM-98.7,194.5c-16.2-16.4-32.6-33-48.6-49.2-16.5,16.4-33.1,32.9-49.2,49.1,16.3,16.4,32.7,32.9,48.8,49.1,16.5-16.5,33.1-33,49.1-48.9h-.1ZM-147.4,34.2C-131,17.7-114.5,1.1-98.4-15c-16.3-16.4-32.9-33.1-49.1-49.4-16.4,16.3-33,32.8-49.4,49.1,16.5,16.4,33,33,49.5,49.4h0Z"/>
        <path class="cls-9" d="M214.2,86.9c.7.7,1.3,1.7,2.1,2.6-.8,1-1.4,1.9-2.1,2.7-15.1,15.1-30.2,30.2-45.2,45.3-2,2-3.3,1.6-5.1-.2-14.8-15-29.7-29.9-44.7-44.7-2.4-2.4-2.5-3.8,0-6.3,14.9-14.7,29.7-29.5,44.4-44.4,2.1-2.1,3.4-2.4,5.7-.2,14.9,15.1,30,30,45,45h0v.2ZM210.1,92.5c2.1-2.1,2.4-3.5.1-5.8-13.8-13.7-27.5-27.4-41.2-41.2-1.8-1.9-3.1-2-5.1,0-13.7,13.9-27.6,27.7-41.5,41.4-1.8,1.8-2.2,3.1-.2,5,14,13.8,27.9,27.8,41.8,41.7.7.7,1.5,1.1,2.4,1.8,1-.8,1.8-1.4,2.6-2.2,13.6-13.6,27.2-27.3,40.9-40.8h.2Z"/>
        <path class="cls-11" d="M210.9,192.2c.6.6,1,1.3,1.6,2-.6.9-1.1,1.7-1.7,2.4l-42.1,42.1c-1.4,1.4-2.6,1.6-4.2,0-14.1-14.1-28.2-28.3-42.4-42.3-2.3-2.3-.6-3.6.9-5.1l32.4-32.4c3-3,6.1-6,9.1-9.1,1.5-1.6,2.6-1.5,4.1,0,14.1,14.1,28.2,28.3,42.3,42.4h0ZM182.4,206.1c4-1.9,5.9-5.5,5.6-10.5-.3-5.3-3.6-7.9-8.3-9.6-1.1-.4-2.2-2.1-2.4-3.4-.8-5.9-4.5-9.7-10.2-10.1-5-.4-10.3,3.4-10.9,8.7-.4,3.6-2.1,4.7-5,5.8-4.2,1.5-6.6,5.7-6.4,10.1.2,4.2,3,7.8,7,9.3,5.4,2,9.5-.3,13.3-4,.3.2.6.4.9.7-1.7,4-3.5,8-5.4,12.5h9.8c.7,0,1.3,0,2.2-.2-1.9-4.2-3.7-8.1-5.4-11.9,1.4-.3,1.8-.2,2.1,0,3.8,3.9,8.2,4.9,13.2,2.6h-.1Z"/>
        <path class="cls-11" d="M210.7-17.5c1.7,1.7,1.9,2.9,0,4.7-14.1,14-28,28-42.1,42-.6.6-1.2,1-2.1,1.7-.9-.7-1.8-1.3-2.6-2.1-13.6-13.6-27.2-27.3-40.9-40.9-2.2-2.2-2.6-3.6-.2-6,13.8-13.6,27.5-27.4,41.2-41.2,2-2,3.3-1.7,5.1,0,13.8,13.9,27.6,27.7,41.5,41.5h0v.2ZM182.2-3.2c4.2-1.7,6.3-5.9,5.8-10.9-.5-5.2-3.6-8-8.6-9.2-.9-.2-1.9-1.8-2.1-2.9-.9-6.7-4.5-10.4-10.5-10.5-6.2,0-10,3.5-11.1,10.4-.2,1.2-1.6,2.7-2.7,3.1-4.6,1.6-7.7,4.9-8.1,9.4-.4,4.2,1.8,8.2,5.7,10.2,4,2.1,8.9,1.5,12.4-1.4.8-.6,1.5-1.3,2.3-1.9.3.2.6.4.9.6h0c-1.8,4.1-3.6,8.1-5.4,12.2h11.9c-1.9-4.2-3.7-7.9-5.4-11.7.4-.2.7-.4,1.1-.6.2,0,.5.2.7.4,3.8,3.9,8.3,4.7,13.2,2.7h0Z"/>
        <path class="cls-11" d="M210.3,86.8c2.3,2.2,1.9,3.7-.1,5.8-13.7,13.6-27.3,27.2-40.9,40.8s-1.6,1.4-2.6,2.2c-.9-.7-1.7-1.2-2.4-1.8-13.9-13.9-27.8-27.8-41.8-41.7-2-2-1.7-3.2.2-5,13.9-13.8,27.7-27.6,41.5-41.4s3.2-1.8,5.1,0c13.7,13.8,27.4,27.5,41.2,41.2h-.2ZM184.6,104.1c3.9-3.2,5-10.5,1.5-14.6-6.1-7.2-12.7-14.1-19.6-21.6-6.9,7.7-13.9,14.8-20,22.5-3.6,4.5-1.8,10.9,2.8,14.2,3.9,2.9,9,1.9,13-2.8.8-.9.9-2.3,1.4-3.5.7.6,1.4,1.2,2.1,1.7-.8,1.8-1.4,3.7-2.4,5.4-1,1.7-2.4,3.2-4.1,5.3h13.9c-2-3.5-3.9-6.8-5.8-10.1.5-.3,1-.6,1.4-1,.7.8,1.3,1.7,2.1,2.5,4.2,4.4,9.8,5.1,13.7,2h0Z"/>
        <path class="cls-9" d="M215.9-15.1c-16.4,16.4-33,32.9-50.6,50.4-3.7-4.2-7.6-8.8-11.8-13.1-11.4-11.6-23-23-34.5-34.5-1.6-1.6-2.9-2.9-.6-5.1,15.5-15.3,30.8-30.8,46.3-46.1.6-.6,1.3-1,1.5-1.1,16.8,16.6,33.3,33.1,49.8,49.4h0ZM210.8-12.8c1.9-1.8,1.6-3,0-4.7-13.9-13.8-27.7-27.7-41.5-41.5-1.8-1.8-3.1-2.1-5.1,0-13.6,13.8-27.4,27.6-41.2,41.2-2.4,2.4-2,3.8.2,6,13.7,13.6,27.3,27.3,40.9,40.9.7.7,1.6,1.3,2.6,2.1.9-.7,1.5-1.2,2.1-1.7,14-14,28-28.1,42.1-42h0v-.2Z"/>
        <path class="cls-8" d="M186,89.5c3.5,4.2,2.4,11.5-1.5,14.6-3.9,3.2-9.5,2.4-13.7-2-.8-.8-1.4-1.7-2.1-2.5-.5.3-1,.6-1.4,1l-1.6-.6c-.7-.6-1.4-1.2-2.1-1.7-.4,1.2-.6,2.6-1.4,3.5-4,4.7-9.1,5.7-13,2.8-4.6-3.4-6.4-9.7-2.8-14.2,6.1-7.7,13.1-14.8,20-22.5,6.9,7.6,13.5,14.4,19.6,21.6h0Z"/>
        <path class="cls-9" d="M215.8,194.2c-16.4,16.4-32.9,32.9-49.3,49.4-16.3-16.5-32.8-33.1-49.1-49.6,16.2-16.1,32.8-32.5,49.2-48.8,16.3,16.2,32.8,32.7,49.2,49h0ZM212.5,194.2c-.6-.8-1-1.5-1.6-2-14.1-14.1-28.2-28.2-42.3-42.4-1.5-1.5-2.6-1.6-4.1,0-2.9,3.1-6,6-9.1,9.1-10.8,10.8-21.6,21.6-32.4,32.4-1.5,1.5-3.2,2.8-.9,5.1,14.2,14.1,28.3,28.2,42.4,42.3,1.5,1.6,2.7,1.4,4.2,0l42.1-42.1c.7-.7,1.1-1.5,1.7-2.4h0Z"/>
        <path class="cls-8" d="M173.1,110.7h-13.9c1.6-2.1,3-3.6,4.1-5.3,1-1.7,1.6-3.6,2.4-5.4l1.6.6c1.9,3.3,3.8,6.6,5.8,10.1h0Z"/>
        <path class="cls-8" d="M172.6,6.1h-11.9c1.8-4.1,3.6-8.1,5.4-12.2l1.1.5c1.7,3.8,3.5,7.5,5.4,11.7Z"/>
        <path class="cls-9" d="M162.4,35.1c.6.7,1.1,1.5,1.8,2.3-.7.9-1.2,1.7-1.9,2.3-15.3,15.3-30.6,30.6-45.8,45.9-1.6,1.6-2.8,1.7-4.4,0-15.3-15.4-30.7-30.8-46.1-46.1-2.3-2.3-1-3.5.6-5L111.6-10.5c2.3-2.3,3.7-1.7,5.7.3,12.9,13,25.9,25.9,38.8,38.9,2.1,2.1,4.3,4.3,6.4,6.4h0ZM158.4,39.6c1.9-1.8,1.7-2.9,0-4.7-14-13.9-27.9-27.8-41.8-41.8-1.8-1.8-2.9-1.8-4.7,0-13.8,13.9-27.6,27.7-41.5,41.5-2.1,2-1.9,3.3,0,5.3,13.9,13.8,27.7,27.6,41.5,41.5.7.7,1.4,1.2,2.3,1.9,1-.8,1.8-1.5,2.6-2.2,13.8-13.8,27.6-27.7,41.5-41.5h.1Z"/>
        <path class="cls-9" d="M164.1,141.8c-.7.9-1.2,1.7-1.8,2.4-15.3,15.3-30.6,30.6-45.8,45.9-1.8,1.8-3.1,1.6-4.8-.1-15.2-15.2-30.3-30.4-45.6-45.6-1.9-1.9-1.8-3.2,0-5.1,15.1-15,30.2-30.1,45.3-45.3,2-2,3.3-2.3,5.3,0,15.1,15.2,30.3,30.4,45.5,45.6s1.2,1.5,1.8,2.3h.1ZM158.2,144.4c2-1.9,1.8-3.1,0-5-13.9-13.8-27.7-27.6-41.5-41.5-2-2-3.1-1.8-5,0-13.8,13.9-27.6,27.7-41.5,41.5-2,2-1.9,3.1,0,5,13.9,13.8,27.7,27.6,41.5,41.5.7.7,1.4,1.2,2.4,2,.9-.7,1.8-1.3,2.6-2.1,13.9-13.8,27.6-27.7,41.5-41.5h0Z"/>
        <path class="cls-8" d="M158.4,35c1.8,1.7,1.9,2.8,0,4.7-13.9,13.8-27.7,27.6-41.5,41.5-.8.8-1.6,1.4-2.6,2.2-.9-.7-1.7-1.2-2.3-1.9-13.8-13.8-27.6-27.7-41.5-41.5-2-2-2.2-3.3,0-5.3,13.9-13.8,27.8-27.6,41.5-41.5,1.8-1.8,2.9-1.8,4.7,0,13.9,14,27.8,27.9,41.8,41.8h0ZM114.2,58.2c4.9-9.3,11.5-15.9,21-21-9.7-4.8-16-11.6-21-20.6-4.9,9.4-11.5,15.8-20.6,20.6,9.1,5.1,15.9,11.5,20.7,21h-.1Z"/>
        <path class="cls-8" d="M158.2,139.4c1.9,1.9,2.1,3.1,0,5-13.9,13.8-27.7,27.7-41.5,41.5s-1.6,1.3-2.6,2.1c-.9-.8-1.7-1.3-2.4-2-13.8-13.8-27.6-27.7-41.5-41.5-1.9-1.9-2-3,0-5,13.9-13.8,27.7-27.6,41.5-41.5,1.9-1.9,3-2.1,5,0,13.7,13.9,27.6,27.7,41.5,41.5h0ZM130,150.6c5.7-6.7,7.6-14.6,4.2-23.2-1.5-3.7-4.1-6.6-8.4-7.1-4.2-.4-7,2-9.1,5.3-.7,1.1-1.5,2.2-2.6,3.9-1.1-1.7-1.7-2.8-2.4-3.9-2.1-3.1-4.6-5.6-8.7-5.3-4.3.3-7.6,2.9-8.5,6.8-1.1,4.5-1.9,9.6-.8,14,2.4,10.2,10.1,16.4,18.9,21.3,1.1.6,3.4.2,4.4-.6,4.5-3.5,9.4-6.9,13-11.3h0Z"/>
        <path class="cls-9" d="M134.2,127.5c3.4,8.5,1.5,16.5-4.2,23.2-3.7,4.3-8.5,7.7-13,11.3-1,.8-3.4,1.2-4.4.6-8.7-4.9-16.5-11.1-18.9-21.3-1-4.4-.3-9.5.8-14,.9-3.8,4.2-6.5,8.5-6.8,4.1-.3,6.6,2.2,8.7,5.3.7,1.1,1.4,2.2,2.4,3.9,1.1-1.7,1.9-2.8,2.6-3.9,2.1-3.3,4.9-5.7,9.1-5.3,4.3.4,6.9,3.3,8.4,7.1h0Z"/>
        <path class="cls-9" d="M135.1,37.2c-9.5,5.1-16.1,11.6-21,21-4.8-9.5-11.6-15.9-20.7-21,9.1-4.8,15.7-11.2,20.6-20.6,5,9,11.3,15.8,21,20.6h.1Z"/>
        <path class="cls-9" d="M109.5,191.4c1.9,1.9,2.4,3.2.2,5.4-15.3,15.1-30.4,30.3-45.6,45.5-.7.7-1.5,1.2-2.1,1.7-16.6-16.6-33.2-33.1-49.5-49.5,16.5-16.4,33.2-32.9,50.6-50.2,5.8,6,11.8,12.5,18.1,18.8,9.4,9.5,18.8,18.9,28.3,28.3h0ZM105.1,197.6c2.6-2.6,2.5-4.1,0-6.6-13.6-13.4-27.2-27-40.6-40.6-2.1-2.2-3.3-1.9-5.3.1-8.3,8.5-16.7,16.8-25.1,25.1-6.2,6.1-12.5,12-18.6,17.9.8,1.4,1,1.9,1.3,2.3,14.3,14.3,28.6,28.6,42.9,43,2,2,3.2,1,4.8-.6,13.5-13.6,27-27.2,40.6-40.6h0Z"/>
        <path class="cls-9" d="M109.6,86.8c2.2,2.2,1.9,3.6-.2,5.7-15,14.8-29.9,29.7-44.7,44.7-2.2,2.2-3.5,2.1-5.6,0-14.8-15-29.7-29.9-44.7-44.6-2.4-2.4-2-3.9.1-6,15-14.8,29.8-29.8,44.8-44.6.8-.8,1.7-1.3,2.6-2.1.9.7,1.7,1.2,2.4,1.9,15.1,15.1,30.2,30.2,45.3,45.2h0v-.2ZM105.9,92c.7-.7,1.2-1.4,2-2.4-.9-1-1.6-2-2.4-2.8-13.5-13.5-27.1-27-40.5-40.6-2.5-2.6-3.9-2.3-6.3,0-13.3,13.5-26.8,27-40.3,40.3-2.6,2.5-2.2,4.1.1,6.3,13.5,13.4,27,26.8,40.3,40.3,2.3,2.3,3.6,2.4,6,0,13.6-13.8,27.4-27.5,41.1-41.2h0Z"/>
        <path class="cls-9" d="M109.1-18.3c2.6,2.6,2.5,4,0,6.6-14.5,14.3-28.9,28.8-43.3,43.2-1.2,1.2-2.4,2.2-4.2,3.9-9.1-9.3-17.8-18.1-26.5-26.9C28.1,1.5,21.2-5.4,14.2-12.3c-1.9-1.9-2.4-3.2-.2-5.4,15.5-15.3,30.9-30.7,46.3-46.1.4-.4.9-.7,1.7-1.4,2.8,2.7,5.7,5.5,8.5,8.2,12.9,12.9,25.7,25.8,38.6,38.6h0ZM107.8-15c-.7-1-1.3-1.9-2.1-2.6-13.7-13.8-27.5-27.5-41.2-41.2s-3.3-2.3-5.4,0c-13.7,13.8-27.4,27.5-41.2,41.2-2,2-2.1,3.3,0,5.4C31.8,1.3,45.7,15.2,59.4,29c1.7,1.7,2.8,2,4.7.1,13.9-14,27.8-27.9,41.8-41.8.7-.7,1.2-1.5,1.9-2.4h0Z"/>
        <path class="cls-11" d="M105.7-17.7c.7.8,1.3,1.7,2.1,2.6-.7.9-1.2,1.7-1.9,2.4-13.9,13.9-27.9,27.8-41.8,41.8-1.9,1.9-3,1.6-4.7-.1C45.7,15.2,31.8,1.3,17.9-12.4c-2.1-2.1-2-3.4,0-5.4,13.8-13.7,27.5-27.4,41.2-41.2,2.1-2.1,3.5-1.8,5.4,0,13.7,13.8,27.4,27.5,41.2,41.2h0ZM80-.8c4.3-3.6,4.8-10.1,1.1-14.9-1.7-2.2-3.6-4.2-5.4-6.2-4.6-4.9-9.2-9.7-13.9-14.7-5.6,6-10.7,11.5-15.8,17.1-1.7,1.9-3.5,3.9-4.7,6.2-2.3,4.6-.7,10.5,3.4,13.2,4,2.7,8.5,1.9,12.5-2.2.9-.9,1.9-1.8,2.8-2.7.4.3.8.5,1.1.8-2,3.4-4,6.8-6,10.2h14c-1.5-1.9-2.9-3.5-4-5.3-1-1.7-1.7-3.6-2.6-5.4l1.8-1.3c.6,1.1,1,2.4,1.8,3.2,4.4,4.8,9.6,5.4,13.8,1.9h0Z"/>
        <path class="cls-11" d="M107.9,89.6c-.8,1-1.3,1.7-2,2.4-13.7,13.7-27.5,27.4-41.1,41.2-2.3,2.4-3.7,2.2-6,0-13.3-13.5-26.8-26.9-40.3-40.3-2.3-2.3-2.7-3.8-.1-6.3,13.6-13.3,27-26.7,40.3-40.3,2.3-2.4,3.7-2.6,6.3,0,13.4,13.7,27,27.1,40.5,40.6.8.9,1.6,1.8,2.4,2.8h0ZM78.7,100.7c3.8-2.3,5.6-6.2,4.7-10.7-1-5.6-4.9-8.3-10.4-9.1-.7-8.5-4-12.7-10.1-13-6.6-.3-11.3,2.6-12.2,13-5.1.8-9.1,3.2-10.2,8.7-.9,4.6.5,8.6,4.7,11,5.6,3.2,10.7,1.6,15.2-2.8.3.3.6.5.9.8-1.8,4-3.5,8-5.3,12h11.8c-1.9-4.3-3.6-8.2-5.4-12.1.3-.3.6-.7.8-1.1,4.5,5.2,9.7,6.8,15.4,3.2h.1Z"/>
        <path class="cls-11" d="M105.1,190.9c2.6,2.5,2.7,4,0,6.6-13.6,13.4-27.1,27-40.6,40.6-1.5,1.6-2.8,2.5-4.8.6-14.3-14.4-28.6-28.7-42.9-43-.4-.4-.6-.9-1.3-2.3,6.1-5.9,12.4-11.8,18.6-17.9,8.4-8.3,16.8-16.6,25.1-25.1,2-2,3.2-2.3,5.3-.1,13.4,13.6,27,27.2,40.6,40.6h0ZM78,209.8c3.8-1.5,5.6-4.9,5.4-8.5-.2-2.9-1.3-6.3-3.2-8.6-4.7-5.8-9.9-11.1-15-16.5-1-1.1-2.1-2-3.5-3.3-2.9,3.1-5.6,5.8-8.2,8.6-3.6,3.9-7.3,7.8-10.8,12-3.7,4.5-3.2,11.5.8,15,4.1,3.6,9.8,2.9,14.2-2,.7-.8,1.1-1.9,1.7-2.8.6.4,1.2.9,1.8,1.3-1.9,3.4-3.8,6.7-5.7,10.1h13.1c-2.2-3.6-4.2-6.9-6.3-10.1.4-.3.9-.6,1.3-.9,1.2,1.3,2.3,2.6,3.6,3.8,3.2,2.9,6.9,3.4,10.8,1.9h0Z"/>
        <path class="cls-8" d="M83.4,90.1c.8,4.5-.9,8.3-4.7,10.7-5.7,3.5-10.9,1.9-15.4-3.2-.3.4-.6.7-.8,1.1h-1.1c-.3-.2-.6-.4-.9-.7-4.5,4.5-9.6,6-15.2,2.8-4.2-2.4-5.6-6.4-4.7-11,1.1-5.5,5.1-7.9,10.2-8.7.9-10.3,5.6-13.3,12.2-13,6.1.3,9.4,4.5,10.1,13,5.5.8,9.4,3.5,10.4,9.1h-.1Z"/>
        <path class="cls-8" d="M81.1-15.7c3.7,4.8,3.2,11.3-1.1,14.9-4.2,3.5-9.4,2.9-13.8-1.9-.8-.9-1.2-2.1-1.8-3.2l-1.8,1.3-1.4.4c-.4-.3-.8-.5-1.1-.8-.9.9-1.9,1.8-2.8,2.7-4.1,4.2-8.6,5-12.6,2.3-4.1-2.7-5.8-8.6-3.4-13.2,1.2-2.3,2.9-4.3,4.7-6.2,5.1-5.6,10.3-11.1,15.8-17.1,4.7,5,9.4,9.8,13.9,14.7,1.9,2,3.7,4.1,5.4,6.2h0Z"/>
        <path class="cls-8" d="M69.2,6.1h-14c2-3.4,4-6.8,6-10.2l1.4-.4c.8,1.8,1.5,3.7,2.6,5.4,1.1,1.8,2.5,3.3,4,5.3h0Z"/>
        <path class="cls-8" d="M67.8,110.7h-11.8c1.8-4,3.5-8,5.3-12h1.1c1.7,3.8,3.5,7.7,5.4,12Z"/>
        <path class="cls-9" d="M57.8,35c.6.6,1.1,1.2,1.6,1.8-16.9,16.9-33.4,33.4-49.6,49.7C-6.6,70-23.2,53.3-39.9,36.5c.5-.5,1.2-1.4,2.1-2.3C-23.1,19.5-8.4,4.8,6.3-10c2.5-2.5,4-2.7,6.6,0,14.9,15.1,30,30.1,45,45.1h-.1ZM47.5,45.7c2.7-2.7,5.7-5.1,8.2-7.4C39.7,22.3,24.5,7.1,9.6-7.9-5.3,7-20.6,22.2-36.1,37.7c0,.2.3.6.6.9,14.2,14.2,28.5,28.4,42.6,42.7,2,2,3.2,1.6,5-.2,11.7-11.9,23.5-23.6,35.3-35.4h.1Z"/>
        <path class="cls-8" d="M52.6,138.7c1,1,1.9,2,2.6,2.8-15.5,15.4-30.8,30.5-45.9,45.5-14.7-14.8-29.8-30.1-45.3-45.7.5-.5,1.4-1.6,2.5-2.6,13.2-13.3,26.6-26.4,39.7-39.8,2.8-2.8,4.2-2.5,6.8.2,13.1,13.4,26.4,26.6,39.7,39.8h0v-.2ZM9.5,162.8c4.9-9.4,11.5-16,20.9-20.9-9.6-4.8-16-11.8-21.1-20.9-4.6,9.7-11.6,15.8-20.4,21,9.2,5,15.7,11.5,20.6,20.8h0Z"/>
        <path class="cls-9" d="M59.9,143.4c-2.7,2.4-6.1,4.9-9.1,7.9-12.7,12.6-25.4,25.2-37.9,38-2.5,2.6-4,2.6-6.6,0-14.7-14.9-29.5-29.7-44.4-44.4-1.8-1.8-2.8-3-.5-5.3,15.5-15.3,30.8-30.7,46.2-46.1s1-.9,1.4-1.1c16.7,16.8,33.2,33.4,50.8,51.1h0ZM55.3,141.5c-.8-.8-1.7-1.8-2.6-2.8-13.2-13.2-26.6-26.4-39.7-39.8-2.6-2.7-4-3-6.8-.2-13.1,13.4-26.4,26.6-39.7,39.8-1,1-2,2.1-2.5,2.6,15.5,15.6,30.7,30.9,45.3,45.7,15.1-15,30.4-30.1,45.9-45.5h0v.2Z"/>
        <path class="cls-8" d="M55.7,38.3c-2.6,2.3-5.5,4.7-8.2,7.4-11.8,11.7-23.6,23.5-35.3,35.4-1.8,1.8-3,2.3-5,.2-14.2-14.3-28.4-28.5-42.6-42.7-.3-.3-.5-.7-.6-.9C-20.6,22.2-5.3,7,9.6-7.9c14.9,14.9,30.2,30.2,46.1,46.2ZM24.6,47.1c5.5-6.9,8.5-14.5,5.4-23.4-1.3-3.8-3.6-6.9-7.8-7.8-4.6-1-7.6,1.5-10,5-.8,1.1-1.5,2.2-2.5,3.7-1.5-2.1-2.6-3.9-4-5.5-4.1-4.7-10.6-4.5-14.2.5-1.5,2.1-2.5,4.6-3,7.1-2,11.8,4,20.2,12.8,26.8,9.1,6.8,7.4,6.6,16.1.3,2.7-1.9,5.2-4.2,7.2-6.7h0Z"/>
        <path class="cls-9" d="M29.9,23.7c3.1,8.9.2,16.5-5.4,23.4-2,2.5-4.6,4.8-7.2,6.7-8.7,6.3-7,6.5-16.1-.3-8.8-6.6-14.8-15-12.8-26.8.4-2.5,1.5-5,3-7.1,3.6-5.1,10.1-5.2,14.2-.5,1.4,1.6,2.5,3.5,4,5.5,1-1.5,1.7-2.6,2.5-3.7,2.4-3.5,5.4-6,10-5,4.2.9,6.5,4,7.8,7.8h0Z"/>
        <path class="cls-9" d="M30.5,142c-9.4,4.9-16.1,11.5-20.9,20.9-4.9-9.3-11.4-15.8-20.6-20.8,8.8-5.2,15.8-11.3,20.4-21,5.1,9.1,11.5,16,21.1,20.9h0Z"/>
        <path class="cls-11" d="M3.1,194.2c.3.4.6.8.9,1.2-3.4,3-7,5.7-10.3,8.9-11.1,10.9-22.1,21.9-33,33-2.6,2.7-4.2,2.9-6.9.1-13.3-13.6-26.8-26.9-40.3-40.4-.9-.8-1.5-1.8-2.9-3.5,6.8-6.6,13.5-12.9,20-19.3,8.1-7.9,16-15.9,24-23.9s2.7-2.6,4.7-.5c14.1,14.2,28.2,28.3,42.3,42.4.6.6.9,1.3,1.4,2h.1ZM-26.8,206c3.9-2,5.9-5.5,5.7-9.8-.4-6.6-4.8-9.5-10.5-10.6-1.4-9.1-5-13.2-11.3-13s-9.5,4-10.7,12.7c-9.6,3.8-13,9.4-9.7,16.1,3.2,6.6,10.1,7.2,20,2.1-1.8,4-3.5,7.9-5.4,12.1h11.9c-2-4.4-3.7-8.3-5.4-12.2l1-.6c4.2,4.1,8.9,6.4,14.5,3.4h0v-.2Z"/>
        <path class="cls-11" d="M1,86.8c2,2,2.2,3.3,0,5.4-13.7,13.6-27.3,27.2-40.9,40.9-.9.8-1.8,1.6-2.9,2.5-1.1-.8-2-1.4-2.7-2.1-13.9-13.8-27.7-27.6-41.6-41.4-2-2-1.7-3.3.2-5.1,13.7-13.6,27.4-27.2,40.9-40.9,2.5-2.5,4-2.2,6.4.2C-26.2,59.9-12.6,73.4,1,86.9h0ZM-22.5,101.4c2.3-3.8,1.7-9.6-1.5-13.2-4.6-5.1-9.3-10.1-13.9-15.2-1.5-1.7-2.9-3.5-4.5-5.5-2.3,2.5-3.8,4.1-5.2,5.7-4.9,5.4-10.1,10.6-14.6,16.3-3.5,4.4-2.5,11.3,1.5,14.6,4,3.2,9.3,2.5,13.6-1.9.9-.9,1.9-1.7,2.8-2.5.4.3.7.6,1.1.9-2.1,3.3-4.1,6.7-6.3,10.2h13.7c-2.2-3.5-4.3-6.9-6.4-10.3.4-.3.9-.6,1.3-.9,1,1.1,1.8,2.3,3,3.1,1.9,1.3,3.9,2.7,6,3.2,4,.9,7.3-.9,9.5-4.4h0Z"/>
        <path class="cls-11" d="M.9-18c2.4,2.4,2.1,3.7-.1,6C-12.9,1.5-26.5,15.2-40.2,28.8c-.7.7-1.6,1.4-2.5,2.1-1-.8-1.8-1.3-2.4-2C-59,15.2-72.8,1.3-86.7-12.4c-2.2-2.2-1.8-3.5,0-5.4,13.8-13.7,27.5-27.4,41.2-41.2,2.1-2.1,3.4-1.9,5.4,0C-26.4-45.1-12.8-31.5.9-18ZM-26.3-3.6c3.6-2.1,5.8-6.4,5.1-10.5-.7-4.4-3-7.9-7.6-8.7-3-.5-3.1-2.2-3.4-4.6-.8-6.1-4.9-9.4-11.1-9.2-5.5.2-9.4,3.9-9.8,9.7-.2,2.3-.7,3.5-3.1,4-4.5.9-7.1,3.9-7.8,8.5-.7,4.5,1.1,8.4,4.7,10.6,3.8,2.3,8.9,2.1,12.5-.6.9-.7,1.7-1.5,2.6-2.2.4.2.7.4,1.1.7-1.9,4-3.7,8.1-5.6,12.1h12c-1.8-4.1-3.7-8.2-5.5-12.3.3-.2.7-.4,1-.7,1,.8,1.9,1.7,3,2.5,3.3,2.5,8.5,2.8,12.1.7h-.2Z"/>
        <path class="cls-9" d="M6.6-15.1C-9.8,1.3-26.4,17.7-42.8,34.1-59,17.8-75.5,1.2-91.7-15.2c16.1-16.1,32.7-32.6,49-48.8C-26.4-47.8-9.8-31.4,6.6-15.1ZM.8-12c2.2-2.2,2.5-3.6.1-6-13.7-13.5-27.3-27.2-40.9-40.9-2-2-3.3-2.3-5.4,0-13.7,13.8-27.4,27.5-41.2,41.2-1.9,1.9-2.3,3.2,0,5.4C-72.8,1.3-59,15.2-45.1,29c.7.7,1.4,1.2,2.4,2,.9-.8,1.8-1.4,2.5-2.1C-26.5,15.2-12.9,1.5.8-12Z"/>
        <path class="cls-9" d="M-43.2,40C-26.6,56.7-10.2,73.3,6.3,89.9c-16,16-32.5,32.6-49.4,49.5-4.4-4.3-8.9-8.7-13.4-13.1l-33.9-33.9c-1.8-1.8-2.8-3.1-.5-5.4,15.6-15.4,31-30.9,46.5-46.3.4-.4.9-.6,1.1-.8h.1ZM1.1,92.2c2.1-2.1,1.9-3.4,0-5.4-13.6-13.5-27.2-27-40.6-40.6-2.3-2.3-3.8-2.7-6.4-.2-13.5,13.7-27.2,27.3-40.9,40.9-1.8,1.8-2.2,3.1-.2,5.1,13.9,13.8,27.7,27.6,41.6,41.4.8.7,1.7,1.3,2.7,2.1,1.1-.9,2.1-1.6,2.9-2.5,13.6-13.6,27.2-27.3,40.9-40.9h0Z"/>
        <path class="cls-9" d="M-42.6,145.1c16.3,16.3,32.8,32.8,49.3,49.2-16.4,16.4-33,32.8-49.3,49.1-16.2-16.3-32.7-33-49-49.4,16-15.9,32.5-32.4,49.1-48.9h0ZM4,195.4c-.3-.4-.6-.8-.9-1.2-.5-.7-.8-1.4-1.4-2-14.1-14.1-28.3-28.2-42.3-42.4-2.1-2.1-3.2-1-4.7.5-8,8-15.9,16-24,23.9-6.6,6.5-13.2,12.8-20,19.3,1.3,1.6,2,2.6,2.9,3.5,13.4,13.5,27,26.8,40.3,40.4,2.7,2.8,4.3,2.5,6.9-.1,10.9-11.1,21.9-22.1,33-33,3.2-3.2,6.8-5.9,10.3-8.9h0Z"/>
      </g>
    </g>
  </g>
</svg>