<?xml version="1.0" encoding="UTF-8"?>
<svg id="Layer_1" data-name="Layer 1" xmlns="http://www.w3.org/2000/svg" xmlns:xlink="http://www.w3.org/1999/xlink" version="1.1" viewBox="0 0 89 298.3">
  <defs>
    <style>
      .cls-1 {
        clip-path: url(#clippath);
      }

      .cls-2 {
        fill: none;
      }

      .cls-2, .cls-3, .cls-4, .cls-5, .cls-6, .cls-7, .cls-8 {
        stroke-width: 0px;
      }

      .cls-3 {
        fill: #d9e477;
      }

      .cls-4 {
        fill: #faee4b;
      }

      .cls-5 {
        fill: #9bce7d;
      }

      .cls-6 {
        fill: #705aa6;
      }

      .cls-7 {
        fill: #c8cae0;
      }

      .cls-8 {
        fill: #e9d742;
      }
    </style>
    <clipPath id="clippath">
      <rect class="cls-2" y="25.4" width="72.2" height="247.5"/>
    </clipPath>
  </defs>
  <rect class="cls-7" width="89" height="298.3"/>
  <g class="cls-1">
    <g>
      <path class="cls-4" d="M135.8-279.9h4.4c-11.3,11.5-22.7,23-33.4,33.8-.6.6-1.2,1.2-1.8,1.9,18,18.1,35.6,35.8,52.9,53.2,17.3-17.2,34.9-34.8,53.2-53-.7-.7-1.5-1.4-2.2-2.1l1.8-1.7h0c1.7,1.7,2.9,1.7,4.3.6l1.5,1.6c-.4.4-.9.7-1.3,1.1,18.7,18.7,36.4,36.4,55.1,55.2,4.4-4.9,8.9-9.9,13.4-14.9v4.4c-4.2,3.9-8.3,7.9-12.4,11.8,4.6,4.7,8.5,8.8,12.4,12.9v3.5c-4.9-4.5-9.8-9-14.6-13.4-17.8,17.8-35.4,35.5-52.5,52.5,17.5,17.6,35.2,35.4,52.9,53.2,4.5-4.1,9.3-8.6,14.1-13v3.5c-4.2,4-8.3,8.1-12.9,12.5,4.7,4.4,8.8,8.3,12.9,12.1v4.4c-4.9-4.7-9.7-9.5-14.2-13.8-18.2,18.1-35.8,35.6-53.1,52.8.8.8,1.7,1.7,2.5,2.5,16.7,16.7,33.6,33.6,51.6,51.7,4.3-4.8,8.7-9.8,13.2-14.8v4.4c-4.1,3.9-8.1,7.7-12.1,11.5.4,1,.5,1.5.7,1.7,3.8,3.8,7.6,7.6,11.3,11.5v3.5c-4.9-4.5-9.8-8.9-14.3-13-1.6,1.6-3.1,3.1-4.7,4.7-16.3,16.2-32.3,32.3-48.5,48.4,0,0,.3.7.7,1.1,16.6,16.6,33.2,33.2,49.7,49.8,1.7,1.8,3,1.8,4.7,0,4-4,8.2-7.8,12.3-11.8v3.5c-3.4,3.4-6.9,6.7-10.1,10.2-.8.9-1.1,3.5-.5,4.2,3.3,3.6,7,6.9,10.6,10.3v4.4c-4.8-4.7-9.7-9.3-14.3-13.8-17.9,18-35.5,35.7-52.8,53,17.3,17.4,35,35.1,53.8,54,4.3-4.8,8.8-9.8,13.3-14.8v4.4c-4.2,4-8.4,7.9-12.6,11.9,4.6,4.6,8.6,8.7,12.6,12.7v3.5c-4.9-4.5-9.8-9-14.5-13.3-17.8,17.9-35.4,35.5-52.9,53,17.3,17.4,35,35,52.8,52.9,4.7-4.3,9.6-8.9,14.5-13.4v3.5c-4.1,4.1-8.2,8.3-12.7,12.8,4.4,4.1,8.5,8,12.7,11.9v4.4c-4.9-4.7-9.7-9.5-14-13.6-18.2,18.1-35.8,35.7-54.5,54.4.7.5,1.5,1.1,2.4,1.7l-1.6,1.5h0c-2-2.1-3.4-2.1-5.4,0-5.8,6-11.7,11.9-17.5,17.8h-3.5c6.3-6.7,12.7-13.3,18.7-19.6.7-.8,1.5-1.5,2.2-2.3-17.9-18-35.4-35.6-52.7-53-17.5,17.5-35.2,35.1-54,53.9,7.2,6.8,14.8,13.9,22.4,21h-4.4c-6.8-6.3-13.7-12.6-21-19.4-5.7,6-12.2,12.7-18.6,19.4h-4.4c7.3-7.4,14.6-14.7,21.9-22.1-.7-1-1.1-1.6-1.6-2.1-16.5-16.5-33-32.9-49.4-49.5-2.7-2.7-3.9-.9-5.6.8-15.1,15.1-30.3,30.2-45.4,45.4-1.6,1.6-3.1,3.3-4.9,5.2,1.6,1.7,2.9,3.1,4.2,4.4,5.8,6,11.5,12,17.3,17.9h-3.5c-5.8-5.8-11.6-11.5-17.3-17.4-2.2-2.4-3.8-2.4-6,0-5.6,5.9-11.5,11.6-17.2,17.4h-3.5c7.1-7.5,14.2-14.9,20.7-21.8-1.4-1.4-2.8-2.9-4.3-4.3-16.5-16.6-32.6-32.8-48.5-48.8-17.4,17.4-35,35-52.9,53,7,7.1,14.3,14.5,21.6,21.8h-4.4c-6.9-6.3-13.8-12.5-19.9-18.1-6,5.5-12.8,11.8-19.7,18.1h-4.4c7.6-7.1,15.2-14.1,22.5-20.9-18.9-18.9-36.6-36.5-53.9-53.8-17.4,17.3-35.1,35-53,52.8,1,1,2.1,2.3,3.3,3.6,5.9,6.1,11.7,12.2,17.6,18.3h-3.5c-5.8-5.8-11.6-11.6-17.2-17.4-2.2-2.3-3.9-2.4-6.1,0-5.6,5.9-11.4,11.7-17.2,17.5h-3.5c6.3-6.6,12.6-13.3,18.7-19.7.8-.8,1.5-1.6,2.3-2.4-17.9-18-35.5-35.6-52.8-52.9l-54.1,54.1c7.3,6.8,14.9,13.8,22.5,20.9h-4.4c-6.8-6.3-13.7-12.6-20.8-19.2-2.6,2.5-5.9,5.5-9.2,8.6v-4.4c8.8-5.9,9-7.2,1.5-14.1-.4-.4-1-.6-1.5-.9v-4.4c3.3,3.1,6.6,6.1,10.1,9.4,1.1-.9,2-1.5,2.8-2.3,16.1-16,32.1-32.1,48.2-48.1,2.3-2.3,1.8-3.6-.3-5.7-9-8.8-17.9-17.8-26.7-26.7-7.8-7.9-15.5-15.9-23.4-24-4,3.5-7.4,6.4-10.8,9.3v-3.5c5.7-5.1,5.8-10.3.3-15.6-.1,0-.2-.2-.3-.3v-3.5c3.4,2.9,6.7,5.8,9.6,8.3,17.9-17.8,35.5-35.4,52.8-52.7-17.3-17.3-34.9-34.9-52.8-52.6-3,2.8-6.3,5.9-9.6,8.9v-4.4c2.1-2,4.4-3.8,6.3-5.9.6-.7.6-2.6,0-3.2-1.9-2.1-4.2-3.9-6.4-5.8v-4.4c3.3,3.1,6.6,6.2,9.6,9.1,17.8-17.9,35.4-35.5,53.1-53.2,0,0-.2-.7-.6-1.1-16.7-16.7-33.4-33.4-50.1-50.1-1.6-1.6-2.9-1.4-4.4.2-2.5,2.4-5.1,4.7-7.7,7v-3.5c9.9-9.7,9.2-6.4.3-15.6,0,0-.2-.2-.3-.3v-3.5c1.9,1.6,3.8,3.1,5.5,4.9,4.5,4.5,4.5,4.6,8.8.2,13.4-13.4,26.8-26.7,40.1-40.1,3-3,5.9-6,8.5-8.7-16.4-16.4-32.5-32.5-48.7-48.7-1.5-1.6-3.1-3.1-4.7-4.7-3,2.9-6.3,6-9.6,9.1v-4.4c8.8-6,8.9-7.2,1.5-14.1-.4-.4-1-.6-1.5-.9v-4.4c3.3,3.1,6.6,6.1,9.5,8.8,1.3-1.3,2.6-2.6,3.9-3.9,16.5-16.5,32.9-32.8,49.2-49-17.4-17.3-35-34.9-52.7-52.6-3.1,2.7-6.5,5.7-9.9,8.6v-3.5c9.9-9.6,9.1-6.5.3-15.6-.1-.1-.2-.2-.3-.3v-3.5c3.4,2.9,6.7,5.8,10.2,8.9.9-.8,1.8-1.4,2.5-2.1,16.2-16.1,32.3-32.4,48.5-48.4,2.8-2.8,1.1-4.2-.8-6-15.8-15.7-31.5-31.5-47.3-47.2-.9-.9-2-1.7-3.1-2.6-3.5,3.3-6.8,6.3-10.1,9.4v-4.4c2.1-1.9,4.4-3.8,6.3-5.9.6-.6.6-2.6,0-3.2-1.9-2.1-4.2-3.9-6.4-5.8v-4.4c3.3,3.1,6.6,6.2,11,10.4.3-.4.6-.8.9-1.2l1.5,1.5-.2.2c18,18.1,35.6,35.9,52.9,53.3,17.3-17.2,34.9-34.8,52.8-52.6-.6-.7-1.3-1.5-2-2.3-.2-.3-.5-.5-.7-.8-6.6-6.7-13.3-13.3-19.9-20-4.3-4.4-8.4-8.9-12.6-13.3h3.5c10.5,10.6,21.1,21.2,31.6,31.9,2.3,2.4,3.9,1.6,5.8-.4,10.4-10.5,20.9-21,31.4-31.5h3.5c-.9,1.1-1.6,2.4-2.6,3.4-9.5,9.6-19.1,19.1-28.6,28.7-1.4,1.4-2.7,3-3.8,4.1,17.9,17.9,35.6,35.6,52.8,52.9,17.5-17.4,35.2-35,54.1-53.8,0,0,0-.1-.2-.2l1.3-1.4c.2.2.5.1.8.2.3.3.6.6,1,1,.8-1,1.6-2.1,2.4-3.2l1.6,1.6h0c-2.5,2.5-2.5,4,0,6.4,16,15.8,31.9,31.6,47.6,47.6,2.6,2.6,4,2.2,6.3-.2l.2-.2c15.5-15.7,31.2-31.2,46.8-46.9,1-1,1.9-2.1,3.2-3.6-12.3-12.3-24.4-24.4-36.5-36.5h4.4c10.5,10.5,21,20.9,31.3,31.5,2.3,2.4,3.7,2.4,6,0,10.4-10.6,20.9-21,31.3-31.5h4.4c-12.1,12.1-24.3,24.2-35.6,35.5.7.7,1.3,1.3,2,2,17.3,17.5,34.3,34.5,50.8,51.2,17.2-17.3,34.8-34.9,52.7-52.9-11.7-11.7-23.6-23.8-35.6-35.8h4.4c.9,1.1,1.8,2.3,2.8,3.3,8.9,8.9,17.7,17.8,26.6,26.7,4.4,4.4,4.4,4.5,8.9,0,9.8-10,19.7-20,29.5-30h0l.9.2ZM-7-238.6c-2-2-3.5-1.8-5.5.2-15.9,16-31.9,32-47.9,47.9-2.3,2.3-2.2,3.9,0,6.1,7.1,6.8,14,13.8,20.9,20.8,9.7,9.8,19.4,19.5,29.3,29.4,1-.6,1.5-.7,1.7-1,16.6-16.6,33.2-33.2,49.8-49.7,2.2-2.2,1.6-3.7-.2-5.5-16.1-16-32.2-32.1-48.2-48.2h0ZM154.2-187.6c-17.4-17.5-35-35.1-52.4-52.6-17.4,17.4-35,35-52,52,17.5,17.6,35.1,35.3,52,52.3,17.4-17.2,35.1-34.7,52.4-51.8h0ZM-233-239.6c-17.1,17.1-34.6,34.6-52,51.9,17.5,17.4,35.2,34.9,52.7,52.3,17.2-17.1,34.8-34.6,51.9-51.6-17.6-17.5-35.2-35.2-52.7-52.6h0ZM-68.6-187.7c-17.4-17.3-34.9-34.9-51.9-51.8-17.7,17.5-35.5,35-52.6,51.9,17.3,17.4,34.9,35.1,52,52.3,17.4-17.4,35-35,52.5-52.4h0ZM265.8-187.5c-17.4-17.4-34.9-35-52.2-52.4-17.7,17.6-35.3,35.2-52.4,52.3,17.3,17.4,35,35.1,52.1,52.3,17.4-17.3,35.1-34.8,52.5-52.2h0ZM-65.6-184.7c-.5.4-1.2.8-1.8,1.4-16.3,16.3-32.5,32.6-48.9,48.8-2.4,2.4-1.6,3.8.3,5.7,10.2,10.1,20.4,20.2,30.5,30.4,6.6,6.6,12.9,13.5,19,19.7,18.4-18.5,36.1-36.2,53.3-53.5-17.1-17.2-34.7-34.8-52.4-52.6h0ZM59-172.6c-4.2-4.2-8.4-8.4-12.3-12.2-18,18-35.7,35.5-52.8,52.6,17.5,17.5,35.1,35.2,52.9,53.1.2-.2.8-.5,1.3-1.1,16.3-16.3,32.5-32.6,48.9-48.8,2.4-2.4,1.9-3.9-.3-6.1-12.6-12.5-25.1-25-37.7-37.6h0ZM-176.5-184c-17.4,17.4-35.2,35.1-52.1,52,17.2,17.4,34.8,35.1,51.9,52.3,17.4-17.3,35.1-34.8,52.6-52.2-17.5-17.5-35.3-35.1-52.4-52.1h0ZM209.8-131.6c-17.5-17.6-35.1-35.4-51.9-52.3-17.5,17.4-35.2,35-52.6,52.4,17.3,17.3,34.9,34.9,52.2,52.3,17.5-17.5,35.2-35.3,52.3-52.4h0ZM-288-184.4c-17.5,17.5-35.2,35.2-52.5,52.4,17.5,17.5,35.1,35.2,52.5,52.6,17.4-17.4,35.1-35.1,52.7-52.6-17.4-17.3-35.1-34.9-52.7-52.4ZM-9.1-129.9c-2.1,1.9-3.4,3.1-4.7,4.3-15.4,15.3-30.6,30.8-46.1,46-2.8,2.7-2.7,4.3,0,7,15.9,15.6,31.6,31.4,47.3,47.3,2.2,2.2,3.5,2.4,5.7.1,15.9-16,31.8-32,47.9-47.9,2.6-2.6,2.2-4.1-.2-6.4-8.8-8.6-17.5-17.3-26.2-26.1-7.8-7.9-15.5-15.9-23.7-24.3h0ZM-232.9-129c-.5.4-1.3,1-2,1.7-16.2,16.2-32.4,32.4-48.7,48.5-2.5,2.4-1.5,3.8.4,5.7,15.9,15.8,31.8,31.7,47.6,47.7,2.4,2.4,3.8,2.2,6,0,15.8-16,31.7-31.8,47.6-47.7.9-.9,1.6-2,2.2-2.7-17.9-17.8-35.5-35.4-53.3-53.1h.2ZM214-128.2c-17.7,17.6-35.4,35.2-53.2,52.9-.1-.2,0,0,.2.3,16.6,16.6,33.2,33.2,49.7,50,2.5,2.5,3.8,1.3,5.7-.6,15.8-15.9,31.8-31.7,47.6-47.6.9-.9,1.6-1.9,2.4-2.8-17.8-17.8-35.4-35.2-52.3-52.1h0ZM-121.2-128.4c-17.4,17.3-35,34.8-52.4,52,17.6,17.6,35.2,35.2,52.5,52.5,17.4-17.3,35-34.9,52.3-52.1l-52.4-52.4h0ZM101.8-128.5c-17.3,17.3-34.9,34.8-52.3,52.1,17.5,17.5,35.1,35.2,52,52.2,17.5-17.3,35.2-34.9,52.6-52.1-17.4-17.3-35-34.9-52.3-52.2ZM-65.7-73.2c-.2.2-.8.4-1.2.8-16.6,16.6-33.2,33.2-49.8,49.7-2.4,2.4-1,3.7.6,5.3,8.7,8.7,17.5,17.4,26.1,26.1,8.1,8.1,16,16.2,23.9,24.2C-48,14.8-30.4-2.9-13.1-20.3c-17.5-17.6-35-35.2-52.6-53h0ZM160-71.7c-2.6-2.6-4-1-5.7.7-15.6,15.7-31.3,31.3-46.9,47-1.1,1.1-2.1,2.3-2.4,2.7,18,18,35.7,35.7,53,53,17.3-17.1,34.9-34.7,52.7-52.3-.2-.3-.5-.9-.9-1.3-16.6-16.6-33.2-33.1-49.7-49.8h-.1ZM59.2-61c-4.2-4.2-8.3-8.6-12-12.3C29-55.2,11.3-37.6-6.2-20.2,11-2.8,28.6,14.8,46.5,32.8c.9-.8,1.8-1.6,2.6-2.4,15.9-15.8,31.7-31.8,47.6-47.5,2.7-2.7,2.4-4.2,0-6.7-12.6-12.3-25-24.8-37.4-37.3h0ZM-124.4-20.2c-17.5-17.5-35.1-35.2-52.6-52.7-17.3,17.3-34.9,34.9-52.2,52.2,17.6,17.5,35.3,35.2,52.6,52.5,17.3-17.3,35-34.9,52.2-52h0ZM-288.6-72.9c-17.3,17.3-34.9,34.9-52.3,52.3,17.6,17.6,35.2,35.3,52.5,52.5,17.7-17.6,35.3-35.1,52.3-52.1-17.4-17.4-35-35.1-52.4-52.7h-.1ZM-229.5-15.4c-2.7-2.7-4.3-1.7-6.5.5-15.7,15.8-31.5,31.5-47.2,47.3-.9.9-1.6,1.9-2.4,2.9.6.8.8,1.3,1.3,1.7,16.5,16.5,33,32.9,49.4,49.5,2.6,2.6,3.9,1.1,5.7-.7,13.4-13.4,26.7-26.8,40.1-40.1,3.3-3.3,7-6.2,10.5-9.3-1.3-1.8-1.5-2.2-1.8-2.5-16.4-16.4-32.8-32.8-49-49.2h0ZM-9.6-17.7c-1,.8-2,1.4-2.8,2.2C-28.4.5-44.3,16.5-60.4,32.4c-2.4,2.4-2.1,3.8.2,6.1,15.8,15.7,31.6,31.4,47.3,47.2,2.6,2.6,4.1,2.6,6.7,0,15.8-16,31.6-31.8,47.5-47.6,1.9-1.9,2.3-3.3.2-5.4C25.4,16.7,9.3.7-6.7-15.4c-.8-.8-1.8-1.4-2.9-2.3ZM216.4-15.2c-2.4-2.4-4-2.6-6.5,0-9.9,10.2-20,20.2-30.1,30.2-6.7,6.5-13.6,12.8-20.6,19.3,1.6,2,2,2.6,2.5,3.2,16.3,16.3,32.6,32.5,48.8,48.9,2.4,2.4,3.8,1.5,5.7-.4,13.8-13.8,27.6-27.6,41.4-41.4,3-3,5.8-6,8.8-9.1-.8-1-1.3-1.8-1.9-2.4-15.9-16.2-32-32.2-48.1-48.3ZM-67.4,36.6C-86.1,17.8-103.6.2-121.1-17.3-138.4.2-156,17.9-173.7,35.7c.1.2.6,1,1.2,1.6,16.4,16.4,32.8,32.8,49.1,49.2,2.4,2.4,3.7,1,5.4-.7,12.2-12.3,24.4-24.5,36.7-36.7,4.6-4.5,9.5-8.6,13.9-12.6h0ZM154.4,35.2C136.9,17.8,119.3.2,101.8-17.2,84.4.2,66.9,17.8,49.6,35.2c17.4,17.5,34.9,35.1,52,52.4,17.6-17.4,35.2-34.9,52.8-52.3h0ZM-65.1,37.8c-.9.7-1.8,1.2-2.5,1.9-2.3,2.2-4.6,4.5-6.9,6.8-13.8,13.8-27.6,27.6-41.4,41.3-2.1,2.1-2.8,3.6-.3,6.1,16.1,15.9,32,31.9,47.9,47.9,1.7,1.7,3,3.1,5.4.7,16.3-16.4,32.7-32.8,49.1-49.1,1.8-1.8,1.7-3,0-4.7-16.3-16.2-32.6-32.5-48.9-48.8-.7-.7-1.5-1.3-2.5-2h.1ZM48.5,39.8c-.7-.7-1.6-1.2-2.5-1.9-.9.7-1.8,1.3-2.5,1.9C27.4,55.9,11.2,72.1-5,88.2c-2.3,2.2-1.9,3.6.2,5.7,16.1,16,32.2,32.1,48.2,48.2,2,2,3.3,2.1,5.4,0,16.1-16.2,32.3-32.4,48.5-48.5,1.8-1.8,2.1-3.1,0-5.1-16.3-16.2-32.6-32.5-48.9-48.8h0ZM-174.4,39.7c-2-2-3.3-1.5-5,.3-16.1,16.2-32.3,32.4-48.6,48.5-1.9,1.9-1.8,3.2,0,5,16.2,16.1,32.4,32.3,48.5,48.6,2.1,2.1,3.5,2,5.4,0,4.6-4.7,9.3-9.4,13.9-14,12.2-12.1,24.3-24.1,36.7-36.4-.7-1.1-1-1.7-1.4-2.1-16.6-16.6-33.2-33.2-49.7-49.8h.2ZM-285,40.5c-.9-.9-1.9-1.7-2.7-2.4-17.9,17.9-35.5,35.6-53,53.1,17.3,17.4,34.9,35,52.8,53,1.3-1.3,2.5-2.4,3.6-3.5,15.5-15.4,30.9-31,46.5-46.3,2.9-2.8,2.4-4.4-.2-7-15.8-15.6-31.4-31.3-47-47h0ZM161.1,40.9c-1.1-1.1-2.3-2-3.1-2.7-18,18-35.6,35.5-53,53,17.4,17.4,35,35,52.9,52.8.7-.6,1.4-1,2-1.7,16.3-16.3,32.6-32.6,49-48.8,2.6-2.5,1.1-3.9-.7-5.7-15.7-15.6-31.3-31.3-47-47h0ZM215.9,95.6c-2.8-2.9-4.2-.9-6,.9-15.7,15.7-31.3,31.4-47,46.9-2.7,2.6-2.6,4.1,0,6.6,15.7,15.4,31.2,31,46.6,46.6,2.8,2.8,4.5,3.1,7.4,0,10.6-10.9,21.6-21.6,32.3-32.4,5.8-5.8,11.5-11.6,17.3-17.5-.7-1-1.1-1.6-1.6-2.1-16.4-16.4-32.8-32.7-49.1-49.2h0v.2ZM104.5,95.8c-2.3-2.3-3.7-1.8-5.7.2-10,10.1-20,20.2-30.1,30.2-6.7,6.7-13.7,13.2-20,19.3,18.4,18.5,35.9,36.2,53.4,53.9,17.4-17.4,35-35,52.7-52.7-.5-.6-1.1-1.5-1.8-2.2-16.2-16.2-32.4-32.3-48.5-48.6h0ZM-6.5,96.1c-2.2-2.2-3.7-2.6-6.1-.2-16,16.1-32.1,32.2-48.1,48.3-.7.7-1.2,1.6-2,2.5.8,1,1.4,2,2.2,2.8,15.8,15.9,31.7,31.7,47.5,47.7,2.3,2.3,3.9,2.7,6.4.2,15.7-16,31.6-31.8,47.5-47.6,2.3-2.3,2.4-3.7,0-6-16-15.8-31.8-31.6-47.6-47.6h.2ZM-117.5,96.6c-2.7-2.8-4.2-2.9-7,0-13.6,13.8-27.4,27.4-41.1,41.1-3,3-5.8,6-8.8,9,.7.9,1.1,1.4,1.5,1.8,16.4,16.4,32.8,32.8,49.1,49.3,2.3,2.3,3.8,1.8,5.8-.2,7.3-7.4,14.7-14.8,22.1-22.1,9.4-9.3,18.8-18.5,28.6-28.2-1.8-1.9-2.9-3.2-4.1-4.4-15.4-15.3-30.8-30.6-46-46.1h0ZM-228.8,96.7c-2.8-2.9-4.4-3-7.3,0-10.5,10.8-21.3,21.5-32,32-5.9,5.8-12.1,11.4-18.2,17.1.3.4.6.7.9,1.1.4.6.7,1.2,1.2,1.7,16.2,16.3,32.5,32.5,48.7,48.9,2.7,2.8,4.3,1.6,6.4-.6,14.9-15,29.8-29.9,44.8-44.8,1.7-1.7,3.3-3.6,5.1-5.5-1.1-1.2-1.8-2.1-2.6-2.9-15.7-15.7-31.4-31.2-46.9-47h0ZM-65.8,149.3c-.7.6-1.3,1.1-2,1.7-16,16-31.9,32-48,47.9-2.8,2.8-2.6,4.4,0,7,15.8,15.6,31.4,31.3,47.1,47,.9.9,1.9,1.8,2.5,2.2,17.9-17.8,35.6-35.5,53.1-53-17.3-17.3-34.9-34.9-52.9-52.8h.2ZM56.1,158.5c-3.2-3.2-5.9-6.8-8.4-9.7-18.8,18.7-36.6,36.4-54.4,54.1.3.4.7,1,1.2,1.5,16.4,16.4,32.8,32.7,49,49.2,2.5,2.5,3.8,1.4,5.7-.5,15.7-15.8,31.4-31.6,47.3-47.2,2.8-2.7,2.8-4.3,0-7-13.6-13.3-27-26.8-40.4-40.4ZM-124.1,202.4c-17.4-17.4-35.1-35-51.9-51.8-17.6,17.4-35.4,35-52.9,52.3l52.2,52.2c17.5-17.5,35.2-35.2,52.7-52.6h0ZM-235.6,202.1c-17.3-17.3-34.9-34.8-52.1-52-17.7,17.7-35.4,35.4-52.3,52.3,17.2,17.3,34.8,35,52,52.2,17.3-17.4,35-35,52.4-52.5ZM157.8,150.3c-17.5,17.4-35.2,35.1-52.3,52,17.3,17.4,34.9,35.1,52.4,52.7,17.3-17.3,34.9-34.9,52.1-52.2-17.6-17.7-35.2-35.4-52.2-52.6h0ZM-230.1,206.9c-2.4-2.4-3.7-1-5.4.7-15.8,15.9-31.7,31.8-47.6,47.6-2.3,2.3-2.4,3.7,0,6,16,15.8,31.8,31.7,47.7,47.5.9.9,1.9,1.7,2.7,2.3,17.8-17.8,35.4-35.3,53.2-53-.2-.4-.3-.7-.5-.9-16.7-16.7-33.4-33.4-50-50.2h0ZM216.5,207.7c-2.7-2.8-4.3-2.2-6.7.2-15.5,15.7-31.1,31.2-46.6,46.8-1.1,1.1-2.1,2.3-3,3.4,17.9,17.9,35.4,35.4,52.7,52.7,17.8-17.7,35.4-35.3,53.2-53-.7-.8-1.5-1.8-2.4-2.7-15.8-15.8-31.6-31.5-47.3-47.4h0ZM-68.7,258.2c-17.4-17.5-34.9-35.1-52.4-52.6-17.4,17.5-34.9,35.2-52.1,52.5,17.2,17.3,34.8,35,51.9,52.2,17.4-17.3,35.1-34.8,52.5-52h0ZM-9.2,205.9c-17.7,17.6-35.4,35.1-53.1,52.7.2.2.4.7.8,1.1,16.4,16.5,32.9,33,49.3,49.5,2.4,2.4,3.8,1.4,5.7-.5,12-12.1,24-24,36.1-36.1,4.7-4.7,9.4-9.5,13.9-14.2-18-18-35.6-35.5-52.7-52.6h0ZM101.9,205.5c-17.5,17.5-35,35.1-52.4,52.4,17.6,17.6,35.1,35.2,52.1,52.3,17.5-17.4,35.2-34.9,52.6-52.2-17.4-17.4-34.9-35-52.3-52.5h0ZM-65.7,261.1c0,0-.7.3-1.1.7-16.6,16.6-33.2,33.2-49.8,49.7-1.8,1.8-1.7,3,0,4.7,4.8,4.7,9.5,9.5,14.3,14.3,12.1,12.1,24.2,24.3,35.9,36,18.2-18,35.9-35.6,53.3-52.8-17.3-17.3-34.9-34.9-52.7-52.7h0ZM54.1,268.3c-2.5-2.6-4.6-5.6-6.7-8.1-18.7,18.7-36.3,36.3-53.8,53.7,17.6,17.6,35.2,35.2,53,53,.3-.2.9-.6,1.4-1.1,16.3-16.3,32.5-32.6,48.9-48.8,2.3-2.3,2.1-3.8,0-6.1-14.3-14.1-28.5-28.3-42.7-42.6h0ZM-288,261.3c-17.4,17.4-35,35.1-52.6,52.7,17.4,17.4,35,35.1,52.5,52.5,17.5-17.5,35.2-35.2,52.6-52.6-17.5-17.5-35.1-35.2-52.5-52.6h0ZM-124.6,313.7c-17.2-17.3-34.8-35-52.2-52.4-17.5,17.5-35.1,35.2-52.6,52.7,17.5,17.4,35.1,35.1,52.2,52.1,17.6-17.5,35.4-35.2,52.7-52.4h0ZM209.6,314.1c-17.3-17.5-34.9-35.3-51.7-52.3-17.5,17.4-35.3,35-52.7,52.2,17.3,17.3,34.9,35,52,52.1,17.8-17.7,35.5-35.3,52.3-52h0ZM-9,316.3c-1.1.6-1.5.8-1.8,1.1-16.6,16.6-33.2,33.2-49.9,49.7-2.2,2.2-1.5,3.7.3,5.5,16.1,16,32.2,32.1,48.2,48.2,1.9,1.9,3.2,2,5.1.1,16-16.1,32.1-32.2,48.2-48.2,2.6-2.6,2-4.2-.3-6.4-10.3-10.1-20.4-20.3-30.5-30.4-6.4-6.4-12.8-12.9-19.2-19.5h0ZM212.9,316.7c-.6.5-1.4,1-2.1,1.7-16.2,16.2-32.3,32.4-48.6,48.5-2.2,2.2-1.7,3.5.2,5.4,16.3,16.3,32.6,32.6,48.9,48.8.6.6,1.4.9,2.1,1.3,17.7-17.8,35.1-35.3,52.5-52.8-17.6-17.6-35.2-35.2-53-53h0ZM-179.1,370.4c-18.4-18.4-35.9-36-53-53.1-17.5,17.5-35.2,35.1-53,52.8.1.2.4.7.8,1.1,16.5,16.5,33,33,49.4,49.6,2,2.1,3.4,1.4,5.1-.3,5.7-5.8,11.4-11.4,17.1-17.1,11.2-11,22.4-22,33.6-32.9h0ZM102.1,317.6c-17.5,17.3-35.2,34.7-52.4,51.7,17.5,17.5,35.1,35.2,52.2,52.4,17.4-17.3,35.1-34.8,52.3-51.9-17.5-17.6-35.2-35.3-52.1-52.2h0ZM-68.6,369.6c-17.5-17.5-35.1-35.1-52.3-52.2-17.5,17.4-35.2,35-52.6,52.3,17.4,17.5,35,35.2,52.3,52.6,17.5-17.5,35.1-35.1,52.6-52.6h0Z"/>
      <path class="cls-5" d="M43.9-67.6c1.8-1.8,3-1.5,4.7,0,14.8,14.9,29.6,29.7,44.5,44.5,1.5,1.5,2.5,2.6.5,4.7-15.4,15.3-30.7,30.7-46.1,46-.3.3-.7.4-1.8,1C33.9,16.8,22.2,5.1,10.6-6.7c-3.7-3.7-7.4-7.5-11.2-11.2-1.8-1.7-2.3-3-.3-5,15-14.9,29.9-29.8,44.8-44.8h0ZM68.3-20.6c-10-5-16.7-12.3-22.2-21.8-5.5,9.7-12.2,16.8-22.3,22,10.1,5.1,17.2,12.3,22.4,22.4,4.9-10.5,12.4-17.1,22-22.6h0Z"/>
      <path class="cls-8" d="M47.2-73.3c3.7,3.8,7.8,8.1,12,12.3,12.4,12.5,24.8,24.9,37.4,37.3,2.5,2.5,2.8,4,0,6.7C80.7-1.3,64.9,14.6,49.1,30.5c-.8.8-1.7,1.6-2.6,2.4C28.6,14.8,11-2.8-6.2-20.2c17.5-17.4,35.2-35,53.4-53.1ZM48.6-67.5c-1.7-1.7-2.9-2-4.7,0C29-52.7,14.1-37.7-.9-22.9c-2,2-1.6,3.3.3,5,3.8,3.6,7.5,7.4,11.2,11.2,11.7,11.7,23.3,23.5,35.1,35.3,1-.6,1.5-.7,1.8-1,15.4-15.3,30.7-30.7,46.1-46,2.1-2,1-3.2-.5-4.7-14.9-14.8-29.7-29.6-44.5-44.5h0Z"/>
      <path class="cls-8" d="M46.2-42.4c5.4,9.5,12.1,16.8,22.2,21.8-9.6,5.5-17.1,12.1-22,22.6-5.2-10.2-12.3-17.3-22.4-22.4,10-5.2,16.8-12.3,22.3-22h-.1Z"/>
      <path class="cls-8" d="M-12.4-15.5c.8-.8,1.8-1.4,2.8-2.2,1.1.8,2.1,1.5,2.9,2.3C9.3.7,25.4,16.7,41.5,32.8c2.1,2.1,1.8,3.5-.2,5.4-15.9,15.8-31.8,31.6-47.5,47.6-2.6,2.6-4.1,2.6-6.7,0-15.6-15.9-31.4-31.6-47.3-47.2-2.3-2.2-2.6-3.7-.2-6.1C-44.3,16.5-28.4.5-12.4-15.5ZM-6.4-11.1c-2.2-2.2-3.8-2.5-6.1-.1-14.5,14.7-29.2,29.3-43.8,43.8-2,2-2.2,3.3,0,5.4,14.8,14.6,29.5,29.4,44.1,44.1,1.9,1.9,3.3,2.3,5.4.2,14.7-14.9,29.6-29.7,44.4-44.5.7-.7,1.2-1.6,1.9-2.5-.9-1-1.5-2-2.3-2.8C22.5,17.9,8,3.4-6.4-11.1Z"/>
      <path class="cls-3" d="M99.7-12c.6-.6,1.3-1.1,2.2-1.7.9.7,1.8,1.2,2.5,1.9,14.9,14.9,29.9,29.9,44.8,44.8,1.5,1.5,1.7,2.8,0,4.4-15.1,15-30.1,30-45.1,45.1-2.4,2.4-3.8.7-5.4-.9l-34.5-34.5c-3.2-3.2-6.4-6.5-9.6-9.6-1.7-1.6-1.6-2.8,0-4.4,15.1-15,30.1-30,45.1-45h0ZM114.4,18.4c-2-4.2-5.9-6.3-11.2-6-5.6.4-8.4,3.8-10.2,8.8-.4,1.2-2.3,2.4-3.6,2.6-6.2.9-10.3,4.8-10.8,10.9-.4,5.3,3.6,11,9.3,11.6s5,2.2,6.1,5.3c1.6,4.5,6,7,10.7,6.8,4.5-.2,8.3-3.2,9.9-7.5,2.1-5.7-.3-10.1-4.2-14.2.2-.3.5-.6.7-.9,4.3,1.8,8.5,3.7,13.3,5.8v-10.4c0-.7,0-1.4-.2-2.3-4.5,2-8.6,3.9-12.6,5.8-.4-1.5-.3-1.9,0-2.2,4.1-4.1,5.2-8.7,2.7-14h0Z"/>
      <path class="cls-3" d="M-12.6-11.3c2.4-2.4,3.9-2.1,6.1.1C8,3.4,22.5,17.9,37,32.4c.8.8,1.5,1.7,2.3,2.8-.7,1-1.3,1.8-1.9,2.5-14.8,14.8-29.6,29.6-44.4,44.5-2.1,2.1-3.4,1.8-5.4-.2-14.6-14.8-29.3-29.5-44.1-44.1-2.1-2.1-1.9-3.4,0-5.4C-41.7,18-27.1,3.4-12.6-11.3ZM5.9,16.1c-3.4-4.2-11.1-5.3-15.6-1.6-7.7,6.5-15,13.5-23,20.8,8.2,7.4,15.7,14.8,23.9,21.3,4.8,3.8,11.6,1.9,15.2-3,3.1-4.2,2-9.6-3-13.9-1-.8-2.5-1-3.7-1.5.6-.7,1.2-1.5,1.9-2.2,1.9.8,3.9,1.5,5.7,2.6,1.8,1.1,3.4,2.6,5.7,4.3v-14.8c-3.8,2.1-7.3,4.1-10.8,6.1-.3-.5-.7-1-1-1.5.9-.7,1.8-1.4,2.7-2.2,4.6-4.5,5.5-10.4,2.1-14.6h0v.2Z"/>
      <path class="cls-5" d="M103.2,12.4c5.3-.3,9.2,1.7,11.2,6,2.5,5.3,1.4,10-2.7,14-.3.3-.4.7,0,2.2l-.4,1.2c-.2.3-.5.6-.7.9,3.9,4.1,6.4,8.5,4.2,14.2-1.6,4.3-5.5,7.3-9.9,7.5-4.7.2-9.1-2.3-10.7-6.8-1.1-3.1-2.3-4.9-6.1-5.3-5.7-.6-9.7-6.2-9.3-11.6.4-6.1,4.5-10,10.8-10.9,1.3-.2,3.2-1.4,3.6-2.6,1.8-5,4.6-8.5,10.2-8.8h-.2Z"/>
      <path class="cls-5" d="M-9.7,14.5c4.4-3.8,12.2-2.6,15.6,1.6,3.3,4.2,2.5,10.1-2.1,14.6-.8.8-1.8,1.5-2.7,2.2.3.5.7,1,1,1.5l-.6,1.7c-.6.7-1.2,1.5-1.9,2.2,1.3.5,2.8.6,3.7,1.5,5,4.3,6,9.7,3,13.9-3.6,4.9-10.4,6.8-15.2,3-8.2-6.5-15.7-13.9-23.9-21.3,8.1-7.3,15.3-14.3,23-20.8h0Z"/>
      <path class="cls-8" d="M101.8-17.2C119.3.2,136.9,17.8,154.4,35.2c-17.5,17.4-35.2,34.9-52.8,52.3-17.1-17.2-34.6-34.9-52-52.4C66.9,17.8,84.4.2,101.8-17.2ZM101.8-13.7c-.8.6-1.6,1.1-2.2,1.7-15,15-30.1,30-45.1,45s-1.7,2.8,0,4.4c3.3,3.1,6.4,6.4,9.6,9.6l34.5,34.5c11.5,11.5,3,3.4,5.4.9,15-15.1,30-30.1,45.1-45.1,1.7-1.6,1.5-2.9,0-4.4-14.9-14.9-29.9-29.9-44.8-44.8-.7-.7-1.6-1.2-2.5-1.8Z"/>
      <path class="cls-5" d="M12.9,28.3v14.8c-2.2-1.7-3.8-3.2-5.7-4.3-1.8-1.1-3.8-1.8-5.7-2.6l.6-1.7c3.5-2,7-4,10.8-6.1h0Z"/>
      <path class="cls-8" d="M46,37.8c.9.7,1.8,1.2,2.5,1.9,16.3,16.3,32.5,32.6,48.9,48.8,2,2,1.7,3.3,0,5.1-16.2,16.1-32.4,32.3-48.5,48.5-2.1,2.1-3.4,2-5.4,0C27.4,126,11.4,109.9-4.8,93.9c-2.1-2.1-2.4-3.5-.2-5.7,16.2-16.1,32.4-32.3,48.5-48.4.7-.7,1.6-1.2,2.5-1.9h0ZM48.7,44.1c-2.1-2.1-3.3-1.9-5.3,0C28.8,59,14,73.7-.8,88.4c-2.1,2.1-1.9,3.3,0,5.3,14.8,14.6,29.5,29.4,44.2,44.2,2.1,2.1,3.3,2,5.3,0,14.7-14.8,29.4-29.5,44.2-44.2.7-.7,1.3-1.5,2.1-2.5-.8-1-1.4-1.9-2.2-2.7-14.7-14.7-29.5-29.4-44.2-44.2v-.2Z"/>
      <path class="cls-5" d="M43.4,44.2c2-2,3.2-2.2,5.3,0,14.7,14.8,29.4,29.5,44.2,44.2.8.8,1.4,1.8,2.2,2.7-.8,1-1.4,1.8-2.1,2.5-14.7,14.7-29.5,29.4-44.2,44.2-2,2-3.2,2.2-5.3,0-14.6-14.8-29.4-29.5-44.2-44.2-2-2-2.2-3.2,0-5.3,14.8-14.6,29.5-29.4,44.2-44.2h0ZM55.4,74.2c-7.1-6-15.6-8.1-24.7-4.5-4,1.6-7.1,4.4-7.5,9-.4,4.5,2.1,7.4,5.7,9.7,1.2.7,2.3,1.6,4.1,2.8-1.8,1.1-3,1.8-4.2,2.6-3.3,2.2-5.9,4.9-5.7,9.2.3,4.6,3.1,8.1,7.2,9,4.8,1.2,10.3,2,15,.9,10.8-2.6,17.5-10.8,22.7-20.1.6-1.1.2-3.6-.6-4.7-3.8-4.8-7.4-10-12-13.9h0Z"/>
      <path class="cls-8" d="M30.7,69.7c9.1-3.6,17.6-1.6,24.7,4.5,4.6,3.9,8.2,9.1,12,13.9.9,1.1,1.3,3.6.6,4.7-5.2,9.3-11.8,17.5-22.7,20.1-4.7,1.1-10.1.3-15-.9-4.1-1-6.9-4.4-7.2-9-.3-4.3,2.3-7,5.7-9.2,1.2-.8,2.4-1.5,4.2-2.6-1.8-1.2-3-2-4.1-2.8-3.5-2.3-6.1-5.2-5.7-9.7.5-4.6,3.5-7.4,7.5-9h0Z"/>
      <path class="cls-8" d="M98.8,96c2-2,3.4-2.5,5.7-.2,16.1,16.3,32.3,32.4,48.5,48.6.7.7,1.3,1.6,1.8,2.2l-52.7,52.7c-17.5-17.6-35-35.3-53.4-53.9,6.4-6.1,13.3-12.6,20-19.3,10.1-10,20.1-20.1,30.1-30.2h0ZM105.4,100.7c-2.7-2.8-4.4-2.7-7.1,0-14.3,14.5-28.7,28.9-43.2,43.2-2.3,2.3-2,3.6,0,5.6,9,8.8,17.9,17.8,26.7,26.7,6.4,6.6,12.8,13.3,19,19.8,1.4-.8,2-1,2.4-1.4,15.3-15.2,30.5-30.5,45.8-45.7,2.1-2.1,1.1-3.4-.6-5.1-14.4-14.4-28.9-28.7-43.2-43.3h0v.2Z"/>
      <path class="cls-8" d="M-12.6,95.9c2.4-2.4,3.8-2,6.1.2,15.8,15.9,31.6,31.8,47.6,47.6,2.4,2.3,2.3,3.7,0,6-15.9,15.8-31.8,31.7-47.5,47.6-2.6,2.6-4.1,2.2-6.4-.2-15.8-15.9-31.7-31.8-47.5-47.7-.8-.8-1.4-1.8-2.2-2.8.8-1,1.3-1.8,2-2.5,16-16.1,32.1-32.1,48.1-48.3h-.2ZM-7,99.8c-.7-.7-1.5-1.3-2.6-2.1-1.1.9-2.1,1.7-3,2.6-14.4,14.4-28.7,28.9-43.2,43.2-2.7,2.7-2.5,4.2,0,6.7,14.4,14.2,28.7,28.5,42.9,42.9,2.7,2.8,4.3,2.3,6.7-.2,14.2-14.4,28.5-28.7,42.9-42.9,2.5-2.4,2.6-3.9,0-6.4-14.7-14.5-29.2-29.2-43.8-43.8h0Z"/>
      <path class="cls-3" d="M-9.6,97.7c1,.8,1.8,1.4,2.6,2.1,14.6,14.6,29.2,29.3,43.8,43.8,2.5,2.5,2.4,3.9,0,6.4-14.4,14.2-28.7,28.5-42.9,42.9-2.4,2.4-4,2.9-6.7.2-14.2-14.4-28.5-28.7-42.9-42.9-2.5-2.5-2.8-4,0-6.7,14.5-14.3,28.8-28.8,43.2-43.2.9-.9,1.9-1.7,3-2.6h0ZM2.3,128.8c-2.5-4.1-6.6-5.9-11.4-5-5.9,1.1-8.9,5.2-9.7,11.1-9,.8-13.5,4.3-13.8,10.7-.3,7,2.8,12,13.8,13,.9,5.4,3.4,9.7,9.3,10.8,4.9.9,9.2-.5,11.7-5,3.4-6,1.8-11.4-3-16.2.3-.3.5-.6.8-.9,4.3,1.9,8.5,3.8,12.8,5.6v-12.5c-4.6,2-8.7,3.9-12.9,5.7-.4-.3-.7-.6-1.1-.9,5.5-4.8,7.2-10.3,3.4-16.5h0Z"/>
      <path class="cls-3" d="M98.3,100.7c2.7-2.7,4.3-2.8,7.1,0,14.3,14.5,28.8,28.9,43.2,43.3,1.7,1.6,2.7,3,.6,5.1-15.3,15.2-30.5,30.5-45.8,45.7-.4.4-1,.6-2.4,1.4-6.3-6.5-12.6-13.2-19-19.8-8.8-9-17.7-17.9-26.7-26.7-2.1-2.1-2.4-3.4,0-5.6,14.5-14.3,28.9-28.7,43.2-43.2h0v-.2ZM118.4,129.6c-1.6-4-5.2-5.9-9.1-5.7-3.1.2-6.7,1.4-9.1,3.4-6.1,5-11.8,10.6-17.6,16-1.1,1.1-2.2,2.3-3.5,3.7,3.3,3.1,6.2,6,9.2,8.7,4.2,3.9,8.4,7.8,12.7,11.5,4.7,3.9,12.2,3.4,16-.8,3.9-4.4,3.1-10.4-2.1-15.1-.8-.8-2-1.2-3-1.8.5-.6.9-1.3,1.4-1.9,3.6,2,7.1,4,10.8,6.1v-14c-3.8,2.4-7.3,4.5-10.8,6.7-.3-.5-.6-.9-.9-1.4,1.3-1.3,2.8-2.5,4-3.8,3.1-3.4,3.6-7.3,2-11.5h0Z"/>
      <path class="cls-5" d="M-9.1,123.8c4.8-.9,8.8,1,11.4,5,3.8,6.1,2,11.7-3.4,16.5.4.3.7.6,1.1.9v1.2c-.2.3-.4.6-.7.9,4.7,4.8,6.4,10.2,3,16.2-2.5,4.5-6.8,5.9-11.7,5-5.8-1.1-8.4-5.4-9.3-10.8-11-1-14.1-5.9-13.8-13,.3-6.5,4.8-10,13.8-10.7.8-5.9,3.7-10,9.7-11.1h0Z"/>
      <path class="cls-5" d="M109.3,123.9c3.9-.2,7.5,1.7,9.1,5.7,1.6,4.1,1.1,8.1-2,11.5-1.2,1.4-2.7,2.6-4,3.8.3.5.6.9.9,1.4v1.2c-.5.6-1,1.3-1.4,1.9,1,.6,2.2,1,3,1.8,5.2,4.7,6,10.7,2.1,15.1-3.8,4.3-11.2,4.8-16,.8-4.4-3.7-8.5-7.6-12.7-11.5-3-2.8-5.9-5.6-9.2-8.7,1.3-1.4,2.4-2.6,3.5-3.7,5.8-5.4,11.4-11,17.6-16,2.4-1.9,6-3.2,9.1-3.4h0Z"/>
      <path class="cls-5" d="M12.8,140.4v12.5c-4.2-1.9-8.5-3.7-12.8-5.6v-1.2c4.1-1.8,8.2-3.7,12.8-5.7h0Z"/>
      <path class="cls-5" d="M42.7,156.5c1-1,2.1-2,3-2.8,16.3,16.5,32.5,32.8,48.4,48.8-15.8,15.6-32,31.8-48.7,48.3-.5-.5-1.7-1.5-2.8-2.6-14.1-14.1-28.1-28.3-42.4-42.2-3-2.9-2.7-4.5.2-7.2,14.3-14,28.3-28.1,42.4-42.2h-.1ZM68.4,202.4c-10-5.2-17.1-12.3-22.2-22.3-5.1,10.2-12.5,17-22.2,22.5,10.3,4.9,16.8,12.4,22.3,21.7,5.3-9.8,12.2-16.8,22.1-21.9Z"/>
      <path class="cls-8" d="M47.7,148.8c2.5,2.9,5.3,6.5,8.4,9.7,13.4,13.5,26.8,27.1,40.4,40.4,2.8,2.7,2.8,4.3,0,7-15.9,15.6-31.6,31.4-47.3,47.2-1.9,1.9-3.2,3-5.7.5-16.3-16.5-32.7-32.8-49-49.2-.5-.5-.9-1.1-1.2-1.5,17.9-17.8,35.6-35.4,54.4-54.1h0ZM45.7,153.7c-.9.8-1.9,1.8-3,2.8-14.1,14.1-28.1,28.3-42.4,42.2-2.8,2.8-3.2,4.3-.2,7.2,14.3,13.9,28.3,28.1,42.4,42.2,1.1,1.1,2.3,2.1,2.8,2.6,16.6-16.5,32.9-32.7,48.7-48.3-15.9-16.1-32.1-32.3-48.4-48.8h.1Z"/>
      <path class="cls-8" d="M46.2,180.1c5.2,10,12.3,17.1,22.2,22.3-9.9,5.2-16.8,12.1-22.1,21.9-5.5-9.4-12-16.8-22.3-21.7,9.7-5.5,17.1-12.3,22.2-22.5Z"/>
      <path class="cls-3" d="M101.8,209.3c.4-.3.8-.7,1.3-1,3.1,3.7,6.1,7.5,9.5,10.9,11.6,11.8,23.3,23.6,35.1,35.1,2.8,2.8,3.1,4.5.1,7.4-14.4,14.2-28.7,28.6-43,42.9-.9.9-2,1.6-3.7,3-7-7.2-13.7-14.3-20.6-21.3-8.4-8.6-16.9-17.1-25.5-25.5-1.6-1.6-2.8-2.8-.5-5,15.1-15,30.1-30,45.2-45.1.6-.6,1.4-1,2.1-1.5h0ZM114.3,241.1c-2.2-4.1-5.8-6.3-10.5-6-7,.4-10.1,5.1-11.3,11.2-9.7,1.5-14.1,5.3-13.9,12,.2,6.7,4.3,10.2,13.5,11.3,4,10.2,9.9,13.8,17.1,10.4,7-3.4,7.7-10.8,2.2-21.3,4.2,1.9,8.5,3.8,12.9,5.8v-12.6c-4.7,2.1-8.8,3.9-13,5.8-.2-.3-.5-.7-.7-1,4.4-4.5,6.8-9.4,3.6-15.4h0v-.2Z"/>
      <path class="cls-3" d="M-12.5,211.5c2.1-2.1,3.5-2.3,5.7,0,14.4,14.6,29,29,43.5,43.5.9.9,1.7,2,2.7,3.1-.9,1.1-1.5,2.1-2.3,2.9-14.7,14.7-29.4,29.4-44.1,44.2-2.1,2.1-3.5,1.8-5.4-.2-14.4-14.6-28.9-29.1-43.5-43.5-2.7-2.7-2.3-4.3.2-6.8,14.5-14.3,28.9-28.7,43.2-43.2h0ZM3,236.6c-4-2.5-10.2-1.8-14,1.6-5.5,4.9-10.8,9.9-16.2,14.8-1.8,1.6-3.8,3.1-5.8,4.8,2.6,2.4,4.3,4,6.1,5.6,5.7,5.2,11.3,10.7,17.3,15.6,4.7,3.8,12,2.6,15.5-1.6,3.4-4.2,2.6-9.9-2-14.5-1-.9-1.8-2-2.7-3,.3-.4.6-.8.9-1.2,3.5,2.2,7.1,4.4,10.8,6.7v-14.6c-3.8,2.3-7.4,4.6-11,6.8-.3-.5-.6-.9-.9-1.4,1.1-1.1,2.5-2,3.3-3.2,1.3-2,2.9-4.1,3.4-6.4,1-4.3-1-7.8-4.7-10.1h0Z"/>
      <path class="cls-5" d="M103.9,235.1c4.6-.3,8.3,1.9,10.5,6,3.2,6,.7,11-3.6,15.4.2.3.4.7.7,1v1.1c5.6,10.6,4.9,18-2.1,21.3-7.2,3.5-13.1-.1-17.1-10.4-9.2-1.2-13.3-4.6-13.5-11.3-.2-6.6,4.1-10.5,13.9-12,1.2-6.1,4.4-10.8,11.3-11.2h-.1Z"/>
      <path class="cls-5" d="M-11,238.2c3.8-3.4,10-4.1,14-1.6,3.7,2.3,5.6,5.8,4.7,10.1-.5,2.3-2,4.4-3.4,6.4-.8,1.3-2.2,2.2-3.3,3.2.3.5.6.9.9,1.4v1c-.2.4-.5.8-.8,1.2.9,1,1.7,2,2.7,3,4.7,4.6,5.5,10.3,2,14.5-3.5,4.3-10.8,5.4-15.5,1.6-6-4.8-11.6-10.3-17.3-15.6-1.7-1.6-3.4-3.2-6.1-5.6,2.1-1.7,4-3.2,5.8-4.8,5.4-4.9,10.8-10,16.2-14.8h0Z"/>
      <path class="cls-8" d="M-62.4,258.6c17.8-17.6,35.4-35.1,53.1-52.7,17.1,17,34.7,34.6,52.7,52.6-4.6,4.7-9.2,9.5-13.9,14.2-12,12-24.1,24-36.1,36.1-1.9,1.9-3.3,2.9-5.7.5-16.4-16.6-32.9-33-49.3-49.5-.4-.4-.7-.9-.8-1.1h0ZM-6.8,211.4c-2.2-2.2-3.6-2-5.7,0-14.3,14.5-28.7,28.9-43.2,43.2-2.5,2.5-2.9,4.1-.2,6.8,14.6,14.4,29.1,29,43.5,43.5,1.9,2,3.3,2.3,5.4.2,14.6-14.8,29.4-29.5,44.1-44.2.8-.8,1.4-1.8,2.3-2.9-1-1.2-1.7-2.2-2.7-3.1-14.5-14.5-29.1-29-43.5-43.5h0Z"/>
      <path class="cls-5" d="M12.9,250.8v14.6c-3.7-2.3-7.3-4.5-10.8-6.7v-1c3.5-2.3,7.1-4.5,10.8-6.8h0Z"/>
      <path class="cls-8" d="M49.5,257.9c17.4-17.4,35-35,52.4-52.4,17.4,17.5,35,35.1,52.3,52.5-17.4,17.2-35.1,34.8-52.6,52.2-17-17-34.5-34.6-52.1-52.3h0ZM103.1,208.3c-.4.3-.8.7-1.3,1-.7.5-1.5.9-2.1,1.5-15.1,15-30.1,30.1-45.2,45.1-2.2,2.2-1.1,3.4.5,5,8.5,8.5,17,17,25.5,25.5,6.9,7,13.6,14.1,20.6,21.3,1.7-1.4,2.8-2.1,3.7-3,14.3-14.3,28.5-28.7,43-42.9,3-2.9,2.7-4.6-.1-7.4-11.8-11.6-23.5-23.3-35.1-35.1-3.4-3.4-6.3-7.3-9.5-10.9h0Z"/>
      <path class="cls-5" d="M43.2,267.2c2.1-2.1,3.4-2.4,5.7-.1,14.6,14.8,29.4,29.5,44.1,44.2.7.7,1.3,1.5,2.1,2.4-.7.9-1.2,1.8-1.9,2.5-14.8,14.8-29.7,29.6-44.4,44.5-2.1,2.1-3.4,1.9-5.4-.1-14.6-14.8-29.4-29.5-44.2-44.2-2.2-2.2-1.8-3.4.2-5.3,14.7-14.6,29.3-29.2,43.8-43.9h0ZM52,294.6c-7.6-4.2-15.5-5.5-23.4-.9-7,4-7.4,11.6-1.1,16.6,1.5,1.2,3.1,2.1,5.2,3.6-2,1.4-3.5,2.3-4.9,3.4-6.6,5.1-6.5,13,.9,16.7,3.8,1.9,8.8,2.9,13,2.4,12.9-1.4,20.3-10.5,26.4-21,.5-.9.3-2.7-.2-3.6-3.9-7-8.8-13.2-15.9-17.2h0Z"/>
      <path class="cls-8" d="M47.5,260.2c2,2.5,4.1,5.5,6.7,8.1,14.2,14.3,28.4,28.5,42.7,42.6,2.3,2.3,2.5,3.8,0,6.1-16.3,16.2-32.6,32.5-48.9,48.8-.5.5-1.1.9-1.4,1.1-17.8-17.8-35.4-35.4-53-53,17.4-17.4,35-35,53.8-53.7h0ZM48.8,267.1c-2.3-2.3-3.6-2-5.7.1-14.5,14.7-29.2,29.3-43.8,43.9-1.9,1.9-2.4,3.2-.2,5.3,14.8,14.6,29.5,29.4,44.2,44.2,2,2,3.3,2.2,5.4.1,14.8-14.9,29.6-29.7,44.4-44.5.7-.7,1.2-1.6,1.9-2.5-.8-.9-1.4-1.8-2.1-2.4-14.7-14.7-29.5-29.4-44.1-44.2h0Z"/>
      <path class="cls-8" d="M28.6,293.7c7.9-4.5,15.8-3.3,23.4.9,7.1,4,12,10.2,15.9,17.2.6,1,.8,2.7.2,3.6-6,10.4-13.5,19.6-26.4,21-4.2.5-9.2-.5-13-2.4-7.4-3.7-7.5-11.6-.9-16.7,1.4-1.1,2.8-2,4.9-3.4-2.1-1.5-3.7-2.5-5.2-3.6-6.3-5-6-12.6,1.1-16.6h0Z"/>
    </g>
  </g>
  <path class="cls-6" d="M25,134.5c-.7.2-1.3.2-2,.4,5.8-7,8.8-14.8,8.3-23.8s-4.4-16.4-11.3-22.2c-5.6-4.7-12.6-7.1-19.7-7v127.6h14.9c4.9,0,1.6,0,2.5,0,1.2-.1,1.5-1,.9-2-.3-.4-.6-.8-.9-1.1-1.6-1.5-3.3-2.8-4.7-4.5-6.1-7.4-8.7-15.9-8.4-25.4,0-.5.3-.9.5-1.4.4.4.8.7,1.1,1.1,1.5,2.5,2.5,5.4,4.4,7.4,13.9,15,34.5,11.8,45.4-2.2,6.5-8.5,7.7-18,4.2-28.1-4.9-14.2-20.8-22.6-35.2-18.8h0Z"/>
</svg>