<?xml version="1.0" encoding="UTF-8"?>
<svg id="Layer_1" data-name="Layer 1" xmlns="http://www.w3.org/2000/svg" xmlns:xlink="http://www.w3.org/1999/xlink" version="1.1" viewBox="0 0 142.4 120.8">
  <defs>
    <style>
      .cls-1 {
        fill: #95c344;
      }

      .cls-1, .cls-2, .cls-3, .cls-4, .cls-5, .cls-6, .cls-7, .cls-8, .cls-9 {
        stroke-width: 0px;
      }

      .cls-10 {
        clip-path: url(#clippath);
      }

      .cls-2 {
        fill: none;
      }

      .cls-3 {
        fill: #79c258;
      }

      .cls-4 {
        fill: #f9ef5e;
      }

      .cls-5 {
        fill: #aba342;
      }

      .cls-6 {
        fill: #9db93e;
      }

      .cls-7 {
        fill: #7a6729;
      }

      .cls-8 {
        fill: #aed256;
      }

      .cls-9 {
        fill: #a59e37;
      }
    </style>
    <clipPath id="clippath">
      <rect class="cls-2" x="12.6" y="7.3" width="111.9" height="103.2"/>
    </clipPath>
  </defs>
  <g class="cls-10">
    <g>
      <path class="cls-6" d="M286.2,106v2.6c-6.8-6.7-13.6-13.4-19.9-19.7-.4-.4-.7-.7-1.1-1.1-10.7,10.6-21.1,21-31.3,31.2,10.1,10.2,20.5,20.6,31.2,31.3.4-.4.8-.9,1.2-1.3l1,1h0c-1,1-1,1.7-.4,2.5l-.9.9c-.2-.3-.4-.5-.6-.8-11,11-21.5,21.4-32.5,32.5,2.9,2.6,5.8,5.3,8.7,7.9h-2.6c-2.3-2.5-4.6-4.9-6.9-7.3-2.8,2.7-5.2,5-7.6,7.3h-2.1c2.7-2.9,5.3-5.8,7.9-8.6-10.5-10.5-20.9-20.9-30.9-30.9-10.4,10.3-20.8,20.7-31.3,31.2,2.4,2.7,5.1,5.5,7.7,8.3h-2.1c-2.4-2.5-4.8-4.9-7.4-7.6-2.6,2.8-4.9,5.2-7.2,7.6h-2.6c2.8-2.9,5.6-5.7,8.1-8.4-10.6-10.7-21-21.1-31.1-31.3-.5.5-1,1-1.5,1.5-9.9,9.8-19.8,19.8-30.4,30.4,2.8,2.5,5.8,5.1,8.7,7.8h-2.6c-2.3-2.4-4.6-4.8-6.8-7.1-.6.2-.9.3-1,.4-2.3,2.2-4.5,4.5-6.7,6.7h-2.1c2.6-2.9,5.3-5.8,7.7-8.4-10.5-10.5-20.8-20.9-31.3-31.3,0,0-.4.2-.6.4-9.8,9.8-19.5,19.6-29.4,29.3-1,1-1,1.7,0,2.8,2.4,2.4,4.6,4.8,6.9,7.3h-2.1c-2-2-3.9-4.1-6-6-.5-.5-2-.7-2.4-.3-2.1,2-4.1,4.2-6,6.3h-2.6c2.7-2.8,5.5-5.7,8.1-8.4-10.6-10.5-21-20.9-31.2-31.1-10.3,10.2-20.7,20.6-31.8,31.7,2.8,2.5,5.8,5.2,8.7,7.8h-2.6c-2.3-2.5-4.7-4.9-7-7.4-2.7,2.7-5.1,5.1-7.5,7.4h-2.1c2.7-2.9,5.3-5.8,7.8-8.5-10.5-10.5-20.9-20.9-31.2-31.1-10.2,10.2-20.6,20.6-31.2,31.1,2.6,2.8,5.2,5.6,7.9,8.5h-2.1c-2.4-2.4-4.9-4.8-7.5-7.5-2.4,2.6-4.7,5-7,7.5h-2.6c2.8-2.9,5.6-5.7,8-8.3-10.7-10.7-21-21.1-32-32.1-.3.4-.6.9-1,1.4l-.9-.9h0c1.2-1.2,1.2-2,0-3.2-3.5-3.4-7-6.9-10.5-10.3v-2.1c3.9,3.7,7.9,7.5,11.6,11,.5.4.9.9,1.3,1.3,10.6-10.5,21-20.9,31.2-31-10.3-10.3-20.7-20.7-31.7-31.8-4,4.3-8.2,8.7-12.4,13.2v-2.6c3.7-4,7.5-8.1,11.4-12.4-3.5-3.4-7.5-7.2-11.4-11v-2.6c4.3,4.3,8.7,8.6,13,12.9.6-.4,1-.6,1.2-.9,9.7-9.7,19.4-19.4,29.1-29.1,1.6-1.6.5-2.3-.5-3.3-8.9-8.9-17.8-17.8-26.7-26.7-1-.9-2-1.8-3.1-2.9-1,1-1.8,1.7-2.6,2.5-3.5,3.4-7,6.8-10.6,10.2v-2.1c3.4-3.4,6.8-6.8,10.2-10.2,1.4-1.3,1.4-2.2,0-3.6-3.5-3.3-6.8-6.8-10.3-10.1v-2.1c4.4,4.2,8.8,8.4,12.8,12.2.8-.8,1.7-1.7,2.5-2.5,9.8-9.7,19.3-19.2,28.8-28.6-10.3-10.2-20.6-20.6-31.2-31.2-4.2,4.1-8.5,8.4-12.9,12.7v-2.6c3.7-4.1,7.4-8.1,10.7-11.7-3.2-3.5-6.9-7.6-10.7-11.6v-2.6c4.2,4.5,8.3,9,12.3,13.3,11.1-11.2,21.5-21.6,31.7-31.8-10.2-10.2-20.6-20.7-31.1-31.2-.6.6-1.4,1.2-2.1,2-3.6,3.4-7.2,6.9-10.8,10.4v-2.1c3.4-3.4,6.8-6.8,10.3-10.2,1.3-1.3,1.4-2.3,0-3.6-3.5-3.3-6.9-6.7-10.3-10.1v-2.1c3.9,3.7,7.8,7.4,11.6,11,.5.4.9.9,1.4,1.3,10.6-10.6,21-20.9,31.2-31.1-10.3-10.3-20.7-20.7-31.8-31.9-4,4.3-8.2,8.8-12.3,13.3v-2.6c3.7-4,7.4-8.1,11.3-12.2-1.4-1.5-3.3-3.5-5.1-5.4h2.6c3.5,5.2,4.2,5.3,8.3.9.2-.2.4-.6.5-.9h2.6c-1.8,2-3.6,3.9-5.5,5.9.5.6.9,1.2,1.3,1.7,9.5,9.5,18.9,18.9,28.3,28.4,1.4,1.4,2.1,1.1,3.3-.1,5.2-5.3,10.5-10.5,15.7-15.7,4.7-4.6,9.4-9.1,14.1-13.8-2.1-2.4-3.8-4.4-5.5-6.3h2.1c3,3.3,6.1,3.4,9.2.2,0,0,.1-.1.2-.2h2.1c-1.7,2-3.4,4-4.9,5.6,10.5,10.5,20.8,20.9,31,31.1,10.2-10.2,20.5-20.6,31-31.1-1.6-1.8-3.5-3.7-5.3-5.7h2.6c1.2,1.3,2.2,2.6,3.5,3.7.4.3,1.6.4,1.9,0,1.2-1.1,2.3-2.5,3.4-3.8h2.6c-1.8,1.9-3.6,3.9-5.3,5.7,10.5,10.5,20.9,20.8,31.4,31.3,0,0,.4-.1.6-.3,9.8-9.8,19.7-19.7,29.5-29.5,1-1,.8-1.7,0-2.6-1.4-1.5-2.8-3-4.2-4.5h2.1c5.7,5.8,3.8,5.4,9.2.2,0,0,.1-.1.2-.2h2.1c-.9,1.1-1.8,2.2-2.9,3.3-2.7,2.6-2.7,2.6-.1,5.2,7.9,7.9,15.8,15.8,23.6,23.6,1.8,1.7,3.6,3.5,5.2,5,9.7-9.6,19.1-19.1,28.7-28.7.9-.9,1.8-1.8,2.7-2.7-1.7-1.8-3.5-3.7-5.3-5.7h2.6c3.5,5.2,4.3,5.3,8.3.9.2-.2.3-.6.5-.9h2.6c-1.8,1.9-3.6,3.9-5.2,5.6.8.8,1.5,1.5,2.3,2.3,9.7,9.7,19.3,19.4,28.8,29,10.2-10.2,20.5-20.6,31-31.1-1.6-1.8-3.3-3.8-5.1-5.8h2.1c5.7,5.8,3.8,5.3,9.2.2,0,0,.1-.1.2-.2h2.1c-1.7,2-3.4,4-5.2,6,.5.6.8,1,1.2,1.5,9.5,9.5,19.1,19,28.5,28.6,1.6,1.7,2.5.6,3.5-.5,9.3-9.3,18.5-18.6,27.8-27.8.5-.5,1-1.1,1.6-1.8-1.9-2.1-3.7-4-5.5-6h2.6c1.2,1.3,2.2,2.6,3.5,3.7.4.3,1.5.3,1.9,0,1.2-1.1,2.3-2.5,3.4-3.7h2.6c-1.8,1.9-3.7,3.9-6.1,6.5.2.2.5.4.7.5l-.9.9h-.1c-10.7,10.5-21.1,20.8-31.4,31,10.2,10.2,20.5,20.6,31,31.1.4-.4.9-.8,1.3-1.2.2-.1.3-.3.5-.4,3.9-3.9,7.8-7.8,11.8-11.7,2.6-2.5,5.2-4.9,7.9-7.4v2.1c-6.2,6.2-12.5,12.4-18.8,18.6-1.4,1.4-.9,2.3.2,3.4,6.2,6.1,12.4,12.3,18.6,18.5v2.1c-.7-.5-1.4-1-2-1.6-5.6-5.6-11.2-11.2-16.9-16.9-.8-.8-1.7-1.6-2.4-2.2-10.6,10.6-21,21-31.1,31.1,10.3,10.3,20.6,20.7,31.7,31.8,0,0,0,0,.1-.1l.8.8c0,0,0,.3,0,.5-.2.2-.4.4-.6.6.6.5,1.2.9,1.9,1.4l-1,1h0c-1.4-1.5-2.3-1.5-3.7,0-9.3,9.4-18.6,18.8-28.1,28-1.5,1.5-1.3,2.4.1,3.7h0c9.2,9.2,18.4,18.5,27.6,27.7.6.6,1.3,1.1,2.1,1.9,7.2-7.2,14.4-14.3,21.5-21.5V.1c-6.2,6.2-12.3,12.4-18.5,18.5-1.4,1.3-1.4,2.2,0,3.6,6.2,6.1,12.4,12.3,18.5,18.5v2.6c-7.1-7.1-14.2-14.3-20.9-21-.4.4-.8.8-1.2,1.2-10.3,10.2-20.3,20.2-30.2,29.9,10.2,10.2,20.6,20.5,31.1,31.1,6.9-6.9,14-13.9,21.1-21v2.6c-.7.5-1.4,1-2,1.6-5.3,5.2-10.5,10.5-15.7,15.7-2.6,2.6-2.6,2.6,0,5.3,5.9,5.8,11.8,11.6,17.6,17.4h0ZM261.9,21.9c1.2-1.2,1.1-2.1,0-3.2-9.4-9.4-18.8-18.8-28.2-28.2-1.4-1.4-2.3-1.3-3.6,0-4,4.2-8.2,8.2-12.3,12.3-5.7,5.7-11.5,11.4-17.3,17.2.3.6.4.9.6,1,9.8,9.8,19.6,19.5,29.3,29.4,1.3,1.3,2.2.9,3.2-.1,9.4-9.5,18.9-19,28.4-28.4ZM231.8,116.8c10.3-10.3,20.7-20.6,31-30.9-10.3-10.3-20.6-20.6-30.6-30.6-10.4,10.3-20.8,20.7-30.8,30.6,10.1,10.2,20.4,20.7,30.5,30.9h0ZM262.5-111.2c-10.1-10.1-20.4-20.4-30.6-30.6-10.2,10.3-20.5,20.7-30.8,31.1,10.1,10.1,20.4,20.5,30.4,30.6,10.3-10.3,20.7-20.8,31-31h0ZM231.9-14.4c10.2-10.2,20.6-20.6,30.5-30.6-10.3-10.4-20.6-20.9-30.6-31-10.3,10.2-20.6,20.5-30.8,30.7,10.2,10.3,20.6,20.6,30.9,30.9h0ZM231.8,182.5c10.3-10.2,20.6-20.6,30.9-30.7-10.4-10.4-20.7-20.8-30.8-30.9-10.3,10.2-20.7,20.6-30.8,30.7,10.2,10.3,20.5,20.7,30.7,30.9h0ZM230.1-12.7c-.2-.3-.5-.7-.8-1.1-9.6-9.6-19.2-19.2-28.7-28.8-1.4-1.4-2.2-1-3.4.2-6,6-11.9,12-17.9,18-3.9,3.9-7.9,7.6-11.6,11.2,10.9,10.9,21.3,21.2,31.5,31.4,10.1-10.1,20.5-20.4,31-30.9h0ZM223,60.8c2.5-2.5,4.9-5,7.2-7.2-10.6-10.6-20.9-21-31-31.1-10.3,10.3-20.8,20.7-31.3,31.2,0,.1.3.5.6.8,9.6,9.6,19.2,19.1,28.7,28.8,1.4,1.4,2.3,1.1,3.6-.2,7.3-7.4,14.7-14.8,22.1-22.2h0ZM229.7-78c-10.2-10.3-20.7-20.7-30.6-30.7-10.2,10.1-20.7,20.5-30.8,30.6,10.2,10.3,20.5,20.7,30.7,31,10.3-10.3,20.7-20.8,30.7-30.8h0ZM198.8,149.6c10.4-10.3,20.8-20.7,30.8-30.6-10.3-10.3-20.6-20.7-30.9-31-10.2,10.2-20.6,20.5-30.8,30.8,10.3,10.3,20.8,20.7,30.9,30.8h0ZM199.1-112.6c10.2-10.3,20.6-20.7,30.9-31-10.3-10.3-20.7-20.7-30.9-30.9-10.3,10.3-20.7,20.7-31,30.9,10.2,10.3,20.6,20.7,31,31ZM197.9,20.7c-1.1-1.2-1.8-2-2.5-2.7-9-9-18.1-18-27.1-27.2-1.6-1.6-2.5-1.6-4.1,0-9.2,9.4-18.5,18.6-27.8,27.8-1.3,1.3-1.4,2.1,0,3.3,9.4,9.4,18.9,18.7,28.2,28.2,1.5,1.5,2.4,1.3,3.8-.1,5.1-5.2,10.2-10.3,15.4-15.4,4.7-4.6,9.4-9.2,14.3-14h0ZM197.3-111.2c-.2-.3-.6-.8-1-1.2-9.5-9.6-19.1-19.1-28.5-28.7-1.4-1.5-2.2-.9-3.4.3-9.3,9.4-18.7,18.8-28.1,28-1.4,1.4-1.3,2.2,0,3.6,9.4,9.3,18.7,18.7,28.1,28,.5.5,1.2,1,1.6,1.3,10.5-10.5,20.8-20.9,31.3-31.4h0ZM196.9,152c-10.4-10.4-20.7-20.8-31.1-31.3.1,0,0,0-.1,0-9.8,9.8-19.6,19.5-29.4,29.2-1.5,1.5-.8,2.3.3,3.4,9.4,9.3,18.7,18.7,28.1,28.1.5.5,1.1.9,1.7,1.4,10.5-10.5,20.7-20.8,30.7-30.8h0ZM197-45.4c-10.2-10.2-20.5-20.6-30.6-30.9-10.3,10.4-20.7,20.8-30.9,30.9,10.2,10.2,20.5,20.6,30.7,30.8,10.3-10.3,20.7-20.7,30.8-30.8h0ZM197,85.9c-10.2-10.2-20.5-20.6-30.7-30.8-10.3,10.3-20.7,20.7-30.7,30.6,10.2,10.3,20.5,20.7,30.7,31,10.2-10.2,20.6-20.6,30.8-30.8h0ZM164.5-12.7c0-.1-.2-.5-.5-.7-9.8-9.8-19.6-19.5-29.3-29.4-1.4-1.4-2.2-.6-3.1.4-5.1,5.1-10.2,10.3-15.4,15.4-4.8,4.7-9.6,9.4-14.3,14.1,10.7,10.6,21.1,21,31.3,31.2,10.3-10.3,20.7-20.6,31.2-31h0ZM163.6,120.2c1.5-1.5.6-2.3-.4-3.4-9.2-9.2-18.4-18.4-27.7-27.6-.6-.6-1.4-1.2-1.6-1.4l-31.2,31.2c10.1,10.2,20.4,20.6,30.8,31,.2-.1.5-.3.8-.5,9.8-9.8,19.5-19.6,29.3-29.3h0ZM157.3,60.9c2.5-2.5,5-4.9,7.2-7.1-10.7-10.8-21.1-21.2-31.3-31.5-10.2,10.2-20.6,20.5-31.2,31,.5.5.9,1.1,1.4,1.5,9.3,9.3,18.7,18.7,28,28.1,1.6,1.6,2.5,1.4,3.9,0,7.3-7.4,14.6-14.7,22-22h0ZM133.3-47.3c10.3-10.3,20.7-20.7,31-31-10.2-10.2-20.5-20.5-30.7-30.8-10.3,10.4-20.7,20.8-30.9,31,10.2,10.2,20.6,20.6,30.6,30.8h0ZM164.3-144c-10.2-10.2-20.6-20.6-30.8-30.8-10.3,10.3-20.8,20.8-30.9,30.9,10.4,10.4,20.7,20.8,30.7,30.8,10.3-10.2,20.7-20.6,31-30.9h0ZM130.5-109.2c1.6-1.6,1-2.5-.3-3.8-9.3-9.3-18.6-18.5-27.9-27.8-.5-.5-1.1-.9-1.7-1.4-.5.3-.8.5-1,.7-9.7,9.7-19.4,19.5-29.2,29.1-1.5,1.5-.7,2.3.4,3.3,7.9,7.9,15.8,15.7,23.6,23.6,1.9,2,3.7,4.1,5.5,6.2,1-.7,1.3-.9,1.5-1,9.7-9.6,19.3-19.3,29-28.9h0ZM131.8,20.3c-.5-.6-.8-1.2-1.3-1.7C121.1,9.3,111.6-.1,102.3-9.6c-1.4-1.4-2.3-1.2-3.6.1C89.5-.1,80.2,9.2,70.9,18.4c-1.5,1.5-1.5,2.4,0,3.9,9.4,9.3,18.7,18.6,28,28,1.1,1.1,1.9,1.4,3.2.1,9.4-9.5,18.9-18.9,28.4-28.4.5-.5.8-1.1,1.3-1.7h0ZM130.3,153.5c1.4-1.4,1.5-2.4,0-3.8-6-5.9-11.9-11.8-17.8-17.7-3.9-3.9-7.5-8-11.4-12.1-1.2,1-1.6,1.2-1.9,1.5-9.6,9.6-19.2,19.2-28.8,28.7-1.4,1.4-.9,2.2.2,3.4,8.1,8.1,16.2,16.3,24.4,24.4,1.7,1.7,3.6,3.4,5.4,5.2.6-.5,1.1-.7,1.4-1.1,9.5-9.5,18.9-18.9,28.4-28.4h0ZM99.8-13.7c11.1-11,21.4-21.4,31.7-31.6-10.3-10.2-20.7-20.6-31.2-31-.1,0-.6.3-.9.7-9.7,9.6-19.3,19.3-29,28.9-1.4,1.4-.6,2.2.4,3.2,7.2,7.2,14.5,14.4,21.6,21.6,2.7,2.7,5.1,5.6,7.4,8.2h0ZM100.6,116.9c10.3-10.3,20.6-20.7,30.9-31-10.3-10.2-20.6-20.6-30.8-30.7-10.3,10.2-20.7,20.5-30.9,30.6,10.3,10.3,20.6,20.8,30.8,31.1ZM99.1-12.4c-.4-.5-.7-1-1.1-1.4-1.3-1.4-2.7-2.7-4-4-8.1-8.1-16.3-16.2-24.3-24.4-1.2-1.3-2.1-1.6-3.6-.2-9.3,9.5-18.8,18.8-28.2,28.2-1,1-1.8,1.7-.4,3.1,9.7,9.6,19.3,19.3,28.9,28.9,1,1,1.8,1,2.8,0,9.6-9.6,19.1-19.2,28.7-28.8.4-.4.7-.9,1.2-1.5h0ZM99.1,53.1c-.4-.5-.7-1-1.2-1.5-9.5-9.5-19.1-19-28.5-28.6-1.3-1.3-2.1-1.1-3.4,0-9.4,9.5-18.9,19-28.4,28.4-1.2,1.2-1.2,2,0,3.2,9.6,9.5,19.1,19,28.6,28.6,1.1,1.1,1.8,1.2,3,0,9.6-9.6,19.2-19.2,28.7-28.8.4-.4.7-.9,1.1-1.5ZM98-76.7c1.2-1.2.9-2-.2-3-9.6-9.5-19.1-19-28.6-28.6-1.1-1.1-1.9-1.1-3,0-9.5,9.6-19,19.1-28.6,28.6-1.2,1.2-1.2,2,0,3.2,2.8,2.7,5.5,5.5,8.3,8.2,7.1,7.2,14.2,14.3,21.5,21.6.7-.4,1-.6,1.2-.8,9.8-9.8,19.6-19.5,29.4-29.3ZM97.5-141.9c.5-.5,1-1.1,1.4-1.6-10.5-10.5-20.9-20.9-31.2-31.2-10.3,10.2-20.6,20.6-31.2,31.1.7.8,1.4,1.5,2,2.1,9.1,9.1,18.2,18.2,27.3,27.4,1.7,1.7,2.6,1.4,4.1-.1,9.2-9.3,18.4-18.5,27.7-27.7h0ZM97.3,120.9c.6-.6,1.2-1.4,1.6-1.8-10.6-10.6-20.9-21-31.2-31.2-10.2,10.3-20.6,20.6-31.1,31.2.3.4.6.8,1,1.2,9.6,9.6,19.2,19.2,28.7,28.8,1.5,1.5,2.3.7,3.3-.4,9.2-9.2,18.4-18.5,27.7-27.7h0ZM65,153.2c1.7-1.7.5-2.5-.5-3.5-9.2-9.2-18.5-18.4-27.6-27.7-1.5-1.6-2.4-1.5-3.9,0-9.1,9.2-18.2,18.4-27.5,27.5-1.7,1.6-1.8,2.6,0,4.4,6.4,6.3,12.7,12.7,19.1,19,3.4,3.4,6.8,6.8,10.3,10.2.6-.4.9-.6,1.2-.9,9.7-9.6,19.3-19.3,29-28.9h0ZM64.9,87.6c1.4-1.4,1.1-2.2-.1-3.4-6-5.9-11.9-11.8-17.8-17.7-3.9-4-7.8-8-11.4-11.8-10.9,10.8-21.4,21.2-31.7,31.5,10.3,10.3,20.6,20.6,31.1,31,.4-.3.9-.6,1.3-1,9.5-9.5,19-19.1,28.6-28.5ZM64.8,22.2c1.3-1.3,1.5-2.2.1-3.6C55.4,9.2,45.9-.3,36.5-9.7c-.4-.4-.9-.7-1.5-1.2-.6.5-1.2.8-1.7,1.3C24-.3,14.7,9.1,5.3,18.4c-1.4,1.4-1.6,2.3,0,3.8,9.4,9.3,18.8,18.6,28.1,28,1.3,1.3,2.2,1.4,3.5,0,9.3-9.4,18.6-18.7,28-28ZM64.5-43.2c1.6-1.6,1.7-2.5,0-4.1-8.1-8-16.2-16.1-24.2-24.2-1.7-1.7-3.5-3.4-5.3-5.2-.5.4-.8.6-1.1.9-9.7,9.6-19.3,19.3-29,28.9-1.4,1.4-1,2.2.1,3.4,4.4,4.3,8.7,8.6,13,13,5.5,5.5,10.9,11.1,16.6,16.9,1.1-1,1.9-1.7,2.6-2.4,9-9,18-18.1,27.1-27.1h0ZM64.4-108.7c1.7-1.7,1.8-2.6,0-4.3-6.4-6.2-12.6-12.5-18.9-18.9-3.4-3.5-6.7-7.1-10.1-10.7-.2.2-.4.3-.7.5-.3.2-.7.4-1,.7-9.6,9.6-19.2,19.2-28.8,28.7-1.6,1.6-.9,2.6.3,3.8,8.8,8.8,17.6,17.6,26.4,26.4,1,1,2.1,2,3.2,3,.7-.6,1.2-1.1,1.7-1.6,9.2-9.2,18.4-18.5,27.7-27.6h0ZM33.4-12.7c-.3-.4-.6-.8-1-1.2-9.4-9.4-18.9-18.8-28.2-28.3-1.6-1.7-2.6-1.5-4.1,0-9.2,9.3-18.4,18.5-27.7,27.7-.5.5-1,1.1-1.3,1.4C-18.4-2.4-8,8.1,2.3,18.4,12.5,8.2,22.8-2.2,33.4-12.7ZM28,59c1.9-1.9,4-3.5,5.7-5C22.7,43,12.3,32.6,1.9,22c-.2.2-.6.4-.9.7-9.7,9.6-19.3,19.3-29,28.9-1.5,1.4-.8,2.2.3,3.3C-18.4,64.2-9.1,73.5.1,82.8c1.6,1.6,2.5,1.6,4.1,0,7.9-8,15.8-15.9,23.8-23.8ZM2.1-47.1c10.2-10.2,20.6-20.7,30.5-30.6-10.2-10.4-20.6-20.9-30.8-31.2-10.2,10.2-20.5,20.5-30.7,30.7,10.3,10.3,20.7,20.7,31,31ZM2.3-112.8c10.2-10.2,20.5-20.6,30.6-30.7-10.4-10.4-20.8-20.8-30.8-30.8-10.2,10.1-20.6,20.5-30.8,30.6,10.2,10.2,20.6,20.6,30.9,30.9h0ZM32.8,118.9c-10.3-10.3-20.6-20.7-30.7-30.8-10.3,10.2-20.7,20.6-31,30.8,10.2,10.2,20.6,20.5,30.7,30.7,10.4-10.4,20.9-20.7,31-30.8ZM-.5-109.5c1.4-1.4.6-2.2-.4-3.2-9.4-9.3-18.7-18.7-28-28.1-1.3-1.4-2.2-1.4-3.5,0-9.3,9.4-18.7,18.7-28,28.1-.5.5-1,1.2-1.4,1.6,10.5,10.5,20.8,20.9,31.2,31.3.2-.1.4-.2.5-.3,9.9-9.8,19.7-19.7,29.6-29.4h0ZM-1,153.5c1.6-1.6,1.3-2.5-.1-3.9-9.2-9.1-18.4-18.3-27.5-27.5-.6-.6-1.4-1.2-2-1.8-10.5,10.5-20.8,20.8-31.1,31,10.4,10.5,20.8,20.9,31.2,31.4.5-.4,1.1-.9,1.6-1.4,9.3-9.3,18.5-18.6,27.9-27.8h0ZM-30.7-14.4C-20.4-24.7-10-35,.3-45.3c-10.3-10.2-20.7-20.5-30.9-30.7-10.2,10.2-20.6,20.5-30.7,30.6,10.2,10.3,20.5,20.7,30.7,30.9h0ZM.1,20.6C-10.3,10.1-20.6-.3-30.9-10.7c-.1,0-.4.2-.7.5C-41.3-.6-51,9.2-60.8,18.8c-1.4,1.4-.8,2.2.3,3.4,7.1,7.1,14.2,14.2,21.2,21.2,2.8,2.8,5.6,5.5,8.4,8.2C-20.3,41-9.9,30.6.1,20.6ZM.3,86c-10.3-10.3-20.6-20.6-30.9-30.9-10.4,10.3-20.7,20.7-30.8,30.7,10.2,10.3,20.6,20.8,30.7,31,10.3-10.2,20.6-20.6,30.9-30.8h0ZM-32.4-12.7c0,0-.2-.4-.4-.6-9.8-9.8-19.5-19.6-29.3-29.4-1-1-1.8-1-2.8,0-2.8,2.8-5.6,5.6-8.4,8.4-7.2,7.1-14.3,14.3-21.2,21.2,10.6,10.7,21,21.2,31.1,31.4,10.2-10.2,20.6-20.6,31-31h0ZM-36.6,57.9c1.5-1.5,3.3-2.7,4.8-3.9-11-11-21.4-21.4-31.6-31.7-10.4,10.4-20.8,20.7-31.2,31.2.1.2.4.5.7.8,9.6,9.6,19.2,19.2,28.7,28.8,1.4,1.4,2.3,1.3,3.6,0,8.3-8.4,16.7-16.8,25.1-25.1h0ZM-63.7,149.5c10.3-10.2,20.8-20.5,30.8-30.4-10.3-10.3-20.6-20.8-30.8-31-10.2,10.2-20.6,20.6-30.7,30.6,10.4,10.5,20.8,20.9,30.6,30.8ZM-32.5-143.6c-10.3-10.3-20.6-20.6-31-31-10.2,10.2-20.7,20.6-30.9,30.9,10.3,10.3,20.7,20.7,31,31,10.3-10.3,20.7-20.7,31-30.9h0ZM-63.4-47.4c10.2-10.2,20.6-20.5,30.9-30.8-10.3-10.3-20.7-20.7-31.1-31-10.3,10.3-20.7,20.7-30.7,30.7,10.3,10.4,20.7,20.8,30.9,31ZM-65,20.7c-.4-.6-.5-.9-.6-1.1C-75.3,9.8-85.1,0-94.9-9.8c-1.3-1.3-2.2-.9-3.2.2C-107.5-.1-117,9.4-126.5,18.8c-1.1,1.1-1.2,1.9,0,3,9.5,9.4,19,18.9,28.4,28.4,1.5,1.5,2.5,1.2,3.8-.2,5.9-6,11.9-12,17.9-18,3.8-3.8,7.6-7.5,11.5-11.3h0ZM-65.2,151.4c-.3-.3-.6-.8-1-1.2-9.5-9.5-19.1-19-28.6-28.6-1.3-1.3-2.1-1-3.2,0-9.6,9.6-19.2,19.2-28.8,28.8-.3.3-.5.8-.8,1.2,10.4,10.4,20.8,20.7,31.1,30.9,10.4-10.4,20.8-20.7,31.2-31.2h0ZM-96.8-79.5c10.8-10.8,21.2-21.2,31.3-31.2-10.3-10.3-20.7-20.7-31.1-31.2-.1,0-.4.2-.7.5-9.7,9.7-19.4,19.4-29.2,29.1-1.2,1.2-.8,2,.2,3,3.4,3.3,6.7,6.7,10.1,10.1,6.5,6.6,12.9,13.2,19.4,19.8h0ZM-65.7,86.1c-10.2-10.3-20.5-20.7-30.5-30.8-10.3,10.3-20.7,20.7-30.9,30.8,10.2,10.3,20.5,20.7,30.6,30.8,10.4-10.3,20.8-20.7,30.8-30.7ZM-96.3-14.4c10.3-10.3,20.7-20.7,30.8-30.8-10.3-10.3-20.6-20.7-30.8-31-10.3,10.2-20.7,20.6-31,30.8,10.3,10.3,20.7,20.7,31,31h0Z"/>
      <path class="cls-9" d="M195.3,17.9c.7.7,1.4,1.5,2.5,2.7-4.9,4.8-9.7,9.4-14.3,14-5.2,5.1-10.3,10.2-15.4,15.4-1.4,1.4-2.2,1.6-3.8.1-9.4-9.5-18.8-18.8-28.2-28.2-1.3-1.3-1.2-2.1,0-3.3,9.3-9.2,18.6-18.5,27.8-27.8,1.6-1.6,2.5-1.6,4.1,0,9,9.1,18.1,18.1,27.1,27.2h0ZM193.8,22c1.1-1.1,1.3-2,0-3.2-8.7-8.6-17.4-17.3-26-26-1.3-1.4-2.2-1.1-3.4.1-8.6,8.6-17.2,17.2-25.8,25.8-1.2,1.2-1.3,2,0,3.2,8.7,8.6,17.4,17.3,26.1,26,.5.5,1,.8,1.7,1.3.7-.5,1.2-.9,1.7-1.4,8.6-8.6,17.2-17.2,25.9-25.8h0Z"/>
      <path class="cls-8" d="M193.9,84.6c1,1,1.1,1.8,0,2.8-8.8,8.8-17.6,17.6-26.4,26.4-1.1,1.2-1.9.9-3-.1-8.6-8.7-17.3-17.4-26-26-1.3-1.3-1.1-2.1,0-3.3,8.7-8.6,17.2-17.2,25.9-25.8.5-.5,1-.8,1.6-1.3.6.5,1.1.8,1.5,1.2,8.7,8.7,17.5,17.5,26.2,26.2h0ZM177.3,95.2c2.4-2,3.5-6.3,1.5-8.6-3.9-4.8-8.2-9.3-12.6-14.2-1.8,1.9-3.3,3.6-4.8,5.2-2.5,2.8-5.3,5.5-7.6,8.5-2.3,3-1.6,6.9,1.1,9.1,2.5,2,5.8,1.5,8.5-1.3.6-.6,1.2-1.1,1.7-1.6.2.2.5.4.7.6-1.3,2.1-2.7,4.2-4.1,6.4h8.5c-1.4-2.3-2.6-4.3-3.8-6.4.4-.3.8-.6,1.3-.9.5.8.9,1.7,1.6,2.3,2.3,2.3,5.8,2.7,7.9.9h0Z"/>
      <path class="cls-8" d="M193.9,18.8c1.2,1.2,1.1,2.1,0,3.2-8.6,8.6-17.2,17.2-25.9,25.8-.5.5-1,.8-1.7,1.4-.6-.5-1.2-.8-1.7-1.3-8.7-8.6-17.3-17.3-26.1-26-1.2-1.2-1.1-2,0-3.2,8.6-8.6,17.3-17.2,25.8-25.8,1.2-1.2,2.1-1.5,3.4-.1,8.6,8.7,17.3,17.4,26,26h0ZM176.3,27.7c2.3-1.2,3.7-3.7,3.5-6.5-.2-2.9-1.9-5.2-5-5.9-1.6-.4-1.8-1.1-2-2.4-.4-3.8-3-6.1-6.7-6.1-3.5,0-6.2,2.4-6.5,6-.1,1.5-.4,2.2-2.1,2.6-3.6.8-5.5,4.3-4.7,7.8.8,3.6,3.9,5.8,7.5,5,1.8-.4,3.5-1.6,5.7-2.6,0,0,0,0,0,.1-1.2,2.7-2.3,5.3-3.5,7.9h7.4c-1.2-2.7-2.3-5.2-3.5-7.7.2-.1.5-.2.7-.4.4.3.7.7,1.1,1,2.2,2,5.4,2.4,7.9,1.1h0Z"/>
      <path class="cls-9" d="M165.7,120.7c10.4,10.5,20.8,20.9,31.1,31.3-9.9,10-20.2,20.3-30.7,30.8-.5-.4-1.1-.9-1.7-1.4-9.4-9.4-18.7-18.7-28.1-28.1-1.1-1.1-1.8-1.9-.3-3.4,9.8-9.7,19.6-19.5,29.4-29.2.1-.1.3-.2.1,0h0ZM195.1,151.6c-.5-.6-.9-1.2-1.5-1.8-8.4-8.4-16.9-16.8-25.2-25.3-1.7-1.7-2.7-1.7-4.3,0-8.3,8.5-16.8,16.9-25.2,25.3-1.4,1.4-1.4,2.2,0,3.5,8.6,8.5,17.2,17,25.7,25.6,1.4,1.4,2.2,1.3,3.6,0,8.6-8.7,17.2-17.2,25.8-25.8.4-.4.8-.9,1.3-1.5h0Z"/>
      <path class="cls-9" d="M166.3,55.2c10.2,10.2,20.5,20.6,30.7,30.8-10.2,10.2-20.5,20.6-30.8,30.8-10.1-10.2-20.5-20.7-30.7-31,10-10,20.4-20.4,30.7-30.6h0ZM194,87.3c1-1,1-1.7,0-2.8-8.8-8.7-17.5-17.4-26.2-26.2-.4-.4-.9-.7-1.5-1.2-.6.4-1.2.8-1.6,1.3-8.6,8.6-17.2,17.2-25.9,25.8-1.2,1.2-1.4,2,0,3.3,8.7,8.6,17.4,17.3,26,26,1.1,1.1,1.8,1.3,3,.1,8.8-8.8,17.6-17.6,26.4-26.4h0Z"/>
      <path class="cls-9" d="M164-13.4c.2.2.4.6.5.7-10.5,10.4-20.9,20.7-31.2,31-10.2-10.2-20.6-20.6-31.3-31.2,4.7-4.6,9.5-9.3,14.3-14.1,5.1-5.1,10.3-10.3,15.4-15.4,1-1,1.7-1.8,3.1-.4,9.7,9.8,19.5,19.6,29.3,29.4ZM162.4-12.1c-.4-.7-.5-1-.7-1.2-9-9-18-18-26.9-27-1.1-1.1-1.8-.9-2.8.1-3.6,3.7-7.3,7.4-11,11-5.5,5.5-11.1,10.9-16.6,16.3.4.8.4,1,.5,1.1,9,9,18.1,18.1,27.1,27.2,1.3,1.3,2,.7,2.9-.3,5.6-5.6,11.2-11.3,16.9-16.9,3.5-3.5,7-6.9,10.5-10.3h0Z"/>
      <path class="cls-9" d="M163.2,116.9c1,1,2,1.8.4,3.4-9.8,9.7-19.6,19.5-29.3,29.3-.2.2-.6.4-.8.5-10.4-10.5-20.7-20.9-30.8-31,10.2-10.2,20.6-20.6,31.2-31.2.2.2.9.8,1.6,1.4,9.2,9.2,18.4,18.4,27.7,27.6h0ZM161.8,118.8c-9.5-9.5-19-19-28.6-28.7-.2.1-.5.3-.7.5-8.9,8.9-17.8,17.9-26.8,26.7-1.4,1.4-.8,2.1.2,3.1,8.7,8.7,17.4,17.3,26.1,26,.4.4.9.7,1.1.9,9.7-9.6,19.3-19.2,28.8-28.5Z"/>
      <path class="cls-3" d="M161.6-13.3c.2.2.3.6.7,1.2-3.5,3.4-7,6.8-10.5,10.3-5.6,5.6-11.3,11.2-16.9,16.9-.9,1-1.6,1.6-2.9.3-9-9.1-18.1-18.1-27.1-27.2-.1-.1-.2-.3-.5-1.1,5.5-5.4,11-10.8,16.6-16.3,3.7-3.6,7.4-7.3,11-11,1-1,1.7-1.2,2.8-.1,9,9,17.9,18,26.9,27h0ZM142.9-6.5c3.4-3.6,4.5-8.1,3.7-13-.5-3.2-2.8-5.9-5.3-6.4-3.2-.6-5.2,1.2-6.7,3.8-.3.5-.7,1-1.2,1.7-.9-1.3-1.4-2.2-2.1-3.1-2.9-3.5-6.9-3.4-9.5.3-1.8,2.6-2.3,5.6-1.7,8.7,1.5,7.2,6.4,11.6,12.5,15,.6.3,1.8.1,2.3-.3,2.8-2.1,5.7-4.2,8.1-6.8h0Z"/>
      <path class="cls-3" d="M161.2,51.9c1.1,1.1.9,1.8,0,2.8-8.8,8.7-17.5,17.5-26.2,26.2-.9.9-1.5,1.5-2.7.3-9-9.1-18.1-18.1-27.1-27.1-.2-.2-.3-.4-.6-1,7-7,13.9-13.8,20.8-20.7,2.2-2.2,4.4-4.4,6.6-6.6,1-1.1,1.8-1.4,3-.2,8.8,8.8,17.6,17.6,26.4,26.4h0ZM133.5,66.3c2.9-5.9,7.2-9.9,12.8-13.1-5.7-3.2-9.9-7.2-12.9-13.1-3,6-7.2,10.1-13.2,13.2,6.2,2.9,10.1,7.3,13.3,13Z"/>
      <path class="cls-9" d="M164.6,53.8c-2.2,2.1-4.8,4.6-7.2,7.1-7.3,7.3-14.7,14.6-22,22-1.5,1.5-2.4,1.7-3.9,0-9.3-9.4-18.6-18.7-28-28.1-.5-.5-.9-1-1.4-1.5,10.6-10.5,21-20.9,31.2-31,10.2,10.3,20.6,20.7,31.3,31.5h0ZM161.1,54.6c1-1,1.2-1.7,0-2.8-8.8-8.8-17.6-17.6-26.4-26.4-1.2-1.2-1.9-.9-3,.2-2.1,2.3-4.4,4.4-6.6,6.6-6.9,6.9-13.8,13.7-20.8,20.7.3.6.4.9.6,1,9,9,18.1,18.1,27.1,27.1,1.2,1.2,1.9.6,2.7-.3,8.7-8.7,17.5-17.5,26.2-26.2h0Z"/>
      <path class="cls-9" d="M146.6,111.7c.9,4.9-.3,9.3-3.6,13-1.6,1.8-3.4,3.4-5.3,4.9-4.2,3.2-4.6,3.2-8.7,0-4.1-3.1-7.6-6.8-8.8-12.1-.7-3.2-.4-6.2,1.3-9,2.6-4.3,7.2-4.5,10.1-.4.5.8,1.1,1.5,1.6,2.3,0,0,.2,0,.4.1.4-.5.8-1,1.2-1.6,1.5-2.2,3.2-4.2,6.2-3.7,2.8.4,5.1,3.2,5.7,6.4h0Z"/>
      <path class="cls-9" d="M146.6-19.5c.8,4.9-.3,9.4-3.7,13-2.4,2.5-5.3,4.6-8.1,6.8-.5.4-1.7.6-2.3.3-6.1-3.4-11-7.8-12.5-15-.6-3.1,0-6.1,1.7-8.7,2.6-3.8,6.6-3.9,9.5-.3.7.9,1.3,1.8,2.1,3.1.6-.8.9-1.2,1.2-1.7,1.5-2.6,3.5-4.3,6.7-3.8,2.5.4,4.8,3.2,5.3,6.4h0Z"/>
      <path class="cls-3" d="M133.2,90.1c9.6,9.6,19.2,19.2,28.6,28.7-9.4,9.4-19,18.9-28.8,28.5-.2-.1-.7-.5-1.1-.9-8.7-8.7-17.3-17.4-26.1-26-1.1-1-1.6-1.8-.2-3.1,9-8.9,17.9-17.8,26.8-26.7.2-.2.5-.4.7-.5ZM143,124.7c3.3-3.7,4.4-8.1,3.6-13-.6-3.2-2.9-5.9-5.7-6.4-3.1-.5-4.7,1.5-6.2,3.7-.4.6-.8,1.1-1.2,1.6-.3,0-.4,0-.4-.1-.6-.8-1.1-1.5-1.6-2.3-2.9-4.1-7.5-3.9-10.1.4-1.6,2.8-2,5.8-1.3,9,1.2,5.3,4.7,8.9,8.8,12.1,4.2,3.2,4.6,3.2,8.7,0,1.9-1.5,3.7-3.1,5.3-4.9h0Z"/>
      <path class="cls-9" d="M146.3,53.2c-5.6,3.2-9.9,7.2-12.8,13.1-3.2-5.7-7.1-10.1-13.3-13,6-3.1,10.2-7.2,13.2-13.2,3.1,5.9,7.2,9.9,12.9,13.1Z"/>
      <path class="cls-9" d="M130.5,18.7c.5.5.8,1,1.3,1.7-.5.6-.9,1.2-1.3,1.7-9.5,9.5-18.9,18.9-28.4,28.4-1.2,1.2-2,1-3.2-.1-9.3-9.4-18.6-18.7-28-28-1.5-1.5-1.5-2.4,0-3.9C80.2,9.2,89.5-.1,98.7-9.4c1.3-1.3,2.2-1.5,3.6-.1,9.4,9.4,18.8,18.8,28.2,28.2ZM127.9,22.2c1.3-1.3,1.5-2.2,0-3.6-8.6-8.6-17.2-17.2-25.8-25.8-1.2-1.2-1.9-1.3-3.2,0-8.6,8.7-17.3,17.4-26,26-1.1,1.1-1.4,1.9-.1,3.2,8.8,8.7,17.5,17.4,26.2,26.1.4.4.9.7,1.5,1.1.6-.5,1.2-.9,1.6-1.4,8.6-8.5,17.1-17.1,25.7-25.6h0Z"/>
      <path class="cls-9" d="M130.4,149.7c1.5,1.4,1.4,2.4,0,3.8-9.5,9.4-18.9,18.9-28.4,28.4-.4.4-.8.6-1.4,1.1-1.8-1.7-3.6-3.4-5.4-5.2-8.1-8.1-16.2-16.3-24.4-24.4-1.2-1.1-1.7-2-.2-3.4,9.6-9.5,19.2-19.1,28.8-28.7.3-.3.7-.5,1.9-1.5,3.8,4.1,7.5,8.2,11.4,12.1,5.9,6,11.8,11.9,17.8,17.7h0ZM127.7,153.6c1.5-1.5,1.6-2.4,0-4-8.6-8.5-17.1-17.1-25.7-25.6-.4-.4-.9-.7-1.5-1.2-.6.5-1.3.9-1.8,1.5-8.5,8.5-17,17-25.5,25.4-1.4,1.4-1.5,2.3,0,3.8,8.6,8.4,17,16.9,25.5,25.5,1.4,1.5,2.3,1.4,3.8,0,8.4-8.5,16.8-16.9,25.3-25.3h0Z"/>
      <path class="cls-8" d="M128.4,84.7c.4.4.6.8,1,1.3-.4.5-.7,1.1-1.1,1.5-8.8,8.8-17.6,17.6-26.4,26.4-.9.9-1.6,1-2.6,0-8.8-8.9-17.7-17.7-26.6-26.6-1.4-1.4-.4-2.3.5-3.2,6.8-6.8,13.5-13.6,20.3-20.3,1.9-1.9,3.8-3.7,5.7-5.7.9-1,1.6-.9,2.6,0,8.8,8.9,17.7,17.7,26.5,26.6h0ZM110.5,93.4c2.5-1.2,3.7-3.5,3.5-6.6-.2-3.3-2.3-5-5.2-6-.7-.2-1.4-1.3-1.5-2.1-.5-3.7-2.8-6.1-6.4-6.3-3.1-.2-6.5,2.1-6.8,5.5-.2,2.3-1.3,2.9-3.1,3.6-2.7,1-4.1,3.6-4,6.3.1,2.6,1.9,4.9,4.4,5.8,3.4,1.3,6-.2,8.4-2.5.2.1.4.3.5.4-1.1,2.5-2.2,5-3.4,7.8,2.2,0,4.2,0,6.1,0,.4,0,.8,0,1.4-.1-1.2-2.6-2.3-5-3.4-7.5.9-.2,1.1-.1,1.3,0,2.4,2.4,5.1,3.1,8.3,1.6h0Z"/>
      <path class="cls-8" d="M128,18.6c1.4,1.4,1.2,2.3,0,3.6-8.6,8.5-17.1,17.1-25.7,25.6-.5.5-1,.9-1.6,1.4-.6-.4-1.1-.7-1.5-1.1-8.7-8.7-17.5-17.4-26.2-26.1-1.3-1.2-1-2,.1-3.2,8.7-8.6,17.4-17.3,26-26,1.2-1.2,2-1.1,3.2,0,8.6,8.6,17.2,17.3,25.8,25.8h0ZM111.9,29.5c2.5-2,3.1-6.6.9-9.2-3.8-4.5-8-8.8-12.3-13.6-4.3,4.8-8.7,9.3-12.5,14.1-2.2,2.8-1.1,6.8,1.8,8.9,2.4,1.8,5.6,1.2,8.2-1.8.5-.6.6-1.5.9-2.2l1.3,1.1c-.5,1.1-.9,2.3-1.5,3.4-.6,1.1-1.5,2-2.5,3.3h8.7c-1.3-2.2-2.4-4.3-3.6-6.3.3-.2.6-.4.9-.6.4.5.8,1.1,1.3,1.6,2.6,2.7,6.1,3.2,8.6,1.2h0Z"/>
      <path class="cls-3" d="M114.1,86.8c.2,3.1-1,5.4-3.5,6.6-3.1,1.5-5.9.8-8.3-1.6-.2-.2-.4-.2-1.3,0l-.7-.2c-.2-.1-.4-.3-.5-.4-2.4,2.3-5,3.7-8.4,2.5-2.5-1-4.3-3.2-4.4-5.8-.1-2.8,1.3-5.4,4-6.3,1.8-.7,2.9-1.3,3.1-3.6.3-3.3,3.7-5.7,6.8-5.5,3.6.3,5.9,2.7,6.4,6.3.1.8.8,1.9,1.5,2.1,2.9,1,5,2.7,5.2,6h0Z"/>
      <path class="cls-3" d="M112.8,20.3c2.2,2.6,1.5,7.2-.9,9.2-2.5,2-5.9,1.5-8.6-1.2-.5-.5-.9-1-1.3-1.6-.3.2-.6.4-.9.6l-1-.4-1.3-1.1c-.3.7-.4,1.6-.9,2.2-2.5,2.9-5.7,3.6-8.2,1.8-2.9-2.1-4-6.1-1.8-8.9,3.8-4.8,8.2-9.3,12.5-14.1,4.3,4.7,8.4,9,12.3,13.6h0Z"/>
      <path class="cls-9" d="M131.5,86c-10.3,10.3-20.6,20.7-30.9,31-10.2-10.3-20.6-20.7-30.8-31.1,10.2-10.1,20.6-20.4,30.9-30.6,10.2,10.2,20.6,20.5,30.8,30.7ZM129.4,86c-.4-.5-.6-.9-1-1.3-8.8-8.9-17.7-17.7-26.5-26.6-.9-.9-1.6-1-2.6,0-1.8,1.9-3.8,3.8-5.7,5.7-6.8,6.8-13.6,13.5-20.3,20.3-.9.9-2,1.7-.5,3.2,8.9,8.8,17.7,17.7,26.6,26.6,1,1,1.7.9,2.6,0,8.8-8.8,17.6-17.6,26.4-26.4.4-.4.7-.9,1.1-1.5h0Z"/>
      <path class="cls-3" d="M104.7,33.6h-8.7c1-1.3,1.9-2.3,2.5-3.3.6-1,1-2.2,1.5-3.4l1,.4c1.2,2.1,2.4,4.1,3.6,6.3Z"/>
      <path class="cls-3" d="M104.4,99.2c-.5,0-.9.1-1.4.1-2,0-3.9,0-6.1,0,1.2-2.8,2.3-5.3,3.4-7.8l.7.2c1.1,2.4,2.2,4.8,3.4,7.5Z"/>
      <path class="cls-9" d="M98-13.8c.4.4.7.9,1.1,1.4-.5.6-.8,1.1-1.2,1.5-9.6,9.6-19.2,19.2-28.7,28.8-1,1-1.7,1.1-2.8,0C56.8,8.2,47.2-1.4,37.5-11c-1.4-1.4-.6-2.2.4-3.1,9.4-9.4,18.8-18.8,28.2-28.2,1.5-1.5,2.3-1.1,3.6.2,8.1,8.2,16.2,16.3,24.3,24.4,1.3,1.3,2.7,2.7,4,4h0ZM95.5-11c1.2-1.2,1.1-1.8,0-2.9-8.8-8.7-17.5-17.5-26.2-26.2-1.1-1.1-1.8-1.1-2.9,0-8.6,8.7-17.3,17.4-26,26-1.3,1.3-1.2,2.1,0,3.3,8.7,8.6,17.4,17.3,26,26,.4.4.9.7,1.5,1.2.6-.5,1.1-.9,1.6-1.4,8.7-8.7,17.3-17.4,26-26h0Z"/>
      <path class="cls-9" d="M97.9,51.6c.4.4.7.9,1.2,1.5-.4.5-.7,1.1-1.1,1.5-9.6,9.6-19.2,19.2-28.7,28.8-1.2,1.2-1.9,1-3,0-9.5-9.6-19-19.1-28.6-28.6-1.2-1.2-1.2-2,0-3.2,9.5-9.4,19-18.9,28.4-28.4,1.2-1.2,2-1.4,3.4,0,9.5,9.6,19,19.1,28.5,28.6h0ZM95.4,54.7c1.2-1.2,1.1-1.9,0-3.1-8.7-8.6-17.4-17.3-26-26-1.2-1.3-2-1.1-3.1,0-8.6,8.7-17.3,17.4-26,26-1.3,1.2-1.2,2,0,3.1,8.7,8.6,17.4,17.3,26.1,26,.4.4.9.8,1.5,1.3.6-.5,1.2-.8,1.6-1.3,8.7-8.7,17.3-17.4,26-26h0Z"/>
      <path class="cls-9" d="M98.9,119.1c-.4.5-1,1.2-1.6,1.8-9.2,9.2-18.5,18.4-27.7,27.7-1.1,1.1-1.8,1.9-3.3.4-9.5-9.6-19.1-19.2-28.7-28.8-.4-.4-.6-.8-1-1.2,10.5-10.5,20.9-20.9,31.1-31.2,10.3,10.3,20.6,20.6,31.2,31.2h0ZM95.2,120.5c1.3-1.3,1.4-2,0-3.4-5.3-5.2-10.5-10.5-15.8-15.7-3.8-3.8-7.6-7.7-11.7-11.9-9.6,9.7-18.8,18.9-28,28.1-1.2,1.3-.3,2,.5,2.8,8.6,8.6,17.2,17.2,25.8,25.9,1.2,1.3,2,1.4,3.3,0,8.6-8.7,17.2-17.3,25.8-25.8Z"/>
      <path class="cls-3" d="M95.4-13.9c1.1,1.1,1.2,1.8,0,2.9-8.7,8.6-17.4,17.3-26,26-.5.5-1,.9-1.6,1.4-.6-.4-1-.8-1.5-1.2C57.7,6.6,49-2.1,40.3-10.8c-1.3-1.2-1.3-2.1,0-3.3,8.7-8.6,17.4-17.3,26-26,1.1-1.1,1.8-1.1,2.9,0,8.7,8.8,17.4,17.5,26.2,26.2ZM67.7.7c3.1-5.9,7.2-10,13.2-13.1-6.1-3-10.1-7.3-13.2-12.9-3.1,5.9-7.2,9.9-12.9,12.9,5.7,3.2,10,7.2,13,13.2h0Z"/>
      <path class="cls-3" d="M95.3,51.6c1.2,1.2,1.3,1.9,0,3.1-8.7,8.6-17.4,17.3-26,26-.5.5-1,.8-1.6,1.3-.6-.5-1.1-.8-1.5-1.3-8.7-8.7-17.3-17.4-26.1-26-1.2-1.2-1.3-1.9,0-3.1,8.7-8.6,17.4-17.3,26-26,1.2-1.2,1.9-1.3,3.1,0,8.6,8.7,17.3,17.4,26,26h0ZM77.7,58.6c3.5-4.2,4.8-9.2,2.6-14.5-.9-2.3-2.6-4.2-5.3-4.4-2.6-.3-4.4,1.2-5.7,3.3-.4.7-.9,1.4-1.6,2.4-.7-1.1-1.1-1.8-1.5-2.5-1.3-2-2.9-3.5-5.4-3.3-2.7.2-4.8,1.8-5.3,4.3-.7,2.8-1.2,6-.5,8.8,1.5,6.4,6.4,10.3,11.8,13.3.7.4,2.1.2,2.8-.4,2.8-2.2,5.9-4.3,8.2-7.1h0Z"/>
      <path class="cls-3" d="M95.3,117.2c1.3,1.3,1.2,2.1,0,3.4-8.7,8.6-17.3,17.2-25.8,25.8-1.3,1.3-2.1,1.2-3.3,0-8.6-8.7-17.2-17.3-25.8-25.9-.8-.8-1.7-1.5-.5-2.8,9.2-9.2,18.4-18.5,28-28.1,4.1,4.2,7.9,8.1,11.7,11.9,5.2,5.3,10.5,10.5,15.8,15.7ZM68,131.5c2.8-5.6,7.1-9.6,12.8-12.7-5.9-3-10-7.2-13.1-13-3.1,6-7.3,10-12.6,12.9,2.5,2,5,3.7,7,5.7,2,2,3.7,4.5,5.8,7.2h0Z"/>
      <path class="cls-9" d="M80.3,44.1c2.1,5.3.9,10.3-2.6,14.5-2.3,2.7-5.3,4.8-8.2,7.1-.7.5-2.1.7-2.8.4-5.5-3.1-10.3-7-11.8-13.3-.7-2.8-.2-6,.5-8.8.6-2.4,2.6-4.1,5.3-4.3,2.5-.2,4.2,1.4,5.4,3.3.5.7.9,1.4,1.5,2.5.7-1.1,1.2-1.7,1.6-2.4,1.3-2.1,3.1-3.6,5.7-3.3,2.7.3,4.3,2.1,5.3,4.4h0Z"/>
      <path class="cls-9" d="M80.8,118.8c-5.7,3.1-10,7.1-12.8,12.7-2.1-2.7-3.8-5.1-5.8-7.2-2-2-4.5-3.7-7-5.7,5.2-2.9,9.5-6.9,12.6-12.9,3.2,5.8,7.2,10,13.1,13h0Z"/>
      <path class="cls-9" d="M80.9-12.5c-6,3.2-10.1,7.3-13.2,13.1-3-6-7.3-9.9-13-13.2,5.7-3,9.8-7,12.9-12.9,3.1,5.7,7.1,9.9,13.2,12.9h0Z"/>
      <path class="cls-9" d="M64.8,84.2c1.2,1.2,1.5,2,.1,3.4-9.6,9.5-19.1,19-28.6,28.5-.4.4-.9.7-1.3,1-10.4-10.4-20.8-20.8-31.1-31,10.4-10.3,20.8-20.6,31.7-31.5,3.6,3.8,7.4,7.8,11.4,11.8,5.9,6,11.8,11.9,17.8,17.7ZM62.1,88.1c1.6-1.6,1.6-2.6,0-4.2-8.6-8.4-17-16.9-25.5-25.5-1.3-1.3-2.1-1.2-3.3,0-5.2,5.3-10.5,10.5-15.8,15.7-3.9,3.8-7.8,7.5-11.6,11.2.5.9.6,1.2.8,1.4,9,9,17.9,18,26.9,27,1.2,1.2,2,.6,3-.3,8.5-8.5,16.9-17,25.5-25.4h0Z"/>
      <path class="cls-9" d="M64.9,18.6c1.4,1.4,1.2,2.3-.1,3.6-9.4,9.3-18.7,18.6-28,28-1.4,1.4-2.2,1.3-3.5,0-9.3-9.4-18.6-18.7-28.1-28-1.5-1.5-1.3-2.4,0-3.8C14.7,9.1,24-.3,33.3-9.6c.5-.5,1-.8,1.7-1.3.6.4,1.1.8,1.5,1.2C45.9-.3,55.4,9.2,64.9,18.6ZM62.6,21.9c.4-.4.8-.9,1.2-1.5-.5-.6-1-1.2-1.5-1.8C53.8,10.1,45.3,1.7,36.9-6.9c-1.6-1.6-2.4-1.5-3.9,0C24.6,1.6,16.2,10.1,7.7,18.4c-1.6,1.6-1.3,2.5,0,4,8.5,8.4,16.9,16.8,25.3,25.3,1.4,1.5,2.3,1.5,3.7,0,8.6-8.7,17.2-17.2,25.8-25.8h0Z"/>
      <path class="cls-8" d="M63.8,20.4c-.5.6-.8,1.1-1.2,1.5-8.6,8.6-17.2,17.2-25.8,25.8-1.5,1.5-2.3,1.4-3.7,0-8.4-8.5-16.8-16.9-25.3-25.3-1.4-1.4-1.7-2.4,0-4C16.2,10.1,24.6,1.6,33-6.8c1.5-1.5,2.3-1.6,3.9,0,8.4,8.6,16.9,17,25.4,25.5.5.5,1,1.1,1.5,1.8ZM45.5,27.3c2.4-1.5,3.5-3.9,3-6.7-.6-3.5-3.1-5.2-6.6-5.7-.4-5.3-2.5-7.9-6.3-8.1-4.2-.2-7.1,1.7-7.6,8.1-3.2.5-5.7,2-6.4,5.5-.5,2.9.3,5.4,2.9,6.9,3.5,2,6.7,1,9.5-1.8.2.2.4.3.5.5-1.1,2.5-2.2,5-3.3,7.5h7.4c-1.2-2.7-2.3-5.1-3.4-7.6.2-.2.4-.4.5-.7,2.8,3.2,6.1,4.2,9.7,2h0Z"/>
      <path class="cls-8" d="M62,83.9c1.6,1.6,1.7,2.5,0,4.2-8.6,8.4-17,16.9-25.5,25.4-1,1-1.8,1.6-3,.3-9-9-17.9-18-26.9-27-.2-.2-.3-.6-.8-1.4,3.8-3.7,7.8-7.4,11.6-11.2,5.3-5.2,10.6-10.4,15.8-15.7,1.2-1.3,2-1.4,3.3,0,8.4,8.5,16.9,17,25.5,25.5h0ZM45.1,95.7c2.4-.9,3.5-3.1,3.4-5.3-.1-1.8-.8-4-2-5.4-2.9-3.6-6.2-6.9-9.4-10.3-.6-.7-1.3-1.3-2.2-2.1-1.8,1.9-3.5,3.6-5.1,5.4-2.3,2.5-4.6,4.9-6.8,7.5-2.3,2.8-2,7.2.5,9.4,2.6,2.3,6.1,1.8,8.9-1.2.5-.5.7-1.2,1-1.8.4.3.7.6,1.1.8-1.2,2.1-2.4,4.2-3.6,6.4h8.2c-1.4-2.3-2.7-4.3-3.9-6.4.3-.2.5-.4.8-.5.8.8,1.5,1.6,2.3,2.4,2,1.8,4.3,2.1,6.8,1.2h0Z"/>
      <path class="cls-3" d="M48.5,20.7c.5,2.8-.6,5.2-3,6.7-3.6,2.2-6.9,1.2-9.7-2-.2.2-.4.4-.5.7h-.7c-.2-.1-.4-.3-.5-.4-2.8,2.8-6,3.8-9.5,1.8-2.6-1.5-3.5-4-2.9-6.9.7-3.4,3.2-4.9,6.4-5.5.6-6.5,3.5-8.3,7.6-8.1,3.8.2,5.9,2.8,6.3,8.1,3.5.5,5.9,2.2,6.6,5.7h0Z"/>
      <path class="cls-3" d="M48.4,90.4c.1,2.3-1,4.4-3.4,5.3-2.4,1-4.8.6-6.8-1.2-.8-.7-1.5-1.6-2.3-2.4-.3.2-.5.4-.8.5h-.7c-.4-.3-.7-.6-1.1-.8-.3.6-.6,1.3-1,1.8-2.8,3.1-6.3,3.5-8.9,1.2-2.5-2.2-2.8-6.6-.5-9.4,2.2-2.6,4.5-5,6.8-7.5,1.6-1.8,3.3-3.5,5.1-5.4.8.8,1.6,1.4,2.2,2.1,3.2,3.4,6.5,6.7,9.4,10.3,1.2,1.4,1.9,3.5,2,5.4h0Z"/>
      <path class="cls-3" d="M39.1,99.1h-8.2c1.2-2.2,2.4-4.3,3.6-6.4h.7c1.3,2.1,2.5,4.1,3.9,6.4Z"/>
      <path class="cls-3" d="M38.7,33.6h-7.4c1.1-2.5,2.2-5,3.3-7.5h.7c1.1,2.4,2.2,4.8,3.4,7.5h0Z"/>
      <path class="cls-9" d="M32.4-13.9c.4.4.7.8,1,1.2C22.8-2.2,12.5,8.2,2.3,18.4-8,8.1-18.4-2.4-28.9-12.9c.3-.3.8-.9,1.3-1.4C-18.4-23.6-9.1-32.8,0-42.1c1.6-1.6,2.5-1.7,4.1,0,9.3,9.5,18.8,18.8,28.2,28.3ZM25.9-7.2c1.7-1.7,3.6-3.2,5.2-4.7C21.1-21.8,11.5-31.4,2.2-40.8-7.2-31.4-16.8-21.9-26.5-12.2c0,.1.2.4.4.6C-17.2-2.7-8.3,6.2.6,15.2c1.3,1.3,2,1,3.2-.1C11.1,7.6,18.5.2,25.9-7.2Z"/>
      <path class="cls-3" d="M29.6,117.1c1.1,1.1,1.5,1.9.2,3.2-8.9,8.8-17.7,17.7-26.6,26.5-.3.3-.7.5-.9.7-9.6-9.7-19.2-19.2-28.6-28.7,9.5-9.5,18.9-19.1,29.2-29.4.5.9.9,2,1.7,2.8,8.3,8.3,16.6,16.6,24.9,24.9h0ZM12.2,124.1c3.4-4,4.6-8.9,2.7-14.1-.9-2.4-2.5-4.4-5.3-4.7-2.8-.3-4.5,1.3-5.9,3.5-.4.6-.8,1.3-1.4,2.2-.7-1-1.1-1.6-1.4-2.1-1.5-2.1-3.2-4-6.1-3.6-2.6.4-5.1,3-5.7,6.1-.8,4.2-.4,8.5,2.5,11.8,2.6,3,5.7,5.4,8.7,8,1.3,1.2,2.7,1.2,4,0,2.8-2.3,5.8-4.4,8.1-7.2h0Z"/>
      <path class="cls-3" d="M29.2,51.2c.6.6,1.2,1.2,1.6,1.7-9.7,9.6-19.3,19.1-28.8,28.5-9.2-9.3-18.7-18.9-28.4-28.7.3-.3.9-1,1.5-1.7C-16.6,42.8-8.2,34.5,0,26.1c1.7-1.8,2.6-1.6,4.3,0,8.2,8.4,16.6,16.7,24.9,25h0ZM2.1,66.3c3.1-5.9,7.2-10,13.1-13.1-6-3-10-7.4-13.2-13.1-2.9,6.1-7.3,9.9-12.8,13.2,5.8,3.1,9.9,7.2,12.9,13h0Z"/>
      <path class="cls-9" d="M33.7,54.1c-1.7,1.5-3.8,3.1-5.7,5-8,7.9-15.9,15.8-23.8,23.8-1.6,1.6-2.5,1.6-4.1,0-9.2-9.4-18.5-18.6-27.8-27.9-1.1-1.1-1.8-1.9-.3-3.3C-18.3,42-8.7,32.4,1,22.7c.3-.3.6-.5.9-.7,10.5,10.5,20.8,21,31.9,32.1ZM30.8,52.9c-.5-.5-1.1-1.1-1.6-1.7-8.3-8.3-16.7-16.6-24.9-25-1.6-1.7-2.5-1.9-4.3,0-8.2,8.4-16.6,16.7-24.9,25-.6.6-1.3,1.3-1.5,1.7,9.7,9.8,19.2,19.4,28.4,28.7,9.5-9.4,19.1-18.9,28.8-28.5h0Z"/>
      <path class="cls-3" d="M31.1-11.8c-1.6,1.4-3.5,3-5.2,4.7C18.5.2,11.1,7.6,3.8,15c-1.1,1.1-1.9,1.4-3.2.1C-8.3,6.2-17.2-2.7-26.1-11.6c-.2-.2-.3-.4-.4-.6C-16.8-21.9-7.2-31.4,2.2-40.8c9.4,9.4,18.9,18.9,28.9,28.9h0ZM11.6-6.3c3.5-4.3,5.3-9.1,3.4-14.7-.8-2.4-2.3-4.3-4.9-4.9-2.9-.6-4.8,1-6.3,3.1-.5.7-.9,1.4-1.6,2.3-.9-1.3-1.6-2.5-2.5-3.5-2.6-2.9-6.6-2.8-8.9.3-.9,1.3-1.6,2.9-1.9,4.5-1.2,7.4,2.5,12.7,8,16.8C2.6,2,1.6,1.9,7-2.1c1.7-1.2,3.2-2.6,4.5-4.2Z"/>
      <path class="cls-9" d="M14.9-21c2,5.6,0,10.4-3.4,14.7-1.3,1.6-2.9,3-4.5,4.2C1.6,1.9,2.6,2-3-2.3c-5.5-4.1-9.3-9.4-8-16.8.3-1.6.9-3.2,1.9-4.5,2.2-3.2,6.3-3.3,8.9-.3.9,1,1.6,2.2,2.5,3.5.6-.9,1.1-1.6,1.6-2.3,1.5-2.2,3.4-3.7,6.3-3.1,2.6.6,4.1,2.5,4.9,4.9h0Z"/>
      <path class="cls-9" d="M14.8,110c2,5.2.7,10-2.7,14.1-2.3,2.7-5.3,4.8-8.1,7.2-1.3,1.1-2.7,1.1-4,0-2.9-2.6-6.1-5.1-8.7-8-2.9-3.3-3.2-7.5-2.5-11.8.6-3.1,3.1-5.7,5.7-6.1,2.9-.4,4.6,1.4,6.1,3.6.4.6.8,1.1,1.4,2.1.6-1,1-1.6,1.4-2.2,1.4-2.2,3.1-3.8,5.9-3.5,2.8.3,4.4,2.3,5.3,4.7h0Z"/>
      <path class="cls-9" d="M15.3,53.2c-5.9,3-10.1,7.2-13.1,13.1-3.1-5.8-7.1-9.9-12.9-13,5.5-3.2,9.9-7.1,12.8-13.2,3.2,5.7,7.2,10.1,13.2,13.1h0Z"/>
      <path class="cls-9" d="M2.2,88.1c10,10.1,20.4,20.5,30.7,30.8-10.1,10-20.5,20.4-31,30.8-10.2-10.2-20.5-20.5-30.7-30.7,10.3-10.3,20.8-20.6,31-30.8ZM29.9,120.3c1.3-1.3.9-2.1-.2-3.2-8.3-8.3-16.7-16.6-24.9-24.9-.8-.8-1.2-1.9-1.7-2.8-10.3,10.3-19.8,19.9-29.2,29.4,9.4,9.4,18.9,19,28.6,28.7.2-.2.6-.4.9-.7,8.9-8.8,17.7-17.7,26.6-26.5Z"/>
      <path class="cls-9" d="M-1.1,149.6c1.4,1.4,1.8,2.3.1,3.9-9.4,9.2-18.6,18.6-27.9,27.8-.5.5-1.1,1-1.6,1.4-10.5-10.5-20.8-20.9-31.2-31.4,10.2-10.2,20.5-20.5,31.1-31,.6.5,1.3,1.1,2,1.8,9.2,9.2,18.3,18.4,27.5,27.5h0ZM-3.1,153.2c1.3-1.2,1.1-2,0-3.2-8.6-8.6-17.2-17.2-25.8-25.8-.5-.5-1-.9-1.7-1.4-.7.6-1.3,1-1.8,1.5-8.6,8.6-17.2,17.2-25.8,25.8-1.1,1.1-1.3,1.8-.1,3,8.8,8.7,17.5,17.4,26.2,26.2,1.2,1.2,2,1.2,3.2,0,8.6-8.7,17.3-17.4,26-26h0Z"/>
      <path class="cls-9" d="M-30.9-10.7C-20.6-.3-10.3,10.1.1,20.6c-10,10.1-20.4,20.4-31,31-2.8-2.7-5.6-5.4-8.4-8.2-7.1-7.1-14.1-14.2-21.2-21.2-1.1-1.1-1.7-2-.3-3.4C-51,9.2-41.3-.6-31.6-10.2c.2-.2.5-.4.7-.5h0ZM-3.2,22c1.3-1.3,1.2-2.1,0-3.4C-11.7,10.2-20.2,1.7-28.7-6.8c-1.5-1.5-2.4-1.7-4-.1-8.5,8.6-17.1,17.1-25.6,25.6-1.1,1.1-1.4,1.9-.1,3.2,8.7,8.6,17.4,17.3,26.1,26,.5.5,1,.8,1.7,1.3.7-.6,1.3-1,1.8-1.6C-20.3,39.1-11.7,30.5-3.2,22Z"/>
      <path class="cls-9" d="M-30.6,55.1c10.2,10.2,20.6,20.6,30.9,30.9-10.3,10.3-20.7,20.6-30.9,30.8-10.2-10.2-20.5-20.7-30.7-31,10-10,20.4-20.3,30.8-30.7h0ZM-1.3,86.7c-.2-.2-.4-.5-.6-.7-.3-.4-.5-.9-.9-1.2-8.8-8.9-17.7-17.7-26.5-26.6-1.3-1.3-2-.6-3,.3-5,5-10,10-15,15-4.1,4-8.3,8-12.5,12.1.8,1,1.3,1.6,1.8,2.2,8.4,8.4,16.9,16.8,25.3,25.3,1.7,1.7,2.7,1.6,4.3,0,6.8-7,13.7-13.9,20.7-20.7,2-2,4.3-3.7,6.4-5.6h0Z"/>
    </g>
  </g>
  <g>
    <rect class="cls-1" x="8.7" y="40.4" width="121.6" height="4.8" transform="translate(-6.5 13.1) rotate(-10.3)"/>
    <rect class="cls-5" x="64.5" y="-11.4" width="10.1" height="121.6" transform="translate(8.4 108.8) rotate(-79.6)"/>
    <circle class="cls-7" cx="53.4" cy="45.8" r="11.9"/>
    <path class="cls-4" d="M50,41.6c1.5,0,2.8.9,3.3,2.3,0,0,0,0,0,.1,0,0,.1,0,.1,0,.2-.5.4-.9.8-1.3,1.4-1.4,3.4-1.3,4.6-.5.9.6,1.4,1.5,1.4,2.6,0,1-.3,1.9-.8,2.7-.3.4-.6.7-1,1-1.3,1.1-2.7,2.3-4,3.4-.3.3-.6.5-1,.8,0,0-.1,0-.2,0-1-.8-2-1.7-2.9-2.5-.8-.7-1.7-1.4-2.5-2.1-.3-.2-.5-.5-.7-.8-.5-.7-.7-1.4-.7-2.2,0-1.8,1.2-3.3,3-3.5.2,0,.3,0,.5,0h0Z"/>
  </g>
</svg>