<?xml version="1.0" encoding="UTF-8"?>
<svg id="Layer_1" data-name="Layer 1" xmlns="http://www.w3.org/2000/svg" version="1.1" viewBox="0 0 365.7 201.4">
  <defs>
    <style>
      .cls-1 {
        fill: #d7ca58;
      }

      .cls-1, .cls-2, .cls-3, .cls-4, .cls-5, .cls-6 {
        stroke-width: 0px;
      }

      .cls-2 {
        fill: #ffe075;
      }

      .cls-3 {
        fill: #7a5726;
      }

      .cls-4 {
        fill: #ffd460;
      }

      .cls-5 {
        fill: #fcef51;
      }

      .cls-6 {
        fill: #ac9358;
      }
    </style>
  </defs>
  <g>
    <rect class="cls-3" x="85.3" y="100.2" width="176.3" height="47.6"/>
    <path class="cls-5" d="M254.7,145.2s-15.9-93.6,37.2-125.9c53-32.3,25.9,15.7,25.9,15.7l-26.8,8.1,24.7.6s-8.9,21.4-11.3,26.4c-2.5,5.1-16.5,1.1-16.5,1.1l12.1,5.2-45.3,68.8h0Z"/>
    <path class="cls-1" d="M247.5,145.5s55.3-91.7,93.8-96c38.4-4.3-1.6,26.2-1.6,26.2l-14.1-5.2,7.8,12.1s-16.8,15.1-20.9,18.5c-4.1,3.4-6.1-6.7-6.1-6.7l.6,10.3-59.5,40.8h0Z"/>
    <path class="cls-6" d="M169.1,131.6c-73.9,0-136.5-15.5-157.4-36.8v91.5h314.8v-91.5c-20.9,21.3-83.5,36.8-157.4,36.8Z"/>
    <rect class="cls-3" x="11.7" y="162.1" width="314.8" height="13.2"/>
  </g>
  <circle class="cls-2" cx="55.7" cy="157" r="27.9"/>
  <circle class="cls-3" cx="55.7" cy="157" r="25.2"/>
  <path class="cls-4" d="M45.9,144.3c4.2,0,7.9,2.6,9.5,6.6,0,.1,0,.3.2.3.2,0,.3,0,.4-.2.5-1.4,1.3-2.6,2.3-3.6,3.9-4.1,9.8-3.7,13.1-1.3,2.5,1.8,3.9,4.3,4.1,7.4.2,2.9-.8,5.3-2.4,7.6-.8,1.1-1.8,2-2.8,2.9-3.8,3.3-7.7,6.6-11.5,9.8-.9.8-1.8,1.6-2.8,2.4-.2.2-.3.2-.5,0-2.8-2.4-5.6-4.8-8.4-7.2-2.4-2-4.8-4-7.1-6.1-.7-.7-1.3-1.5-1.9-2.3-1.3-1.9-2-4-2.1-6.3-.2-5.1,3.6-9.4,8.6-9.9.5,0,.9,0,1.4-.1h0Z"/>
</svg>