<?xml version="1.0" encoding="UTF-8"?>
<svg id="Layer_1" data-name="Layer 1" xmlns="http://www.w3.org/2000/svg" version="1.1" viewBox="0 0 648 471.7">
  <defs>
    <style>
      .cls-1 {
        fill: #9da8d5;
      }

      .cls-1, .cls-2, .cls-3 {
        stroke-width: 0px;
      }

      .cls-2 {
        fill: #ec7a96;
      }

      .cls-3 {
        fill: #7a1a1a;
      }

      .cls-4 {
        fill: none;
        stroke: #ec7a96;
        stroke-miterlimit: 10;
        stroke-width: 13px;
      }
    </style>
  </defs>
  <path class="cls-4" d="M87.3,84.5s188.5-34.8,259.9,80.5"/>
  <g>
    <rect class="cls-3" x="351" y="162.2" width="205" height="238.9" transform="translate(-72.9 370.3) rotate(-41.4)"/>
    <path class="cls-2" d="M379.9,264.7c14.4-12.5,34.5-14.8,51.9-5.8.5.2,1.1.6,1.5.5.8-.3,1-.9.7-1.9-2.4-6.1-3.4-12.5-3.1-19,1-25.7,22.3-41.7,40.4-43.4,13.9-1.3,25.9,2.8,35.8,12.8,9.1,9.1,13.2,20.4,14.6,33,.6,6.1.1,12.1-.8,18.1-3.3,22.5-6.4,45.1-9.6,67.6-.8,5.4-1.6,10.8-2.3,16.2-.1,1.1-.5,1.5-1.7,1.5-16.6.2-33.2.5-49.9.7-14.1.2-28.1.6-42.2.5-4.4,0-8.9-1.1-13.2-2.2-10-2.5-18.7-7.3-25.8-14.9-15.6-16.7-15.9-42.3-.5-59.2,1.4-1.5,2.8-2.9,4.3-4.4h0Z"/>
    <polygon class="cls-1" points="326.8 137.9 297.7 259.8 451.5 124.2 326.8 137.9"/>
    <rect class="cls-1" x="286.1" y="204.3" width="205" height="7.3" transform="translate(-40.4 308.9) rotate(-41.4)"/>
    <rect class="cls-1" x="419.2" y="355.3" width="205" height="7.3" transform="translate(-107 434.7) rotate(-41.4)"/>
  </g>
</svg>