<?xml version="1.0" encoding="UTF-8"?>
<svg id="Layer_1" data-name="Layer 1" xmlns="http://www.w3.org/2000/svg" xmlns:xlink="http://www.w3.org/1999/xlink" version="1.1" viewBox="0 0 93.4 263.8">
  <defs>
    <style>
      .cls-1 {
        clip-path: url(#clippath);
      }

      .cls-2 {
        fill: none;
      }

      .cls-2, .cls-3, .cls-4, .cls-5, .cls-6, .cls-7, .cls-8 {
        stroke-width: 0px;
      }

      .cls-3 {
        fill: #d9e477;
      }

      .cls-4 {
        fill: #faee4b;
      }

      .cls-5 {
        fill: #9bce7d;
      }

      .cls-6 {
        fill: #705aa6;
      }

      .cls-7 {
        fill: #c8cae0;
      }

      .cls-8 {
        fill: #e9d742;
      }
    </style>
    <clipPath id="clippath">
      <rect class="cls-2" width="93.4" height="263.8"/>
    </clipPath>
  </defs>
  <g class="cls-1">
    <g>
      <path class="cls-4" d="M235.7-155s0,.2.2.4c17.8,17.9,35.7,35.8,53.5,53.8,2.7,2.7,4.1,1.4,6.1-.6,17.1-17.1,34.2-34.2,51.3-51.3,1-1,1.7-2.1,2.5-3.1-19.2-19.1-38.1-37.9-56.4-56.1-19,18.9-38.1,37.9-57.3,57h.1ZM208.8-375.3h4.7c-12.2,12.4-24.5,24.8-36,36.5-.7.7-1.3,1.3-2,2,19.4,19.5,38.4,38.6,57,57.3,18.6-18.6,37.6-37.5,57.3-57.1-.8-.8-1.6-1.5-2.4-2.3l1.9-1.9h0c1.8,1.9,3.2,1.8,4.6.7l1.6,1.7c-.5.4-.9.8-1.4,1.2,20.2,20.2,39.2,39.3,59.4,59.5,4.8-5.2,9.6-10.6,14.5-16v4.7c-4.5,4.3-9,8.5-13.4,12.7,4.9,5.1,9.2,9.5,13.4,13.9v3.8c-5.3-4.9-10.6-9.7-15.7-14.4-19.2,19.2-38.2,38.2-56.6,56.6,18.9,19,37.9,38.1,57,57.3,4.8-4.5,10-9.3,15.2-14.1v3.8c-4.5,4.4-9,8.7-13.9,13.5,5,4.7,9.5,8.9,13.9,13.1v4.7c-5.2-5.1-10.5-10.2-15.3-14.9-19.6,19.5-38.6,38.3-57.2,56.9.9.9,1.8,1.8,2.7,2.7,18,18,36.2,36.2,55.6,55.7,4.6-5.2,9.4-10.6,14.2-16v4.7c-4.4,4.2-8.8,8.3-13,12.4.4,1,.5,1.6.8,1.9,4.1,4.1,8.2,8.2,12.2,12.3v3.8c-5.3-4.8-10.6-9.6-15.4-14-19.2,19.2-38.2,38.1-57.3,57.2,0,.2.4.8.8,1.2,17.9,17.9,35.8,35.8,53.6,53.7,1.9,1.9,3.2,1.9,5.1,0,4.3-4.3,8.9-8.5,13.3-12.7v3.8c-3.7,3.7-7.5,7.2-10.9,11-.9,1-1.2,3.7-.5,4.5,3.6,3.9,7.6,7.4,11.5,11.1v4.7c-5.2-5-10.4-10-15.4-14.8-19.3,19.4-38.3,38.4-56.9,57.1,18.7,18.8,37.7,37.8,58,58.2,4.6-5.2,9.5-10.6,14.3-16v4.7c-4.5,4.3-9,8.5-13.6,12.9,4.9,5,9.2,9.4,13.6,13.7v3.8c-5.3-4.9-10.6-9.7-15.6-14.3-19.2,19.2-38.2,38.3-57,57.2,18.7,18.7,37.7,37.8,56.9,57,5.1-4.7,10.3-9.5,15.6-14.4v3.8c-4.4,4.5-8.8,8.9-13.7,13.8,4.8,4.5,9.2,8.6,13.7,12.8v4.7c-5.2-5.1-10.5-10.2-15.1-14.7-19.6,19.5-38.6,38.5-58.8,58.6.8.6,1.7,1.2,2.5,1.8l-1.7,1.7h0c-2.1-2.2-3.7-2.3-5.8,0-6.2,6.5-12.6,12.8-18.9,19.2h-3.8c6.8-7.2,13.6-14.4,20.1-21.2.8-.8,1.6-1.6,2.3-2.5-19.3-19.4-38.2-38.4-56.8-57.1-18.8,18.8-37.9,37.9-58.1,58.1,7.8,7.3,16,15,24.1,22.6h-4.7c-7.4-6.8-14.8-13.6-22.7-20.9-6.2,6.5-13.1,13.7-20,20.9h-4.7c7.8-7.9,15.7-15.9,23.6-23.9-.8-1-1.1-1.7-1.7-2.3-17.7-17.8-35.5-35.5-53.2-53.3-2.9-2.9-4.3-.9-6.1.9-16.3,16.3-32.6,32.6-48.9,48.9-1.7,1.7-3.4,3.6-5.3,5.6,1.8,1.9,3.2,3.3,4.6,4.8,6.2,6.4,12.4,12.9,18.6,19.3h-3.8c-6.2-6.2-12.5-12.4-18.6-18.7-2.4-2.5-4.1-2.6-6.5,0-6.1,6.4-12.4,12.5-18.6,18.8h-3.8c7.7-8,15.3-16.1,22.4-23.5-1.5-1.5-3.1-3.1-4.6-4.6-17.7-17.8-35.1-35.3-52.3-52.6-18.7,18.8-37.7,37.8-57,57.2,7.6,7.7,15.4,15.6,23.3,23.5h-4.7c-7.4-6.7-14.9-13.5-21.5-19.5-6.4,5.9-13.8,12.7-21.3,19.5h-4.7c8.2-7.6,16.4-15.2,24.3-22.5-20.4-20.4-39.5-39.4-58.1-58-18.7,18.7-37.8,37.7-57.1,56.9,1,1.1,2.3,2.5,3.6,3.9,6.3,6.6,12.6,13.1,19,19.7h-3.8c-6.2-6.3-12.5-12.5-18.6-18.8-2.3-2.4-4.1-2.6-6.6,0-6.1,6.4-12.3,12.6-18.5,18.8h-3.8c6.8-7.2,13.6-14.3,20.1-21.2.8-.9,1.6-1.7,2.4-2.6-19.3-19.4-38.2-38.4-56.8-57l-58.3,58.3c7.9,7.3,16.1,14.9,24.3,22.5h-4.7c-7.4-6.8-14.7-13.6-22.4-20.7-2.8,2.6-6.3,6-9.9,9.3v-4.7c9.5-6.4,9.7-7.7,1.6-15.2-.4-.4-1-.6-1.6-1v-4.7c3.6,3.3,7.1,6.6,10.9,10.1,1.1-.9,2.2-1.6,3.1-2.5,17.3-17.3,34.6-34.6,52-51.9,2.5-2.5,1.9-3.9-.3-6.1-9.7-9.5-19.3-19.1-28.8-28.8-8.4-8.5-16.7-17.1-25.2-25.9-4.3,3.8-8,6.9-11.6,10.1v-3.8c6.1-5.5,6.2-11.1.4-16.8-.1-.1-.2-.2-.4-.3v-3.8c3.6,3.2,7.3,6.3,10.3,8.9,19.2-19.2,38.2-38.1,56.9-56.8-18.7-18.6-37.7-37.6-56.9-56.7-3.2,3-6.8,6.3-10.3,9.6v-4.7c2.3-2.1,4.7-4.1,6.8-6.4.6-.7.7-2.8,0-3.5-2.1-2.3-4.5-4.2-6.9-6.2v-4.7c3.5,3.3,7.1,6.7,10.4,9.8,19.2-19.2,38.1-38.2,57.3-57.4,0,0-.2-.7-.6-1.1-18-18-36-36-54-54-1.8-1.8-3.1-1.5-4.8.2-2.7,2.6-5.5,5.1-8.3,7.6v-3.8c10.7-10.5,9.9-6.9.4-16.8-.1-.1-.2-.2-.4-.3v-3.8c2,1.7,4.1,3.4,6,5.2q4.8,4.9,9.5.3c14.4-14.4,28.8-28.8,43.2-43.2,3.2-3.2,6.3-6.5,9.2-9.4-17.7-17.7-35-35-52.5-52.5-1.7-1.7-3.3-3.3-5-5-3.3,3.1-6.8,6.4-10.4,9.8v-4.7c9.5-6.5,9.6-7.8,1.6-15.2-.4-.4-1-.6-1.6-.9v-4.7c3.6,3.3,7.1,6.6,10.2,9.5,1.4-1.4,2.8-2.8,4.2-4.2,17.8-17.7,35.5-35.3,53-52.8-18.7-18.7-37.7-37.6-56.8-56.7-3.4,2.9-7,6.1-10.6,9.2v-3.8c10.6-10.4,9.8-7,.4-16.8-.1-.1-.2-.2-.4-.3v-3.8c3.6,3.2,7.3,6.3,11,9.5,1-.8,1.9-1.5,2.7-2.3,17.4-17.4,34.8-34.9,52.3-52.2,3-3,1.1-4.5-.8-6.5l-50.9-50.9c-1-1-2.1-1.8-3.3-2.8-3.8,3.5-7.3,6.8-10.9,10.1v-4.7c2.3-2.1,4.8-4.1,6.8-6.4.6-.7.6-2.8,0-3.5-2.1-2.3-4.5-4.2-6.8-6.3v-4.7c3.5,3.3,7.1,6.7,11.9,11.2.3-.4.7-.8,1-1.2l1.6,1.6s-.1.2-.2.2c19.4,19.6,38.4,38.7,57,57.4,18.6-18.6,37.6-37.5,56.8-56.7-.7-.8-1.4-1.6-2.2-2.4-.3-.3-.5-.6-.8-.8-7.1-7.2-14.3-14.3-21.4-21.5-4.6-4.7-9.1-9.6-13.6-14.4h3.8c11.4,11.4,22.8,22.8,34,34.3,2.5,2.6,4.2,1.7,6.2-.4,11.2-11.4,22.5-22.6,33.8-34h3.8c-.9,1.2-1.8,2.5-2.8,3.6-10.3,10.3-20.6,20.6-30.8,30.9-1.5,1.5-3,3.2-4.1,4.4,19.3,19.3,38.3,38.4,56.9,57,18.9-18.8,37.9-37.8,58.3-58l-.2-.2,1.4-1.5c.2.2.6.1.9.2.3.3.7.7,1,1,.9-1.1,1.7-2.3,2.5-3.4l1.7,1.8h0c-2.7,2.7-2.7,4.3,0,7,17.2,17,34.3,34.1,51.3,51.3,2.8,2.8,4.3,2.3,6.8-.2l.2-.2c16.7-16.9,33.6-33.7,50.4-50.5,1.1-1.1,2.1-2.3,3.4-3.8-13.2-13.2-26.2-26.3-39.3-39.3h4.7c11.3,11.3,22.6,22.5,33.8,33.9,2.5,2.5,4,2.5,6.5,0,11.2-11.4,22.5-22.6,33.8-33.9h4.7c-13.1,13-26.1,26-38.4,38.2.7.7,1.4,1.4,2.1,2.2,18.7,18.8,36.9,37.2,54.8,55.2,18.6-18.6,37.5-37.6,56.8-57-12.6-12.7-25.5-25.6-38.3-38.6h4.7c1,1.2,1.9,2.5,3,3.6,9.5,9.6,19.1,19.2,28.7,28.8q4.8,4.8,9.6,0c10.6-10.7,21.2-21.5,31.8-32.3h.3ZM55-330.9c-2.2-2.2-3.8-2-5.9.2-17.1,17.2-34.4,34.4-51.6,51.6-2.5,2.5-2.4,4.2,0,6.6,7.6,7.4,15,14.9,22.5,22.4s20.9,21.1,31.5,31.7c1.1-.6,1.6-.8,1.9-1.1,17.9-17.9,35.7-35.8,53.7-53.6,2.4-2.4,1.7-3.9-.3-5.9-17.4-17.3-34.7-34.6-52-51.9h.1ZM228.7-275.8c-18.8-18.8-37.7-37.8-56.5-56.6-18.8,18.8-37.7,37.7-56,56.1,18.8,18.9,37.8,38,56.1,56.4,18.7-18.5,37.8-37.4,56.5-55.8h0ZM-188.5-331.9c-18.4,18.4-37.3,37.2-56,55.9,18.9,18.7,37.9,37.6,56.8,56.3,18.5-18.4,37.5-37.3,55.9-55.6-18.9-18.9-38-37.9-56.8-56.6h0ZM-11.4-275.9c-18.7-18.7-37.7-37.6-55.9-55.9-19.1,18.9-38.3,37.8-56.7,56,18.7,18.8,37.6,37.8,56.1,56.4,18.8-18.7,37.7-37.7,56.5-56.5h0ZM348.9-275.7c-18.7-18.8-37.6-37.8-56.2-56.4-19,19-38,37.9-56.5,56.4,18.7,18.8,37.7,37.8,56.1,56.3,18.8-18.7,37.8-37.5,56.6-56.2h0ZM-8.2-272.7c-.5.4-1.3.9-1.9,1.5-17.6,17.5-35,35.1-52.7,52.6-2.6,2.6-1.7,4.1.4,6.2,11,10.9,22,21.8,32.9,32.8,7.1,7.2,13.9,14.5,20.4,21.3,19.8-19.9,38.9-39,57.5-57.7-18.5-18.5-37.4-37.5-56.5-56.6h-.1ZM126.1-259.6c-4.5-4.5-9.1-9-13.2-13.1-19.4,19.4-38.4,38.3-56.9,56.7,18.8,18.9,37.8,38,57,57.2.2-.2.9-.6,1.5-1.1,17.5-17.5,35-35.1,52.6-52.6,2.6-2.6,2-4.2-.3-6.5-13.6-13.4-27.1-27-40.6-40.5h-.1ZM288.6-215.5c-18.8-19-37.8-38.1-55.9-56.4-18.8,18.8-37.9,37.8-56.7,56.5,18.6,18.6,37.6,37.6,56.3,56.4,18.9-18.9,37.9-38,56.4-56.5h-.1ZM-127.7-271.9c-18.8,18.7-37.9,37.8-56.1,56,18.6,18.7,37.5,37.9,55.9,56.4,18.8-18.6,37.8-37.5,56.7-56.2-18.9-18.8-38-37.8-56.4-56.2h-.1ZM-191.1-216c-18.8-18.7-37.8-37.6-56.8-56.5-18.9,18.9-37.9,37.9-56.6,56.5,18.8,18.9,37.8,37.9,56.6,56.7,18.8-18.7,37.8-37.8,56.8-56.7h0ZM52.8-213.7c-2.3,2.1-3.7,3.3-5,4.6-16.5,16.5-33,33.2-49.7,49.6-3,2.9-2.9,4.6,0,7.5,17.1,16.8,34.1,33.9,50.9,50.9,2.3,2.4,3.8,2.5,6.1.2,17.1-17.3,34.3-34.5,51.6-51.6,2.8-2.8,2.3-4.4-.2-6.9-9.5-9.3-18.9-18.7-28.2-28.1-8.4-8.5-16.7-17.2-25.5-26.2h0ZM-188.4-212.7c-.5.4-1.4,1.1-2.2,1.9-17.5,17.4-34.9,34.9-52.4,52.2-2.7,2.6-1.6,4.1.5,6.1,17.2,17.1,34.3,34.1,51.3,51.4,2.5,2.6,4.1,2.4,6.5,0,17-17.2,34.2-34.3,51.3-51.4s1.8-2.1,2.4-2.9c-19.2-19.2-38.2-38.1-57.4-57.2h0ZM-68-212c-18.7,18.6-37.8,37.5-56.5,56,18.9,18.9,38,37.9,56.6,56.5,18.7-18.7,37.7-37.6,56.3-56.1-18.8-18.8-37.9-37.9-56.4-56.4h0ZM172.2-212.1c-18.7,18.6-37.6,37.5-56.3,56.2,18.8,18.9,37.8,37.9,56.1,56.2,18.9-18.7,37.9-37.6,56.6-56.1-18.7-18.7-37.7-37.6-56.4-56.3h0ZM-8.3-152.6c-.2.2-.8.4-1.3.8-17.9,17.9-35.7,35.8-53.7,53.6-2.6,2.6-1.1,4,.7,5.8,9.4,9.3,18.8,18.7,28.2,28.1,8.7,8.7,17.3,17.5,25.7,26.1,19.5-19.5,38.5-38.6,57.1-57.3-18.8-18.9-37.7-37.9-56.7-57.1h0ZM234.9-151c-2.8-2.8-4.3-1.1-6.1.8-16.9,16.9-33.7,33.7-50.6,50.6-1.2,1.2-2.2,2.5-2.6,2.9,19.4,19.4,38.5,38.5,57.1,57.1,18.6-18.5,37.6-37.4,56.8-56.4-.3-.4-.5-.9-1-1.4-17.9-17.9-35.8-35.7-53.6-53.7h0ZM126.4-139.5c-4.5-4.6-9-9.2-12.9-13.3-19.7,19.6-38.8,38.5-57.6,57.3,18.6,18.7,37.5,37.7,56.8,57.1,1-.9,1.9-1.7,2.8-2.6,17.1-17.1,34.1-34.2,51.3-51.2,2.9-2.9,2.6-4.5-.1-7.2-13.5-13.3-26.9-26.7-40.3-40.2h0ZM-71.5-95.5c-18.8-18.9-37.9-37.9-56.7-56.8-18.6,18.6-37.6,37.6-56.3,56.2,18.9,18.9,38,37.9,56.7,56.6,18.7-18.6,37.8-37.6,56.3-56.1h0ZM-248.4-152.2c-18.7,18.7-37.6,37.6-56.4,56.3,18.9,18.9,38,38,56.5,56.5,19-19,38-37.9,56.3-56.1-18.7-18.8-37.7-37.8-56.5-56.7h0ZM-184.7-90.3c-2.9-2.9-4.7-1.8-7,.5-16.9,17-33.9,34-50.9,51-.9,1-1.7,2.1-2.6,3.2.6.8.9,1.4,1.3,1.8,17.8,17.8,35.6,35.5,53.3,53.3,2.8,2.8,4.2,1.2,6.1-.7,14.4-14.4,28.8-28.9,43.2-43.3,3.6-3.5,7.5-6.7,11.3-10-1.4-1.9-1.6-2.3-1.9-2.7-17.6-17.7-35.3-35.3-52.8-53.1h0ZM52.2-92.7c-1.1.9-2.2,1.5-3,2.4C31.9-73.2,14.8-55.9-2.5-38.8c-2.6,2.6-2.2,4.1.2,6.5C14.8-15.4,31.8,1.6,48.6,18.6c2.8,2.8,4.4,2.8,7.2,0C72.8,1.5,89.9-15.6,107.1-32.6c2.1-2.1,2.5-3.5.2-5.8-17.4-17.2-34.7-34.6-52-51.9-.9-.9-1.9-1.5-3.1-2.4h0ZM295.8-90.1c-2.6-2.6-4.3-2.8-7,0-10.7,10.9-21.5,21.8-32.5,32.5-7.2,7.1-14.7,13.8-22.2,20.8,1.8,2.2,2.2,2.8,2.7,3.4,17.5,17.6,35.1,35.1,52.6,52.7,2.6,2.6,4.1,1.7,6.2-.4,14.8-14.9,29.7-29.7,44.6-44.6,3.2-3.2,6.3-6.5,9.5-9.8-.9-1.1-1.4-1.9-2-2.6-17.3-17.3-34.7-34.6-51.9-51.9h0ZM-10-34.3c-20.2-20.2-39.1-39.2-57.9-58-18.7,18.9-37.6,37.9-56.7,57.1.2.2.6,1.1,1.3,1.7C-105.7-15.8-88,1.8-70.4,19.6c2.5,2.6,4,1.1,5.8-.7C-51.5,5.6-38.3-7.6-25.1-20.7c4.9-4.9,10.2-9.3,15-13.6h.1ZM228.9-35.7c-18.9-18.8-37.8-37.7-56.7-56.5-18.7,18.8-37.6,37.8-56.2,56.4,18.7,18.9,37.6,37.9,56,56.5,18.9-18.8,38-37.6,56.9-56.4h0ZM-7.7-32.9c-1,.7-1.9,1.3-2.6,2-2.5,2.4-4.9,4.9-7.4,7.4-14.9,14.9-29.7,29.7-44.6,44.5-2.3,2.3-3,3.9-.3,6.5,17.3,17.1,34.5,34.4,51.7,51.6,1.8,1.8,3.2,3.3,5.8.7C12.4,62.1,30,44.4,47.7,26.9c1.9-1.9,1.8-3.2,0-5.1C30.1,4.3,12.6-13.2-5-30.7c-.8-.8-1.7-1.4-2.7-2.2h0ZM114.8-30.8c-.8-.8-1.7-1.3-2.7-2.1-1,.8-1.9,1.3-2.7,2.1C92-13.4,74.6,4,57.2,21.4c-2.4,2.4-2.1,3.9.2,6.1,17.4,17.2,34.7,34.5,51.9,51.9,2.2,2.2,3.6,2.3,5.8,0,17.4-17.5,34.8-34.9,52.3-52.3,2-1.9,2.3-3.4.2-5.5-17.6-17.5-35.1-35-52.7-52.6h0v.2ZM-125.3-30.9c-2.2-2.2-3.6-1.6-5.4.3-17.4,17.5-34.8,34.9-52.3,52.3-2.1,2.1-1.9,3.4,0,5.4,17.5,17.4,34.9,34.8,52.3,52.3,2.2,2.3,3.7,2.1,5.8,0,4.9-5.1,10-10.1,15-15.1,13.1-13,26.2-26,39.6-39.2-.8-1.2-1.1-1.8-1.5-2.2C-89.6,4.9-107.5-13-125.3-30.9ZM-244.6-30.1c-1-1-2.1-1.8-2.9-2.5-19.3,19.3-38.3,38.3-57.1,57.2,18.7,18.8,37.6,37.7,56.9,57.1,1.4-1.4,2.7-2.5,3.9-3.7,16.7-16.6,33.3-33.4,50.1-49.9,3.1-3.1,2.6-4.7-.2-7.5-17-16.8-33.8-33.7-50.7-50.6h0ZM236.2-29.6c-1.2-1.2-2.5-2.2-3.4-3-19.4,19.4-38.3,38.3-57.2,57.1,18.8,18.7,37.7,37.7,57,56.9.7-.6,1.5-1.1,2.1-1.8,17.6-17.5,35.1-35.1,52.8-52.5,2.8-2.7,1.2-4.2-.7-6.1-16.9-16.8-33.8-33.7-50.7-50.6h.1ZM295.2,29.3c-3-3.1-4.5-.9-6.5,1-16.9,16.9-33.7,33.8-50.7,50.5-2.9,2.8-2.8,4.4,0,7.1,16.9,16.6,33.6,33.4,50.2,50.3,3,3,4.8,3.3,8,0,11.4-11.8,23.2-23.2,34.8-34.9,6.2-6.2,12.4-12.5,18.6-18.9-.8-1-1.1-1.7-1.7-2.2-17.6-17.7-35.3-35.3-52.9-53.1h0l.2.2ZM175.1,29.5c-2.5-2.5-4-2-6.2.2-10.8,10.9-21.6,21.8-32.5,32.5-7.3,7.2-14.7,14.2-21.6,20.8,19.8,20,38.7,39.1,57.5,58l56.8-56.8c-.5-.7-1.1-1.6-1.9-2.4-17.4-17.4-34.9-34.8-52.2-52.3h0ZM55.6,29.8c-2.4-2.4-4-2.8-6.5-.2C31.8,47,14.4,64.3-2.8,81.6c-.8.8-1.3,1.7-2.1,2.7.9,1.1,1.5,2.2,2.4,3,17.1,17.1,34.2,34.2,51.2,51.3,2.5,2.5,4.2,3,6.9.2,17-17.2,34.1-34.3,51.2-51.3,2.5-2.4,2.6-3.9,0-6.5-17.2-17-34.3-34.1-51.3-51.3h0ZM-64.1,30.4c-2.9-3-4.6-3.1-7.5-.1-14.6,14.9-29.5,29.5-44.3,44.3-3.2,3.2-6.3,6.5-9.4,9.7.8,1,1.1,1.5,1.6,2,17.6,17.7,35.3,35.3,52.9,53.1,2.5,2.5,4.1,1.9,6.2-.3,7.9-8,15.8-15.9,23.8-23.8,10.1-10,20.2-20,30.8-30.4-1.9-2-3.1-3.4-4.5-4.8-16.6-16.5-33.2-33-49.6-49.7h0ZM-184,30.5c-3.1-3.1-4.8-3.3-7.9-.1-11.4,11.7-22.9,23.1-34.5,34.5-6.4,6.3-13.1,12.3-19.6,18.4.3.4.6.8.9,1.2.4.6.8,1.3,1.3,1.9,17.5,17.6,35.1,35.1,52.5,52.7,2.9,3,4.7,1.7,6.9-.6,16-16.1,32.2-32.2,48.2-48.3,1.9-1.9,3.6-3.8,5.5-5.9-1.2-1.3-2-2.2-2.8-3.1-16.9-16.9-33.9-33.7-50.6-50.7h.1ZM-8.4,87.2c-.7.6-1.4,1.2-2.1,1.9-17.2,17.2-34.3,34.5-51.7,51.6-3,3-2.8,4.7,0,7.6,17,16.8,33.8,33.7,50.7,50.6,1,1,2.1,1.9,2.6,2.4,19.3-19.2,38.3-38.2,57.2-57.1-18.6-18.6-37.6-37.6-57-56.9h.2ZM123,97.1c-3.4-3.4-6.4-7.3-9.1-10.4-20.3,20.2-39.4,39.2-58.7,58.3.3.4.8,1.1,1.3,1.6,17.6,17.7,35.3,35.3,52.9,53,2.6,2.7,4.1,1.5,6.1-.5,16.9-17,33.9-34.1,51-50.9,3-2.9,3-4.6,0-7.5-14.6-14.4-29.1-28.9-43.5-43.5h0ZM-71.2,144.4c-18.7-18.7-37.8-37.7-56-55.9-19,18.8-38.2,37.8-57,56.4l56.2,56.2c18.9-18.9,37.9-37.9,56.7-56.7h.1ZM-191.4,144.1c-18.6-18.6-37.6-37.5-56.2-56-19.1,19.1-38.1,38.1-56.3,56.4,18.5,18.6,37.5,37.7,56,56.2,18.7-18.7,37.7-37.7,56.5-56.6ZM232.5,88.2c-18.9,18.8-37.9,37.8-56.4,56.1,18.7,18.8,37.6,37.9,56.4,56.8,18.7-18.7,37.6-37.6,56.2-56.2-19-19.1-37.9-38.2-56.3-56.7h0ZM-185.4,149.2c-2.5-2.6-4-1.1-5.8.7-17.1,17.1-34.1,34.3-51.3,51.3-2.5,2.5-2.6,4,0,6.5,17.2,17,34.2,34.1,51.4,51.2,1,1,2.1,1.8,2.9,2.5,19.2-19.1,38.2-38,57.3-57.1-.2-.4-.3-.8-.6-1-18-18-36-36-53.9-54.1h0ZM295.8,150.1c-2.9-3-4.6-2.4-7.2.2-16.7,16.9-33.5,33.6-50.3,50.4-1.2,1.2-2.2,2.5-3.2,3.7,19.2,19.2,38.1,38.1,56.8,56.8,19.2-19.1,38.1-38,57.4-57.1-.7-.8-1.6-1.9-2.6-2.9-17-17-34.1-33.9-50.9-51.1h0ZM-11.5,204.5c-18.8-18.9-37.7-37.9-56.4-56.7-18.7,18.9-37.6,37.9-56.1,56.6,18.6,18.7,37.5,37.7,56,56.2,18.8-18.6,37.8-37.5,56.6-56.1h0ZM52.6,148.1c-19.1,19-38.1,37.8-57.2,56.8.2.2.4.8.9,1.2,17.7,17.8,35.5,35.5,53.1,53.4,2.6,2.6,4.1,1.5,6.2-.6,12.9-13,25.9-25.9,38.8-38.9,5.1-5.1,10.1-10.3,15-15.3-19.4-19.4-38.4-38.3-56.8-56.7h0ZM172.3,147.7l-56.5,56.5c18.9,19,37.8,38,56.1,56.3,18.9-18.7,38-37.6,56.7-56.2-18.7-18.8-37.6-37.8-56.4-56.6h.1ZM-8.3,207.6c-.1,0-.7.4-1.1.8-17.9,17.9-35.8,35.8-53.7,53.6-1.9,1.9-1.8,3.2,0,5.1,5.2,5.1,10.3,10.3,15.4,15.4,13,13.1,26.1,26.2,38.7,38.8,19.6-19.4,38.7-38.4,57.4-56.9-18.7-18.7-37.6-37.6-56.8-56.8h.1ZM120.9,215.4c-2.8-2.8-5-6-7.2-8.7-20.2,20.1-39.2,39.1-57.9,57.8,19,19,38,38,57.1,57.1.3-.3,1-.7,1.5-1.2,17.6-17.5,35.1-35.1,52.7-52.6,2.5-2.5,2.3-4.1-.1-6.5-15.4-15.2-30.7-30.5-46-45.9h0ZM-247.8,207.8c-18.8,18.8-37.7,37.8-56.7,56.8l56.6,56.6c18.9-18.9,37.9-37.9,56.7-56.7-18.8-18.9-37.9-37.9-56.6-56.7h0ZM-71.8,264.3c-18.6-18.7-37.5-37.7-56.3-56.5-18.8,18.9-37.8,37.9-56.7,56.8,18.8,18.8,37.9,37.8,56.2,56.1,18.9-18.8,38.1-37.9,56.7-56.4h.1ZM288.4,264.8c-18.7-18.9-37.6-38-55.7-56.4-18.9,18.8-38,37.7-56.7,56.3,18.7,18.7,37.6,37.7,56.1,56.1,19.1-19,38.2-38,56.4-56.1h-.1ZM52.8,267.2c-1.2.7-1.7.8-2,1.1-17.9,17.9-35.8,35.8-53.8,53.6-2.4,2.4-1.6,4,.3,5.9,17.3,17.3,34.7,34.6,51.9,52,2,2,3.4,2.2,5.5.1,17.3-17.4,34.6-34.7,51.9-52,2.8-2.8,2.2-4.5-.3-6.9-11.1-10.8-22-21.8-32.9-32.8-6.9-6.9-13.8-13.9-20.7-21h0ZM292,267.5c-.6.5-1.5,1.1-2.3,1.9-17.4,17.4-34.8,34.9-52.4,52.3-2.3,2.3-1.8,3.8.2,5.8,17.6,17.5,35.1,35.1,52.7,52.6.6.6,1.5,1,2.2,1.4,19-19.1,37.9-38,56.6-56.9-19-19-37.9-38-57.1-57.1h0ZM-130.4,325.5c-19.8-19.8-38.7-38.8-57.2-57.2-18.9,18.8-37.9,37.8-57.1,56.9.1.2.4.8.9,1.2,17.8,17.8,35.5,35.6,53.2,53.4,2.2,2.2,3.6,1.5,5.4-.4,6.1-6.2,12.3-12.3,18.5-18.4,12.1-11.8,24.1-23.7,36.2-35.5h.1ZM172.6,268.5c-18.8,18.6-37.9,37.4-56.4,55.8,18.8,18.9,37.8,37.9,56.3,56.5,18.8-18.7,37.8-37.5,56.3-55.9-18.9-18.9-37.9-38-56.1-56.3h-.1ZM-11.4,324.5c-18.9-18.9-37.9-37.8-56.4-56.3-18.9,18.7-37.9,37.7-56.7,56.3,18.7,18.9,37.7,37.9,56.4,56.7,18.9-18.9,37.8-37.8,56.7-56.7h0Z"/>
      <path class="cls-8" d="M49.1-90.4c.9-.9,1.9-1.5,3-2.4,1.2.9,2.2,1.6,3.1,2.4,17.3,17.3,34.6,34.6,52,51.9,2.3,2.3,1.9,3.7-.2,5.8C89.9-15.6,72.8,1.5,55.8,18.6c-2.8,2.8-4.4,2.8-7.2,0C31.8,1.6,14.8-15.4-2.3-32.3c-2.4-2.4-2.8-4-.2-6.5,17.3-17.1,34.4-34.4,51.6-51.6h0ZM55.6-85.7c-2.4-2.4-4-2.7-6.6-.2-15.7,15.8-31.4,31.6-47.2,47.2-2.1,2.1-2.3,3.5,0,5.8C17.7-17.1,33.5-1.2,49.3,14.7c2.1,2.1,3.5,2.5,5.8.2,15.9-16.1,31.9-32,47.8-48,.8-.8,1.3-1.7,2.1-2.7-.9-1.1-1.7-2.1-2.5-3-15.6-15.7-31.3-31.2-46.8-46.9h0Z"/>
      <path class="cls-3" d="M49-85.9c2.6-2.6,4.2-2.2,6.6.2,15.6,15.7,31.2,31.3,46.8,46.9.9.9,1.6,1.9,2.5,3-.8,1-1.3,2-2.1,2.7C86.9-17.1,70.9-1.2,55,14.9c-2.3,2.3-3.7,1.9-5.8-.2C33.5-1.2,17.7-17.1,1.7-32.8c-2.3-2.3-2.1-3.7,0-5.8,15.8-15.7,31.6-31.4,47.2-47.2h0ZM68.8-56.4c-3.6-4.5-12-5.8-16.8-1.7-8.3,7-16.1,14.6-24.8,22.5,8.8,8,16.9,15.9,25.8,23,5.2,4.1,12.5,2,16.3-3.3,3.3-4.5,2.1-10.3-3.2-15-1-.9-2.7-1.1-4-1.6.7-.8,1.3-1.6,2-2.4,2.1.9,4.2,1.6,6.1,2.8,2,1.2,3.7,2.8,6.1,4.6v-15.9c-4.1,2.3-7.8,4.5-11.6,6.6-.4-.6-.7-1.1-1.1-1.7,1-.8,2-1.5,2.9-2.4,5-4.8,5.9-11.2,2.3-15.7h0v.2Z"/>
      <path class="cls-8" d="M-10.3-30.9c.8-.7,1.7-1.3,2.6-2,1,.8,1.9,1.4,2.7,2.2C12.6-13.2,30.1,4.3,47.7,21.8c1.9,1.9,1.9,3.2,0,5.1C30,44.4,12.4,62.1-5.2,79.8c-2.6,2.6-4,1.1-5.8-.7-17.2-17.2-34.4-34.5-51.7-51.6-2.7-2.7-2-4.3.3-6.5C-47.4,6.2-32.6-8.7-17.7-23.6l7.4-7.4h0ZM-5.1-26.3c-2.1-2.1-3.4-2-5.4,0C-26.4-10.3-42.4,5.7-58.4,21.7c-2.1,2-2,3.4,0,5.4,15.9,15.8,31.8,31.7,47.6,47.6,2.3,2.4,3.8,2.2,6.1,0,15.8-15.9,31.7-31.8,47.6-47.6.8-.8,1.3-1.7,2.2-2.7-.9-1.1-1.7-2.1-2.6-3C26.6,5.5,10.7-10.4-5.1-26.3Z"/>
      <path class="cls-8" d="M112.1-32.9c1,.8,1.9,1.3,2.7,2.1,17.6,17.5,35.1,35.1,52.7,52.6,2.1,2.1,1.8,3.5-.2,5.5-17.5,17.4-34.9,34.8-52.3,52.3-2.2,2.2-3.6,2.1-5.8,0-17.2-17.4-34.5-34.7-51.9-51.9-2.3-2.2-2.6-3.7-.2-6.1C74.6,4,92-13.4,109.5-30.8c.8-.8,1.7-1.3,2.7-2.1h0ZM115-26.2c-2.2-2.2-3.6-2.1-5.7.1-15.8,16-31.6,31.8-47.6,47.6-2.3,2.3-2.1,3.6,0,5.7,15.9,15.8,31.8,31.6,47.6,47.6,2.3,2.3,3.6,2.1,5.7,0,15.8-15.9,31.7-31.8,47.6-47.7.8-.8,1.4-1.6,2.3-2.7-.8-1.1-1.5-2.1-2.4-3-15.9-15.9-31.8-31.7-47.6-47.6h0Z"/>
      <path class="cls-5" d="M-10.5-26.3c2-2,3.2-2.1,5.4,0C10.7-10.4,26.6,5.5,42.5,21.3c.9.9,1.6,1.9,2.6,3-.8,1-1.4,1.9-2.2,2.7-15.9,15.9-31.8,31.7-47.6,47.6-2.3,2.3-3.8,2.5-6.1,0-15.8-16-31.7-31.8-47.6-47.6-2.1-2-2.1-3.4,0-5.4C-42.4,5.7-26.4-10.3-10.5-26.3ZM16.2,24.4C5.5,18.8-2.1,11.2-7.9.3c-5.5,11.1-13.3,18.4-23.7,24.1,10.8,5.6,18.1,13.2,23.7,23.7C-2,37.7,5.3,29.9,16.2,24.4h0Z"/>
      <path class="cls-5" d="M109.3-26.1c2.2-2.2,3.5-2.4,5.7-.1,15.8,15.9,31.7,31.8,47.6,47.6.9.9,1.5,1.9,2.4,3-.9,1.1-1.5,1.9-2.3,2.7-15.9,15.9-31.8,31.7-47.6,47.7-2.1,2.2-3.5,2.3-5.7,0-15.8-16-31.7-31.8-47.6-47.6-2.2-2.1-2.4-3.4,0-5.7,16-15.8,31.8-31.6,47.6-47.6h0ZM122.3,6.2c-7.7-6.5-16.8-8.7-26.6-4.8-4.3,1.7-7.6,4.7-8.1,9.6-.5,4.8,2.3,8,6.1,10.4,1.3.8,2.5,1.7,4.5,3-1.9,1.2-3.2,2-4.5,2.8-3.6,2.4-6.4,5.3-6.1,10,.3,5,3.4,8.7,7.8,9.7,5.2,1.3,11.1,2.2,16.1,1,11.7-2.8,18.8-11.6,24.4-21.7.7-1.2.3-3.9-.7-5.1-4.1-5.2-7.9-10.8-12.9-15h0Z"/>
      <path class="cls-8" d="M95.7,1.4c9.8-3.9,18.9-1.7,26.6,4.8,5,4.2,8.9,9.8,12.9,15,.9,1.2,1.4,3.9.7,5.1-5.6,10-12.8,18.9-24.4,21.7-5.1,1.2-10.9.3-16.1-1-4.4-1.1-7.5-4.8-7.8-9.7-.3-4.7,2.5-7.6,6.1-10,1.3-.8,2.6-1.6,4.5-2.8-1.9-1.3-3.2-2.2-4.5-3-3.8-2.4-6.6-5.6-6.1-10.4.5-4.9,3.8-7.9,8.1-9.6h0Z"/>
      <path class="cls-8" d="M-7.9.3C-2.1,11.2,5.5,18.8,16.2,24.4,5.3,29.9-2,37.7-7.9,48.1c-5.5-10.5-12.9-18-23.7-23.7C-21.2,18.7-13.4,11.4-7.9.3Z"/>
      <path class="cls-8" d="M49,29.6c2.6-2.6,4.1-2.2,6.5.2,17,17.2,34.1,34.3,51.3,51.3,2.6,2.5,2.4,4,0,6.5-17.2,17-34.2,34.1-51.2,51.3-2.7,2.8-4.5,2.3-6.9-.2C31.6,121.5,14.5,104.4-2.6,87.3c-.9-.9-1.5-1.9-2.4-3,.8-1,1.4-2,2.1-2.7C14.4,64.3,31.8,47,49,29.6ZM55,33.9c-.8-.8-1.6-1.4-2.8-2.3-1.2,1-2.3,1.8-3.2,2.8-15.5,15.5-30.9,31.1-46.6,46.5-2.9,2.9-2.7,4.5,0,7.2,15.5,15.3,30.9,30.7,46.2,46.2,2.9,3,4.7,2.5,7.3-.2,15.3-15.5,30.7-30.9,46.2-46.2,2.7-2.6,2.8-4.2,0-6.8-15.8-15.6-31.5-31.4-47.3-47.2h0Z"/>
      <path class="cls-3" d="M52.2,31.6c1.1.9,2,1.5,2.8,2.3,15.7,15.7,31.4,31.5,47.3,47.2,2.7,2.7,2.6,4.2,0,6.8-15.5,15.3-30.9,30.7-46.2,46.2-2.6,2.6-4.3,3.1-7.3.2-15.3-15.5-30.7-30.9-46.2-46.2-2.7-2.7-3-4.3,0-7.2,15.7-15.4,31.1-31,46.6-46.5,1-1,2.1-1.8,3.2-2.8h-.1ZM65,65.1c-2.7-4.4-7.1-6.4-12.2-5.4-6.4,1.2-9.5,5.6-10.4,12-9.7.8-14.5,4.6-14.9,11.6-.4,7.6,3,13,14.9,14,.9,5.8,3.7,10.5,10,11.6,5.2,1,9.9-.5,12.6-5.4,3.6-6.4,1.9-12.2-3.2-17.4.3-.3.6-.7.9-1,4.6,2,9.2,4,13.8,6.1v-13.5c-4.9,2.2-9.4,4.2-13.9,6.2-.4-.3-.8-.6-1.2-1,5.9-5.2,7.8-11.1,3.7-17.7h0Z"/>
      <path class="cls-5" d="M52.8,59.7c5.2-1,9.5,1,12.2,5.4,4.1,6.6,2.2,12.6-3.7,17.7.4.3.8.6,1.2,1v1.3c-.2.3-.5.7-.8,1,5.1,5.2,6.9,11,3.2,17.4-2.7,4.8-7.4,6.4-12.6,5.4-6.3-1.2-9-5.8-10-11.6-11.8-1-15.2-6.4-14.9-14,.3-7,5.1-10.8,14.9-11.6.9-6.4,4-10.8,10.4-12h0Z"/>
      <path class="cls-5" d="M76.4,77.6v13.5c-4.6-2-9.2-4-13.8-6.1v-1.3c4.4-2,8.9-4,13.8-6.2h0Z"/>
      <path class="cls-8" d="M-10.5,89c.7-.7,1.4-1.2,2.1-1.9,19.4,19.3,38.3,38.3,57,56.9-18.9,18.8-38,37.9-57.2,57.1-.6-.5-1.7-1.4-2.6-2.4-16.9-16.9-33.7-33.8-50.7-50.6-2.9-2.9-3.1-4.6,0-7.6,17.3-17.1,34.5-34.4,51.7-51.6h-.2ZM1.9,100.9c-3.1-3.1-5.9-6.5-8.5-9.4-18.3,18.3-35.8,35.8-53,52.9,17.1,17.1,34.6,34.6,52.3,52.4.3-.2.7-.4,1-.7,16.3-16.3,32.6-32.7,49-48.9,2.3-2.3,1.9-3.7-.2-5.8-13.6-13.4-27.1-27-40.6-40.5h0Z"/>
      <path class="cls-5" d="M108.6,95c1.1-1.1,2.2-2.1,3.2-3,17.6,17.8,35,35.3,52.2,52.6-17,16.8-34.5,34.2-52.5,52-.6-.5-1.8-1.6-3-2.8-15.2-15.2-30.3-30.5-45.7-45.5-3.2-3.2-2.9-4.8.2-7.8,15.4-15,30.5-30.3,45.7-45.5h0ZM136.3,144.4c-10.7-5.6-18.4-13.2-23.9-24-5.5,11-13.5,18.3-23.9,24.2,11.1,5.3,18.1,13.3,24.1,23.4,5.7-10.6,13.2-18.1,23.8-23.6h0Z"/>
      <path class="cls-8" d="M113.9,86.6c2.7,3.1,5.7,7,9.1,10.4,14.4,14.6,28.9,29.2,43.5,43.5,3,2.9,3,4.6,0,7.5-17.1,16.8-34,33.9-51,50.9s-3.5,3.2-6.1.5c-17.5-17.8-35.2-35.4-52.9-53-.5-.5-1-1.2-1.3-1.6,19.2-19.1,38.3-38.1,58.7-58.3h0ZM111.8,92c-.9.9-2.1,1.9-3.2,3-15.2,15.2-30.3,30.5-45.7,45.5-3.1,3-3.4,4.6-.2,7.8,15.4,15,30.5,30.3,45.7,45.5,1.2,1.2,2.5,2.3,3,2.8,17.9-17.8,35.5-35.2,52.5-52-17.2-17.3-34.5-34.9-52.2-52.6h0Z"/>
      <path class="cls-5" d="M-6.6,91.5c2.6,2.9,5.4,6.3,8.5,9.4,13.5,13.6,27,27.1,40.6,40.5,2.1,2.1,2.6,3.5.2,5.8-16.4,16.2-32.7,32.6-49,48.9-.3.3-.8.5-1,.7-17.7-17.8-35.2-35.3-52.3-52.4,17.1-17.1,34.6-34.6,53-52.9h0ZM3.5,127.2c-7.9-6.3-16.6-9.8-26.8-6.2-4.3,1.5-7.9,4.1-8.9,9-1.1,5.3,1.7,8.7,5.7,11.5,1.3.9,2.5,1.7,4.2,2.9-2.4,1.7-4.5,3-6.4,4.6-5.4,4.7-5.2,12.2.6,16.2,2.4,1.7,5.3,2.9,8.2,3.4,13.6,2.3,23.2-4.6,30.7-14.7,7.8-10.4,7.6-8.5.4-18.5-2.2-3-4.8-5.9-7.7-8.3h0Z"/>
      <path class="cls-8" d="M-23.4,121c10.2-3.6,19-.2,26.8,6.2,2.9,2.3,5.5,5.2,7.7,8.3,7.2,10,7.4,8.1-.4,18.5-7.6,10.1-17.2,16.9-30.7,14.7-2.8-.5-5.8-1.7-8.2-3.4-5.8-4.1-6-11.6-.6-16.2,1.8-1.6,4-2.9,6.4-4.6-1.7-1.1-3-2-4.2-2.9-4-2.8-6.8-6.2-5.7-11.5,1-4.8,4.6-7.4,8.9-9h0Z"/>
      <path class="cls-8" d="M112.3,120.4c5.6,10.8,13.2,18.4,23.9,24-10.7,5.6-18.1,13-23.8,23.6-5.9-10.1-13-18.1-24.1-23.4,10.5-5.9,18.4-13.2,23.9-24.2h.1Z"/>
      <path class="cls-3" d="M49,154.2c2.3-2.3,3.8-2.5,6.2-.1,15.6,15.7,31.2,31.3,46.9,46.9,1,1,1.8,2.1,2.9,3.4-.9,1.2-1.6,2.3-2.4,3.1-15.8,15.9-31.7,31.7-47.5,47.7-2.3,2.3-3.7,1.9-5.8-.2-15.6-15.7-31.2-31.4-46.9-46.9-2.9-2.9-2.5-4.6.2-7.3,15.6-15.4,31.1-31,46.5-46.6h-.1ZM65.8,181.2c-4.3-2.7-11-1.9-15.1,1.7-5.9,5.2-11.6,10.7-17.5,16-1.9,1.8-4,3.3-6.3,5.2,2.8,2.6,4.7,4.3,6.5,6,6.2,5.6,12.1,11.5,18.7,16.8,5.1,4.1,13,2.8,16.7-1.8,3.7-4.5,2.8-10.6-2.2-15.6s-1.9-2.1-2.9-3.2c.3-.4.7-.8,1-1.3,3.8,2.4,7.7,4.7,11.7,7.2v-15.7c-4.1,2.5-7.9,5-11.8,7.4-.3-.5-.7-1-1-1.5,1.2-1.1,2.7-2.1,3.6-3.5,1.4-2.2,3.1-4.5,3.6-6.9,1.1-4.6-1-8.4-5-10.9h0Z"/>
      <path class="cls-5" d="M50.7,183c4.1-3.6,10.8-4.4,15.1-1.7,4,2.4,6.1,6.2,5,10.9-.6,2.5-2.2,4.8-3.6,6.9-.9,1.3-2.4,2.3-3.6,3.5.3.5.7,1,1,1.5v1.1c-.2.4-.5.8-.8,1.3,1,1.1,1.9,2.2,2.9,3.2,5,4.9,5.9,11,2.2,15.6-3.8,4.6-11.7,5.8-16.7,1.8-6.5-5.2-12.5-11.1-18.7-16.8-1.9-1.7-3.7-3.4-6.5-6,2.2-1.8,4.3-3.4,6.3-5.2,5.9-5.3,11.6-10.7,17.5-16h0Z"/>
      <path class="cls-8" d="M-4.6,204.9c19.1-19,38.1-37.8,57.2-56.8,18.4,18.4,37.4,37.3,56.8,56.7-4.9,5-9.9,10.2-15,15.3-12.9,13-25.9,25.9-38.8,38.9-2,2.1-3.6,3.2-6.2.6-17.7-17.8-35.4-35.6-53.1-53.4-.4-.4-.7-1-.9-1.2h0ZM55.2,154.1c-2.4-2.4-3.9-2.2-6.2.1-15.4,15.6-30.9,31.1-46.5,46.6-2.7,2.7-3.1,4.4-.2,7.3,15.7,15.5,31.3,31.2,46.9,46.9,2.1,2.1,3.5,2.5,5.8.2,15.8-15.9,31.7-31.8,47.5-47.7.9-.9,1.5-1.9,2.4-3.1-1.1-1.3-1.9-2.4-2.9-3.4-15.6-15.6-31.3-31.2-46.9-46.9h.1Z"/>
      <path class="cls-5" d="M76.4,196.6v15.7c-4-2.5-7.9-4.9-11.7-7.2v-1.1c3.7-2.4,7.6-4.9,11.7-7.4h0Z"/>
      <path class="cls-8" d="M-9.4,208.4c.4-.4,1-.7,1.1-.8,19.1,19.1,38.1,38.1,56.8,56.8-18.7,18.5-37.8,37.5-57.4,56.9-12.6-12.7-25.7-25.7-38.7-38.8-5.1-5.1-10.2-10.4-15.4-15.4-1.9-1.8-2-3.2,0-5.1,17.9-17.8,35.8-35.7,53.7-53.6h-.1ZM-7.6,211.8c-.8.6-1.7,1-2.3,1.6-16.3,16.3-32.6,32.6-48.8,49-.7.7-.7,3.4,0,4.1,16.1,16.3,32.3,32.5,48.4,48.7,1.8,1.8,3.1,2,5.1,0,15.9-16,31.9-32,47.9-48,2.2-2.2,2.2-3.6,0-5.8-15.9-15.8-31.8-31.7-47.7-47.6-.8-.8-1.7-1.4-2.7-2.2h0v.2Z"/>
      <path class="cls-5" d="M-9.9,213.5c.6-.6,1.5-1.1,2.3-1.6,1,.8,1.9,1.5,2.7,2.2,15.9,15.9,31.7,31.8,47.7,47.6,2.2,2.2,2.2,3.6,0,5.8-16,15.9-32,31.9-47.9,48-2,2-3.3,1.7-5.1,0-16.2-16.2-32.4-32.4-48.4-48.7-.7-.7-.8-3.4,0-4.1,16.2-16.4,32.5-32.7,48.8-49h0v-.2ZM15.9,264.5c-10.5-5.6-17.8-13.4-23.8-23.6-5.7,10.5-13.1,18.2-24,23.8,11.1,5.3,18.3,13.3,24.1,23.6,5.7-10.7,13.4-17.9,23.6-23.7h0Z"/>
      <path class="cls-5" d="M109,214.3c2.3-2.3,3.7-2.6,6.1-.1,15.8,15.9,31.7,31.8,47.5,47.6.8.8,1.4,1.6,2.2,2.6-.8,1-1.3,1.9-2.1,2.7-16,16-32,31.9-47.9,47.9-2.2,2.2-3.6,2-5.8-.1-15.8-15.9-31.6-31.8-47.6-47.6-2.4-2.3-1.9-3.7.2-5.7,15.8-15.7,31.6-31.4,47.2-47.3h.2ZM118.6,243.7c-8.2-4.6-16.7-5.9-25.2-1-7.6,4.3-8,12.5-1.1,17.9,1.6,1.2,3.3,2.3,5.6,3.9-2.2,1.5-3.8,2.5-5.3,3.7-7.2,5.5-7,14,.9,18,4.1,2.1,9.5,3.1,14,2.6,13.9-1.5,21.9-11.3,28.4-22.6.6-1,.4-2.9-.2-3.9-4.3-7.5-9.5-14.2-17.1-18.5h0Z"/>
      <path class="cls-8" d="M113.7,206.7c2.2,2.7,4.5,5.9,7.2,8.7,15.2,15.4,30.6,30.7,46,45.9,2.4,2.4,2.6,4.1.1,6.5-17.6,17.5-35.1,35-52.7,52.6-.5.5-1.2,1-1.5,1.2-19.1-19.1-38.1-38.1-57.1-57.1,18.8-18.7,37.8-37.7,57.9-57.8h0ZM115.2,214.2c-2.4-2.5-3.8-2.2-6.1.1-15.7,15.8-31.4,31.6-47.2,47.3-2.1,2.1-2.6,3.4-.2,5.7,16,15.8,31.8,31.6,47.6,47.6,2.2,2.2,3.6,2.4,5.8.1,15.9-16,31.9-32,47.9-47.9.8-.8,1.3-1.7,2.1-2.7-.8-1-1.5-1.9-2.2-2.6-15.9-15.9-31.8-31.7-47.5-47.6h-.2Z"/>
      <path class="cls-8" d="M93.4,242.7c8.5-4.9,17.1-3.6,25.2,1,7.7,4.3,12.9,11,17.1,18.5.6,1.1.8,3,.2,3.9-6.5,11.2-14.5,21.1-28.4,22.6-4.6.5-9.9-.6-14-2.6-8-4-8.1-12.5-.9-18,1.5-1.1,3.1-2.1,5.3-3.7-2.3-1.6-4-2.6-5.6-3.9-6.8-5.4-6.4-13.6,1.1-17.9h0Z"/>
      <path class="cls-8" d="M-7.9,240.9c6,10.2,13.3,18,23.8,23.6-10.2,5.8-17.9,13.1-23.6,23.7-5.9-10.3-13-18.3-24.1-23.6,10.8-5.6,18.3-13.2,24-23.8h0Z"/>
    </g>
  </g>
  <rect class="cls-7" x="28.8" y="26.7" width="64.6" height="218.9"/>
  <path class="cls-6" d="M93.4,96.6c-4.3,0-8.5,1.5-12.2,4.2-3.7,2.8-6.2,6.4-7.4,10.8-2,7.6-.2,14.3,4.8,20.3-.4,0-.9-.1-1.3-.2-4-1-8-.8-11.9.6-13.1,5-17.2,21.2-7.9,31.8,5.7,6.5,14.9,8.6,22.6,5.2,4.4-2,7.8-5,9.6-9.7,0-.3.4-.6.7-.9,0,.4.4.7.4,1.1,0,4.9-.8,9.6-3.4,13.9-1.4,2.4-3.5,4.2-5.4,6.1-.3.3-.4.9-.6,1.4.5.2.9.5,1.4.5h10.7v-85h0Z"/>
</svg>