<?xml version="1.0" encoding="UTF-8"?>
<svg id="Layer_1" data-name="Layer 1" xmlns="http://www.w3.org/2000/svg" xmlns:xlink="http://www.w3.org/1999/xlink" version="1.1" viewBox="0 0 63.4 378">
  <defs>
    <style>
      .cls-1 {
        clip-path: url(#clippath);
      }

      .cls-2 {
        fill: none;
      }

      .cls-2, .cls-3, .cls-4, .cls-5, .cls-6 {
        stroke-width: 0px;
      }

      .cls-3 {
        fill: #79c258;
      }

      .cls-4 {
        fill: #9db93e;
      }

      .cls-5 {
        fill: #aed256;
      }

      .cls-6 {
        fill: #a59e37;
      }
    </style>
    <clipPath id="clippath">
      <rect class="cls-2" width="63.4" height="378"/>
    </clipPath>
  </defs>
  <g class="cls-1">
    <g>
      <path class="cls-4" d="M307.9,293.6v3c-7.9-7.7-15.7-15.5-23.1-22.8-.4-.4-.8-.8-1.3-1.2-12.3,12.3-24.4,24.3-36.3,36.1,11.7,11.8,23.7,23.8,36.1,36.2.5-.5,1-1,1.4-1.5l1.2,1.2h0c-1.2,1.2-1.1,2-.4,2.9l-1.1,1c-.3-.3-.5-.6-.8-.9-12.8,12.7-24.8,24.8-37.6,37.6,3.3,3,6.7,6.1,10.1,9.2h-3c-2.7-2.8-5.4-5.7-8-8.5-3.2,3.1-6,5.8-8.8,8.5h-2.4c3.1-3.3,6.1-6.7,9.1-9.9-12.1-12.1-24.2-24.1-35.8-35.8-12,11.9-24.1,24-36.2,36.1,2.8,3.1,5.9,6.3,8.9,9.6h-2.4c-2.8-2.8-5.5-5.7-8.5-8.8-3,3.2-5.6,6-8.3,8.8h-3c3.2-3.3,6.5-6.6,9.4-9.7-12.3-12.4-24.2-24.4-36-36.2-.6.6-1.1,1.1-1.7,1.7-11.4,11.4-22.9,22.9-35.2,35.1,3.3,2.9,6.7,6,10.1,9h-3c-2.6-2.8-5.3-5.6-7.8-8.2-.7.3-1,.3-1.2.5-2.6,2.6-5.2,5.2-7.8,7.7h-2.4c3-3.3,6.1-6.7,8.9-9.7-1.1-1.1-2.1-2.1-3.2-3.2-11-11.1-22-22-33-33.1,0,0-.5.2-.7.5-11.3,11.3-22.6,22.6-34,33.9-1.2,1.2-1.2,2,0,3.2,2.7,2.7,5.3,5.6,8,8.4h-2.4c-2.3-2.3-4.5-4.7-7-6.9-.6-.5-2.4-.8-2.8-.3-2.5,2.3-4.7,4.8-7,7.2h-3c3.2-3.3,6.3-6.6,9.4-9.7-12.2-12.2-24.3-24.2-36.1-36-11.9,11.8-23.9,23.8-36.8,36.6,3.3,2.9,6.7,6,10.1,9.1h-3c-2.7-2.8-5.4-5.7-8.1-8.6-3.2,3.1-5.9,5.8-8.7,8.6h-2.4c3.1-3.3,6.1-6.7,9-9.9-12.2-12.1-24.2-24.1-36.1-36-11.8,11.8-23.9,23.8-36,36,3,3.2,6,6.5,9.1,9.9h-2.4c-2.8-2.8-5.6-5.6-8.7-8.6-2.8,3-5.5,5.8-8.1,8.6h-3c3.2-3.3,6.5-6.6,9.3-9.6-12.4-12.4-24.3-24.4-37-37.2-.4.5-.7,1-1.1,1.6l-1.1-1.1h0c1.4-1.4,1.4-2.4,0-3.7-4.1-3.9-8.1-7.9-12.1-11.9v-2.4c4.5,4.3,9.1,8.6,13.4,12.7.5.5,1,1,1.6,1.5,12.3-12.2,24.3-24.1,36.1-35.9-11.9-11.9-23.9-24-36.7-36.8-4.6,4.9-9.5,10.1-14.3,15.3v-3c4.3-4.7,8.6-9.3,13.2-14.3-4.1-3.9-8.7-8.3-13.2-12.7v-3c5,5,10,9.9,15.1,14.9.7-.5,1.1-.7,1.4-1.1,11.2-11.2,22.4-22.5,33.7-33.6,1.8-1.8.6-2.7-.6-3.8l-30.9-30.9c-1.1-1.1-2.3-2.1-3.5-3.3-1.2,1.1-2.1,2-3,2.9-4.1,3.9-8.1,7.9-12.2,11.8v-2.4c3.9-3.9,7.8-7.9,11.8-11.8,1.6-1.5,1.6-2.6,0-4.1-4-3.8-7.9-7.8-11.9-11.7v-2.4c5.1,4.8,10.2,9.7,14.8,14.1l2.9-2.9c11.3-11.2,22.3-22.2,33.3-33.1-11.9-11.8-23.9-23.8-36.1-36.1-4.8,4.8-9.9,9.7-14.9,14.7v-3c4.3-4.7,8.5-9.4,12.3-13.6-3.7-4.1-8-8.8-12.3-13.4v-3c4.8,5.2,9.6,10.4,14.2,15.4,12.9-12.9,24.9-24.9,36.6-36.7-11.8-11.8-23.8-23.9-36-36.1-.7.7-1.6,1.4-2.4,2.3-4.2,4-8.3,8-12.5,12v-2.4c4-3.9,7.9-7.9,11.9-11.7,1.5-1.5,1.7-2.6,0-4.2-4-3.8-8-7.8-11.9-11.7v-2.4c4.5,4.3,9.1,8.6,13.4,12.7.5.5,1.1,1,1.6,1.5,12.2-12.2,24.3-24.2,36.1-35.9-11.9-11.9-24-24-36.8-36.9-4.6,5-9.4,10.2-14.2,15.3v-3c4.3-4.7,8.6-9.3,13.1-14.2-1.7-1.8-3.8-4-5.9-6.2h3c4,6,4.9,6.1,9.6,1,.3-.3.4-.7.6-1h3c-2.1,2.3-4.2,4.5-6.4,6.9.6.7,1,1.4,1.6,1.9,10.9,10.9,21.9,21.9,32.8,32.9,1.6,1.6,2.5,1.2,3.9-.2,6-6.1,12.1-12.2,18.2-18.2,5.4-5.3,10.8-10.6,16.3-15.9-2.4-2.7-4.4-5-6.4-7.3h2.4c3.5,3.9,7,3.9,10.6.2,0,0,0-.2.2-.2h2.4c-2,2.3-4,4.6-5.6,6.5,12.1,12.2,24.1,24.2,35.9,36,11.8-11.8,23.7-23.8,35.9-35.9-1.9-2-4-4.3-6.1-6.5h3c1.3,1.5,2.6,3,4.1,4.3.4.4,1.8.4,2.2,0,1.4-1.3,2.6-2.9,3.9-4.3h3c-2.1,2.2-4.2,4.5-6.2,6.6C-6.6-21.3,5.4-9.4,17.5,2.7c0,0,.5,0,.7-.4,11.4-11.4,22.7-22.8,34.1-34.1,1.1-1.1.9-2,0-3-1.7-1.7-3.2-3.5-4.8-5.2h2.4c6.6,6.8,4.3,6.2,10.6.2,0,0,0-.2.2-.2h2.4c-1.1,1.3-2.1,2.6-3.3,3.8-3.1,3.1-3.1,3-.2,6,9.1,9.1,18.2,18.2,27.3,27.3s4.1,4,6,5.8c11.2-11.2,22.1-22.1,33.2-33.2,1.1-1.1,2.1-2.1,3.2-3.2-2-2.1-4.1-4.3-6.2-6.5h3c4.1,6,4.9,6.1,9.6,1,.3-.3.4-.7.6-1h3c-2.1,2.3-4.2,4.5-6,6.4.9.9,1.8,1.8,2.7,2.7,11.2,11.3,22.3,22.4,33.4,33.5,11.8-11.8,23.8-23.8,35.8-35.9-1.9-2.1-3.9-4.4-5.8-6.7h2.4c6.5,6.7,4.4,6.2,10.6.2,0,0,.1-.2.2-.2h2.4c-2,2.3-4,4.6-6,7,.5.6.9,1.2,1.4,1.7,11,11,22.1,22,33,33.1,1.9,1.9,2.8.7,4.1-.5,10.7-10.7,21.4-21.5,32.2-32.2.6-.6,1.1-1.3,1.8-2.1-2.2-2.4-4.3-4.6-6.4-6.9h3c1.3,1.5,2.6,3,4,4.3.4.4,1.8.4,2.2,0,1.4-1.3,2.7-2.9,4-4.3h3c-2.1,2.2-4.2,4.5-7.1,7.5.3.2.5.4.8.6l-1,1h-.1c-12.4,12.1-24.4,24.1-36.3,35.9,11.8,11.8,23.7,23.8,35.8,35.9.5-.4,1-.9,1.5-1.4.2-.2.4-.3.5-.5,4.5-4.5,9-9.1,13.6-13.5,3-2.9,6-5.7,9.1-8.6v2.4c-7.2,7.2-14.4,14.4-21.7,21.5-1.6,1.6-1.1,2.6.2,3.9,7.2,7.1,14.3,14.2,21.5,21.4v2.4c-.8-.6-1.6-1.1-2.3-1.8l-19.5-19.5c-1-1-2-1.9-2.8-2.6-12.2,12.2-24.3,24.2-36,36,11.9,11.9,23.9,24,36.6,36.8h.1c0,0,.9.8.9.8-.1,0,0,.4-.1.6-.2.2-.4.4-.6.7.7.6,1.4,1.1,2.2,1.6l-1.1,1.1h0c-1.7-1.8-2.6-1.8-4.3,0-10.7,10.9-21.6,21.7-32.5,32.4-1.8,1.8-1.5,2.7.1,4.3h.1c10.7,10.7,21.3,21.4,31.9,32,.7.7,1.5,1.3,2.4,2.2,8.4-8.4,16.6-16.6,24.9-24.8v3c-7.1,7.1-14.2,14.3-21.5,21.4-1.6,1.6-1.6,2.5,0,4.1,7.2,7.1,14.3,14.2,21.5,21.3v3c-8.2-8.3-16.5-16.5-24.2-24.3l-1.4,1.4c-11.9,11.8-23.5,23.3-34.9,34.6,11.8,11.7,23.8,23.7,36,35.9,8-7.9,16.2-16.1,24.4-24.2v3c-.8.6-1.6,1.2-2.3,1.9-6.1,6-12.1,12.1-18.2,18.1q-3,3,0,6.1c6.8,6.7,13.6,13.4,20.4,20.1h0v-.2ZM279.8,196.4c1.4-1.4,1.2-2.4-.1-3.7-10.9-10.8-21.8-21.7-32.6-32.6-1.6-1.6-2.6-1.5-4.2,0-4.6,4.8-9.4,9.5-14.2,14.2-6.6,6.6-13.3,13.2-20.1,19.9.4.7.5,1,.7,1.2,11.3,11.3,22.6,22.6,33.9,33.9,1.5,1.5,2.5,1.1,3.7-.2,10.9-11,21.8-21.9,32.8-32.9h0v.2ZM245,306.2c11.9-11.9,23.9-23.8,35.8-35.7-11.9-11.9-23.9-23.8-35.4-35.4-12,11.9-24,23.9-35.7,35.4,11.7,11.8,23.6,23.9,35.3,35.7h0ZM280.5,42.4c-11.6-11.6-23.5-23.6-35.4-35.4-11.8,11.9-23.8,24-35.6,35.9,11.6,11.7,23.6,23.7,35.1,35.4,11.9-12,24-24,35.8-35.9h.1ZM245.1,154.4c11.8-11.8,23.8-23.8,35.3-35.3-11.9-12.1-23.9-24.2-35.4-35.9-11.9,11.8-23.9,23.8-35.7,35.5,11.9,11.9,23.8,23.9,35.7,35.7h.1ZM245,382.2c11.9-11.8,23.9-23.8,35.7-35.6-12-12-24-24-35.6-35.7-11.9,11.8-23.9,23.8-35.6,35.5,11.8,11.9,23.7,23.9,35.5,35.8h0ZM243.1,156.4c-.2-.3-.6-.8-1-1.2-11.1-11.1-22.2-22.2-33.2-33.3-1.6-1.6-2.6-1.1-3.9.2-6.9,7-13.8,13.9-20.7,20.8-4.5,4.5-9.2,8.8-13.4,12.9,12.6,12.6,24.7,24.6,36.5,36.3,11.7-11.7,23.7-23.6,35.8-35.7h-.1ZM234.8,241.3c2.9-2.9,5.7-5.8,8.3-8.4-12.2-12.3-24.2-24.3-35.8-36-11.9,11.9-24,23.9-36.2,36,.1.1.4.6.7.9,11.1,11.1,22.2,22.1,33.2,33.3,1.6,1.7,2.7,1.3,4.1-.2,8.5-8.6,17.1-17.1,25.6-25.7h0ZM242.6,80.9c-11.8-11.9-23.9-24-35.4-35.5-11.8,11.7-23.9,23.7-35.7,35.3,11.8,11.9,23.7,23.9,35.6,35.8,11.9-12,23.9-24,35.5-35.7h0ZM206.9,344.1c12-11.9,24.1-23.9,35.6-35.4-11.9-11.9-23.9-24-35.7-35.9-11.8,11.8-23.8,23.8-35.6,35.6,12,11.9,24,24,35.7,35.6h0ZM242.9,4.9c-11.9-11.9-24-24-35.7-35.8-11.9,11.9-24,23.9-35.9,35.8,11.8,11.9,23.9,23.9,35.8,35.9,11.8-11.9,23.8-23.9,35.7-35.9h.1ZM205.8,194.9c-1.3-1.4-2.1-2.3-2.9-3.2-10.5-10.5-21-20.9-31.3-31.4-1.9-1.9-2.9-1.9-4.8,0-10.7,10.8-21.4,21.5-32.2,32.2-1.5,1.5-1.6,2.4,0,3.9,10.9,10.8,21.8,21.7,32.6,32.6,1.7,1.8,2.8,1.5,4.3-.1,5.9-6,11.8-11.9,17.8-17.8,5.4-5.3,10.9-10.6,16.6-16.2h-.1ZM205.1,42.5c-.3-.3-.7-.9-1.2-1.4-11-11-22.1-22-33-33.2-1.7-1.7-2.6-1-3.9.3-10.8,10.9-21.6,21.7-32.5,32.4-1.6,1.6-1.5,2.6,0,4.1,10.9,10.8,21.7,21.6,32.5,32.4.6.6,1.3,1.1,1.8,1.5,12.1-12.2,24.1-24.2,36.2-36.3h0v.2ZM204.6,346.9c-12-12-24-24.1-36-36.2.2-.1,0,0-.2.1-11.3,11.3-22.6,22.6-34,33.8-1.7,1.7-.9,2.6.4,3.9,10.8,10.8,21.6,21.6,32.4,32.4.6.6,1.3,1.1,1.9,1.6,12.1-12.2,24-24.1,35.5-35.6h0ZM204.7,118.6c-11.8-11.9-23.7-23.9-35.4-35.7-12,12-24,24-35.7,35.8,11.8,11.8,23.7,23.8,35.5,35.6l35.7-35.7h0ZM204.8,270.5c-11.8-11.8-23.7-23.8-35.5-35.6-11.9,11.9-24,23.9-35.5,35.4,11.8,11.9,23.8,24,35.5,35.8,11.8-11.8,23.8-23.8,35.6-35.7h0ZM167.1,156.4c-.1-.2-.3-.5-.5-.8-11.3-11.3-22.6-22.6-33.9-33.9-1.6-1.7-2.5-.7-3.6.4-5.9,5.9-11.8,11.9-17.8,17.8-5.5,5.5-11.1,10.9-16.5,16.3,12.4,12.3,24.4,24.3,36.2,36.1,12-11.9,24-23.8,36.1-35.9h0ZM166.1,310.1c1.8-1.8.7-2.7-.5-3.9-10.7-10.7-21.3-21.3-32-32-.8-.7-1.6-1.4-1.9-1.7-12.3,12.3-24.3,24.3-36.1,36.1,11.7,11.8,23.6,23.8,35.6,35.9.2-.2.6-.3.9-.6,11.3-11.3,22.6-22.6,33.9-33.9h.1ZM158.8,241.5c2.9-2.9,5.8-5.7,8.4-8.2-12.4-12.4-24.4-24.5-36.2-36.4-11.8,11.8-23.8,23.7-36.1,35.9.6.6,1.1,1.2,1.6,1.8,10.8,10.8,21.6,21.6,32.4,32.5,1.8,1.8,2.8,1.6,4.5,0,8.4-8.6,16.9-17,25.4-25.5h0ZM131,116.4c11.9-11.9,24-23.9,35.9-35.9-11.8-11.8-23.7-23.8-35.6-35.6-11.9,12-24,24-35.8,35.9,11.8,11.8,23.8,23.9,35.4,35.6h.1ZM166.9,4.5c-11.8-11.8-23.8-23.8-35.6-35.6-12,12-24,24-35.7,35.7,12,12,23.9,24,35.5,35.6,11.9-11.8,23.9-23.8,35.9-35.7h-.1ZM127.8,44.8c1.8-1.8,1.2-2.9-.3-4.4-10.8-10.7-21.5-21.4-32.2-32.2-.6-.6-1.3-1.1-2-1.7-.5.4-.9.6-1.2.8-11.2,11.2-22.4,22.5-33.7,33.7-1.8,1.8-.8,2.7.5,3.9,9.1,9.1,18.3,18.2,27.3,27.3,2.2,2.3,4.2,4.7,6.3,7.1,1.2-.9,1.5-1,1.7-1.2,11.2-11.1,22.3-22.3,33.6-33.4h0ZM129.3,194.6c-.6-.7-1-1.4-1.5-1.9-10.9-10.9-21.8-21.7-32.6-32.7-1.6-1.6-2.6-1.4-4.1.1-10.7,10.8-21.4,21.5-32.2,32.2-1.8,1.8-1.8,2.8,0,4.5,10.9,10.7,21.6,21.6,32.4,32.4,1.3,1.3,2.2,1.6,3.7.1,10.9-11,21.9-21.9,32.8-32.9.5-.6,1-1.2,1.5-2h0v.2ZM127.6,348.6c1.6-1.6,1.8-2.7,0-4.4-6.9-6.8-13.8-13.6-20.6-20.5-4.5-4.5-8.7-9.3-13.2-14-1.4,1.1-1.8,1.4-2.1,1.7-11.1,11.1-22.2,22.2-33.3,33.2-1.6,1.6-1,2.6.3,3.9,9.4,9.4,18.8,18.8,28.2,28.2,2,2,4.1,4,6.2,6,.7-.6,1.2-.9,1.6-1.3,10.9-10.9,21.9-21.9,32.8-32.8h0ZM92.3,155.2c12.8-12.7,24.8-24.7,36.7-36.6-11.9-11.8-24-23.8-36.1-35.9,0,0-.7.4-1.1.8-11.2,11.2-22.3,22.3-33.6,33.5-1.6,1.6-.7,2.5.5,3.7,8.3,8.3,16.7,16.6,25,25,3.1,3.1,5.9,6.5,8.6,9.5h0ZM93.2,306.3c11.9-11.9,23.9-23.9,35.7-35.8-11.9-11.8-23.9-23.8-35.7-35.5-11.9,11.8-23.9,23.8-35.7,35.4,11.9,12,23.8,24,35.6,35.9h.1ZM91.5,156.8c-.5-.6-.8-1.2-1.3-1.7-1.5-1.6-3.1-3.1-4.7-4.7-9.4-9.4-18.8-18.8-28.2-28.2-1.4-1.5-2.5-1.9-4.1-.2-10.8,10.9-21.7,21.8-32.6,32.7-1.1,1.1-2.1,2-.4,3.6,11.2,11.1,22.3,22.3,33.5,33.5,1.2,1.2,2,1.2,3.2,0,11.1-11.1,22.1-22.2,33.2-33.3.5-.5.9-1.1,1.4-1.7h0ZM90.2,234.2c.5-.5.8-1.1,1.3-1.7-.5-.6-.9-1.2-1.3-1.7-11-11-22-22-33-33.1-1.5-1.5-2.5-1.3-3.9.1-10.9,11-21.8,21.9-32.8,32.8-1.4,1.4-1.4,2.3,0,3.7,11.1,11,22.1,22,33.1,33,1.2,1.2,2.1,1.4,3.5,0,11-11.1,22.2-22.2,33.2-33.3h0v.2ZM90.2,82.4c1.4-1.4,1-2.3-.2-3.4-11-11-22.1-22-33.1-33.1-1.3-1.3-2.2-1.2-3.4,0-11,11.1-22,22.1-33.1,33.1-1.4,1.4-1.3,2.4,0,3.7,3.2,3.1,6.4,6.3,9.6,9.5,8.2,8.3,16.4,16.6,24.8,25,.8-.5,1.1-.7,1.4-1,11.3-11.3,22.6-22.6,34-33.8h0ZM89.7,7c.6-.6,1.2-1.3,1.6-1.8-12.2-12.2-24.2-24.2-36.1-36.1C43.3-19.2,31.3-7.2,19,5c.9.9,1.6,1.7,2.4,2.5,10.5,10.5,21.1,21,31.5,31.7,1.9,2,3,1.7,4.8,0,10.6-10.7,21.3-21.4,32-32.1ZM89.4,310.9c.7-.7,1.4-1.6,1.9-2.1-12.2-12.3-24.2-24.2-36.1-36.1-11.8,11.9-23.8,23.8-36,36,.4.5.7.9,1.1,1.4,11.1,11.1,22.2,22.2,33.2,33.3,1.7,1.8,2.6.8,3.9-.5,10.7-10.7,21.3-21.4,32-32h0ZM52.1,348.2c2-1.9.6-2.9-.6-4.1-10.7-10.7-21.4-21.3-32-32-1.8-1.8-2.8-1.8-4.5,0-10.5,10.7-21.1,21.3-31.8,31.8-1.9,1.9-2.1,3.1,0,5,7.4,7.2,14.7,14.7,22,22,3.9,3.9,7.9,7.8,11.9,11.8.6-.5,1.1-.7,1.4-1.1,11.2-11.1,22.3-22.3,33.5-33.4h0ZM52,272.3c1.6-1.6,1.2-2.5,0-3.9-6.9-6.8-13.8-13.6-20.6-20.5-4.5-4.6-9-9.3-13.1-13.6-12.6,12.5-24.7,24.5-36.7,36.4,11.9,11.9,23.8,23.8,35.9,35.9.4-.3,1-.7,1.5-1.2,11-11,22-22,33.1-33h0ZM51.8,196.7c1.5-1.5,1.8-2.5,0-4.1-11-10.9-21.9-21.9-32.9-32.8-.5-.5-1.1-.8-1.7-1.4-.7.6-1.4,1-1.9,1.5-10.8,10.8-21.6,21.6-32.5,32.4-1.6,1.6-1.9,2.6-.1,4.4,10.9,10.7,21.7,21.5,32.5,32.4,1.5,1.6,2.5,1.6,4.1,0,10.7-10.9,21.5-21.7,32.4-32.4h0ZM51.4,121.1c1.9-1.9,2-2.9,0-4.7-9.4-9.3-18.7-18.7-28-28-2-2-4.1-4-6.2-6-.6.5-1,.7-1.2,1-11.2,11.2-22.3,22.3-33.6,33.4-1.6,1.6-1.2,2.6.2,3.9,5.1,5,10.1,10,15.1,15,6.3,6.4,12.6,12.8,19.2,19.5,1.3-1.2,2.2-2,3-2.8,10.5-10.5,20.8-21,31.4-31.3h0ZM51.4,45.3c2-1.9,2.1-3,0-5-7.4-7.2-14.6-14.5-21.8-21.8-4-4-7.8-8.3-11.7-12.4-.3.2-.5.4-.8.6-.4.3-.8.5-1.2.8C4.9,18.6-6.2,29.7-17.3,40.7c-1.9,1.9-1.1,3,.4,4.4,10.2,10.1,20.4,20.3,30.5,30.5,1.2,1.2,2.4,2.3,3.7,3.5.8-.7,1.4-1.2,2-1.8,10.7-10.7,21.3-21.4,32-32h0ZM15.5,156.3c-.4-.4-.8-.9-1.2-1.3-10.9-10.9-21.8-21.7-32.6-32.7-1.9-1.9-3-1.8-4.8,0-10.6,10.8-21.3,21.4-32,32.1-.6.6-1.2,1.3-1.5,1.7,12.2,12.2,24.2,24.2,36.1,36.2,11.8-11.8,23.8-23.8,36-36h0ZM9.3,239.3c2.2-2.1,4.6-4,6.6-5.7-12.8-12.8-24.8-24.9-36.9-37.1-.3.2-.7.5-1,.8-11.2,11.1-22.3,22.3-33.5,33.4-1.7,1.7-.9,2.6.3,3.9,10.8,10.7,21.5,21.4,32.2,32.2,1.9,1.9,2.9,1.9,4.8,0,9.1-9.3,18.3-18.4,27.5-27.5h0ZM-20.6,116.6c11.8-11.9,23.9-23.9,35.3-35.4-11.9-12-23.9-24.1-35.6-36-11.8,11.8-23.7,23.7-35.5,35.5l35.9,35.9h-.1ZM-20.4,40.6C-8.7,28.8,3.3,16.8,15,5.1,2.9-7-9.1-19-20.6-30.5-32.4-18.8-44.5-6.8-56.2,4.9c11.8,11.8,23.8,23.8,35.8,35.7h0ZM14.9,308.6c-11.9-11.9-23.9-24-35.5-35.6-11.9,11.8-23.9,23.8-35.9,35.7,11.8,11.8,23.8,23.8,35.5,35.5,12.1-12,24.1-24,35.8-35.6h.1ZM-23.7,44.4c1.6-1.6.7-2.5-.5-3.7-10.8-10.8-21.7-21.6-32.4-32.5-1.6-1.6-2.5-1.6-4.1,0-10.7,10.9-21.6,21.7-32.4,32.5-.6.6-1.1,1.3-1.6,1.8,12.1,12.1,24.1,24.1,36.1,36.2.3-.2.5-.2.6-.3,11.4-11.4,22.8-22.7,34.2-34.1h.1ZM-24.3,348.6c1.9-1.9,1.5-2.9-.1-4.5-10.7-10.5-21.2-21.2-31.9-31.8-.7-.7-1.6-1.4-2.3-2-12.2,12.2-24.1,24.1-35.9,35.9,12.1,12.1,24,24.1,36.1,36.3.5-.5,1.2-1,1.8-1.6,10.7-10.7,21.4-21.5,32.3-32.2h0ZM-58.7,154.4c11.9-11.9,23.9-23.8,35.9-35.7-11.9-11.8-24-23.8-35.8-35.5-11.8,11.7-23.8,23.7-35.5,35.4,11.8,11.9,23.7,23.9,35.5,35.8h-.1ZM-23,194.9c-12-12.1-23.9-24.1-35.9-36.2-.2.1-.5.3-.8.6-11.2,11.2-22.5,22.4-33.8,33.6-1.7,1.6-1,2.6.3,3.9,8.2,8.2,16.4,16.4,24.6,24.6,3.2,3.2,6.5,6.4,9.7,9.5,12.3-12.3,24.2-24.3,35.8-35.9h0ZM-22.7,270.5c-11.9-11.9-23.9-23.9-35.7-35.7-12,12-24,23.9-35.6,35.5,11.8,11.9,23.8,24,35.5,35.9,11.9-11.8,23.9-23.8,35.8-35.6h0ZM-60.6,156.3s-.2-.5-.5-.7c-11.3-11.3-22.6-22.6-33.9-33.9-1.2-1.2-2.1-1.2-3.2,0-3.2,3.3-6.5,6.5-9.7,9.7-8.3,8.2-16.5,16.5-24.5,24.5,12.3,12.4,24.3,24.5,36,36.3,11.8-11.8,23.8-23.8,35.9-35.9h-.1ZM-65.5,238c1.7-1.7,3.8-3.2,5.5-4.6-12.7-12.8-24.7-24.8-36.6-36.6-12,12-24,24-36.1,36.1.2.2.4.6.8,1,11.1,11.1,22.2,22.2,33.2,33.3,1.6,1.6,2.6,1.5,4.1,0,9.6-9.7,19.3-19.4,29-29.1h0ZM-60.8,4.9c-11.9-11.9-23.9-23.8-35.9-35.8-11.8,11.8-23.9,23.9-35.8,35.8,11.9,11.9,24,24,35.8,35.8,11.9-11.9,24-23.9,35.9-35.8ZM-96.4,116.2c11.8-11.7,23.8-23.7,35.7-35.6-11.9-11.9-24-23.9-35.9-35.8-11.9,11.9-23.9,23.9-35.5,35.5,11.9,12,24,24.1,35.7,35.9ZM-96.8,343.9c11.9-11.8,24-23.8,35.6-35.2-11.9-12-23.8-24-35.6-35.9-11.8,11.8-23.8,23.8-35.5,35.4,12,12.1,24,24.2,35.4,35.7h0ZM-98.2,195c-.4-.7-.5-1.1-.7-1.2-11.3-11.3-22.6-22.6-33.9-34-1.5-1.5-2.5-1-3.7.2-10.9,11-21.9,21.9-32.9,32.8-1.3,1.3-1.4,2.2,0,3.5,11,10.9,22,21.8,32.9,32.8,1.7,1.8,2.8,1.4,4.4-.2,6.9-7,13.8-13.9,20.7-20.8,4.4-4.4,8.8-8.7,13.3-13.1h0ZM-98.5,346.2c-.3-.4-.7-.9-1.2-1.4-11-11-22.1-22-33-33.1-1.5-1.5-2.4-1.2-3.7.1-11.1,11.1-22.2,22.2-33.3,33.3-.4.4-.6,1-.9,1.4,12.1,12,24.1,23.9,36,35.8,12-12,24-24,36.1-36.1h0ZM-135.1,79.2c12.5-12.5,24.5-24.5,36.2-36.1-11.9-11.9-23.9-24-36-36.1-.1,0-.5.3-.8.6-11.3,11.2-22.5,22.5-33.8,33.7-1.4,1.4-.9,2.3.2,3.4,3.9,3.9,7.8,7.7,11.6,11.7,7.5,7.6,15,15.3,22.4,22.9h.2ZM-99.1,270.7c-11.8-11.9-23.7-24-35.3-35.7-11.9,11.9-24,23.9-35.7,35.6,11.8,11.9,23.7,23.9,35.4,35.6,12-11.9,24-24,35.6-35.5h0ZM-134.5,154.4c11.9-11.9,23.9-24,35.6-35.7-11.9-11.9-23.8-24-35.6-35.8-11.9,11.9-24,23.8-35.9,35.6,11.9,11.9,23.9,23.9,35.9,35.8h0Z"/>
      <path class="cls-6" d="M127.5,40.4c1.5,1.5,2.1,2.6.3,4.4-11.2,11.1-22.4,22.3-33.6,33.4-.2.2-.5.3-1.7,1.2-2.1-2.4-4.1-4.9-6.3-7.1-9.1-9.2-18.2-18.2-27.3-27.3-1.2-1.2-2.2-2.1-.5-3.9,11.3-11.2,22.5-22.5,33.7-33.7.3-.3.6-.5,1.2-.8.7.6,1.4,1.1,2,1.7,10.7,10.7,21.5,21.5,32.2,32.2h0ZM124.8,44.8c.6-.6,1-1.2,1.7-2-.8-1-1.5-2-2.3-2.8-9.6-9.6-19.2-19.2-28.8-28.9-1.8-1.9-2.9-1.5-4.6.1-9.7,9.8-19.4,19.6-29.2,29.3-1.7,1.7-1.7,2.7,0,4.4,9.9,9.8,19.7,19.6,29.5,29.5,1.5,1.5,2.5,1.8,4.2,0,9.8-9.9,19.8-19.8,29.6-29.7h0Z"/>
      <path class="cls-6" d="M127.8,192.7c.5.5,1,1.2,1.5,1.9-.6.7-1,1.4-1.5,2-10.9,11-21.9,21.9-32.8,32.9-1.4,1.4-2.4,1.2-3.7-.1-10.8-10.8-21.5-21.7-32.4-32.4-1.8-1.8-1.8-2.8,0-4.5,10.8-10.7,21.5-21.4,32.2-32.2,1.5-1.5,2.5-1.8,4.1-.1,10.8,10.9,21.7,21.8,32.6,32.7h0v-.2ZM124.8,196.7c1.5-1.5,1.7-2.6,0-4.2-10-9.9-19.9-19.9-29.9-29.9s-2.2-1.5-3.7,0c-10,10.1-20,20.1-30.1,30.1-1.3,1.3-1.6,2.2,0,3.7,10.1,10,20.2,20.1,30.3,30.2s1.1.8,1.7,1.3c.7-.6,1.3-1,1.9-1.6,9.9-9.9,19.8-19.8,29.7-29.6h.2Z"/>
      <path class="cls-6" d="M127.7,344.2c1.7,1.7,1.6,2.8,0,4.4-11,10.9-21.9,21.9-32.8,32.8-.4.4-.9.7-1.6,1.3-2.1-2-4.2-4-6.2-6-9.4-9.4-18.8-18.8-28.2-28.2-1.3-1.3-1.9-2.3-.3-3.9,11.2-11,22.2-22.2,33.3-33.2.3-.3.8-.6,2.1-1.7,4.4,4.7,8.7,9.5,13.2,14,6.8,6.9,13.6,13.8,20.6,20.5h0ZM124.6,348.8c1.8-1.7,1.8-2.8,0-4.6-10-9.8-19.8-19.8-29.7-29.7-.5-.5-1.1-.9-1.8-1.4-.7.6-1.5,1.1-2.1,1.7-9.8,9.8-19.7,19.7-29.5,29.4-1.6,1.6-1.8,2.7,0,4.4,9.9,9.8,19.7,19.6,29.5,29.5,1.7,1.7,2.7,1.6,4.4,0,9.7-9.8,19.4-19.6,29.3-29.3h0Z"/>
      <path class="cls-6" d="M125.1-31.2l.9.9c-11.1,11.1-22,22-33.2,33.2-1.9-1.8-3.9-3.8-6-5.8-9.1-9.1-18.2-18.2-27.3-27.3q-2.9-2.9.2-6c1.2-1.2,2.2-2.5,3.3-3.8h3c-1.6,1.7-3,3.4-4.7,5-1.4,1.3-1.5,2.3,0,3.7,10.1,10,20.1,20,30.1,30.1,1.3,1.4,2.3,1.5,3.7.1,10-10.1,20-20.1,30.1-30h0Z"/>
      <path class="cls-5" d="M125.4,269c.4.4.7.9,1.2,1.5-.5.6-.8,1.2-1.3,1.7-10.2,10.2-20.3,20.3-30.5,30.5-1,1-1.9,1.2-3,0-10.2-10.3-20.4-20.5-30.7-30.7-1.7-1.7-.5-2.6.6-3.7,7.8-7.8,15.7-15.7,23.5-23.5s4.4-4.3,6.6-6.6c1.1-1.2,1.9-1.1,3,0,10.2,10.3,20.5,20.5,30.7,30.7h0ZM104.7,279.1c2.9-1.4,4.3-4,4.1-7.6-.2-3.8-2.6-5.7-6-6.9-.8-.3-1.6-1.5-1.8-2.4-.6-4.2-3.3-7-7.4-7.3-3.6-.3-7.5,2.5-7.9,6.3-.3,2.6-1.5,3.4-3.6,4.2-3.1,1.1-4.8,4.1-4.6,7.3.2,3,2.2,5.6,5.1,6.8,3.9,1.5,6.9-.2,9.7-2.9.2.2.4.3.6.5-1.3,2.9-2.5,5.8-3.9,9h7.1c.5,0,1,0,1.6-.1-1.4-3.1-2.7-5.8-3.9-8.6,1-.2,1.3-.2,1.5,0,2.8,2.8,5.9,3.6,9.5,1.9h0v-.2Z"/>
      <path class="cls-5" d="M125.2,116.9c1.2,1.2,1.4,2.1,0,3.4-10.2,10.1-20.3,20.3-30.5,30.5s-.9.8-1.5,1.3c-.7-.5-1.3-.9-1.9-1.5-9.9-9.9-19.7-19.8-29.7-29.7-1.6-1.6-1.9-2.6,0-4.4,10-9.9,20-19.9,29.9-29.9,1.5-1.5,2.4-1.2,3.7,0,10,10.1,20,20.1,30.1,30.1h0v.2ZM104.6,127.3c3-1.3,4.6-4.3,4.2-7.9-.4-3.8-2.6-5.8-6.2-6.7-.6-.2-1.4-1.3-1.5-2.1-.7-4.8-3.3-7.5-7.6-7.6-4.5,0-7.2,2.5-8.1,7.5,0,.9-1.1,2-2,2.2-3.3,1.2-5.6,3.6-5.9,6.8-.3,3.1,1.3,5.9,4.1,7.4,2.9,1.5,6.5,1.1,9-1,.6-.5,1.1-.9,1.7-1.4.2,0,.4.3.6.4h0c-1.3,2.9-2.6,5.9-3.9,8.8h8.6c-1.4-3-2.7-5.8-3.9-8.5.3-.2.5-.3.8-.4.2,0,.4,0,.5.3,2.8,2.8,6,3.5,9.6,2h0v.2Z"/>
      <path class="cls-5" d="M124.9,192.6c1.6,1.6,1.4,2.7,0,4.2-9.9,9.8-19.8,19.7-29.7,29.6s-1.2,1-1.9,1.6c-.7-.5-1.3-.9-1.7-1.3-10.1-10.1-20.2-20.2-30.3-30.2-1.5-1.4-1.2-2.3,0-3.7,10.1-10,20.1-20,30.1-30.1,1.4-1.4,2.3-1.3,3.7,0,9.9,10,19.9,20,29.9,29.9h-.2ZM106.3,205.1c2.9-2.3,3.6-7.6,1.1-10.6-4.4-5.2-9.2-10.2-14.2-15.7-5,5.6-10.1,10.7-14.5,16.3-2.6,3.3-1.3,7.9,2.1,10.3,2.8,2.1,6.5,1.3,9.5-2,.6-.6.7-1.7,1-2.5.5.4,1,.8,1.5,1.3-.6,1.3-1,2.7-1.8,3.9-.7,1.2-1.8,2.3-2.9,3.9h10.1c-1.5-2.6-2.8-5-4.2-7.3.3-.2.7-.5,1.1-.7.5.6,1,1.3,1.5,1.8,3.1,3.2,7.1,3.7,9.9,1.4h-.2Z"/>
      <path class="cls-5" d="M126.5,42.8c-.7.8-1.1,1.5-1.7,2-9.9,9.9-19.8,19.8-29.6,29.7-1.6,1.7-2.7,1.4-4.2,0-9.8-9.9-19.6-19.7-29.5-29.5-1.7-1.6-1.7-2.7,0-4.4,9.8-9.7,19.6-19.5,29.2-29.3,1.7-1.7,2.8-2,4.6-.1,9.5,9.7,19.2,19.2,28.8,28.9.8.8,1.5,1.8,2.3,2.8h0ZM106.5,52.9c3.2-2.9,3.1-8,0-11.6-3.8-4.1-7.6-8.2-11.3-12.4-1.4-1.5-2.3-1.7-3.8,0-3.4,3.9-7.1,7.6-10.5,11.5-1.2,1.3-2.2,2.9-2.9,4.5-1.3,3.1.2,7.1,2.8,8.8,2.9,1.9,6.3,1.4,8.9-1.4.8-.8,1.2-2,1.8-3,.5.4,1,.8,1.4,1.2-1.5,2.4-3,4.8-4.6,7.5h10.1c-1.2-1.5-2.1-2.5-2.8-3.6-.7-1.2-1.2-2.6-1.8-3.9.4-.2.7-.5,1.1-.7.3.5.6,1.1.9,1.5,3.5,3.9,7.6,4.5,10.7,1.7h0Z"/>
      <path class="cls-5" d="M124.7,344.2c1.8,1.8,1.7,2.9,0,4.6-9.8,9.7-19.6,19.4-29.3,29.3-1.7,1.7-2.7,1.7-4.4,0-9.8-9.9-19.6-19.7-29.5-29.5-1.7-1.7-1.6-2.8,0-4.4,9.9-9.8,19.7-19.6,29.5-29.4.6-.6,1.3-1.1,2.1-1.7.7.6,1.3,1,1.8,1.4,9.9,9.9,19.8,19.8,29.7,29.7h.1ZM106.4,356.8c3.2-2.9,3.4-8.1.2-11.6-3.8-4.2-7.8-8.3-11.6-12.6-1.4-1.6-2.4-1.5-3.8,0-3.4,3.9-7.1,7.6-10.5,11.5-1.1,1.2-2,2.5-2.6,4-1.5,3.2-.2,7.4,2.6,9.3,2.8,1.8,6.3,1.3,8.9-1.5.8-.8,1.2-1.9,1.8-2.9.5.4,1,.8,1.4,1.2-1.5,2.4-3,4.8-4.6,7.4h9.7c-1.6-2.6-3-5-4.4-7.4.4-.2.8-.4,1.2-.7.4.5.7,1,1.1,1.4,3.3,3.7,7.5,4.4,10.5,1.8h.1Z"/>
      <path class="cls-6" d="M129,118.7c-11.9,11.9-23.9,23.8-36.7,36.6-2.7-3-5.5-6.4-8.6-9.5-8.3-8.4-16.6-16.7-25-25-1.1-1.1-2.1-2.1-.5-3.7,11.2-11.1,22.4-22.3,33.6-33.5s.9-.7,1.1-.8c12.2,12.1,24.2,24,36.1,35.9h0ZM125.3,120.3c1.3-1.3,1.2-2.2,0-3.4-10.1-10-20.1-20-30.1-30.1-1.3-1.3-2.2-1.6-3.7,0-9.9,10-19.8,20-29.9,29.9-1.8,1.7-1.5,2.8,0,4.4,9.9,9.8,19.8,19.8,29.7,29.7.5.5,1.2,1,1.9,1.5.6-.5,1.1-.8,1.5-1.3,10.2-10.2,20.3-20.4,30.5-30.5h0v-.2Z"/>
      <path class="cls-6" d="M129,270.5c-11.9,11.9-23.8,23.9-35.7,35.8-11.8-11.9-23.8-24-35.6-35.9,11.8-11.7,23.8-23.6,35.7-35.4,11.8,11.8,23.8,23.7,35.7,35.5h-.1ZM126.6,270.5c-.4-.6-.7-1.1-1.2-1.5-10.2-10.2-20.5-20.5-30.7-30.7-1.1-1.1-1.9-1.2-3,0-2.1,2.2-4.4,4.4-6.6,6.6-7.8,7.8-15.7,15.7-23.5,23.5-1.1,1.1-2.3,2-.6,3.7,10.3,10.2,20.5,20.5,30.7,30.7,1.1,1.1,2,1,3,0,10.2-10.2,20.3-20.3,30.5-30.5.5-.5.8-1.1,1.3-1.7h0Z"/>
      <path class="cls-6" d="M90.2,155.1c.5.5.8,1.1,1.3,1.7-.5.6-.9,1.2-1.4,1.7-11.1,11.1-22.2,22.2-33.2,33.3-1.2,1.2-2,1.2-3.2,0-11.1-11.2-22.3-22.4-33.5-33.5-1.6-1.6-.7-2.5.4-3.6,10.9-10.9,21.8-21.7,32.6-32.7,1.7-1.7,2.7-1.3,4.1.2,9.4,9.4,18.8,18.8,28.2,28.2s3.1,3.1,4.7,4.7h0ZM87.3,158.4c1.3-1.3,1.3-2.1,0-3.4-10.1-10.1-20.2-20.2-30.3-30.3-1.3-1.3-2.1-1.3-3.4,0-10,10.1-20,20.1-30.1,30.1-1.5,1.5-1.4,2.4,0,3.9,10.1,10,20.1,20,30.1,30.1.5.5,1,.8,1.7,1.4.7-.6,1.3-1.1,1.9-1.6,10-10,20-20.1,30.1-30.1h0Z"/>
      <path class="cls-6" d="M91.5,232.5c-.5.6-.8,1.2-1.3,1.7-11.1,11.1-22.2,22.2-33.2,33.3-1.3,1.3-2.2,1.1-3.5,0-11-11-22-22.1-33.1-33-1.4-1.4-1.3-2.3,0-3.7,11-10.9,21.9-21.8,32.8-32.8,1.4-1.4,2.4-1.6,3.9-.1,11,11.1,22,22,33,33.1.5.5.8,1.1,1.3,1.7h0v-.2ZM87.2,234.3c1.4-1.4,1.3-2.2,0-3.6-10.1-10-20.1-20-30.1-30.1-1.4-1.5-2.3-1.3-3.6,0-10,10.1-20,20.1-30.1,30.1-1.4,1.4-1.3,2.3,0,3.6,10.1,10,20.1,20.1,30.1,30.1.5.5,1,.9,1.7,1.5.7-.5,1.3-1,1.9-1.5,10-10,20-20.1,30.1-30.1h0Z"/>
      <path class="cls-6" d="M90,78.9c1.2,1.2,1.6,2.1.2,3.4-11.3,11.3-22.6,22.6-34,33.8-.3.3-.6.4-1.4,1-8.4-8.4-16.6-16.7-24.8-25-3.2-3.2-6.3-6.4-9.6-9.5-1.4-1.3-1.5-2.3,0-3.7,11.1-11,22.1-22,33.1-33.1,1.3-1.3,2.1-1.4,3.4,0,11,11.1,22,22.1,33.1,33.1h0ZM87.3,82.3c1.6-1.6.9-2.4-.3-3.6-9.7-9.7-19.4-19.3-29-29-.8-.8-1.7-1.6-2.5-2.3-.5.2-.7.2-.9.3-10.5,10.5-21.1,21-31.6,31.5-1.2,1.2-.9,2,.2,3,2.4,2.3,4.7,4.6,7,7,8.2,8.3,16.4,16.6,24.8,25,.8-.6,1.1-.8,1.4-1,10.3-10.3,20.6-20.6,31-30.9h0Z"/>
      <path class="cls-6" d="M91.3,5.1c-.4.5-1,1.2-1.6,1.8-10.7,10.7-21.4,21.3-32,32.1-1.8,1.8-2.8,2.1-4.8,0-10.4-10.6-21-21.1-31.5-31.7-.8-.8-1.5-1.6-2.4-2.5,12.3-12.2,24.3-24.2,36.1-36,11.9,11.9,24,23.9,36.1,36.1h0ZM87,6.8c1.4-1.4,1.6-2.3,0-3.9-6.2-6-12.2-12.1-18.2-18.2-4.4-4.5-8.8-9-13.5-13.8C44.2-17.8,33.6-7.1,22.9,3.5c-1.4,1.4-.4,2.3.5,3.2,10,10,20.1,20,30.1,30.1,1.5,1.5,2.3,1.2,3.6-.2,9.9-10,19.9-20,29.9-29.9h0Z"/>
      <path class="cls-6" d="M91.3,308.8c-.5.6-1.1,1.4-1.9,2.1-10.7,10.7-21.4,21.3-32,32-1.2,1.2-2.1,2.2-3.9.5-11-11.2-22.1-22.2-33.2-33.3-.4-.4-.8-.9-1.1-1.4,12.2-12.2,24.2-24.2,36-36,11.9,11.9,23.8,23.9,36.1,36.1h0ZM87,310.5c1.5-1.5,1.6-2.4,0-3.9-6.2-6-12.2-12.1-18.2-18.2-4.4-4.4-8.8-8.9-13.5-13.8-11.1,11.2-21.7,21.9-32.4,32.6-1.4,1.5-.4,2.3.6,3.2,10,10,19.9,19.9,29.8,29.9,1.4,1.5,2.3,1.6,3.8,0,9.9-10,19.9-20,29.9-29.9h0Z"/>
      <path class="cls-6" d="M87.9,381.5l-.9.9c-9.9-9.8-19.8-19.7-29.6-29.7-1.7-1.7-2.6-1.7-4.3,0-9.8,10-19.7,19.8-29.6,29.6-1.5,1.5-1.5,2.4,0,3.9,2.7,2.6,5.2,5.4,7.8,8.2h-3c-2.7-2.8-5.3-5.7-8-8.4-1.2-1.2-1.2-2,0-3.2,11.3-11.3,22.6-22.6,34-33.9.3-.3.6-.4.7-.5,11,11,21.9,22,33,33.1h0Z"/>
      <path class="cls-3" d="M87,78.7c1.2,1.2,1.9,2,.3,3.6-10.4,10.2-20.6,20.6-31,30.9-.3.3-.6.5-1.4,1-8.4-8.4-16.6-16.7-24.8-25-2.3-2.3-4.6-4.7-7-7-1-1-1.3-1.8-.2-3,10.6-10.5,21.1-21,31.6-31.5s.4,0,.9-.3c.7.7,1.6,1.4,2.5,2.3,9.7,9.7,19.3,19.4,29,29h0ZM69.6,82.3c2-5.1,2.2-10.2-1.5-14.7-2.5-3.1-6.7-3.3-9.5-.5-1.2,1.2-2.1,2.7-3.4,4.4-1-1.3-1.7-2.3-2.5-3.3-3.4-4.2-8.2-4-11.2.5-2.3,3.5-2.5,7.4-1.5,11.2,1.9,7.5,7.4,12.1,13.8,15.8.7.4,2.1.4,2.8,0,5.6-3.2,10.4-7.2,12.9-13.3h.1Z"/>
      <path class="cls-3" d="M87.3,155c1.3,1.3,1.3,2.1,0,3.4-10.1,10-20.1,20-30.1,30.1-.5.5-1.2,1-1.9,1.6-.6-.5-1.2-.9-1.7-1.4-10-10-20-20.1-30.1-30.1-1.5-1.4-1.6-2.4,0-3.9,10.1-10,20.1-20,30.1-30.1,1.3-1.3,2.1-1.3,3.4,0,10.1,10.1,20.2,20.3,30.3,30.3h0ZM55.2,171.8c3.6-6.8,8.3-11.5,15.2-15.2-7-3.5-11.6-8.4-15.2-15-3.6,6.8-8.3,11.5-15,15,6.6,3.7,11.5,8.3,15,15.2Z"/>
      <path class="cls-3" d="M87.1,230.7c1.4,1.4,1.5,2.2,0,3.6-10.1,10-20.1,20.1-30.1,30.1-.5.5-1.2,1-1.9,1.5-.7-.6-1.2-1-1.7-1.5-10-10-20-20.1-30.1-30.1-1.4-1.4-1.5-2.2,0-3.6,10.1-10,20.1-20,30.1-30.1,1.4-1.4,2.2-1.5,3.6,0,10,10.1,20,20.1,30.1,30.1h0ZM66.7,238.9c4.1-4.8,5.5-10.6,3-16.8-1.1-2.7-3-4.8-6.1-5.1-3-.3-5,1.4-6.6,3.9-.5.8-1.1,1.6-1.9,2.8-.8-1.2-1.2-2.1-1.8-2.8-1.5-2.3-3.4-4.1-6.3-3.9-3.1.2-5.5,2.1-6.2,4.9-.8,3.3-1.4,7-.6,10.2,1.7,7.4,7.4,11.9,13.7,15.4.8.4,2.5.2,3.2-.4,3.3-2.6,6.8-5,9.5-8.2h0Z"/>
      <path class="cls-3" d="M87.1,3c1.6,1.5,1.4,2.4,0,3.9-10,9.9-20,19.9-29.9,29.9-1.3,1.3-2.2,1.6-3.6.2-10-10.1-20-20.1-30.1-30.1-.9-.9-2-1.8-.5-3.2,10.7-10.7,21.3-21.3,32.5-32.6,4.7,4.8,9,9.3,13.5,13.8,6,6.1,12.1,12.2,18.2,18.2h0ZM55.3,19.9c3.5-6.8,8.3-11.4,15-15.1-6.8-3.5-11.6-8.3-15.1-15.1-3.6,7-8.6,11.6-15.1,15.3,6.9,3.4,11.5,8.4,15.2,15h0Z"/>
      <path class="cls-3" d="M87,382.4c1.5,1.5,1.6,2.4,0,3.9-2.7,2.6-5.2,5.4-7.8,8.2h-15.6c.9-1,1.8-1.9,2.6-2.9,5.2-6.3,6.1-14.3,2.4-19.7-2.7-3.8-7.4-4.2-10.4-.6-1,1.2-1.9,2.5-3,4-.9-1.3-1.6-2.4-2.3-3.3-3.3-4.4-8.4-4.2-11.3.5-1,1.6-1.6,3.7-1.8,5.6-.8,6.8,2.6,11.9,7.1,16.4h-15.6c-2.6-2.7-5.1-5.6-7.8-8.2-1.5-1.5-1.5-2.4,0-3.9,9.9-9.8,19.8-19.7,29.6-29.6,1.7-1.7,2.6-1.7,4.3,0,9.8,10,19.7,19.8,29.6,29.7h0Z"/>
      <path class="cls-3" d="M87.1,306.6c1.5,1.5,1.4,2.4,0,3.9-10,9.9-20,19.9-29.9,29.9-1.5,1.5-2.4,1.4-3.8,0-9.9-10-19.9-20-29.8-29.9-.9-.9-2-1.7-.6-3.2,10.7-10.7,21.3-21.4,32.4-32.6,4.7,4.8,9.1,9.3,13.5,13.8,6.1,6.1,12.1,12.2,18.2,18.2h0ZM55.6,323.2c3.3-6.5,8.2-11.2,14.8-14.7-6.8-3.5-11.5-8.3-15.2-15-3.5,6.9-8.5,11.6-14.5,14.9,2.9,2.3,5.8,4.2,8.1,6.6,2.4,2.4,4.3,5.2,6.7,8.3h0Z"/>
      <path class="cls-6" d="M69.8,222.1c2.5,6.2,1.1,12-3,16.8-2.7,3.1-6.2,5.6-9.5,8.2-.8.6-2.4.9-3.2.4-6.3-3.5-11.9-8.1-13.7-15.4-.8-3.2-.2-6.9.6-10.2.7-2.8,3-4.7,6.2-4.9,2.9-.2,4.8,1.6,6.3,3.9.5.8,1,1.6,1.8,2.8.8-1.2,1.4-2,1.9-2.8,1.5-2.4,3.5-4.2,6.6-3.9,3.1.3,5,2.4,6.1,5.1h0Z"/>
      <path class="cls-6" d="M68.1,67.5c3.7,4.6,3.5,9.7,1.5,14.7-2.4,6.1-7.3,10.1-12.9,13.3-.7.4-2.1.5-2.8,0-6.4-3.7-11.8-8.3-13.8-15.8-1-3.9-.9-7.7,1.5-11.2,3-4.5,7.8-4.7,11.2-.5.8,1,1.5,2,2.5,3.3,1.3-1.7,2.2-3.2,3.4-4.4,2.8-2.9,7-2.7,9.5.5h0Z"/>
      <path class="cls-6" d="M68.7,371.9c3.7,5.4,2.8,13.4-2.4,19.7-.8,1-1.7,1.9-2.6,2.9h-16.8c-4.4-4.6-7.8-9.7-7.1-16.4.2-1.9.9-3.9,1.8-5.6,2.8-4.7,7.9-4.9,11.3-.5.8,1,1.4,2.1,2.3,3.3,1.1-1.5,2-2.9,3-4,3.1-3.5,7.8-3.2,10.4.6h0Z"/>
      <path class="cls-6" d="M70.4,308.5c-6.7,3.6-11.5,8.3-14.8,14.7-2.5-3.1-4.4-5.9-6.7-8.3-2.4-2.4-5.2-4.3-8.1-6.6,6-3.3,11-8,14.5-14.9,3.7,6.7,8.3,11.6,15.2,15h0Z"/>
      <path class="cls-6" d="M70.4,4.8c-6.7,3.7-11.6,8.3-15,15.1-3.7-6.6-8.3-11.6-15.2-15,6.5-3.7,11.5-8.2,15.1-15.3,3.5,6.8,8.3,11.6,15.1,15.1h0Z"/>
      <path class="cls-6" d="M70.4,156.6c-6.9,3.7-11.7,8.4-15.2,15.2-3.5-6.9-8.4-11.5-15-15.2,6.6-3.5,11.4-8.1,15-15,3.6,6.6,8.2,11.5,15.2,15h0Z"/>
      <path class="cls-6" d="M52.3-34.8c1,1,1.2,1.9,0,3C41-20.4,29.6-9,18.3,2.3c-.3.3-.7.4-.7.4C5.4-9.4-6.6-21.3-18.7-33.5c2-2.1,4.1-4.3,6.2-6.6h3c-1.8,1.8-3.5,3.6-5.3,5.3-1.3,1.2-1.2,2.1,0,3.3C-4.7-21.3,5.5-11.1,15.7-1c1.2,1.2,2,1.1,3.2,0,10.1-10.1,20.2-20.3,30.3-30.3,1.4-1.4,1.3-2.4,0-3.7-1.7-1.6-3.1-3.3-4.7-5h3c1.6,1.8,3.1,3.6,4.8,5.2Z"/>
      <path class="cls-6" d="M51.5,344.1c1.2,1.2,2.6,2.2.6,4.1-11.2,11.1-22.4,22.3-33.5,33.4-.3.3-.8.6-1.4,1.1-4-4-8-7.9-11.9-11.8-7.3-7.3-14.6-14.8-22-22-2-2-1.9-3.2,0-5,10.7-10.5,21.3-21.1,31.8-31.8,1.7-1.8,2.7-1.8,4.5,0,10.6,10.8,21.3,21.4,32,32h0ZM49.1,348.5c1.6-1.6,1.6-2.6,0-4.2-10-9.8-19.8-19.8-29.7-29.7-.6-.6-1.2-1-2-1.6-.8.6-1.5,1.1-2.1,1.8-9.8,9.7-19.5,19.5-29.3,29.2-1.9,1.9-1.9,3,0,4.8,9.7,9.5,19.3,19.1,28.8,28.9,1.9,1.9,3,2.2,5,.1,9.7-9.9,19.4-19.6,29.2-29.3h0Z"/>
      <path class="cls-6" d="M51.9,268.4c1.4,1.4,1.7,2.3,0,3.9-11.1,11-22.1,22-33.1,33-.5.5-1.1.9-1.5,1.2-12.1-12.1-24.1-24-35.9-35.9,12-11.9,24.1-23.9,36.7-36.4,4.2,4.3,8.6,9.1,13.1,13.6,6.8,6.9,13.7,13.7,20.6,20.5h0ZM48.7,272.9c1.9-1.9,1.8-3,0-4.8-9.9-9.7-19.7-19.6-29.4-29.5-1.5-1.6-2.4-1.4-3.8,0-6,6.1-12.1,12.2-18.2,18.2-4.5,4.4-9,8.7-13.5,13,.6,1,.7,1.4,1,1.6,10.4,10.4,20.8,20.8,31.1,31.2,1.4,1.4,2.3.7,3.5-.4,9.8-9.8,19.6-19.7,29.5-29.4h-.2Z"/>
      <path class="cls-6" d="M52,192.6c1.6,1.6,1.4,2.6,0,4.1-10.9,10.7-21.7,21.5-32.4,32.4-1.6,1.6-2.5,1.5-4.1,0-10.8-10.9-21.6-21.7-32.5-32.4-1.8-1.7-1.5-2.8.1-4.4,10.9-10.8,21.6-21.6,32.5-32.4.5-.5,1.2-1,1.9-1.5.7.5,1.2.9,1.7,1.4,11,10.9,21.9,21.9,32.9,32.8h0ZM49.3,196.4c.5-.5.9-1,1.4-1.7-.6-.7-1.1-1.4-1.8-2-9.8-9.8-19.7-19.6-29.4-29.5-1.8-1.9-2.8-1.7-4.5,0-9.7,9.8-19.4,19.6-29.2,29.2-1.9,1.8-1.6,2.9.1,4.6,9.8,9.7,19.6,19.4,29.2,29.2,1.7,1.7,2.6,1.8,4.3,0,9.9-10,19.9-19.9,29.8-29.9h0Z"/>
      <path class="cls-6" d="M51.5,116.3c1.9,1.9,1.8,2.9,0,4.7-10.5,10.4-20.9,20.9-31.4,31.3-.8.8-1.7,1.6-3,2.8-6.6-6.7-12.9-13.1-19.2-19.5-5-5-10-10.1-15.1-15-1.4-1.3-1.8-2.3-.2-3.9,11.2-11.1,22.4-22.3,33.6-33.4.3-.3.6-.5,1.2-1,2.1,2,4.1,4,6.2,6,9.3,9.3,18.6,18.7,28,28h0ZM50.6,118.7c-.5-.7-1-1.4-1.5-1.9-10-10-19.9-19.9-29.9-29.9-1.4-1.4-2.4-1.7-3.9,0-9.9,10-19.9,20-29.9,29.9-1.5,1.4-1.5,2.4,0,3.9,10.1,10,20.1,20,30.1,30.1,1.2,1.3,2.1,1.4,3.4,0,10.1-10.1,20.2-20.2,30.3-30.3.5-.5.8-1.1,1.4-1.7h0Z"/>
      <path class="cls-6" d="M51.4,40.3c2,1.9,1.9,3,0,5-10.8,10.6-21.4,21.3-32,32-.6.6-1.2,1.1-2,1.8-1.3-1.2-2.5-2.3-3.7-3.5-10.2-10.2-20.3-20.3-30.5-30.5-1.4-1.4-2.3-2.5-.4-4.4C-6.2,29.7,4.9,18.6,16,7.5c.3-.3.8-.6,1.2-.8.3-.2.5-.4.8-.6,3.9,4.1,7.7,8.4,11.7,12.4,7.2,7.3,14.5,14.7,21.8,21.8h0ZM49.1,44.8c1.4-1.4,1.7-2.4,0-3.9-10.1-10-20.1-20-30.1-30.1-1.4-1.5-2.4-1.3-3.7,0C5.6,20.8-4.4,30.8-14.4,40.7c-1.6,1.6-1.5,2.7,0,4.2,9.9,9.8,19.7,19.6,29.5,29.4.6.6,1.3,1.2,2.2,1.9.8-.7,1.5-1.2,2.1-1.8,9.9-9.9,19.8-19.8,29.7-29.6h0Z"/>
      <path class="cls-5" d="M49.3,40.9c1.5,1.5,1.3,2.5,0,3.9-9.9,9.8-19.8,19.7-29.7,29.6-.6.6-1.3,1.1-2.1,1.8-.8-.7-1.5-1.3-2.2-1.9-9.8-9.8-19.6-19.6-29.5-29.4-1.6-1.5-1.6-2.6,0-4.2C-4.4,30.8,5.6,20.8,15.5,10.9c1.3-1.3,2.3-1.5,3.7,0,10,10.1,20,20.1,30.1,30.1h0ZM29.2,51.2c2.9-1.6,4-4.3,3.8-7.5-.2-3-2.3-5.6-5.4-6.4-1.7-.5-2.4-1.1-2.5-3-.4-4.4-3.7-7.1-7.8-7.1s-7.5,2.9-7.6,6.6c0,2.3-1,3-3,3.6-3.2.9-4.9,3.4-5,6.7-.1,3.5,1.5,6,4.4,7.4,3.9,1.8,7,.2,10-2.4.2.2.5.4.7.5-1.2,2.8-2.5,5.5-3.8,8.5h8.6c-1.4-3.1-2.7-6-4-8.8l.7-.5c.6.6,1.2,1.2,1.9,1.7,2.5,2,6.1,2.4,9,.7h0Z"/>
      <path class="cls-5" d="M49.1,116.8c.5.5,1,1.2,1.5,1.9-.5.7-.9,1.3-1.4,1.7-10.1,10.1-20.2,20.2-30.3,30.3-1.3,1.4-2.2,1.2-3.4,0-10-10.1-20-20.1-30.1-30.1-1.5-1.5-1.5-2.5,0-3.9,10-9.9,20-19.9,29.9-29.9,1.5-1.5,2.5-1.3,3.9,0,9.9,10,19.9,19.9,29.9,29.9h0ZM30.5,129c3.1-2.6,3.5-7.3.8-10.8-1.2-1.6-2.6-3.1-3.9-4.5-3.3-3.5-6.6-7-10.1-10.6-4,4.3-7.8,8.3-11.5,12.4-1.3,1.4-2.5,2.9-3.4,4.5-1.7,3.3-.5,7.6,2.5,9.6,2.9,2,6.2,1.4,9.1-1.6.7-.7,1.4-1.3,2-2,.3.2.5.4.8.6-1.5,2.5-2.9,4.9-4.4,7.4h10.2c-1.1-1.4-2.1-2.5-2.9-3.8-.8-1.2-1.2-2.6-1.9-3.9l1.3-1c.4.8.7,1.7,1.3,2.3,3.2,3.5,7,3.9,10,1.4h.1Z"/>
      <path class="cls-5" d="M50.7,194.6c-.6.7-1,1.3-1.4,1.7-10,10-19.9,19.9-29.8,29.9-1.7,1.7-2.7,1.6-4.3,0-9.7-9.8-19.4-19.5-29.2-29.2-1.7-1.6-2-2.7-.1-4.6,9.8-9.6,19.6-19.4,29.2-29.2,1.7-1.7,2.7-1.9,4.5,0,9.7,9.9,19.6,19.6,29.4,29.5.6.6,1.1,1.3,1.8,2h0ZM29.5,202.7c2.8-1.7,4-4.5,3.4-7.7-.8-4-3.6-6-7.6-6.6-.5-6.2-2.9-9.2-7.3-9.4-4.8-.2-8.2,1.9-8.9,9.4-3.7.6-6.6,2.3-7.4,6.3-.6,3.3.3,6.3,3.4,8,4.1,2.3,7.7,1.2,11-2,.2.2.4.4.6.6-1.3,2.9-2.6,5.8-3.8,8.7h8.5c-1.4-3.1-2.6-5.9-3.9-8.8.2-.3.4-.5.6-.8,3.3,3.7,7,4.9,11.2,2.3h.2Z"/>
      <path class="cls-5" d="M49.1,344.4c1.6,1.6,1.6,2.6,0,4.2-9.8,9.7-19.6,19.4-29.2,29.3-2,2-3.2,1.8-5-.1-9.5-9.7-19.1-19.3-28.8-28.9-1.9-1.8-1.9-3,0-4.8,9.8-9.7,19.5-19.5,29.3-29.2.6-.6,1.3-1.1,2.1-1.8.8.7,1.4,1.1,2,1.6,9.9,9.9,19.8,19.8,29.7,29.7h0ZM29.2,354.8c2.9-1.6,4.1-4.3,3.8-7.5-.4-3.4-2.3-5.7-5.7-6.5-1.5-.3-2-1-2.2-2.6-.5-4.6-3.6-7.4-7.9-7.4s-7.3,2.9-7.6,7.6c-.1,2-1.4,2.1-2.7,2.5-3.6,1.2-5.4,3.8-5.2,7.8.1,3.4,2.5,6.2,5.9,7s6.1-.6,8.5-3.1l.7.6c-1.2,2.8-2.4,5.6-3.8,8.7h8.4c-1.3-3-2.5-5.7-3.7-8.4.3-.1.6-.3.9-.4.4.4.9.7,1.3,1.1,2.7,2.2,6.2,2.6,9.2.9h0v-.3Z"/>
      <path class="cls-5" d="M48.6,268.1c1.9,1.8,1.9,2.9,0,4.8-9.9,9.7-19.7,19.6-29.5,29.4-1.1,1.1-2,1.8-3.5.4-10.4-10.4-20.7-20.8-31.1-31.2-.3-.3-.4-.7-1-1.6,4.4-4.3,9-8.6,13.5-13,6.1-6,12.2-12.1,18.2-18.2,1.4-1.5,2.3-1.6,3.8,0,9.7,9.9,19.6,19.7,29.4,29.5h.2ZM29,281.8c2.7-1.1,4-3.5,3.9-6.2,0-2.1-1-4.6-2.3-6.2-3.4-4.2-7.2-8-10.9-12-.7-.8-1.5-1.5-2.5-2.4-2.1,2.2-4.1,4.2-5.9,6.3-2.6,2.9-5.3,5.7-7.8,8.7-2.7,3.2-2.3,8.3.6,10.9,3,2.7,7.1,2.1,10.3-1.4.5-.6.8-1.4,1.2-2,.4.3.9.6,1.3,1-1.4,2.4-2.7,4.9-4.1,7.4h9.5c-1.6-2.6-3.1-5-4.5-7.4.3-.2.6-.4.9-.6.9.9,1.7,1.9,2.6,2.7,2.3,2.1,5,2.5,7.8,1.4h0v-.2Z"/>
      <path class="cls-3" d="M33,43.6c.2,3.2-.9,5.9-3.8,7.5-2.9,1.6-6.5,1.3-9-.7-.7-.5-1.3-1.1-1.9-1.7l-.7.5-.8.3c-.2-.2-.5-.4-.7-.5-3,2.6-6.1,4.2-10,2.4-3-1.4-4.6-3.9-4.4-7.4.1-3.3,1.8-5.8,5-6.7,2-.6,2.9-1.3,3-3.6,0-3.7,3.7-6.6,7.6-6.6s7.4,2.8,7.8,7.1c.2,1.9.9,2.5,2.5,3,3.1.8,5.2,3.4,5.4,6.4h0Z"/>
      <path class="cls-3" d="M33,347.3c.4,3.2-.8,5.9-3.8,7.5-3,1.7-6.5,1.3-9.2-.9-.4-.4-.9-.7-1.3-1.1-.3.1-.6.3-.9.4l-.9-.2-.7-.6c-2.4,2.5-5.1,3.9-8.5,3.1-3.4-.8-5.8-3.6-5.9-7-.1-4,1.6-6.6,5.2-7.8,1.3-.4,2.6-.5,2.7-2.5.3-4.6,3.4-7.6,7.6-7.6s7.4,2.7,7.9,7.4c.2,1.6.7,2.3,2.2,2.6,3.4.8,5.3,3.1,5.7,6.5h0v.2Z"/>
      <path class="cls-3" d="M32.9,195c.6,3.3-.6,6-3.4,7.7-4.2,2.6-7.9,1.4-11.2-2.3-.2.3-.4.5-.6.8h-.8c-.2-.1-.4-.3-.6-.5-3.3,3.2-7,4.3-11,2-3.1-1.7-4-4.7-3.4-8,.8-4,3.7-5.7,7.4-6.3.7-7.5,4.1-9.6,8.9-9.4,4.4.2,6.8,3.3,7.3,9.4,4,.5,6.8,2.5,7.6,6.6h-.2Z"/>
      <path class="cls-3" d="M32.9,275.6c.2,2.6-1.2,5.1-3.9,6.2-2.8,1.1-5.5.7-7.8-1.4-.9-.8-1.8-1.8-2.6-2.7-.3.2-.6.4-.9.6h-.8c-.4-.3-.9-.7-1.3-1-.4.7-.7,1.5-1.2,2-3.2,3.5-7.3,4.1-10.3,1.4-2.9-2.6-3.3-7.6-.6-10.9,2.5-3,5.2-5.8,7.8-8.7,1.9-2,3.8-4,5.9-6.3,1,.9,1.8,1.6,2.5,2.4,3.7,3.9,7.5,7.8,10.9,12,1.3,1.6,2.2,4.1,2.3,6.2h0v.2Z"/>
      <path class="cls-3" d="M31.2,118.2c2.7,3.5,2.3,8.2-.8,10.8-3,2.6-6.8,2.1-10-1.4-.6-.6-.9-1.6-1.3-2.3l-1.3,1-1,.3c-.3-.2-.5-.4-.8-.6-.7.7-1.4,1.3-2,2-2.9,3-6.2,3.6-9.1,1.6-2.9-2-4.2-6.3-2.5-9.6.8-1.7,2.1-3.1,3.4-4.5,3.7-4.1,7.4-8,11.5-12.4,3.4,3.6,6.8,7.1,10.1,10.6,1.4,1.5,2.7,2.9,3.9,4.5h-.1Z"/>
      <path class="cls-3" d="M22.6,134h-10.2c1.5-2.5,2.9-5,4.4-7.4l1-.3c.6,1.3,1.1,2.7,1.9,3.9.8,1.3,1.8,2.4,2.9,3.8h0Z"/>
      <path class="cls-3" d="M22.1,285.7h-9.5c1.4-2.5,2.8-4.9,4.1-7.4h.8c1.5,2.4,2.9,4.8,4.5,7.4h.1Z"/>
      <path class="cls-3" d="M21.6,58h-8.6c1.3-2.9,2.6-5.7,3.8-8.5l.8-.3c1.3,2.8,2.6,5.7,4,8.8Z"/>
      <path class="cls-3" d="M21.6,209.9h-8.5c1.3-2.9,2.6-5.8,3.8-8.7h.8c1.3,2.8,2.5,5.6,3.9,8.7h0Z"/>
      <path class="cls-3" d="M21.6,361.6h-8.4c1.3-3,2.5-5.9,3.8-8.7l.9.2c1.2,2.7,2.4,5.5,3.7,8.4h0Z"/>
      <path class="cls-6" d="M14.4,155c.4.4.8.9,1.2,1.3-12.2,12.2-24.2,24.2-36,36-11.9-11.9-23.9-24-36.1-36.2.3-.4.9-1,1.5-1.7,10.7-10.7,21.4-21.3,32-32.1,1.8-1.8,2.9-2,4.8,0,10.8,11,21.7,21.8,32.6,32.7h0ZM6.9,162.8c2-1.9,4.1-3.7,6-5.4-11.6-11.6-22.6-22.6-33.5-33.5-10.8,10.8-21.9,21.8-33.1,33.1,0,.2.2.4.4.6,10.3,10.3,20.7,20.6,30.9,31,1.5,1.5,2.3,1.2,3.6-.2,8.5-8.6,17-17.2,25.6-25.7h0Z"/>
      <path class="cls-6" d="M11.3,386.2c1.3-1.2,1.5-2.1.1-3.4-10.2-10.1-20.4-20.3-30.5-30.5-1-1-1.8-1.3-3-.2-10.4,10.5-20.8,20.9-31.3,31.4-.3.3-.4.7-1,1.8,3.2,3,6.6,6.1,10,9.2h-3c-3.4-3.1-6.8-6.1-10.1-9.1,12.9-12.8,24.9-24.8,36.8-36.6,11.8,11.8,23.9,23.8,36.1,36-3,3.1-6.2,6.4-9.4,9.7h-3c2.7-2.8,5.4-5.6,8.3-8.2h0Z"/>
      <path class="cls-3" d="M11.4,382.8c1.4,1.4,1.1,2.2-.1,3.4-2.8,2.7-5.5,5.5-8.3,8.2h-20.4c3.6-3.5,7.2-7,10.8-10.5-5.9-3-10.6-8-14.2-14.6-3.5,6.9-8.4,11.5-14,14.6,3.7,3.6,7.2,7.1,10.8,10.5h-20.4c-3.4-3.1-6.7-6.2-10-9.2.6-1.1.8-1.5,1-1.8,10.4-10.5,20.8-20.9,31.3-31.4,1.1-1.1,1.9-.8,3,.2,10.1,10.2,20.3,20.4,30.5,30.5h0Z"/>
      <path class="cls-3" d="M11.1,306.5c1.3,1.2,1.8,2.1.3,3.7-10.3,10.2-20.5,20.5-30.8,30.7-.3.3-.8.6-1,.8-11.1-11.2-22.2-22.3-33-33.2,10.9-11,21.9-22,33.8-34,.6,1,1.1,2.3,2,3.2,9.6,9.6,19.2,19.3,28.8,28.8h-.1ZM-9,314.6c3.9-4.7,5.4-10.2,3.1-16.3-1.1-2.8-2.9-5.1-6.2-5.4-3.2-.4-5.2,1.5-6.8,4-.5.7-.9,1.5-1.7,2.6-.8-1.2-1.2-1.8-1.7-2.5-1.7-2.5-3.7-4.6-7-4.2-3,.4-5.9,3.5-6.5,7.1-.9,4.9-.5,9.8,2.8,13.6,3,3.4,6.6,6.2,10,9.3,1.5,1.4,3.1,1.3,4.6,0,3.2-2.7,6.7-5.1,9.4-8.3h0Z"/>
      <path class="cls-3" d="M11,78.7c1.5,1.5,1.9,2.4.2,4.1-10.3,10.1-20.4,20.3-30.6,30.5-.3.3-.6.5-1,.8-11.1-11.2-22.1-22.3-32.9-33.1,10.8-10.8,22-21.8,33.3-33.1.2.2.9.8,1.5,1.4,9.8,9.8,19.6,19.7,29.5,29.5h0ZM-20.7,95.9c3.6-6.8,8.5-11.5,15.2-15.2-6.9-3.4-11.4-8.4-15.2-15-3.4,6.8-8.3,11.5-14.9,15.1,6.6,3.6,11.6,8.3,15,15.1h-.1Z"/>
      <path class="cls-3" d="M11,2.7c1.5,1.5,1.8,2.5.1,4.1C1.1,16.7-8.9,26.7-18.8,36.7c-1,1-1.8,1.9-3.2.5-10.5-10.6-21-21.1-31.5-31.7-.2-.2-.2-.5-.2-.4C-42.5-6.1-31.4-17.2-19.8-28.9c.7.9,1.4,2.2,2.3,3.2C-8-16.2,1.5-6.7,11,2.7ZM-7.2,8.3C-4.8,4.1-4.1-.5-5.9-5.2c-1.1-2.8-2.9-5.1-6.1-5.5-3.2-.4-5.3,1.4-6.8,3.9-.5.7-1,1.4-1.7,2.6-1.1-1.5-1.8-2.6-2.6-3.6-3.2-4-7.8-4.2-10.5,0-1.6,2.4-2.5,5.8-2.4,8.7.4,9.4,6.8,14.6,14.2,19,.7.4,2.2.1,3.1-.4,4.8-2.7,8.8-6.2,11.6-11.1h-.1Z"/>
      <path class="cls-3" d="M10.6,230.2c.7.7,1.4,1.4,1.9,2-11.2,11.1-22.3,22.1-33.3,33-10.6-10.7-21.6-21.8-32.9-33.2.3-.3,1-1.2,1.8-1.9,9.6-9.6,19.3-19.2,28.8-28.9,2-2.1,3-1.8,4.9.1,9.5,9.7,19.2,19.3,28.8,28.9h0ZM-20.7,247.7c3.5-6.8,8.3-11.6,15.2-15.1-7-3.5-11.6-8.5-15.3-15.1-3.3,7-8.4,11.5-14.8,15.2,6.7,3.6,11.4,8.3,14.9,15.1h0Z"/>
      <path class="cls-6" d="M15.9,233.6c-2,1.7-4.4,3.6-6.6,5.7-9.2,9.1-18.4,18.3-27.5,27.5-1.8,1.9-2.9,1.9-4.8,0-10.7-10.8-21.4-21.5-32.2-32.2-1.3-1.3-2-2.2-.3-3.9,11.2-11.1,22.4-22.3,33.5-33.4.3-.3.8-.6,1-.8,12.1,12.2,24.1,24.2,36.9,37.1h0ZM12.5,232.2c-.6-.6-1.2-1.3-1.9-2-9.6-9.6-19.3-19.2-28.8-28.9-1.9-1.9-2.9-2.2-4.9-.1-9.5,9.7-19.2,19.3-28.8,28.9-.8.8-1.5,1.6-1.8,1.9,11.2,11.3,22.3,22.4,32.9,33.2,10.9-10.8,22-21.8,33.3-33h0Z"/>
      <path class="cls-3" d="M12.8,157.4c-1.9,1.7-4,3.4-6,5.4-8.6,8.5-17.1,17.1-25.6,25.7-1.3,1.3-2.2,1.6-3.6.2-10.3-10.4-20.6-20.7-30.9-31-.2-.2-.3-.5-.4-.6,11.2-11.2,22.3-22.3,33.1-33.1,10.8,10.8,21.9,21.9,33.5,33.5h0ZM-9.8,163.8c4-5,6.2-10.5,3.9-17-1-2.7-2.6-5-5.7-5.6-3.3-.7-5.5,1.1-7.3,3.6-.6.8-1.1,1.6-1.8,2.7-1.1-1.5-1.9-2.9-2.9-4-3-3.4-7.7-3.3-10.3.4-1.1,1.5-1.8,3.4-2.1,5.2-1.4,8.6,2.9,14.7,9.3,19.4,6.6,4.9,5.3,4.8,11.7.2,1.9-1.4,3.7-3,5.2-4.9h0Z"/>
      <path class="cls-6" d="M14.7,81.2c-11.5,11.5-23.5,23.5-35.3,35.4-11.9-11.9-23.9-24-35.9-35.9,11.8-11.8,23.8-23.8,35.5-35.5,11.8,11.9,23.8,24,35.6,36h.1ZM11.2,82.7c1.7-1.7,1.3-2.6-.2-4.1-9.9-9.8-19.7-19.6-29.5-29.5-.6-.6-1.3-1.2-1.5-1.4-11.3,11.2-22.5,22.3-33.3,33.1,10.8,10.9,21.8,21.9,32.9,33.1.4-.3.7-.5,1-.8,10.2-10.2,20.3-20.4,30.6-30.5h0Z"/>
      <path class="cls-6" d="M15,5.1C3.3,16.8-8.7,28.8-20.4,40.6c-11.9-11.9-23.9-23.9-35.8-35.7,11.7-11.7,23.8-23.7,35.6-35.4C-9.1-19,2.9-7,15,5.1ZM11.1,6.8c1.6-1.6,1.4-2.6-.1-4.1C1.5-6.7-8-16.2-17.4-25.7c-1-1-1.7-2.2-2.3-3.2C-31.4-17.2-42.5-6.1-53.6,5.1c0-.2,0,.2.2.4,10.5,10.6,21,21.1,31.5,31.7,1.4,1.4,2.2.5,3.2-.5C-8.9,26.7,1.1,16.7,11.1,6.8Z"/>
      <path class="cls-6" d="M-20.6,273c11.6,11.6,23.6,23.7,35.5,35.6-11.7,11.6-23.8,23.6-35.8,35.6-11.8-11.8-23.7-23.7-35.5-35.5,12-11.9,24-23.9,35.9-35.7h-.1ZM11.4,310.2c1.5-1.5,1-2.4-.3-3.7-9.6-9.6-19.3-19.2-28.8-28.8-.9-.9-1.4-2.2-2-3.2-11.9,12-22.8,23-33.8,34,10.9,10.9,21.9,22,33,33.2.3-.2.7-.4,1-.8,10.3-10.2,20.5-20.5,30.8-30.7h.1Z"/>
    </g>
  </g>
</svg>