<?xml version="1.0" encoding="UTF-8"?>
<svg id="Layer_1" data-name="Layer 1" xmlns="http://www.w3.org/2000/svg" xmlns:xlink="http://www.w3.org/1999/xlink" version="1.1" viewBox="0 0 135.5 150">
  <defs>
    <style>
      .cls-1 {
        fill: #5e7ebe;
      }

      .cls-1, .cls-2, .cls-3, .cls-4, .cls-5, .cls-6, .cls-7, .cls-8, .cls-9 {
        stroke-width: 0px;
      }

      .cls-10 {
        clip-path: url(#clippath);
      }

      .cls-2 {
        fill: none;
      }

      .cls-3 {
        fill: #41b9b7;
      }

      .cls-4 {
        fill: #45ac72;
      }

      .cls-5 {
        fill: #38a56e;
      }

      .cls-6 {
        fill: #1e7b3d;
      }

      .cls-7 {
        fill: #45b0c2;
      }

      .cls-8 {
        fill: #58c8e2;
      }

      .cls-9 {
        fill: #85cdb5;
      }
    </style>
    <clipPath id="clippath">
      <rect class="cls-2" x="10.5" y="27.7" width="111.9" height="103.2"/>
    </clipPath>
  </defs>
  <g class="cls-10">
    <g>
      <path class="cls-3" d="M163.6,141.1s-.1,0-.2.1c-9.8,9.8-19.6,19.5-29.4,29.2-1.5,1.5-.8,2.3.3,3.4,9.4,9.3,18.7,18.7,28.1,28.1s1.1.9,1.7,1.4c10.5-10.5,20.7-20.8,30.7-30.8-10.3-10.4-20.7-20.8-31.1-31.3,0,0,0,0,0,0h0ZM284,126.4v2.6c-6.8-6.7-13.6-13.4-19.9-19.7-.4-.4-.7-.7-1.1-1.1-10.7,10.6-21.1,21-31.3,31.2,10.1,10.2,20.5,20.6,31.2,31.3.4-.4.8-.9,1.2-1.3l1,1h0c-1,1-1,1.7-.4,2.5l-.9.9c-.2-.3-.4-.5-.6-.8-11,11-21.5,21.4-32.5,32.5,2.9,2.6,5.8,5.3,8.7,7.9h-2.6c-2.3-2.5-4.6-4.9-6.9-7.3-2.8,2.7-5.2,5-7.6,7.3h-2.1c2.7-2.9,5.3-5.8,7.9-8.6-10.5-10.5-20.9-20.9-30.9-30.9-10.4,10.3-20.8,20.7-31.3,31.2,2.4,2.7,5.1,5.5,7.7,8.3h-2.1c-2.4-2.5-4.8-4.9-7.4-7.6-2.6,2.8-4.9,5.2-7.2,7.6h-2.6c2.8-2.9,5.6-5.7,8.1-8.4-10.6-10.7-21-21.1-31.1-31.3-.5.5-1,1-1.5,1.5-9.9,9.8-19.8,19.8-30.4,30.4,2.8,2.5,5.8,5.2,8.7,7.8h-2.6c-2.3-2.4-4.6-4.8-6.8-7.1-.6.2-.9.3-1,.4-2.3,2.2-4.5,4.5-6.8,6.7h-2.1c2.6-2.9,5.3-5.8,7.7-8.4-.9-.9-1.8-1.8-2.8-2.8-9.6-9.6-19-19-28.5-28.6,0,0-.4.2-.6.4-9.8,9.8-19.5,19.6-29.4,29.3-1,1-1,1.7,0,2.8,2.4,2.4,4.6,4.8,6.9,7.3h-2.1c-2-2-3.9-4.1-6-6-.5-.5-2-.7-2.4-.3-2.1,2-4.1,4.2-6.1,6.3h-2.6c2.7-2.8,5.5-5.7,8.1-8.4-10.6-10.5-21-20.9-31.2-31.1-10.3,10.2-20.7,20.6-31.8,31.7,2.8,2.5,5.8,5.2,8.7,7.8h-2.6c-2.3-2.5-4.7-4.9-7-7.4-2.7,2.7-5.1,5.1-7.5,7.4h-2.1c2.7-2.9,5.3-5.8,7.8-8.5-10.5-10.5-20.9-20.9-31.2-31.1-10.2,10.2-20.6,20.6-31.1,31.1,2.5,2.8,5.2,5.6,7.9,8.5h-2.1c-2.4-2.4-4.9-4.8-7.5-7.5-2.4,2.6-4.7,5-7,7.5h-2.6c2.8-2.9,5.6-5.7,8-8.3-10.7-10.7-21-21.1-32-32.1-.3.4-.6.9-1,1.4l-.9-.9h0c1.2-1.2,1.2-2,0-3.2-3.5-3.4-7-6.9-10.5-10.3v-2.1c3.9,3.7,7.9,7.5,11.6,11,.5.4.9.9,1.3,1.3,10.6-10.5,21-20.9,31.2-31-10.3-10.3-20.7-20.7-31.7-31.8-4,4.3-8.2,8.7-12.4,13.2v-2.6c3.7-4,7.5-8.1,11.4-12.4-3.5-3.4-7.5-7.2-11.4-11v-2.6c4.3,4.3,8.7,8.6,13,12.9.6-.4.9-.6,1.2-.9,9.7-9.7,19.4-19.4,29.2-29.1,1.6-1.6.5-2.3-.5-3.3-8.9-8.9-17.8-17.8-26.7-26.7-.9-.9-2-1.9-3.1-2.9-1,1-1.8,1.7-2.6,2.5-3.5,3.4-7,6.8-10.6,10.2v-2.1c3.4-3.4,6.8-6.8,10.2-10.2,1.4-1.3,1.4-2.2,0-3.6-3.5-3.3-6.8-6.8-10.3-10.1v-2.1c4.4,4.2,8.8,8.4,12.8,12.2.8-.8,1.7-1.7,2.5-2.5,9.7-9.7,19.3-19.2,28.7-28.6-10.3-10.2-20.6-20.6-31.2-31.2-4.2,4.1-8.5,8.4-12.9,12.7v-2.6c3.7-4.1,7.4-8.1,10.7-11.7-3.2-3.5-6.9-7.6-10.7-11.6v-2.6c4.2,4.5,8.3,9,12.3,13.3,11.1-11.2,21.5-21.6,31.7-31.8-10.2-10.2-20.6-20.7-31.1-31.2-.6.6-1.4,1.2-2.1,2-3.6,3.5-7.2,6.9-10.8,10.4v-2.1c3.4-3.4,6.8-6.8,10.3-10.2,1.3-1.3,1.4-2.3,0-3.6-3.5-3.3-6.9-6.7-10.3-10.1v-2.1c3.9,3.7,7.8,7.4,11.6,11,.5.4.9.9,1.4,1.3,10.6-10.6,21-20.9,31.2-31.1-10.3-10.3-20.7-20.7-31.8-31.9-4,4.3-8.1,8.8-12.3,13.3v-2.6c3.7-4,7.4-8.1,11.3-12.3-1.4-1.5-3.3-3.5-5.1-5.4h2.6c3.5,5.2,4.2,5.3,8.3.9.2-.2.4-.6.5-.9h2.6c-1.8,1.9-3.6,3.9-5.5,5.9.5.6.9,1.2,1.3,1.7,9.4,9.5,18.9,18.9,28.3,28.4,1.4,1.4,2.1,1.1,3.3-.2,5.2-5.3,10.5-10.5,15.7-15.7,4.7-4.6,9.4-9.1,14.1-13.8-2.1-2.4-3.8-4.4-5.5-6.3h2.1c3,3.3,6.1,3.4,9.2.2,0,0,.1-.1.2-.2h2.1c-1.7,2-3.4,4-4.9,5.6,10.5,10.5,20.8,20.9,31,31.1,10.2-10.2,20.5-20.6,31-31.1-1.6-1.8-3.5-3.7-5.3-5.7h2.6c1.2,1.3,2.2,2.6,3.5,3.7.4.3,1.6.4,1.9,0,1.2-1.1,2.3-2.5,3.4-3.8h2.6c-1.8,1.9-3.6,3.9-5.3,5.7,10.5,10.5,20.9,20.8,31.4,31.3,0,0,.4-.1.6-.3,9.8-9.8,19.7-19.7,29.5-29.5,1-1,.8-1.7,0-2.6-1.4-1.5-2.8-3-4.2-4.5h2.1c5.7,5.8,3.8,5.4,9.2.2,0,0,.1-.1.2-.2h2.1c-.9,1.1-1.8,2.2-2.9,3.3-2.7,2.6-2.7,2.6-.1,5.2,7.9,7.9,15.7,15.8,23.6,23.6,1.8,1.8,3.5,3.5,5.1,5,9.7-9.6,19.1-19.1,28.7-28.7.9-.9,1.8-1.8,2.7-2.7-1.7-1.8-3.5-3.7-5.3-5.7h2.6c3.5,5.2,4.3,5.3,8.3.9.2-.2.3-.6.5-.9h2.6c-1.8,1.9-3.6,3.9-5.2,5.6.8.8,1.5,1.5,2.3,2.3,9.7,9.7,19.3,19.4,28.8,29,10.2-10.2,20.5-20.6,31-31-1.6-1.8-3.3-3.8-5.1-5.8h2.1c5.7,5.8,3.8,5.3,9.2.2,0,0,.1-.1.2-.2h2.1c-1.7,2-3.4,4-5.2,6,.5.6.8,1,1.2,1.5,9.5,9.5,19.1,19,28.5,28.6,1.6,1.7,2.5.6,3.5-.4,9.3-9.3,18.5-18.6,27.8-27.8.5-.5,1-1.1,1.6-1.8-1.9-2.1-3.7-4-5.6-6h2.6c1.2,1.3,2.2,2.6,3.5,3.7.4.3,1.5.3,1.9,0,1.2-1.1,2.3-2.5,3.4-3.7h2.6c-1.8,1.9-3.6,3.9-6.1,6.5.2.2.5.4.7.5l-.9.9s0,0-.1-.1c-10.7,10.6-21.1,21-31.4,31.2,10.2,10.2,20.5,20.6,31,31.1.4-.4.9-.8,1.3-1.2.1-.1.3-.3.5-.4,3.9-3.9,7.8-7.8,11.8-11.7,2.6-2.5,5.2-4.9,7.9-7.4v2.1c-6.2,6.2-12.5,12.4-18.8,18.6-1.4,1.4-.9,2.3.2,3.4,6.2,6.1,12.4,12.3,18.6,18.5v2.1c-.7-.5-1.4-1-2-1.6-5.6-5.6-11.2-11.2-16.9-16.9-.8-.8-1.7-1.6-2.4-2.2-10.6,10.6-21,21-31.1,31.1,10.3,10.3,20.6,20.7,31.7,31.8,0,0,0,0,.1-.1l.8.8c0,0,0,.3,0,.5l-.6.6c.6.5,1.2.9,1.9,1.4l-1,1s0,0,0,0c-1.4-1.5-2.3-1.5-3.7,0-9.3,9.4-18.6,18.8-28.1,28-1.5,1.5-1.3,2.4.1,3.7h0c9.2,9.2,18.4,18.5,27.6,27.7.6.6,1.3,1.1,2.1,1.9,7.2-7.2,14.4-14.3,21.5-21.5v2.6c-6.2,6.2-12.3,12.4-18.5,18.5-1.4,1.3-1.4,2.2,0,3.5,6.2,6.1,12.4,12.3,18.5,18.5v2.6c-7.1-7.1-14.2-14.3-20.9-21-.4.4-.8.8-1.2,1.2-10.3,10.2-20.3,20.2-30.2,29.9,10.2,10.2,20.6,20.5,31.1,31.1,6.9-6.9,14-13.9,21.1-21v2.6c-.7.5-1.4,1-2,1.6-5.3,5.2-10.5,10.4-15.7,15.7-2.6,2.6-2.6,2.6,0,5.3,5.9,5.8,11.8,11.6,17.6,17.4h0ZM259.8,42.3c1.2-1.2,1.1-2.1,0-3.2-9.4-9.4-18.8-18.8-28.2-28.2-1.4-1.4-2.3-1.3-3.6,0-4,4.2-8.2,8.2-12.2,12.3-5.7,5.7-11.5,11.4-17.3,17.2.3.6.4.9.6,1,9.8,9.8,19.6,19.5,29.3,29.4,1.3,1.3,2.2.9,3.2-.1,9.4-9.5,18.9-19,28.4-28.4h0ZM229.7,137.2c10.3-10.3,20.7-20.6,31-30.9-10.3-10.3-20.6-20.6-30.6-30.6-10.4,10.3-20.8,20.7-30.8,30.6,10.1,10.2,20.4,20.7,30.5,30.9h0ZM260.3-90.9c-10.1-10.1-20.4-20.4-30.6-30.6-10.2,10.3-20.5,20.7-30.8,31.1,10.1,10.1,20.4,20.5,30.4,30.6,10.3-10.3,20.7-20.8,31-31h0ZM229.7,6c10.2-10.2,20.6-20.6,30.5-30.6-10.3-10.4-20.6-20.9-30.6-31-10.3,10.2-20.6,20.5-30.8,30.7,10.2,10.3,20.6,20.6,30.9,30.9h0ZM229.6,202.9c10.3-10.2,20.6-20.6,30.9-30.7-10.4-10.4-20.7-20.8-30.8-30.9-10.3,10.2-20.7,20.6-30.8,30.7,10.2,10.3,20.5,20.7,30.7,30.9h0ZM228,7.7c-.2-.3-.5-.7-.8-1.1-9.6-9.6-19.2-19.2-28.7-28.8-1.4-1.4-2.2-1-3.4.2-6,6-11.9,12-17.9,18-3.9,3.9-7.9,7.6-11.6,11.2,10.9,10.8,21.3,21.2,31.5,31.4,10.1-10.1,20.5-20.4,31-30.9h0ZM220.8,81.2c2.5-2.5,4.9-5,7.2-7.2-10.6-10.6-20.9-21-31-31.1-10.3,10.3-20.8,20.7-31.3,31.2,0,.1.3.5.6.8,9.6,9.6,19.2,19.1,28.7,28.8,1.4,1.4,2.3,1.1,3.6-.2,7.3-7.4,14.8-14.8,22.1-22.2h0ZM227.5-57.6c-10.2-10.3-20.7-20.7-30.6-30.7-10.2,10.1-20.7,20.5-30.8,30.5,10.2,10.3,20.5,20.7,30.7,31,10.3-10.3,20.7-20.8,30.7-30.8h0ZM196.7,170c10.4-10.3,20.8-20.7,30.8-30.6-10.2-10.3-20.6-20.7-30.9-31-10.2,10.2-20.6,20.5-30.8,30.8,10.3,10.3,20.8,20.7,30.9,30.8h0ZM227.8-123.3c-10.3-10.3-20.7-20.7-30.9-30.9-10.3,10.3-20.7,20.7-31,30.9,10.2,10.3,20.6,20.7,31,31,10.2-10.3,20.6-20.7,30.9-31h0ZM195.7,41c-1.1-1.2-1.8-2-2.5-2.8-9-9-18.1-18-27.1-27.2-1.6-1.6-2.5-1.6-4.1,0-9.2,9.3-18.5,18.6-27.9,27.8-1.3,1.3-1.4,2.1,0,3.3,9.4,9.4,18.9,18.7,28.2,28.2,1.5,1.5,2.4,1.3,3.8-.1,5.1-5.2,10.2-10.3,15.4-15.4,4.7-4.6,9.4-9.2,14.3-14h0ZM195.2-90.8c-.2-.3-.6-.8-1-1.2-9.5-9.5-19.1-19.1-28.5-28.7-1.4-1.5-2.2-.9-3.3.3-9.3,9.4-18.7,18.7-28.1,28-1.4,1.4-1.3,2.2,0,3.6,9.4,9.3,18.7,18.7,28.1,28,.5.5,1.2,1,1.6,1.3,10.5-10.5,20.8-20.9,31.3-31.4h0ZM194.8-25c-10.2-10.2-20.5-20.6-30.6-30.9-10.3,10.4-20.7,20.8-30.9,30.9,10.2,10.2,20.5,20.6,30.7,30.8,10.3-10.3,20.7-20.7,30.8-30.8ZM194.9,106.3c-10.2-10.2-20.5-20.6-30.7-30.8-10.3,10.3-20.7,20.7-30.7,30.6,10.2,10.3,20.5,20.7,30.7,31,10.2-10.2,20.5-20.6,30.8-30.8h0ZM162.3,7.7c0-.1-.2-.5-.5-.7-9.8-9.8-19.6-19.5-29.3-29.4-1.4-1.4-2.2-.6-3.1.4-5.1,5.1-10.2,10.3-15.4,15.4-4.8,4.7-9.6,9.4-14.3,14.1,10.7,10.6,21.1,21,31.3,31.2,10.3-10.3,20.7-20.6,31.2-31ZM161.4,140.6c1.6-1.5.6-2.3-.4-3.4-9.2-9.2-18.4-18.4-27.7-27.6-.6-.6-1.4-1.2-1.6-1.4-10.6,10.6-21,21-31.2,31.2,10.1,10.2,20.4,20.6,30.8,31,.2-.1.5-.3.8-.5,9.8-9.8,19.5-19.6,29.3-29.3h0ZM155.1,81.3c2.5-2.5,5-4.9,7.3-7.1-10.7-10.8-21.1-21.2-31.3-31.5-10.2,10.2-20.6,20.5-31.2,31,.5.5.9,1.1,1.4,1.5,9.3,9.3,18.7,18.6,28,28.1,1.6,1.6,2.5,1.4,3.9,0,7.3-7.4,14.6-14.7,22-22h0ZM131.1-26.9c10.3-10.3,20.7-20.7,31-31-10.2-10.2-20.5-20.5-30.7-30.8-10.3,10.4-20.7,20.8-30.9,31,10.2,10.2,20.6,20.6,30.6,30.8ZM162.1-123.6c-10.2-10.2-20.6-20.6-30.8-30.8-10.3,10.3-20.8,20.8-30.9,30.9,10.4,10.4,20.7,20.8,30.7,30.8,10.3-10.2,20.7-20.6,31-30.9h0ZM128.3-88.8c1.6-1.6,1-2.6-.3-3.8-9.3-9.3-18.6-18.5-27.9-27.8-.5-.5-1.1-.9-1.7-1.4-.5.3-.8.5-1,.7-9.7,9.7-19.4,19.5-29.1,29.1-1.5,1.5-.7,2.3.4,3.3,7.9,7.9,15.8,15.7,23.6,23.6,1.9,2,3.7,4.1,5.5,6.2,1-.7,1.3-.9,1.5-1,9.7-9.6,19.3-19.3,29-28.9ZM129.6,40.7c-.5-.6-.8-1.2-1.3-1.7-9.4-9.4-18.8-18.8-28.2-28.2-1.4-1.4-2.3-1.2-3.6.1-9.2,9.3-18.5,18.6-27.8,27.8-1.5,1.5-1.5,2.4,0,3.9,9.4,9.3,18.7,18.6,28,28,1.1,1.1,1.9,1.4,3.2.1,9.4-9.5,18.9-18.9,28.4-28.4.5-.5.8-1.1,1.3-1.7h0ZM128.1,173.9c1.4-1.4,1.5-2.4,0-3.8-6-5.9-11.9-11.8-17.8-17.7-3.9-3.9-7.5-8-11.4-12.1-1.2,1-1.6,1.2-1.9,1.5-9.6,9.6-19.2,19.2-28.8,28.7-1.4,1.4-.9,2.2.2,3.4,8.1,8.1,16.2,16.2,24.4,24.4,1.8,1.8,3.6,3.4,5.4,5.2.6-.5,1.1-.7,1.4-1.1,9.5-9.5,18.9-19,28.4-28.4h0ZM97.7,6.7c11.1-11,21.4-21.4,31.7-31.6-10.3-10.2-20.7-20.6-31.2-31-.1,0-.6.3-.9.7-9.7,9.6-19.3,19.3-29,28.9-1.4,1.4-.6,2.2.4,3.2,7.2,7.2,14.5,14.4,21.6,21.6,2.7,2.7,5.1,5.6,7.4,8.2h0ZM98.4,137.3c10.3-10.3,20.6-20.7,30.9-31-10.3-10.2-20.6-20.6-30.8-30.7-10.3,10.2-20.7,20.5-30.9,30.6,10.3,10.3,20.6,20.8,30.8,31.1h0ZM96.9,8c-.4-.5-.7-1-1.1-1.5-1.3-1.4-2.7-2.7-4-4-8.1-8.1-16.3-16.2-24.3-24.4-1.2-1.3-2.1-1.6-3.6-.2C54.5-12.6,45.1-3.2,35.7,6.2c-1,1-1.8,1.7-.4,3.1,9.7,9.6,19.3,19.3,28.9,28.9,1,1,1.7,1,2.8,0,9.6-9.6,19.1-19.2,28.7-28.8.4-.4.7-.9,1.2-1.5h0ZM95.8,75c.4-.4.7-.9,1.1-1.5-.4-.5-.7-1-1.1-1.5-9.5-9.5-19.1-19-28.5-28.6-1.3-1.3-2.1-1.1-3.4,0-9.4,9.5-18.9,19-28.4,28.4-1.2,1.2-1.2,2,0,3.2,9.6,9.5,19.1,19,28.6,28.6,1.1,1.1,1.8,1.2,3,0,9.6-9.6,19.2-19.2,28.7-28.8h0ZM95.8-56.3c1.2-1.2.9-2-.2-3-9.6-9.5-19.1-19-28.6-28.6-1.1-1.1-1.9-1.1-3,0-9.5,9.6-19,19.1-28.6,28.6-1.2,1.2-1.2,2,0,3.2,2.8,2.7,5.5,5.5,8.3,8.2,7.1,7.2,14.2,14.3,21.4,21.6.7-.4,1-.6,1.2-.8,9.8-9.8,19.6-19.5,29.4-29.3ZM95.3-121.5c.5-.5,1-1.1,1.4-1.6-10.5-10.5-21-20.9-31.2-31.2-10.3,10.2-20.6,20.5-31.2,31.1.7.8,1.4,1.5,2,2.1,9.1,9.1,18.2,18.2,27.3,27.4,1.7,1.7,2.6,1.4,4.1-.1,9.2-9.3,18.4-18.5,27.7-27.7h0ZM95.1,141.3c.6-.6,1.2-1.4,1.6-1.8-10.6-10.6-20.9-21-31.2-31.2-10.2,10.3-20.6,20.6-31.1,31.2.3.4.6.8,1,1.2,9.6,9.6,19.2,19.2,28.7,28.8,1.5,1.5,2.3.7,3.3-.4,9.2-9.2,18.4-18.5,27.7-27.7h0ZM62.9,173.5c1.7-1.7.5-2.5-.5-3.5-9.2-9.2-18.5-18.4-27.6-27.7-1.5-1.6-2.4-1.5-3.9,0-9.1,9.2-18.2,18.4-27.5,27.5-1.7,1.6-1.8,2.6,0,4.4,6.4,6.3,12.7,12.7,19.1,19,3.4,3.4,6.8,6.8,10.3,10.2.6-.4.9-.6,1.2-.9,9.7-9.6,19.3-19.3,29-28.9h0ZM62.8,107.9c1.4-1.4,1.1-2.2-.1-3.4-6-5.9-11.9-11.8-17.8-17.7-3.9-4-7.7-8-11.4-11.8-10.9,10.8-21.4,21.2-31.7,31.5,10.3,10.3,20.6,20.6,31.1,31,.4-.3.9-.6,1.3-1,9.5-9.5,19-19.1,28.6-28.5h0ZM62.6,42.6c1.3-1.3,1.5-2.2.1-3.6-9.5-9.4-19-18.9-28.4-28.3-.4-.4-.9-.7-1.5-1.2-.6.5-1.2.8-1.6,1.3C21.8,20.1,12.5,29.5,3.1,38.8c-1.4,1.4-1.6,2.3,0,3.8,9.4,9.3,18.8,18.6,28.1,28,1.3,1.3,2.2,1.4,3.5,0,9.3-9.4,18.6-18.7,28-28h0ZM62.3-22.8c1.6-1.6,1.7-2.5,0-4.1-8.1-8-16.1-16.1-24.2-24.2-1.7-1.7-3.5-3.4-5.3-5.2-.5.4-.8.6-1.1.9-9.7,9.6-19.3,19.3-29,28.9-1.4,1.4-1,2.2.1,3.4,4.4,4.3,8.7,8.6,13,13C21.4-4.6,26.8.9,32.5,6.7c1.1-1,1.9-1.7,2.6-2.4,9-9,18-18.1,27.1-27.1h0ZM62.2-88.4c1.7-1.7,1.8-2.6,0-4.3-6.4-6.2-12.6-12.5-18.9-18.9-3.4-3.5-6.7-7.1-10.1-10.7-.2.2-.4.3-.6.5-.3.2-.7.4-1,.7-9.6,9.6-19.2,19.2-28.8,28.7-1.6,1.6-.9,2.6.3,3.8,8.8,8.8,17.6,17.6,26.4,26.4,1,1,2.1,2,3.2,3,.7-.6,1.2-1.1,1.7-1.6,9.2-9.2,18.4-18.5,27.7-27.6ZM31.2,7.6c-.3-.4-.6-.8-1-1.1C20.8-2.9,11.4-12.3,2-21.8c-1.6-1.7-2.6-1.5-4.1,0C-11.3-12.4-20.5-3.2-29.8,6c-.5.5-1,1.1-1.3,1.4C-20.6,18-10.2,28.4.1,38.8,10.3,28.6,20.7,18.2,31.2,7.6ZM25.9,79.4c1.9-1.9,4-3.5,5.7-5C20.5,63.4,10.1,52.9-.3,42.4c-.2.2-.6.4-.9.7-9.7,9.6-19.3,19.3-29,28.9-1.5,1.4-.8,2.2.3,3.3,9.3,9.3,18.6,18.5,27.8,27.9,1.6,1.6,2.5,1.6,4.1,0,7.9-8,15.8-15.9,23.8-23.8h0ZM0-26.7c10.2-10.3,20.6-20.7,30.5-30.6-10.3-10.4-20.6-20.9-30.8-31.2-10.2,10.2-20.5,20.5-30.7,30.7C-20.7-47.4-10.3-37,0-26.7ZM.1-92.4c10.2-10.2,20.5-20.6,30.6-30.7-10.4-10.4-20.8-20.8-30.8-30.8-10.2,10.1-20.6,20.5-30.7,30.6,10.2,10.2,20.6,20.6,30.9,30.9h0ZM30.7,139.3C20.4,129,10,118.6,0,108.5c-10.3,10.2-20.7,20.6-31,30.8,10.2,10.2,20.6,20.5,30.7,30.7,10.4-10.4,20.9-20.7,31-30.8h0ZM-2.7-89.2c1.4-1.4.6-2.2-.4-3.2-9.4-9.3-18.7-18.7-28-28.1-1.3-1.4-2.2-1.4-3.6,0-9.3,9.4-18.7,18.7-28,28.1-.5.5-1,1.2-1.3,1.6,10.5,10.5,20.8,20.9,31.2,31.3.2-.1.4-.2.5-.3,9.9-9.8,19.7-19.7,29.6-29.4h0ZM-3.2,173.9c1.6-1.6,1.3-2.5-.1-3.9-9.2-9.1-18.4-18.3-27.6-27.5-.6-.6-1.4-1.2-2-1.8-10.5,10.5-20.8,20.8-31.1,31,10.4,10.5,20.8,20.9,31.2,31.4.5-.4,1.1-.9,1.6-1.4,9.3-9.3,18.5-18.6,27.9-27.8h0ZM-32.9,5.9C-22.6-4.3-12.2-14.6-1.9-24.9c-10.3-10.2-20.7-20.5-30.9-30.7-10.2,10.2-20.6,20.5-30.7,30.6,10.2,10.3,20.5,20.7,30.7,30.9h0ZM-2.1,41c-10.4-10.4-20.7-20.8-31-31.3-.1,0-.4.2-.7.5-9.7,9.7-19.4,19.4-29.2,29-1.4,1.4-.8,2.2.3,3.4,7.1,7.1,14.2,14.2,21.2,21.2,2.8,2.8,5.6,5.5,8.4,8.2,10.6-10.6,20.9-21,31-31h0ZM-1.8,106.4c-10.3-10.3-20.6-20.6-30.9-30.9-10.4,10.3-20.7,20.7-30.8,30.7,10.2,10.3,20.6,20.8,30.7,31,10.3-10.2,20.6-20.6,30.9-30.8h0ZM-34.6,7.7c0,0-.2-.4-.4-.6-9.8-9.8-19.5-19.5-29.3-29.4-1-1-1.8-1-2.8,0-2.8,2.9-5.6,5.6-8.4,8.4-7.1,7.1-14.3,14.3-21.2,21.2,10.6,10.7,21,21.2,31.1,31.4,10.2-10.2,20.6-20.6,31-31ZM-38.8,78.3c1.5-1.5,3.3-2.7,4.8-3.9-11-11-21.4-21.4-31.6-31.7-10.4,10.4-20.8,20.7-31.2,31.2.1.2.4.5.7.8,9.6,9.6,19.2,19.2,28.7,28.8,1.4,1.4,2.3,1.3,3.6,0,8.3-8.4,16.7-16.8,25.1-25.1h0ZM-34.7-123.3c-10.3-10.3-20.6-20.6-31-31-10.2,10.2-20.7,20.6-31,30.9l31,31c10.3-10.3,20.7-20.7,31-30.9h0ZM-65.6-27c10.2-10.2,20.6-20.5,30.9-30.8-10.3-10.3-20.7-20.7-31.1-31-10.3,10.3-20.7,20.7-30.7,30.7,10.3,10.4,20.7,20.8,30.9,31ZM-65.8,169.8c10.3-10.2,20.8-20.5,30.8-30.5-10.2-10.3-20.6-20.8-30.8-31-10.2,10.2-20.6,20.6-30.7,30.6,10.4,10.5,20.8,20.9,30.6,30.8h0ZM-67.1,41.1c-.4-.6-.5-.9-.6-1.1-9.8-9.8-19.6-19.6-29.3-29.4-1.3-1.3-2.2-.9-3.2.2-9.5,9.5-18.9,19-28.4,28.4-1.1,1.1-1.2,1.9,0,3,9.5,9.4,19,18.9,28.4,28.4,1.5,1.5,2.5,1.2,3.8-.2,5.9-6,11.9-12,17.9-18,3.8-3.8,7.6-7.5,11.5-11.3ZM-67.3,171.8c-.3-.3-.6-.8-1-1.2-9.5-9.5-19.1-19-28.6-28.6-1.3-1.3-2.1-1-3.2,0-9.6,9.6-19.2,19.2-28.8,28.8-.3.3-.5.8-.8,1.2,10.4,10.4,20.8,20.7,31.1,30.9,10.4-10.4,20.8-20.7,31.2-31.2h0ZM-99-59.1c10.8-10.8,21.2-21.2,31.3-31.2-10.3-10.3-20.7-20.7-31.1-31.2-.1,0-.4.2-.7.5-9.7,9.7-19.4,19.4-29.2,29.1-1.2,1.2-.8,2,.2,3,3.4,3.3,6.7,6.7,10.1,10.1,6.5,6.6,12.9,13.2,19.4,19.8h0ZM-67.9,106.5c-10.2-10.3-20.5-20.7-30.5-30.9-10.3,10.3-20.7,20.7-30.9,30.8,10.2,10.3,20.5,20.7,30.6,30.8,10.4-10.3,20.8-20.7,30.8-30.7h0ZM-98.5,6c10.3-10.3,20.7-20.7,30.8-30.8-10.2-10.3-20.6-20.7-30.8-31-10.3,10.2-20.7,20.6-31,30.8,10.3,10.3,20.7,20.7,31,31h0Z"/>
      <path class="cls-5" d="M193.2,38.3c.7.7,1.4,1.5,2.5,2.8-4.9,4.8-9.7,9.4-14.3,14-5.2,5.1-10.3,10.2-15.4,15.4-1.4,1.4-2.2,1.6-3.8.1-9.4-9.5-18.8-18.8-28.2-28.2-1.3-1.3-1.2-2.1,0-3.3,9.3-9.2,18.6-18.5,27.9-27.8,1.6-1.6,2.5-1.7,4.1,0,9,9.1,18.1,18.1,27.1,27.2h0ZM191.7,42.4c1.2-1.1,1.3-2,0-3.2-8.7-8.6-17.4-17.3-26-26-1.3-1.4-2.2-1.1-3.4.1-8.6,8.6-17.2,17.2-25.8,25.8-1.2,1.2-1.3,2,0,3.2,8.7,8.6,17.4,17.3,26,26,.5.5,1,.8,1.7,1.3.7-.5,1.2-.9,1.7-1.4,8.6-8.6,17.2-17.2,25.9-25.8h0Z"/>
      <path class="cls-8" d="M191.8,105c1,1,1.1,1.8,0,2.8-8.8,8.8-17.6,17.6-26.4,26.4-1.1,1.1-1.9.9-3-.1-8.6-8.7-17.3-17.4-26-26-1.3-1.3-1.1-2.1,0-3.4,8.7-8.6,17.2-17.2,25.9-25.8.5-.5,1-.8,1.6-1.3.6.5,1.1.8,1.5,1.2,8.7,8.7,17.5,17.5,26.2,26.2ZM175.1,115.5c2.4-2,3.5-6.3,1.5-8.6-3.9-4.8-8.2-9.3-12.6-14.2-1.8,1.9-3.3,3.6-4.8,5.2-2.6,2.8-5.3,5.5-7.6,8.5-2.3,3-1.6,6.9,1.1,9.1,2.5,2,5.8,1.5,8.5-1.3.6-.6,1.2-1.1,1.7-1.6.2.2.5.4.7.5-1.3,2.1-2.7,4.2-4.1,6.4h8.5c-1.4-2.3-2.6-4.3-3.8-6.4.4-.3.9-.6,1.3-.9.5.8.9,1.7,1.6,2.4,2.3,2.3,5.8,2.7,7.9.9h0Z"/>
      <path class="cls-8" d="M191.8,39.2c1.2,1.2,1.1,2.1,0,3.2-8.6,8.6-17.2,17.2-25.9,25.8-.5.5-1,.9-1.7,1.4-.6-.5-1.2-.8-1.7-1.3-8.7-8.6-17.3-17.3-26-26-1.2-1.2-1.1-2,0-3.2,8.6-8.6,17.3-17.2,25.8-25.8,1.2-1.2,2.1-1.5,3.4-.1,8.6,8.7,17.3,17.4,26,26h0ZM174.1,48.1c2.3-1.2,3.7-3.7,3.5-6.4-.2-2.9-1.9-5.2-4.9-5.9-1.6-.4-1.8-1.1-2-2.4-.4-3.8-3-6.2-6.7-6.1-3.5,0-6.2,2.4-6.5,6-.1,1.5-.4,2.2-2.1,2.6-3.6.8-5.5,4.3-4.7,7.8.8,3.6,3.9,5.8,7.5,5,1.8-.4,3.5-1.6,5.7-2.6,0,0,0,0,0,.1-1.2,2.7-2.3,5.3-3.5,7.9h7.4c-1.2-2.7-2.3-5.2-3.5-7.7.2-.1.5-.2.7-.4.4.3.7.7,1.1,1,2.2,2,5.4,2.4,7.9,1.1h0Z"/>
      <path class="cls-8" d="M192.9-24.8c-.5.6-.8,1-1.2,1.5-8.7,8.7-17.4,17.3-26,26-1.2,1.2-1.9,1.3-3.2,0-8.6-8.7-17.3-17.4-26-26-1.2-1.2-1.2-2,0-3.2,8.7-8.6,17.4-17.3,26-26,1.2-1.2,2-1.3,3.2,0,8.6,8.7,17.3,17.4,26,26,.5.5.8,1.1,1.3,1.7h0ZM175.2-15.7c2.4-1.8,3.4-6.3,1.3-8.9-3.8-4.7-8.1-9.1-12.5-14-4.4,4.9-8.6,9.3-12.5,14-2.1,2.6-1.2,6.9,1.3,8.9,2.6,2,5.8,1.5,8.5-1.4.6-.6,1.3-1.1,1.9-1.6.2.2.4.4.6.6-1.3,2.1-2.6,4.2-4,6.5h8.5c-1.3-2.2-2.6-4.4-3.9-6.5.4-.3.8-.6,1.2-.9.4.7.6,1.5,1.1,2,2.6,2.8,6,3.3,8.6,1.4h0Z"/>
      <path class="cls-5" d="M163.6,141.1c10.4,10.5,20.8,20.9,31.1,31.3-9.9,10-20.2,20.3-30.7,30.8-.5-.4-1.1-.9-1.7-1.4-9.4-9.4-18.7-18.7-28.1-28.1-1.1-1.1-1.8-1.9-.3-3.4,9.8-9.7,19.6-19.5,29.4-29.2,0,0,.2-.1.2-.1,0,0,0,0,0,0h0ZM192.9,172c-.5-.6-.9-1.2-1.5-1.8-8.4-8.4-16.9-16.8-25.2-25.3-1.7-1.7-2.7-1.7-4.3,0-8.3,8.5-16.8,16.9-25.2,25.3-1.4,1.4-1.4,2.2,0,3.5,8.6,8.5,17.2,17,25.7,25.6,1.4,1.4,2.2,1.3,3.6,0,8.6-8.7,17.2-17.2,25.8-25.8.4-.4.8-.9,1.3-1.5h0Z"/>
      <path class="cls-5" d="M164.2-55.9c10.1,10.2,20.5,20.6,30.6,30.9-10.2,10.2-20.6,20.6-30.8,30.9-10.2-10.2-20.5-20.6-30.7-30.8,10.2-10.2,20.6-20.6,30.9-30.9h0ZM191.6-23.3c.4-.4.8-.9,1.2-1.5-.5-.6-.8-1.2-1.3-1.7-8.7-8.7-17.3-17.3-26-26-1.2-1.2-2-1.1-3.2,0-8.6,8.7-17.3,17.4-26,26-1.2,1.2-1.2,2,0,3.2,8.7,8.6,17.4,17.3,26,26,1.2,1.2,2,1.1,3.2,0,8.6-8.7,17.3-17.4,26-26h0Z"/>
      <path class="cls-5" d="M164.2,75.6c10.2,10.2,20.5,20.6,30.7,30.8-10.2,10.2-20.5,20.6-30.8,30.8-10.1-10.2-20.5-20.7-30.7-31,10-10,20.4-20.4,30.7-30.6ZM191.8,107.7c1-1,1-1.8,0-2.8-8.8-8.7-17.5-17.4-26.2-26.2-.4-.4-.9-.7-1.5-1.2-.6.5-1.2.8-1.6,1.3-8.6,8.6-17.2,17.2-25.9,25.8-1.2,1.2-1.4,2,0,3.4,8.7,8.6,17.4,17.3,26,26,1.1,1.1,1.9,1.3,3,.1,8.8-8.8,17.6-17.6,26.4-26.4Z"/>
      <path class="cls-5" d="M161.9,7c.2.2.4.6.5.7-10.5,10.4-20.9,20.7-31.2,31-10.2-10.2-20.6-20.6-31.3-31.2,4.7-4.6,9.5-9.3,14.3-14.1,5.1-5.1,10.3-10.3,15.4-15.4,1-1,1.7-1.8,3.1-.4,9.7,9.8,19.5,19.6,29.3,29.4h0ZM160.2,8.3c-.4-.7-.5-1-.7-1.2-9-9-18-18-26.9-27-1.1-1.1-1.8-.9-2.8.1-3.6,3.7-7.3,7.4-11,11-5.5,5.5-11.1,10.9-16.6,16.3.4.8.4,1,.5,1.1,9,9,18.1,18.1,27.1,27.2,1.3,1.3,2,.7,2.9-.3,5.6-5.6,11.2-11.3,16.9-16.9,3.5-3.5,7-6.9,10.5-10.3h0Z"/>
      <path class="cls-5" d="M161,137.3c1,1,2,1.8.4,3.4-9.8,9.7-19.6,19.5-29.3,29.3-.2.2-.6.4-.8.5-10.4-10.5-20.7-20.9-30.8-31,10.2-10.2,20.6-20.6,31.2-31.2.2.2,1,.8,1.6,1.4,9.2,9.2,18.4,18.4,27.7,27.6h0ZM159.6,139.2c-9.5-9.5-19-19-28.6-28.7-.2.1-.5.3-.7.5-8.9,8.9-17.8,17.9-26.8,26.7-1.4,1.4-.8,2.1.3,3.1,8.7,8.6,17.4,17.3,26,26,.4.4.9.7,1.1.9,9.7-9.6,19.3-19.2,28.8-28.5h0Z"/>
      <path class="cls-1" d="M159.5,7.1c.2.2.3.6.7,1.2-3.5,3.4-7,6.8-10.5,10.3-5.6,5.6-11.3,11.2-16.9,16.9-.9.9-1.6,1.6-2.9.3-9-9.1-18.1-18.1-27.1-27.2-.1-.1-.2-.3-.5-1.1,5.5-5.4,11-10.8,16.6-16.3,3.7-3.6,7.4-7.3,11-11,1-1,1.7-1.2,2.8-.1,9,9,17.9,18,26.9,27h0ZM140.7,13.9c3.4-3.6,4.5-8.1,3.7-13-.5-3.2-2.8-5.9-5.3-6.4-3.2-.6-5.2,1.2-6.7,3.8-.3.5-.7.9-1.2,1.7-.9-1.3-1.5-2.2-2.1-3.1-2.9-3.5-6.9-3.4-9.5.3-1.8,2.6-2.3,5.6-1.7,8.7,1.5,7.2,6.4,11.6,12.5,15,.6.3,1.8.1,2.3-.3,2.8-2.2,5.7-4.2,8.1-6.8h0Z"/>
      <path class="cls-1" d="M159,72.2c1.1,1.1.9,1.8,0,2.8-8.8,8.7-17.5,17.5-26.2,26.2-.9.9-1.5,1.5-2.8.3-9-9.1-18.1-18.1-27.1-27.1-.2-.2-.3-.4-.6-1,7-7,13.9-13.8,20.8-20.7,2.2-2.2,4.4-4.4,6.6-6.6,1-1.1,1.8-1.4,3-.2,8.8,8.8,17.6,17.6,26.4,26.4h0ZM131.3,86.6c2.9-5.9,7.2-9.9,12.8-13.1-5.7-3.2-9.9-7.2-12.9-13.1-3,6-7.2,10.1-13.2,13.2,6.2,2.9,10.1,7.3,13.3,13Z"/>
      <path class="cls-5" d="M162.4,74.2c-2.2,2.1-4.8,4.6-7.3,7.1-7.3,7.3-14.7,14.6-22,22-1.5,1.5-2.4,1.7-3.9,0-9.3-9.4-18.6-18.7-28-28.1-.5-.5-.9-1-1.4-1.5,10.6-10.5,21-20.9,31.2-31,10.2,10.3,20.6,20.7,31.3,31.5h0ZM159,75c1-1,1.2-1.7,0-2.8-8.8-8.8-17.6-17.6-26.4-26.4-1.2-1.2-1.9-.9-3,.2-2.1,2.3-4.4,4.4-6.6,6.6-6.9,6.9-13.8,13.7-20.8,20.7.3.6.4.9.6,1,9,9,18.1,18.1,27.1,27.1,1.2,1.2,1.9.6,2.8-.3,8.7-8.7,17.5-17.5,26.2-26.2h0Z"/>
      <path class="cls-5" d="M144.4,132.1c.9,4.9-.3,9.3-3.6,13-1.6,1.8-3.4,3.4-5.3,4.9-4.2,3.2-4.6,3.2-8.7,0-4.1-3.1-7.6-6.8-8.8-12.1-.7-3.2-.4-6.2,1.3-9,2.6-4.4,7.2-4.5,10.1-.4.5.8,1.1,1.5,1.6,2.3,0,0,.2,0,.4.1.4-.5.8-1,1.2-1.6,1.5-2.2,3.2-4.2,6.2-3.7,2.8.4,5.1,3.2,5.7,6.4h0Z"/>
      <path class="cls-5" d="M144.4.9c.8,4.9-.3,9.4-3.7,13-2.4,2.5-5.3,4.6-8.1,6.8-.5.4-1.7.6-2.3.3-6.1-3.4-11-7.8-12.5-15-.6-3.1,0-6.1,1.7-8.7,2.6-3.8,6.6-3.9,9.5-.3.7.9,1.3,1.8,2.1,3.1.6-.8.9-1.2,1.2-1.7,1.5-2.6,3.5-4.3,6.7-3.8,2.5.4,4.8,3.2,5.3,6.4h0Z"/>
      <path class="cls-1" d="M131,110.5c9.6,9.6,19.2,19.2,28.6,28.7-9.4,9.4-19,18.9-28.8,28.5-.2-.1-.7-.5-1.1-.9-8.7-8.7-17.3-17.4-26-26-1.1-1-1.6-1.8-.3-3.1,9-8.9,17.9-17.8,26.8-26.7.2-.2.6-.4.7-.5h0ZM140.8,145.1c3.3-3.7,4.4-8.1,3.6-13-.6-3.2-2.9-5.9-5.7-6.4-3.1-.5-4.7,1.5-6.2,3.7-.4.6-.8,1.1-1.2,1.6-.2,0-.4,0-.4-.1-.5-.8-1.1-1.5-1.6-2.3-2.9-4.1-7.5-3.9-10.1.4-1.6,2.8-2,5.8-1.3,9,1.2,5.3,4.7,8.9,8.8,12.1,4.1,3.2,4.6,3.2,8.7,0,1.9-1.5,3.7-3.1,5.3-4.9h0Z"/>
      <path class="cls-5" d="M144.1,73.6c-5.6,3.2-9.9,7.2-12.8,13.1-3.2-5.7-7.1-10.1-13.3-13,6-3.1,10.2-7.2,13.2-13.2,3.1,5.9,7.2,9.9,12.9,13.1Z"/>
      <path class="cls-5" d="M128.3,39.1c.5.5.8,1,1.3,1.7-.5.6-.9,1.2-1.3,1.7-9.5,9.5-18.9,18.9-28.4,28.4-1.2,1.2-2,1-3.2-.1-9.3-9.4-18.6-18.7-28-28-1.5-1.5-1.5-2.4,0-3.9,9.3-9.2,18.6-18.5,27.8-27.8,1.3-1.3,2.2-1.5,3.6-.1,9.4,9.4,18.8,18.8,28.2,28.2h0ZM125.7,42.6c1.3-1.3,1.5-2.2,0-3.6-8.6-8.6-17.2-17.2-25.8-25.8-1.2-1.2-1.9-1.3-3.2,0-8.6,8.7-17.3,17.4-26,26-1.1,1.1-1.4,1.9-.1,3.2,8.8,8.7,17.5,17.4,26.2,26.1.4.4.9.7,1.5,1.1.6-.5,1.2-.9,1.6-1.4,8.6-8.5,17.1-17.1,25.7-25.6h0Z"/>
      <path class="cls-5" d="M128.2,170.1c1.5,1.4,1.4,2.4,0,3.8-9.5,9.4-18.9,18.9-28.4,28.4-.4.4-.8.6-1.4,1.1-1.8-1.7-3.6-3.4-5.4-5.2-8.1-8.1-16.2-16.3-24.4-24.4-1.1-1.1-1.7-2-.2-3.4,9.6-9.5,19.2-19.1,28.8-28.7.3-.3.7-.5,1.9-1.5,3.8,4.1,7.5,8.2,11.4,12.1,5.9,6,11.8,11.9,17.8,17.7h0ZM125.6,174c1.5-1.5,1.6-2.4,0-4-8.6-8.5-17.1-17.1-25.7-25.6-.4-.4-.9-.7-1.5-1.3-.6.5-1.3.9-1.8,1.5-8.5,8.5-17,17-25.5,25.4-1.4,1.4-1.5,2.3,0,3.8,8.6,8.4,17,16.9,25.5,25.5,1.5,1.5,2.3,1.4,3.8,0,8.4-8.5,16.8-16.9,25.3-25.3h0Z"/>
      <path class="cls-8" d="M126.2,105.1c.4.4.6.8,1,1.3-.4.5-.7,1.1-1.1,1.5-8.8,8.8-17.6,17.6-26.4,26.4-.9.9-1.6,1-2.6,0-8.8-8.9-17.7-17.7-26.6-26.6-1.4-1.4-.4-2.3.5-3.2,6.8-6.8,13.6-13.6,20.3-20.3,1.9-1.9,3.8-3.7,5.7-5.7.9-1,1.6-.9,2.6,0,8.8,8.9,17.7,17.7,26.5,26.6h0ZM108.4,113.8c2.5-1.2,3.7-3.5,3.5-6.6-.2-3.3-2.3-5-5.2-6-.7-.2-1.4-1.3-1.5-2.1-.5-3.7-2.8-6.1-6.4-6.3-3.1-.2-6.5,2.1-6.8,5.5-.2,2.3-1.3,2.9-3.1,3.6-2.7,1-4.1,3.6-4,6.3.1,2.6,1.9,4.9,4.4,5.8,3.4,1.3,6-.2,8.4-2.5.2.1.4.3.5.4-1.1,2.5-2.2,5-3.4,7.8,2.2,0,4.2,0,6.1,0,.4,0,.8,0,1.4-.1-1.2-2.6-2.3-5.1-3.4-7.5.9-.2,1.1-.2,1.3,0,2.4,2.4,5.1,3.1,8.3,1.6h0Z"/>
      <path class="cls-8" d="M126.1-26.4c1.1,1.1,1.2,1.8,0,3-8.8,8.8-17.6,17.6-26.4,26.4-.4.4-.8.6-1.3,1.1-.6-.5-1.1-.8-1.6-1.3-8.6-8.5-17.1-17.1-25.7-25.6-1.4-1.4-1.6-2.3-.1-3.8,8.7-8.5,17.3-17.2,25.8-25.8,1.3-1.3,2.1-1.1,3.2,0,8.6,8.7,17.3,17.4,26,26ZM108.2-17.4c2.6-1.1,4-3.7,3.7-6.8-.3-3.2-2.2-5-5.4-5.8-.6-.1-1.2-1.1-1.3-1.8-.6-4.2-2.8-6.5-6.6-6.6-3.9,0-6.2,2.2-7,6.5-.1.7-1,1.7-1.7,1.9-2.9,1-4.8,3.1-5.1,5.9-.2,2.6,1.2,5.1,3.6,6.4,2.5,1.3,5.6.9,7.8-.9.5-.4,1-.8,1.4-1.2.2.1.4.3.6.4,0,0,0,0,0,0-1.1,2.5-2.3,5.1-3.4,7.6h7.5c-1.2-2.6-2.3-5-3.4-7.3.2-.1.4-.3.7-.4.1,0,.3.1.4.2,2.4,2.4,5.2,3,8.3,1.7h0Z"/>
      <path class="cls-8" d="M125.8,39c1.4,1.4,1.2,2.3,0,3.6-8.6,8.5-17.1,17.1-25.7,25.6-.5.5-1,.9-1.6,1.4-.6-.4-1.1-.7-1.5-1.1-8.7-8.7-17.5-17.4-26.2-26.1-1.3-1.2-1-2,.1-3.2,8.7-8.6,17.4-17.3,26-26,1.2-1.2,2-1.1,3.2,0,8.6,8.6,17.2,17.3,25.8,25.8h0ZM109.7,49.8c2.5-2,3.1-6.6.9-9.2-3.8-4.5-8-8.8-12.3-13.6-4.3,4.8-8.7,9.3-12.5,14.1-2.3,2.8-1.1,6.8,1.8,8.9,2.4,1.8,5.6,1.2,8.2-1.8.5-.6.6-1.5.9-2.2.4.4.9.7,1.3,1.1-.5,1.1-.9,2.3-1.5,3.4-.6,1.1-1.5,2-2.5,3.3h8.7c-1.3-2.2-2.4-4.3-3.6-6.3.3-.2.6-.4.9-.6.4.5.8,1.1,1.3,1.6,2.6,2.7,6.1,3.2,8.6,1.2Z"/>
      <path class="cls-8" d="M125.6,170c1.6,1.5,1.5,2.5,0,4-8.5,8.4-16.9,16.8-25.3,25.3-1.4,1.5-2.3,1.5-3.8,0-8.4-8.6-16.9-17-25.5-25.5-1.5-1.5-1.4-2.4,0-3.8,8.5-8.4,17-17,25.5-25.4.5-.5,1.2-1,1.8-1.5.6.5,1.1.8,1.5,1.3,8.6,8.5,17.1,17.1,25.7,25.6h0ZM109.8,181c2.8-2.5,2.9-7,.2-10-3.3-3.6-6.7-7.2-10-10.9-1.2-1.4-2.1-1.3-3.3,0-3,3.4-6.1,6.6-9.1,9.9-.9,1-1.7,2.2-2.3,3.4-1.3,2.8-.2,6.4,2.3,8,2.5,1.6,5.4,1.1,7.7-1.3.7-.7,1.1-1.7,1.6-2.5.4.4.8.7,1.2,1.1-1.3,2.1-2.6,4.2-4,6.4h8.4c-1.3-2.3-2.6-4.3-3.8-6.4.3-.2.7-.4,1-.6.3.4.6.8.9,1.2,2.9,3.2,6.5,3.8,9.1,1.6h0Z"/>
      <path class="cls-5" d="M129.4-24.9c-10.3,10.3-20.7,20.6-31.7,31.6-2.3-2.6-4.8-5.5-7.4-8.2-7.2-7.3-14.4-14.4-21.6-21.6-1-1-1.8-1.8-.4-3.2,9.7-9.6,19.3-19.3,29-28.9.4-.4.8-.6.9-.7,10.5,10.4,20.9,20.8,31.2,31h0ZM126.1-23.5c1.2-1.2,1-1.9,0-3-8.7-8.7-17.4-17.3-26-26-1.1-1.1-1.9-1.3-3.2,0-8.6,8.7-17.2,17.3-25.8,25.8-1.5,1.5-1.3,2.4.1,3.8,8.6,8.5,17.1,17.1,25.7,25.6.5.5,1,.8,1.6,1.3.5-.4,1-.7,1.3-1.1,8.8-8.8,17.6-17.6,26.4-26.4Z"/>
      <path class="cls-1" d="M111.9,107.2c.2,3.1-1,5.4-3.5,6.6-3.1,1.5-5.9.8-8.3-1.6-.2-.2-.4-.2-1.3,0l-.7-.2c-.2-.1-.4-.3-.5-.4-2.4,2.3-5,3.7-8.4,2.5-2.5-1-4.3-3.2-4.4-5.8-.1-2.8,1.3-5.4,4-6.3,1.8-.7,2.9-1.3,3.1-3.6.3-3.3,3.7-5.7,6.8-5.5,3.6.3,5.9,2.7,6.4,6.3.1.8.8,1.9,1.5,2.1,2.9,1,5,2.7,5.2,6h0Z"/>
      <path class="cls-1" d="M110.6,40.7c2.2,2.6,1.5,7.2-.9,9.2-2.5,2-5.9,1.5-8.6-1.2-.5-.5-.9-1-1.3-1.6-.3.2-.6.4-.9.6l-1-.4c-.4-.4-.9-.7-1.3-1.1-.3.7-.4,1.6-.9,2.2-2.5,2.9-5.7,3.6-8.2,1.8-2.9-2.1-4-6.1-1.8-8.9,3.8-4.8,8.2-9.3,12.5-14.1,4.3,4.7,8.4,9,12.3,13.6h0Z"/>
      <path class="cls-5" d="M129.3,106.3c-10.3,10.3-20.6,20.7-30.9,31-10.2-10.3-20.6-20.7-30.8-31.1,10.2-10.1,20.6-20.4,30.9-30.6,10.2,10.2,20.6,20.5,30.8,30.7h0ZM127.2,106.4c-.4-.5-.6-.9-1-1.3-8.8-8.9-17.7-17.7-26.5-26.6-.9-.9-1.6-1-2.6,0-1.8,1.9-3.8,3.8-5.7,5.7-6.8,6.8-13.6,13.5-20.3,20.3-.9.9-2,1.7-.5,3.2,8.9,8.8,17.7,17.7,26.6,26.6,1,1,1.7.9,2.6,0,8.8-8.8,17.6-17.6,26.4-26.4.4-.4.7-.9,1.1-1.5h0Z"/>
      <path class="cls-1" d="M102.5,54h-8.7c1-1.3,1.9-2.3,2.5-3.3.6-1,1-2.2,1.5-3.4l1,.4c1.2,2.1,2.4,4.1,3.6,6.3h0Z"/>
      <path class="cls-1" d="M102.2,119.6c-.5,0-.9.1-1.4.1-2,0-3.9,0-6.1,0,1.2-2.8,2.3-5.3,3.4-7.8l.7.2c1.1,2.4,2.2,4.8,3.4,7.5h0Z"/>
      <path class="cls-5" d="M95.8,6.6c.4.4.7.9,1.1,1.5-.5.6-.8,1.1-1.2,1.5-9.6,9.6-19.2,19.2-28.7,28.8-1,1-1.7,1.1-2.8,0-9.6-9.7-19.2-19.3-28.9-28.9-1.4-1.4-.6-2.2.4-3.1,9.4-9.4,18.8-18.8,28.2-28.2,1.5-1.5,2.3-1.1,3.6.2,8.1,8.2,16.2,16.3,24.3,24.4,1.3,1.3,2.7,2.7,4,4h0ZM93.3,9.4c1.2-1.2,1.1-1.8,0-2.9-8.8-8.7-17.5-17.5-26.2-26.2-1.1-1.1-1.8-1.1-3,0C55.5-11,46.8-2.3,38.1,6.3c-1.3,1.3-1.2,2.1,0,3.3,8.7,8.6,17.4,17.3,26,26,.4.4.9.7,1.5,1.2.6-.5,1.1-.9,1.6-1.4,8.7-8.7,17.3-17.4,26-26h0Z"/>
      <path class="cls-5" d="M96.9,73.5c-.4.6-.7,1.1-1.1,1.5-9.6,9.6-19.2,19.2-28.7,28.8-1.2,1.2-1.9,1-3,0-9.5-9.6-19-19.1-28.6-28.6-1.2-1.2-1.1-2,0-3.2,9.5-9.4,19-18.9,28.4-28.4,1.2-1.2,2-1.4,3.4,0,9.5,9.6,19,19.1,28.5,28.6.4.4.7.9,1.1,1.5h0ZM93.2,75.1c1.2-1.2,1.1-1.9,0-3.1-8.7-8.6-17.4-17.3-26-26-1.2-1.3-2-1.1-3.1,0-8.6,8.7-17.3,17.4-26,26-1.2,1.2-1.2,2,0,3.1,8.7,8.6,17.4,17.3,26.1,26,.4.4.9.8,1.5,1.3.6-.5,1.1-.8,1.6-1.3,8.7-8.7,17.3-17.4,26-26h0Z"/>
      <path class="cls-5" d="M96.7,139.5c-.4.5-1,1.2-1.6,1.8-9.2,9.2-18.5,18.4-27.7,27.7-1.1,1.1-1.8,1.9-3.3.4-9.5-9.7-19.1-19.2-28.7-28.8-.4-.4-.6-.8-1-1.2,10.5-10.6,20.9-20.9,31.1-31.2,10.3,10.3,20.6,20.6,31.2,31.2h0ZM93.1,140.9c1.3-1.3,1.4-2,0-3.4-5.3-5.2-10.5-10.5-15.8-15.7-3.8-3.8-7.6-7.7-11.7-11.9-9.6,9.7-18.8,18.9-28,28.1-1.2,1.3-.3,1.9.5,2.8,8.6,8.6,17.2,17.2,25.8,25.9,1.2,1.3,2,1.4,3.3,0,8.6-8.7,17.2-17.3,25.8-25.8h0Z"/>
      <path class="cls-1" d="M93.3,6.5c1.1,1.1,1.2,1.8,0,2.9-8.7,8.6-17.4,17.3-26,26-.5.5-1,.9-1.6,1.4-.6-.4-1-.8-1.5-1.2-8.7-8.7-17.3-17.4-26-26-1.3-1.3-1.3-2.1,0-3.3,8.7-8.6,17.4-17.3,26-26,1.1-1.1,1.8-1.1,3,0,8.7,8.8,17.4,17.5,26.2,26.2h0ZM65.6,21c3.1-5.9,7.2-10,13.2-13.1-6.1-3-10-7.3-13.2-12.9-3.1,5.9-7.2,9.9-12.9,12.9,5.7,3.2,10,7.2,13,13.2h0Z"/>
      <path class="cls-1" d="M93.2,72c1.2,1.2,1.3,1.9,0,3.1-8.7,8.6-17.4,17.3-26,26-.5.5-1,.8-1.6,1.3-.6-.5-1.1-.8-1.5-1.3-8.7-8.7-17.3-17.4-26.1-26-1.2-1.2-1.3-1.9,0-3.1,8.7-8.6,17.4-17.3,26-26,1.2-1.2,1.9-1.3,3.1,0,8.6,8.7,17.3,17.4,26,26h0ZM75.5,79c3.5-4.2,4.8-9.2,2.6-14.5-.9-2.3-2.6-4.2-5.3-4.4-2.6-.3-4.4,1.2-5.7,3.3-.4.7-.9,1.4-1.6,2.4-.7-1.1-1.1-1.8-1.5-2.5-1.3-2-2.9-3.5-5.4-3.3-2.7.2-4.8,1.8-5.3,4.3-.7,2.8-1.2,6.1-.5,8.8,1.5,6.4,6.4,10.3,11.8,13.3.7.4,2.1.2,2.8-.4,2.8-2.2,5.9-4.3,8.2-7.1h0Z"/>
      <path class="cls-1" d="M93.1,137.6c1.3,1.3,1.2,2.1,0,3.4-8.7,8.6-17.3,17.2-25.8,25.8-1.3,1.3-2.1,1.2-3.3,0-8.6-8.7-17.2-17.3-25.8-25.9-.8-.8-1.7-1.5-.5-2.8,9.2-9.2,18.4-18.5,28-28.1,4.1,4.2,7.9,8.1,11.7,11.9,5.2,5.3,10.5,10.5,15.8,15.7ZM65.8,151.9c2.8-5.6,7.1-9.6,12.8-12.7-5.9-3-10-7.2-13.1-13-3.1,6-7.3,10-12.5,12.9,2.5,2,5,3.7,7,5.7,2,2,3.7,4.5,5.8,7.2h0Z"/>
      <path class="cls-5" d="M78.1,64.5c2.1,5.3.9,10.3-2.6,14.5-2.3,2.7-5.3,4.8-8.2,7.1-.7.5-2.1.7-2.8.4-5.5-3.1-10.3-7-11.8-13.3-.7-2.8-.2-6,.5-8.8.6-2.4,2.6-4.1,5.3-4.3,2.5-.2,4.2,1.4,5.4,3.3.5.7.9,1.4,1.5,2.5.7-1.1,1.2-1.7,1.6-2.4,1.3-2.1,3.1-3.6,5.7-3.3,2.7.3,4.3,2.1,5.3,4.4h0Z"/>
      <path class="cls-5" d="M78.7,139.2c-5.8,3.1-10,7.1-12.8,12.7-2.1-2.7-3.8-5.1-5.8-7.2-2-2-4.5-3.7-7-5.7,5.2-2.9,9.5-6.9,12.5-12.9,3.2,5.8,7.2,10,13.1,13h0Z"/>
      <path class="cls-5" d="M78.7,7.9c-6,3.2-10.1,7.3-13.2,13.1-3-6-7.3-9.9-13-13.2,5.7-3,9.9-7,12.9-12.9,3.1,5.7,7.1,9.9,13.2,12.9h0Z"/>
      <path class="cls-5" d="M62.3,170c1.1,1.1,2.2,1.9.5,3.5-9.7,9.6-19.3,19.3-29,28.9-.3.3-.7.5-1.2.9-3.5-3.4-6.9-6.8-10.3-10.2-6.4-6.3-12.6-12.8-19.1-19-1.8-1.7-1.6-2.7,0-4.4,9.2-9.1,18.4-18.2,27.5-27.5,1.5-1.5,2.4-1.6,3.9,0,9.1,9.3,18.4,18.5,27.6,27.7h0ZM60.3,173.8c1.4-1.4,1.3-2.2,0-3.6-8.6-8.5-17.1-17.1-25.7-25.6-.5-.5-1-.9-1.7-1.4-.7.5-1.3,1-1.8,1.5-8.4,8.4-16.8,16.9-25.3,25.2-1.6,1.6-1.6,2.6,0,4.2,8.4,8.2,16.7,16.6,24.9,24.9,1.6,1.7,2.6,1.9,4.4,0,8.3-8.5,16.8-16.9,25.3-25.3h0Z"/>
      <path class="cls-5" d="M62.7,104.6c1.2,1.2,1.5,2,.1,3.4-9.6,9.5-19.1,19-28.6,28.5-.4.4-.9.7-1.3,1-10.4-10.4-20.8-20.8-31.1-31,10.4-10.3,20.8-20.6,31.7-31.5,3.6,3.8,7.4,7.8,11.4,11.8,5.9,6,11.8,11.9,17.8,17.7h0ZM59.9,108.4c1.7-1.6,1.6-2.6,0-4.2-8.6-8.4-17-16.9-25.5-25.5-1.3-1.4-2.1-1.2-3.3,0-5.2,5.3-10.5,10.5-15.8,15.7-3.9,3.8-7.8,7.5-11.6,11.2.5.9.6,1.2.8,1.4,9,9,17.9,18,26.9,27,1.2,1.2,2,.6,3-.3,8.5-8.5,16.9-17,25.5-25.4h0Z"/>
      <path class="cls-5" d="M62.7,39c1.4,1.4,1.2,2.3-.1,3.6-9.4,9.3-18.7,18.6-28,28-1.4,1.4-2.2,1.3-3.5,0-9.3-9.4-18.7-18.7-28.1-28-1.5-1.5-1.3-2.4,0-3.8,9.4-9.3,18.7-18.7,28.1-28,.5-.5,1-.8,1.6-1.3.6.4,1.1.8,1.5,1.2,9.5,9.5,18.9,18.9,28.4,28.3h0ZM60.4,42.3c.4-.4.7-.9,1.2-1.5-.5-.6-1-1.2-1.5-1.8-8.5-8.5-17-16.9-25.4-25.5-1.6-1.6-2.4-1.5-3.9,0-8.4,8.5-16.8,16.9-25.3,25.2-1.6,1.6-1.3,2.5,0,4,8.5,8.4,16.9,16.8,25.3,25.3,1.4,1.5,2.3,1.5,3.7,0,8.5-8.7,17.2-17.2,25.8-25.8h0Z"/>
      <path class="cls-5" d="M62.4-26.9c1.6,1.6,1.6,2.5,0,4.1-9.1,9-18.1,18.1-27.1,27.1-.7.7-1.5,1.4-2.6,2.4C26.8.9,21.4-4.6,15.9-10.1c-4.3-4.4-8.7-8.7-13-13-1.2-1.2-1.5-2-.1-3.4,9.7-9.6,19.4-19.3,29-28.9.2-.2.5-.4,1.1-.9,1.8,1.7,3.6,3.4,5.3,5.2,8.1,8.1,16.1,16.2,24.2,24.2h0ZM61.6-24.9c-.5-.6-.8-1.2-1.3-1.6-8.6-8.6-17.2-17.2-25.8-25.9-1.2-1.2-2.1-1.4-3.4,0-8.6,8.7-17.2,17.3-25.8,25.8-1.3,1.3-1.3,2.1,0,3.4C13.9-14.6,22.6-5.9,31.2,2.8c1.1,1.1,1.8,1.3,2.9,0,8.7-8.8,17.5-17.5,26.2-26.2.4-.4.7-.9,1.2-1.5h0Z"/>
      <path class="cls-8" d="M60.3-26.5c.5.5.8,1,1.3,1.6-.5.6-.8,1.1-1.2,1.5C51.6-14.6,42.9-5.9,34.2,2.9c-1.2,1.2-1.9,1-2.9,0C22.6-5.9,13.9-14.6,5.2-23.2c-1.3-1.3-1.3-2.1,0-3.4,8.6-8.6,17.3-17.2,25.8-25.8,1.3-1.3,2.2-1.1,3.4,0,8.6,8.6,17.2,17.2,25.8,25.9h0ZM44.1-16c2.7-2.3,3-6.3.7-9.3-1.1-1.4-2.2-2.6-3.4-3.9-2.9-3.1-5.7-6.1-8.7-9.2-3.5,3.8-6.7,7.2-9.9,10.7-1.1,1.2-2.2,2.5-2.9,3.9-1.5,2.9-.4,6.6,2.1,8.3,2.5,1.7,5.3,1.2,7.9-1.4.6-.6,1.2-1.1,1.8-1.7.2.2.5.3.7.5-1.3,2.1-2.5,4.3-3.8,6.4h8.8c-.9-1.2-1.8-2.2-2.5-3.3-.7-1.1-1.1-2.3-1.6-3.4.4-.3.8-.6,1.1-.8.4.7.6,1.5,1.1,2,2.8,3,6,3.4,8.7,1.2h0Z"/>
      <path class="cls-8" d="M61.6,40.8c-.5.6-.8,1.1-1.2,1.5-8.6,8.6-17.2,17.2-25.8,25.8-1.5,1.5-2.3,1.4-3.7,0-8.4-8.5-16.8-16.9-25.3-25.3-1.4-1.4-1.7-2.4,0-4,8.5-8.3,16.9-16.8,25.3-25.2,1.5-1.5,2.3-1.6,3.9,0,8.4,8.6,16.9,17,25.4,25.5.5.5,1,1.1,1.5,1.8h0ZM43.3,47.7c2.4-1.5,3.5-3.9,3-6.7-.7-3.5-3.1-5.2-6.6-5.7-.4-5.3-2.5-7.9-6.3-8.1-4.2-.2-7.1,1.7-7.7,8.1-3.2.5-5.7,2-6.4,5.4-.5,2.9.3,5.4,2.9,6.9,3.5,2,6.7,1,9.5-1.8.2.2.4.3.6.5-1.1,2.5-2.2,5-3.3,7.5h7.4c-1.2-2.7-2.3-5.1-3.4-7.6.2-.2.3-.4.5-.7,2.8,3.2,6.1,4.2,9.7,2h0Z"/>
      <path class="cls-8" d="M60.2,170.2c1.4,1.3,1.4,2.2,0,3.6-8.5,8.4-16.9,16.8-25.3,25.3-1.7,1.8-2.7,1.6-4.4,0-8.2-8.4-16.5-16.7-24.9-24.9-1.6-1.6-1.6-2.6,0-4.2,8.5-8.4,16.9-16.8,25.3-25.2.5-.5,1.1-1,1.8-1.5.7.6,1.2.9,1.7,1.4,8.6,8.6,17.1,17.1,25.7,25.6h0ZM43.1,179.2c2.5-1.4,3.6-3.7,3.3-6.5-.3-2.9-2-4.9-4.9-5.6-1.3-.3-1.7-.9-1.9-2.3-.4-4-3.1-6.4-6.8-6.4-3.6,0-6.3,2.5-6.6,6.6-.1,1.8-1.2,1.8-2.4,2.2-3.1,1-4.6,3.3-4.5,6.7.1,2.9,2.1,5.3,5.1,6,3,.7,5.3-.6,7.3-2.7.2.2.4.3.6.5-1.1,2.4-2.1,4.9-3.3,7.5h7.3c-1.1-2.6-2.2-4.9-3.2-7.3.2-.1.5-.2.7-.4.4.3.7.6,1.1,1,2.3,1.9,5.4,2.2,8,.8h0Z"/>
      <path class="cls-8" d="M59.9,104.3c1.6,1.6,1.7,2.5,0,4.2-8.6,8.4-17,16.9-25.5,25.4-1,1-1.8,1.6-3,.3-9-9-17.9-18-26.9-27-.2-.2-.3-.6-.8-1.4,3.8-3.7,7.8-7.4,11.6-11.2,5.3-5.2,10.6-10.4,15.8-15.7,1.2-1.3,2-1.4,3.3,0,8.4,8.5,16.9,17,25.5,25.5h0ZM42.9,116.1c2.4-.9,3.5-3.1,3.4-5.3-.1-1.8-.8-4-2-5.4-2.9-3.6-6.2-6.9-9.4-10.4-.6-.7-1.3-1.3-2.2-2.1-1.8,1.9-3.5,3.6-5.1,5.4-2.3,2.5-4.6,4.9-6.8,7.5-2.3,2.8-2,7.2.5,9.4,2.6,2.3,6.1,1.8,8.9-1.2.4-.5.7-1.2,1-1.8.4.3.7.6,1.1.8-1.2,2.1-2.4,4.2-3.6,6.4h8.2c-1.4-2.3-2.7-4.3-3.9-6.4.3-.2.5-.4.8-.6.8.8,1.5,1.6,2.3,2.4,2,1.8,4.3,2.1,6.8,1.2h0Z"/>
      <path class="cls-1" d="M46.3,41c.5,2.8-.6,5.2-3,6.7-3.6,2.2-6.9,1.2-9.7-2-.2.2-.3.4-.5.7h-.7c-.2-.1-.4-.3-.5-.4-2.8,2.8-6,3.8-9.5,1.8-2.6-1.5-3.5-4-2.9-6.9.7-3.4,3.2-4.9,6.4-5.4.6-6.5,3.5-8.3,7.7-8.1,3.8.2,5.9,2.8,6.3,8.1,3.5.5,5.9,2.2,6.6,5.7Z"/>
      <path class="cls-1" d="M46.2,110.8c.1,2.3-1,4.4-3.4,5.3-2.4,1-4.8.6-6.8-1.2-.8-.7-1.5-1.6-2.3-2.4-.3.2-.5.4-.8.6h-.7c-.4-.3-.7-.6-1.1-.8-.3.6-.6,1.3-1,1.8-2.8,3.1-6.3,3.5-8.9,1.2-2.5-2.2-2.8-6.6-.5-9.4,2.2-2.6,4.5-5,6.8-7.5,1.6-1.8,3.3-3.5,5.1-5.4.8.8,1.5,1.4,2.2,2.1,3.2,3.4,6.5,6.7,9.4,10.4,1.1,1.4,1.9,3.5,2,5.4h0Z"/>
      <path class="cls-1" d="M37,119.5h-8.2c1.2-2.2,2.4-4.3,3.6-6.4h.7c1.3,2.1,2.5,4.1,3.9,6.4Z"/>
      <path class="cls-1" d="M36.5,53.9h-7.4c1.1-2.5,2.2-5,3.3-7.5h.7c1.1,2.4,2.2,4.8,3.4,7.5h0Z"/>
      <path class="cls-5" d="M30.2,6.5c.4.4.7.8,1,1.1C20.7,18.2,10.3,28.6.1,38.8-10.2,28.4-20.6,18-31.1,7.5c.3-.3.8-.9,1.3-1.4C-20.5-3.2-11.3-12.4-2.1-21.7c1.6-1.6,2.5-1.7,4.1,0C11.4-12.3,20.8-2.9,30.2,6.5ZM23.7,13.2c1.7-1.7,3.6-3.2,5.2-4.7C18.9-1.4,9.3-11,0-20.4-9.4-11-18.9-1.5-28.7,8.2c0,.1.2.4.4.6C-19.4,17.7-10.4,26.6-1.6,35.6c1.3,1.3,2,1,3.1-.1,7.3-7.4,14.7-14.8,22.2-22.2Z"/>
      <path class="cls-1" d="M27.4,137.5c1.1,1.1,1.6,1.8.2,3.2-8.9,8.8-17.7,17.7-26.6,26.5-.3.3-.7.5-.9.7-9.6-9.7-19.2-19.2-28.6-28.7,9.5-9.5,18.9-19.1,29.2-29.4.5.9.9,2,1.7,2.8,8.3,8.3,16.6,16.6,24.9,24.9ZM10,144.5c3.4-4,4.6-8.9,2.7-14.1-.9-2.4-2.5-4.4-5.3-4.7-2.8-.3-4.5,1.3-5.9,3.5-.4.6-.8,1.3-1.4,2.2-.7-1-1.1-1.6-1.4-2.1-1.5-2.1-3.2-4-6.1-3.6-2.6.4-5.1,3-5.7,6.1-.8,4.2-.4,8.5,2.5,11.8,2.6,3,5.7,5.4,8.7,8,1.3,1.2,2.7,1.2,4,0,2.8-2.3,5.8-4.4,8.1-7.2h0Z"/>
      <path class="cls-1" d="M27,71.6c.6.6,1.2,1.2,1.6,1.7-9.7,9.6-19.3,19.1-28.8,28.5-9.2-9.3-18.7-18.9-28.4-28.7.3-.3.9-1,1.5-1.7,8.3-8.3,16.7-16.6,24.9-25,1.7-1.8,2.6-1.6,4.3,0,8.2,8.4,16.6,16.7,24.9,25h0ZM0,86.7c3.1-5.9,7.2-10,13.1-13.1-6-3-10-7.4-13.2-13.1-2.9,6.1-7.3,9.9-12.8,13.2,5.8,3.1,9.9,7.2,12.9,13h0Z"/>
      <path class="cls-5" d="M31.5,74.5c-1.7,1.5-3.8,3.1-5.7,5-8,7.9-15.9,15.8-23.8,23.8-1.6,1.6-2.5,1.6-4.1,0-9.2-9.4-18.5-18.6-27.8-27.9-1.1-1.1-1.8-1.9-.3-3.3,9.7-9.6,19.3-19.3,29-28.9.3-.3.7-.5.9-.7,10.5,10.5,20.8,21,31.9,32.1ZM28.6,73.3c-.5-.5-1-1.1-1.6-1.7-8.3-8.3-16.7-16.6-24.9-25-1.6-1.7-2.5-1.9-4.3,0-8.2,8.4-16.6,16.7-24.9,25-.7.7-1.3,1.3-1.5,1.7,9.7,9.8,19.2,19.4,28.4,28.7,9.5-9.4,19.1-18.9,28.8-28.5h0Z"/>
      <path class="cls-1" d="M28.9,8.6c-1.6,1.4-3.5,3-5.2,4.7-7.4,7.4-14.8,14.8-22.2,22.2-1.1,1.2-1.9,1.4-3.1.1-8.9-9-17.8-17.9-26.7-26.8-.2-.2-.3-.4-.4-.6C-18.9-1.5-9.4-11,0-20.4,9.3-11,18.9-1.4,28.9,8.6ZM9.4,14.1c3.5-4.3,5.3-9.1,3.4-14.7-.8-2.4-2.2-4.3-4.9-4.9-2.9-.6-4.8,1-6.3,3.1C1.1-1.6.6-.9,0,0c-.9-1.3-1.6-2.5-2.5-3.5-2.6-2.9-6.6-2.8-8.9.3-.9,1.3-1.6,2.9-1.9,4.5-1.2,7.4,2.5,12.7,8,16.8,5.7,4.3,4.6,4.1,10.1.2,1.7-1.2,3.2-2.6,4.5-4.2h0Z"/>
      <path class="cls-5" d="M12.7-.6c2,5.6,0,10.4-3.4,14.7-1.3,1.6-2.9,3-4.5,4.2-5.5,3.9-4.4,4.1-10.1-.2C-10.7,14-14.5,8.7-13.2,1.3c.3-1.6.9-3.2,1.9-4.5,2.2-3.2,6.3-3.3,8.9-.3C-1.6-2.5-.9-1.3,0,0c.6-.9,1.1-1.6,1.6-2.3,1.5-2.2,3.4-3.7,6.3-3.1,2.6.6,4.1,2.5,4.9,4.9h0Z"/>
      <path class="cls-5" d="M12.7,130.4c2,5.2.7,10-2.7,14.1-2.3,2.7-5.3,4.8-8.1,7.2-1.3,1.1-2.7,1.1-4,0-2.9-2.6-6.1-5.1-8.7-8-2.9-3.3-3.2-7.5-2.5-11.8.6-3.1,3-5.7,5.7-6.1,2.9-.4,4.6,1.4,6.1,3.6.4.6.8,1.1,1.4,2.1.6-1,1-1.6,1.4-2.2,1.4-2.2,3.1-3.8,5.9-3.5,2.8.3,4.4,2.3,5.3,4.7h0Z"/>
      <path class="cls-5" d="M13.1,73.6c-5.9,3-10.1,7.2-13.1,13.1-3.1-5.8-7.1-9.9-12.9-13,5.5-3.2,9.9-7.1,12.8-13.2,3.2,5.7,7.2,10.1,13.2,13.1h0Z"/>
      <path class="cls-5" d="M0,108.5c10,10.1,20.4,20.5,30.7,30.8-10.1,10-20.5,20.4-31,30.8-10.2-10.2-20.5-20.5-30.7-30.7C-20.7,129.1-10.2,118.7,0,108.5ZM27.7,140.6c1.3-1.3.9-2.1-.2-3.2-8.3-8.3-16.7-16.6-24.9-24.9-.8-.8-1.2-1.9-1.7-2.8-10.3,10.3-19.7,19.9-29.2,29.4,9.4,9.4,18.9,19,28.6,28.7.2-.2.6-.4.9-.7,8.9-8.8,17.7-17.7,26.6-26.5Z"/>
    </g>
  </g>
  <g>
    <rect class="cls-7" x="6.5" y="60.8" width="121.6" height="4.8" transform="translate(-10.2 13.1) rotate(-10.3)"/>
    <rect class="cls-4" x="62.3" y="8.9" width="10.1" height="121.6" transform="translate(-13.4 123.4) rotate(-79.6)"/>
    <circle class="cls-6" cx="51.2" cy="66.2" r="11.9"/>
    <path class="cls-9" d="M47.8,62c1.5,0,2.8.9,3.3,2.3,0,0,0,0,0,.1,0,0,.1,0,.1,0,.2-.5.4-.9.8-1.3,1.4-1.4,3.4-1.3,4.6-.5.9.6,1.4,1.5,1.4,2.6,0,1-.3,1.9-.8,2.7-.3.4-.6.7-1,1-1.3,1.1-2.7,2.3-4,3.4-.3.3-.6.5-1,.8,0,0-.1,0-.2,0-1-.8-2-1.7-2.9-2.5-.8-.7-1.7-1.4-2.5-2.1-.3-.2-.5-.5-.7-.8-.5-.7-.7-1.4-.7-2.2,0-1.8,1.2-3.3,3-3.5.2,0,.3,0,.5,0h0Z"/>
  </g>
</svg>