<?xml version="1.0" encoding="UTF-8"?>
<svg id="Layer_1" data-name="Layer 1" xmlns="http://www.w3.org/2000/svg" xmlns:xlink="http://www.w3.org/1999/xlink" version="1.1" viewBox="0 0 207.3 186.5">
  <defs>
    <style>
      .cls-1 {
        fill: #ffe075;
      }

      .cls-1, .cls-2, .cls-3, .cls-4, .cls-5, .cls-6, .cls-7, .cls-8, .cls-9, .cls-10, .cls-11, .cls-12 {
        stroke-width: 0px;
      }

      .cls-2 {
        fill: #c3b95b;
      }

      .cls-3 {
        fill: #7a5726;
      }

      .cls-13 {
        clip-path: url(#clippath);
      }

      .cls-4 {
        fill: none;
      }

      .cls-5 {
        fill: #3eb9bc;
      }

      .cls-6 {
        fill: #97d5d6;
      }

      .cls-7 {
        fill: #baab53;
      }

      .cls-14 {
        clip-path: url(#clippath-1);
      }

      .cls-15 {
        clip-path: url(#clippath-3);
      }

      .cls-16 {
        clip-path: url(#clippath-2);
      }

      .cls-8 {
        fill: #ac9358;
      }

      .cls-9 {
        fill: #c4d46f;
      }

      .cls-10 {
        fill: #a58c4d;
      }

      .cls-11 {
        fill: #70c7c9;
      }

      .cls-12 {
        fill: #e4d96e;
      }
    </style>
    <clipPath id="clippath">
      <rect class="cls-4" x="1416.7" y="-1294.4" width="976.4" height="822"/>
    </clipPath>
    <clipPath id="clippath-1">
      <polygon class="cls-4" points="2661.2 -1074.4 1021.4 -574.6 667.5 -1048.6 2307.4 -1548.4 2661.2 -1074.4"/>
    </clipPath>
    <clipPath id="clippath-2">
      <polygon class="cls-4" points="2997.2 -714.3 1357.4 -214.5 1003.5 -688.5 2643.3 -1188.3 2997.2 -714.3"/>
    </clipPath>
    <clipPath id="clippath-3">
      <rect class="cls-4" x="12.6" y="12.3" width="178.5" height="164.5"/>
    </clipPath>
  </defs>
  <g class="cls-13">
    <g>
      <g class="cls-14">
        <g>
          <polygon class="cls-11" points="-5318.5 1286.8 -5516.7 1335.8 4807.6 -2328.6 5005.8 -2377.6 -5318.5 1286.8"/>
          <polygon class="cls-6" points="-4622.2 1234 -5414.9 1429.8 6014.7 -2626.9 6807.4 -2822.8 -4622.2 1234"/>
          <polygon class="cls-5" points="-2773.4 684.6 -2971.6 733.6 7272.4 -2902.4 7470.6 -2951.4 -2773.4 684.6"/>
        </g>
      </g>
      <g class="cls-16">
        <g>
          <polygon class="cls-11" points="-4982.5 1646.9 -5180.7 1695.9 5143.6 -1968.6 5341.8 -2017.5 -4982.5 1646.9"/>
          <polygon class="cls-6" points="-4286.2 1594 -5079 1789.9 6350.7 -2266.9 7143.4 -2462.7 -4286.2 1594"/>
          <polygon class="cls-5" points="-2437.4 1044.7 -2635.6 1093.6 7608.4 -2542.3 7806.6 -2591.3 -2437.4 1044.7"/>
        </g>
      </g>
    </g>
  </g>
  <g>
    <g class="cls-15">
      <g>
        <path class="cls-7" d="M256.8,193.1s-.2,0-.3.2c-15.6,15.6-31.2,31.2-46.9,46.6-2.3,2.3-1.2,3.6.5,5.4,14.9,14.9,29.8,29.8,44.7,44.7.8.8,1.8,1.5,2.7,2.2,16.7-16.8,33.1-33.2,48.9-49.1-16.5-16.6-33-33.2-49.7-50,0,0,0,0,0,0h0ZM448.9,169.6v4.1c-10.8-10.7-21.6-21.3-31.8-31.4-.6-.6-1.2-1.1-1.7-1.7-17,16.9-33.7,33.5-50,49.7,16.2,16.2,32.7,32.8,49.8,50,.7-.7,1.3-1.4,2-2.1l1.6,1.7h0c-1.6,1.6-1.5,2.8-.6,4l-1.5,1.4c-.3-.4-.7-.8-1-1.2-17.6,17.6-34.2,34.2-51.9,51.8,4.6,4.1,9.3,8.4,13.9,12.6h-4.1c-3.7-3.9-7.4-7.8-11.1-11.7-4.4,4.3-8.3,8-12.1,11.7h-3.3c4.2-4.6,8.5-9.2,12.6-13.7-16.7-16.7-33.3-33.3-49.3-49.3-16.5,16.5-33.2,33.1-50,49.7,3.9,4.2,8.1,8.8,12.2,13.3h-3.3c-3.8-3.9-7.6-7.8-11.7-12.1-4.1,4.4-7.8,8.3-11.4,12.1h-4.1c4.5-4.6,8.9-9.1,13-13.3-17-17.1-33.4-33.6-49.6-49.9-.8.8-1.6,1.6-2.4,2.4-15.7,15.7-31.6,31.5-48.5,48.4,4.5,4,9.2,8.2,13.9,12.4h-4.1c-3.6-3.8-7.3-7.7-10.8-11.4-.9.4-1.4.4-1.6.7-3.6,3.5-7.2,7.1-10.8,10.7h-3.3c4.2-4.6,8.4-9.2,12.2-13.4-1.5-1.5-2.9-2.9-4.4-4.4-15.2-15.3-30.3-30.3-45.5-45.6-.1,0-.7.3-1,.7-15.6,15.6-31.2,31.2-46.8,46.7-1.7,1.6-1.6,2.8,0,4.4,3.8,3.8,7.4,7.7,11,11.6h-3.3c-3.2-3.2-6.2-6.5-9.6-9.5-.8-.8-3.3-1.1-3.9-.5-3.4,3.1-6.5,6.6-9.6,10h-4.1c4.4-4.5,8.7-9.1,12.9-13.4-16.9-16.8-33.5-33.4-49.8-49.6-16.4,16.3-33,32.9-50.7,50.5,4.5,4,9.2,8.3,13.9,12.5h-4.1c-3.7-3.9-7.4-7.9-11.2-11.8-4.4,4.3-8.2,8.1-12,11.8h-3.3c4.2-4.6,8.5-9.2,12.5-13.6-16.8-16.7-33.4-33.3-49.8-49.6-16.3,16.3-32.9,32.9-49.7,49.6,4.1,4.4,8.3,9,12.6,13.6h-3.3c-3.9-3.9-7.8-7.7-12-11.9-3.9,4.1-7.5,8-11.2,11.9h-4.1c4.5-4.6,8.9-9.2,12.8-13.2-17-17.1-33.5-33.6-51.1-51.2-.5.7-1,1.4-1.6,2.2l-1.5-1.5h0c1.9-1.9,2-3.3,0-5.1-5.6-5.4-11.2-11-16.7-16.4v-3.3c6.3,5.9,12.5,11.9,18.5,17.5.7.7,1.4,1.4,2.1,2,16.9-16.8,33.5-33.3,49.8-49.5-16.4-16.4-33-33-50.6-50.7-6.4,6.8-13.1,13.9-19.7,21v-4.1c5.9-6.4,11.9-12.9,18.3-19.8-5.6-5.4-11.9-11.4-18.3-17.5v-4.1c6.9,6.8,13.8,13.7,20.8,20.6.9-.7,1.5-1,2-1.5,15.5-15.5,30.9-31,46.5-46.4,2.5-2.5.8-3.7-.8-5.3-14.2-14.2-28.4-28.4-42.6-42.6-1.5-1.5-3.1-2.9-4.9-4.6-1.6,1.5-2.9,2.8-4.2,4-5.6,5.4-11.2,10.8-16.9,16.2v-3.3c5.4-5.4,10.8-10.9,16.3-16.2,2.2-2.1,2.3-3.6,0-5.7-5.6-5.3-10.9-10.8-16.4-16.2v-3.3c7,6.7,14,13.3,20.5,19.5,1.3-1.3,2.7-2.7,4-4,15.5-15.5,30.8-30.6,45.8-45.6-16.4-16.3-32.9-32.8-49.8-49.7-6.7,6.6-13.6,13.4-20.5,20.3v-4.1c5.9-6.5,11.8-13,17-18.7-5.1-5.6-11.1-12.1-17-18.5v-4.1c6.6,7.2,13.3,14.3,19.6,21.2,17.7-17.8,34.3-34.4,50.5-50.6-16.3-16.3-32.8-32.9-49.6-49.8-1,.9-2.2,2-3.4,3.1-5.7,5.5-11.5,11-17.2,16.5v-3.3c5.5-5.4,10.9-10.9,16.4-16.2,2.1-2,2.3-3.6,0-5.7-5.6-5.3-11-10.7-16.4-16.1v-3.3c6.2,5.9,12.5,11.9,18.5,17.5.7.7,1.5,1.4,2.2,2.1,16.9-16.8,33.4-33.3,49.7-49.6-16.4-16.5-33-33.1-50.8-50.8-6.3,6.8-13,14-19.6,21.2v-4.1c5.9-6.4,11.9-12.9,18-19.5-2.3-2.4-5.2-5.5-8.1-8.6h4.1c5.6,8.3,6.7,8.4,13.2,1.4.4-.4.6-.9.8-1.4h4.1c-2.9,3.1-5.8,6.2-8.8,9.5.8,1,1.4,1.9,2.2,2.7,15.1,15.1,30.2,30.1,45.2,45.3,2.2,2.2,3.4,1.7,5.3-.2,8.3-8.4,16.7-16.8,25.1-25.1,7.4-7.3,14.9-14.6,22.5-22-3.3-3.8-6-7-8.8-10.1h3.3c4.8,5.3,9.7,5.4,14.6.3,0,0,.2-.2.2-.3h3.3c-2.7,3.2-5.5,6.3-7.8,9,16.7,16.8,33.2,33.3,49.5,49.6,16.2-16.3,32.7-32.8,49.4-49.6-2.6-2.8-5.5-5.9-8.4-9h4.1c1.8,2,3.6,4.1,5.6,5.9.6.5,2.5.6,3.1,0,2-1.8,3.6-4,5.4-6h4.1c-2.9,3.1-5.8,6.2-8.5,9.1,16.8,16.7,33.3,33.2,50,49.9,0,0,.6-.2,1-.5,15.7-15.7,31.3-31.4,47-47,1.5-1.5,1.3-2.7-.1-4.2-2.3-2.3-4.4-4.8-6.6-7.2h3.3c9.1,9.3,6,8.6,14.6.3,0,0,.2-.2.3-.3h3.3c-1.5,1.7-2.9,3.6-4.6,5.2-4.2,4.2-4.3,4.2-.2,8.3,12.6,12.6,25.1,25.1,37.7,37.7,2.8,2.8,5.7,5.5,8.2,8,15.4-15.4,30.5-30.5,45.8-45.7,1.5-1.4,2.9-2.9,4.4-4.4-2.7-2.9-5.6-5.9-8.5-9h4.1c5.6,8.3,6.8,8.4,13.2,1.4.4-.4.6-.9.8-1.4h4.1c-2.9,3.1-5.8,6.2-8.2,8.9,1.2,1.2,2.4,2.4,3.6,3.7,15.5,15.5,30.8,30.9,46,46.2,16.3-16.3,32.8-32.8,49.4-49.5-2.6-2.9-5.3-6.1-8.1-9.3h3.3c9,9.3,6.1,8.5,14.6.3,0,0,.2-.2.3-.3h3.3c-2.7,3.2-5.5,6.3-8.3,9.6.7.9,1.3,1.7,2,2.3,15.2,15.2,30.4,30.3,45.5,45.6,2.6,2.6,3.9,1,5.6-.7,14.8-14.8,29.6-29.6,44.3-44.4.9-.9,1.6-1.8,2.5-2.9-3.1-3.3-6-6.4-8.9-9.5h4.1c1.8,2,3.6,4.1,5.6,5.9.6.5,2.5.5,3,0,2-1.8,3.7-3.9,5.5-6h4.1c-2.9,3.1-5.8,6.2-9.8,10.4.4.3.7.6,1.1.9l-1.4,1.4-.2-.2c-17,16.9-33.7,33.4-50.1,49.7,16.2,16.2,32.7,32.8,49.4,49.6.7-.6,1.4-1.2,2.1-1.9.2-.2.5-.5.7-.7,6.3-6.2,12.5-12.5,18.7-18.7,4.1-4,8.3-7.9,12.5-11.8v3.3c-10,9.9-19.9,19.8-29.9,29.7-2.2,2.2-1.5,3.6.3,5.4,9.9,9.8,19.7,19.6,29.6,29.5v3.3c-1.1-.8-2.2-1.5-3.2-2.5-9-8.9-17.9-17.9-26.9-26.9-1.3-1.3-2.8-2.6-3.8-3.5-16.9,16.8-33.5,33.4-49.7,49.6,16.4,16.4,32.9,33.1,50.5,50.8,0,0,.1-.1.2-.2l1.3,1.2c-.1.1-.1.5-.1.8l-.9.9c1,.8,2,1.5,3,2.2l-1.5,1.5s0,0-.1-.1c-2.3-2.3-3.6-2.3-6,0-14.8,15-29.7,29.9-44.7,44.7-2.5,2.4-2,3.7.2,5.9h.1c14.7,14.7,29.4,29.4,44,44.1,1,1,2,1.8,3.3,3,11.5-11.5,22.9-22.9,34.3-34.2V.8c-9.8,9.8-19.6,19.7-29.6,29.4-2.2,2.2-2.2,3.5,0,5.7,9.9,9.7,19.7,19.6,29.6,29.4v4.1c-11.3-11.4-22.7-22.8-33.3-33.5-.6.6-1.3,1.2-1.9,1.9-16.4,16.3-32.4,32.2-48.1,47.7,16.2,16.2,32.8,32.7,49.7,49.5,11-10.9,22.3-22.2,33.6-33.4v4.1c-1,.9-2.2,1.7-3.1,2.6-8.4,8.3-16.7,16.7-25.1,25-4.2,4.1-4.2,4.2,0,8.4,9.4,9.2,18.8,18.5,28.1,27.7h0ZM410.1,35.5c1.9-1.9,1.7-3.3-.1-5.1-15-15-30-29.9-45-45-2.2-2.2-3.6-2.1-5.7.1-6.4,6.6-13,13.1-19.5,19.6-9.2,9.1-18.4,18.2-27.7,27.5.5.9.7,1.4.9,1.6,15.6,15.6,31.2,31.2,46.7,46.8,2.1,2.1,3.4,1.5,5.1-.2,15.1-15.1,30.1-30.2,45.2-45.3h0ZM362.2,186.9c16.4-16.4,33-32.9,49.4-49.2-16.4-16.4-32.9-32.9-48.9-48.9-16.5,16.4-33.2,33-49.2,48.9,16.1,16.3,32.6,32.9,48.7,49.2h0ZM411.1-176.8c-16-16-32.5-32.5-48.8-48.8-16.3,16.5-32.8,33.1-49.1,49.5,16.1,16.2,32.5,32.7,48.5,48.8,16.5-16.5,33-33.1,49.4-49.5h0ZM362.3-22.4c16.3-16.3,32.8-32.8,48.7-48.7-16.4-16.6-32.9-33.4-48.8-49.4-16.4,16.3-32.9,32.7-49.2,48.9,16.3,16.3,32.9,32.9,49.2,49.3ZM362.1,291.7c16.4-16.3,32.9-32.8,49.2-49-16.6-16.6-33-33.1-49.1-49.2-16.4,16.3-33,32.8-49.1,48.9,16.3,16.4,32.7,32.9,49,49.3h0ZM359.5-19.6c-.3-.4-.8-1.1-1.3-1.7-15.3-15.3-30.6-30.5-45.8-45.9-2.2-2.3-3.6-1.5-5.4.3-9.5,9.6-19,19.2-28.6,28.6-6.2,6.2-12.6,12.2-18.5,17.8,17.4,17.3,34,33.9,50.3,50.1,16.1-16.1,32.7-32.6,49.4-49.2h0ZM348.1,97.5c3.9-4,7.9-7.9,11.5-11.5-16.9-17-33.4-33.5-49.4-49.6-16.5,16.4-33.1,33-49.9,49.7.1.2.5.8,1,1.3,15.3,15.3,30.6,30.5,45.8,45.9,2.3,2.3,3.7,1.8,5.7-.3,11.7-11.9,23.5-23.6,35.3-35.4h0ZM358.8-123.7c-16.3-16.4-33-33-48.8-48.9-16.3,16.2-33,32.7-49.2,48.7,16.2,16.4,32.7,33,49,49.4,16.4-16.5,33-33.1,49-49.2ZM309.6,239.1c16.5-16.4,33.2-33,49.1-48.8-16.3-16.4-32.9-33.1-49.2-49.4-16.2,16.2-32.8,32.7-49.1,49.1,16.5,16.5,33.1,33.1,49.2,49.1h0ZM359.2-228.5c-16.4-16.5-33-33.1-49.2-49.3-16.5,16.4-33.1,33-49.4,49.3,16.3,16.4,32.9,33,49.4,49.5,16.3-16.4,32.8-32.9,49.2-49.5h0ZM308,33.6c-1.8-2-2.9-3.2-4-4.4-14.4-14.4-28.9-28.8-43.2-43.3-2.6-2.6-4-2.6-6.6,0-14.7,14.9-29.5,29.7-44.4,44.4-2.1,2-2.2,3.3-.1,5.3,15.1,14.9,30.1,29.9,45,45,2.4,2.4,3.8,2,6-.2,8.1-8.3,16.3-16.4,24.5-24.6,7.4-7.3,15-14.6,22.9-22.3h0ZM307.2-176.7c-.4-.5-1-1.2-1.6-1.9-15.2-15.2-30.4-30.4-45.5-45.7-2.3-2.3-3.5-1.4-5.3.4-14.9,15-29.8,29.9-44.8,44.7-2.2,2.2-2.1,3.6,0,5.7,15,14.8,29.9,29.8,44.8,44.7.8.8,1.8,1.5,2.5,2.1,16.7-16.8,33.2-33.3,49.9-50h0ZM306.6-71.7c-16.2-16.3-32.6-32.9-48.8-49.2-16.5,16.5-33.1,33.1-49.3,49.3,16.3,16.3,32.7,32.9,48.9,49.1,16.4-16.4,33-33,49.2-49.2h0ZM306.7,137.7c-16.2-16.3-32.7-32.8-48.9-49.1-16.4,16.4-33,33-49,48.9,16.3,16.4,32.8,33.1,48.9,49.4,16.3-16.3,32.8-32.9,49-49.2ZM254.8-19.7c-.1-.2-.4-.7-.7-1.1-15.6-15.6-31.2-31.2-46.7-46.8-2.3-2.3-3.5-.9-5,.6-8.2,8.2-16.3,16.4-24.5,24.5-7.6,7.6-15.2,15.1-22.7,22.4,17,17,33.7,33.5,49.9,49.8,16.5-16.4,33.1-32.9,49.8-49.5h0ZM253.4,192.3c2.5-2.4.9-3.7-.7-5.4-14.7-14.7-29.4-29.4-44.1-44.1-1-1-2.2-2-2.6-2.3l-49.8,49.8c16.1,16.2,32.6,32.8,49.1,49.5.3-.2.8-.5,1.2-.8,15.6-15.6,31.1-31.2,46.8-46.7ZM243.3,97.7c4-4,8-7.8,11.6-11.3-17.1-17.2-33.6-33.8-49.9-50.2-16.3,16.2-32.8,32.7-49.7,49.5.8.8,1.5,1.7,2.2,2.4,14.9,14.9,29.8,29.7,44.6,44.8,2.5,2.5,3.9,2.3,6.2,0,11.6-11.8,23.3-23.4,35-35.1h0ZM205-74.8c16.4-16.4,33-33,49.5-49.4-16.2-16.2-32.7-32.8-49-49.1-16.5,16.5-33,33.1-49.3,49.5,16.2,16.3,32.8,32.9,48.9,49ZM254.5-229c-16.3-16.3-32.8-32.8-49.1-49.1-16.5,16.5-33.1,33.1-49.3,49.3,16.5,16.6,33,33.1,48.9,49.1,16.4-16.3,33-32.9,49.5-49.3ZM200.5-173.5c2.5-2.5,1.6-4.1-.4-6.1-14.8-14.8-29.6-29.6-44.4-44.4-.8-.8-1.8-1.5-2.8-2.3-.7.5-1.2.8-1.6,1.2-15.5,15.5-30.9,31-46.5,46.4-2.4,2.4-1.1,3.7.6,5.3,12.6,12.5,25.2,25.1,37.7,37.7,3.1,3.1,5.8,6.5,8.7,9.8,1.7-1.2,2-1.4,2.3-1.7,15.4-15.4,30.8-30.8,46.3-46.1h0ZM202.6,33c-.8-1-1.3-1.9-2.1-2.7-15-15-30-30-45-45-2.2-2.3-3.6-1.9-5.7.2-14.7,14.9-29.5,29.7-44.4,44.4-2.5,2.4-2.4,3.9,0,6.3,15,14.8,29.8,29.7,44.7,44.7,1.8,1.8,3.1,2.2,5.1.2,15-15.2,30.2-30.2,45.2-45.3.7-.8,1.3-1.7,2.1-2.7h0ZM200.3,245.4c2.2-2.2,2.4-3.8,0-6.1-9.5-9.3-19-18.8-28.3-28.3-6.1-6.3-12-12.8-18.2-19.3-1.9,1.5-2.5,1.9-3,2.4-15.3,15.3-30.6,30.6-45.9,45.8-2.3,2.2-1.4,3.6.4,5.4,13,12.9,25.9,25.9,38.8,38.9s5.7,5.5,8.6,8.3c1-.8,1.7-1.2,2.3-1.8,15.1-15.1,30.1-30.2,45.3-45.3h0ZM151.6-21.2c17.6-17.6,34.2-34.1,50.6-50.4-16.4-16.3-33-32.8-49.8-49.4-.2.1-.9.5-1.5,1.1-15.4,15.4-30.8,30.8-46.3,46.1-2.2,2.2-.9,3.5.6,5.1,11.5,11.5,23.1,22.9,34.5,34.5,4.2,4.3,8.1,8.9,11.9,13.1ZM152.9,187.1c16.4-16.4,32.9-33,49.3-49.4-16.4-16.3-32.9-32.8-49.2-49-16.4,16.3-33,32.8-49.2,48.8,16.4,16.5,32.8,33.1,49.1,49.6h0ZM150.5-19.1c-.6-.8-1.1-1.7-1.8-2.3-2.1-2.2-4.3-4.3-6.4-6.4-12.9-13-25.9-25.9-38.8-38.9-2-2-3.4-2.6-5.7-.3-14.9,15.1-29.9,30.1-45,45-1.6,1.6-2.9,2.8-.6,5,15.4,15.3,30.8,30.7,46.1,46.1,1.7,1.7,2.8,1.6,4.4,0,15.2-15.3,30.5-30.6,45.8-45.9.7-.7,1.2-1.4,1.9-2.3ZM148.6,87.7c.7-.7,1.1-1.5,1.8-2.3-.7-.9-1.2-1.7-1.8-2.3-15.2-15.2-30.4-30.3-45.5-45.6-2.1-2.1-3.4-1.8-5.3.1-15,15.2-30.1,30.2-45.3,45.3-1.9,1.9-2,3.1,0,5.1,15.2,15.1,30.4,30.3,45.6,45.6,1.7,1.7,2.9,2,4.8.1,15.2-15.3,30.5-30.6,45.8-45.9h0ZM148.7-121.7c1.9-1.9,1.4-3.1-.2-4.7-15.2-15.2-30.4-30.4-45.6-45.6-1.8-1.8-3-1.7-4.7,0-15.2,15.2-30.3,30.5-45.6,45.6-2,2-1.8,3.3,0,5.1,4.5,4.3,8.8,8.7,13.2,13.1,11.3,11.4,22.7,22.9,34.2,34.5,1.1-.7,1.6-.9,1.9-1.3,15.6-15.5,31.2-31.1,46.8-46.7h0ZM148-225.6c.8-.9,1.6-1.8,2.2-2.5-16.8-16.8-33.4-33.4-49.8-49.8-16.3,16.3-32.9,32.8-49.8,49.6,1.2,1.2,2.2,2.4,3.3,3.4,14.5,14.5,29.1,29,43.5,43.6,2.7,2.7,4.1,2.3,6.6-.2,14.6-14.8,29.4-29.5,44.1-44.2h0ZM147.6,193.4c1-1,1.9-2.2,2.6-2.9-16.9-16.9-33.4-33.4-49.8-49.8-16.3,16.4-32.8,32.9-49.6,49.7.5.6,1,1.3,1.6,1.9,15.3,15.3,30.6,30.6,45.8,46,2.4,2.4,3.6,1.1,5.3-.6,14.7-14.7,29.4-29.4,44.1-44.2ZM96.2,244.9c2.7-2.7.8-4-.9-5.6-14.7-14.7-29.5-29.4-44.1-44.2-2.5-2.5-3.8-2.4-6.2,0-14.5,14.7-29.1,29.3-43.8,43.8-2.6,2.6-2.9,4.2,0,6.9,10.3,10,20.3,20.2,30.4,30.4,5.4,5.4,10.9,10.8,16.4,16.2.9-.7,1.5-1,2-1.5,15.4-15.4,30.8-30.8,46.2-46.1h0ZM96,140.2c2.2-2.2,1.7-3.5-.2-5.4-9.5-9.4-19-18.8-28.3-28.3-6.3-6.3-12.4-12.8-18.1-18.8C32,105,15.3,121.5-1.2,137.9c16.4,16.4,32.9,32.9,49.5,49.5.6-.5,1.4-1,2.1-1.7,15.2-15.2,30.4-30.4,45.6-45.5ZM95.8,36c2.1-2.1,2.4-3.5.2-5.7C80.8,15.3,65.7.2,50.6-14.9c-.7-.7-1.5-1.2-2.4-1.9-1,.8-1.9,1.3-2.6,2.1C30.7.2,15.8,15.1.9,30c-2.2,2.2-2.6,3.7-.1,6,15,14.8,29.9,29.7,44.7,44.6,2.1,2.2,3.4,2.3,5.6,0,14.8-15,29.7-29.9,44.7-44.7h0ZM95.3-68.3c2.6-2.6,2.7-4,.1-6.6-13-12.8-25.8-25.7-38.6-38.6-2.8-2.8-5.7-5.5-8.5-8.2-.9.7-1.3,1-1.7,1.4C31.1-104.9,15.8-89.5.3-74.2c-2.2,2.2-1.7,3.5.2,5.4,7,6.9,13.9,13.8,20.8,20.7,8.7,8.8,17.4,17.6,26.5,26.9,1.8-1.7,3-2.7,4.2-3.9,14.4-14.4,28.7-28.9,43.3-43.2h0ZM95.2-172.8c2.7-2.7,2.8-4.2,0-6.8-10.2-9.9-20.2-20-30.1-30.1-5.5-5.6-10.7-11.4-16.1-17.1-.3.3-.7.5-1,.8-.5.4-1.2.7-1.6,1.1-15.3,15.3-30.6,30.6-45.9,45.8-2.6,2.6-1.5,4.1.5,6.1,14.1,14,28.1,28,42.1,42,1.6,1.6,3.3,3.1,5.1,4.8,1.1-1,2-1.7,2.7-2.5,14.7-14.7,29.3-29.5,44.2-44.1h0ZM45.7-19.7c-.5-.6-1-1.3-1.6-1.8C29.1-36.6,14.1-51.5-.8-66.6c-2.6-2.6-4.1-2.4-6.6,0-14.6,14.8-29.4,29.5-44.1,44.2-.9.9-1.6,1.8-2.1,2.3C-36.9-3.2-20.3,13.5-3.9,29.9,12.3,13.7,28.9-2.8,45.7-19.7ZM37.1,94.8c3-3,6.4-5.5,9.1-7.9C28.6,69.2,12.1,52.5-4.6,35.7c-.3.3-.9.7-1.4,1.1-15.4,15.4-30.7,30.8-46.2,46.1-2.3,2.3-1.3,3.6.5,5.3,14.8,14.8,29.7,29.5,44.4,44.4,2.6,2.6,4,2.6,6.6,0,12.5-12.8,25.2-25.4,38-37.9h0ZM-4.1-74.5c16.3-16.3,32.9-33,48.7-48.8-16.4-16.5-32.9-33.3-49.1-49.7-16.2,16.2-32.7,32.7-49,49,16.4,16.4,33,33,49.4,49.5h0ZM-3.9-179.2c16.2-16.2,32.7-32.8,48.8-49-16.6-16.6-33.2-33.2-49.1-49.1-16.2,16.2-32.9,32.7-49,48.8,16.3,16.3,32.9,32.8,49.3,49.3ZM44.8,190.3c-16.4-16.4-32.9-33.1-48.9-49.1-16.4,16.3-33,32.8-49.5,49.2,16.3,16.3,32.8,32.8,49,49,16.6-16.5,33.3-33.1,49.4-49h0ZM-8.3-174.1c2.2-2.2.9-3.5-.6-5.1-14.9-14.9-29.9-29.8-44.7-44.8-2.2-2.2-3.5-2.2-5.7,0-14.8,15-29.8,29.9-44.6,44.8-.8.9-1.6,1.8-2.2,2.5,16.7,16.7,33.2,33.3,49.8,50,.4-.2.7-.3.8-.5,15.7-15.7,31.4-31.3,47.2-46.9h0ZM-9.1,245.4c2.6-2.6,2.1-4-.2-6.3-14.7-14.5-29.3-29.2-43.9-43.8-1-1-2.2-1.9-3.2-2.8-16.8,16.8-33.2,33.2-49.5,49.5,16.6,16.7,33.1,33.3,49.8,50,.7-.6,1.7-1.4,2.5-2.3,14.8-14.8,29.6-29.7,44.5-44.4h0ZM-56.5-22.4C-40.1-38.8-23.5-55.2-7.1-71.6c-16.4-16.3-33-32.7-49.3-48.9-16.3,16.2-32.9,32.7-49,48.8,16.2,16.4,32.7,33,48.9,49.3ZM-7.4,33.4C-23.9,16.8-40.3.2-56.9-16.5c-.2.1-.7.4-1.1.8C-73.5-.3-88.9,15.2-104.5,30.6c-2.3,2.3-1.3,3.6.5,5.4,11.3,11.3,22.6,22.6,33.9,33.9,4.4,4.4,9,8.8,13.4,13.1C-39.9,66-23.4,49.5-7.4,33.4ZM-7,137.8c-16.4-16.4-32.9-32.9-49.3-49.2-16.5,16.5-33.1,33-49.1,48.9,16.3,16.4,32.8,33.1,49,49.4,16.4-16.3,32.9-32.8,49.3-49.1ZM-59.3-19.7c0-.1-.3-.6-.7-1-15.6-15.6-31.2-31.2-46.7-46.8-1.7-1.7-2.8-1.6-4.4,0-4.4,4.5-9,9-13.4,13.4-11.4,11.4-22.8,22.7-33.8,33.8C-141.4-3.2-124.9,13.5-108.7,29.8-92.5,13.5-75.9-3-59.3-19.7ZM-66,92.9c2.4-2.4,5.2-4.4,7.6-6.3-17.6-17.6-34.1-34.1-50.4-50.5-16.6,16.5-33.1,33.1-49.8,49.8.2.3.6.9,1.1,1.3,15.3,15.3,30.6,30.6,45.8,45.9,2.2,2.2,3.6,2,5.7-.1,13.3-13.4,26.6-26.8,40-40.1h0ZM-59.4-228.4c-16.4-16.4-32.9-32.9-49.5-49.4-16.3,16.3-32.9,32.9-49.4,49.3l49.4,49.4c16.4-16.4,33.1-33,49.4-49.3h0ZM-108.6-75c16.3-16.2,32.8-32.7,49.3-49-16.4-16.4-33.1-33-49.5-49.4-16.4,16.4-33,33-48.9,49,16.4,16.5,33.1,33.2,49.2,49.5ZM-109.1,239c16.5-16.3,33.1-32.8,49.1-48.6-16.3-16.5-32.9-33.1-49.1-49.5-16.3,16.3-32.8,32.8-48.9,48.9,16.6,16.7,33.1,33.3,48.9,49.2ZM-111.1,33.6c-.6-1-.7-1.4-1-1.7-15.6-15.6-31.2-31.2-46.7-46.9-2.1-2.1-3.4-1.4-5.1.3-15.1,15.1-30.2,30.2-45.3,45.3-1.8,1.8-1.9,3-.1,4.8,15.1,15.1,30.3,30.1,45.3,45.3,2.4,2.4,3.9,1.9,6-.3,9.5-9.6,19-19.2,28.6-28.7,6-6,12.1-12,18.3-18.1h0ZM-111.5,242.1c-.4-.5-1-1.3-1.6-2-15.2-15.2-30.4-30.4-45.5-45.6-2-2.1-3.3-1.6-5.1.2-15.3,15.3-30.6,30.6-45.9,45.9-.5.5-.8,1.3-1.2,1.9,16.7,16.6,33.2,33,49.6,49.3,16.6-16.6,33.1-33.1,49.8-49.8h0ZM-161.9-126.1c17.3-17.3,33.8-33.8,49.9-49.8-16.4-16.5-33-33.1-49.6-49.8-.2.1-.7.4-1,.8-15.5,15.5-31,31-46.6,46.4-1.9,1.9-1.3,3.2.3,4.7,5.4,5.3,10.7,10.7,16.1,16.1,10.3,10.5,20.6,21,30.9,31.6h0ZM-112.3,138c-16.2-16.4-32.6-33-48.6-49.2-16.5,16.4-33.1,32.9-49.2,49.1,16.3,16.4,32.7,32.9,48.8,49.1,16.5-16.5,33.1-33,49.1-48.9h0ZM-161.1-22.4c16.4-16.5,33-33,49.1-49.2-16.3-16.4-32.9-33.1-49.1-49.4-16.4,16.3-33,32.8-49.4,49.1,16.5,16.4,33,33,49.5,49.4Z"/>
        <path class="cls-10" d="M254-20.8c.4.4.6.9.7,1.1-16.7,16.6-33.3,33.1-49.8,49.5-16.3-16.2-32.9-32.8-49.9-49.8,7.5-7.4,15.1-14.9,22.7-22.4,8.2-8.2,16.4-16.3,24.5-24.5,1.5-1.5,2.8-2.9,5-.6,15.5,15.7,31.1,31.2,46.7,46.8h0ZM251.4-18.7c-.6-1-.8-1.6-1.2-1.9-14.3-14.4-28.6-28.7-42.9-43.1-1.7-1.7-2.8-1.4-4.4.2-5.8,5.9-11.6,11.8-17.5,17.6-8.8,8.7-17.7,17.3-26.4,25.9.6,1.3.7,1.6.9,1.7,14.4,14.4,28.9,28.8,43.2,43.3,2.1,2.1,3.2,1.1,4.7-.5,8.9-9,17.9-18,26.9-26.9,5.6-5.5,11.2-11,16.7-16.4h0Z"/>
        <path class="cls-10" d="M252.7,187c1.6,1.6,3.2,2.9.7,5.4-15.7,15.5-31.2,31.1-46.8,46.7-.4.4-.9.6-1.2.8-16.6-16.7-33-33.3-49.1-49.5l49.8-49.8c.4.3,1.5,1.3,2.6,2.3,14.7,14.7,29.4,29.4,44.1,44.1ZM250.5,190c-15.1-15.1-30.3-30.4-45.7-45.7-.2.2-.8.4-1.1.8-14.2,14.2-28.4,28.5-42.7,42.6-2.2,2.2-1.3,3.3.4,5,13.9,13.8,27.7,27.7,41.5,41.5.7.7,1.4,1.2,1.7,1.4,15.5-15.4,30.8-30.6,45.9-45.5h0Z"/>
        <path class="cls-9" d="M250.2-20.6c.4.4.6.9,1.2,1.9-5.6,5.4-11.2,10.9-16.7,16.4-9,8.9-18,17.9-26.9,26.9-1.5,1.5-2.6,2.5-4.7.5-14.3-14.5-28.8-28.9-43.2-43.3-.2-.2-.2-.5-.9-1.7,8.8-8.6,17.6-17.2,26.4-25.9,5.9-5.8,11.7-11.6,17.5-17.6,1.6-1.6,2.7-1.9,4.4-.2,14.3,14.4,28.6,28.7,42.9,43.1h0ZM220.4-9.8c5.5-5.7,7.1-12.9,5.9-20.7-.8-5-4.5-9.4-8.5-10.1-5.2-.9-8.3,1.9-10.7,6-.5.8-1.1,1.5-2,2.7-1.4-2-2.3-3.5-3.4-4.9-4.6-5.6-11-5.5-15.1.5-2.8,4.1-3.7,8.9-2.7,13.8,2.4,11.5,10.2,18.5,19.9,23.9.9.5,2.8.2,3.7-.5,4.4-3.4,9.1-6.7,12.9-10.8h0Z"/>
        <path class="cls-9" d="M249.5,83.3c1.7,1.7,1.4,2.8-.1,4.4-14,13.9-27.9,27.8-41.8,41.8-1.4,1.4-2.5,2.4-4.4.4-14.3-14.5-28.8-28.9-43.2-43.3-.3-.3-.4-.7-1-1.6,11.2-11.1,22.2-22,33.2-33,3.5-3.5,7.1-7,10.5-10.5,1.6-1.7,2.8-2.2,4.7-.3,14,14.1,28,28.1,42.1,42.1h0ZM205.3,106.3c4.7-9.4,11.5-15.7,20.5-20.8-9.1-5.1-15.8-11.5-20.6-20.9-4.8,9.5-11.5,16.1-21.1,21,9.9,4.6,16.1,11.7,21.2,20.7h0Z"/>
        <path class="cls-10" d="M254.9,86.4c-3.5,3.4-7.6,7.3-11.6,11.3-11.7,11.7-23.4,23.3-35,35.1-2.3,2.4-3.7,2.6-6.2,0-14.8-15-29.7-29.9-44.6-44.8-.8-.8-1.5-1.6-2.2-2.4,16.9-16.8,33.4-33.3,49.7-49.5,16.3,16.4,32.9,33,49.9,50.2h0ZM249.4,87.7c1.6-1.6,1.9-2.7.1-4.4-14.1-14-28.1-28-42.1-42.1-1.9-1.9-3.1-1.5-4.7.3-3.4,3.6-7,7-10.5,10.5-11,11-22,21.9-33.2,33,.5,1,.7,1.4,1,1.6,14.4,14.4,28.9,28.8,43.2,43.3,1.9,1.9,3,1,4.4-.4,13.9-13.9,27.8-27.9,41.8-41.8h0Z"/>
        <path class="cls-10" d="M226.3,178.8c1.4,7.8-.5,14.8-5.7,20.7-2.5,2.9-5.4,5.4-8.5,7.8-6.6,5.2-7.3,5.2-13.9.1-6.6-5-12.1-10.8-14.1-19.3-1.2-5.1-.6-9.9,2-14.3,4.1-6.9,11.4-7.2,16.1-.7.9,1.2,1.7,2.4,2.6,3.7,0,0,.3,0,.7.2.6-.8,1.3-1.6,1.9-2.5,2.4-3.5,5.1-6.7,10-5.9,4.4.7,8.1,5.1,9,10.2h0Z"/>
        <path class="cls-10" d="M226.3-30.4c1.2,7.8-.5,15-5.9,20.7-3.8,4-8.5,7.3-12.9,10.8-.9.7-2.8,1-3.7.5-9.7-5.3-17.6-12.4-19.9-23.9-1-4.9-.2-9.7,2.7-13.8,4.1-6,10.5-6.2,15.1-.5,1.1,1.4,2,2.9,3.4,4.9.9-1.2,1.5-1.9,2-2.7,2.4-4.1,5.5-6.9,10.7-6,4,.7,7.7,5.1,8.5,10.1h0Z"/>
        <path class="cls-9" d="M204.8,144.3c15.4,15.4,30.6,30.6,45.7,45.7-15.1,14.9-30.4,30.1-45.9,45.5-.3-.2-1.1-.7-1.7-1.4-13.8-13.8-27.7-27.7-41.5-41.5-1.7-1.7-2.6-2.8-.4-5,14.3-14.1,28.5-28.4,42.7-42.6.4-.4.9-.6,1.1-.8h0ZM220.5,199.5c5.2-5.9,7.1-12.9,5.7-20.7-.9-5.1-4.6-9.5-9-10.2-4.9-.8-7.6,2.4-10,5.9-.6.9-1.3,1.7-1.9,2.5-.4-.1-.6-.1-.7-.2-.9-1.2-1.7-2.4-2.6-3.7-4.6-6.5-12-6.3-16.1.7-2.6,4.5-3.2,9.3-2,14.3,1.9,8.4,7.5,14.2,14.1,19.3,6.6,5,7.3,5,13.9-.1,3-2.4,5.9-4.9,8.5-7.8h0Z"/>
        <path class="cls-10" d="M225.8,85.4c-9,5.1-15.8,11.4-20.5,20.8-5.2-9.1-11.4-16.1-21.2-20.7,9.5-4.9,16.3-11.5,21.1-21,4.9,9.4,11.5,15.8,20.6,20.9h0Z"/>
        <path class="cls-10" d="M200.5,30.4c.7.8,1.3,1.7,2.1,2.7-.8,1-1.4,1.9-2.1,2.7-15.1,15.1-30.2,30.2-45.2,45.3-2,2-3.3,1.6-5.1-.2-14.8-14.9-29.7-29.9-44.7-44.7-2.4-2.4-2.5-3.8,0-6.3,14.9-14.7,29.7-29.5,44.4-44.4,2.1-2.1,3.4-2.4,5.7-.2,14.9,15.1,30,30,45,45h0ZM196.5,36c2.1-2.1,2.4-3.5.1-5.8-13.8-13.7-27.5-27.4-41.2-41.2-1.8-1.9-3.1-2-5.1,0-13.7,13.9-27.6,27.7-41.5,41.4-1.8,1.8-2.2,3.1-.2,5,14,13.8,27.9,27.8,41.8,41.7.7.6,1.5,1.1,2.4,1.8,1-.8,1.8-1.4,2.6-2.2,13.6-13.6,27.2-27.3,40.9-40.8h0Z"/>
        <path class="cls-12" d="M197.2,135.7c.6.6,1,1.3,1.6,2-.6.9-1.1,1.7-1.7,2.4-14,14-28,28-42.1,42.1-1.4,1.4-2.6,1.6-4.2,0-14.1-14.2-28.2-28.3-42.4-42.4-2.3-2.3-.6-3.6.9-5.1,10.8-10.8,21.6-21.6,32.4-32.4,3-3,6.1-6,9.1-9.1,1.5-1.6,2.6-1.5,4.1,0,14.1,14.1,28.2,28.3,42.3,42.4h0ZM168.7,149.6c4-1.9,5.9-5.5,5.6-10.5-.3-5.3-3.6-7.9-8.3-9.6-1.1-.4-2.2-2.1-2.4-3.4-.8-5.9-4.5-9.7-10.2-10.1-5-.4-10.3,3.4-10.9,8.7-.4,3.6-2.1,4.7-5,5.8-4.2,1.5-6.6,5.7-6.4,10.1.2,4.2,3,7.8,7,9.3,5.4,2,9.5-.3,13.3-4,.3.2.6.4.9.7-1.7,4-3.5,8-5.4,12.5,3.5,0,6.7,0,9.8,0,.7,0,1.3,0,2.2-.2-1.9-4.2-3.7-8.1-5.4-11.9,1.4-.3,1.8-.2,2.1,0,3.8,3.9,8.2,4.9,13.2,2.6h0Z"/>
        <path class="cls-12" d="M196.6,30.3c2.3,2.2,1.9,3.7-.1,5.8-13.7,13.6-27.3,27.2-40.9,40.8-.8.8-1.6,1.4-2.6,2.2-.9-.7-1.7-1.2-2.4-1.8-13.9-13.9-27.8-27.8-41.8-41.7-2-2-1.7-3.2.2-5,13.9-13.8,27.7-27.6,41.5-41.4,2-2,3.2-1.8,5.1,0,13.7,13.8,27.4,27.5,41.2,41.2h0ZM170.9,47.6c3.9-3.2,5-10.5,1.5-14.6-6.1-7.2-12.7-14.1-19.6-21.6-6.9,7.7-13.9,14.8-20,22.5-3.6,4.5-1.8,10.9,2.8,14.3,3.9,2.9,9,1.9,13-2.8.8-.9.9-2.3,1.4-3.5.7.6,1.4,1.2,2.1,1.7-.8,1.8-1.4,3.7-2.4,5.4-1,1.7-2.4,3.2-4.1,5.3h13.9c-2-3.5-3.9-6.8-5.8-10.1.5-.3,1-.6,1.4-1,.7.8,1.3,1.7,2.1,2.5,4.2,4.3,9.8,5.1,13.7,2h0Z"/>
        <path class="cls-9" d="M174.4,139c.3,5-1.6,8.7-5.6,10.5-5,2.3-9.4,1.3-13.2-2.6-.3-.3-.7-.4-2.1,0l-1.1-.4c-.3-.2-.6-.4-.9-.7-3.8,3.7-8,6-13.3,4-4-1.5-6.8-5.1-7-9.3-.2-4.4,2.2-8.6,6.4-10.1,2.9-1.1,4.6-2.1,5-5.8.5-5.3,5.9-9.1,10.9-8.7,5.7.4,9.4,4.2,10.2,10.1.2,1.2,1.3,3,2.4,3.4,4.7,1.7,8,4.3,8.3,9.6h0Z"/>
        <path class="cls-9" d="M172.4,33c3.5,4.2,2.4,11.5-1.5,14.6-3.9,3.1-9.5,2.3-13.7-2-.8-.8-1.4-1.7-2.1-2.5-.5.3-1,.6-1.4,1l-1.6-.6c-.7-.6-1.4-1.2-2.1-1.7-.4,1.2-.6,2.6-1.4,3.5-4,4.7-9.1,5.7-13,2.8-4.6-3.4-6.4-9.7-2.8-14.3,6.1-7.7,13.1-14.8,20-22.5,6.9,7.6,13.5,14.4,19.6,21.6h0Z"/>
        <path class="cls-10" d="M202.2,137.7c-16.4,16.4-32.9,33-49.3,49.4-16.3-16.5-32.8-33.1-49.1-49.6,16.2-16.1,32.8-32.5,49.2-48.8,16.3,16.2,32.8,32.7,49.2,49h0ZM198.8,137.7c-.6-.8-1-1.5-1.6-2-14.1-14.1-28.2-28.2-42.3-42.4-1.5-1.5-2.6-1.6-4.1,0-2.9,3.1-6,6-9.1,9.1-10.8,10.8-21.6,21.6-32.4,32.4-1.5,1.5-3.2,2.8-.9,5.1,14.2,14.1,28.3,28.2,42.4,42.4,1.5,1.6,2.7,1.4,4.2,0,14-14,28-28,42.1-42.1.7-.7,1.1-1.5,1.7-2.4h0Z"/>
        <path class="cls-9" d="M159.4,54.2h-13.9c1.6-2.1,3-3.6,4.1-5.3,1-1.7,1.6-3.6,2.4-5.4l1.6.6c1.9,3.3,3.8,6.6,5.8,10.1h0Z"/>
        <path class="cls-9" d="M158.9,158.9c-.8,0-1.5.2-2.2.2-3.1,0-6.2,0-9.8,0,2-4.5,3.7-8.5,5.4-12.5l1.1.4c1.8,3.8,3.5,7.7,5.4,11.9h0Z"/>
        <path class="cls-10" d="M148.7-21.4c.6.7,1.1,1.5,1.8,2.3-.7.9-1.2,1.7-1.9,2.3-15.3,15.3-30.6,30.6-45.8,45.9-1.6,1.6-2.8,1.7-4.4,0-15.3-15.4-30.7-30.8-46.1-46.1-2.3-2.3-1-3.5.6-5,15-15,30-29.9,45-45,2.3-2.3,3.7-1.7,5.7.3,12.9,13,25.9,25.9,38.8,38.9,2.1,2.1,4.3,4.3,6.4,6.4ZM144.7-16.9c1.9-1.8,1.7-2.9,0-4.7-14-13.9-27.9-27.8-41.8-41.8-1.8-1.8-2.9-1.8-4.7,0-13.8,13.9-27.6,27.7-41.5,41.5-2.1,2-1.9,3.3,0,5.3,13.9,13.8,27.7,27.6,41.5,41.5.7.6,1.4,1.2,2.3,1.9,1-.8,1.8-1.5,2.6-2.2,13.8-13.8,27.6-27.7,41.5-41.5Z"/>
        <path class="cls-10" d="M150.4,85.3c-.7.9-1.2,1.7-1.8,2.3-15.3,15.3-30.6,30.6-45.8,45.9-1.8,1.9-3.1,1.6-4.8-.1-15.2-15.2-30.3-30.4-45.6-45.6-1.9-1.9-1.8-3.2,0-5.1,15.1-15,30.2-30.1,45.3-45.3,2-2,3.3-2.3,5.3-.1,15.1,15.2,30.3,30.4,45.5,45.6.7.7,1.2,1.5,1.8,2.3h0ZM144.6,87.8c2-2,1.8-3.1,0-5-13.9-13.8-27.7-27.6-41.5-41.5-2-2-3.1-1.8-5,0-13.8,13.9-27.6,27.7-41.5,41.5-2,2-1.9,3.1,0,5,13.9,13.8,27.7,27.6,41.5,41.5.7.7,1.4,1.2,2.4,2,.9-.7,1.8-1.3,2.6-2.1,13.9-13.8,27.6-27.7,41.5-41.5h0Z"/>
        <path class="cls-10" d="M150.2,190.5c-.7.8-1.6,1.9-2.6,2.9-14.7,14.7-29.4,29.4-44.1,44.1-1.7,1.7-2.9,3-5.3.6-15.2-15.4-30.5-30.7-45.8-46-.6-.6-1-1.2-1.6-1.9,16.8-16.8,33.3-33.3,49.6-49.7,16.4,16.4,32.9,32.9,49.8,49.8h0ZM144.3,192.8c2-2,2.2-3.3,0-5.3-8.5-8.3-16.8-16.7-25.2-25.1-6.1-6.1-12.1-12.3-18.6-19-15.3,15.4-30,30.2-44.7,44.9-2,2-.5,3.1.8,4.4,13.7,13.7,27.5,27.4,41.1,41.3,2,2,3.2,2.2,5.3,0,13.6-13.8,27.4-27.5,41.2-41.2h0Z"/>
        <path class="cls-9" d="M144.7-21.6c1.8,1.7,1.9,2.8,0,4.7-13.9,13.8-27.7,27.6-41.5,41.5-.8.8-1.6,1.4-2.6,2.2-.9-.7-1.7-1.2-2.3-1.9-13.8-13.8-27.6-27.7-41.5-41.5-2-2-2.2-3.3,0-5.3,13.9-13.8,27.8-27.6,41.5-41.5,1.8-1.8,2.9-1.8,4.7,0,13.9,14,27.8,27.9,41.8,41.8ZM100.5,1.7c4.9-9.3,11.5-15.9,21-21-9.7-4.8-16-11.6-21-20.6-4.9,9.4-11.5,15.8-20.6,20.6,9.1,5.1,15.9,11.5,20.7,21h0Z"/>
        <path class="cls-9" d="M144.5,82.8c1.9,1.9,2.1,3,0,5-13.9,13.8-27.7,27.7-41.5,41.5-.7.7-1.7,1.3-2.6,2.1-.9-.8-1.7-1.3-2.4-2-13.8-13.8-27.6-27.7-41.5-41.5-1.9-1.9-2-3,0-5,13.9-13.8,27.7-27.6,41.5-41.5,1.9-1.9,3-2.1,5,0,13.7,13.9,27.6,27.7,41.5,41.5h0ZM116.3,94.1c5.7-6.7,7.6-14.6,4.2-23.2-1.5-3.7-4.1-6.6-8.4-7.1-4.2-.4-7,2-9.1,5.3-.7,1.1-1.5,2.2-2.6,3.9-1.1-1.7-1.7-2.8-2.4-3.9-2.1-3.1-4.6-5.6-8.7-5.3-4.3.3-7.6,2.9-8.5,6.8-1.1,4.5-1.9,9.6-.8,14,2.4,10.2,10.1,16.4,18.9,21.3,1.1.6,3.4.2,4.4-.6,4.5-3.5,9.4-6.9,13-11.3h0Z"/>
        <path class="cls-9" d="M144.4,187.5c2.1,2.1,2,3.3,0,5.3-13.8,13.7-27.5,27.4-41.2,41.2-2.1,2.1-3.3,1.9-5.3,0-13.7-13.8-27.4-27.5-41.1-41.3-1.3-1.3-2.8-2.4-.8-4.4,14.7-14.7,29.3-29.5,44.7-44.9,6.5,6.7,12.6,12.9,18.6,19,8.3,8.4,16.7,16.8,25.2,25.1h0ZM100.9,210.4c4.5-8.9,11.3-15.4,20.4-20.3-9.4-4.8-15.9-11.5-20.9-20.7-4.9,9.6-11.7,16-20,20.5,4,3.2,8,5.8,11.2,9.1,3.3,3.3,5.9,7.2,9.3,11.4h0Z"/>
        <path class="cls-10" d="M120.5,71c3.4,8.5,1.5,16.5-4.2,23.2-3.7,4.3-8.5,7.7-13,11.3-1,.8-3.4,1.2-4.4.6-8.7-4.9-16.5-11.1-18.9-21.3-1-4.4-.3-9.5.8-14,.9-3.8,4.2-6.5,8.5-6.8,4.1-.3,6.6,2.2,8.7,5.3.7,1.1,1.4,2.2,2.4,3.9,1.1-1.7,1.9-2.8,2.6-3.9,2.1-3.3,4.9-5.8,9.1-5.3,4.3.4,6.9,3.3,8.4,7.1h0Z"/>
        <path class="cls-10" d="M121.4,190c-9.2,4.9-15.9,11.4-20.4,20.3-3.4-4.3-6-8.2-9.3-11.4-3.3-3.3-7.2-5.9-11.2-9.1,8.3-4.6,15.1-11,20-20.5,5,9.2,11.5,16,20.9,20.7h0Z"/>
        <path class="cls-10" d="M121.5-19.3c-9.5,5-16.1,11.6-21,21-4.8-9.5-11.6-15.9-20.7-21,9.2-4.8,15.7-11.2,20.6-20.6,5,9,11.3,15.8,21,20.6h0Z"/>
        <path class="cls-10" d="M95.8,134.9c1.9,1.9,2.4,3.2.2,5.4-15.3,15.1-30.4,30.3-45.6,45.5-.7.7-1.5,1.2-2.1,1.7-16.6-16.6-33.2-33.1-49.5-49.5,16.5-16.4,33.2-32.9,50.6-50.2,5.8,6,11.8,12.5,18.1,18.8,9.4,9.5,18.8,18.9,28.3,28.3h0ZM91.4,141c2.6-2.6,2.5-4.1,0-6.6-13.6-13.4-27.2-27-40.6-40.6-2.1-2.2-3.3-1.9-5.3.1-8.3,8.5-16.7,16.8-25.1,25.1-6.2,6.1-12.5,12-18.6,17.9.8,1.4,1,1.9,1.3,2.3,14.3,14.3,28.6,28.7,42.9,43,2,2,3.2,1,4.8-.5,13.5-13.6,27-27.2,40.6-40.6h0Z"/>
        <path class="cls-10" d="M96,30.3c2.2,2.2,1.9,3.6-.2,5.7-15,14.8-29.9,29.7-44.7,44.7-2.2,2.2-3.5,2.1-5.6,0C30.6,65.7,15.7,50.8.7,36c-2.4-2.4-2-3.9.1-6C15.8,15.1,30.7.2,45.6-14.7c.8-.8,1.7-1.3,2.6-2.1.9.7,1.7,1.2,2.4,1.9C65.7.2,80.8,15.3,96,30.3ZM92.2,35.5c.7-.7,1.2-1.4,2-2.4-.9-1-1.6-2-2.4-2.8-13.5-13.5-27.1-27-40.5-40.6-2.5-2.6-3.9-2.3-6.2,0C31.7,3.2,18.3,16.7,4.7,30c-2.6,2.5-2.2,4.1.1,6.3,13.5,13.4,27,26.8,40.3,40.3,2.3,2.3,3.6,2.4,6,0,13.6-13.8,27.4-27.5,41.1-41.2h0Z"/>
        <path class="cls-12" d="M94.2,33.1c-.8,1-1.3,1.7-2,2.4-13.7,13.7-27.5,27.4-41.1,41.2-2.3,2.4-3.7,2.2-6,0-13.3-13.5-26.8-26.9-40.3-40.3-2.3-2.3-2.7-3.8-.1-6.3C18.3,16.7,31.7,3.2,45-10.3c2.3-2.4,3.7-2.6,6.2,0,13.4,13.6,27,27.1,40.5,40.6.9.8,1.6,1.8,2.4,2.8ZM65,44.2c3.8-2.4,5.6-6.2,4.7-10.7-1-5.6-4.9-8.3-10.5-9.1-.7-8.5-4-12.7-10.1-13-6.6-.3-11.3,2.6-12.2,13-5.1.8-9.1,3.2-10.2,8.7-.9,4.6.5,8.6,4.7,11,5.6,3.2,10.7,1.6,15.2-2.8.3.3.6.5.9.8-1.8,4-3.5,8-5.3,12h11.8c-1.9-4.3-3.6-8.2-5.4-12.1.3-.3.6-.7.8-1.1,4.5,5.1,9.7,6.8,15.5,3.2Z"/>
        <path class="cls-12" d="M91.4,134.4c2.6,2.5,2.7,4,0,6.6-13.6,13.4-27.1,27-40.6,40.6-1.5,1.6-2.8,2.5-4.8.5-14.3-14.4-28.6-28.7-42.9-43-.4-.4-.6-.9-1.3-2.3,6.1-5.9,12.4-11.8,18.6-17.9,8.4-8.3,16.8-16.6,25.1-25.1,2-2,3.2-2.3,5.3-.1,13.4,13.6,27,27.2,40.6,40.6h0ZM64.3,153.3c3.8-1.5,5.6-4.9,5.4-8.5-.2-2.9-1.3-6.3-3.2-8.6-4.7-5.8-9.9-11.1-15-16.5-1-1.1-2.1-2-3.5-3.3-2.9,3.1-5.6,5.8-8.2,8.6-3.6,3.9-7.4,7.8-10.8,12-3.7,4.5-3.2,11.5.8,15,4.1,3.7,9.8,2.9,14.2-2,.7-.8,1.1-1.9,1.7-2.8.6.4,1.2.9,1.8,1.3-1.9,3.4-3.8,6.7-5.7,10.1h13.1c-2.2-3.6-4.2-6.9-6.3-10.1.4-.3.9-.6,1.3-.9,1.2,1.3,2.3,2.6,3.6,3.8,3.2,2.9,6.9,3.4,10.8,1.9h0Z"/>
        <path class="cls-9" d="M69.7,33.6c.8,4.5-.9,8.3-4.7,10.7-5.7,3.5-10.9,1.9-15.5-3.2-.3.4-.6.7-.8,1.1h-1.1c-.3-.2-.6-.4-.9-.7-4.5,4.5-9.6,6-15.2,2.8-4.2-2.4-5.6-6.4-4.7-11,1.1-5.5,5.1-7.9,10.2-8.7.9-10.3,5.6-13.3,12.2-13,6.1.3,9.4,4.5,10.1,13,5.5.8,9.4,3.5,10.4,9.1Z"/>
        <path class="cls-9" d="M69.7,144.7c.2,3.6-1.6,7.1-5.4,8.5-3.9,1.5-7.6,1-10.8-1.9-1.3-1.2-2.4-2.5-3.6-3.8-.4.3-.9.6-1.3.9h-1.2c-.6-.5-1.2-.9-1.8-1.3-.5.9-1,2-1.7,2.8-4.4,4.9-10,5.6-14.2,2-4-3.5-4.5-10.5-.8-15,3.4-4.1,7.1-8,10.8-12,2.6-2.8,5.3-5.6,8.2-8.6,1.3,1.3,2.5,2.2,3.5,3.3,5.1,5.5,10.3,10.7,15,16.5,1.8,2.3,3,5.6,3.2,8.6h0Z"/>
        <path class="cls-9" d="M54.9,158.6h-13.1c1.9-3.4,3.8-6.8,5.7-10.1h1.2c2,3.3,4,6.5,6.3,10.1h0Z"/>
        <path class="cls-9" d="M54.1,54.1h-11.8c1.8-4,3.5-8,5.3-12h1.1c1.7,3.8,3.5,7.7,5.4,12Z"/>
        <path class="cls-10" d="M44.1-21.5c.6.6,1.1,1.2,1.6,1.8C28.9-2.8,12.3,13.7-3.9,29.9-20.3,13.5-36.9-3.2-53.6-20c.5-.5,1.2-1.4,2.1-2.3,14.7-14.7,29.5-29.4,44.1-44.2,2.5-2.5,4-2.7,6.6,0,14.9,15.1,30,30,45,45.1h0ZM33.8-10.8c2.7-2.7,5.7-5.1,8.2-7.4-16-16-31.2-31.2-46.1-46.2-14.9,14.9-30.2,30.1-45.7,45.6.1.2.3.6.6.9C-35-3.7-20.7,10.5-6.6,24.8c2,2,3.2,1.6,5-.2C10.2,12.7,22,1,33.8-10.8Z"/>
        <path class="cls-9" d="M39.7,187.4c1.7,1.7,2.5,2.9.4,5-14.2,14.1-28.3,28.2-42.4,42.3-.5.5-1.1.8-1.4,1.1-15.3-15.4-30.5-30.7-45.5-45.7,15.1-15.2,30.2-30.4,46.6-46.9.8,1.4,1.5,3.2,2.7,4.5,13.2,13.3,26.4,26.5,39.7,39.7h0ZM11.9,198.5c5.4-6.4,7.4-14.1,4.2-22.4-1.5-3.9-4-7-8.5-7.5-4.4-.5-7.2,2-9.4,5.5-.6,1-1.3,2-2.3,3.6-1.1-1.6-1.7-2.5-2.3-3.4-2.3-3.4-5.1-6.4-9.7-5.7-4.2.6-8.1,4.8-9,9.7-1.2,6.8-.7,13.5,3.9,18.8,4.1,4.7,9.1,8.6,13.8,12.8,2.1,1.9,4.3,1.9,6.3.1,4.4-3.7,9.3-7.1,12.9-11.4h0Z"/>
        <path class="cls-9" d="M38.9,82.2c1,1,1.9,2,2.6,2.8-15.5,15.3-30.8,30.5-45.9,45.5-14.7-14.8-29.8-30.1-45.3-45.7.5-.5,1.4-1.6,2.5-2.6,13.2-13.3,26.6-26.4,39.7-39.8,2.8-2.8,4.2-2.5,6.8.2,13.1,13.4,26.4,26.5,39.7,39.8h0ZM-4.2,106.3c4.9-9.4,11.5-16,20.9-20.9-9.6-4.8-16-11.8-21.1-20.9-4.6,9.7-11.6,15.8-20.4,21,9.2,5,15.7,11.5,20.6,20.8Z"/>
        <path class="cls-10" d="M46.2,86.9c-2.7,2.4-6.1,4.9-9.1,7.9-12.7,12.6-25.4,25.2-38,37.9-2.5,2.6-4,2.6-6.6,0-14.7-14.9-29.5-29.7-44.4-44.4-1.8-1.8-2.8-3-.5-5.3,15.5-15.3,30.8-30.7,46.2-46.1.5-.5,1-.9,1.4-1.1,16.7,16.8,33.2,33.4,50.8,51.1h0ZM41.6,85c-.8-.8-1.7-1.8-2.6-2.8C25.7,69,12.4,55.8-.7,42.4c-2.6-2.7-4-3-6.8-.2-13.1,13.4-26.4,26.6-39.7,39.8-1,1-2,2.2-2.5,2.6,15.5,15.6,30.7,30.9,45.3,45.7,15.1-15,30.4-30.1,45.9-45.5h0Z"/>
        <path class="cls-9" d="M42-18.2c-2.6,2.3-5.5,4.7-8.2,7.4C22,1,10.2,12.7-1.5,24.6c-1.8,1.8-3,2.3-5,.2C-20.7,10.5-35-3.7-49.2-17.9c-.3-.3-.5-.7-.6-.9,15.5-15.5,30.8-30.7,45.7-45.6,14.9,14.9,30.2,30.2,46.1,46.2ZM10.9-9.4c5.5-6.9,8.5-14.5,5.4-23.4-1.3-3.8-3.6-6.9-7.8-7.8-4.6-1-7.6,1.5-10,5-.8,1.1-1.5,2.2-2.5,3.7-1.5-2.1-2.6-3.9-4-5.5-4.1-4.7-10.6-4.5-14.2.5-1.5,2.1-2.5,4.6-3,7.1-2,11.8,4,20.2,12.8,26.8C-3.4,3.8-5,3.6,3.7-2.7c2.6-1.9,5.2-4.2,7.2-6.7Z"/>
        <path class="cls-10" d="M16.2-32.8c3.1,8.9.2,16.5-5.4,23.4-2,2.5-4.6,4.8-7.2,6.7C-5,3.6-3.4,3.8-12.4-3c-8.8-6.6-14.8-15-12.8-26.8.4-2.5,1.5-5.1,3-7.1,3.6-5.1,10.1-5.2,14.2-.5,1.4,1.6,2.5,3.5,4,5.5,1-1.5,1.7-2.6,2.5-3.7,2.4-3.5,5.4-6,10-5,4.2.9,6.5,4,7.8,7.8h0Z"/>
        <path class="cls-10" d="M16.1,176.1c3.2,8.3,1.1,16-4.2,22.4-3.6,4.4-8.5,7.7-12.9,11.4-2.1,1.7-4.3,1.8-6.3-.1-4.7-4.2-9.7-8.1-13.8-12.8-4.6-5.3-5.2-12-3.9-18.8.9-4.9,4.9-9.2,9-9.7,4.6-.6,7.4,2.3,9.7,5.7.6.9,1.2,1.8,2.3,3.4,1-1.5,1.7-2.5,2.3-3.6,2.2-3.5,5-6,9.4-5.5,4.5.5,7,3.6,8.5,7.5h0Z"/>
        <path class="cls-10" d="M16.8,85.5c-9.4,4.9-16.1,11.5-20.9,20.9-4.9-9.3-11.4-15.8-20.6-20.8,8.8-5.2,15.8-11.3,20.4-21,5.1,9.1,11.5,16,21.1,20.9Z"/>
        <path class="cls-10" d="M-4,141.2c16,16,32.5,32.7,48.9,49.1-16.1,16-32.8,32.5-49.4,49-16.2-16.2-32.7-32.7-49-49,16.5-16.4,33.1-32.9,49.5-49.2ZM40.1,192.4c2.1-2.1,1.4-3.3-.4-5C26.4,174.2,13.1,160.9,0,147.6c-1.2-1.2-1.9-3.1-2.7-4.5-16.4,16.5-31.5,31.7-46.6,46.9,15,15.1,30.2,30.3,45.5,45.7.4-.3,1-.6,1.4-1.1,14.1-14.1,28.2-28.3,42.4-42.3h0Z"/>
      </g>
    </g>
    <g>
      <rect class="cls-2" x="6.3" y="65.1" width="193.9" height="7.6" transform="translate(-10.7 19.6) rotate(-10.3)"/>
      <rect class="cls-8" x="95.3" y="-17.6" width="16" height="193.9" transform="translate(6.7 166.7) rotate(-79.6)"/>
      <circle class="cls-3" cx="77.6" cy="73.7" r="19"/>
      <path class="cls-1" d="M72.1,67c2.4,0,4.4,1.4,5.3,3.7,0,0,0,.1.1.2,0,0,.2,0,.2-.1.3-.8.7-1.4,1.3-2,2.2-2.3,5.5-2.1,7.3-.7,1.4,1,2.2,2.4,2.3,4.1,0,1.6-.4,3-1.3,4.2-.4.6-1,1.1-1.5,1.6-2.1,1.8-4.3,3.7-6.4,5.5-.5.4-1,.9-1.5,1.3-.1,0-.2,0-.3,0-1.6-1.3-3.1-2.7-4.7-4-1.3-1.1-2.7-2.2-3.9-3.4-.4-.4-.7-.8-1-1.3-.7-1-1.1-2.2-1.2-3.5,0-2.8,2-5.2,4.8-5.5.3,0,.5,0,.8,0h0Z"/>
    </g>
  </g>
</svg>