<?xml version="1.0" encoding="UTF-8"?>
<svg id="Layer_1" data-name="Layer 1" xmlns="http://www.w3.org/2000/svg" viewBox="0 0 260.33 104.07">
  <defs>
    <style>
      .cls-1 {
        fill: #cd6f7d;
      }

      .cls-1, .cls-2, .cls-3, .cls-4, .cls-5 {
        stroke-width: 0px;
      }

      .cls-2 {
        fill: #964347;
      }

      .cls-3 {
        fill: #9ca8d6;
      }

      .cls-4 {
        fill: #65285e;
      }

      .cls-5 {
        fill: #cebaba;
      }
    </style>
  </defs>
  <path class="cls-4" d="m252.07,35.39c.96,3,.38,5.51-1.89,7.51-1.38,1.2-1.87,2.18-.69,3.82.5.67,1.22,1.51.88,2.58-1.28-1.07-1.66-2.81-3.02-3.86-.4-.29-.46-1.17.04-1.32,1.45-.42,1.91-1.72,2.77-2.66,2.22-2.43,1.68-7.42-1.05-9.31-2.58-1.76-2.58-2.87-.61-5.35,1.85-2.33,2.6-5.01,1.38-7.97-.17-.38-.04-.86-.06-1.3,2.45,2.58,2.31,6.67-.78,9.67-1.66,1.61-1.26,2.37.13,3.69,1.28,1.24,2.31,2.7,2.89,4.51Z"/>
  <path class="cls-2" d="m250.38,49.29c1.15,4.49.31,8.32-3.73,11.03-1.17.78-.55,1.45-.02,2.16,3.1,4.03,2.91,8.28-.67,11.7-.92.88-1.07,1.3-.08,2.39,3.59,3.98,2.1,11.36-2.54,12.69-3.08.88-6.31,1.3-9.39-.23-1.43-.69-2.12-.27-2.94,1.01-2.45,3.9-6.73,6.19-11.34,4.76-3.15-.94-4.68-3.21-5.7-6-.27-.75-.48-1.15-.78-1.15l1.24-2.43c.1.06.27.13.52.13,1.99.1,3.77.42,5.47-1.61,6.65-8.05,12.22-16.88,18.77-25.02.29-.36.44-.75.4-1.2-.1-1.72-.23-3.42-.38-5.26-.25.19-.46.27-.57.44-.73,1.09-1.49,2.16-2.24,3.23l-2.6-1.89c.4-.52.78-1.07,1.15-1.59,2.29-3.21,4.86-6.27,4.38-10.84-.59-5.49-.59-11.07-.31-16.63q.23-4.65-4.49-4.42h-.44c-6.42-.17-12.83.04-19.27.17-5.93.1-11.87.17-17.8.13l.02-4.15c.31,0,.71-.36,1.36-1.26,1.78-2.43,7.55-4.36,10.82-1.4,1.07.96,1.68,1.07,2.56-.15,3.86-5.43,10.76-3.9,13.59.65.67,1.07,1.17.5,1.8-.21,1.97-2.24,4.38-3.35,7.4-2.47.27.52.63.94,1.3.88v.02c.29,2.26,2.45,3.44,4.32,2.29.55-.34,1.05-.55,1.74-.65,1.97-.31,3.84-.08,5.7.52l.02.02c.44.99.82,2.05,2.12,2.22.04.13.06.25.06.38.02.44-.1.92.06,1.3,1.22,2.96.46,5.64-1.38,7.97-1.97,2.47-1.97,3.59.61,5.35,2.73,1.89,3.27,6.88,1.05,9.31-.86.94-1.32,2.24-2.77,2.66-.5.15-.44,1.03-.04,1.32,1.36,1.05,1.74,2.79,3.02,3.86Zm-10.21,32.88c.29-5.28-.46-10.51-.4-15.77,0-.59.34-1.47-.55-1.66-.75-.17-1.13.59-1.51,1.09-4.51,6.1-8.58,12.52-13.63,18.22-.31.34-.84.82-.46,1.32.19.25.78.27,1.2.29,3.15.13,6.27.23,9.41.34v-.31c.67.02,1.32.04,1.99.06,3.82.15,3.75.13,3.94-3.59Z"/>
  <path class="cls-4" d="m247.65,14.93c1.36.13,1.93.99,2.12,2.22-1.3-.17-1.68-1.24-2.12-2.22Z"/>
  <path class="cls-4" d="m247.63,14.9c-1.87-.61-3.73-.84-5.7-.52-.69.1-1.2.31-1.74.65-1.87,1.15-4.03-.02-4.32-2.29.29.02.75-.06.84.08,1.66,2.89,3.84,1.17,5.85.63,2.01-.52,3.63.13,5.07,1.45Z"/>
  <path class="cls-1" d="m239.77,66.4c-.06,5.26.69,10.48.4,15.77-.19,3.71-.13,3.73-3.94,3.59-.67-.02-1.32-.04-1.99-.06v.31c-3.15-.1-6.27-.21-9.41-.34-.42-.02-1.01-.04-1.2-.29-.38-.5.15-.99.46-1.32,5.05-5.7,9.12-12.12,13.63-18.22.38-.5.75-1.26,1.51-1.09.88.19.55,1.07.55,1.66Z"/>
  <path class="cls-3" d="m239.58,57.51c.04.44-.1.84-.4,1.2-6.54,8.14-12.12,16.96-18.77,25.02-1.7,2.03-3.48,1.72-5.47,1.61-.25,0-.42-.06-.52-.13-.36-.23-.06-.67.25-1.05,1.66-2.12,3.35-4.21,5.01-6.33,5.68-7.23,11.41-14.41,16.71-21.91.75-1.07,1.51-2.14,2.24-3.23.1-.17.31-.25.57-.44.15,1.85.27,3.54.38,5.26Z"/>
  <path class="cls-5" d="m239.33,41.6c.48,4.57-2.1,7.63-4.38,10.84-.38.52-.75,1.07-1.15,1.59-7.17,9.94-14.85,19.48-22.48,29.06-1.07,1.34-2.16,1.85-3.88,1.76-6.94-.31-13.9-.69-20.84-.67-14.2.04-28.37-1.03-42.57-.99-12.58.02-25.14-.92-37.72-.84-4.09.04-8.16-.06-12.35-.19-4.03-.13-8.16-.23-12.52-.27-5.85-.19-12.64-.67-19.46-.61-13.31.17-26.61-.82-39.9-.92-2.68-.02-3.44-.82-3.21-3.5.23-2.79-.1-5.56-.27-8.32-.15-2.45.61-4.53,1.7-6.65.27-.55.57-1.09.86-1.64,3.23-6.16,6.69-12.25,10.13-18.31,3.65-6.35,7.59-12.6,10.42-19.4.52-1.3,1.28-1.8,2.79-1.82,9.65-.13,19.29.02,28.94.13,9.52.08,19.02.04,28.52.08,9.27.02,18.56.06,27.85.04,12.41,0,24.83.02,37.26-.13,7.95-.1,15.91-.17,23.88-.06,2.01.02,4.05.04,6.08.04,5.93.04,11.87-.02,17.8-.13,6.44-.13,12.85-.34,19.27-.17h.44q4.72-.23,4.49,4.42c-.27,5.56-.27,11.13.31,16.63Z"/>
  <path class="cls-2" d="m233.79,54.03l2.6,1.89c-5.3,7.51-11.03,14.68-16.71,21.91-1.66,2.12-3.35,4.21-5.01,6.33-.31.38-.61.82-.25,1.05l-1.24,2.43c-.23,0-.52.29-.94.86-.94,1.28-2.26,2.22-3.33,3.35-3.96,4.13-11.03,2.41-12.92-2.1-.69-1.64-1.28-1.55-2.52-.23-2.43,2.62-5.18,5.07-9.23,4.03-2.56-.67-5.18-1.28-6.5-4.09-.99-2.08-1.66-2.1-3.17-.5-3.65,3.92-9.92,5.72-14.47.71-1.22-1.34-1.8.13-2.35.75-1.97,2.24-4.19,3.92-7.34,4.09-2.16.13-3.96-.48-5.35-2.18-.99-1.24-1.93-1.36-3.31-.36-4.89,3.56-9.41,2.56-12.64-2.7-.59-.96-.8-1.24-1.8-.23-1.97,2.01-3.8,4.32-7.19,4.21-3.69-.08-5.89-2.29-7.82-4.84-1.09-1.47-1.4-1.11-2.24.08-2.62,3.69-6.67,4.42-10.71,2.24-1.66-.9-3.29-1.78-4.55-3.25-.36-.44-.67-.63-.99-.63l.15-4.7c4.19.13,8.26.23,12.35.19,12.58-.08,25.14.86,37.72.84,14.2-.04,28.37,1.03,42.57.99,6.94-.02,13.9.36,20.84.67,1.72.08,2.81-.42,3.88-1.76,7.63-9.58,15.31-19.12,22.48-29.06Z"/>
  <path class="cls-4" d="m235.87,12.72c-.67.06-1.03-.36-1.3-.88.69-.06,1.26.04,1.3.88Z"/>
  <path class="cls-2" d="m197.03,16.69l-.02,4.15c-2.03,0-4.07-.02-6.08-.04-7.97-.1-15.94-.04-23.88.06-12.43.15-24.85.13-37.26.13-9.29.02-18.58-.02-27.85-.04-9.5-.04-19,0-28.52-.08-9.65-.1-19.29-.25-28.94-.13-1.51.02-2.26.52-2.79,1.82-2.83,6.79-6.77,13.04-10.42,19.4-3.44,6.06-6.9,12.14-10.13,18.31l-2.75-1.47c2.62-5.91,5.62-10.88,8.51-15.94,3.88-6.77,7.57-13.65,11.32-20.49.25-.44.65-.94.31-1.43-.38-.55-1.07-.31-1.64-.31-1.01-.02-1.28.8-1.72,1.47-4.76,7.53-9.31,15.18-14.36,22.5l-2.54-1.72c.08-.13.15-.23.23-.36,4.24-6.71,8.43-13.44,12.69-20.15.67-1.09.55-1.51-.8-1.61-4.34-.36-8.74.46-13.08-.34-.63-.13-.99,0-1.2.29l-3.96-.59c.94-.65,1.53-1.47,2.01-2.5,1.85-3.92,4.78-6.44,9.29-6.81,2.68-.21,4.32,1.3,5.83,3.15.69.86,1.01,1.7,1.91-.1,1.72-3.46,5.14-4.93,9.31-4.42,3.38.42,6.58,1.24,8.89,4.03.71.88,1.32.34,1.7-.29,3.9-6.75,12.58-5.89,17.4-.1,1.26,1.51,1.87,1.26,2.91.13,1.72-1.87,3.63-3.54,6.4-3,2.03.4,4,1.15,5.62,2.6.75.65,1.55,1.26,2.37,1.85.5.34.94.36,1.51-.17,3.98-3.59,8.7-4.34,13.82-3.4,1.15.23,2.14.9,3.06,1.57,1.26.9,2.22.69,3.35-.27,4-3.44,9.02-3.54,13.23-.4.99.73,1.95,1.49,2.98,2.31,1.34-1.45,2.35-3.27,4.24-4.09,4.19-1.82,9.52-.27,12.33,3.48.82,1.11,1.22,1.45,2.43-.06,3.67-4.57,11.24-6.08,15.68-.17.69.92,1.15.96,1.89.21.25-.25.5-.52.73-.8,4.47-5.89,11.91-5.6,15.87.63.65,1.03,1.07.92,1.8.17,3.8-3.96,8.3-4.74,13.19-2.43,1.85.88,2.75,2.58,3.8,4.07.61.82.9,1.4,1.3,1.4Z"/>
  <path class="cls-2" d="m93.95,82.17l-.15,4.7c-.36,0-.69.29-1.05.8-2.91,4.28-8.09,4.45-11.78.88-2.24-2.14-2.81-2.08-4.82.34-2.7,3.23-8.56,3.33-11.62.19-.84-.88-1.51-2.2-2.52-2.54-1.4-.48-1.53,1.45-2.41,2.16-2.14,1.76-4.28,3.17-7.15,3.17s-4.91-1.15-6.67-3.15c-.88-.99-1.4-1.36-2.81-.31-3.98,2.98-8.58,2.52-12.25-.96-.71-.69-1.15-.88-1.99-.25-4.78,3.48-9.54,2.03-14.15-.36-2.26-1.15-3.06-4.28-2.05-7.17.31-.92.38-1.26-.61-1.8-1.76-.96-3.04-2.45-3.02-4.68.27-.5.78-1.01.8-1.51.08-2.01,1.09-3.54,2.37-4.97.92-1.03.5-1.74-.5-2.5-1.43-1.09-2.52-2.68-2.14-4.45.44-1.99.8-4.03,1.8-5.89,1.32-2.47.86-4.15-1.11-6.23-.44-.46-1.09-.71-1.2-1.49-.38-2.68.46-5.18,1.72-7.38.84-1.49,1.22-2.45-.17-3.67-2.29-2.01-4.13-4.28-3.59-7.63.57-3.31,2.7-5.51,5.28-7.34l3.96.59c-.25.34-.27.88-.31,1.45-.34,5.56.48,11.05,1.01,16.56.17,1.68-.34,3.48.57,5.28.34-.44.63-.78.9-1.13l2.54,1.72c-.13.17-.23.36-.36.52-2.94,4.21-3.38,8.41-2.08,13.67l2.75,1.47c-.29.55-.59,1.09-.86,1.64-1.09,2.12-1.85,4.19-1.7,6.65.17,2.77.5,5.54.27,8.32-.23,2.68.52,3.48,3.21,3.5,13.29.1,26.59,1.09,39.9.92,6.81-.06,13.61.42,19.46.61,4.36.04,8.49.15,12.52.27Z"/>
  <path class="cls-3" d="m38.55,20.94c.34.48-.06.99-.31,1.43-3.75,6.84-7.44,13.71-11.32,20.49-2.89,5.05-5.89,10.02-8.51,15.94-1.3-5.26-.86-9.46,2.08-13.67.13-.17.23-.36.36-.52,5.05-7.32,9.6-14.97,14.36-22.5.44-.67.71-1.49,1.72-1.47.57,0,1.26-.23,1.64.31Z"/>
  <path class="cls-1" d="m30.42,20.75c1.34.1,1.47.52.8,1.61-4.26,6.71-8.45,13.44-12.69,20.15-.08.13-.15.23-.23.36-.27.36-.57.69-.9,1.13-.9-1.8-.4-3.61-.57-5.28-.52-5.51-1.34-11.01-1.01-16.56.04-.57.06-1.11.31-1.45.21-.29.57-.42,1.2-.29,4.34.8,8.74-.02,13.08.34Z"/>
  <path class="cls-4" d="m11.57,64.2c1.01.75,1.43,1.47.5,2.5-1.28,1.43-2.29,2.96-2.37,4.97-.02.5-.52,1.01-.8,1.51-.15-2.03-.04-3.98,1.4-5.66.84-.96,1.55-1.66.04-3.21-2.45-2.52-2.16-5.91-.61-8.95,1.15-2.18,1.8-3.92-.29-6.08-2.41-2.5-1.51-5.66-.78-8.64.08-.27.27-.52.4-.78,1.11-2.16,1.26-3.9-.86-5.89-2.62-2.45-2.68-4.34-1.32-6.5-.55,3.35,1.3,5.62,3.59,7.63,1.38,1.22,1.01,2.18.17,3.67-1.26,2.2-2.1,4.7-1.72,7.38.1.78.75,1.03,1.2,1.49,1.97,2.08,2.43,3.75,1.11,6.23-1.01,1.87-1.36,3.9-1.8,5.89-.38,1.76.71,3.35,2.14,4.45Z"/>
</svg>