<?xml version="1.0" encoding="UTF-8"?>
<svg id="Layer_1" data-name="Layer 1" xmlns="http://www.w3.org/2000/svg" viewBox="0 0 251.66 91.83">
  <defs>
    <style>
      .cls-1 {
        fill: #e6aeb1;
      }

      .cls-1, .cls-2, .cls-3, .cls-4, .cls-5 {
        stroke-width: 0px;
      }

      .cls-2 {
        fill: #9da8d5;
      }

      .cls-3 {
        fill: #781b1b;
      }

      .cls-4 {
        fill: #4f1a46;
      }

      .cls-5 {
        fill: #9f5450;
      }
    </style>
  </defs>
  <path class="cls-2" d="m245.8,65.12c1.34,5.45-4.19,11.03-7.74,12.71-1.24.61-2.7.31-3.94-.48,0-.65.06-1.32-.38-1.91,2.03.06,3.04-.94,2.66-2.96-.42-2.26-.1-4.49-.1-6.73,3.21.57,6.29-.84,9.5-.63Z"/>
  <path class="cls-3" d="m245.57,63.63c.29.27.31.61.21.96-.31-.25-.25-.61-.21-.96Z"/>
  <path class="cls-4" d="m245.78,64.59c.02.19.02.36.02.52-3.21-.21-6.29,1.2-9.5.63.19-2.03-.61-4.05-.27-6.08,1.61-.5,3.23-1.01,4.82-1.53,2.18,1.32,3.98,2.94,4.72,5.49-.04.36-.1.71.21.96Z"/>
  <path class="cls-2" d="m244.17,24.96c.92,5.07-1.28,9.12-4.21,12.92-.55.71-1.59,1.13-1.36,2.31-1.24-1.61-2.45-.8-3.65.06-.69-3.8-.71-7.65-.48-11.51,1.78-.65,3.56-.29,5.37-.1.48.06.92.27,1.47.21,2.68-.38,2.89-.63,2.87-3.88Z"/>
  <path class="cls-4" d="m244.17,24.96c.02,3.25-.19,3.5-2.87,3.88-.55.06-.99-.15-1.47-.21-1.8-.19-3.59-.55-5.37.1-.73-2.89-.06-5.81-.19-8.72.29-.61.96-.99.92-1.76,5.22-.04,7.63,1.78,8.97,6.71Z"/>
  <path class="cls-3" d="m243.69,45.76c.78,3.8.63,7.4-2.12,10.46-.55.59-.84,1.13-.71,1.91-1.59.52-3.21,1.03-4.82,1.53-.31-4.15-.94-8.28-.84-12.48,2.52.13,4.93-.96,7.46-.69.31.02.69-.48,1.03-.73Z"/>
  <path class="cls-4" d="m243.69,45.76c-.34.25-.71.75-1.03.73-2.54-.27-4.95.82-7.46.69-.08-2.31-.17-4.61-.25-6.94,1.2-.86,2.41-1.68,3.65-.06,2.16,1.45,3.94,3.23,5.1,5.58Z"/>
  <path class="cls-5" d="m236.41,72.48c.38,2.01-.63,3.02-2.66,2.96-4.13-.19-8.26-.23-12.35.31-1.55-.88-3.12-.06-4.7-.13-1.51-.04-3.04-.1-4.55-.13l.08-3.06c1.47,0,1.68-1.22,1.74-2.37.1-2.37,1.28-4.32,2.37-6.29,2.96-5.37,7.3-9.41,12.1-13.08,2.12-1.61,1.97-3.06-.29-4.57-1.32-.88-2.73-1.72-3.92-2.77-6.02-5.26-9.73-11.91-11.57-19.63-.23-.94-.65-1.55-1.53-1.57l.02-2.94,7.3.06c4.07.69,8.16.02,12.22-.04,1.36-.02,2.52-.04,3.61.78.13,2.91-.55,5.83.19,8.72-.23,3.86-.21,7.72.48,11.51.08,2.33.17,4.63.25,6.94-.1,4.19.52,8.32.84,12.48-.34,2.03.46,4.05.27,6.08,0,2.24-.31,4.47.1,6.73Z"/>
  <path class="cls-3" d="m235.19,18.25c.04.78-.63,1.15-.92,1.76-1.09-.82-2.24-.8-3.61-.78-4.07.06-8.16.73-12.22.04.1-2.91.52-5.83-.17-8.72,5.33-.55,13.96,1.95,16.92,7.7Z"/>
  <path class="cls-4" d="m233.75,75.44c.44.59.38,1.26.38,1.91-2.68,1.3-4.57,3.69-7.17,5.12-1.76.99-3.46,2.03-5.47,2.45-.1-.34-.38-.71-.29-.99.9-2.7-.02-5.45.21-8.18,4.09-.55,8.22-.5,12.35-.31Z"/>
  <path class="cls-4" d="m228.15,46.12c2.26,1.51,2.41,2.96.29,4.57-4.8,3.67-9.14,7.72-12.1,13.08-1.09,1.97-2.26,3.92-2.37,6.29-.06,1.15-.27,2.37-1.74,2.37h-.19c-1.76-.15-1.4-1.53-1.4-2.85.15-1.51.59-3.15,1.36-4.65,2.94-5.68,6.56-10.86,11.85-14.68,2.1-1.51,1.95-1.4-.1-3.08-4.15-3.38-7.91-7.15-10.21-12.12-1.2-2.58-2.37-5.18-3.56-7.76-.5-1.09-.57-2.24-.46-3.44.06-1.03.59-1.72,1.61-1.7.88.02,1.3.63,1.53,1.57,1.85,7.72,5.56,14.36,11.57,19.63,1.2,1.05,2.6,1.89,3.92,2.77Z"/>
  <path class="cls-1" d="m223.75,47.17c2.05,1.68,2.2,1.57.1,3.08-5.28,3.82-8.91,9-11.85,14.68-.78,1.51-1.22,3.15-1.36,4.65,0,1.32-.36,2.7,1.4,2.85h.19l-.08,3.06c-2.18-.08-4.34-.15-6.52-.19-.71,0-1.45-.23-2.12.21-3.54.15-7.09-.4-10.61.19-5.3-.06-10.59-.65-15.89-.06-4.07.42-8.14.02-12.2.1-4.61-.38-9.21-.27-13.8.36-3.46-.23-6.92-.1-10.36.08-1.78-.44-3.61-.23-5.33-.08-2.54.23-5.05.02-7.57.15-3.8.06-7.59.13-11.36.21-5.14.31-10.27-.4-15.39.13-.71.08-1.45-.21-2.12.21-2.37-.02-4.74-.02-7.11-.04-1.22-1.13-2.5,0-3.75-.08-3.61-.29-7.19-.21-10.78.36-.46-.02-.94-.04-1.43-.06-.5-.42-1.03-.46-1.57,0-2.94.25-5.91-.44-8.85.29-.21-.34-.52-.57-.9-.48-4.65,1.26-9.39.08-14.07.5-2.89.36-5.79-.04-8.68.04l-.08-3.98c.21,0,.44-.04.69-.13,1.51-.55.84-1.93.52-3.02-2.56-8.83-7.59-15.73-15.68-20.23-1.22-.67-1.66-1.09-.13-1.97,1.72-.96,3.35-2.08,4.91-3.29,5.56-4.3,9.29-10.06,12.54-16.17.73-1.38,1.57-2.81,1.57-4.49.1-1.82-.21-2.43-1.32-2.54l.06-3c.99.04,1.99.06,3,.06.69-.02,1.49.27,2.01-.5,5.51.27,11.01.9,16.52.17.48.59,1.17.48,1.8.55,5.22.42,10.44-.1,15.66.06.44.02.86-.06,1.13-.48,3.8.5,7.61.38,11.41.46,5.7.29,11.41.55,17.11.27,2.39-.13,4.8.1,7.19.1.92,0,1.89.34,2.77-.21,1.78,0,3.56.02,5.35.02,5.89.27,11.78.63,17.68.13,4.97-.44,9.92.27,14.89-.04h.02c.1.29-.02.84.5.78,5.05-.69,10.11-.8,15.18-.15.96.13,1.89.06,2.68-.55,3.52.04,7.05.08,10.57.1,2.89.13,5.75.46,8.64.02,1.55-.25,3.12.78,4.68,0,.42,0,.84-.02,1.26-.04.69.15,1.4.36,2.08-.06,1.4,0,2.79.02,4.19.02l-.02,2.94c-1.03-.02-1.55.67-1.61,1.7-.1,1.2-.04,2.35.46,3.44,1.2,2.58,2.37,5.18,3.56,7.76,2.31,4.97,6.06,8.74,10.21,12.12Zm-61.4-22.58c.86-.44,1.26-1.32.86-2.24-.44-1.03-1.38-.94-2.26-.63-1.09.4-2.22.8-3.23,1.36-4.09,2.37-8.01,1.85-11.68-.82-1.72-1.26-3.12-1.11-4.74.08-2.52,1.85-5.39,2.91-8.41,1.74-3.31-1.28-6.06-1.8-9.52.34-2.89,1.76-6.56.78-9.48-1.4-1.34-1.01-2.79-1.51-4.28-.63-3.98,2.35-7.88,2.29-11.78-.17-.9-.57-1.95-.99-2.66.21-.75,1.26.1,1.99,1.09,2.66,4.47,3.1,9.12,3.15,13.88.88.86-.4,1.4-.44,2.18.06,4.84,3.1,9.88,3.29,14.99.71.86-.44,1.49-.52,2.41-.13,4.28,1.85,8.53,1.78,12.54-.78,1.09-.69,1.95-.65,3,0,2.16,1.36,4.59,1.85,6.23,2.08,4.61.23,7.72-1.68,10.86-3.33Zm.61,48.23c.46-.99-.06-1.82-.99-2.39-4.45-2.75-9.06-3.06-13.76-.71-1.13.57-1.95.48-3-.1-4.7-2.7-9.48-2.66-14.22-.19-1.09.59-1.91.69-3.04.23-4.32-1.76-8.49-1.32-12.33,1.26-1.13.78-1.87.67-2.89.02-2.1-1.32-4.51-1.64-6.1-1.91-4.68-.31-7.7,1.99-10.99,3.52-.88.42-1.05,1.43-.63,2.31.44.92,1.28.84,2.1.5.86-.38,1.78-.69,2.58-1.2,4.45-2.79,8.72-2.39,12.9.55,1.15.8,2.33.92,3.44-.02,3.82-3.25,7.91-3.69,12.37-1.36,1.17.61,2.68.8,3.71-.21,3.25-3.17,7.09-3,10.48-1.09,2.98,1.66,5.39,2.24,8.16.08.31-.25.82-.25,1.24-.38,3.17-1.05,5.87.15,8.53,1.64.92.52,1.93.55,2.43-.55Z"/>
  <path class="cls-3" d="m221.4,75.75c-.23,2.73.69,5.47-.21,8.18-.08.27.19.65.29.99-3.9,1.13-7.26-.1-10.53-2.2-2.22-1.43-4.07-3.35-6.27-4.82-.17-.9.44-2.18-1.17-2.37.67-.44,1.4-.21,2.12-.21,2.18.04,4.34.1,6.52.19,1.51.02,3.04.08,4.55.13,1.57.06,3.15-.75,4.7.13Z"/>
  <path class="cls-4" d="m218.27,10.56c.69,2.89.27,5.81.17,8.72l-7.3-.06c-1.4,0-2.79-.02-4.19-.02-.69-.13-1.38-.27-2.08.06-.42.02-.84.04-1.26.04l.06-2.26c3.8-4.59,8.58-6.92,14.59-6.48Z"/>
  <path class="cls-3" d="m204.87,19.26c.69-.34,1.38-.19,2.08-.06-.67.42-1.38.21-2.08.06Z"/>
  <path class="cls-4" d="m203.51,75.52c1.61.19,1.01,1.47,1.17,2.37-2.12,3.06-4.53,5.83-7.53,8.03-1.2.88-2.47,1.47-3.92,1.72-.99-.29-.75-1.09-.73-1.78.13-3.38.25-6.77.4-10.15,3.52-.59,7.07-.04,10.61-.19Z"/>
  <path class="cls-2" d="m203.68,17.04l-.06,2.26c-1.55.78-3.12-.25-4.68,0-2.89.44-5.75.1-8.64-.02.08-3.17.17-6.33.27-9.48,6.16-.84,10.42,1.76,13.11,7.23Z"/>
  <path class="cls-2" d="m192.9,75.71c-.15,3.38-.27,6.77-.4,10.15-.02.69-.25,1.49.73,1.78-3.84.78-6.73-1.38-9.77-3.1-2.81-1.59-5.39-3.5-6.56-6.73.06-.71.75-1.4.1-2.16,5.3-.59,10.59,0,15.89.06Z"/>
  <path class="cls-4" d="m190.57,9.8c-.1,3.15-.19,6.31-.27,9.48-3.52-.02-7.05-.06-10.57-.1-1.57-1.3-.34-3.02-.67-4.51,3.21-3.15,6.98-4.89,11.51-4.86Z"/>
  <path class="cls-3" d="m179.06,14.67c.34,1.49-.9,3.21.67,4.51-.8.61-1.72.67-2.68.55-5.07-.65-10.13-.55-15.18.15-.52.06-.4-.48-.5-.78.15-1.43.31-2.87.46-4.32.17-1.43.31-2.87.5-4.3.19-1.53-.13-2.54-1.97-2.22,3.44-.92,6.61.17,9.79,1.22,3.33,1.09,6.4,2.7,8.91,5.2Z"/>
  <path class="cls-4" d="m177.01,75.64c.65.75-.04,1.45-.1,2.16-1.45.1-1.8,1.47-2.62,2.29-2.75,2.68-5.72,4.86-9.81,4.7.1-3.02.23-6.02.34-9.04,4.07-.08,8.14.31,12.2-.1Z"/>
  <path class="cls-3" d="m164.8,75.75c-.1,3.02-.23,6.02-.34,9.04-4.97.29-8.72-2.1-12.08-5.39-.5-.48-.9-1.07-1.36-1.61.4-.57-.02-1.11-.02-1.68,4.59-.63,9.18-.73,13.8-.36Z"/>
  <path class="cls-4" d="m163.21,22.34c.4.92,0,1.8-.86,2.24-3.15,1.66-6.25,3.56-10.86,3.33-1.64-.23-4.07-.71-6.23-2.08-1.05-.65-1.91-.69-3,0-4,2.56-8.26,2.62-12.54.78-.92-.4-1.55-.31-2.41.13-5.12,2.58-10.15,2.39-14.99-.71-.78-.5-1.32-.46-2.18-.06-4.76,2.26-9.41,2.22-13.88-.88-.99-.67-1.85-1.4-1.09-2.66.71-1.2,1.76-.78,2.66-.21,3.9,2.45,7.8,2.52,11.78.17,1.49-.88,2.94-.38,4.28.63,2.91,2.18,6.58,3.17,9.48,1.4,3.46-2.14,6.21-1.61,9.52-.34,3.02,1.17,5.89.1,8.41-1.74,1.61-1.2,3.02-1.34,4.74-.08,3.67,2.66,7.59,3.19,11.68.82,1.01-.57,2.14-.96,3.23-1.36.88-.31,1.82-.4,2.26.63Z"/>
  <path class="cls-4" d="m161.97,70.42c.92.57,1.45,1.4.99,2.39-.5,1.09-1.51,1.07-2.43.55-2.66-1.49-5.37-2.68-8.53-1.64-.42.13-.92.13-1.24.38-2.77,2.16-5.18,1.57-8.16-.08-3.4-1.91-7.23-2.08-10.48,1.09-1.03,1.01-2.54.82-3.71.21-4.47-2.33-8.56-1.89-12.37,1.36-1.11.94-2.29.82-3.44.02-4.17-2.94-8.45-3.33-12.9-.55-.8.5-1.72.82-2.58,1.2-.82.34-1.66.42-2.1-.5-.42-.88-.25-1.89.63-2.31,3.29-1.53,6.31-3.84,10.99-3.52,1.59.27,4,.59,6.1,1.91,1.03.65,1.76.75,2.89-.02,3.84-2.58,8.01-3.02,12.33-1.26,1.13.46,1.95.36,3.04-.23,4.74-2.47,9.52-2.52,14.22.19,1.05.59,1.87.67,3,.1,4.7-2.35,9.31-2.03,13.76.71Z"/>
  <path class="cls-4" d="m160.36,8.25c1.85-.31,2.16.69,1.97,2.22-.19,1.43-.34,2.87-.5,4.3-.15,1.45-.31,2.89-.48,4.32-4.97.31-9.92-.4-14.89.04.04-.73.08-1.49.13-2.24,2.96-3.25,6.21-6.16,10.4-7.76,1.07-.42,2.24-.61,3.38-.88Z"/>
  <path class="cls-4" d="m151.01,76.11c0,.57.42,1.11.02,1.68-2.87,3.06-5.96,5.83-10.3,6.61-.82-2.73-.06-5.45-.08-8.2,3.44-.19,6.9-.31,10.36-.08Z"/>
  <path class="cls-2" d="m146.58,16.89c-.04.75-.08,1.51-.13,2.24-5.89.5-11.78.15-17.68-.13.27-3.46.57-6.94.84-10.42,3.63-.04,7.32-.21,10.67,1.32,3.06,1.36,4.93,4,6.29,6.98Z"/>
  <path class="cls-2" d="m140.65,76.19c.02,2.75-.73,5.47.08,8.2-6,.63-9.94-2.5-13.02-7.15,0-.31.02-.65.04-.99,2.52-.13,5.03.08,7.57-.15,1.72-.15,3.54-.36,5.33.08Z"/>
  <path class="cls-4" d="m129.62,8.59c-.27,3.48-.57,6.96-.84,10.42-1.78,0-3.56-.02-5.35-.02-1.82-.06-3.65-.15-5.47-.21q-3.4-.08-3.5-3.59c4.03-4.59,9.21-6.5,15.16-6.61Z"/>
  <path class="cls-4" d="m127.75,76.25c-.02.34-.04.67-.04.99-2.24,2.68-4.63,5.22-7.7,7-1.34.78-2.66,1.53-4.32,1.15.69-2.94.44-5.96.69-8.93,3.77-.08,7.57-.15,11.36-.21Z"/>
  <path class="cls-3" d="m117.96,18.78c1.82.06,3.65.15,5.47.21-.88.55-1.85.21-2.77.21-2.39,0-4.8-.23-7.19-.1-5.7.27-11.41.02-17.11-.27.67-.44.9-1.03.9-1.85.04-2.54.17-5.07.25-7.61,5.16,1.22,10.19,2.77,14.82,5.43.65.36,1.28,1.05,2.12.4q.1,3.5,3.5,3.59Z"/>
  <path class="cls-3" d="m116.39,76.46c-.25,2.98,0,6-.69,8.93-6.14.75-10.78-1.76-14.3-6.65.59-1.15.44-1.87-1.07-1.82-.48.02-.96-.08-1.45-.13.67-.42,1.4-.13,2.12-.21,5.12-.52,10.25.19,15.39-.13Z"/>
  <path class="cls-4" d="m100.33,76.92c1.51-.04,1.66.67,1.07,1.82-2.22,2.26-4,5.07-7.55,5.51-1.82.23-2.64-.4-2.35-2.39.23-1.68.19-3.4.27-5.12,2.37.02,4.74.02,7.11.04.48.04.96.15,1.45.13Z"/>
  <path class="cls-4" d="m97.52,9.36c-.08,2.54-.21,5.07-.25,7.61,0,.82-.23,1.4-.9,1.85-3.8-.08-7.61.04-11.41-.46v-2.5c2.66-5.43,6.46-7.4,12.56-6.5Z"/>
  <path class="cls-2" d="m91.5,81.87c-.29,1.99.52,2.62,2.35,2.39-3.73.67-7.05-.78-10.34-2.12-1.53-.63-3.08-1.17-4.4-2.2-.52-.4-1.24-.34-1.89-.15.02-.92.02-1.85.02-2.77,3.59-.57,7.17-.65,10.78-.36,1.26.08,2.54-1.05,3.75.08-.08,1.72-.04,3.44-.27,5.12Z"/>
  <path class="cls-2" d="m84.96,15.86v2.5c-.27.42-.69.5-1.13.48-5.22-.17-10.44.36-15.66-.06-.63-.06-1.32.04-1.8-.55.13-3.63.25-7.23.38-10.84,4.32-.36,7.97,1.3,11.49,3.65,2.31,1.51,4.21,3.61,6.73,4.82Z"/>
  <path class="cls-4" d="m77.24,77.03c0,.92,0,1.85-.02,2.77-2.81,5.12-7.23,7.36-12.94,7.3.29-3.27,1.2-6.5,1.11-9.83,2.94-.73,5.91-.04,8.85-.29h1.57c.48.02.96.04,1.43.06Z"/>
  <path class="cls-3" d="m75.81,76.97h-1.57c.55-.46,1.07-.42,1.57,0Z"/>
  <path class="cls-4" d="m66.73,7.39c-.13,3.61-.25,7.21-.38,10.84-5.51.73-11.01.1-16.52-.17-.02-.84-.06-1.66-.08-2.5,4.13-5.89,10.04-8.07,16.98-8.18Z"/>
  <path class="cls-3" d="m65.39,77.26c.08,3.33-.82,6.56-1.11,9.83-5.64.29-10.02-1.61-12.39-7.05-.06-.15-.4-.15-.59-.23-.17-.88.29-1.99-.88-2.54,4.68-.42,9.41.75,14.07-.5.38-.08.69.15.9.48Z"/>
  <path class="cls-4" d="m50.42,77.28c1.17.55.71,1.66.88,2.54-3.73,3.25-7.67,6.1-12.71,7-1.03-.23-.78-1.05-.75-1.74.1-2.5.21-5.01.31-7.51,1.13-.08,2.29-.19,3.42-.25h.17c2.89-.08,5.79.31,8.68-.04Z"/>
  <path class="cls-2" d="m49.75,15.57c.02.84.06,1.66.08,2.5-.52.78-1.32.48-2.01.5-1.01,0-2.01-.02-3-.06-1.03-.02-2.05-.06-3.04,0-4.11.19-8.18-.06-12.25-.17.36-.59.61-1.2.46-1.87-.63-3.17-.04-6.33-.08-9.5,5.2.02,10.51-.46,14.95,3.19,1.32,1.11,2.62,2.2,3.35,3.84.27.65.59,1.47,1.53,1.57Z"/>
  <path class="cls-4" d="m44.76,21.5c1.11.1,1.43.71,1.32,2.54,0,1.68-.84,3.1-1.57,4.49-3.25,6.1-6.98,11.87-12.54,16.17-1.55,1.22-3.19,2.33-4.91,3.29-1.53.88-1.09,1.3.13,1.97,8.09,4.51,13.13,11.41,15.68,20.23.31,1.09.99,2.47-.52,3.02-.25.08-.48.13-.69.13-1.07,0-1.57-1.09-1.89-2.14-1.68-5.37-4.07-10.32-8.37-14.15-2.45-2.2-5.1-4.15-8.11-5.51-.84-.4-1.82-.59-1.85-1.87-.04-1.36.36-2.35,1.61-3.06,2.41-1.38,4.78-2.83,6.98-4.55,5.6-4.32,8.97-10.3,12.25-16.33.34-.63.48-1.38.59-2.12.17-1.15.31-2.24,1.89-2.1Z"/>
  <path class="cls-5" d="m44.82,18.51l-.06,3c-1.57-.15-1.72.94-1.89,2.1-.1.73-.25,1.49-.59,2.12-3.27,6.04-6.65,12.01-12.25,16.33-2.2,1.72-4.57,3.17-6.98,4.55-1.26.71-1.66,1.7-1.61,3.06.02,1.28,1.01,1.47,1.85,1.87,3.02,1.36,5.66,3.31,8.11,5.51,4.3,3.84,6.69,8.79,8.37,14.15.31,1.05.82,2.14,1.89,2.14l.08,3.98h-.17c-1.13.06-2.29.17-3.42.25-5.33,0-10.65-.86-15.96.1-3.86-.31-3.9-.34-3.98-3.4.19-.29.21-.59-.02-.86,0-.34-.02-.65-.02-.96.29-3.98-.27-7.93-.65-11.87-.21-2.22-.4-4.42-.59-6.65.27-4.38-.36-8.7-.88-13.02-.55-2.35-.46-4.76-.69-7.13-.61-5.01-.96-10.04-.86-15.08.44-1.22,1.51-.8,2.24-.65,4.26.84,8.53.02,12.79.27,4.07.1,8.14.36,12.25.17.99-.06,2.01-.02,3.04,0Z"/>
  <path class="cls-2" d="m38.15,77.57c-.1,2.5-.21,5.01-.31,7.51-.02.69-.27,1.51.75,1.74-4.45.92-8.53.21-12.31-2.5-1.49-1.07-2.58-2.79-4.61-3,.17-1.22.34-2.43.52-3.65,5.3-.96,10.63-.1,15.96-.1Z"/>
  <path class="cls-4" d="m30,16.47c.15.67-.1,1.28-.46,1.87-4.26-.25-8.53.57-12.79-.27-.73-.15-1.8-.57-2.24.65-.9.15-1.49-.48-2.12-.94,1.26-5.85,9.04-12.46,17.53-10.8.04,3.17-.55,6.33.08,9.5Z"/>
  <path class="cls-4" d="m22.2,77.68c-.19,1.22-.36,2.43-.52,3.65-5.51.25-8.76-2.12-10.23-7.44,1.87-2.24,4.4-1.38,6.73-1.43,0,.31.02.63.02.96,0,.27.02.57.02.86.08,3.06.13,3.08,3.98,3.4Z"/>
  <path class="cls-3" d="m18.19,73.42c.23.27.21.57.02.86,0-.29-.02-.59-.02-.86Z"/>
  <path class="cls-3" d="m17.52,60.59c.38,3.94.94,7.88.65,11.87-2.33.04-4.86-.82-6.73,1.43-.84-3.1-.27-6.19.34-9.21.23-1.11.52-2.22.69-3.35,1.68-.25,3.35-.5,5.05-.73Z"/>
  <path class="cls-4" d="m16.93,53.94c.19,2.22.38,4.42.59,6.65-1.7.23-3.38.48-5.05.73-1.68-2.08-3.84-3.84-4.3-6.71,2.98.48,5.81-.75,8.76-.67Z"/>
  <path class="cls-2" d="m16.05,40.92c.52,4.32,1.15,8.64.88,13.02-2.96-.08-5.79,1.15-8.76.67-1.45-3.38-.23-6.21,1.78-8.91.34-.44,1.22-.67.9-1.53.5.02,1.03.02,1.53.06q3.54.34,3.67-3.31Z"/>
  <path class="cls-4" d="m15.36,33.79c.23,2.37.15,4.78.69,7.13q-.13,3.65-3.67,3.31c-.5-.04-1.03-.04-1.53-.06-2.47-2.45-3.46-5.62-4.24-8.87,3,.02,5.85-.84,8.74-1.51Z"/>
  <path class="cls-3" d="m14.5,18.72c-.1,5.03.25,10.06.86,15.08-2.89.67-5.75,1.53-8.74,1.51-1.05-6.25-.55-12.1,4.65-16.56.38-.31.67-.73,1.11-.96.63.46,1.22,1.09,2.12.94Z"/>
</svg>