<?xml version="1.0" encoding="UTF-8"?>
<svg id="Layer_1" data-name="Layer 1" xmlns="http://www.w3.org/2000/svg" viewBox="0 0 260.54 94.58">
  <defs>
    <style>
      .cls-1 {
        fill: #f798b3;
      }

      .cls-1, .cls-2, .cls-3, .cls-4 {
        stroke-width: 0px;
      }

      .cls-2 {
        fill: #9da8d5;
      }

      .cls-3 {
        fill: #781b1b;
      }

      .cls-4 {
        fill: #aa5d64;
      }
    </style>
  </defs>
  <path class="cls-3" d="m256.44,59.8c.4.78.71,1.49.34,2.26-.44.94-1.34.8-2.12.63-1.24-.27-1.74.23-1.91,1.4-.61,4.19-.23,8.43-.65,12.62-.08.9.75,1.2,1.26,1.68,1.66,1.64,1.74,3.08.4,4.99-1.49,2.12-3.04,4.03-5.79,4.68-2.18.5-3.94.13-5.18-1.74-.75-1.15-1.74-1.34-2.98-1.38-12.35-.38-24.68.06-37.03-.04-7.88-.08-15.77.06-23.65-.08-1.38-.02-2.29.15-2.05,1.87.15,1.26-.67,1.72-1.8,1.53-2.75-.44-5.33-1.45-7.57-3.04-1.61-1.13-1.34-2.96.46-3.84,2.08-1.01,4.24-1.89,6.42-2.62.29-.08.59-.15.86-.15.9,0,1.64.55,1.59,1.76-.02,1.17.61,1.11,1.36,1.13,8.68.1,17.36.5,26.06.02,2.62-.17,5.26.02,7.91.13,4.09.19,8.2.31,12.27-.1,3.04-.29,5.98-1.24,7.28-4.55,1.01.04,2.01.06,3.02.1-.02,1.2-.4,2.26-1.07,3.25-.73,1.05-.25,1.49.82,1.49,2.01,0,4.05-.13,6.08-.15.67-.02,1.09-.29,1.4-.84,1.3-2.16,3.15-3.59,5.62-4.09.9-.19,1.3-.63,1.2-1.49-.1-.71-.48-1.24-1.3-1.17-1.8.17-3.4-.57-4.99-1.2.02-1.26.06-2.52.1-3.77,1.15.59,2.29,1.3,3.5,1.7,1.45.48,2.62.17,2.68-1.72.04-1.32.13-2.64.19-3.94.06-1.36.5-2.7-1.8-2.83-1.51-.08-1.43-1.85-.99-2.85,1.01-2.18,2.43-4.17,4.13-5.85.88-.86,1.99-.86,2.47.44.78,2.16,2.39,3.8,3.46,5.77Z"/>
  <path class="cls-3" d="m250.99,26.65c1.01-.04,1.09.8,1.03,1.57-.1,1.36-1.2,1.72-2.18,1.61-1.38-.17-1.99.1-2.56,1.53-.48,1.15-.36,1.57.46,2.33.92.84,1.76,1.97.59,3.19-1.15,1.2-2.03.29-2.89-.63-.5-.57-1.15-.96-1.85-.21-.65.69-2.03,1.07-1.4,2.37.92,1.89,1.11,3.42-1.01,4.63-.4.21-.46,1.01-.67,1.53-.1-.1-.29-.21-.29-.29.44-4.57-.69-9.08-.52-13.63,2.35-1.36,2.31-3.69,2.33-5.91.04-3.77-1.07-7.21-4.59-9.02-3.5-1.78-7.15-2.01-10.27,1.11-2.41.21-4.8-.02-7.21-.13,1.03-1.24,1.24-2.35-.31-3.35-.82-.52-.86-1.32-.42-2.12.52-.94,1.38-.67,2.14-.44.52.19.99.65,1.51.84,1.53.5,2.08-.02,1.76-1.61-.19-.92-.69-2.01.42-2.56,1.03-.52,1.82.06,2.56.99,1.26,1.55,3.77,1.05,4.59-.78.34-.73.29-1.85,1.57-1.76,1.15.06,1.34.94,1.53,1.82.27,1.15,1.22,1.26,2.14,1.55,1.07.36,1.17-.48,1.57-1.03.46-.63.86-1.51,1.89-1.11.92.38,1.17,1.15,1.15,2.14-.04,3,1.01,3.65,3.65,2.26.4-.19.71-.52,1.11-.67.94-.34,1.91-.42,2.39.75.42,1.01.15,1.89-.86,2.39-.8.42-2.29.65-1.72,1.66.67,1.17.73,3.4,3.12,2.96.8-.13,1.68.02,1.82,1.09.13.9-.25,1.66-1.11,1.91-1.51.46-1.59,1.51-1.4,2.75.19,1.13.21,2.37,1.95,2.26Z"/>
  <path class="cls-1" d="m248.97,75.23c.1.86-.29,1.3-1.2,1.49-2.47.5-4.32,1.93-5.62,4.09-.31.55-.73.82-1.4.84-2.03.02-4.07.15-6.08.15-1.07,0-1.55-.44-.82-1.49.67-.99,1.05-2.05,1.07-3.25.31-.73.92-.84,1.64-.78.65.04,1.3.04,1.97.06q3.8.17,4.15-3.48c1.59.63,3.19,1.36,4.99,1.2.82-.06,1.2.46,1.3,1.17Z"/>
  <path class="cls-2" d="m242.79,69.09c-.04,1.26-.08,2.52-.1,3.77q-.36,3.65-4.15,3.48c-.67-.02-1.32-.02-1.97-.06-.71-.06-1.32.04-1.64.78-1.01-.04-2.01-.06-3.02-.1-4.15-.1-8.39-.69-12.48-.23-6.14.71-12.27-.46-18.31.23-8.03.9-16.02-.46-24.01.31-.59.06-1.17.1-1.76.1-4.97.25-9.96-.48-14.87-.04-7.86.73-15.68-.23-23.53.34-2.62.19-5.24.27-7.86.15-8.97-.48-17.93.25-26.9.29-6.33.02-12.73-.46-19.02.19-6.94.71-13.84-.36-20.74.42-.73.06-1.45.23-2.16.34-2.31-.02-4.61-.06-6.92-.08-1.97-.21-3.92-.29-5.87-.13-2.16-.44-4.21.21-6.29.52l-3.27-.13-6.79-.06c-3.73-.78-7.4.5-11.11.31h-.02c-.9-2.1-.69-4.3-.61-6.5.06-1.95.08-3.9.1-5.85,0-.69.27-1.51-.75-1.78,1.15-2.85,0-5.75.25-8.62.59-6.19-.42-12.35-.5-18.52-.04-3.04-.21-6.16-.31-9.27-.08-2.54-.99-4.99-.67-7.55.04-1.17.08-2.33.1-3.48.08-1.2.17-2.37.25-3.54.27-.15.55-.27.82-.42,3.17-.57,6.37.15,9.56-.25,1.17.08,2.35.15,3.54.23,12.64.4,25.31,1.32,37.93,1.07,5.87-.13,11.74.04,17.59.25,8.18.27,16.33.61,24.49.29,12.06-.44,24.05.92,36.04.36,13.9-.65,27.7.75,41.56.52,2.85-.04,5.75-.38,8.64-.4l6.92.19c1.87.04,3.73.08,5.6.15,2.2.08,4.4.15,6.61.23.92.04,1.85.06,2.77.1,2.41.1,4.8.34,7.21.13,3.12.13,6.25.27,9.37.36,1.85.04,2.62.92,2.58,2.7-.06,1.68-.19,3.35-.1,5.03.08,1.91-.57,3.94.69,5.72-.17,4.55.96,9.06.52,13.63,0,.08.19.19.29.29.08.27.29.55.25.82-.4,4.05.46,8.05.82,12.04.31,3.88.29,7.84,1.22,11.66Z"/>
  <path class="cls-1" d="m237.42,15.73c3.52,1.8,4.63,5.24,4.59,9.02-.02,2.22.02,4.55-2.33,5.91-1.26-1.78-.61-3.82-.69-5.72-.08-1.68.04-3.35.1-5.03.04-1.78-.73-2.66-2.58-2.7-3.12-.08-6.25-.23-9.37-.36,3.12-3.12,6.77-2.89,10.27-1.11Z"/>
  <path class="cls-3" d="m216.32,11.43c1.72,1.85,2.16,3.19.84,5.18-2.2-.08-4.4-.15-6.61-.23-.08-1.3-.84-2.01-2.05-2.12-1.57-.1-2.83.48-3.54,1.97l-6.92-.19c1.05-1.43,2.12-2.73,2.03-4.78-.04-1.49,1.3-2.2,2.81-2.08,1.28.1,2.14-.06,2.73-1.47.65-1.53,2.45-1.61,3.92-.46.46.36.9,1.15,1.28,1.11,2.7-.38,3.86,1.32,5.51,3.06Z"/>
  <path class="cls-1" d="m210.56,16.38c-1.87-.06-3.73-.1-5.6-.15.71-1.49,1.97-2.08,3.54-1.97,1.22.1,1.97.82,2.05,2.12Z"/>
  <path class="cls-3" d="m160.97,78.95c1.36.06,1.45.96,1.43,1.97-.04.73-.06,1.47-.08,2.2h-.04c-.04.94-.02,1.89-.13,2.83-.08.88-.82,1.15-1.57,1.22-.78.06-1.15-.4-1.36-1.13-.5-1.8-.34-3.63-.17-5.45.1-1.03.75-1.68,1.93-1.64Z"/>
  <path class="cls-3" d="m157.47,86.03c.25.94-.5,1.66-1.51,1.76-.9.08-1.61-.31-1.64-1.32-.04-1.47-.88-2.79-.63-4.28-.02-.73.02-1.43.55-2.05.46-.57.96-.92,1.68-.71.67.19,1.15.63,1.15,1.4-.04,1.74-.06,3.48.4,5.2Z"/>
  <path class="cls-3" d="m151.37,84.98c.29,1.24-.34,2.05-1.47,2.18-1.11.1-1.64-.75-1.74-1.8-.1-1.01-.17-2.01-.25-3.02-.02-1.43.48-2.5,2.12-2.35,1.76.17,1.8,1.22,1.26,2.64-.27.73-.1,1.55.08,2.35Z"/>
  <path class="cls-3" d="m146.31,9.04c0,.34.02.57-.02.78-.19.96.5,2.5-1.22,2.54-1.57.04-1.89-1.34-2.16-2.58-.04-.15-.02-.29-.02-.44.15-1.53-.29-3.71,2.05-3.65,2.37.08,1.05,2.24,1.36,3.35Z"/>
  <path class="cls-3" d="m138.53,81.9c.04.65-.04,1.3-.06,2.35-.25.9.67,3.21-2.01,2.6-2.39-.55-.71-2.7-1.2-4.07-.38-1.03.17-2.1,1.43-2.26.92-.13,1.76.25,1.85,1.38Z"/>
  <path class="cls-3" d="m131.3,80.64c1.53-.17,2.08.71,2.01,2.14-.02.27-.02.57-.06,1.51,0-.06.04.55-.13,1.09-.27.82-.88,1.34-1.8,1.24-.94-.08-1.11-.8-1.15-1.57-.02-.65-.02-1.3-.13-1.95-.19-1.15-.34-2.29,1.26-2.45Z"/>
  <path class="cls-3" d="m133.21,9.71h-.1c-.02.5-.04,1.03-.04,1.53,0,.8-.59,1.24-1.17,1.43-.69.23-1.32-.36-1.49-.96-.42-1.53-.75-3.08-.99-4.65-.1-.75.46-1.11,1.26-1.2,1.09-.08,1.93.31,2.24,1.28.27.8.21,1.72.29,2.58Z"/>
  <path class="cls-3" d="m127.82,8.77c.04.5-.02,1.01-.06,1.87-.15.69.46,2.26-1.47,2.16-1.68-.1-1.87-1.36-1.87-2.68,0-.38-.04-.73-.08-1.09-.1-1.01-.52-2.2,1.03-2.39,1.49-.17,2.35.61,2.45,2.14Z"/>
  <path class="cls-3" d="m118.09,81.76c1.38.1,1.43,1.24,1.38,2.26-.04,1.07-.06,2.29-1.68,2.22-1.59-.08-1.24-1.28-1.28-2.05.02-1.3-.06-2.54,1.57-2.43Z"/>
  <path class="cls-3" d="m113.85,9.83h-.06c0,.06,0,.15-.02.21-.29,1.13.71,3.02-1.24,3.23-2.05.23-1.72-1.78-1.97-3-.21-1.05-.1-2.16-.1-3.25.02-.8-.02-1.66,1.17-1.72,1.09-.04,1.89.44,2.08,1.49.19.99.1,2.01.15,3.04Z"/>
  <path class="cls-3" d="m107.94,7.21c.61.99.5,2.1.48,3.19-.02.57-.02,1.15-.08,1.72-.08.84-.75,1.13-1.38,1.09-1.66-.08-1.95-1.32-1.87-2.64.1-1.59-.78-3.65,1.64-4.36.71-.21.94.5,1.22,1.01Z"/>
  <path class="cls-3" d="m103.07,10.86c.02,1.03.1,2.16-1.34,2.26s-1.78-1.01-2.01-2.08c-.17-.86-.23-1.72-.27-2.6-.04-.73.04-1.53.94-1.7.88-.19,1.7-.08,2.16.92.48,1.05.52,2.1.52,3.19Z"/>
  <path class="cls-3" d="m95.23,7.67c1.51.96,1.2,3.06-.57,3.86-2.03.9-4.15,1.7-6.27,2.41-.34.1-.71.19-1.05.19-.67,0-1.22-.29-1.24-1.3-.04-1.49-.86-1.61-1.97-1.64-10.46-.1-20.91-.73-31.37-.27-4.82.23-9.65-.21-14.49-.21-2.62,0-4.93.94-6.5,3.23-1.2-.08-2.37-.15-3.54-.23-.1-1.34,1.36-1.95,1.59-3.15-2.47-.08-4.89-.17-7.28-.23-.75-.02-1.61.08-1.82.86-.36,1.22-1.45,1.8-2.05,2.77-.27.15-.55.27-.82.42-1.05.21-1.93.92-3.08.9-.78-.02-.99.71-1.01,1.43-.06.9.5,1.07,1.24,1.09.86.02,1.74.08,2.6.13-.02,1.15-.06,2.31-.1,3.48-.8-.06-1.59-.17-2.41-.19-.61-.02-1.24.19-1.2.96.13,2.22-.67,4.3-.92,6.48-.08.78-.13,1.34,1.11,1.22,2.2-.21,2.96.78,2.1,2.73-.94,2.14-2.33,4.05-3.96,5.7-.96.96-2.22.65-2.73-.57-.78-1.91-2.05-3.5-3.04-5.28-.55-.94-1.03-1.93-.29-2.83.69-.92,1.59-.65,2.5,0,.67.48,1.07-.08,1.2-.73.19-1.07.44-2.16.5-3.25.17-3.25.21-6.52.38-9.79.06-1.03-.38-1.59-1.09-2.2-1.82-1.53-1.82-3.15-.5-5.12,1.91-2.81,4.24-4.74,7.8-4.74,1.03,0,1.95.23,2.47,1.11,1.26,2.18,3,2.54,5.47,2.45,8.91-.29,17.82-.06,26.76.23,10.82.38,21.64-.36,32.44.25,1.13.06,1.85-.13,1.7-1.51-.23-2.01,1.11-2.2,2.54-1.8,2.45.69,4.78,1.76,6.92,3.15Z"/>
  <path class="cls-3" d="m53.36,78.97c2.31.02,4.61.06,6.92.08-1.2,1.85-2.45,3.59-2.45,6.02.02,1.11-1.61,1.59-2.62,1.45-1.4-.19-1.97.4-2.56,1.45-.86,1.53-2.16,1.85-3.4.57-.99-1.03-2.08-1.2-3.35-1.17-.92.02-1.97.25-2.52-.86-.63-1.32-1.22-2.43-2.68-3.31-1.38-.86-.46-2.62.5-3.82,2.08-.31,4.13-.96,6.29-.52.23,1.34.63,2.52,2.33,2.56,1.76.02,2.96-.75,3.54-2.43Z"/>
  <path class="cls-1" d="m47.49,78.84c1.95-.17,3.9-.08,5.87.13-.59,1.68-1.78,2.45-3.54,2.43-1.7-.04-2.1-1.22-2.33-2.56Z"/>
  <path class="cls-3" d="m38.53,82.43c.96.61.99,1.76.36,2.52-.63.73-1.55.5-2.35-.08-.46-.36-1.07-.46-1.57-.75-.65-.4-1.13-.02-1.57.31-.55.44-.17.96.06,1.38.5.94,1.03,1.99-.13,2.7-1.03.61-1.89-.04-2.64-.88-1.51-1.61-3.96-1.01-4.63,1.13-.23.69-.36,1.43-1.38,1.36-.88-.08-1.22-.52-1.53-1.3-.82-2.16-2.5-2.45-3.94-.71-.59.69-1.15,1.11-2.05.8-.88-.31-.84-1.07-.84-1.82.02-2.98-1.15-3.69-3.77-2.31-.25.15-.5.31-.73.48-.9.63-1.82.71-2.52-.23-.78-1.05-.36-2.08.69-2.54,2.18-.96,1.57-2.1.67-3.63-.59-1.01-1.11-1.22-2.08-.92-.92.29-1.61-.08-1.89-.99-.29-.94,0-1.82.99-2.12,2.12-.59.99-2.29,1.24-3.48.27-1.24-.86-1.03-1.55-1.28-.92-.34-1.87-.84-1.64-1.99.19-.94,1.07-1.47,2.03-1.28,1.45.27,2.2-.29,2.83-1.57.65-1.3.08-2.08-.71-2.89-.86-.92-1.13-2.1-.29-2.96.99-1.03,1.99-.27,2.73.67.52.67,1.15,1.07,1.78.25.57-.73,2.29-.84,1.45-2.43-.27-.52-.5-1.07-.67-1.64-.27-1.03-.06-1.99,1.05-2.29,1.09-.27,2.1,0,2.26,1.38.08.59.15,1.17.82,1.4-.25,2.87.9,5.77-.25,8.62-1.57.59-2.41,1.91-2.66,3.4-.63,3.5.1,6.77,2.18,9.73.46.67.92,1.09,1.74,1.03.1.27.13.59.29.73,2.37,1.85,7.51,1.53,9.71-.52.29-.27.75-.38,1.13-.55l6.79.06c-.67,1.24-.8,2.29.61,3.19Z"/>
  <path class="cls-1" d="m31.13,79.18c-.38.17-.84.27-1.13.55-2.2,2.05-7.34,2.37-9.71.52-.17-.15-.19-.46-.29-.73h.02v-.02c3.71.19,7.38-1.09,11.11-.31Z"/>
  <path class="cls-1" d="m29.83,10.57c-.23,1.2-1.7,1.8-1.59,3.15-3.19.4-6.4-.31-9.56.25.61-.96,1.7-1.55,2.05-2.77.21-.78,1.07-.88,1.82-.86,2.39.06,4.8.15,7.28.23Z"/>
  <rect class="cls-4" x="20" y="79.49" width=".02" height=".02"/>
  <path class="cls-1" d="m20,79.49v.02c-.82.06-1.28-.36-1.74-1.03-2.08-2.96-2.81-6.23-2.18-9.73.25-1.49,1.09-2.81,2.66-3.4,1.03.27.75,1.09.75,1.78-.02,1.95-.04,3.9-.1,5.85-.08,2.2-.29,4.4.61,6.5Z"/>
  <path class="cls-1" d="m17.86,14.38c-.08,1.17-.17,2.35-.25,3.54-.86-.04-1.74-.1-2.6-.13-.73-.02-1.3-.19-1.24-1.09.02-.71.23-1.45,1.01-1.43,1.15.02,2.03-.69,3.08-.9Z"/>
</svg>