<?xml version="1.0" encoding="UTF-8"?>
<svg id="Layer_1" data-name="Layer 1" xmlns="http://www.w3.org/2000/svg" viewBox="0 0 278.85 104.95">
  <defs>
    <style>
      .cls-1 {
        fill: #fbd0c7;
      }

      .cls-1, .cls-2, .cls-3, .cls-4, .cls-5 {
        stroke-width: 0px;
      }

      .cls-2 {
        fill: #9da8d5;
      }

      .cls-3 {
        fill: #781b1b;
      }

      .cls-4 {
        fill: #4f1a46;
      }

      .cls-5 {
        fill: #aa5d64;
      }
    </style>
  </defs>
  <path class="cls-4" d="m270.78,81.47c1.22.82,1.61,1.93.71,3.19-.86,1.17-1.61.34-2.58-.13-2.08-.99-3.84.13-5.3,1.51-4.55,4.32-9.9,7.38-15.68,9.58-2.96,1.13-5.91,1.97-8.89,2.52l-.5-3c.21-.04.44-.15.67-.34,1.05-.82.34-1.87-.17-2.73-.27-.48-.78-.84-1.15-1.28-.99-1.24-2.1-2.39-2.29-4.09.29,0,.59,0,.88-.02l.19.06.21-.04c.59.02,1.17.04,1.78.06,2.6-.04,5.24.84,7.8-.21,1.09-2.56.59-5.24.78-7.88,1.64,1.17,2.83,2.7,3.9,4.38.48.75,1.13,1.47,2.14,1.07,1.09-.4.9-1.32.67-2.22-.13-.44-.44-.92-.08-1.49,2.5.59,5.03.52,7.57.61,1.07.04,2.08-.31,2.05-1.7-.02-1.32-1.01-1.4-2.01-1.45-1.38-.02-2.77-.06-4.15-.13-1.24-.06-3.04-.08-3.31-1.05-.34-1.11,1.51-1.34,2.43-1.91.92-.55,1.93-1.07,1.45-2.33-.55-1.38-1.85-1.07-2.81-.67-1.87.78-3.73,1.66-5.43,2.75-.94.61-1.7.61-2.62.25-.17-4.78-.36-9.56-.46-14.36-.02-.63-.48-1.47.44-1.93,4.13,2.41,8.3,4.78,12.1,7.76,3.92,3.06,6.77,6.96,8.89,11.41.69,1.45,1.4,2.85,2.79,3.8Z"/>
  <path class="cls-3" d="m263.48,79.33c.02,1.38-.99,1.74-2.05,1.7-2.54-.08-5.07-.02-7.57-.61-.36.57-.04,1.05.08,1.49.23.9.42,1.82-.67,2.22-1.01.4-1.66-.31-2.14-1.07-1.07-1.68-2.26-3.21-3.9-4.38-.55-1.26-.27-2.58-.21-3.88.92.36,1.68.36,2.62-.25,1.7-1.09,3.56-1.97,5.43-2.75.96-.4,2.26-.71,2.81.67.48,1.26-.52,1.78-1.45,2.33-.92.57-2.77.8-2.43,1.91.27.96,2.08.99,3.31,1.05,1.38.06,2.77.1,4.15.13,1.01.04,1.99.13,2.01,1.45Z"/>
  <path class="cls-3" d="m262.79,28.52c4.13,3.12,1.68,6.46-1.24,8.01-1.32.71-2.79,1.15-4.19,1.74-1.28.5-1.85,1.22-.42,2.18,3.9,2.58,3.54,5.39-1.64,7.13-2.98,1.01-6.04,1.64-9.18,1.76-.08-8.39-.71-16.77-.04-25.14.17-1.99-.78-2.7-2.54-2.5-3.29.36-6.56-.04-9.83-.08,5.24-4.63,10.97-8.03,18.33-7.34,2.16.21,3.04,2.39,1.7,4.4-.67,1.03-1.57,1.89-2.24,2.91-.42.61-.65,1.3.59,1.49,4.13.69,7.49,2.96,10.71,5.43Z"/>
  <path class="cls-1" d="m247.23,78.68c-.19,2.64.31,5.33-.78,7.88-2.58.38-5.22-.5-7.8.21-.61-.02-1.2-.04-1.78-.06-.13-.21-.25-.21-.4-.02-.29.02-.59.02-.88.02-1.49-.02-2.96-.06-4.45-.1-3.92-.15-7.86-.27-11.78-.42-1.34-.04-2.68-.08-4.03-.1-8.03-.27-16.06-.55-24.07-.82-1.76-.06-3.5-.13-5.24-.19-6.54-.23-13.08-.44-19.63-.67-.92-.04-1.74,0-2.29.86-.19-1.2-1.11-.92-1.89-.94-3.8-.13-7.61-.52-11.41-.27-14.38.9-28.73-.78-43.11-.65-1.72.04-3.44-.86-5.2-.21-3.15-.08-6.29-.19-9.44-.29-1.01-.02-2.01-.06-3-.08-2.31-.08-4.61-.17-6.94-.23-.99-.48-.86-1.85-2.1-2.29-2.56-.94-3.88.52-5.22,2.18-.55-.23-1.32-.02-1.59-.82.29-.82.59-1.66.86-2.47.84-2.62.15-5.35-1.7-6.75-2.26-1.7-3.92-.29-5.62,1.03-.06.04-.1.1-.15.17-.55.46-1.09.8-1.72.15-.52-.59-1.24-1.09-.59-2.03,1.22-1.78.92-3.84.73-5.75-.19-1.95-1.26-3.65-3.25-4.28-1.85-.57-3.5.17-4.68,1.64-.65.82-1.36,1.8-1.51,2.81-.38,2.29-1.97,1.17-3.06,1.26-1.17.1-2.08-.21-2.26-1.72-.4-3.4-3.73-5.3-7.05-4.19-3.19,1.07-3.94,2.03-3.44,4.57.15.75.46,1.59.94,2.16,1.05,1.22.84,2.12-.48,2.75-1.26.63-1.7,1.74-2.14,2.89-.65,1.7.31,4.34,1.91,5.62,1.72,1.38,3.21.38,4.59-.48,1.89-1.2,2.89-3.02,3.1-5.26.21-1.95,1.51-2.91,3.67-2.81,2.52.1,1.15,1.93,1.2,2.94.1,2.56,1.3,3.69,3.84,3.46.94-.08,1.64-.59,2.37-1.03,1.85-1.11,3.21-.8,4.32,1.05.5.84.63,1.55-.55,1.8-1.87.42-2.5,1.78-2.85,3.44-6.73-.25-13.46-.48-20.21-.71-.88-.69-1.95-.42-2.94-.42-2.26-.02-4.51.08-6.77.08-1.74,0-2.81-.94-2.85-2.64-.17-6.67-.36-13.34-1.09-19.98.48-3.04-.88-5.98-.59-9.02.27-3.77-.59-7.46-.82-11.18.44-.42.38-.94.25-1.43-.69-2.73-.57-5.51-.5-8.28.02-1.59-.15-3.19-.5-4.74,0-.29.02-.57.02-.86.55-2.01,2.2-1.11,3.44-1.34,1.99.27,3.98.25,5.98-.19,3.69.08,7.34.63,11.05.08h.02c1.03-.02,2.05-.02,3.08-.04,2.79.04,5.6.63,8.39,0,3.08.04,6.19.1,9.27.17,1.49.17,2.94.15,4.38-.27.23.42.5.46.84.13,6.21.04,12.39.08,18.6.08.67,0,1.66.57,2.01-.63,1.47,1.09,3,1.15,4.57.19.23.92.99.71,1.61.69,1.89-.02,3.8-.27,5.66-.15,5.12.36,10.23-.23,15.33.04.86.04,1.34-.36,1.89-.82.23,1.2,1.2.88,1.93.88,4.15.02,8.32.15,12.48-.08,2.62-.13,5.24-.19,7.86-.04,8.09.42,16.19-.5,24.28-.17,2.64,1.72,5.39,3.35,8.03.08,2.39.42,4.78.27,7.17.31,2.52,1.61,3.54,1.49,5.58-.61,1.76.08,3.52.17,5.26.23.19.31.42.61.57.92,1.36,3.17,3.67,3.61,6,1.13.55-.59.96-1.26,1.45-1.89.5.08,1.13-.04,1.49.31.13.13.23.31.27.57-.08.21-.17.4-.25.61-.59,1.4-1.09,2.81-1.09,4.4,0,1.95.36,3.84,2.08,4.74,1.97,1.05,3.94.5,5.49-1.28.46-.55.99-1.49,1.93-.65.78.67,1.17,1.24.59,2.56-1.15,2.62-.96,5.39.65,7.91.92,1.47,2.35,1.97,3.98,1.66,2.24-.4,3.38-2.1,4.21-4,.36-.84-.08-2.22,1.61-1.99,1.09.15,2.2.13,3.29.23.42.06.42.5.5.86,1.07,4.49,4.72,6.06,8.79,3.8,1.8-1.01,2.68-3.48,1.3-4.99-1.93-2.12-1.8-3.5.61-4.84.1-.06.15-.25.25-.36,1.36-1.76,1.15-5.12-.42-6.61-1.36-1.3-3.94-1.17-5.75.34-1.74,1.49-2.77,3.38-2.64,5.7.04,1.28-.48,1.91-1.66,2.12-1.2.21-2.39.63-3.73.06.13-.36.23-.69.4-1.01.88-1.8.31-3.44-1.13-4.47-1.47-1.07-3.46-.99-4.57.5-1.74,2.31-2.87,1.01-4.3-.19-1.11-.94-1.22-1.7.15-2.47,1.43-.84,2.66-1.85,2.66-3.71,5.85.31,11.7-.27,17.55-.31,3.27.04,6.54.44,9.83.08,1.76-.21,2.7.5,2.54,2.5-.67,8.37-.04,16.75.04,25.14,0,3.08-.42,6.19.88,9.16-.92.46-.46,1.3-.44,1.93.1,4.8.29,9.58.46,14.36-.06,1.3-.34,2.62.21,3.88Z"/>
  <path class="cls-3" d="m238.66,86.77c2.58-.71,5.22.17,7.8-.21-2.56,1.05-5.2.17-7.8.21Z"/>
  <path class="cls-3" d="m239.03,92.08c.5.86,1.22,1.91.17,2.73-.23.19-.46.29-.67.34-.71.13-1.36-.4-1.95-.99-2.24-2.2-3.77-4.93-5.43-7.55,1.49.04,2.96.08,4.45.1.19,1.7,1.3,2.85,2.29,4.09.38.44.88.8,1.15,1.28Z"/>
  <path class="cls-4" d="m238.53,95.14l.5,3c-7.59,1.43-15.26,1.01-23.04-1.3-5.18-1.51-10.46-2.68-15.29-5.12-3.4-1.72-6.75-3.65-9.44-6.46,8.01.27,16.04.55,24.07.82.84,2.08,1.13,4.36,2.43,6.25.71,1.03,1.78,1.78,2.96,1.03,1.22-.73.42-1.85-.06-2.68-.82-1.4-1.66-2.77-1.3-4.49,3.92.15,7.86.27,11.78.42,1.66,2.62,3.19,5.35,5.43,7.55.59.59,1.24,1.11,1.95.99Z"/>
  <path class="cls-3" d="m236.73,25.06c1.57,1.49,1.78,4.84.42,6.61-.1.1-.15.29-.25.36-2.41,1.34-2.54,2.73-.61,4.84,1.38,1.51.5,3.98-1.3,4.99-4.07,2.26-7.72.69-8.79-3.8-.08-.36-.08-.8-.5-.86-1.09-.1-2.2-.08-3.29-.23-1.7-.23-1.26,1.15-1.61,1.99-.84,1.91-1.97,3.61-4.21,4-1.64.31-3.06-.19-3.98-1.66-1.61-2.52-1.8-5.28-.65-7.91.59-1.32.19-1.89-.59-2.56-.94-.84-1.47.1-1.93.65-1.55,1.78-3.52,2.33-5.49,1.28-1.72-.9-2.08-2.79-2.08-4.74,0-1.59.5-3,1.09-4.4.1-.21.19-.4.27-.61v-.02c1.28-.96.36-1.93-.36-2.29-1.32-.67-1.13.75-1.43,1.43-.48.63-.9,1.3-1.45,1.89-2.33,2.47-4.63,2.03-6-1.13-.15-.31-.38-.61-.57-.92.02-1.95.06-3.92.06-5.89.02-1.85-1.43-1.01-2.26-1.13-.52-.06-1.87-.57-1.61.61.55,2.39-.88,4.15-1.45,6.19-2.03,2.1-3.06,2.22-5.58.61q-1.78-5.03-6-1.57c-.44.36-.78.84-1.17,1.26-2.64,3.27-5.39,1.64-8.03-.08-1.3-2.35-.67-4.74-.02-7.05.48-1.68,1.7-2.87,3.69-2.75,2.1.15,3.52,1.38,3.69,3.35.23,2.35,1.03,1.59,2.24.82,1.38-.86,2.31-1.66,2.87-3.52.92-3.17,3.12-5.83,6.23-7.42,1.82-.94,3.9,0,3.88,2.26-.04,3.23,1.03,4.24,4.24,4.19,1.45,0,2.43.19,3.48-1.01.9-1.03,2.35-1.47,3.71-1.66,1.76-.25,3.61-.23,4.57,1.66,1.03,1.97,1.53,4.15-.29,5.85-1.17,1.09-.36,1.57.19,2.24.61.78,1.2,1.76,2.43.88.23-.17.46-.36.71-.5,3.73-2.1,5.68-1.38,7.15,2.62,0,1.87-1.24,2.87-2.66,3.71-1.36.78-1.26,1.53-.15,2.47,1.43,1.2,2.56,2.5,4.3.19,1.11-1.49,3.1-1.57,4.57-.5,1.45,1.03,2.01,2.66,1.13,4.47-.17.31-.27.65-.4,1.01,1.34.57,2.54.15,3.73-.06,1.17-.21,1.7-.84,1.66-2.12-.13-2.33.9-4.21,2.64-5.7,1.8-1.51,4.38-1.64,5.75-.34Zm-1.43,3.75c.1-1.15.06-1.87-1.13-1.91-1.24-.04-3.12,1.61-3.25,2.98-.1,1.22.63,2.22,1.66,2.12,1.85-.21,2.14-2.05,2.73-3.19Zm-4.17,11.57c.94-.61,2.12-.99,2.14-2.43,0-1.59-.96-2.58-2.33-2.64-1.09-.06-2.01,1.01-1.97,2.18.04,1.28.86,2.26,2.16,2.89Zm-9.62-9.92c-.08-.63-.27-1.49-1.2-1.32-1.09.19-2.45.27-2.6,1.8-.1,1.2.52,1.97,1.76,2.01,1.59.04,1.72-1.26,2.03-2.5Zm-4.05,6.86c.02-.36.04-.71.04-1.09-.04-1.43-.84-2.16-2.22-2.01-1.49.15-1.32,1.28-1.17,2.31.04.36.21.69.25,1.05.17,1.17.55,2.31,1.93,2.16,1.38-.13,1.15-1.43,1.17-2.41Zm-3.9-14.89c.08-1.47-1.07-1.7-2.01-1.8-1.22-.15-1.82.8-1.89,1.93-.06,1.01.57,1.59,1.72,1.8.67-.63,2.12-.38,2.18-1.93Zm-5.43,4.7c.08-.99.21-2.26-1.17-2.26-1.28,0-2.26.92-2.33,2.37-.04,1.26.4,2.52,1.72,2.58,1.64.1,1.8-1.32,1.78-2.68Zm-6.73-11.87c1.49.02,2.83-1.01,2.77-2.18-.04-1.01-.65-1.59-1.64-1.7-1.2-.13-3.63,1.34-3.5,2.16.21,1.24,1.13,1.76,2.37,1.72Zm-1.8,4.34c0-.29.06-.59.02-.88-.27-1.34-.99-2.41-2.47-2.18-1.36.21-1.61,1.28-1.11,2.52.1.27-.02.61.06.88.34,1.01.5,2.33,1.95,2.16,1.36-.17,1.59-1.3,1.55-2.5Zm-11.97-9.71c.1-.65-.15-1.17-.84-1.51-.61-.29-1.13-.19-1.59.25-.88.86-1.76,1.72-2.58,2.64-.55.59-.46,1.38-.19,2.05.21.55.86.46,1.36.44,1.64-.08,3.77-2.2,3.84-3.88Zm-.27,8.39c0-1.34.27-2.64-1.38-2.64-1.38.02-2.16.84-2.1,2.22.04,1.24.71,2.37,1.95,2.45,1.45.13,1.61-1.13,1.53-2.03Zm-14.53-.73c.25-1.32-.31-2.39-1.8-2.39s-2.14,1.01-2.1,2.45c-.17,1.57.5,2.98,1.99,3.04,1.87.08,1.68-1.85,1.91-3.1Z"/>
  <path class="cls-3" d="m236.87,86.71l-.21.04-.19-.06c.15-.19.27-.19.4.02Z"/>
  <path class="cls-2" d="m234.17,26.91c1.2.04,1.24.75,1.13,1.91-.59,1.13-.88,2.98-2.73,3.19-1.03.1-1.76-.9-1.66-2.12.13-1.36,2.01-3.02,3.25-2.98Z"/>
  <path class="cls-2" d="m233.27,37.96c-.02,1.45-1.2,1.82-2.14,2.43-1.3-.63-2.12-1.61-2.16-2.89-.04-1.17.88-2.24,1.97-2.18,1.36.06,2.33,1.05,2.33,2.64Z"/>
  <path class="cls-3" d="m220.67,90.67c.48.84,1.28,1.95.06,2.68-1.17.75-2.24,0-2.96-1.03-1.3-1.89-1.59-4.17-2.43-6.25,1.34.02,2.68.06,4.03.1-.36,1.72.48,3.08,1.3,4.49Z"/>
  <path class="cls-2" d="m220.31,29.15c.92-.17,1.11.69,1.2,1.32-.31,1.24-.44,2.54-2.03,2.5-1.24-.04-1.87-.82-1.76-2.01.15-1.53,1.51-1.61,2.6-1.8Z"/>
  <path class="cls-2" d="m217.5,36.24c0,.38-.02.73-.04,1.09-.02.99.21,2.29-1.17,2.41-1.38.15-1.76-.99-1.93-2.16-.04-.36-.21-.69-.25-1.05-.15-1.03-.31-2.16,1.17-2.31,1.38-.15,2.18.59,2.22,2.01Z"/>
  <path class="cls-2" d="m211.54,20.64c.94.1,2.1.34,2.01,1.8-.06,1.55-1.51,1.3-2.18,1.93-1.15-.21-1.78-.8-1.72-1.8.06-1.13.67-2.08,1.89-1.93Z"/>
  <path class="cls-2" d="m206.95,24.87c1.38,0,1.26,1.28,1.17,2.26.02,1.36-.15,2.79-1.78,2.68-1.32-.06-1.76-1.32-1.72-2.58.06-1.45,1.05-2.37,2.33-2.37Z"/>
  <path class="cls-2" d="m204.16,13.09c.06,1.17-1.28,2.2-2.77,2.18-1.24.04-2.16-.48-2.37-1.72-.13-.82,2.31-2.29,3.5-2.16.99.1,1.59.69,1.64,1.7Z"/>
  <path class="cls-5" d="m202.86,20.72c.71.36,1.64,1.32.36,2.29-.06-.27-.17-.44-.29-.55-.36-.36-.99-.23-1.49-.31.29-.67.1-2.1,1.43-1.43Z"/>
  <path class="cls-3" d="m203.22,23.03c-.08.21-.17.4-.27.61.08-.21.17-.4.25-.61h.02Z"/>
  <path class="cls-5" d="m203.22,23.01v.02h-.02c-.04-.25-.15-.44-.27-.57.13.1.23.27.29.55Z"/>
  <path class="cls-2" d="m199.61,18.73c.04.29-.02.59-.02.88.04,1.2-.19,2.33-1.55,2.5-1.45.17-1.61-1.15-1.95-2.16-.08-.27.04-.61-.06-.88-.5-1.24-.25-2.31,1.11-2.52,1.49-.23,2.2.84,2.47,2.18Z"/>
  <path class="cls-5" d="m191.23,14.96c.84.13,2.29-.71,2.26,1.13,0,1.97-.04,3.94-.06,5.89-1.74-.06-3.5-.15-5.26-.23.57-2.03,1.99-3.8,1.45-6.19-.25-1.17,1.09-.67,1.61-.61Z"/>
  <path class="cls-2" d="m186.78,8.39c.69.34.94.86.84,1.51-.06,1.68-2.2,3.8-3.84,3.88-.5.02-1.15.1-1.36-.44-.27-.67-.36-1.47.19-2.05.82-.92,1.7-1.78,2.58-2.64.46-.44.99-.55,1.59-.25Z"/>
  <path class="cls-2" d="m185.96,15.65c1.66,0,1.38,1.3,1.38,2.64.08.9-.08,2.16-1.53,2.03-1.24-.08-1.91-1.22-1.95-2.45-.06-1.38.71-2.2,2.1-2.22Z"/>
  <path class="cls-3" d="m166.4,84.4c6.54.23,13.08.44,19.63.67-3.1,3.33-6.42,6.37-10.9,7.84-.78.25-1.55.4-2.33.34-2.08-.17-3.98.19-5.85,1.22-2.14,1.2-3.8.06-3.98-2.43-.21-2.37.31-4.59,1.15-6.77.55-.86,1.36-.9,2.29-.86Z"/>
  <path class="cls-5" d="m182.59,22.36c-2.39-.04-4.78.1-7.17-.31.4-.42.73-.9,1.17-1.26q4.21-3.46,6,1.57Z"/>
  <path class="cls-2" d="m171.01,15.17c1.49,0,2.05,1.07,1.8,2.39-.23,1.26-.04,3.19-1.91,3.1-1.49-.06-2.16-1.47-1.99-3.04-.04-1.45.59-2.45,2.1-2.45Z"/>
  <path class="cls-3" d="m122.79,12.23c.92.78.92,1.82.65,3-.48,2.22-1.49,4.19-2.6,6.14-.55.46-1.03.86-1.89.82-5.1-.27-10.21.31-15.33-.04-1.87-.13-3.77.13-5.66.15-.63.02-1.38.23-1.61-.69,4.4-5.77,10.48-8.03,17.51-8.2,2.12-.04,4.15-.19,6.06-1.28.9-.55,2.01-.63,2.87.1Z"/>
  <path class="cls-3" d="m107.71,83.4c3.04,2.5,2.54,5.64,1.38,8.72-.63,1.7-1.91,2.85-4.05,2.56-2.12-.29-2.87-1.74-3.44-3.48-.19-.61.21-1.32-.44-1.95-1.85,1.24-3.94,1.78-4.8,4.61-.9,2.98-3.27,5.43-6.31,6.79-2.2.99-3.73.02-3.9-2.39-.29-3.88-.31-3.82-4.24-4.42-1.34-.19-2.29-.06-3.31.92-.99.94-2.37,1.43-3.77,1.49-1.68.1-3.44.15-4.38-1.64-1.07-2.08-1.43-4.28.36-6.06,1.05-1.03.52-1.55-.04-2.33-.67-.9-1.4-1.57-2.52-.78-.92.65-1.91.96-3.04,1.01-3,.17-4.11-.75-4.49-3.86.36-1.66.99-3.02,2.85-3.44,1.17-.25,1.05-.96.55-1.8-1.11-1.85-2.47-2.16-4.32-1.05-.73.44-1.43.94-2.37,1.03-2.54.23-3.73-.9-3.84-3.46-.04-1.01,1.32-2.83-1.2-2.94-2.16-.1-3.46.86-3.67,2.81-.21,2.24-1.22,4.07-3.1,5.26-1.38.86-2.87,1.87-4.59.48-1.59-1.28-2.56-3.92-1.91-5.62.44-1.15.88-2.26,2.14-2.89,1.32-.63,1.53-1.53.48-2.75-.48-.57-.8-1.4-.94-2.16-.5-2.54.25-3.5,3.44-4.57,3.31-1.11,6.65.8,7.05,4.19.19,1.51,1.09,1.82,2.26,1.72,1.09-.08,2.68,1.03,3.06-1.26.15-1.01.86-1.99,1.51-2.81,1.17-1.47,2.83-2.2,4.68-1.64,1.99.63,3.06,2.33,3.25,4.28.19,1.91.48,3.96-.73,5.75-.65.94.06,1.45.59,2.03.63.65,1.17.31,1.72-.15.04-.06.08-.13.15-.17,1.7-1.32,3.35-2.73,5.62-1.03,1.85,1.4,2.54,4.13,1.7,6.75-.27.82-.57,1.66-.86,2.47-.15.13-.34.23-.48.38-.46.38-1.36.67-.82,1.43.36.52.57,1.45,1.45,1.38.86-.04.73-.92,1.01-1.45.15-.31.29-.63.44-.92,1.34-1.66,2.66-3.12,5.22-2.18,1.24.44,1.11,1.8,2.1,2.29-.02,2.24.04,4.49-.1,6.73-.1,1.8,1.28,1.47,2.2,1.72s1.55-.1,1.53-1.22c-.06-2.87,1.32-5.1,3.31-7,.99.02,1.99.06,3,.08,1.07,1.24,1.64,2.7,2.01,4.26.17.67.4,1.43,1.3.9,2.24-1.34,4.76-2.39,6.12-4.86,1.76-.65,3.48.25,5.2.21Zm-.55,5.49c.06-1.17-.31-2.22-1.47-2.37-1.34-.19-1.91.86-1.99,2.05-.08,1.09-.19,2.33,1.34,2.54,1.72.25,1.64-1.3,2.12-2.22Zm-13.76,4.84c.02-.96-.44-1.26-1.32-1.28-1.45-.02-3.15,1.99-3.17,3.8,0,1.17.25,1.43,1.38,1.4,1.2,0,3.06-2.45,3.1-3.92Zm-2.83-3.1c1.38-.04,2.12-.84,2.12-2.24,0-1.2-.69-2.03-1.8-2.03-1.36-.02-1.76,1.07-1.72,2.31-.08,1.05.06,1.99,1.4,1.97Zm-11.09-.94c1.34-.19,1.43-1.43,1.47-2.58-.06-.65-.04-1.32-.21-1.93-.21-.88-.31-2.1-1.64-1.89-1.17.19-2.2.78-2.14,2.26.02.73-.13,1.47.25,2.14.52.94.96,2.18,2.26,1.99Zm-2.45,2.03c.19-1.22-.67-1.57-1.78-1.61-1.36-.06-2.64.21-2.75,1.7-.08,1.2.94,1.85,2.33,1.82,1.49.36,2.01-.71,2.2-1.91Zm-4.09-14.85c-.31-1.13-.88-1.8-2.12-1.85-1.87-.06-2.18,1.38-2.29,2.6-.1,1.17.52,2.66,1.82,2.5,1.55-.21,1.87-1.99,2.58-3.25Zm-9.81-9.08c-.67-.8.25-2.91-1.76-2.98-1.53-.04-2.14,1.55-2.16,2.83,0,1.22.29,2.68,2.14,2.68,1.57,0,1.57-1.17,1.78-2.54Zm-3.94,5.56c.08-1.11-.78-1.47-1.78-1.38-1.07.1-1.87.69-1.89,1.74-.02.92.73,1.51,1.7,1.74.96-.42,1.91-.99,1.97-2.1Zm-10.59-7.17c.02-1.82-1.59-2.14-2.79-2.39-.9-.19-2.1.42-1.95,1.76.17,1.4.5,2.83,2.52,2.5,1.51.31,2.2-.46,2.22-1.87Zm-2.91,8.91c.02-.88.19-1.8-1.15-1.82-1.38-.02-2.2.63-2.35,1.97-.13,1.11.59,1.53,1.7,1.53,1.17.15,1.8-.4,1.8-1.68Z"/>
  <path class="cls-2" d="m105.7,86.52c1.15.15,1.53,1.2,1.47,2.37-.48.92-.4,2.47-2.12,2.22-1.53-.21-1.43-1.45-1.34-2.54.08-1.2.65-2.24,1.99-2.05Z"/>
  <path class="cls-5" d="m93.07,82.89c3.15.1,6.29.21,9.44.29-1.36,2.47-3.88,3.52-6.12,4.86-.9.52-1.13-.23-1.3-.9-.38-1.55-.94-3.02-2.01-4.26Z"/>
  <path class="cls-2" d="m92.09,92.46c.88.02,1.34.31,1.32,1.28-.04,1.47-1.91,3.92-3.1,3.92-1.13.02-1.38-.23-1.38-1.4.02-1.8,1.72-3.82,3.17-3.8Z"/>
  <path class="cls-2" d="m92.7,88.39c0,1.4-.73,2.2-2.12,2.24-1.34.02-1.49-.92-1.4-1.97-.04-1.24.36-2.33,1.72-2.31,1.11,0,1.8.84,1.8,2.03Z"/>
  <path class="cls-4" d="m91.77,21.41c-.36,1.2-1.34.63-2.01.63-6.21,0-12.39-.04-18.6-.08-.27-.04-.52-.08-.82-.13-1.17-3.65-3.94-6.14-6.52-8.74-.52-.5-1.43-.46-2.01.1-.65.65-.67,1.53-.17,2.2.59.82,1.49,1.4,2.05,2.22.96,1.38,3.15,2.18,2.24,4.49-3.08-.06-6.19-.13-9.27-.17-.44-.04-.88-.17-1.3-.13-2.35.29-3.77-.42-4.78-2.85-1.01-2.47-2.43-4.95-4.72-6.67-.96-.73-2.01-1.01-2.89-.02-.9,1.01.08,1.82.71,2.39,2.18,2.03,3.52,4.55,4.59,7.28-1.03.02-2.05.02-3.08.04h-.02c-4.57-1.47-9.12-2.94-13.69-4.4-.52-.17-.92-.4-1.15-.9-.73-1.57-2.03-2.64-3.23-3.82-.69-.67-1.38-1.32-2.18-1.32l-.44-3.04c5.35-.73,10.61-1.82,16-2.31,5.87-.52,11.7-.06,17.51.42,6.5.57,12.64,2.81,18.77,4.91,5.83,1.97,10.36,6.08,15.01,9.9Z"/>
  <path class="cls-5" d="m83.13,82.58c2.33.06,4.63.15,6.94.23-1.99,1.91-3.38,4.13-3.31,7,.02,1.11-.61,1.47-1.53,1.22s-2.31.08-2.2-1.72c.15-2.24.08-4.49.1-6.73Z"/>
  <path class="cls-2" d="m80.95,87.11c-.04,1.15-.13,2.39-1.47,2.58-1.3.19-1.74-1.05-2.26-1.99-.38-.67-.23-1.4-.25-2.14-.06-1.49.96-2.08,2.14-2.26,1.32-.21,1.43,1.01,1.64,1.89.17.61.15,1.28.21,1.93Z"/>
  <path class="cls-2" d="m75.25,90.11c1.11.04,1.97.4,1.78,1.61-.19,1.2-.71,2.26-2.2,1.91-1.38.02-2.41-.63-2.33-1.82.1-1.49,1.38-1.76,2.75-1.7Z"/>
  <path class="cls-5" d="m75.82,82.47c-.15.29-.29.61-.44.92-.27.52-.15,1.4-1.01,1.45-.88.06-1.09-.86-1.45-1.38-.55-.75.36-1.05.82-1.43.15-.15.34-.25.48-.38.27.8,1.05.59,1.59.82Z"/>
  <path class="cls-2" d="m70.83,75.03c1.24.04,1.8.71,2.12,1.85-.71,1.26-1.03,3.04-2.58,3.25-1.3.17-1.93-1.32-1.82-2.5.1-1.22.42-2.66,2.29-2.6Z"/>
  <path class="cls-3" d="m70.34,21.83c.29.04.55.08.82.13-.34.34-.61.29-.84-.13h.02Z"/>
  <path class="cls-3" d="m70.34,21.83h-.02c-1.45.42-2.89.44-4.38.27.9-2.31-1.28-3.1-2.24-4.49-.57-.82-1.47-1.4-2.05-2.22-.5-.67-.48-1.55.17-2.2.59-.57,1.49-.61,2.01-.1,2.58,2.6,5.35,5.1,6.52,8.74Z"/>
  <path class="cls-2" d="m61.37,64.82c2.01.06,1.09,2.18,1.76,2.98-.21,1.36-.21,2.54-1.78,2.54-1.85,0-2.14-1.47-2.14-2.68.02-1.28.63-2.87,2.16-2.83Z"/>
  <path class="cls-2" d="m57.41,71.97c1.01-.08,1.87.27,1.78,1.38-.06,1.11-1.01,1.68-1.97,2.1-.96-.23-1.72-.82-1.7-1.74.02-1.05.82-1.64,1.89-1.74Z"/>
  <path class="cls-3" d="m55.37,21.81c.42-.04.86.08,1.3.13-2.79.63-5.6.04-8.39,0-1.07-2.73-2.41-5.24-4.59-7.28-.63-.57-1.61-1.38-.71-2.39.88-.99,1.93-.71,2.89.02,2.29,1.72,3.71,4.19,4.72,6.67,1.01,2.43,2.43,3.15,4.78,2.85Z"/>
  <path class="cls-2" d="m45.81,63.79c1.2.25,2.81.57,2.79,2.39-.02,1.4-.71,2.18-2.22,1.87-2.01.34-2.35-1.09-2.52-2.5-.15-1.34,1.05-1.95,1.95-1.76Z"/>
  <path class="cls-2" d="m44.53,73.27c1.34.02,1.17.94,1.15,1.82,0,1.28-.63,1.82-1.8,1.68-1.11,0-1.82-.42-1.7-1.53.15-1.34.96-1.99,2.35-1.97Z"/>
  <path class="cls-3" d="m45.18,21.98c-3.71.55-7.36,0-11.05-.08-1.28-.42-2.54-.99-3.86-1.26-1.07-.23-2.08.02-2.12,1.45-1.24.23-2.89-.67-3.44,1.34-1.53-2.01-2.79.1-4.11.38-.75.15-1.22,1.51-2.39.96-.71-.36-.71-1.05-.69-1.72.02-1.3.88-1.95,1.93-2.41,1.38-.61,2.94-.84,4.47-2.08-1.78-.57-3.29-1.09-4.84-1.51-.86-.21-1.85-.17-2.12-1.22-.19-.69-.23-1.53.48-2.01.86-.55,1.95-.55,2.73-.04,1.24.78,2.58.78,3.96,1.26-.15-1.15-1.78-1.97-.42-3.02.44-.34.84-.48,1.22-.48.8,0,1.49.65,2.18,1.32,1.2,1.17,2.5,2.24,3.23,3.82.23.5.63.73,1.15.9,4.57,1.47,9.12,2.94,13.69,4.4Z"/>
  <path class="cls-3" d="m37.57,81.47c.99,0,2.05-.27,2.94.42-3.92,4.19-7.8,8.51-13.4,10.53-4.59,1.64-8.7-.86-8.24-5.81.29-3.25,1.15-6.29,2.24-9.29.55-1.49.02-1.64-1.22-1.49-.73.1-1.38.29-2.03.69-1.07.65-2.35.65-3.33,0-1.07-.73-.67-2.01-.42-3.04.57-2.33,2.18-4.05,3.59-5.87,2.62-3.35,5.33-6.61,9.16-8.68.73,6.65.92,13.31,1.09,19.98.04,1.7,1.11,2.64,2.85,2.64,2.26,0,4.51-.1,6.77-.08Z"/>
  <path class="cls-4" d="m34.13,21.9c-1.99.44-3.98.46-5.98.19.04-1.43,1.05-1.68,2.12-1.45,1.32.27,2.58.84,3.86,1.26Z"/>
  <path class="cls-4" d="m25.45,38.73c.23,3.71,1.09,7.4.82,11.18-4-2.35-6.67-6-9.25-9.69-3.67-5.22-4.72-11.18-4.45-17.45.15-3.29.21-6.58.31-9.88.06-1.91.06-3.77-.73-5.58-.42-.92-.61-2.1.5-2.73,1.09-.63,2.03-.06,2.66.84,2.24,3.23,5.43,3.56,8.95,3.08.06,0,.15-.02.21-.02l.44,3.04c-.38,0-.78.15-1.22.48-1.36,1.05.27,1.87.42,3.02-1.38-.48-2.73-.48-3.96-1.26-.78-.5-1.87-.5-2.73.04-.71.48-.67,1.32-.48,2.01.27,1.05,1.26,1.01,2.12,1.22,1.55.42,3.06.94,4.84,1.51-1.53,1.24-3.08,1.47-4.47,2.08-1.05.46-1.91,1.11-1.93,2.41-.02.67-.02,1.36.69,1.72,1.17.55,1.64-.82,2.39-.96,1.32-.27,2.58-2.39,4.11-.38,0,.29-.02.57-.02.86-.25,2.24-.34,4.47-.02,6.71.23,1.61.44,3.25-2.22,2.98-1.2-.13-2.62.46-2.56,2.03.06,1.45,1.4,1.38,2.52,1.4.57.02,1.15.04,1.74,0,.99-.08,1.26.48,1.3,1.32Z"/>
  <path class="cls-3" d="m25.7,37.31c.13.48.19,1.01-.25,1.43-.04-.84-.31-1.4-1.3-1.32-.59.04-1.17.02-1.74,0-1.11-.02-2.45.04-2.52-1.4-.06-1.57,1.36-2.16,2.56-2.03,2.66.27,2.45-1.36,2.22-2.98-.31-2.24-.23-4.47.02-6.71.36,1.55.52,3.15.5,4.74-.06,2.77-.19,5.56.5,8.28Z"/>
</svg>