<?xml version="1.0" encoding="UTF-8"?>
<svg id="Layer_1" data-name="Layer 1" xmlns="http://www.w3.org/2000/svg" viewBox="0 0 255.97 85.47">
  <defs>
    <style>
      .cls-1 {
        fill: #fbd0c7;
      }

      .cls-1, .cls-2, .cls-3 {
        stroke-width: 0px;
      }

      .cls-2 {
        fill: #cc6c79;
      }

      .cls-3 {
        fill: #781b1b;
      }
    </style>
  </defs>
  <path class="cls-2" d="m250.64,59.63c.86,1.11.73,2.08-.23,3.1-4.57,4.8-8.24,10.32-12.18,15.62-1.57,2.1-2.45,2.31-4.36.46-2.43-2.37-4.78-4.84-7.17-7.28,1.32-1.59,3.35.02,4.99-1.11-4.19-2.41-8.6-3.29-13.19-2.98-2.52.19-4.95.84-7.07,2.41-1.28.96-.42,1.13.38,1.45-2.05,3.35-4.7,6.23-6.98,9.41-.75,1.05-1.64,1.03-2.54.1-3.08-3.17-6.19-6.29-9.29-9.44.86-.25,1.99.5,2.56-.61.31-.61-.29-1.03-.71-1.43-3.77-3.5-9.67-3.42-13.25.23-.29.29-.86.48-.69,1.01.21.63.84.46,1.32.48,2.68.08,5.39.15,8.07.21-1.66,2.68-4.57,3.31-6.96,1.28-1.22-1.03-1.91-1.09-2.98.21-1.49,1.8-2.83,3.67-4.13,5.62-1.47,2.22-2.37,2.33-4.26.48-2.41-2.37-4.72-4.89-7.07-7.34.73-.5,1.74.17,2.43-.52-3.44-6.48-17.15-5.26-19.84.31.78.52,1.7.17,2.52.38-1.97,3.33-4.61,6.16-6.86,9.29-.46.63-1.07.94-1.85.21-3.06-3-6.23-5.89-8.95-9.21,1.09-.17,2.24.23,3.46-.31-7.57-5.05-15.29-3.75-18.33.44.69.08,1.3.17,1.93.25-1.64,2.29-3.21,4.61-4.91,6.86-.84,1.11-1.68,1.55-2.91.1-2.01-2.35-4.34-4.45-6.54-6.65.78-.86.84-1.68-.15-2.43-1.2-.92-2.37-1.93-3.96-1.99-2.77-.15-5.54-.36-8.3-.27-3.04.1-5.41,1.78-7.72,3.71,1.3,1.05,2.89-.15,3.82,1.13-1.68,2.37-3.5,4.63-5.07,7.09-1.34,2.1-2.29,2.1-3.96.36-2.41-2.52-4.76-5.07-7.15-7.63.73,0,1.47.04,2.18-.02.73-.08,1.78.48,2.12-.55.42-1.2-.94-.96-1.43-1.47-.71-.75-1.59-.61-2.45-.71-1.07-.1-2.16.02-3.23-.4-4.24-1.61-7.91-.25-11.32,2.29-1.3.96-.48,1.13.46,1.28-1.51,2.1-3,4.19-4.51,6.29-.99,1.38-1.97,1.11-2.98,0-1.78-1.97-3.59-3.94-5.39-5.91,1.45-.82,1.68-1.51.36-2.91-5.37-5.87-15.58-3.75-19.52,2.22.44.52,1.59-.34,1.68.82-1.61,2.31-3.23,4.61-4.89,6.88-.99,1.36-1.97,1.43-3.19.13-4.32-4.63-8.72-9.16-13.04-13.8-1.8-1.91-1.64-2.94-.23-4.95,2.79-3.98,5.43-8.07,8.09-12.12.25-.38.38-.8.92-.8.65,1.01.86,2.12.84,3.31-.02,1.01.55,1.49,1.34.84,1.8-1.43,3.61-3.02,3.94-5.47.69-4.78-.48-9.06-3.98-12.56-.57-.57-1.05-1.66-2.1-1.15-.82.42-.23,1.28-.19,1.97.02.34-.19.67-.31,1.03-3.44-2.73-6.19-6.12-9.12-9.35-1.26-1.38-1.01-2.7.04-4.3,2.22-3.33,4.53-6.61,6.73-9.96l1.72,1.15c-.23.31-.38.71-.44,1.2-.5,3.9.52,7.7.57,11.53.02.69.59,1.07,1.11,1.53,4.21,3.8,8.3,7.49,9.18,13.78.52,3.77.08,6.9-1.78,10.04-1.22,2.03-3.1,3.42-4.82,4.97-.88.82-1.01,1.47-.88,2.77.36,3.31.27,6.67.15,10.02-.04,1.7,1.05,2.24,2.2,2.87,1.09.63,1.93.34,2.56-.71.82-1.36,1.43-2.87,2.66-3.94,3.61-3.12,7.95-4.45,12.6-4.89,1.13-.1,2.41-.08,3.46.34,3.8,1.47,7.05,3.75,9.46,7.09.65.9,1.36,1.34,2.29.27,1.45-1.66,3.54-2.45,5.24-3.82,2.47-1.97,5.64-1.68,8.49-1.76,1.55-.02,3.38.67,5.12.69,3,.04,5.56.92,7.4,3.4.94,1.26,1.72,1.13,2.73-.02,1.89-2.14,4.32-3.5,6.98-4.55,3.5-1.38,7.07-.44,10.59-.5,1.97-.04,3.67.99,5.47,1.66,2.2.86,2.91,2.89,4.17,4.51,1.51,1.91,3.1,1.78,4.26-.29.73-1.3,1.85-2.12,3.08-2.89,3.92-2.47,8.11-2.68,12.56-2.14,1.64.21,3.12.82,4.57,1.36,2.03.75,4.26,1.38,5.96,2.83,2.39,2.01,2.81,2.08,4.57-.55,2.85-4.26,7.26-5.56,11.87-5.96,6.16-.5,11.28,1.91,15.22,6.75,1.26,1.55,4.38,1.45,5.22-.31,1.09-2.33,3.08-3.52,5.1-4.53,4.05-2.08,8.2-2.68,12.46-.08,2.08,1.26,3.52,2.96,5.07,4.68,1.45,1.64,5.35,1.38,6.86.02,1.59-1.47,3.08-3.06,5.18-4.03,4.34-1.97,8.81-1.57,13.25-1.2,3.4.29,6.48,1.76,9.44,3.38.73.4,1.17,1.68,2.12,1.22,1.03-.52-.25-1.3-.13-2.08.63-4.42-.46-8.83-.44-13.27.02-1.22-.34-1.87-1.59-2.14-6.25-1.38-8.2-7.09-6.25-12.62.15-.4.29-.78.46-1.13l3.23.75c-.61,1.05-.94,2.24-.82,3.63-.34,2.37.04,4.42,2.41,5.51.69.31,1.47.99,2.22.42.8-.61-.08-1.3-.17-1.97-.06-.65-.08-1.3-.08-1.95.04-2.03.17-4.07-.02-6.1l3.27-.36c.08.34.29.69.65,1.07,1.43,1.49,1.99,3.33.36,5.05-.96.99-.52,1.64.13,2.37,2.62,3.04,5.28,6.04,7.86,9.12,1.13,1.32,2.12,2.79,3.17,4.17Z"/>
  <path class="cls-2" d="m248.38,20.69c1.17,1.32,1.36,2.66-.04,4.03-3.59,3.46-5.98,7.88-9.31,11.53-.48.52-.69,1.05-.55,1.59l-3.27.36c-.06-.5-.13-.99-.21-1.49-.04-.34.19-.78-.29-.92-.38-.15-.69.08-.96.36-.82.78-1.55,1.59-2.08,2.52l-3.23-.75c1.15-2.6,2.96-4.59,5.07-6.4,1.26-1.05,1.72-2.43,1.22-3.67-.86-2.18-.34-4.32-.5-6.14.06-1.72.06-3.1.17-4.49.08-1.07-.29-1.95-1.2-2.37-.96-.44-1.99-.31-2.81.55-1.53,1.66-3.33,2.94-5.16,4.26-3.8,2.75-7.99,3-12.25,2.1-3.02-.65-5.79-2.2-7.49-5.03-.86-1.43-3.35-2.1-4.55-.92-2.31,2.29-5.03,3.86-8.05,4.86-2.12.71-4.36,1.89-6.65.94-.99-.42-1.89-.63-2.89-.69-2.81-.13-5.16-1.07-7.02-3.29-3.27-3.92-4.3-2.98-7.07-.29-4.21,4.07-8.87,6.46-15.2,4.55-4.07-1.22-7.55-2.98-10.55-5.83-1.43-1.34-3.12-1.43-4.63-.13-.61.52-1.13,1.15-1.76,1.61-2.54,1.87-4.97,3.88-8.32,4.17-6.14.52-11.16-1.66-15.45-5.89-1.59-1.57-3.67-1.3-4.63.65-.48.99-1.17,1.74-1.99,2.26-2.94,1.82-5.89,3.61-9.69,2.87-2.2-.44-4.63.25-6.69-.67-3.02-1.34-5.98-2.89-8.01-5.7-1.17-1.61-2.66-.92-3.33.19-3.19,5.33-8.66,6.19-13.86,6.58-4.28.31-8.45-1.4-11.24-5.24-.44-.59-1.01-1.05-1.45-1.61-1.11-1.38-1.8-1.15-2.64.36-1.78,3.21-4.8,5.28-7.99,6.63-2.66,1.09-5.62,1.05-8.72.1-4.15-1.26-7.7-2.96-10.13-6.65-.36-.52-.71-1.09-1.53-1.05-1.17.06-2.26-.34-3.38-.73-1.34-.44-2.39-.17-2.96.63l-1.72-1.15c1.43-2.16,2.81-4.36,4.07-6.63,1.34-2.41,3.08-2.66,4.84-.5,2.12,2.58,4.21,5.2,6.31,7.78-.75.1-1.57-.23-2.41.36,2.39,3.35,5.98,4.36,9.62,5.16,3.63.8,6.42-1.07,9.06-3.17.55-.44,1.45-.82,1.32-1.57-.17-.99-1.17-.48-1.82-.65-.5-.13-.99-.27-1.47-.42,1.57-2.62,3.06-5.3,4.76-7.82.82-1.2,2.29-1.57,3.4-.36,2.47,2.75,4.97,5.51,7.07,8.6-.61.06-1.28-.19-1.97.38,1.87,2.83,4.89,3.73,7.84,4.17,3.59.55,6.86-1.15,10.11-2.47.4-.17.96-.73.94-1.07-.04-.67-.78-.84-1.34-.67-.78.23-.99-.48-1.47-.67,1.66-2.7,3.31-5.41,5.01-8.09,1.22-1.95,2.64-2.12,4.17-.42,2.03,2.26,3.96,4.63,5.96,6.94.61.69,1.26,1.38,1.87,2.08-.73.08-1.55-.23-2.29.29,3.63,4.99,14.99,5.28,18.01.52-.73-.88-2.26.34-2.81-1.07,1.74-2.85,3.75-5.54,5.24-8.53.8-1.57,2.75-1.66,4.03-.19,2.62,3,5.18,6.08,7.74,9.12-.46.06-1.15-.21-1.34.36-.17.55.5.84.86,1.15,3.23,2.79,7.21,2.45,11.01,2.22,1.66-.1,3.38-1.26,4.38-2.96-.86-.55-1.78-.08-2.45-.67,1.95-3.31,4.42-6.25,6.19-9.69.86-1.68,2.47-1.93,3.73-.52,2.96,3.35,5.79,6.84,8.66,10.25-.63.17-1.61-.36-1.87.63-.25,1.01.8.99,1.34,1.38,1.49,1.07,3.38,1.24,4.95,2.05,3.1,1.66,9.83-.1,11.83-3.54-4.53-.15-8.95-.31-13.36-.46.08-.75.5-1.32.92-1.93,1.87-2.6,2.98-2.68,5.1-.34.08.1.19.21.29.34,2.37,2.47,2.26,2.41,4.21-.42,1.66-2.39,3.25-4.78,4.61-7.34.71-1.34,2.94-1.66,3.94-.5,2.94,3.38,5.79,6.84,8.66,10.27-.57.17-1.49-.29-1.68.59-.17.75.69,1.01,1.13,1.45.65.63,1.43.65,2.22.71,1.01.06,2.01.06,3,.46,2.87,1.15,8.58-.48,10.63-3.02-1.3-.17-2.6.69-3.84-.13,2.12-3.61,4.91-6.79,6.73-10.63.78-1.59,2.89-1.74,4.07-.38,3.19,3.67,6.27,7.4,9.39,11.09-1.13.04-2.24.06-3.48.1,2.89,5.18,11.68,4.91,15.43,1.15.9-.9-.36-1.15-.69-1.66,1.85-3.65,4.72-6.67,6.46-10.4.69-1.47,2.66-1.49,3.88-.06,4.45,5.2,9.25,10.09,13.29,15.62.29.42.65.75.99,1.13Z"/>
  <path class="cls-1" d="m236.26,67.07c-.13.78,1.15,1.55.13,2.08-.94.46-1.38-.82-2.12-1.22-2.96-1.61-6.04-3.08-9.44-3.38-4.45-.38-8.91-.78-13.25,1.2-2.1.96-3.59,2.56-5.18,4.03-1.51,1.36-5.41,1.61-6.86-.02-1.55-1.72-3-3.42-5.07-4.68-4.26-2.6-8.41-1.99-12.46.08-2.01,1.01-4,2.2-5.1,4.53-.84,1.76-3.96,1.87-5.22.31-3.94-4.84-9.06-7.26-15.22-6.75-4.61.4-9.02,1.7-11.87,5.96-1.76,2.62-2.18,2.56-4.57.55-1.7-1.45-3.92-2.08-5.96-2.83-1.45-.55-2.94-1.15-4.57-1.36-4.45-.55-8.64-.34-12.56,2.14-1.24.78-2.35,1.59-3.08,2.89-1.15,2.08-2.75,2.2-4.26.29-1.26-1.61-1.97-3.65-4.17-4.51-1.8-.67-3.5-1.7-5.47-1.66-3.52.06-7.09-.88-10.59.5-2.66,1.05-5.1,2.41-6.98,4.55-1.01,1.15-1.78,1.28-2.73.02-1.85-2.47-4.4-3.35-7.4-3.4-1.74-.02-3.56-.71-5.12-.69-2.85.08-6.02-.21-8.49,1.76-1.7,1.36-3.8,2.16-5.24,3.82-.92,1.07-1.64.63-2.29-.27-2.41-3.33-5.66-5.62-9.46-7.09-1.05-.42-2.33-.44-3.46-.34-4.65.44-9,1.76-12.6,4.89-1.24,1.07-1.85,2.58-2.66,3.94-.63,1.05-1.47,1.34-2.56.71-1.15-.63-2.24-1.17-2.2-2.87.13-3.35.21-6.71-.15-10.02-.13-1.3,0-1.95.88-2.77,1.72-1.55,3.61-2.94,4.82-4.97,1.87-3.15,2.31-6.27,1.78-10.04-.88-6.29-4.97-9.98-9.18-13.78-.52-.46-1.09-.84-1.11-1.53-.04-3.84-1.07-7.63-.57-11.53.06-.48.21-.88.44-1.2.57-.8,1.61-1.07,2.96-.63,1.11.4,2.2.8,3.38.73.82-.04,1.17.52,1.53,1.05,2.43,3.69,5.98,5.39,10.13,6.65,3.1.94,6.06.99,8.72-.1,3.19-1.34,6.21-3.42,7.99-6.63.84-1.51,1.53-1.74,2.64-.36.44.57,1.01,1.03,1.45,1.61,2.79,3.84,6.96,5.56,11.24,5.24,5.2-.4,10.67-1.26,13.86-6.58.67-1.11,2.16-1.8,3.33-.19,2.03,2.81,4.99,4.36,8.01,5.7,2.05.92,4.49.23,6.69.67,3.8.73,6.75-1.05,9.69-2.87.82-.52,1.51-1.28,1.99-2.26.96-1.95,3.04-2.22,4.63-.65,4.3,4.24,9.31,6.42,15.45,5.89,3.35-.29,5.79-2.31,8.32-4.17.63-.46,1.15-1.09,1.76-1.61,1.51-1.3,3.21-1.22,4.63.13,3,2.85,6.48,4.61,10.55,5.83,6.33,1.91,10.99-.48,15.2-4.55,2.77-2.68,3.8-3.63,7.07.29,1.87,2.22,4.21,3.17,7.02,3.29,1.01.06,1.91.27,2.89.69,2.29.94,4.53-.23,6.65-.94,3.02-1.01,5.75-2.58,8.05-4.86,1.2-1.17,3.69-.5,4.55.92,1.7,2.83,4.47,4.38,7.49,5.03,4.26.9,8.45.65,12.25-2.1,1.82-1.32,3.63-2.6,5.16-4.26.82-.86,1.85-.99,2.81-.55.9.42,1.28,1.3,1.2,2.37-.1,1.38-.1,2.77-.17,4.49.17,1.82-.36,3.96.5,6.14.5,1.24.04,2.62-1.22,3.67-2.12,1.8-3.92,3.8-5.07,6.4-.17.36-.31.73-.46,1.13-1.95,5.54,0,11.24,6.25,12.62,1.26.27,1.61.92,1.59,2.14-.02,4.45,1.07,8.85.44,13.27Z"/>
  <path class="cls-3" d="m235.32,46.25c.08.67.96,1.36.17,1.97-.75.57-1.53-.1-2.22-.42-2.37-1.09-2.75-3.15-2.41-5.51-.13-1.38.21-2.58.82-3.63.52-.92,1.26-1.74,2.08-2.52.27-.27.59-.5.96-.36.48.15.25.59.29.92.08.5.15.99.21,1.49.19,2.03.06,4.07.02,6.1,0,.65.02,1.3.08,1.95Z"/>
  <path class="cls-3" d="m231.69,70.43c-1.64,1.13-3.67-.48-4.99,1.11-1.26-.02-2.5-.06-3.75-.08-2.58-.06-5.18-.15-7.76-.21-1.13.02-2.26.04-3.38.06-.8-.31-1.66-.48-.38-1.45,2.12-1.57,4.55-2.22,7.07-2.41,4.59-.31,9,.57,13.19,2.98Z"/>
  <path class="cls-3" d="m223.76,14.4c.34.5,1.59.75.69,1.66-3.75,3.75-12.54,4.03-15.43-1.15,1.24-.04,2.35-.06,3.48-.1.67.02,1.36.02,2.03.04,2.03.08,4.07.19,6.1.25.65.04,1.34.15,1.57-.73.52.02,1.05.02,1.55.04Z"/>
  <path class="cls-2" d="m215.19,71.25c2.58.06,5.18.15,7.76.21-.27.31-.55.63-.86.92-3.5,3.33-4.57,3.17-6.9-1.13Z"/>
  <path class="cls-2" d="m222.21,14.36c-.23.88-.92.78-1.57.73-2.03-.06-4.07-.17-6.1-.25,1.26-2.98,3.08-4.24,4.76-3.02,1.03.75,2.26,1.34,2.91,2.54Z"/>
  <path class="cls-3" d="m192.31,14.72c1.24.82,2.54-.04,3.84.13-2.05,2.54-7.76,4.17-10.63,3.02-.99-.4-1.99-.4-3-.46-.8-.06-1.57-.08-2.22-.71-.44-.44-1.3-.69-1.13-1.45.19-.88,1.11-.42,1.68-.59.75.02,1.49.04,2.24.06,2.22.06,4.45.13,6.69.19.84-.06,1.68-.13,2.54-.19Z"/>
  <path class="cls-3" d="m194.85,69.36c.42.4,1.03.82.71,1.43-.57,1.11-1.7.36-2.56.61-.9-.04-1.8-.06-2.7-.1-2.68-.06-5.39-.13-8.07-.21-.48-.02-1.11.15-1.32-.48-.17-.52.4-.71.69-1.01,3.59-3.65,9.48-3.73,13.25-.23Z"/>
  <path class="cls-2" d="m189.77,14.9c-2.24-.06-4.47-.13-6.69-.19.42-1.8,1.82-2.85,3.4-2.94,1.8-.08,2.5,1.72,3.29,3.12Z"/>
  <path class="cls-3" d="m167.34,71.02c-.69.69-1.7.02-2.43.52-1.09-.13-2.18-.42-3.29-.21-2.45-.36-4.86-.25-7.26.48-1.45-.04-2.89-.06-4.34-.1-.82-.21-1.74.15-2.52-.38,2.68-5.58,16.4-6.79,19.84-.31Z"/>
  <path class="cls-2" d="m154.36,71.81c2.39-.73,4.8-.84,7.26-.48-.59.52-1.53.67-1.82,1.47-.57,1.53-1.7,2.18-3.23,1.87-1.45-.29-2.05-1.45-2.2-2.85Z"/>
  <path class="cls-3" d="m153.1,14.57c4.4.15,8.83.31,13.36.46-1.99,3.44-8.72,5.2-11.83,3.54-1.57-.82-3.46-.99-4.95-2.05-.55-.4-1.59-.38-1.34-1.38.25-.99,1.24-.46,1.87-.63l2.89.06Z"/>
  <path class="cls-3" d="m135.82,71.69c-1.22.55-2.37.15-3.46.31-1.17-.04-2.37-.06-3.54-.08-1.09-.06-2.2-.21-3.27-.13-.99.08-2.22-.71-2.94.65-1.07-.02-2.12-.04-3.19-.06-.63-.08-1.24-.17-1.93-.25,3.04-4.19,10.76-5.49,18.33-.44Z"/>
  <path class="cls-3" d="m131.63,14.46c.67.59,1.59.13,2.45.67-1.01,1.7-2.73,2.85-4.38,2.96-3.8.23-7.78.57-11.01-2.22-.36-.31-1.03-.61-.86-1.15.19-.57.88-.29,1.34-.36,1.07.04,2.12.06,3.17.08,2.7.06,5.39.13,8.09.19.4-.06.8-.13,1.2-.17Z"/>
  <path class="cls-2" d="m130.43,14.63c-2.7-.06-5.39-.13-8.09-.19.44-.65.82-1.34,1.32-1.95,1.36-1.68,2.87-1.85,4.47-.42.86.75,1.53,1.7,2.31,2.56Z"/>
  <path class="cls-2" d="m128.82,71.92c-.13.25-.23.52-.38.78-.71,1.07-.86,2.68-2.75,2.62-1.93-.06-2.47-1.47-3.08-2.87.71-1.36,1.95-.57,2.94-.65,1.07-.08,2.18.06,3.27.13Z"/>
  <path class="cls-3" d="m104.91,70.26c.99.75.92,1.57.15,2.43-1.7-.02-3.42-.04-5.14-.06-2.39-.06-4.78-.13-7.19-.17-1.32.02-2.73-.5-3.98.38-.92-1.28-2.52-.08-3.82-1.13,2.31-1.93,4.68-3.61,7.72-3.71,2.77-.08,5.54.13,8.3.27,1.59.06,2.77,1.07,3.96,1.99Z"/>
  <path class="cls-3" d="m102.17,13.96c.55,1.4,2.08.19,2.81,1.07-3.02,4.76-14.38,4.47-18.01-.52.73-.52,1.55-.21,2.29-.29l2.77.06c2.64.08,5.3.52,7.95-.02.73-.1,1.47-.19,2.2-.29Z"/>
  <path class="cls-2" d="m92.73,72.46c2.41.04,4.8.1,7.19.17-2.05,4.13-3.44,5.3-6.81.59-.17-.23-.25-.5-.38-.75Z"/>
  <path class="cls-2" d="m98,12.28c.61.71,1.3,1.32,1.97,1.97-2.64.55-5.3.1-7.95.02.29-.9.82-1.7,1.51-2.33,1.7-1.55,2.94-1.43,4.47.34Z"/>
  <path class="cls-3" d="m75.43,70.62c.48.5,1.85.27,1.43,1.47-.34,1.03-1.38.46-2.12.55-.71.06-1.45.02-2.18.02-.78,0-1.53-.02-2.31-.04-1.36-.06-2.73-.21-4.11-.15-1.3.04-2.77-.59-3.86.69-1.13-.02-2.26-.06-3.4-.08-.94-.15-1.76-.31-.46-1.28,3.42-2.54,7.09-3.9,11.32-2.29,1.07.42,2.16.29,3.23.4.86.1,1.74-.04,2.45.71Z"/>
  <path class="cls-3" d="m75.06,15.05c.02.34-.55.9-.94,1.07-3.25,1.32-6.52,3.02-10.11,2.47-2.96-.44-5.98-1.34-7.84-4.17.69-.57,1.36-.31,1.97-.38.88.02,1.76.04,2.64.04,2.37.06,4.74.13,7.13.19l4.34-.57c.48.19.69.9,1.47.67.57-.17,1.3,0,1.34.67Z"/>
  <path class="cls-2" d="m70.25,72.61c-.92.52-1.78.9-2.47,1.93-1.59,2.33-4.17,1.61-5.49-1.38,1.09-1.28,2.56-.65,3.86-.69,1.38-.06,2.75.08,4.11.15Z"/>
  <path class="cls-2" d="m67.91,14.28c-2.39-.06-4.76-.13-7.13-.19.02-1.24.78-2.12,1.43-3.08.57-.82,1.15-1.55,2.29-1.32,1.15.23,1.91.99,2.24,2.14.23.88.19,1.91,1.17,2.45Z"/>
  <path class="cls-3" d="m46.37,70.53c1.32,1.4,1.09,2.1-.36,2.91-1.51-.04-3-.08-4.51-.13-2.26-.06-4.53-.13-6.81-.17-2.08-.38-4.11.04-6.16.42-.08-1.15-1.24-.29-1.68-.82,3.94-5.98,14.15-8.09,19.52-2.22Z"/>
  <path class="cls-3" d="m46.2,14.69c.13.75-.78,1.13-1.32,1.57-2.64,2.1-5.43,3.96-9.06,3.17-3.65-.8-7.23-1.8-9.62-5.16.84-.59,1.66-.25,2.41-.36.46.02.94.02,1.38.02,1.93.08,3.88.19,5.81.21.65.02,1.49.34,1.82-.63,1.76.65,3.52-.15,5.28.1.48.15.96.29,1.47.42.65.17,1.66-.34,1.82.65Z"/>
  <path class="cls-2" d="m41.51,73.32c-.23.36-.48.71-.71,1.09-.8,1.38-2.12,2.14-3.61,1.87-1.51-.27-2.43-1.47-2.5-3.12,2.29.04,4.55.1,6.81.17Z"/>
  <path class="cls-2" d="m36.94,11.44c.1.71.46,1.38.69,2.08-.34.96-1.17.65-1.82.63-1.93-.02-3.88-.13-5.81-.21.86-1.09,1.72-2.16,2.54-3.25.65-.86,1.34-1.66,2.52-1.36,1.07.25,1.74.94,1.89,2.12Z"/>
  <path class="cls-3" d="m18.34,35.03c3.5,3.5,4.68,7.78,3.98,12.56-.34,2.45-2.14,4.05-3.94,5.47-.8.65-1.36.17-1.34-.84.02-1.2-.19-2.31-.84-3.31.21-.27.42-.55.65-.82.78-3-.84-5.85-.59-8.83,0-.13-.29-.27-.46-.42-.02-.67-.04-1.32-.06-1.97.13-.36.34-.69.31-1.03-.04-.69-.63-1.55.19-1.97,1.05-.5,1.53.59,2.1,1.15Z"/>
  <path class="cls-2" d="m16.26,39.27c-.25,2.98,1.36,5.83.59,8.83-.5-.5-.08-1.61-1.4-1.59-1.87.02-3.52-.5-3.5-2.91.04-2.6,1.38-4.28,3.86-4.74.17.15.46.29.46.42Z"/>
</svg>