<?xml version="1.0" encoding="UTF-8"?>
<svg id="Layer_1" data-name="Layer 1" xmlns="http://www.w3.org/2000/svg" viewBox="0 0 252 98.54">
  <defs>
    <style>
      .cls-1 {
        fill: #c395b9;
      }

      .cls-1, .cls-2, .cls-3, .cls-4, .cls-5 {
        stroke-width: 0px;
      }

      .cls-2 {
        fill: #fbd0c7;
      }

      .cls-3 {
        fill: #9da8d5;
      }

      .cls-4 {
        fill: #964347;
      }

      .cls-5 {
        fill: #781b1b;
      }
    </style>
  </defs>
  <path class="cls-4" d="m243.91,73.92c2.1,2.96,1.61,6.02-1.26,8.16-.65.48-.88,1.09-1.07,1.82-.84,3.38-2.54,4.49-6.06,3.9-.88-.15-1.43,0-2.1.65-2.56,2.41-4.84,2.43-7.49-.13-1.15-1.09-2.1-1.03-3.5-.75-2.22.46-4.21,1.22-6.19,2.33-1.95,1.11-3.8.48-5.35-1.11-1.72-1.78-3.33-1.85-5.3-.29-2.5,1.93-5.89,2.01-8.32,0-1.4-1.17-2.89-.96-3.98-.13-3.12,2.39-6.04,2.6-9.5.61-1.49-.84-3.52-1.57-5.3.67-2.39,3-4.97,2.89-7.61.08-.8-.84-1.47-1.07-2.62-.9-1.72.27-3.54.34-5.16-.55-.84-.46-1.34-.06-1.93.38-2.01,1.51-4.26,1.68-6.44.63-1.49-.73-3.08-.69-4.53-1.17-2.87-.94-5.47-2.18-7.99.69-.34.38-1.49.34-2.12.08-2.5-.96-5.45,0-7.72-1.89-.69-.57-1.38.02-2.05.29-1.05.44-2.08.69-3.08.63l.17-3.04c.17,0,.36-.02.52-.06,1.34-.31,2.87-.69,2.45-2.79-.19-.99,0-2.03.02-3.06,3.42.08,6.81.19,10.21.27.78,2.08.1,4.28.25,6.42.78-.02,1.17-.44,1.66-.71,2.26-1.28,1.61-3.69,2.31-5.58,4.3-.27,8.58-.4,12.85.34-.23,1.55.19,3.19-.78,4.68-.38.57-1.24,1.45-.52,2.1.82.73,1.89.34,2.81-.25,1.07-.69,1.66-1.61,1.74-2.85.08-1.17.19-2.33.27-3.5,4.07-.59,8.16.15,12.25-.17.08,2.03.29,4.09-.88,5.93-.29.48-.29,1.01.13,1.4.73.71,1.28,2.1,2.62,1.32,1.09-.65,2.22-1.51,1.53-3.17-.44-1.03-.44-2.12-.4-3.23.06-1.49.57-2.26,2.26-2.1,1.95.17,3.92.08,5.89.13,1.13.04,2.26.08,3.42.13.21,1.72-.34,3.25-.99,4.78-.27.61-1.15,1.3-.36,1.91,1.09.82,2.33.57,3.48-.1.78-.46.9-1.11.48-1.85-.88-1.49-.57-3.08-.5-4.68,3.61.13,7.23.23,10.84.36.1,1.59-.4,3-1.28,4.3-.27.42-.73.92-.15,1.32,1.09.8,2.31.78,3.5.19,1.11-.52,1.01-1.36.65-2.39-.38-1.11-1.03-2.35.31-3.35,3.17.1,6.35.21,9.52.31.61,1.49-.38,2.66-.82,3.92-.48,1.49.38,2.05,1.51,2.31,1.17.25,3.29-1.57,3.44-2.77.4-3.19.4-3.17,3.59-3.06.59.02,1.2-.02,1.8-.02h.17c1.38.04,2.81.08,4.21.13.15.88.02,1.72-.34,2.56-.48,1.15.44,1.76,1.13,2.33.65.57,1.49,1.01,2.39.4.86-.59,1.32-1.36.99-2.43-.27-.92-.27-1.85.1-2.77,1.43-.44,3.31,1.09,4.32-1.05.42-2.33.75-2.52,2.96-1.61.4.17.75.42,1.17.57.63.21,1.22-.08,1.55-.52.52-.69.44-1.53.13-2.29-.23-.55-.73-.55-1.3-.5q-3.92.34-4.3-3.5l.06-4.91c1.07-.06,2.16-.15,3.23-.19,1.64-.04,1.76-1.26,1.8-2.43.06-1.45-.8-1.32-1.87-1.07-.96.23-2.01.19-3.02.27-1.36-3.61-.52-7.34-.55-11.01,1.05-.67,2.18-.73,3.38-.65.61.04,1.38.38,1.74-.44.34-.73.13-1.45-.25-2.1-.44-.75-1.11-.63-1.72-.36-1.01.42-2.03.13-3.04.25-.46-.5-.71-1.11-.69-1.78.06-2.73.13-5.45.19-8.18.99-.15,1.99-.44,3-.42,1.7.04,2.2-1.05,2.12-2.33-.08-1.22-.25-2.68-2.29-2.2-.86.19-1.85-.15-2.77-.25-.21-2.91-.65-5.81-.4-8.72,1.03-.63,2.14-.8,3.33-.73.73.04,1.64.55,2.1-.52.38-.88.04-1.7-.4-2.47-1.28-2.14-3.12-1.55-4.95-1.01q.06-4.95-4.93-5.1c-.36,0-.73-.04-1.09-.08,0-.94,0-1.87.4-2.77.29-.65.29-1.22-.61-1.49-.55-.17-1.01-.25-1.45-.25l.25-2.81c2.91.25,5.93.23,8.58,1.74,2.05,1.17,3.21,3.23,3.15,5.68-.04,1.26.48,1.91,1.49,2.6,2.79,1.87,3.29,4.65,2.29,7.88-.78,2.47-1.7,5.1-.25,7.76.4.73.71,1.74.55,2.52-.55,2.81-.8,5.54-.4,8.41.17,1.15-.25,2.37.5,3.52.38.57.63,1.4.52,2.08-.75,5.22.63,10.42-.04,15.62-.21,1.64-1.36,3.04-1.07,4.82.15.86.19,1.64.75,2.43Z"/>
  <path class="cls-1" d="m241.86,76.6c.31.75.4,1.59-.13,2.29-.34.44-.92.73-1.55.52-.42-.15-.78-.4-1.17-.57-2.2-.9-2.54-.71-2.96,1.61.06-2.62.15-5.24.21-7.86q.38,3.84,4.3,3.5c.57-.04,1.07-.04,1.3.5Z"/>
  <path class="cls-3" d="m239.49,64c1.07-.25,1.93-.38,1.87,1.07-.04,1.17-.17,2.39-1.8,2.43-1.07.04-2.16.13-3.23.19-.02-1.13-.19-2.29.15-3.42,1.01-.08,2.05-.04,3.02-.27Z"/>
  <path class="cls-5" d="m240.79,50.07c.38.65.59,1.36.25,2.1-.36.82-1.13.48-1.74.44-1.2-.08-2.33-.02-3.38.65-.15-1.11-.13-2.2.1-3.29,1.01-.13,2.03.17,3.04-.25.61-.27,1.28-.4,1.72.36Z"/>
  <path class="cls-1" d="m240.22,22.35c.44.78.78,1.59.4,2.47-.46,1.07-1.36.57-2.1.52-1.2-.06-2.31.1-3.33.73.02-1.59.04-3.17.08-4.74,1.82-.55,3.67-1.13,4.95,1.01Z"/>
  <path class="cls-3" d="m240.64,37.26c.08,1.28-.42,2.37-2.12,2.33-1.01-.02-2.01.27-3,.42.02-1.74.04-3.46.06-5.2.92.1,1.91.44,2.77.25,2.03-.48,2.2.99,2.29,2.2Z"/>
  <path class="cls-2" d="m236.32,67.69l-.06,4.91c-.06,2.62-.15,5.24-.21,7.86-1.01,2.14-2.89.61-4.32,1.05-1.43-.04-2.85-.06-4.28-.08-1.4-.04-2.83-.08-4.21-.13h-.17c-3.17-.13-6.35-.25-9.52-.38-3.17-.1-6.35-.21-9.52-.31-1.03-.02-2.03-.04-3.04-.06-3.61-.13-7.23-.23-10.84-.36-.69-.21-1.4-.21-2.12-.06-1.15-.04-2.29-.08-3.42-.13-3.71-.1-7.44-.19-11.16-.29-4.09.31-8.18-.42-12.25.17-1.13-.96-2.31-1.01-3.52-.17-4.28-.73-8.56-.61-12.85-.34l-4.21-.13c-3.4-.08-6.79-.19-10.21-.27-1.32-.04-2.64-.1-3.98-.17l-11.76-.38c-.94-.02-1.89-.06-2.85-.08-3.56-.1-7.15-.19-10.74-.27-3.71-.13-7.4-.29-11.09-.38-1.11-.02-2.29-.46-3.38.25,0,0,.02.06.02.08v.02c-1.17-.21-2.35-1.36-3.52,0-3.73-.55-7.46-.65-11.2-.29-1.47-.02-2.91-.04-4.36-.06-3.67-.27-7.32-.42-10.99-.34-1.87-.06-3.71-.15-5.58-.21-3.4-.1-6.79-.23-10.19-.34-1.64-.04-3.27-.08-4.93-.13-3.44-.13-6.9-.25-10.36-.36-1.78-.04-3.56-.06-5.35-.1-.94-.06-1.89-.13-2.83-.15-1.2-.04-1.97-.5-2.05-1.78v-.25c.08-2.2.48-4.4.02-6.63-.92-1.74-.17-3.63-.4-5.43-.1-.73.25-1.61-.71-2.05.02-1.3.06-2.6.08-3.9.4-3.12-.27-6.19-.55-9.27-.02-1.61.31-3.23-.13-4.82-.27-2.05-.48-4.11-.42-6.21.02-1.05.08-2.16-.71-3.04.02-.92.04-1.82.04-2.73.29-3.27-.94-6.44-.57-9.73.04-1.11.08-2.24.13-3.38.34-1.2,1.3-.8,1.99-.69,2.54.38,5.07.31,7.61.15,1.61.04,3.23.08,4.86.13,3.69.08,7.38.15,11.07.21l6.48-.44h.17l9.31.25c4.47.06,8.93.15,13.4.21.5-.17,1.01-.36,1.51-.52,1.91.06,3.82.1,5.7.17,3.5.08,6.98.19,10.46.27,1.43.02,2.87.02,4.32.04,3.65.21,7.3.02,10.95-.29l5.03.13c3.44.08,6.88.15,10.3.23,2.66.1,5.33.38,7.99.1h.04c3.38-.38,6.77-.27,10.17-.31,1.15.04,2.31.06,3.46.1,4.57.23,9.12.23,13.67-.34,1.61.04,3.21.08,4.82.15,3.29.06,6.58.13,9.86.19h.02c1.95-.15,3.94.82,5.81-.38,3.42.04,6.84.1,10.27.17,1.01.02,2.03.04,3.06.06,3.92.19,7.86.34,11.81-.08,1.72,1.2,3.35-.21,5.05-.17,3.61.08,7.21.15,10.82.21,1.87.06,3.75.13,5.64.19.17.02.36.02.55.02.94.04,1.89.06,2.83.1.15,0,.27-.08.42-.13-.19-.06-.4-.15-.61-.21,1.43-.59,2.89-.13,4.34-.29,1.34.04,2.68.06,4,.08.36.04.73.08,1.09.08q4.99.15,4.93,5.1c-.04,1.57-.06,3.15-.08,4.74-.25,2.91.19,5.81.4,8.72-.02,1.74-.04,3.46-.06,5.2-.06,2.73-.13,5.45-.19,8.18-.02.67.23,1.28.69,1.78-.23,1.09-.25,2.18-.1,3.29.02,3.67-.82,7.4.55,11.01-.34,1.13-.17,2.29-.15,3.42Zm-9.6,7.36c2.35.36,4.28-1.87,3.82-4.15-1.01-4.97-1.03-9.98-.88-15.01.02-.88.13-1.78-.06-2.62-.25-1.09-.92-2.1-2.2-2.03s-1.45,1.11-1.55,2.22c-.13,1.74-.38,3.48-.71,5.2-.52,2.7-2.29,4.57-4.47,6.12-.59.42-.86,0-1.32-.17-1.78-.69-2.87,0-2.56,1.82.23,1.43-.55,1.87-1.53,2.12-2.33.61-4.68.99-7.11.69-2.58-.5-5.05.27-7.57.52-1.13.1-1.64.48-1.61,1.53.04,1.01.25,1.87,1.57,1.91,8.74.34,17.51.57,26.19,1.85ZM44.8,24.93c.08-1.43-1.55-1.78-2.77-1.59-3.9.61-7.86.21-11.74.61-2.33.23-4.45.84-6.58-.8-1.55-1.22-3.21-.27-4.26.94-1.09,1.3-1.24,3.31-.15,4.47,1.17,1.22,1.13,2.37,1.07,3.73-.06,2.12-.13,4.24-.21,6.35h.02c-.08,2.56-.19,5.12-.23,7.67-.02.65-.02,1.36.25,1.91.31.67.63,1.61,1.7,1.34.84-.21,1.36-.73,1.49-1.66.46-3.73,1.91-7.09,3.48-10.46,1.03-2.18,2.05-3.06,4.28-1.97.92.46,1.74.31,2.37-.42s.31-1.66-.21-2.22c-1.28-1.32-.38-2.22.61-2.83,2.39-1.47,4.8-2.94,7.86-2.58,1.78.23,2.96-1.07,3.02-2.5Z"/>
  <path class="cls-3" d="m227.45,81.42c1.43.02,2.85.04,4.28.08-.38.92-.38,1.85-.1,2.77.34,1.07-.13,1.85-.99,2.43-.9.61-1.74.17-2.39-.4-.69-.57-1.61-1.17-1.13-2.33.36-.84.48-1.68.34-2.56Z"/>
  <path class="cls-4" d="m230.54,70.9c.46,2.29-1.47,4.51-3.82,4.15-8.68-1.28-17.45-1.51-26.19-1.85-1.32-.04-1.53-.9-1.57-1.91-.02-1.05.48-1.43,1.61-1.53,2.52-.25,4.99-1.03,7.57-.52,2.43.29,4.78-.08,7.11-.69.99-.25,1.76-.69,1.53-2.12-.31-1.82.78-2.52,2.56-1.82.46.17.73.59,1.32.17,2.18-1.55,3.94-3.42,4.47-6.12.34-1.72.59-3.46.71-5.2.1-1.11.27-2.16,1.55-2.22s1.95.94,2.2,2.03c.19.84.08,1.74.06,2.62-.15,5.03-.13,10.04.88,15.01Zm-3.88-4.93c-.02-.46.27-1.15-.4-1.3-.31-.06-.82.31-1.09.61-1.38,1.64-3.29,2.54-4.99,3.75-.67.48-1.93.65-1.61,1.74.25.92,1.4.36,1.97.55,1.64.19,2.98.13,3.48-1.64.13-.46.52-.69.96-.82,1.55-.4,1.76-1.57,1.68-2.89Z"/>
  <path class="cls-3" d="m229.05,11.91c.9.27.9.84.61,1.49-.4.9-.4,1.82-.4,2.77-1.32-.02-2.66-.04-4-.08.06-.57.15-1.13.17-1.72.06-1.8.82-2.7,2.18-2.7.44,0,.9.08,1.45.25Z"/>
  <path class="cls-4" d="m227.85,8.85l-.25,2.81c-1.36,0-2.12.9-2.18,2.7-.02.59-.1,1.15-.17,1.72-1.45.17-2.91-.29-4.34.29-.84.04-1.78.23-2.64.23-.19,0-.38,0-.55-.02-.52-.06-1.01-.23-1.4-.59-.96-.9-.25-2.58.15-3.9.15-.48,0-.9-.52-1.01-1.24-.27-2.43-.06-3.54.59-1.03.63-.48,1.51-.42,2.35.08.78.06,1.57.1,2.37-3.61-.06-7.21-.13-10.82-.21-.13-1.13-.61-2.24-.19-3.46.27-.82.42-1.57-.73-2.14-1.7-.82-3.1-.25-4.55.52-1.05.57-.44,1.3-.15,2.05.38,1.01.75,2.05.57,3.19-3.94.42-7.88.27-11.81.08.02-1.36-.29-2.75.71-3.94.29-.36.86-.78.44-1.3s-1.05-.25-1.59-.04c-2.47.94-2.26,3.23-2.62,5.22-3.44-.06-6.86-.13-10.27-.17-.36-.92-.06-1.89-.25-2.79-.46-2.14-2.29-1.85-3.82-1.87-1.7-.02-1.13,1.13-1.09,2.14.02.61.27,1.32.15,1.93-.06.23-.17.46-.38.67-.1.08-.25.19-.42.29h-.02c-3.27-.06-6.56-.13-9.86-.19-.4-1.28-.5-2.6-.29-3.92.15-.9.25-1.76-.8-2.22-.92-.4-1.57,0-2.39.48-2.45,1.43-.94,3.69-1.34,5.51-4.55.57-9.1.57-13.67.34-.08-1.28-.61-2.54,0-3.88.25-.57.92-1.38.04-1.95-.25-.17-.5-.23-.78-.23l.17-3c.99.02,1.99.29,3,.86.78.42,1.49.63,2.31.4,1.57-.44,3.12-.13,4.45.61,1.36.75,2.18.52,3.25-.48,2.77-2.62,3.98-2.7,7.34-.8.4.23.75.55,1.2.29,1.8-1.05,3.48-.78,5.14.34.69.46,1.45.27,2.1-.02,1.59-.73,3.33-.61,4.7.04,1.91.9,3.59.75,5.43.23,1.03-.29,2.2-.34,2.98.31,1.36,1.2,2.22.44,3.33-.36,2.01-1.43,4.11-1.64,6.35-.29,2.01,1.22,4.17,1.28,6.14-.15,2.22-1.61,4.76-1.82,7.11-.9,1.91.75,3.73.67,5.64.9,2.33.29,4.45.4,6.71-.48,1.36-.55,2.96.04,4.49.38,2.41.57,4.86,1.36,7.42.63.55-.17,1.15-.31,1.72-.25.25.02.48.04.73.06Z"/>
  <path class="cls-3" d="m226.26,64.67c.67.15.38.84.4,1.3.08,1.32-.13,2.5-1.68,2.89-.44.13-.84.36-.96.82-.5,1.76-1.85,1.82-3.48,1.64-.57-.19-1.72.38-1.97-.55-.31-1.09.94-1.26,1.61-1.74,1.7-1.22,3.61-2.12,4.99-3.75.27-.29.78-.67,1.09-.61Z"/>
  <path class="cls-5" d="m223.07,81.3c-.61,0-1.22.04-1.8.02-3.19-.1-3.19-.13-3.59,3.06-.15,1.2-2.26,3.02-3.44,2.77-1.13-.25-1.99-.82-1.51-2.31.44-1.26,1.43-2.43.82-3.92,3.17.13,6.35.25,9.52.38Z"/>
  <path class="cls-1" d="m220.91,16.38c.21.06.42.15.61.21-.15.04-.27.13-.42.13-.94-.04-1.89-.06-2.83-.1.86,0,1.8-.19,2.64-.23Z"/>
  <path class="cls-5" d="m217.72,16.59c-1.89-.06-3.77-.13-5.64-.19-.04-.8-.02-1.59-.1-2.37-.06-.84-.61-1.72.42-2.35,1.11-.65,2.31-.86,3.54-.59.52.1.67.52.52,1.01-.4,1.32-1.11,3-.15,3.9.4.36.88.52,1.4.59Z"/>
  <path class="cls-3" d="m200.99,80.54c1.01.02,2.01.04,3.04.06-1.34,1.01-.69,2.24-.31,3.35.36,1.03.46,1.87-.65,2.39-1.2.59-2.41.61-3.5-.19-.59-.4-.13-.9.15-1.32.88-1.3,1.38-2.7,1.28-4.3Z"/>
  <path class="cls-3" d="m201.26,16.19c-1.7-.04-3.33,1.36-5.05.17.19-1.13-.19-2.18-.57-3.19-.29-.75-.9-1.49.15-2.05,1.45-.78,2.85-1.34,4.55-.52,1.15.57,1.01,1.32.73,2.14-.42,1.22.06,2.33.19,3.46Z"/>
  <path class="cls-1" d="m190.65,84.86c.42.73.29,1.38-.48,1.85-1.15.67-2.39.92-3.48.1-.8-.61.08-1.3.36-1.91.65-1.53,1.2-3.06.99-4.78.71-.15,1.43-.15,2.12.06-.06,1.59-.38,3.19.5,4.68Z"/>
  <path class="cls-1" d="m185.56,11.2c.42.52-.15.94-.44,1.3-1.01,1.2-.69,2.58-.71,3.94-1.03-.02-2.05-.04-3.06-.06.36-1.99.15-4.28,2.62-5.22.55-.21,1.17-.48,1.59.04Z"/>
  <path class="cls-3" d="m184.62,80c-1.97-.04-3.94.04-5.89-.13-1.7-.17-2.2.61-2.26,2.1-.04,1.11-.04,2.2.4,3.23.69,1.66-.44,2.52-1.53,3.17-1.34.78-1.89-.61-2.62-1.32-.42-.4-.42-.92-.13-1.4,1.17-1.85.96-3.9.88-5.93,3.71.1,7.44.19,11.16.29Z"/>
  <path class="cls-3" d="m170.82,13.42c.19.9-.1,1.87.25,2.79-1.87,1.2-3.86.23-5.81.38.17-.1.31-.21.42-.29.21-.21.34-.44.38-.67.13-.61-.13-1.32-.15-1.93-.04-1.01-.61-2.16,1.09-2.14,1.53.02,3.35-.27,3.82,1.87Z"/>
  <path class="cls-1" d="m166.06,15.62c-.04.23-.17.46-.38.67.21-.21.31-.44.38-.67Z"/>
  <path class="cls-5" d="m161.21,79.87c-.08,1.17-.19,2.33-.27,3.5-.08,1.24-.67,2.16-1.74,2.85-.92.59-1.99.99-2.81.25-.71-.65.15-1.53.52-2.1.96-1.49.55-3.12.78-4.68,1.22-.84,2.39-.8,3.52.17Z"/>
  <path class="cls-5" d="m155.39,16.4c-1.61-.06-3.21-.1-4.82-.15.4-1.82-1.11-4.09,1.34-5.51.82-.48,1.47-.88,2.39-.48,1.05.46.94,1.32.8,2.22-.21,1.32-.1,2.64.29,3.92Z"/>
  <path class="cls-1" d="m140.62,79.24l4.21.13c-.69,1.89-.04,4.3-2.31,5.58-.48.27-.88.69-1.66.71-.15-2.14.52-4.34-.25-6.42Z"/>
  <path class="cls-3" d="m136.93,10.76c.88.57.21,1.38-.04,1.95-.61,1.34-.08,2.6,0,3.88-1.15-.04-2.31-.06-3.46-.1-.06-.73.04-1.51-.19-2.16-.55-1.59.19-2.52,1.43-3.27.46-.27.99-.52,1.49-.52.27,0,.52.06.78.23Z"/>
  <path class="cls-4" d="m136.33,7.53l-.17,3c-.5,0-1.03.25-1.49.52-1.24.75-1.97,1.68-1.43,3.27.23.65.13,1.43.19,2.16-3.4.04-6.79-.06-10.17.31h-.04c-1.53,0-1.13-1.13-1.15-2.03,0-2.22-2.56-4.34-4.8-3.9-1.03.19-1.7.73-1.74,1.89-.04,1.32-.19,2.62-.29,3.94-3.42-.08-6.86-.15-10.3-.23-.55-1.24-.42-2.54-.46-3.86,0-.75.67-1.87-.63-2.22-1.11-.29-2.03-.02-2.96.86-1.59,1.53-1.13,3.31-.99,5.1-3.65.31-7.3.5-10.95.29-.44-.59-.36-1.26-.25-1.89.38-2.31-1.34-3-2.94-3.65-.86-.36-1.66.02-1.32,1.2.42,1.43.19,2.87.19,4.3-3.48-.08-6.96-.19-10.46-.27-.15-.78-.5-1.55-.44-2.31.17-1.74-.57-2.47-1.87-2.62l.44-2.94c.82.13,1.68.34,2.56.57,2.52.65,5.39,1.01,7.93-.52,1.85-1.11,4.49-.82,6.5.9.92.78,1.74,1.51,3.02.9.19-.1.46-.13.65-.08,2.79.84,4.91.29,6.88-2.12,1.26-1.53,3.5-1.2,5.37-.48,2.5.99,5.35.06,7.8,1.59.73.46,1.57-1.17,2.68-1.15.5,0,1.03-.1,1.51-.25,2.35-.67,4.3,2.16,6.63.86,2.39-1.36,4.34-.38,6.35.78.75.44,1.3-.02,1.95-.48,1.34-.96,2.75-1.47,4.19-1.43Z"/>
  <path class="cls-3" d="m130.39,82.03c.42,2.1-1.11,2.47-2.45,2.79-.17.04-.36.06-.52.06-.84,0-1.51-.5-1.24-1.74.34-1.43.25-2.87.25-4.34,1.34.06,2.66.13,3.98.17-.02,1.03-.21,2.08-.02,3.06Z"/>
  <path class="cls-4" d="m127.41,84.88l-.17,3.04c-1.01-.04-1.97-.38-2.91-1.11-.69-.57-1.4-.44-2.24-.44-3,.04-5.83.46-8.49,1.99-1.36.8-2.96.48-4.13-.52-2.18-1.87-4.21-1.8-6.69-.46-2.94,1.57-5.89.8-8.47-1.01-1.61-1.11-2.89-.99-4.38.08-2.47,1.82-5.14,1.93-7.67.1-1.45-1.05-2.75-1.87-4.53-.92-.1.08-.29.15-.42.1-2.1-.82-4.3-.42-6.52-.36l-.06-2.91c1.43,0,1.57-.84,1.22-2.12-.23-.8-.04-1.72-.02-2.6,3.73-.36,7.46-.25,11.2.29.17,1.24.19,2.45-.17,3.67-.23.8-.17,1.55.71,2.08.99.57,1.97.94,3.08.8.5-.06.65-.52.36-1.01-.99-1.55-.84-3.19-.57-4.86.04-.21.08-.44.13-.67l-.02-.02s-.02-.08-.02-.08c2.35-.36,4.68-.02,7,.02,3.75.08,4.15.69,3.12,4.45,0,.06-.04.13-.08.19-.67,1.24.15,1.82,1.11,2.1.88.23,1.89.25,2.81.17s1.53-.63.94-1.66c-.92-1.66-.55-3.4-.44-5.14,3.59.08,7.17.17,10.74.27.34,1.72-.02,3.31-.86,4.82-.4.73-.69,1.57.31,2.08,1.22.59,2.2-.1,3.27-.65,1.09-.55.63-1.32.38-2.03-.44-1.36-.31-2.75-.25-4.13l11.76.38c0,1.47.08,2.91-.25,4.34-.27,1.24.4,1.74,1.24,1.74Z"/>
  <path class="cls-1" d="m122.07,14.76c.02.9-.38,2.03,1.15,2.03-2.66.27-5.33,0-7.99-.1.1-1.32.25-2.62.29-3.94.04-1.15.71-1.7,1.74-1.89,2.24-.44,4.8,1.68,4.8,3.9Z"/>
  <path class="cls-5" d="m114.92,82.55c.25.71.71,1.49-.38,2.03-1.07.55-2.05,1.24-3.27.65-1.01-.5-.71-1.34-.31-2.08.84-1.51,1.2-3.1.86-4.82.96.02,1.91.06,2.85.08-.06,1.38-.19,2.77.25,4.13Z"/>
  <path class="cls-3" d="m104.94,16.46l-5.03-.13c-.15-1.78-.61-3.56.99-5.1.92-.88,1.85-1.15,2.96-.86,1.3.36.63,1.47.63,2.22.04,1.32-.08,2.62.46,3.86Z"/>
  <path class="cls-3" d="m101.52,83.2c.59,1.03-.02,1.57-.94,1.66s-1.93.06-2.81-.17c-.96-.27-1.78-.86-1.11-2.1.04-.06.08-.13.08-.19,1.03-3.75.63-4.36-3.12-4.45-2.33-.04-4.65-.38-7-.02,1.09-.71,2.26-.27,3.38-.25,3.69.08,7.38.25,11.09.38-.1,1.74-.48,3.48.44,5.14Z"/>
  <path class="cls-5" d="m88.96,16.63c-1.45-.02-2.89-.02-4.32-.04,0-1.43.23-2.87-.19-4.3-.34-1.17.46-1.55,1.32-1.2,1.59.65,3.31,1.34,2.94,3.65-.1.63-.19,1.3.25,1.89Z"/>
  <path class="cls-1" d="m87.09,83.58c.29.48.15.94-.36,1.01-1.11.15-2.1-.23-3.08-.8-.88-.52-.94-1.28-.71-2.08.36-1.22.34-2.43.17-3.67,1.17-1.36,2.35-.21,3.52,0-.04.23-.08.46-.1.67-.27,1.66-.42,3.31.57,4.86Z"/>
  <path class="cls-3" d="m74.17,16.31c-1.89-.06-3.8-.1-5.7-.17.02-.65.13-1.32.04-1.95-.31-2.01.71-2.77,2.54-2.83.29-.02.57,0,.82.02,1.3.15,2.03.88,1.87,2.62-.06.75.29,1.53.44,2.31Z"/>
  <path class="cls-4" d="m72.31,8.45l-.44,2.94c-.25-.02-.52-.04-.82-.02-1.82.06-2.85.82-2.54,2.83.08.63-.02,1.3-.04,1.95-.5.17-1.01.36-1.51.52-2.03-.06-4.09-.29-6.1-.15-2.2.17-2.89-.71-2.54-2.75.04-.27-.02-.59.04-.86.19-1.11-.08-2.05-1.36-1.87-1.05.17-2.75-.06-2.26,2.03.31,1.34-.36,2.37-1.17,3.35-3.1-.06-6.21-.15-9.31-.23h-.17c.08-.94.1-1.89.23-2.83.27-2.47-1.61-2.35-3.12-2.54-1.55-.21-2.96-.1-2.96,2.08,0,1.26.38,2.64-.63,3.73-3.69-.06-7.38-.13-11.07-.21-.48-1.66-.69-3.42.38-4.82,1.34-1.72.46-2.33-.99-3.08-1.34-.69-2.66-.55-4.05-.34-.86.13-1.3.44-.69,1.45,1.32,2.12,1.51,4.36.48,6.67-2.54.17-5.07.23-7.61-.15-.69-.1-1.66-.5-1.99.69-.52-.08-.92-1.22-1.4-.55-.69.99-1.55,2.16-1.17,3.42s1.64.31,2.45.5c-.38,3.29.86,6.46.57,9.73-1.03.17-1.99-.17-2.94-.5-.38-.15-.82-.5-1.17-.06-.29.36-.1.82-.02,1.24.55,2.33,2.43,1.95,4.09,2.05.8.88.73,1.99.71,3.04-.06,2.1.15,4.15.42,6.21-.82,1.38-2.18.99-3.35.9-1.51-.1-1.76.71-1.66,1.87.1,1.11.27,2.35,1.93,1.8,1.13-.38,2.14.02,3.21.25.27,3.08.94,6.14.55,9.27-1.57.4-3.1.8-4.55-.38-.42-.34-.9-.15-1.05.34-.38,1.13-.4,2.31.13,3.38.44.96,1.38.57,2.14.57,1.07.04,2.16,0,3.25,0,.96.44.61,1.32.71,2.05.23,1.8-.52,3.69.4,5.43-1.11,1.26-2.56,1.49-4.15,1.32-.73-.08-1.43-.15-1.64.9-.4,2.18.96,3.61,3,2.96,1.57-.48,2.77-.55,2.77,1.45v.25c.08,1.28.86,1.74,2.05,1.78.94.02,1.89.08,2.83.15.19,1.05-.15,2.03-.59,2.94-.5,1.09-.06,1.68.82,2.08,1.57.73,3.25.84,4.91.52,1.11-.23,1.93-.82.82-2.12-.84-.94-.71-2.16-.61-3.31,3.46.1,6.92.23,10.36.36-.19,1.2-.27,2.43-.61,3.61-.21.75-.08,1.22.46,1.7,1.3,1.13,3.73,1.15,5.05.08.5-.4.86-.82.48-1.45-.73-1.22-.44-2.54-.46-3.82,3.4.1,6.79.23,10.19.34-.04,1.01-.08,2.01-.38,3-.29,1.05-.92,2.29.65,2.96,1.47.65,5.54.15,6.04-.73.19-.36.1-.73-.1-1.03-.88-1.22-.59-2.64-.63-3.98,3.67-.08,7.32.06,10.99.34,0,.94-.04,1.89.02,2.83.13,1.99,1.66,1.93,3.04,1.95h.1l.06,2.91c-1.66.08-3.31-.04-4.95-.96-1.64-.9-4.53-.25-6.67.78-3.27,1.57-6.65,2.1-9.9.4-1.57-.82-2.89-1.66-4.76-1.49-.73.06-1.32.08-1.97.5-3.15,2.12-6.61,1.95-9.44-.67-1.53-1.43-3.06-1.26-4.55-.38-3.33,2.01-7.51,2.01-10.65-.25-.73-.52-1.43-.86-2.39-.84-3.31.04-4.4-.69-5.6-3.8-.59-1.51-1.28-2.85-2.22-4.19-1.64-2.24-1.61-4.93-.5-7.32.84-1.82.29-3.35-.42-4.72-1.97-3.84-1.87-6.42.55-9.81.75-1.07.59-2.47-.25-3.65-1.89-2.62-1.91-5.3-.59-8.26.88-1.99.94-4.26.08-6.35-1.28-3.06-2.22-6.02-.17-9.16.52-.82.34-1.97.13-3.02-.78-3.84.48-7.05,3.35-9.62.71-.65,1.36-1.24,1.82-2.14.29-.61.94-1.45,1.49-1.49,3.06-.25,4.95-2.83,7.65-3.67.94-.29,2.01-.27,2.77-.36,2.94.19,5.24,1.05,6.84,3.33.21.29.57.82.67.78,1.93-.73,4.11.19,5.91-.61,2.64-1.15,5.16-1.01,7.61.13,1.34.63,2.54.57,3.94.59,2.7.06,5.24-.21,7.78-1.15.63-.23,1.64-.23,2.14.13,2.1,1.47,4.65.9,6.86,1.76.59.21,1.11.13,1.66-.25,1.72-1.24,3.46-1.4,5.3-1.15Z"/>
  <path class="cls-3" d="m71.93,80.35c.36,1.28.21,2.12-1.22,2.12h-.1c-1.38-.02-2.91.04-3.04-1.95-.06-.94-.02-1.89-.02-2.83,1.45.02,2.89.04,4.36.06-.02.88-.21,1.8.02,2.6Z"/>
  <path class="cls-1" d="m66.96,16.67c-4.47-.06-8.93-.15-13.4-.21v-.02c.82-.99,1.49-2.01,1.17-3.35-.48-2.1,1.22-1.87,2.26-2.03,1.28-.19,1.55.75,1.36,1.87-.06.27,0,.59-.04.86-.36,2.03.34,2.91,2.54,2.75,2.01-.15,4.07.08,6.1.15Z"/>
  <path class="cls-5" d="m57.19,81.34c.21.29.29.67.1,1.03-.5.88-4.57,1.38-6.04.73-1.57-.67-.94-1.91-.65-2.96.29-.99.34-1.99.38-3,1.87.06,3.71.15,5.58.21.04,1.34-.25,2.77.63,3.98Z"/>
  <path class="cls-4" d="m42.03,23.34c1.22-.19,2.85.17,2.77,1.59-.06,1.43-1.24,2.73-3.02,2.5-3.06-.36-5.47,1.11-7.86,2.58-.99.61-1.89,1.51-.61,2.83.52.57.84,1.49.21,2.22s-1.45.88-2.37.42c-2.22-1.09-3.25-.21-4.28,1.97-1.57,3.38-3.02,6.73-3.48,10.46-.13.92-.65,1.45-1.49,1.66-1.07.27-1.38-.67-1.7-1.34-.27-.55-.27-1.26-.25-1.91.04-2.56.15-5.12.23-7.67h-.02c.08-2.12.15-4.24.21-6.35.06-1.36.1-2.52-1.07-3.73-1.09-1.15-.94-3.17.15-4.47,1.05-1.22,2.7-2.16,4.26-.94,2.14,1.64,4.26,1.03,6.58.8,3.88-.4,7.84,0,11.74-.61Zm-10.42,4.09c-7.8-.48-8.83,1.32-7.74,8.49,1.26-4.11,6.25-4.53,7.74-8.49Z"/>
  <path class="cls-3" d="m41.19,10.84c1.51.19,3.4.06,3.12,2.54-.13.94-.15,1.89-.23,2.83l-6.48.44c1.01-1.09.63-2.47.63-3.73,0-2.18,1.4-2.29,2.96-2.08Z"/>
  <path class="cls-3" d="m41.25,80.62c.38.63.02,1.05-.48,1.45-1.32,1.07-3.75,1.05-5.05-.08-.55-.48-.67-.94-.46-1.7.34-1.17.42-2.41.61-3.61,1.66.04,3.29.08,4.93.13.02,1.28-.27,2.6.46,3.82Z"/>
  <path class="cls-3" d="m23.87,35.92c-1.09-7.17-.06-8.97,7.74-8.49-1.49,3.96-6.48,4.38-7.74,8.49Z"/>
  <path class="cls-5" d="m25.93,8.54c1.45.75,2.33,1.36.99,3.08-1.07,1.4-.86,3.17-.38,4.82-1.64-.04-3.25-.08-4.86-.13,1.03-2.31.84-4.55-.48-6.67-.61-1.01-.17-1.32.69-1.45,1.38-.21,2.7-.36,4.05.34Z"/>
  <path class="cls-1" d="m26.12,79.64c1.11,1.3.29,1.89-.82,2.12-1.66.31-3.33.21-4.91-.52-.88-.4-1.32-.99-.82-2.08.44-.9.78-1.89.59-2.94,1.78.04,3.56.06,5.35.1-.1,1.15-.23,2.37.61,3.31Z"/>
  <path class="cls-3" d="m15.3,67.41c.46,2.22.06,4.42-.02,6.63,0-1.99-1.2-1.93-2.77-1.45-2.03.65-3.4-.78-3-2.96.21-1.05.9-.99,1.64-.9,1.59.17,3.04-.06,4.15-1.32Z"/>
  <path class="cls-5" d="m14.27,56.03c-.02,1.3-.06,2.6-.08,3.9-1.09,0-2.18.04-3.25,0-.75,0-1.7.4-2.14-.57-.52-1.07-.5-2.24-.13-3.38.15-.48.63-.67,1.05-.34,1.45,1.17,2.98.78,4.55.38Z"/>
  <path class="cls-3" d="m13.6,41.94c.44,1.59.1,3.21.13,4.82-1.07-.23-2.08-.63-3.21-.25-1.66.55-1.82-.69-1.93-1.8-.1-1.15.15-1.97,1.66-1.87,1.17.08,2.54.48,3.35-.9Z"/>
  <path class="cls-1" d="m12.51,29.97c0,.9-.02,1.8-.04,2.73-1.66-.1-3.54.27-4.09-2.05-.08-.42-.27-.88.02-1.24.36-.44.8-.08,1.17.06.94.34,1.91.67,2.94.5Z"/>
  <path class="cls-3" d="m12.07,16.86c-.04,1.13-.08,2.26-.13,3.38-.82-.19-2.08.75-2.45-.5s.48-2.43,1.17-3.42c.48-.67.88.46,1.4.55Z"/>
</svg>