<?xml version="1.0" encoding="UTF-8"?>
<svg id="Layer_1" data-name="Layer 1" xmlns="http://www.w3.org/2000/svg" viewBox="0 0 251.66 96.41">
  <defs>
    <style>
      .cls-1 {
        fill: #f798b3;
      }

      .cls-1, .cls-2, .cls-3, .cls-4, .cls-5, .cls-6 {
        stroke-width: 0px;
      }

      .cls-2 {
        fill: #93575e;
      }

      .cls-3 {
        fill: #7a1a1a;
      }

      .cls-4 {
        fill: #9da8d5;
      }

      .cls-5 {
        fill: #781b1b;
      }

      .cls-6 {
        fill: #e6adb1;
      }
    </style>
  </defs>
  <path class="cls-5" d="m247.15,11.02c-.06,3.65.52,7.28.06,10.92.06-1.78-1.24-1.68-2.24-1.38-2.91.82-5.81,1.55-8.87,1.45-.59-.04-1.17.4-1.78.63.02-1.51.46-3.08-.73-4.38.13-1.57.34-3.08.8-4.63.4-1.36.92-3.04-.15-4.49,3.71-.23,7.4-.1,11.11.13,1.09.06,1.82.61,1.8,1.76Z"/>
  <path class="cls-2" d="m244.97,20.56c1.01-.29,2.31-.4,2.24,1.38-.02.48-.02.96-.02,1.45-.15,3.19-.29,6.4-.4,9.6-.04.84-.34,1.17-1.17,1.68-3.29,1.93-7.09.88-10.42,2.16-.46-4.72-1.07-9.44-.88-14.2.61-.23,1.2-.67,1.78-.63,3.06.1,5.96-.63,8.87-1.45Z"/>
  <path class="cls-5" d="m247.19,23.39c-.17,6.77-.31,13.57-.46,20.36-1.64.15-3.38-.04-4.86.5-2.01.73-4,.46-6.02.55-.61-2.62-.71-5.28-.65-7.97,3.33-1.28,7.13-.23,10.42-2.16.84-.5,1.13-.84,1.17-1.68.1-3.21.25-6.42.4-9.6Z"/>
  <path class="cls-5" d="m246.73,43.75c-.15,4.89-.29,9.77-.44,14.64-1.26.59-2.54.73-3.92.63-1.78-.13-3.59-.08-5.39-.1-.42-.42-.27-.94-.31-1.45-.31-3.25-.63-6.5-.94-9.75.46-.38.48-.75-.02-1.13.04-.59.1-1.2.15-1.78,2.01-.08,4,.19,6.02-.55,1.49-.55,3.23-.36,4.86-.5Z"/>
  <path class="cls-5" d="m246.29,58.39c-.1,2.89-.19,5.77-.29,8.64-2.79-.06-5.56-.13-8.35-.21-.48-2.6-.57-5.26-.67-7.91,1.8.02,3.61-.02,5.39.1,1.38.1,2.66-.04,3.92-.63Z"/>
  <path class="cls-1" d="m245.99,67.03c-.04,4.03-.1,8.07-.17,12.1-.29,2.05-1.28,2.73-3.23,1.72-1.3-.69-2.58-.8-3.92-.88-2.87-.17-3.29.65-2.64,3.59.65,2.83,1.4,5.68,1.22,8.64-6.1-.13-12.2-.15-18.28-.59.44-4.03-1.05-7.95-.65-11.95.08-.78-.42-1.2-.78-1.7.34-.13.67-.36,1.01-.34,5.41.38,10.78-.69,16.17-.31,3.17.23,3.19.15,3.15-2.91-.04-2.52-.15-5.03-.21-7.57,2.79.08,5.56.15,8.35.21Z"/>
  <path class="cls-5" d="m245.83,79.13c.55,3.9.23,7.8-.02,11.68-.06,1.2-1.17,1.68-2.43,1.61-2.03-.1-4.09-.17-6.12-.23.19-2.96-.57-5.81-1.22-8.64-.65-2.94-.23-3.75,2.64-3.59,1.34.08,2.62.19,3.92.88,1.95,1.01,2.94.34,3.23-1.72Z"/>
  <path class="cls-4" d="m237.86,74.39c.04,3.06.02,3.15-3.15,2.91-5.39-.38-10.76.69-16.17.31-.34-.02-.67.21-1.01.34-1.72-.06-3.44-.1-5.16-.17-5.01.02-10.02.04-15.03.04-1.8-.34-3.59.08-5.39.25-.86-.04-1.74-.08-2.62-.13-.55-.04-1.09-.21-1.61.13l-3.21-.06-.15-.1-.15.13h-1.05l-.13-.15-.15.13h-4.11c-4.38.57-8.76-.06-13.15.06-3.92.44-7.86,0-11.81.02-.78,0-1.59-.29-2.33.25-2.18.02-4.36-.19-6.5.27-3.4-.25-6.79-.5-10.19.04-1.74-.04-3.46-.06-5.2-.1-5.24-.36-10.46.21-15.71.1-5.89.17-11.81.34-17.7.5-5.26-.5-10.53.19-15.79.02-4.13-.25-8.24.04-12.33.38-1.2-.06-2.37-.1-3.54-.15-6.14-.15-12.29.15-18.41.36-4.68-.4-9.35-.04-14.03.23-4.11.04-8.22-.25-12.33.21-1.45-.04-2.87.5-4.32.17-.8-1.45-.84-2.91-.67-4.59.36-3.44.17-6.94-.29-10.38-.04-3.82-.08-7.61-.13-11.43,0-4.97-.13-9.94-.8-14.87.44-2.39-.46-4.74-.19-7.13.55-4.7-.78-9.35-.44-14.05.27-2.87.38-2.98,3.29-3.04,5.07.02,10.17.04,15.24.06,5.62.17,11.24.34,16.84.48,6.46.23,12.9.46,19.35.67.25,0,.52-.19.8-.27,4.63.42,9.29-.13,13.92.06,6.19.17,12.37.36,18.56.52,5.54.04,11.07.1,16.61.13.34,0,.67-.23,1.01-.34.27.06.57.13.86.21.52.88,1.09.92,1.7.06,5.28.08,10.55.17,15.83.25,3.23-.02,6.46-.02,9.69-.04,4.09.34,8.18.4,12.27-.04,3.23.08,6.48.19,9.71.29l15.35.5c3.8.44,7.57-.4,11.34-.04,1.15.1,2.33-.06,3.46.42.52.21,1.15.31,1.43-.48,3.23.04,6.44.06,9.67.1,2.68.06,5.35.15,8.03.21,5.22.21,10.46.4,15.68.59,1.2,1.3.75,2.87.73,4.38-.19,4.76.42,9.48.88,14.2-.06,2.68.04,5.35.65,7.97-.04.59-.1,1.2-.15,1.78-.61.38-.1.75.02,1.13.31,3.25.63,6.5.94,9.75.04.5-.1,1.03.31,1.45.1,2.64.19,5.3.67,7.91.06,2.54.17,5.05.21,7.57Zm-9.44-35.18c1.26-.13,1.24-1.17,1.24-1.97.04-4.07-.25-8.14-.82-12.18-.23-1.57-1.07-2.43-2.68-2.03-1.26.31-2.47.21-3.69.17-2.7-.1-5.41-.19-8.11-.27-1.32-.04-2.41.4-2.39,1.89,0,1.43,1.05,1.68,2.31,1.64,1.45-.06,2.91.06,4.36.13v-.06c.96.04,1.91.06,2.85.1,4.42.17,4.61.36,4.68,4.93v.88c0,1.74-.17,3.5.27,5.22.25,1.07.82,1.7,1.99,1.57ZM36.5,74.87c1.17-.08,1.93-.73,1.89-1.99-.02-1.32-1.01-1.4-2.01-1.43-3.5-.1-7-.27-10.53-.31-1.22-.02-1.74-.21-1.91-1.64-.48-4.03.19-8.03.02-12.04-.04-.94.02-1.91-.38-2.81-.38-.8-.86-1.34-1.82-1.22-1.07.15-1.22.88-1.26,1.74-.04,1.91-.13,3.82-.19,5.7-.42,4.11.42,8.16.46,12.25,0,1.49.96,1.99,2.16,1.76,3.44-.65,6.86-.13,10.3-.06,1.09.02,2.18.1,3.27.04Z"/>
  <path class="cls-5" d="m235.7,46.59c.5.38.48.75.02,1.13-.13-.38-.63-.75-.02-1.13Z"/>
  <path class="cls-5" d="m234.23,9.14c1.07,1.45.55,3.12.15,4.49-.46,1.55-.67,3.06-.8,4.63-5.22-.19-10.46-.38-15.68-.59.04-2.87.08-5.77.13-8.64,5.41.04,10.8.06,16.21.1Z"/>
  <path class="cls-3" d="m229.66,37.23c0,.8.02,1.85-1.24,1.97-1.17.13-1.74-.5-1.99-1.57-.44-1.72-.27-3.48-.27-5.22v-.88c-.06-4.57-.25-4.76-4.68-4.93-.94-.04-1.89-.06-2.85-.1v.06c-1.45-.06-2.91-.19-4.36-.13-1.26.04-2.31-.21-2.31-1.64-.02-1.49,1.07-1.93,2.39-1.89,2.7.08,5.41.17,8.11.27,1.22.04,2.43.15,3.69-.17,1.61-.4,2.45.46,2.68,2.03.57,4.05.86,8.11.82,12.18Z"/>
  <path class="cls-5" d="m218.31,79.65c-.4,4,1.09,7.93.65,11.95-1.78-.06-3.56-.1-5.35-.17-.55-4.03-.88-8.05-.52-12.12.06-.67-.4-1.05-.71-1.53,1.72.06,3.44.1,5.16.17.36.5.86.92.78,1.7Z"/>
  <path class="cls-1" d="m218.02,9.03c-.04,2.87-.08,5.77-.13,8.64-2.68-.06-5.35-.15-8.03-.21.48-2.94-1.22-5.77-.46-8.7,2.87.08,5.75.19,8.62.27Z"/>
  <path class="cls-5" d="m213.62,91.44c-3.15.04-6.29.08-9.44.1-1.24-.02-2.47-.04-3.73-.08-.99-.02-1.97-.04-2.98-.08-.71-.31-.52-.94-.52-1.51.13-4,.27-8.01.4-12.04,5.01,0,10.02-.02,15.03-.04.31.48.78.86.71,1.53-.36,4.07-.02,8.09.52,12.12Z"/>
  <path class="cls-6" d="m209.4,8.76c-.75,2.94.94,5.77.46,8.7-3.23-.04-6.44-.06-9.67-.1-1.36,0-1.87-.63-1.74-2.01.19-2.31.21-4.61.29-6.92,3.54.1,7.09.23,10.65.34Z"/>
  <path class="cls-5" d="m200.45,91.46c1.26.04,2.5.06,3.73.08-1.24.23-2.5.15-3.73-.08Z"/>
  <path class="cls-5" d="m200.2,17.36c-.27.8-.9.69-1.43.48-1.13-.48-2.31-.31-3.46-.42-3.77-.36-7.55.48-11.34.04q3.08-.63,3.17-4,.17-5.1-4.99-5.28c-3.42-.1-6.86-.25-10.27-.38,4.24-.34,8.45.15,12.66.21,4.74.1,9.48.27,14.22.42-.08,2.31-.1,4.61-.29,6.92-.13,1.38.38,2.01,1.74,2.01Z"/>
  <path class="cls-5" d="m197.35,77.83c-.13,4.03-.27,8.03-.4,12.04,0,.57-.19,1.2.52,1.51-2.45.48-4.91.1-7.38.04-.19,0-.38,0-.57-.02v-.27c.71,0,1.24-.48,1.2-1.24-.29-4,1.11-7.84,1.24-11.81,1.8-.17,3.59-.59,5.39-.25Z"/>
  <path class="cls-2" d="m189.34,77.95c.88.04,1.76.08,2.62.13-.13,3.96-1.53,7.8-1.24,11.81.04.75-.48,1.24-1.2,1.24h-.04c-3.73-.1-7.44-.23-11.16-.4-.75-.04-1.3-.67-1.07-1.36,1.05-3.25.13-6.61.69-9.88.1-.67.48-1.03.84-1.47h4.11l.13.04.15-.02h1.05l.15.04.15-.06,3.21.06c.55.17,1.11.36,1.61-.13Z"/>
  <path class="cls-1" d="m189.53,91.12v.27c-8.24-.21-16.48-.48-24.72-.75.31-4.19.99-8.35.84-12.56,4.38-.13,8.76.5,13.15-.06-.36.44-.73.8-.84,1.47-.57,3.27.36,6.63-.69,9.88-.23.69.31,1.32,1.07,1.36,3.71.17,7.42.29,11.16.4h.04Z"/>
  <path class="cls-5" d="m187.72,78.08c.52-.34,1.07-.17,1.61-.13-.5.48-1.07.29-1.61.13Z"/>
  <path class="cls-1" d="m182.14,8.17q5.16.19,4.99,5.28-.08,3.38-3.17,4l-15.35-.5c.06-3.04.13-6.06.17-9.1l3.08-.06c3.42.13,6.86.27,10.27.38Z"/>
  <polygon class="cls-5" points="184.51 78.02 184.37 78.08 184.22 78.04 184.37 77.91 184.51 78.02"/>
  <polygon class="cls-5" points="183.05 77.89 183.17 78.04 183.02 78.06 182.9 78.02 183.05 77.89"/>
  <path class="cls-5" d="m168.79,7.86c-.04,3.04-.1,6.06-.17,9.1-3.23-.1-6.48-.21-9.71-.29.1-2.94.21-5.85.31-8.79,3.19-.15,6.37-.44,9.56-.02Z"/>
  <path class="cls-6" d="m165.64,78.08c.15,4.21-.52,8.37-.84,12.56-4.55-.15-9.1-.29-13.65-.42.13-3.96.23-7.93.36-11.87.73-.55,1.55-.25,2.33-.25,3.94-.02,7.88.42,11.81-.02Z"/>
  <path class="cls-5" d="m159.23,7.88c-.1,2.94-.21,5.85-.31,8.79-4.09.44-8.18.38-12.27.04.08-3.06.15-6.12.21-9.18,3.77.08,7.53.19,11.3.27h.02c.36.02.69.06,1.05.08Z"/>
  <polygon class="cls-5" points="158.18 7.71 158.18 7.79 158.16 7.79 158.18 7.71"/>
  <path class="cls-5" d="m151.51,78.35c-.13,3.94-.23,7.91-.36,11.87-2.33-.08-4.65-.15-7-.21.29-3.8.57-7.59.86-11.39,2.14-.46,4.32-.25,6.5-.27Z"/>
  <path class="cls-1" d="m146.85,7.52c-.06,3.06-.13,6.12-.21,9.18-3.23.02-6.46.02-9.69.04.1-3.17.23-6.33.34-9.52,3.19.1,6.37.19,9.56.29Z"/>
  <path class="cls-1" d="m145.01,78.62c-.29,3.8-.57,7.59-.86,11.39-3.23.21-6.46.36-9.67-.1.1-3.73.23-7.49.34-11.24,3.4-.55,6.79-.29,10.19-.04Z"/>
  <path class="cls-5" d="m137.29,7.23c-.1,3.19-.23,6.35-.34,9.52-5.28-.08-10.55-.17-15.83-.25l-1.7-.06c-.29-.08-.59-.15-.86-.21.08-2.5.25-4.97.23-7.44-.02-1.51.59-1.87,1.95-1.8,1.36.04,2.75.36,4.11-.13,4.15.13,8.28.25,12.43.38Z"/>
  <path class="cls-5" d="m134.82,78.67c-.1,3.75-.23,7.51-.34,11.24-1.91.73-3.88.31-5.81.27-.17,0-.31,0-.48-.02v-.17c1.66,0,2.37-.88,1.89-2.33-1.03-3.04-.34-6.06-.46-9.1,1.74.04,3.46.06,5.2.1Z"/>
  <path class="cls-5" d="m130.08,87.66c.48,1.45-.23,2.33-1.89,2.33h-.23c-4.07-.21-8.16-.34-12.22-.42-1.2-.02-1.64-.31-1.45-1.61.42-3.1-1.15-6.16-.38-9.29,5.24.1,10.46-.46,15.71-.1.13,3.04-.57,6.06.46,9.1Z"/>
  <path class="cls-1" d="m128.19,89.99v.17c-10.74-.23-21.51-.61-32.25-.94.08-3.33.17-6.69.27-10.04,5.89-.17,11.81-.34,17.7-.5-.78,3.12.8,6.19.38,9.29-.19,1.3.25,1.59,1.45,1.61,4.07.08,8.16.21,12.22.42h.23Z"/>
  <path class="cls-6" d="m124.86,6.85c-1.36.48-2.75.17-4.11.13-1.36-.06-1.97.29-1.95,1.8.02,2.47-.15,4.95-.23,7.44-.34.1-.67.34-1.01.34-5.54-.02-11.07-.08-16.61-.13.08-2.39.19-4.76.25-7.15q.08-2.83-2.83-2.94c8.85-.25,17.66.38,26.48.5Z"/>
  <path class="cls-5" d="m119.43,16.43l1.7.06c-.61.86-1.17.82-1.7-.06Z"/>
  <path class="cls-2" d="m98.38,6.35q2.91.1,2.83,2.94c-.06,2.39-.17,4.76-.25,7.15-6.19-.17-12.37-.36-18.56-.52.1-3.23.21-6.44.29-9.67,5.24.04,10.46.06,15.68.1Z"/>
  <path class="cls-5" d="m96.22,79.17c-.1,3.35-.19,6.71-.27,10.04-5.28.02-10.55-.15-15.83-.5.1-3.17.21-6.35.31-9.52,5.26.17,10.53-.52,15.79-.02Z"/>
  <path class="cls-1" d="m82.69,6.24c-.08,3.23-.19,6.44-.29,9.67-4.63-.19-9.29.36-13.92-.06.08-3.33.17-6.69.27-10.02,4.65.15,9.31.27,13.94.42Z"/>
  <path class="cls-5" d="m80.43,79.19c-.1,3.17-.21,6.35-.31,9.52-4.34-.1-8.68.46-13.02-.04.75-.55.71-1.34.73-2.14.06-2.31.17-4.61.27-6.94v-.02c4.09-.34,8.2-.63,12.33-.38Z"/>
  <path class="cls-5" d="m68.75,5.82c-.1,3.33-.19,6.69-.27,10.02-.27.08-.55.27-.8.27-6.46-.21-12.9-.44-19.35-.67,1.13-2.43,1.03-4.84.31-7.4-.57-1.97.55-2.64,2.56-2.54,2.87.13,5.77.48,8.66.04,2.96.1,5.91.19,8.89.27Z"/>
  <path class="cls-2" d="m68.1,79.59c-.1,2.33-.21,4.63-.27,6.94-.02.8.02,1.59-.73,2.14-1.07.02-2.14.02-3.19.04-5.12-.17-10.21-.34-15.31-.55-.71-.02-1.7.36-1.89-.9-.38-2.47-1.03-4.93-.57-7.49,6.12-.21,12.27-.5,18.41-.36,1.2.04,2.37.1,3.54.17Z"/>
  <path class="cls-1" d="m63.9,88.71c-4.68.4-9.31-.13-13.96-.19-4.74-.08-9.46-.31-14.2-.46-.13-2.29-1.15-4.42-1.17-6.75-.02-1.8-1.59-.92-2.45-1.3,4.68-.27,9.35-.63,14.03-.23-.46,2.56.19,5.01.57,7.49.19,1.26,1.17.88,1.89.9,5.1.21,10.19.38,15.31.55Z"/>
  <path class="cls-1" d="m59.86,5.55c-2.89.44-5.79.08-8.66-.04-2.01-.1-3.12.57-2.56,2.54.71,2.56.82,4.97-.31,7.4-5.6-.15-11.22-.31-16.84-.48.63-2.26-.59-4.38-.55-6.61.04-2.98.02-2.98-2.91-3.23-.15,0-.29-.06-.44-.08,7.78-.38,15.56.08,23.32.23,3,.04,5.98.19,8.95.27Z"/>
  <path class="cls-3" d="m38.39,72.88c.04,1.26-.71,1.91-1.89,1.99-1.09.06-2.18-.02-3.27-.04-3.44-.06-6.86-.59-10.3.06-1.2.23-2.16-.27-2.16-1.76-.04-4.09-.88-8.14-.46-12.25.06-1.89.15-3.8.19-5.7.04-.86.19-1.59,1.26-1.74.96-.13,1.45.42,1.82,1.22.4.9.34,1.87.38,2.81.17,4-.5,8.01-.02,12.04.17,1.43.69,1.61,1.91,1.64,3.52.04,7.02.21,10.53.31,1.01.02,1.99.1,2.01,1.43Z"/>
  <path class="cls-2" d="m35.74,88.06c-5.16-.17-10.32-.31-15.45-.48-.25-2.43-1.03-4.84-.5-7.36,4.11-.46,8.22-.17,12.33-.21.86.38,2.43-.5,2.45,1.3.02,2.33,1.05,4.47,1.17,6.75Z"/>
  <path class="cls-2" d="m30.94,8.36c-.04,2.22,1.17,4.34.55,6.61-5.07-.02-10.17-.04-15.24-.06-.78-3.33,0-6.67-.1-9.98l11.45.13c.15.02.29.08.44.08,2.94.25,2.96.25,2.91,3.23Z"/>
  <path class="cls-5" d="m20.29,87.58c-4.59.15-9.16-.4-13.76-.06-1.7.13-2.98-.67-2.68-2.79.13-.92.08-1.89.1-2.83.42.75,1.22,1.09,1.82.69,1.22-.73,2.56-.38,3.75-.71,1.68-.46,3.33-.71,5.07-.67.5.02.71-.4.86-.82,1.45.34,2.87-.21,4.32-.17-.52,2.52.25,4.93.5,7.36Z"/>
  <path class="cls-5" d="m16.14,4.92c.1,3.31-.67,6.65.1,9.98-2.91.06-3.02.17-3.29,3.04-2.41.15-4.89-.75-7.28.29-.5-4.11.02-8.2,0-12.29,0-1.28.96-1.47,1.99-1.43,2.83.15,5.64.27,8.47.4Z"/>
  <path class="cls-1" d="m14.5,65.41c.46,3.44.65,6.94.29,10.38-.17,1.68-.13,3.15.67,4.59-.15.42-.36.84-.86.82-1.74-.04-3.4.21-5.07.67-1.2.34-2.54-.02-3.75.71-.61.4-1.4.06-1.82-.69.17-5.01.31-10.02.48-15.06.67,0,1.01-.75,1.76-.71,2.79.1,5.6.23,8.3-.71Z"/>
  <path class="cls-5" d="m14.38,53.99c.04,3.82.08,7.61.13,11.43-2.7.94-5.51.82-8.3.71-.75-.04-1.09.71-1.76.71.1-3.8.21-7.59.29-11.39,3.23-.48,6.44-.96,9.65-1.47Z"/>
  <path class="cls-6" d="m14.38,53.99c-3.21.5-6.42.99-9.65,1.47.17-4.99.34-9.96.5-14.95,2.52.04,4.93-1.07,7.49-.78.25.04.57-.4.86-.61.67,4.93.8,9.9.8,14.87Z"/>
  <path class="cls-5" d="m13.39,31.99c-.27,2.39.63,4.74.19,7.13-.29.21-.61.65-.86.61-2.56-.29-4.97.82-7.49.78.08-2.6.17-5.2.25-7.82,2.7.5,5.26-.55,7.91-.69Z"/>
  <path class="cls-2" d="m12.95,17.94c-.34,4.7.99,9.35.44,14.05-2.64.15-5.2,1.2-7.91.69-.48-3.63-.34-7.26-.1-10.9v-.19c.1-1.11.19-2.24.29-3.35,2.39-1.05,4.86-.15,7.28-.29Z"/>
  <path class="cls-5" d="m5.38,21.59v.19c-.04-.08-.08-.15-.1-.23.04.02.06.02.1.04Z"/>
</svg>