<?xml version="1.0" encoding="UTF-8"?>
<svg id="Layer_1" data-name="Layer 1" xmlns="http://www.w3.org/2000/svg" viewBox="0 0 266.8 104.64">
  <defs>
    <style>
      .cls-1 {
        fill: #d6bfdc;
      }

      .cls-1, .cls-2, .cls-3, .cls-4 {
        stroke-width: 0px;
      }

      .cls-2 {
        fill: #9da8d5;
      }

      .cls-3 {
        fill: #781b1b;
      }

      .cls-4 {
        fill: #894f62;
      }
    </style>
  </defs>
  <path class="cls-3" d="m261.1,88.06c1.34,2.6.38,3.98-2.6,3.92-.94-.02-1.89-.06-3.19-.1-5.24.34-9.92-2.52-14.87-4.45-1.28-.48-2.58-.99-3.82-1.59-.27-.13-.52-.19-.75-.19l.13-5.07c2.73.06,5.47.13,8.2.19.9.04,1.15-.46,1.17-1.17.1-2.62.19-5.24.29-8.09-3.29,1.03-6.46,1.66-9.56,2.35l-.67-2.85c2.64-.42,5.12-1.38,7.7-1.89,1.24-.23,1.82-.99,1.82-2.45-.02-3.86-1.13-7.63-.71-11.51.02-.15,0-.31-.08-.42-.19-.29-.36-.71-.63-.82-.61-.27-.63.36-.86.69-.57.75-1.11,1.53-1.68,2.29l-2.24-1.66c3.48-4.53,5.22-9.41,4.32-15.24-.8-5.24-1.32-10.53-1.13-15.83.1-2.96-1.07-4.07-4.09-3.88-1.59.1-3.19.34-4.8.34-1.24,0-2.47,0-3.71-.02l.02-3.25c.36,0,.73-.15,1.17-.4,5.1-3.02,10.76-4.47,16.4-5.96,4.07-1.07,6.12.88,5.26,4.97-.75,3.65-1.47,7.32-2.94,10.78-.67,1.57.19,2.62.94,3.77,2.29,3.54,5.07,6.77,7,10.57.82,1.59.67,2.68-.5,3.9-1.34,1.43-2.54,3-3.9,4.42-.99,1.05-.84,1.8.19,2.73,2.52,2.22,4.97,4.51,7.42,6.77,2.96,2.73,2.98,5.1-.02,7.67-2.22,1.91-3.84,4.4-5.98,6.4-.86.82-.57,1.53-.04,2.33,2.62,4.05,4.51,8.49,6.73,12.77Z"/>
  <path class="cls-4" d="m245.67,71.49c-.1,2.85-.19,5.47-.29,8.09-.02.71-.27,1.22-1.17,1.17-2.73-.06-5.47-.13-8.2-.19-3.92-.1-7.82-.19-11.74-.29-.19-.02-.38-.17-.46-.19,1.61-4.86,6.02-4.65,9.69-5.62.86-.23,1.74-.42,2.62-.63,3.1-.69,6.27-1.32,9.56-2.35Z"/>
  <path class="cls-1" d="m244.16,54.72c.08.1.1.27.08.42-.42,3.88.69,7.65.71,11.51,0,1.47-.59,2.22-1.82,2.45-2.58.5-5.05,1.47-7.7,1.89-1.61.25-3.15.94-5.05.73.48-1.89,1.97-2.94,2.94-4.3,2.47-3.56,5.1-7.05,7.67-10.55.57-.75,1.11-1.53,1.68-2.29.23-.34.25-.96.86-.69.27.1.44.52.63.82Z"/>
  <path class="cls-2" d="m243.07,39.98c.9,5.83-.84,10.71-4.32,15.24-.19.25-.38.5-.59.75-4.19,5.18-8.05,10.63-11.99,16.02-1.55,2.14-4,2.14-6.16,2.75-3.67,1.05-7.4,1.87-11.13,2.7-6.86,1.55-13.5,3.88-20.8,3.5-9.31-.48-18.7-.15-28.03.02-13.44.21-26.88.15-40.32.42-11.78.21-23.59.21-35.35.52-11.87.34-23.76.08-35.6.57-6.56.29-13.15.08-19.69.48-1.15.06-2.31.15-3.46.25-3,.29-3.65-.42-3.54-3.42.08-1.82.13-3.65.19-5.49.15-3.86.06-7.74-.38-11.6-.19-1.59.67-2.98,1.11-4.36,1.09-3.52,2.12-7.07,3.46-10.48.38-.96.78-1.91,1.2-2.85.63-1.36,1.85-1.87,2.96-2.37,4.63-2.1,9.33-4.05,14.03-6.02,7.34-3.08,14.61-6.35,21.7-9.98,6.35-3.25,13.17-5.3,19.82-7.84.99-.38,2.03-.23,3.04-.21,8.35.21,16.71.88,25.04.57,12.58-.48,25.14.9,37.7.38,13.27-.57,26.46.99,39.69.5,12.6-.48,25.14.4,37.72.55,1.24.02,2.47.02,3.71.02,1.61,0,3.21-.23,4.8-.34,3.02-.19,4.19.92,4.09,3.88-.19,5.3.34,10.59,1.13,15.83Z"/>
  <path class="cls-3" d="m238.75,55.22l2.24,1.66c-2.58,3.5-5.2,6.98-7.67,10.55-.96,1.36-2.45,2.41-2.94,4.3,1.91.21,3.44-.48,5.05-.73l.67,2.85c-.88.21-1.76.4-2.62.63-3.67.96-8.07.75-9.69,5.62.08.02.27.17.46.19,3.92.1,7.82.19,11.74.29l-.13,5.07c-.55,0-.99.31-1.45.63-3.4,2.39-6.86,4.72-10.13,7.28-1.55,1.24-2.89,1.26-4.36.25-2.96-2.05-6.65-2.6-9.6-4.65-.23-.15-.63-.29-.82-.21-4.11,1.99-8.64,3.35-11.32,7.46-1.09,1.66-2.29,1.76-3.86.69-3.27-2.2-6.61-4.3-9.86-6.54-1.11-.75-2.1-.84-3.23-.13-3.56,2.24-7.17,4.47-9.65,8.07-.75,1.09-1.59,1.13-2.81.48-3.8-2.03-6.88-4.89-9.88-7.91-2.08-2.08-2.22-2.14-4.4-.13-2.45,2.26-5.37,4.03-7.21,6.94-.9,1.43-2.39,1.05-3.54.4-3.61-2.03-7.17-4.17-10.67-6.4-1.09-.69-1.87-.8-2.98-.15-3.48,2.01-7.07,3.82-10.27,6.27-1.51,1.15-2.83.8-4.11-.38-2.47-2.26-4.97-4.51-7.17-7.07-.9-1.03-1.64-1.15-2.96-.36-2.91,1.8-5.43,3.88-6.9,7.09-.86,1.89-2.5,2.35-4.42,1.59-3.17-1.22-5.68-3.56-8.68-5.07-1.05-.52-2.16-1.03-2.98-1.8-1.55-1.51-2.7-1.38-4.21.1-1.87,1.8-4.17,3.15-5.35,5.68-.59,1.24-1.85,1.26-3.06.71-1.8-.84-3.63-1.66-5.14-2.91-2.39-1.97-5.1-3.4-7.7-5.01-1.61-1.01-3.17-.4-4.57.34-2.62,1.43-5.28,2.85-7.7,4.59-1.8,1.3-3.29,1.28-4.97.06-2.79-2.01-5.58-4-8.32-6.08-.73-.57-1.45-.71-2.24-.71l-.29-5.83c6.54-.4,13.13-.19,19.69-.48,11.85-.48,23.74-.23,35.6-.57,11.76-.31,23.57-.31,35.35-.52,13.44-.27,26.88-.21,40.32-.42,9.33-.17,18.72-.5,28.03-.02,7.3.38,13.94-1.95,20.8-3.5,3.73-.84,7.46-1.66,11.13-2.7,2.16-.61,4.61-.61,6.16-2.75,3.94-5.39,7.8-10.84,11.99-16.02.21-.25.4-.5.59-.75Zm-28.43,25.56c3.67-.94,8.39,2.33,11.43-3.48-4.21,1.03-7.91,1.95-11.57,2.85.06.21.1.42.15.63Z"/>
  <path class="cls-3" d="m229.36,17.33l-.02,3.25c-12.58-.15-25.12-1.03-37.72-.55-13.23.48-26.42-1.07-39.69-.5-12.56.52-25.12-.86-37.7-.38-8.32.31-16.69-.36-25.04-.57-1.01-.02-2.05-.17-3.04.21-6.65,2.54-13.46,4.59-19.82,7.84-7.09,3.63-14.36,6.9-21.7,9.98-4.7,1.97-9.39,3.92-14.03,6.02-1.11.5-2.33,1.01-2.96,2.37-.42.94-.82,1.89-1.2,2.85l-2.64-1.03c.23-.42.31-.84-.1-1.15-.21-.17-.44-.19-.67-.13l-1.07-2.66c.21,0,.46-.08.71-.17,1.85-.52,3.46-1.34,4.24-3.29.4-.99.8-1.95,1.2-2.94l2.54,1.03c-.21.42-.23.82.25,1.15.82.61,1.97-.52,2.98-.9,7.72-3.04,15.33-6.35,22.88-9.83,4.21-1.97,8.37-4.11,12.6-6.08,2.33-1.09,4.91-1.7,7.34-3.17-.52-.19-.78-.38-1.05-.38-6.58.17-13.19.17-19.75-.06l.15-5.45c.4,0,.82-.08,1.28-.21,3.71-1.05,6.71-3.5,10.17-5.03,2.6-1.13,4.49-.57,6.4,1.09.4.34.73.71,1.09,1.09,4.61,4.99,4.05,4.51,10.67,1.82,3.17-1.28,5.83-3.61,9.06-4.84,1.45-.55,2.52-.59,3.77.5,1.87,1.64,3.98,2.98,6.29,3.94.61.25,1.3.57,1.64,1.07,1.57,2.26,3.06,1.57,5.12.48,4.13-2.18,8.45-3.96,12.73-5.85,1.32-.59,2.58-.42,3.48.9,1.26,1.89,2.54,3.75,3.73,5.66.99,1.57,2.1,1.72,3.69.86,4.4-2.41,8.89-4.72,13.34-7.07,2.35-1.24,3.84-.96,5.43,1.22,1.38,1.89,2.68,3.82,3.98,5.75.71,1.07,1.43,1.11,2.54.42,4.17-2.54,8.41-4.97,12.64-7.4,2.18-1.24,3.21-.96,4.61,1.05,1.34,1.93,2.79,3.75,4.36,5.49,1.03,1.17,1.78,1.36,3.02.21,2.73-2.56,5.83-4.63,9.12-6.4,3.15-1.68,4.11-1.47,6.33,1.3,1.78,2.22,3.67,4.36,5.3,6.69.84,1.17,1.3,1.13,2.33.29,3.12-2.56,6.54-4.63,10.25-6.23,2.33-.99,3.86-.78,5.45,1.15,1.43,1.74,2.79,3.56,4,5.45.46.75.92,1.11,1.49,1.11Z"/>
  <path class="cls-3" d="m221.75,77.3c-3.04,5.81-7.76,2.54-11.43,3.48-.04-.21-.08-.42-.15-.63,3.67-.9,7.36-1.82,11.57-2.85Z"/>
  <path class="cls-4" d="m75.64,18.32c.27,0,.52.19,1.05.38-2.43,1.47-5.01,2.08-7.34,3.17-4.24,1.97-8.39,4.11-12.6,6.08-7.55,3.48-15.16,6.79-22.88,9.83-1.01.38-2.16,1.51-2.98.9-.48-.34-.46-.73-.25-1.15.25-.5.78-1.03.94-1.45,2.41-5.64,4.34-11.49,7.17-16.94.59-1.13,1.17-1.38,2.31-1.34,4.38.17,8.76.25,13.15.42.57.02,1.11.04,1.68.04,6.56.23,13.17.23,19.75.06Z"/>
  <path class="cls-3" d="m56.03,12.8l-.15,5.45c-.57,0-1.11-.02-1.68-.04-4.38-.17-8.76-.25-13.15-.42-1.13-.04-1.72.21-2.31,1.34-2.83,5.45-4.76,11.3-7.17,16.94-.17.42-.69.94-.94,1.45l-2.54-1.03c.84-2.03,1.68-4.09,2.54-6.12,1.59-3.82,3.23-7.63,4.8-11.45.4-.96-.08-1.3-1.03-1.32-1.97-.04-3.94-.13-5.91-.19v.04c-.15-.02-.29-.02-.44-.02-1.38-.04-2.77-.08-4.17-.13-2.89-.08-3.19.25-3.35,3.19-.4,7.19.42,14.34.8,21.51.04.67.29.88.63.88l1.07,2.66c-.21.06-.46.23-.67.42-1.78,1.53-.73,3.4-.94,5.43,1.64-1.3,1.38-3.1,2.26-4.38l.13-.19,2.64,1.03c-1.34,3.42-2.37,6.96-3.46,10.48-.44,1.38-1.3,2.77-1.11,4.36.44,3.86.52,7.74.38,11.6-.06,1.85-.1,3.67-.19,5.49-.1,3,.55,3.71,3.54,3.42,1.15-.1,2.31-.19,3.46-.25l.29,5.83c-.31,0-.63.04-.99.06-6.04.5-11.7,2.43-17.42,4.13-.69.21-1.45.21-2.18.21-2.62-.02-3.77-1.76-2.45-4.07,2.91-5.14,5.91-10.25,9.08-15.24.82-1.32.61-1.74-.5-2.5-2.96-1.99-5.89-4.07-8.76-6.19-2.91-2.16-2.94-4.21-.17-6.56,2.52-2.14,4.53-4.74,6.88-7.05.5-.5.67-.88-.02-1.4-2.31-1.76-4.32-3.94-6.94-5.33-2.22-1.17-2.22-1.76-.61-3.77,2.81-3.54,5.85-6.88,8.22-10.78,1.28-2.1,1.11-3.92.4-6-1.64-4.82-3.73-9.52-4.51-14.59-.48-3.19.59-4.24,3.75-3.8.86.1,1.78.27,2.52.67,4.05,2.24,8.76,2.24,12.96,3.9.67.27,1.24.23,1.87-.15,3.88-2.29,8.28-3.61,11.95-6.31,1.61-1.2,2.77-.25,3.92,1.01,2.5,2.75,4.99,5.51,8.28,7.38.48.27.94.38,1.4.38Z"/>
  <path class="cls-1" d="m34.41,17.61c.94.02,1.43.36,1.03,1.32-1.57,3.82-3.21,7.63-4.8,11.45-.86,2.03-1.7,4.09-2.54,6.12-.4.99-.8,1.95-1.2,2.94-.78,1.95-2.39,2.77-4.24,3.29-.25.08-.5.17-.71.17-.34,0-.59-.21-.63-.88-.38-7.17-1.2-14.32-.8-21.51.17-2.94.46-3.27,3.35-3.19,1.4.04,2.79.08,4.17.13.15,0,.29,0,.44.02v-.04c1.97.06,3.94.15,5.91.19Z"/>
  <path class="cls-3" d="m23.7,45.68c.42.31.34.73.1,1.15l-.13.19c-.88,1.28-.63,3.08-2.26,4.38.21-2.03-.84-3.9.94-5.43.21-.19.46-.36.67-.42.23-.06.46-.04.67.13Z"/>
</svg>